<svg xmlns="http://www.w3.org/2000/svg" width="420" height="40" viewBox="0 0 420 40" role="img"><rect x="0.5" y="0.5" width="419" height="39" rx="10" fill="#ffffff" stroke="#f2f4f6" /><path d="M27.03 19.22C27.03 17.46 25.84 16.00 23.67 16.00L20.19 16.00C19.53 16.00 18.99 16.54 18.99 17.20L18.99 25.04C18.99 25.61 19.47 26.09 20.04 26.09C20.64 26.09 21.12 25.61 21.12 25.04L21.12 22.45L23.67 22.45C25.83 22.45 27.03 20.96 27.03 19.22ZM24.86 19.22C24.86 20.05 24.23 20.57 23.38 20.57L21.12 20.57L21.12 17.87L23.38 17.87C24.23 17.87 24.86 18.38 24.86 19.22ZM35.25 22.37C35.25 20.32 33.81 18.57 31.41 18.57C29.02 18.57 27.59 20.32 27.59 22.37C27.59 24.44 29.02 26.18 31.41 26.18C33.81 26.18 35.25 24.44 35.25 22.37ZM33.27 22.37C33.27 23.51 32.59 24.48 31.41 24.48C30.23 24.48 29.57 23.51 29.57 22.37C29.57 21.25 30.23 20.27 31.41 20.27C32.59 20.27 33.27 21.25 33.27 22.37ZM44.01 22.37C44.01 19.95 42.48 18.57 40.65 18.57C39.78 18.57 38.99 18.96 38.57 19.69L38.57 19.61C38.57 19.09 38.15 18.66 37.61 18.66C37.08 18.66 36.66 19.09 36.66 19.61L36.66 27.92C36.66 28.43 37.07 28.85 37.62 28.85C38.13 28.85 38.57 28.43 38.57 27.92L38.57 25.07C38.99 25.80 39.80 26.18 40.65 26.18C42.50 26.18 44.01 24.74 44.01 22.37ZM42.05 22.37C42.05 23.63 41.31 24.48 40.20 24.48C39.44 24.48 38.57 23.68 38.57 22.45L38.57 22.28C38.57 21.07 39.44 20.27 40.20 20.27C41.31 20.27 42.05 21.11 42.05 22.37ZM45.41 23.42C45.41 24.83 46.62 26.18 48.21 26.18C49.35 26.18 50.04 25.59 50.30 25.14L50.30 25.16C50.30 25.67 50.72 26.09 51.23 26.09C51.78 26.09 52.20 25.67 52.20 25.16L52.20 19.61C52.20 19.09 51.78 18.66 51.26 18.66C50.72 18.66 50.30 19.09 50.30 19.61L50.30 22.80C50.30 23.84 49.55 24.48 48.80 24.48C47.98 24.48 47.31 23.84 47.31 22.84L47.31 19.61C47.31 19.09 46.89 18.66 46.37 18.66C45.83 18.66 45.41 19.09 45.41 19.61ZM56.00 16.84C56.00 16.33 55.58 15.91 55.07 15.91C54.51 15.91 54.09 16.33 54.09 16.84L54.09 25.14C54.09 25.67 54.51 26.09 55.04 26.09C55.58 26.09 56.00 25.67 56.00 25.14ZM64.14 21.32C64.14 19.23 62.63 18.57 60.98 18.57C60.14 18.57 58.52 18.88 58.07 19.59C58.01 19.70 57.96 19.84 57.96 19.97C57.96 20.42 58.34 20.70 58.68 20.70C58.80 20.70 58.92 20.66 59.03 20.60C59.52 20.27 60.08 20.13 60.65 20.13C61.61 20.13 62.24 20.62 62.24 21.35L62.24 21.59L59.94 21.59C58.79 21.59 57.42 22.09 57.42 23.78C57.42 25.40 58.79 26.18 59.94 26.18C61.04 26.18 61.74 25.91 62.24 25.32C62.24 25.66 62.55 26.09 63.06 26.09L63.21 26.09C63.72 26.09 64.14 25.67 64.14 25.14ZM62.24 22.88L62.24 23.21C62.24 24.38 61.32 24.89 60.71 24.89C59.96 24.89 59.34 24.50 59.34 23.82C59.34 23.12 59.96 22.88 60.71 22.88ZM70.34 19.48C70.34 19.04 70.05 18.70 69.50 18.70C68.78 18.70 68.30 19.27 67.94 19.75L67.94 19.59C67.94 19.09 67.52 18.66 67.01 18.66C66.45 18.66 66.03 19.09 66.03 19.59L66.03 25.14C66.03 25.67 66.45 26.09 66.98 26.09L67.01 26.09C67.52 26.09 67.94 25.67 67.94 25.14L67.94 22.12C67.94 20.91 68.84 20.52 69.42 20.45C69.95 20.38 70.34 20.05 70.34 19.48ZM83.36 19.22C83.36 17.46 82.17 16.00 80.00 16.00L76.52 16.00C75.86 16.00 75.32 16.54 75.32 17.20L75.32 25.04C75.32 25.61 75.80 26.09 76.37 26.09C76.97 26.09 77.45 25.61 77.45 25.04L77.45 22.45L80.00 22.45C82.16 22.45 83.36 20.96 83.36 19.22ZM81.18 19.22C81.18 20.05 80.55 20.57 79.71 20.57L77.45 20.57L77.45 17.87L79.71 17.87C80.55 17.87 81.18 18.38 81.18 19.22ZM90.59 21.32C90.59 19.23 89.07 18.57 87.42 18.57C86.58 18.57 84.96 18.88 84.51 19.59C84.45 19.70 84.41 19.84 84.41 19.97C84.41 20.42 84.78 20.70 85.13 20.70C85.25 20.70 85.37 20.66 85.47 20.60C85.97 20.27 86.52 20.13 87.09 20.13C88.05 20.13 88.68 20.62 88.68 21.35L88.68 21.59L86.39 21.59C85.23 21.59 83.87 22.09 83.87 23.78C83.87 25.40 85.23 26.18 86.39 26.18C87.48 26.18 88.19 25.91 88.68 25.32C88.68 25.66 89.00 26.09 89.51 26.09L89.66 26.09C90.17 26.09 90.59 25.67 90.59 25.14ZM88.68 22.88L88.68 23.21C88.68 24.38 87.77 24.89 87.15 24.89C86.40 24.89 85.79 24.50 85.79 23.82C85.79 23.12 86.40 22.88 87.15 22.88ZM98.45 24.84C98.45 24.35 98.00 24.02 97.53 24.02C97.35 24.02 97.19 24.07 97.02 24.17C96.69 24.38 96.33 24.48 95.94 24.48C94.79 24.48 93.98 23.63 93.98 22.37C93.98 21.11 94.79 20.27 95.94 20.27C96.32 20.27 96.69 20.38 97.01 20.57C97.17 20.68 97.35 20.72 97.53 20.72C97.95 20.72 98.43 20.42 98.43 19.91C98.43 19.79 98.40 19.67 98.34 19.57C98.03 18.98 96.98 18.57 95.85 18.57C93.62 18.57 92.01 20.15 92.01 22.37C92.01 24.61 93.62 26.18 95.85 26.18C96.87 26.18 97.62 25.88 98.15 25.46C98.34 25.31 98.45 25.07 98.45 24.84ZM106.17 25.13C106.17 24.95 106.11 24.75 105.99 24.59L104.09 22.04L105.77 20.12C105.90 19.95 105.98 19.76 105.98 19.55C105.98 19.07 105.56 18.65 105.08 18.65C104.84 18.65 104.60 18.75 104.43 18.95L101.87 21.98L101.87 16.84C101.87 16.33 101.45 15.91 100.94 15.91C100.38 15.91 99.96 16.33 99.96 16.84L99.96 25.14C99.96 25.67 100.38 26.09 100.91 26.09C101.45 26.09 101.87 25.67 101.87 25.14L101.87 24.14L102.74 23.21L104.43 25.68C104.61 25.95 104.93 26.09 105.23 26.09C105.78 26.09 106.17 25.59 106.17 25.13ZM114.24 21.32C114.24 19.23 112.73 18.57 111.08 18.57C110.24 18.57 108.62 18.88 108.17 19.59C108.11 19.70 108.06 19.84 108.06 19.97C108.06 20.42 108.44 20.70 108.78 20.70C108.90 20.70 109.02 20.66 109.13 20.60C109.62 20.27 110.18 20.13 110.75 20.13C111.71 20.13 112.34 20.62 112.34 21.35L112.34 21.59L110.04 21.59C108.89 21.59 107.52 22.09 107.52 23.78C107.52 25.40 108.89 26.18 110.04 26.18C111.14 26.18 111.84 25.91 112.34 25.32C112.34 25.66 112.65 26.09 113.16 26.09L113.31 26.09C113.82 26.09 114.24 25.67 114.24 25.14ZM112.34 22.88L112.34 23.21C112.34 24.38 111.42 24.89 110.81 24.89C110.06 24.89 109.44 24.50 109.44 23.82C109.44 23.12 110.06 22.88 110.81 22.88ZM123.02 19.61C123.02 19.09 122.60 18.66 122.07 18.66C121.52 18.66 121.10 19.09 121.10 19.61L121.10 19.69C120.65 19.02 119.84 18.57 118.86 18.57C117.03 18.57 115.67 19.89 115.67 22.27C115.67 24.68 117.05 25.95 118.86 25.95C119.90 25.95 120.75 25.54 121.10 24.82L121.10 25.55C121.10 26.98 120.02 27.38 119.10 27.38C118.46 27.38 117.89 27.25 117.38 26.93C117.24 26.86 117.11 26.82 116.97 26.82C116.55 26.82 116.18 27.16 116.18 27.62C116.18 27.77 116.22 27.92 116.30 28.04C116.73 28.71 118.22 28.94 119.10 28.94C120.89 28.94 123.02 28.27 123.02 25.50ZM121.10 22.31C121.10 23.52 120.24 24.26 119.46 24.26C118.38 24.26 117.63 23.51 117.63 22.27C117.63 21.02 118.38 20.27 119.46 20.27C120.24 20.27 121.10 20.99 121.10 22.22ZM131.79 22.14C131.79 21.79 131.69 21.35 131.58 21.02C131.07 19.52 129.83 18.57 128.19 18.57C125.99 18.57 124.44 20.27 124.44 22.37C124.44 24.70 126.11 26.18 128.31 26.18C129.42 26.18 131.03 25.76 131.12 24.91C131.16 24.45 130.71 24.14 130.31 24.14C130.19 24.14 130.05 24.17 129.93 24.23C129.48 24.47 128.93 24.66 128.52 24.66C127.29 24.66 126.56 23.93 126.44 23.02L130.91 23.02C131.40 23.02 131.79 22.61 131.79 22.14ZM126.41 21.73C126.50 21.00 127.01 20.09 128.19 20.09C129.45 20.09 129.93 21.04 129.98 21.73ZM138.95 23.86C138.95 20.93 134.66 21.83 134.66 20.75C134.66 20.34 135.11 20.03 135.80 20.03C136.38 20.03 136.97 20.20 137.43 20.46C137.54 20.52 137.67 20.55 137.79 20.55C138.18 20.55 138.54 20.24 138.54 19.84C138.54 19.70 138.50 19.57 138.42 19.46C138.02 18.88 136.73 18.57 135.78 18.57C133.88 18.57 132.81 19.64 132.81 20.86C132.81 23.70 137.12 22.73 137.12 23.93C137.12 24.38 136.73 24.71 135.90 24.71C135.27 24.71 134.52 24.45 133.95 24.13C133.83 24.05 133.70 24.02 133.56 24.02C133.16 24.02 132.77 24.36 132.77 24.82C132.77 24.96 132.81 25.10 132.90 25.22C133.35 25.86 134.87 26.18 135.81 26.18C137.82 26.18 138.95 25.18 138.95 23.86Z" fill="#22272e" /></svg>