<svg xmlns="http://www.w3.org/2000/svg" width="420" height="64" viewBox="0 0 420 64" role="img"><rect x="0.5" y="0.5" width="419" height="63" rx="10" fill="#161b22" stroke="#30363d" /><path d="M28.46 19.35C28.46 17.03 26.72 15.07 24.05 15.07C21.14 15.07 18.49 17.60 18.49 20.58C18.49 23.06 20.38 24.98 22.93 24.98C23.88 24.98 24.82 24.70 25.63 24.22C25.70 24.18 25.74 24.11 25.74 24.03C25.74 23.89 25.59 23.78 25.46 23.78C25.42 23.78 25.38 23.78 25.34 23.80C24.64 24.21 23.85 24.45 22.98 24.45C20.72 24.45 19.04 22.75 19.04 20.56C19.04 17.94 21.35 15.61 23.99 15.61C26.34 15.61 27.86 17.14 27.86 19.35C27.86 20.95 27.09 21.61 26.54 21.61C26.25 21.61 26.02 21.41 26.02 20.98C26.02 20.89 26.05 20.72 26.06 20.64L26.61 18.05C26.62 18.01 26.62 17.95 26.62 17.90C26.62 17.50 26.30 17.15 25.85 17.15C25.48 17.15 25.15 17.42 25.08 17.77L25.04 17.97C24.75 17.43 24.13 17.03 23.29 17.03C21.67 17.03 20.13 18.58 20.13 20.46C20.13 21.82 20.94 22.81 22.30 22.81C23.05 22.81 23.82 22.38 24.33 21.73C24.41 22.31 24.85 22.81 25.69 22.81C26.90 22.81 28.46 21.70 28.46 19.35ZM24.65 19.84C24.44 20.82 23.66 21.55 22.91 21.55C22.20 21.55 21.75 21.05 21.75 20.32C21.75 19.30 22.56 18.29 23.68 18.29C24.30 18.29 24.89 18.71 24.68 19.69ZM35.42 22.92C35.42 22.46 35.00 22.15 34.56 22.15C34.39 22.15 34.24 22.19 34.09 22.29C33.78 22.49 33.44 22.59 33.08 22.59C32 22.59 31.24 21.79 31.24 20.61C31.24 19.44 32 18.65 33.08 18.65C33.43 18.65 33.78 18.75 34.07 18.93C34.23 19.03 34.39 19.07 34.56 19.07C34.95 19.07 35.40 18.79 35.40 18.32C35.40 18.20 35.37 18.09 35.32 17.99C35.02 17.45 34.04 17.07 32.99 17.07C30.91 17.07 29.41 18.54 29.41 20.61C29.41 22.70 30.91 24.17 32.99 24.17C33.95 24.17 34.65 23.89 35.14 23.50C35.32 23.36 35.42 23.13 35.42 22.92ZM36.41 20.63C36.41 22.88 37.84 24.17 39.55 24.17C40.36 24.17 41.10 23.80 41.49 23.13L41.49 23.20C41.49 23.69 41.88 24.08 42.39 24.08C42.88 24.08 43.27 23.69 43.27 23.20L43.27 15.45C43.27 14.97 42.88 14.58 42.36 14.58C41.88 14.58 41.49 14.97 41.49 15.45L41.49 18.11C41.10 17.42 40.34 17.07 39.55 17.07C37.82 17.07 36.41 18.41 36.41 20.63ZM38.24 20.63C38.24 19.45 38.93 18.65 39.97 18.65C40.68 18.65 41.49 19.41 41.49 20.56L41.49 20.71C41.49 21.84 40.68 22.59 39.97 22.59C38.93 22.59 38.24 21.80 38.24 20.63ZM50.83 23.19C50.83 23.02 50.77 22.84 50.66 22.68L48.88 20.30L50.45 18.51C50.58 18.36 50.65 18.18 50.65 17.98C50.65 17.53 50.26 17.14 49.81 17.14C49.58 17.14 49.36 17.24 49.21 17.42L46.81 20.25L46.81 15.45C46.81 14.97 46.42 14.58 45.94 14.58C45.43 14.58 45.03 14.97 45.03 15.45L45.03 23.20C45.03 23.69 45.43 24.08 45.92 24.08C46.42 24.08 46.81 23.69 46.81 23.20L46.81 22.26L47.62 21.40L49.21 23.71C49.37 23.96 49.67 24.08 49.95 24.08C50.47 24.08 50.83 23.62 50.83 23.19ZM55.17 20.60C55.17 20.19 54.83 19.86 54.43 19.86L52.38 19.86C51.98 19.86 51.64 20.19 51.64 20.60C51.64 21.03 51.98 21.37 52.38 21.37L54.43 21.37C54.83 21.37 55.17 21.03 55.17 20.60ZM58.17 15.45C58.17 14.97 57.77 14.58 57.30 14.58C56.78 14.58 56.39 14.97 56.39 15.45L56.39 23.20C56.39 23.69 56.78 24.08 57.27 24.08C57.77 24.08 58.17 23.69 58.17 23.20ZM65.77 19.63C65.77 17.69 64.35 17.07 62.81 17.07C62.03 17.07 60.52 17.35 60.10 18.02C60.04 18.12 60.00 18.25 60.00 18.37C60.00 18.79 60.35 19.06 60.67 19.06C60.78 19.06 60.90 19.02 60.99 18.96C61.46 18.65 61.97 18.53 62.51 18.53C63.40 18.53 63.99 18.97 63.99 19.66L63.99 19.88L61.85 19.88C60.77 19.88 59.50 20.35 59.50 21.93C59.50 23.44 60.77 24.17 61.85 24.17C62.87 24.17 63.53 23.92 63.99 23.37C63.99 23.68 64.28 24.08 64.76 24.08L64.90 24.08C65.38 24.08 65.77 23.69 65.77 23.20ZM63.99 21.09L63.99 21.40C63.99 22.49 63.14 22.96 62.56 22.96C61.86 22.96 61.29 22.60 61.29 21.97C61.29 21.31 61.86 21.09 62.56 21.09ZM77.71 19.67C77.71 18.29 76.74 17.07 75.22 17.07C74.04 17.07 73.37 17.76 73.12 18.23C72.87 17.74 72.24 17.07 71.10 17.07C70.07 17.07 69.59 17.45 69.31 17.81L69.31 17.80C69.31 17.60 69.06 17.15 68.44 17.15C67.92 17.15 67.53 17.55 67.53 18.02L67.53 23.20C67.53 23.69 67.92 24.08 68.41 24.08C68.92 24.08 69.31 23.69 69.31 23.20L69.31 20.01C69.31 19.35 69.81 18.65 70.57 18.65C71.30 18.65 71.72 19.38 71.72 20.01L71.72 23.20C71.72 23.69 72.11 24.08 72.60 24.08C73.12 24.08 73.51 23.69 73.51 23.20L73.51 20.14C73.51 19.35 74 18.65 74.77 18.65C75.50 18.65 75.92 19.38 75.92 20.01L75.92 23.20C75.92 23.69 76.31 24.08 76.80 24.08C77.32 24.08 77.71 23.69 77.71 23.20ZM86.32 20.63C86.32 18.41 84.91 17.07 83.18 17.07C82.39 17.07 81.63 17.42 81.24 18.11L81.24 15.45C81.24 14.97 80.85 14.58 80.37 14.58C79.85 14.58 79.46 14.97 79.46 15.45L79.46 23.20C79.46 23.69 79.85 24.08 80.34 24.08C80.85 24.08 81.24 23.69 81.24 23.20L81.24 23.13C81.63 23.80 82.37 24.17 83.18 24.17C84.89 24.17 86.32 22.88 86.32 20.63ZM84.49 20.63C84.49 21.80 83.80 22.59 82.76 22.59C82.05 22.59 81.24 21.84 81.24 20.71L81.24 20.56C81.24 19.41 82.05 18.65 82.76 18.65C83.80 18.65 84.49 19.45 84.49 20.63ZM87.24 20.63C87.24 22.88 88.67 24.17 90.38 24.17C91.19 24.17 91.93 23.80 92.33 23.13L92.33 23.20C92.33 23.69 92.72 24.08 93.22 24.08C93.71 24.08 94.10 23.69 94.10 23.20L94.10 15.45C94.10 14.97 93.71 14.58 93.19 14.58C92.72 14.58 92.33 14.97 92.33 15.45L92.33 18.11C91.93 17.42 91.18 17.07 90.38 17.07C88.66 17.07 87.24 18.41 87.24 20.63ZM89.08 20.63C89.08 19.45 89.76 18.65 90.80 18.65C91.51 18.65 92.33 19.41 92.33 20.56L92.33 20.71C92.33 21.84 91.51 22.59 90.80 22.59C89.76 22.59 89.08 21.80 89.08 20.63ZM101.71 19.63C101.71 17.69 100.29 17.07 98.75 17.07C97.97 17.07 96.46 17.35 96.04 18.02C95.98 18.12 95.94 18.25 95.94 18.37C95.94 18.79 96.29 19.06 96.61 19.06C96.72 19.06 96.83 19.02 96.93 18.96C97.39 18.65 97.91 18.53 98.44 18.53C99.34 18.53 99.93 18.97 99.93 19.66L99.93 19.88L97.79 19.88C96.71 19.88 95.43 20.35 95.43 21.93C95.43 23.44 96.71 24.17 97.79 24.17C98.81 24.17 99.47 23.92 99.93 23.37C99.93 23.68 100.22 24.08 100.70 24.08L100.84 24.08C101.31 24.08 101.71 23.69 101.71 23.20ZM99.93 21.09L99.93 21.40C99.93 22.49 99.07 22.96 98.50 22.96C97.80 22.96 97.23 22.60 97.23 21.97C97.23 21.31 97.80 21.09 98.50 21.09ZM106.45 20.60C106.45 20.19 106.12 19.86 105.71 19.86L103.67 19.86C103.26 19.86 102.92 20.19 102.92 20.60C102.92 21.03 103.26 21.37 103.67 21.37L105.71 21.37C106.12 21.37 106.45 21.03 106.45 20.60ZM109.45 15.45C109.45 14.97 109.06 14.58 108.58 14.58C108.06 14.58 107.67 14.97 107.67 15.45L107.67 23.20C107.67 23.69 108.06 24.08 108.55 24.08C109.06 24.08 109.45 23.69 109.45 23.20ZM117.05 19.63C117.05 17.69 115.64 17.07 114.10 17.07C113.31 17.07 111.80 17.35 111.38 18.02C111.32 18.12 111.28 18.25 111.28 18.37C111.28 18.79 111.63 19.06 111.95 19.06C112.07 19.06 112.18 19.02 112.28 18.96C112.74 18.65 113.26 18.53 113.79 18.53C114.68 18.53 115.27 18.97 115.27 19.66L115.27 19.88L113.13 19.88C112.05 19.88 110.78 20.35 110.78 21.93C110.78 23.44 112.05 24.17 113.13 24.17C114.15 24.17 114.81 23.92 115.27 23.37C115.27 23.68 115.57 24.08 116.04 24.08L116.18 24.08C116.66 24.08 117.05 23.69 117.05 23.20ZM115.27 21.09L115.27 21.40C115.27 22.49 114.42 22.96 113.84 22.96C113.14 22.96 112.57 22.60 112.57 21.97C112.57 21.31 113.14 21.09 113.84 21.09ZM124.81 18.02C124.81 17.59 124.47 17.15 123.94 17.15C123.56 17.15 123.21 17.39 123.08 17.74L121.52 21.94L119.95 17.74C119.81 17.38 119.47 17.15 119.12 17.15C118.58 17.15 118.23 17.60 118.23 18.04C118.23 18.13 118.24 18.23 118.28 18.33L120.59 24.10L120.34 24.67C120.21 24.95 119.96 25.09 119.67 25.15C119.60 25.16 119.51 25.16 119.44 25.16C118.94 25.16 118.60 25.53 118.60 25.95C118.60 26.44 119.08 26.74 119.70 26.74C120.69 26.74 121.54 26.28 122.02 25.11L124.75 18.34C124.79 18.25 124.81 18.13 124.81 18.02ZM132.42 20.40C132.42 20.07 132.32 19.66 132.23 19.35C131.75 17.95 130.59 17.07 129.06 17.07C127.00 17.07 125.56 18.65 125.56 20.61C125.56 22.78 127.12 24.17 129.17 24.17C130.21 24.17 131.71 23.78 131.79 22.98C131.83 22.56 131.41 22.26 131.04 22.26C130.92 22.26 130.80 22.29 130.69 22.35C130.27 22.57 129.75 22.75 129.37 22.75C128.22 22.75 127.54 22.07 127.42 21.21L131.60 21.21C132.06 21.21 132.42 20.84 132.42 20.40ZM127.40 20.01C127.48 19.34 127.96 18.48 129.06 18.48C130.24 18.48 130.69 19.37 130.73 20.01ZM137.76 17.91C137.76 17.50 137.49 17.18 136.97 17.18C136.30 17.18 135.85 17.71 135.52 18.16L135.52 18.02C135.52 17.55 135.12 17.15 134.65 17.15C134.13 17.15 133.74 17.55 133.74 18.02L133.74 23.20C133.74 23.69 134.13 24.08 134.62 24.08L134.65 24.08C135.12 24.08 135.52 23.69 135.52 23.20L135.52 20.37C135.52 19.25 136.36 18.89 136.90 18.82C137.39 18.75 137.76 18.44 137.76 17.91ZM144.14 22.00C144.14 19.27 140.14 20.11 140.14 19.10C140.14 18.72 140.56 18.43 141.20 18.43C141.75 18.43 142.29 18.58 142.73 18.83C142.82 18.89 142.95 18.92 143.06 18.92C143.43 18.92 143.76 18.62 143.76 18.25C143.76 18.12 143.72 17.99 143.65 17.90C143.27 17.35 142.07 17.07 141.19 17.07C139.41 17.07 138.41 18.06 138.41 19.20C138.41 21.86 142.43 20.95 142.43 22.07C142.43 22.49 142.07 22.80 141.30 22.80C140.71 22.80 140.01 22.56 139.48 22.25C139.37 22.18 139.24 22.15 139.11 22.15C138.74 22.15 138.37 22.47 138.37 22.89C138.37 23.03 138.41 23.16 138.50 23.27C138.92 23.87 140.33 24.17 141.21 24.17C143.09 24.17 144.14 23.23 144.14 22.00Z" fill="#e6edf3" /><path d="M374.80 21.15C374.80 19.40 373.49 18.34 372.02 18.34C371.23 18.34 370.53 18.66 370.11 19.07L370.11 16.95L373.50 16.95C373.93 16.95 374.30 16.59 374.30 16.15C374.30 15.69 373.93 15.33 373.50 15.33L369.31 15.33C368.73 15.33 368.27 15.80 368.27 16.37L368.27 19.70C368.27 20.20 368.63 20.58 369.20 20.58C369.46 20.58 369.71 20.50 369.92 20.36C370.38 20.05 370.84 19.94 371.37 19.94C372.36 19.94 372.93 20.46 372.93 21.23C372.93 21.93 372.35 22.52 371.32 22.52C370.70 22.52 370.10 22.35 369.59 22.04C369.44 21.95 369.27 21.89 369.11 21.89C368.66 21.89 368.23 22.25 368.23 22.73C368.23 22.86 368.27 22.99 368.33 23.10C368.73 23.78 370.20 24.16 371.33 24.16C373.43 24.16 374.80 23.00 374.80 21.15ZM378.05 23.36C378.05 22.52 377.50 22.04 376.88 22.04C376.34 22.04 375.87 22.50 375.87 23.08C375.87 23.64 376.26 24.01 376.75 24.01C376.85 24.01 376.96 23.99 377.00 23.97C376.92 24.31 376.64 24.71 376.30 24.99C376.21 25.07 376.17 25.17 376.17 25.27C376.17 25.53 376.44 25.69 376.66 25.69C376.79 25.69 376.91 25.65 377.00 25.56C377.65 24.98 378.05 24.20 378.05 23.36ZM386.01 21.62C386.01 20.44 385.31 19.76 384.79 19.53C385.23 19.32 385.87 18.83 385.87 17.49C385.87 15.99 384.25 15.20 382.53 15.20C380.78 15.20 379.19 15.99 379.19 17.49C379.19 18.83 379.81 19.32 380.25 19.53C379.73 19.76 379.04 20.44 379.04 21.62C379.04 23.25 380.71 24.16 382.53 24.16C384.35 24.16 386.01 23.23 386.01 21.62ZM383.98 17.77C383.98 18.42 383.32 18.80 382.53 18.80C381.73 18.80 381.06 18.42 381.06 17.77C381.06 17.15 381.67 16.79 382.53 16.79C383.37 16.79 383.98 17.15 383.98 17.77ZM384.14 21.52C384.14 22.15 383.41 22.57 382.53 22.57C381.62 22.57 380.91 22.15 380.91 21.52C380.91 20.79 381.72 20.36 382.53 20.36C383.32 20.36 384.14 20.79 384.14 21.52ZM393.52 21.63C393.63 20.07 392.57 19.53 392.57 19.53C392.57 19.53 393.54 19.03 393.43 17.55C393.33 16.11 392.19 15.20 390.16 15.20C388.96 15.20 388.02 15.55 387.31 16.12C387.13 16.27 387.04 16.47 387.04 16.68C387.04 17.14 387.44 17.46 387.84 17.46C388.00 17.46 388.15 17.42 388.28 17.33C388.79 17.01 389.36 16.84 389.96 16.84C390.87 16.84 391.57 17.04 391.57 17.73C391.57 18.45 391.14 18.79 390.27 18.79C389.65 18.79 389.38 19.14 389.38 19.59C389.38 20.05 389.65 20.41 390.33 20.41C391.21 20.41 391.72 20.72 391.72 21.41C391.72 22.06 391.13 22.52 390.08 22.52C389.48 22.52 388.79 22.31 388.22 21.97C388.08 21.88 387.92 21.84 387.76 21.84C387.34 21.84 386.92 22.19 386.92 22.66C386.92 22.79 386.96 22.91 387.02 23.01C387.43 23.69 388.90 24.16 390.14 24.16C392.22 24.16 393.42 23.26 393.52 21.63ZM401.55 21.15C401.55 19.40 400.23 18.34 398.76 18.34C397.97 18.34 397.27 18.66 396.85 19.07L396.85 16.95L400.25 16.95C400.67 16.95 401.04 16.59 401.04 16.15C401.04 15.69 400.67 15.33 400.25 15.33L396.05 15.33C395.47 15.33 395.01 15.80 395.01 16.37L395.01 19.70C395.01 20.20 395.37 20.58 395.94 20.58C396.20 20.58 396.45 20.50 396.66 20.36C397.13 20.05 397.58 19.94 398.11 19.94C399.10 19.94 399.67 20.46 399.67 21.23C399.67 21.93 399.09 22.52 398.06 22.52C397.44 22.52 396.84 22.35 396.33 22.04C396.18 21.95 396.01 21.89 395.85 21.89C395.40 21.89 394.97 22.25 394.97 22.73C394.97 22.86 395.01 22.99 395.07 23.10C395.47 23.78 396.94 24.16 398.07 24.16C400.17 24.16 401.55 23.00 401.55 21.15Z" fill="#9aa7b4" /><path transform="translate(350.36, 12)" d="M6 1 L6 7.5 M3 5 L6 8 L9 5 M2 10.5 L10 10.5" fill="none" stroke="#9aa7b4" stroke-width="1.4" stroke-linecap="round" stroke-linejoin="round" /><path d="M24.17 37.83C24.17 36.33 23.03 35.87 23.03 35.87C23.03 35.87 24.05 35.38 24.05 34.02C24.05 32.67 22.87 31.88 21.25 31.88C20.17 31.88 19.33 32.25 18.70 32.84C18.60 32.92 18.54 33.06 18.54 33.20C18.54 33.48 18.80 33.70 19.06 33.70C19.16 33.70 19.27 33.66 19.36 33.59C19.87 33.16 20.46 32.93 21.14 32.93C22.08 32.93 22.86 33.36 22.86 34.19C22.86 35.20 22.08 35.39 20.92 35.38C20.62 35.38 20.40 35.61 20.40 35.90C20.40 36.42 20.90 36.46 21.34 36.44C22.26 36.44 22.99 36.82 22.99 37.72C22.99 38.56 22.32 39.09 21.22 39.09C20.48 39.09 19.80 38.81 19.28 38.37C19.19 38.28 19.07 38.25 18.96 38.25C18.67 38.25 18.43 38.51 18.43 38.79C18.43 38.90 18.47 39.00 18.55 39.09C19.07 39.70 20.10 40.14 21.25 40.14C23.05 40.14 24.17 39.17 24.17 37.83ZM34.28 37.10C34.28 35.20 33.22 34.06 31.70 34.06C30.91 34.06 30.22 34.46 29.80 35.03L29.80 34.65C29.80 34.37 29.56 34.13 29.28 34.13C28.97 34.13 28.73 34.37 28.73 34.65L28.73 41.76C28.73 42.04 28.97 42.28 29.26 42.28C29.56 42.28 29.80 42.04 29.80 41.76L29.80 39.16C30.26 39.80 30.94 40.14 31.70 40.14C33.22 40.14 34.28 38.98 34.28 37.10ZM33.16 37.10C33.16 38.31 32.62 39.20 31.52 39.20C30.52 39.20 29.80 38.32 29.80 37.13L29.80 37.06C29.80 35.87 30.52 35.01 31.52 35.01C32.62 35.01 33.16 35.88 33.16 37.10ZM40.28 36.08C40.28 34.60 39.20 34.06 37.96 34.06C37.18 34.06 36.30 34.31 35.75 34.86C35.68 34.95 35.64 35.04 35.64 35.14C35.64 35.39 35.87 35.56 36.08 35.56C36.17 35.56 36.26 35.52 36.35 35.46C36.78 35.13 37.26 34.96 37.80 34.96C38.62 34.96 39.22 35.39 39.22 36.12L39.22 36.45L37.55 36.45C36.35 36.45 35.29 36.92 35.29 38.22C35.29 39.50 36.35 40.14 37.31 40.14C38.21 40.14 38.75 39.87 39.22 39.35L39.22 39.54C39.22 39.89 39.49 40.07 39.71 40.07L39.74 40.07C40.04 40.07 40.28 39.83 40.28 39.54ZM39.22 37.19L39.22 38.01C39.22 38.69 38.44 39.39 37.60 39.39C36.82 39.39 36.37 38.92 36.37 38.25C36.37 37.55 36.92 37.19 37.84 37.19ZM46.62 39.12C46.62 38.85 46.37 38.66 46.12 38.66C46.00 38.66 45.88 38.69 45.78 38.76C45.46 39.05 45.08 39.20 44.65 39.20C43.50 39.20 42.76 38.31 42.76 37.10C42.76 35.88 43.50 35.01 44.65 35.01C45.07 35.01 45.46 35.14 45.78 35.43C45.88 35.51 46.00 35.56 46.12 35.56C46.38 35.56 46.61 35.34 46.61 35.08C46.61 34.98 46.58 34.90 46.52 34.83C46.13 34.37 45.48 34.06 44.59 34.06C42.85 34.06 41.65 35.37 41.65 37.10C41.65 38.84 42.85 40.14 44.59 40.14C45.46 40.14 46.04 39.86 46.48 39.44C46.57 39.35 46.62 39.23 46.62 39.12ZM52.69 39.54C52.69 39.44 52.66 39.32 52.58 39.23L50.68 36.83L52.48 34.95C52.56 34.85 52.61 34.74 52.61 34.62C52.61 34.36 52.37 34.12 52.10 34.12C51.98 34.12 51.85 34.18 51.76 34.28L49.02 37.16L49.02 32.44C49.02 32.16 48.78 31.92 48.50 31.92C48.19 31.92 47.95 32.16 47.95 32.44L47.95 39.54C47.95 39.83 48.19 40.07 48.48 40.07C48.78 40.07 49.02 39.83 49.02 39.54L49.02 38.39L49.91 37.49L51.74 39.87C51.84 40.01 52.01 40.08 52.16 40.08C52.49 40.08 52.69 39.80 52.69 39.54ZM58.85 36.08C58.85 34.60 57.77 34.06 56.52 34.06C55.74 34.06 54.86 34.31 54.31 34.86C54.24 34.95 54.20 35.04 54.20 35.14C54.20 35.39 54.43 35.56 54.65 35.56C54.73 35.56 54.83 35.52 54.91 35.46C55.34 35.13 55.82 34.96 56.36 34.96C57.18 34.96 57.78 35.39 57.78 36.12L57.78 36.45L56.11 36.45C54.91 36.45 53.86 36.92 53.86 38.22C53.86 39.50 54.91 40.14 55.87 40.14C56.77 40.14 57.31 39.87 57.78 39.35L57.78 39.54C57.78 39.89 58.06 40.07 58.27 40.07L58.31 40.07C58.61 40.07 58.85 39.83 58.85 39.54ZM57.78 37.19L57.78 38.01C57.78 38.69 57 39.39 56.16 39.39C55.38 39.39 54.94 38.92 54.94 38.25C54.94 37.55 55.49 37.19 56.40 37.19ZM65.76 34.65C65.76 34.37 65.52 34.13 65.24 34.13C64.93 34.13 64.69 34.37 64.69 34.65L64.69 35.04C64.22 34.42 63.55 34.06 62.78 34.06C61.28 34.06 60.22 35.19 60.22 37.06C60.22 38.94 61.30 40.05 62.78 40.05C63.58 40.05 64.26 39.63 64.69 39.04L64.69 39.81C64.69 41.04 63.80 41.48 62.90 41.48C62.27 41.48 61.76 41.34 61.32 40.97C61.24 40.91 61.15 40.89 61.04 40.89C60.80 40.89 60.59 41.09 60.59 41.34C60.59 41.46 60.64 41.57 60.71 41.64C61.27 42.18 62.09 42.35 62.90 42.35C64.32 42.35 65.76 41.76 65.76 39.77ZM64.69 37.07C64.69 38.26 63.91 39.10 62.95 39.10C61.87 39.10 61.32 38.25 61.32 37.06C61.32 35.85 61.87 35.01 62.95 35.01C63.91 35.01 64.69 35.84 64.69 37.02ZM72.84 36.90C72.84 36.68 72.78 36.42 72.73 36.23C72.40 34.94 71.44 34.06 70.03 34.06C68.35 34.06 67.14 35.42 67.14 37.10C67.14 38.92 68.40 40.14 70.13 40.14C70.98 40.14 72.47 39.70 72.47 39.05C72.47 38.64 72.06 38.55 71.80 38.68C71.38 38.99 70.73 39.28 70.24 39.28C69.06 39.28 68.34 38.48 68.26 37.48L72.29 37.48C72.59 37.48 72.84 37.19 72.84 36.90ZM68.26 36.69C68.30 35.88 68.87 34.92 70.02 34.92C71.26 34.92 71.78 35.91 71.81 36.69ZM78.46 38.25C78.35 36.21 75.02 36.77 74.90 35.73C74.86 35.26 75.36 34.91 76.09 34.91C76.64 34.91 77.16 35.09 77.53 35.36C77.60 35.42 77.69 35.44 77.78 35.44C78.00 35.44 78.20 35.26 78.20 35.02C78.20 34.92 78.17 34.83 78.10 34.76C77.64 34.31 76.91 34.06 76.08 34.06C74.66 34.06 73.81 34.73 73.87 35.76C73.98 37.71 77.29 37.11 77.41 38.39C77.46 38.92 76.98 39.29 76.15 39.29C75.55 39.29 74.95 39.05 74.52 38.74C74.44 38.68 74.35 38.66 74.24 38.66C73.99 38.66 73.78 38.85 73.78 39.10C73.78 39.22 73.82 39.32 73.91 39.39C74.44 39.92 75.31 40.14 76.10 40.14C77.64 40.14 78.52 39.35 78.46 38.25ZM83.44 32.06C83.06 32.06 82.75 32.37 82.75 32.75C82.75 33.12 83.06 33.44 83.44 33.44C83.82 33.44 84.12 33.12 84.12 32.75C84.12 32.37 83.82 32.06 83.44 32.06ZM83.98 34.65C83.98 34.37 83.74 34.13 83.46 34.13C83.15 34.13 82.91 34.37 82.91 34.65L82.91 39.54C82.91 39.83 83.15 40.07 83.44 40.07C83.74 40.07 83.98 39.83 83.98 39.54ZM90.68 36.28C90.68 35.06 89.80 34.06 88.57 34.06C87.56 34.06 87.05 34.55 86.77 35.02L86.77 34.65C86.77 34.37 86.53 34.13 86.26 34.13C85.94 34.13 85.70 34.37 85.70 34.65L85.70 39.54C85.70 39.83 85.94 40.07 86.23 40.07C86.53 40.07 86.77 39.83 86.77 39.54L86.77 36.76C86.77 35.78 87.30 35.01 88.22 35.01C89.09 35.01 89.62 35.68 89.62 36.64L89.62 39.54C89.62 39.83 89.86 40.07 90.14 40.07C90.44 40.07 90.68 39.83 90.68 39.54ZM98.20 39.58C98.20 39.33 98.00 39.14 97.74 39.14C97.62 39.14 97.48 39.20 97.34 39.20C97.00 39.20 96.78 38.92 96.78 38.48L96.78 35.14L97.57 35.14C97.82 35.14 98.03 34.94 98.03 34.68C98.03 34.41 97.82 34.20 97.57 34.20L96.78 34.20L96.78 33.06C96.78 32.79 96.54 32.55 96.25 32.55C95.94 32.55 95.70 32.79 95.70 33.06L95.70 34.20L95.14 34.20C94.87 34.20 94.67 34.41 94.67 34.66C94.67 34.94 94.87 35.14 95.14 35.14L95.70 35.14L95.70 38.73C95.70 39.64 96.18 40.14 97.09 40.14C97.73 40.14 98.20 39.96 98.20 39.58ZM104.16 36.26C104.16 35.03 103.28 34.06 102.06 34.06C101.04 34.06 100.51 34.55 100.24 35.02L100.24 32.44C100.24 32.16 100.00 31.92 99.72 31.92C99.41 31.92 99.17 32.16 99.17 32.44L99.17 39.54C99.17 39.83 99.41 40.07 99.70 40.07C100.00 40.07 100.24 39.83 100.24 39.54L100.24 36.82C100.24 35.74 100.81 35.01 101.72 35.01C102.59 35.01 103.09 35.66 103.09 36.62L103.09 39.54C103.09 39.83 103.33 40.07 103.62 40.07C103.92 40.07 104.16 39.83 104.16 39.54ZM106.42 32.06C106.04 32.06 105.73 32.37 105.73 32.75C105.73 33.12 106.04 33.44 106.42 33.44C106.80 33.44 107.10 33.12 107.10 32.75C107.10 32.37 106.80 32.06 106.42 32.06ZM106.96 34.65C106.96 34.37 106.72 34.13 106.44 34.13C106.13 34.13 105.89 34.37 105.89 34.65L105.89 39.54C105.89 39.83 106.13 40.07 106.42 40.07C106.72 40.07 106.96 39.83 106.96 39.54ZM112.93 38.25C112.82 36.21 109.50 36.77 109.38 35.73C109.33 35.26 109.84 34.91 110.57 34.91C111.12 34.91 111.64 35.09 112.01 35.36C112.08 35.42 112.16 35.44 112.26 35.44C112.48 35.44 112.68 35.26 112.68 35.02C112.68 34.92 112.64 34.83 112.57 34.76C112.12 34.31 111.38 34.06 110.56 34.06C109.14 34.06 108.29 34.73 108.35 35.76C108.46 37.71 111.77 37.11 111.89 38.39C111.94 38.92 111.46 39.29 110.63 39.29C110.03 39.29 109.43 39.05 109.00 38.74C108.91 38.68 108.83 38.66 108.72 38.66C108.47 38.66 108.25 38.85 108.25 39.10C108.25 39.22 108.30 39.32 108.38 39.39C108.91 39.92 109.79 40.14 110.58 40.14C112.12 40.14 112.99 39.35 112.93 38.25ZM121.63 38.25C121.52 36.21 118.20 36.77 118.08 35.73C118.03 35.26 118.54 34.91 119.27 34.91C119.82 34.91 120.34 35.09 120.71 35.36C120.78 35.42 120.86 35.44 120.96 35.44C121.18 35.44 121.38 35.26 121.38 35.02C121.38 34.92 121.34 34.83 121.27 34.76C120.82 34.31 120.08 34.06 119.26 34.06C117.84 34.06 116.99 34.73 117.05 35.76C117.16 37.71 120.47 37.11 120.59 38.39C120.64 38.92 120.16 39.29 119.33 39.29C118.73 39.29 118.13 39.05 117.70 38.74C117.61 38.68 117.53 38.66 117.42 38.66C117.17 38.66 116.95 38.85 116.95 39.10C116.95 39.22 117.00 39.32 117.08 39.39C117.61 39.92 118.49 40.14 119.28 40.14C120.82 40.14 121.69 39.35 121.63 38.25ZM127.62 39.12C127.62 38.85 127.37 38.66 127.12 38.66C127.00 38.66 126.88 38.69 126.78 38.76C126.46 39.05 126.08 39.20 125.65 39.20C124.50 39.20 123.76 38.31 123.76 37.10C123.76 35.88 124.50 35.01 125.65 35.01C126.07 35.01 126.46 35.14 126.78 35.43C126.88 35.51 127.00 35.56 127.12 35.56C127.38 35.56 127.61 35.34 127.61 35.08C127.61 34.98 127.58 34.90 127.52 34.83C127.13 34.37 126.48 34.06 125.59 34.06C123.85 34.06 122.65 35.37 122.65 37.10C122.65 38.84 123.85 40.14 125.59 40.14C126.46 40.14 127.04 39.86 127.48 39.44C127.57 39.35 127.62 39.23 127.62 39.12ZM134.45 37.10C134.45 35.43 133.33 34.06 131.52 34.06C129.72 34.06 128.60 35.43 128.60 37.10C128.60 38.76 129.72 40.14 131.52 40.14C133.33 40.14 134.45 38.76 134.45 37.10ZM133.33 37.10C133.33 38.21 132.68 39.20 131.52 39.20C130.37 39.20 129.71 38.21 129.71 37.10C129.71 35.99 130.37 35.01 131.52 35.01C132.68 35.01 133.33 35.99 133.33 37.10ZM141.38 37.10C141.38 35.20 140.32 34.06 138.80 34.06C138.01 34.06 137.32 34.46 136.90 35.03L136.90 34.65C136.90 34.37 136.66 34.13 136.38 34.13C136.07 34.13 135.83 34.37 135.83 34.65L135.83 41.76C135.83 42.04 136.07 42.28 136.36 42.28C136.66 42.28 136.90 42.04 136.90 41.76L136.90 39.16C137.36 39.80 138.04 40.14 138.80 40.14C140.32 40.14 141.38 38.98 141.38 37.10ZM140.26 37.10C140.26 38.31 139.72 39.20 138.62 39.20C137.62 39.20 136.90 38.32 136.90 37.13L136.90 37.06C136.90 35.87 137.62 35.01 138.62 35.01C139.72 35.01 140.26 35.88 140.26 37.10ZM148.08 36.90C148.08 36.68 148.02 36.42 147.97 36.23C147.64 34.94 146.68 34.06 145.27 34.06C143.59 34.06 142.38 35.42 142.38 37.10C142.38 38.92 143.64 40.14 145.37 40.14C146.22 40.14 147.71 39.70 147.71 39.05C147.71 38.64 147.30 38.55 147.04 38.68C146.62 38.99 145.97 39.28 145.48 39.28C144.30 39.28 143.58 38.48 143.50 37.48L147.53 37.48C147.83 37.48 148.08 37.19 148.08 36.90ZM143.50 36.69C143.54 35.88 144.11 34.92 145.26 34.92C146.50 34.92 147.02 35.91 147.05 36.69Z" fill="#9aa7b4" /><rect x="18" y="50" width="384" height="6" rx="3" fill="#21262d" /><rect x="18" y="50" width="0.00" height="6" rx="3" fill="#00a5fe" /></svg>