<svg xmlns="http://www.w3.org/2000/svg" width="420" height="64" viewBox="0 0 420 64" role="img"><rect x="0.5" y="0.5" width="419" height="63" rx="10" fill="#161b22" stroke="#30363d" /><path d="M28.46 19.35C28.46 17.03 26.72 15.07 24.05 15.07C21.14 15.07 18.49 17.60 18.49 20.58C18.49 23.06 20.38 24.98 22.93 24.98C23.88 24.98 24.82 24.70 25.63 24.22C25.70 24.18 25.74 24.11 25.74 24.03C25.74 23.89 25.59 23.78 25.46 23.78C25.42 23.78 25.38 23.78 25.34 23.80C24.64 24.21 23.85 24.45 22.98 24.45C20.72 24.45 19.04 22.75 19.04 20.56C19.04 17.94 21.35 15.61 23.99 15.61C26.34 15.61 27.86 17.14 27.86 19.35C27.86 20.95 27.09 21.61 26.54 21.61C26.25 21.61 26.02 21.41 26.02 20.98C26.02 20.89 26.05 20.72 26.06 20.64L26.61 18.05C26.62 18.01 26.62 17.95 26.62 17.90C26.62 17.50 26.30 17.15 25.85 17.15C25.48 17.15 25.15 17.42 25.08 17.77L25.04 17.97C24.75 17.43 24.13 17.03 23.29 17.03C21.67 17.03 20.13 18.58 20.13 20.46C20.13 21.82 20.94 22.81 22.30 22.81C23.05 22.81 23.82 22.38 24.33 21.73C24.41 22.31 24.85 22.81 25.69 22.81C26.90 22.81 28.46 21.70 28.46 19.35ZM24.65 19.84C24.44 20.82 23.66 21.55 22.91 21.55C22.20 21.55 21.75 21.05 21.75 20.32C21.75 19.30 22.56 18.29 23.68 18.29C24.30 18.29 24.89 18.71 24.68 19.69ZM35.42 22.92C35.42 22.46 35.00 22.15 34.56 22.15C34.39 22.15 34.24 22.19 34.09 22.29C33.78 22.49 33.44 22.59 33.08 22.59C32 22.59 31.24 21.79 31.24 20.61C31.24 19.44 32 18.65 33.08 18.65C33.43 18.65 33.78 18.75 34.07 18.93C34.23 19.03 34.39 19.07 34.56 19.07C34.95 19.07 35.40 18.79 35.40 18.32C35.40 18.20 35.37 18.09 35.32 17.99C35.02 17.45 34.04 17.07 32.99 17.07C30.91 17.07 29.41 18.54 29.41 20.61C29.41 22.70 30.91 24.17 32.99 24.17C33.95 24.17 34.65 23.89 35.14 23.50C35.32 23.36 35.42 23.13 35.42 22.92ZM43.26 20.40C43.26 20.07 43.16 19.66 43.06 19.35C42.58 17.95 41.42 17.07 39.90 17.07C37.84 17.07 36.40 18.65 36.40 20.61C36.40 22.78 37.95 24.17 40.01 24.17C41.04 24.17 42.54 23.78 42.63 22.98C42.67 22.56 42.25 22.26 41.87 22.26C41.76 22.26 41.63 22.29 41.52 22.35C41.10 22.57 40.58 22.75 40.20 22.75C39.06 22.75 38.37 22.07 38.26 21.21L42.43 21.21C42.89 21.21 43.26 20.84 43.26 20.40ZM38.23 20.01C38.31 19.34 38.79 18.48 39.90 18.48C41.07 18.48 41.52 19.37 41.56 20.01ZM50.91 19.65C50.91 18.33 49.78 17.07 48.30 17.07C47.26 17.07 46.62 17.62 46.35 18.04L46.35 18.02C46.35 17.55 45.96 17.15 45.48 17.15C44.96 17.15 44.57 17.55 44.57 18.02L44.57 23.20C44.57 23.69 44.96 24.08 45.45 24.08C45.96 24.08 46.35 23.69 46.35 23.20L46.35 20.22C46.35 19.25 47.05 18.65 47.75 18.65C48.51 18.65 49.14 19.25 49.14 20.19L49.14 23.20C49.14 23.69 49.53 24.08 50.02 24.08C50.52 24.08 50.91 23.69 50.91 23.20ZM56.37 23.36C56.37 22.92 56.09 22.59 55.59 22.59L55.44 22.59C55.16 22.59 54.82 22.38 54.82 21.84L54.82 18.79L55.52 18.79C55.93 18.79 56.28 18.44 56.28 18.02C56.28 17.59 55.93 17.24 55.52 17.24L54.82 17.24L54.82 16.19C54.82 15.70 54.43 15.31 53.94 15.31C53.42 15.31 53.03 15.70 53.03 16.19L53.03 17.24L52.59 17.24C52.17 17.24 51.82 17.59 51.82 17.99C51.82 18.44 52.17 18.79 52.59 18.79L53.03 18.79L53.03 22.32C53.03 23.52 53.70 24.17 54.95 24.17C56.11 24.17 56.37 23.80 56.37 23.36ZM61.43 17.91C61.43 17.50 61.16 17.18 60.64 17.18C59.97 17.18 59.52 17.71 59.19 18.16L59.19 18.02C59.19 17.55 58.80 17.15 58.32 17.15C57.80 17.15 57.41 17.55 57.41 18.02L57.41 23.20C57.41 23.69 57.80 24.08 58.29 24.08L58.32 24.08C58.80 24.08 59.19 23.69 59.19 23.20L59.19 20.37C59.19 19.25 60.03 18.89 60.57 18.82C61.06 18.75 61.43 18.44 61.43 17.91ZM68.29 19.63C68.29 17.69 66.87 17.07 65.33 17.07C64.55 17.07 63.04 17.35 62.62 18.02C62.56 18.12 62.52 18.25 62.52 18.37C62.52 18.79 62.87 19.06 63.19 19.06C63.30 19.06 63.42 19.02 63.51 18.96C63.98 18.65 64.49 18.53 65.03 18.53C65.92 18.53 66.51 18.97 66.51 19.66L66.51 19.88L64.37 19.88C63.29 19.88 62.02 20.35 62.02 21.93C62.02 23.44 63.29 24.17 64.37 24.17C65.39 24.17 66.05 23.92 66.51 23.37C66.51 23.68 66.80 24.08 67.28 24.08L67.42 24.08C67.90 24.08 68.29 23.69 68.29 23.20ZM66.51 21.09L66.51 21.40C66.51 22.49 65.66 22.96 65.08 22.96C64.38 22.96 63.81 22.60 63.81 21.97C63.81 21.31 64.38 21.09 65.08 21.09ZM71.83 15.45C71.83 14.97 71.44 14.58 70.96 14.58C70.44 14.58 70.05 14.97 70.05 15.45L70.05 23.20C70.05 23.69 70.44 24.08 70.93 24.08C71.44 24.08 71.83 23.69 71.83 23.20ZM76.58 20.60C76.58 20.19 76.24 19.86 75.83 19.86L73.79 19.86C73.38 19.86 73.05 20.19 73.05 20.60C73.05 21.03 73.38 21.37 73.79 21.37L75.83 21.37C76.24 21.37 76.58 21.03 76.58 20.60ZM78.68 14.40C78.10 14.40 77.61 14.86 77.61 15.45C77.61 16.03 78.10 16.51 78.68 16.51C79.26 16.51 79.74 16.03 79.74 15.45C79.74 14.86 79.26 14.40 78.68 14.40ZM79.57 18.02C79.57 17.55 79.18 17.15 78.70 17.15C78.19 17.15 77.79 17.55 77.79 18.02L77.79 23.20C77.79 23.69 78.19 24.08 78.68 24.08C79.18 24.08 79.57 23.69 79.57 23.20ZM86.91 22.92C86.91 22.46 86.49 22.15 86.05 22.15C85.89 22.15 85.73 22.19 85.58 22.29C85.27 22.49 84.93 22.59 84.57 22.59C83.49 22.59 82.74 21.79 82.74 20.61C82.74 19.44 83.49 18.65 84.57 18.65C84.92 18.65 85.27 18.75 85.56 18.93C85.72 19.03 85.89 19.07 86.05 19.07C86.45 19.07 86.89 18.79 86.89 18.32C86.89 18.20 86.87 18.09 86.81 17.99C86.52 17.45 85.54 17.07 84.49 17.07C82.40 17.07 80.90 18.54 80.90 20.61C80.90 22.70 82.40 24.17 84.49 24.17C85.44 24.17 86.14 23.89 86.63 23.50C86.81 23.36 86.91 23.13 86.91 22.92ZM95.04 20.61C95.04 18.69 93.70 17.07 91.46 17.07C89.23 17.07 87.89 18.69 87.89 20.61C87.89 22.54 89.23 24.17 91.46 24.17C93.70 24.17 95.04 22.54 95.04 20.61ZM93.19 20.61C93.19 21.68 92.56 22.59 91.46 22.59C90.35 22.59 89.74 21.68 89.74 20.61C89.74 19.56 90.35 18.65 91.46 18.65C92.56 18.65 93.19 19.56 93.19 20.61ZM102.70 19.65C102.70 18.33 101.57 17.07 100.08 17.07C99.05 17.07 98.40 17.62 98.14 18.04L98.14 18.02C98.14 17.55 97.74 17.15 97.27 17.15C96.75 17.15 96.36 17.55 96.36 18.02L96.36 23.20C96.36 23.69 96.75 24.08 97.24 24.08C97.74 24.08 98.14 23.69 98.14 23.20L98.14 20.22C98.14 19.25 98.84 18.65 99.54 18.65C100.29 18.65 100.92 19.25 100.92 20.19L100.92 23.20C100.92 23.69 101.31 24.08 101.80 24.08C102.31 24.08 102.70 23.69 102.70 23.20ZM109.83 22.00C109.83 19.27 105.82 20.11 105.82 19.10C105.82 18.72 106.24 18.43 106.89 18.43C107.43 18.43 107.98 18.58 108.41 18.83C108.51 18.89 108.64 18.92 108.75 18.92C109.11 18.92 109.45 18.62 109.45 18.25C109.45 18.12 109.41 17.99 109.34 17.90C108.96 17.35 107.75 17.07 106.87 17.07C105.09 17.07 104.10 18.06 104.10 19.20C104.10 21.86 108.12 20.95 108.12 22.07C108.12 22.49 107.75 22.80 106.98 22.80C106.40 22.80 105.70 22.56 105.16 22.25C105.05 22.18 104.93 22.15 104.80 22.15C104.42 22.15 104.06 22.47 104.06 22.89C104.06 23.03 104.10 23.16 104.18 23.27C104.60 23.87 106.02 24.17 106.90 24.17C108.78 24.17 109.83 23.23 109.83 22.00ZM114.12 20.60C114.12 20.19 113.79 19.86 113.38 19.86L111.34 19.86C110.93 19.86 110.60 20.19 110.60 20.60C110.60 21.03 110.93 21.37 111.34 21.37L113.38 21.37C113.79 21.37 114.12 21.03 114.12 20.60ZM120.70 22.00C120.70 19.27 116.70 20.11 116.70 19.10C116.70 18.72 117.12 18.43 117.76 18.43C118.31 18.43 118.86 18.58 119.29 18.83C119.39 18.89 119.51 18.92 119.63 18.92C119.99 18.92 120.33 18.62 120.33 18.25C120.33 18.12 120.28 17.99 120.21 17.90C119.84 17.35 118.63 17.07 117.75 17.07C115.97 17.07 114.98 18.06 114.98 19.20C114.98 21.86 119.00 20.95 119.00 22.07C119.00 22.49 118.63 22.80 117.86 22.80C117.27 22.80 116.57 22.56 116.04 22.25C115.93 22.18 115.80 22.15 115.68 22.15C115.30 22.15 114.94 22.47 114.94 22.89C114.94 23.03 114.98 23.16 115.06 23.27C115.48 23.87 116.90 24.17 117.78 24.17C119.65 24.17 120.70 23.23 120.70 22.00ZM128.01 18.05C128.01 17.60 127.66 17.17 127.12 17.17C126.77 17.17 126.43 17.38 126.30 17.73L124.72 21.94L123.14 17.71C123.01 17.38 122.69 17.17 122.34 17.17C121.80 17.17 121.43 17.62 121.43 18.04C121.43 18.15 121.46 18.26 121.50 18.36L123.48 23.24C123.67 23.75 124.18 24.08 124.72 24.08L124.75 24.08C125.28 24.08 125.77 23.75 125.98 23.24L127.96 18.36C128.00 18.26 128.01 18.15 128.01 18.05ZM135.63 20.40C135.63 20.07 135.53 19.66 135.43 19.35C134.96 17.95 133.79 17.07 132.27 17.07C130.21 17.07 128.77 18.65 128.77 20.61C128.77 22.78 130.32 24.17 132.38 24.17C133.42 24.17 134.91 23.78 135.00 22.98C135.04 22.56 134.62 22.26 134.24 22.26C134.13 22.26 134.00 22.29 133.89 22.35C133.47 22.57 132.95 22.75 132.58 22.75C131.43 22.75 130.74 22.07 130.63 21.21L134.80 21.21C135.26 21.21 135.63 20.84 135.63 20.40ZM130.60 20.01C130.69 19.34 131.16 18.48 132.27 18.48C133.44 18.48 133.89 19.37 133.93 20.01ZM138.72 15.45C138.72 14.97 138.33 14.58 137.85 14.58C137.34 14.58 136.94 14.97 136.94 15.45L136.94 23.20C136.94 23.69 137.34 24.08 137.83 24.08C138.33 24.08 138.72 23.69 138.72 23.20ZM144.18 23.36C144.18 22.92 143.90 22.59 143.40 22.59L143.24 22.59C142.96 22.59 142.63 22.38 142.63 21.84L142.63 18.79L143.33 18.79C143.73 18.79 144.08 18.44 144.08 18.02C144.08 17.59 143.73 17.24 143.33 17.24L142.63 17.24L142.63 16.19C142.63 15.70 142.24 15.31 141.75 15.31C141.23 15.31 140.84 15.70 140.84 16.19L140.84 17.24L140.40 17.24C139.98 17.24 139.63 17.59 139.63 17.99C139.63 18.44 139.98 18.79 140.40 18.79L140.84 18.79L140.84 22.32C140.84 23.52 141.51 24.17 142.75 24.17C143.92 24.17 144.18 23.80 144.18 23.36ZM151.64 20.40C151.64 20.07 151.55 19.66 151.45 19.35C150.97 17.95 149.81 17.07 148.28 17.07C146.23 17.07 144.78 18.65 144.78 20.61C144.78 22.78 146.34 24.17 148.40 24.17C149.43 24.17 150.93 23.78 151.01 22.98C151.06 22.56 150.64 22.26 150.26 22.26C150.15 22.26 150.02 22.29 149.91 22.35C149.49 22.57 148.97 22.75 148.59 22.75C147.44 22.75 146.76 22.07 146.65 21.21L150.82 21.21C151.28 21.21 151.64 20.84 151.64 20.40ZM146.62 20.01C146.70 19.34 147.18 18.48 148.28 18.48C149.46 18.48 149.91 19.37 149.95 20.01Z" fill="#e6edf3" /><path d="M374.35 21.63C374.45 20.07 373.40 19.53 373.40 19.53C373.40 19.53 374.36 19.03 374.26 17.55C374.15 16.11 373.01 15.20 370.98 15.20C369.79 15.20 368.85 15.55 368.13 16.12C367.95 16.27 367.86 16.47 367.86 16.68C367.86 17.14 368.26 17.46 368.67 17.46C368.82 17.46 368.98 17.42 369.11 17.33C369.62 17.01 370.19 16.84 370.79 16.84C371.70 16.84 372.40 17.04 372.40 17.73C372.40 18.45 371.97 18.79 371.10 18.79C370.47 18.79 370.20 19.14 370.20 19.59C370.20 20.05 370.47 20.41 371.15 20.41C372.03 20.41 372.54 20.72 372.54 21.41C372.54 22.06 371.96 22.52 370.90 22.52C370.31 22.52 369.62 22.31 369.04 21.97C368.90 21.88 368.75 21.84 368.59 21.84C368.16 21.84 367.74 22.19 367.74 22.66C367.74 22.79 367.78 22.91 367.85 23.01C368.25 23.69 369.72 24.16 370.97 24.16C373.05 24.16 374.24 23.26 374.35 21.63ZM377.72 23.36C377.72 22.52 377.16 22.04 376.55 22.04C376.00 22.04 375.53 22.50 375.53 23.08C375.53 23.64 375.92 24.01 376.42 24.01C376.51 24.01 376.62 23.99 376.66 23.97C376.58 24.31 376.30 24.71 375.96 24.99C375.87 25.07 375.83 25.17 375.83 25.27C375.83 25.53 376.10 25.69 376.32 25.69C376.45 25.69 376.57 25.65 376.66 25.56C377.31 24.98 377.72 24.20 377.72 23.36ZM385.59 19.67C385.59 17.43 384.48 15.20 382.01 15.20C379.52 15.20 378.42 17.43 378.42 19.67C378.42 21.91 379.52 24.16 382.01 24.16C384.48 24.16 385.59 21.91 385.59 19.67ZM383.71 19.67C383.71 21.27 383.24 22.52 382.01 22.52C380.76 22.52 380.29 21.27 380.29 19.67C380.29 18.07 380.76 16.84 382.01 16.84C383.24 16.84 383.71 18.07 383.71 19.67ZM393.65 19.67C393.65 17.43 392.54 15.20 390.07 15.20C387.58 15.20 386.48 17.43 386.48 19.67C386.48 21.91 387.58 24.16 390.07 24.16C392.54 24.16 393.65 21.91 393.65 19.67ZM391.77 19.67C391.77 21.27 391.30 22.52 390.07 22.52C388.82 22.52 388.35 21.27 388.35 19.67C388.35 18.07 388.82 16.84 390.07 16.84C391.30 16.84 391.77 18.07 391.77 19.67ZM394.49 18.16C394.49 20.01 395.88 20.98 397.44 20.98C398.52 20.98 399.32 20.45 399.66 19.87C399.67 19.93 399.67 19.98 399.67 20.05C399.67 21.43 398.78 22.50 397.50 22.50C397.06 22.50 396.70 22.43 396.37 22.26C396.25 22.19 396.12 22.17 395.99 22.17C395.59 22.17 395.15 22.48 395.15 22.97C395.15 23.10 395.19 23.22 395.24 23.32C395.56 23.90 396.66 24.14 397.50 24.14C400.06 24.14 401.54 22.28 401.54 19.66C401.54 17.21 400.44 15.19 397.80 15.19C395.82 15.19 394.49 16.47 394.49 18.16ZM396.36 18.10C396.36 17.45 396.84 16.82 397.84 16.82C398.66 16.82 399.27 17.38 399.27 18.19C399.27 18.97 398.65 19.53 397.84 19.53C397.01 19.53 396.36 18.97 396.36 18.10Z" fill="#9aa7b4" /><path transform="translate(350.29, 12)" d="M6 1 L6 7.5 M3 5 L6 8 L9 5 M2 10.5 L10 10.5" fill="none" stroke="#9aa7b4" stroke-width="1.4" stroke-linecap="round" stroke-linejoin="round" /><path d="M21.41 32.60C21.41 32.22 21.08 31.94 20.72 31.94C20.53 31.94 20.36 32.00 20.24 32.13L18.50 33.89C18.41 34 18.36 34.12 18.36 34.25C18.36 34.54 18.61 34.76 18.86 34.76C19.00 34.76 19.10 34.71 19.20 34.61L20.22 33.56L20.22 39.48C20.22 39.81 20.48 40.07 20.81 40.07C21.14 40.07 21.41 39.81 21.41 39.48ZM31.80 37.10C31.80 35.20 30.73 34.06 29.22 34.06C28.43 34.06 27.73 34.46 27.31 35.03L27.31 34.65C27.31 34.37 27.07 34.13 26.80 34.13C26.48 34.13 26.24 34.37 26.24 34.65L26.24 41.76C26.24 42.04 26.48 42.28 26.77 42.28C27.07 42.28 27.31 42.04 27.31 41.76L27.31 39.16C27.78 39.80 28.45 40.14 29.22 40.14C30.73 40.14 31.80 38.98 31.80 37.10ZM30.67 37.10C30.67 38.31 30.13 39.20 29.04 39.20C28.03 39.20 27.31 38.32 27.31 37.13L27.31 37.06C27.31 35.87 28.03 35.01 29.04 35.01C30.13 35.01 30.67 35.88 30.67 37.10ZM37.80 36.08C37.80 34.60 36.72 34.06 35.47 34.06C34.69 34.06 33.82 34.31 33.26 34.86C33.19 34.95 33.16 35.04 33.16 35.14C33.16 35.39 33.38 35.56 33.60 35.56C33.68 35.56 33.78 35.52 33.86 35.46C34.30 35.13 34.78 34.96 35.32 34.96C36.13 34.96 36.73 35.39 36.73 36.12L36.73 36.45L35.06 36.45C33.86 36.45 32.81 36.92 32.81 38.22C32.81 39.50 33.86 40.14 34.82 40.14C35.72 40.14 36.26 39.87 36.73 39.35L36.73 39.54C36.73 39.89 37.01 40.07 37.22 40.07L37.26 40.07C37.56 40.07 37.80 39.83 37.80 39.54ZM36.73 37.19L36.73 38.01C36.73 38.69 35.95 39.39 35.11 39.39C34.33 39.39 33.89 38.92 33.89 38.25C33.89 37.55 34.44 37.19 35.35 37.19ZM44.14 39.12C44.14 38.85 43.88 38.66 43.63 38.66C43.51 38.66 43.39 38.69 43.30 38.76C42.97 39.05 42.60 39.20 42.17 39.20C41.02 39.20 40.27 38.31 40.27 37.10C40.27 35.88 41.02 35.01 42.17 35.01C42.59 35.01 42.97 35.14 43.30 35.43C43.39 35.51 43.51 35.56 43.63 35.56C43.90 35.56 44.12 35.34 44.12 35.08C44.12 34.98 44.10 34.90 44.04 34.83C43.64 34.37 43.00 34.06 42.11 34.06C40.37 34.06 39.17 35.37 39.17 37.10C39.17 38.84 40.37 40.14 42.11 40.14C42.97 40.14 43.56 39.86 43.99 39.44C44.09 39.35 44.14 39.23 44.14 39.12ZM50.21 39.54C50.21 39.44 50.17 39.32 50.10 39.23L48.19 36.83L49.99 34.95C50.08 34.85 50.12 34.74 50.12 34.62C50.12 34.36 49.88 34.12 49.62 34.12C49.50 34.12 49.37 34.18 49.27 34.28L46.54 37.16L46.54 32.44C46.54 32.16 46.30 31.92 46.02 31.92C45.71 31.92 45.47 32.16 45.47 32.44L45.47 39.54C45.47 39.83 45.71 40.07 46.00 40.07C46.30 40.07 46.54 39.83 46.54 39.54L46.54 38.39L47.42 37.49L49.26 39.87C49.36 40.01 49.52 40.08 49.68 40.08C50.00 40.08 50.21 39.80 50.21 39.54ZM56.36 36.08C56.36 34.60 55.28 34.06 54.04 34.06C53.26 34.06 52.38 34.31 51.83 34.86C51.76 34.95 51.72 35.04 51.72 35.14C51.72 35.39 51.95 35.56 52.16 35.56C52.25 35.56 52.34 35.52 52.43 35.46C52.86 35.13 53.34 34.96 53.88 34.96C54.70 34.96 55.30 35.39 55.30 36.12L55.30 36.45L53.63 36.45C52.43 36.45 51.37 36.92 51.37 38.22C51.37 39.50 52.43 40.14 53.39 40.14C54.29 40.14 54.83 39.87 55.30 39.35L55.30 39.54C55.30 39.89 55.57 40.07 55.79 40.07L55.82 40.07C56.12 40.07 56.36 39.83 56.36 39.54ZM55.30 37.19L55.30 38.01C55.30 38.69 54.52 39.39 53.68 39.39C52.90 39.39 52.45 38.92 52.45 38.25C52.45 37.55 53.00 37.19 53.92 37.19ZM63.28 34.65C63.28 34.37 63.04 34.13 62.76 34.13C62.45 34.13 62.21 34.37 62.21 34.65L62.21 35.04C61.74 34.42 61.07 34.06 60.30 34.06C58.80 34.06 57.73 35.19 57.73 37.06C57.73 38.94 58.81 40.05 60.30 40.05C61.09 40.05 61.78 39.63 62.21 39.04L62.21 39.81C62.21 41.04 61.32 41.48 60.42 41.48C59.78 41.48 59.28 41.34 58.84 40.97C58.75 40.91 58.67 40.89 58.56 40.89C58.32 40.89 58.10 41.09 58.10 41.34C58.10 41.46 58.15 41.57 58.22 41.64C58.79 42.18 59.60 42.35 60.42 42.35C61.84 42.35 63.28 41.76 63.28 39.77ZM62.21 37.07C62.21 38.26 61.43 39.10 60.47 39.10C59.39 39.10 58.84 38.25 58.84 37.06C58.84 35.85 59.39 35.01 60.47 35.01C61.43 35.01 62.21 35.84 62.21 37.02ZM70.36 36.90C70.36 36.68 70.30 36.42 70.25 36.23C69.91 34.94 68.95 34.06 67.55 34.06C65.87 34.06 64.66 35.42 64.66 37.10C64.66 38.92 65.92 40.14 67.64 40.14C68.50 40.14 69.98 39.70 69.98 39.05C69.98 38.64 69.58 38.55 69.31 38.68C68.89 38.99 68.24 39.28 67.75 39.28C66.58 39.28 65.86 38.48 65.77 37.48L69.80 37.48C70.10 37.48 70.36 37.19 70.36 36.90ZM65.77 36.69C65.82 35.88 66.38 34.92 67.54 34.92C68.77 34.92 69.30 35.91 69.32 36.69ZM75.34 32.06C74.96 32.06 74.65 32.37 74.65 32.75C74.65 33.12 74.96 33.44 75.34 33.44C75.72 33.44 76.02 33.12 76.02 32.75C76.02 32.37 75.72 32.06 75.34 32.06ZM75.88 34.65C75.88 34.37 75.64 34.13 75.36 34.13C75.05 34.13 74.81 34.37 74.81 34.65L74.81 39.54C74.81 39.83 75.05 40.07 75.34 40.07C75.64 40.07 75.88 39.83 75.88 39.54ZM82.58 36.28C82.58 35.06 81.70 34.06 80.47 34.06C79.46 34.06 78.95 34.55 78.67 35.02L78.67 34.65C78.67 34.37 78.43 34.13 78.16 34.13C77.84 34.13 77.60 34.37 77.60 34.65L77.60 39.54C77.60 39.83 77.84 40.07 78.13 40.07C78.43 40.07 78.67 39.83 78.67 39.54L78.67 36.76C78.67 35.78 79.20 35.01 80.12 35.01C80.99 35.01 81.52 35.68 81.52 36.64L81.52 39.54C81.52 39.83 81.76 40.07 82.04 40.07C82.34 40.07 82.58 39.83 82.58 39.54ZM90.10 39.58C90.10 39.33 89.90 39.14 89.64 39.14C89.52 39.14 89.38 39.20 89.24 39.20C88.90 39.20 88.68 38.92 88.68 38.48L88.68 35.14L89.47 35.14C89.72 35.14 89.93 34.94 89.93 34.68C89.93 34.41 89.72 34.20 89.47 34.20L88.68 34.20L88.68 33.06C88.68 32.79 88.44 32.55 88.15 32.55C87.84 32.55 87.60 32.79 87.60 33.06L87.60 34.20L87.04 34.20C86.77 34.20 86.57 34.41 86.57 34.66C86.57 34.94 86.77 35.14 87.04 35.14L87.60 35.14L87.60 38.73C87.60 39.64 88.08 40.14 88.99 40.14C89.63 40.14 90.10 39.96 90.10 39.58ZM96.06 36.26C96.06 35.03 95.18 34.06 93.96 34.06C92.94 34.06 92.41 34.55 92.14 35.02L92.14 32.44C92.14 32.16 91.90 31.92 91.62 31.92C91.31 31.92 91.07 32.16 91.07 32.44L91.07 39.54C91.07 39.83 91.31 40.07 91.60 40.07C91.90 40.07 92.14 39.83 92.14 39.54L92.14 36.82C92.14 35.74 92.71 35.01 93.62 35.01C94.49 35.01 94.99 35.66 94.99 36.62L94.99 39.54C94.99 39.83 95.23 40.07 95.52 40.07C95.82 40.07 96.06 39.83 96.06 39.54ZM98.32 32.06C97.94 32.06 97.63 32.37 97.63 32.75C97.63 33.12 97.94 33.44 98.32 33.44C98.70 33.44 99 33.12 99 32.75C99 32.37 98.70 32.06 98.32 32.06ZM98.86 34.65C98.86 34.37 98.62 34.13 98.34 34.13C98.03 34.13 97.79 34.37 97.79 34.65L97.79 39.54C97.79 39.83 98.03 40.07 98.32 40.07C98.62 40.07 98.86 39.83 98.86 39.54ZM104.83 38.25C104.72 36.21 101.40 36.77 101.28 35.73C101.23 35.26 101.74 34.91 102.47 34.91C103.02 34.91 103.54 35.09 103.91 35.36C103.98 35.42 104.06 35.44 104.16 35.44C104.38 35.44 104.58 35.26 104.58 35.02C104.58 34.92 104.54 34.83 104.47 34.76C104.02 34.31 103.28 34.06 102.46 34.06C101.04 34.06 100.19 34.73 100.25 35.76C100.36 37.71 103.67 37.11 103.79 38.39C103.84 38.92 103.36 39.29 102.53 39.29C101.93 39.29 101.33 39.05 100.90 38.74C100.81 38.68 100.73 38.66 100.62 38.66C100.37 38.66 100.15 38.85 100.15 39.10C100.15 39.22 100.20 39.32 100.28 39.39C100.81 39.92 101.69 40.14 102.48 40.14C104.02 40.14 104.89 39.35 104.83 38.25ZM113.53 38.25C113.42 36.21 110.10 36.77 109.98 35.73C109.93 35.26 110.44 34.91 111.17 34.91C111.72 34.91 112.24 35.09 112.61 35.36C112.68 35.42 112.76 35.44 112.86 35.44C113.08 35.44 113.28 35.26 113.28 35.02C113.28 34.92 113.24 34.83 113.17 34.76C112.72 34.31 111.98 34.06 111.16 34.06C109.74 34.06 108.89 34.73 108.95 35.76C109.06 37.71 112.37 37.11 112.49 38.39C112.54 38.92 112.06 39.29 111.23 39.29C110.63 39.29 110.03 39.05 109.60 38.74C109.51 38.68 109.43 38.66 109.32 38.66C109.07 38.66 108.85 38.85 108.85 39.10C108.85 39.22 108.90 39.32 108.98 39.39C109.51 39.92 110.39 40.14 111.18 40.14C112.72 40.14 113.59 39.35 113.53 38.25ZM119.52 39.12C119.52 38.85 119.27 38.66 119.02 38.66C118.90 38.66 118.78 38.69 118.68 38.76C118.36 39.05 117.98 39.20 117.55 39.20C116.40 39.20 115.66 38.31 115.66 37.10C115.66 35.88 116.40 35.01 117.55 35.01C117.97 35.01 118.36 35.14 118.68 35.43C118.78 35.51 118.90 35.56 119.02 35.56C119.28 35.56 119.51 35.34 119.51 35.08C119.51 34.98 119.48 34.90 119.42 34.83C119.03 34.37 118.38 34.06 117.49 34.06C115.75 34.06 114.55 35.37 114.55 37.10C114.55 38.84 115.75 40.14 117.49 40.14C118.36 40.14 118.94 39.86 119.38 39.44C119.47 39.35 119.52 39.23 119.52 39.12ZM126.35 37.10C126.35 35.43 125.23 34.06 123.42 34.06C121.62 34.06 120.50 35.43 120.50 37.10C120.50 38.76 121.62 40.14 123.42 40.14C125.23 40.14 126.35 38.76 126.35 37.10ZM125.23 37.10C125.23 38.21 124.58 39.20 123.42 39.20C122.27 39.20 121.61 38.21 121.61 37.10C121.61 35.99 122.27 35.01 123.42 35.01C124.58 35.01 125.23 35.99 125.23 37.10ZM133.28 37.10C133.28 35.20 132.22 34.06 130.70 34.06C129.91 34.06 129.22 34.46 128.80 35.03L128.80 34.65C128.80 34.37 128.56 34.13 128.28 34.13C127.97 34.13 127.73 34.37 127.73 34.65L127.73 41.76C127.73 42.04 127.97 42.28 128.26 42.28C128.56 42.28 128.80 42.04 128.80 41.76L128.80 39.16C129.26 39.80 129.94 40.14 130.70 40.14C132.22 40.14 133.28 38.98 133.28 37.10ZM132.16 37.10C132.16 38.31 131.62 39.20 130.52 39.20C129.52 39.20 128.80 38.32 128.80 37.13L128.80 37.06C128.80 35.87 129.52 35.01 130.52 35.01C131.62 35.01 132.16 35.88 132.16 37.10ZM139.98 36.90C139.98 36.68 139.92 36.42 139.87 36.23C139.54 34.94 138.58 34.06 137.17 34.06C135.49 34.06 134.28 35.42 134.28 37.10C134.28 38.92 135.54 40.14 137.27 40.14C138.12 40.14 139.61 39.70 139.61 39.05C139.61 38.64 139.20 38.55 138.94 38.68C138.52 38.99 137.87 39.28 137.38 39.28C136.20 39.28 135.48 38.48 135.40 37.48L139.43 37.48C139.73 37.48 139.98 37.19 139.98 36.90ZM135.40 36.69C135.44 35.88 136.01 34.92 137.16 34.92C138.40 34.92 138.92 35.91 138.95 36.69Z" fill="#9aa7b4" /><rect x="18" y="50" width="384" height="6" rx="3" fill="#21262d" /><rect x="18" y="50" width="0.00" height="6" rx="3" fill="#00a5fe" /></svg>