<svg xmlns="http://www.w3.org/2000/svg" width="420" height="64" viewBox="0 0 420 64" role="img"><rect x="0.5" y="0.5" width="419" height="63" rx="10" fill="#161b22" stroke="#30363d" /><path d="M28.46 19.35C28.46 17.03 26.72 15.07 24.05 15.07C21.14 15.07 18.49 17.60 18.49 20.58C18.49 23.06 20.38 24.98 22.93 24.98C23.88 24.98 24.82 24.70 25.63 24.22C25.70 24.18 25.74 24.11 25.74 24.03C25.74 23.89 25.59 23.78 25.46 23.78C25.42 23.78 25.38 23.78 25.34 23.80C24.64 24.21 23.85 24.45 22.98 24.45C20.72 24.45 19.04 22.75 19.04 20.56C19.04 17.94 21.35 15.61 23.99 15.61C26.34 15.61 27.86 17.14 27.86 19.35C27.86 20.95 27.09 21.61 26.54 21.61C26.25 21.61 26.02 21.41 26.02 20.98C26.02 20.89 26.05 20.72 26.06 20.64L26.61 18.05C26.62 18.01 26.62 17.95 26.62 17.90C26.62 17.50 26.30 17.15 25.85 17.15C25.48 17.15 25.15 17.42 25.08 17.77L25.04 17.97C24.75 17.43 24.13 17.03 23.29 17.03C21.67 17.03 20.13 18.58 20.13 20.46C20.13 21.82 20.94 22.81 22.30 22.81C23.05 22.81 23.82 22.38 24.33 21.73C24.41 22.31 24.85 22.81 25.69 22.81C26.90 22.81 28.46 21.70 28.46 19.35ZM24.65 19.84C24.44 20.82 23.66 21.55 22.91 21.55C22.20 21.55 21.75 21.05 21.75 20.32C21.75 19.30 22.56 18.29 23.68 18.29C24.30 18.29 24.89 18.71 24.68 19.69ZM35.42 22.92C35.42 22.46 35.00 22.15 34.56 22.15C34.39 22.15 34.24 22.19 34.09 22.29C33.78 22.49 33.44 22.59 33.08 22.59C32 22.59 31.24 21.79 31.24 20.61C31.24 19.44 32 18.65 33.08 18.65C33.43 18.65 33.78 18.75 34.07 18.93C34.23 19.03 34.39 19.07 34.56 19.07C34.95 19.07 35.40 18.79 35.40 18.32C35.40 18.20 35.37 18.09 35.32 17.99C35.02 17.45 34.04 17.07 32.99 17.07C30.91 17.07 29.41 18.54 29.41 20.61C29.41 22.70 30.91 24.17 32.99 24.17C33.95 24.17 34.65 23.89 35.14 23.50C35.32 23.36 35.42 23.13 35.42 22.92ZM43.26 20.40C43.26 20.07 43.16 19.66 43.06 19.35C42.58 17.95 41.42 17.07 39.90 17.07C37.84 17.07 36.40 18.65 36.40 20.61C36.40 22.78 37.95 24.17 40.01 24.17C41.04 24.17 42.54 23.78 42.63 22.98C42.67 22.56 42.25 22.26 41.87 22.26C41.76 22.26 41.63 22.29 41.52 22.35C41.10 22.57 40.58 22.75 40.20 22.75C39.06 22.75 38.37 22.07 38.26 21.21L42.43 21.21C42.89 21.21 43.26 20.84 43.26 20.40ZM38.23 20.01C38.31 19.34 38.79 18.48 39.90 18.48C41.07 18.48 41.52 19.37 41.56 20.01ZM50.91 19.65C50.91 18.33 49.78 17.07 48.30 17.07C47.26 17.07 46.62 17.62 46.35 18.04L46.35 18.02C46.35 17.55 45.96 17.15 45.48 17.15C44.96 17.15 44.57 17.55 44.57 18.02L44.57 23.20C44.57 23.69 44.96 24.08 45.45 24.08C45.96 24.08 46.35 23.69 46.35 23.20L46.35 20.22C46.35 19.25 47.05 18.65 47.75 18.65C48.51 18.65 49.14 19.25 49.14 20.19L49.14 23.20C49.14 23.69 49.53 24.08 50.02 24.08C50.52 24.08 50.91 23.69 50.91 23.20ZM56.37 23.36C56.37 22.92 56.09 22.59 55.59 22.59L55.44 22.59C55.16 22.59 54.82 22.38 54.82 21.84L54.82 18.79L55.52 18.79C55.93 18.79 56.28 18.44 56.28 18.02C56.28 17.59 55.93 17.24 55.52 17.24L54.82 17.24L54.82 16.19C54.82 15.70 54.43 15.31 53.94 15.31C53.42 15.31 53.03 15.70 53.03 16.19L53.03 17.24L52.59 17.24C52.17 17.24 51.82 17.59 51.82 17.99C51.82 18.44 52.17 18.79 52.59 18.79L53.03 18.79L53.03 22.32C53.03 23.52 53.70 24.17 54.95 24.17C56.11 24.17 56.37 23.80 56.37 23.36ZM61.43 17.91C61.43 17.50 61.16 17.18 60.64 17.18C59.97 17.18 59.52 17.71 59.19 18.16L59.19 18.02C59.19 17.55 58.80 17.15 58.32 17.15C57.80 17.15 57.41 17.55 57.41 18.02L57.41 23.20C57.41 23.69 57.80 24.08 58.29 24.08L58.32 24.08C58.80 24.08 59.19 23.69 59.19 23.20L59.19 20.37C59.19 19.25 60.03 18.89 60.57 18.82C61.06 18.75 61.43 18.44 61.43 17.91ZM68.29 19.63C68.29 17.69 66.87 17.07 65.33 17.07C64.55 17.07 63.04 17.35 62.62 18.02C62.56 18.12 62.52 18.25 62.52 18.37C62.52 18.79 62.87 19.06 63.19 19.06C63.30 19.06 63.42 19.02 63.51 18.96C63.98 18.65 64.49 18.53 65.03 18.53C65.92 18.53 66.51 18.97 66.51 19.66L66.51 19.88L64.37 19.88C63.29 19.88 62.02 20.35 62.02 21.93C62.02 23.44 63.29 24.17 64.37 24.17C65.39 24.17 66.05 23.92 66.51 23.37C66.51 23.68 66.80 24.08 67.28 24.08L67.42 24.08C67.90 24.08 68.29 23.69 68.29 23.20ZM66.51 21.09L66.51 21.40C66.51 22.49 65.66 22.96 65.08 22.96C64.38 22.96 63.81 22.60 63.81 21.97C63.81 21.31 64.38 21.09 65.08 21.09ZM71.83 15.45C71.83 14.97 71.44 14.58 70.96 14.58C70.44 14.58 70.05 14.97 70.05 15.45L70.05 23.20C70.05 23.69 70.44 24.08 70.93 24.08C71.44 24.08 71.83 23.69 71.83 23.20ZM76.58 20.60C76.58 20.19 76.24 19.86 75.83 19.86L73.79 19.86C73.38 19.86 73.05 20.19 73.05 20.60C73.05 21.03 73.38 21.37 73.79 21.37L75.83 21.37C76.24 21.37 76.58 21.03 76.58 20.60ZM78.68 14.40C78.10 14.40 77.61 14.86 77.61 15.45C77.61 16.03 78.10 16.51 78.68 16.51C79.26 16.51 79.74 16.03 79.74 15.45C79.74 14.86 79.26 14.40 78.68 14.40ZM79.57 18.02C79.57 17.55 79.18 17.15 78.70 17.15C78.19 17.15 77.79 17.55 77.79 18.02L77.79 23.20C77.79 23.69 78.19 24.08 78.68 24.08C79.18 24.08 79.57 23.69 79.57 23.20ZM86.91 22.92C86.91 22.46 86.49 22.15 86.05 22.15C85.89 22.15 85.73 22.19 85.58 22.29C85.27 22.49 84.93 22.59 84.57 22.59C83.49 22.59 82.74 21.79 82.74 20.61C82.74 19.44 83.49 18.65 84.57 18.65C84.92 18.65 85.27 18.75 85.56 18.93C85.72 19.03 85.89 19.07 86.05 19.07C86.45 19.07 86.89 18.79 86.89 18.32C86.89 18.20 86.87 18.09 86.81 17.99C86.52 17.45 85.54 17.07 84.49 17.07C82.40 17.07 80.90 18.54 80.90 20.61C80.90 22.70 82.40 24.17 84.49 24.17C85.44 24.17 86.14 23.89 86.63 23.50C86.81 23.36 86.91 23.13 86.91 22.92ZM95.04 20.61C95.04 18.69 93.70 17.07 91.46 17.07C89.23 17.07 87.89 18.69 87.89 20.61C87.89 22.54 89.23 24.17 91.46 24.17C93.70 24.17 95.04 22.54 95.04 20.61ZM93.19 20.61C93.19 21.68 92.56 22.59 91.46 22.59C90.35 22.59 89.74 21.68 89.74 20.61C89.74 19.56 90.35 18.65 91.46 18.65C92.56 18.65 93.19 19.56 93.19 20.61ZM102.70 19.65C102.70 18.33 101.57 17.07 100.08 17.07C99.05 17.07 98.40 17.62 98.14 18.04L98.14 18.02C98.14 17.55 97.74 17.15 97.27 17.15C96.75 17.15 96.36 17.55 96.36 18.02L96.36 23.20C96.36 23.69 96.75 24.08 97.24 24.08C97.74 24.08 98.14 23.69 98.14 23.20L98.14 20.22C98.14 19.25 98.84 18.65 99.54 18.65C100.29 18.65 100.92 19.25 100.92 20.19L100.92 23.20C100.92 23.69 101.31 24.08 101.80 24.08C102.31 24.08 102.70 23.69 102.70 23.20ZM109.83 22.00C109.83 19.27 105.82 20.11 105.82 19.10C105.82 18.72 106.24 18.43 106.89 18.43C107.43 18.43 107.98 18.58 108.41 18.83C108.51 18.89 108.64 18.92 108.75 18.92C109.11 18.92 109.45 18.62 109.45 18.25C109.45 18.12 109.41 17.99 109.34 17.90C108.96 17.35 107.75 17.07 106.87 17.07C105.09 17.07 104.10 18.06 104.10 19.20C104.10 21.86 108.12 20.95 108.12 22.07C108.12 22.49 107.75 22.80 106.98 22.80C106.40 22.80 105.70 22.56 105.16 22.25C105.05 22.18 104.93 22.15 104.80 22.15C104.42 22.15 104.06 22.47 104.06 22.89C104.06 23.03 104.10 23.16 104.18 23.27C104.60 23.87 106.02 24.17 106.90 24.17C108.78 24.17 109.83 23.23 109.83 22.00ZM114.12 20.60C114.12 20.19 113.79 19.86 113.38 19.86L111.34 19.86C110.93 19.86 110.60 20.19 110.60 20.60C110.60 21.03 110.93 21.37 111.34 21.37L113.38 21.37C113.79 21.37 114.12 21.03 114.12 20.60ZM119.36 17.91C119.36 17.50 119.09 17.18 118.58 17.18C117.90 17.18 117.46 17.71 117.12 18.16L117.12 18.02C117.12 17.55 116.73 17.15 116.25 17.15C115.73 17.15 115.34 17.55 115.34 18.02L115.34 23.20C115.34 23.69 115.73 24.08 116.22 24.08L116.25 24.08C116.73 24.08 117.12 23.69 117.12 23.20L117.12 20.37C117.12 19.25 117.96 18.89 118.51 18.82C119.00 18.75 119.36 18.44 119.36 17.91ZM126.81 20.40C126.81 20.07 126.71 19.66 126.61 19.35C126.14 17.95 124.97 17.07 123.45 17.07C121.39 17.07 119.95 18.65 119.95 20.61C119.95 22.78 121.50 24.17 123.56 24.17C124.60 24.17 126.09 23.78 126.18 22.98C126.22 22.56 125.80 22.26 125.42 22.26C125.31 22.26 125.18 22.29 125.07 22.35C124.65 22.57 124.13 22.75 123.76 22.75C122.61 22.75 121.92 22.07 121.81 21.21L125.98 21.21C126.44 21.21 126.81 20.84 126.81 20.40ZM121.78 20.01C121.87 19.34 122.34 18.48 123.45 18.48C124.62 18.48 125.07 19.37 125.11 20.01ZM133.96 19.63C133.96 17.69 132.55 17.07 131.01 17.07C130.22 17.07 128.71 17.35 128.29 18.02C128.24 18.12 128.19 18.25 128.19 18.37C128.19 18.79 128.54 19.06 128.87 19.06C128.98 19.06 129.09 19.02 129.19 18.96C129.65 18.65 130.17 18.53 130.70 18.53C131.60 18.53 132.18 18.97 132.18 19.66L132.18 19.88L130.04 19.88C128.96 19.88 127.69 20.35 127.69 21.93C127.69 23.44 128.96 24.17 130.04 24.17C131.06 24.17 131.72 23.92 132.18 23.37C132.18 23.68 132.48 24.08 132.95 24.08L133.09 24.08C133.57 24.08 133.96 23.69 133.96 23.20ZM132.18 21.09L132.18 21.40C132.18 22.49 131.33 22.96 130.76 22.96C130.06 22.96 129.48 22.60 129.48 21.97C129.48 21.31 130.06 21.09 130.76 21.09ZM141.30 22.92C141.30 22.46 140.88 22.15 140.44 22.15C140.28 22.15 140.12 22.19 139.97 22.29C139.66 22.49 139.32 22.59 138.96 22.59C137.88 22.59 137.13 21.79 137.13 20.61C137.13 19.44 137.88 18.65 138.96 18.65C139.31 18.65 139.66 18.75 139.95 18.93C140.11 19.03 140.28 19.07 140.44 19.07C140.84 19.07 141.28 18.79 141.28 18.32C141.28 18.20 141.26 18.09 141.20 17.99C140.91 17.45 139.93 17.07 138.88 17.07C136.79 17.07 135.29 18.54 135.29 20.61C135.29 22.70 136.79 24.17 138.88 24.17C139.83 24.17 140.53 23.89 141.02 23.50C141.20 23.36 141.30 23.13 141.30 22.92ZM146.41 23.36C146.41 22.92 146.13 22.59 145.62 22.59L145.47 22.59C145.19 22.59 144.85 22.38 144.85 21.84L144.85 18.79L145.55 18.79C145.96 18.79 146.31 18.44 146.31 18.02C146.31 17.59 145.96 17.24 145.55 17.24L144.85 17.24L144.85 16.19C144.85 15.70 144.46 15.31 143.97 15.31C143.45 15.31 143.06 15.70 143.06 16.19L143.06 17.24L142.63 17.24C142.21 17.24 141.86 17.59 141.86 17.99C141.86 18.44 142.21 18.79 142.63 18.79L143.06 18.79L143.06 22.32C143.06 23.52 143.73 24.17 144.98 24.17C146.14 24.17 146.41 23.80 146.41 23.36Z" fill="#e6edf3" /><path d="M341.50 18.16C341.50 20.01 342.89 20.98 344.45 20.98C345.53 20.98 346.33 20.45 346.67 19.87C346.69 19.93 346.69 19.98 346.69 20.05C346.69 21.43 345.79 22.50 344.51 22.50C344.07 22.50 343.71 22.43 343.38 22.26C343.27 22.19 343.14 22.17 343.01 22.17C342.60 22.17 342.16 22.48 342.16 22.97C342.16 23.10 342.20 23.22 342.25 23.32C342.58 23.90 343.67 24.14 344.51 24.14C347.07 24.14 348.56 22.28 348.56 19.66C348.56 17.21 347.45 15.19 344.81 15.19C342.84 15.19 341.50 16.47 341.50 18.16ZM343.37 18.10C343.37 17.45 343.85 16.82 344.85 16.82C345.67 16.82 346.28 17.38 346.28 18.19C346.28 18.97 345.66 19.53 344.85 19.53C344.02 19.53 343.37 18.97 343.37 18.10ZM351.53 23.36C351.53 22.52 350.97 22.04 350.36 22.04C349.82 22.04 349.35 22.50 349.35 23.08C349.35 23.64 349.74 24.01 350.23 24.01C350.32 24.01 350.44 23.99 350.48 23.97C350.40 24.31 350.12 24.71 349.78 24.99C349.69 25.07 349.65 25.17 349.65 25.27C349.65 25.53 349.92 25.69 350.14 25.69C350.27 25.69 350.39 25.65 350.48 25.56C351.13 24.98 351.53 24.20 351.53 23.36ZM359.58 21.40C359.58 20.95 359.22 20.58 358.79 20.58L358.38 20.58L358.38 16.29C358.38 15.48 357.60 15.12 356.81 15.25C356.25 15.25 355.69 15.55 355.39 16.02L352.50 20.59C352.38 20.78 352.33 20.98 352.33 21.19C352.33 21.78 352.76 22.21 353.28 22.21L356.54 22.21L356.54 23.17C356.54 23.66 356.95 24.08 357.45 24.08C357.97 24.08 358.38 23.66 358.38 23.17L358.38 22.21L358.79 22.21C359.22 22.21 359.58 21.84 359.58 21.40ZM354.20 20.58L356.54 16.97L356.54 20.58ZM367.28 21.15C367.28 19.40 365.96 18.34 364.49 18.34C363.70 18.34 363 18.66 362.58 19.07L362.58 16.95L365.98 16.95C366.41 16.95 366.77 16.59 366.77 16.15C366.77 15.69 366.41 15.33 365.98 15.33L361.78 15.33C361.21 15.33 360.74 15.80 360.74 16.37L360.74 19.70C360.74 20.20 361.10 20.58 361.67 20.58C361.93 20.58 362.18 20.50 362.39 20.36C362.86 20.05 363.31 19.94 363.84 19.94C364.83 19.94 365.40 20.46 365.40 21.23C365.40 21.93 364.82 22.52 363.79 22.52C363.17 22.52 362.57 22.35 362.06 22.04C361.91 21.95 361.74 21.89 361.58 21.89C361.13 21.89 360.70 22.25 360.70 22.73C360.70 22.86 360.74 22.99 360.80 23.10C361.21 23.78 362.67 24.16 363.81 24.16C365.90 24.16 367.28 23.00 367.28 21.15ZM374.79 21.63C374.89 20.07 373.84 19.53 373.84 19.53C373.84 19.53 374.80 19.03 374.70 17.55C374.60 16.11 373.45 15.20 371.42 15.20C370.23 15.20 369.29 15.55 368.58 16.12C368.39 16.27 368.30 16.47 368.30 16.68C368.30 17.14 368.71 17.46 369.11 17.46C369.27 17.46 369.42 17.42 369.55 17.33C370.06 17.01 370.63 16.84 371.23 16.84C372.14 16.84 372.84 17.04 372.84 17.73C372.84 18.45 372.41 18.79 371.54 18.79C370.92 18.79 370.64 19.14 370.64 19.59C370.64 20.05 370.92 20.41 371.59 20.41C372.48 20.41 372.98 20.72 372.98 21.41C372.98 22.06 372.40 22.52 371.35 22.52C370.75 22.52 370.06 22.31 369.49 21.97C369.34 21.88 369.19 21.84 369.03 21.84C368.60 21.84 368.19 22.19 368.19 22.66C368.19 22.79 368.23 22.91 368.29 23.01C368.69 23.69 370.16 24.16 371.41 24.16C373.49 24.16 374.69 23.26 374.79 21.63ZM378.16 23.36C378.16 22.52 377.60 22.04 376.99 22.04C376.44 22.04 375.97 22.50 375.97 23.08C375.97 23.64 376.36 24.01 376.86 24.01C376.95 24.01 377.07 23.99 377.10 23.97C377.03 24.31 376.74 24.71 376.40 24.99C376.31 25.07 376.27 25.17 376.27 25.27C376.27 25.53 376.55 25.69 376.77 25.69C376.90 25.69 377.01 25.65 377.10 25.56C377.75 24.98 378.16 24.20 378.16 23.36ZM385.75 21.63C385.85 20.07 384.80 19.53 384.80 19.53C384.80 19.53 385.76 19.03 385.66 17.55C385.55 16.11 384.41 15.20 382.38 15.20C381.19 15.20 380.25 15.55 379.54 16.12C379.35 16.27 379.26 16.47 379.26 16.68C379.26 17.14 379.67 17.46 380.07 17.46C380.22 17.46 380.38 17.42 380.51 17.33C381.02 17.01 381.59 16.84 382.19 16.84C383.10 16.84 383.80 17.04 383.80 17.73C383.80 18.45 383.37 18.79 382.50 18.79C381.88 18.79 381.60 19.14 381.60 19.59C381.60 20.05 381.88 20.41 382.55 20.41C383.44 20.41 383.94 20.72 383.94 21.41C383.94 22.06 383.36 22.52 382.30 22.52C381.71 22.52 381.02 22.31 380.45 21.97C380.30 21.88 380.15 21.84 379.99 21.84C379.56 21.84 379.15 22.19 379.15 22.66C379.15 22.79 379.18 22.91 379.25 23.01C379.65 23.69 381.12 24.16 382.37 24.16C384.45 24.16 385.65 23.26 385.75 21.63ZM393.54 23.17C393.54 22.74 393.17 22.38 392.74 22.38L389.92 22.38C392.17 20.74 393.39 19.45 393.39 17.97C393.39 16.24 391.92 15.20 390.08 15.20C388.99 15.20 387.53 15.67 387.11 16.33C387.04 16.45 387.00 16.58 387.00 16.71C387.00 17.18 387.37 17.54 387.80 17.54C388.00 17.54 388.17 17.49 388.34 17.37C388.83 17.03 389.43 16.84 390.12 16.84C390.83 16.84 391.52 17.21 391.52 17.97C391.52 18.98 390.48 19.93 387.24 22.32C387.00 22.50 386.85 22.80 386.85 23.10C386.85 23.62 387.27 24 387.73 24L392.74 24C393.17 24 393.54 23.64 393.54 23.17ZM401.54 21.62C401.54 20.44 400.84 19.76 400.32 19.53C400.76 19.32 401.40 18.83 401.40 17.49C401.40 15.99 399.79 15.20 398.06 15.20C396.32 15.20 394.72 15.99 394.72 17.49C394.72 18.83 395.34 19.32 395.79 19.53C395.27 19.76 394.58 20.44 394.58 21.62C394.58 23.25 396.24 24.16 398.06 24.16C399.88 24.16 401.54 23.23 401.54 21.62ZM399.52 17.77C399.52 18.42 398.85 18.80 398.06 18.80C397.27 18.80 396.59 18.42 396.59 17.77C396.59 17.15 397.20 16.79 398.06 16.79C398.91 16.79 399.52 17.15 399.52 17.77ZM399.67 21.52C399.67 22.15 398.94 22.57 398.06 22.57C397.15 22.57 396.45 22.15 396.45 21.52C396.45 20.79 397.25 20.36 398.06 20.36C398.85 20.36 399.67 20.79 399.67 21.52Z" fill="#9aa7b4" /><path transform="translate(324.11, 12)" d="M6 1 L6 7.5 M3 5 L6 8 L9 5 M2 10.5 L10 10.5" fill="none" stroke="#9aa7b4" stroke-width="1.4" stroke-linecap="round" stroke-linejoin="round" /><path d="M24.17 37.83C24.17 36.33 23.03 35.87 23.03 35.87C23.03 35.87 24.05 35.38 24.05 34.02C24.05 32.67 22.87 31.88 21.25 31.88C20.17 31.88 19.33 32.25 18.70 32.84C18.60 32.92 18.54 33.06 18.54 33.20C18.54 33.48 18.80 33.70 19.06 33.70C19.16 33.70 19.27 33.66 19.36 33.59C19.87 33.16 20.46 32.93 21.14 32.93C22.08 32.93 22.86 33.36 22.86 34.19C22.86 35.20 22.08 35.39 20.92 35.38C20.62 35.38 20.40 35.61 20.40 35.90C20.40 36.42 20.90 36.46 21.34 36.44C22.26 36.44 22.99 36.82 22.99 37.72C22.99 38.56 22.32 39.09 21.22 39.09C20.48 39.09 19.80 38.81 19.28 38.37C19.19 38.28 19.07 38.25 18.96 38.25C18.67 38.25 18.43 38.51 18.43 38.79C18.43 38.90 18.47 39.00 18.55 39.09C19.07 39.70 20.10 40.14 21.25 40.14C23.05 40.14 24.17 39.17 24.17 37.83ZM28.19 32.60C28.19 32.22 27.86 31.94 27.50 31.94C27.31 31.94 27.14 32.00 27.02 32.13L25.28 33.89C25.19 34 25.14 34.12 25.14 34.25C25.14 34.54 25.39 34.76 25.64 34.76C25.78 34.76 25.88 34.71 25.98 34.61L27 33.56L27 39.48C27 39.81 27.26 40.07 27.59 40.07C27.92 40.07 28.19 39.81 28.19 39.48ZM38.58 37.10C38.58 35.20 37.51 34.06 36 34.06C35.21 34.06 34.51 34.46 34.09 35.03L34.09 34.65C34.09 34.37 33.85 34.13 33.58 34.13C33.26 34.13 33.02 34.37 33.02 34.65L33.02 41.76C33.02 42.04 33.26 42.28 33.55 42.28C33.85 42.28 34.09 42.04 34.09 41.76L34.09 39.16C34.56 39.80 35.23 40.14 36 40.14C37.51 40.14 38.58 38.98 38.58 37.10ZM37.45 37.10C37.45 38.31 36.91 39.20 35.82 39.20C34.81 39.20 34.09 38.32 34.09 37.13L34.09 37.06C34.09 35.87 34.81 35.01 35.82 35.01C36.91 35.01 37.45 35.88 37.45 37.10ZM44.58 36.08C44.58 34.60 43.50 34.06 42.25 34.06C41.47 34.06 40.60 34.31 40.04 34.86C39.97 34.95 39.94 35.04 39.94 35.14C39.94 35.39 40.16 35.56 40.38 35.56C40.46 35.56 40.56 35.52 40.64 35.46C41.08 35.13 41.56 34.96 42.10 34.96C42.91 34.96 43.51 35.39 43.51 36.12L43.51 36.45L41.84 36.45C40.64 36.45 39.59 36.92 39.59 38.22C39.59 39.50 40.64 40.14 41.60 40.14C42.50 40.14 43.04 39.87 43.51 39.35L43.51 39.54C43.51 39.89 43.79 40.07 44.00 40.07L44.04 40.07C44.34 40.07 44.58 39.83 44.58 39.54ZM43.51 37.19L43.51 38.01C43.51 38.69 42.73 39.39 41.89 39.39C41.11 39.39 40.67 38.92 40.67 38.25C40.67 37.55 41.22 37.19 42.13 37.19ZM50.92 39.12C50.92 38.85 50.66 38.66 50.41 38.66C50.29 38.66 50.17 38.69 50.08 38.76C49.75 39.05 49.38 39.20 48.95 39.20C47.80 39.20 47.05 38.31 47.05 37.10C47.05 35.88 47.80 35.01 48.95 35.01C49.37 35.01 49.75 35.14 50.08 35.43C50.17 35.51 50.29 35.56 50.41 35.56C50.68 35.56 50.90 35.34 50.90 35.08C50.90 34.98 50.88 34.90 50.82 34.83C50.42 34.37 49.78 34.06 48.89 34.06C47.15 34.06 45.95 35.37 45.95 37.10C45.95 38.84 47.15 40.14 48.89 40.14C49.75 40.14 50.34 39.86 50.77 39.44C50.87 39.35 50.92 39.23 50.92 39.12ZM56.99 39.54C56.99 39.44 56.95 39.32 56.88 39.23L54.97 36.83L56.77 34.95C56.86 34.85 56.90 34.74 56.90 34.62C56.90 34.36 56.66 34.12 56.40 34.12C56.28 34.12 56.15 34.18 56.05 34.28L53.32 37.16L53.32 32.44C53.32 32.16 53.08 31.92 52.80 31.92C52.49 31.92 52.25 32.16 52.25 32.44L52.25 39.54C52.25 39.83 52.49 40.07 52.78 40.07C53.08 40.07 53.32 39.83 53.32 39.54L53.32 38.39L54.20 37.49L56.04 39.87C56.14 40.01 56.30 40.08 56.46 40.08C56.78 40.08 56.99 39.80 56.99 39.54ZM63.14 36.08C63.14 34.60 62.06 34.06 60.82 34.06C60.04 34.06 59.16 34.31 58.61 34.86C58.54 34.95 58.50 35.04 58.50 35.14C58.50 35.39 58.73 35.56 58.94 35.56C59.03 35.56 59.12 35.52 59.21 35.46C59.64 35.13 60.12 34.96 60.66 34.96C61.48 34.96 62.08 35.39 62.08 36.12L62.08 36.45L60.41 36.45C59.21 36.45 58.15 36.92 58.15 38.22C58.15 39.50 59.21 40.14 60.17 40.14C61.07 40.14 61.61 39.87 62.08 39.35L62.08 39.54C62.08 39.89 62.35 40.07 62.57 40.07L62.60 40.07C62.90 40.07 63.14 39.83 63.14 39.54ZM62.08 37.19L62.08 38.01C62.08 38.69 61.30 39.39 60.46 39.39C59.68 39.39 59.23 38.92 59.23 38.25C59.23 37.55 59.78 37.19 60.70 37.19ZM70.06 34.65C70.06 34.37 69.82 34.13 69.54 34.13C69.23 34.13 68.99 34.37 68.99 34.65L68.99 35.04C68.52 34.42 67.85 34.06 67.08 34.06C65.58 34.06 64.51 35.19 64.51 37.06C64.51 38.94 65.59 40.05 67.08 40.05C67.87 40.05 68.56 39.63 68.99 39.04L68.99 39.81C68.99 41.04 68.10 41.48 67.20 41.48C66.56 41.48 66.06 41.34 65.62 40.97C65.53 40.91 65.45 40.89 65.34 40.89C65.10 40.89 64.88 41.09 64.88 41.34C64.88 41.46 64.93 41.57 65.00 41.64C65.57 42.18 66.38 42.35 67.20 42.35C68.62 42.35 70.06 41.76 70.06 39.77ZM68.99 37.07C68.99 38.26 68.21 39.10 67.25 39.10C66.17 39.10 65.62 38.25 65.62 37.06C65.62 35.85 66.17 35.01 67.25 35.01C68.21 35.01 68.99 35.84 68.99 37.02ZM77.14 36.90C77.14 36.68 77.08 36.42 77.03 36.23C76.69 34.94 75.73 34.06 74.33 34.06C72.65 34.06 71.44 35.42 71.44 37.10C71.44 38.92 72.70 40.14 74.42 40.14C75.28 40.14 76.76 39.70 76.76 39.05C76.76 38.64 76.36 38.55 76.09 38.68C75.67 38.99 75.02 39.28 74.53 39.28C73.36 39.28 72.64 38.48 72.55 37.48L76.58 37.48C76.88 37.48 77.14 37.19 77.14 36.90ZM72.55 36.69C72.60 35.88 73.16 34.92 74.32 34.92C75.55 34.92 76.08 35.91 76.10 36.69ZM82.75 38.25C82.64 36.21 79.32 36.77 79.20 35.73C79.15 35.26 79.66 34.91 80.39 34.91C80.94 34.91 81.46 35.09 81.83 35.36C81.90 35.42 81.98 35.44 82.08 35.44C82.30 35.44 82.50 35.26 82.50 35.02C82.50 34.92 82.46 34.83 82.39 34.76C81.94 34.31 81.20 34.06 80.38 34.06C78.96 34.06 78.11 34.73 78.17 35.76C78.28 37.71 81.59 37.11 81.71 38.39C81.76 38.92 81.28 39.29 80.45 39.29C79.85 39.29 79.25 39.05 78.82 38.74C78.73 38.68 78.65 38.66 78.54 38.66C78.29 38.66 78.07 38.85 78.07 39.10C78.07 39.22 78.12 39.32 78.20 39.39C78.73 39.92 79.61 40.14 80.40 40.14C81.94 40.14 82.81 39.35 82.75 38.25ZM87.73 32.06C87.36 32.06 87.05 32.37 87.05 32.75C87.05 33.12 87.36 33.44 87.73 33.44C88.12 33.44 88.42 33.12 88.42 32.75C88.42 32.37 88.12 32.06 87.73 32.06ZM88.27 34.65C88.27 34.37 88.03 34.13 87.76 34.13C87.44 34.13 87.20 34.37 87.20 34.65L87.20 39.54C87.20 39.83 87.44 40.07 87.73 40.07C88.03 40.07 88.27 39.83 88.27 39.54ZM94.98 36.28C94.98 35.06 94.09 34.06 92.87 34.06C91.86 34.06 91.34 34.55 91.07 35.02L91.07 34.65C91.07 34.37 90.83 34.13 90.55 34.13C90.24 34.13 90.00 34.37 90.00 34.65L90.00 39.54C90.00 39.83 90.24 40.07 90.53 40.07C90.83 40.07 91.07 39.83 91.07 39.54L91.07 36.76C91.07 35.78 91.60 35.01 92.52 35.01C93.38 35.01 93.91 35.68 93.91 36.64L93.91 39.54C93.91 39.83 94.15 40.07 94.44 40.07C94.74 40.07 94.98 39.83 94.98 39.54ZM102.49 39.58C102.49 39.33 102.30 39.14 102.04 39.14C101.92 39.14 101.77 39.20 101.64 39.20C101.29 39.20 101.08 38.92 101.08 38.48L101.08 35.14L101.87 35.14C102.12 35.14 102.32 34.94 102.32 34.68C102.32 34.41 102.12 34.20 101.87 34.20L101.08 34.20L101.08 33.06C101.08 32.79 100.84 32.55 100.55 32.55C100.24 32.55 100.00 32.79 100.00 33.06L100.00 34.20L99.43 34.20C99.17 34.20 98.96 34.41 98.96 34.66C98.96 34.94 99.17 35.14 99.43 35.14L100.00 35.14L100.00 38.73C100.00 39.64 100.48 40.14 101.39 40.14C102.02 40.14 102.49 39.96 102.49 39.58ZM108.46 36.26C108.46 35.03 107.58 34.06 106.36 34.06C105.34 34.06 104.81 34.55 104.53 35.02L104.53 32.44C104.53 32.16 104.29 31.92 104.02 31.92C103.70 31.92 103.46 32.16 103.46 32.44L103.46 39.54C103.46 39.83 103.70 40.07 103.99 40.07C104.29 40.07 104.53 39.83 104.53 39.54L104.53 36.82C104.53 35.74 105.11 35.01 106.02 35.01C106.88 35.01 107.39 35.66 107.39 36.62L107.39 39.54C107.39 39.83 107.63 40.07 107.92 40.07C108.22 40.07 108.46 39.83 108.46 39.54ZM110.71 32.06C110.34 32.06 110.03 32.37 110.03 32.75C110.03 33.12 110.34 33.44 110.71 33.44C111.10 33.44 111.40 33.12 111.40 32.75C111.40 32.37 111.10 32.06 110.71 32.06ZM111.25 34.65C111.25 34.37 111.01 34.13 110.74 34.13C110.42 34.13 110.18 34.37 110.18 34.65L110.18 39.54C110.18 39.83 110.42 40.07 110.71 40.07C111.01 40.07 111.25 39.83 111.25 39.54ZM117.23 38.25C117.12 36.21 113.80 36.77 113.68 35.73C113.63 35.26 114.13 34.91 114.86 34.91C115.42 34.91 115.93 35.09 116.30 35.36C116.38 35.42 116.46 35.44 116.56 35.44C116.77 35.44 116.98 35.26 116.98 35.02C116.98 34.92 116.94 34.83 116.87 34.76C116.41 34.31 115.68 34.06 114.85 34.06C113.44 34.06 112.58 34.73 112.64 35.76C112.75 37.71 116.06 37.11 116.18 38.39C116.23 38.92 115.75 39.29 114.92 39.29C114.32 39.29 113.72 39.05 113.29 38.74C113.21 38.68 113.12 38.66 113.02 38.66C112.76 38.66 112.55 38.85 112.55 39.10C112.55 39.22 112.60 39.32 112.68 39.39C113.21 39.92 114.08 40.14 114.88 40.14C116.41 40.14 117.29 39.35 117.23 38.25ZM125.93 38.25C125.82 36.21 122.50 36.77 122.38 35.73C122.33 35.26 122.83 34.91 123.56 34.91C124.12 34.91 124.63 35.09 125.00 35.36C125.08 35.42 125.16 35.44 125.26 35.44C125.47 35.44 125.68 35.26 125.68 35.02C125.68 34.92 125.64 34.83 125.57 34.76C125.11 34.31 124.38 34.06 123.55 34.06C122.14 34.06 121.28 34.73 121.34 35.76C121.45 37.71 124.76 37.11 124.88 38.39C124.93 38.92 124.45 39.29 123.62 39.29C123.02 39.29 122.42 39.05 121.99 38.74C121.91 38.68 121.82 38.66 121.72 38.66C121.46 38.66 121.25 38.85 121.25 39.10C121.25 39.22 121.30 39.32 121.38 39.39C121.91 39.92 122.78 40.14 123.58 40.14C125.11 40.14 125.99 39.35 125.93 38.25ZM131.92 39.12C131.92 38.85 131.66 38.66 131.41 38.66C131.29 38.66 131.17 38.69 131.08 38.76C130.75 39.05 130.38 39.20 129.95 39.20C128.80 39.20 128.05 38.31 128.05 37.10C128.05 35.88 128.80 35.01 129.95 35.01C130.37 35.01 130.75 35.14 131.08 35.43C131.17 35.51 131.29 35.56 131.41 35.56C131.68 35.56 131.90 35.34 131.90 35.08C131.90 34.98 131.88 34.90 131.82 34.83C131.42 34.37 130.78 34.06 129.89 34.06C128.15 34.06 126.95 35.37 126.95 37.10C126.95 38.84 128.15 40.14 129.89 40.14C130.75 40.14 131.34 39.86 131.77 39.44C131.87 39.35 131.92 39.23 131.92 39.12ZM138.74 37.10C138.74 35.43 137.63 34.06 135.82 34.06C134.02 34.06 132.90 35.43 132.90 37.10C132.90 38.76 134.02 40.14 135.82 40.14C137.63 40.14 138.74 38.76 138.74 37.10ZM137.63 37.10C137.63 38.21 136.98 39.20 135.82 39.20C134.66 39.20 134.00 38.21 134.00 37.10C134.00 35.99 134.66 35.01 135.82 35.01C136.98 35.01 137.63 35.99 137.63 37.10ZM145.68 37.10C145.68 35.20 144.61 34.06 143.10 34.06C142.31 34.06 141.61 34.46 141.19 35.03L141.19 34.65C141.19 34.37 140.95 34.13 140.68 34.13C140.36 34.13 140.12 34.37 140.12 34.65L140.12 41.76C140.12 42.04 140.36 42.28 140.65 42.28C140.95 42.28 141.19 42.04 141.19 41.76L141.19 39.16C141.66 39.80 142.33 40.14 143.10 40.14C144.61 40.14 145.68 38.98 145.68 37.10ZM144.55 37.10C144.55 38.31 144.01 39.20 142.92 39.20C141.91 39.20 141.19 38.32 141.19 37.13L141.19 37.06C141.19 35.87 141.91 35.01 142.92 35.01C144.01 35.01 144.55 35.88 144.55 37.10ZM152.38 36.90C152.38 36.68 152.32 36.42 152.27 36.23C151.93 34.94 150.97 34.06 149.57 34.06C147.89 34.06 146.68 35.42 146.68 37.10C146.68 38.92 147.94 40.14 149.66 40.14C150.52 40.14 152.00 39.70 152.00 39.05C152.00 38.64 151.60 38.55 151.33 38.68C150.91 38.99 150.26 39.28 149.77 39.28C148.60 39.28 147.88 38.48 147.79 37.48L151.82 37.48C152.12 37.48 152.38 37.19 152.38 36.90ZM147.79 36.69C147.84 35.88 148.40 34.92 149.56 34.92C150.79 34.92 151.32 35.91 151.34 36.69Z" fill="#9aa7b4" /><rect x="18" y="50" width="384" height="6" rx="3" fill="#21262d" /><rect x="18" y="50" width="1.67" height="6" rx="3" fill="#00a5fe" /></svg>