<svg xmlns="http://www.w3.org/2000/svg" width="420" height="64" viewBox="0 0 420 64" role="img"><rect x="0.5" y="0.5" width="419" height="63" rx="10" fill="#ffffff" stroke="#f2f4f6" /><path d="M28.46 19.35C28.46 17.03 26.72 15.07 24.05 15.07C21.14 15.07 18.49 17.60 18.49 20.58C18.49 23.06 20.38 24.98 22.93 24.98C23.88 24.98 24.82 24.70 25.63 24.22C25.70 24.18 25.74 24.11 25.74 24.03C25.74 23.89 25.59 23.78 25.46 23.78C25.42 23.78 25.38 23.78 25.34 23.80C24.64 24.21 23.85 24.45 22.98 24.45C20.72 24.45 19.04 22.75 19.04 20.56C19.04 17.94 21.35 15.61 23.99 15.61C26.34 15.61 27.86 17.14 27.86 19.35C27.86 20.95 27.09 21.61 26.54 21.61C26.25 21.61 26.02 21.41 26.02 20.98C26.02 20.89 26.05 20.72 26.06 20.64L26.61 18.05C26.62 18.01 26.62 17.95 26.62 17.90C26.62 17.50 26.30 17.15 25.85 17.15C25.48 17.15 25.15 17.42 25.08 17.77L25.04 17.97C24.75 17.43 24.13 17.03 23.29 17.03C21.67 17.03 20.13 18.58 20.13 20.46C20.13 21.82 20.94 22.81 22.30 22.81C23.05 22.81 23.82 22.38 24.33 21.73C24.41 22.31 24.85 22.81 25.69 22.81C26.90 22.81 28.46 21.70 28.46 19.35ZM24.65 19.84C24.44 20.82 23.66 21.55 22.91 21.55C22.20 21.55 21.75 21.05 21.75 20.32C21.75 19.30 22.56 18.29 23.68 18.29C24.30 18.29 24.89 18.71 24.68 19.69ZM35.42 22.92C35.42 22.46 35.00 22.15 34.56 22.15C34.39 22.15 34.24 22.19 34.09 22.29C33.78 22.49 33.44 22.59 33.08 22.59C32 22.59 31.24 21.79 31.24 20.61C31.24 19.44 32 18.65 33.08 18.65C33.43 18.65 33.78 18.75 34.07 18.93C34.23 19.03 34.39 19.07 34.56 19.07C34.95 19.07 35.40 18.79 35.40 18.32C35.40 18.20 35.37 18.09 35.32 17.99C35.02 17.45 34.04 17.07 32.99 17.07C30.91 17.07 29.41 18.54 29.41 20.61C29.41 22.70 30.91 24.17 32.99 24.17C33.95 24.17 34.65 23.89 35.14 23.50C35.32 23.36 35.42 23.13 35.42 22.92ZM43.26 20.40C43.26 20.07 43.16 19.66 43.06 19.35C42.58 17.95 41.42 17.07 39.90 17.07C37.84 17.07 36.40 18.65 36.40 20.61C36.40 22.78 37.95 24.17 40.01 24.17C41.04 24.17 42.54 23.78 42.63 22.98C42.67 22.56 42.25 22.26 41.87 22.26C41.76 22.26 41.63 22.29 41.52 22.35C41.10 22.57 40.58 22.75 40.20 22.75C39.06 22.75 38.37 22.07 38.26 21.21L42.43 21.21C42.89 21.21 43.26 20.84 43.26 20.40ZM38.23 20.01C38.31 19.34 38.79 18.48 39.90 18.48C41.07 18.48 41.52 19.37 41.56 20.01ZM50.91 19.65C50.91 18.33 49.78 17.07 48.30 17.07C47.26 17.07 46.62 17.62 46.35 18.04L46.35 18.02C46.35 17.55 45.96 17.15 45.48 17.15C44.96 17.15 44.57 17.55 44.57 18.02L44.57 23.20C44.57 23.69 44.96 24.08 45.45 24.08C45.96 24.08 46.35 23.69 46.35 23.20L46.35 20.22C46.35 19.25 47.05 18.65 47.75 18.65C48.51 18.65 49.14 19.25 49.14 20.19L49.14 23.20C49.14 23.69 49.53 24.08 50.02 24.08C50.52 24.08 50.91 23.69 50.91 23.20ZM56.37 23.36C56.37 22.92 56.09 22.59 55.59 22.59L55.44 22.59C55.16 22.59 54.82 22.38 54.82 21.84L54.82 18.79L55.52 18.79C55.93 18.79 56.28 18.44 56.28 18.02C56.28 17.59 55.93 17.24 55.52 17.24L54.82 17.24L54.82 16.19C54.82 15.70 54.43 15.31 53.94 15.31C53.42 15.31 53.03 15.70 53.03 16.19L53.03 17.24L52.59 17.24C52.17 17.24 51.82 17.59 51.82 17.99C51.82 18.44 52.17 18.79 52.59 18.79L53.03 18.79L53.03 22.32C53.03 23.52 53.70 24.17 54.95 24.17C56.11 24.17 56.37 23.80 56.37 23.36ZM61.43 17.91C61.43 17.50 61.16 17.18 60.64 17.18C59.97 17.18 59.52 17.71 59.19 18.16L59.19 18.02C59.19 17.55 58.80 17.15 58.32 17.15C57.80 17.15 57.41 17.55 57.41 18.02L57.41 23.20C57.41 23.69 57.80 24.08 58.29 24.08L58.32 24.08C58.80 24.08 59.19 23.69 59.19 23.20L59.19 20.37C59.19 19.25 60.03 18.89 60.57 18.82C61.06 18.75 61.43 18.44 61.43 17.91ZM68.29 19.63C68.29 17.69 66.87 17.07 65.33 17.07C64.55 17.07 63.04 17.35 62.62 18.02C62.56 18.12 62.52 18.25 62.52 18.37C62.52 18.79 62.87 19.06 63.19 19.06C63.30 19.06 63.42 19.02 63.51 18.96C63.98 18.65 64.49 18.53 65.03 18.53C65.92 18.53 66.51 18.97 66.51 19.66L66.51 19.88L64.37 19.88C63.29 19.88 62.02 20.35 62.02 21.93C62.02 23.44 63.29 24.17 64.37 24.17C65.39 24.17 66.05 23.92 66.51 23.37C66.51 23.68 66.80 24.08 67.28 24.08L67.42 24.08C67.90 24.08 68.29 23.69 68.29 23.20ZM66.51 21.09L66.51 21.40C66.51 22.49 65.66 22.96 65.08 22.96C64.38 22.96 63.81 22.60 63.81 21.97C63.81 21.31 64.38 21.09 65.08 21.09ZM71.83 15.45C71.83 14.97 71.44 14.58 70.96 14.58C70.44 14.58 70.05 14.97 70.05 15.45L70.05 23.20C70.05 23.69 70.44 24.08 70.93 24.08C71.44 24.08 71.83 23.69 71.83 23.20ZM76.58 20.60C76.58 20.19 76.24 19.86 75.83 19.86L73.79 19.86C73.38 19.86 73.05 20.19 73.05 20.60C73.05 21.03 73.38 21.37 73.79 21.37L75.83 21.37C76.24 21.37 76.58 21.03 76.58 20.60ZM78.68 14.40C78.10 14.40 77.61 14.86 77.61 15.45C77.61 16.03 78.10 16.51 78.68 16.51C79.26 16.51 79.74 16.03 79.74 15.45C79.74 14.86 79.26 14.40 78.68 14.40ZM79.57 18.02C79.57 17.55 79.18 17.15 78.70 17.15C78.19 17.15 77.79 17.55 77.79 18.02L77.79 23.20C77.79 23.69 78.19 24.08 78.68 24.08C79.18 24.08 79.57 23.69 79.57 23.20ZM86.91 22.92C86.91 22.46 86.49 22.15 86.05 22.15C85.89 22.15 85.73 22.19 85.58 22.29C85.27 22.49 84.93 22.59 84.57 22.59C83.49 22.59 82.74 21.79 82.74 20.61C82.74 19.44 83.49 18.65 84.57 18.65C84.92 18.65 85.27 18.75 85.56 18.93C85.72 19.03 85.89 19.07 86.05 19.07C86.45 19.07 86.89 18.79 86.89 18.32C86.89 18.20 86.87 18.09 86.81 17.99C86.52 17.45 85.54 17.07 84.49 17.07C82.40 17.07 80.90 18.54 80.90 20.61C80.90 22.70 82.40 24.17 84.49 24.17C85.44 24.17 86.14 23.89 86.63 23.50C86.81 23.36 86.91 23.13 86.91 22.92ZM95.04 20.61C95.04 18.69 93.70 17.07 91.46 17.07C89.23 17.07 87.89 18.69 87.89 20.61C87.89 22.54 89.23 24.17 91.46 24.17C93.70 24.17 95.04 22.54 95.04 20.61ZM93.19 20.61C93.19 21.68 92.56 22.59 91.46 22.59C90.35 22.59 89.74 21.68 89.74 20.61C89.74 19.56 90.35 18.65 91.46 18.65C92.56 18.65 93.19 19.56 93.19 20.61ZM102.70 19.65C102.70 18.33 101.57 17.07 100.08 17.07C99.05 17.07 98.40 17.62 98.14 18.04L98.14 18.02C98.14 17.55 97.74 17.15 97.27 17.15C96.75 17.15 96.36 17.55 96.36 18.02L96.36 23.20C96.36 23.69 96.75 24.08 97.24 24.08C97.74 24.08 98.14 23.69 98.14 23.20L98.14 20.22C98.14 19.25 98.84 18.65 99.54 18.65C100.29 18.65 100.92 19.25 100.92 20.19L100.92 23.20C100.92 23.69 101.31 24.08 101.80 24.08C102.31 24.08 102.70 23.69 102.70 23.20ZM109.83 22.00C109.83 19.27 105.82 20.11 105.82 19.10C105.82 18.72 106.24 18.43 106.89 18.43C107.43 18.43 107.98 18.58 108.41 18.83C108.51 18.89 108.64 18.92 108.75 18.92C109.11 18.92 109.45 18.62 109.45 18.25C109.45 18.12 109.41 17.99 109.34 17.90C108.96 17.35 107.75 17.07 106.87 17.07C105.09 17.07 104.10 18.06 104.10 19.20C104.10 21.86 108.12 20.95 108.12 22.07C108.12 22.49 107.75 22.80 106.98 22.80C106.40 22.80 105.70 22.56 105.16 22.25C105.05 22.18 104.93 22.15 104.80 22.15C104.42 22.15 104.06 22.47 104.06 22.89C104.06 23.03 104.10 23.16 104.18 23.27C104.60 23.87 106.02 24.17 106.90 24.17C108.78 24.17 109.83 23.23 109.83 22.00ZM114.12 20.60C114.12 20.19 113.79 19.86 113.38 19.86L111.34 19.86C110.93 19.86 110.60 20.19 110.60 20.60C110.60 21.03 110.93 21.37 111.34 21.37L113.38 21.37C113.79 21.37 114.12 21.03 114.12 20.60ZM119.36 17.91C119.36 17.50 119.09 17.18 118.58 17.18C117.90 17.18 117.46 17.71 117.12 18.16L117.12 18.02C117.12 17.55 116.73 17.15 116.25 17.15C115.73 17.15 115.34 17.55 115.34 18.02L115.34 23.20C115.34 23.69 115.73 24.08 116.22 24.08L116.25 24.08C116.73 24.08 117.12 23.69 117.12 23.20L117.12 20.37C117.12 19.25 117.96 18.89 118.51 18.82C119.00 18.75 119.36 18.44 119.36 17.91ZM126.81 20.40C126.81 20.07 126.71 19.66 126.61 19.35C126.14 17.95 124.97 17.07 123.45 17.07C121.39 17.07 119.95 18.65 119.95 20.61C119.95 22.78 121.50 24.17 123.56 24.17C124.60 24.17 126.09 23.78 126.18 22.98C126.22 22.56 125.80 22.26 125.42 22.26C125.31 22.26 125.18 22.29 125.07 22.35C124.65 22.57 124.13 22.75 123.76 22.75C122.61 22.75 121.92 22.07 121.81 21.21L125.98 21.21C126.44 21.21 126.81 20.84 126.81 20.40ZM121.78 20.01C121.87 19.34 122.34 18.48 123.45 18.48C124.62 18.48 125.07 19.37 125.11 20.01ZM133.96 19.63C133.96 17.69 132.55 17.07 131.01 17.07C130.22 17.07 128.71 17.35 128.29 18.02C128.24 18.12 128.19 18.25 128.19 18.37C128.19 18.79 128.54 19.06 128.87 19.06C128.98 19.06 129.09 19.02 129.19 18.96C129.65 18.65 130.17 18.53 130.70 18.53C131.60 18.53 132.18 18.97 132.18 19.66L132.18 19.88L130.04 19.88C128.96 19.88 127.69 20.35 127.69 21.93C127.69 23.44 128.96 24.17 130.04 24.17C131.06 24.17 131.72 23.92 132.18 23.37C132.18 23.68 132.48 24.08 132.95 24.08L133.09 24.08C133.57 24.08 133.96 23.69 133.96 23.20ZM132.18 21.09L132.18 21.40C132.18 22.49 131.33 22.96 130.76 22.96C130.06 22.96 129.48 22.60 129.48 21.97C129.48 21.31 130.06 21.09 130.76 21.09ZM141.30 22.92C141.30 22.46 140.88 22.15 140.44 22.15C140.28 22.15 140.12 22.19 139.97 22.29C139.66 22.49 139.32 22.59 138.96 22.59C137.88 22.59 137.13 21.79 137.13 20.61C137.13 19.44 137.88 18.65 138.96 18.65C139.31 18.65 139.66 18.75 139.95 18.93C140.11 19.03 140.28 19.07 140.44 19.07C140.84 19.07 141.28 18.79 141.28 18.32C141.28 18.20 141.26 18.09 141.20 17.99C140.91 17.45 139.93 17.07 138.88 17.07C136.79 17.07 135.29 18.54 135.29 20.61C135.29 22.70 136.79 24.17 138.88 24.17C139.83 24.17 140.53 23.89 141.02 23.50C141.20 23.36 141.30 23.13 141.30 22.92ZM146.41 23.36C146.41 22.92 146.13 22.59 145.62 22.59L145.47 22.59C145.19 22.59 144.85 22.38 144.85 21.84L144.85 18.79L145.55 18.79C145.96 18.79 146.31 18.44 146.31 18.02C146.31 17.59 145.96 17.24 145.55 17.24L144.85 17.24L144.85 16.19C144.85 15.70 144.46 15.31 143.97 15.31C143.45 15.31 143.06 15.70 143.06 16.19L143.06 17.24L142.63 17.24C142.21 17.24 141.86 17.59 141.86 17.99C141.86 18.44 142.21 18.79 142.63 18.79L143.06 18.79L143.06 22.32C143.06 23.52 143.73 24.17 144.98 24.17C146.14 24.17 146.41 23.80 146.41 23.36ZM150.96 14.90C150.96 14.58 150.71 14.30 150.36 14.30C150.08 14.30 149.84 14.47 149.75 14.72L146.80 23.58C146.77 23.65 146.76 23.71 146.76 23.78C146.76 24.10 147.02 24.36 147.37 24.36C147.64 24.36 147.89 24.21 147.98 23.94L150.93 15.08C150.94 15.03 150.96 14.96 150.96 14.90ZM156.07 17.91C156.07 17.50 155.80 17.18 155.28 17.18C154.61 17.18 154.16 17.71 153.83 18.16L153.83 18.02C153.83 17.55 153.44 17.15 152.96 17.15C152.44 17.15 152.05 17.55 152.05 18.02L152.05 23.20C152.05 23.69 152.44 24.08 152.93 24.08L152.96 24.08C153.44 24.08 153.83 23.69 153.83 23.20L153.83 20.37C153.83 19.25 154.67 18.89 155.21 18.82C155.70 18.75 156.07 18.44 156.07 17.91ZM163.81 20.61C163.81 18.69 162.47 17.07 160.23 17.07C158 17.07 156.66 18.69 156.66 20.61C156.66 22.54 158 24.17 160.23 24.17C162.47 24.17 163.81 22.54 163.81 20.61ZM161.96 20.61C161.96 21.68 161.33 22.59 160.23 22.59C159.12 22.59 158.50 21.68 158.50 20.61C158.50 19.56 159.12 18.65 160.23 18.65C161.33 18.65 161.96 19.56 161.96 20.61ZM165.13 21.59C165.13 22.91 166.26 24.17 167.74 24.17C168.81 24.17 169.45 23.62 169.69 23.20L169.69 23.22C169.69 23.69 170.08 24.08 170.56 24.08C171.08 24.08 171.47 23.69 171.47 23.22L171.47 18.04C171.47 17.55 171.08 17.15 170.59 17.15C170.08 17.15 169.69 17.55 169.69 18.04L169.69 21.02C169.69 21.98 168.99 22.59 168.29 22.59C167.53 22.59 166.90 21.98 166.90 21.05L166.90 18.04C166.90 17.55 166.51 17.15 166.02 17.15C165.52 17.15 165.13 17.55 165.13 18.04ZM179.57 19.65C179.57 18.33 178.44 17.07 176.96 17.07C175.92 17.07 175.28 17.62 175.01 18.04L175.01 18.02C175.01 17.55 174.62 17.15 174.14 17.15C173.62 17.15 173.23 17.55 173.23 18.02L173.23 23.20C173.23 23.69 173.62 24.08 174.11 24.08C174.62 24.08 175.01 23.69 175.01 23.20L175.01 20.22C175.01 19.25 175.71 18.65 176.41 18.65C177.17 18.65 177.80 19.25 177.80 20.19L177.80 23.20C177.80 23.69 178.19 24.08 178.68 24.08C179.18 24.08 179.57 23.69 179.57 23.20ZM180.92 20.63C180.92 22.88 182.35 24.17 184.05 24.17C184.87 24.17 185.61 23.80 186 23.13L186 23.20C186 23.69 186.39 24.08 186.90 24.08C187.39 24.08 187.78 23.69 187.78 23.20L187.78 15.45C187.78 14.97 187.39 14.58 186.87 14.58C186.39 14.58 186 14.97 186 15.45L186 18.11C185.61 17.42 184.85 17.07 184.05 17.07C182.33 17.07 180.92 18.41 180.92 20.63ZM182.75 20.63C182.75 19.45 183.44 18.65 184.47 18.65C185.19 18.65 186 19.41 186 20.56L186 20.71C186 21.84 185.19 22.59 184.47 22.59C183.44 22.59 182.75 21.80 182.75 20.63ZM192.52 20.60C192.52 20.19 192.19 19.86 191.78 19.86L189.74 19.86C189.33 19.86 189.00 20.19 189.00 20.60C189.00 21.03 189.33 21.37 189.74 21.37L191.78 21.37C192.19 21.37 192.52 21.03 192.52 20.60ZM200.46 20.61C200.46 18.69 199.12 17.07 196.88 17.07C194.65 17.07 193.31 18.69 193.31 20.61C193.31 22.54 194.65 24.17 196.88 24.17C199.12 24.17 200.46 22.54 200.46 20.61ZM198.61 20.61C198.61 21.68 197.98 22.59 196.88 22.59C195.77 22.59 195.16 21.68 195.16 20.61C195.16 19.56 195.77 18.65 196.88 18.65C197.98 18.65 198.61 19.56 198.61 20.61ZM201.78 21.59C201.78 22.91 202.91 24.17 204.40 24.17C205.46 24.17 206.10 23.62 206.34 23.20L206.34 23.22C206.34 23.69 206.73 24.08 207.21 24.08C207.73 24.08 208.12 23.69 208.12 23.22L208.12 18.04C208.12 17.55 207.73 17.15 207.24 17.15C206.73 17.15 206.34 17.55 206.34 18.04L206.34 21.02C206.34 21.98 205.64 22.59 204.94 22.59C204.19 22.59 203.56 21.98 203.56 21.05L203.56 18.04C203.56 17.55 203.16 17.15 202.67 17.15C202.17 17.15 201.78 17.55 201.78 18.04ZM213.58 23.36C213.58 22.92 213.30 22.59 212.80 22.59L212.64 22.59C212.36 22.59 212.03 22.38 212.03 21.84L212.03 18.79L212.73 18.79C213.13 18.79 213.48 18.44 213.48 18.02C213.48 17.59 213.13 17.24 212.73 17.24L212.03 17.24L212.03 16.19C212.03 15.70 211.63 15.31 211.14 15.31C210.63 15.31 210.23 15.70 210.23 16.19L210.23 17.24L209.80 17.24C209.38 17.24 209.03 17.59 209.03 17.99C209.03 18.44 209.38 18.79 209.80 18.79L210.23 18.79L210.23 22.32C210.23 23.52 210.91 24.17 212.15 24.17C213.31 24.17 213.58 23.80 213.58 23.36ZM216.39 15.45C216.39 14.97 216.00 14.58 215.53 14.58C215.01 14.58 214.62 14.97 214.62 15.45L214.62 23.20C214.62 23.69 215.01 24.08 215.50 24.08C216.00 24.08 216.39 23.69 216.39 23.20ZM219.04 14.40C218.47 14.40 217.98 14.86 217.98 15.45C217.98 16.03 218.47 16.51 219.04 16.51C219.63 16.51 220.10 16.03 220.10 15.45C220.10 14.86 219.63 14.40 219.04 14.40ZM219.94 18.02C219.94 17.55 219.54 17.15 219.07 17.15C218.55 17.15 218.16 17.55 218.16 18.02L218.16 23.20C218.16 23.69 218.55 24.08 219.04 24.08C219.54 24.08 219.94 23.69 219.94 23.20ZM228.04 19.65C228.04 18.33 226.91 17.07 225.42 17.07C224.39 17.07 223.74 17.62 223.48 18.04L223.48 18.02C223.48 17.55 223.09 17.15 222.61 17.15C222.09 17.15 221.70 17.55 221.70 18.02L221.70 23.20C221.70 23.69 222.09 24.08 222.58 24.08C223.09 24.08 223.48 23.69 223.48 23.20L223.48 20.22C223.48 19.25 224.18 18.65 224.88 18.65C225.63 18.65 226.26 19.25 226.26 20.19L226.26 23.20C226.26 23.69 226.66 24.08 227.15 24.08C227.65 24.08 228.04 23.69 228.04 23.20ZM236.23 20.40C236.23 20.07 236.13 19.66 236.04 19.35C235.56 17.95 234.40 17.07 232.87 17.07C230.81 17.07 229.37 18.65 229.37 20.61C229.37 22.78 230.93 24.17 232.98 24.17C234.02 24.17 235.52 23.78 235.60 22.98C235.64 22.56 235.22 22.26 234.85 22.26C234.73 22.26 234.61 22.29 234.50 22.35C234.08 22.57 233.56 22.75 233.18 22.75C232.03 22.75 231.35 22.07 231.23 21.21L235.41 21.21C235.87 21.21 236.23 20.84 236.23 20.40ZM231.21 20.01C231.29 19.34 231.77 18.48 232.87 18.48C234.05 18.48 234.50 19.37 234.54 20.01ZM237.13 20.63C237.13 22.88 238.56 24.17 240.26 24.17C241.08 24.17 241.82 23.80 242.21 23.13L242.21 23.20C242.21 23.69 242.60 24.08 243.11 24.08C243.60 24.08 243.99 23.69 243.99 23.20L243.99 15.45C243.99 14.97 243.60 14.58 243.08 14.58C242.60 14.58 242.21 14.97 242.21 15.45L242.21 18.11C241.82 17.42 241.06 17.07 240.26 17.07C238.54 17.07 237.13 18.41 237.13 20.63ZM238.96 20.63C238.96 19.45 239.65 18.65 240.68 18.65C241.40 18.65 242.21 19.41 242.21 20.56L242.21 20.71C242.21 21.84 241.40 22.59 240.68 22.59C239.65 22.59 238.96 21.80 238.96 20.63ZM247.78 23.02C247.78 22.40 247.26 21.89 246.65 21.89C246.03 21.89 245.53 22.40 245.53 23.02C245.53 23.62 246.03 24.14 246.65 24.14C247.26 24.14 247.78 23.62 247.78 23.02ZM251.37 23.02C251.37 22.40 250.85 21.89 250.23 21.89C249.62 21.89 249.11 22.40 249.11 23.02C249.11 23.62 249.62 24.14 250.23 24.14C250.85 24.14 251.37 23.62 251.37 23.02ZM254.95 23.02C254.95 22.40 254.43 21.89 253.82 21.89C253.20 21.89 252.70 22.40 252.70 23.02C252.70 23.62 253.20 24.14 253.82 24.14C254.43 24.14 254.95 23.62 254.95 23.02Z" fill="#22272e" /><path d="M364.26 21.40C364.26 20.95 363.90 20.58 363.47 20.58L363.06 20.58L363.06 16.29C363.06 15.48 362.29 15.12 361.49 15.25C360.93 15.25 360.37 15.55 360.07 16.02L357.18 20.59C357.06 20.78 357.01 20.98 357.01 21.19C357.01 21.78 357.44 22.21 357.96 22.21L361.22 22.21L361.22 23.17C361.22 23.66 361.63 24.08 362.13 24.08C362.65 24.08 363.06 23.66 363.06 23.17L363.06 22.21L363.47 22.21C363.90 22.21 364.26 21.84 364.26 21.40ZM358.88 20.58L361.22 16.97L361.22 20.58ZM368.99 16.32C368.99 15.73 368.50 15.26 367.91 15.26C367.62 15.26 367.33 15.38 367.13 15.58L365.13 17.60C364.98 17.76 364.90 17.95 364.90 18.15C364.90 18.58 365.26 18.92 365.67 18.92C365.85 18.92 366.03 18.85 366.17 18.71L367.15 17.71L367.15 23.17C367.15 23.66 367.56 24.08 368.06 24.08C368.58 24.08 368.99 23.66 368.99 23.17ZM374.34 16.32C374.34 15.73 373.84 15.26 373.26 15.26C372.96 15.26 372.67 15.38 372.48 15.58L370.48 17.60C370.32 17.76 370.24 17.95 370.24 18.15C370.24 18.58 370.61 18.92 371.01 18.92C371.19 18.92 371.37 18.85 371.52 18.71L372.49 17.71L372.49 23.17C372.49 23.66 372.91 24.08 373.40 24.08C373.92 24.08 374.34 23.66 374.34 23.17ZM377.99 23.36C377.99 22.52 377.43 22.04 376.82 22.04C376.27 22.04 375.81 22.50 375.81 23.08C375.81 23.64 376.20 24.01 376.69 24.01C376.78 24.01 376.90 23.99 376.94 23.97C376.86 24.31 376.57 24.71 376.23 24.99C376.14 25.07 376.10 25.17 376.10 25.27C376.10 25.53 376.38 25.69 376.60 25.69C376.73 25.69 376.85 25.65 376.94 25.56C377.59 24.98 377.99 24.20 377.99 23.36ZM385.95 21.62C385.95 20.44 385.24 19.76 384.72 19.53C385.17 19.32 385.80 18.83 385.80 17.49C385.80 15.99 384.19 15.20 382.46 15.20C380.72 15.20 379.12 15.99 379.12 17.49C379.12 18.83 379.74 19.32 380.19 19.53C379.67 19.76 378.98 20.44 378.98 21.62C378.98 23.25 380.64 24.16 382.46 24.16C384.28 24.16 385.95 23.23 385.95 21.62ZM383.92 17.77C383.92 18.42 383.25 18.80 382.46 18.80C381.67 18.80 380.99 18.42 380.99 17.77C380.99 17.15 381.60 16.79 382.46 16.79C383.31 16.79 383.92 17.15 383.92 17.77ZM384.07 21.52C384.07 22.15 383.35 22.57 382.46 22.57C381.55 22.57 380.85 22.15 380.85 21.52C380.85 20.79 381.66 20.36 382.46 20.36C383.25 20.36 384.07 20.79 384.07 21.52ZM393.62 23.17C393.62 22.74 393.25 22.38 392.82 22.38L390.00 22.38C392.25 20.74 393.47 19.45 393.47 17.97C393.47 16.24 392.00 15.20 390.16 15.20C389.07 15.20 387.61 15.67 387.19 16.33C387.12 16.45 387.08 16.58 387.08 16.71C387.08 17.18 387.45 17.54 387.88 17.54C388.08 17.54 388.25 17.49 388.42 17.37C388.91 17.03 389.51 16.84 390.20 16.84C390.91 16.84 391.60 17.21 391.60 17.97C391.60 18.98 390.56 19.93 387.32 22.32C387.08 22.50 386.93 22.80 386.93 23.10C386.93 23.62 387.35 24 387.80 24L392.82 24C393.25 24 393.62 23.64 393.62 23.17ZM401.42 23.17C401.42 22.74 401.05 22.38 400.62 22.38L397.80 22.38C400.05 20.74 401.27 19.45 401.27 17.97C401.27 16.24 399.80 15.20 397.96 15.20C396.87 15.20 395.41 15.67 394.99 16.33C394.92 16.45 394.88 16.58 394.88 16.71C394.88 17.18 395.25 17.54 395.68 17.54C395.88 17.54 396.05 17.49 396.22 17.37C396.71 17.03 397.31 16.84 398.00 16.84C398.71 16.84 399.40 17.21 399.40 17.97C399.40 18.98 398.36 19.93 395.12 22.32C394.88 22.50 394.73 22.80 394.73 23.10C394.73 23.62 395.15 24 395.60 24L400.62 24C401.05 24 401.42 23.64 401.42 23.17Z" fill="#627386" /><path transform="translate(339.75, 12)" d="M6 1 L6 7.5 M3 5 L6 8 L9 5 M2 10.5 L10 10.5" fill="none" stroke="#627386" stroke-width="1.4" stroke-linecap="round" stroke-linejoin="round" /><path d="M25.64 39.44C25.64 39.36 25.63 39.29 25.60 39.21L22.94 32.56C22.79 32.16 22.39 31.91 21.97 31.92C21.55 31.92 21.17 32.18 21.02 32.56L18.37 39.21C18.35 39.29 18.34 39.36 18.34 39.44C18.34 39.76 18.60 40.07 18.97 40.07C19.22 40.07 19.45 39.93 19.55 39.69L20.08 38.33L23.90 38.33L24.43 39.69C24.53 39.93 24.76 40.07 25.01 40.07C25.39 40.07 25.64 39.74 25.64 39.44ZM21.98 33.21L23.57 37.29L20.41 37.29ZM34.55 39.12C34.55 38.85 34.30 38.66 34.04 38.66C33.92 38.66 33.80 38.69 33.71 38.76C33.38 39.05 33.01 39.20 32.58 39.20C31.43 39.20 30.68 38.31 30.68 37.10C30.68 35.88 31.43 35.01 32.58 35.01C33 35.01 33.38 35.14 33.71 35.43C33.80 35.51 33.92 35.56 34.04 35.56C34.31 35.56 34.54 35.34 34.54 35.08C34.54 34.98 34.51 34.90 34.45 34.83C34.06 34.37 33.41 34.06 32.52 34.06C30.78 34.06 29.58 35.37 29.58 37.10C29.58 38.84 30.78 40.14 32.52 40.14C33.38 40.14 33.97 39.86 34.40 39.44C34.50 39.35 34.55 39.23 34.55 39.12ZM41.38 37.10C41.38 35.43 40.26 34.06 38.45 34.06C36.65 34.06 35.53 35.43 35.53 37.10C35.53 38.76 36.65 40.14 38.45 40.14C40.26 40.14 41.38 38.76 41.38 37.10ZM40.26 37.10C40.26 38.21 39.61 39.20 38.45 39.20C37.30 39.20 36.64 38.21 36.64 37.10C36.64 35.99 37.30 35.01 38.45 35.01C39.61 35.01 40.26 35.99 40.26 37.10ZM43.82 32.44C43.82 32.16 43.58 31.92 43.31 31.92C43.00 31.92 42.76 32.16 42.76 32.44L42.76 39.54C42.76 39.83 43.00 40.07 43.28 40.07C43.58 40.07 43.82 39.83 43.82 39.54ZM46.62 32.44C46.62 32.16 46.38 31.92 46.10 31.92C45.79 31.92 45.55 32.16 45.55 32.44L45.55 39.54C45.55 39.83 45.79 40.07 46.08 40.07C46.38 40.07 46.62 39.83 46.62 39.54ZM53.70 36.90C53.70 36.68 53.64 36.42 53.59 36.23C53.26 34.94 52.30 34.06 50.89 34.06C49.21 34.06 48.00 35.42 48.00 37.10C48.00 38.92 49.26 40.14 50.99 40.14C51.84 40.14 53.33 39.70 53.33 39.05C53.33 38.64 52.92 38.55 52.66 38.68C52.24 38.99 51.59 39.28 51.10 39.28C49.92 39.28 49.20 38.48 49.12 37.48L53.15 37.48C53.45 37.48 53.70 37.19 53.70 36.90ZM49.12 36.69C49.16 35.88 49.73 34.92 50.88 34.92C52.12 34.92 52.64 35.91 52.67 36.69ZM59.69 39.12C59.69 38.85 59.44 38.66 59.18 38.66C59.06 38.66 58.94 38.69 58.85 38.76C58.52 39.05 58.15 39.20 57.72 39.20C56.57 39.20 55.82 38.31 55.82 37.10C55.82 35.88 56.57 35.01 57.72 35.01C58.14 35.01 58.52 35.14 58.85 35.43C58.94 35.51 59.06 35.56 59.18 35.56C59.45 35.56 59.68 35.34 59.68 35.08C59.68 34.98 59.65 34.90 59.59 34.83C59.20 34.37 58.55 34.06 57.66 34.06C55.92 34.06 54.72 35.37 54.72 37.10C54.72 38.84 55.92 40.14 57.66 40.14C58.52 40.14 59.11 39.86 59.54 39.44C59.64 39.35 59.69 39.23 59.69 39.12ZM63.72 39.58C63.72 39.33 63.53 39.14 63.26 39.14C63.14 39.14 63.00 39.20 62.87 39.20C62.52 39.20 62.30 38.92 62.30 38.48L62.30 35.14L63.10 35.14C63.35 35.14 63.55 34.94 63.55 34.68C63.55 34.41 63.35 34.20 63.10 34.20L62.30 34.20L62.30 33.06C62.30 32.79 62.06 32.55 61.78 32.55C61.46 32.55 61.22 32.79 61.22 33.06L61.22 34.20L60.66 34.20C60.40 34.20 60.19 34.41 60.19 34.66C60.19 34.94 60.40 35.14 60.66 35.14L61.22 35.14L61.22 38.73C61.22 39.64 61.70 40.14 62.62 40.14C63.25 40.14 63.72 39.96 63.72 39.58ZM65.22 32.06C64.85 32.06 64.54 32.37 64.54 32.75C64.54 33.12 64.85 33.44 65.22 33.44C65.60 33.44 65.90 33.12 65.90 32.75C65.90 32.37 65.60 32.06 65.22 32.06ZM65.76 34.65C65.76 34.37 65.52 34.13 65.24 34.13C64.93 34.13 64.69 34.37 64.69 34.65L64.69 39.54C64.69 39.83 64.93 40.07 65.22 40.07C65.52 40.07 65.76 39.83 65.76 39.54ZM72.98 37.10C72.98 35.43 71.87 34.06 70.06 34.06C68.26 34.06 67.14 35.43 67.14 37.10C67.14 38.76 68.26 40.14 70.06 40.14C71.87 40.14 72.98 38.76 72.98 37.10ZM71.87 37.10C71.87 38.21 71.22 39.20 70.06 39.20C68.90 39.20 68.24 38.21 68.24 37.10C68.24 35.99 68.90 35.01 70.06 35.01C71.22 35.01 71.87 35.99 71.87 37.10ZM79.34 36.28C79.34 35.06 78.46 34.06 77.23 34.06C76.22 34.06 75.71 34.55 75.43 35.02L75.43 34.65C75.43 34.37 75.19 34.13 74.92 34.13C74.60 34.13 74.36 34.37 74.36 34.65L74.36 39.54C74.36 39.83 74.60 40.07 74.89 40.07C75.19 40.07 75.43 39.83 75.43 39.54L75.43 36.76C75.43 35.78 75.96 35.01 76.88 35.01C77.75 35.01 78.28 35.68 78.28 36.64L78.28 39.54C78.28 39.83 78.52 40.07 78.80 40.07C79.10 40.07 79.34 39.83 79.34 39.54ZM89.65 37.10C89.65 35.43 88.54 34.06 86.72 34.06C84.92 34.06 83.81 35.43 83.81 37.10C83.81 38.76 84.92 40.14 86.72 40.14C88.54 40.14 89.65 38.76 89.65 37.10ZM88.54 37.10C88.54 38.21 87.89 39.20 86.72 39.20C85.57 39.20 84.91 38.21 84.91 37.10C84.91 35.99 85.57 35.01 86.72 35.01C87.89 35.01 88.54 35.99 88.54 37.10ZM94.27 32.46C94.27 32.06 93.58 31.88 93.06 31.88C91.99 31.88 91.31 32.60 91.31 33.80L91.31 34.20L90.73 34.20C90.48 34.20 90.28 34.41 90.28 34.66C90.28 34.94 90.48 35.14 90.73 35.14L91.31 35.14L91.31 39.54C91.31 39.83 91.55 40.07 91.84 40.07C92.14 40.07 92.38 39.83 92.38 39.54L92.38 35.14L93.17 35.14C93.42 35.14 93.62 34.94 93.62 34.68C93.62 34.41 93.42 34.20 93.17 34.20L92.38 34.20L92.38 33.80C92.38 33.11 92.69 32.74 93.24 32.74C93.49 32.74 93.67 32.88 93.86 32.88C94.07 32.88 94.27 32.73 94.27 32.46ZM100.70 34.60C100.70 34.32 100.50 34.12 100.22 34.12C99.58 34.12 99.05 34.66 98.72 35.10L98.72 34.65C98.72 34.37 98.48 34.13 98.21 34.13C97.90 34.13 97.66 34.37 97.66 34.65L97.66 39.54C97.66 39.83 97.88 40.06 98.17 40.07L98.18 40.07C98.48 40.07 98.72 39.83 98.72 39.54L98.72 36.57C98.72 35.81 99.25 35.21 100.16 35.16C100.46 35.15 100.70 34.91 100.70 34.60ZM107.21 37.10C107.21 35.43 106.09 34.06 104.28 34.06C102.48 34.06 101.36 35.43 101.36 37.10C101.36 38.76 102.48 40.14 104.28 40.14C106.09 40.14 107.21 38.76 107.21 37.10ZM106.09 37.10C106.09 38.21 105.44 39.20 104.28 39.20C103.13 39.20 102.47 38.21 102.47 37.10C102.47 35.99 103.13 35.01 104.28 35.01C105.44 35.01 106.09 35.99 106.09 37.10ZM113.58 34.65C113.58 34.37 113.34 34.13 113.06 34.13C112.75 34.13 112.51 34.37 112.51 34.65L112.51 37.41C112.51 38.39 111.89 39.20 111.02 39.20C110.16 39.20 109.67 38.54 109.67 37.58L109.67 34.65C109.67 34.37 109.43 34.13 109.15 34.13C108.84 34.13 108.60 34.37 108.60 34.65L108.60 37.95C108.60 39.17 109.46 40.14 110.69 40.14C111.70 40.14 112.20 39.70 112.51 39.21L112.51 39.54C112.51 39.83 112.75 40.07 113.04 40.07C113.34 40.07 113.58 39.83 113.58 39.54ZM120.28 36.28C120.28 35.06 119.39 34.06 118.16 34.06C117.16 34.06 116.64 34.55 116.36 35.02L116.36 34.65C116.36 34.37 116.12 34.13 115.85 34.13C115.54 34.13 115.30 34.37 115.30 34.65L115.30 39.54C115.30 39.83 115.54 40.07 115.82 40.07C116.12 40.07 116.36 39.83 116.36 39.54L116.36 36.76C116.36 35.78 116.89 35.01 117.82 35.01C118.68 35.01 119.21 35.68 119.21 36.64L119.21 39.54C119.21 39.83 119.45 40.07 119.74 40.07C120.04 40.07 120.28 39.83 120.28 39.54ZM127.21 32.44C127.21 32.16 126.97 31.92 126.70 31.92C126.38 31.92 126.14 32.16 126.14 32.44L126.14 35.04C125.68 34.42 125.11 34.06 124.24 34.06C122.72 34.06 121.66 35.25 121.66 37.11C121.66 39.00 122.74 40.14 124.24 40.14C125.14 40.14 125.70 39.75 126.14 39.17L126.14 39.54C126.14 39.83 126.38 40.07 126.67 40.07C126.97 40.07 127.21 39.83 127.21 39.54ZM126.14 37.14C126.14 38.34 125.54 39.20 124.51 39.20C123.43 39.20 122.76 38.32 122.76 37.11C122.76 35.90 123.43 35.01 124.51 35.01C125.54 35.01 126.14 35.88 126.14 37.07ZM137.52 37.10C137.52 35.43 136.40 34.06 134.59 34.06C132.79 34.06 131.68 35.43 131.68 37.10C131.68 38.76 132.79 40.14 134.59 40.14C136.40 40.14 137.52 38.76 137.52 37.10ZM136.40 37.10C136.40 38.21 135.76 39.20 134.59 39.20C133.44 39.20 132.78 38.21 132.78 37.10C132.78 35.99 133.44 35.01 134.59 35.01C135.76 35.01 136.40 35.99 136.40 37.10ZM143.89 34.65C143.89 34.37 143.65 34.13 143.38 34.13C143.06 34.13 142.82 34.37 142.82 34.65L142.82 37.41C142.82 38.39 142.20 39.20 141.34 39.20C140.47 39.20 139.98 38.54 139.98 37.58L139.98 34.65C139.98 34.37 139.74 34.13 139.46 34.13C139.15 34.13 138.91 34.37 138.91 34.65L138.91 37.95C138.91 39.17 139.78 40.14 141.00 40.14C142.01 40.14 142.51 39.70 142.82 39.21L142.82 39.54C142.82 39.83 143.06 40.07 143.35 40.07C143.65 40.07 143.89 39.83 143.89 39.54ZM148.31 39.58C148.31 39.33 148.12 39.14 147.85 39.14C147.73 39.14 147.59 39.20 147.46 39.20C147.11 39.20 146.89 38.92 146.89 38.48L146.89 35.14L147.68 35.14C147.94 35.14 148.14 34.94 148.14 34.68C148.14 34.41 147.94 34.20 147.68 34.20L146.89 34.20L146.89 33.06C146.89 32.79 146.65 32.55 146.36 32.55C146.05 32.55 145.81 32.79 145.81 33.06L145.81 34.20L145.25 34.20C144.98 34.20 144.78 34.41 144.78 34.66C144.78 34.94 144.98 35.14 145.25 35.14L145.81 35.14L145.81 38.73C145.81 39.64 146.29 40.14 147.20 40.14C147.84 40.14 148.31 39.96 148.31 39.58ZM150.35 32.44C150.35 32.16 150.11 31.92 149.83 31.92C149.52 31.92 149.28 32.16 149.28 32.44L149.28 39.54C149.28 39.83 149.52 40.07 149.81 40.07C150.11 40.07 150.35 39.83 150.35 39.54ZM152.60 32.06C152.23 32.06 151.92 32.37 151.92 32.75C151.92 33.12 152.23 33.44 152.60 33.44C152.99 33.44 153.29 33.12 153.29 32.75C153.29 32.37 152.99 32.06 152.60 32.06ZM153.14 34.65C153.14 34.37 152.90 34.13 152.63 34.13C152.32 34.13 152.08 34.37 152.08 34.65L152.08 39.54C152.08 39.83 152.32 40.07 152.60 40.07C152.90 40.07 153.14 39.83 153.14 39.54ZM159.85 36.28C159.85 35.06 158.96 34.06 157.74 34.06C156.73 34.06 156.22 34.55 155.94 35.02L155.94 34.65C155.94 34.37 155.70 34.13 155.42 34.13C155.11 34.13 154.87 34.37 154.87 34.65L154.87 39.54C154.87 39.83 155.11 40.07 155.40 40.07C155.70 40.07 155.94 39.83 155.94 39.54L155.94 36.76C155.94 35.78 156.47 35.01 157.39 35.01C158.26 35.01 158.78 35.68 158.78 36.64L158.78 39.54C158.78 39.83 159.02 40.07 159.31 40.07C159.61 40.07 159.85 39.83 159.85 39.54ZM166.93 36.90C166.93 36.68 166.87 36.42 166.82 36.23C166.49 34.94 165.53 34.06 164.12 34.06C162.44 34.06 161.23 35.42 161.23 37.10C161.23 38.92 162.49 40.14 164.22 40.14C165.07 40.14 166.56 39.70 166.56 39.05C166.56 38.64 166.15 38.55 165.89 38.68C165.47 38.99 164.82 39.28 164.33 39.28C163.15 39.28 162.43 38.48 162.35 37.48L166.38 37.48C166.68 37.48 166.93 37.19 166.93 36.90ZM162.35 36.69C162.40 35.88 162.96 34.92 164.11 34.92C165.35 34.92 165.88 35.91 165.90 36.69ZM173.51 32.44C173.51 32.16 173.27 31.92 172.99 31.92C172.68 31.92 172.44 32.16 172.44 32.44L172.44 35.04C171.97 34.42 171.41 34.06 170.53 34.06C169.02 34.06 167.95 35.25 167.95 37.11C167.95 39.00 169.03 40.14 170.53 40.14C171.43 40.14 172.00 39.75 172.44 39.17L172.44 39.54C172.44 39.83 172.68 40.07 172.97 40.07C173.27 40.07 173.51 39.83 173.51 39.54ZM172.44 37.14C172.44 38.34 171.84 39.20 170.81 39.20C169.73 39.20 169.06 38.32 169.06 37.11C169.06 35.90 169.73 35.01 170.81 35.01C171.84 35.01 172.44 35.88 172.44 37.07ZM184.27 34.46C184.27 32.97 183.23 32.00 181.72 32.00L179.14 32.00C178.70 32.00 178.36 32.34 178.36 32.78L178.36 39.48C178.36 39.81 178.62 40.07 178.94 40.07C179.28 40.07 179.54 39.81 179.54 39.48L179.54 36.92L181.28 36.92L183.08 39.80C183.19 39.98 183.37 40.07 183.56 40.07C183.91 40.07 184.15 39.78 184.15 39.50C184.15 39.40 184.13 39.30 184.07 39.20L182.54 36.83C183.43 36.60 184.27 35.88 184.27 34.46ZM179.54 35.87L179.54 33.05L181.56 33.05C182.44 33.05 183.05 33.62 183.05 34.46C183.05 35.30 182.44 35.87 181.56 35.87ZM190.72 36.90C190.72 36.68 190.66 36.42 190.61 36.23C190.27 34.94 189.31 34.06 187.91 34.06C186.23 34.06 185.02 35.42 185.02 37.10C185.02 38.92 186.28 40.14 188.00 40.14C188.86 40.14 190.34 39.70 190.34 39.05C190.34 38.64 189.94 38.55 189.67 38.68C189.25 38.99 188.60 39.28 188.11 39.28C186.94 39.28 186.22 38.48 186.13 37.48L190.16 37.48C190.46 37.48 190.72 37.19 190.72 36.90ZM186.13 36.69C186.18 35.88 186.74 34.92 187.90 34.92C189.13 34.92 189.66 35.91 189.68 36.69ZM196.74 36.08C196.74 34.60 195.66 34.06 194.41 34.06C193.63 34.06 192.76 34.31 192.20 34.86C192.13 34.95 192.10 35.04 192.10 35.14C192.10 35.39 192.32 35.56 192.54 35.56C192.62 35.56 192.72 35.52 192.80 35.46C193.24 35.13 193.72 34.96 194.26 34.96C195.07 34.96 195.67 35.39 195.67 36.12L195.67 36.45L194.00 36.45C192.80 36.45 191.75 36.92 191.75 38.22C191.75 39.50 192.80 40.14 193.76 40.14C194.66 40.14 195.20 39.87 195.67 39.35L195.67 39.54C195.67 39.89 195.95 40.07 196.16 40.07L196.20 40.07C196.50 40.07 196.74 39.83 196.74 39.54ZM195.67 37.19L195.67 38.01C195.67 38.69 194.89 39.39 194.05 39.39C193.27 39.39 192.83 38.92 192.83 38.25C192.83 37.55 193.38 37.19 194.29 37.19ZM203.08 39.12C203.08 38.85 202.82 38.66 202.57 38.66C202.45 38.66 202.33 38.69 202.24 38.76C201.91 39.05 201.54 39.20 201.11 39.20C199.96 39.20 199.21 38.31 199.21 37.10C199.21 35.88 199.96 35.01 201.11 35.01C201.53 35.01 201.91 35.14 202.24 35.43C202.33 35.51 202.45 35.56 202.57 35.56C202.84 35.56 203.06 35.34 203.06 35.08C203.06 34.98 203.04 34.90 202.98 34.83C202.58 34.37 201.94 34.06 201.05 34.06C199.31 34.06 198.11 35.37 198.11 37.10C198.11 38.84 199.31 40.14 201.05 40.14C201.91 40.14 202.50 39.86 202.93 39.44C203.03 39.35 203.08 39.23 203.08 39.12ZM207.11 39.58C207.11 39.33 206.92 39.14 206.65 39.14C206.53 39.14 206.39 39.20 206.26 39.20C205.91 39.20 205.69 38.92 205.69 38.48L205.69 35.14L206.48 35.14C206.74 35.14 206.94 34.94 206.94 34.68C206.94 34.41 206.74 34.20 206.48 34.20L205.69 34.20L205.69 33.06C205.69 32.79 205.45 32.55 205.16 32.55C204.85 32.55 204.61 32.79 204.61 33.06L204.61 34.20L204.05 34.20C203.78 34.20 203.58 34.41 203.58 34.66C203.58 34.94 203.78 35.14 204.05 35.14L204.61 35.14L204.61 38.73C204.61 39.64 205.09 40.14 206.00 40.14C206.64 40.14 207.11 39.96 207.11 39.58ZM211.69 32.06C211.32 32.06 211.01 32.37 211.01 32.75C211.01 33.12 211.32 33.44 211.69 33.44C212.08 33.44 212.38 33.12 212.38 32.75C212.38 32.37 212.08 32.06 211.69 32.06ZM212.23 34.65C212.23 34.37 211.99 34.13 211.72 34.13C211.40 34.13 211.16 34.37 211.16 34.65L211.16 39.54C211.16 39.83 211.40 40.07 211.69 40.07C211.99 40.07 212.23 39.83 212.23 39.54ZM218.58 39.12C218.58 38.85 218.33 38.66 218.08 38.66C217.96 38.66 217.84 38.69 217.74 38.76C217.42 39.05 217.04 39.20 216.61 39.20C215.46 39.20 214.72 38.31 214.72 37.10C214.72 35.88 215.46 35.01 216.61 35.01C217.03 35.01 217.42 35.14 217.74 35.43C217.84 35.51 217.96 35.56 218.08 35.56C218.34 35.56 218.57 35.34 218.57 35.08C218.57 34.98 218.54 34.90 218.48 34.83C218.09 34.37 217.44 34.06 216.55 34.06C214.81 34.06 213.61 35.37 213.61 37.10C213.61 38.84 214.81 40.14 216.55 40.14C217.42 40.14 218.00 39.86 218.44 39.44C218.53 39.35 218.58 39.23 218.58 39.12ZM225.41 37.10C225.41 35.43 224.29 34.06 222.48 34.06C220.68 34.06 219.56 35.43 219.56 37.10C219.56 38.76 220.68 40.14 222.48 40.14C224.29 40.14 225.41 38.76 225.41 37.10ZM224.29 37.10C224.29 38.21 223.64 39.20 222.48 39.20C221.33 39.20 220.67 38.21 220.67 37.10C220.67 35.99 221.33 35.01 222.48 35.01C223.64 35.01 224.29 35.99 224.29 37.10ZM231.77 36.28C231.77 35.06 230.88 34.06 229.66 34.06C228.65 34.06 228.13 34.55 227.86 35.02L227.86 34.65C227.86 34.37 227.62 34.13 227.34 34.13C227.03 34.13 226.79 34.37 226.79 34.65L226.79 39.54C226.79 39.83 227.03 40.07 227.32 40.07C227.62 40.07 227.86 39.83 227.86 39.54L227.86 36.76C227.86 35.78 228.38 35.01 229.31 35.01C230.17 35.01 230.70 35.68 230.70 36.64L230.70 39.54C230.70 39.83 230.94 40.07 231.23 40.07C231.53 40.07 231.77 39.83 231.77 39.54ZM237.74 38.25C237.64 36.21 234.31 36.77 234.19 35.73C234.14 35.26 234.65 34.91 235.38 34.91C235.93 34.91 236.45 35.09 236.82 35.36C236.89 35.42 236.98 35.44 237.07 35.44C237.29 35.44 237.49 35.26 237.49 35.02C237.49 34.92 237.46 34.83 237.38 34.76C236.93 34.31 236.20 34.06 235.37 34.06C233.95 34.06 233.10 34.73 233.16 35.76C233.27 37.71 236.58 37.11 236.70 38.39C236.75 38.92 236.27 39.29 235.44 39.29C234.84 39.29 234.24 39.05 233.81 38.74C233.72 38.68 233.64 38.66 233.53 38.66C233.28 38.66 233.06 38.85 233.06 39.10C233.06 39.22 233.11 39.32 233.20 39.39C233.72 39.92 234.60 40.14 235.39 40.14C236.93 40.14 237.80 39.35 237.74 38.25ZM249.98 34.65C249.98 34.37 249.77 34.13 249.46 34.13C249.23 34.13 249.01 34.28 248.95 34.49L247.72 38.63L246.36 34.54C246.28 34.30 246.06 34.13 245.81 34.13C245.52 34.13 245.30 34.30 245.22 34.54L243.88 38.63L242.64 34.49C242.57 34.28 242.34 34.13 242.11 34.13C241.81 34.13 241.60 34.40 241.60 34.65C241.60 34.70 241.61 34.74 241.62 34.79L243.13 39.58C243.23 39.87 243.49 40.07 243.79 40.07L243.82 40.07C244.13 40.07 244.40 39.87 244.49 39.58L245.80 35.54L247.09 39.58C247.19 39.87 247.45 40.07 247.76 40.07L247.78 40.07C248.09 40.07 248.36 39.87 248.45 39.58L249.96 34.79C249.97 34.74 249.98 34.70 249.98 34.65ZM251.64 32.06C251.27 32.06 250.96 32.37 250.96 32.75C250.96 33.12 251.27 33.44 251.64 33.44C252.02 33.44 252.32 33.12 252.32 32.75C252.32 32.37 252.02 32.06 251.64 32.06ZM252.18 34.65C252.18 34.37 251.94 34.13 251.66 34.13C251.35 34.13 251.11 34.37 251.11 34.65L251.11 39.54C251.11 39.83 251.35 40.07 251.64 40.07C251.94 40.07 252.18 39.83 252.18 39.54ZM256.61 39.58C256.61 39.33 256.42 39.14 256.15 39.14C256.03 39.14 255.89 39.20 255.76 39.20C255.41 39.20 255.19 38.92 255.19 38.48L255.19 35.14L255.98 35.14C256.24 35.14 256.44 34.94 256.44 34.68C256.44 34.41 256.24 34.20 255.98 34.20L255.19 34.20L255.19 33.06C255.19 32.79 254.95 32.55 254.66 32.55C254.35 32.55 254.11 32.79 254.11 33.06L254.11 34.20L253.55 34.20C253.28 34.20 253.08 34.41 253.08 34.66C253.08 34.94 253.28 35.14 253.55 35.14L254.11 35.14L254.11 38.73C254.11 39.64 254.59 40.14 255.50 40.14C256.14 40.14 256.61 39.96 256.61 39.58ZM262.57 36.26C262.57 35.03 261.70 34.06 260.47 34.06C259.45 34.06 258.92 34.55 258.65 35.02L258.65 32.44C258.65 32.16 258.41 31.92 258.13 31.92C257.82 31.92 257.58 32.16 257.58 32.44L257.58 39.54C257.58 39.83 257.82 40.07 258.11 40.07C258.41 40.07 258.65 39.83 258.65 39.54L258.65 36.82C258.65 35.74 259.22 35.01 260.14 35.01C261 35.01 261.50 35.66 261.50 36.62L261.50 39.54C261.50 39.83 261.74 40.07 262.03 40.07C262.33 40.07 262.57 39.83 262.57 39.54ZM269.93 32.60C269.93 32.22 269.60 31.94 269.24 31.94C269.05 31.94 268.88 32.00 268.76 32.13L267.02 33.89C266.93 34 266.88 34.12 266.88 34.25C266.88 34.54 267.13 34.76 267.38 34.76C267.52 34.76 267.62 34.71 267.72 34.61L268.74 33.56L268.74 39.48C268.74 39.81 269.00 40.07 269.33 40.07C269.66 40.07 269.93 39.81 269.93 39.48ZM277.24 37.10C277.24 35.20 276.17 34.06 274.66 34.06C273.86 34.06 273.17 34.46 272.75 35.03L272.75 34.65C272.75 34.37 272.51 34.13 272.23 34.13C271.92 34.13 271.68 34.37 271.68 34.65L271.68 41.76C271.68 42.04 271.92 42.28 272.21 42.28C272.51 42.28 272.75 42.04 272.75 41.76L272.75 39.16C273.22 39.80 273.89 40.14 274.66 40.14C276.17 40.14 277.24 38.98 277.24 37.10ZM276.11 37.10C276.11 38.31 275.57 39.20 274.48 39.20C273.47 39.20 272.75 38.32 272.75 37.13L272.75 37.06C272.75 35.87 273.47 35.01 274.48 35.01C275.57 35.01 276.11 35.88 276.11 37.10ZM282.65 39.42C282.62 39.36 282.60 39.30 282.56 39.24L280.92 37.07L282.50 34.98C282.54 34.92 282.58 34.86 282.59 34.80C282.66 34.54 282.50 34.24 282.18 34.16C281.99 34.10 281.76 34.18 281.63 34.35L280.22 36.27L278.82 34.35C278.69 34.18 278.46 34.10 278.26 34.16C277.94 34.24 277.79 34.54 277.86 34.80C277.87 34.86 277.91 34.92 277.94 34.98L279.53 37.08L277.90 39.24C277.86 39.30 277.82 39.36 277.81 39.42C277.74 39.69 277.91 40.01 278.22 40.07C278.41 40.11 278.64 40.05 278.77 39.87L280.22 37.89L281.68 39.87C281.81 40.05 282.05 40.11 282.24 40.07C282.55 40.01 282.71 39.69 282.65 39.42ZM290.17 34.60C290.17 34.32 289.97 34.12 289.69 34.12C289.04 34.12 288.52 34.66 288.19 35.10L288.19 34.65C288.19 34.37 287.95 34.13 287.68 34.13C287.36 34.13 287.12 34.37 287.12 34.65L287.12 39.54C287.12 39.83 287.35 40.06 287.64 40.07L287.65 40.07C287.95 40.07 288.19 39.83 288.19 39.54L288.19 36.57C288.19 35.81 288.72 35.21 289.63 35.16C289.93 35.15 290.17 34.91 290.17 34.60ZM295.84 36.08C295.84 34.60 294.76 34.06 293.51 34.06C292.73 34.06 291.85 34.31 291.30 34.86C291.23 34.95 291.19 35.04 291.19 35.14C291.19 35.39 291.42 35.56 291.64 35.56C291.72 35.56 291.82 35.52 291.90 35.46C292.33 35.13 292.81 34.96 293.35 34.96C294.17 34.96 294.77 35.39 294.77 36.12L294.77 36.45L293.10 36.45C291.90 36.45 290.84 36.92 290.84 38.22C290.84 39.50 291.90 40.14 292.86 40.14C293.76 40.14 294.30 39.87 294.77 39.35L294.77 39.54C294.77 39.89 295.04 40.07 295.26 40.07L295.30 40.07C295.60 40.07 295.84 39.83 295.84 39.54ZM294.77 37.19L294.77 38.01C294.77 38.69 293.99 39.39 293.15 39.39C292.37 39.39 291.92 38.92 291.92 38.25C291.92 37.55 292.48 37.19 293.39 37.19ZM302.76 32.44C302.76 32.16 302.52 31.92 302.24 31.92C301.93 31.92 301.69 32.16 301.69 32.44L301.69 35.04C301.22 34.42 300.66 34.06 299.78 34.06C298.27 34.06 297.20 35.25 297.20 37.11C297.20 39.00 298.28 40.14 299.78 40.14C300.68 40.14 301.25 39.75 301.69 39.17L301.69 39.54C301.69 39.83 301.93 40.07 302.22 40.07C302.52 40.07 302.76 39.83 302.76 39.54ZM301.69 37.14C301.69 38.34 301.09 39.20 300.06 39.20C298.98 39.20 298.31 38.32 298.31 37.11C298.31 35.90 298.98 35.01 300.06 35.01C301.09 35.01 301.69 35.88 301.69 37.07ZM305.02 32.06C304.64 32.06 304.33 32.37 304.33 32.75C304.33 33.12 304.64 33.44 305.02 33.44C305.40 33.44 305.70 33.12 305.70 32.75C305.70 32.37 305.40 32.06 305.02 32.06ZM305.56 34.65C305.56 34.37 305.32 34.13 305.04 34.13C304.73 34.13 304.49 34.37 304.49 34.65L304.49 39.54C304.49 39.83 304.73 40.07 305.02 40.07C305.32 40.07 305.56 39.83 305.56 39.54ZM312.28 34.65C312.28 34.37 312.04 34.13 311.76 34.13C311.45 34.13 311.21 34.37 311.21 34.65L311.21 37.41C311.21 38.39 310.58 39.20 309.72 39.20C308.86 39.20 308.36 38.54 308.36 37.58L308.36 34.65C308.36 34.37 308.12 34.13 307.85 34.13C307.54 34.13 307.30 34.37 307.30 34.65L307.30 37.95C307.30 39.17 308.16 40.14 309.38 40.14C310.39 40.14 310.90 39.70 311.21 39.21L311.21 39.54C311.21 39.83 311.45 40.07 311.74 40.07C312.04 40.07 312.28 39.83 312.28 39.54ZM318.24 38.25C318.13 36.21 314.81 36.77 314.69 35.73C314.64 35.26 315.14 34.91 315.88 34.91C316.43 34.91 316.94 35.09 317.32 35.36C317.39 35.42 317.47 35.44 317.57 35.44C317.78 35.44 317.99 35.26 317.99 35.02C317.99 34.92 317.95 34.83 317.88 34.76C317.42 34.31 316.69 34.06 315.86 34.06C314.45 34.06 313.60 34.73 313.66 35.76C313.76 37.71 317.08 37.11 317.20 38.39C317.24 38.92 316.76 39.29 315.94 39.29C315.34 39.29 314.74 39.05 314.30 38.74C314.22 38.68 314.14 38.66 314.03 38.66C313.78 38.66 313.56 38.85 313.56 39.10C313.56 39.22 313.61 39.32 313.69 39.39C314.22 39.92 315.10 40.14 315.89 40.14C317.42 40.14 318.30 39.35 318.24 38.25ZM327.35 36.08C327.35 34.60 326.27 34.06 325.02 34.06C324.24 34.06 323.36 34.31 322.81 34.86C322.74 34.95 322.70 35.04 322.70 35.14C322.70 35.39 322.93 35.56 323.15 35.56C323.23 35.56 323.33 35.52 323.41 35.46C323.84 35.13 324.32 34.96 324.86 34.96C325.68 34.96 326.28 35.39 326.28 36.12L326.28 36.45L324.61 36.45C323.41 36.45 322.36 36.92 322.36 38.22C322.36 39.50 323.41 40.14 324.37 40.14C325.27 40.14 325.81 39.87 326.28 39.35L326.28 39.54C326.28 39.89 326.56 40.07 326.77 40.07L326.81 40.07C327.11 40.07 327.35 39.83 327.35 39.54ZM326.28 37.19L326.28 38.01C326.28 38.69 325.50 39.39 324.66 39.39C323.88 39.39 323.44 38.92 323.44 38.25C323.44 37.55 323.99 37.19 324.90 37.19ZM334.04 36.28C334.04 35.06 333.16 34.06 331.93 34.06C330.92 34.06 330.41 34.55 330.13 35.02L330.13 34.65C330.13 34.37 329.89 34.13 329.62 34.13C329.30 34.13 329.06 34.37 329.06 34.65L329.06 39.54C329.06 39.83 329.30 40.07 329.59 40.07C329.89 40.07 330.13 39.83 330.13 39.54L330.13 36.76C330.13 35.78 330.66 35.01 331.58 35.01C332.45 35.01 332.98 35.68 332.98 36.64L332.98 39.54C332.98 39.83 333.22 40.07 333.50 40.07C333.80 40.07 334.04 39.83 334.04 39.54ZM340.98 32.44C340.98 32.16 340.74 31.92 340.46 31.92C340.15 31.92 339.91 32.16 339.91 32.44L339.91 35.04C339.44 34.42 338.88 34.06 338.00 34.06C336.49 34.06 335.42 35.25 335.42 37.11C335.42 39.00 336.50 40.14 338.00 40.14C338.90 40.14 339.47 39.75 339.91 39.17L339.91 39.54C339.91 39.83 340.15 40.07 340.44 40.07C340.74 40.07 340.98 39.83 340.98 39.54ZM339.91 37.14C339.91 38.34 339.31 39.20 338.28 39.20C337.20 39.20 336.53 38.32 336.53 37.11C336.53 35.90 337.20 35.01 338.28 35.01C339.31 35.01 339.91 35.88 339.91 37.07ZM348.34 32.60C348.34 32.22 348.01 31.94 347.65 31.94C347.46 31.94 347.29 32.00 347.17 32.13L345.43 33.89C345.34 34 345.29 34.12 345.29 34.25C345.29 34.54 345.54 34.76 345.79 34.76C345.92 34.76 346.03 34.71 346.13 34.61L347.15 33.56L347.15 39.48C347.15 39.81 347.41 40.07 347.74 40.07C348.07 40.07 348.34 39.81 348.34 39.48ZM351.38 39.38C351.38 38.98 351.05 38.63 350.64 38.63C350.24 38.63 349.91 38.98 349.91 39.38C349.91 39.78 350.24 40.12 350.64 40.12C351.05 40.12 351.38 39.78 351.38 39.38ZM358.63 37.47C358.63 35.84 357.42 34.90 356.09 34.90C355.30 34.90 354.62 35.22 354.24 35.61L354.24 33.05L357.67 33.05C357.96 33.05 358.19 32.81 358.19 32.54C358.19 32.22 357.96 32.00 357.67 32.00L353.84 32.00C353.41 32.00 353.05 32.34 353.05 32.78L353.05 36.04C353.05 36.38 353.33 36.63 353.66 36.63C353.83 36.63 354 36.56 354.14 36.46C354.60 36.10 355.14 35.93 355.72 35.93C356.75 35.93 357.44 36.56 357.44 37.52C357.44 38.40 356.75 39.09 355.69 39.09C354.94 39.09 354.32 38.85 353.82 38.40C353.72 38.32 353.59 38.27 353.47 38.27C353.17 38.27 352.94 38.56 352.94 38.82C352.94 38.94 352.98 39.05 353.05 39.15C353.60 39.78 354.56 40.14 355.69 40.14C357.40 40.14 358.63 39.12 358.63 37.47ZM365.63 37.10C365.63 35.20 364.56 34.06 363.05 34.06C362.26 34.06 361.56 34.46 361.14 35.03L361.14 34.65C361.14 34.37 360.90 34.13 360.62 34.13C360.31 34.13 360.07 34.37 360.07 34.65L360.07 41.76C360.07 42.04 360.31 42.28 360.60 42.28C360.90 42.28 361.14 42.04 361.14 41.76L361.14 39.16C361.61 39.80 362.28 40.14 363.05 40.14C364.56 40.14 365.63 38.98 365.63 37.10ZM364.50 37.10C364.50 38.31 363.96 39.20 362.87 39.20C361.86 39.20 361.14 38.32 361.14 37.13L361.14 37.06C361.14 35.87 361.86 35.01 362.87 35.01C363.96 35.01 364.50 35.88 364.50 37.10ZM371.04 39.42C371.02 39.36 370.99 39.30 370.96 39.24L369.31 37.07L370.90 34.98C370.93 34.92 370.97 34.86 370.98 34.80C371.05 34.54 370.90 34.24 370.57 34.16C370.38 34.10 370.15 34.18 370.02 34.35L368.62 36.27L367.21 34.35C367.08 34.18 366.85 34.10 366.65 34.16C366.34 34.24 366.18 34.54 366.25 34.80C366.26 34.86 366.30 34.92 366.34 34.98L367.92 37.08L366.29 39.24C366.25 39.30 366.22 39.36 366.20 39.42C366.13 39.69 366.30 40.01 366.61 40.07C366.80 40.11 367.03 40.05 367.16 39.87L368.62 37.89L370.07 39.87C370.20 40.05 370.44 40.11 370.63 40.07C370.94 40.01 371.10 39.69 371.04 39.42ZM379.76 38.25C379.66 36.21 376.33 36.77 376.21 35.73C376.16 35.26 376.67 34.91 377.40 34.91C377.95 34.91 378.47 35.09 378.84 35.36C378.91 35.42 379.00 35.44 379.09 35.44C379.31 35.44 379.51 35.26 379.51 35.02C379.51 34.92 379.48 34.83 379.40 34.76C378.95 34.31 378.22 34.06 377.39 34.06C375.97 34.06 375.12 34.73 375.18 35.76C375.29 37.71 378.60 37.11 378.72 38.39C378.77 38.92 378.29 39.29 377.46 39.29C376.86 39.29 376.26 39.05 375.83 38.74C375.74 38.68 375.66 38.66 375.55 38.66C375.30 38.66 375.08 38.85 375.08 39.10C375.08 39.22 375.13 39.32 375.22 39.39C375.74 39.92 376.62 40.14 377.41 40.14C378.95 40.14 379.82 39.35 379.76 38.25ZM383.83 39.58C383.83 39.33 383.64 39.14 383.38 39.14C383.26 39.14 383.11 39.20 382.98 39.20C382.63 39.20 382.42 38.92 382.42 38.48L382.42 35.14L383.21 35.14C383.46 35.14 383.66 34.94 383.66 34.68C383.66 34.41 383.46 34.20 383.21 34.20L382.42 34.20L382.42 33.06C382.42 32.79 382.18 32.55 381.89 32.55C381.58 32.55 381.34 32.79 381.34 33.06L381.34 34.20L380.77 34.20C380.51 34.20 380.30 34.41 380.30 34.66C380.30 34.94 380.51 35.14 380.77 35.14L381.34 35.14L381.34 38.73C381.34 39.64 381.82 40.14 382.73 40.14C383.36 40.14 383.83 39.96 383.83 39.58ZM387.85 34.60C387.85 34.32 387.65 34.12 387.37 34.12C386.72 34.12 386.20 34.66 385.87 35.10L385.87 34.65C385.87 34.37 385.63 34.13 385.36 34.13C385.04 34.13 384.80 34.37 384.80 34.65L384.80 39.54C384.80 39.83 385.03 40.06 385.32 40.07L385.33 40.07C385.63 40.07 385.87 39.83 385.87 39.54L385.87 36.57C385.87 35.81 386.40 35.21 387.31 35.16C387.61 35.15 387.85 34.91 387.85 34.60ZM389.14 39.38C389.14 38.98 388.80 38.63 388.40 38.63C388.00 38.63 387.67 38.98 387.67 39.38C387.67 39.77 388.00 40.12 388.40 40.12C388.80 40.12 389.14 39.77 389.14 39.38ZM391.99 39.38C391.99 38.98 391.64 38.63 391.24 38.63C390.84 38.63 390.50 38.98 390.50 39.38C390.50 39.77 390.84 40.12 391.24 40.12C391.64 40.12 391.99 39.77 391.99 39.38ZM394.84 39.38C394.84 38.98 394.50 38.63 394.09 38.63C393.68 38.63 393.35 38.98 393.35 39.38C393.35 39.77 393.68 40.12 394.09 40.12C394.50 40.12 394.84 39.77 394.84 39.38Z" fill="#627386" /><rect x="18" y="50" width="384" height="6" rx="3" fill="#f4faff" /><rect x="18" y="50" width="0.08" height="6" rx="3" fill="#00a5fe" /></svg>