<svg xmlns="http://www.w3.org/2000/svg" width="420" height="64" viewBox="0 0 420 64" role="img"><rect x="0.5" y="0.5" width="419" height="63" rx="10" fill="#161b22" stroke="#30363d" /><path d="M28.46 19.35C28.46 17.03 26.72 15.07 24.05 15.07C21.14 15.07 18.49 17.60 18.49 20.58C18.49 23.06 20.38 24.98 22.93 24.98C23.88 24.98 24.82 24.70 25.63 24.22C25.70 24.18 25.74 24.11 25.74 24.03C25.74 23.89 25.59 23.78 25.46 23.78C25.42 23.78 25.38 23.78 25.34 23.80C24.64 24.21 23.85 24.45 22.98 24.45C20.72 24.45 19.04 22.75 19.04 20.56C19.04 17.94 21.35 15.61 23.99 15.61C26.34 15.61 27.86 17.14 27.86 19.35C27.86 20.95 27.09 21.61 26.54 21.61C26.25 21.61 26.02 21.41 26.02 20.98C26.02 20.89 26.05 20.72 26.06 20.64L26.61 18.05C26.62 18.01 26.62 17.95 26.62 17.90C26.62 17.50 26.30 17.15 25.85 17.15C25.48 17.15 25.15 17.42 25.08 17.77L25.04 17.97C24.75 17.43 24.13 17.03 23.29 17.03C21.67 17.03 20.13 18.58 20.13 20.46C20.13 21.82 20.94 22.81 22.30 22.81C23.05 22.81 23.82 22.38 24.33 21.73C24.41 22.31 24.85 22.81 25.69 22.81C26.90 22.81 28.46 21.70 28.46 19.35ZM24.65 19.84C24.44 20.82 23.66 21.55 22.91 21.55C22.20 21.55 21.75 21.05 21.75 20.32C21.75 19.30 22.56 18.29 23.68 18.29C24.30 18.29 24.89 18.71 24.68 19.69ZM35.42 22.92C35.42 22.46 35.00 22.15 34.56 22.15C34.39 22.15 34.24 22.19 34.09 22.29C33.78 22.49 33.44 22.59 33.08 22.59C32 22.59 31.24 21.79 31.24 20.61C31.24 19.44 32 18.65 33.08 18.65C33.43 18.65 33.78 18.75 34.07 18.93C34.23 19.03 34.39 19.07 34.56 19.07C34.95 19.07 35.40 18.79 35.40 18.32C35.40 18.20 35.37 18.09 35.32 17.99C35.02 17.45 34.04 17.07 32.99 17.07C30.91 17.07 29.41 18.54 29.41 20.61C29.41 22.70 30.91 24.17 32.99 24.17C33.95 24.17 34.65 23.89 35.14 23.50C35.32 23.36 35.42 23.13 35.42 22.92ZM43.26 20.40C43.26 20.07 43.16 19.66 43.06 19.35C42.58 17.95 41.42 17.07 39.90 17.07C37.84 17.07 36.40 18.65 36.40 20.61C36.40 22.78 37.95 24.17 40.01 24.17C41.04 24.17 42.54 23.78 42.63 22.98C42.67 22.56 42.25 22.26 41.87 22.26C41.76 22.26 41.63 22.29 41.52 22.35C41.10 22.57 40.58 22.75 40.20 22.75C39.06 22.75 38.37 22.07 38.26 21.21L42.43 21.21C42.89 21.21 43.26 20.84 43.26 20.40ZM38.23 20.01C38.31 19.34 38.79 18.48 39.90 18.48C41.07 18.48 41.52 19.37 41.56 20.01ZM50.91 19.65C50.91 18.33 49.78 17.07 48.30 17.07C47.26 17.07 46.62 17.62 46.35 18.04L46.35 18.02C46.35 17.55 45.96 17.15 45.48 17.15C44.96 17.15 44.57 17.55 44.57 18.02L44.57 23.20C44.57 23.69 44.96 24.08 45.45 24.08C45.96 24.08 46.35 23.69 46.35 23.20L46.35 20.22C46.35 19.25 47.05 18.65 47.75 18.65C48.51 18.65 49.14 19.25 49.14 20.19L49.14 23.20C49.14 23.69 49.53 24.08 50.02 24.08C50.52 24.08 50.91 23.69 50.91 23.20ZM56.37 23.36C56.37 22.92 56.09 22.59 55.59 22.59L55.44 22.59C55.16 22.59 54.82 22.38 54.82 21.84L54.82 18.79L55.52 18.79C55.93 18.79 56.28 18.44 56.28 18.02C56.28 17.59 55.93 17.24 55.52 17.24L54.82 17.24L54.82 16.19C54.82 15.70 54.43 15.31 53.94 15.31C53.42 15.31 53.03 15.70 53.03 16.19L53.03 17.24L52.59 17.24C52.17 17.24 51.82 17.59 51.82 17.99C51.82 18.44 52.17 18.79 52.59 18.79L53.03 18.79L53.03 22.32C53.03 23.52 53.70 24.17 54.95 24.17C56.11 24.17 56.37 23.80 56.37 23.36ZM61.43 17.91C61.43 17.50 61.16 17.18 60.64 17.18C59.97 17.18 59.52 17.71 59.19 18.16L59.19 18.02C59.19 17.55 58.80 17.15 58.32 17.15C57.80 17.15 57.41 17.55 57.41 18.02L57.41 23.20C57.41 23.69 57.80 24.08 58.29 24.08L58.32 24.08C58.80 24.08 59.19 23.69 59.19 23.20L59.19 20.37C59.19 19.25 60.03 18.89 60.57 18.82C61.06 18.75 61.43 18.44 61.43 17.91ZM68.29 19.63C68.29 17.69 66.87 17.07 65.33 17.07C64.55 17.07 63.04 17.35 62.62 18.02C62.56 18.12 62.52 18.25 62.52 18.37C62.52 18.79 62.87 19.06 63.19 19.06C63.30 19.06 63.42 19.02 63.51 18.96C63.98 18.65 64.49 18.53 65.03 18.53C65.92 18.53 66.51 18.97 66.51 19.66L66.51 19.88L64.37 19.88C63.29 19.88 62.02 20.35 62.02 21.93C62.02 23.44 63.29 24.17 64.37 24.17C65.39 24.17 66.05 23.92 66.51 23.37C66.51 23.68 66.80 24.08 67.28 24.08L67.42 24.08C67.90 24.08 68.29 23.69 68.29 23.20ZM66.51 21.09L66.51 21.40C66.51 22.49 65.66 22.96 65.08 22.96C64.38 22.96 63.81 22.60 63.81 21.97C63.81 21.31 64.38 21.09 65.08 21.09ZM71.83 15.45C71.83 14.97 71.44 14.58 70.96 14.58C70.44 14.58 70.05 14.97 70.05 15.45L70.05 23.20C70.05 23.69 70.44 24.08 70.93 24.08C71.44 24.08 71.83 23.69 71.83 23.20ZM76.58 20.60C76.58 20.19 76.24 19.86 75.83 19.86L73.79 19.86C73.38 19.86 73.05 20.19 73.05 20.60C73.05 21.03 73.38 21.37 73.79 21.37L75.83 21.37C76.24 21.37 76.58 21.03 76.58 20.60ZM78.68 14.40C78.10 14.40 77.61 14.86 77.61 15.45C77.61 16.03 78.10 16.51 78.68 16.51C79.26 16.51 79.74 16.03 79.74 15.45C79.74 14.86 79.26 14.40 78.68 14.40ZM79.57 18.02C79.57 17.55 79.18 17.15 78.70 17.15C78.19 17.15 77.79 17.55 77.79 18.02L77.79 23.20C77.79 23.69 78.19 24.08 78.68 24.08C79.18 24.08 79.57 23.69 79.57 23.20ZM86.91 22.92C86.91 22.46 86.49 22.15 86.05 22.15C85.89 22.15 85.73 22.19 85.58 22.29C85.27 22.49 84.93 22.59 84.57 22.59C83.49 22.59 82.74 21.79 82.74 20.61C82.74 19.44 83.49 18.65 84.57 18.65C84.92 18.65 85.27 18.75 85.56 18.93C85.72 19.03 85.89 19.07 86.05 19.07C86.45 19.07 86.89 18.79 86.89 18.32C86.89 18.20 86.87 18.09 86.81 17.99C86.52 17.45 85.54 17.07 84.49 17.07C82.40 17.07 80.90 18.54 80.90 20.61C80.90 22.70 82.40 24.17 84.49 24.17C85.44 24.17 86.14 23.89 86.63 23.50C86.81 23.36 86.91 23.13 86.91 22.92ZM95.04 20.61C95.04 18.69 93.70 17.07 91.46 17.07C89.23 17.07 87.89 18.69 87.89 20.61C87.89 22.54 89.23 24.17 91.46 24.17C93.70 24.17 95.04 22.54 95.04 20.61ZM93.19 20.61C93.19 21.68 92.56 22.59 91.46 22.59C90.35 22.59 89.74 21.68 89.74 20.61C89.74 19.56 90.35 18.65 91.46 18.65C92.56 18.65 93.19 19.56 93.19 20.61ZM102.70 19.65C102.70 18.33 101.57 17.07 100.08 17.07C99.05 17.07 98.40 17.62 98.14 18.04L98.14 18.02C98.14 17.55 97.74 17.15 97.27 17.15C96.75 17.15 96.36 17.55 96.36 18.02L96.36 23.20C96.36 23.69 96.75 24.08 97.24 24.08C97.74 24.08 98.14 23.69 98.14 23.20L98.14 20.22C98.14 19.25 98.84 18.65 99.54 18.65C100.29 18.65 100.92 19.25 100.92 20.19L100.92 23.20C100.92 23.69 101.31 24.08 101.80 24.08C102.31 24.08 102.70 23.69 102.70 23.20ZM109.83 22.00C109.83 19.27 105.82 20.11 105.82 19.10C105.82 18.72 106.24 18.43 106.89 18.43C107.43 18.43 107.98 18.58 108.41 18.83C108.51 18.89 108.64 18.92 108.75 18.92C109.11 18.92 109.45 18.62 109.45 18.25C109.45 18.12 109.41 17.99 109.34 17.90C108.96 17.35 107.75 17.07 106.87 17.07C105.09 17.07 104.10 18.06 104.10 19.20C104.10 21.86 108.12 20.95 108.12 22.07C108.12 22.49 107.75 22.80 106.98 22.80C106.40 22.80 105.70 22.56 105.16 22.25C105.05 22.18 104.93 22.15 104.80 22.15C104.42 22.15 104.06 22.47 104.06 22.89C104.06 23.03 104.10 23.16 104.18 23.27C104.60 23.87 106.02 24.17 106.90 24.17C108.78 24.17 109.83 23.23 109.83 22.00ZM114.12 20.60C114.12 20.19 113.79 19.86 113.38 19.86L111.34 19.86C110.93 19.86 110.60 20.19 110.60 20.60C110.60 21.03 110.93 21.37 111.34 21.37L113.38 21.37C113.79 21.37 114.12 21.03 114.12 20.60ZM119.36 17.91C119.36 17.50 119.09 17.18 118.58 17.18C117.90 17.18 117.46 17.71 117.12 18.16L117.12 18.02C117.12 17.55 116.73 17.15 116.25 17.15C115.73 17.15 115.34 17.55 115.34 18.02L115.34 23.20C115.34 23.69 115.73 24.08 116.22 24.08L116.25 24.08C116.73 24.08 117.12 23.69 117.12 23.20L117.12 20.37C117.12 19.25 117.96 18.89 118.51 18.82C119.00 18.75 119.36 18.44 119.36 17.91ZM126.81 20.40C126.81 20.07 126.71 19.66 126.61 19.35C126.14 17.95 124.97 17.07 123.45 17.07C121.39 17.07 119.95 18.65 119.95 20.61C119.95 22.78 121.50 24.17 123.56 24.17C124.60 24.17 126.09 23.78 126.18 22.98C126.22 22.56 125.80 22.26 125.42 22.26C125.31 22.26 125.18 22.29 125.07 22.35C124.65 22.57 124.13 22.75 123.76 22.75C122.61 22.75 121.92 22.07 121.81 21.21L125.98 21.21C126.44 21.21 126.81 20.84 126.81 20.40ZM121.78 20.01C121.87 19.34 122.34 18.48 123.45 18.48C124.62 18.48 125.07 19.37 125.11 20.01ZM133.96 19.63C133.96 17.69 132.55 17.07 131.01 17.07C130.22 17.07 128.71 17.35 128.29 18.02C128.24 18.12 128.19 18.25 128.19 18.37C128.19 18.79 128.54 19.06 128.87 19.06C128.98 19.06 129.09 19.02 129.19 18.96C129.65 18.65 130.17 18.53 130.70 18.53C131.60 18.53 132.18 18.97 132.18 19.66L132.18 19.88L130.04 19.88C128.96 19.88 127.69 20.35 127.69 21.93C127.69 23.44 128.96 24.17 130.04 24.17C131.06 24.17 131.72 23.92 132.18 23.37C132.18 23.68 132.48 24.08 132.95 24.08L133.09 24.08C133.57 24.08 133.96 23.69 133.96 23.20ZM132.18 21.09L132.18 21.40C132.18 22.49 131.33 22.96 130.76 22.96C130.06 22.96 129.48 22.60 129.48 21.97C129.48 21.31 130.06 21.09 130.76 21.09ZM141.30 22.92C141.30 22.46 140.88 22.15 140.44 22.15C140.28 22.15 140.12 22.19 139.97 22.29C139.66 22.49 139.32 22.59 138.96 22.59C137.88 22.59 137.13 21.79 137.13 20.61C137.13 19.44 137.88 18.65 138.96 18.65C139.31 18.65 139.66 18.75 139.95 18.93C140.11 19.03 140.28 19.07 140.44 19.07C140.84 19.07 141.28 18.79 141.28 18.32C141.28 18.20 141.26 18.09 141.20 17.99C140.91 17.45 139.93 17.07 138.88 17.07C136.79 17.07 135.29 18.54 135.29 20.61C135.29 22.70 136.79 24.17 138.88 24.17C139.83 24.17 140.53 23.89 141.02 23.50C141.20 23.36 141.30 23.13 141.30 22.92ZM146.41 23.36C146.41 22.92 146.13 22.59 145.62 22.59L145.47 22.59C145.19 22.59 144.85 22.38 144.85 21.84L144.85 18.79L145.55 18.79C145.96 18.79 146.31 18.44 146.31 18.02C146.31 17.59 145.96 17.24 145.55 17.24L144.85 17.24L144.85 16.19C144.85 15.70 144.46 15.31 143.97 15.31C143.45 15.31 143.06 15.70 143.06 16.19L143.06 17.24L142.63 17.24C142.21 17.24 141.86 17.59 141.86 17.99C141.86 18.44 142.21 18.79 142.63 18.79L143.06 18.79L143.06 22.32C143.06 23.52 143.73 24.17 144.98 24.17C146.14 24.17 146.41 23.80 146.41 23.36ZM150.43 20.60C150.43 20.19 150.09 19.86 149.68 19.86L147.64 19.86C147.23 19.86 146.90 20.19 146.90 20.60C146.90 21.03 147.23 21.37 147.64 21.37L149.68 21.37C150.09 21.37 150.43 21.03 150.43 20.60ZM157.99 19.65C157.99 18.33 156.85 17.07 155.37 17.07C154.33 17.07 153.69 17.62 153.42 18.04L153.42 18.02C153.42 17.55 153.03 17.15 152.55 17.15C152.04 17.15 151.64 17.55 151.64 18.02L151.64 23.20C151.64 23.69 152.04 24.08 152.53 24.08C153.03 24.08 153.42 23.69 153.42 23.20L153.42 20.22C153.42 19.25 154.12 18.65 154.82 18.65C155.58 18.65 156.21 19.25 156.21 20.19L156.21 23.20C156.21 23.69 156.60 24.08 157.09 24.08C157.59 24.08 157.99 23.69 157.99 23.20ZM165.59 19.63C165.59 17.69 164.17 17.07 162.63 17.07C161.85 17.07 160.34 17.35 159.92 18.02C159.86 18.12 159.82 18.25 159.82 18.37C159.82 18.79 160.17 19.06 160.49 19.06C160.60 19.06 160.72 19.02 160.81 18.96C161.28 18.65 161.79 18.53 162.33 18.53C163.22 18.53 163.81 18.97 163.81 19.66L163.81 19.88L161.67 19.88C160.59 19.88 159.32 20.35 159.32 21.93C159.32 23.44 160.59 24.17 161.67 24.17C162.69 24.17 163.35 23.92 163.81 23.37C163.81 23.68 164.10 24.08 164.58 24.08L164.72 24.08C165.20 24.08 165.59 23.69 165.59 23.20ZM163.81 21.09L163.81 21.40C163.81 22.49 162.96 22.96 162.38 22.96C161.68 22.96 161.11 22.60 161.11 21.97C161.11 21.31 161.68 21.09 162.38 21.09ZM171.05 23.36C171.05 22.92 170.77 22.59 170.26 22.59L170.11 22.59C169.83 22.59 169.49 22.38 169.49 21.84L169.49 18.79L170.19 18.79C170.60 18.79 170.95 18.44 170.95 18.02C170.95 17.59 170.60 17.24 170.19 17.24L169.49 17.24L169.49 16.19C169.49 15.70 169.10 15.31 168.61 15.31C168.09 15.31 167.70 15.70 167.70 16.19L167.70 17.24L167.27 17.24C166.85 17.24 166.50 17.59 166.50 17.99C166.50 18.44 166.85 18.79 167.27 18.79L167.70 18.79L167.70 22.32C167.70 23.52 168.37 24.17 169.62 24.17C170.78 24.17 171.05 23.80 171.05 23.36ZM172.97 14.40C172.39 14.40 171.90 14.86 171.90 15.45C171.90 16.03 172.39 16.51 172.97 16.51C173.55 16.51 174.03 16.03 174.03 15.45C174.03 14.86 173.55 14.40 172.97 14.40ZM173.86 18.02C173.86 17.55 173.47 17.15 172.99 17.15C172.48 17.15 172.08 17.55 172.08 18.02L172.08 23.20C172.08 23.69 172.48 24.08 172.97 24.08C173.47 24.08 173.86 23.69 173.86 23.20ZM181.62 18.05C181.62 17.60 181.27 17.17 180.72 17.17C180.37 17.17 180.04 17.38 179.91 17.73L178.33 21.94L176.75 17.71C176.62 17.38 176.30 17.17 175.95 17.17C175.40 17.17 175.04 17.62 175.04 18.04C175.04 18.15 175.07 18.26 175.11 18.36L177.08 23.24C177.28 23.75 177.78 24.08 178.33 24.08L178.36 24.08C178.89 24.08 179.38 23.75 179.59 23.24L181.56 18.36C181.60 18.26 181.62 18.15 181.62 18.05ZM189.23 20.40C189.23 20.07 189.14 19.66 189.04 19.35C188.56 17.95 187.40 17.07 185.87 17.07C183.82 17.07 182.37 18.65 182.37 20.61C182.37 22.78 183.93 24.17 185.99 24.17C187.02 24.17 188.52 23.78 188.60 22.98C188.65 22.56 188.23 22.26 187.85 22.26C187.74 22.26 187.61 22.29 187.50 22.35C187.08 22.57 186.56 22.75 186.18 22.75C185.03 22.75 184.35 22.07 184.24 21.21L188.41 21.21C188.87 21.21 189.23 20.84 189.23 20.40ZM184.21 20.01C184.29 19.34 184.77 18.48 185.87 18.48C187.05 18.48 187.50 19.37 187.54 20.01Z" fill="#e6edf3" /><path d="M354.24 23.17C354.24 22.74 353.87 22.38 353.44 22.38L350.62 22.38C352.87 20.74 354.09 19.45 354.09 17.97C354.09 16.24 352.63 15.20 350.78 15.20C349.69 15.20 348.23 15.67 347.82 16.33C347.74 16.45 347.70 16.58 347.70 16.71C347.70 17.18 348.08 17.54 348.50 17.54C348.70 17.54 348.87 17.49 349.04 17.37C349.53 17.03 350.13 16.84 350.82 16.84C351.53 16.84 352.22 17.21 352.22 17.97C352.22 18.98 351.18 19.93 347.95 22.32C347.70 22.50 347.56 22.80 347.56 23.10C347.56 23.62 347.97 24 348.43 24L353.44 24C353.87 24 354.24 23.64 354.24 23.17ZM357.62 23.36C357.62 22.52 357.06 22.04 356.45 22.04C355.90 22.04 355.43 22.50 355.43 23.08C355.43 23.64 355.82 24.01 356.32 24.01C356.41 24.01 356.53 23.99 356.56 23.97C356.49 24.31 356.20 24.71 355.86 24.99C355.77 25.07 355.73 25.17 355.73 25.27C355.73 25.53 356.01 25.69 356.23 25.69C356.36 25.69 356.47 25.65 356.56 25.56C357.21 24.98 357.62 24.20 357.62 23.36ZM361.35 16.32C361.35 15.73 360.85 15.26 360.27 15.26C359.97 15.26 359.69 15.38 359.49 15.58L357.49 17.60C357.33 17.76 357.25 17.95 357.25 18.15C357.25 18.58 357.62 18.92 358.02 18.92C358.20 18.92 358.38 18.85 358.53 18.71L359.50 17.71L359.50 23.17C359.50 23.66 359.92 24.08 360.41 24.08C360.93 24.08 361.35 23.66 361.35 23.17ZM366.69 16.32C366.69 15.73 366.20 15.26 365.61 15.26C365.31 15.26 365.03 15.38 364.83 15.58L362.83 17.60C362.68 17.76 362.60 17.95 362.60 18.15C362.60 18.58 362.96 18.92 363.36 18.92C363.55 18.92 363.73 18.85 363.87 18.71L364.85 17.71L364.85 23.17C364.85 23.66 365.26 24.08 365.76 24.08C366.28 24.08 366.69 23.66 366.69 23.17ZM375.17 19.67C375.17 17.43 374.05 15.20 371.58 15.20C369.10 15.20 367.99 17.43 367.99 19.67C367.99 21.91 369.10 24.16 371.58 24.16C374.05 24.16 375.17 21.91 375.17 19.67ZM373.28 19.67C373.28 21.27 372.81 22.52 371.58 22.52C370.33 22.52 369.86 21.27 369.86 19.67C369.86 18.07 370.33 16.84 371.58 16.84C372.81 16.84 373.28 18.07 373.28 19.67ZM378.13 23.36C378.13 22.52 377.57 22.04 376.96 22.04C376.42 22.04 375.95 22.50 375.95 23.08C375.95 23.64 376.34 24.01 376.83 24.01C376.92 24.01 377.04 23.99 377.08 23.97C377.00 24.31 376.71 24.71 376.38 24.99C376.29 25.07 376.25 25.17 376.25 25.27C376.25 25.53 376.52 25.69 376.74 25.69C376.87 25.69 376.99 25.65 377.08 25.56C377.73 24.98 378.13 24.20 378.13 23.36ZM385.88 23.17C385.88 22.74 385.52 22.38 385.09 22.38L382.27 22.38C384.51 20.74 385.74 19.45 385.74 17.97C385.74 16.24 384.27 15.20 382.42 15.20C381.33 15.20 379.87 15.67 379.46 16.33C379.38 16.45 379.34 16.58 379.34 16.71C379.34 17.18 379.72 17.54 380.15 17.54C380.34 17.54 380.51 17.49 380.68 17.37C381.17 17.03 381.77 16.84 382.46 16.84C383.18 16.84 383.86 17.21 383.86 17.97C383.86 18.98 382.82 19.93 379.59 22.32C379.34 22.50 379.20 22.80 379.20 23.10C379.20 23.62 379.61 24 380.07 24L385.09 24C385.52 24 385.88 23.64 385.88 23.17ZM393.52 21.63C393.63 20.07 392.57 19.53 392.57 19.53C392.57 19.53 393.54 19.03 393.43 17.55C393.33 16.11 392.19 15.20 390.16 15.20C388.96 15.20 388.02 15.55 387.31 16.12C387.13 16.27 387.04 16.47 387.04 16.68C387.04 17.14 387.44 17.46 387.84 17.46C388.00 17.46 388.15 17.42 388.28 17.33C388.79 17.01 389.36 16.84 389.96 16.84C390.87 16.84 391.57 17.04 391.57 17.73C391.57 18.45 391.14 18.79 390.27 18.79C389.65 18.79 389.38 19.14 389.38 19.59C389.38 20.05 389.65 20.41 390.33 20.41C391.21 20.41 391.72 20.72 391.72 21.41C391.72 22.06 391.13 22.52 390.08 22.52C389.48 22.52 388.79 22.31 388.22 21.97C388.08 21.88 387.92 21.84 387.76 21.84C387.34 21.84 386.92 22.19 386.92 22.66C386.92 22.79 386.96 22.91 387.02 23.01C387.43 23.69 388.90 24.16 390.14 24.16C392.22 24.16 393.42 23.26 393.52 21.63ZM394.49 18.16C394.49 20.01 395.88 20.98 397.44 20.98C398.52 20.98 399.32 20.45 399.66 19.87C399.67 19.93 399.67 19.98 399.67 20.05C399.67 21.43 398.78 22.50 397.50 22.50C397.06 22.50 396.70 22.43 396.37 22.26C396.25 22.19 396.12 22.17 395.99 22.17C395.59 22.17 395.15 22.48 395.15 22.97C395.15 23.10 395.19 23.22 395.24 23.32C395.56 23.90 396.66 24.14 397.50 24.14C400.06 24.14 401.55 22.28 401.55 19.66C401.55 17.21 400.44 15.19 397.80 15.19C395.82 15.19 394.49 16.47 394.49 18.16ZM396.36 18.10C396.36 17.45 396.84 16.82 397.84 16.82C398.66 16.82 399.27 17.38 399.27 18.19C399.27 18.97 398.65 19.53 397.84 19.53C397.01 19.53 396.36 18.97 396.36 18.10Z" fill="#9aa7b4" /><path transform="translate(330.02, 12)" d="M6 1 L6 7.5 M3 5 L6 8 L9 5 M2 10.5 L10 10.5" fill="none" stroke="#9aa7b4" stroke-width="1.4" stroke-linecap="round" stroke-linejoin="round" /><path d="M24.17 37.83C24.17 36.33 23.03 35.87 23.03 35.87C23.03 35.87 24.05 35.38 24.05 34.02C24.05 32.67 22.87 31.88 21.25 31.88C20.17 31.88 19.33 32.25 18.70 32.84C18.60 32.92 18.54 33.06 18.54 33.20C18.54 33.48 18.80 33.70 19.06 33.70C19.16 33.70 19.27 33.66 19.36 33.59C19.87 33.16 20.46 32.93 21.14 32.93C22.08 32.93 22.86 33.36 22.86 34.19C22.86 35.20 22.08 35.39 20.92 35.38C20.62 35.38 20.40 35.61 20.40 35.90C20.40 36.42 20.90 36.46 21.34 36.44C22.26 36.44 22.99 36.82 22.99 37.72C22.99 38.56 22.32 39.09 21.22 39.09C20.48 39.09 19.80 38.81 19.28 38.37C19.19 38.28 19.07 38.25 18.96 38.25C18.67 38.25 18.43 38.51 18.43 38.79C18.43 38.90 18.47 39.00 18.55 39.09C19.07 39.70 20.10 40.14 21.25 40.14C23.05 40.14 24.17 39.17 24.17 37.83ZM31.60 36.00C31.60 34.02 30.67 31.88 28.46 31.88C26.24 31.88 25.33 34.02 25.33 36.00C25.33 37.98 26.24 40.14 28.46 40.14C30.67 40.14 31.60 37.98 31.60 36.00ZM30.38 36.00C30.38 37.56 29.88 39.09 28.46 39.09C27.04 39.09 26.54 37.56 26.54 36.00C26.54 34.44 27.04 32.93 28.46 32.93C29.88 32.93 30.38 34.44 30.38 36.00ZM41.65 37.10C41.65 35.20 40.58 34.06 39.07 34.06C38.28 34.06 37.58 34.46 37.16 35.03L37.16 34.65C37.16 34.37 36.92 34.13 36.65 34.13C36.34 34.13 36.10 34.37 36.10 34.65L36.10 41.76C36.10 42.04 36.34 42.28 36.62 42.28C36.92 42.28 37.16 42.04 37.16 41.76L37.16 39.16C37.63 39.80 38.30 40.14 39.07 40.14C40.58 40.14 41.65 38.98 41.65 37.10ZM40.52 37.10C40.52 38.31 39.98 39.20 38.89 39.20C37.88 39.20 37.16 38.32 37.16 37.13L37.16 37.06C37.16 35.87 37.88 35.01 38.89 35.01C39.98 35.01 40.52 35.88 40.52 37.10ZM47.65 36.08C47.65 34.60 46.57 34.06 45.32 34.06C44.54 34.06 43.67 34.31 43.12 34.86C43.04 34.95 43.01 35.04 43.01 35.14C43.01 35.39 43.24 35.56 43.45 35.56C43.54 35.56 43.63 35.52 43.72 35.46C44.15 35.13 44.63 34.96 45.17 34.96C45.98 34.96 46.58 35.39 46.58 36.12L46.58 36.45L44.92 36.45C43.72 36.45 42.66 36.92 42.66 38.22C42.66 39.50 43.72 40.14 44.68 40.14C45.58 40.14 46.12 39.87 46.58 39.35L46.58 39.54C46.58 39.89 46.86 40.07 47.08 40.07L47.11 40.07C47.41 40.07 47.65 39.83 47.65 39.54ZM46.58 37.19L46.58 38.01C46.58 38.69 45.80 39.39 44.96 39.39C44.18 39.39 43.74 38.92 43.74 38.25C43.74 37.55 44.29 37.19 45.20 37.19ZM53.99 39.12C53.99 38.85 53.74 38.66 53.48 38.66C53.36 38.66 53.24 38.69 53.15 38.76C52.82 39.05 52.45 39.20 52.02 39.20C50.87 39.20 50.12 38.31 50.12 37.10C50.12 35.88 50.87 35.01 52.02 35.01C52.44 35.01 52.82 35.14 53.15 35.43C53.24 35.51 53.36 35.56 53.48 35.56C53.75 35.56 53.98 35.34 53.98 35.08C53.98 34.98 53.95 34.90 53.89 34.83C53.50 34.37 52.85 34.06 51.96 34.06C50.22 34.06 49.02 35.37 49.02 37.10C49.02 38.84 50.22 40.14 51.96 40.14C52.82 40.14 53.41 39.86 53.84 39.44C53.94 39.35 53.99 39.23 53.99 39.12ZM60.06 39.54C60.06 39.44 60.02 39.32 59.95 39.23L58.04 36.83L59.84 34.95C59.93 34.85 59.98 34.74 59.98 34.62C59.98 34.36 59.74 34.12 59.47 34.12C59.35 34.12 59.22 34.18 59.12 34.28L56.39 37.16L56.39 32.44C56.39 32.16 56.15 31.92 55.87 31.92C55.56 31.92 55.32 32.16 55.32 32.44L55.32 39.54C55.32 39.83 55.56 40.07 55.85 40.07C56.15 40.07 56.39 39.83 56.39 39.54L56.39 38.39L57.28 37.49L59.11 39.87C59.21 40.01 59.38 40.08 59.53 40.08C59.86 40.08 60.06 39.80 60.06 39.54ZM66.22 36.08C66.22 34.60 65.14 34.06 63.89 34.06C63.11 34.06 62.23 34.31 61.68 34.86C61.61 34.95 61.57 35.04 61.57 35.14C61.57 35.39 61.80 35.56 62.02 35.56C62.10 35.56 62.20 35.52 62.28 35.46C62.71 35.13 63.19 34.96 63.73 34.96C64.55 34.96 65.15 35.39 65.15 36.12L65.15 36.45L63.48 36.45C62.28 36.45 61.22 36.92 61.22 38.22C61.22 39.50 62.28 40.14 63.24 40.14C64.14 40.14 64.68 39.87 65.15 39.35L65.15 39.54C65.15 39.89 65.42 40.07 65.64 40.07L65.68 40.07C65.98 40.07 66.22 39.83 66.22 39.54ZM65.15 37.19L65.15 38.01C65.15 38.69 64.37 39.39 63.53 39.39C62.75 39.39 62.30 38.92 62.30 38.25C62.30 37.55 62.86 37.19 63.77 37.19ZM73.13 34.65C73.13 34.37 72.89 34.13 72.61 34.13C72.30 34.13 72.06 34.37 72.06 34.65L72.06 35.04C71.59 34.42 70.92 34.06 70.15 34.06C68.65 34.06 67.58 35.19 67.58 37.06C67.58 38.94 68.66 40.05 70.15 40.05C70.94 40.05 71.63 39.63 72.06 39.04L72.06 39.81C72.06 41.04 71.17 41.48 70.27 41.48C69.64 41.48 69.13 41.34 68.69 40.97C68.60 40.91 68.52 40.89 68.41 40.89C68.17 40.89 67.96 41.09 67.96 41.34C67.96 41.46 68.00 41.57 68.08 41.64C68.64 42.18 69.46 42.35 70.27 42.35C71.69 42.35 73.13 41.76 73.13 39.77ZM72.06 37.07C72.06 38.26 71.28 39.10 70.32 39.10C69.24 39.10 68.69 38.25 68.69 37.06C68.69 35.85 69.24 35.01 70.32 35.01C71.28 35.01 72.06 35.84 72.06 37.02ZM80.21 36.90C80.21 36.68 80.15 36.42 80.10 36.23C79.76 34.94 78.80 34.06 77.40 34.06C75.72 34.06 74.51 35.42 74.51 37.10C74.51 38.92 75.77 40.14 77.50 40.14C78.35 40.14 79.84 39.70 79.84 39.05C79.84 38.64 79.43 38.55 79.16 38.68C78.74 38.99 78.10 39.28 77.60 39.28C76.43 39.28 75.71 38.48 75.62 37.48L79.66 37.48C79.96 37.48 80.21 37.19 80.21 36.90ZM75.62 36.69C75.67 35.88 76.24 34.92 77.39 34.92C78.62 34.92 79.15 35.91 79.18 36.69ZM85.82 38.25C85.72 36.21 82.39 36.77 82.27 35.73C82.22 35.26 82.73 34.91 83.46 34.91C84.01 34.91 84.53 35.09 84.90 35.36C84.97 35.42 85.06 35.44 85.15 35.44C85.37 35.44 85.57 35.26 85.57 35.02C85.57 34.92 85.54 34.83 85.46 34.76C85.01 34.31 84.28 34.06 83.45 34.06C82.03 34.06 81.18 34.73 81.24 35.76C81.35 37.71 84.66 37.11 84.78 38.39C84.83 38.92 84.35 39.29 83.52 39.29C82.92 39.29 82.32 39.05 81.89 38.74C81.80 38.68 81.72 38.66 81.61 38.66C81.36 38.66 81.14 38.85 81.14 39.10C81.14 39.22 81.19 39.32 81.28 39.39C81.80 39.92 82.68 40.14 83.47 40.14C85.01 40.14 85.88 39.35 85.82 38.25ZM90.80 32.06C90.43 32.06 90.12 32.37 90.12 32.75C90.12 33.12 90.43 33.44 90.80 33.44C91.19 33.44 91.49 33.12 91.49 32.75C91.49 32.37 91.19 32.06 90.80 32.06ZM91.34 34.65C91.34 34.37 91.10 34.13 90.83 34.13C90.52 34.13 90.28 34.37 90.28 34.65L90.28 39.54C90.28 39.83 90.52 40.07 90.80 40.07C91.10 40.07 91.34 39.83 91.34 39.54ZM98.05 36.28C98.05 35.06 97.16 34.06 95.94 34.06C94.93 34.06 94.42 34.55 94.14 35.02L94.14 34.65C94.14 34.37 93.90 34.13 93.62 34.13C93.31 34.13 93.07 34.37 93.07 34.65L93.07 39.54C93.07 39.83 93.31 40.07 93.60 40.07C93.90 40.07 94.14 39.83 94.14 39.54L94.14 36.76C94.14 35.78 94.67 35.01 95.59 35.01C96.46 35.01 96.98 35.68 96.98 36.64L96.98 39.54C96.98 39.83 97.22 40.07 97.51 40.07C97.81 40.07 98.05 39.83 98.05 39.54ZM105.56 39.58C105.56 39.33 105.37 39.14 105.11 39.14C104.99 39.14 104.84 39.20 104.71 39.20C104.36 39.20 104.15 38.92 104.15 38.48L104.15 35.14L104.94 35.14C105.19 35.14 105.40 34.94 105.40 34.68C105.40 34.41 105.19 34.20 104.94 34.20L104.15 34.20L104.15 33.06C104.15 32.79 103.91 32.55 103.62 32.55C103.31 32.55 103.07 32.79 103.07 33.06L103.07 34.20L102.50 34.20C102.24 34.20 102.04 34.41 102.04 34.66C102.04 34.94 102.24 35.14 102.50 35.14L103.07 35.14L103.07 38.73C103.07 39.64 103.55 40.14 104.46 40.14C105.10 40.14 105.56 39.96 105.56 39.58ZM111.53 36.26C111.53 35.03 110.65 34.06 109.43 34.06C108.41 34.06 107.88 34.55 107.60 35.02L107.60 32.44C107.60 32.16 107.36 31.92 107.09 31.92C106.78 31.92 106.54 32.16 106.54 32.44L106.54 39.54C106.54 39.83 106.78 40.07 107.06 40.07C107.36 40.07 107.60 39.83 107.60 39.54L107.60 36.82C107.60 35.74 108.18 35.01 109.09 35.01C109.96 35.01 110.46 35.66 110.46 36.62L110.46 39.54C110.46 39.83 110.70 40.07 110.99 40.07C111.29 40.07 111.53 39.83 111.53 39.54ZM113.78 32.06C113.41 32.06 113.10 32.37 113.10 32.75C113.10 33.12 113.41 33.44 113.78 33.44C114.17 33.44 114.47 33.12 114.47 32.75C114.47 32.37 114.17 32.06 113.78 32.06ZM114.32 34.65C114.32 34.37 114.08 34.13 113.81 34.13C113.50 34.13 113.26 34.37 113.26 34.65L113.26 39.54C113.26 39.83 113.50 40.07 113.78 40.07C114.08 40.07 114.32 39.83 114.32 39.54ZM120.30 38.25C120.19 36.21 116.87 36.77 116.75 35.73C116.70 35.26 117.20 34.91 117.94 34.91C118.49 34.91 119.00 35.09 119.38 35.36C119.45 35.42 119.53 35.44 119.63 35.44C119.84 35.44 120.05 35.26 120.05 35.02C120.05 34.92 120.01 34.83 119.94 34.76C119.48 34.31 118.75 34.06 117.92 34.06C116.51 34.06 115.66 34.73 115.72 35.76C115.82 37.71 119.14 37.11 119.26 38.39C119.30 38.92 118.82 39.29 118.00 39.29C117.40 39.29 116.80 39.05 116.36 38.74C116.28 38.68 116.20 38.66 116.09 38.66C115.84 38.66 115.62 38.85 115.62 39.10C115.62 39.22 115.67 39.32 115.75 39.39C116.28 39.92 117.16 40.14 117.95 40.14C119.48 40.14 120.36 39.35 120.30 38.25ZM129.00 38.25C128.89 36.21 125.57 36.77 125.45 35.73C125.40 35.26 125.90 34.91 126.64 34.91C127.19 34.91 127.70 35.09 128.08 35.36C128.15 35.42 128.23 35.44 128.33 35.44C128.54 35.44 128.75 35.26 128.75 35.02C128.75 34.92 128.71 34.83 128.64 34.76C128.18 34.31 127.45 34.06 126.62 34.06C125.21 34.06 124.36 34.73 124.42 35.76C124.52 37.71 127.84 37.11 127.96 38.39C128.00 38.92 127.52 39.29 126.70 39.29C126.10 39.29 125.50 39.05 125.06 38.74C124.98 38.68 124.90 38.66 124.79 38.66C124.54 38.66 124.32 38.85 124.32 39.10C124.32 39.22 124.37 39.32 124.45 39.39C124.98 39.92 125.86 40.14 126.65 40.14C128.18 40.14 129.06 39.35 129.00 38.25ZM134.99 39.12C134.99 38.85 134.74 38.66 134.48 38.66C134.36 38.66 134.24 38.69 134.15 38.76C133.82 39.05 133.45 39.20 133.02 39.20C131.87 39.20 131.12 38.31 131.12 37.10C131.12 35.88 131.87 35.01 133.02 35.01C133.44 35.01 133.82 35.14 134.15 35.43C134.24 35.51 134.36 35.56 134.48 35.56C134.75 35.56 134.98 35.34 134.98 35.08C134.98 34.98 134.95 34.90 134.89 34.83C134.50 34.37 133.85 34.06 132.96 34.06C131.22 34.06 130.02 35.37 130.02 37.10C130.02 38.84 131.22 40.14 132.96 40.14C133.82 40.14 134.41 39.86 134.84 39.44C134.94 39.35 134.99 39.23 134.99 39.12ZM141.82 37.10C141.82 35.43 140.70 34.06 138.89 34.06C137.09 34.06 135.97 35.43 135.97 37.10C135.97 38.76 137.09 40.14 138.89 40.14C140.70 40.14 141.82 38.76 141.82 37.10ZM140.70 37.10C140.70 38.21 140.05 39.20 138.89 39.20C137.74 39.20 137.08 38.21 137.08 37.10C137.08 35.99 137.74 35.01 138.89 35.01C140.05 35.01 140.70 35.99 140.70 37.10ZM148.75 37.10C148.75 35.20 147.68 34.06 146.17 34.06C145.38 34.06 144.68 34.46 144.26 35.03L144.26 34.65C144.26 34.37 144.02 34.13 143.75 34.13C143.44 34.13 143.20 34.37 143.20 34.65L143.20 41.76C143.20 42.04 143.44 42.28 143.72 42.28C144.02 42.28 144.26 42.04 144.26 41.76L144.26 39.16C144.73 39.80 145.40 40.14 146.17 40.14C147.68 40.14 148.75 38.98 148.75 37.10ZM147.62 37.10C147.62 38.31 147.08 39.20 145.99 39.20C144.98 39.20 144.26 38.32 144.26 37.13L144.26 37.06C144.26 35.87 144.98 35.01 145.99 35.01C147.08 35.01 147.62 35.88 147.62 37.10ZM155.45 36.90C155.45 36.68 155.39 36.42 155.34 36.23C155.00 34.94 154.04 34.06 152.64 34.06C150.96 34.06 149.75 35.42 149.75 37.10C149.75 38.92 151.01 40.14 152.74 40.14C153.59 40.14 155.08 39.70 155.08 39.05C155.08 38.64 154.67 38.55 154.40 38.68C153.98 38.99 153.34 39.28 152.84 39.28C151.67 39.28 150.95 38.48 150.86 37.48L154.90 37.48C155.20 37.48 155.45 37.19 155.45 36.90ZM150.86 36.69C150.91 35.88 151.48 34.92 152.63 34.92C153.86 34.92 154.39 35.91 154.42 36.69Z" fill="#9aa7b4" /><rect x="18" y="50" width="384" height="6" rx="3" fill="#21262d" /><rect x="18" y="50" width="0.37" height="6" rx="3" fill="#00a5fe" /></svg>