<svg xmlns="http://www.w3.org/2000/svg" width="420" height="64" viewBox="0 0 420 64" role="img"><rect x="0.5" y="0.5" width="419" height="63" rx="10" fill="#161b22" stroke="#30363d" /><path d="M28.46 19.35C28.46 17.03 26.72 15.07 24.05 15.07C21.14 15.07 18.49 17.60 18.49 20.58C18.49 23.06 20.38 24.98 22.93 24.98C23.88 24.98 24.82 24.70 25.63 24.22C25.70 24.18 25.74 24.11 25.74 24.03C25.74 23.89 25.59 23.78 25.46 23.78C25.42 23.78 25.38 23.78 25.34 23.80C24.64 24.21 23.85 24.45 22.98 24.45C20.72 24.45 19.04 22.75 19.04 20.56C19.04 17.94 21.35 15.61 23.99 15.61C26.34 15.61 27.86 17.14 27.86 19.35C27.86 20.95 27.09 21.61 26.54 21.61C26.25 21.61 26.02 21.41 26.02 20.98C26.02 20.89 26.05 20.72 26.06 20.64L26.61 18.05C26.62 18.01 26.62 17.95 26.62 17.90C26.62 17.50 26.30 17.15 25.85 17.15C25.48 17.15 25.15 17.42 25.08 17.77L25.04 17.97C24.75 17.43 24.13 17.03 23.29 17.03C21.67 17.03 20.13 18.58 20.13 20.46C20.13 21.82 20.94 22.81 22.30 22.81C23.05 22.81 23.82 22.38 24.33 21.73C24.41 22.31 24.85 22.81 25.69 22.81C26.90 22.81 28.46 21.70 28.46 19.35ZM24.65 19.84C24.44 20.82 23.66 21.55 22.91 21.55C22.20 21.55 21.75 21.05 21.75 20.32C21.75 19.30 22.56 18.29 23.68 18.29C24.30 18.29 24.89 18.71 24.68 19.69ZM35.42 22.92C35.42 22.46 35.00 22.15 34.56 22.15C34.39 22.15 34.24 22.19 34.09 22.29C33.78 22.49 33.44 22.59 33.08 22.59C32 22.59 31.24 21.79 31.24 20.61C31.24 19.44 32 18.65 33.08 18.65C33.43 18.65 33.78 18.75 34.07 18.93C34.23 19.03 34.39 19.07 34.56 19.07C34.95 19.07 35.40 18.79 35.40 18.32C35.40 18.20 35.37 18.09 35.32 17.99C35.02 17.45 34.04 17.07 32.99 17.07C30.91 17.07 29.41 18.54 29.41 20.61C29.41 22.70 30.91 24.17 32.99 24.17C33.95 24.17 34.65 23.89 35.14 23.50C35.32 23.36 35.42 23.13 35.42 22.92ZM43.26 20.40C43.26 20.07 43.16 19.66 43.06 19.35C42.58 17.95 41.42 17.07 39.90 17.07C37.84 17.07 36.40 18.65 36.40 20.61C36.40 22.78 37.95 24.17 40.01 24.17C41.04 24.17 42.54 23.78 42.63 22.98C42.67 22.56 42.25 22.26 41.87 22.26C41.76 22.26 41.63 22.29 41.52 22.35C41.10 22.57 40.58 22.75 40.20 22.75C39.06 22.75 38.37 22.07 38.26 21.21L42.43 21.21C42.89 21.21 43.26 20.84 43.26 20.40ZM38.23 20.01C38.31 19.34 38.79 18.48 39.90 18.48C41.07 18.48 41.52 19.37 41.56 20.01ZM50.91 19.65C50.91 18.33 49.78 17.07 48.30 17.07C47.26 17.07 46.62 17.62 46.35 18.04L46.35 18.02C46.35 17.55 45.96 17.15 45.48 17.15C44.96 17.15 44.57 17.55 44.57 18.02L44.57 23.20C44.57 23.69 44.96 24.08 45.45 24.08C45.96 24.08 46.35 23.69 46.35 23.20L46.35 20.22C46.35 19.25 47.05 18.65 47.75 18.65C48.51 18.65 49.14 19.25 49.14 20.19L49.14 23.20C49.14 23.69 49.53 24.08 50.02 24.08C50.52 24.08 50.91 23.69 50.91 23.20ZM56.37 23.36C56.37 22.92 56.09 22.59 55.59 22.59L55.44 22.59C55.16 22.59 54.82 22.38 54.82 21.84L54.82 18.79L55.52 18.79C55.93 18.79 56.28 18.44 56.28 18.02C56.28 17.59 55.93 17.24 55.52 17.24L54.82 17.24L54.82 16.19C54.82 15.70 54.43 15.31 53.94 15.31C53.42 15.31 53.03 15.70 53.03 16.19L53.03 17.24L52.59 17.24C52.17 17.24 51.82 17.59 51.82 17.99C51.82 18.44 52.17 18.79 52.59 18.79L53.03 18.79L53.03 22.32C53.03 23.52 53.70 24.17 54.95 24.17C56.11 24.17 56.37 23.80 56.37 23.36ZM61.43 17.91C61.43 17.50 61.16 17.18 60.64 17.18C59.97 17.18 59.52 17.71 59.19 18.16L59.19 18.02C59.19 17.55 58.80 17.15 58.32 17.15C57.80 17.15 57.41 17.55 57.41 18.02L57.41 23.20C57.41 23.69 57.80 24.08 58.29 24.08L58.32 24.08C58.80 24.08 59.19 23.69 59.19 23.20L59.19 20.37C59.19 19.25 60.03 18.89 60.57 18.82C61.06 18.75 61.43 18.44 61.43 17.91ZM68.29 19.63C68.29 17.69 66.87 17.07 65.33 17.07C64.55 17.07 63.04 17.35 62.62 18.02C62.56 18.12 62.52 18.25 62.52 18.37C62.52 18.79 62.87 19.06 63.19 19.06C63.30 19.06 63.42 19.02 63.51 18.96C63.98 18.65 64.49 18.53 65.03 18.53C65.92 18.53 66.51 18.97 66.51 19.66L66.51 19.88L64.37 19.88C63.29 19.88 62.02 20.35 62.02 21.93C62.02 23.44 63.29 24.17 64.37 24.17C65.39 24.17 66.05 23.92 66.51 23.37C66.51 23.68 66.80 24.08 67.28 24.08L67.42 24.08C67.90 24.08 68.29 23.69 68.29 23.20ZM66.51 21.09L66.51 21.40C66.51 22.49 65.66 22.96 65.08 22.96C64.38 22.96 63.81 22.60 63.81 21.97C63.81 21.31 64.38 21.09 65.08 21.09ZM71.83 15.45C71.83 14.97 71.44 14.58 70.96 14.58C70.44 14.58 70.05 14.97 70.05 15.45L70.05 23.20C70.05 23.69 70.44 24.08 70.93 24.08C71.44 24.08 71.83 23.69 71.83 23.20ZM76.58 20.60C76.58 20.19 76.24 19.86 75.83 19.86L73.79 19.86C73.38 19.86 73.05 20.19 73.05 20.60C73.05 21.03 73.38 21.37 73.79 21.37L75.83 21.37C76.24 21.37 76.58 21.03 76.58 20.60ZM78.68 14.40C78.10 14.40 77.61 14.86 77.61 15.45C77.61 16.03 78.10 16.51 78.68 16.51C79.26 16.51 79.74 16.03 79.74 15.45C79.74 14.86 79.26 14.40 78.68 14.40ZM79.57 18.02C79.57 17.55 79.18 17.15 78.70 17.15C78.19 17.15 77.79 17.55 77.79 18.02L77.79 23.20C77.79 23.69 78.19 24.08 78.68 24.08C79.18 24.08 79.57 23.69 79.57 23.20ZM86.91 22.92C86.91 22.46 86.49 22.15 86.05 22.15C85.89 22.15 85.73 22.19 85.58 22.29C85.27 22.49 84.93 22.59 84.57 22.59C83.49 22.59 82.74 21.79 82.74 20.61C82.74 19.44 83.49 18.65 84.57 18.65C84.92 18.65 85.27 18.75 85.56 18.93C85.72 19.03 85.89 19.07 86.05 19.07C86.45 19.07 86.89 18.79 86.89 18.32C86.89 18.20 86.87 18.09 86.81 17.99C86.52 17.45 85.54 17.07 84.49 17.07C82.40 17.07 80.90 18.54 80.90 20.61C80.90 22.70 82.40 24.17 84.49 24.17C85.44 24.17 86.14 23.89 86.63 23.50C86.81 23.36 86.91 23.13 86.91 22.92ZM95.04 20.61C95.04 18.69 93.70 17.07 91.46 17.07C89.23 17.07 87.89 18.69 87.89 20.61C87.89 22.54 89.23 24.17 91.46 24.17C93.70 24.17 95.04 22.54 95.04 20.61ZM93.19 20.61C93.19 21.68 92.56 22.59 91.46 22.59C90.35 22.59 89.74 21.68 89.74 20.61C89.74 19.56 90.35 18.65 91.46 18.65C92.56 18.65 93.19 19.56 93.19 20.61ZM102.70 19.65C102.70 18.33 101.57 17.07 100.08 17.07C99.05 17.07 98.40 17.62 98.14 18.04L98.14 18.02C98.14 17.55 97.74 17.15 97.27 17.15C96.75 17.15 96.36 17.55 96.36 18.02L96.36 23.20C96.36 23.69 96.75 24.08 97.24 24.08C97.74 24.08 98.14 23.69 98.14 23.20L98.14 20.22C98.14 19.25 98.84 18.65 99.54 18.65C100.29 18.65 100.92 19.25 100.92 20.19L100.92 23.20C100.92 23.69 101.31 24.08 101.80 24.08C102.31 24.08 102.70 23.69 102.70 23.20ZM109.83 22.00C109.83 19.27 105.82 20.11 105.82 19.10C105.82 18.72 106.24 18.43 106.89 18.43C107.43 18.43 107.98 18.58 108.41 18.83C108.51 18.89 108.64 18.92 108.75 18.92C109.11 18.92 109.45 18.62 109.45 18.25C109.45 18.12 109.41 17.99 109.34 17.90C108.96 17.35 107.75 17.07 106.87 17.07C105.09 17.07 104.10 18.06 104.10 19.20C104.10 21.86 108.12 20.95 108.12 22.07C108.12 22.49 107.75 22.80 106.98 22.80C106.40 22.80 105.70 22.56 105.16 22.25C105.05 22.18 104.93 22.15 104.80 22.15C104.42 22.15 104.06 22.47 104.06 22.89C104.06 23.03 104.10 23.16 104.18 23.27C104.60 23.87 106.02 24.17 106.90 24.17C108.78 24.17 109.83 23.23 109.83 22.00ZM114.12 20.60C114.12 20.19 113.79 19.86 113.38 19.86L111.34 19.86C110.93 19.86 110.60 20.19 110.60 20.60C110.60 21.03 110.93 21.37 111.34 21.37L113.38 21.37C113.79 21.37 114.12 21.03 114.12 20.60ZM119.36 17.91C119.36 17.50 119.09 17.18 118.58 17.18C117.90 17.18 117.46 17.71 117.12 18.16L117.12 18.02C117.12 17.55 116.73 17.15 116.25 17.15C115.73 17.15 115.34 17.55 115.34 18.02L115.34 23.20C115.34 23.69 115.73 24.08 116.22 24.08L116.25 24.08C116.73 24.08 117.12 23.69 117.12 23.20L117.12 20.37C117.12 19.25 117.96 18.89 118.51 18.82C119.00 18.75 119.36 18.44 119.36 17.91ZM126.81 20.40C126.81 20.07 126.71 19.66 126.61 19.35C126.14 17.95 124.97 17.07 123.45 17.07C121.39 17.07 119.95 18.65 119.95 20.61C119.95 22.78 121.50 24.17 123.56 24.17C124.60 24.17 126.09 23.78 126.18 22.98C126.22 22.56 125.80 22.26 125.42 22.26C125.31 22.26 125.18 22.29 125.07 22.35C124.65 22.57 124.13 22.75 123.76 22.75C122.61 22.75 121.92 22.07 121.81 21.21L125.98 21.21C126.44 21.21 126.81 20.84 126.81 20.40ZM121.78 20.01C121.87 19.34 122.34 18.48 123.45 18.48C124.62 18.48 125.07 19.37 125.11 20.01ZM133.96 19.63C133.96 17.69 132.55 17.07 131.01 17.07C130.22 17.07 128.71 17.35 128.29 18.02C128.24 18.12 128.19 18.25 128.19 18.37C128.19 18.79 128.54 19.06 128.87 19.06C128.98 19.06 129.09 19.02 129.19 18.96C129.65 18.65 130.17 18.53 130.70 18.53C131.60 18.53 132.18 18.97 132.18 19.66L132.18 19.88L130.04 19.88C128.96 19.88 127.69 20.35 127.69 21.93C127.69 23.44 128.96 24.17 130.04 24.17C131.06 24.17 131.72 23.92 132.18 23.37C132.18 23.68 132.48 24.08 132.95 24.08L133.09 24.08C133.57 24.08 133.96 23.69 133.96 23.20ZM132.18 21.09L132.18 21.40C132.18 22.49 131.33 22.96 130.76 22.96C130.06 22.96 129.48 22.60 129.48 21.97C129.48 21.31 130.06 21.09 130.76 21.09ZM141.30 22.92C141.30 22.46 140.88 22.15 140.44 22.15C140.28 22.15 140.12 22.19 139.97 22.29C139.66 22.49 139.32 22.59 138.96 22.59C137.88 22.59 137.13 21.79 137.13 20.61C137.13 19.44 137.88 18.65 138.96 18.65C139.31 18.65 139.66 18.75 139.95 18.93C140.11 19.03 140.28 19.07 140.44 19.07C140.84 19.07 141.28 18.79 141.28 18.32C141.28 18.20 141.26 18.09 141.20 17.99C140.91 17.45 139.93 17.07 138.88 17.07C136.79 17.07 135.29 18.54 135.29 20.61C135.29 22.70 136.79 24.17 138.88 24.17C139.83 24.17 140.53 23.89 141.02 23.50C141.20 23.36 141.30 23.13 141.30 22.92ZM146.41 23.36C146.41 22.92 146.13 22.59 145.62 22.59L145.47 22.59C145.19 22.59 144.85 22.38 144.85 21.84L144.85 18.79L145.55 18.79C145.96 18.79 146.31 18.44 146.31 18.02C146.31 17.59 145.96 17.24 145.55 17.24L144.85 17.24L144.85 16.19C144.85 15.70 144.46 15.31 143.97 15.31C143.45 15.31 143.06 15.70 143.06 16.19L143.06 17.24L142.63 17.24C142.21 17.24 141.86 17.59 141.86 17.99C141.86 18.44 142.21 18.79 142.63 18.79L143.06 18.79L143.06 22.32C143.06 23.52 143.73 24.17 144.98 24.17C146.14 24.17 146.41 23.80 146.41 23.36ZM150.96 14.90C150.96 14.58 150.71 14.30 150.36 14.30C150.08 14.30 149.84 14.47 149.75 14.72L146.80 23.58C146.77 23.65 146.76 23.71 146.76 23.78C146.76 24.10 147.02 24.36 147.37 24.36C147.64 24.36 147.89 24.21 147.98 23.94L150.93 15.08C150.94 15.03 150.96 14.96 150.96 14.90ZM156.07 17.91C156.07 17.50 155.80 17.18 155.28 17.18C154.61 17.18 154.16 17.71 153.83 18.16L153.83 18.02C153.83 17.55 153.44 17.15 152.96 17.15C152.44 17.15 152.05 17.55 152.05 18.02L152.05 23.20C152.05 23.69 152.44 24.08 152.93 24.08L152.96 24.08C153.44 24.08 153.83 23.69 153.83 23.20L153.83 20.37C153.83 19.25 154.67 18.89 155.21 18.82C155.70 18.75 156.07 18.44 156.07 17.91ZM163.81 20.61C163.81 18.69 162.47 17.07 160.23 17.07C158 17.07 156.66 18.69 156.66 20.61C156.66 22.54 158 24.17 160.23 24.17C162.47 24.17 163.81 22.54 163.81 20.61ZM161.96 20.61C161.96 21.68 161.33 22.59 160.23 22.59C159.12 22.59 158.50 21.68 158.50 20.61C158.50 19.56 159.12 18.65 160.23 18.65C161.33 18.65 161.96 19.56 161.96 20.61ZM165.13 21.59C165.13 22.91 166.26 24.17 167.74 24.17C168.81 24.17 169.45 23.62 169.69 23.20L169.69 23.22C169.69 23.69 170.08 24.08 170.56 24.08C171.08 24.08 171.47 23.69 171.47 23.22L171.47 18.04C171.47 17.55 171.08 17.15 170.59 17.15C170.08 17.15 169.69 17.55 169.69 18.04L169.69 21.02C169.69 21.98 168.99 22.59 168.29 22.59C167.53 22.59 166.90 21.98 166.90 21.05L166.90 18.04C166.90 17.55 166.51 17.15 166.02 17.15C165.52 17.15 165.13 17.55 165.13 18.04ZM179.57 19.65C179.57 18.33 178.44 17.07 176.96 17.07C175.92 17.07 175.28 17.62 175.01 18.04L175.01 18.02C175.01 17.55 174.62 17.15 174.14 17.15C173.62 17.15 173.23 17.55 173.23 18.02L173.23 23.20C173.23 23.69 173.62 24.08 174.11 24.08C174.62 24.08 175.01 23.69 175.01 23.20L175.01 20.22C175.01 19.25 175.71 18.65 176.41 18.65C177.17 18.65 177.80 19.25 177.80 20.19L177.80 23.20C177.80 23.69 178.19 24.08 178.68 24.08C179.18 24.08 179.57 23.69 179.57 23.20ZM180.92 20.63C180.92 22.88 182.35 24.17 184.05 24.17C184.87 24.17 185.61 23.80 186 23.13L186 23.20C186 23.69 186.39 24.08 186.90 24.08C187.39 24.08 187.78 23.69 187.78 23.20L187.78 15.45C187.78 14.97 187.39 14.58 186.87 14.58C186.39 14.58 186 14.97 186 15.45L186 18.11C185.61 17.42 184.85 17.07 184.05 17.07C182.33 17.07 180.92 18.41 180.92 20.63ZM182.75 20.63C182.75 19.45 183.44 18.65 184.47 18.65C185.19 18.65 186 19.41 186 20.56L186 20.71C186 21.84 185.19 22.59 184.47 22.59C183.44 22.59 182.75 21.80 182.75 20.63ZM192.52 20.60C192.52 20.19 192.19 19.86 191.78 19.86L189.74 19.86C189.33 19.86 189.00 20.19 189.00 20.60C189.00 21.03 189.33 21.37 189.74 21.37L191.78 21.37C192.19 21.37 192.52 21.03 192.52 20.60ZM198.01 15.35C198.01 14.87 197.38 14.52 196.42 14.52C195.06 14.52 194.13 15.43 194.13 16.87L194.13 17.24L193.70 17.24C193.28 17.24 192.93 17.59 192.93 17.99C192.93 18.44 193.28 18.79 193.70 18.79L194.13 18.79L194.13 23.20C194.13 23.69 194.53 24.08 195.02 24.08C195.53 24.08 195.93 23.69 195.93 23.20L195.93 18.79L196.63 18.79C197.03 18.79 197.38 18.44 197.38 18.02C197.38 17.59 197.03 17.24 196.63 17.24L195.93 17.24L195.93 16.87C195.93 16.24 196.28 15.92 196.77 15.92C197.07 15.92 197.20 16.02 197.41 16.02C197.69 16.02 198.01 15.80 198.01 15.35ZM199.20 14.40C198.63 14.40 198.14 14.86 198.14 15.45C198.14 16.03 198.63 16.51 199.20 16.51C199.79 16.51 200.27 16.03 200.27 15.45C200.27 14.86 199.79 14.40 199.20 14.40ZM200.10 18.02C200.10 17.55 199.71 17.15 199.23 17.15C198.71 17.15 198.32 17.55 198.32 18.02L198.32 23.20C198.32 23.69 198.71 24.08 199.20 24.08C199.71 24.08 200.10 23.69 200.10 23.20ZM203.64 15.45C203.64 14.97 203.25 14.58 202.77 14.58C202.25 14.58 201.86 14.97 201.86 15.45L201.86 23.20C201.86 23.69 202.25 24.08 202.74 24.08C203.25 24.08 203.64 23.69 203.64 23.20ZM207.18 15.45C207.18 14.97 206.79 14.58 206.31 14.58C205.80 14.58 205.40 14.97 205.40 15.45L205.40 23.20C205.40 23.69 205.80 24.08 206.29 24.08C206.79 24.08 207.18 23.69 207.18 23.20ZM215.37 20.40C215.37 20.07 215.27 19.66 215.18 19.35C214.70 17.95 213.54 17.07 212.01 17.07C209.95 17.07 208.51 18.65 208.51 20.61C208.51 22.78 210.07 24.17 212.12 24.17C213.16 24.17 214.66 23.78 214.74 22.98C214.78 22.56 214.36 22.26 213.99 22.26C213.87 22.26 213.75 22.29 213.64 22.35C213.22 22.57 212.70 22.75 212.32 22.75C211.17 22.75 210.49 22.07 210.37 21.21L214.55 21.21C215.01 21.21 215.37 20.84 215.37 20.40ZM210.35 20.01C210.43 19.34 210.91 18.48 212.01 18.48C213.19 18.48 213.64 19.37 213.68 20.01ZM216.27 20.63C216.27 22.88 217.70 24.17 219.40 24.17C220.22 24.17 220.96 23.80 221.35 23.13L221.35 23.20C221.35 23.69 221.74 24.08 222.25 24.08C222.74 24.08 223.13 23.69 223.13 23.20L223.13 15.45C223.13 14.97 222.74 14.58 222.22 14.58C221.74 14.58 221.35 14.97 221.35 15.45L221.35 18.11C220.96 17.42 220.20 17.07 219.40 17.07C217.68 17.07 216.27 18.41 216.27 20.63ZM218.10 20.63C218.10 19.45 218.79 18.65 219.82 18.65C220.54 18.65 221.35 19.41 221.35 20.56L221.35 20.71C221.35 21.84 220.54 22.59 219.82 22.59C218.79 22.59 218.10 21.80 218.10 20.63ZM227.87 20.60C227.87 20.19 227.54 19.86 227.13 19.86L225.09 19.86C224.68 19.86 224.35 20.19 224.35 20.60C224.35 21.03 224.68 21.37 225.09 21.37L227.13 21.37C227.54 21.37 227.87 21.03 227.87 20.60ZM233.11 17.91C233.11 17.50 232.84 17.18 232.33 17.18C231.65 17.18 231.21 17.71 230.87 18.16L230.87 18.02C230.87 17.55 230.48 17.15 230.00 17.15C229.48 17.15 229.09 17.55 229.09 18.02L229.09 23.20C229.09 23.69 229.48 24.08 229.97 24.08L230.00 24.08C230.48 24.08 230.87 23.69 230.87 23.20L230.87 20.37C230.87 19.25 231.71 18.89 232.26 18.82C232.75 18.75 233.11 18.44 233.11 17.91ZM239.97 19.63C239.97 17.69 238.56 17.07 237.02 17.07C236.23 17.07 234.72 17.35 234.30 18.02C234.24 18.12 234.20 18.25 234.20 18.37C234.20 18.79 234.55 19.06 234.87 19.06C234.99 19.06 235.10 19.02 235.20 18.96C235.66 18.65 236.18 18.53 236.71 18.53C237.60 18.53 238.19 18.97 238.19 19.66L238.19 19.88L236.05 19.88C234.97 19.88 233.70 20.35 233.70 21.93C233.70 23.44 234.97 24.17 236.05 24.17C237.07 24.17 237.73 23.92 238.19 23.37C238.19 23.68 238.49 24.08 238.96 24.08L239.10 24.08C239.58 24.08 239.97 23.69 239.97 23.20ZM238.19 21.09L238.19 21.40C238.19 22.49 237.34 22.96 236.76 22.96C236.06 22.96 235.49 22.60 235.49 21.97C235.49 21.31 236.06 21.09 236.76 21.09ZM243.76 23.02C243.76 22.40 243.25 21.89 242.63 21.89C242.01 21.89 241.51 22.40 241.51 23.02C241.51 23.62 242.01 24.14 242.63 24.14C243.25 24.14 243.76 23.62 243.76 23.02ZM247.35 23.02C247.35 22.40 246.83 21.89 246.21 21.89C245.60 21.89 245.09 22.40 245.09 23.02C245.09 23.62 245.60 24.14 246.21 24.14C246.83 24.14 247.35 23.62 247.35 23.02ZM250.93 23.02C250.93 22.40 250.41 21.89 249.80 21.89C249.18 21.89 248.68 22.40 248.68 23.02C248.68 23.62 249.18 24.14 249.80 24.14C250.41 24.14 250.93 23.62 250.93 23.02Z" fill="#e6edf3" /><path d="M358.65 21.63C358.75 20.07 357.70 19.53 357.70 19.53C357.70 19.53 358.66 19.03 358.55 17.55C358.45 16.11 357.31 15.20 355.28 15.20C354.08 15.20 353.15 15.55 352.43 16.12C352.25 16.27 352.16 16.47 352.16 16.68C352.16 17.14 352.56 17.46 352.96 17.46C353.12 17.46 353.28 17.42 353.41 17.33C353.91 17.01 354.49 16.84 355.08 16.84C355.99 16.84 356.69 17.04 356.69 17.73C356.69 18.45 356.27 18.79 355.40 18.79C354.77 18.79 354.50 19.14 354.50 19.59C354.50 20.05 354.77 20.41 355.45 20.41C356.33 20.41 356.84 20.72 356.84 21.41C356.84 22.06 356.25 22.52 355.20 22.52C354.60 22.52 353.91 22.31 353.34 21.97C353.20 21.88 353.04 21.84 352.89 21.84C352.46 21.84 352.04 22.19 352.04 22.66C352.04 22.79 352.08 22.91 352.15 23.01C352.55 23.69 354.02 24.16 355.26 24.16C357.35 24.16 358.54 23.26 358.65 21.63ZM359.61 18.16C359.61 20.01 361.00 20.98 362.56 20.98C363.64 20.98 364.44 20.45 364.78 19.87C364.79 19.93 364.79 19.98 364.79 20.05C364.79 21.43 363.90 22.50 362.62 22.50C362.18 22.50 361.82 22.43 361.49 22.26C361.38 22.19 361.25 22.17 361.12 22.17C360.71 22.17 360.27 22.48 360.27 22.97C360.27 23.10 360.31 23.22 360.36 23.32C360.69 23.90 361.78 24.14 362.62 24.14C365.18 24.14 366.67 22.28 366.67 19.66C366.67 17.21 365.56 15.19 362.92 15.19C360.95 15.19 359.61 16.47 359.61 18.16ZM361.48 18.10C361.48 17.45 361.96 16.82 362.96 16.82C363.78 16.82 364.39 17.38 364.39 18.19C364.39 18.97 363.77 19.53 362.96 19.53C362.13 19.53 361.48 18.97 361.48 18.10ZM367.51 18.16C367.51 20.01 368.90 20.98 370.46 20.98C371.54 20.98 372.35 20.45 372.69 19.87C372.70 19.93 372.70 19.98 372.70 20.05C372.70 21.43 371.80 22.50 370.53 22.50C370.08 22.50 369.72 22.43 369.40 22.26C369.28 22.19 369.15 22.17 369.02 22.17C368.62 22.17 368.17 22.48 368.17 22.97C368.17 23.10 368.21 23.22 368.26 23.32C368.59 23.90 369.68 24.14 370.53 24.14C373.09 24.14 374.57 22.28 374.57 19.66C374.57 17.21 373.46 15.19 370.83 15.19C368.85 15.19 367.51 16.47 367.51 18.16ZM369.38 18.10C369.38 17.45 369.86 16.82 370.87 16.82C371.68 16.82 372.29 17.38 372.29 18.19C372.29 18.97 371.67 19.53 370.87 19.53C370.03 19.53 369.38 18.97 369.38 18.10ZM377.55 23.36C377.55 22.52 376.99 22.04 376.38 22.04C375.83 22.04 375.36 22.50 375.36 23.08C375.36 23.64 375.75 24.01 376.25 24.01C376.34 24.01 376.45 23.99 376.49 23.97C376.42 24.31 376.13 24.71 375.79 24.99C375.70 25.07 375.66 25.17 375.66 25.27C375.66 25.53 375.93 25.69 376.16 25.69C376.29 25.69 376.40 25.65 376.49 25.56C377.14 24.98 377.55 24.20 377.55 23.36ZM385.29 23.17C385.29 22.74 384.93 22.38 384.50 22.38L381.68 22.38C383.93 20.74 385.15 19.45 385.15 17.97C385.15 16.24 383.68 15.20 381.84 15.20C380.74 15.20 379.29 15.67 378.87 16.33C378.79 16.45 378.76 16.58 378.76 16.71C378.76 17.18 379.13 17.54 379.56 17.54C379.76 17.54 379.93 17.49 380.09 17.37C380.59 17.03 381.19 16.84 381.88 16.84C382.59 16.84 383.28 17.21 383.28 17.97C383.28 18.98 382.24 19.93 379.00 22.32C378.76 22.50 378.61 22.80 378.61 23.10C378.61 23.62 379.03 24 379.48 24L384.50 24C384.93 24 385.29 23.64 385.29 23.17ZM393.50 19.67C393.50 17.43 392.38 15.20 389.91 15.20C387.43 15.20 386.32 17.43 386.32 19.67C386.32 21.91 387.43 24.16 389.91 24.16C392.38 24.16 393.50 21.91 393.50 19.67ZM391.61 19.67C391.61 21.27 391.14 22.52 389.91 22.52C388.66 22.52 388.19 21.27 388.19 19.67C388.19 18.07 388.66 16.84 389.91 16.84C391.14 16.84 391.61 18.07 391.61 19.67ZM401.56 19.67C401.56 17.43 400.44 15.20 397.97 15.20C395.49 15.20 394.38 17.43 394.38 19.67C394.38 21.91 395.49 24.16 397.97 24.16C400.44 24.16 401.56 21.91 401.56 19.67ZM399.67 19.67C399.67 21.27 399.20 22.52 397.97 22.52C396.72 22.52 396.25 21.27 396.25 19.67C396.25 18.07 396.72 16.84 397.97 16.84C399.20 16.84 399.67 18.07 399.67 19.67Z" fill="#9aa7b4" /><path transform="translate(334.59, 12)" d="M6 1 L6 7.5 M3 5 L6 8 L9 5 M2 10.5 L10 10.5" fill="none" stroke="#9aa7b4" stroke-width="1.4" stroke-linecap="round" stroke-linejoin="round" /><path d="M25.64 39.44C25.64 39.36 25.63 39.29 25.60 39.21L22.94 32.56C22.79 32.16 22.39 31.91 21.97 31.92C21.55 31.92 21.17 32.18 21.02 32.56L18.37 39.21C18.35 39.29 18.34 39.36 18.34 39.44C18.34 39.76 18.60 40.07 18.97 40.07C19.22 40.07 19.45 39.93 19.55 39.69L20.08 38.33L23.90 38.33L24.43 39.69C24.53 39.93 24.76 40.07 25.01 40.07C25.39 40.07 25.64 39.74 25.64 39.44ZM21.98 33.21L23.57 37.29L20.41 37.29ZM34.55 39.12C34.55 38.85 34.30 38.66 34.04 38.66C33.92 38.66 33.80 38.69 33.71 38.76C33.38 39.05 33.01 39.20 32.58 39.20C31.43 39.20 30.68 38.31 30.68 37.10C30.68 35.88 31.43 35.01 32.58 35.01C33 35.01 33.38 35.14 33.71 35.43C33.80 35.51 33.92 35.56 34.04 35.56C34.31 35.56 34.54 35.34 34.54 35.08C34.54 34.98 34.51 34.90 34.45 34.83C34.06 34.37 33.41 34.06 32.52 34.06C30.78 34.06 29.58 35.37 29.58 37.10C29.58 38.84 30.78 40.14 32.52 40.14C33.38 40.14 33.97 39.86 34.40 39.44C34.50 39.35 34.55 39.23 34.55 39.12ZM41.38 37.10C41.38 35.43 40.26 34.06 38.45 34.06C36.65 34.06 35.53 35.43 35.53 37.10C35.53 38.76 36.65 40.14 38.45 40.14C40.26 40.14 41.38 38.76 41.38 37.10ZM40.26 37.10C40.26 38.21 39.61 39.20 38.45 39.20C37.30 39.20 36.64 38.21 36.64 37.10C36.64 35.99 37.30 35.01 38.45 35.01C39.61 35.01 40.26 35.99 40.26 37.10ZM43.82 32.44C43.82 32.16 43.58 31.92 43.31 31.92C43.00 31.92 42.76 32.16 42.76 32.44L42.76 39.54C42.76 39.83 43.00 40.07 43.28 40.07C43.58 40.07 43.82 39.83 43.82 39.54ZM46.62 32.44C46.62 32.16 46.38 31.92 46.10 31.92C45.79 31.92 45.55 32.16 45.55 32.44L45.55 39.54C45.55 39.83 45.79 40.07 46.08 40.07C46.38 40.07 46.62 39.83 46.62 39.54ZM53.70 36.90C53.70 36.68 53.64 36.42 53.59 36.23C53.26 34.94 52.30 34.06 50.89 34.06C49.21 34.06 48.00 35.42 48.00 37.10C48.00 38.92 49.26 40.14 50.99 40.14C51.84 40.14 53.33 39.70 53.33 39.05C53.33 38.64 52.92 38.55 52.66 38.68C52.24 38.99 51.59 39.28 51.10 39.28C49.92 39.28 49.20 38.48 49.12 37.48L53.15 37.48C53.45 37.48 53.70 37.19 53.70 36.90ZM49.12 36.69C49.16 35.88 49.73 34.92 50.88 34.92C52.12 34.92 52.64 35.91 52.67 36.69ZM59.69 39.12C59.69 38.85 59.44 38.66 59.18 38.66C59.06 38.66 58.94 38.69 58.85 38.76C58.52 39.05 58.15 39.20 57.72 39.20C56.57 39.20 55.82 38.31 55.82 37.10C55.82 35.88 56.57 35.01 57.72 35.01C58.14 35.01 58.52 35.14 58.85 35.43C58.94 35.51 59.06 35.56 59.18 35.56C59.45 35.56 59.68 35.34 59.68 35.08C59.68 34.98 59.65 34.90 59.59 34.83C59.20 34.37 58.55 34.06 57.66 34.06C55.92 34.06 54.72 35.37 54.72 37.10C54.72 38.84 55.92 40.14 57.66 40.14C58.52 40.14 59.11 39.86 59.54 39.44C59.64 39.35 59.69 39.23 59.69 39.12ZM63.72 39.58C63.72 39.33 63.53 39.14 63.26 39.14C63.14 39.14 63.00 39.20 62.87 39.20C62.52 39.20 62.30 38.92 62.30 38.48L62.30 35.14L63.10 35.14C63.35 35.14 63.55 34.94 63.55 34.68C63.55 34.41 63.35 34.20 63.10 34.20L62.30 34.20L62.30 33.06C62.30 32.79 62.06 32.55 61.78 32.55C61.46 32.55 61.22 32.79 61.22 33.06L61.22 34.20L60.66 34.20C60.40 34.20 60.19 34.41 60.19 34.66C60.19 34.94 60.40 35.14 60.66 35.14L61.22 35.14L61.22 38.73C61.22 39.64 61.70 40.14 62.62 40.14C63.25 40.14 63.72 39.96 63.72 39.58ZM65.22 32.06C64.85 32.06 64.54 32.37 64.54 32.75C64.54 33.12 64.85 33.44 65.22 33.44C65.60 33.44 65.90 33.12 65.90 32.75C65.90 32.37 65.60 32.06 65.22 32.06ZM65.76 34.65C65.76 34.37 65.52 34.13 65.24 34.13C64.93 34.13 64.69 34.37 64.69 34.65L64.69 39.54C64.69 39.83 64.93 40.07 65.22 40.07C65.52 40.07 65.76 39.83 65.76 39.54ZM72.98 37.10C72.98 35.43 71.87 34.06 70.06 34.06C68.26 34.06 67.14 35.43 67.14 37.10C67.14 38.76 68.26 40.14 70.06 40.14C71.87 40.14 72.98 38.76 72.98 37.10ZM71.87 37.10C71.87 38.21 71.22 39.20 70.06 39.20C68.90 39.20 68.24 38.21 68.24 37.10C68.24 35.99 68.90 35.01 70.06 35.01C71.22 35.01 71.87 35.99 71.87 37.10ZM79.34 36.28C79.34 35.06 78.46 34.06 77.23 34.06C76.22 34.06 75.71 34.55 75.43 35.02L75.43 34.65C75.43 34.37 75.19 34.13 74.92 34.13C74.60 34.13 74.36 34.37 74.36 34.65L74.36 39.54C74.36 39.83 74.60 40.07 74.89 40.07C75.19 40.07 75.43 39.83 75.43 39.54L75.43 36.76C75.43 35.78 75.96 35.01 76.88 35.01C77.75 35.01 78.28 35.68 78.28 36.64L78.28 39.54C78.28 39.83 78.52 40.07 78.80 40.07C79.10 40.07 79.34 39.83 79.34 39.54ZM89.65 37.10C89.65 35.43 88.54 34.06 86.72 34.06C84.92 34.06 83.81 35.43 83.81 37.10C83.81 38.76 84.92 40.14 86.72 40.14C88.54 40.14 89.65 38.76 89.65 37.10ZM88.54 37.10C88.54 38.21 87.89 39.20 86.72 39.20C85.57 39.20 84.91 38.21 84.91 37.10C84.91 35.99 85.57 35.01 86.72 35.01C87.89 35.01 88.54 35.99 88.54 37.10ZM94.27 32.46C94.27 32.06 93.58 31.88 93.06 31.88C91.99 31.88 91.31 32.60 91.31 33.80L91.31 34.20L90.73 34.20C90.48 34.20 90.28 34.41 90.28 34.66C90.28 34.94 90.48 35.14 90.73 35.14L91.31 35.14L91.31 39.54C91.31 39.83 91.55 40.07 91.84 40.07C92.14 40.07 92.38 39.83 92.38 39.54L92.38 35.14L93.17 35.14C93.42 35.14 93.62 34.94 93.62 34.68C93.62 34.41 93.42 34.20 93.17 34.20L92.38 34.20L92.38 33.80C92.38 33.11 92.69 32.74 93.24 32.74C93.49 32.74 93.67 32.88 93.86 32.88C94.07 32.88 94.27 32.73 94.27 32.46ZM100.70 34.60C100.70 34.32 100.50 34.12 100.22 34.12C99.58 34.12 99.05 34.66 98.72 35.10L98.72 34.65C98.72 34.37 98.48 34.13 98.21 34.13C97.90 34.13 97.66 34.37 97.66 34.65L97.66 39.54C97.66 39.83 97.88 40.06 98.17 40.07L98.18 40.07C98.48 40.07 98.72 39.83 98.72 39.54L98.72 36.57C98.72 35.81 99.25 35.21 100.16 35.16C100.46 35.15 100.70 34.91 100.70 34.60ZM107.21 37.10C107.21 35.43 106.09 34.06 104.28 34.06C102.48 34.06 101.36 35.43 101.36 37.10C101.36 38.76 102.48 40.14 104.28 40.14C106.09 40.14 107.21 38.76 107.21 37.10ZM106.09 37.10C106.09 38.21 105.44 39.20 104.28 39.20C103.13 39.20 102.47 38.21 102.47 37.10C102.47 35.99 103.13 35.01 104.28 35.01C105.44 35.01 106.09 35.99 106.09 37.10ZM113.58 34.65C113.58 34.37 113.34 34.13 113.06 34.13C112.75 34.13 112.51 34.37 112.51 34.65L112.51 37.41C112.51 38.39 111.89 39.20 111.02 39.20C110.16 39.20 109.67 38.54 109.67 37.58L109.67 34.65C109.67 34.37 109.43 34.13 109.15 34.13C108.84 34.13 108.60 34.37 108.60 34.65L108.60 37.95C108.60 39.17 109.46 40.14 110.69 40.14C111.70 40.14 112.20 39.70 112.51 39.21L112.51 39.54C112.51 39.83 112.75 40.07 113.04 40.07C113.34 40.07 113.58 39.83 113.58 39.54ZM120.28 36.28C120.28 35.06 119.39 34.06 118.16 34.06C117.16 34.06 116.64 34.55 116.36 35.02L116.36 34.65C116.36 34.37 116.12 34.13 115.85 34.13C115.54 34.13 115.30 34.37 115.30 34.65L115.30 39.54C115.30 39.83 115.54 40.07 115.82 40.07C116.12 40.07 116.36 39.83 116.36 39.54L116.36 36.76C116.36 35.78 116.89 35.01 117.82 35.01C118.68 35.01 119.21 35.68 119.21 36.64L119.21 39.54C119.21 39.83 119.45 40.07 119.74 40.07C120.04 40.07 120.28 39.83 120.28 39.54ZM127.21 32.44C127.21 32.16 126.97 31.92 126.70 31.92C126.38 31.92 126.14 32.16 126.14 32.44L126.14 35.04C125.68 34.42 125.11 34.06 124.24 34.06C122.72 34.06 121.66 35.25 121.66 37.11C121.66 39.00 122.74 40.14 124.24 40.14C125.14 40.14 125.70 39.75 126.14 39.17L126.14 39.54C126.14 39.83 126.38 40.07 126.67 40.07C126.97 40.07 127.21 39.83 127.21 39.54ZM126.14 37.14C126.14 38.34 125.54 39.20 124.51 39.20C123.43 39.20 122.76 38.32 122.76 37.11C122.76 35.90 123.43 35.01 124.51 35.01C125.54 35.01 126.14 35.88 126.14 37.07ZM135.26 32.46C135.26 32.06 134.57 31.88 134.05 31.88C132.98 31.88 132.30 32.60 132.30 33.80L132.30 34.20L131.72 34.20C131.47 34.20 131.27 34.41 131.27 34.66C131.27 34.94 131.47 35.14 131.72 35.14L132.30 35.14L132.30 39.54C132.30 39.83 132.54 40.07 132.83 40.07C133.13 40.07 133.37 39.83 133.37 39.54L133.37 35.14L134.16 35.14C134.41 35.14 134.62 34.94 134.62 34.68C134.62 34.41 134.41 34.20 134.16 34.20L133.37 34.20L133.37 33.80C133.37 33.11 133.68 32.74 134.23 32.74C134.48 32.74 134.66 32.88 134.86 32.88C135.06 32.88 135.26 32.73 135.26 32.46ZM136.09 32.06C135.72 32.06 135.41 32.37 135.41 32.75C135.41 33.12 135.72 33.44 136.09 33.44C136.48 33.44 136.78 33.12 136.78 32.75C136.78 32.37 136.48 32.06 136.09 32.06ZM136.63 34.65C136.63 34.37 136.39 34.13 136.12 34.13C135.80 34.13 135.56 34.37 135.56 34.65L135.56 39.54C135.56 39.83 135.80 40.07 136.09 40.07C136.39 40.07 136.63 39.83 136.63 39.54ZM139.43 32.44C139.43 32.16 139.19 31.92 138.91 31.92C138.60 31.92 138.36 32.16 138.36 32.44L138.36 39.54C138.36 39.83 138.60 40.07 138.89 40.07C139.19 40.07 139.43 39.83 139.43 39.54ZM142.22 32.44C142.22 32.16 141.98 31.92 141.71 31.92C141.40 31.92 141.16 32.16 141.16 32.44L141.16 39.54C141.16 39.83 141.40 40.07 141.68 40.07C141.98 40.07 142.22 39.83 142.22 39.54ZM149.30 36.90C149.30 36.68 149.24 36.42 149.20 36.23C148.86 34.94 147.90 34.06 146.50 34.06C144.82 34.06 143.60 35.42 143.60 37.10C143.60 38.92 144.86 40.14 146.59 40.14C147.44 40.14 148.93 39.70 148.93 39.05C148.93 38.64 148.52 38.55 148.26 38.68C147.84 38.99 147.19 39.28 146.70 39.28C145.52 39.28 144.80 38.48 144.72 37.48L148.75 37.48C149.05 37.48 149.30 37.19 149.30 36.90ZM144.72 36.69C144.77 35.88 145.33 34.92 146.48 34.92C147.72 34.92 148.25 35.91 148.27 36.69ZM155.88 32.44C155.88 32.16 155.64 31.92 155.36 31.92C155.05 31.92 154.81 32.16 154.81 32.44L154.81 35.04C154.34 34.42 153.78 34.06 152.90 34.06C151.39 34.06 150.32 35.25 150.32 37.11C150.32 39.00 151.40 40.14 152.90 40.14C153.80 40.14 154.37 39.75 154.81 39.17L154.81 39.54C154.81 39.83 155.05 40.07 155.34 40.07C155.64 40.07 155.88 39.83 155.88 39.54ZM154.81 37.14C154.81 38.34 154.21 39.20 153.18 39.20C152.10 39.20 151.43 38.32 151.43 37.11C151.43 35.90 152.10 35.01 153.18 35.01C154.21 35.01 154.81 35.88 154.81 37.07ZM166.64 34.46C166.64 32.97 165.60 32.00 164.09 32.00L161.51 32.00C161.08 32.00 160.73 32.34 160.73 32.78L160.73 39.48C160.73 39.81 160.99 40.07 161.32 40.07C161.65 40.07 161.92 39.81 161.92 39.48L161.92 36.92L163.66 36.92L165.46 39.80C165.56 39.98 165.74 40.07 165.94 40.07C166.28 40.07 166.52 39.78 166.52 39.50C166.52 39.40 166.50 39.30 166.44 39.20L164.92 36.83C165.80 36.60 166.64 35.88 166.64 34.46ZM161.92 35.87L161.92 33.05L163.93 33.05C164.81 33.05 165.42 33.62 165.42 34.46C165.42 35.30 164.81 35.87 163.93 35.87ZM173.09 36.90C173.09 36.68 173.03 36.42 172.98 36.23C172.64 34.94 171.68 34.06 170.28 34.06C168.60 34.06 167.39 35.42 167.39 37.10C167.39 38.92 168.65 40.14 170.38 40.14C171.23 40.14 172.72 39.70 172.72 39.05C172.72 38.64 172.31 38.55 172.04 38.68C171.62 38.99 170.98 39.28 170.48 39.28C169.31 39.28 168.59 38.48 168.50 37.48L172.54 37.48C172.84 37.48 173.09 37.19 173.09 36.90ZM168.50 36.69C168.55 35.88 169.12 34.92 170.27 34.92C171.50 34.92 172.03 35.91 172.06 36.69ZM179.11 36.08C179.11 34.60 178.03 34.06 176.78 34.06C176.00 34.06 175.13 34.31 174.58 34.86C174.50 34.95 174.47 35.04 174.47 35.14C174.47 35.39 174.70 35.56 174.91 35.56C175.00 35.56 175.09 35.52 175.18 35.46C175.61 35.13 176.09 34.96 176.63 34.96C177.44 34.96 178.04 35.39 178.04 36.12L178.04 36.45L176.38 36.45C175.18 36.45 174.12 36.92 174.12 38.22C174.12 39.50 175.18 40.14 176.14 40.14C177.04 40.14 177.58 39.87 178.04 39.35L178.04 39.54C178.04 39.89 178.32 40.07 178.54 40.07L178.57 40.07C178.87 40.07 179.11 39.83 179.11 39.54ZM178.04 37.19L178.04 38.01C178.04 38.69 177.26 39.39 176.42 39.39C175.64 39.39 175.20 38.92 175.20 38.25C175.20 37.55 175.75 37.19 176.66 37.19ZM185.45 39.12C185.45 38.85 185.20 38.66 184.94 38.66C184.82 38.66 184.70 38.69 184.61 38.76C184.28 39.05 183.91 39.20 183.48 39.20C182.33 39.20 181.58 38.31 181.58 37.10C181.58 35.88 182.33 35.01 183.48 35.01C183.90 35.01 184.28 35.14 184.61 35.43C184.70 35.51 184.82 35.56 184.94 35.56C185.21 35.56 185.44 35.34 185.44 35.08C185.44 34.98 185.41 34.90 185.35 34.83C184.96 34.37 184.31 34.06 183.42 34.06C181.68 34.06 180.48 35.37 180.48 37.10C180.48 38.84 181.68 40.14 183.42 40.14C184.28 40.14 184.87 39.86 185.30 39.44C185.40 39.35 185.45 39.23 185.45 39.12ZM189.48 39.58C189.48 39.33 189.29 39.14 189.02 39.14C188.90 39.14 188.76 39.20 188.63 39.20C188.28 39.20 188.06 38.92 188.06 38.48L188.06 35.14L188.86 35.14C189.11 35.14 189.31 34.94 189.31 34.68C189.31 34.41 189.11 34.20 188.86 34.20L188.06 34.20L188.06 33.06C188.06 32.79 187.82 32.55 187.54 32.55C187.22 32.55 186.98 32.79 186.98 33.06L186.98 34.20L186.42 34.20C186.16 34.20 185.95 34.41 185.95 34.66C185.95 34.94 186.16 35.14 186.42 35.14L186.98 35.14L186.98 38.73C186.98 39.64 187.46 40.14 188.38 40.14C189.01 40.14 189.48 39.96 189.48 39.58ZM194.06 32.06C193.69 32.06 193.38 32.37 193.38 32.75C193.38 33.12 193.69 33.44 194.06 33.44C194.45 33.44 194.75 33.12 194.75 32.75C194.75 32.37 194.45 32.06 194.06 32.06ZM194.60 34.65C194.60 34.37 194.36 34.13 194.09 34.13C193.78 34.13 193.54 34.37 193.54 34.65L193.54 39.54C193.54 39.83 193.78 40.07 194.06 40.07C194.36 40.07 194.60 39.83 194.60 39.54ZM200.95 39.12C200.95 38.85 200.70 38.66 200.45 38.66C200.33 38.66 200.21 38.69 200.11 38.76C199.79 39.05 199.42 39.20 198.98 39.20C197.83 39.20 197.09 38.31 197.09 37.10C197.09 35.88 197.83 35.01 198.98 35.01C199.40 35.01 199.79 35.14 200.11 35.43C200.21 35.51 200.33 35.56 200.45 35.56C200.71 35.56 200.94 35.34 200.94 35.08C200.94 34.98 200.92 34.90 200.86 34.83C200.46 34.37 199.81 34.06 198.92 34.06C197.18 34.06 195.98 35.37 195.98 37.10C195.98 38.84 197.18 40.14 198.92 40.14C199.79 40.14 200.38 39.86 200.81 39.44C200.90 39.35 200.95 39.23 200.95 39.12ZM207.78 37.10C207.78 35.43 206.66 34.06 204.85 34.06C203.05 34.06 201.94 35.43 201.94 37.10C201.94 38.76 203.05 40.14 204.85 40.14C206.66 40.14 207.78 38.76 207.78 37.10ZM206.66 37.10C206.66 38.21 206.02 39.20 204.85 39.20C203.70 39.20 203.04 38.21 203.04 37.10C203.04 35.99 203.70 35.01 204.85 35.01C206.02 35.01 206.66 35.99 206.66 37.10ZM214.14 36.28C214.14 35.06 213.25 34.06 212.03 34.06C211.02 34.06 210.50 34.55 210.23 35.02L210.23 34.65C210.23 34.37 209.99 34.13 209.71 34.13C209.40 34.13 209.16 34.37 209.16 34.65L209.16 39.54C209.16 39.83 209.40 40.07 209.69 40.07C209.99 40.07 210.23 39.83 210.23 39.54L210.23 36.76C210.23 35.78 210.76 35.01 211.68 35.01C212.54 35.01 213.07 35.68 213.07 36.64L213.07 39.54C213.07 39.83 213.31 40.07 213.60 40.07C213.90 40.07 214.14 39.83 214.14 39.54ZM220.12 38.25C220.01 36.21 216.68 36.77 216.56 35.73C216.52 35.26 217.02 34.91 217.75 34.91C218.30 34.91 218.82 35.09 219.19 35.36C219.26 35.42 219.35 35.44 219.44 35.44C219.66 35.44 219.86 35.26 219.86 35.02C219.86 34.92 219.83 34.83 219.76 34.76C219.30 34.31 218.57 34.06 217.74 34.06C216.32 34.06 215.47 34.73 215.53 35.76C215.64 37.71 218.95 37.11 219.07 38.39C219.12 38.92 218.64 39.29 217.81 39.29C217.21 39.29 216.61 39.05 216.18 38.74C216.10 38.68 216.01 38.66 215.90 38.66C215.65 38.66 215.44 38.85 215.44 39.10C215.44 39.22 215.48 39.32 215.57 39.39C216.10 39.92 216.97 40.14 217.76 40.14C219.30 40.14 220.18 39.35 220.12 38.25ZM232.36 34.65C232.36 34.37 232.14 34.13 231.83 34.13C231.60 34.13 231.38 34.28 231.32 34.49L230.09 38.63L228.73 34.54C228.65 34.30 228.43 34.13 228.18 34.13C227.89 34.13 227.68 34.30 227.59 34.54L226.25 38.63L225.01 34.49C224.94 34.28 224.71 34.13 224.48 34.13C224.18 34.13 223.97 34.40 223.97 34.65C223.97 34.70 223.98 34.74 223.99 34.79L225.50 39.58C225.60 39.87 225.86 40.07 226.16 40.07L226.19 40.07C226.50 40.07 226.78 39.87 226.86 39.58L228.17 35.54L229.46 39.58C229.56 39.87 229.82 40.07 230.14 40.07L230.15 40.07C230.46 40.07 230.74 39.87 230.82 39.58L232.33 34.79C232.34 34.74 232.36 34.70 232.36 34.65ZM234.01 32.06C233.64 32.06 233.33 32.37 233.33 32.75C233.33 33.12 233.64 33.44 234.01 33.44C234.40 33.44 234.70 33.12 234.70 32.75C234.70 32.37 234.40 32.06 234.01 32.06ZM234.55 34.65C234.55 34.37 234.31 34.13 234.04 34.13C233.72 34.13 233.48 34.37 233.48 34.65L233.48 39.54C233.48 39.83 233.72 40.07 234.01 40.07C234.31 40.07 234.55 39.83 234.55 39.54ZM238.98 39.58C238.98 39.33 238.79 39.14 238.52 39.14C238.40 39.14 238.26 39.20 238.13 39.20C237.78 39.20 237.56 38.92 237.56 38.48L237.56 35.14L238.36 35.14C238.61 35.14 238.81 34.94 238.81 34.68C238.81 34.41 238.61 34.20 238.36 34.20L237.56 34.20L237.56 33.06C237.56 32.79 237.32 32.55 237.04 32.55C236.72 32.55 236.48 32.79 236.48 33.06L236.48 34.20L235.92 34.20C235.66 34.20 235.45 34.41 235.45 34.66C235.45 34.94 235.66 35.14 235.92 35.14L236.48 35.14L236.48 38.73C236.48 39.64 236.96 40.14 237.88 40.14C238.51 40.14 238.98 39.96 238.98 39.58ZM244.94 36.26C244.94 35.03 244.07 34.06 242.84 34.06C241.82 34.06 241.30 34.55 241.02 35.02L241.02 32.44C241.02 32.16 240.78 31.92 240.50 31.92C240.19 31.92 239.95 32.16 239.95 32.44L239.95 39.54C239.95 39.83 240.19 40.07 240.48 40.07C240.78 40.07 241.02 39.83 241.02 39.54L241.02 36.82C241.02 35.74 241.60 35.01 242.51 35.01C243.37 35.01 243.88 35.66 243.88 36.62L243.88 39.54C243.88 39.83 244.12 40.07 244.40 40.07C244.70 40.07 244.94 39.83 244.94 39.54ZM255.06 37.83C255.06 36.33 253.92 35.87 253.92 35.87C253.92 35.87 254.94 35.38 254.94 34.02C254.94 32.67 253.76 31.88 252.14 31.88C251.06 31.88 250.22 32.25 249.59 32.84C249.49 32.92 249.43 33.06 249.43 33.20C249.43 33.48 249.70 33.70 249.95 33.70C250.06 33.70 250.16 33.66 250.25 33.59C250.76 33.16 251.35 32.93 252.04 32.93C252.97 32.93 253.75 33.36 253.75 34.19C253.75 35.20 252.97 35.39 251.81 35.38C251.51 35.38 251.29 35.61 251.29 35.90C251.29 36.42 251.80 36.46 252.23 36.44C253.15 36.44 253.88 36.82 253.88 37.72C253.88 38.56 253.21 39.09 252.11 39.09C251.38 39.09 250.69 38.81 250.18 38.37C250.08 38.28 249.96 38.25 249.85 38.25C249.56 38.25 249.32 38.51 249.32 38.79C249.32 38.90 249.36 39.00 249.44 39.09C249.96 39.70 250.99 40.14 252.14 40.14C253.94 40.14 255.06 39.17 255.06 37.83ZM262.09 37.10C262.09 35.20 261.02 34.06 259.51 34.06C258.72 34.06 258.02 34.46 257.60 35.03L257.60 34.65C257.60 34.37 257.36 34.13 257.09 34.13C256.78 34.13 256.54 34.37 256.54 34.65L256.54 41.76C256.54 42.04 256.78 42.28 257.06 42.28C257.36 42.28 257.60 42.04 257.60 41.76L257.60 39.16C258.07 39.80 258.74 40.14 259.51 40.14C261.02 40.14 262.09 38.98 262.09 37.10ZM260.96 37.10C260.96 38.31 260.42 39.20 259.33 39.20C258.32 39.20 257.60 38.32 257.60 37.13L257.60 37.06C257.60 35.87 258.32 35.01 259.33 35.01C260.42 35.01 260.96 35.88 260.96 37.10ZM267.50 39.42C267.48 39.36 267.46 39.30 267.42 39.24L265.78 37.07L267.36 34.98C267.40 34.92 267.43 34.86 267.44 34.80C267.52 34.54 267.36 34.24 267.04 34.16C266.84 34.10 266.62 34.18 266.48 34.35L265.08 36.27L263.68 34.35C263.54 34.18 263.32 34.10 263.11 34.16C262.80 34.24 262.64 34.54 262.72 34.80C262.73 34.86 262.76 34.92 262.80 34.98L264.38 37.08L262.75 39.24C262.72 39.30 262.68 39.36 262.67 39.42C262.60 39.69 262.76 40.01 263.08 40.07C263.27 40.11 263.50 40.05 263.63 39.87L265.08 37.89L266.53 39.87C266.66 40.05 266.90 40.11 267.10 40.07C267.41 40.01 267.56 39.69 267.50 39.42ZM275.03 34.60C275.03 34.32 274.82 34.12 274.55 34.12C273.90 34.12 273.37 34.66 273.05 35.10L273.05 34.65C273.05 34.37 272.81 34.13 272.53 34.13C272.22 34.13 271.98 34.37 271.98 34.65L271.98 39.54C271.98 39.83 272.21 40.06 272.50 40.07L272.51 40.07C272.81 40.07 273.05 39.83 273.05 39.54L273.05 36.57C273.05 35.81 273.58 35.21 274.49 35.16C274.79 35.15 275.03 34.91 275.03 34.60ZM280.69 36.08C280.69 34.60 279.61 34.06 278.36 34.06C277.58 34.06 276.71 34.31 276.16 34.86C276.08 34.95 276.05 35.04 276.05 35.14C276.05 35.39 276.28 35.56 276.49 35.56C276.58 35.56 276.67 35.52 276.76 35.46C277.19 35.13 277.67 34.96 278.21 34.96C279.02 34.96 279.62 35.39 279.62 36.12L279.62 36.45L277.96 36.45C276.76 36.45 275.70 36.92 275.70 38.22C275.70 39.50 276.76 40.14 277.72 40.14C278.62 40.14 279.16 39.87 279.62 39.35L279.62 39.54C279.62 39.89 279.90 40.07 280.12 40.07L280.15 40.07C280.45 40.07 280.69 39.83 280.69 39.54ZM279.62 37.19L279.62 38.01C279.62 38.69 278.84 39.39 278.00 39.39C277.22 39.39 276.78 38.92 276.78 38.25C276.78 37.55 277.33 37.19 278.24 37.19ZM287.62 32.44C287.62 32.16 287.38 31.92 287.10 31.92C286.79 31.92 286.55 32.16 286.55 32.44L286.55 35.04C286.08 34.42 285.52 34.06 284.64 34.06C283.13 34.06 282.06 35.25 282.06 37.11C282.06 39.00 283.14 40.14 284.64 40.14C285.54 40.14 286.10 39.75 286.55 39.17L286.55 39.54C286.55 39.83 286.79 40.07 287.08 40.07C287.38 40.07 287.62 39.83 287.62 39.54ZM286.55 37.14C286.55 38.34 285.95 39.20 284.92 39.20C283.84 39.20 283.16 38.32 283.16 37.11C283.16 35.90 283.84 35.01 284.92 35.01C285.95 35.01 286.55 35.88 286.55 37.07ZM289.87 32.06C289.50 32.06 289.19 32.37 289.19 32.75C289.19 33.12 289.50 33.44 289.87 33.44C290.26 33.44 290.56 33.12 290.56 32.75C290.56 32.37 290.26 32.06 289.87 32.06ZM290.41 34.65C290.41 34.37 290.17 34.13 289.90 34.13C289.58 34.13 289.34 34.37 289.34 34.65L289.34 39.54C289.34 39.83 289.58 40.07 289.87 40.07C290.17 40.07 290.41 39.83 290.41 39.54ZM297.13 34.65C297.13 34.37 296.89 34.13 296.62 34.13C296.30 34.13 296.06 34.37 296.06 34.65L296.06 37.41C296.06 38.39 295.44 39.20 294.58 39.20C293.71 39.20 293.22 38.54 293.22 37.58L293.22 34.65C293.22 34.37 292.98 34.13 292.70 34.13C292.39 34.13 292.15 34.37 292.15 34.65L292.15 37.95C292.15 39.17 293.02 40.14 294.24 40.14C295.25 40.14 295.75 39.70 296.06 39.21L296.06 39.54C296.06 39.83 296.30 40.07 296.59 40.07C296.89 40.07 297.13 39.83 297.13 39.54ZM303.10 38.25C302.99 36.21 299.66 36.77 299.54 35.73C299.50 35.26 300 34.91 300.73 34.91C301.28 34.91 301.80 35.09 302.17 35.36C302.24 35.42 302.33 35.44 302.42 35.44C302.64 35.44 302.84 35.26 302.84 35.02C302.84 34.92 302.81 34.83 302.74 34.76C302.28 34.31 301.55 34.06 300.72 34.06C299.30 34.06 298.45 34.73 298.51 35.76C298.62 37.71 301.93 37.11 302.05 38.39C302.10 38.92 301.62 39.29 300.79 39.29C300.19 39.29 299.59 39.05 299.16 38.74C299.08 38.68 298.99 38.66 298.88 38.66C298.63 38.66 298.42 38.85 298.42 39.10C298.42 39.22 298.46 39.32 298.55 39.39C299.08 39.92 299.95 40.14 300.74 40.14C302.28 40.14 303.16 39.35 303.10 38.25ZM312.20 36.08C312.20 34.60 311.12 34.06 309.88 34.06C309.10 34.06 308.22 34.31 307.67 34.86C307.60 34.95 307.56 35.04 307.56 35.14C307.56 35.39 307.79 35.56 308.00 35.56C308.09 35.56 308.18 35.52 308.27 35.46C308.70 35.13 309.18 34.96 309.72 34.96C310.54 34.96 311.14 35.39 311.14 36.12L311.14 36.45L309.47 36.45C308.27 36.45 307.21 36.92 307.21 38.22C307.21 39.50 308.27 40.14 309.23 40.14C310.13 40.14 310.67 39.87 311.14 39.35L311.14 39.54C311.14 39.89 311.41 40.07 311.63 40.07L311.66 40.07C311.96 40.07 312.20 39.83 312.20 39.54ZM311.14 37.19L311.14 38.01C311.14 38.69 310.36 39.39 309.52 39.39C308.74 39.39 308.29 38.92 308.29 38.25C308.29 37.55 308.84 37.19 309.76 37.19ZM318.90 36.28C318.90 35.06 318.01 34.06 316.79 34.06C315.78 34.06 315.26 34.55 314.99 35.02L314.99 34.65C314.99 34.37 314.75 34.13 314.47 34.13C314.16 34.13 313.92 34.37 313.92 34.65L313.92 39.54C313.92 39.83 314.16 40.07 314.45 40.07C314.75 40.07 314.99 39.83 314.99 39.54L314.99 36.76C314.99 35.78 315.52 35.01 316.44 35.01C317.30 35.01 317.83 35.68 317.83 36.64L317.83 39.54C317.83 39.83 318.07 40.07 318.36 40.07C318.66 40.07 318.90 39.83 318.90 39.54ZM325.84 32.44C325.84 32.16 325.60 31.92 325.32 31.92C325.01 31.92 324.77 32.16 324.77 32.44L324.77 35.04C324.30 34.42 323.74 34.06 322.86 34.06C321.35 34.06 320.28 35.25 320.28 37.11C320.28 39.00 321.36 40.14 322.86 40.14C323.76 40.14 324.32 39.75 324.77 39.17L324.77 39.54C324.77 39.83 325.01 40.07 325.30 40.07C325.60 40.07 325.84 39.83 325.84 39.54ZM324.77 37.14C324.77 38.34 324.17 39.20 323.14 39.20C322.06 39.20 321.38 38.32 321.38 37.11C321.38 35.90 322.06 35.01 323.14 35.01C324.17 35.01 324.77 35.88 324.77 37.07ZM336.12 39.46C336.12 39.18 335.89 38.94 335.60 38.94L332.30 38.94C334.49 37.25 336 35.85 336 34.29C336 32.69 334.64 31.88 333.22 31.88C332.23 31.88 331.20 32.24 330.61 32.88C330.53 32.98 330.49 33.10 330.49 33.21C330.49 33.51 330.76 33.74 331.03 33.74C331.15 33.74 331.27 33.70 331.37 33.60C331.85 33.18 332.47 32.93 333.23 32.93C334.01 32.93 334.80 33.35 334.80 34.29C334.80 35.51 333.40 36.78 330.54 38.96C330.40 39.08 330.31 39.24 330.31 39.42C330.31 39.76 330.58 40 330.86 40L335.60 40C335.89 40 336.12 39.77 336.12 39.46ZM343.30 37.10C343.30 35.20 342.23 34.06 340.72 34.06C339.92 34.06 339.23 34.46 338.81 35.03L338.81 34.65C338.81 34.37 338.57 34.13 338.29 34.13C337.98 34.13 337.74 34.37 337.74 34.65L337.74 41.76C337.74 42.04 337.98 42.28 338.27 42.28C338.57 42.28 338.81 42.04 338.81 41.76L338.81 39.16C339.28 39.80 339.95 40.14 340.72 40.14C342.23 40.14 343.30 38.98 343.30 37.10ZM342.17 37.10C342.17 38.31 341.63 39.20 340.54 39.20C339.53 39.20 338.81 38.32 338.81 37.13L338.81 37.06C338.81 35.87 339.53 35.01 340.54 35.01C341.63 35.01 342.17 35.88 342.17 37.10ZM348.71 39.42C348.68 39.36 348.66 39.30 348.62 39.24L346.98 37.07L348.56 34.98C348.60 34.92 348.64 34.86 348.65 34.80C348.72 34.54 348.56 34.24 348.24 34.16C348.05 34.10 347.82 34.18 347.69 34.35L346.28 36.27L344.88 34.35C344.75 34.18 344.52 34.10 344.32 34.16C344.00 34.24 343.85 34.54 343.92 34.80C343.93 34.86 343.97 34.92 344.00 34.98L345.59 37.08L343.96 39.24C343.92 39.30 343.88 39.36 343.87 39.42C343.80 39.69 343.97 40.01 344.28 40.07C344.47 40.11 344.70 40.05 344.83 39.87L346.28 37.89L347.74 39.87C347.87 40.05 348.11 40.11 348.30 40.07C348.61 40.01 348.77 39.69 348.71 39.42ZM357.43 38.25C357.32 36.21 354.00 36.77 353.88 35.73C353.83 35.26 354.34 34.91 355.07 34.91C355.62 34.91 356.14 35.09 356.51 35.36C356.58 35.42 356.66 35.44 356.76 35.44C356.98 35.44 357.18 35.26 357.18 35.02C357.18 34.92 357.14 34.83 357.07 34.76C356.62 34.31 355.88 34.06 355.06 34.06C353.64 34.06 352.79 34.73 352.85 35.76C352.96 37.71 356.27 37.11 356.39 38.39C356.44 38.92 355.96 39.29 355.13 39.29C354.53 39.29 353.93 39.05 353.50 38.74C353.41 38.68 353.33 38.66 353.22 38.66C352.97 38.66 352.75 38.85 352.75 39.10C352.75 39.22 352.80 39.32 352.88 39.39C353.41 39.92 354.29 40.14 355.08 40.14C356.62 40.14 357.49 39.35 357.43 38.25ZM361.50 39.58C361.50 39.33 361.31 39.14 361.04 39.14C360.92 39.14 360.78 39.20 360.65 39.20C360.30 39.20 360.08 38.92 360.08 38.48L360.08 35.14L360.88 35.14C361.13 35.14 361.33 34.94 361.33 34.68C361.33 34.41 361.13 34.20 360.88 34.20L360.08 34.20L360.08 33.06C360.08 32.79 359.84 32.55 359.56 32.55C359.24 32.55 359.00 32.79 359.00 33.06L359.00 34.20L358.44 34.20C358.18 34.20 357.97 34.41 357.97 34.66C357.97 34.94 358.18 35.14 358.44 35.14L359.00 35.14L359.00 38.73C359.00 39.64 359.48 40.14 360.40 40.14C361.03 40.14 361.50 39.96 361.50 39.58ZM365.52 34.60C365.52 34.32 365.32 34.12 365.04 34.12C364.39 34.12 363.86 34.66 363.54 35.10L363.54 34.65C363.54 34.37 363.30 34.13 363.02 34.13C362.71 34.13 362.47 34.37 362.47 34.65L362.47 39.54C362.47 39.83 362.70 40.06 362.99 40.07L363.00 40.07C363.30 40.07 363.54 39.83 363.54 39.54L363.54 36.57C363.54 35.81 364.07 35.21 364.98 35.16C365.28 35.15 365.52 34.91 365.52 34.60ZM372.02 37.10C372.02 35.43 370.91 34.06 369.10 34.06C367.30 34.06 366.18 35.43 366.18 37.10C366.18 38.76 367.30 40.14 369.10 40.14C370.91 40.14 372.02 38.76 372.02 37.10ZM370.91 37.10C370.91 38.21 370.26 39.20 369.10 39.20C367.94 39.20 367.28 38.21 367.28 37.10C367.28 35.99 367.94 35.01 369.10 35.01C370.26 35.01 370.91 35.99 370.91 37.10ZM378.14 39.54C378.14 39.44 378.11 39.32 378.04 39.23L376.13 36.83L377.93 34.95C378.01 34.85 378.06 34.74 378.06 34.62C378.06 34.36 377.82 34.12 377.56 34.12C377.44 34.12 377.30 34.18 377.21 34.28L374.47 37.16L374.47 32.44C374.47 32.16 374.23 31.92 373.96 31.92C373.64 31.92 373.40 32.16 373.40 32.44L373.40 39.54C373.40 39.83 373.64 40.07 373.93 40.07C374.23 40.07 374.47 39.83 374.47 39.54L374.47 38.39L375.36 37.49L377.20 39.87C377.29 40.01 377.46 40.08 377.62 40.08C377.94 40.08 378.14 39.80 378.14 39.54ZM384.95 36.90C384.95 36.68 384.89 36.42 384.84 36.23C384.50 34.94 383.54 34.06 382.14 34.06C380.46 34.06 379.25 35.42 379.25 37.10C379.25 38.92 380.51 40.14 382.24 40.14C383.09 40.14 384.58 39.70 384.58 39.05C384.58 38.64 384.17 38.55 383.90 38.68C383.48 38.99 382.84 39.28 382.34 39.28C381.17 39.28 380.45 38.48 380.36 37.48L384.40 37.48C384.70 37.48 384.95 37.19 384.95 36.90ZM380.36 36.69C380.41 35.88 380.98 34.92 382.13 34.92C383.36 34.92 383.89 35.91 383.92 36.69ZM390.68 39.38C390.68 38.98 390.35 38.63 389.95 38.63C389.54 38.63 389.22 38.98 389.22 39.38C389.22 39.77 389.54 40.12 389.95 40.12C390.35 40.12 390.68 39.77 390.68 39.38ZM393.54 39.38C393.54 38.98 393.19 38.63 392.78 38.63C392.39 38.63 392.05 38.98 392.05 39.38C392.05 39.77 392.39 40.12 392.78 40.12C393.19 40.12 393.54 39.77 393.54 39.38ZM396.38 39.38C396.38 38.98 396.05 38.63 395.64 38.63C395.23 38.63 394.90 38.98 394.90 39.38C394.90 39.77 395.23 40.12 395.64 40.12C396.05 40.12 396.38 39.77 396.38 39.38Z" fill="#9aa7b4" /><rect x="18" y="50" width="384" height="6" rx="3" fill="#21262d" /><rect x="18" y="50" width="0.07" height="6" rx="3" fill="#00a5fe" /></svg>