<svg xmlns="http://www.w3.org/2000/svg" width="420" height="64" viewBox="0 0 420 64" role="img"><rect x="0.5" y="0.5" width="419" height="63" rx="10" fill="#ffffff" stroke="#f2f4f6" /><path d="M28.46 19.35C28.46 17.03 26.72 15.07 24.05 15.07C21.14 15.07 18.49 17.60 18.49 20.58C18.49 23.06 20.38 24.98 22.93 24.98C23.88 24.98 24.82 24.70 25.63 24.22C25.70 24.18 25.74 24.11 25.74 24.03C25.74 23.89 25.59 23.78 25.46 23.78C25.42 23.78 25.38 23.78 25.34 23.80C24.64 24.21 23.85 24.45 22.98 24.45C20.72 24.45 19.04 22.75 19.04 20.56C19.04 17.94 21.35 15.61 23.99 15.61C26.34 15.61 27.86 17.14 27.86 19.35C27.86 20.95 27.09 21.61 26.54 21.61C26.25 21.61 26.02 21.41 26.02 20.98C26.02 20.89 26.05 20.72 26.06 20.64L26.61 18.05C26.62 18.01 26.62 17.95 26.62 17.90C26.62 17.50 26.30 17.15 25.85 17.15C25.48 17.15 25.15 17.42 25.08 17.77L25.04 17.97C24.75 17.43 24.13 17.03 23.29 17.03C21.67 17.03 20.13 18.58 20.13 20.46C20.13 21.82 20.94 22.81 22.30 22.81C23.05 22.81 23.82 22.38 24.33 21.73C24.41 22.31 24.85 22.81 25.69 22.81C26.90 22.81 28.46 21.70 28.46 19.35ZM24.65 19.84C24.44 20.82 23.66 21.55 22.91 21.55C22.20 21.55 21.75 21.05 21.75 20.32C21.75 19.30 22.56 18.29 23.68 18.29C24.30 18.29 24.89 18.71 24.68 19.69ZM35.42 22.92C35.42 22.46 35.00 22.15 34.56 22.15C34.39 22.15 34.24 22.19 34.09 22.29C33.78 22.49 33.44 22.59 33.08 22.59C32 22.59 31.24 21.79 31.24 20.61C31.24 19.44 32 18.65 33.08 18.65C33.43 18.65 33.78 18.75 34.07 18.93C34.23 19.03 34.39 19.07 34.56 19.07C34.95 19.07 35.40 18.79 35.40 18.32C35.40 18.20 35.37 18.09 35.32 17.99C35.02 17.45 34.04 17.07 32.99 17.07C30.91 17.07 29.41 18.54 29.41 20.61C29.41 22.70 30.91 24.17 32.99 24.17C33.95 24.17 34.65 23.89 35.14 23.50C35.32 23.36 35.42 23.13 35.42 22.92ZM43.26 20.40C43.26 20.07 43.16 19.66 43.06 19.35C42.58 17.95 41.42 17.07 39.90 17.07C37.84 17.07 36.40 18.65 36.40 20.61C36.40 22.78 37.95 24.17 40.01 24.17C41.04 24.17 42.54 23.78 42.63 22.98C42.67 22.56 42.25 22.26 41.87 22.26C41.76 22.26 41.63 22.29 41.52 22.35C41.10 22.57 40.58 22.75 40.20 22.75C39.06 22.75 38.37 22.07 38.26 21.21L42.43 21.21C42.89 21.21 43.26 20.84 43.26 20.40ZM38.23 20.01C38.31 19.34 38.79 18.48 39.90 18.48C41.07 18.48 41.52 19.37 41.56 20.01ZM50.91 19.65C50.91 18.33 49.78 17.07 48.30 17.07C47.26 17.07 46.62 17.62 46.35 18.04L46.35 18.02C46.35 17.55 45.96 17.15 45.48 17.15C44.96 17.15 44.57 17.55 44.57 18.02L44.57 23.20C44.57 23.69 44.96 24.08 45.45 24.08C45.96 24.08 46.35 23.69 46.35 23.20L46.35 20.22C46.35 19.25 47.05 18.65 47.75 18.65C48.51 18.65 49.14 19.25 49.14 20.19L49.14 23.20C49.14 23.69 49.53 24.08 50.02 24.08C50.52 24.08 50.91 23.69 50.91 23.20ZM56.37 23.36C56.37 22.92 56.09 22.59 55.59 22.59L55.44 22.59C55.16 22.59 54.82 22.38 54.82 21.84L54.82 18.79L55.52 18.79C55.93 18.79 56.28 18.44 56.28 18.02C56.28 17.59 55.93 17.24 55.52 17.24L54.82 17.24L54.82 16.19C54.82 15.70 54.43 15.31 53.94 15.31C53.42 15.31 53.03 15.70 53.03 16.19L53.03 17.24L52.59 17.24C52.17 17.24 51.82 17.59 51.82 17.99C51.82 18.44 52.17 18.79 52.59 18.79L53.03 18.79L53.03 22.32C53.03 23.52 53.70 24.17 54.95 24.17C56.11 24.17 56.37 23.80 56.37 23.36ZM61.43 17.91C61.43 17.50 61.16 17.18 60.64 17.18C59.97 17.18 59.52 17.71 59.19 18.16L59.19 18.02C59.19 17.55 58.80 17.15 58.32 17.15C57.80 17.15 57.41 17.55 57.41 18.02L57.41 23.20C57.41 23.69 57.80 24.08 58.29 24.08L58.32 24.08C58.80 24.08 59.19 23.69 59.19 23.20L59.19 20.37C59.19 19.25 60.03 18.89 60.57 18.82C61.06 18.75 61.43 18.44 61.43 17.91ZM68.29 19.63C68.29 17.69 66.87 17.07 65.33 17.07C64.55 17.07 63.04 17.35 62.62 18.02C62.56 18.12 62.52 18.25 62.52 18.37C62.52 18.79 62.87 19.06 63.19 19.06C63.30 19.06 63.42 19.02 63.51 18.96C63.98 18.65 64.49 18.53 65.03 18.53C65.92 18.53 66.51 18.97 66.51 19.66L66.51 19.88L64.37 19.88C63.29 19.88 62.02 20.35 62.02 21.93C62.02 23.44 63.29 24.17 64.37 24.17C65.39 24.17 66.05 23.92 66.51 23.37C66.51 23.68 66.80 24.08 67.28 24.08L67.42 24.08C67.90 24.08 68.29 23.69 68.29 23.20ZM66.51 21.09L66.51 21.40C66.51 22.49 65.66 22.96 65.08 22.96C64.38 22.96 63.81 22.60 63.81 21.97C63.81 21.31 64.38 21.09 65.08 21.09ZM71.83 15.45C71.83 14.97 71.44 14.58 70.96 14.58C70.44 14.58 70.05 14.97 70.05 15.45L70.05 23.20C70.05 23.69 70.44 24.08 70.93 24.08C71.44 24.08 71.83 23.69 71.83 23.20ZM76.58 20.60C76.58 20.19 76.24 19.86 75.83 19.86L73.79 19.86C73.38 19.86 73.05 20.19 73.05 20.60C73.05 21.03 73.38 21.37 73.79 21.37L75.83 21.37C76.24 21.37 76.58 21.03 76.58 20.60ZM78.68 14.40C78.10 14.40 77.61 14.86 77.61 15.45C77.61 16.03 78.10 16.51 78.68 16.51C79.26 16.51 79.74 16.03 79.74 15.45C79.74 14.86 79.26 14.40 78.68 14.40ZM79.57 18.02C79.57 17.55 79.18 17.15 78.70 17.15C78.19 17.15 77.79 17.55 77.79 18.02L77.79 23.20C77.79 23.69 78.19 24.08 78.68 24.08C79.18 24.08 79.57 23.69 79.57 23.20ZM86.91 22.92C86.91 22.46 86.49 22.15 86.05 22.15C85.89 22.15 85.73 22.19 85.58 22.29C85.27 22.49 84.93 22.59 84.57 22.59C83.49 22.59 82.74 21.79 82.74 20.61C82.74 19.44 83.49 18.65 84.57 18.65C84.92 18.65 85.27 18.75 85.56 18.93C85.72 19.03 85.89 19.07 86.05 19.07C86.45 19.07 86.89 18.79 86.89 18.32C86.89 18.20 86.87 18.09 86.81 17.99C86.52 17.45 85.54 17.07 84.49 17.07C82.40 17.07 80.90 18.54 80.90 20.61C80.90 22.70 82.40 24.17 84.49 24.17C85.44 24.17 86.14 23.89 86.63 23.50C86.81 23.36 86.91 23.13 86.91 22.92ZM95.04 20.61C95.04 18.69 93.70 17.07 91.46 17.07C89.23 17.07 87.89 18.69 87.89 20.61C87.89 22.54 89.23 24.17 91.46 24.17C93.70 24.17 95.04 22.54 95.04 20.61ZM93.19 20.61C93.19 21.68 92.56 22.59 91.46 22.59C90.35 22.59 89.74 21.68 89.74 20.61C89.74 19.56 90.35 18.65 91.46 18.65C92.56 18.65 93.19 19.56 93.19 20.61ZM102.70 19.65C102.70 18.33 101.57 17.07 100.08 17.07C99.05 17.07 98.40 17.62 98.14 18.04L98.14 18.02C98.14 17.55 97.74 17.15 97.27 17.15C96.75 17.15 96.36 17.55 96.36 18.02L96.36 23.20C96.36 23.69 96.75 24.08 97.24 24.08C97.74 24.08 98.14 23.69 98.14 23.20L98.14 20.22C98.14 19.25 98.84 18.65 99.54 18.65C100.29 18.65 100.92 19.25 100.92 20.19L100.92 23.20C100.92 23.69 101.31 24.08 101.80 24.08C102.31 24.08 102.70 23.69 102.70 23.20ZM109.83 22.00C109.83 19.27 105.82 20.11 105.82 19.10C105.82 18.72 106.24 18.43 106.89 18.43C107.43 18.43 107.98 18.58 108.41 18.83C108.51 18.89 108.64 18.92 108.75 18.92C109.11 18.92 109.45 18.62 109.45 18.25C109.45 18.12 109.41 17.99 109.34 17.90C108.96 17.35 107.75 17.07 106.87 17.07C105.09 17.07 104.10 18.06 104.10 19.20C104.10 21.86 108.12 20.95 108.12 22.07C108.12 22.49 107.75 22.80 106.98 22.80C106.40 22.80 105.70 22.56 105.16 22.25C105.05 22.18 104.93 22.15 104.80 22.15C104.42 22.15 104.06 22.47 104.06 22.89C104.06 23.03 104.10 23.16 104.18 23.27C104.60 23.87 106.02 24.17 106.90 24.17C108.78 24.17 109.83 23.23 109.83 22.00ZM114.12 20.60C114.12 20.19 113.79 19.86 113.38 19.86L111.34 19.86C110.93 19.86 110.60 20.19 110.60 20.60C110.60 21.03 110.93 21.37 111.34 21.37L113.38 21.37C113.79 21.37 114.12 21.03 114.12 20.60ZM119.36 17.91C119.36 17.50 119.09 17.18 118.58 17.18C117.90 17.18 117.46 17.71 117.12 18.16L117.12 18.02C117.12 17.55 116.73 17.15 116.25 17.15C115.73 17.15 115.34 17.55 115.34 18.02L115.34 23.20C115.34 23.69 115.73 24.08 116.22 24.08L116.25 24.08C116.73 24.08 117.12 23.69 117.12 23.20L117.12 20.37C117.12 19.25 117.96 18.89 118.51 18.82C119.00 18.75 119.36 18.44 119.36 17.91ZM126.81 20.40C126.81 20.07 126.71 19.66 126.61 19.35C126.14 17.95 124.97 17.07 123.45 17.07C121.39 17.07 119.95 18.65 119.95 20.61C119.95 22.78 121.50 24.17 123.56 24.17C124.60 24.17 126.09 23.78 126.18 22.98C126.22 22.56 125.80 22.26 125.42 22.26C125.31 22.26 125.18 22.29 125.07 22.35C124.65 22.57 124.13 22.75 123.76 22.75C122.61 22.75 121.92 22.07 121.81 21.21L125.98 21.21C126.44 21.21 126.81 20.84 126.81 20.40ZM121.78 20.01C121.87 19.34 122.34 18.48 123.45 18.48C124.62 18.48 125.07 19.37 125.11 20.01ZM133.96 19.63C133.96 17.69 132.55 17.07 131.01 17.07C130.22 17.07 128.71 17.35 128.29 18.02C128.24 18.12 128.19 18.25 128.19 18.37C128.19 18.79 128.54 19.06 128.87 19.06C128.98 19.06 129.09 19.02 129.19 18.96C129.65 18.65 130.17 18.53 130.70 18.53C131.60 18.53 132.18 18.97 132.18 19.66L132.18 19.88L130.04 19.88C128.96 19.88 127.69 20.35 127.69 21.93C127.69 23.44 128.96 24.17 130.04 24.17C131.06 24.17 131.72 23.92 132.18 23.37C132.18 23.68 132.48 24.08 132.95 24.08L133.09 24.08C133.57 24.08 133.96 23.69 133.96 23.20ZM132.18 21.09L132.18 21.40C132.18 22.49 131.33 22.96 130.76 22.96C130.06 22.96 129.48 22.60 129.48 21.97C129.48 21.31 130.06 21.09 130.76 21.09ZM141.30 22.92C141.30 22.46 140.88 22.15 140.44 22.15C140.28 22.15 140.12 22.19 139.97 22.29C139.66 22.49 139.32 22.59 138.96 22.59C137.88 22.59 137.13 21.79 137.13 20.61C137.13 19.44 137.88 18.65 138.96 18.65C139.31 18.65 139.66 18.75 139.95 18.93C140.11 19.03 140.28 19.07 140.44 19.07C140.84 19.07 141.28 18.79 141.28 18.32C141.28 18.20 141.26 18.09 141.20 17.99C140.91 17.45 139.93 17.07 138.88 17.07C136.79 17.07 135.29 18.54 135.29 20.61C135.29 22.70 136.79 24.17 138.88 24.17C139.83 24.17 140.53 23.89 141.02 23.50C141.20 23.36 141.30 23.13 141.30 22.92ZM146.41 23.36C146.41 22.92 146.13 22.59 145.62 22.59L145.47 22.59C145.19 22.59 144.85 22.38 144.85 21.84L144.85 18.79L145.55 18.79C145.96 18.79 146.31 18.44 146.31 18.02C146.31 17.59 145.96 17.24 145.55 17.24L144.85 17.24L144.85 16.19C144.85 15.70 144.46 15.31 143.97 15.31C143.45 15.31 143.06 15.70 143.06 16.19L143.06 17.24L142.63 17.24C142.21 17.24 141.86 17.59 141.86 17.99C141.86 18.44 142.21 18.79 142.63 18.79L143.06 18.79L143.06 22.32C143.06 23.52 143.73 24.17 144.98 24.17C146.14 24.17 146.41 23.80 146.41 23.36ZM150.96 14.90C150.96 14.58 150.71 14.30 150.36 14.30C150.08 14.30 149.84 14.47 149.75 14.72L146.80 23.58C146.77 23.65 146.76 23.71 146.76 23.78C146.76 24.10 147.02 24.36 147.37 24.36C147.64 24.36 147.89 24.21 147.98 23.94L150.93 15.08C150.94 15.03 150.96 14.96 150.96 14.90ZM157.41 22.00C157.41 19.27 153.41 20.11 153.41 19.10C153.41 18.72 153.83 18.43 154.47 18.43C155.02 18.43 155.56 18.58 156.00 18.83C156.10 18.89 156.22 18.92 156.33 18.92C156.70 18.92 157.03 18.62 157.03 18.25C157.03 18.12 156.99 17.99 156.92 17.90C156.54 17.35 155.34 17.07 154.46 17.07C152.68 17.07 151.69 18.06 151.69 19.20C151.69 21.86 155.70 20.95 155.70 22.07C155.70 22.49 155.34 22.80 154.57 22.80C153.98 22.80 153.28 22.56 152.75 22.25C152.64 22.18 152.51 22.15 152.39 22.15C152.01 22.15 151.64 22.47 151.64 22.89C151.64 23.03 151.69 23.16 151.77 23.27C152.19 23.87 153.60 24.17 154.49 24.17C156.36 24.17 157.41 23.23 157.41 22.00ZM158.28 20.61C158.28 22.82 159.69 24.17 161.42 24.17C162.21 24.17 162.97 23.82 163.36 23.13L163.36 25.79C163.36 26.27 163.75 26.66 164.23 26.66C164.75 26.66 165.14 26.27 165.14 25.79L165.14 18.04C165.14 17.55 164.75 17.15 164.26 17.15C163.75 17.15 163.36 17.55 163.36 18.04L163.36 18.11C162.97 17.43 162.23 17.07 161.42 17.07C159.71 17.07 158.28 18.36 158.28 20.61ZM160.11 20.61C160.11 19.44 160.80 18.65 161.84 18.65C162.55 18.65 163.36 19.39 163.36 20.53L163.36 20.68C163.36 21.83 162.55 22.59 161.84 22.59C160.80 22.59 160.11 21.79 160.11 20.61ZM166.89 21.59C166.89 22.91 168.02 24.17 169.51 24.17C170.57 24.17 171.22 23.62 171.45 23.20L171.45 23.22C171.45 23.69 171.85 24.08 172.32 24.08C172.84 24.08 173.23 23.69 173.23 23.22L173.23 18.04C173.23 17.55 172.84 17.15 172.35 17.15C171.85 17.15 171.45 17.55 171.45 18.04L171.45 21.02C171.45 21.98 170.75 22.59 170.05 22.59C169.30 22.59 168.67 21.98 168.67 21.05L168.67 18.04C168.67 17.55 168.28 17.15 167.79 17.15C167.28 17.15 166.89 17.55 166.89 18.04ZM180.83 19.63C180.83 17.69 179.42 17.07 177.88 17.07C177.10 17.07 175.58 17.35 175.16 18.02C175.11 18.12 175.07 18.25 175.07 18.37C175.07 18.79 175.42 19.06 175.74 19.06C175.85 19.06 175.96 19.02 176.06 18.96C176.52 18.65 177.04 18.53 177.57 18.53C178.47 18.53 179.06 18.97 179.06 19.66L179.06 19.88L176.91 19.88C175.84 19.88 174.56 20.35 174.56 21.93C174.56 23.44 175.84 24.17 176.91 24.17C177.94 24.17 178.59 23.92 179.06 23.37C179.06 23.68 179.35 24.08 179.83 24.08L179.97 24.08C180.44 24.08 180.83 23.69 180.83 23.20ZM179.06 21.09L179.06 21.40C179.06 22.49 178.20 22.96 177.63 22.96C176.93 22.96 176.35 22.60 176.35 21.97C176.35 21.31 176.93 21.09 177.63 21.09ZM186.62 17.91C186.62 17.50 186.35 17.18 185.83 17.18C185.16 17.18 184.71 17.71 184.38 18.16L184.38 18.02C184.38 17.55 183.98 17.15 183.51 17.15C182.99 17.15 182.60 17.55 182.60 18.02L182.60 23.20C182.60 23.69 182.99 24.08 183.48 24.08L183.51 24.08C183.98 24.08 184.38 23.69 184.38 23.20L184.38 20.37C184.38 19.25 185.22 18.89 185.76 18.82C186.25 18.75 186.62 18.44 186.62 17.91ZM194.06 20.40C194.06 20.07 193.97 19.66 193.87 19.35C193.39 17.95 192.23 17.07 190.70 17.07C188.65 17.07 187.20 18.65 187.20 20.61C187.20 22.78 188.76 24.17 190.82 24.17C191.85 24.17 193.35 23.78 193.43 22.98C193.48 22.56 193.06 22.26 192.68 22.26C192.57 22.26 192.44 22.29 192.33 22.35C191.91 22.57 191.39 22.75 191.01 22.75C189.86 22.75 189.18 22.07 189.07 21.21L193.24 21.21C193.70 21.21 194.06 20.84 194.06 20.40ZM189.04 20.01C189.12 19.34 189.60 18.48 190.70 18.48C191.88 18.48 192.33 19.37 192.37 20.01ZM198.36 20.60C198.36 20.19 198.03 19.86 197.62 19.86L195.58 19.86C195.17 19.86 194.83 20.19 194.83 20.60C194.83 21.03 195.17 21.37 195.58 21.37L197.62 21.37C198.03 21.37 198.36 21.03 198.36 20.60ZM206.30 20.61C206.30 18.69 204.96 17.07 202.72 17.07C200.49 17.07 199.15 18.69 199.15 20.61C199.15 22.54 200.49 24.17 202.72 24.17C204.96 24.17 206.30 22.54 206.30 20.61ZM204.45 20.61C204.45 21.68 203.82 22.59 202.72 22.59C201.61 22.59 200.99 21.68 200.99 20.61C200.99 19.56 201.61 18.65 202.72 18.65C203.82 18.65 204.45 19.56 204.45 20.61ZM207.62 21.59C207.62 22.91 208.75 24.17 210.23 24.17C211.30 24.17 211.94 23.62 212.18 23.20L212.18 23.22C212.18 23.69 212.57 24.08 213.05 24.08C213.57 24.08 213.96 23.69 213.96 23.22L213.96 18.04C213.96 17.55 213.57 17.15 213.08 17.15C212.57 17.15 212.18 17.55 212.18 18.04L212.18 21.02C212.18 21.98 211.48 22.59 210.78 22.59C210.02 22.59 209.39 21.98 209.39 21.05L209.39 18.04C209.39 17.55 209.00 17.15 208.51 17.15C208.01 17.15 207.62 17.55 207.62 18.04ZM219.42 23.36C219.42 22.92 219.14 22.59 218.63 22.59L218.48 22.59C218.20 22.59 217.86 22.38 217.86 21.84L217.86 18.79L218.56 18.79C218.97 18.79 219.32 18.44 219.32 18.02C219.32 17.59 218.97 17.24 218.56 17.24L217.86 17.24L217.86 16.19C217.86 15.70 217.47 15.31 216.98 15.31C216.46 15.31 216.07 15.70 216.07 16.19L216.07 17.24L215.64 17.24C215.22 17.24 214.87 17.59 214.87 17.99C214.87 18.44 215.22 18.79 215.64 18.79L216.07 18.79L216.07 22.32C216.07 23.52 216.74 24.17 217.99 24.17C219.15 24.17 219.42 23.80 219.42 23.36ZM222.23 15.45C222.23 14.97 221.84 14.58 221.36 14.58C220.85 14.58 220.45 14.97 220.45 15.45L220.45 23.20C220.45 23.69 220.85 24.08 221.34 24.08C221.84 24.08 222.23 23.69 222.23 23.20ZM224.88 14.40C224.30 14.40 223.81 14.86 223.81 15.45C223.81 16.03 224.30 16.51 224.88 16.51C225.47 16.51 225.94 16.03 225.94 15.45C225.94 14.86 225.47 14.40 224.88 14.40ZM225.77 18.02C225.77 17.55 225.38 17.15 224.91 17.15C224.39 17.15 224.00 17.55 224.00 18.02L224.00 23.20C224.00 23.69 224.39 24.08 224.88 24.08C225.38 24.08 225.77 23.69 225.77 23.20ZM233.88 19.65C233.88 18.33 232.75 17.07 231.26 17.07C230.23 17.07 229.58 17.62 229.32 18.04L229.32 18.02C229.32 17.55 228.92 17.15 228.45 17.15C227.93 17.15 227.54 17.55 227.54 18.02L227.54 23.20C227.54 23.69 227.93 24.08 228.42 24.08C228.92 24.08 229.32 23.69 229.32 23.20L229.32 20.22C229.32 19.25 230.02 18.65 230.72 18.65C231.47 18.65 232.10 19.25 232.10 20.19L232.10 23.20C232.10 23.69 232.49 24.08 232.98 24.08C233.49 24.08 233.88 23.69 233.88 23.20ZM242.07 20.40C242.07 20.07 241.97 19.66 241.87 19.35C241.40 17.95 240.24 17.07 238.71 17.07C236.65 17.07 235.21 18.65 235.21 20.61C235.21 22.78 236.76 24.17 238.82 24.17C239.86 24.17 241.36 23.78 241.44 22.98C241.48 22.56 241.06 22.26 240.68 22.26C240.57 22.26 240.45 22.29 240.33 22.35C239.91 22.57 239.40 22.75 239.02 22.75C237.87 22.75 237.18 22.07 237.07 21.21L241.24 21.21C241.71 21.21 242.07 20.84 242.07 20.40ZM237.04 20.01C237.13 19.34 237.60 18.48 238.71 18.48C239.89 18.48 240.33 19.37 240.38 20.01ZM245.36 23.02C245.36 22.40 244.84 21.89 244.23 21.89C243.61 21.89 243.11 22.40 243.11 23.02C243.11 23.62 243.61 24.14 244.23 24.14C244.84 24.14 245.36 23.62 245.36 23.02ZM248.94 23.02C248.94 22.40 248.43 21.89 247.81 21.89C247.19 21.89 246.69 22.40 246.69 23.02C246.69 23.62 247.19 24.14 247.81 24.14C248.43 24.14 248.94 23.62 248.94 23.02ZM252.53 23.02C252.53 22.40 252.01 21.89 251.39 21.89C250.78 21.89 250.27 22.40 250.27 23.02C250.27 23.62 250.78 24.14 251.39 24.14C252.01 24.14 252.53 23.62 252.53 23.02Z" fill="#22272e" /><path d="M349.04 14.72C349.04 14.46 348.80 14.22 348.54 14.22L344.97 14.22C344.71 14.22 344.47 14.46 344.47 14.72L344.47 24.68C344.47 24.94 344.71 25.17 344.97 25.17L348.54 25.17C348.80 25.17 349.04 24.94 349.04 24.68ZM344.88 14.61L348.62 14.61L348.62 24.78L344.88 24.78ZM360.72 21.18C360.72 19.33 359.33 18.36 357.77 18.36C356.69 18.36 355.89 18.89 355.55 19.48C355.54 19.41 355.54 19.36 355.54 19.29C355.54 17.92 356.43 16.84 357.71 16.84C358.15 16.84 358.51 16.91 358.84 17.08C358.96 17.15 359.09 17.18 359.22 17.18C359.62 17.18 360.06 16.86 360.06 16.37C360.06 16.24 360.02 16.12 359.97 16.02C359.65 15.45 358.55 15.20 357.71 15.20C355.15 15.20 353.67 17.06 353.67 19.68C353.67 22.13 354.77 24.16 357.41 24.16C359.39 24.16 360.72 22.87 360.72 21.18ZM358.85 21.24C358.85 21.89 358.37 22.52 357.37 22.52C356.55 22.52 355.94 21.96 355.94 21.15C355.94 20.37 356.56 19.81 357.37 19.81C358.20 19.81 358.85 20.37 358.85 21.24ZM368.34 23.17C368.34 22.74 367.98 22.38 367.55 22.38L364.73 22.38C366.98 20.74 368.20 19.45 368.20 17.97C368.20 16.24 366.73 15.20 364.88 15.20C363.79 15.20 362.34 15.67 361.92 16.33C361.84 16.45 361.80 16.58 361.80 16.71C361.80 17.18 362.18 17.54 362.61 17.54C362.80 17.54 362.97 17.49 363.14 17.37C363.64 17.03 364.23 16.84 364.92 16.84C365.64 16.84 366.33 17.21 366.33 17.97C366.33 18.98 365.29 19.93 362.05 22.32C361.80 22.50 361.66 22.80 361.66 23.10C361.66 23.62 362.08 24 362.53 24L367.55 24C367.98 24 368.34 23.64 368.34 23.17ZM376.14 23.17C376.14 22.74 375.78 22.38 375.35 22.38L372.53 22.38C374.78 20.74 376.00 19.45 376.00 17.97C376.00 16.24 374.53 15.20 372.68 15.20C371.59 15.20 370.14 15.67 369.72 16.33C369.64 16.45 369.60 16.58 369.60 16.71C369.60 17.18 369.98 17.54 370.41 17.54C370.60 17.54 370.77 17.49 370.94 17.37C371.44 17.03 372.03 16.84 372.72 16.84C373.44 16.84 374.13 17.21 374.13 17.97C374.13 18.98 373.09 19.93 369.85 22.32C369.60 22.50 369.46 22.80 369.46 23.10C369.46 23.62 369.88 24 370.33 24L375.35 24C375.78 24 376.14 23.64 376.14 23.17ZM379.52 23.36C379.52 22.52 378.96 22.04 378.35 22.04C377.81 22.04 377.34 22.50 377.34 23.08C377.34 23.64 377.73 24.01 378.22 24.01C378.31 24.01 378.43 23.99 378.47 23.97C378.39 24.31 378.11 24.71 377.77 24.99C377.68 25.07 377.64 25.17 377.64 25.27C377.64 25.53 377.91 25.69 378.13 25.69C378.26 25.69 378.38 25.65 378.47 25.56C379.12 24.98 379.52 24.20 379.52 23.36ZM386.01 16.27C386.01 15.72 385.57 15.33 385.11 15.33L380.15 15.33C379.70 15.33 379.34 15.69 379.34 16.12C379.34 16.59 379.70 16.95 380.15 16.95L383.79 16.95L381.20 22.82C381.15 22.93 381.12 23.05 381.12 23.17C381.12 23.64 381.50 24.08 382.04 24.08C382.42 24.08 382.77 23.86 382.92 23.52L385.93 16.63C385.98 16.52 386.01 16.39 386.01 16.27ZM386.58 18.16C386.58 20.01 387.97 20.98 389.53 20.98C390.61 20.98 391.42 20.45 391.76 19.87C391.77 19.93 391.77 19.98 391.77 20.05C391.77 21.43 390.87 22.50 389.60 22.50C389.16 22.50 388.79 22.43 388.47 22.26C388.35 22.19 388.22 22.17 388.09 22.17C387.69 22.17 387.24 22.48 387.24 22.97C387.24 23.10 387.28 23.22 387.34 23.32C387.66 23.90 388.75 24.14 389.60 24.14C392.16 24.14 393.64 22.28 393.64 19.66C393.64 17.21 392.54 15.19 389.90 15.19C387.92 15.19 386.58 16.47 386.58 18.16ZM388.45 18.10C388.45 17.45 388.93 16.82 389.94 16.82C390.75 16.82 391.37 17.38 391.37 18.19C391.37 18.97 390.74 19.53 389.94 19.53C389.10 19.53 388.45 18.97 388.45 18.10ZM401.60 21.18C401.60 19.33 400.21 18.36 398.65 18.36C397.57 18.36 396.76 18.89 396.42 19.48C396.41 19.41 396.41 19.36 396.41 19.29C396.41 17.92 397.31 16.84 398.58 16.84C399.02 16.84 399.39 16.91 399.71 17.08C399.83 17.15 399.96 17.18 400.09 17.18C400.49 17.18 400.93 16.86 400.93 16.37C400.93 16.24 400.89 16.12 400.84 16.02C400.52 15.45 399.43 15.20 398.58 15.20C396.02 15.20 394.54 17.06 394.54 19.68C394.54 22.13 395.64 24.16 398.28 24.16C400.26 24.16 401.60 22.87 401.60 21.18ZM399.72 21.24C399.72 21.89 399.24 22.52 398.24 22.52C397.42 22.52 396.81 21.96 396.81 21.15C396.81 20.37 397.44 19.81 398.24 19.81C399.07 19.81 399.72 20.37 399.72 21.24Z" fill="#627386" /><path d="M25.64 39.44C25.64 39.36 25.63 39.29 25.60 39.21L22.94 32.56C22.79 32.16 22.39 31.91 21.97 31.92C21.55 31.92 21.17 32.18 21.02 32.56L18.37 39.21C18.35 39.29 18.34 39.36 18.34 39.44C18.34 39.76 18.60 40.07 18.97 40.07C19.22 40.07 19.45 39.93 19.55 39.69L20.08 38.33L23.90 38.33L24.43 39.69C24.53 39.93 24.76 40.07 25.01 40.07C25.39 40.07 25.64 39.74 25.64 39.44ZM21.98 33.21L23.57 37.29L20.41 37.29ZM34.55 39.12C34.55 38.85 34.30 38.66 34.04 38.66C33.92 38.66 33.80 38.69 33.71 38.76C33.38 39.05 33.01 39.20 32.58 39.20C31.43 39.20 30.68 38.31 30.68 37.10C30.68 35.88 31.43 35.01 32.58 35.01C33 35.01 33.38 35.14 33.71 35.43C33.80 35.51 33.92 35.56 34.04 35.56C34.31 35.56 34.54 35.34 34.54 35.08C34.54 34.98 34.51 34.90 34.45 34.83C34.06 34.37 33.41 34.06 32.52 34.06C30.78 34.06 29.58 35.37 29.58 37.10C29.58 38.84 30.78 40.14 32.52 40.14C33.38 40.14 33.97 39.86 34.40 39.44C34.50 39.35 34.55 39.23 34.55 39.12ZM41.38 37.10C41.38 35.43 40.26 34.06 38.45 34.06C36.65 34.06 35.53 35.43 35.53 37.10C35.53 38.76 36.65 40.14 38.45 40.14C40.26 40.14 41.38 38.76 41.38 37.10ZM40.26 37.10C40.26 38.21 39.61 39.20 38.45 39.20C37.30 39.20 36.64 38.21 36.64 37.10C36.64 35.99 37.30 35.01 38.45 35.01C39.61 35.01 40.26 35.99 40.26 37.10ZM43.82 32.44C43.82 32.16 43.58 31.92 43.31 31.92C43.00 31.92 42.76 32.16 42.76 32.44L42.76 39.54C42.76 39.83 43.00 40.07 43.28 40.07C43.58 40.07 43.82 39.83 43.82 39.54ZM46.62 32.44C46.62 32.16 46.38 31.92 46.10 31.92C45.79 31.92 45.55 32.16 45.55 32.44L45.55 39.54C45.55 39.83 45.79 40.07 46.08 40.07C46.38 40.07 46.62 39.83 46.62 39.54ZM53.70 36.90C53.70 36.68 53.64 36.42 53.59 36.23C53.26 34.94 52.30 34.06 50.89 34.06C49.21 34.06 48.00 35.42 48.00 37.10C48.00 38.92 49.26 40.14 50.99 40.14C51.84 40.14 53.33 39.70 53.33 39.05C53.33 38.64 52.92 38.55 52.66 38.68C52.24 38.99 51.59 39.28 51.10 39.28C49.92 39.28 49.20 38.48 49.12 37.48L53.15 37.48C53.45 37.48 53.70 37.19 53.70 36.90ZM49.12 36.69C49.16 35.88 49.73 34.92 50.88 34.92C52.12 34.92 52.64 35.91 52.67 36.69ZM59.69 39.12C59.69 38.85 59.44 38.66 59.18 38.66C59.06 38.66 58.94 38.69 58.85 38.76C58.52 39.05 58.15 39.20 57.72 39.20C56.57 39.20 55.82 38.31 55.82 37.10C55.82 35.88 56.57 35.01 57.72 35.01C58.14 35.01 58.52 35.14 58.85 35.43C58.94 35.51 59.06 35.56 59.18 35.56C59.45 35.56 59.68 35.34 59.68 35.08C59.68 34.98 59.65 34.90 59.59 34.83C59.20 34.37 58.55 34.06 57.66 34.06C55.92 34.06 54.72 35.37 54.72 37.10C54.72 38.84 55.92 40.14 57.66 40.14C58.52 40.14 59.11 39.86 59.54 39.44C59.64 39.35 59.69 39.23 59.69 39.12ZM63.72 39.58C63.72 39.33 63.53 39.14 63.26 39.14C63.14 39.14 63.00 39.20 62.87 39.20C62.52 39.20 62.30 38.92 62.30 38.48L62.30 35.14L63.10 35.14C63.35 35.14 63.55 34.94 63.55 34.68C63.55 34.41 63.35 34.20 63.10 34.20L62.30 34.20L62.30 33.06C62.30 32.79 62.06 32.55 61.78 32.55C61.46 32.55 61.22 32.79 61.22 33.06L61.22 34.20L60.66 34.20C60.40 34.20 60.19 34.41 60.19 34.66C60.19 34.94 60.40 35.14 60.66 35.14L61.22 35.14L61.22 38.73C61.22 39.64 61.70 40.14 62.62 40.14C63.25 40.14 63.72 39.96 63.72 39.58ZM65.22 32.06C64.85 32.06 64.54 32.37 64.54 32.75C64.54 33.12 64.85 33.44 65.22 33.44C65.60 33.44 65.90 33.12 65.90 32.75C65.90 32.37 65.60 32.06 65.22 32.06ZM65.76 34.65C65.76 34.37 65.52 34.13 65.24 34.13C64.93 34.13 64.69 34.37 64.69 34.65L64.69 39.54C64.69 39.83 64.93 40.07 65.22 40.07C65.52 40.07 65.76 39.83 65.76 39.54ZM72.98 37.10C72.98 35.43 71.87 34.06 70.06 34.06C68.26 34.06 67.14 35.43 67.14 37.10C67.14 38.76 68.26 40.14 70.06 40.14C71.87 40.14 72.98 38.76 72.98 37.10ZM71.87 37.10C71.87 38.21 71.22 39.20 70.06 39.20C68.90 39.20 68.24 38.21 68.24 37.10C68.24 35.99 68.90 35.01 70.06 35.01C71.22 35.01 71.87 35.99 71.87 37.10ZM79.34 36.28C79.34 35.06 78.46 34.06 77.23 34.06C76.22 34.06 75.71 34.55 75.43 35.02L75.43 34.65C75.43 34.37 75.19 34.13 74.92 34.13C74.60 34.13 74.36 34.37 74.36 34.65L74.36 39.54C74.36 39.83 74.60 40.07 74.89 40.07C75.19 40.07 75.43 39.83 75.43 39.54L75.43 36.76C75.43 35.78 75.96 35.01 76.88 35.01C77.75 35.01 78.28 35.68 78.28 36.64L78.28 39.54C78.28 39.83 78.52 40.07 78.80 40.07C79.10 40.07 79.34 39.83 79.34 39.54ZM89.65 37.10C89.65 35.43 88.54 34.06 86.72 34.06C84.92 34.06 83.81 35.43 83.81 37.10C83.81 38.76 84.92 40.14 86.72 40.14C88.54 40.14 89.65 38.76 89.65 37.10ZM88.54 37.10C88.54 38.21 87.89 39.20 86.72 39.20C85.57 39.20 84.91 38.21 84.91 37.10C84.91 35.99 85.57 35.01 86.72 35.01C87.89 35.01 88.54 35.99 88.54 37.10ZM94.27 32.46C94.27 32.06 93.58 31.88 93.06 31.88C91.99 31.88 91.31 32.60 91.31 33.80L91.31 34.20L90.73 34.20C90.48 34.20 90.28 34.41 90.28 34.66C90.28 34.94 90.48 35.14 90.73 35.14L91.31 35.14L91.31 39.54C91.31 39.83 91.55 40.07 91.84 40.07C92.14 40.07 92.38 39.83 92.38 39.54L92.38 35.14L93.17 35.14C93.42 35.14 93.62 34.94 93.62 34.68C93.62 34.41 93.42 34.20 93.17 34.20L92.38 34.20L92.38 33.80C92.38 33.11 92.69 32.74 93.24 32.74C93.49 32.74 93.67 32.88 93.86 32.88C94.07 32.88 94.27 32.73 94.27 32.46ZM101.90 38.25C101.80 36.21 98.47 36.77 98.35 35.73C98.30 35.26 98.81 34.91 99.54 34.91C100.09 34.91 100.61 35.09 100.98 35.36C101.05 35.42 101.14 35.44 101.23 35.44C101.45 35.44 101.65 35.26 101.65 35.02C101.65 34.92 101.62 34.83 101.54 34.76C101.09 34.31 100.36 34.06 99.53 34.06C98.11 34.06 97.26 34.73 97.32 35.76C97.43 37.71 100.74 37.11 100.86 38.39C100.91 38.92 100.43 39.29 99.60 39.29C99.00 39.29 98.40 39.05 97.97 38.74C97.88 38.68 97.80 38.66 97.69 38.66C97.44 38.66 97.22 38.85 97.22 39.10C97.22 39.22 97.27 39.32 97.36 39.39C97.88 39.92 98.76 40.14 99.55 40.14C101.09 40.14 101.96 39.35 101.90 38.25ZM108.44 34.65C108.44 34.37 108.20 34.13 107.92 34.13C107.60 34.13 107.36 34.37 107.36 34.65L107.36 35.03C106.96 34.46 106.26 34.06 105.47 34.06C103.96 34.06 102.89 35.20 102.89 37.10C102.89 38.98 103.96 40.14 105.47 40.14C106.22 40.14 106.90 39.80 107.36 39.16L107.36 41.76C107.36 42.04 107.60 42.28 107.89 42.28C108.20 42.28 108.44 42.04 108.44 41.76ZM107.36 37.13C107.36 38.32 106.66 39.20 105.64 39.20C104.56 39.20 104.00 38.31 104.00 37.10C104.00 35.88 104.56 35.01 105.64 35.01C106.66 35.01 107.36 35.87 107.36 37.06ZM115.16 34.65C115.16 34.37 114.92 34.13 114.65 34.13C114.34 34.13 114.10 34.37 114.10 34.65L114.10 37.41C114.10 38.39 113.47 39.20 112.61 39.20C111.74 39.20 111.25 38.54 111.25 37.58L111.25 34.65C111.25 34.37 111.01 34.13 110.74 34.13C110.42 34.13 110.18 34.37 110.18 34.65L110.18 37.95C110.18 39.17 111.05 40.14 112.27 40.14C113.28 40.14 113.78 39.70 114.10 39.21L114.10 39.54C114.10 39.83 114.34 40.07 114.62 40.07C114.92 40.07 115.16 39.83 115.16 39.54ZM121.54 36.08C121.54 34.60 120.46 34.06 119.21 34.06C118.43 34.06 117.55 34.31 117.00 34.86C116.93 34.95 116.89 35.04 116.89 35.14C116.89 35.39 117.12 35.56 117.34 35.56C117.42 35.56 117.52 35.52 117.60 35.46C118.03 35.13 118.51 34.96 119.05 34.96C119.87 34.96 120.47 35.39 120.47 36.12L120.47 36.45L118.80 36.45C117.60 36.45 116.54 36.92 116.54 38.22C116.54 39.50 117.60 40.14 118.56 40.14C119.46 40.14 120.00 39.87 120.47 39.35L120.47 39.54C120.47 39.89 120.74 40.07 120.96 40.07L121.00 40.07C121.30 40.07 121.54 39.83 121.54 39.54ZM120.47 37.19L120.47 38.01C120.47 38.69 119.69 39.39 118.85 39.39C118.07 39.39 117.62 38.92 117.62 38.25C117.62 37.55 118.18 37.19 119.09 37.19ZM126.30 34.60C126.30 34.32 126.10 34.12 125.82 34.12C125.17 34.12 124.64 34.66 124.32 35.10L124.32 34.65C124.32 34.37 124.08 34.13 123.80 34.13C123.49 34.13 123.25 34.37 123.25 34.65L123.25 39.54C123.25 39.83 123.48 40.06 123.77 40.07L123.78 40.07C124.08 40.07 124.32 39.83 124.32 39.54L124.32 36.57C124.32 35.81 124.85 35.21 125.76 35.16C126.06 35.15 126.30 34.91 126.30 34.60ZM132.66 36.90C132.66 36.68 132.60 36.42 132.55 36.23C132.22 34.94 131.26 34.06 129.85 34.06C128.17 34.06 126.96 35.42 126.96 37.10C126.96 38.92 128.22 40.14 129.95 40.14C130.80 40.14 132.29 39.70 132.29 39.05C132.29 38.64 131.88 38.55 131.62 38.68C131.20 38.99 130.55 39.28 130.06 39.28C128.88 39.28 128.16 38.48 128.08 37.48L132.11 37.48C132.41 37.48 132.66 37.19 132.66 36.90ZM128.08 36.69C128.12 35.88 128.69 34.92 129.84 34.92C131.08 34.92 131.60 35.91 131.63 36.69ZM142.61 37.10C142.61 35.43 141.49 34.06 139.68 34.06C137.88 34.06 136.76 35.43 136.76 37.10C136.76 38.76 137.88 40.14 139.68 40.14C141.49 40.14 142.61 38.76 142.61 37.10ZM141.49 37.10C141.49 38.21 140.84 39.20 139.68 39.20C138.53 39.20 137.87 38.21 137.87 37.10C137.87 35.99 138.53 35.01 139.68 35.01C140.84 35.01 141.49 35.99 141.49 37.10ZM148.98 34.65C148.98 34.37 148.74 34.13 148.46 34.13C148.15 34.13 147.91 34.37 147.91 34.65L147.91 37.41C147.91 38.39 147.29 39.20 146.42 39.20C145.56 39.20 145.07 38.54 145.07 37.58L145.07 34.65C145.07 34.37 144.83 34.13 144.55 34.13C144.24 34.13 144.00 34.37 144.00 34.65L144.00 37.95C144.00 39.17 144.86 40.14 146.09 40.14C147.10 40.14 147.60 39.70 147.91 39.21L147.91 39.54C147.91 39.83 148.15 40.07 148.44 40.07C148.74 40.07 148.98 39.83 148.98 39.54ZM153.40 39.58C153.40 39.33 153.20 39.14 152.94 39.14C152.82 39.14 152.68 39.20 152.54 39.20C152.20 39.20 151.98 38.92 151.98 38.48L151.98 35.14L152.77 35.14C153.02 35.14 153.23 34.94 153.23 34.68C153.23 34.41 153.02 34.20 152.77 34.20L151.98 34.20L151.98 33.06C151.98 32.79 151.74 32.55 151.45 32.55C151.14 32.55 150.90 32.79 150.90 33.06L150.90 34.20L150.34 34.20C150.07 34.20 149.87 34.41 149.87 34.66C149.87 34.94 150.07 35.14 150.34 35.14L150.90 35.14L150.90 38.73C150.90 39.64 151.38 40.14 152.29 40.14C152.93 40.14 153.40 39.96 153.40 39.58ZM155.44 32.44C155.44 32.16 155.20 31.92 154.92 31.92C154.61 31.92 154.37 32.16 154.37 32.44L154.37 39.54C154.37 39.83 154.61 40.07 154.90 40.07C155.20 40.07 155.44 39.83 155.44 39.54ZM157.69 32.06C157.32 32.06 157.01 32.37 157.01 32.75C157.01 33.12 157.32 33.44 157.69 33.44C158.08 33.44 158.38 33.12 158.38 32.75C158.38 32.37 158.08 32.06 157.69 32.06ZM158.23 34.65C158.23 34.37 157.99 34.13 157.72 34.13C157.40 34.13 157.16 34.37 157.16 34.65L157.16 39.54C157.16 39.83 157.40 40.07 157.69 40.07C157.99 40.07 158.23 39.83 158.23 39.54ZM164.94 36.28C164.94 35.06 164.05 34.06 162.83 34.06C161.82 34.06 161.30 34.55 161.03 35.02L161.03 34.65C161.03 34.37 160.79 34.13 160.51 34.13C160.20 34.13 159.96 34.37 159.96 34.65L159.96 39.54C159.96 39.83 160.20 40.07 160.49 40.07C160.79 40.07 161.03 39.83 161.03 39.54L161.03 36.76C161.03 35.78 161.56 35.01 162.48 35.01C163.34 35.01 163.87 35.68 163.87 36.64L163.87 39.54C163.87 39.83 164.11 40.07 164.40 40.07C164.70 40.07 164.94 39.83 164.94 39.54ZM172.02 36.90C172.02 36.68 171.96 36.42 171.91 36.23C171.58 34.94 170.62 34.06 169.21 34.06C167.53 34.06 166.32 35.42 166.32 37.10C166.32 38.92 167.58 40.14 169.31 40.14C170.16 40.14 171.65 39.70 171.65 39.05C171.65 38.64 171.24 38.55 170.98 38.68C170.56 38.99 169.91 39.28 169.42 39.28C168.24 39.28 167.52 38.48 167.44 37.48L171.47 37.48C171.77 37.48 172.02 37.19 172.02 36.90ZM167.44 36.69C167.48 35.88 168.05 34.92 169.20 34.92C170.44 34.92 170.96 35.91 170.99 36.69ZM178.60 32.44C178.60 32.16 178.36 31.92 178.08 31.92C177.77 31.92 177.53 32.16 177.53 32.44L177.53 35.04C177.06 34.42 176.50 34.06 175.62 34.06C174.11 34.06 173.04 35.25 173.04 37.11C173.04 39.00 174.12 40.14 175.62 40.14C176.52 40.14 177.08 39.75 177.53 39.17L177.53 39.54C177.53 39.83 177.77 40.07 178.06 40.07C178.36 40.07 178.60 39.83 178.60 39.54ZM177.53 37.14C177.53 38.34 176.93 39.20 175.90 39.20C174.82 39.20 174.14 38.32 174.14 37.11C174.14 35.90 174.82 35.01 175.90 35.01C176.93 35.01 177.53 35.88 177.53 37.07ZM189.36 34.46C189.36 32.97 188.32 32.00 186.80 32.00L184.22 32.00C183.79 32.00 183.44 32.34 183.44 32.78L183.44 39.48C183.44 39.81 183.71 40.07 184.03 40.07C184.37 40.07 184.63 39.81 184.63 39.48L184.63 36.92L186.37 36.92L188.17 39.80C188.28 39.98 188.46 40.07 188.65 40.07C189 40.07 189.24 39.78 189.24 39.50C189.24 39.40 189.22 39.30 189.16 39.20L187.63 36.83C188.52 36.60 189.36 35.88 189.36 34.46ZM184.63 35.87L184.63 33.05L186.65 33.05C187.52 33.05 188.14 33.62 188.14 34.46C188.14 35.30 187.52 35.87 186.65 35.87ZM195.80 36.90C195.80 36.68 195.74 36.42 195.70 36.23C195.36 34.94 194.40 34.06 193.00 34.06C191.32 34.06 190.10 35.42 190.10 37.10C190.10 38.92 191.36 40.14 193.09 40.14C193.94 40.14 195.43 39.70 195.43 39.05C195.43 38.64 195.02 38.55 194.76 38.68C194.34 38.99 193.69 39.28 193.20 39.28C192.02 39.28 191.30 38.48 191.22 37.48L195.25 37.48C195.55 37.48 195.80 37.19 195.80 36.90ZM191.22 36.69C191.27 35.88 191.83 34.92 192.98 34.92C194.22 34.92 194.75 35.91 194.77 36.69ZM201.83 36.08C201.83 34.60 200.75 34.06 199.50 34.06C198.72 34.06 197.84 34.31 197.29 34.86C197.22 34.95 197.18 35.04 197.18 35.14C197.18 35.39 197.41 35.56 197.63 35.56C197.71 35.56 197.81 35.52 197.89 35.46C198.32 35.13 198.80 34.96 199.34 34.96C200.16 34.96 200.76 35.39 200.76 36.12L200.76 36.45L199.09 36.45C197.89 36.45 196.84 36.92 196.84 38.22C196.84 39.50 197.89 40.14 198.85 40.14C199.75 40.14 200.29 39.87 200.76 39.35L200.76 39.54C200.76 39.89 201.04 40.07 201.25 40.07L201.29 40.07C201.59 40.07 201.83 39.83 201.83 39.54ZM200.76 37.19L200.76 38.01C200.76 38.69 199.98 39.39 199.14 39.39C198.36 39.39 197.92 38.92 197.92 38.25C197.92 37.55 198.47 37.19 199.38 37.19ZM208.16 39.12C208.16 38.85 207.91 38.66 207.66 38.66C207.54 38.66 207.42 38.69 207.32 38.76C207 39.05 206.63 39.20 206.20 39.20C205.04 39.20 204.30 38.31 204.30 37.10C204.30 35.88 205.04 35.01 206.20 35.01C206.62 35.01 207 35.14 207.32 35.43C207.42 35.51 207.54 35.56 207.66 35.56C207.92 35.56 208.15 35.34 208.15 35.08C208.15 34.98 208.13 34.90 208.07 34.83C207.67 34.37 207.02 34.06 206.14 34.06C204.40 34.06 203.20 35.37 203.20 37.10C203.20 38.84 204.40 40.14 206.14 40.14C207 40.14 207.59 39.86 208.02 39.44C208.12 39.35 208.16 39.23 208.16 39.12ZM212.20 39.58C212.20 39.33 212.00 39.14 211.74 39.14C211.62 39.14 211.48 39.20 211.34 39.20C211.00 39.20 210.78 38.92 210.78 38.48L210.78 35.14L211.57 35.14C211.82 35.14 212.03 34.94 212.03 34.68C212.03 34.41 211.82 34.20 211.57 34.20L210.78 34.20L210.78 33.06C210.78 32.79 210.54 32.55 210.25 32.55C209.94 32.55 209.70 32.79 209.70 33.06L209.70 34.20L209.14 34.20C208.87 34.20 208.67 34.41 208.67 34.66C208.67 34.94 208.87 35.14 209.14 35.14L209.70 35.14L209.70 38.73C209.70 39.64 210.18 40.14 211.09 40.14C211.73 40.14 212.20 39.96 212.20 39.58ZM216.78 32.06C216.41 32.06 216.10 32.37 216.10 32.75C216.10 33.12 216.41 33.44 216.78 33.44C217.16 33.44 217.46 33.12 217.46 32.75C217.46 32.37 217.16 32.06 216.78 32.06ZM217.32 34.65C217.32 34.37 217.08 34.13 216.80 34.13C216.49 34.13 216.25 34.37 216.25 34.65L216.25 39.54C216.25 39.83 216.49 40.07 216.78 40.07C217.08 40.07 217.32 39.83 217.32 39.54ZM223.67 39.12C223.67 38.85 223.42 38.66 223.16 38.66C223.04 38.66 222.92 38.69 222.83 38.76C222.50 39.05 222.13 39.20 221.70 39.20C220.55 39.20 219.80 38.31 219.80 37.10C219.80 35.88 220.55 35.01 221.70 35.01C222.12 35.01 222.50 35.14 222.83 35.43C222.92 35.51 223.04 35.56 223.16 35.56C223.43 35.56 223.66 35.34 223.66 35.08C223.66 34.98 223.63 34.90 223.57 34.83C223.18 34.37 222.53 34.06 221.64 34.06C219.90 34.06 218.70 35.37 218.70 37.10C218.70 38.84 219.90 40.14 221.64 40.14C222.50 40.14 223.09 39.86 223.52 39.44C223.62 39.35 223.67 39.23 223.67 39.12ZM230.50 37.10C230.50 35.43 229.38 34.06 227.57 34.06C225.77 34.06 224.65 35.43 224.65 37.10C224.65 38.76 225.77 40.14 227.57 40.14C229.38 40.14 230.50 38.76 230.50 37.10ZM229.38 37.10C229.38 38.21 228.73 39.20 227.57 39.20C226.42 39.20 225.76 38.21 225.76 37.10C225.76 35.99 226.42 35.01 227.57 35.01C228.73 35.01 229.38 35.99 229.38 37.10ZM236.86 36.28C236.86 35.06 235.97 34.06 234.74 34.06C233.74 34.06 233.22 34.55 232.94 35.02L232.94 34.65C232.94 34.37 232.70 34.13 232.43 34.13C232.12 34.13 231.88 34.37 231.88 34.65L231.88 39.54C231.88 39.83 232.12 40.07 232.40 40.07C232.70 40.07 232.94 39.83 232.94 39.54L232.94 36.76C232.94 35.78 233.47 35.01 234.40 35.01C235.26 35.01 235.79 35.68 235.79 36.64L235.79 39.54C235.79 39.83 236.03 40.07 236.32 40.07C236.62 40.07 236.86 39.83 236.86 39.54ZM242.83 38.25C242.72 36.21 239.40 36.77 239.28 35.73C239.23 35.26 239.74 34.91 240.47 34.91C241.02 34.91 241.54 35.09 241.91 35.36C241.98 35.42 242.06 35.44 242.16 35.44C242.38 35.44 242.58 35.26 242.58 35.02C242.58 34.92 242.54 34.83 242.47 34.76C242.02 34.31 241.28 34.06 240.46 34.06C239.04 34.06 238.19 34.73 238.25 35.76C238.36 37.71 241.67 37.11 241.79 38.39C241.84 38.92 241.36 39.29 240.53 39.29C239.93 39.29 239.33 39.05 238.90 38.74C238.81 38.68 238.73 38.66 238.62 38.66C238.37 38.66 238.15 38.85 238.15 39.10C238.15 39.22 238.20 39.32 238.28 39.39C238.81 39.92 239.69 40.14 240.48 40.14C242.02 40.14 242.89 39.35 242.83 38.25ZM255.07 34.65C255.07 34.37 254.86 34.13 254.54 34.13C254.32 34.13 254.10 34.28 254.04 34.49L252.80 38.63L251.45 34.54C251.36 34.30 251.15 34.13 250.90 34.13C250.61 34.13 250.39 34.30 250.31 34.54L248.96 38.63L247.73 34.49C247.66 34.28 247.43 34.13 247.20 34.13C246.90 34.13 246.68 34.40 246.68 34.65C246.68 34.70 246.70 34.74 246.71 34.79L248.22 39.58C248.32 39.87 248.58 40.07 248.88 40.07L248.90 40.07C249.22 40.07 249.49 39.87 249.58 39.58L250.88 35.54L252.18 39.58C252.28 39.87 252.54 40.07 252.85 40.07L252.86 40.07C253.18 40.07 253.45 39.87 253.54 39.58L255.05 34.79C255.06 34.74 255.07 34.70 255.07 34.65ZM256.73 32.06C256.36 32.06 256.04 32.37 256.04 32.75C256.04 33.12 256.36 33.44 256.73 33.44C257.11 33.44 257.41 33.12 257.41 32.75C257.41 32.37 257.11 32.06 256.73 32.06ZM257.27 34.65C257.27 34.37 257.03 34.13 256.75 34.13C256.44 34.13 256.20 34.37 256.20 34.65L256.20 39.54C256.20 39.83 256.44 40.07 256.73 40.07C257.03 40.07 257.27 39.83 257.27 39.54ZM261.70 39.58C261.70 39.33 261.50 39.14 261.24 39.14C261.12 39.14 260.98 39.20 260.84 39.20C260.50 39.20 260.28 38.92 260.28 38.48L260.28 35.14L261.07 35.14C261.32 35.14 261.53 34.94 261.53 34.68C261.53 34.41 261.32 34.20 261.07 34.20L260.28 34.20L260.28 33.06C260.28 32.79 260.04 32.55 259.75 32.55C259.44 32.55 259.20 32.79 259.20 33.06L259.20 34.20L258.64 34.20C258.37 34.20 258.17 34.41 258.17 34.66C258.17 34.94 258.37 35.14 258.64 35.14L259.20 35.14L259.20 38.73C259.20 39.64 259.68 40.14 260.59 40.14C261.23 40.14 261.70 39.96 261.70 39.58ZM267.66 36.26C267.66 35.03 266.78 34.06 265.56 34.06C264.54 34.06 264.01 34.55 263.74 35.02L263.74 32.44C263.74 32.16 263.50 31.92 263.22 31.92C262.91 31.92 262.67 32.16 262.67 32.44L262.67 39.54C262.67 39.83 262.91 40.07 263.20 40.07C263.50 40.07 263.74 39.83 263.74 39.54L263.74 36.82C263.74 35.74 264.31 35.01 265.22 35.01C266.09 35.01 266.59 35.66 266.59 36.62L266.59 39.54C266.59 39.83 266.83 40.07 267.12 40.07C267.42 40.07 267.66 39.83 267.66 39.54ZM278.42 36.00C278.42 34.02 277.50 31.88 275.29 31.88C273.07 31.88 272.16 34.02 272.16 36.00C272.16 37.98 273.07 40.14 275.29 40.14C277.50 40.14 278.42 37.98 278.42 36.00ZM277.21 36.00C277.21 37.56 276.71 39.09 275.29 39.09C273.86 39.09 273.37 37.56 273.37 36.00C273.37 34.44 273.86 32.93 275.29 32.93C276.71 32.93 277.21 34.44 277.21 36.00ZM285.40 37.10C285.40 35.20 284.33 34.06 282.82 34.06C282.02 34.06 281.33 34.46 280.91 35.03L280.91 34.65C280.91 34.37 280.67 34.13 280.39 34.13C280.08 34.13 279.84 34.37 279.84 34.65L279.84 41.76C279.84 42.04 280.08 42.28 280.37 42.28C280.67 42.28 280.91 42.04 280.91 41.76L280.91 39.16C281.38 39.80 282.05 40.14 282.82 40.14C284.33 40.14 285.40 38.98 285.40 37.10ZM284.27 37.10C284.27 38.31 283.73 39.20 282.64 39.20C281.63 39.20 280.91 38.32 280.91 37.13L280.91 37.06C280.91 35.87 281.63 35.01 282.64 35.01C283.73 35.01 284.27 35.88 284.27 37.10ZM290.81 39.42C290.78 39.36 290.76 39.30 290.72 39.24L289.08 37.07L290.66 34.98C290.70 34.92 290.74 34.86 290.75 34.80C290.82 34.54 290.66 34.24 290.34 34.16C290.15 34.10 289.92 34.18 289.79 34.35L288.38 36.27L286.98 34.35C286.85 34.18 286.62 34.10 286.42 34.16C286.10 34.24 285.95 34.54 286.02 34.80C286.03 34.86 286.07 34.92 286.10 34.98L287.69 37.08L286.06 39.24C286.02 39.30 285.98 39.36 285.97 39.42C285.90 39.69 286.07 40.01 286.38 40.07C286.57 40.11 286.80 40.05 286.93 39.87L288.38 37.89L289.84 39.87C289.97 40.05 290.21 40.11 290.40 40.07C290.71 40.01 290.87 39.69 290.81 39.42ZM298.33 34.60C298.33 34.32 298.13 34.12 297.85 34.12C297.20 34.12 296.68 34.66 296.35 35.10L296.35 34.65C296.35 34.37 296.11 34.13 295.84 34.13C295.52 34.13 295.28 34.37 295.28 34.65L295.28 39.54C295.28 39.83 295.51 40.06 295.80 40.07L295.81 40.07C296.11 40.07 296.35 39.83 296.35 39.54L296.35 36.57C296.35 35.81 296.88 35.21 297.79 35.16C298.09 35.15 298.33 34.91 298.33 34.60ZM304.00 36.08C304.00 34.60 302.92 34.06 301.67 34.06C300.89 34.06 300.01 34.31 299.46 34.86C299.39 34.95 299.35 35.04 299.35 35.14C299.35 35.39 299.58 35.56 299.80 35.56C299.88 35.56 299.98 35.52 300.06 35.46C300.49 35.13 300.97 34.96 301.51 34.96C302.33 34.96 302.93 35.39 302.93 36.12L302.93 36.45L301.26 36.45C300.06 36.45 299.00 36.92 299.00 38.22C299.00 39.50 300.06 40.14 301.02 40.14C301.92 40.14 302.46 39.87 302.93 39.35L302.93 39.54C302.93 39.89 303.20 40.07 303.42 40.07L303.46 40.07C303.76 40.07 304.00 39.83 304.00 39.54ZM302.93 37.19L302.93 38.01C302.93 38.69 302.15 39.39 301.31 39.39C300.53 39.39 300.08 38.92 300.08 38.25C300.08 37.55 300.64 37.19 301.55 37.19ZM310.92 32.44C310.92 32.16 310.68 31.92 310.40 31.92C310.09 31.92 309.85 32.16 309.85 32.44L309.85 35.04C309.38 34.42 308.82 34.06 307.94 34.06C306.43 34.06 305.36 35.25 305.36 37.11C305.36 39.00 306.44 40.14 307.94 40.14C308.84 40.14 309.41 39.75 309.85 39.17L309.85 39.54C309.85 39.83 310.09 40.07 310.38 40.07C310.68 40.07 310.92 39.83 310.92 39.54ZM309.85 37.14C309.85 38.34 309.25 39.20 308.22 39.20C307.14 39.20 306.47 38.32 306.47 37.11C306.47 35.90 307.14 35.01 308.22 35.01C309.25 35.01 309.85 35.88 309.85 37.07ZM313.18 32.06C312.80 32.06 312.49 32.37 312.49 32.75C312.49 33.12 312.80 33.44 313.18 33.44C313.56 33.44 313.86 33.12 313.86 32.75C313.86 32.37 313.56 32.06 313.18 32.06ZM313.72 34.65C313.72 34.37 313.48 34.13 313.20 34.13C312.89 34.13 312.65 34.37 312.65 34.65L312.65 39.54C312.65 39.83 312.89 40.07 313.18 40.07C313.48 40.07 313.72 39.83 313.72 39.54ZM320.44 34.65C320.44 34.37 320.20 34.13 319.92 34.13C319.61 34.13 319.37 34.37 319.37 34.65L319.37 37.41C319.37 38.39 318.74 39.20 317.88 39.20C317.02 39.20 316.52 38.54 316.52 37.58L316.52 34.65C316.52 34.37 316.28 34.13 316.01 34.13C315.70 34.13 315.46 34.37 315.46 34.65L315.46 37.95C315.46 39.17 316.32 40.14 317.54 40.14C318.55 40.14 319.06 39.70 319.37 39.21L319.37 39.54C319.37 39.83 319.61 40.07 319.90 40.07C320.20 40.07 320.44 39.83 320.44 39.54ZM326.40 38.25C326.29 36.21 322.97 36.77 322.85 35.73C322.80 35.26 323.30 34.91 324.04 34.91C324.59 34.91 325.10 35.09 325.48 35.36C325.55 35.42 325.63 35.44 325.73 35.44C325.94 35.44 326.15 35.26 326.15 35.02C326.15 34.92 326.11 34.83 326.04 34.76C325.58 34.31 324.85 34.06 324.02 34.06C322.61 34.06 321.76 34.73 321.82 35.76C321.92 37.71 325.24 37.11 325.36 38.39C325.40 38.92 324.92 39.29 324.10 39.29C323.50 39.29 322.90 39.05 322.46 38.74C322.38 38.68 322.30 38.66 322.19 38.66C321.94 38.66 321.72 38.85 321.72 39.10C321.72 39.22 321.77 39.32 321.85 39.39C322.38 39.92 323.26 40.14 324.05 40.14C325.58 40.14 326.46 39.35 326.40 38.25ZM335.51 36.08C335.51 34.60 334.43 34.06 333.18 34.06C332.40 34.06 331.52 34.31 330.97 34.86C330.90 34.95 330.86 35.04 330.86 35.14C330.86 35.39 331.09 35.56 331.31 35.56C331.39 35.56 331.49 35.52 331.57 35.46C332.00 35.13 332.48 34.96 333.02 34.96C333.84 34.96 334.44 35.39 334.44 36.12L334.44 36.45L332.77 36.45C331.57 36.45 330.52 36.92 330.52 38.22C330.52 39.50 331.57 40.14 332.53 40.14C333.43 40.14 333.97 39.87 334.44 39.35L334.44 39.54C334.44 39.89 334.72 40.07 334.93 40.07L334.97 40.07C335.27 40.07 335.51 39.83 335.51 39.54ZM334.44 37.19L334.44 38.01C334.44 38.69 333.66 39.39 332.82 39.39C332.04 39.39 331.60 38.92 331.60 38.25C331.60 37.55 332.15 37.19 333.06 37.19ZM342.20 36.28C342.20 35.06 341.32 34.06 340.09 34.06C339.08 34.06 338.57 34.55 338.29 35.02L338.29 34.65C338.29 34.37 338.05 34.13 337.78 34.13C337.46 34.13 337.22 34.37 337.22 34.65L337.22 39.54C337.22 39.83 337.46 40.07 337.75 40.07C338.05 40.07 338.29 39.83 338.29 39.54L338.29 36.76C338.29 35.78 338.82 35.01 339.74 35.01C340.61 35.01 341.14 35.68 341.14 36.64L341.14 39.54C341.14 39.83 341.38 40.07 341.66 40.07C341.96 40.07 342.20 39.83 342.20 39.54ZM349.14 32.44C349.14 32.16 348.90 31.92 348.62 31.92C348.31 31.92 348.07 32.16 348.07 32.44L348.07 35.04C347.60 34.42 347.04 34.06 346.16 34.06C344.65 34.06 343.58 35.25 343.58 37.11C343.58 39.00 344.66 40.14 346.16 40.14C347.06 40.14 347.63 39.75 348.07 39.17L348.07 39.54C348.07 39.83 348.31 40.07 348.60 40.07C348.90 40.07 349.14 39.83 349.14 39.54ZM348.07 37.14C348.07 38.34 347.47 39.20 346.44 39.20C345.36 39.20 344.69 38.32 344.69 37.11C344.69 35.90 345.36 35.01 346.44 35.01C347.47 35.01 348.07 35.88 348.07 37.07ZM356.50 32.60C356.50 32.22 356.17 31.94 355.81 31.94C355.62 31.94 355.45 32.00 355.33 32.13L353.59 33.89C353.50 34 353.45 34.12 353.45 34.25C353.45 34.54 353.70 34.76 353.95 34.76C354.08 34.76 354.19 34.71 354.29 34.61L355.31 33.56L355.31 39.48C355.31 39.81 355.57 40.07 355.90 40.07C356.23 40.07 356.50 39.81 356.50 39.48ZM359.54 39.38C359.54 38.98 359.21 38.63 358.80 38.63C358.40 38.63 358.07 38.98 358.07 39.38C358.07 39.78 358.40 40.12 358.80 40.12C359.21 40.12 359.54 39.78 359.54 39.38ZM366.79 37.47C366.79 35.84 365.58 34.90 364.25 34.90C363.46 34.90 362.78 35.22 362.40 35.61L362.40 33.05L365.83 33.05C366.12 33.05 366.35 32.81 366.35 32.54C366.35 32.22 366.12 32.00 365.83 32.00L362.00 32.00C361.57 32.00 361.21 32.34 361.21 32.78L361.21 36.04C361.21 36.38 361.49 36.63 361.82 36.63C361.99 36.63 362.16 36.56 362.30 36.46C362.76 36.10 363.30 35.93 363.88 35.93C364.91 35.93 365.60 36.56 365.60 37.52C365.60 38.40 364.91 39.09 363.85 39.09C363.10 39.09 362.48 38.85 361.98 38.40C361.88 38.32 361.75 38.27 361.63 38.27C361.33 38.27 361.10 38.56 361.10 38.82C361.10 38.94 361.14 39.05 361.21 39.15C361.76 39.78 362.72 40.14 363.85 40.14C365.56 40.14 366.79 39.12 366.79 37.47ZM373.79 37.10C373.79 35.20 372.72 34.06 371.21 34.06C370.42 34.06 369.72 34.46 369.30 35.03L369.30 34.65C369.30 34.37 369.06 34.13 368.78 34.13C368.47 34.13 368.23 34.37 368.23 34.65L368.23 41.76C368.23 42.04 368.47 42.28 368.76 42.28C369.06 42.28 369.30 42.04 369.30 41.76L369.30 39.16C369.77 39.80 370.44 40.14 371.21 40.14C372.72 40.14 373.79 38.98 373.79 37.10ZM372.66 37.10C372.66 38.31 372.12 39.20 371.03 39.20C370.02 39.20 369.30 38.32 369.30 37.13L369.30 37.06C369.30 35.87 370.02 35.01 371.03 35.01C372.12 35.01 372.66 35.88 372.66 37.10ZM379.20 39.42C379.18 39.36 379.15 39.30 379.12 39.24L377.47 37.07L379.06 34.98C379.09 34.92 379.13 34.86 379.14 34.80C379.21 34.54 379.06 34.24 378.73 34.16C378.54 34.10 378.31 34.18 378.18 34.35L376.78 36.27L375.37 34.35C375.24 34.18 375.01 34.10 374.81 34.16C374.50 34.24 374.34 34.54 374.41 34.80C374.42 34.86 374.46 34.92 374.50 34.98L376.08 37.08L374.45 39.24C374.41 39.30 374.38 39.36 374.36 39.42C374.29 39.69 374.46 40.01 374.77 40.07C374.96 40.11 375.19 40.05 375.32 39.87L376.78 37.89L378.23 39.87C378.36 40.05 378.60 40.11 378.79 40.07C379.10 40.01 379.26 39.69 379.20 39.42ZM387.92 38.25C387.82 36.21 384.49 36.77 384.37 35.73C384.32 35.26 384.83 34.91 385.56 34.91C386.11 34.91 386.63 35.09 387.00 35.36C387.07 35.42 387.16 35.44 387.25 35.44C387.47 35.44 387.67 35.26 387.67 35.02C387.67 34.92 387.64 34.83 387.56 34.76C387.11 34.31 386.38 34.06 385.55 34.06C384.13 34.06 383.28 34.73 383.34 35.76C383.45 37.71 386.76 37.11 386.88 38.39C386.93 38.92 386.45 39.29 385.62 39.29C385.02 39.29 384.42 39.05 383.99 38.74C383.90 38.68 383.82 38.66 383.71 38.66C383.46 38.66 383.24 38.85 383.24 39.10C383.24 39.22 383.29 39.32 383.38 39.39C383.90 39.92 384.78 40.14 385.57 40.14C387.11 40.14 387.98 39.35 387.92 38.25ZM391.99 39.58C391.99 39.33 391.80 39.14 391.54 39.14C391.42 39.14 391.27 39.20 391.14 39.20C390.79 39.20 390.58 38.92 390.58 38.48L390.58 35.14L391.37 35.14C391.62 35.14 391.82 34.94 391.82 34.68C391.82 34.41 391.62 34.20 391.37 34.20L390.58 34.20L390.58 33.06C390.58 32.79 390.34 32.55 390.05 32.55C389.74 32.55 389.50 32.79 389.50 33.06L389.50 34.20L388.93 34.20C388.67 34.20 388.46 34.41 388.46 34.66C388.46 34.94 388.67 35.14 388.93 35.14L389.50 35.14L389.50 38.73C389.50 39.64 389.98 40.14 390.89 40.14C391.52 40.14 391.99 39.96 391.99 39.58ZM394.25 39.38C394.25 38.98 393.91 38.63 393.52 38.63C393.11 38.63 392.78 38.98 392.78 39.38C392.78 39.77 393.11 40.12 393.52 40.12C393.91 40.12 394.25 39.77 394.25 39.38ZM397.10 39.38C397.10 38.98 396.76 38.63 396.35 38.63C395.95 38.63 395.62 38.98 395.62 39.38C395.62 39.77 395.95 40.12 396.35 40.12C396.76 40.12 397.10 39.77 397.10 39.38ZM399.95 39.38C399.95 38.98 399.61 38.63 399.20 38.63C398.80 38.63 398.46 38.98 398.46 39.38C398.46 39.77 398.80 40.12 399.20 40.12C399.61 40.12 399.95 39.77 399.95 39.38Z" fill="#627386" /><rect x="18" y="50" width="384" height="6" rx="3" fill="#f4faff" /><rect x="18" y="50" width="0.12" height="6" rx="3" fill="#00a5fe" /></svg>