<svg xmlns="http://www.w3.org/2000/svg" width="420" height="64" viewBox="0 0 420 64" role="img"><rect x="0.5" y="0.5" width="419" height="63" rx="10" fill="#ffffff" stroke="#f2f4f6" /><path d="M25.31 18.04C25.31 17.55 24.92 17.15 24.43 17.15C23.91 17.15 23.52 17.55 23.52 18.04L23.52 18.11C23.10 17.49 22.34 17.07 21.43 17.07C19.72 17.07 18.45 18.30 18.45 20.51C18.45 22.77 19.74 23.96 21.43 23.96C22.40 23.96 23.19 23.57 23.52 22.89L23.52 23.58C23.52 24.91 22.51 25.29 21.65 25.29C21.05 25.29 20.52 25.16 20.04 24.87C19.92 24.80 19.79 24.77 19.67 24.77C19.27 24.77 18.92 25.08 18.92 25.51C18.92 25.65 18.97 25.79 19.04 25.90C19.44 26.53 20.83 26.74 21.65 26.74C23.32 26.74 25.31 26.11 25.31 23.54ZM23.52 20.56C23.52 21.69 22.72 22.38 21.99 22.38C20.98 22.38 20.28 21.68 20.28 20.51C20.28 19.35 20.98 18.65 21.99 18.65C22.72 18.65 23.52 19.32 23.52 20.47ZM27.95 14.40C27.38 14.40 26.89 14.86 26.89 15.45C26.89 16.03 27.38 16.51 27.95 16.51C28.54 16.51 29.02 16.03 29.02 15.45C29.02 14.86 28.54 14.40 27.95 14.40ZM28.85 18.02C28.85 17.55 28.46 17.15 27.98 17.15C27.46 17.15 27.07 17.55 27.07 18.02L27.07 23.20C27.07 23.69 27.46 24.08 27.95 24.08C28.46 24.08 28.85 23.69 28.85 23.20ZM34.31 23.36C34.31 22.92 34.03 22.59 33.53 22.59L33.37 22.59C33.09 22.59 32.76 22.38 32.76 21.84L32.76 18.79L33.46 18.79C33.86 18.79 34.21 18.44 34.21 18.02C34.21 17.59 33.86 17.24 33.46 17.24L32.76 17.24L32.76 16.19C32.76 15.70 32.36 15.31 31.87 15.31C31.36 15.31 30.96 15.70 30.96 16.19L30.96 17.24L30.53 17.24C30.11 17.24 29.76 17.59 29.76 17.99C29.76 18.44 30.11 18.79 30.53 18.79L30.96 18.79L30.96 22.32C30.96 23.52 31.64 24.17 32.88 24.17C34.04 24.17 34.31 23.80 34.31 23.36ZM41.70 19.90C41.70 18.44 40.57 17.07 39.08 17.07C37.98 17.07 37.42 17.60 37.12 17.98L37.12 15.45C37.12 14.97 36.73 14.58 36.26 14.58C35.74 14.58 35.35 14.97 35.35 15.45L35.35 23.20C35.35 23.69 35.74 24.08 36.23 24.08C36.73 24.08 37.12 23.69 37.12 23.20L37.12 20.15C37.12 19.32 37.70 18.65 38.52 18.65C39.29 18.65 39.92 19.23 39.92 20.16L39.92 23.20C39.92 23.69 40.32 24.08 40.81 24.08C41.31 24.08 41.70 23.69 41.70 23.20ZM43.47 21.59C43.47 22.91 44.60 24.17 46.08 24.17C47.15 24.17 47.79 23.62 48.03 23.20L48.03 23.22C48.03 23.69 48.42 24.08 48.90 24.08C49.42 24.08 49.81 23.69 49.81 23.22L49.81 18.04C49.81 17.55 49.42 17.15 48.93 17.15C48.42 17.15 48.03 17.55 48.03 18.04L48.03 21.02C48.03 21.98 47.33 22.59 46.63 22.59C45.87 22.59 45.24 21.98 45.24 21.05L45.24 18.04C45.24 17.55 44.85 17.15 44.36 17.15C43.86 17.15 43.47 17.55 43.47 18.04ZM58.43 20.63C58.43 18.41 57.02 17.07 55.30 17.07C54.50 17.07 53.74 17.42 53.35 18.11L53.35 15.45C53.35 14.97 52.96 14.58 52.48 14.58C51.96 14.58 51.57 14.97 51.57 15.45L51.57 23.20C51.57 23.69 51.96 24.08 52.45 24.08C52.96 24.08 53.35 23.69 53.35 23.20L53.35 23.13C53.74 23.80 54.48 24.17 55.30 24.17C57.00 24.17 58.43 22.88 58.43 20.63ZM56.60 20.63C56.60 21.80 55.91 22.59 54.88 22.59C54.16 22.59 53.35 21.84 53.35 20.71L53.35 20.56C53.35 19.41 54.16 18.65 54.88 18.65C55.91 18.65 56.60 19.45 56.60 20.63ZM62.76 20.60C62.76 20.19 62.42 19.86 62.02 19.86L59.97 19.86C59.57 19.86 59.23 20.19 59.23 20.60C59.23 21.03 59.57 21.37 59.97 21.37L62.02 21.37C62.42 21.37 62.76 21.03 62.76 20.60ZM70.40 18.04C70.40 17.55 70.01 17.15 69.52 17.15C69.00 17.15 68.61 17.55 68.61 18.04L68.61 18.11C68.19 17.49 67.43 17.07 66.52 17.07C64.82 17.07 63.54 18.30 63.54 20.51C63.54 22.77 64.83 23.96 66.52 23.96C67.49 23.96 68.29 23.57 68.61 22.89L68.61 23.58C68.61 24.91 67.60 25.29 66.75 25.29C66.15 25.29 65.61 25.16 65.14 24.87C65.01 24.80 64.89 24.77 64.76 24.77C64.37 24.77 64.02 25.08 64.02 25.51C64.02 25.65 64.06 25.79 64.13 25.90C64.54 26.53 65.92 26.74 66.75 26.74C68.41 26.74 70.40 26.11 70.40 23.54ZM68.61 20.56C68.61 21.69 67.81 22.38 67.08 22.38C66.08 22.38 65.38 21.68 65.38 20.51C65.38 19.35 66.08 18.65 67.08 18.65C67.81 18.65 68.61 19.32 68.61 20.47ZM76.18 17.91C76.18 17.50 75.92 17.18 75.40 17.18C74.73 17.18 74.28 17.71 73.94 18.16L73.94 18.02C73.94 17.55 73.55 17.15 73.08 17.15C72.56 17.15 72.17 17.55 72.17 18.02L72.17 23.20C72.17 23.69 72.56 24.08 73.05 24.08L73.08 24.08C73.55 24.08 73.94 23.69 73.94 23.20L73.94 20.37C73.94 19.25 74.78 18.89 75.33 18.82C75.82 18.75 76.18 18.44 76.18 17.91ZM83.04 19.63C83.04 17.69 81.63 17.07 80.09 17.07C79.31 17.07 77.79 17.35 77.37 18.02C77.32 18.12 77.28 18.25 77.28 18.37C77.28 18.79 77.63 19.06 77.95 19.06C78.06 19.06 78.17 19.02 78.27 18.96C78.73 18.65 79.25 18.53 79.78 18.53C80.68 18.53 81.27 18.97 81.27 19.66L81.27 19.88L79.12 19.88C78.05 19.88 76.77 20.35 76.77 21.93C76.77 23.44 78.05 24.17 79.12 24.17C80.15 24.17 80.80 23.92 81.27 23.37C81.27 23.68 81.56 24.08 82.04 24.08L82.18 24.08C82.65 24.08 83.04 23.69 83.04 23.20ZM81.27 21.09L81.27 21.40C81.27 22.49 80.41 22.96 79.84 22.96C79.14 22.96 78.56 22.60 78.56 21.97C78.56 21.31 79.14 21.09 79.84 21.09ZM91.67 20.61C91.67 18.36 90.24 17.07 88.53 17.07C87.72 17.07 86.98 17.43 86.59 18.11L86.59 18.04C86.59 17.55 86.19 17.15 85.69 17.15C85.20 17.15 84.81 17.55 84.81 18.04L84.81 25.79C84.81 26.27 85.19 26.66 85.70 26.66C86.18 26.66 86.59 26.27 86.59 25.79L86.59 23.13C86.98 23.82 87.73 24.17 88.53 24.17C90.25 24.17 91.67 22.82 91.67 20.61ZM89.83 20.61C89.83 21.79 89.15 22.59 88.11 22.59C87.40 22.59 86.59 21.83 86.59 20.68L86.59 20.53C86.59 19.39 87.40 18.65 88.11 18.65C89.15 18.65 89.83 19.44 89.83 20.61ZM99.33 19.90C99.33 18.44 98.19 17.07 96.71 17.07C95.60 17.07 95.04 17.60 94.75 17.98L94.75 15.45C94.75 14.97 94.36 14.58 93.88 14.58C93.36 14.58 92.97 14.97 92.97 15.45L92.97 23.20C92.97 23.69 93.36 24.08 93.85 24.08C94.36 24.08 94.75 23.69 94.75 23.20L94.75 20.15C94.75 19.32 95.32 18.65 96.15 18.65C96.92 18.65 97.55 19.23 97.55 20.16L97.55 23.20C97.55 23.69 97.94 24.08 98.43 24.08C98.93 24.08 99.33 23.69 99.33 23.20ZM100.64 20.61C100.64 22.82 102.06 24.17 103.78 24.17C104.58 24.17 105.33 23.82 105.72 23.13L105.72 25.79C105.72 26.27 106.12 26.66 106.59 26.66C107.11 26.66 107.50 26.27 107.50 25.79L107.50 18.04C107.50 17.55 107.11 17.15 106.62 17.15C106.12 17.15 105.72 17.55 105.72 18.04L105.72 18.11C105.33 17.43 104.59 17.07 103.78 17.07C102.07 17.07 100.64 18.36 100.64 20.61ZM102.48 20.61C102.48 19.44 103.16 18.65 104.20 18.65C104.91 18.65 105.72 19.39 105.72 20.53L105.72 20.68C105.72 21.83 104.91 22.59 104.20 22.59C103.16 22.59 102.48 21.79 102.48 20.61ZM111.03 15.45C111.03 14.97 110.64 14.58 110.16 14.58C109.64 14.58 109.25 14.97 109.25 15.45L109.25 23.20C109.25 23.69 109.64 24.08 110.13 24.08C110.64 24.08 111.03 23.69 111.03 23.20ZM115.78 20.60C115.78 20.19 115.44 19.86 115.03 19.86L112.99 19.86C112.58 19.86 112.25 20.19 112.25 20.60C112.25 21.03 112.58 21.37 112.99 21.37L115.03 21.37C115.44 21.37 115.78 21.03 115.78 20.60ZM122.83 19.63C122.83 17.69 121.42 17.07 119.88 17.07C119.09 17.07 117.58 17.35 117.16 18.02C117.11 18.12 117.06 18.25 117.06 18.37C117.06 18.79 117.41 19.06 117.74 19.06C117.85 19.06 117.96 19.02 118.06 18.96C118.52 18.65 119.04 18.53 119.57 18.53C120.47 18.53 121.05 18.97 121.05 19.66L121.05 19.88L118.91 19.88C117.83 19.88 116.56 20.35 116.56 21.93C116.56 23.44 117.83 24.17 118.91 24.17C119.93 24.17 120.59 23.92 121.05 23.37C121.05 23.68 121.35 24.08 121.82 24.08L121.96 24.08C122.44 24.08 122.83 23.69 122.83 23.20ZM121.05 21.09L121.05 21.40C121.05 22.49 120.20 22.96 119.63 22.96C118.93 22.96 118.35 22.60 118.35 21.97C118.35 21.31 118.93 21.09 119.63 21.09ZM131.46 20.61C131.46 18.36 130.03 17.07 128.32 17.07C127.51 17.07 126.77 17.43 126.37 18.11L126.37 18.04C126.37 17.55 125.98 17.15 125.48 17.15C124.99 17.15 124.60 17.55 124.60 18.04L124.60 25.79C124.60 26.27 124.97 26.66 125.49 26.66C125.97 26.66 126.37 26.27 126.37 25.79L126.37 23.13C126.77 23.82 127.52 24.17 128.32 24.17C130.04 24.17 131.46 22.82 131.46 20.61ZM129.62 20.61C129.62 21.79 128.94 22.59 127.90 22.59C127.19 22.59 126.37 21.83 126.37 20.68L126.37 20.53C126.37 19.39 127.19 18.65 127.90 18.65C128.94 18.65 129.62 19.44 129.62 20.61ZM133.64 14.40C133.07 14.40 132.58 14.86 132.58 15.45C132.58 16.03 133.07 16.51 133.64 16.51C134.23 16.51 134.70 16.03 134.70 15.45C134.70 14.86 134.23 14.40 133.64 14.40ZM134.54 18.02C134.54 17.55 134.14 17.15 133.67 17.15C133.15 17.15 132.76 17.55 132.76 18.02L132.76 23.20C132.76 23.69 133.15 24.08 133.64 24.08C134.14 24.08 134.54 23.69 134.54 23.20Z" fill="#22272e" /><path d="M370.93 21.40C370.93 20.95 370.57 20.58 370.14 20.58L369.73 20.58L369.73 16.29C369.73 15.48 368.95 15.12 368.16 15.25C367.60 15.25 367.04 15.55 366.74 16.02L363.84 20.59C363.73 20.78 363.68 20.98 363.68 21.19C363.68 21.78 364.11 22.21 364.63 22.21L367.89 22.21L367.89 23.17C367.89 23.66 368.30 24.08 368.80 24.08C369.32 24.08 369.73 23.66 369.73 23.17L369.73 22.21L370.14 22.21C370.57 22.21 370.93 21.84 370.93 21.40ZM365.55 20.58L367.89 16.97L367.89 20.58ZM378.63 21.15C378.63 19.40 377.31 18.34 375.84 18.34C375.05 18.34 374.35 18.66 373.93 19.07L373.93 16.95L377.33 16.95C377.75 16.95 378.12 16.59 378.12 16.15C378.12 15.69 377.75 15.33 377.33 15.33L373.13 15.33C372.56 15.33 372.09 15.80 372.09 16.37L372.09 19.70C372.09 20.20 372.45 20.58 373.02 20.58C373.28 20.58 373.53 20.50 373.74 20.36C374.21 20.05 374.66 19.94 375.19 19.94C376.18 19.94 376.75 20.46 376.75 21.23C376.75 21.93 376.17 22.52 375.14 22.52C374.52 22.52 373.92 22.35 373.41 22.04C373.26 21.95 373.09 21.89 372.93 21.89C372.48 21.89 372.05 22.25 372.05 22.73C372.05 22.86 372.09 22.99 372.15 23.10C372.56 23.78 374.02 24.16 375.16 24.16C377.25 24.16 378.63 23.00 378.63 21.15ZM381.88 23.36C381.88 22.52 381.32 22.04 380.71 22.04C380.16 22.04 379.69 22.50 379.69 23.08C379.69 23.64 380.08 24.01 380.58 24.01C380.67 24.01 380.78 23.99 380.82 23.97C380.75 24.31 380.46 24.71 380.12 24.99C380.03 25.07 379.99 25.17 379.99 25.27C379.99 25.53 380.26 25.69 380.49 25.69C380.62 25.69 380.73 25.65 380.82 25.56C381.47 24.98 381.88 24.20 381.88 23.36ZM385.61 16.32C385.61 15.73 385.11 15.26 384.53 15.26C384.23 15.26 383.94 15.38 383.75 15.58L381.75 17.60C381.59 17.76 381.51 17.95 381.51 18.15C381.51 18.58 381.88 18.92 382.28 18.92C382.46 18.92 382.64 18.85 382.79 18.71L383.76 17.71L383.76 23.17C383.76 23.66 384.18 24.08 384.67 24.08C385.19 24.08 385.61 23.66 385.61 23.17ZM393.91 21.15C393.91 19.40 392.60 18.34 391.13 18.34C390.34 18.34 389.64 18.66 389.22 19.07L389.22 16.95L392.61 16.95C393.04 16.95 393.41 16.59 393.41 16.15C393.41 15.69 393.04 15.33 392.61 15.33L388.42 15.33C387.84 15.33 387.38 15.80 387.38 16.37L387.38 19.70C387.38 20.20 387.74 20.58 388.31 20.58C388.57 20.58 388.82 20.50 389.03 20.36C389.49 20.05 389.95 19.94 390.48 19.94C391.47 19.94 392.04 20.46 392.04 21.23C392.04 21.93 391.46 22.52 390.43 22.52C389.81 22.52 389.21 22.35 388.70 22.04C388.55 21.95 388.38 21.89 388.22 21.89C387.77 21.89 387.34 22.25 387.34 22.73C387.34 22.86 387.38 22.99 387.44 23.10C387.84 23.78 389.31 24.16 390.44 24.16C392.54 24.16 393.91 23.00 393.91 21.15ZM401.43 21.63C401.53 20.07 400.48 19.53 400.48 19.53C400.48 19.53 401.44 19.03 401.34 17.55C401.23 16.11 400.09 15.20 398.06 15.20C396.87 15.20 395.93 15.55 395.21 16.12C395.03 16.27 394.94 16.47 394.94 16.68C394.94 17.14 395.34 17.46 395.75 17.46C395.90 17.46 396.06 17.42 396.19 17.33C396.70 17.01 397.27 16.84 397.87 16.84C398.78 16.84 399.48 17.04 399.48 17.73C399.48 18.45 399.05 18.79 398.18 18.79C397.55 18.79 397.28 19.14 397.28 19.59C397.28 20.05 397.55 20.41 398.23 20.41C399.11 20.41 399.62 20.72 399.62 21.41C399.62 22.06 399.04 22.52 397.98 22.52C397.39 22.52 396.70 22.31 396.12 21.97C395.98 21.88 395.83 21.84 395.67 21.84C395.24 21.84 394.82 22.19 394.82 22.66C394.82 22.79 394.86 22.91 394.93 23.01C395.33 23.69 396.80 24.16 398.05 24.16C400.13 24.16 401.32 23.26 401.43 21.63Z" fill="#627386" /><path transform="translate(346.42, 12)" d="M6 1 L6 7.5 M3 5 L6 8 L9 5 M2 10.5 L10 10.5" fill="none" stroke="#627386" stroke-width="1.4" stroke-linecap="round" stroke-linejoin="round" /><path d="M25.64 39.44C25.64 39.36 25.63 39.29 25.60 39.21L22.94 32.56C22.79 32.16 22.39 31.91 21.97 31.92C21.55 31.92 21.17 32.18 21.02 32.56L18.37 39.21C18.35 39.29 18.34 39.36 18.34 39.44C18.34 39.76 18.60 40.07 18.97 40.07C19.22 40.07 19.45 39.93 19.55 39.69L20.08 38.33L23.90 38.33L24.43 39.69C24.53 39.93 24.76 40.07 25.01 40.07C25.39 40.07 25.64 39.74 25.64 39.44ZM21.98 33.21L23.57 37.29L20.41 37.29ZM34.91 36.28C34.91 35.06 34.02 34.06 32.80 34.06C31.79 34.06 31.27 34.55 31.00 35.02L31.00 34.65C31.00 34.37 30.76 34.13 30.48 34.13C30.17 34.13 29.93 34.37 29.93 34.65L29.93 39.54C29.93 39.83 30.17 40.07 30.46 40.07C30.76 40.07 31.00 39.83 31.00 39.54L31.00 36.76C31.00 35.78 31.52 35.01 32.45 35.01C33.31 35.01 33.84 35.68 33.84 36.64L33.84 39.54C33.84 39.83 34.08 40.07 34.37 40.07C34.67 40.07 34.91 39.83 34.91 39.54ZM42.13 37.10C42.13 35.43 41.02 34.06 39.20 34.06C37.40 34.06 36.29 35.43 36.29 37.10C36.29 38.76 37.40 40.14 39.20 40.14C41.02 40.14 42.13 38.76 42.13 37.10ZM41.02 37.10C41.02 38.21 40.37 39.20 39.20 39.20C38.05 39.20 37.39 38.21 37.39 37.10C37.39 35.99 38.05 35.01 39.20 35.01C40.37 35.01 41.02 35.99 41.02 37.10ZM48.72 32.44C48.72 32.16 48.48 31.92 48.20 31.92C47.89 31.92 47.65 32.16 47.65 32.44L47.65 35.04C47.18 34.42 46.62 34.06 45.74 34.06C44.23 34.06 43.16 35.25 43.16 37.11C43.16 39.00 44.24 40.14 45.74 40.14C46.64 40.14 47.21 39.75 47.65 39.17L47.65 39.54C47.65 39.83 47.89 40.07 48.18 40.07C48.48 40.07 48.72 39.83 48.72 39.54ZM47.65 37.14C47.65 38.34 47.05 39.20 46.02 39.20C44.94 39.20 44.27 38.32 44.27 37.11C44.27 35.90 44.94 35.01 46.02 35.01C47.05 35.01 47.65 35.88 47.65 37.07ZM55.80 36.90C55.80 36.68 55.74 36.42 55.69 36.23C55.36 34.94 54.40 34.06 52.99 34.06C51.31 34.06 50.10 35.42 50.10 37.10C50.10 38.92 51.36 40.14 53.09 40.14C53.94 40.14 55.43 39.70 55.43 39.05C55.43 38.64 55.02 38.55 54.76 38.68C54.34 38.99 53.69 39.28 53.20 39.28C52.02 39.28 51.30 38.48 51.22 37.48L55.25 37.48C55.55 37.48 55.80 37.19 55.80 36.90ZM51.22 36.69C51.26 35.88 51.83 34.92 52.98 34.92C54.22 34.92 54.74 35.91 54.77 36.69ZM64.87 39.12C64.87 38.85 64.62 38.66 64.37 38.66C64.25 38.66 64.13 38.69 64.03 38.76C63.71 39.05 63.34 39.20 62.90 39.20C61.75 39.20 61.01 38.31 61.01 37.10C61.01 35.88 61.75 35.01 62.90 35.01C63.32 35.01 63.71 35.14 64.03 35.43C64.13 35.51 64.25 35.56 64.37 35.56C64.63 35.56 64.86 35.34 64.86 35.08C64.86 34.98 64.84 34.90 64.78 34.83C64.38 34.37 63.73 34.06 62.84 34.06C61.10 34.06 59.90 35.37 59.90 37.10C59.90 38.84 61.10 40.14 62.84 40.14C63.71 40.14 64.30 39.86 64.73 39.44C64.82 39.35 64.87 39.23 64.87 39.12ZM67.27 32.44C67.27 32.16 67.03 31.92 66.76 31.92C66.44 31.92 66.20 32.16 66.20 32.44L66.20 39.54C66.20 39.83 66.44 40.07 66.73 40.07C67.03 40.07 67.27 39.83 67.27 39.54ZM69.53 32.06C69.16 32.06 68.84 32.37 68.84 32.75C68.84 33.12 69.16 33.44 69.53 33.44C69.91 33.44 70.21 33.12 70.21 32.75C70.21 32.37 69.91 32.06 69.53 32.06ZM70.07 34.65C70.07 34.37 69.83 34.13 69.55 34.13C69.24 34.13 69.00 34.37 69.00 34.65L69.00 39.54C69.00 39.83 69.24 40.07 69.53 40.07C69.83 40.07 70.07 39.83 70.07 39.54ZM77.15 36.90C77.15 36.68 77.09 36.42 77.04 36.23C76.70 34.94 75.74 34.06 74.34 34.06C72.66 34.06 71.45 35.42 71.45 37.10C71.45 38.92 72.71 40.14 74.44 40.14C75.29 40.14 76.78 39.70 76.78 39.05C76.78 38.64 76.37 38.55 76.10 38.68C75.68 38.99 75.04 39.28 74.54 39.28C73.37 39.28 72.65 38.48 72.56 37.48L76.60 37.48C76.90 37.48 77.15 37.19 77.15 36.90ZM72.56 36.69C72.61 35.88 73.18 34.92 74.33 34.92C75.56 34.92 76.09 35.91 76.12 36.69ZM83.50 36.28C83.50 35.06 82.61 34.06 81.38 34.06C80.38 34.06 79.86 34.55 79.58 35.02L79.58 34.65C79.58 34.37 79.34 34.13 79.07 34.13C78.76 34.13 78.52 34.37 78.52 34.65L78.52 39.54C78.52 39.83 78.76 40.07 79.04 40.07C79.34 40.07 79.58 39.83 79.58 39.54L79.58 36.76C79.58 35.78 80.11 35.01 81.04 35.01C81.90 35.01 82.43 35.68 82.43 36.64L82.43 39.54C82.43 39.83 82.67 40.07 82.96 40.07C83.26 40.07 83.50 39.83 83.50 39.54ZM87.92 39.58C87.92 39.33 87.73 39.14 87.47 39.14C87.35 39.14 87.20 39.20 87.07 39.20C86.72 39.20 86.51 38.92 86.51 38.48L86.51 35.14L87.30 35.14C87.55 35.14 87.76 34.94 87.76 34.68C87.76 34.41 87.55 34.20 87.30 34.20L86.51 34.20L86.51 33.06C86.51 32.79 86.27 32.55 85.98 32.55C85.67 32.55 85.43 32.79 85.43 33.06L85.43 34.20L84.86 34.20C84.60 34.20 84.40 34.41 84.40 34.66C84.40 34.94 84.60 35.14 84.86 35.14L85.43 35.14L85.43 38.73C85.43 39.64 85.91 40.14 86.82 40.14C87.46 40.14 87.92 39.96 87.92 39.58ZM95.22 32.46C95.22 32.06 94.52 31.88 94.01 31.88C92.94 31.88 92.26 32.60 92.26 33.80L92.26 34.20L91.68 34.20C91.43 34.20 91.22 34.41 91.22 34.66C91.22 34.94 91.43 35.14 91.68 35.14L92.26 35.14L92.26 39.54C92.26 39.83 92.50 40.07 92.78 40.07C93.08 40.07 93.32 39.83 93.32 39.54L93.32 35.14L94.12 35.14C94.37 35.14 94.57 34.94 94.57 34.68C94.57 34.41 94.37 34.20 94.12 34.20L93.32 34.20L93.32 33.80C93.32 33.11 93.64 32.74 94.19 32.74C94.44 32.74 94.62 32.88 94.81 32.88C95.02 32.88 95.22 32.73 95.22 32.46ZM101.02 37.10C101.02 35.43 99.90 34.06 98.09 34.06C96.29 34.06 95.17 35.43 95.17 37.10C95.17 38.76 96.29 40.14 98.09 40.14C99.90 40.14 101.02 38.76 101.02 37.10ZM99.90 37.10C99.90 38.21 99.25 39.20 98.09 39.20C96.94 39.20 96.28 38.21 96.28 37.10C96.28 35.99 96.94 35.01 98.09 35.01C99.25 35.01 99.90 35.99 99.90 37.10ZM105.44 34.60C105.44 34.32 105.24 34.12 104.96 34.12C104.32 34.12 103.79 34.66 103.46 35.10L103.46 34.65C103.46 34.37 103.22 34.13 102.95 34.13C102.64 34.13 102.40 34.37 102.40 34.65L102.40 39.54C102.40 39.83 102.62 40.06 102.91 40.07L102.92 40.07C103.22 40.07 103.46 39.83 103.46 39.54L103.46 36.57C103.46 35.81 103.99 35.21 104.90 35.16C105.20 35.15 105.44 34.91 105.44 34.60ZM112.24 39.58C112.24 39.33 112.04 39.14 111.78 39.14C111.66 39.14 111.52 39.20 111.38 39.20C111.04 39.20 110.82 38.92 110.82 38.48L110.82 35.14L111.61 35.14C111.86 35.14 112.07 34.94 112.07 34.68C112.07 34.41 111.86 34.20 111.61 34.20L110.82 34.20L110.82 33.06C110.82 32.79 110.58 32.55 110.29 32.55C109.98 32.55 109.74 32.79 109.74 33.06L109.74 34.20L109.18 34.20C108.91 34.20 108.71 34.41 108.71 34.66C108.71 34.94 108.91 35.14 109.18 35.14L109.74 35.14L109.74 38.73C109.74 39.64 110.22 40.14 111.13 40.14C111.77 40.14 112.24 39.96 112.24 39.58ZM118.20 36.26C118.20 35.03 117.32 34.06 116.10 34.06C115.08 34.06 114.55 34.55 114.28 35.02L114.28 32.44C114.28 32.16 114.04 31.92 113.76 31.92C113.45 31.92 113.21 32.16 113.21 32.44L113.21 39.54C113.21 39.83 113.45 40.07 113.74 40.07C114.04 40.07 114.28 39.83 114.28 39.54L114.28 36.82C114.28 35.74 114.85 35.01 115.76 35.01C116.63 35.01 117.13 35.66 117.13 36.62L117.13 39.54C117.13 39.83 117.37 40.07 117.66 40.07C117.96 40.07 118.20 39.83 118.20 39.54ZM125.28 36.90C125.28 36.68 125.22 36.42 125.17 36.23C124.84 34.94 123.88 34.06 122.47 34.06C120.79 34.06 119.58 35.42 119.58 37.10C119.58 38.92 120.84 40.14 122.57 40.14C123.42 40.14 124.91 39.70 124.91 39.05C124.91 38.64 124.50 38.55 124.24 38.68C123.82 38.99 123.17 39.28 122.68 39.28C121.50 39.28 120.78 38.48 120.70 37.48L124.73 37.48C125.03 37.48 125.28 37.19 125.28 36.90ZM120.70 36.69C120.74 35.88 121.31 34.92 122.46 34.92C123.70 34.92 124.22 35.91 124.25 36.69ZM136.80 36.58C136.80 36.15 136.44 35.80 136.01 35.80L133.48 35.80C133.19 35.80 132.96 36.03 132.96 36.32C132.96 36.62 133.19 36.84 133.48 36.84L135.61 36.84L135.61 37.46C135.61 38.55 134.47 39.10 133.58 39.10C131.90 39.10 130.66 37.79 130.66 36.00C130.66 34.20 131.90 32.92 133.58 32.92C134.33 32.92 135.07 33.23 135.56 33.74C135.67 33.86 135.82 33.92 135.96 33.92C136.26 33.92 136.50 33.66 136.50 33.36C136.50 33.23 136.46 33.08 136.36 32.98C135.72 32.33 134.81 31.86 133.58 31.86C131.28 31.86 129.42 33.51 129.42 36.00C129.42 38.50 131.28 40.16 133.58 40.16C135.53 40.16 136.80 38.80 136.80 37.38ZM138.84 32.06C138.47 32.06 138.16 32.37 138.16 32.75C138.16 33.12 138.47 33.44 138.84 33.44C139.22 33.44 139.52 33.12 139.52 32.75C139.52 32.37 139.22 32.06 138.84 32.06ZM139.38 34.65C139.38 34.37 139.14 34.13 138.86 34.13C138.55 34.13 138.31 34.37 138.31 34.65L138.31 39.54C138.31 39.83 138.55 40.07 138.84 40.07C139.14 40.07 139.38 39.83 139.38 39.54ZM143.81 39.58C143.81 39.33 143.62 39.14 143.35 39.14C143.23 39.14 143.09 39.20 142.96 39.20C142.61 39.20 142.39 38.92 142.39 38.48L142.39 35.14L143.18 35.14C143.44 35.14 143.64 34.94 143.64 34.68C143.64 34.41 143.44 34.20 143.18 34.20L142.39 34.20L142.39 33.06C142.39 32.79 142.15 32.55 141.86 32.55C141.55 32.55 141.31 32.79 141.31 33.06L141.31 34.20L140.75 34.20C140.48 34.20 140.28 34.41 140.28 34.66C140.28 34.94 140.48 35.14 140.75 35.14L141.31 35.14L141.31 38.73C141.31 39.64 141.79 40.14 142.70 40.14C143.34 40.14 143.81 39.96 143.81 39.58ZM151.63 32.50C151.63 32.19 151.37 31.92 151.06 31.92C150.70 31.92 150.43 32.19 150.43 32.50L150.43 35.36L146.00 35.36L146.00 32.50C146.00 32.19 145.74 31.92 145.43 31.92C145.08 31.92 144.82 32.19 144.82 32.50L144.82 39.48C144.82 39.81 145.08 40.07 145.40 40.07C145.74 40.07 146.00 39.81 146.00 39.48L146.00 36.41L150.43 36.41L150.43 39.48C150.43 39.81 150.70 40.07 151.03 40.07C151.37 40.07 151.63 39.81 151.63 39.48ZM158.38 34.65C158.38 34.37 158.14 34.13 157.86 34.13C157.55 34.13 157.31 34.37 157.31 34.65L157.31 37.41C157.31 38.39 156.68 39.20 155.82 39.20C154.96 39.20 154.46 38.54 154.46 37.58L154.46 34.65C154.46 34.37 154.22 34.13 153.95 34.13C153.64 34.13 153.40 34.37 153.40 34.65L153.40 37.95C153.40 39.17 154.26 40.14 155.48 40.14C156.49 40.14 157.00 39.70 157.31 39.21L157.31 39.54C157.31 39.83 157.55 40.07 157.84 40.07C158.14 40.07 158.38 39.83 158.38 39.54ZM165.65 37.11C165.65 35.25 164.69 34.06 163.19 34.06C162.30 34.06 161.63 34.42 161.16 35.04L161.16 32.44C161.16 32.16 160.92 31.92 160.64 31.92C160.33 31.92 160.09 32.16 160.09 32.44L160.09 39.54C160.09 39.83 160.33 40.07 160.62 40.07C160.92 40.07 161.16 39.83 161.16 39.54L161.16 39.17C161.59 39.75 162.29 40.14 163.07 40.14C164.57 40.14 165.65 39.00 165.65 37.11ZM164.53 37.11C164.53 38.32 163.99 39.20 162.89 39.20C162.12 39.20 161.16 38.36 161.16 37.16L161.16 37.07C161.16 35.88 161.88 35.01 162.89 35.01C163.99 35.01 164.53 35.90 164.53 37.11ZM177.18 36.58C177.18 36.15 176.82 35.80 176.39 35.80L173.86 35.80C173.57 35.80 173.34 36.03 173.34 36.32C173.34 36.62 173.57 36.84 173.86 36.84L175.99 36.84L175.99 37.46C175.99 38.55 174.85 39.10 173.96 39.10C172.28 39.10 171.04 37.79 171.04 36.00C171.04 34.20 172.28 32.92 173.96 32.92C174.71 32.92 175.45 33.23 175.94 33.74C176.05 33.86 176.20 33.92 176.34 33.92C176.64 33.92 176.88 33.66 176.88 33.36C176.88 33.23 176.84 33.08 176.74 32.98C176.10 32.33 175.19 31.86 173.96 31.86C171.66 31.86 169.80 33.51 169.80 36.00C169.80 38.50 171.66 40.16 173.96 40.16C175.91 40.16 177.18 38.80 177.18 37.38ZM181.74 34.60C181.74 34.32 181.54 34.12 181.26 34.12C180.61 34.12 180.08 34.66 179.76 35.10L179.76 34.65C179.76 34.37 179.52 34.13 179.24 34.13C178.93 34.13 178.69 34.37 178.69 34.65L178.69 39.54C178.69 39.83 178.92 40.06 179.21 40.07L179.22 40.07C179.52 40.07 179.76 39.83 179.76 39.54L179.76 36.57C179.76 35.81 180.29 35.21 181.20 35.16C181.50 35.15 181.74 34.91 181.74 34.60ZM187.40 36.08C187.40 34.60 186.32 34.06 185.08 34.06C184.30 34.06 183.42 34.31 182.87 34.86C182.80 34.95 182.76 35.04 182.76 35.14C182.76 35.39 182.99 35.56 183.20 35.56C183.29 35.56 183.38 35.52 183.47 35.46C183.90 35.13 184.38 34.96 184.92 34.96C185.74 34.96 186.34 35.39 186.34 36.12L186.34 36.45L184.67 36.45C183.47 36.45 182.41 36.92 182.41 38.22C182.41 39.50 183.47 40.14 184.43 40.14C185.33 40.14 185.87 39.87 186.34 39.35L186.34 39.54C186.34 39.89 186.61 40.07 186.83 40.07L186.86 40.07C187.16 40.07 187.40 39.83 187.40 39.54ZM186.34 37.19L186.34 38.01C186.34 38.69 185.56 39.39 184.72 39.39C183.94 39.39 183.49 38.92 183.49 38.25C183.49 37.55 184.04 37.19 184.96 37.19ZM194.68 37.10C194.68 35.20 193.61 34.06 192.10 34.06C191.30 34.06 190.61 34.46 190.19 35.03L190.19 34.65C190.19 34.37 189.95 34.13 189.67 34.13C189.36 34.13 189.12 34.37 189.12 34.65L189.12 41.76C189.12 42.04 189.36 42.28 189.65 42.28C189.95 42.28 190.19 42.04 190.19 41.76L190.19 39.16C190.66 39.80 191.33 40.14 192.10 40.14C193.61 40.14 194.68 38.98 194.68 37.10ZM193.55 37.10C193.55 38.31 193.01 39.20 191.92 39.20C190.91 39.20 190.19 38.32 190.19 37.13L190.19 37.06C190.19 35.87 190.91 35.01 191.92 35.01C193.01 35.01 193.55 35.88 193.55 37.10ZM201.01 36.26C201.01 35.03 200.14 34.06 198.91 34.06C197.89 34.06 197.36 34.55 197.09 35.02L197.09 32.44C197.09 32.16 196.85 31.92 196.57 31.92C196.26 31.92 196.02 32.16 196.02 32.44L196.02 39.54C196.02 39.83 196.26 40.07 196.55 40.07C196.85 40.07 197.09 39.83 197.09 39.54L197.09 36.82C197.09 35.74 197.66 35.01 198.58 35.01C199.44 35.01 199.94 35.66 199.94 36.62L199.94 39.54C199.94 39.83 200.18 40.07 200.47 40.07C200.77 40.07 201.01 39.83 201.01 39.54ZM210.49 36.00C210.49 33.63 208.84 31.86 206.46 31.86C204.07 31.86 202.43 33.63 202.43 36.00C202.43 38.38 204.07 40.14 206.46 40.14C207.25 40.14 207.96 39.95 208.55 39.60L208.99 40.07C209.09 40.19 209.23 40.25 209.39 40.25C209.70 40.25 209.93 39.99 209.93 39.70C209.93 39.58 209.89 39.46 209.81 39.36L209.40 38.92C210.08 38.20 210.49 37.18 210.49 36.00ZM209.27 36.00C209.27 36.81 209.03 37.52 208.62 38.06L207.84 37.20C207.73 37.08 207.59 37.02 207.44 37.02C207.13 37.02 206.90 37.31 206.90 37.58C206.90 37.70 206.94 37.82 207.04 37.91L207.80 38.75C207.41 38.97 206.96 39.09 206.46 39.09C204.74 39.09 203.66 37.77 203.66 36.00C203.66 34.23 204.74 32.92 206.46 32.92C208.16 32.92 209.27 34.23 209.27 36.00ZM216.84 39.46C216.84 39.18 216.61 38.94 216.32 38.94L213.14 38.94L213.14 32.50C213.14 32.19 212.88 31.92 212.57 31.92C212.22 31.92 211.96 32.19 211.96 32.50L211.96 39.22C211.96 39.65 212.30 40 212.74 40L216.32 40C216.61 40 216.84 39.77 216.84 39.46ZM227.94 39.44C227.94 39.36 227.93 39.29 227.89 39.21L225.24 32.56C225.08 32.16 224.69 31.91 224.27 31.92C223.85 31.92 223.46 32.18 223.32 32.56L220.67 39.21C220.64 39.29 220.63 39.36 220.63 39.44C220.63 39.76 220.90 40.07 221.27 40.07C221.52 40.07 221.75 39.93 221.84 39.69L222.37 38.33L226.20 38.33L226.73 39.69C226.82 39.93 227.05 40.07 227.30 40.07C227.69 40.07 227.94 39.74 227.94 39.44ZM224.28 33.21L225.86 37.29L222.71 37.29ZM235.09 34.46C235.09 33.12 234.18 32.00 232.54 32.00L229.96 32.00C229.52 32.00 229.18 32.34 229.18 32.78L229.18 39.48C229.18 39.81 229.44 40.07 229.76 40.07C230.10 40.07 230.36 39.81 230.36 39.48L230.36 36.92L232.54 36.92C234.16 36.92 235.09 35.79 235.09 34.46ZM233.87 34.46C233.87 35.28 233.26 35.86 232.38 35.86L230.36 35.86L230.36 33.05L232.38 33.05C233.26 33.05 233.87 33.62 233.87 34.46ZM237.53 32.50C237.53 32.19 237.26 31.92 236.95 31.92C236.60 31.92 236.34 32.19 236.34 32.50L236.34 39.48C236.34 39.81 236.60 40.07 236.93 40.07C237.26 40.07 237.53 39.81 237.53 39.48ZM250.15 34.65C250.15 34.37 249.94 34.13 249.62 34.13C249.40 34.13 249.18 34.28 249.12 34.49L247.88 38.63L246.53 34.54C246.44 34.30 246.23 34.13 245.98 34.13C245.69 34.13 245.47 34.30 245.39 34.54L244.04 38.63L242.81 34.49C242.74 34.28 242.51 34.13 242.28 34.13C241.98 34.13 241.76 34.40 241.76 34.65C241.76 34.70 241.78 34.74 241.79 34.79L243.30 39.58C243.40 39.87 243.66 40.07 243.96 40.07L243.98 40.07C244.30 40.07 244.57 39.87 244.66 39.58L245.96 35.54L247.26 39.58C247.36 39.87 247.62 40.07 247.93 40.07L247.94 40.07C248.26 40.07 248.53 39.87 248.62 39.58L250.13 34.79C250.14 34.74 250.15 34.70 250.15 34.65ZM251.81 32.06C251.44 32.06 251.12 32.37 251.12 32.75C251.12 33.12 251.44 33.44 251.81 33.44C252.19 33.44 252.49 33.12 252.49 32.75C252.49 32.37 252.19 32.06 251.81 32.06ZM252.35 34.65C252.35 34.37 252.11 34.13 251.83 34.13C251.52 34.13 251.28 34.37 251.28 34.65L251.28 39.54C251.28 39.83 251.52 40.07 251.81 40.07C252.11 40.07 252.35 39.83 252.35 39.54ZM256.78 39.58C256.78 39.33 256.58 39.14 256.32 39.14C256.20 39.14 256.06 39.20 255.92 39.20C255.58 39.20 255.36 38.92 255.36 38.48L255.36 35.14L256.15 35.14C256.40 35.14 256.61 34.94 256.61 34.68C256.61 34.41 256.40 34.20 256.15 34.20L255.36 34.20L255.36 33.06C255.36 32.79 255.12 32.55 254.83 32.55C254.52 32.55 254.28 32.79 254.28 33.06L254.28 34.20L253.72 34.20C253.45 34.20 253.25 34.41 253.25 34.66C253.25 34.94 253.45 35.14 253.72 35.14L254.28 35.14L254.28 38.73C254.28 39.64 254.76 40.14 255.67 40.14C256.31 40.14 256.78 39.96 256.78 39.58ZM262.74 36.26C262.74 35.03 261.86 34.06 260.64 34.06C259.62 34.06 259.09 34.55 258.82 35.02L258.82 32.44C258.82 32.16 258.58 31.92 258.30 31.92C257.99 31.92 257.75 32.16 257.75 32.44L257.75 39.54C257.75 39.83 257.99 40.07 258.28 40.07C258.58 40.07 258.82 39.83 258.82 39.54L258.82 36.82C258.82 35.74 259.39 35.01 260.30 35.01C261.17 35.01 261.67 35.66 261.67 36.62L261.67 39.54C261.67 39.83 261.91 40.07 262.20 40.07C262.50 40.07 262.74 39.83 262.74 39.54ZM275.66 36.29C275.66 35.12 274.86 34.06 273.66 34.06C272.82 34.06 272.24 34.52 271.91 35.16C271.73 34.67 271.09 34.06 270.13 34.06C269.29 34.06 268.86 34.54 268.62 34.90L268.62 34.65C268.62 34.37 268.38 34.13 268.10 34.13C267.79 34.13 267.55 34.37 267.55 34.65L267.55 39.54C267.55 39.83 267.79 40.07 268.08 40.07C268.38 40.07 268.62 39.83 268.62 39.54L268.62 36.70C268.62 35.79 269.05 35.01 269.89 35.01C270.73 35.01 271.07 35.69 271.07 36.62L271.07 39.54C271.07 39.83 271.31 40.07 271.60 40.07C271.90 40.07 272.14 39.83 272.14 39.54L272.14 36.69C272.14 35.79 272.54 35.01 273.38 35.01C274.22 35.01 274.60 35.69 274.60 36.62L274.60 39.54C274.60 39.83 274.84 40.07 275.12 40.07C275.42 40.07 275.66 39.83 275.66 39.54ZM277.92 32.06C277.55 32.06 277.24 32.37 277.24 32.75C277.24 33.12 277.55 33.44 277.92 33.44C278.30 33.44 278.60 33.12 278.60 32.75C278.60 32.37 278.30 32.06 277.92 32.06ZM278.46 34.65C278.46 34.37 278.22 34.13 277.94 34.13C277.63 34.13 277.39 34.37 277.39 34.65L277.39 39.54C277.39 39.83 277.63 40.07 277.92 40.07C278.22 40.07 278.46 39.83 278.46 39.54ZM285.17 36.28C285.17 35.06 284.28 34.06 283.06 34.06C282.05 34.06 281.53 34.55 281.26 35.02L281.26 34.65C281.26 34.37 281.02 34.13 280.74 34.13C280.43 34.13 280.19 34.37 280.19 34.65L280.19 39.54C280.19 39.83 280.43 40.07 280.72 40.07C281.02 40.07 281.26 39.83 281.26 39.54L281.26 36.76C281.26 35.78 281.78 35.01 282.71 35.01C283.57 35.01 284.10 35.68 284.10 36.64L284.10 39.54C284.10 39.83 284.34 40.07 284.63 40.07C284.93 40.07 285.17 39.83 285.17 39.54ZM287.42 32.06C287.05 32.06 286.74 32.37 286.74 32.75C286.74 33.12 287.05 33.44 287.42 33.44C287.81 33.44 288.11 33.12 288.11 32.75C288.11 32.37 287.81 32.06 287.42 32.06ZM287.96 34.65C287.96 34.37 287.72 34.13 287.45 34.13C287.14 34.13 286.90 34.37 286.90 34.65L286.90 39.54C286.90 39.83 287.14 40.07 287.42 40.07C287.72 40.07 287.96 39.83 287.96 39.54ZM297.80 36.29C297.80 35.12 297.00 34.06 295.80 34.06C294.96 34.06 294.38 34.52 294.05 35.16C293.87 34.67 293.23 34.06 292.27 34.06C291.43 34.06 291.00 34.54 290.76 34.90L290.76 34.65C290.76 34.37 290.52 34.13 290.24 34.13C289.93 34.13 289.69 34.37 289.69 34.65L289.69 39.54C289.69 39.83 289.93 40.07 290.22 40.07C290.52 40.07 290.76 39.83 290.76 39.54L290.76 36.70C290.76 35.79 291.19 35.01 292.03 35.01C292.87 35.01 293.21 35.69 293.21 36.62L293.21 39.54C293.21 39.83 293.45 40.07 293.74 40.07C294.04 40.07 294.28 39.83 294.28 39.54L294.28 36.69C294.28 35.79 294.68 35.01 295.52 35.01C296.36 35.01 296.74 35.69 296.74 36.62L296.74 39.54C296.74 39.83 296.98 40.07 297.26 40.07C297.56 40.07 297.80 39.83 297.80 39.54ZM304.19 36.08C304.19 34.60 303.11 34.06 301.86 34.06C301.08 34.06 300.20 34.31 299.65 34.86C299.58 34.95 299.54 35.04 299.54 35.14C299.54 35.39 299.77 35.56 299.99 35.56C300.07 35.56 300.17 35.52 300.25 35.46C300.68 35.13 301.16 34.96 301.70 34.96C302.52 34.96 303.12 35.39 303.12 36.12L303.12 36.45L301.45 36.45C300.25 36.45 299.20 36.92 299.20 38.22C299.20 39.50 300.25 40.14 301.21 40.14C302.11 40.14 302.65 39.87 303.12 39.35L303.12 39.54C303.12 39.89 303.40 40.07 303.61 40.07L303.65 40.07C303.95 40.07 304.19 39.83 304.19 39.54ZM303.12 37.19L303.12 38.01C303.12 38.69 302.34 39.39 301.50 39.39C300.72 39.39 300.28 38.92 300.28 38.25C300.28 37.55 300.83 37.19 301.74 37.19ZM306.97 32.44C306.97 32.16 306.73 31.92 306.46 31.92C306.14 31.92 305.90 32.16 305.90 32.44L305.90 39.54C305.90 39.83 306.14 40.07 306.43 40.07C306.73 40.07 306.97 39.83 306.97 39.54ZM316.99 32.44C316.99 32.16 316.75 31.92 316.48 31.92C316.16 31.92 315.92 32.16 315.92 32.44L315.92 35.04C315.46 34.42 314.89 34.06 314.02 34.06C312.50 34.06 311.44 35.25 311.44 37.11C311.44 39.00 312.52 40.14 314.02 40.14C314.92 40.14 315.48 39.75 315.92 39.17L315.92 39.54C315.92 39.83 316.16 40.07 316.45 40.07C316.75 40.07 316.99 39.83 316.99 39.54ZM315.92 37.14C315.92 38.34 315.32 39.20 314.29 39.20C313.21 39.20 312.54 38.32 312.54 37.11C312.54 35.90 313.21 35.01 314.29 35.01C315.32 35.01 315.92 35.88 315.92 37.07ZM324.07 36.90C324.07 36.68 324.01 36.42 323.96 36.23C323.63 34.94 322.67 34.06 321.26 34.06C319.58 34.06 318.37 35.42 318.37 37.10C318.37 38.92 319.63 40.14 321.36 40.14C322.21 40.14 323.70 39.70 323.70 39.05C323.70 38.64 323.29 38.55 323.03 38.68C322.61 38.99 321.96 39.28 321.47 39.28C320.29 39.28 319.57 38.48 319.49 37.48L323.52 37.48C323.82 37.48 324.07 37.19 324.07 36.90ZM319.49 36.69C319.54 35.88 320.10 34.92 321.25 34.92C322.49 34.92 323.02 35.91 323.04 36.69ZM331.00 37.10C331.00 35.20 329.93 34.06 328.42 34.06C327.62 34.06 326.93 34.46 326.51 35.03L326.51 34.65C326.51 34.37 326.27 34.13 325.99 34.13C325.68 34.13 325.44 34.37 325.44 34.65L325.44 41.76C325.44 42.04 325.68 42.28 325.97 42.28C326.27 42.28 326.51 42.04 326.51 41.76L326.51 39.16C326.98 39.80 327.65 40.14 328.42 40.14C329.93 40.14 331.00 38.98 331.00 37.10ZM329.87 37.10C329.87 38.31 329.33 39.20 328.24 39.20C327.23 39.20 326.51 38.32 326.51 37.13L326.51 37.06C326.51 35.87 327.23 35.01 328.24 35.01C329.33 35.01 329.87 35.88 329.87 37.10ZM337.69 36.90C337.69 36.68 337.63 36.42 337.58 36.23C337.25 34.94 336.29 34.06 334.88 34.06C333.20 34.06 331.99 35.42 331.99 37.10C331.99 38.92 333.25 40.14 334.98 40.14C335.83 40.14 337.32 39.70 337.32 39.05C337.32 38.64 336.91 38.55 336.65 38.68C336.23 38.99 335.58 39.28 335.09 39.28C333.91 39.28 333.19 38.48 333.11 37.48L337.14 37.48C337.44 37.48 337.69 37.19 337.69 36.90ZM333.11 36.69C333.16 35.88 333.72 34.92 334.87 34.92C336.11 34.92 336.64 35.91 336.66 36.69ZM344.04 36.28C344.04 35.06 343.15 34.06 341.93 34.06C340.92 34.06 340.40 34.55 340.13 35.02L340.13 34.65C340.13 34.37 339.89 34.13 339.61 34.13C339.30 34.13 339.06 34.37 339.06 34.65L339.06 39.54C339.06 39.83 339.30 40.07 339.59 40.07C339.89 40.07 340.13 39.83 340.13 39.54L340.13 36.76C340.13 35.78 340.66 35.01 341.58 35.01C342.44 35.01 342.97 35.68 342.97 36.64L342.97 39.54C342.97 39.83 343.21 40.07 343.50 40.07C343.80 40.07 344.04 39.83 344.04 39.54ZM350.98 32.44C350.98 32.16 350.74 31.92 350.46 31.92C350.15 31.92 349.91 32.16 349.91 32.44L349.91 35.04C349.44 34.42 348.88 34.06 348.00 34.06C346.49 34.06 345.42 35.25 345.42 37.11C345.42 39.00 346.50 40.14 348.00 40.14C348.90 40.14 349.46 39.75 349.91 39.17L349.91 39.54C349.91 39.83 350.15 40.07 350.44 40.07C350.74 40.07 350.98 39.83 350.98 39.54ZM349.91 37.14C349.91 38.34 349.31 39.20 348.28 39.20C347.20 39.20 346.52 38.32 346.52 37.11C346.52 35.90 347.20 35.01 348.28 35.01C349.31 35.01 349.91 35.88 349.91 37.07ZM358.06 36.90C358.06 36.68 358.00 36.42 357.95 36.23C357.61 34.94 356.65 34.06 355.25 34.06C353.57 34.06 352.36 35.42 352.36 37.10C352.36 38.92 353.62 40.14 355.34 40.14C356.20 40.14 357.68 39.70 357.68 39.05C357.68 38.64 357.28 38.55 357.01 38.68C356.59 38.99 355.94 39.28 355.45 39.28C354.28 39.28 353.56 38.48 353.47 37.48L357.50 37.48C357.80 37.48 358.06 37.19 358.06 36.90ZM353.47 36.69C353.52 35.88 354.08 34.92 355.24 34.92C356.47 34.92 357.00 35.91 357.02 36.69ZM364.40 36.28C364.40 35.06 363.52 34.06 362.29 34.06C361.28 34.06 360.77 34.55 360.49 35.02L360.49 34.65C360.49 34.37 360.25 34.13 359.98 34.13C359.66 34.13 359.42 34.37 359.42 34.65L359.42 39.54C359.42 39.83 359.66 40.07 359.95 40.07C360.25 40.07 360.49 39.83 360.49 39.54L360.49 36.76C360.49 35.78 361.02 35.01 361.94 35.01C362.81 35.01 363.34 35.68 363.34 36.64L363.34 39.54C363.34 39.83 363.58 40.07 363.86 40.07C364.16 40.07 364.40 39.83 364.40 39.54ZM370.75 39.12C370.75 38.85 370.50 38.66 370.25 38.66C370.13 38.66 370.01 38.69 369.91 38.76C369.59 39.05 369.22 39.20 368.78 39.20C367.63 39.20 366.89 38.31 366.89 37.10C366.89 35.88 367.63 35.01 368.78 35.01C369.20 35.01 369.59 35.14 369.91 35.43C370.01 35.51 370.13 35.56 370.25 35.56C370.51 35.56 370.74 35.34 370.74 35.08C370.74 34.98 370.72 34.90 370.66 34.83C370.26 34.37 369.61 34.06 368.72 34.06C366.98 34.06 365.78 35.37 365.78 37.10C365.78 38.84 366.98 40.14 368.72 40.14C369.59 40.14 370.18 39.86 370.61 39.44C370.70 39.35 370.75 39.23 370.75 39.12ZM372.61 32.06C372.24 32.06 371.93 32.37 371.93 32.75C371.93 33.12 372.24 33.44 372.61 33.44C373.00 33.44 373.30 33.12 373.30 32.75C373.30 32.37 373.00 32.06 372.61 32.06ZM373.15 34.65C373.15 34.37 372.91 34.13 372.64 34.13C372.32 34.13 372.08 34.37 372.08 34.65L372.08 39.54C372.08 39.83 372.32 40.07 372.61 40.07C372.91 40.07 373.15 39.83 373.15 39.54ZM380.23 36.90C380.23 36.68 380.17 36.42 380.12 36.23C379.79 34.94 378.83 34.06 377.42 34.06C375.74 34.06 374.53 35.42 374.53 37.10C374.53 38.92 375.79 40.14 377.52 40.14C378.37 40.14 379.86 39.70 379.86 39.05C379.86 38.64 379.45 38.55 379.19 38.68C378.77 38.99 378.12 39.28 377.63 39.28C376.45 39.28 375.73 38.48 375.65 37.48L379.68 37.48C379.98 37.48 380.23 37.19 380.23 36.90ZM375.65 36.69C375.70 35.88 376.26 34.92 377.41 34.92C378.65 34.92 379.18 35.91 379.20 36.69ZM385.85 38.25C385.74 36.21 382.42 36.77 382.30 35.73C382.25 35.26 382.75 34.91 383.48 34.91C384.04 34.91 384.55 35.09 384.92 35.36C385.00 35.42 385.08 35.44 385.18 35.44C385.39 35.44 385.60 35.26 385.60 35.02C385.60 34.92 385.56 34.83 385.49 34.76C385.03 34.31 384.30 34.06 383.47 34.06C382.06 34.06 381.20 34.73 381.26 35.76C381.37 37.71 384.68 37.11 384.80 38.39C384.85 38.92 384.37 39.29 383.54 39.29C382.94 39.29 382.34 39.05 381.91 38.74C381.83 38.68 381.74 38.66 381.64 38.66C381.38 38.66 381.17 38.85 381.17 39.10C381.17 39.22 381.22 39.32 381.30 39.39C381.83 39.92 382.70 40.14 383.50 40.14C385.03 40.14 385.91 39.35 385.85 38.25ZM391.58 39.38C391.58 38.98 391.25 38.63 390.85 38.63C390.44 38.63 390.12 38.98 390.12 39.38C390.12 39.77 390.44 40.12 390.85 40.12C391.25 40.12 391.58 39.77 391.58 39.38ZM394.44 39.38C394.44 38.98 394.09 38.63 393.68 38.63C393.29 38.63 392.95 38.98 392.95 39.38C392.95 39.77 393.29 40.12 393.68 40.12C394.09 40.12 394.44 39.77 394.44 39.38ZM397.28 39.38C397.28 38.98 396.95 38.63 396.54 38.63C396.13 38.63 395.80 38.98 395.80 39.38C395.80 39.77 396.13 40.12 396.54 40.12C396.95 40.12 397.28 39.77 397.28 39.38Z" fill="#627386" /><rect x="18" y="50" width="384" height="6" rx="3" fill="#f4faff" /><rect x="18" y="50" width="0.01" height="6" rx="3" fill="#00a5fe" /></svg>