<svg xmlns="http://www.w3.org/2000/svg" width="420" height="64" viewBox="0 0 420 64" role="img"><rect x="0.5" y="0.5" width="419" height="63" rx="10" fill="#161b22" stroke="#30363d" /><path d="M20.66 15.45C20.66 14.97 20.27 14.58 19.79 14.58C19.27 14.58 18.88 14.97 18.88 15.45L18.88 23.20C18.88 23.69 19.27 24.08 19.76 24.08C20.27 24.08 20.66 23.69 20.66 23.20ZM28.85 20.40C28.85 20.07 28.75 19.66 28.65 19.35C28.18 17.95 27.02 17.07 25.49 17.07C23.43 17.07 21.99 18.65 21.99 20.61C21.99 22.78 23.54 24.17 25.60 24.17C26.64 24.17 28.14 23.78 28.22 22.98C28.26 22.56 27.84 22.26 27.46 22.26C27.35 22.26 27.23 22.29 27.11 22.35C26.69 22.57 26.18 22.75 25.80 22.75C24.65 22.75 23.96 22.07 23.85 21.21L28.02 21.21C28.49 21.21 28.85 20.84 28.85 20.40ZM23.82 20.01C23.91 19.34 24.38 18.48 25.49 18.48C26.67 18.48 27.11 19.37 27.16 20.01ZM33.86 23.36C33.86 22.92 33.58 22.59 33.08 22.59L32.92 22.59C32.64 22.59 32.31 22.38 32.31 21.84L32.31 18.79L33.01 18.79C33.41 18.79 33.76 18.44 33.76 18.02C33.76 17.59 33.41 17.24 33.01 17.24L32.31 17.24L32.31 16.19C32.31 15.70 31.92 15.31 31.43 15.31C30.91 15.31 30.52 15.70 30.52 16.19L30.52 17.24L30.08 17.24C29.66 17.24 29.31 17.59 29.31 17.99C29.31 18.44 29.66 18.79 30.08 18.79L30.52 18.79L30.52 22.32C30.52 23.52 31.19 24.17 32.43 24.17C33.60 24.17 33.86 23.80 33.86 23.36ZM40.26 22.00C40.26 19.27 36.26 20.11 36.26 19.10C36.26 18.72 36.68 18.43 37.32 18.43C37.87 18.43 38.41 18.58 38.85 18.83C38.94 18.89 39.07 18.92 39.18 18.92C39.55 18.92 39.88 18.62 39.88 18.25C39.88 18.12 39.84 17.99 39.77 17.90C39.39 17.35 38.19 17.07 37.31 17.07C35.53 17.07 34.53 18.06 34.53 19.20C34.53 21.86 38.55 20.95 38.55 22.07C38.55 22.49 38.19 22.80 37.42 22.80C36.83 22.80 36.13 22.56 35.60 22.25C35.49 22.18 35.36 22.15 35.23 22.15C34.86 22.15 34.49 22.47 34.49 22.89C34.49 23.03 34.53 23.16 34.62 23.27C35.04 23.87 36.45 24.17 37.33 24.17C39.21 24.17 40.26 23.23 40.26 22.00ZM44.56 20.60C44.56 20.19 44.22 19.86 43.82 19.86L41.77 19.86C41.37 19.86 41.03 20.19 41.03 20.60C41.03 21.03 41.37 21.37 41.77 21.37L43.82 21.37C44.22 21.37 44.56 21.03 44.56 20.60ZM49.47 23.36C49.47 22.92 49.19 22.59 48.69 22.59L48.53 22.59C48.25 22.59 47.92 22.38 47.92 21.84L47.92 18.79L48.62 18.79C49.02 18.79 49.37 18.44 49.37 18.02C49.37 17.59 49.02 17.24 48.62 17.24L47.92 17.24L47.92 16.19C47.92 15.70 47.53 15.31 47.04 15.31C46.52 15.31 46.13 15.70 46.13 16.19L46.13 17.24L45.69 17.24C45.27 17.24 44.92 17.59 44.92 17.99C44.92 18.44 45.27 18.79 45.69 18.79L46.13 18.79L46.13 22.32C46.13 23.52 46.80 24.17 48.04 24.17C49.21 24.17 49.47 23.80 49.47 23.36ZM56.35 19.63C56.35 17.69 54.93 17.07 53.39 17.07C52.61 17.07 51.10 17.35 50.68 18.02C50.62 18.12 50.58 18.25 50.58 18.37C50.58 18.79 50.93 19.06 51.25 19.06C51.36 19.06 51.47 19.02 51.57 18.96C52.03 18.65 52.55 18.53 53.08 18.53C53.98 18.53 54.57 18.97 54.57 19.66L54.57 19.88L52.43 19.88C51.35 19.88 50.07 20.35 50.07 21.93C50.07 23.44 51.35 24.17 52.43 24.17C53.45 24.17 54.11 23.92 54.57 23.37C54.57 23.68 54.86 24.08 55.34 24.08L55.48 24.08C55.95 24.08 56.35 23.69 56.35 23.20ZM54.57 21.09L54.57 21.40C54.57 22.49 53.71 22.96 53.14 22.96C52.44 22.96 51.87 22.60 51.87 21.97C51.87 21.31 52.44 21.09 53.14 21.09ZM59.89 15.45C59.89 14.97 59.50 14.58 59.02 14.58C58.50 14.58 58.11 14.97 58.11 15.45L58.11 23.20C58.11 23.69 58.50 24.08 58.99 24.08C59.50 24.08 59.89 23.69 59.89 23.20ZM67.45 23.19C67.45 23.02 67.39 22.84 67.28 22.68L65.50 20.30L67.07 18.51C67.20 18.36 67.27 18.18 67.27 17.98C67.27 17.53 66.87 17.14 66.43 17.14C66.20 17.14 65.98 17.24 65.82 17.42L63.43 20.25L63.43 15.45C63.43 14.97 63.04 14.58 62.56 14.58C62.04 14.58 61.65 14.97 61.65 15.45L61.65 23.20C61.65 23.69 62.04 24.08 62.53 24.08C63.04 24.08 63.43 23.69 63.43 23.20L63.43 22.26L64.24 21.40L65.82 23.71C65.99 23.96 66.29 24.08 66.57 24.08C67.08 24.08 67.45 23.62 67.45 23.19ZM71.79 20.60C71.79 20.19 71.45 19.86 71.05 19.86L69.00 19.86C68.60 19.86 68.26 20.19 68.26 20.60C68.26 21.03 68.60 21.37 69.00 21.37L71.05 21.37C71.45 21.37 71.79 21.03 71.79 20.60ZM78.84 19.63C78.84 17.69 77.43 17.07 75.89 17.07C75.11 17.07 73.59 17.35 73.17 18.02C73.12 18.12 73.08 18.25 73.08 18.37C73.08 18.79 73.43 19.06 73.75 19.06C73.86 19.06 73.97 19.02 74.07 18.96C74.53 18.65 75.05 18.53 75.58 18.53C76.48 18.53 77.07 18.97 77.07 19.66L77.07 19.88L74.92 19.88C73.85 19.88 72.57 20.35 72.57 21.93C72.57 23.44 73.85 24.17 74.92 24.17C75.95 24.17 76.60 23.92 77.07 23.37C77.07 23.68 77.36 24.08 77.84 24.08L77.98 24.08C78.45 24.08 78.84 23.69 78.84 23.20ZM77.07 21.09L77.07 21.40C77.07 22.49 76.21 22.96 75.64 22.96C74.94 22.96 74.36 22.60 74.36 21.97C74.36 21.31 74.94 21.09 75.64 21.09ZM87.47 20.63C87.47 18.41 86.05 17.07 84.33 17.07C83.53 17.07 82.78 17.42 82.39 18.11L82.39 15.45C82.39 14.97 81.99 14.58 81.52 14.58C81.00 14.58 80.61 14.97 80.61 15.45L80.61 23.20C80.61 23.69 81.00 24.08 81.49 24.08C81.99 24.08 82.39 23.69 82.39 23.20L82.39 23.13C82.78 23.80 83.52 24.17 84.33 24.17C86.04 24.17 87.47 22.88 87.47 20.63ZM85.63 20.63C85.63 21.80 84.95 22.59 83.91 22.59C83.20 22.59 82.39 21.84 82.39 20.71L82.39 20.56C82.39 19.41 83.20 18.65 83.91 18.65C84.95 18.65 85.63 19.45 85.63 20.63ZM95.53 20.61C95.53 18.69 94.19 17.07 91.95 17.07C89.72 17.07 88.38 18.69 88.38 20.61C88.38 22.54 89.72 24.17 91.95 24.17C94.19 24.17 95.53 22.54 95.53 20.61ZM93.68 20.61C93.68 21.68 93.05 22.59 91.95 22.59C90.84 22.59 90.23 21.68 90.23 20.61C90.23 19.56 90.84 18.65 91.95 18.65C93.05 18.65 93.68 19.56 93.68 20.61ZM96.85 21.59C96.85 22.91 97.98 24.17 99.47 24.17C100.53 24.17 101.17 23.62 101.41 23.20L101.41 23.22C101.41 23.69 101.80 24.08 102.28 24.08C102.80 24.08 103.19 23.69 103.19 23.22L103.19 18.04C103.19 17.55 102.80 17.15 102.31 17.15C101.80 17.15 101.41 17.55 101.41 18.04L101.41 21.02C101.41 21.98 100.71 22.59 100.01 22.59C99.26 22.59 98.63 21.98 98.63 21.05L98.63 18.04C98.63 17.55 98.23 17.15 97.74 17.15C97.24 17.15 96.85 17.55 96.85 18.04ZM108.65 23.36C108.65 22.92 108.37 22.59 107.87 22.59L107.71 22.59C107.43 22.59 107.10 22.38 107.10 21.84L107.10 18.79L107.80 18.79C108.20 18.79 108.55 18.44 108.55 18.02C108.55 17.59 108.20 17.24 107.80 17.24L107.10 17.24L107.10 16.19C107.10 15.70 106.70 15.31 106.21 15.31C105.70 15.31 105.30 15.70 105.30 16.19L105.30 17.24L104.87 17.24C104.45 17.24 104.10 17.59 104.10 17.99C104.10 18.44 104.45 18.79 104.87 18.79L105.30 18.79L105.30 22.32C105.30 23.52 105.98 24.17 107.22 24.17C108.38 24.17 108.65 23.80 108.65 23.36ZM112.67 20.60C112.67 20.19 112.33 19.86 111.93 19.86L109.88 19.86C109.48 19.86 109.14 20.19 109.14 20.60C109.14 21.03 109.48 21.37 109.88 21.37L111.93 21.37C112.33 21.37 112.67 21.03 112.67 20.60ZM116.87 20.60C116.87 20.19 116.53 19.86 116.13 19.86L114.08 19.86C113.68 19.86 113.34 20.19 113.34 20.60C113.34 21.03 113.68 21.37 114.08 21.37L116.13 21.37C116.53 21.37 116.87 21.03 116.87 20.60ZM121.78 23.36C121.78 22.92 121.50 22.59 121.00 22.59L120.84 22.59C120.56 22.59 120.23 22.38 120.23 21.84L120.23 18.79L120.93 18.79C121.33 18.79 121.68 18.44 121.68 18.02C121.68 17.59 121.33 17.24 120.93 17.24L120.23 17.24L120.23 16.19C120.23 15.70 119.84 15.31 119.35 15.31C118.83 15.31 118.44 15.70 118.44 16.19L118.44 17.24L118.00 17.24C117.58 17.24 117.23 17.59 117.23 17.99C117.23 18.44 117.58 18.79 118.00 18.79L118.44 18.79L118.44 22.32C118.44 23.52 119.11 24.17 120.35 24.17C121.52 24.17 121.78 23.80 121.78 23.36ZM129.24 20.40C129.24 20.07 129.15 19.66 129.05 19.35C128.57 17.95 127.41 17.07 125.88 17.07C123.83 17.07 122.38 18.65 122.38 20.61C122.38 22.78 123.94 24.17 126.00 24.17C127.03 24.17 128.53 23.78 128.61 22.98C128.66 22.56 128.24 22.26 127.86 22.26C127.75 22.26 127.62 22.29 127.51 22.35C127.09 22.57 126.57 22.75 126.19 22.75C125.04 22.75 124.36 22.07 124.25 21.21L128.42 21.21C128.88 21.21 129.24 20.84 129.24 20.40ZM124.22 20.01C124.30 19.34 124.78 18.48 125.88 18.48C127.06 18.48 127.51 19.37 127.55 20.01ZM140.74 19.67C140.74 18.29 139.77 17.07 138.25 17.07C137.07 17.07 136.40 17.76 136.15 18.23C135.89 17.74 135.26 17.07 134.13 17.07C133.09 17.07 132.62 17.45 132.34 17.81L132.34 17.80C132.34 17.60 132.09 17.15 131.47 17.15C130.95 17.15 130.56 17.55 130.56 18.02L130.56 23.20C130.56 23.69 130.95 24.08 131.44 24.08C131.95 24.08 132.34 23.69 132.34 23.20L132.34 20.01C132.34 19.35 132.84 18.65 133.60 18.65C134.33 18.65 134.75 19.38 134.75 20.01L134.75 23.20C134.75 23.69 135.14 24.08 135.63 24.08C136.15 24.08 136.54 23.69 136.54 23.20L136.54 20.14C136.54 19.35 137.03 18.65 137.80 18.65C138.53 18.65 138.95 19.38 138.95 20.01L138.95 23.20C138.95 23.69 139.34 24.08 139.83 24.08C140.35 24.08 140.74 23.69 140.74 23.20ZM149.35 20.61C149.35 18.36 147.92 17.07 146.21 17.07C145.40 17.07 144.66 17.43 144.27 18.11L144.27 18.04C144.27 17.55 143.87 17.15 143.37 17.15C142.88 17.15 142.49 17.55 142.49 18.04L142.49 25.79C142.49 26.27 142.87 26.66 143.38 26.66C143.86 26.66 144.27 26.27 144.27 25.79L144.27 23.13C144.66 23.82 145.41 24.17 146.21 24.17C147.93 24.17 149.35 22.82 149.35 20.61ZM147.51 20.61C147.51 21.79 146.83 22.59 145.79 22.59C145.08 22.59 144.27 21.83 144.27 20.68L144.27 20.53C144.27 19.39 145.08 18.65 145.79 18.65C146.83 18.65 147.51 19.44 147.51 20.61ZM152.43 15.45C152.43 14.97 152.04 14.58 151.56 14.58C151.04 14.58 150.65 14.97 150.65 15.45L150.65 23.20C150.65 23.69 151.04 24.08 151.53 24.08C152.04 24.08 152.43 23.69 152.43 23.20ZM160.03 19.63C160.03 17.69 158.62 17.07 157.08 17.07C156.29 17.07 154.78 17.35 154.36 18.02C154.30 18.12 154.26 18.25 154.26 18.37C154.26 18.79 154.61 19.06 154.93 19.06C155.05 19.06 155.16 19.02 155.26 18.96C155.72 18.65 156.24 18.53 156.77 18.53C157.66 18.53 158.25 18.97 158.25 19.66L158.25 19.88L156.11 19.88C155.03 19.88 153.76 20.35 153.76 21.93C153.76 23.44 155.03 24.17 156.11 24.17C157.13 24.17 157.79 23.92 158.25 23.37C158.25 23.68 158.55 24.08 159.02 24.08L159.16 24.08C159.64 24.08 160.03 23.69 160.03 23.20ZM158.25 21.09L158.25 21.40C158.25 22.49 157.40 22.96 156.82 22.96C156.12 22.96 155.55 22.60 155.55 21.97C155.55 21.31 156.12 21.09 156.82 21.09ZM165.49 23.36C165.49 22.92 165.21 22.59 164.71 22.59L164.55 22.59C164.27 22.59 163.94 22.38 163.94 21.84L163.94 18.79L164.64 18.79C165.04 18.79 165.39 18.44 165.39 18.02C165.39 17.59 165.04 17.24 164.64 17.24L163.94 17.24L163.94 16.19C163.94 15.70 163.54 15.31 163.05 15.31C162.54 15.31 162.14 15.70 162.14 16.19L162.14 17.24L161.71 17.24C161.29 17.24 160.94 17.59 160.94 17.99C160.94 18.44 161.29 18.79 161.71 18.79L162.14 18.79L162.14 22.32C162.14 23.52 162.82 24.17 164.06 24.17C165.22 24.17 165.49 23.80 165.49 23.36ZM172.95 20.40C172.95 20.07 172.85 19.66 172.76 19.35C172.28 17.95 171.12 17.07 169.59 17.07C167.53 17.07 166.09 18.65 166.09 20.61C166.09 22.78 167.65 24.17 169.70 24.17C170.74 24.17 172.24 23.78 172.32 22.98C172.36 22.56 171.94 22.26 171.57 22.26C171.45 22.26 171.33 22.29 171.22 22.35C170.80 22.57 170.28 22.75 169.90 22.75C168.75 22.75 168.07 22.07 167.95 21.21L172.13 21.21C172.59 21.21 172.95 20.84 172.95 20.40ZM167.93 20.01C168.01 19.34 168.49 18.48 169.59 18.48C170.77 18.48 171.22 19.37 171.26 20.01Z" fill="#e6edf3" /><path d="M376.81 23.17C376.81 22.74 376.44 22.38 376.01 22.38L373.19 22.38C375.44 20.74 376.66 19.45 376.66 17.97C376.66 16.24 375.19 15.20 373.35 15.20C372.26 15.20 370.80 15.67 370.38 16.33C370.31 16.45 370.27 16.58 370.27 16.71C370.27 17.18 370.64 17.54 371.07 17.54C371.27 17.54 371.44 17.49 371.61 17.37C372.10 17.03 372.70 16.84 373.39 16.84C374.10 16.84 374.79 17.21 374.79 17.97C374.79 18.98 373.75 19.93 370.51 22.32C370.27 22.50 370.12 22.80 370.12 23.10C370.12 23.62 370.54 24 371.00 24L376.01 24C376.44 24 376.81 23.64 376.81 23.17ZM380.19 23.36C380.19 22.52 379.63 22.04 379.02 22.04C378.47 22.04 378.00 22.50 378.00 23.08C378.00 23.64 378.39 24.01 378.89 24.01C378.98 24.01 379.09 23.99 379.13 23.97C379.06 24.31 378.77 24.71 378.43 24.99C378.34 25.07 378.30 25.17 378.30 25.27C378.30 25.53 378.57 25.69 378.80 25.69C378.93 25.69 379.04 25.65 379.13 25.56C379.78 24.98 380.19 24.20 380.19 23.36ZM388.14 21.62C388.14 20.44 387.44 19.76 386.92 19.53C387.36 19.32 388.00 18.83 388.00 17.49C388.00 15.99 386.39 15.20 384.66 15.20C382.92 15.20 381.32 15.99 381.32 17.49C381.32 18.83 381.94 19.32 382.38 19.53C381.86 19.76 381.17 20.44 381.17 21.62C381.17 23.25 382.84 24.16 384.66 24.16C386.48 24.16 388.14 23.23 388.14 21.62ZM386.11 17.77C386.11 18.42 385.45 18.80 384.66 18.80C383.87 18.80 383.19 18.42 383.19 17.77C383.19 17.15 383.80 16.79 384.66 16.79C385.50 16.79 386.11 17.15 386.11 17.77ZM386.27 21.52C386.27 22.15 385.54 22.57 384.66 22.57C383.75 22.57 383.05 22.15 383.05 21.52C383.05 20.79 383.85 20.36 384.66 20.36C385.45 20.36 386.27 20.79 386.27 21.52ZM393.08 16.32C393.08 15.73 392.59 15.26 392.00 15.26C391.70 15.26 391.42 15.38 391.22 15.58L389.22 17.60C389.06 17.76 388.99 17.95 388.99 18.15C388.99 18.58 389.35 18.92 389.75 18.92C389.94 18.92 390.12 18.85 390.26 18.71L391.24 17.71L391.24 23.17C391.24 23.66 391.65 24.08 392.15 24.08C392.67 24.08 393.08 23.66 393.08 23.17ZM401.56 19.67C401.56 17.43 400.44 15.20 397.97 15.20C395.49 15.20 394.38 17.43 394.38 19.67C394.38 21.91 395.49 24.16 397.97 24.16C400.44 24.16 401.56 21.91 401.56 19.67ZM399.67 19.67C399.67 21.27 399.20 22.52 397.97 22.52C396.72 22.52 396.25 21.27 396.25 19.67C396.25 18.07 396.72 16.84 397.97 16.84C399.20 16.84 399.67 18.07 399.67 19.67Z" fill="#9aa7b4" /><path transform="translate(352.59, 12)" d="M6 1 L6 7.5 M3 5 L6 8 L9 5 M2 10.5 L10 10.5" fill="none" stroke="#9aa7b4" stroke-width="1.4" stroke-linecap="round" stroke-linejoin="round" /><path d="M24.59 32.54C24.59 32.22 24.36 32.00 24.07 32.00L18.80 32.00C18.52 32.00 18.29 32.22 18.29 32.51C18.29 32.81 18.52 33.05 18.80 33.05L20.84 33.05L20.84 39.48C20.84 39.81 21.11 40.07 21.43 40.07C21.77 40.07 22.03 39.81 22.03 39.48L22.03 33.05L24.07 33.05C24.36 33.05 24.59 32.81 24.59 32.54ZM29.77 36.90C29.77 36.68 29.71 36.42 29.66 36.23C29.33 34.94 28.37 34.06 26.96 34.06C25.28 34.06 24.07 35.42 24.07 37.10C24.07 38.92 25.33 40.14 27.06 40.14C27.91 40.14 29.40 39.70 29.40 39.05C29.40 38.64 28.99 38.55 28.73 38.68C28.31 38.99 27.66 39.28 27.17 39.28C25.99 39.28 25.27 38.48 25.19 37.48L29.22 37.48C29.52 37.48 29.77 37.19 29.77 36.90ZM25.19 36.69C25.24 35.88 25.80 34.92 26.95 34.92C28.19 34.92 28.72 35.91 28.74 36.69ZM39.25 36.29C39.25 35.12 38.45 34.06 37.25 34.06C36.41 34.06 35.83 34.52 35.50 35.16C35.32 34.67 34.68 34.06 33.72 34.06C32.88 34.06 32.45 34.54 32.21 34.90L32.21 34.65C32.21 34.37 31.97 34.13 31.69 34.13C31.38 34.13 31.14 34.37 31.14 34.65L31.14 39.54C31.14 39.83 31.38 40.07 31.67 40.07C31.97 40.07 32.21 39.83 32.21 39.54L32.21 36.70C32.21 35.79 32.64 35.01 33.48 35.01C34.32 35.01 34.66 35.69 34.66 36.62L34.66 39.54C34.66 39.83 34.90 40.07 35.18 40.07C35.48 40.07 35.72 39.83 35.72 39.54L35.72 36.69C35.72 35.79 36.13 35.01 36.97 35.01C37.81 35.01 38.18 35.69 38.18 36.62L38.18 39.54C38.18 39.83 38.42 40.07 38.71 40.07C39.01 40.07 39.25 39.83 39.25 39.54ZM46.54 37.10C46.54 35.20 45.47 34.06 43.96 34.06C43.16 34.06 42.47 34.46 42.05 35.03L42.05 34.65C42.05 34.37 41.81 34.13 41.53 34.13C41.22 34.13 40.98 34.37 40.98 34.65L40.98 41.76C40.98 42.04 41.22 42.28 41.51 42.28C41.81 42.28 42.05 42.04 42.05 41.76L42.05 39.16C42.52 39.80 43.19 40.14 43.96 40.14C45.47 40.14 46.54 38.98 46.54 37.10ZM45.41 37.10C45.41 38.31 44.87 39.20 43.78 39.20C42.77 39.20 42.05 38.32 42.05 37.13L42.05 37.06C42.05 35.87 42.77 35.01 43.78 35.01C44.87 35.01 45.41 35.88 45.41 37.10ZM48.95 32.44C48.95 32.16 48.71 31.92 48.43 31.92C48.12 31.92 47.88 32.16 47.88 32.44L47.88 39.54C47.88 39.83 48.12 40.07 48.41 40.07C48.71 40.07 48.95 39.83 48.95 39.54ZM55.33 36.08C55.33 34.60 54.25 34.06 53.00 34.06C52.22 34.06 51.35 34.31 50.80 34.86C50.72 34.95 50.69 35.04 50.69 35.14C50.69 35.39 50.92 35.56 51.13 35.56C51.22 35.56 51.31 35.52 51.40 35.46C51.83 35.13 52.31 34.96 52.85 34.96C53.66 34.96 54.26 35.39 54.26 36.12L54.26 36.45L52.60 36.45C51.40 36.45 50.34 36.92 50.34 38.22C50.34 39.50 51.40 40.14 52.36 40.14C53.26 40.14 53.80 39.87 54.26 39.35L54.26 39.54C54.26 39.89 54.54 40.07 54.76 40.07L54.79 40.07C55.09 40.07 55.33 39.83 55.33 39.54ZM54.26 37.19L54.26 38.01C54.26 38.69 53.48 39.39 52.64 39.39C51.86 39.39 51.42 38.92 51.42 38.25C51.42 37.55 51.97 37.19 52.88 37.19ZM59.75 39.58C59.75 39.33 59.56 39.14 59.29 39.14C59.17 39.14 59.03 39.20 58.90 39.20C58.55 39.20 58.33 38.92 58.33 38.48L58.33 35.14L59.12 35.14C59.38 35.14 59.58 34.94 59.58 34.68C59.58 34.41 59.38 34.20 59.12 34.20L58.33 34.20L58.33 33.06C58.33 32.79 58.09 32.55 57.80 32.55C57.49 32.55 57.25 32.79 57.25 33.06L57.25 34.20L56.69 34.20C56.42 34.20 56.22 34.41 56.22 34.66C56.22 34.94 56.42 35.14 56.69 35.14L57.25 35.14L57.25 38.73C57.25 39.64 57.73 40.14 58.64 40.14C59.28 40.14 59.75 39.96 59.75 39.58ZM66.07 36.90C66.07 36.68 66.01 36.42 65.96 36.23C65.63 34.94 64.67 34.06 63.26 34.06C61.58 34.06 60.37 35.42 60.37 37.10C60.37 38.92 61.63 40.14 63.36 40.14C64.21 40.14 65.70 39.70 65.70 39.05C65.70 38.64 65.29 38.55 65.03 38.68C64.61 38.99 63.96 39.28 63.47 39.28C62.29 39.28 61.57 38.48 61.49 37.48L65.52 37.48C65.82 37.48 66.07 37.19 66.07 36.90ZM61.49 36.69C61.54 35.88 62.10 34.92 63.25 34.92C64.49 34.92 65.02 35.91 65.04 36.69ZM73.76 32.46C73.76 32.06 73.07 31.88 72.55 31.88C71.48 31.88 70.80 32.60 70.80 33.80L70.80 34.20L70.22 34.20C69.97 34.20 69.77 34.41 69.77 34.66C69.77 34.94 69.97 35.14 70.22 35.14L70.80 35.14L70.80 39.54C70.80 39.83 71.04 40.07 71.33 40.07C71.63 40.07 71.87 39.83 71.87 39.54L71.87 35.14L72.66 35.14C72.91 35.14 73.12 34.94 73.12 34.68C73.12 34.41 72.91 34.20 72.66 34.20L71.87 34.20L71.87 33.80C71.87 33.11 72.18 32.74 72.73 32.74C72.98 32.74 73.16 32.88 73.36 32.88C73.56 32.88 73.76 32.73 73.76 32.46ZM79.56 37.10C79.56 35.43 78.44 34.06 76.63 34.06C74.83 34.06 73.72 35.43 73.72 37.10C73.72 38.76 74.83 40.14 76.63 40.14C78.44 40.14 79.56 38.76 79.56 37.10ZM78.44 37.10C78.44 38.21 77.80 39.20 76.63 39.20C75.48 39.20 74.82 38.21 74.82 37.10C74.82 35.99 75.48 35.01 76.63 35.01C77.80 35.01 78.44 35.99 78.44 37.10ZM83.99 34.60C83.99 34.32 83.78 34.12 83.51 34.12C82.86 34.12 82.33 34.66 82.01 35.10L82.01 34.65C82.01 34.37 81.77 34.13 81.49 34.13C81.18 34.13 80.94 34.37 80.94 34.65L80.94 39.54C80.94 39.83 81.17 40.06 81.46 40.07L81.47 40.07C81.77 40.07 82.01 39.83 82.01 39.54L82.01 36.57C82.01 35.81 82.54 35.21 83.45 35.16C83.75 35.15 83.99 34.91 83.99 34.60ZM92.33 38.25C92.22 36.21 88.90 36.77 88.78 35.73C88.73 35.26 89.23 34.91 89.96 34.91C90.52 34.91 91.03 35.09 91.40 35.36C91.48 35.42 91.56 35.44 91.66 35.44C91.87 35.44 92.08 35.26 92.08 35.02C92.08 34.92 92.04 34.83 91.97 34.76C91.51 34.31 90.78 34.06 89.95 34.06C88.54 34.06 87.68 34.73 87.74 35.76C87.85 37.71 91.16 37.11 91.28 38.39C91.33 38.92 90.85 39.29 90.02 39.29C89.42 39.29 88.82 39.05 88.39 38.74C88.31 38.68 88.22 38.66 88.12 38.66C87.86 38.66 87.65 38.85 87.65 39.10C87.65 39.22 87.70 39.32 87.78 39.39C88.31 39.92 89.18 40.14 89.98 40.14C91.51 40.14 92.39 39.35 92.33 38.25ZM94.76 32.44C94.76 32.16 94.52 31.92 94.25 31.92C93.94 31.92 93.70 32.16 93.70 32.44L93.70 39.54C93.70 39.83 93.94 40.07 94.22 40.07C94.52 40.07 94.76 39.83 94.76 39.54ZM97.02 32.06C96.65 32.06 96.34 32.37 96.34 32.75C96.34 33.12 96.65 33.44 97.02 33.44C97.40 33.44 97.70 33.12 97.70 32.75C97.70 32.37 97.40 32.06 97.02 32.06ZM97.56 34.65C97.56 34.37 97.32 34.13 97.04 34.13C96.73 34.13 96.49 34.37 96.49 34.65L96.49 39.54C96.49 39.83 96.73 40.07 97.02 40.07C97.32 40.07 97.56 39.83 97.56 39.54ZM104.50 32.44C104.50 32.16 104.26 31.92 103.98 31.92C103.67 31.92 103.43 32.16 103.43 32.44L103.43 35.04C102.96 34.42 102.40 34.06 101.52 34.06C100.01 34.06 98.94 35.25 98.94 37.11C98.94 39.00 100.02 40.14 101.52 40.14C102.42 40.14 102.98 39.75 103.43 39.17L103.43 39.54C103.43 39.83 103.67 40.07 103.96 40.07C104.26 40.07 104.50 39.83 104.50 39.54ZM103.43 37.14C103.43 38.34 102.83 39.20 101.80 39.20C100.72 39.20 100.04 38.32 100.04 37.11C100.04 35.90 100.72 35.01 101.80 35.01C102.83 35.01 103.43 35.88 103.43 37.07ZM111.58 36.90C111.58 36.68 111.52 36.42 111.47 36.23C111.13 34.94 110.17 34.06 108.77 34.06C107.09 34.06 105.88 35.42 105.88 37.10C105.88 38.92 107.14 40.14 108.86 40.14C109.72 40.14 111.20 39.70 111.20 39.05C111.20 38.64 110.80 38.55 110.53 38.68C110.11 38.99 109.46 39.28 108.97 39.28C107.80 39.28 107.08 38.48 106.99 37.48L111.02 37.48C111.32 37.48 111.58 37.19 111.58 36.90ZM106.99 36.69C107.04 35.88 107.60 34.92 108.76 34.92C109.99 34.92 110.52 35.91 110.54 36.69ZM117.19 38.25C117.08 36.21 113.76 36.77 113.64 35.73C113.59 35.26 114.10 34.91 114.83 34.91C115.38 34.91 115.90 35.09 116.27 35.36C116.34 35.42 116.42 35.44 116.52 35.44C116.74 35.44 116.94 35.26 116.94 35.02C116.94 34.92 116.90 34.83 116.83 34.76C116.38 34.31 115.64 34.06 114.82 34.06C113.40 34.06 112.55 34.73 112.61 35.76C112.72 37.71 116.03 37.11 116.15 38.39C116.20 38.92 115.72 39.29 114.89 39.29C114.29 39.29 113.69 39.05 113.26 38.74C113.17 38.68 113.09 38.66 112.98 38.66C112.73 38.66 112.51 38.85 112.51 39.10C112.51 39.22 112.56 39.32 112.64 39.39C113.17 39.92 114.05 40.14 114.84 40.14C116.38 40.14 117.25 39.35 117.19 38.25ZM127.20 37.11C127.20 35.25 126.24 34.06 124.74 34.06C123.85 34.06 123.18 34.42 122.71 35.04L122.71 32.44C122.71 32.16 122.47 31.92 122.20 31.92C121.88 31.92 121.64 32.16 121.64 32.44L121.64 39.54C121.64 39.83 121.88 40.07 122.17 40.07C122.47 40.07 122.71 39.83 122.71 39.54L122.71 39.17C123.14 39.75 123.84 40.14 124.62 40.14C126.12 40.14 127.20 39.00 127.20 37.11ZM126.08 37.11C126.08 38.32 125.54 39.20 124.44 39.20C123.67 39.20 122.71 38.36 122.71 37.16L122.71 37.07C122.71 35.88 123.43 35.01 124.44 35.01C125.54 35.01 126.08 35.90 126.08 37.11ZM133.57 34.65C133.57 34.37 133.33 34.13 133.06 34.13C132.74 34.13 132.50 34.37 132.50 34.65L132.50 37.41C132.50 38.39 131.88 39.20 131.02 39.20C130.15 39.20 129.66 38.54 129.66 37.58L129.66 34.65C129.66 34.37 129.42 34.13 129.14 34.13C128.83 34.13 128.59 34.37 128.59 34.65L128.59 37.95C128.59 39.17 129.46 40.14 130.68 40.14C131.69 40.14 132.19 39.70 132.50 39.21L132.50 39.54C132.50 39.83 132.74 40.07 133.03 40.07C133.33 40.07 133.57 39.83 133.57 39.54ZM135.82 32.06C135.44 32.06 135.13 32.37 135.13 32.75C135.13 33.12 135.44 33.44 135.82 33.44C136.20 33.44 136.50 33.12 136.50 32.75C136.50 32.37 136.20 32.06 135.82 32.06ZM136.36 34.65C136.36 34.37 136.12 34.13 135.84 34.13C135.53 34.13 135.29 34.37 135.29 34.65L135.29 39.54C135.29 39.83 135.53 40.07 135.82 40.07C136.12 40.07 136.36 39.83 136.36 39.54ZM139.15 32.44C139.15 32.16 138.91 31.92 138.64 31.92C138.32 31.92 138.08 32.16 138.08 32.44L138.08 39.54C138.08 39.83 138.32 40.07 138.61 40.07C138.91 40.07 139.15 39.83 139.15 39.54ZM146.09 32.44C146.09 32.16 145.85 31.92 145.57 31.92C145.26 31.92 145.02 32.16 145.02 32.44L145.02 35.04C144.55 34.42 143.99 34.06 143.11 34.06C141.60 34.06 140.53 35.25 140.53 37.11C140.53 39.00 141.61 40.14 143.11 40.14C144.01 40.14 144.58 39.75 145.02 39.17L145.02 39.54C145.02 39.83 145.26 40.07 145.55 40.07C145.85 40.07 146.09 39.83 146.09 39.54ZM145.02 37.14C145.02 38.34 144.42 39.20 143.39 39.20C142.31 39.20 141.64 38.32 141.64 37.11C141.64 35.90 142.31 35.01 143.39 35.01C144.42 35.01 145.02 35.88 145.02 37.07ZM158.69 34.65C158.69 34.37 158.47 34.13 158.16 34.13C157.93 34.13 157.72 34.28 157.66 34.49L156.42 38.63L155.06 34.54C154.98 34.30 154.76 34.13 154.51 34.13C154.22 34.13 154.01 34.30 153.92 34.54L152.58 38.63L151.34 34.49C151.27 34.28 151.04 34.13 150.82 34.13C150.52 34.13 150.30 34.40 150.30 34.65C150.30 34.70 150.31 34.74 150.32 34.79L151.84 39.58C151.93 39.87 152.20 40.07 152.50 40.07L152.52 40.07C152.83 40.07 153.11 39.87 153.19 39.58L154.50 35.54L155.80 39.58C155.89 39.87 156.16 40.07 156.47 40.07L156.48 40.07C156.79 40.07 157.07 39.87 157.15 39.58L158.66 34.79C158.68 34.74 158.69 34.70 158.69 34.65ZM160.34 32.06C159.97 32.06 159.66 32.37 159.66 32.75C159.66 33.12 159.97 33.44 160.34 33.44C160.73 33.44 161.03 33.12 161.03 32.75C161.03 32.37 160.73 32.06 160.34 32.06ZM160.88 34.65C160.88 34.37 160.64 34.13 160.37 34.13C160.06 34.13 159.82 34.37 159.82 34.65L159.82 39.54C159.82 39.83 160.06 40.07 160.34 40.07C160.64 40.07 160.88 39.83 160.88 39.54ZM165.31 39.58C165.31 39.33 165.12 39.14 164.86 39.14C164.74 39.14 164.59 39.20 164.46 39.20C164.11 39.20 163.90 38.92 163.90 38.48L163.90 35.14L164.69 35.14C164.94 35.14 165.14 34.94 165.14 34.68C165.14 34.41 164.94 34.20 164.69 34.20L163.90 34.20L163.90 33.06C163.90 32.79 163.66 32.55 163.37 32.55C163.06 32.55 162.82 32.79 162.82 33.06L162.82 34.20L162.25 34.20C161.99 34.20 161.78 34.41 161.78 34.66C161.78 34.94 161.99 35.14 162.25 35.14L162.82 35.14L162.82 38.73C162.82 39.64 163.30 40.14 164.21 40.14C164.84 40.14 165.31 39.96 165.31 39.58ZM171.28 36.26C171.28 35.03 170.40 34.06 169.18 34.06C168.16 34.06 167.63 34.55 167.35 35.02L167.35 32.44C167.35 32.16 167.11 31.92 166.84 31.92C166.52 31.92 166.28 32.16 166.28 32.44L166.28 39.54C166.28 39.83 166.52 40.07 166.81 40.07C167.11 40.07 167.35 39.83 167.35 39.54L167.35 36.82C167.35 35.74 167.93 35.01 168.84 35.01C169.70 35.01 170.21 35.66 170.21 36.62L170.21 39.54C170.21 39.83 170.45 40.07 170.74 40.07C171.04 40.07 171.28 39.83 171.28 39.54ZM182.94 32.50C182.94 32.19 182.68 31.92 182.36 31.92C182.00 31.92 181.74 32.19 181.74 32.50L181.74 35.36L177.31 35.36L177.31 32.50C177.31 32.19 177.05 31.92 176.74 31.92C176.39 31.92 176.12 32.19 176.12 32.50L176.12 39.48C176.12 39.81 176.39 40.07 176.71 40.07C177.05 40.07 177.31 39.81 177.31 39.48L177.31 36.41L181.74 36.41L181.74 39.48C181.74 39.81 182.00 40.07 182.34 40.07C182.68 40.07 182.94 39.81 182.94 39.48ZM190.42 32.54C190.42 32.22 190.19 32.00 189.90 32.00L184.63 32.00C184.34 32.00 184.12 32.22 184.12 32.51C184.12 32.81 184.34 33.05 184.63 33.05L186.67 33.05L186.67 39.48C186.67 39.81 186.94 40.07 187.26 40.07C187.60 40.07 187.86 39.81 187.86 39.48L187.86 33.05L189.90 33.05C190.19 33.05 190.42 32.81 190.42 32.54ZM199.67 32.80C199.67 32.27 199.18 31.92 198.64 31.95C198.25 31.95 197.89 32.18 197.75 32.54L195.62 37.70L193.51 32.54C193.34 32.12 192.91 31.92 192.47 31.95C191.99 31.95 191.60 32.34 191.60 32.80L191.60 39.48C191.60 39.81 191.87 40.07 192.19 40.07C192.53 40.07 192.79 39.81 192.79 39.48L192.79 33.68L195.08 39.28C195.32 39.88 195.92 39.86 196.16 39.28L198.47 33.68L198.47 39.48C198.47 39.81 198.73 40.07 199.07 40.07C199.40 40.07 199.67 39.81 199.67 39.48ZM206.34 39.46C206.34 39.18 206.11 38.94 205.82 38.94L202.64 38.94L202.64 32.50C202.64 32.19 202.38 31.92 202.07 31.92C201.72 31.92 201.46 32.19 201.46 32.50L201.46 39.22C201.46 39.65 201.80 40 202.24 40L205.82 40C206.11 40 206.34 39.77 206.34 39.46ZM215.32 36.08C215.32 34.60 214.24 34.06 212.99 34.06C212.21 34.06 211.33 34.31 210.78 34.86C210.71 34.95 210.67 35.04 210.67 35.14C210.67 35.39 210.90 35.56 211.12 35.56C211.20 35.56 211.30 35.52 211.38 35.46C211.81 35.13 212.29 34.96 212.83 34.96C213.65 34.96 214.25 35.39 214.25 36.12L214.25 36.45L212.58 36.45C211.38 36.45 210.32 36.92 210.32 38.22C210.32 39.50 211.38 40.14 212.34 40.14C213.24 40.14 213.78 39.87 214.25 39.35L214.25 39.54C214.25 39.89 214.52 40.07 214.74 40.07L214.78 40.07C215.08 40.07 215.32 39.83 215.32 39.54ZM214.25 37.19L214.25 38.01C214.25 38.69 213.47 39.39 212.63 39.39C211.85 39.39 211.40 38.92 211.40 38.25C211.40 37.55 211.96 37.19 212.87 37.19ZM222.01 36.28C222.01 35.06 221.12 34.06 219.90 34.06C218.89 34.06 218.38 34.55 218.10 35.02L218.10 34.65C218.10 34.37 217.86 34.13 217.58 34.13C217.27 34.13 217.03 34.37 217.03 34.65L217.03 39.54C217.03 39.83 217.27 40.07 217.56 40.07C217.86 40.07 218.10 39.83 218.10 39.54L218.10 36.76C218.10 35.78 218.63 35.01 219.55 35.01C220.42 35.01 220.94 35.68 220.94 36.64L220.94 39.54C220.94 39.83 221.18 40.07 221.47 40.07C221.77 40.07 222.01 39.83 222.01 39.54ZM228.95 32.44C228.95 32.16 228.71 31.92 228.43 31.92C228.12 31.92 227.88 32.16 227.88 32.44L227.88 35.04C227.41 34.42 226.85 34.06 225.97 34.06C224.46 34.06 223.39 35.25 223.39 37.11C223.39 39.00 224.47 40.14 225.97 40.14C226.87 40.14 227.44 39.75 227.88 39.17L227.88 39.54C227.88 39.83 228.12 40.07 228.41 40.07C228.71 40.07 228.95 39.83 228.95 39.54ZM227.88 37.14C227.88 38.34 227.28 39.20 226.25 39.20C225.17 39.20 224.50 38.32 224.50 37.11C224.50 35.90 225.17 35.01 226.25 35.01C227.28 35.01 227.88 35.88 227.88 37.07ZM237.61 31.86C235.28 31.86 233.45 33.54 233.45 36.00C233.45 38.46 235.28 40.14 237.61 40.14C238.86 40.14 239.72 39.63 240.35 38.96C240.44 38.86 240.49 38.73 240.49 38.58C240.49 38.30 240.25 38.03 239.94 38.03C239.78 38.03 239.62 38.10 239.52 38.22C239.03 38.78 238.32 39.09 237.61 39.09C235.93 39.09 234.68 37.79 234.68 36.00C234.68 34.20 235.93 32.92 237.61 32.92C238.31 32.92 239.05 33.26 239.52 33.80C239.62 33.93 239.78 33.99 239.93 33.99C240.24 33.99 240.49 33.74 240.49 33.44C240.49 33.29 240.44 33.16 240.35 33.05C239.74 32.37 238.86 31.86 237.61 31.86ZM247.62 37.73C247.62 34.74 242.92 35.73 242.92 34.07C242.92 33.39 243.53 32.92 244.43 32.92C245.12 32.92 245.82 33.12 246.41 33.56C246.50 33.63 246.62 33.66 246.73 33.66C247.03 33.66 247.30 33.41 247.30 33.11C247.30 32.98 247.25 32.84 247.14 32.74C246.54 32.19 245.52 31.88 244.52 31.88C242.87 31.88 241.69 32.84 241.69 34.16C241.69 37.05 246.40 35.96 246.40 37.85C246.40 38.42 245.94 39.10 244.64 39.10C243.77 39.10 243.02 38.75 242.47 38.28C242.38 38.21 242.24 38.18 242.14 38.18C241.81 38.18 241.58 38.46 241.58 38.76C241.58 38.90 241.63 39.03 241.73 39.14C242.35 39.75 243.42 40.14 244.60 40.14C246.76 40.14 247.62 38.98 247.62 37.73ZM254.70 37.73C254.70 34.74 250.00 35.73 250.00 34.07C250.00 33.39 250.61 32.92 251.51 32.92C252.20 32.92 252.90 33.12 253.49 33.56C253.58 33.63 253.70 33.66 253.81 33.66C254.11 33.66 254.38 33.41 254.38 33.11C254.38 32.98 254.33 32.84 254.22 32.74C253.62 32.19 252.60 31.88 251.60 31.88C249.95 31.88 248.77 32.84 248.77 34.16C248.77 37.05 253.48 35.96 253.48 37.85C253.48 38.42 253.02 39.10 251.72 39.10C250.85 39.10 250.10 38.75 249.55 38.28C249.46 38.21 249.32 38.18 249.22 38.18C248.89 38.18 248.66 38.46 248.66 38.76C248.66 38.90 248.71 39.03 248.81 39.14C249.43 39.75 250.50 40.14 251.68 40.14C253.84 40.14 254.70 38.98 254.70 37.73ZM257.36 39.38C257.36 38.98 257.03 38.63 256.62 38.63C256.22 38.63 255.89 38.98 255.89 39.38C255.89 39.78 256.22 40.12 256.62 40.12C257.03 40.12 257.36 39.78 257.36 39.38Z" fill="#9aa7b4" /><rect x="18" y="50" width="384" height="6" rx="3" fill="#21262d" /><rect x="18" y="50" width="0.00" height="6" rx="3" fill="#00a5fe" /></svg>