<svg xmlns="http://www.w3.org/2000/svg" width="420" height="64" viewBox="0 0 420 64" role="img"><rect x="0.5" y="0.5" width="419" height="63" rx="10" fill="#ffffff" stroke="#f2f4f6" /><path d="M25.22 19.65C25.22 18.33 24.09 17.07 22.61 17.07C21.57 17.07 20.93 17.62 20.66 18.04L20.66 18.02C20.66 17.55 20.27 17.15 19.79 17.15C19.27 17.15 18.88 17.55 18.88 18.02L18.88 23.20C18.88 23.69 19.27 24.08 19.76 24.08C20.27 24.08 20.66 23.69 20.66 23.20L20.66 20.22C20.66 19.25 21.36 18.65 22.06 18.65C22.82 18.65 23.45 19.25 23.45 20.19L23.45 23.20C23.45 23.69 23.84 24.08 24.33 24.08C24.83 24.08 25.22 23.69 25.22 23.20ZM33.41 20.40C33.41 20.07 33.32 19.66 33.22 19.35C32.74 17.95 31.58 17.07 30.05 17.07C28.00 17.07 26.55 18.65 26.55 20.61C26.55 22.78 28.11 24.17 30.17 24.17C31.20 24.17 32.70 23.78 32.78 22.98C32.83 22.56 32.41 22.26 32.03 22.26C31.92 22.26 31.79 22.29 31.68 22.35C31.26 22.57 30.74 22.75 30.36 22.75C29.21 22.75 28.53 22.07 28.42 21.21L32.59 21.21C33.05 21.21 33.41 20.84 33.41 20.40ZM28.39 20.01C28.47 19.34 28.95 18.48 30.05 18.48C31.23 18.48 31.68 19.37 31.72 20.01ZM40.22 23.27C40.22 23.12 40.18 22.96 40.08 22.82L38.47 20.57L40.08 18.41C40.18 18.27 40.22 18.12 40.22 17.97C40.22 17.56 39.87 17.17 39.39 17.17C39.11 17.17 38.86 17.32 38.69 17.55L37.38 19.32L36.03 17.53C35.86 17.29 35.61 17.17 35.35 17.17C34.86 17.17 34.52 17.57 34.52 17.97C34.52 18.12 34.56 18.27 34.66 18.41L36.26 20.57L34.66 22.82C34.56 22.96 34.52 23.12 34.52 23.27C34.52 23.71 34.90 24.08 35.35 24.08C35.60 24.08 35.84 23.97 35.99 23.75L37.38 21.86L38.73 23.73C38.90 23.96 39.14 24.08 39.41 24.08C39.91 24.08 40.22 23.66 40.22 23.27ZM45.48 23.36C45.48 22.92 45.20 22.59 44.70 22.59L44.54 22.59C44.26 22.59 43.93 22.38 43.93 21.84L43.93 18.79L44.63 18.79C45.03 18.79 45.38 18.44 45.38 18.02C45.38 17.59 45.03 17.24 44.63 17.24L43.93 17.24L43.93 16.19C43.93 15.70 43.54 15.31 43.05 15.31C42.53 15.31 42.14 15.70 42.14 16.19L42.14 17.24L41.70 17.24C41.28 17.24 40.93 17.59 40.93 17.99C40.93 18.44 41.28 18.79 41.70 18.79L42.14 18.79L42.14 22.32C42.14 23.52 42.81 24.17 44.05 24.17C45.22 24.17 45.48 23.80 45.48 23.36ZM49.50 20.60C49.50 20.19 49.16 19.86 48.76 19.86L46.71 19.86C46.31 19.86 45.97 20.19 45.97 20.60C45.97 21.03 46.31 21.37 46.71 21.37L48.76 21.37C49.16 21.37 49.50 21.03 49.50 20.60ZM60.90 19.67C60.90 18.29 59.93 17.07 58.40 17.07C57.23 17.07 56.56 17.76 56.30 18.23C56.05 17.74 55.42 17.07 54.29 17.07C53.25 17.07 52.78 17.45 52.50 17.81L52.50 17.80C52.50 17.60 52.24 17.15 51.63 17.15C51.11 17.15 50.72 17.55 50.72 18.02L50.72 23.20C50.72 23.69 51.11 24.08 51.60 24.08C52.10 24.08 52.50 23.69 52.50 23.20L52.50 20.01C52.50 19.35 53 18.65 53.76 18.65C54.48 18.65 54.90 19.38 54.90 20.01L54.90 23.20C54.90 23.69 55.30 24.08 55.79 24.08C56.30 24.08 56.70 23.69 56.70 23.20L56.70 20.14C56.70 19.35 57.19 18.65 57.96 18.65C58.68 18.65 59.10 19.38 59.10 20.01L59.10 23.20C59.10 23.69 59.50 24.08 59.99 24.08C60.50 24.08 60.90 23.69 60.90 23.20ZM69.37 20.61C69.37 18.69 68.02 17.07 65.78 17.07C63.56 17.07 62.21 18.69 62.21 20.61C62.21 22.54 63.56 24.17 65.78 24.17C68.02 24.17 69.37 22.54 69.37 20.61ZM67.52 20.61C67.52 21.68 66.89 22.59 65.78 22.59C64.68 22.59 64.06 21.68 64.06 20.61C64.06 19.56 64.68 18.65 65.78 18.65C66.89 18.65 67.52 19.56 67.52 20.61ZM70.26 20.63C70.26 22.88 71.69 24.17 73.40 24.17C74.21 24.17 74.95 23.80 75.34 23.13L75.34 23.20C75.34 23.69 75.74 24.08 76.24 24.08C76.73 24.08 77.12 23.69 77.12 23.20L77.12 15.45C77.12 14.97 76.73 14.58 76.21 14.58C75.74 14.58 75.34 14.97 75.34 15.45L75.34 18.11C74.95 17.42 74.20 17.07 73.40 17.07C71.68 17.07 70.26 18.41 70.26 20.63ZM72.10 20.63C72.10 19.45 72.78 18.65 73.82 18.65C74.53 18.65 75.34 19.41 75.34 20.56L75.34 20.71C75.34 21.84 74.53 22.59 73.82 22.59C72.78 22.59 72.10 21.80 72.10 20.63ZM85.31 20.40C85.31 20.07 85.21 19.66 85.12 19.35C84.64 17.95 83.48 17.07 81.95 17.07C79.89 17.07 78.45 18.65 78.45 20.61C78.45 22.78 80.01 24.17 82.06 24.17C83.10 24.17 84.60 23.78 84.68 22.98C84.72 22.56 84.30 22.26 83.93 22.26C83.81 22.26 83.69 22.29 83.58 22.35C83.16 22.57 82.64 22.75 82.26 22.75C81.11 22.75 80.43 22.07 80.31 21.21L84.49 21.21C84.95 21.21 85.31 20.84 85.31 20.40ZM80.29 20.01C80.37 19.34 80.85 18.48 81.95 18.48C83.13 18.48 83.58 19.37 83.62 20.01ZM88.41 15.45C88.41 14.97 88.01 14.58 87.54 14.58C87.02 14.58 86.63 14.97 86.63 15.45L86.63 23.20C86.63 23.69 87.02 24.08 87.51 24.08C88.01 24.08 88.41 23.69 88.41 23.20Z" fill="#22272e" /><path d="M375.49 21.15C375.49 19.40 374.18 18.34 372.71 18.34C371.92 18.34 371.22 18.66 370.80 19.07L370.80 16.95L374.19 16.95C374.62 16.95 374.99 16.59 374.99 16.15C374.99 15.69 374.62 15.33 374.19 15.33L369.99 15.33C369.42 15.33 368.95 15.80 368.95 16.37L368.95 19.70C368.95 20.20 369.32 20.58 369.89 20.58C370.15 20.58 370.40 20.50 370.60 20.36C371.07 20.05 371.53 19.94 372.06 19.94C373.05 19.94 373.62 20.46 373.62 21.23C373.62 21.93 373.04 22.52 372.01 22.52C371.38 22.52 370.79 22.35 370.28 22.04C370.12 21.95 369.95 21.89 369.80 21.89C369.34 21.89 368.91 22.25 368.91 22.73C368.91 22.86 368.95 22.99 369.02 23.10C369.42 23.78 370.89 24.16 372.02 24.16C374.12 24.16 375.49 23.00 375.49 21.15ZM378.74 23.36C378.74 22.52 378.18 22.04 377.57 22.04C377.03 22.04 376.56 22.50 376.56 23.08C376.56 23.64 376.95 24.01 377.44 24.01C377.53 24.01 377.65 23.99 377.69 23.97C377.61 24.31 377.33 24.71 376.99 24.99C376.90 25.07 376.86 25.17 376.86 25.27C376.86 25.53 377.13 25.69 377.35 25.69C377.48 25.69 377.60 25.65 377.69 25.56C378.34 24.98 378.74 24.20 378.74 23.36ZM386.70 21.62C386.70 20.44 386.00 19.76 385.48 19.53C385.92 19.32 386.56 18.83 386.56 17.49C386.56 15.99 384.94 15.20 383.21 15.20C381.47 15.20 379.87 15.99 379.87 17.49C379.87 18.83 380.50 19.32 380.94 19.53C380.42 19.76 379.73 20.44 379.73 21.62C379.73 23.25 381.39 24.16 383.21 24.16C385.03 24.16 386.70 23.23 386.70 21.62ZM384.67 17.77C384.67 18.42 384.01 18.80 383.21 18.80C382.42 18.80 381.75 18.42 381.75 17.77C381.75 17.15 382.36 16.79 383.21 16.79C384.06 16.79 384.67 17.15 384.67 17.77ZM384.83 21.52C384.83 22.15 384.10 22.57 383.21 22.57C382.30 22.57 381.60 22.15 381.60 21.52C381.60 20.79 382.41 20.36 383.21 20.36C384.01 20.36 384.83 20.79 384.83 21.52ZM394.67 21.40C394.67 20.95 394.30 20.58 393.87 20.58L393.47 20.58L393.47 16.29C393.47 15.48 392.69 15.12 391.90 15.25C391.34 15.25 390.78 15.55 390.48 16.02L387.58 20.59C387.47 20.78 387.41 20.98 387.41 21.19C387.41 21.78 387.84 22.21 388.36 22.21L391.63 22.21L391.63 23.17C391.63 23.66 392.04 24.08 392.54 24.08C393.06 24.08 393.47 23.66 393.47 23.17L393.47 22.21L393.87 22.21C394.30 22.21 394.67 21.84 394.67 21.40ZM389.29 20.58L391.63 16.97L391.63 20.58ZM401.82 16.27C401.82 15.72 401.38 15.33 400.92 15.33L395.95 15.33C395.51 15.33 395.15 15.69 395.15 16.12C395.15 16.59 395.51 16.95 395.95 16.95L399.59 16.95L397.01 22.82C396.96 22.93 396.93 23.05 396.93 23.17C396.93 23.64 397.31 24.08 397.85 24.08C398.23 24.08 398.58 23.86 398.72 23.52L401.74 16.63C401.79 16.52 401.82 16.39 401.82 16.27Z" fill="#627386" /><path transform="translate(351.04, 12)" d="M6 1 L6 7.5 M3 5 L6 8 L9 5 M2 10.5 L10 10.5" fill="none" stroke="#627386" stroke-width="1.4" stroke-linecap="round" stroke-linejoin="round" /><path d="M24.82 34.46C24.82 32.97 23.77 32.00 22.26 32.00L19.68 32.00C19.25 32.00 18.90 32.34 18.90 32.78L18.90 39.48C18.90 39.81 19.16 40.07 19.49 40.07C19.82 40.07 20.09 39.81 20.09 39.48L20.09 36.92L21.83 36.92L23.63 39.80C23.74 39.98 23.92 40.07 24.11 40.07C24.46 40.07 24.70 39.78 24.70 39.50C24.70 39.40 24.67 39.30 24.61 39.20L23.09 36.83C23.98 36.60 24.82 35.88 24.82 34.46ZM20.09 35.87L20.09 33.05L22.10 33.05C22.98 33.05 23.59 33.62 23.59 34.46C23.59 35.30 22.98 35.87 22.10 35.87ZM30.68 36.08C30.68 34.60 29.60 34.06 28.36 34.06C27.58 34.06 26.70 34.31 26.15 34.86C26.08 34.95 26.04 35.04 26.04 35.14C26.04 35.39 26.27 35.56 26.48 35.56C26.57 35.56 26.66 35.52 26.75 35.46C27.18 35.13 27.66 34.96 28.20 34.96C29.02 34.96 29.62 35.39 29.62 36.12L29.62 36.45L27.95 36.45C26.75 36.45 25.69 36.92 25.69 38.22C25.69 39.50 26.75 40.14 27.71 40.14C28.61 40.14 29.15 39.87 29.62 39.35L29.62 39.54C29.62 39.89 29.89 40.07 30.11 40.07L30.14 40.07C30.44 40.07 30.68 39.83 30.68 39.54ZM29.62 37.19L29.62 38.01C29.62 38.69 28.84 39.39 28.00 39.39C27.22 39.39 26.77 38.92 26.77 38.25C26.77 37.55 27.32 37.19 28.24 37.19ZM32.93 32.06C32.56 32.06 32.24 32.37 32.24 32.75C32.24 33.12 32.56 33.44 32.93 33.44C33.31 33.44 33.61 33.12 33.61 32.75C33.61 32.37 33.31 32.06 32.93 32.06ZM33.47 34.65C33.47 34.37 33.23 34.13 32.95 34.13C32.64 34.13 32.40 34.37 32.40 34.65L32.40 39.54C32.40 39.83 32.64 40.07 32.93 40.07C33.23 40.07 33.47 39.83 33.47 39.54ZM36.26 32.44C36.26 32.16 36.02 31.92 35.75 31.92C35.44 31.92 35.20 32.16 35.20 32.44L35.20 39.54C35.20 39.83 35.44 40.07 35.72 40.07C36.02 40.07 36.26 39.83 36.26 39.54ZM42.24 38.25C42.13 36.21 38.81 36.77 38.69 35.73C38.64 35.26 39.14 34.91 39.88 34.91C40.43 34.91 40.94 35.09 41.32 35.36C41.39 35.42 41.47 35.44 41.57 35.44C41.78 35.44 41.99 35.26 41.99 35.02C41.99 34.92 41.95 34.83 41.88 34.76C41.42 34.31 40.69 34.06 39.86 34.06C38.45 34.06 37.60 34.73 37.66 35.76C37.76 37.71 41.08 37.11 41.20 38.39C41.24 38.92 40.76 39.29 39.94 39.29C39.34 39.29 38.74 39.05 38.30 38.74C38.22 38.68 38.14 38.66 38.03 38.66C37.78 38.66 37.56 38.85 37.56 39.10C37.56 39.22 37.61 39.32 37.69 39.39C38.22 39.92 39.10 40.14 39.89 40.14C41.42 40.14 42.30 39.35 42.24 38.25ZM47.76 32.44C47.76 32.16 47.52 31.92 47.24 31.92C46.93 31.92 46.69 32.16 46.69 32.44L46.69 39.54C46.69 39.83 46.93 40.07 47.22 40.07C47.52 40.07 47.76 39.83 47.76 39.54ZM50.02 32.06C49.64 32.06 49.33 32.37 49.33 32.75C49.33 33.12 49.64 33.44 50.02 33.44C50.40 33.44 50.70 33.12 50.70 32.75C50.70 32.37 50.40 32.06 50.02 32.06ZM50.56 34.65C50.56 34.37 50.32 34.13 50.04 34.13C49.73 34.13 49.49 34.37 49.49 34.65L49.49 39.54C49.49 39.83 49.73 40.07 50.02 40.07C50.32 40.07 50.56 39.83 50.56 39.54ZM57.02 39.54C57.02 39.44 56.99 39.32 56.92 39.23L55.01 36.83L56.81 34.95C56.89 34.85 56.94 34.74 56.94 34.62C56.94 34.36 56.70 34.12 56.44 34.12C56.32 34.12 56.18 34.18 56.09 34.28L53.35 37.16L53.35 32.44C53.35 32.16 53.11 31.92 52.84 31.92C52.52 31.92 52.28 32.16 52.28 32.44L52.28 39.54C52.28 39.83 52.52 40.07 52.81 40.07C53.11 40.07 53.35 39.83 53.35 39.54L53.35 38.39L54.24 37.49L56.08 39.87C56.17 40.01 56.34 40.08 56.50 40.08C56.82 40.08 57.02 39.80 57.02 39.54ZM63.83 36.90C63.83 36.68 63.77 36.42 63.72 36.23C63.38 34.94 62.42 34.06 61.02 34.06C59.34 34.06 58.13 35.42 58.13 37.10C58.13 38.92 59.39 40.14 61.12 40.14C61.97 40.14 63.46 39.70 63.46 39.05C63.46 38.64 63.05 38.55 62.78 38.68C62.36 38.99 61.72 39.28 61.22 39.28C60.05 39.28 59.33 38.48 59.24 37.48L63.28 37.48C63.58 37.48 63.83 37.19 63.83 36.90ZM59.24 36.69C59.29 35.88 59.86 34.92 61.01 34.92C62.24 34.92 62.77 35.91 62.80 36.69ZM76.39 36.29C76.39 35.12 75.59 34.06 74.39 34.06C73.55 34.06 72.97 34.52 72.64 35.16C72.46 34.67 71.82 34.06 70.86 34.06C70.02 34.06 69.59 34.54 69.35 34.90L69.35 34.65C69.35 34.37 69.11 34.13 68.83 34.13C68.52 34.13 68.28 34.37 68.28 34.65L68.28 39.54C68.28 39.83 68.52 40.07 68.81 40.07C69.11 40.07 69.35 39.83 69.35 39.54L69.35 36.70C69.35 35.79 69.78 35.01 70.62 35.01C71.46 35.01 71.80 35.69 71.80 36.62L71.80 39.54C71.80 39.83 72.04 40.07 72.32 40.07C72.62 40.07 72.86 39.83 72.86 39.54L72.86 36.69C72.86 35.79 73.27 35.01 74.11 35.01C74.95 35.01 75.32 35.69 75.32 36.62L75.32 39.54C75.32 39.83 75.56 40.07 75.85 40.07C76.15 40.07 76.39 39.83 76.39 39.54ZM83.62 37.10C83.62 35.43 82.50 34.06 80.69 34.06C78.89 34.06 77.77 35.43 77.77 37.10C77.77 38.76 78.89 40.14 80.69 40.14C82.50 40.14 83.62 38.76 83.62 37.10ZM82.50 37.10C82.50 38.21 81.85 39.20 80.69 39.20C79.54 39.20 78.88 38.21 78.88 37.10C78.88 35.99 79.54 35.01 80.69 35.01C81.85 35.01 82.50 35.99 82.50 37.10ZM90.20 32.44C90.20 32.16 89.96 31.92 89.69 31.92C89.38 31.92 89.14 32.16 89.14 32.44L89.14 35.04C88.67 34.42 88.10 34.06 87.23 34.06C85.72 34.06 84.65 35.25 84.65 37.11C84.65 39.00 85.73 40.14 87.23 40.14C88.13 40.14 88.69 39.75 89.14 39.17L89.14 39.54C89.14 39.83 89.38 40.07 89.66 40.07C89.96 40.07 90.20 39.83 90.20 39.54ZM89.14 37.14C89.14 38.34 88.54 39.20 87.50 39.20C86.42 39.20 85.75 38.32 85.75 37.11C85.75 35.90 86.42 35.01 87.50 35.01C88.54 35.01 89.14 35.88 89.14 37.07ZM97.28 36.90C97.28 36.68 97.22 36.42 97.18 36.23C96.84 34.94 95.88 34.06 94.48 34.06C92.80 34.06 91.58 35.42 91.58 37.10C91.58 38.92 92.84 40.14 94.57 40.14C95.42 40.14 96.91 39.70 96.91 39.05C96.91 38.64 96.50 38.55 96.24 38.68C95.82 38.99 95.17 39.28 94.68 39.28C93.50 39.28 92.78 38.48 92.70 37.48L96.73 37.48C97.03 37.48 97.28 37.19 97.28 36.90ZM92.70 36.69C92.75 35.88 93.31 34.92 94.46 34.92C95.70 34.92 96.23 35.91 96.25 36.69ZM99.72 32.44C99.72 32.16 99.48 31.92 99.20 31.92C98.89 31.92 98.65 32.16 98.65 32.44L98.65 39.54C98.65 39.83 98.89 40.07 99.18 40.07C99.48 40.07 99.72 39.83 99.72 39.54ZM105.70 38.25C105.59 36.21 102.26 36.77 102.14 35.73C102.10 35.26 102.60 34.91 103.33 34.91C103.88 34.91 104.40 35.09 104.77 35.36C104.84 35.42 104.93 35.44 105.02 35.44C105.24 35.44 105.44 35.26 105.44 35.02C105.44 34.92 105.41 34.83 105.34 34.76C104.88 34.31 104.15 34.06 103.32 34.06C101.90 34.06 101.05 34.73 101.11 35.76C101.22 37.71 104.53 37.11 104.65 38.39C104.70 38.92 104.22 39.29 103.39 39.29C102.79 39.29 102.19 39.05 101.76 38.74C101.68 38.68 101.59 38.66 101.48 38.66C101.23 38.66 101.02 38.85 101.02 39.10C101.02 39.22 101.06 39.32 101.15 39.39C101.68 39.92 102.55 40.14 103.34 40.14C104.88 40.14 105.76 39.35 105.70 38.25ZM115.14 34.65C115.14 34.37 114.90 34.13 114.62 34.13C114.31 34.13 114.07 34.37 114.07 34.65L114.07 37.41C114.07 38.39 113.45 39.20 112.58 39.20C111.72 39.20 111.23 38.54 111.23 37.58L111.23 34.65C111.23 34.37 110.99 34.13 110.71 34.13C110.40 34.13 110.16 34.37 110.16 34.65L110.16 37.95C110.16 39.17 111.02 40.14 112.25 40.14C113.26 40.14 113.76 39.70 114.07 39.21L114.07 39.54C114.07 39.83 114.31 40.07 114.60 40.07C114.90 40.07 115.14 39.83 115.14 39.54ZM121.10 38.25C121.00 36.21 117.67 36.77 117.55 35.73C117.50 35.26 118.01 34.91 118.74 34.91C119.29 34.91 119.81 35.09 120.18 35.36C120.25 35.42 120.34 35.44 120.43 35.44C120.65 35.44 120.85 35.26 120.85 35.02C120.85 34.92 120.82 34.83 120.74 34.76C120.29 34.31 119.56 34.06 118.73 34.06C117.31 34.06 116.46 34.73 116.52 35.76C116.63 37.71 119.94 37.11 120.06 38.39C120.11 38.92 119.63 39.29 118.80 39.29C118.20 39.29 117.60 39.05 117.17 38.74C117.08 38.68 117.00 38.66 116.89 38.66C116.64 38.66 116.42 38.85 116.42 39.10C116.42 39.22 116.47 39.32 116.56 39.39C117.08 39.92 117.96 40.14 118.75 40.14C120.29 40.14 121.16 39.35 121.10 38.25ZM123.00 32.06C122.63 32.06 122.32 32.37 122.32 32.75C122.32 33.12 122.63 33.44 123.00 33.44C123.38 33.44 123.68 33.12 123.68 32.75C123.68 32.37 123.38 32.06 123.00 32.06ZM123.54 34.65C123.54 34.37 123.30 34.13 123.02 34.13C122.71 34.13 122.47 34.37 122.47 34.65L122.47 39.54C122.47 39.83 122.71 40.07 123.00 40.07C123.30 40.07 123.54 39.83 123.54 39.54ZM130.25 36.28C130.25 35.06 129.36 34.06 128.14 34.06C127.13 34.06 126.61 34.55 126.34 35.02L126.34 34.65C126.34 34.37 126.10 34.13 125.82 34.13C125.51 34.13 125.27 34.37 125.27 34.65L125.27 39.54C125.27 39.83 125.51 40.07 125.80 40.07C126.10 40.07 126.34 39.83 126.34 39.54L126.34 36.76C126.34 35.78 126.86 35.01 127.79 35.01C128.65 35.01 129.18 35.68 129.18 36.64L129.18 39.54C129.18 39.83 129.42 40.07 129.71 40.07C130.01 40.07 130.25 39.83 130.25 39.54ZM137.17 34.65C137.17 34.37 136.93 34.13 136.66 34.13C136.34 34.13 136.10 34.37 136.10 34.65L136.10 35.04C135.64 34.42 134.96 34.06 134.20 34.06C132.70 34.06 131.63 35.19 131.63 37.06C131.63 38.94 132.71 40.05 134.20 40.05C134.99 40.05 135.67 39.63 136.10 39.04L136.10 39.81C136.10 41.04 135.22 41.48 134.32 41.48C133.68 41.48 133.18 41.34 132.73 40.97C132.65 40.91 132.56 40.89 132.46 40.89C132.22 40.89 132.00 41.09 132.00 41.34C132.00 41.46 132.05 41.57 132.12 41.64C132.68 42.18 133.50 42.35 134.32 42.35C135.73 42.35 137.17 41.76 137.17 39.77ZM136.10 37.07C136.10 38.26 135.32 39.10 134.36 39.10C133.28 39.10 132.73 38.25 132.73 37.06C132.73 35.85 133.28 35.01 134.36 35.01C135.32 35.01 136.10 35.84 136.10 37.02ZM147.44 39.46C147.44 39.18 147.22 38.94 146.93 38.94L143.21 38.94L143.21 36.45L146.84 36.45C147.13 36.45 147.36 36.21 147.36 35.93C147.36 35.62 147.13 35.39 146.84 35.39L143.21 35.39L143.21 33.05L146.93 33.05C147.22 33.05 147.44 32.81 147.44 32.54C147.44 32.22 147.22 32.00 146.93 32.00L142.80 32.00C142.37 32.00 142.02 32.34 142.02 32.78L142.02 39.22C142.02 39.65 142.37 40 142.80 40L146.93 40C147.22 40 147.44 39.77 147.44 39.46ZM154.57 37.73C154.57 34.74 149.87 35.73 149.87 34.07C149.87 33.39 150.48 32.92 151.38 32.92C152.08 32.92 152.77 33.12 153.36 33.56C153.46 33.63 153.58 33.66 153.68 33.66C153.98 33.66 154.25 33.41 154.25 33.11C154.25 32.98 154.20 32.84 154.09 32.74C153.49 32.19 152.47 31.88 151.48 31.88C149.82 31.88 148.64 32.84 148.64 34.16C148.64 37.05 153.35 35.96 153.35 37.85C153.35 38.42 152.89 39.10 151.60 39.10C150.72 39.10 149.98 38.75 149.42 38.28C149.33 38.21 149.20 38.18 149.09 38.18C148.76 38.18 148.54 38.46 148.54 38.76C148.54 38.90 148.58 39.03 148.68 39.14C149.30 39.75 150.37 40.14 151.55 40.14C153.71 40.14 154.57 38.98 154.57 37.73ZM161.69 37.43C161.69 35.73 160.49 34.92 159.05 34.92C157.93 34.92 157.19 35.44 156.84 35.99C156.83 35.90 156.83 35.93 156.83 35.84C156.83 34.35 157.57 32.93 159.01 32.93C159.60 32.93 160.00 33.10 160.33 33.38C160.42 33.44 160.54 33.47 160.64 33.47C160.92 33.47 161.17 33.24 161.17 32.94C161.17 32.84 161.14 32.73 161.06 32.64C160.60 32.12 159.86 31.88 159.01 31.88C156.73 31.88 155.63 33.77 155.63 36.02C155.63 38.21 156.53 40.14 158.82 40.14C160.58 40.14 161.69 38.87 161.69 37.43ZM160.49 37.54C160.49 38.25 159.91 39.09 158.88 39.09C157.75 39.09 157.15 38.32 157.15 37.53C157.15 36.77 157.74 35.94 158.77 35.94C159.91 35.94 160.49 36.69 160.49 37.54ZM164.39 39.38C164.39 38.98 164.05 38.63 163.64 38.63C163.25 38.63 162.91 38.98 162.91 39.38C162.91 39.78 163.25 40.12 163.64 40.12C164.05 40.12 164.39 39.78 164.39 39.38Z" fill="#627386" /><rect x="18" y="50" width="384" height="6" rx="3" fill="#f4faff" /><rect x="18" y="50" width="0.00" height="6" rx="3" fill="#00a5fe" /></svg>