<svg xmlns="http://www.w3.org/2000/svg" width="420" height="64" viewBox="0 0 420 64" role="img"><rect x="0.5" y="0.5" width="419" height="63" rx="10" fill="#ffffff" stroke="#f2f4f6" /><path d="M25.22 19.65C25.22 18.33 24.09 17.07 22.61 17.07C21.57 17.07 20.93 17.62 20.66 18.04L20.66 18.02C20.66 17.55 20.27 17.15 19.79 17.15C19.27 17.15 18.88 17.55 18.88 18.02L18.88 23.20C18.88 23.69 19.27 24.08 19.76 24.08C20.27 24.08 20.66 23.69 20.66 23.20L20.66 20.22C20.66 19.25 21.36 18.65 22.06 18.65C22.82 18.65 23.45 19.25 23.45 20.19L23.45 23.20C23.45 23.69 23.84 24.08 24.33 24.08C24.83 24.08 25.22 23.69 25.22 23.20ZM33.41 20.40C33.41 20.07 33.32 19.66 33.22 19.35C32.74 17.95 31.58 17.07 30.05 17.07C28.00 17.07 26.55 18.65 26.55 20.61C26.55 22.78 28.11 24.17 30.17 24.17C31.20 24.17 32.70 23.78 32.78 22.98C32.83 22.56 32.41 22.26 32.03 22.26C31.92 22.26 31.79 22.29 31.68 22.35C31.26 22.57 30.74 22.75 30.36 22.75C29.21 22.75 28.53 22.07 28.42 21.21L32.59 21.21C33.05 21.21 33.41 20.84 33.41 20.40ZM28.39 20.01C28.47 19.34 28.95 18.48 30.05 18.48C31.23 18.48 31.68 19.37 31.72 20.01ZM40.22 23.27C40.22 23.12 40.18 22.96 40.08 22.82L38.47 20.57L40.08 18.41C40.18 18.27 40.22 18.12 40.22 17.97C40.22 17.56 39.87 17.17 39.39 17.17C39.11 17.17 38.86 17.32 38.69 17.55L37.38 19.32L36.03 17.53C35.86 17.29 35.61 17.17 35.35 17.17C34.86 17.17 34.52 17.57 34.52 17.97C34.52 18.12 34.56 18.27 34.66 18.41L36.26 20.57L34.66 22.82C34.56 22.96 34.52 23.12 34.52 23.27C34.52 23.71 34.90 24.08 35.35 24.08C35.60 24.08 35.84 23.97 35.99 23.75L37.38 21.86L38.73 23.73C38.90 23.96 39.14 24.08 39.41 24.08C39.91 24.08 40.22 23.66 40.22 23.27ZM45.48 23.36C45.48 22.92 45.20 22.59 44.70 22.59L44.54 22.59C44.26 22.59 43.93 22.38 43.93 21.84L43.93 18.79L44.63 18.79C45.03 18.79 45.38 18.44 45.38 18.02C45.38 17.59 45.03 17.24 44.63 17.24L43.93 17.24L43.93 16.19C43.93 15.70 43.54 15.31 43.05 15.31C42.53 15.31 42.14 15.70 42.14 16.19L42.14 17.24L41.70 17.24C41.28 17.24 40.93 17.59 40.93 17.99C40.93 18.44 41.28 18.79 41.70 18.79L42.14 18.79L42.14 22.32C42.14 23.52 42.81 24.17 44.05 24.17C45.22 24.17 45.48 23.80 45.48 23.36ZM49.50 20.60C49.50 20.19 49.16 19.86 48.76 19.86L46.71 19.86C46.31 19.86 45.97 20.19 45.97 20.60C45.97 21.03 46.31 21.37 46.71 21.37L48.76 21.37C49.16 21.37 49.50 21.03 49.50 20.60ZM60.90 19.67C60.90 18.29 59.93 17.07 58.40 17.07C57.23 17.07 56.56 17.76 56.30 18.23C56.05 17.74 55.42 17.07 54.29 17.07C53.25 17.07 52.78 17.45 52.50 17.81L52.50 17.80C52.50 17.60 52.24 17.15 51.63 17.15C51.11 17.15 50.72 17.55 50.72 18.02L50.72 23.20C50.72 23.69 51.11 24.08 51.60 24.08C52.10 24.08 52.50 23.69 52.50 23.20L52.50 20.01C52.50 19.35 53 18.65 53.76 18.65C54.48 18.65 54.90 19.38 54.90 20.01L54.90 23.20C54.90 23.69 55.30 24.08 55.79 24.08C56.30 24.08 56.70 23.69 56.70 23.20L56.70 20.14C56.70 19.35 57.19 18.65 57.96 18.65C58.68 18.65 59.10 19.38 59.10 20.01L59.10 23.20C59.10 23.69 59.50 24.08 59.99 24.08C60.50 24.08 60.90 23.69 60.90 23.20ZM69.37 20.61C69.37 18.69 68.02 17.07 65.78 17.07C63.56 17.07 62.21 18.69 62.21 20.61C62.21 22.54 63.56 24.17 65.78 24.17C68.02 24.17 69.37 22.54 69.37 20.61ZM67.52 20.61C67.52 21.68 66.89 22.59 65.78 22.59C64.68 22.59 64.06 21.68 64.06 20.61C64.06 19.56 64.68 18.65 65.78 18.65C66.89 18.65 67.52 19.56 67.52 20.61ZM70.26 20.63C70.26 22.88 71.69 24.17 73.40 24.17C74.21 24.17 74.95 23.80 75.34 23.13L75.34 23.20C75.34 23.69 75.74 24.08 76.24 24.08C76.73 24.08 77.12 23.69 77.12 23.20L77.12 15.45C77.12 14.97 76.73 14.58 76.21 14.58C75.74 14.58 75.34 14.97 75.34 15.45L75.34 18.11C74.95 17.42 74.20 17.07 73.40 17.07C71.68 17.07 70.26 18.41 70.26 20.63ZM72.10 20.63C72.10 19.45 72.78 18.65 73.82 18.65C74.53 18.65 75.34 19.41 75.34 20.56L75.34 20.71C75.34 21.84 74.53 22.59 73.82 22.59C72.78 22.59 72.10 21.80 72.10 20.63ZM85.31 20.40C85.31 20.07 85.21 19.66 85.12 19.35C84.64 17.95 83.48 17.07 81.95 17.07C79.89 17.07 78.45 18.65 78.45 20.61C78.45 22.78 80.01 24.17 82.06 24.17C83.10 24.17 84.60 23.78 84.68 22.98C84.72 22.56 84.30 22.26 83.93 22.26C83.81 22.26 83.69 22.29 83.58 22.35C83.16 22.57 82.64 22.75 82.26 22.75C81.11 22.75 80.43 22.07 80.31 21.21L84.49 21.21C84.95 21.21 85.31 20.84 85.31 20.40ZM80.29 20.01C80.37 19.34 80.85 18.48 81.95 18.48C83.13 18.48 83.58 19.37 83.62 20.01ZM88.41 15.45C88.41 14.97 88.01 14.58 87.54 14.58C87.02 14.58 86.63 14.97 86.63 15.45L86.63 23.20C86.63 23.69 87.02 24.08 87.51 24.08C88.01 24.08 88.41 23.69 88.41 23.20ZM93.15 20.60C93.15 20.19 92.82 19.86 92.41 19.86L90.37 19.86C89.96 19.86 89.62 20.19 89.62 20.60C89.62 21.03 89.96 21.37 90.37 21.37L92.41 21.37C92.82 21.37 93.15 21.03 93.15 20.60ZM100.17 23.19C100.17 23.02 100.11 22.84 100.00 22.68L98.22 20.30L99.79 18.51C99.91 18.36 99.98 18.18 99.98 17.98C99.98 17.53 99.59 17.14 99.14 17.14C98.92 17.14 98.70 17.24 98.54 17.42L96.15 20.25L96.15 15.45C96.15 14.97 95.76 14.58 95.28 14.58C94.76 14.58 94.37 14.97 94.37 15.45L94.37 23.20C94.37 23.69 94.76 24.08 95.25 24.08C95.76 24.08 96.15 23.69 96.15 23.20L96.15 22.26L96.96 21.40L98.54 23.71C98.71 23.96 99.00 24.08 99.28 24.08C99.80 24.08 100.17 23.62 100.17 23.19ZM108.20 19.65C108.20 18.33 107.07 17.07 105.58 17.07C104.55 17.07 103.90 17.62 103.64 18.04L103.64 18.02C103.64 17.55 103.25 17.15 102.77 17.15C102.25 17.15 101.86 17.55 101.86 18.02L101.86 23.20C101.86 23.69 102.25 24.08 102.74 24.08C103.25 24.08 103.64 23.69 103.64 23.20L103.64 20.22C103.64 19.25 104.34 18.65 105.04 18.65C105.79 18.65 106.42 19.25 106.42 20.19L106.42 23.20C106.42 23.69 106.82 24.08 107.31 24.08C107.81 24.08 108.20 23.69 108.20 23.20ZM116.39 20.40C116.39 20.07 116.29 19.66 116.20 19.35C115.72 17.95 114.56 17.07 113.03 17.07C110.97 17.07 109.53 18.65 109.53 20.61C109.53 22.78 111.09 24.17 113.14 24.17C114.18 24.17 115.68 23.78 115.76 22.98C115.80 22.56 115.38 22.26 115.01 22.26C114.89 22.26 114.77 22.29 114.66 22.35C114.24 22.57 113.72 22.75 113.34 22.75C112.19 22.75 111.51 22.07 111.39 21.21L115.57 21.21C116.03 21.21 116.39 20.84 116.39 20.40ZM111.37 20.01C111.45 19.34 111.93 18.48 113.03 18.48C114.21 18.48 114.66 19.37 114.70 20.01ZM123.20 23.27C123.20 23.12 123.15 22.96 123.06 22.82L121.45 20.57L123.06 18.41C123.15 18.27 123.20 18.12 123.20 17.97C123.20 17.56 122.85 17.17 122.37 17.17C122.09 17.17 121.84 17.32 121.67 17.55L120.35 19.32L119.01 17.53C118.84 17.29 118.59 17.17 118.32 17.17C117.83 17.17 117.50 17.57 117.50 17.97C117.50 18.12 117.54 18.27 117.64 18.41L119.23 20.57L117.64 22.82C117.54 22.96 117.50 23.12 117.50 23.27C117.50 23.71 117.88 24.08 118.32 24.08C118.58 24.08 118.81 23.97 118.97 23.75L120.35 21.86L121.71 23.73C121.88 23.96 122.12 24.08 122.38 24.08C122.89 24.08 123.20 23.66 123.20 23.27ZM127.75 20.60C127.75 20.19 127.41 19.86 127.00 19.86L124.96 19.86C124.55 19.86 124.22 20.19 124.22 20.60C124.22 21.03 124.55 21.37 124.96 21.37L127.00 21.37C127.41 21.37 127.75 21.03 127.75 20.60ZM134.54 22.92C134.54 22.46 134.12 22.15 133.68 22.15C133.51 22.15 133.36 22.19 133.21 22.29C132.90 22.49 132.56 22.59 132.20 22.59C131.12 22.59 130.36 21.79 130.36 20.61C130.36 19.44 131.12 18.65 132.20 18.65C132.55 18.65 132.90 18.75 133.19 18.93C133.35 19.03 133.51 19.07 133.68 19.07C134.07 19.07 134.52 18.79 134.52 18.32C134.52 18.20 134.49 18.09 134.44 17.99C134.14 17.45 133.16 17.07 132.11 17.07C130.03 17.07 128.53 18.54 128.53 20.61C128.53 22.70 130.03 24.17 132.11 24.17C133.07 24.17 133.77 23.89 134.26 23.50C134.44 23.36 134.54 23.13 134.54 22.92ZM142.67 20.61C142.67 18.69 141.33 17.07 139.09 17.07C136.86 17.07 135.52 18.69 135.52 20.61C135.52 22.54 136.86 24.17 139.09 24.17C141.33 24.17 142.67 22.54 142.67 20.61ZM140.82 20.61C140.82 21.68 140.19 22.59 139.09 22.59C137.98 22.59 137.36 21.68 137.36 20.61C137.36 19.56 137.98 18.65 139.09 18.65C140.19 18.65 140.82 19.56 140.82 20.61ZM150.33 19.65C150.33 18.33 149.19 17.07 147.71 17.07C146.67 17.07 146.03 17.62 145.76 18.04L145.76 18.02C145.76 17.55 145.37 17.15 144.90 17.15C144.38 17.15 143.99 17.55 143.99 18.02L143.99 23.20C143.99 23.69 144.38 24.08 144.87 24.08C145.37 24.08 145.76 23.69 145.76 23.20L145.76 20.22C145.76 19.25 146.46 18.65 147.16 18.65C147.92 18.65 148.55 19.25 148.55 20.19L148.55 23.20C148.55 23.69 148.94 24.08 149.43 24.08C149.94 24.08 150.33 23.69 150.33 23.20ZM158.43 19.65C158.43 18.33 157.30 17.07 155.82 17.07C154.78 17.07 154.14 17.62 153.87 18.04L153.87 18.02C153.87 17.55 153.48 17.15 153.00 17.15C152.48 17.15 152.09 17.55 152.09 18.02L152.09 23.20C152.09 23.69 152.48 24.08 152.97 24.08C153.48 24.08 153.87 23.69 153.87 23.20L153.87 20.22C153.87 19.25 154.57 18.65 155.27 18.65C156.03 18.65 156.66 19.25 156.66 20.19L156.66 23.20C156.66 23.69 157.05 24.08 157.54 24.08C158.04 24.08 158.43 23.69 158.43 23.20ZM166.62 20.40C166.62 20.07 166.53 19.66 166.43 19.35C165.95 17.95 164.79 17.07 163.26 17.07C161.21 17.07 159.76 18.65 159.76 20.61C159.76 22.78 161.32 24.17 163.38 24.17C164.41 24.17 165.91 23.78 165.99 22.98C166.04 22.56 165.62 22.26 165.24 22.26C165.13 22.26 165.00 22.29 164.89 22.35C164.47 22.57 163.95 22.75 163.57 22.75C162.42 22.75 161.74 22.07 161.63 21.21L165.80 21.21C166.26 21.21 166.62 20.84 166.62 20.40ZM161.60 20.01C161.68 19.34 162.16 18.48 163.26 18.48C164.44 18.48 164.89 19.37 164.93 20.01ZM173.51 22.92C173.51 22.46 173.09 22.15 172.66 22.15C172.49 22.15 172.34 22.19 172.18 22.29C171.87 22.49 171.54 22.59 171.17 22.59C170.10 22.59 169.34 21.79 169.34 20.61C169.34 19.44 170.10 18.65 171.17 18.65C171.52 18.65 171.87 18.75 172.17 18.93C172.32 19.03 172.49 19.07 172.66 19.07C173.05 19.07 173.50 18.79 173.50 18.32C173.50 18.20 173.47 18.09 173.41 17.99C173.12 17.45 172.14 17.07 171.09 17.07C169.00 17.07 167.51 18.54 167.51 20.61C167.51 22.70 169.00 24.17 171.09 24.17C172.04 24.17 172.74 23.89 173.23 23.50C173.41 23.36 173.51 23.13 173.51 22.92ZM178.62 23.36C178.62 22.92 178.34 22.59 177.84 22.59L177.68 22.59C177.40 22.59 177.07 22.38 177.07 21.84L177.07 18.79L177.77 18.79C178.17 18.79 178.52 18.44 178.52 18.02C178.52 17.59 178.17 17.24 177.77 17.24L177.07 17.24L177.07 16.19C177.07 15.70 176.68 15.31 176.19 15.31C175.67 15.31 175.28 15.70 175.28 16.19L175.28 17.24L174.84 17.24C174.42 17.24 174.07 17.59 174.07 17.99C174.07 18.44 174.42 18.79 174.84 18.79L175.28 18.79L175.28 22.32C175.28 23.52 175.95 24.17 177.19 24.17C178.36 24.17 178.62 23.80 178.62 23.36ZM186.38 20.61C186.38 18.69 185.03 17.07 182.79 17.07C180.57 17.07 179.22 18.69 179.22 20.61C179.22 22.54 180.57 24.17 182.79 24.17C185.03 24.17 186.38 22.54 186.38 20.61ZM184.53 20.61C184.53 21.68 183.90 22.59 182.79 22.59C181.69 22.59 181.07 21.68 181.07 20.61C181.07 19.56 181.69 18.65 182.79 18.65C183.90 18.65 184.53 19.56 184.53 20.61ZM191.71 17.91C191.71 17.50 191.45 17.18 190.93 17.18C190.26 17.18 189.81 17.71 189.47 18.16L189.47 18.02C189.47 17.55 189.08 17.15 188.60 17.15C188.09 17.15 187.69 17.55 187.69 18.02L187.69 23.20C187.69 23.69 188.09 24.08 188.58 24.08L188.60 24.08C189.08 24.08 189.47 23.69 189.47 23.20L189.47 20.37C189.47 19.25 190.31 18.89 190.86 18.82C191.35 18.75 191.71 18.44 191.71 17.91Z" fill="#22272e" /><path d="M374.99 21.40C374.99 20.95 374.62 20.58 374.19 20.58L373.79 20.58L373.79 16.29C373.79 15.48 373.01 15.12 372.22 15.25C371.66 15.25 371.10 15.55 370.80 16.02L367.90 20.59C367.78 20.78 367.73 20.98 367.73 21.19C367.73 21.78 368.16 22.21 368.68 22.21L371.94 22.21L371.94 23.17C371.94 23.66 372.36 24.08 372.85 24.08C373.37 24.08 373.79 23.66 373.79 23.17L373.79 22.21L374.19 22.21C374.62 22.21 374.99 21.84 374.99 21.40ZM369.60 20.58L371.94 16.97L371.94 20.58ZM378.03 23.36C378.03 22.52 377.47 22.04 376.86 22.04C376.31 22.04 375.84 22.50 375.84 23.08C375.84 23.64 376.23 24.01 376.73 24.01C376.82 24.01 376.94 23.99 376.98 23.97C376.90 24.31 376.61 24.71 376.27 24.99C376.18 25.07 376.14 25.17 376.14 25.27C376.14 25.53 376.42 25.69 376.64 25.69C376.77 25.69 376.88 25.65 376.98 25.56C377.63 24.98 378.03 24.20 378.03 23.36ZM386.07 21.40C386.07 20.95 385.71 20.58 385.28 20.58L384.88 20.58L384.88 16.29C384.88 15.48 384.10 15.12 383.31 15.25C382.75 15.25 382.19 15.55 381.89 16.02L378.99 20.59C378.87 20.78 378.82 20.98 378.82 21.19C378.82 21.78 379.25 22.21 379.77 22.21L383.03 22.21L383.03 23.17C383.03 23.66 383.45 24.08 383.94 24.08C384.46 24.08 384.88 23.66 384.88 23.17L384.88 22.21L385.28 22.21C385.71 22.21 386.07 21.84 386.07 21.40ZM380.69 20.58L383.03 16.97L383.03 20.58ZM393.54 23.17C393.54 22.74 393.17 22.38 392.74 22.38L389.92 22.38C392.17 20.74 393.39 19.45 393.39 17.97C393.39 16.24 391.93 15.20 390.08 15.20C388.99 15.20 387.53 15.67 387.12 16.33C387.04 16.45 387.00 16.58 387.00 16.71C387.00 17.18 387.38 17.54 387.80 17.54C388.00 17.54 388.17 17.49 388.34 17.37C388.83 17.03 389.43 16.84 390.12 16.84C390.83 16.84 391.52 17.21 391.52 17.97C391.52 18.98 390.48 19.93 387.25 22.32C387.00 22.50 386.86 22.80 386.86 23.10C386.86 23.62 387.27 24 387.73 24L392.74 24C393.17 24 393.54 23.64 393.54 23.17ZM401.55 21.62C401.55 20.44 400.84 19.76 400.32 19.53C400.76 19.32 401.40 18.83 401.40 17.49C401.40 15.99 399.79 15.20 398.06 15.20C396.32 15.20 394.72 15.99 394.72 17.49C394.72 18.83 395.34 19.32 395.79 19.53C395.27 19.76 394.58 20.44 394.58 21.62C394.58 23.25 396.24 24.16 398.06 24.16C399.88 24.16 401.55 23.23 401.55 21.62ZM399.52 17.77C399.52 18.42 398.85 18.80 398.06 18.80C397.27 18.80 396.59 18.42 396.59 17.77C396.59 17.15 397.20 16.79 398.06 16.79C398.91 16.79 399.52 17.15 399.52 17.77ZM399.67 21.52C399.67 22.15 398.94 22.57 398.06 22.57C397.15 22.57 396.45 22.15 396.45 21.52C396.45 20.79 397.25 20.36 398.06 20.36C398.85 20.36 399.67 20.79 399.67 21.52Z" fill="#627386" /><path transform="translate(350.47, 12)" d="M6 1 L6 7.5 M3 5 L6 8 L9 5 M2 10.5 L10 10.5" fill="none" stroke="#627386" stroke-width="1.4" stroke-linecap="round" stroke-linejoin="round" /><path d="M24.58 37.73C24.58 34.74 19.87 35.73 19.87 34.07C19.87 33.39 20.48 32.92 21.38 32.92C22.08 32.92 22.78 33.12 23.36 33.56C23.46 33.63 23.58 33.66 23.69 33.66C23.99 33.66 24.25 33.41 24.25 33.11C24.25 32.98 24.20 32.84 24.10 32.74C23.50 32.19 22.48 31.88 21.48 31.88C19.82 31.88 18.65 32.84 18.65 34.16C18.65 37.05 23.35 35.96 23.35 37.85C23.35 38.42 22.90 39.10 21.60 39.10C20.72 39.10 19.98 38.75 19.43 38.28C19.33 38.21 19.20 38.18 19.09 38.18C18.77 38.18 18.54 38.46 18.54 38.76C18.54 38.90 18.59 39.03 18.68 39.14C19.31 39.75 20.38 40.14 21.55 40.14C23.71 40.14 24.58 38.98 24.58 37.73ZM33.70 36.00C33.70 33.63 32.04 31.86 29.66 31.86C27.28 31.86 25.63 33.63 25.63 36.00C25.63 38.38 27.28 40.14 29.66 40.14C30.46 40.14 31.16 39.95 31.75 39.60L32.20 40.07C32.29 40.19 32.44 40.25 32.59 40.25C32.90 40.25 33.13 39.99 33.13 39.70C33.13 39.58 33.10 39.46 33.01 39.36L32.60 38.92C33.29 38.20 33.70 37.18 33.70 36.00ZM32.47 36.00C32.47 36.81 32.23 37.52 31.82 38.06L31.04 37.20C30.94 37.08 30.79 37.02 30.65 37.02C30.34 37.02 30.11 37.31 30.11 37.58C30.11 37.70 30.14 37.82 30.24 37.91L31.01 38.75C30.61 38.97 30.17 39.09 29.66 39.09C27.95 39.09 26.87 37.77 26.87 36.00C26.87 34.23 27.95 32.92 29.66 32.92C31.37 32.92 32.47 34.23 32.47 36.00ZM40.04 39.46C40.04 39.18 39.82 38.94 39.53 38.94L36.35 38.94L36.35 32.50C36.35 32.19 36.08 31.92 35.77 31.92C35.42 31.92 35.16 32.19 35.16 32.50L35.16 39.22C35.16 39.65 35.51 40 35.94 40L39.53 40C39.82 40 40.04 39.77 40.04 39.46ZM48.98 39.12C48.98 38.85 48.73 38.66 48.48 38.66C48.36 38.66 48.24 38.69 48.14 38.76C47.82 39.05 47.45 39.20 47.02 39.20C45.86 39.20 45.12 38.31 45.12 37.10C45.12 35.88 45.86 35.01 47.02 35.01C47.44 35.01 47.82 35.14 48.14 35.43C48.24 35.51 48.36 35.56 48.48 35.56C48.74 35.56 48.97 35.34 48.97 35.08C48.97 34.98 48.95 34.90 48.89 34.83C48.49 34.37 47.84 34.06 46.96 34.06C45.22 34.06 44.02 35.37 44.02 37.10C44.02 38.84 45.22 40.14 46.96 40.14C47.82 40.14 48.41 39.86 48.84 39.44C48.94 39.35 48.98 39.23 48.98 39.12ZM55.81 37.10C55.81 35.43 54.70 34.06 52.88 34.06C51.08 34.06 49.97 35.43 49.97 37.10C49.97 38.76 51.08 40.14 52.88 40.14C54.70 40.14 55.81 38.76 55.81 37.10ZM54.70 37.10C54.70 38.21 54.05 39.20 52.88 39.20C51.73 39.20 51.07 38.21 51.07 37.10C51.07 35.99 51.73 35.01 52.88 35.01C54.05 35.01 54.70 35.99 54.70 37.10ZM62.17 36.28C62.17 35.06 61.28 34.06 60.06 34.06C59.05 34.06 58.54 34.55 58.26 35.02L58.26 34.65C58.26 34.37 58.02 34.13 57.74 34.13C57.43 34.13 57.19 34.37 57.19 34.65L57.19 39.54C57.19 39.83 57.43 40.07 57.72 40.07C58.02 40.07 58.26 39.83 58.26 39.54L58.26 36.76C58.26 35.78 58.79 35.01 59.71 35.01C60.58 35.01 61.10 35.68 61.10 36.64L61.10 39.54C61.10 39.83 61.34 40.07 61.63 40.07C61.93 40.07 62.17 39.83 62.17 39.54ZM68.88 36.28C68.88 35.06 67.99 34.06 66.77 34.06C65.76 34.06 65.24 34.55 64.97 35.02L64.97 34.65C64.97 34.37 64.73 34.13 64.45 34.13C64.14 34.13 63.90 34.37 63.90 34.65L63.90 39.54C63.90 39.83 64.14 40.07 64.43 40.07C64.73 40.07 64.97 39.83 64.97 39.54L64.97 36.76C64.97 35.78 65.50 35.01 66.42 35.01C67.28 35.01 67.81 35.68 67.81 36.64L67.81 39.54C67.81 39.83 68.05 40.07 68.34 40.07C68.64 40.07 68.88 39.83 68.88 39.54ZM75.96 36.90C75.96 36.68 75.90 36.42 75.85 36.23C75.52 34.94 74.56 34.06 73.15 34.06C71.47 34.06 70.26 35.42 70.26 37.10C70.26 38.92 71.52 40.14 73.25 40.14C74.10 40.14 75.59 39.70 75.59 39.05C75.59 38.64 75.18 38.55 74.92 38.68C74.50 38.99 73.85 39.28 73.36 39.28C72.18 39.28 71.46 38.48 71.38 37.48L75.41 37.48C75.71 37.48 75.96 37.19 75.96 36.90ZM71.38 36.69C71.42 35.88 71.99 34.92 73.14 34.92C74.38 34.92 74.90 35.91 74.93 36.69ZM81.95 39.12C81.95 38.85 81.70 38.66 81.44 38.66C81.32 38.66 81.20 38.69 81.11 38.76C80.78 39.05 80.41 39.20 79.98 39.20C78.83 39.20 78.08 38.31 78.08 37.10C78.08 35.88 78.83 35.01 79.98 35.01C80.40 35.01 80.78 35.14 81.11 35.43C81.20 35.51 81.32 35.56 81.44 35.56C81.71 35.56 81.94 35.34 81.94 35.08C81.94 34.98 81.91 34.90 81.85 34.83C81.46 34.37 80.81 34.06 79.92 34.06C78.18 34.06 76.98 35.37 76.98 37.10C76.98 38.84 78.18 40.14 79.92 40.14C80.78 40.14 81.37 39.86 81.80 39.44C81.90 39.35 81.95 39.23 81.95 39.12ZM85.98 39.58C85.98 39.33 85.79 39.14 85.52 39.14C85.40 39.14 85.26 39.20 85.13 39.20C84.78 39.20 84.56 38.92 84.56 38.48L84.56 35.14L85.36 35.14C85.61 35.14 85.81 34.94 85.81 34.68C85.81 34.41 85.61 34.20 85.36 34.20L84.56 34.20L84.56 33.06C84.56 32.79 84.32 32.55 84.04 32.55C83.72 32.55 83.48 32.79 83.48 33.06L83.48 34.20L82.92 34.20C82.66 34.20 82.45 34.41 82.45 34.66C82.45 34.94 82.66 35.14 82.92 35.14L83.48 35.14L83.48 38.73C83.48 39.64 83.96 40.14 84.88 40.14C85.51 40.14 85.98 39.96 85.98 39.58ZM92.45 37.10C92.45 35.43 91.33 34.06 89.52 34.06C87.72 34.06 86.60 35.43 86.60 37.10C86.60 38.76 87.72 40.14 89.52 40.14C91.33 40.14 92.45 38.76 92.45 37.10ZM91.33 37.10C91.33 38.21 90.68 39.20 89.52 39.20C88.37 39.20 87.71 38.21 87.71 37.10C87.71 35.99 88.37 35.01 89.52 35.01C90.68 35.01 91.33 35.99 91.33 37.10ZM96.88 34.60C96.88 34.32 96.67 34.12 96.40 34.12C95.75 34.12 95.22 34.66 94.90 35.10L94.90 34.65C94.90 34.37 94.66 34.13 94.38 34.13C94.07 34.13 93.83 34.37 93.83 34.65L93.83 39.54C93.83 39.83 94.06 40.06 94.34 40.07L94.36 40.07C94.66 40.07 94.90 39.83 94.90 39.54L94.90 36.57C94.90 35.81 95.42 35.21 96.34 35.16C96.64 35.15 96.88 34.91 96.88 34.60ZM104.21 32.46C104.21 32.06 103.51 31.88 103.00 31.88C101.93 31.88 101.24 32.60 101.24 33.80L101.24 34.20L100.67 34.20C100.42 34.20 100.21 34.41 100.21 34.66C100.21 34.94 100.42 35.14 100.67 35.14L101.24 35.14L101.24 39.54C101.24 39.83 101.48 40.07 101.77 40.07C102.07 40.07 102.31 39.83 102.31 39.54L102.31 35.14L103.10 35.14C103.36 35.14 103.56 34.94 103.56 34.68C103.56 34.41 103.36 34.20 103.10 34.20L102.31 34.20L102.31 33.80C102.31 33.11 102.62 32.74 103.18 32.74C103.43 32.74 103.61 32.88 103.80 32.88C104.00 32.88 104.21 32.73 104.21 32.46ZM110.00 37.10C110.00 35.43 108.89 34.06 107.08 34.06C105.28 34.06 104.16 35.43 104.16 37.10C104.16 38.76 105.28 40.14 107.08 40.14C108.89 40.14 110.00 38.76 110.00 37.10ZM108.89 37.10C108.89 38.21 108.24 39.20 107.08 39.20C105.92 39.20 105.26 38.21 105.26 37.10C105.26 35.99 105.92 35.01 107.08 35.01C108.24 35.01 108.89 35.99 108.89 37.10ZM114.43 34.60C114.43 34.32 114.23 34.12 113.95 34.12C113.30 34.12 112.78 34.66 112.45 35.10L112.45 34.65C112.45 34.37 112.21 34.13 111.94 34.13C111.62 34.13 111.38 34.37 111.38 34.65L111.38 39.54C111.38 39.83 111.61 40.06 111.90 40.07L111.91 40.07C112.21 40.07 112.45 39.83 112.45 39.54L112.45 36.57C112.45 35.81 112.98 35.21 113.89 35.16C114.19 35.15 114.43 34.91 114.43 34.60ZM123.50 36.28C123.50 35.06 122.62 34.06 121.39 34.06C120.38 34.06 119.87 34.55 119.59 35.02L119.59 34.65C119.59 34.37 119.35 34.13 119.08 34.13C118.76 34.13 118.52 34.37 118.52 34.65L118.52 39.54C118.52 39.83 118.76 40.07 119.05 40.07C119.35 40.07 119.59 39.83 119.59 39.54L119.59 36.76C119.59 35.78 120.12 35.01 121.04 35.01C121.91 35.01 122.44 35.68 122.44 36.64L122.44 39.54C122.44 39.83 122.68 40.07 122.96 40.07C123.26 40.07 123.50 39.83 123.50 39.54ZM130.58 36.90C130.58 36.68 130.52 36.42 130.48 36.23C130.14 34.94 129.18 34.06 127.78 34.06C126.10 34.06 124.88 35.42 124.88 37.10C124.88 38.92 126.14 40.14 127.87 40.14C128.72 40.14 130.21 39.70 130.21 39.05C130.21 38.64 129.80 38.55 129.54 38.68C129.12 38.99 128.47 39.28 127.98 39.28C126.80 39.28 126.08 38.48 126.00 37.48L130.03 37.48C130.33 37.48 130.58 37.19 130.58 36.90ZM126.00 36.69C126.05 35.88 126.61 34.92 127.76 34.92C129 34.92 129.53 35.91 129.55 36.69ZM136.45 39.42C136.43 39.36 136.40 39.30 136.37 39.24L134.72 37.07L136.31 34.98C136.34 34.92 136.38 34.86 136.39 34.80C136.46 34.54 136.31 34.24 135.98 34.16C135.79 34.10 135.56 34.18 135.43 34.35L134.03 36.27L132.62 34.35C132.49 34.18 132.26 34.10 132.06 34.16C131.75 34.24 131.59 34.54 131.66 34.80C131.68 34.86 131.71 34.92 131.75 34.98L133.33 37.08L131.70 39.24C131.66 39.30 131.63 39.36 131.62 39.42C131.54 39.69 131.71 40.01 132.02 40.07C132.22 40.11 132.44 40.05 132.58 39.87L134.03 37.89L135.48 39.87C135.61 40.05 135.85 40.11 136.04 40.07C136.36 40.01 136.51 39.69 136.45 39.42ZM140.54 39.58C140.54 39.33 140.35 39.14 140.09 39.14C139.97 39.14 139.82 39.20 139.69 39.20C139.34 39.20 139.13 38.92 139.13 38.48L139.13 35.14L139.92 35.14C140.17 35.14 140.38 34.94 140.38 34.68C140.38 34.41 140.17 34.20 139.92 34.20L139.13 34.20L139.13 33.06C139.13 32.79 138.89 32.55 138.60 32.55C138.29 32.55 138.05 32.79 138.05 33.06L138.05 34.20L137.48 34.20C137.22 34.20 137.02 34.41 137.02 34.66C137.02 34.94 137.22 35.14 137.48 35.14L138.05 35.14L138.05 38.73C138.05 39.64 138.53 40.14 139.44 40.14C140.08 40.14 140.54 39.96 140.54 39.58ZM143.96 37.08C143.96 36.83 143.76 36.63 143.51 36.63L141.40 36.63C141.14 36.63 140.94 36.83 140.94 37.08C140.94 37.36 141.14 37.56 141.40 37.56L143.51 37.56C143.76 37.56 143.96 37.36 143.96 37.08ZM153.23 36.29C153.23 35.12 152.42 34.06 151.22 34.06C150.38 34.06 149.81 34.52 149.47 35.16C149.29 34.67 148.66 34.06 147.70 34.06C146.86 34.06 146.42 34.54 146.18 34.90L146.18 34.65C146.18 34.37 145.94 34.13 145.67 34.13C145.36 34.13 145.12 34.37 145.12 34.65L145.12 39.54C145.12 39.83 145.36 40.07 145.64 40.07C145.94 40.07 146.18 39.83 146.18 39.54L146.18 36.70C146.18 35.79 146.62 35.01 147.46 35.01C148.30 35.01 148.63 35.69 148.63 36.62L148.63 39.54C148.63 39.83 148.87 40.07 149.16 40.07C149.46 40.07 149.70 39.83 149.70 39.54L149.70 36.69C149.70 35.79 150.11 35.01 150.95 35.01C151.79 35.01 152.16 35.69 152.16 36.62L152.16 39.54C152.16 39.83 152.40 40.07 152.69 40.07C152.99 40.07 153.23 39.83 153.23 39.54ZM160.45 37.10C160.45 35.43 159.34 34.06 157.52 34.06C155.72 34.06 154.61 35.43 154.61 37.10C154.61 38.76 155.72 40.14 157.52 40.14C159.34 40.14 160.45 38.76 160.45 37.10ZM159.34 37.10C159.34 38.21 158.69 39.20 157.52 39.20C156.37 39.20 155.71 38.21 155.71 37.10C155.71 35.99 156.37 35.01 157.52 35.01C158.69 35.01 159.34 35.99 159.34 37.10ZM167.04 32.44C167.04 32.16 166.80 31.92 166.52 31.92C166.21 31.92 165.97 32.16 165.97 32.44L165.97 35.04C165.50 34.42 164.94 34.06 164.06 34.06C162.55 34.06 161.48 35.25 161.48 37.11C161.48 39.00 162.56 40.14 164.06 40.14C164.96 40.14 165.53 39.75 165.97 39.17L165.97 39.54C165.97 39.83 166.21 40.07 166.50 40.07C166.80 40.07 167.04 39.83 167.04 39.54ZM165.97 37.14C165.97 38.34 165.37 39.20 164.34 39.20C163.26 39.20 162.59 38.32 162.59 37.11C162.59 35.90 163.26 35.01 164.34 35.01C165.37 35.01 165.97 35.88 165.97 37.07ZM174.12 36.90C174.12 36.68 174.06 36.42 174.01 36.23C173.68 34.94 172.72 34.06 171.31 34.06C169.63 34.06 168.42 35.42 168.42 37.10C168.42 38.92 169.68 40.14 171.41 40.14C172.26 40.14 173.75 39.70 173.75 39.05C173.75 38.64 173.34 38.55 173.08 38.68C172.66 38.99 172.01 39.28 171.52 39.28C170.34 39.28 169.62 38.48 169.54 37.48L173.57 37.48C173.87 37.48 174.12 37.19 174.12 36.90ZM169.54 36.69C169.58 35.88 170.15 34.92 171.30 34.92C172.54 34.92 173.06 35.91 173.09 36.69ZM176.56 32.44C176.56 32.16 176.32 31.92 176.04 31.92C175.73 31.92 175.49 32.16 175.49 32.44L175.49 39.54C175.49 39.83 175.73 40.07 176.02 40.07C176.32 40.07 176.56 39.83 176.56 39.54ZM186.92 37.10C186.92 35.20 185.86 34.06 184.34 34.06C183.55 34.06 182.86 34.46 182.44 35.03L182.44 34.65C182.44 34.37 182.20 34.13 181.92 34.13C181.61 34.13 181.37 34.37 181.37 34.65L181.37 41.76C181.37 42.04 181.61 42.28 181.90 42.28C182.20 42.28 182.44 42.04 182.44 41.76L182.44 39.16C182.90 39.80 183.58 40.14 184.34 40.14C185.86 40.14 186.92 38.98 186.92 37.10ZM185.80 37.10C185.80 38.31 185.26 39.20 184.16 39.20C183.16 39.20 182.44 38.32 182.44 37.13L182.44 37.06C182.44 35.87 183.16 35.01 184.16 35.01C185.26 35.01 185.80 35.88 185.80 37.10ZM192.92 36.08C192.92 34.60 191.84 34.06 190.60 34.06C189.82 34.06 188.94 34.31 188.39 34.86C188.32 34.95 188.28 35.04 188.28 35.14C188.28 35.39 188.51 35.56 188.72 35.56C188.81 35.56 188.90 35.52 188.99 35.46C189.42 35.13 189.90 34.96 190.44 34.96C191.26 34.96 191.86 35.39 191.86 36.12L191.86 36.45L190.19 36.45C188.99 36.45 187.93 36.92 187.93 38.22C187.93 39.50 188.99 40.14 189.95 40.14C190.85 40.14 191.39 39.87 191.86 39.35L191.86 39.54C191.86 39.89 192.13 40.07 192.35 40.07L192.38 40.07C192.68 40.07 192.92 39.83 192.92 39.54ZM191.86 37.19L191.86 38.01C191.86 38.69 191.08 39.39 190.24 39.39C189.46 39.39 189.01 38.92 189.01 38.25C189.01 37.55 189.56 37.19 190.48 37.19ZM199.26 39.12C199.26 38.85 199.01 38.66 198.76 38.66C198.64 38.66 198.52 38.69 198.42 38.76C198.10 39.05 197.72 39.20 197.29 39.20C196.14 39.20 195.40 38.31 195.40 37.10C195.40 35.88 196.14 35.01 197.29 35.01C197.71 35.01 198.10 35.14 198.42 35.43C198.52 35.51 198.64 35.56 198.76 35.56C199.02 35.56 199.25 35.34 199.25 35.08C199.25 34.98 199.22 34.90 199.16 34.83C198.77 34.37 198.12 34.06 197.23 34.06C195.49 34.06 194.29 35.37 194.29 37.10C194.29 38.84 195.49 40.14 197.23 40.14C198.10 40.14 198.68 39.86 199.12 39.44C199.21 39.35 199.26 39.23 199.26 39.12ZM205.33 39.54C205.33 39.44 205.30 39.32 205.22 39.23L203.32 36.83L205.12 34.95C205.20 34.85 205.25 34.74 205.25 34.62C205.25 34.36 205.01 34.12 204.74 34.12C204.62 34.12 204.49 34.18 204.40 34.28L201.66 37.16L201.66 32.44C201.66 32.16 201.42 31.92 201.14 31.92C200.83 31.92 200.59 32.16 200.59 32.44L200.59 39.54C200.59 39.83 200.83 40.07 201.12 40.07C201.42 40.07 201.66 39.83 201.66 39.54L201.66 38.39L202.55 37.49L204.38 39.87C204.48 40.01 204.65 40.08 204.80 40.08C205.13 40.08 205.33 39.80 205.33 39.54ZM211.49 36.08C211.49 34.60 210.41 34.06 209.16 34.06C208.38 34.06 207.50 34.31 206.95 34.86C206.88 34.95 206.84 35.04 206.84 35.14C206.84 35.39 207.07 35.56 207.29 35.56C207.37 35.56 207.47 35.52 207.55 35.46C207.98 35.13 208.46 34.96 209.00 34.96C209.82 34.96 210.42 35.39 210.42 36.12L210.42 36.45L208.75 36.45C207.55 36.45 206.50 36.92 206.50 38.22C206.50 39.50 207.55 40.14 208.51 40.14C209.41 40.14 209.95 39.87 210.42 39.35L210.42 39.54C210.42 39.89 210.70 40.07 210.91 40.07L210.95 40.07C211.25 40.07 211.49 39.83 211.49 39.54ZM210.42 37.19L210.42 38.01C210.42 38.69 209.64 39.39 208.80 39.39C208.02 39.39 207.58 38.92 207.58 38.25C207.58 37.55 208.13 37.19 209.04 37.19ZM218.40 34.65C218.40 34.37 218.16 34.13 217.88 34.13C217.57 34.13 217.33 34.37 217.33 34.65L217.33 35.04C216.86 34.42 216.19 34.06 215.42 34.06C213.92 34.06 212.86 35.19 212.86 37.06C212.86 38.94 213.94 40.05 215.42 40.05C216.22 40.05 216.90 39.63 217.33 39.04L217.33 39.81C217.33 41.04 216.44 41.48 215.54 41.48C214.91 41.48 214.40 41.34 213.96 40.97C213.88 40.91 213.79 40.89 213.68 40.89C213.44 40.89 213.23 41.09 213.23 41.34C213.23 41.46 213.28 41.57 213.35 41.64C213.91 42.18 214.73 42.35 215.54 42.35C216.96 42.35 218.40 41.76 218.40 39.77ZM217.33 37.07C217.33 38.26 216.55 39.10 215.59 39.10C214.51 39.10 213.96 38.25 213.96 37.06C213.96 35.85 214.51 35.01 215.59 35.01C216.55 35.01 217.33 35.84 217.33 37.02ZM225.48 36.90C225.48 36.68 225.42 36.42 225.37 36.23C225.04 34.94 224.08 34.06 222.67 34.06C220.99 34.06 219.78 35.42 219.78 37.10C219.78 38.92 221.04 40.14 222.77 40.14C223.62 40.14 225.11 39.70 225.11 39.05C225.11 38.64 224.70 38.55 224.44 38.68C224.02 38.99 223.37 39.28 222.88 39.28C221.70 39.28 220.98 38.48 220.90 37.48L224.93 37.48C225.23 37.48 225.48 37.19 225.48 36.90ZM220.90 36.69C220.94 35.88 221.51 34.92 222.66 34.92C223.90 34.92 224.42 35.91 224.45 36.69ZM234.92 34.65C234.92 34.37 234.68 34.13 234.41 34.13C234.10 34.13 233.86 34.37 233.86 34.65L233.86 37.41C233.86 38.39 233.23 39.20 232.37 39.20C231.50 39.20 231.01 38.54 231.01 37.58L231.01 34.65C231.01 34.37 230.77 34.13 230.50 34.13C230.18 34.13 229.94 34.37 229.94 34.65L229.94 37.95C229.94 39.17 230.81 40.14 232.03 40.14C233.04 40.14 233.54 39.70 233.86 39.21L233.86 39.54C233.86 39.83 234.10 40.07 234.38 40.07C234.68 40.07 234.92 39.83 234.92 39.54ZM240.89 38.25C240.78 36.21 237.46 36.77 237.34 35.73C237.29 35.26 237.79 34.91 238.52 34.91C239.08 34.91 239.59 35.09 239.96 35.36C240.04 35.42 240.12 35.44 240.22 35.44C240.43 35.44 240.64 35.26 240.64 35.02C240.64 34.92 240.60 34.83 240.53 34.76C240.07 34.31 239.34 34.06 238.51 34.06C237.10 34.06 236.24 34.73 236.30 35.76C236.41 37.71 239.72 37.11 239.84 38.39C239.89 38.92 239.41 39.29 238.58 39.29C237.98 39.29 237.38 39.05 236.95 38.74C236.87 38.68 236.78 38.66 236.68 38.66C236.42 38.66 236.21 38.85 236.21 39.10C236.21 39.22 236.26 39.32 236.34 39.39C236.87 39.92 237.74 40.14 238.54 40.14C240.07 40.14 240.95 39.35 240.89 38.25ZM242.78 32.06C242.41 32.06 242.10 32.37 242.10 32.75C242.10 33.12 242.41 33.44 242.78 33.44C243.17 33.44 243.47 33.12 243.47 32.75C243.47 32.37 243.17 32.06 242.78 32.06ZM243.32 34.65C243.32 34.37 243.08 34.13 242.81 34.13C242.50 34.13 242.26 34.37 242.26 34.65L242.26 39.54C242.26 39.83 242.50 40.07 242.78 40.07C243.08 40.07 243.32 39.83 243.32 39.54ZM250.03 36.28C250.03 35.06 249.14 34.06 247.92 34.06C246.91 34.06 246.40 34.55 246.12 35.02L246.12 34.65C246.12 34.37 245.88 34.13 245.60 34.13C245.29 34.13 245.05 34.37 245.05 34.65L245.05 39.54C245.05 39.83 245.29 40.07 245.58 40.07C245.88 40.07 246.12 39.83 246.12 39.54L246.12 36.76C246.12 35.78 246.65 35.01 247.57 35.01C248.44 35.01 248.96 35.68 248.96 36.64L248.96 39.54C248.96 39.83 249.20 40.07 249.49 40.07C249.79 40.07 250.03 39.83 250.03 39.54ZM256.96 34.65C256.96 34.37 256.72 34.13 256.44 34.13C256.13 34.13 255.89 34.37 255.89 34.65L255.89 35.04C255.42 34.42 254.75 34.06 253.98 34.06C252.48 34.06 251.41 35.19 251.41 37.06C251.41 38.94 252.49 40.05 253.98 40.05C254.77 40.05 255.46 39.63 255.89 39.04L255.89 39.81C255.89 41.04 255.00 41.48 254.10 41.48C253.46 41.48 252.96 41.34 252.52 40.97C252.43 40.91 252.35 40.89 252.24 40.89C252.00 40.89 251.78 41.09 251.78 41.34C251.78 41.46 251.83 41.57 251.90 41.64C252.47 42.18 253.28 42.35 254.10 42.35C255.52 42.35 256.96 41.76 256.96 39.77ZM255.89 37.07C255.89 38.26 255.11 39.10 254.15 39.10C253.07 39.10 252.52 38.25 252.52 37.06C252.52 35.85 253.07 35.01 254.15 35.01C255.11 35.01 255.89 35.84 255.89 37.02ZM267.52 39.51C267.52 39.39 267.47 39.27 267.38 39.17L264.52 35.79L267.10 32.82C267.18 32.74 267.23 32.61 267.23 32.49C267.23 32.18 266.95 31.94 266.64 31.94C266.48 31.94 266.33 32.00 266.22 32.13L262.99 35.98L262.99 32.50C262.99 32.19 262.73 31.92 262.42 31.92C262.07 31.92 261.80 32.19 261.80 32.50L261.80 39.48C261.80 39.81 262.07 40.07 262.39 40.07C262.73 40.07 262.99 39.81 262.99 39.48L262.99 37.37L263.75 36.51L266.50 39.87C266.62 40.01 266.77 40.08 266.94 40.08C267.28 40.08 267.52 39.78 267.52 39.51ZM274.07 36.28C274.07 35.06 273.18 34.06 271.96 34.06C270.95 34.06 270.43 34.55 270.16 35.02L270.16 34.65C270.16 34.37 269.92 34.13 269.64 34.13C269.33 34.13 269.09 34.37 269.09 34.65L269.09 39.54C269.09 39.83 269.33 40.07 269.62 40.07C269.92 40.07 270.16 39.83 270.16 39.54L270.16 36.76C270.16 35.78 270.68 35.01 271.61 35.01C272.47 35.01 273.00 35.68 273.00 36.64L273.00 39.54C273.00 39.83 273.24 40.07 273.53 40.07C273.83 40.07 274.07 39.83 274.07 39.54ZM281.15 36.90C281.15 36.68 281.09 36.42 281.04 36.23C280.70 34.94 279.74 34.06 278.34 34.06C276.66 34.06 275.45 35.42 275.45 37.10C275.45 38.92 276.71 40.14 278.44 40.14C279.29 40.14 280.78 39.70 280.78 39.05C280.78 38.64 280.37 38.55 280.10 38.68C279.68 38.99 279.04 39.28 278.54 39.28C277.37 39.28 276.65 38.48 276.56 37.48L280.60 37.48C280.90 37.48 281.15 37.19 281.15 36.90ZM276.56 36.69C276.61 35.88 277.18 34.92 278.33 34.92C279.56 34.92 280.09 35.91 280.12 36.69ZM287.02 39.42C286.99 39.36 286.97 39.30 286.93 39.24L285.29 37.07L286.87 34.98C286.91 34.92 286.94 34.86 286.96 34.80C287.03 34.54 286.87 34.24 286.55 34.16C286.36 34.10 286.13 34.18 286.00 34.35L284.59 36.27L283.19 34.35C283.06 34.18 282.83 34.10 282.62 34.16C282.31 34.24 282.16 34.54 282.23 34.80C282.24 34.86 282.28 34.92 282.31 34.98L283.90 37.08L282.26 39.24C282.23 39.30 282.19 39.36 282.18 39.42C282.11 39.69 282.28 40.01 282.59 40.07C282.78 40.11 283.01 40.05 283.14 39.87L284.59 37.89L286.04 39.87C286.18 40.05 286.42 40.11 286.61 40.07C286.92 40.01 287.08 39.69 287.02 39.42ZM289.70 39.38C289.70 38.98 289.37 38.63 288.96 38.63C288.56 38.63 288.23 38.98 288.23 39.38C288.23 39.78 288.56 40.12 288.96 40.12C289.37 40.12 289.70 39.78 289.70 39.38Z" fill="#627386" /><rect x="18" y="50" width="384" height="6" rx="3" fill="#f4faff" /><rect x="18" y="50" width="0.00" height="6" rx="3" fill="#00a5fe" /></svg>