<svg xmlns="http://www.w3.org/2000/svg" width="420" height="64" viewBox="0 0 420 64" role="img"><rect x="0.5" y="0.5" width="419" height="63" rx="10" fill="#ffffff" stroke="#f2f4f6" /><path d="M28.46 19.35C28.46 17.03 26.72 15.07 24.05 15.07C21.14 15.07 18.49 17.60 18.49 20.58C18.49 23.06 20.38 24.98 22.93 24.98C23.88 24.98 24.82 24.70 25.63 24.22C25.70 24.18 25.74 24.11 25.74 24.03C25.74 23.89 25.59 23.78 25.46 23.78C25.42 23.78 25.38 23.78 25.34 23.80C24.64 24.21 23.85 24.45 22.98 24.45C20.72 24.45 19.04 22.75 19.04 20.56C19.04 17.94 21.35 15.61 23.99 15.61C26.34 15.61 27.86 17.14 27.86 19.35C27.86 20.95 27.09 21.61 26.54 21.61C26.25 21.61 26.02 21.41 26.02 20.98C26.02 20.89 26.05 20.72 26.06 20.64L26.61 18.05C26.62 18.01 26.62 17.95 26.62 17.90C26.62 17.50 26.30 17.15 25.85 17.15C25.48 17.15 25.15 17.42 25.08 17.77L25.04 17.97C24.75 17.43 24.13 17.03 23.29 17.03C21.67 17.03 20.13 18.58 20.13 20.46C20.13 21.82 20.94 22.81 22.30 22.81C23.05 22.81 23.82 22.38 24.33 21.73C24.41 22.31 24.85 22.81 25.69 22.81C26.90 22.81 28.46 21.70 28.46 19.35ZM24.65 19.84C24.44 20.82 23.66 21.55 22.91 21.55C22.20 21.55 21.75 21.05 21.75 20.32C21.75 19.30 22.56 18.29 23.68 18.29C24.30 18.29 24.89 18.71 24.68 19.69ZM36.19 19.65C36.19 18.33 35.05 17.07 33.57 17.07C32.53 17.07 31.89 17.62 31.62 18.04L31.62 18.02C31.62 17.55 31.23 17.15 30.75 17.15C30.24 17.15 29.84 17.55 29.84 18.02L29.84 23.20C29.84 23.69 30.24 24.08 30.73 24.08C31.23 24.08 31.62 23.69 31.62 23.20L31.62 20.22C31.62 19.25 32.32 18.65 33.02 18.65C33.78 18.65 34.41 19.25 34.41 20.19L34.41 23.20C34.41 23.69 34.80 24.08 35.29 24.08C35.79 24.08 36.19 23.69 36.19 23.20ZM44.38 20.40C44.38 20.07 44.28 19.66 44.18 19.35C43.70 17.95 42.54 17.07 41.02 17.07C38.96 17.07 37.52 18.65 37.52 20.61C37.52 22.78 39.07 24.17 41.13 24.17C42.16 24.17 43.66 23.78 43.75 22.98C43.79 22.56 43.37 22.26 42.99 22.26C42.88 22.26 42.75 22.29 42.64 22.35C42.22 22.57 41.70 22.75 41.32 22.75C40.18 22.75 39.49 22.07 39.38 21.21L43.55 21.21C44.01 21.21 44.38 20.84 44.38 20.40ZM39.35 20.01C39.43 19.34 39.91 18.48 41.02 18.48C42.19 18.48 42.64 19.37 42.68 20.01ZM51.18 23.27C51.18 23.12 51.14 22.96 51.04 22.82L49.43 20.57L51.04 18.41C51.14 18.27 51.18 18.12 51.18 17.97C51.18 17.56 50.83 17.17 50.35 17.17C50.07 17.17 49.82 17.32 49.65 17.55L48.34 19.32L46.99 17.53C46.83 17.29 46.57 17.17 46.31 17.17C45.82 17.17 45.48 17.57 45.48 17.97C45.48 18.12 45.52 18.27 45.62 18.41L47.22 20.57L45.62 22.82C45.52 22.96 45.48 23.12 45.48 23.27C45.48 23.71 45.86 24.08 46.31 24.08C46.56 24.08 46.80 23.97 46.95 23.75L48.34 21.86L49.70 23.73C49.86 23.96 50.10 24.08 50.37 24.08C50.87 24.08 51.18 23.66 51.18 23.27ZM56.44 23.36C56.44 22.92 56.16 22.59 55.66 22.59L55.51 22.59C55.23 22.59 54.89 22.38 54.89 21.84L54.89 18.79L55.59 18.79C56.00 18.79 56.35 18.44 56.35 18.02C56.35 17.59 56.00 17.24 55.59 17.24L54.89 17.24L54.89 16.19C54.89 15.70 54.50 15.31 54.01 15.31C53.49 15.31 53.10 15.70 53.10 16.19L53.10 17.24L52.66 17.24C52.24 17.24 51.89 17.59 51.89 17.99C51.89 18.44 52.24 18.79 52.66 18.79L53.10 18.79L53.10 22.32C53.10 23.52 53.77 24.17 55.02 24.17C56.18 24.17 56.44 23.80 56.44 23.36ZM60.46 20.60C60.46 20.19 60.13 19.86 59.72 19.86L57.68 19.86C57.27 19.86 56.93 20.19 56.93 20.60C56.93 21.03 57.27 21.37 57.68 21.37L59.72 21.37C60.13 21.37 60.46 21.03 60.46 20.60ZM71.86 19.67C71.86 18.29 70.89 17.07 69.37 17.07C68.19 17.07 67.52 17.76 67.27 18.23C67.01 17.74 66.38 17.07 65.25 17.07C64.21 17.07 63.74 17.45 63.46 17.81L63.46 17.80C63.46 17.60 63.21 17.15 62.59 17.15C62.07 17.15 61.68 17.55 61.68 18.02L61.68 23.20C61.68 23.69 62.07 24.08 62.56 24.08C63.07 24.08 63.46 23.69 63.46 23.20L63.46 20.01C63.46 19.35 63.96 18.65 64.72 18.65C65.45 18.65 65.87 19.38 65.87 20.01L65.87 23.20C65.87 23.69 66.26 24.08 66.75 24.08C67.27 24.08 67.66 23.69 67.66 23.20L67.66 20.14C67.66 19.35 68.15 18.65 68.92 18.65C69.65 18.65 70.07 19.38 70.07 20.01L70.07 23.20C70.07 23.69 70.46 24.08 70.95 24.08C71.47 24.08 71.86 23.69 71.86 23.20ZM80.33 20.61C80.33 18.69 78.98 17.07 76.74 17.07C74.52 17.07 73.17 18.69 73.17 20.61C73.17 22.54 74.52 24.17 76.74 24.17C78.98 24.17 80.33 22.54 80.33 20.61ZM78.48 20.61C78.48 21.68 77.85 22.59 76.74 22.59C75.64 22.59 75.02 21.68 75.02 20.61C75.02 19.56 75.64 18.65 76.74 18.65C77.85 18.65 78.48 19.56 78.48 20.61ZM81.22 20.63C81.22 22.88 82.65 24.17 84.36 24.17C85.17 24.17 85.91 23.80 86.31 23.13L86.31 23.20C86.31 23.69 86.70 24.08 87.20 24.08C87.69 24.08 88.08 23.69 88.08 23.20L88.08 15.45C88.08 14.97 87.69 14.58 87.17 14.58C86.70 14.58 86.31 14.97 86.31 15.45L86.31 18.11C85.91 17.42 85.16 17.07 84.36 17.07C82.64 17.07 81.22 18.41 81.22 20.63ZM83.06 20.63C83.06 19.45 83.74 18.65 84.78 18.65C85.49 18.65 86.31 19.41 86.31 20.56L86.31 20.71C86.31 21.84 85.49 22.59 84.78 22.59C83.74 22.59 83.06 21.80 83.06 20.63ZM96.27 20.40C96.27 20.07 96.18 19.66 96.08 19.35C95.60 17.95 94.44 17.07 92.91 17.07C90.86 17.07 89.41 18.65 89.41 20.61C89.41 22.78 90.97 24.17 93.03 24.17C94.06 24.17 95.56 23.78 95.64 22.98C95.69 22.56 95.27 22.26 94.89 22.26C94.78 22.26 94.65 22.29 94.54 22.35C94.12 22.57 93.60 22.75 93.22 22.75C92.07 22.75 91.39 22.07 91.28 21.21L95.45 21.21C95.91 21.21 96.27 20.84 96.27 20.40ZM91.25 20.01C91.33 19.34 91.81 18.48 92.91 18.48C94.09 18.48 94.54 19.37 94.58 20.01ZM99.37 15.45C99.37 14.97 98.98 14.58 98.50 14.58C97.98 14.58 97.59 14.97 97.59 15.45L97.59 23.20C97.59 23.69 97.98 24.08 98.47 24.08C98.98 24.08 99.37 23.69 99.37 23.20Z" fill="#22272e" /><path d="M371.89 21.18C371.89 19.33 370.50 18.36 368.94 18.36C367.86 18.36 367.06 18.89 366.72 19.48C366.70 19.41 366.70 19.36 366.70 19.29C366.70 17.92 367.60 16.84 368.88 16.84C369.32 16.84 369.68 16.91 370.01 17.08C370.12 17.15 370.25 17.18 370.38 17.18C370.79 17.18 371.23 16.86 371.23 16.37C371.23 16.24 371.19 16.12 371.14 16.02C370.81 15.45 369.72 15.20 368.88 15.20C366.31 15.20 364.83 17.06 364.83 19.68C364.83 22.13 365.94 24.16 368.58 24.16C370.55 24.16 371.89 22.87 371.89 21.18ZM370.02 21.24C370.02 21.89 369.54 22.52 368.54 22.52C367.72 22.52 367.11 21.96 367.11 21.15C367.11 20.37 367.73 19.81 368.54 19.81C369.37 19.81 370.02 20.37 370.02 21.24ZM379.91 19.67C379.91 17.43 378.79 15.20 376.32 15.20C373.84 15.20 372.74 17.43 372.74 19.67C372.74 21.91 373.84 24.16 376.32 24.16C378.79 24.16 379.91 21.91 379.91 19.67ZM378.03 19.67C378.03 21.27 377.56 22.52 376.32 22.52C375.08 22.52 374.61 21.27 374.61 19.67C374.61 18.07 375.08 16.84 376.32 16.84C377.56 16.84 378.03 18.07 378.03 19.67ZM382.88 23.36C382.88 22.52 382.32 22.04 381.71 22.04C381.16 22.04 380.69 22.50 380.69 23.08C380.69 23.64 381.08 24.01 381.58 24.01C381.67 24.01 381.78 23.99 381.82 23.97C381.75 24.31 381.46 24.71 381.12 24.99C381.03 25.07 380.99 25.17 380.99 25.27C380.99 25.53 381.26 25.69 381.49 25.69C381.62 25.69 381.73 25.65 381.82 25.56C382.47 24.98 382.88 24.20 382.88 23.36ZM390.86 21.15C390.86 19.40 389.55 18.34 388.08 18.34C387.28 18.34 386.58 18.66 386.17 19.07L386.17 16.95L389.56 16.95C389.99 16.95 390.35 16.59 390.35 16.15C390.35 15.69 389.99 15.33 389.56 15.33L385.36 15.33C384.79 15.33 384.32 15.80 384.32 16.37L384.32 19.70C384.32 20.20 384.68 20.58 385.26 20.58C385.52 20.58 385.76 20.50 385.97 20.36C386.44 20.05 386.89 19.94 387.43 19.94C388.41 19.94 388.99 20.46 388.99 21.23C388.99 21.93 388.40 22.52 387.37 22.52C386.75 22.52 386.15 22.35 385.65 22.04C385.49 21.95 385.32 21.89 385.16 21.89C384.71 21.89 384.28 22.25 384.28 22.73C384.28 22.86 384.32 22.99 384.38 23.10C384.79 23.78 386.26 24.16 387.39 24.16C389.48 24.16 390.86 23.00 390.86 21.15ZM395.80 16.32C395.80 15.73 395.30 15.26 394.72 15.26C394.42 15.26 394.13 15.38 393.94 15.58L391.94 17.60C391.78 17.76 391.70 17.95 391.70 18.15C391.70 18.58 392.07 18.92 392.47 18.92C392.65 18.92 392.83 18.85 392.98 18.71L393.95 17.71L393.95 23.17C393.95 23.66 394.37 24.08 394.86 24.08C395.38 24.08 395.80 23.66 395.80 23.17ZM401.14 16.32C401.14 15.73 400.65 15.26 400.06 15.26C399.76 15.26 399.48 15.38 399.28 15.58L397.28 17.60C397.12 17.76 397.05 17.95 397.05 18.15C397.05 18.58 397.41 18.92 397.81 18.92C398.00 18.92 398.18 18.85 398.32 18.71L399.30 17.71L399.30 23.17C399.30 23.66 399.71 24.08 400.21 24.08C400.73 24.08 401.14 23.66 401.14 23.17Z" fill="#627386" /><path transform="translate(347.39, 12)" d="M6 1 L6 7.5 M3 5 L6 8 L9 5 M2 10.5 L10 10.5" fill="none" stroke="#627386" stroke-width="1.4" stroke-linecap="round" stroke-linejoin="round" /><path d="M24.34 39.46C24.34 39.18 24.11 38.94 23.82 38.94L20.52 38.94C22.70 37.25 24.22 35.85 24.22 34.29C24.22 32.69 22.86 31.88 21.43 31.88C20.45 31.88 19.42 32.24 18.83 32.88C18.74 32.98 18.71 33.10 18.71 33.21C18.71 33.51 18.97 33.74 19.25 33.74C19.37 33.74 19.49 33.70 19.58 33.60C20.06 33.18 20.69 32.93 21.44 32.93C22.22 32.93 23.02 33.35 23.02 34.29C23.02 35.51 21.61 36.78 18.76 38.96C18.61 39.08 18.53 39.24 18.53 39.42C18.53 39.76 18.79 40 19.08 40L23.82 40C24.11 40 24.34 39.77 24.34 39.46ZM31.43 39.46C31.43 39.18 31.20 38.94 30.91 38.94L27.61 38.94C29.80 37.25 31.31 35.85 31.31 34.29C31.31 32.69 29.95 31.88 28.52 31.88C27.54 31.88 26.51 32.24 25.92 32.88C25.84 32.98 25.80 33.10 25.80 33.21C25.80 33.51 26.06 33.74 26.34 33.74C26.46 33.74 26.58 33.70 26.68 33.60C27.16 33.18 27.78 32.93 28.54 32.93C29.32 32.93 30.11 33.35 30.11 34.29C30.11 35.51 28.70 36.78 25.85 38.96C25.70 39.08 25.62 39.24 25.62 39.42C25.62 39.76 25.88 40 26.17 40L30.91 40C31.20 40 31.43 39.77 31.43 39.46ZM41.69 37.10C41.69 35.20 40.62 34.06 39.11 34.06C38.32 34.06 37.62 34.46 37.20 35.03L37.20 34.65C37.20 34.37 36.96 34.13 36.68 34.13C36.37 34.13 36.13 34.37 36.13 34.65L36.13 41.76C36.13 42.04 36.37 42.28 36.66 42.28C36.96 42.28 37.20 42.04 37.20 41.76L37.20 39.16C37.67 39.80 38.34 40.14 39.11 40.14C40.62 40.14 41.69 38.98 41.69 37.10ZM40.56 37.10C40.56 38.31 40.02 39.20 38.93 39.20C37.92 39.20 37.20 38.32 37.20 37.13L37.20 37.06C37.20 35.87 37.92 35.01 38.93 35.01C40.02 35.01 40.56 35.88 40.56 37.10ZM47.69 36.08C47.69 34.60 46.61 34.06 45.36 34.06C44.58 34.06 43.70 34.31 43.15 34.86C43.08 34.95 43.04 35.04 43.04 35.14C43.04 35.39 43.27 35.56 43.49 35.56C43.57 35.56 43.67 35.52 43.75 35.46C44.18 35.13 44.66 34.96 45.20 34.96C46.02 34.96 46.62 35.39 46.62 36.12L46.62 36.45L44.95 36.45C43.75 36.45 42.70 36.92 42.70 38.22C42.70 39.50 43.75 40.14 44.71 40.14C45.61 40.14 46.15 39.87 46.62 39.35L46.62 39.54C46.62 39.89 46.90 40.07 47.11 40.07L47.15 40.07C47.45 40.07 47.69 39.83 47.69 39.54ZM46.62 37.19L46.62 38.01C46.62 38.69 45.84 39.39 45 39.39C44.22 39.39 43.78 38.92 43.78 38.25C43.78 37.55 44.33 37.19 45.24 37.19ZM54.02 39.12C54.02 38.85 53.77 38.66 53.52 38.66C53.40 38.66 53.28 38.69 53.18 38.76C52.86 39.05 52.49 39.20 52.06 39.20C50.90 39.20 50.16 38.31 50.16 37.10C50.16 35.88 50.90 35.01 52.06 35.01C52.48 35.01 52.86 35.14 53.18 35.43C53.28 35.51 53.40 35.56 53.52 35.56C53.78 35.56 54.01 35.34 54.01 35.08C54.01 34.98 53.99 34.90 53.93 34.83C53.53 34.37 52.88 34.06 52.00 34.06C50.26 34.06 49.06 35.37 49.06 37.10C49.06 38.84 50.26 40.14 52.00 40.14C52.86 40.14 53.45 39.86 53.88 39.44C53.98 39.35 54.02 39.23 54.02 39.12ZM60.10 39.54C60.10 39.44 60.06 39.32 59.99 39.23L58.08 36.83L59.88 34.95C59.96 34.85 60.01 34.74 60.01 34.62C60.01 34.36 59.77 34.12 59.51 34.12C59.39 34.12 59.26 34.18 59.16 34.28L56.42 37.16L56.42 32.44C56.42 32.16 56.18 31.92 55.91 31.92C55.60 31.92 55.36 32.16 55.36 32.44L55.36 39.54C55.36 39.83 55.60 40.07 55.88 40.07C56.18 40.07 56.42 39.83 56.42 39.54L56.42 38.39L57.31 37.49L59.15 39.87C59.24 40.01 59.41 40.08 59.57 40.08C59.89 40.08 60.10 39.80 60.10 39.54ZM66.25 36.08C66.25 34.60 65.17 34.06 63.92 34.06C63.14 34.06 62.27 34.31 61.72 34.86C61.64 34.95 61.61 35.04 61.61 35.14C61.61 35.39 61.84 35.56 62.05 35.56C62.14 35.56 62.23 35.52 62.32 35.46C62.75 35.13 63.23 34.96 63.77 34.96C64.58 34.96 65.18 35.39 65.18 36.12L65.18 36.45L63.52 36.45C62.32 36.45 61.26 36.92 61.26 38.22C61.26 39.50 62.32 40.14 63.28 40.14C64.18 40.14 64.72 39.87 65.18 39.35L65.18 39.54C65.18 39.89 65.46 40.07 65.68 40.07L65.71 40.07C66.01 40.07 66.25 39.83 66.25 39.54ZM65.18 37.19L65.18 38.01C65.18 38.69 64.40 39.39 63.56 39.39C62.78 39.39 62.34 38.92 62.34 38.25C62.34 37.55 62.89 37.19 63.80 37.19ZM73.16 34.65C73.16 34.37 72.92 34.13 72.65 34.13C72.34 34.13 72.10 34.37 72.10 34.65L72.10 35.04C71.63 34.42 70.96 34.06 70.19 34.06C68.69 34.06 67.62 35.19 67.62 37.06C67.62 38.94 68.70 40.05 70.19 40.05C70.98 40.05 71.66 39.63 72.10 39.04L72.10 39.81C72.10 41.04 71.21 41.48 70.31 41.48C69.67 41.48 69.17 41.34 68.72 40.97C68.64 40.91 68.56 40.89 68.45 40.89C68.21 40.89 67.99 41.09 67.99 41.34C67.99 41.46 68.04 41.57 68.11 41.64C68.68 42.18 69.49 42.35 70.31 42.35C71.72 42.35 73.16 41.76 73.16 39.77ZM72.10 37.07C72.10 38.26 71.32 39.10 70.36 39.10C69.28 39.10 68.72 38.25 68.72 37.06C68.72 35.85 69.28 35.01 70.36 35.01C71.32 35.01 72.10 35.84 72.10 37.02ZM80.24 36.90C80.24 36.68 80.18 36.42 80.14 36.23C79.80 34.94 78.84 34.06 77.44 34.06C75.76 34.06 74.54 35.42 74.54 37.10C74.54 38.92 75.80 40.14 77.53 40.14C78.38 40.14 79.87 39.70 79.87 39.05C79.87 38.64 79.46 38.55 79.20 38.68C78.78 38.99 78.13 39.28 77.64 39.28C76.46 39.28 75.74 38.48 75.66 37.48L79.69 37.48C79.99 37.48 80.24 37.19 80.24 36.90ZM75.66 36.69C75.71 35.88 76.27 34.92 77.42 34.92C78.66 34.92 79.19 35.91 79.21 36.69ZM85.86 38.25C85.75 36.21 82.43 36.77 82.31 35.73C82.26 35.26 82.76 34.91 83.50 34.91C84.05 34.91 84.56 35.09 84.94 35.36C85.01 35.42 85.09 35.44 85.19 35.44C85.40 35.44 85.61 35.26 85.61 35.02C85.61 34.92 85.57 34.83 85.50 34.76C85.04 34.31 84.31 34.06 83.48 34.06C82.07 34.06 81.22 34.73 81.28 35.76C81.38 37.71 84.70 37.11 84.82 38.39C84.86 38.92 84.38 39.29 83.56 39.29C82.96 39.29 82.36 39.05 81.92 38.74C81.84 38.68 81.76 38.66 81.65 38.66C81.40 38.66 81.18 38.85 81.18 39.10C81.18 39.22 81.23 39.32 81.31 39.39C81.84 39.92 82.72 40.14 83.51 40.14C85.04 40.14 85.92 39.35 85.86 38.25ZM90.84 32.06C90.47 32.06 90.16 32.37 90.16 32.75C90.16 33.12 90.47 33.44 90.84 33.44C91.22 33.44 91.52 33.12 91.52 32.75C91.52 32.37 91.22 32.06 90.84 32.06ZM91.38 34.65C91.38 34.37 91.14 34.13 90.86 34.13C90.55 34.13 90.31 34.37 90.31 34.65L90.31 39.54C90.31 39.83 90.55 40.07 90.84 40.07C91.14 40.07 91.38 39.83 91.38 39.54ZM98.09 36.28C98.09 35.06 97.20 34.06 95.98 34.06C94.97 34.06 94.45 34.55 94.18 35.02L94.18 34.65C94.18 34.37 93.94 34.13 93.66 34.13C93.35 34.13 93.11 34.37 93.11 34.65L93.11 39.54C93.11 39.83 93.35 40.07 93.64 40.07C93.94 40.07 94.18 39.83 94.18 39.54L94.18 36.76C94.18 35.78 94.70 35.01 95.63 35.01C96.49 35.01 97.02 35.68 97.02 36.64L97.02 39.54C97.02 39.83 97.26 40.07 97.55 40.07C97.85 40.07 98.09 39.83 98.09 39.54ZM105.60 39.58C105.60 39.33 105.41 39.14 105.14 39.14C105.02 39.14 104.88 39.20 104.75 39.20C104.40 39.20 104.18 38.92 104.18 38.48L104.18 35.14L104.98 35.14C105.23 35.14 105.43 34.94 105.43 34.68C105.43 34.41 105.23 34.20 104.98 34.20L104.18 34.20L104.18 33.06C104.18 32.79 103.94 32.55 103.66 32.55C103.34 32.55 103.10 32.79 103.10 33.06L103.10 34.20L102.54 34.20C102.28 34.20 102.07 34.41 102.07 34.66C102.07 34.94 102.28 35.14 102.54 35.14L103.10 35.14L103.10 38.73C103.10 39.64 103.58 40.14 104.50 40.14C105.13 40.14 105.60 39.96 105.60 39.58ZM111.56 36.26C111.56 35.03 110.69 34.06 109.46 34.06C108.44 34.06 107.92 34.55 107.64 35.02L107.64 32.44C107.64 32.16 107.40 31.92 107.12 31.92C106.81 31.92 106.57 32.16 106.57 32.44L106.57 39.54C106.57 39.83 106.81 40.07 107.10 40.07C107.40 40.07 107.64 39.83 107.64 39.54L107.64 36.82C107.64 35.74 108.22 35.01 109.13 35.01C109.99 35.01 110.50 35.66 110.50 36.62L110.50 39.54C110.50 39.83 110.74 40.07 111.02 40.07C111.32 40.07 111.56 39.83 111.56 39.54ZM113.82 32.06C113.45 32.06 113.14 32.37 113.14 32.75C113.14 33.12 113.45 33.44 113.82 33.44C114.20 33.44 114.50 33.12 114.50 32.75C114.50 32.37 114.20 32.06 113.82 32.06ZM114.36 34.65C114.36 34.37 114.12 34.13 113.84 34.13C113.53 34.13 113.29 34.37 113.29 34.65L113.29 39.54C113.29 39.83 113.53 40.07 113.82 40.07C114.12 40.07 114.36 39.83 114.36 39.54ZM120.34 38.25C120.23 36.21 116.90 36.77 116.78 35.73C116.74 35.26 117.24 34.91 117.97 34.91C118.52 34.91 119.04 35.09 119.41 35.36C119.48 35.42 119.57 35.44 119.66 35.44C119.88 35.44 120.08 35.26 120.08 35.02C120.08 34.92 120.05 34.83 119.98 34.76C119.52 34.31 118.79 34.06 117.96 34.06C116.54 34.06 115.69 34.73 115.75 35.76C115.86 37.71 119.17 37.11 119.29 38.39C119.34 38.92 118.86 39.29 118.03 39.29C117.43 39.29 116.83 39.05 116.40 38.74C116.32 38.68 116.23 38.66 116.12 38.66C115.87 38.66 115.66 38.85 115.66 39.10C115.66 39.22 115.70 39.32 115.79 39.39C116.32 39.92 117.19 40.14 117.98 40.14C119.52 40.14 120.40 39.35 120.34 38.25ZM129.04 38.25C128.93 36.21 125.60 36.77 125.48 35.73C125.44 35.26 125.94 34.91 126.67 34.91C127.22 34.91 127.74 35.09 128.11 35.36C128.18 35.42 128.27 35.44 128.36 35.44C128.58 35.44 128.78 35.26 128.78 35.02C128.78 34.92 128.75 34.83 128.68 34.76C128.22 34.31 127.49 34.06 126.66 34.06C125.24 34.06 124.39 34.73 124.45 35.76C124.56 37.71 127.87 37.11 127.99 38.39C128.04 38.92 127.56 39.29 126.73 39.29C126.13 39.29 125.53 39.05 125.10 38.74C125.02 38.68 124.93 38.66 124.82 38.66C124.57 38.66 124.36 38.85 124.36 39.10C124.36 39.22 124.40 39.32 124.49 39.39C125.02 39.92 125.89 40.14 126.68 40.14C128.22 40.14 129.10 39.35 129.04 38.25ZM135.02 39.12C135.02 38.85 134.77 38.66 134.52 38.66C134.40 38.66 134.28 38.69 134.18 38.76C133.86 39.05 133.49 39.20 133.06 39.20C131.90 39.20 131.16 38.31 131.16 37.10C131.16 35.88 131.90 35.01 133.06 35.01C133.48 35.01 133.86 35.14 134.18 35.43C134.28 35.51 134.40 35.56 134.52 35.56C134.78 35.56 135.01 35.34 135.01 35.08C135.01 34.98 134.99 34.90 134.93 34.83C134.53 34.37 133.88 34.06 133.00 34.06C131.26 34.06 130.06 35.37 130.06 37.10C130.06 38.84 131.26 40.14 133.00 40.14C133.86 40.14 134.45 39.86 134.88 39.44C134.98 39.35 135.02 39.23 135.02 39.12ZM141.85 37.10C141.85 35.43 140.74 34.06 138.92 34.06C137.12 34.06 136.01 35.43 136.01 37.10C136.01 38.76 137.12 40.14 138.92 40.14C140.74 40.14 141.85 38.76 141.85 37.10ZM140.74 37.10C140.74 38.21 140.09 39.20 138.92 39.20C137.77 39.20 137.11 38.21 137.11 37.10C137.11 35.99 137.77 35.01 138.92 35.01C140.09 35.01 140.74 35.99 140.74 37.10ZM148.79 37.10C148.79 35.20 147.72 34.06 146.21 34.06C145.42 34.06 144.72 34.46 144.30 35.03L144.30 34.65C144.30 34.37 144.06 34.13 143.78 34.13C143.47 34.13 143.23 34.37 143.23 34.65L143.23 41.76C143.23 42.04 143.47 42.28 143.76 42.28C144.06 42.28 144.30 42.04 144.30 41.76L144.30 39.16C144.77 39.80 145.44 40.14 146.21 40.14C147.72 40.14 148.79 38.98 148.79 37.10ZM147.66 37.10C147.66 38.31 147.12 39.20 146.03 39.20C145.02 39.20 144.30 38.32 144.30 37.13L144.30 37.06C144.30 35.87 145.02 35.01 146.03 35.01C147.12 35.01 147.66 35.88 147.66 37.10ZM155.48 36.90C155.48 36.68 155.42 36.42 155.38 36.23C155.04 34.94 154.08 34.06 152.68 34.06C151.00 34.06 149.78 35.42 149.78 37.10C149.78 38.92 151.04 40.14 152.77 40.14C153.62 40.14 155.11 39.70 155.11 39.05C155.11 38.64 154.70 38.55 154.44 38.68C154.02 38.99 153.37 39.28 152.88 39.28C151.70 39.28 150.98 38.48 150.90 37.48L154.93 37.48C155.23 37.48 155.48 37.19 155.48 36.90ZM150.90 36.69C150.95 35.88 151.51 34.92 152.66 34.92C153.90 34.92 154.43 35.91 154.45 36.69Z" fill="#627386" /><rect x="18" y="50" width="384" height="6" rx="3" fill="#f4faff" /><rect x="18" y="50" width="0.01" height="6" rx="3" fill="#00a5fe" /></svg>