<svg xmlns="http://www.w3.org/2000/svg" width="420" height="64" viewBox="0 0 420 64" role="img"><rect x="0.5" y="0.5" width="419" height="63" rx="10" fill="#ffffff" stroke="#f2f4f6" /><path d="M28.46 19.35C28.46 17.03 26.72 15.07 24.05 15.07C21.14 15.07 18.49 17.60 18.49 20.58C18.49 23.06 20.38 24.98 22.93 24.98C23.88 24.98 24.82 24.70 25.63 24.22C25.70 24.18 25.74 24.11 25.74 24.03C25.74 23.89 25.59 23.78 25.46 23.78C25.42 23.78 25.38 23.78 25.34 23.80C24.64 24.21 23.85 24.45 22.98 24.45C20.72 24.45 19.04 22.75 19.04 20.56C19.04 17.94 21.35 15.61 23.99 15.61C26.34 15.61 27.86 17.14 27.86 19.35C27.86 20.95 27.09 21.61 26.54 21.61C26.25 21.61 26.02 21.41 26.02 20.98C26.02 20.89 26.05 20.72 26.06 20.64L26.61 18.05C26.62 18.01 26.62 17.95 26.62 17.90C26.62 17.50 26.30 17.15 25.85 17.15C25.48 17.15 25.15 17.42 25.08 17.77L25.04 17.97C24.75 17.43 24.13 17.03 23.29 17.03C21.67 17.03 20.13 18.58 20.13 20.46C20.13 21.82 20.94 22.81 22.30 22.81C23.05 22.81 23.82 22.38 24.33 21.73C24.41 22.31 24.85 22.81 25.69 22.81C26.90 22.81 28.46 21.70 28.46 19.35ZM24.65 19.84C24.44 20.82 23.66 21.55 22.91 21.55C22.20 21.55 21.75 21.05 21.75 20.32C21.75 19.30 22.56 18.29 23.68 18.29C24.30 18.29 24.89 18.71 24.68 19.69ZM36.19 19.65C36.19 18.33 35.05 17.07 33.57 17.07C32.53 17.07 31.89 17.62 31.62 18.04L31.62 18.02C31.62 17.55 31.23 17.15 30.75 17.15C30.24 17.15 29.84 17.55 29.84 18.02L29.84 23.20C29.84 23.69 30.24 24.08 30.73 24.08C31.23 24.08 31.62 23.69 31.62 23.20L31.62 20.22C31.62 19.25 32.32 18.65 33.02 18.65C33.78 18.65 34.41 19.25 34.41 20.19L34.41 23.20C34.41 23.69 34.80 24.08 35.29 24.08C35.79 24.08 36.19 23.69 36.19 23.20ZM44.38 20.40C44.38 20.07 44.28 19.66 44.18 19.35C43.70 17.95 42.54 17.07 41.02 17.07C38.96 17.07 37.52 18.65 37.52 20.61C37.52 22.78 39.07 24.17 41.13 24.17C42.16 24.17 43.66 23.78 43.75 22.98C43.79 22.56 43.37 22.26 42.99 22.26C42.88 22.26 42.75 22.29 42.64 22.35C42.22 22.57 41.70 22.75 41.32 22.75C40.18 22.75 39.49 22.07 39.38 21.21L43.55 21.21C44.01 21.21 44.38 20.84 44.38 20.40ZM39.35 20.01C39.43 19.34 39.91 18.48 41.02 18.48C42.19 18.48 42.64 19.37 42.68 20.01ZM51.18 23.27C51.18 23.12 51.14 22.96 51.04 22.82L49.43 20.57L51.04 18.41C51.14 18.27 51.18 18.12 51.18 17.97C51.18 17.56 50.83 17.17 50.35 17.17C50.07 17.17 49.82 17.32 49.65 17.55L48.34 19.32L46.99 17.53C46.83 17.29 46.57 17.17 46.31 17.17C45.82 17.17 45.48 17.57 45.48 17.97C45.48 18.12 45.52 18.27 45.62 18.41L47.22 20.57L45.62 22.82C45.52 22.96 45.48 23.12 45.48 23.27C45.48 23.71 45.86 24.08 46.31 24.08C46.56 24.08 46.80 23.97 46.95 23.75L48.34 21.86L49.70 23.73C49.86 23.96 50.10 24.08 50.37 24.08C50.87 24.08 51.18 23.66 51.18 23.27ZM56.44 23.36C56.44 22.92 56.16 22.59 55.66 22.59L55.51 22.59C55.23 22.59 54.89 22.38 54.89 21.84L54.89 18.79L55.59 18.79C56.00 18.79 56.35 18.44 56.35 18.02C56.35 17.59 56.00 17.24 55.59 17.24L54.89 17.24L54.89 16.19C54.89 15.70 54.50 15.31 54.01 15.31C53.49 15.31 53.10 15.70 53.10 16.19L53.10 17.24L52.66 17.24C52.24 17.24 51.89 17.59 51.89 17.99C51.89 18.44 52.24 18.79 52.66 18.79L53.10 18.79L53.10 22.32C53.10 23.52 53.77 24.17 55.02 24.17C56.18 24.17 56.44 23.80 56.44 23.36ZM63.05 22.92C63.05 22.46 62.63 22.15 62.20 22.15C62.03 22.15 61.88 22.19 61.72 22.29C61.41 22.49 61.08 22.59 60.71 22.59C59.64 22.59 58.88 21.79 58.88 20.61C58.88 19.44 59.64 18.65 60.71 18.65C61.06 18.65 61.41 18.75 61.71 18.93C61.86 19.03 62.03 19.07 62.20 19.07C62.59 19.07 63.04 18.79 63.04 18.32C63.04 18.20 63.01 18.09 62.95 17.99C62.66 17.45 61.68 17.07 60.63 17.07C58.54 17.07 57.05 18.54 57.05 20.61C57.05 22.70 58.54 24.17 60.63 24.17C61.58 24.17 62.28 23.89 62.77 23.50C62.95 23.36 63.05 23.13 63.05 22.92ZM71.19 20.61C71.19 18.69 69.84 17.07 67.60 17.07C65.38 17.07 64.03 18.69 64.03 20.61C64.03 22.54 65.38 24.17 67.60 24.17C69.84 24.17 71.19 22.54 71.19 20.61ZM69.34 20.61C69.34 21.68 68.71 22.59 67.60 22.59C66.50 22.59 65.88 21.68 65.88 20.61C65.88 19.56 66.50 18.65 67.60 18.65C68.71 18.65 69.34 19.56 69.34 20.61ZM72.08 20.63C72.08 22.88 73.51 24.17 75.22 24.17C76.03 24.17 76.77 23.80 77.16 23.13L77.16 23.20C77.16 23.69 77.56 24.08 78.06 24.08C78.55 24.08 78.94 23.69 78.94 23.20L78.94 15.45C78.94 14.97 78.55 14.58 78.03 14.58C77.56 14.58 77.16 14.97 77.16 15.45L77.16 18.11C76.77 17.42 76.02 17.07 75.22 17.07C73.50 17.07 72.08 18.41 72.08 20.63ZM73.92 20.63C73.92 19.45 74.60 18.65 75.64 18.65C76.35 18.65 77.16 19.41 77.16 20.56L77.16 20.71C77.16 21.84 76.35 22.59 75.64 22.59C74.60 22.59 73.92 21.80 73.92 20.63ZM87.13 20.40C87.13 20.07 87.03 19.66 86.94 19.35C86.46 17.95 85.30 17.07 83.77 17.07C81.71 17.07 80.27 18.65 80.27 20.61C80.27 22.78 81.83 24.17 83.88 24.17C84.92 24.17 86.42 23.78 86.50 22.98C86.54 22.56 86.12 22.26 85.75 22.26C85.63 22.26 85.51 22.29 85.40 22.35C84.98 22.57 84.46 22.75 84.08 22.75C82.93 22.75 82.25 22.07 82.13 21.21L86.31 21.21C86.77 21.21 87.13 20.84 87.13 20.40ZM82.11 20.01C82.19 19.34 82.67 18.48 83.77 18.48C84.95 18.48 85.40 19.37 85.44 20.01Z" fill="#22272e" /><path d="M375.49 21.62C375.49 20.44 374.79 19.76 374.27 19.53C374.71 19.32 375.35 18.83 375.35 17.49C375.35 15.99 373.74 15.20 372.01 15.20C370.27 15.20 368.67 15.99 368.67 17.49C368.67 18.83 369.29 19.32 369.73 19.53C369.21 19.76 368.52 20.44 368.52 21.62C368.52 23.25 370.19 24.16 372.01 24.16C373.83 24.16 375.49 23.23 375.49 21.62ZM373.46 17.77C373.46 18.42 372.80 18.80 372.01 18.80C371.22 18.80 370.54 18.42 370.54 17.77C370.54 17.15 371.15 16.79 372.01 16.79C372.85 16.79 373.46 17.15 373.46 17.77ZM373.62 21.52C373.62 22.15 372.89 22.57 372.01 22.57C371.10 22.57 370.40 22.15 370.40 21.52C370.40 20.79 371.20 20.36 372.01 20.36C372.80 20.36 373.62 20.79 373.62 21.52ZM378.74 23.36C378.74 22.52 378.18 22.04 377.57 22.04C377.03 22.04 376.56 22.50 376.56 23.08C376.56 23.64 376.95 24.01 377.44 24.01C377.53 24.01 377.65 23.99 377.69 23.97C377.61 24.31 377.33 24.71 376.99 24.99C376.90 25.07 376.86 25.17 376.86 25.27C376.86 25.53 377.13 25.69 377.35 25.69C377.48 25.69 377.60 25.65 377.69 25.56C378.34 24.98 378.74 24.20 378.74 23.36ZM386.79 21.40C386.79 20.95 386.43 20.58 386.00 20.58L385.59 20.58L385.59 16.29C385.59 15.48 384.81 15.12 384.02 15.25C383.46 15.25 382.90 15.55 382.60 16.02L379.70 20.59C379.59 20.78 379.54 20.98 379.54 21.19C379.54 21.78 379.96 22.21 380.48 22.21L383.75 22.21L383.75 23.17C383.75 23.66 384.16 24.08 384.66 24.08C385.18 24.08 385.59 23.66 385.59 23.17L385.59 22.21L386.00 22.21C386.43 22.21 386.79 21.84 386.79 21.40ZM381.41 20.58L383.75 16.97L383.75 20.58ZM394.46 21.62C394.46 20.44 393.76 19.76 393.24 19.53C393.68 19.32 394.32 18.83 394.32 17.49C394.32 15.99 392.70 15.20 390.98 15.20C389.23 15.20 387.63 15.99 387.63 17.49C387.63 18.83 388.26 19.32 388.70 19.53C388.18 19.76 387.49 20.44 387.49 21.62C387.49 23.25 389.16 24.16 390.98 24.16C392.80 24.16 394.46 23.23 394.46 21.62ZM392.43 17.77C392.43 18.42 391.77 18.80 390.98 18.80C390.18 18.80 389.51 18.42 389.51 17.77C389.51 17.15 390.12 16.79 390.98 16.79C391.82 16.79 392.43 17.15 392.43 17.77ZM392.59 21.52C392.59 22.15 391.86 22.57 390.98 22.57C390.07 22.57 389.36 22.15 389.36 21.52C389.36 20.79 390.17 20.36 390.98 20.36C391.77 20.36 392.59 20.79 392.59 21.52ZM401.82 16.27C401.82 15.72 401.38 15.33 400.92 15.33L395.95 15.33C395.51 15.33 395.15 15.69 395.15 16.12C395.15 16.59 395.51 16.95 395.95 16.95L399.59 16.95L397.01 22.82C396.96 22.93 396.93 23.05 396.93 23.17C396.93 23.64 397.31 24.08 397.85 24.08C398.23 24.08 398.58 23.86 398.72 23.52L401.74 16.63C401.79 16.52 401.82 16.39 401.82 16.27Z" fill="#627386" /><path transform="translate(351.07, 12)" d="M6 1 L6 7.5 M3 5 L6 8 L9 5 M2 10.5 L10 10.5" fill="none" stroke="#627386" stroke-width="1.4" stroke-linecap="round" stroke-linejoin="round" /><path d="M24.56 37.47C24.56 35.84 23.35 34.90 22.02 34.90C21.23 34.90 20.56 35.22 20.17 35.61L20.17 33.05L23.60 33.05C23.89 33.05 24.12 32.81 24.12 32.54C24.12 32.22 23.89 32.00 23.60 32.00L19.78 32.00C19.34 32.00 18.98 32.34 18.98 32.78L18.98 36.04C18.98 36.38 19.26 36.63 19.60 36.63C19.76 36.63 19.93 36.56 20.08 36.46C20.53 36.10 21.07 35.93 21.65 35.93C22.68 35.93 23.38 36.56 23.38 37.52C23.38 38.40 22.68 39.09 21.62 39.09C20.87 39.09 20.26 38.85 19.75 38.40C19.66 38.32 19.52 38.27 19.40 38.27C19.10 38.27 18.88 38.56 18.88 38.82C18.88 38.94 18.91 39.05 18.98 39.15C19.54 39.78 20.50 40.14 21.62 40.14C23.33 40.14 24.56 39.12 24.56 37.47ZM34.64 37.10C34.64 35.20 33.58 34.06 32.06 34.06C31.27 34.06 30.58 34.46 30.16 35.03L30.16 34.65C30.16 34.37 29.92 34.13 29.64 34.13C29.33 34.13 29.09 34.37 29.09 34.65L29.09 41.76C29.09 42.04 29.33 42.28 29.62 42.28C29.92 42.28 30.16 42.04 30.16 41.76L30.16 39.16C30.62 39.80 31.30 40.14 32.06 40.14C33.58 40.14 34.64 38.98 34.64 37.10ZM33.52 37.10C33.52 38.31 32.98 39.20 31.88 39.20C30.88 39.20 30.16 38.32 30.16 37.13L30.16 37.06C30.16 35.87 30.88 35.01 31.88 35.01C32.98 35.01 33.52 35.88 33.52 37.10ZM40.64 36.08C40.64 34.60 39.56 34.06 38.32 34.06C37.54 34.06 36.66 34.31 36.11 34.86C36.04 34.95 36 35.04 36 35.14C36 35.39 36.23 35.56 36.44 35.56C36.53 35.56 36.62 35.52 36.71 35.46C37.14 35.13 37.62 34.96 38.16 34.96C38.98 34.96 39.58 35.39 39.58 36.12L39.58 36.45L37.91 36.45C36.71 36.45 35.65 36.92 35.65 38.22C35.65 39.50 36.71 40.14 37.67 40.14C38.57 40.14 39.11 39.87 39.58 39.35L39.58 39.54C39.58 39.89 39.85 40.07 40.07 40.07L40.10 40.07C40.40 40.07 40.64 39.83 40.64 39.54ZM39.58 37.19L39.58 38.01C39.58 38.69 38.80 39.39 37.96 39.39C37.18 39.39 36.73 38.92 36.73 38.25C36.73 37.55 37.28 37.19 38.20 37.19ZM46.98 39.12C46.98 38.85 46.73 38.66 46.48 38.66C46.36 38.66 46.24 38.69 46.14 38.76C45.82 39.05 45.44 39.20 45.01 39.20C43.86 39.20 43.12 38.31 43.12 37.10C43.12 35.88 43.86 35.01 45.01 35.01C45.43 35.01 45.82 35.14 46.14 35.43C46.24 35.51 46.36 35.56 46.48 35.56C46.74 35.56 46.97 35.34 46.97 35.08C46.97 34.98 46.94 34.90 46.88 34.83C46.49 34.37 45.84 34.06 44.95 34.06C43.21 34.06 42.01 35.37 42.01 37.10C42.01 38.84 43.21 40.14 44.95 40.14C45.82 40.14 46.40 39.86 46.84 39.44C46.93 39.35 46.98 39.23 46.98 39.12ZM53.05 39.54C53.05 39.44 53.02 39.32 52.94 39.23L51.04 36.83L52.84 34.95C52.92 34.85 52.97 34.74 52.97 34.62C52.97 34.36 52.73 34.12 52.46 34.12C52.34 34.12 52.21 34.18 52.12 34.28L49.38 37.16L49.38 32.44C49.38 32.16 49.14 31.92 48.86 31.92C48.55 31.92 48.31 32.16 48.31 32.44L48.31 39.54C48.31 39.83 48.55 40.07 48.84 40.07C49.14 40.07 49.38 39.83 49.38 39.54L49.38 38.39L50.27 37.49L52.10 39.87C52.20 40.01 52.37 40.08 52.52 40.08C52.85 40.08 53.05 39.80 53.05 39.54ZM59.21 36.08C59.21 34.60 58.13 34.06 56.88 34.06C56.10 34.06 55.22 34.31 54.67 34.86C54.60 34.95 54.56 35.04 54.56 35.14C54.56 35.39 54.79 35.56 55.01 35.56C55.09 35.56 55.19 35.52 55.27 35.46C55.70 35.13 56.18 34.96 56.72 34.96C57.54 34.96 58.14 35.39 58.14 36.12L58.14 36.45L56.47 36.45C55.27 36.45 54.22 36.92 54.22 38.22C54.22 39.50 55.27 40.14 56.23 40.14C57.13 40.14 57.67 39.87 58.14 39.35L58.14 39.54C58.14 39.89 58.42 40.07 58.63 40.07L58.67 40.07C58.97 40.07 59.21 39.83 59.21 39.54ZM58.14 37.19L58.14 38.01C58.14 38.69 57.36 39.39 56.52 39.39C55.74 39.39 55.30 38.92 55.30 38.25C55.30 37.55 55.85 37.19 56.76 37.19ZM66.12 34.65C66.12 34.37 65.88 34.13 65.60 34.13C65.29 34.13 65.05 34.37 65.05 34.65L65.05 35.04C64.58 34.42 63.91 34.06 63.14 34.06C61.64 34.06 60.58 35.19 60.58 37.06C60.58 38.94 61.66 40.05 63.14 40.05C63.94 40.05 64.62 39.63 65.05 39.04L65.05 39.81C65.05 41.04 64.16 41.48 63.26 41.48C62.63 41.48 62.12 41.34 61.68 40.97C61.60 40.91 61.51 40.89 61.40 40.89C61.16 40.89 60.95 41.09 60.95 41.34C60.95 41.46 61.00 41.57 61.07 41.64C61.63 42.18 62.45 42.35 63.26 42.35C64.68 42.35 66.12 41.76 66.12 39.77ZM65.05 37.07C65.05 38.26 64.27 39.10 63.31 39.10C62.23 39.10 61.68 38.25 61.68 37.06C61.68 35.85 62.23 35.01 63.31 35.01C64.27 35.01 65.05 35.84 65.05 37.02ZM73.20 36.90C73.20 36.68 73.14 36.42 73.09 36.23C72.76 34.94 71.80 34.06 70.39 34.06C68.71 34.06 67.50 35.42 67.50 37.10C67.50 38.92 68.76 40.14 70.49 40.14C71.34 40.14 72.83 39.70 72.83 39.05C72.83 38.64 72.42 38.55 72.16 38.68C71.74 38.99 71.09 39.28 70.60 39.28C69.42 39.28 68.70 38.48 68.62 37.48L72.65 37.48C72.95 37.48 73.20 37.19 73.20 36.90ZM68.62 36.69C68.66 35.88 69.23 34.92 70.38 34.92C71.62 34.92 72.14 35.91 72.17 36.69ZM78.82 38.25C78.71 36.21 75.38 36.77 75.26 35.73C75.22 35.26 75.72 34.91 76.45 34.91C77.00 34.91 77.52 35.09 77.89 35.36C77.96 35.42 78.05 35.44 78.14 35.44C78.36 35.44 78.56 35.26 78.56 35.02C78.56 34.92 78.53 34.83 78.46 34.76C78.00 34.31 77.27 34.06 76.44 34.06C75.02 34.06 74.17 34.73 74.23 35.76C74.34 37.71 77.65 37.11 77.77 38.39C77.82 38.92 77.34 39.29 76.51 39.29C75.91 39.29 75.31 39.05 74.88 38.74C74.80 38.68 74.71 38.66 74.60 38.66C74.35 38.66 74.14 38.85 74.14 39.10C74.14 39.22 74.18 39.32 74.27 39.39C74.80 39.92 75.67 40.14 76.46 40.14C78.00 40.14 78.88 39.35 78.82 38.25ZM83.80 32.06C83.42 32.06 83.11 32.37 83.11 32.75C83.11 33.12 83.42 33.44 83.80 33.44C84.18 33.44 84.48 33.12 84.48 32.75C84.48 32.37 84.18 32.06 83.80 32.06ZM84.34 34.65C84.34 34.37 84.10 34.13 83.82 34.13C83.51 34.13 83.27 34.37 83.27 34.65L83.27 39.54C83.27 39.83 83.51 40.07 83.80 40.07C84.10 40.07 84.34 39.83 84.34 39.54ZM91.04 36.28C91.04 35.06 90.16 34.06 88.93 34.06C87.92 34.06 87.41 34.55 87.13 35.02L87.13 34.65C87.13 34.37 86.89 34.13 86.62 34.13C86.30 34.13 86.06 34.37 86.06 34.65L86.06 39.54C86.06 39.83 86.30 40.07 86.59 40.07C86.89 40.07 87.13 39.83 87.13 39.54L87.13 36.76C87.13 35.78 87.66 35.01 88.58 35.01C89.45 35.01 89.98 35.68 89.98 36.64L89.98 39.54C89.98 39.83 90.22 40.07 90.50 40.07C90.80 40.07 91.04 39.83 91.04 39.54ZM98.56 39.58C98.56 39.33 98.36 39.14 98.10 39.14C97.98 39.14 97.84 39.20 97.70 39.20C97.36 39.20 97.14 38.92 97.14 38.48L97.14 35.14L97.93 35.14C98.18 35.14 98.39 34.94 98.39 34.68C98.39 34.41 98.18 34.20 97.93 34.20L97.14 34.20L97.14 33.06C97.14 32.79 96.90 32.55 96.61 32.55C96.30 32.55 96.06 32.79 96.06 33.06L96.06 34.20L95.50 34.20C95.23 34.20 95.03 34.41 95.03 34.66C95.03 34.94 95.23 35.14 95.50 35.14L96.06 35.14L96.06 38.73C96.06 39.64 96.54 40.14 97.45 40.14C98.09 40.14 98.56 39.96 98.56 39.58ZM104.52 36.26C104.52 35.03 103.64 34.06 102.42 34.06C101.40 34.06 100.87 34.55 100.60 35.02L100.60 32.44C100.60 32.16 100.36 31.92 100.08 31.92C99.77 31.92 99.53 32.16 99.53 32.44L99.53 39.54C99.53 39.83 99.77 40.07 100.06 40.07C100.36 40.07 100.60 39.83 100.60 39.54L100.60 36.82C100.60 35.74 101.17 35.01 102.08 35.01C102.95 35.01 103.45 35.66 103.45 36.62L103.45 39.54C103.45 39.83 103.69 40.07 103.98 40.07C104.28 40.07 104.52 39.83 104.52 39.54ZM106.78 32.06C106.40 32.06 106.09 32.37 106.09 32.75C106.09 33.12 106.40 33.44 106.78 33.44C107.16 33.44 107.46 33.12 107.46 32.75C107.46 32.37 107.16 32.06 106.78 32.06ZM107.32 34.65C107.32 34.37 107.08 34.13 106.80 34.13C106.49 34.13 106.25 34.37 106.25 34.65L106.25 39.54C106.25 39.83 106.49 40.07 106.78 40.07C107.08 40.07 107.32 39.83 107.32 39.54ZM113.29 38.25C113.18 36.21 109.86 36.77 109.74 35.73C109.69 35.26 110.20 34.91 110.93 34.91C111.48 34.91 112.00 35.09 112.37 35.36C112.44 35.42 112.52 35.44 112.62 35.44C112.84 35.44 113.04 35.26 113.04 35.02C113.04 34.92 113.00 34.83 112.93 34.76C112.48 34.31 111.74 34.06 110.92 34.06C109.50 34.06 108.65 34.73 108.71 35.76C108.82 37.71 112.13 37.11 112.25 38.39C112.30 38.92 111.82 39.29 110.99 39.29C110.39 39.29 109.79 39.05 109.36 38.74C109.27 38.68 109.19 38.66 109.08 38.66C108.83 38.66 108.61 38.85 108.61 39.10C108.61 39.22 108.66 39.32 108.74 39.39C109.27 39.92 110.15 40.14 110.94 40.14C112.48 40.14 113.35 39.35 113.29 38.25ZM121.99 38.25C121.88 36.21 118.56 36.77 118.44 35.73C118.39 35.26 118.90 34.91 119.63 34.91C120.18 34.91 120.70 35.09 121.07 35.36C121.14 35.42 121.22 35.44 121.32 35.44C121.54 35.44 121.74 35.26 121.74 35.02C121.74 34.92 121.70 34.83 121.63 34.76C121.18 34.31 120.44 34.06 119.62 34.06C118.20 34.06 117.35 34.73 117.41 35.76C117.52 37.71 120.83 37.11 120.95 38.39C121.00 38.92 120.52 39.29 119.69 39.29C119.09 39.29 118.49 39.05 118.06 38.74C117.97 38.68 117.89 38.66 117.78 38.66C117.53 38.66 117.31 38.85 117.31 39.10C117.31 39.22 117.36 39.32 117.44 39.39C117.97 39.92 118.85 40.14 119.64 40.14C121.18 40.14 122.05 39.35 121.99 38.25ZM127.98 39.12C127.98 38.85 127.73 38.66 127.48 38.66C127.36 38.66 127.24 38.69 127.14 38.76C126.82 39.05 126.44 39.20 126.01 39.20C124.86 39.20 124.12 38.31 124.12 37.10C124.12 35.88 124.86 35.01 126.01 35.01C126.43 35.01 126.82 35.14 127.14 35.43C127.24 35.51 127.36 35.56 127.48 35.56C127.74 35.56 127.97 35.34 127.97 35.08C127.97 34.98 127.94 34.90 127.88 34.83C127.49 34.37 126.84 34.06 125.95 34.06C124.21 34.06 123.01 35.37 123.01 37.10C123.01 38.84 124.21 40.14 125.95 40.14C126.82 40.14 127.40 39.86 127.84 39.44C127.93 39.35 127.98 39.23 127.98 39.12ZM134.81 37.10C134.81 35.43 133.69 34.06 131.88 34.06C130.08 34.06 128.96 35.43 128.96 37.10C128.96 38.76 130.08 40.14 131.88 40.14C133.69 40.14 134.81 38.76 134.81 37.10ZM133.69 37.10C133.69 38.21 133.04 39.20 131.88 39.20C130.73 39.20 130.07 38.21 130.07 37.10C130.07 35.99 130.73 35.01 131.88 35.01C133.04 35.01 133.69 35.99 133.69 37.10ZM141.74 37.10C141.74 35.20 140.68 34.06 139.16 34.06C138.37 34.06 137.68 34.46 137.26 35.03L137.26 34.65C137.26 34.37 137.02 34.13 136.74 34.13C136.43 34.13 136.19 34.37 136.19 34.65L136.19 41.76C136.19 42.04 136.43 42.28 136.72 42.28C137.02 42.28 137.26 42.04 137.26 41.76L137.26 39.16C137.72 39.80 138.40 40.14 139.16 40.14C140.68 40.14 141.74 38.98 141.74 37.10ZM140.62 37.10C140.62 38.31 140.08 39.20 138.98 39.20C137.98 39.20 137.26 38.32 137.26 37.13L137.26 37.06C137.26 35.87 137.98 35.01 138.98 35.01C140.08 35.01 140.62 35.88 140.62 37.10ZM148.44 36.90C148.44 36.68 148.38 36.42 148.33 36.23C148.00 34.94 147.04 34.06 145.63 34.06C143.95 34.06 142.74 35.42 142.74 37.10C142.74 38.92 144.00 40.14 145.73 40.14C146.58 40.14 148.07 39.70 148.07 39.05C148.07 38.64 147.66 38.55 147.40 38.68C146.98 38.99 146.33 39.28 145.84 39.28C144.66 39.28 143.94 38.48 143.86 37.48L147.89 37.48C148.19 37.48 148.44 37.19 148.44 36.90ZM143.86 36.69C143.90 35.88 144.47 34.92 145.62 34.92C146.86 34.92 147.38 35.91 147.41 36.69Z" fill="#627386" /><rect x="18" y="50" width="384" height="6" rx="3" fill="#f4faff" /><rect x="18" y="50" width="0.00" height="6" rx="3" fill="#00a5fe" /></svg>