<svg xmlns="http://www.w3.org/2000/svg" width="420" height="64" viewBox="0 0 420 64" role="img"><rect x="0.5" y="0.5" width="419" height="63" rx="10" fill="#161b22" stroke="#30363d" /><path d="M28.46 19.35C28.46 17.03 26.72 15.07 24.05 15.07C21.14 15.07 18.49 17.60 18.49 20.58C18.49 23.06 20.38 24.98 22.93 24.98C23.88 24.98 24.82 24.70 25.63 24.22C25.70 24.18 25.74 24.11 25.74 24.03C25.74 23.89 25.59 23.78 25.46 23.78C25.42 23.78 25.38 23.78 25.34 23.80C24.64 24.21 23.85 24.45 22.98 24.45C20.72 24.45 19.04 22.75 19.04 20.56C19.04 17.94 21.35 15.61 23.99 15.61C26.34 15.61 27.86 17.14 27.86 19.35C27.86 20.95 27.09 21.61 26.54 21.61C26.25 21.61 26.02 21.41 26.02 20.98C26.02 20.89 26.05 20.72 26.06 20.64L26.61 18.05C26.62 18.01 26.62 17.95 26.62 17.90C26.62 17.50 26.30 17.15 25.85 17.15C25.48 17.15 25.15 17.42 25.08 17.77L25.04 17.97C24.75 17.43 24.13 17.03 23.29 17.03C21.67 17.03 20.13 18.58 20.13 20.46C20.13 21.82 20.94 22.81 22.30 22.81C23.05 22.81 23.82 22.38 24.33 21.73C24.41 22.31 24.85 22.81 25.69 22.81C26.90 22.81 28.46 21.70 28.46 19.35ZM24.65 19.84C24.44 20.82 23.66 21.55 22.91 21.55C22.20 21.55 21.75 21.05 21.75 20.32C21.75 19.30 22.56 18.29 23.68 18.29C24.30 18.29 24.89 18.71 24.68 19.69ZM36.19 19.65C36.19 18.33 35.05 17.07 33.57 17.07C32.53 17.07 31.89 17.62 31.62 18.04L31.62 18.02C31.62 17.55 31.23 17.15 30.75 17.15C30.24 17.15 29.84 17.55 29.84 18.02L29.84 23.20C29.84 23.69 30.24 24.08 30.73 24.08C31.23 24.08 31.62 23.69 31.62 23.20L31.62 20.22C31.62 19.25 32.32 18.65 33.02 18.65C33.78 18.65 34.41 19.25 34.41 20.19L34.41 23.20C34.41 23.69 34.80 24.08 35.29 24.08C35.79 24.08 36.19 23.69 36.19 23.20ZM44.38 20.40C44.38 20.07 44.28 19.66 44.18 19.35C43.70 17.95 42.54 17.07 41.02 17.07C38.96 17.07 37.52 18.65 37.52 20.61C37.52 22.78 39.07 24.17 41.13 24.17C42.16 24.17 43.66 23.78 43.75 22.98C43.79 22.56 43.37 22.26 42.99 22.26C42.88 22.26 42.75 22.29 42.64 22.35C42.22 22.57 41.70 22.75 41.32 22.75C40.18 22.75 39.49 22.07 39.38 21.21L43.55 21.21C44.01 21.21 44.38 20.84 44.38 20.40ZM39.35 20.01C39.43 19.34 39.91 18.48 41.02 18.48C42.19 18.48 42.64 19.37 42.68 20.01ZM51.18 23.27C51.18 23.12 51.14 22.96 51.04 22.82L49.43 20.57L51.04 18.41C51.14 18.27 51.18 18.12 51.18 17.97C51.18 17.56 50.83 17.17 50.35 17.17C50.07 17.17 49.82 17.32 49.65 17.55L48.34 19.32L46.99 17.53C46.83 17.29 46.57 17.17 46.31 17.17C45.82 17.17 45.48 17.57 45.48 17.97C45.48 18.12 45.52 18.27 45.62 18.41L47.22 20.57L45.62 22.82C45.52 22.96 45.48 23.12 45.48 23.27C45.48 23.71 45.86 24.08 46.31 24.08C46.56 24.08 46.80 23.97 46.95 23.75L48.34 21.86L49.70 23.73C49.86 23.96 50.10 24.08 50.37 24.08C50.87 24.08 51.18 23.66 51.18 23.27ZM56.44 23.36C56.44 22.92 56.16 22.59 55.66 22.59L55.51 22.59C55.23 22.59 54.89 22.38 54.89 21.84L54.89 18.79L55.59 18.79C56.00 18.79 56.35 18.44 56.35 18.02C56.35 17.59 56.00 17.24 55.59 17.24L54.89 17.24L54.89 16.19C54.89 15.70 54.50 15.31 54.01 15.31C53.49 15.31 53.10 15.70 53.10 16.19L53.10 17.24L52.66 17.24C52.24 17.24 51.89 17.59 51.89 17.99C51.89 18.44 52.24 18.79 52.66 18.79L53.10 18.79L53.10 22.32C53.10 23.52 53.77 24.17 55.02 24.17C56.18 24.17 56.44 23.80 56.44 23.36ZM60.46 20.60C60.46 20.19 60.13 19.86 59.72 19.86L57.68 19.86C57.27 19.86 56.93 20.19 56.93 20.60C56.93 21.03 57.27 21.37 57.68 21.37L59.72 21.37C60.13 21.37 60.46 21.03 60.46 20.60ZM71.86 19.67C71.86 18.29 70.89 17.07 69.37 17.07C68.19 17.07 67.52 17.76 67.27 18.23C67.01 17.74 66.38 17.07 65.25 17.07C64.21 17.07 63.74 17.45 63.46 17.81L63.46 17.80C63.46 17.60 63.21 17.15 62.59 17.15C62.07 17.15 61.68 17.55 61.68 18.02L61.68 23.20C61.68 23.69 62.07 24.08 62.56 24.08C63.07 24.08 63.46 23.69 63.46 23.20L63.46 20.01C63.46 19.35 63.96 18.65 64.72 18.65C65.45 18.65 65.87 19.38 65.87 20.01L65.87 23.20C65.87 23.69 66.26 24.08 66.75 24.08C67.27 24.08 67.66 23.69 67.66 23.20L67.66 20.14C67.66 19.35 68.15 18.65 68.92 18.65C69.65 18.65 70.07 19.38 70.07 20.01L70.07 23.20C70.07 23.69 70.46 24.08 70.95 24.08C71.47 24.08 71.86 23.69 71.86 23.20ZM80.33 20.61C80.33 18.69 78.98 17.07 76.74 17.07C74.52 17.07 73.17 18.69 73.17 20.61C73.17 22.54 74.52 24.17 76.74 24.17C78.98 24.17 80.33 22.54 80.33 20.61ZM78.48 20.61C78.48 21.68 77.85 22.59 76.74 22.59C75.64 22.59 75.02 21.68 75.02 20.61C75.02 19.56 75.64 18.65 76.74 18.65C77.85 18.65 78.48 19.56 78.48 20.61ZM81.22 20.63C81.22 22.88 82.65 24.17 84.36 24.17C85.17 24.17 85.91 23.80 86.31 23.13L86.31 23.20C86.31 23.69 86.70 24.08 87.20 24.08C87.69 24.08 88.08 23.69 88.08 23.20L88.08 15.45C88.08 14.97 87.69 14.58 87.17 14.58C86.70 14.58 86.31 14.97 86.31 15.45L86.31 18.11C85.91 17.42 85.16 17.07 84.36 17.07C82.64 17.07 81.22 18.41 81.22 20.63ZM83.06 20.63C83.06 19.45 83.74 18.65 84.78 18.65C85.49 18.65 86.31 19.41 86.31 20.56L86.31 20.71C86.31 21.84 85.49 22.59 84.78 22.59C83.74 22.59 83.06 21.80 83.06 20.63ZM96.27 20.40C96.27 20.07 96.18 19.66 96.08 19.35C95.60 17.95 94.44 17.07 92.91 17.07C90.86 17.07 89.41 18.65 89.41 20.61C89.41 22.78 90.97 24.17 93.03 24.17C94.06 24.17 95.56 23.78 95.64 22.98C95.69 22.56 95.27 22.26 94.89 22.26C94.78 22.26 94.65 22.29 94.54 22.35C94.12 22.57 93.60 22.75 93.22 22.75C92.07 22.75 91.39 22.07 91.28 21.21L95.45 21.21C95.91 21.21 96.27 20.84 96.27 20.40ZM91.25 20.01C91.33 19.34 91.81 18.48 92.91 18.48C94.09 18.48 94.54 19.37 94.58 20.01ZM99.37 15.45C99.37 14.97 98.98 14.58 98.50 14.58C97.98 14.58 97.59 14.97 97.59 15.45L97.59 23.20C97.59 23.69 97.98 24.08 98.47 24.08C98.98 24.08 99.37 23.69 99.37 23.20Z" fill="#e6edf3" /><path d="M367.91 21.40C367.91 20.95 367.55 20.58 367.12 20.58L366.72 20.58L366.72 16.29C366.72 15.48 365.94 15.12 365.14 15.25C364.59 15.25 364.03 15.55 363.73 16.02L360.83 20.59C360.71 20.78 360.66 20.98 360.66 21.19C360.66 21.78 361.09 22.21 361.61 22.21L364.87 22.21L364.87 23.17C364.87 23.66 365.29 24.08 365.78 24.08C366.30 24.08 366.72 23.66 366.72 23.17L366.72 22.21L367.12 22.21C367.55 22.21 367.91 21.84 367.91 21.40ZM362.53 20.58L364.87 16.97L364.87 20.58ZM375.58 21.62C375.58 20.44 374.88 19.76 374.36 19.53C374.80 19.32 375.44 18.83 375.44 17.49C375.44 15.99 373.83 15.20 372.10 15.20C370.36 15.20 368.76 15.99 368.76 17.49C368.76 18.83 369.38 19.32 369.82 19.53C369.31 19.76 368.62 20.44 368.62 21.62C368.62 23.25 370.28 24.16 372.10 24.16C373.92 24.16 375.58 23.23 375.58 21.62ZM373.56 17.77C373.56 18.42 372.89 18.80 372.10 18.80C371.31 18.80 370.63 18.42 370.63 17.77C370.63 17.15 371.24 16.79 372.10 16.79C372.94 16.79 373.56 17.15 373.56 17.77ZM373.71 21.52C373.71 22.15 372.98 22.57 372.10 22.57C371.19 22.57 370.49 22.15 370.49 21.52C370.49 20.79 371.29 20.36 372.10 20.36C372.89 20.36 373.71 20.79 373.71 21.52ZM378.83 23.36C378.83 22.52 378.27 22.04 377.66 22.04C377.12 22.04 376.65 22.50 376.65 23.08C376.65 23.64 377.04 24.01 377.53 24.01C377.63 24.01 377.74 23.99 377.78 23.97C377.70 24.31 377.42 24.71 377.08 24.99C376.99 25.07 376.95 25.17 376.95 25.27C376.95 25.53 377.22 25.69 377.44 25.69C377.57 25.69 377.69 25.65 377.78 25.56C378.43 24.98 378.83 24.20 378.83 23.36ZM386.71 19.67C386.71 17.43 385.59 15.20 383.12 15.20C380.64 15.20 379.54 17.43 379.54 19.67C379.54 21.91 380.64 24.16 383.12 24.16C385.59 24.16 386.71 21.91 386.71 19.67ZM384.83 19.67C384.83 21.27 384.36 22.52 383.12 22.52C381.88 22.52 381.41 21.27 381.41 19.67C381.41 18.07 381.88 16.84 383.12 16.84C384.36 16.84 384.83 18.07 384.83 19.67ZM394.67 21.40C394.67 20.95 394.30 20.58 393.87 20.58L393.47 20.58L393.47 16.29C393.47 15.48 392.69 15.12 391.90 15.25C391.34 15.25 390.78 15.55 390.48 16.02L387.58 20.59C387.47 20.78 387.41 20.98 387.41 21.19C387.41 21.78 387.84 22.21 388.36 22.21L391.63 22.21L391.63 23.17C391.63 23.66 392.04 24.08 392.54 24.08C393.06 24.08 393.47 23.66 393.47 23.17L393.47 22.21L393.87 22.21C394.30 22.21 394.67 21.84 394.67 21.40ZM389.29 20.58L391.63 16.97L391.63 20.58ZM401.82 16.27C401.82 15.72 401.38 15.33 400.92 15.33L395.95 15.33C395.51 15.33 395.15 15.69 395.15 16.12C395.15 16.59 395.51 16.95 395.95 16.95L399.59 16.95L397.01 22.82C396.96 22.93 396.93 23.05 396.93 23.17C396.93 23.64 397.31 24.08 397.85 24.08C398.23 24.08 398.58 23.86 398.72 23.52L401.74 16.63C401.79 16.52 401.82 16.39 401.82 16.27Z" fill="#9aa7b4" /><path transform="translate(343.40, 12)" d="M6 1 L6 7.5 M3 5 L6 8 L9 5 M2 10.5 L10 10.5" fill="none" stroke="#9aa7b4" stroke-width="1.4" stroke-linecap="round" stroke-linejoin="round" /><path d="M24.34 39.46C24.34 39.18 24.11 38.94 23.82 38.94L20.52 38.94C22.70 37.25 24.22 35.85 24.22 34.29C24.22 32.69 22.86 31.88 21.43 31.88C20.45 31.88 19.42 32.24 18.83 32.88C18.74 32.98 18.71 33.10 18.71 33.21C18.71 33.51 18.97 33.74 19.25 33.74C19.37 33.74 19.49 33.70 19.58 33.60C20.06 33.18 20.69 32.93 21.44 32.93C22.22 32.93 23.02 33.35 23.02 34.29C23.02 35.51 21.61 36.78 18.76 38.96C18.61 39.08 18.53 39.24 18.53 39.42C18.53 39.76 18.79 40 19.08 40L23.82 40C24.11 40 24.34 39.77 24.34 39.46ZM28.50 32.60C28.50 32.22 28.18 31.94 27.82 31.94C27.62 31.94 27.46 32.00 27.34 32.13L25.60 33.89C25.50 34 25.45 34.12 25.45 34.25C25.45 34.54 25.70 34.76 25.96 34.76C26.09 34.76 26.20 34.71 26.29 34.61L27.31 33.56L27.31 39.48C27.31 39.81 27.58 40.07 27.90 40.07C28.24 40.07 28.50 39.81 28.50 39.48ZM38.89 37.10C38.89 35.20 37.82 34.06 36.31 34.06C35.52 34.06 34.82 34.46 34.40 35.03L34.40 34.65C34.40 34.37 34.16 34.13 33.89 34.13C33.58 34.13 33.34 34.37 33.34 34.65L33.34 41.76C33.34 42.04 33.58 42.28 33.86 42.28C34.16 42.28 34.40 42.04 34.40 41.76L34.40 39.16C34.87 39.80 35.54 40.14 36.31 40.14C37.82 40.14 38.89 38.98 38.89 37.10ZM37.76 37.10C37.76 38.31 37.22 39.20 36.13 39.20C35.12 39.20 34.40 38.32 34.40 37.13L34.40 37.06C34.40 35.87 35.12 35.01 36.13 35.01C37.22 35.01 37.76 35.88 37.76 37.10ZM44.89 36.08C44.89 34.60 43.81 34.06 42.56 34.06C41.78 34.06 40.91 34.31 40.36 34.86C40.28 34.95 40.25 35.04 40.25 35.14C40.25 35.39 40.48 35.56 40.69 35.56C40.78 35.56 40.87 35.52 40.96 35.46C41.39 35.13 41.87 34.96 42.41 34.96C43.22 34.96 43.82 35.39 43.82 36.12L43.82 36.45L42.16 36.45C40.96 36.45 39.90 36.92 39.90 38.22C39.90 39.50 40.96 40.14 41.92 40.14C42.82 40.14 43.36 39.87 43.82 39.35L43.82 39.54C43.82 39.89 44.10 40.07 44.32 40.07L44.35 40.07C44.65 40.07 44.89 39.83 44.89 39.54ZM43.82 37.19L43.82 38.01C43.82 38.69 43.04 39.39 42.20 39.39C41.42 39.39 40.98 38.92 40.98 38.25C40.98 37.55 41.53 37.19 42.44 37.19ZM51.23 39.12C51.23 38.85 50.98 38.66 50.72 38.66C50.60 38.66 50.48 38.69 50.39 38.76C50.06 39.05 49.69 39.20 49.26 39.20C48.11 39.20 47.36 38.31 47.36 37.10C47.36 35.88 48.11 35.01 49.26 35.01C49.68 35.01 50.06 35.14 50.39 35.43C50.48 35.51 50.60 35.56 50.72 35.56C50.99 35.56 51.22 35.34 51.22 35.08C51.22 34.98 51.19 34.90 51.13 34.83C50.74 34.37 50.09 34.06 49.20 34.06C47.46 34.06 46.26 35.37 46.26 37.10C46.26 38.84 47.46 40.14 49.20 40.14C50.06 40.14 50.65 39.86 51.08 39.44C51.18 39.35 51.23 39.23 51.23 39.12ZM57.30 39.54C57.30 39.44 57.26 39.32 57.19 39.23L55.28 36.83L57.08 34.95C57.17 34.85 57.22 34.74 57.22 34.62C57.22 34.36 56.98 34.12 56.71 34.12C56.59 34.12 56.46 34.18 56.36 34.28L53.63 37.16L53.63 32.44C53.63 32.16 53.39 31.92 53.11 31.92C52.80 31.92 52.56 32.16 52.56 32.44L52.56 39.54C52.56 39.83 52.80 40.07 53.09 40.07C53.39 40.07 53.63 39.83 53.63 39.54L53.63 38.39L54.52 37.49L56.35 39.87C56.45 40.01 56.62 40.08 56.77 40.08C57.10 40.08 57.30 39.80 57.30 39.54ZM63.46 36.08C63.46 34.60 62.38 34.06 61.13 34.06C60.35 34.06 59.47 34.31 58.92 34.86C58.85 34.95 58.81 35.04 58.81 35.14C58.81 35.39 59.04 35.56 59.26 35.56C59.34 35.56 59.44 35.52 59.52 35.46C59.95 35.13 60.43 34.96 60.97 34.96C61.79 34.96 62.39 35.39 62.39 36.12L62.39 36.45L60.72 36.45C59.52 36.45 58.46 36.92 58.46 38.22C58.46 39.50 59.52 40.14 60.48 40.14C61.38 40.14 61.92 39.87 62.39 39.35L62.39 39.54C62.39 39.89 62.66 40.07 62.88 40.07L62.92 40.07C63.22 40.07 63.46 39.83 63.46 39.54ZM62.39 37.19L62.39 38.01C62.39 38.69 61.61 39.39 60.77 39.39C59.99 39.39 59.54 38.92 59.54 38.25C59.54 37.55 60.10 37.19 61.01 37.19ZM70.37 34.65C70.37 34.37 70.13 34.13 69.85 34.13C69.54 34.13 69.30 34.37 69.30 34.65L69.30 35.04C68.83 34.42 68.16 34.06 67.39 34.06C65.89 34.06 64.82 35.19 64.82 37.06C64.82 38.94 65.90 40.05 67.39 40.05C68.18 40.05 68.87 39.63 69.30 39.04L69.30 39.81C69.30 41.04 68.41 41.48 67.51 41.48C66.88 41.48 66.37 41.34 65.93 40.97C65.84 40.91 65.76 40.89 65.65 40.89C65.41 40.89 65.20 41.09 65.20 41.34C65.20 41.46 65.24 41.57 65.32 41.64C65.88 42.18 66.70 42.35 67.51 42.35C68.93 42.35 70.37 41.76 70.37 39.77ZM69.30 37.07C69.30 38.26 68.52 39.10 67.56 39.10C66.48 39.10 65.93 38.25 65.93 37.06C65.93 35.85 66.48 35.01 67.56 35.01C68.52 35.01 69.30 35.84 69.30 37.02ZM77.45 36.90C77.45 36.68 77.39 36.42 77.34 36.23C77.00 34.94 76.04 34.06 74.64 34.06C72.96 34.06 71.75 35.42 71.75 37.10C71.75 38.92 73.01 40.14 74.74 40.14C75.59 40.14 77.08 39.70 77.08 39.05C77.08 38.64 76.67 38.55 76.40 38.68C75.98 38.99 75.34 39.28 74.84 39.28C73.67 39.28 72.95 38.48 72.86 37.48L76.90 37.48C77.20 37.48 77.45 37.19 77.45 36.90ZM72.86 36.69C72.91 35.88 73.48 34.92 74.63 34.92C75.86 34.92 76.39 35.91 76.42 36.69ZM83.06 38.25C82.96 36.21 79.63 36.77 79.51 35.73C79.46 35.26 79.97 34.91 80.70 34.91C81.25 34.91 81.77 35.09 82.14 35.36C82.21 35.42 82.30 35.44 82.39 35.44C82.61 35.44 82.81 35.26 82.81 35.02C82.81 34.92 82.78 34.83 82.70 34.76C82.25 34.31 81.52 34.06 80.69 34.06C79.27 34.06 78.42 34.73 78.48 35.76C78.59 37.71 81.90 37.11 82.02 38.39C82.07 38.92 81.59 39.29 80.76 39.29C80.16 39.29 79.56 39.05 79.13 38.74C79.04 38.68 78.96 38.66 78.85 38.66C78.60 38.66 78.38 38.85 78.38 39.10C78.38 39.22 78.43 39.32 78.52 39.39C79.04 39.92 79.92 40.14 80.71 40.14C82.25 40.14 83.12 39.35 83.06 38.25ZM88.04 32.06C87.67 32.06 87.36 32.37 87.36 32.75C87.36 33.12 87.67 33.44 88.04 33.44C88.43 33.44 88.73 33.12 88.73 32.75C88.73 32.37 88.43 32.06 88.04 32.06ZM88.58 34.65C88.58 34.37 88.34 34.13 88.07 34.13C87.76 34.13 87.52 34.37 87.52 34.65L87.52 39.54C87.52 39.83 87.76 40.07 88.04 40.07C88.34 40.07 88.58 39.83 88.58 39.54ZM95.29 36.28C95.29 35.06 94.40 34.06 93.18 34.06C92.17 34.06 91.66 34.55 91.38 35.02L91.38 34.65C91.38 34.37 91.14 34.13 90.86 34.13C90.55 34.13 90.31 34.37 90.31 34.65L90.31 39.54C90.31 39.83 90.55 40.07 90.84 40.07C91.14 40.07 91.38 39.83 91.38 39.54L91.38 36.76C91.38 35.78 91.91 35.01 92.83 35.01C93.70 35.01 94.22 35.68 94.22 36.64L94.22 39.54C94.22 39.83 94.46 40.07 94.75 40.07C95.05 40.07 95.29 39.83 95.29 39.54ZM102.80 39.58C102.80 39.33 102.61 39.14 102.35 39.14C102.23 39.14 102.08 39.20 101.95 39.20C101.60 39.20 101.39 38.92 101.39 38.48L101.39 35.14L102.18 35.14C102.43 35.14 102.64 34.94 102.64 34.68C102.64 34.41 102.43 34.20 102.18 34.20L101.39 34.20L101.39 33.06C101.39 32.79 101.15 32.55 100.86 32.55C100.55 32.55 100.31 32.79 100.31 33.06L100.31 34.20L99.74 34.20C99.48 34.20 99.28 34.41 99.28 34.66C99.28 34.94 99.48 35.14 99.74 35.14L100.31 35.14L100.31 38.73C100.31 39.64 100.79 40.14 101.70 40.14C102.34 40.14 102.80 39.96 102.80 39.58ZM108.77 36.26C108.77 35.03 107.89 34.06 106.67 34.06C105.65 34.06 105.12 34.55 104.84 35.02L104.84 32.44C104.84 32.16 104.60 31.92 104.33 31.92C104.02 31.92 103.78 32.16 103.78 32.44L103.78 39.54C103.78 39.83 104.02 40.07 104.30 40.07C104.60 40.07 104.84 39.83 104.84 39.54L104.84 36.82C104.84 35.74 105.42 35.01 106.33 35.01C107.20 35.01 107.70 35.66 107.70 36.62L107.70 39.54C107.70 39.83 107.94 40.07 108.23 40.07C108.53 40.07 108.77 39.83 108.77 39.54ZM111.02 32.06C110.65 32.06 110.34 32.37 110.34 32.75C110.34 33.12 110.65 33.44 111.02 33.44C111.41 33.44 111.71 33.12 111.71 32.75C111.71 32.37 111.41 32.06 111.02 32.06ZM111.56 34.65C111.56 34.37 111.32 34.13 111.05 34.13C110.74 34.13 110.50 34.37 110.50 34.65L110.50 39.54C110.50 39.83 110.74 40.07 111.02 40.07C111.32 40.07 111.56 39.83 111.56 39.54ZM117.54 38.25C117.43 36.21 114.11 36.77 113.99 35.73C113.94 35.26 114.44 34.91 115.18 34.91C115.73 34.91 116.24 35.09 116.62 35.36C116.69 35.42 116.77 35.44 116.87 35.44C117.08 35.44 117.29 35.26 117.29 35.02C117.29 34.92 117.25 34.83 117.18 34.76C116.72 34.31 115.99 34.06 115.16 34.06C113.75 34.06 112.90 34.73 112.96 35.76C113.06 37.71 116.38 37.11 116.50 38.39C116.54 38.92 116.06 39.29 115.24 39.29C114.64 39.29 114.04 39.05 113.60 38.74C113.52 38.68 113.44 38.66 113.33 38.66C113.08 38.66 112.86 38.85 112.86 39.10C112.86 39.22 112.91 39.32 112.99 39.39C113.52 39.92 114.40 40.14 115.19 40.14C116.72 40.14 117.60 39.35 117.54 38.25ZM126.24 38.25C126.13 36.21 122.81 36.77 122.69 35.73C122.64 35.26 123.14 34.91 123.88 34.91C124.43 34.91 124.94 35.09 125.32 35.36C125.39 35.42 125.47 35.44 125.57 35.44C125.78 35.44 125.99 35.26 125.99 35.02C125.99 34.92 125.95 34.83 125.88 34.76C125.42 34.31 124.69 34.06 123.86 34.06C122.45 34.06 121.60 34.73 121.66 35.76C121.76 37.71 125.08 37.11 125.20 38.39C125.24 38.92 124.76 39.29 123.94 39.29C123.34 39.29 122.74 39.05 122.30 38.74C122.22 38.68 122.14 38.66 122.03 38.66C121.78 38.66 121.56 38.85 121.56 39.10C121.56 39.22 121.61 39.32 121.69 39.39C122.22 39.92 123.10 40.14 123.89 40.14C125.42 40.14 126.30 39.35 126.24 38.25ZM132.23 39.12C132.23 38.85 131.98 38.66 131.72 38.66C131.60 38.66 131.48 38.69 131.39 38.76C131.06 39.05 130.69 39.20 130.26 39.20C129.11 39.20 128.36 38.31 128.36 37.10C128.36 35.88 129.11 35.01 130.26 35.01C130.68 35.01 131.06 35.14 131.39 35.43C131.48 35.51 131.60 35.56 131.72 35.56C131.99 35.56 132.22 35.34 132.22 35.08C132.22 34.98 132.19 34.90 132.13 34.83C131.74 34.37 131.09 34.06 130.20 34.06C128.46 34.06 127.26 35.37 127.26 37.10C127.26 38.84 128.46 40.14 130.20 40.14C131.06 40.14 131.65 39.86 132.08 39.44C132.18 39.35 132.23 39.23 132.23 39.12ZM139.06 37.10C139.06 35.43 137.94 34.06 136.13 34.06C134.33 34.06 133.21 35.43 133.21 37.10C133.21 38.76 134.33 40.14 136.13 40.14C137.94 40.14 139.06 38.76 139.06 37.10ZM137.94 37.10C137.94 38.21 137.29 39.20 136.13 39.20C134.98 39.20 134.32 38.21 134.32 37.10C134.32 35.99 134.98 35.01 136.13 35.01C137.29 35.01 137.94 35.99 137.94 37.10ZM145.99 37.10C145.99 35.20 144.92 34.06 143.41 34.06C142.62 34.06 141.92 34.46 141.50 35.03L141.50 34.65C141.50 34.37 141.26 34.13 140.99 34.13C140.68 34.13 140.44 34.37 140.44 34.65L140.44 41.76C140.44 42.04 140.68 42.28 140.96 42.28C141.26 42.28 141.50 42.04 141.50 41.76L141.50 39.16C141.97 39.80 142.64 40.14 143.41 40.14C144.92 40.14 145.99 38.98 145.99 37.10ZM144.86 37.10C144.86 38.31 144.32 39.20 143.23 39.20C142.22 39.20 141.50 38.32 141.50 37.13L141.50 37.06C141.50 35.87 142.22 35.01 143.23 35.01C144.32 35.01 144.86 35.88 144.86 37.10ZM152.69 36.90C152.69 36.68 152.63 36.42 152.58 36.23C152.24 34.94 151.28 34.06 149.88 34.06C148.20 34.06 146.99 35.42 146.99 37.10C146.99 38.92 148.25 40.14 149.98 40.14C150.83 40.14 152.32 39.70 152.32 39.05C152.32 38.64 151.91 38.55 151.64 38.68C151.22 38.99 150.58 39.28 150.08 39.28C148.91 39.28 148.19 38.48 148.10 37.48L152.14 37.48C152.44 37.48 152.69 37.19 152.69 36.90ZM148.10 36.69C148.15 35.88 148.72 34.92 149.87 34.92C151.10 34.92 151.63 35.91 151.66 36.69Z" fill="#9aa7b4" /><rect x="18" y="50" width="384" height="6" rx="3" fill="#21262d" /><rect x="18" y="50" width="0.01" height="6" rx="3" fill="#00a5fe" /></svg>