<svg xmlns="http://www.w3.org/2000/svg" width="420" height="64" viewBox="0 0 420 64" role="img"><rect x="0.5" y="0.5" width="419" height="63" rx="10" fill="#161b22" stroke="#30363d" /><path d="M22.58 23.36C22.58 22.92 22.30 22.59 21.79 22.59L21.64 22.59C21.36 22.59 21.02 22.38 21.02 21.84L21.02 18.79L21.72 18.79C22.13 18.79 22.48 18.44 22.48 18.02C22.48 17.59 22.13 17.24 21.72 17.24L21.02 17.24L21.02 16.19C21.02 15.70 20.63 15.31 20.14 15.31C19.62 15.31 19.23 15.70 19.23 16.19L19.23 17.24L18.80 17.24C18.38 17.24 18.03 17.59 18.03 17.99C18.03 18.44 18.38 18.79 18.80 18.79L19.23 18.79L19.23 22.32C19.23 23.52 19.90 24.17 21.15 24.17C22.31 24.17 22.58 23.80 22.58 23.36ZM28.98 22.00C28.98 19.27 24.97 20.11 24.97 19.10C24.97 18.72 25.39 18.43 26.04 18.43C26.58 18.43 27.13 18.58 27.56 18.83C27.66 18.89 27.79 18.92 27.90 18.92C28.26 18.92 28.60 18.62 28.60 18.25C28.60 18.12 28.56 17.99 28.49 17.90C28.11 17.35 26.90 17.07 26.02 17.07C24.24 17.07 23.25 18.06 23.25 19.20C23.25 21.86 27.27 20.95 27.27 22.07C27.27 22.49 26.90 22.80 26.13 22.80C25.55 22.80 24.85 22.56 24.31 22.25C24.20 22.18 24.08 22.15 23.95 22.15C23.57 22.15 23.21 22.47 23.21 22.89C23.21 23.03 23.25 23.16 23.33 23.27C23.75 23.87 25.17 24.17 26.05 24.17C27.93 24.17 28.98 23.23 28.98 22.00ZM33.27 20.60C33.27 20.19 32.94 19.86 32.53 19.86L30.49 19.86C30.08 19.86 29.75 20.19 29.75 20.60C29.75 21.03 30.08 21.37 30.49 21.37L32.53 21.37C32.94 21.37 33.27 21.03 33.27 20.60ZM34.07 20.63C34.07 22.88 35.50 24.17 37.21 24.17C38.02 24.17 38.76 23.80 39.15 23.13L39.15 23.20C39.15 23.69 39.55 24.08 40.05 24.08C40.54 24.08 40.93 23.69 40.93 23.20L40.93 15.45C40.93 14.97 40.54 14.58 40.02 14.58C39.55 14.58 39.15 14.97 39.15 15.45L39.15 18.11C38.76 17.42 38.01 17.07 37.21 17.07C35.49 17.07 34.07 18.41 34.07 20.63ZM35.91 20.63C35.91 19.45 36.59 18.65 37.63 18.65C38.34 18.65 39.15 19.41 39.15 20.56L39.15 20.71C39.15 21.84 38.34 22.59 37.63 22.59C36.59 22.59 35.91 21.80 35.91 20.63ZM49.12 20.40C49.12 20.07 49.02 19.66 48.93 19.35C48.45 17.95 47.29 17.07 45.76 17.07C43.70 17.07 42.26 18.65 42.26 20.61C42.26 22.78 43.82 24.17 45.87 24.17C46.91 24.17 48.41 23.78 48.49 22.98C48.53 22.56 48.11 22.26 47.74 22.26C47.62 22.26 47.50 22.29 47.39 22.35C46.97 22.57 46.45 22.75 46.07 22.75C44.92 22.75 44.24 22.07 44.12 21.21L48.30 21.21C48.76 21.21 49.12 20.84 49.12 20.40ZM44.10 20.01C44.18 19.34 44.66 18.48 45.76 18.48C46.94 18.48 47.39 19.37 47.43 20.01ZM50.02 20.63C50.02 22.88 51.45 24.17 53.15 24.17C53.97 24.17 54.71 23.80 55.10 23.13L55.10 23.20C55.10 23.69 55.49 24.08 56.00 24.08C56.49 24.08 56.88 23.69 56.88 23.20L56.88 15.45C56.88 14.97 56.49 14.58 55.97 14.58C55.49 14.58 55.10 14.97 55.10 15.45L55.10 18.11C54.71 17.42 53.95 17.07 53.15 17.07C51.43 17.07 50.02 18.41 50.02 20.63ZM51.85 20.63C51.85 19.45 52.54 18.65 53.57 18.65C54.29 18.65 55.10 19.41 55.10 20.56L55.10 20.71C55.10 21.84 54.29 22.59 53.57 22.59C52.54 22.59 51.85 21.80 51.85 20.63ZM65.07 20.40C65.07 20.07 64.97 19.66 64.87 19.35C64.40 17.95 63.23 17.07 61.71 17.07C59.65 17.07 58.21 18.65 58.21 20.61C58.21 22.78 59.76 24.17 61.82 24.17C62.86 24.17 64.35 23.78 64.44 22.98C64.48 22.56 64.06 22.26 63.68 22.26C63.57 22.26 63.44 22.29 63.33 22.35C62.91 22.57 62.39 22.75 62.02 22.75C60.87 22.75 60.18 22.07 60.07 21.21L64.24 21.21C64.70 21.21 65.07 20.84 65.07 20.40ZM60.04 20.01C60.13 19.34 60.60 18.48 61.71 18.48C62.88 18.48 63.33 19.37 63.37 20.01ZM72.73 19.65C72.73 18.33 71.59 17.07 70.11 17.07C69.07 17.07 68.43 17.62 68.16 18.04L68.16 18.02C68.16 17.55 67.77 17.15 67.29 17.15C66.78 17.15 66.38 17.55 66.38 18.02L66.38 23.20C66.38 23.69 66.78 24.08 67.27 24.08C67.77 24.08 68.16 23.69 68.16 23.20L68.16 20.22C68.16 19.25 68.86 18.65 69.56 18.65C70.32 18.65 70.95 19.25 70.95 20.19L70.95 23.20C70.95 23.69 71.34 24.08 71.83 24.08C72.33 24.08 72.73 23.69 72.73 23.20ZM78.19 23.36C78.19 22.92 77.91 22.59 77.40 22.59L77.25 22.59C76.97 22.59 76.63 22.38 76.63 21.84L76.63 18.79L77.33 18.79C77.74 18.79 78.09 18.44 78.09 18.02C78.09 17.59 77.74 17.24 77.33 17.24L76.63 17.24L76.63 16.19C76.63 15.70 76.24 15.31 75.75 15.31C75.23 15.31 74.84 15.70 74.84 16.19L74.84 17.24L74.41 17.24C73.99 17.24 73.64 17.59 73.64 17.99C73.64 18.44 73.99 18.79 74.41 18.79L74.84 18.79L74.84 22.32C74.84 23.52 75.51 24.17 76.76 24.17C77.92 24.17 78.19 23.80 78.19 23.36Z" fill="#e6edf3" /><path d="M325.47 23.17C325.47 22.74 325.11 22.38 324.68 22.38L321.86 22.38C324.10 20.74 325.33 19.45 325.33 17.97C325.33 16.24 323.86 15.20 322.01 15.20C320.92 15.20 319.46 15.67 319.05 16.33C318.97 16.45 318.93 16.58 318.93 16.71C318.93 17.18 319.31 17.54 319.74 17.54C319.93 17.54 320.10 17.49 320.27 17.37C320.76 17.03 321.36 16.84 322.05 16.84C322.77 16.84 323.45 17.21 323.45 17.97C323.45 18.98 322.41 19.93 319.18 22.32C318.93 22.50 318.79 22.80 318.79 23.10C318.79 23.62 319.20 24 319.66 24L324.68 24C325.11 24 325.47 23.64 325.47 23.17ZM328.85 23.36C328.85 22.52 328.29 22.04 327.68 22.04C327.13 22.04 326.67 22.50 326.67 23.08C326.67 23.64 327.06 24.01 327.55 24.01C327.64 24.01 327.76 23.99 327.80 23.97C327.72 24.31 327.43 24.71 327.09 24.99C327.00 25.07 326.96 25.17 326.96 25.27C326.96 25.53 327.24 25.69 327.46 25.69C327.59 25.69 327.71 25.65 327.80 25.56C328.45 24.98 328.85 24.20 328.85 23.36ZM332.58 16.32C332.58 15.73 332.09 15.26 331.50 15.26C331.20 15.26 330.92 15.38 330.72 15.58L328.72 17.60C328.56 17.76 328.49 17.95 328.49 18.15C328.49 18.58 328.85 18.92 329.25 18.92C329.43 18.92 329.62 18.85 329.76 18.71L330.73 17.71L330.73 23.17C330.73 23.66 331.15 24.08 331.64 24.08C332.16 24.08 332.58 23.66 332.58 23.17ZM340.34 16.27C340.34 15.72 339.90 15.33 339.44 15.33L334.48 15.33C334.04 15.33 333.67 15.69 333.67 16.12C333.67 16.59 334.04 16.95 334.48 16.95L338.12 16.95L335.53 22.82C335.48 22.93 335.45 23.05 335.45 23.17C335.45 23.64 335.83 24.08 336.38 24.08C336.75 24.08 337.10 23.86 337.25 23.52L340.26 16.63C340.32 16.52 340.34 16.39 340.34 16.27ZM347.74 23.17C347.74 22.74 347.37 22.38 346.95 22.38L344.12 22.38C346.37 20.74 347.60 19.45 347.60 17.97C347.60 16.24 346.13 15.20 344.28 15.20C343.19 15.20 341.73 15.67 341.32 16.33C341.24 16.45 341.20 16.58 341.20 16.71C341.20 17.18 341.58 17.54 342.01 17.54C342.20 17.54 342.37 17.49 342.54 17.37C343.03 17.03 343.63 16.84 344.32 16.84C345.03 16.84 345.72 17.21 345.72 17.97C345.72 18.98 344.68 19.93 341.45 22.32C341.20 22.50 341.06 22.80 341.06 23.10C341.06 23.62 341.47 24 341.93 24L346.95 24C347.37 24 347.74 23.64 347.74 23.17ZM351.12 23.36C351.12 22.52 350.56 22.04 349.95 22.04C349.40 22.04 348.93 22.50 348.93 23.08C348.93 23.64 349.32 24.01 349.82 24.01C349.91 24.01 350.03 23.99 350.07 23.97C349.99 24.31 349.70 24.71 349.36 24.99C349.27 25.07 349.23 25.17 349.23 25.27C349.23 25.53 349.51 25.69 349.73 25.69C349.86 25.69 349.97 25.65 350.07 25.56C350.72 24.98 351.12 24.20 351.12 23.36ZM358.71 21.63C358.81 20.07 357.76 19.53 357.76 19.53C357.76 19.53 358.72 19.03 358.62 17.55C358.51 16.11 357.37 15.20 355.34 15.20C354.15 15.20 353.21 15.55 352.50 16.12C352.31 16.27 352.22 16.47 352.22 16.68C352.22 17.14 352.63 17.46 353.03 17.46C353.19 17.46 353.34 17.42 353.47 17.33C353.98 17.01 354.55 16.84 355.15 16.84C356.06 16.84 356.76 17.04 356.76 17.73C356.76 18.45 356.33 18.79 355.46 18.79C354.84 18.79 354.56 19.14 354.56 19.59C354.56 20.05 354.84 20.41 355.51 20.41C356.40 20.41 356.90 20.72 356.90 21.41C356.90 22.06 356.32 22.52 355.26 22.52C354.67 22.52 353.98 22.31 353.41 21.97C353.26 21.88 353.11 21.84 352.95 21.84C352.52 21.84 352.11 22.19 352.11 22.66C352.11 22.79 352.15 22.91 352.21 23.01C352.61 23.69 354.08 24.16 355.33 24.16C357.41 24.16 358.61 23.26 358.71 21.63ZM366.71 21.62C366.71 20.44 366.00 19.76 365.48 19.53C365.93 19.32 366.56 18.83 366.56 17.49C366.56 15.99 364.95 15.20 363.22 15.20C361.48 15.20 359.88 15.99 359.88 17.49C359.88 18.83 360.50 19.32 360.95 19.53C360.43 19.76 359.74 20.44 359.74 21.62C359.74 23.25 361.40 24.16 363.22 24.16C365.04 24.16 366.71 23.23 366.71 21.62ZM364.68 17.77C364.68 18.42 364.01 18.80 363.22 18.80C362.43 18.80 361.75 18.42 361.75 17.77C361.75 17.15 362.36 16.79 363.22 16.79C364.07 16.79 364.68 17.15 364.68 17.77ZM364.83 21.52C364.83 22.15 364.11 22.57 363.22 22.57C362.31 22.57 361.61 22.15 361.61 21.52C361.61 20.79 362.42 20.36 363.22 20.36C364.01 20.36 364.83 20.79 364.83 21.52ZM374.38 23.17C374.38 22.74 374.01 22.38 373.58 22.38L370.76 22.38C373.01 20.74 374.23 19.45 374.23 17.97C374.23 16.24 372.76 15.20 370.92 15.20C369.83 15.20 368.37 15.67 367.95 16.33C367.88 16.45 367.84 16.58 367.84 16.71C367.84 17.18 368.21 17.54 368.64 17.54C368.84 17.54 369.01 17.49 369.18 17.37C369.67 17.03 370.27 16.84 370.96 16.84C371.67 16.84 372.36 17.21 372.36 17.97C372.36 18.98 371.32 19.93 368.08 22.32C367.84 22.50 367.69 22.80 367.69 23.10C367.69 23.62 368.11 24 368.56 24L373.58 24C374.01 24 374.38 23.64 374.38 23.17ZM377.76 23.36C377.76 22.52 377.20 22.04 376.59 22.04C376.04 22.04 375.57 22.50 375.57 23.08C375.57 23.64 375.96 24.01 376.46 24.01C376.55 24.01 376.66 23.99 376.70 23.97C376.62 24.31 376.34 24.71 376.00 24.99C375.91 25.07 375.87 25.17 375.87 25.27C375.87 25.53 376.14 25.69 376.36 25.69C376.49 25.69 376.61 25.65 376.70 25.56C377.35 24.98 377.76 24.20 377.76 23.36ZM378.68 18.16C378.68 20.01 380.07 20.98 381.63 20.98C382.71 20.98 383.51 20.45 383.85 19.87C383.87 19.93 383.87 19.98 383.87 20.05C383.87 21.43 382.97 22.50 381.69 22.50C381.25 22.50 380.89 22.43 380.56 22.26C380.45 22.19 380.32 22.17 380.19 22.17C379.78 22.17 379.34 22.48 379.34 22.97C379.34 23.10 379.38 23.22 379.43 23.32C379.76 23.90 380.85 24.14 381.69 24.14C384.25 24.14 385.74 22.28 385.74 19.66C385.74 17.21 384.63 15.19 381.99 15.19C380.02 15.19 378.68 16.47 378.68 18.16ZM380.55 18.10C380.55 17.45 381.03 16.82 382.03 16.82C382.85 16.82 383.46 17.38 383.46 18.19C383.46 18.97 382.84 19.53 382.03 19.53C381.20 19.53 380.55 18.97 380.55 18.10ZM386.58 18.16C386.58 20.01 387.97 20.98 389.53 20.98C390.61 20.98 391.42 20.45 391.76 19.87C391.77 19.93 391.77 19.98 391.77 20.05C391.77 21.43 390.87 22.50 389.60 22.50C389.16 22.50 388.79 22.43 388.47 22.26C388.35 22.19 388.22 22.17 388.09 22.17C387.69 22.17 387.25 22.48 387.25 22.97C387.25 23.10 387.28 23.22 387.34 23.32C387.66 23.90 388.75 24.14 389.60 24.14C392.16 24.14 393.64 22.28 393.64 19.66C393.64 17.21 392.54 15.19 389.90 15.19C387.92 15.19 386.58 16.47 386.58 18.16ZM388.45 18.10C388.45 17.45 388.94 16.82 389.94 16.82C390.75 16.82 391.37 17.38 391.37 18.19C391.37 18.97 390.74 19.53 389.94 19.53C389.10 19.53 388.45 18.97 388.45 18.10ZM394.49 18.16C394.49 20.01 395.88 20.98 397.44 20.98C398.52 20.98 399.32 20.45 399.66 19.87C399.67 19.93 399.67 19.98 399.67 20.05C399.67 21.43 398.78 22.50 397.50 22.50C397.06 22.50 396.70 22.43 396.37 22.26C396.25 22.19 396.12 22.17 395.99 22.17C395.59 22.17 395.15 22.48 395.15 22.97C395.15 23.10 395.19 23.22 395.24 23.32C395.56 23.90 396.66 24.14 397.50 24.14C400.06 24.14 401.55 22.28 401.55 19.66C401.55 17.21 400.44 15.19 397.80 15.19C395.82 15.19 394.49 16.47 394.49 18.16ZM396.36 18.10C396.36 17.45 396.84 16.82 397.84 16.82C398.66 16.82 399.27 17.38 399.27 18.19C399.27 18.97 398.65 19.53 397.84 19.53C397.01 19.53 396.36 18.97 396.36 18.10Z" fill="#9aa7b4" /><path transform="translate(301.25, 12)" d="M6 1 L6 7.5 M3 5 L6 8 L9 5 M2 10.5 L10 10.5" fill="none" stroke="#9aa7b4" stroke-width="1.4" stroke-linecap="round" stroke-linejoin="round" /><path d="M24.59 32.54C24.59 32.22 24.36 32.00 24.07 32.00L18.80 32.00C18.52 32.00 18.29 32.22 18.29 32.51C18.29 32.81 18.52 33.05 18.80 33.05L20.84 33.05L20.84 39.48C20.84 39.81 21.11 40.07 21.43 40.07C21.77 40.07 22.03 39.81 22.03 39.48L22.03 33.05L24.07 33.05C24.36 33.05 24.59 32.81 24.59 32.54ZM30.02 34.66C30.02 34.38 29.80 34.13 29.48 34.13C29.27 34.13 29.06 34.26 28.98 34.47L27.28 38.76L25.56 34.47C25.48 34.25 25.27 34.13 25.07 34.13C24.74 34.13 24.53 34.40 24.53 34.66C24.53 34.72 24.54 34.78 24.56 34.84L26.71 40.07L26.38 40.84C26.18 41.26 25.92 41.39 25.60 41.39C25.51 41.40 25.42 41.39 25.32 41.39C25.06 41.39 24.84 41.60 24.84 41.87C24.84 42.27 25.24 42.35 25.61 42.35C26.39 42.35 27.02 41.99 27.40 41.12L29.99 34.84C30.01 34.79 30.02 34.72 30.02 34.66ZM36.67 37.10C36.67 35.20 35.60 34.06 34.09 34.06C33.30 34.06 32.60 34.46 32.18 35.03L32.18 34.65C32.18 34.37 31.94 34.13 31.67 34.13C31.36 34.13 31.12 34.37 31.12 34.65L31.12 41.76C31.12 42.04 31.36 42.28 31.64 42.28C31.94 42.28 32.18 42.04 32.18 41.76L32.18 39.16C32.65 39.80 33.32 40.14 34.09 40.14C35.60 40.14 36.67 38.98 36.67 37.10ZM35.54 37.10C35.54 38.31 35.00 39.20 33.91 39.20C32.90 39.20 32.18 38.32 32.18 37.13L32.18 37.06C32.18 35.87 32.90 35.01 33.91 35.01C35.00 35.01 35.54 35.88 35.54 37.10ZM43.37 36.90C43.37 36.68 43.31 36.42 43.26 36.23C42.92 34.94 41.96 34.06 40.56 34.06C38.88 34.06 37.67 35.42 37.67 37.10C37.67 38.92 38.93 40.14 40.66 40.14C41.51 40.14 43.00 39.70 43.00 39.05C43.00 38.64 42.59 38.55 42.32 38.68C41.90 38.99 41.26 39.28 40.76 39.28C39.59 39.28 38.87 38.48 38.78 37.48L42.82 37.48C43.12 37.48 43.37 37.19 43.37 36.90ZM38.78 36.69C38.83 35.88 39.40 34.92 40.55 34.92C41.78 34.92 42.31 35.91 42.34 36.69ZM50.45 37.73C50.45 34.74 45.74 35.73 45.74 34.07C45.74 33.39 46.36 32.92 47.26 32.92C47.95 32.92 48.65 33.12 49.24 33.56C49.33 33.63 49.45 33.66 49.56 33.66C49.86 33.66 50.12 33.41 50.12 33.11C50.12 32.98 50.08 32.84 49.97 32.74C49.37 32.19 48.35 31.88 47.35 31.88C45.70 31.88 44.52 32.84 44.52 34.16C44.52 37.05 49.22 35.96 49.22 37.85C49.22 38.42 48.77 39.10 47.47 39.10C46.60 39.10 45.85 38.75 45.30 38.28C45.20 38.21 45.07 38.18 44.96 38.18C44.64 38.18 44.41 38.46 44.41 38.76C44.41 38.90 44.46 39.03 44.56 39.14C45.18 39.75 46.25 40.14 47.42 40.14C49.58 40.14 50.45 38.98 50.45 37.73ZM56.44 39.12C56.44 38.85 56.18 38.66 55.93 38.66C55.81 38.66 55.69 38.69 55.60 38.76C55.27 39.05 54.90 39.20 54.47 39.20C53.32 39.20 52.57 38.31 52.57 37.10C52.57 35.88 53.32 35.01 54.47 35.01C54.89 35.01 55.27 35.14 55.60 35.43C55.69 35.51 55.81 35.56 55.93 35.56C56.20 35.56 56.42 35.34 56.42 35.08C56.42 34.98 56.40 34.90 56.34 34.83C55.94 34.37 55.30 34.06 54.41 34.06C52.67 34.06 51.47 35.37 51.47 37.10C51.47 38.84 52.67 40.14 54.41 40.14C55.27 40.14 55.86 39.86 56.29 39.44C56.39 39.35 56.44 39.23 56.44 39.12ZM60.82 34.60C60.82 34.32 60.61 34.12 60.34 34.12C59.69 34.12 59.16 34.66 58.84 35.10L58.84 34.65C58.84 34.37 58.60 34.13 58.32 34.13C58.01 34.13 57.77 34.37 57.77 34.65L57.77 39.54C57.77 39.83 58.00 40.06 58.28 40.07L58.30 40.07C58.60 40.07 58.84 39.83 58.84 39.54L58.84 36.57C58.84 35.81 59.36 35.21 60.28 35.16C60.58 35.15 60.82 34.91 60.82 34.60ZM62.35 32.06C61.98 32.06 61.67 32.37 61.67 32.75C61.67 33.12 61.98 33.44 62.35 33.44C62.74 33.44 63.04 33.12 63.04 32.75C63.04 32.37 62.74 32.06 62.35 32.06ZM62.89 34.65C62.89 34.37 62.65 34.13 62.38 34.13C62.06 34.13 61.82 34.37 61.82 34.65L61.82 39.54C61.82 39.83 62.06 40.07 62.35 40.07C62.65 40.07 62.89 39.83 62.89 39.54ZM70.18 37.10C70.18 35.20 69.11 34.06 67.60 34.06C66.80 34.06 66.11 34.46 65.69 35.03L65.69 34.65C65.69 34.37 65.45 34.13 65.17 34.13C64.86 34.13 64.62 34.37 64.62 34.65L64.62 41.76C64.62 42.04 64.86 42.28 65.15 42.28C65.45 42.28 65.69 42.04 65.69 41.76L65.69 39.16C66.16 39.80 66.83 40.14 67.60 40.14C69.11 40.14 70.18 38.98 70.18 37.10ZM69.05 37.10C69.05 38.31 68.51 39.20 67.42 39.20C66.41 39.20 65.69 38.32 65.69 37.13L65.69 37.06C65.69 35.87 66.41 35.01 67.42 35.01C68.51 35.01 69.05 35.88 69.05 37.10ZM74.22 39.58C74.22 39.33 74.03 39.14 73.76 39.14C73.64 39.14 73.50 39.20 73.37 39.20C73.02 39.20 72.80 38.92 72.80 38.48L72.80 35.14L73.60 35.14C73.85 35.14 74.05 34.94 74.05 34.68C74.05 34.41 73.85 34.20 73.60 34.20L72.80 34.20L72.80 33.06C72.80 32.79 72.56 32.55 72.28 32.55C71.96 32.55 71.72 32.79 71.72 33.06L71.72 34.20L71.16 34.20C70.90 34.20 70.69 34.41 70.69 34.66C70.69 34.94 70.90 35.14 71.16 35.14L71.72 35.14L71.72 38.73C71.72 39.64 72.20 40.14 73.12 40.14C73.75 40.14 74.22 39.96 74.22 39.58ZM83.83 37.10C83.83 35.20 82.76 34.06 81.25 34.06C80.46 34.06 79.76 34.46 79.34 35.03L79.34 34.65C79.34 34.37 79.10 34.13 78.83 34.13C78.52 34.13 78.28 34.37 78.28 34.65L78.28 41.76C78.28 42.04 78.52 42.28 78.80 42.28C79.10 42.28 79.34 42.04 79.34 41.76L79.34 39.16C79.81 39.80 80.48 40.14 81.25 40.14C82.76 40.14 83.83 38.98 83.83 37.10ZM82.70 37.10C82.70 38.31 82.16 39.20 81.07 39.20C80.06 39.20 79.34 38.32 79.34 37.13L79.34 37.06C79.34 35.87 80.06 35.01 81.07 35.01C82.16 35.01 82.70 35.88 82.70 37.10ZM89.83 36.08C89.83 34.60 88.75 34.06 87.50 34.06C86.72 34.06 85.85 34.31 85.30 34.86C85.22 34.95 85.19 35.04 85.19 35.14C85.19 35.39 85.42 35.56 85.63 35.56C85.72 35.56 85.81 35.52 85.90 35.46C86.33 35.13 86.81 34.96 87.35 34.96C88.16 34.96 88.76 35.39 88.76 36.12L88.76 36.45L87.10 36.45C85.90 36.45 84.84 36.92 84.84 38.22C84.84 39.50 85.90 40.14 86.86 40.14C87.76 40.14 88.30 39.87 88.76 39.35L88.76 39.54C88.76 39.89 89.04 40.07 89.26 40.07L89.29 40.07C89.59 40.07 89.83 39.83 89.83 39.54ZM88.76 37.19L88.76 38.01C88.76 38.69 87.98 39.39 87.14 39.39C86.36 39.39 85.92 38.92 85.92 38.25C85.92 37.55 86.47 37.19 87.38 37.19ZM96.17 39.12C96.17 38.85 95.92 38.66 95.66 38.66C95.54 38.66 95.42 38.69 95.33 38.76C95.00 39.05 94.63 39.20 94.20 39.20C93.05 39.20 92.30 38.31 92.30 37.10C92.30 35.88 93.05 35.01 94.20 35.01C94.62 35.01 95.00 35.14 95.33 35.43C95.42 35.51 95.54 35.56 95.66 35.56C95.93 35.56 96.16 35.34 96.16 35.08C96.16 34.98 96.13 34.90 96.07 34.83C95.68 34.37 95.03 34.06 94.14 34.06C92.40 34.06 91.20 35.37 91.20 37.10C91.20 38.84 92.40 40.14 94.14 40.14C95.00 40.14 95.59 39.86 96.02 39.44C96.12 39.35 96.17 39.23 96.17 39.12ZM102.24 39.54C102.24 39.44 102.20 39.32 102.13 39.23L100.22 36.83L102.02 34.95C102.11 34.85 102.16 34.74 102.16 34.62C102.16 34.36 101.92 34.12 101.65 34.12C101.53 34.12 101.40 34.18 101.30 34.28L98.57 37.16L98.57 32.44C98.57 32.16 98.33 31.92 98.05 31.92C97.74 31.92 97.50 32.16 97.50 32.44L97.50 39.54C97.50 39.83 97.74 40.07 98.03 40.07C98.33 40.07 98.57 39.83 98.57 39.54L98.57 38.39L99.46 37.49L101.29 39.87C101.39 40.01 101.56 40.08 101.71 40.08C102.04 40.08 102.24 39.80 102.24 39.54ZM108.40 36.08C108.40 34.60 107.32 34.06 106.07 34.06C105.29 34.06 104.41 34.31 103.86 34.86C103.79 34.95 103.75 35.04 103.75 35.14C103.75 35.39 103.98 35.56 104.20 35.56C104.28 35.56 104.38 35.52 104.46 35.46C104.89 35.13 105.37 34.96 105.91 34.96C106.73 34.96 107.33 35.39 107.33 36.12L107.33 36.45L105.66 36.45C104.46 36.45 103.40 36.92 103.40 38.22C103.40 39.50 104.46 40.14 105.42 40.14C106.32 40.14 106.86 39.87 107.33 39.35L107.33 39.54C107.33 39.89 107.60 40.07 107.82 40.07L107.86 40.07C108.16 40.07 108.40 39.83 108.40 39.54ZM107.33 37.19L107.33 38.01C107.33 38.69 106.55 39.39 105.71 39.39C104.93 39.39 104.48 38.92 104.48 38.25C104.48 37.55 105.04 37.19 105.95 37.19ZM115.31 34.65C115.31 34.37 115.07 34.13 114.79 34.13C114.48 34.13 114.24 34.37 114.24 34.65L114.24 35.04C113.77 34.42 113.10 34.06 112.33 34.06C110.83 34.06 109.76 35.19 109.76 37.06C109.76 38.94 110.84 40.05 112.33 40.05C113.12 40.05 113.81 39.63 114.24 39.04L114.24 39.81C114.24 41.04 113.35 41.48 112.45 41.48C111.82 41.48 111.31 41.34 110.87 40.97C110.78 40.91 110.70 40.89 110.59 40.89C110.35 40.89 110.14 41.09 110.14 41.34C110.14 41.46 110.18 41.57 110.26 41.64C110.82 42.18 111.64 42.35 112.45 42.35C113.87 42.35 115.31 41.76 115.31 39.77ZM114.24 37.07C114.24 38.26 113.46 39.10 112.50 39.10C111.42 39.10 110.87 38.25 110.87 37.06C110.87 35.85 111.42 35.01 112.50 35.01C113.46 35.01 114.24 35.84 114.24 37.02ZM122.39 36.90C122.39 36.68 122.33 36.42 122.28 36.23C121.94 34.94 120.98 34.06 119.58 34.06C117.90 34.06 116.69 35.42 116.69 37.10C116.69 38.92 117.95 40.14 119.68 40.14C120.53 40.14 122.02 39.70 122.02 39.05C122.02 38.64 121.61 38.55 121.34 38.68C120.92 38.99 120.28 39.28 119.78 39.28C118.61 39.28 117.89 38.48 117.80 37.48L121.84 37.48C122.14 37.48 122.39 37.19 122.39 36.90ZM117.80 36.69C117.85 35.88 118.42 34.92 119.57 34.92C120.80 34.92 121.33 35.91 121.36 36.69ZM134.63 34.65C134.63 34.37 134.41 34.13 134.10 34.13C133.87 34.13 133.66 34.28 133.60 34.49L132.36 38.63L131.00 34.54C130.92 34.30 130.70 34.13 130.45 34.13C130.16 34.13 129.95 34.30 129.86 34.54L128.52 38.63L127.28 34.49C127.21 34.28 126.98 34.13 126.76 34.13C126.46 34.13 126.24 34.40 126.24 34.65C126.24 34.70 126.25 34.74 126.26 34.79L127.78 39.58C127.87 39.87 128.14 40.07 128.44 40.07L128.46 40.07C128.77 40.07 129.05 39.87 129.13 39.58L130.44 35.54L131.74 39.58C131.83 39.87 132.10 40.07 132.41 40.07L132.42 40.07C132.73 40.07 133.01 39.87 133.09 39.58L134.60 34.79C134.62 34.74 134.63 34.70 134.63 34.65ZM140.75 36.26C140.75 35.03 139.87 34.06 138.65 34.06C137.63 34.06 137.10 34.55 136.82 35.02L136.82 32.44C136.82 32.16 136.58 31.92 136.31 31.92C136.00 31.92 135.76 32.16 135.76 32.44L135.76 39.54C135.76 39.83 136.00 40.07 136.28 40.07C136.58 40.07 136.82 39.83 136.82 39.54L136.82 36.82C136.82 35.74 137.40 35.01 138.31 35.01C139.18 35.01 139.68 35.66 139.68 36.62L139.68 39.54C139.68 39.83 139.92 40.07 140.21 40.07C140.51 40.07 140.75 39.83 140.75 39.54ZM143.00 32.06C142.63 32.06 142.32 32.37 142.32 32.75C142.32 33.12 142.63 33.44 143.00 33.44C143.39 33.44 143.69 33.12 143.69 32.75C143.69 32.37 143.39 32.06 143.00 32.06ZM143.54 34.65C143.54 34.37 143.30 34.13 143.03 34.13C142.72 34.13 142.48 34.37 142.48 34.65L142.48 39.54C142.48 39.83 142.72 40.07 143.00 40.07C143.30 40.07 143.54 39.83 143.54 39.54ZM149.89 39.12C149.89 38.85 149.64 38.66 149.39 38.66C149.27 38.66 149.15 38.69 149.05 38.76C148.73 39.05 148.36 39.20 147.92 39.20C146.77 39.20 146.03 38.31 146.03 37.10C146.03 35.88 146.77 35.01 147.92 35.01C148.34 35.01 148.73 35.14 149.05 35.43C149.15 35.51 149.27 35.56 149.39 35.56C149.65 35.56 149.88 35.34 149.88 35.08C149.88 34.98 149.86 34.90 149.80 34.83C149.40 34.37 148.75 34.06 147.86 34.06C146.12 34.06 144.92 35.37 144.92 37.10C144.92 38.84 146.12 40.14 147.86 40.14C148.73 40.14 149.32 39.86 149.75 39.44C149.84 39.35 149.89 39.23 149.89 39.12ZM156.22 36.26C156.22 35.03 155.34 34.06 154.12 34.06C153.10 34.06 152.57 34.55 152.29 35.02L152.29 32.44C152.29 32.16 152.05 31.92 151.78 31.92C151.46 31.92 151.22 32.16 151.22 32.44L151.22 39.54C151.22 39.83 151.46 40.07 151.75 40.07C152.05 40.07 152.29 39.83 152.29 39.54L152.29 36.82C152.29 35.74 152.87 35.01 153.78 35.01C154.64 35.01 155.15 35.66 155.15 36.62L155.15 39.54C155.15 39.83 155.39 40.07 155.68 40.07C155.98 40.07 156.22 39.83 156.22 39.54ZM165.28 38.25C165.17 36.21 161.84 36.77 161.72 35.73C161.68 35.26 162.18 34.91 162.91 34.91C163.46 34.91 163.98 35.09 164.35 35.36C164.42 35.42 164.51 35.44 164.60 35.44C164.82 35.44 165.02 35.26 165.02 35.02C165.02 34.92 164.99 34.83 164.92 34.76C164.46 34.31 163.73 34.06 162.90 34.06C161.48 34.06 160.63 34.73 160.69 35.76C160.80 37.71 164.11 37.11 164.23 38.39C164.28 38.92 163.80 39.29 162.97 39.29C162.37 39.29 161.77 39.05 161.34 38.74C161.26 38.68 161.17 38.66 161.06 38.66C160.81 38.66 160.60 38.85 160.60 39.10C160.60 39.22 160.64 39.32 160.73 39.39C161.26 39.92 162.13 40.14 162.92 40.14C164.46 40.14 165.34 39.35 165.28 38.25ZM174.76 36.29C174.76 35.12 173.95 34.06 172.75 34.06C171.91 34.06 171.34 34.52 171 35.16C170.82 34.67 170.18 34.06 169.22 34.06C168.38 34.06 167.95 34.54 167.71 34.90L167.71 34.65C167.71 34.37 167.47 34.13 167.20 34.13C166.88 34.13 166.64 34.37 166.64 34.65L166.64 39.54C166.64 39.83 166.88 40.07 167.17 40.07C167.47 40.07 167.71 39.83 167.71 39.54L167.71 36.70C167.71 35.79 168.14 35.01 168.98 35.01C169.82 35.01 170.16 35.69 170.16 36.62L170.16 39.54C170.16 39.83 170.40 40.07 170.69 40.07C170.99 40.07 171.23 39.83 171.23 39.54L171.23 36.69C171.23 35.79 171.64 35.01 172.48 35.01C173.32 35.01 173.69 35.69 173.69 36.62L173.69 39.54C173.69 39.83 173.93 40.07 174.22 40.07C174.52 40.07 174.76 39.83 174.76 39.54ZM181.14 36.08C181.14 34.60 180.06 34.06 178.81 34.06C178.03 34.06 177.16 34.31 176.60 34.86C176.53 34.95 176.50 35.04 176.50 35.14C176.50 35.39 176.72 35.56 176.94 35.56C177.02 35.56 177.12 35.52 177.20 35.46C177.64 35.13 178.12 34.96 178.66 34.96C179.47 34.96 180.07 35.39 180.07 36.12L180.07 36.45L178.40 36.45C177.20 36.45 176.15 36.92 176.15 38.22C176.15 39.50 177.20 40.14 178.16 40.14C179.06 40.14 179.60 39.87 180.07 39.35L180.07 39.54C180.07 39.89 180.35 40.07 180.56 40.07L180.60 40.07C180.90 40.07 181.14 39.83 181.14 39.54ZM180.07 37.19L180.07 38.01C180.07 38.69 179.29 39.39 178.45 39.39C177.67 39.39 177.23 38.92 177.23 38.25C177.23 37.55 177.78 37.19 178.69 37.19ZM185.90 34.60C185.90 34.32 185.70 34.12 185.42 34.12C184.78 34.12 184.25 34.66 183.92 35.10L183.92 34.65C183.92 34.37 183.68 34.13 183.41 34.13C183.10 34.13 182.86 34.37 182.86 34.65L182.86 39.54C182.86 39.83 183.08 40.06 183.37 40.07L183.38 40.07C183.68 40.07 183.92 39.83 183.92 39.54L183.92 36.57C183.92 35.81 184.45 35.21 185.36 35.16C185.66 35.15 185.90 34.91 185.90 34.60ZM189.61 39.58C189.61 39.33 189.42 39.14 189.16 39.14C189.04 39.14 188.89 39.20 188.76 39.20C188.41 39.20 188.20 38.92 188.20 38.48L188.20 35.14L188.99 35.14C189.24 35.14 189.44 34.94 189.44 34.68C189.44 34.41 189.24 34.20 188.99 34.20L188.20 34.20L188.20 33.06C188.20 32.79 187.96 32.55 187.67 32.55C187.36 32.55 187.12 32.79 187.12 33.06L187.12 34.20L186.55 34.20C186.29 34.20 186.08 34.41 186.08 34.66C186.08 34.94 186.29 35.14 186.55 35.14L187.12 35.14L187.12 38.73C187.12 39.64 187.60 40.14 188.51 40.14C189.14 40.14 189.61 39.96 189.61 39.58ZM191.65 32.44C191.65 32.16 191.41 31.92 191.14 31.92C190.82 31.92 190.58 32.16 190.58 32.44L190.58 39.54C190.58 39.83 190.82 40.07 191.11 40.07C191.41 40.07 191.65 39.83 191.65 39.54ZM198.24 34.66C198.24 34.38 198.01 34.13 197.70 34.13C197.48 34.13 197.28 34.26 197.20 34.47L195.49 38.76L193.78 34.47C193.69 34.25 193.49 34.13 193.28 34.13C192.96 34.13 192.74 34.40 192.74 34.66C192.74 34.72 192.76 34.78 192.78 34.84L194.93 40.07L194.59 40.84C194.40 41.26 194.14 41.39 193.81 41.39C193.73 41.40 193.63 41.39 193.54 41.39C193.27 41.39 193.06 41.60 193.06 41.87C193.06 42.27 193.45 42.35 193.82 42.35C194.60 42.35 195.24 41.99 195.61 41.12L198.20 34.84C198.23 34.79 198.24 34.72 198.24 34.66ZM205.12 39.58C205.12 39.33 204.92 39.14 204.66 39.14C204.54 39.14 204.40 39.20 204.26 39.20C203.92 39.20 203.70 38.92 203.70 38.48L203.70 35.14L204.49 35.14C204.74 35.14 204.95 34.94 204.95 34.68C204.95 34.41 204.74 34.20 204.49 34.20L203.70 34.20L203.70 33.06C203.70 32.79 203.46 32.55 203.17 32.55C202.86 32.55 202.62 32.79 202.62 33.06L202.62 34.20L202.06 34.20C201.79 34.20 201.59 34.41 201.59 34.66C201.59 34.94 201.79 35.14 202.06 35.14L202.62 35.14L202.62 38.73C202.62 39.64 203.10 40.14 204.01 40.14C204.65 40.14 205.12 39.96 205.12 39.58ZM209.14 34.60C209.14 34.32 208.93 34.12 208.66 34.12C208.01 34.12 207.48 34.66 207.16 35.10L207.16 34.65C207.16 34.37 206.92 34.13 206.64 34.13C206.33 34.13 206.09 34.37 206.09 34.65L206.09 39.54C206.09 39.83 206.32 40.06 206.60 40.07L206.62 40.07C206.92 40.07 207.16 39.83 207.16 39.54L207.16 36.57C207.16 35.81 207.68 35.21 208.60 35.16C208.90 35.15 209.14 34.91 209.14 34.60ZM210.67 32.06C210.30 32.06 209.99 32.37 209.99 32.75C209.99 33.12 210.30 33.44 210.67 33.44C211.06 33.44 211.36 33.12 211.36 32.75C211.36 32.37 211.06 32.06 210.67 32.06ZM211.21 34.65C211.21 34.37 210.97 34.13 210.70 34.13C210.38 34.13 210.14 34.37 210.14 34.65L210.14 39.54C210.14 39.83 210.38 40.07 210.67 40.07C210.97 40.07 211.21 39.83 211.21 39.54ZM221.05 36.29C221.05 35.12 220.25 34.06 219.05 34.06C218.21 34.06 217.63 34.52 217.30 35.16C217.12 34.67 216.48 34.06 215.52 34.06C214.68 34.06 214.25 34.54 214.01 34.90L214.01 34.65C214.01 34.37 213.77 34.13 213.49 34.13C213.18 34.13 212.94 34.37 212.94 34.65L212.94 39.54C212.94 39.83 213.18 40.07 213.47 40.07C213.77 40.07 214.01 39.83 214.01 39.54L214.01 36.70C214.01 35.79 214.44 35.01 215.28 35.01C216.12 35.01 216.46 35.69 216.46 36.62L216.46 39.54C216.46 39.83 216.70 40.07 216.98 40.07C217.28 40.07 217.52 39.83 217.52 39.54L217.52 36.69C217.52 35.79 217.93 35.01 218.77 35.01C219.61 35.01 219.98 35.69 219.98 36.62L219.98 39.54C219.98 39.83 220.22 40.07 220.51 40.07C220.81 40.07 221.05 39.83 221.05 39.54ZM227.03 38.25C226.92 36.21 223.60 36.77 223.48 35.73C223.43 35.26 223.93 34.91 224.66 34.91C225.22 34.91 225.73 35.09 226.10 35.36C226.18 35.42 226.26 35.44 226.36 35.44C226.57 35.44 226.78 35.26 226.78 35.02C226.78 34.92 226.74 34.83 226.67 34.76C226.21 34.31 225.48 34.06 224.65 34.06C223.24 34.06 222.38 34.73 222.44 35.76C222.55 37.71 225.86 37.11 225.98 38.39C226.03 38.92 225.55 39.29 224.72 39.29C224.12 39.29 223.52 39.05 223.09 38.74C223.01 38.68 222.92 38.66 222.82 38.66C222.56 38.66 222.35 38.85 222.35 39.10C222.35 39.22 222.40 39.32 222.48 39.39C223.01 39.92 223.88 40.14 224.68 40.14C226.21 40.14 227.09 39.35 227.03 38.25ZM236.14 36.08C236.14 34.60 235.06 34.06 233.81 34.06C233.03 34.06 232.15 34.31 231.60 34.86C231.53 34.95 231.49 35.04 231.49 35.14C231.49 35.39 231.72 35.56 231.94 35.56C232.02 35.56 232.12 35.52 232.20 35.46C232.63 35.13 233.11 34.96 233.65 34.96C234.47 34.96 235.07 35.39 235.07 36.12L235.07 36.45L233.40 36.45C232.20 36.45 231.14 36.92 231.14 38.22C231.14 39.50 232.20 40.14 233.16 40.14C234.06 40.14 234.60 39.87 235.07 39.35L235.07 39.54C235.07 39.89 235.34 40.07 235.56 40.07L235.60 40.07C235.90 40.07 236.14 39.83 236.14 39.54ZM235.07 37.19L235.07 38.01C235.07 38.69 234.29 39.39 233.45 39.39C232.67 39.39 232.22 38.92 232.22 38.25C232.22 37.55 232.78 37.19 233.69 37.19ZM242.83 36.28C242.83 35.06 241.94 34.06 240.72 34.06C239.71 34.06 239.20 34.55 238.92 35.02L238.92 34.65C238.92 34.37 238.68 34.13 238.40 34.13C238.09 34.13 237.85 34.37 237.85 34.65L237.85 39.54C237.85 39.83 238.09 40.07 238.38 40.07C238.68 40.07 238.92 39.83 238.92 39.54L238.92 36.76C238.92 35.78 239.45 35.01 240.37 35.01C241.24 35.01 241.76 35.68 241.76 36.64L241.76 39.54C241.76 39.83 242.00 40.07 242.29 40.07C242.59 40.07 242.83 39.83 242.83 39.54ZM249.77 32.44C249.77 32.16 249.53 31.92 249.25 31.92C248.94 31.92 248.70 32.16 248.70 32.44L248.70 35.04C248.23 34.42 247.67 34.06 246.79 34.06C245.28 34.06 244.21 35.25 244.21 37.11C244.21 39.00 245.29 40.14 246.79 40.14C247.69 40.14 248.26 39.75 248.70 39.17L248.70 39.54C248.70 39.83 248.94 40.07 249.23 40.07C249.53 40.07 249.77 39.83 249.77 39.54ZM248.70 37.14C248.70 38.34 248.10 39.20 247.07 39.20C245.99 39.20 245.32 38.32 245.32 37.11C245.32 35.90 245.99 35.01 247.07 35.01C248.10 35.01 248.70 35.88 248.70 37.07ZM258.83 38.25C258.72 36.21 255.40 36.77 255.28 35.73C255.23 35.26 255.73 34.91 256.46 34.91C257.02 34.91 257.53 35.09 257.90 35.36C257.98 35.42 258.06 35.44 258.16 35.44C258.37 35.44 258.58 35.26 258.58 35.02C258.58 34.92 258.54 34.83 258.47 34.76C258.01 34.31 257.28 34.06 256.45 34.06C255.04 34.06 254.18 34.73 254.24 35.76C254.35 37.71 257.66 37.11 257.78 38.39C257.83 38.92 257.35 39.29 256.52 39.29C255.92 39.29 255.32 39.05 254.89 38.74C254.81 38.68 254.72 38.66 254.62 38.66C254.36 38.66 254.15 38.85 254.15 39.10C254.15 39.22 254.20 39.32 254.28 39.39C254.81 39.92 255.68 40.14 256.48 40.14C258.01 40.14 258.89 39.35 258.83 38.25ZM262.90 39.58C262.90 39.33 262.70 39.14 262.44 39.14C262.32 39.14 262.18 39.20 262.04 39.20C261.70 39.20 261.48 38.92 261.48 38.48L261.48 35.14L262.27 35.14C262.52 35.14 262.73 34.94 262.73 34.68C262.73 34.41 262.52 34.20 262.27 34.20L261.48 34.20L261.48 33.06C261.48 32.79 261.24 32.55 260.95 32.55C260.64 32.55 260.40 32.79 260.40 33.06L260.40 34.20L259.84 34.20C259.57 34.20 259.37 34.41 259.37 34.66C259.37 34.94 259.57 35.14 259.84 35.14L260.40 35.14L260.40 38.73C260.40 39.64 260.88 40.14 261.79 40.14C262.43 40.14 262.90 39.96 262.90 39.58ZM266.92 34.60C266.92 34.32 266.71 34.12 266.44 34.12C265.79 34.12 265.26 34.66 264.94 35.10L264.94 34.65C264.94 34.37 264.70 34.13 264.42 34.13C264.11 34.13 263.87 34.37 263.87 34.65L263.87 39.54C263.87 39.83 264.10 40.06 264.38 40.07L264.40 40.07C264.70 40.07 264.94 39.83 264.94 39.54L264.94 36.57C264.94 35.81 265.46 35.21 266.38 35.16C266.68 35.15 266.92 34.91 266.92 34.60ZM268.45 32.06C268.08 32.06 267.77 32.37 267.77 32.75C267.77 33.12 268.08 33.44 268.45 33.44C268.84 33.44 269.14 33.12 269.14 32.75C269.14 32.37 268.84 32.06 268.45 32.06ZM268.99 34.65C268.99 34.37 268.75 34.13 268.48 34.13C268.16 34.13 267.92 34.37 267.92 34.65L267.92 39.54C267.92 39.83 268.16 40.07 268.45 40.07C268.75 40.07 268.99 39.83 268.99 39.54ZM276.28 37.10C276.28 35.20 275.21 34.06 273.70 34.06C272.90 34.06 272.21 34.46 271.79 35.03L271.79 34.65C271.79 34.37 271.55 34.13 271.27 34.13C270.96 34.13 270.72 34.37 270.72 34.65L270.72 41.76C270.72 42.04 270.96 42.28 271.25 42.28C271.55 42.28 271.79 42.04 271.79 41.76L271.79 39.16C272.26 39.80 272.93 40.14 273.70 40.14C275.21 40.14 276.28 38.98 276.28 37.10ZM275.15 37.10C275.15 38.31 274.61 39.20 273.52 39.20C272.51 39.20 271.79 38.32 271.79 37.13L271.79 37.06C271.79 35.87 272.51 35.01 273.52 35.01C274.61 35.01 275.15 35.88 275.15 37.10ZM281.87 38.25C281.76 36.21 278.44 36.77 278.32 35.73C278.27 35.26 278.77 34.91 279.50 34.91C280.06 34.91 280.57 35.09 280.94 35.36C281.02 35.42 281.10 35.44 281.20 35.44C281.41 35.44 281.62 35.26 281.62 35.02C281.62 34.92 281.58 34.83 281.51 34.76C281.05 34.31 280.32 34.06 279.49 34.06C278.08 34.06 277.22 34.73 277.28 35.76C277.39 37.71 280.70 37.11 280.82 38.39C280.87 38.92 280.39 39.29 279.56 39.29C278.96 39.29 278.36 39.05 277.93 38.74C277.85 38.68 277.76 38.66 277.66 38.66C277.40 38.66 277.19 38.85 277.19 39.10C277.19 39.22 277.24 39.32 277.32 39.39C277.85 39.92 278.72 40.14 279.52 40.14C281.05 40.14 281.93 39.35 281.87 38.25ZM286.85 32.06C286.48 32.06 286.16 32.37 286.16 32.75C286.16 33.12 286.48 33.44 286.85 33.44C287.23 33.44 287.53 33.12 287.53 32.75C287.53 32.37 287.23 32.06 286.85 32.06ZM287.39 34.65C287.39 34.37 287.15 34.13 286.87 34.13C286.56 34.13 286.32 34.37 286.32 34.65L286.32 39.54C286.32 39.83 286.56 40.07 286.85 40.07C287.15 40.07 287.39 39.83 287.39 39.54ZM294.10 36.28C294.10 35.06 293.21 34.06 291.98 34.06C290.98 34.06 290.46 34.55 290.18 35.02L290.18 34.65C290.18 34.37 289.94 34.13 289.67 34.13C289.36 34.13 289.12 34.37 289.12 34.65L289.12 39.54C289.12 39.83 289.36 40.07 289.64 40.07C289.94 40.07 290.18 39.83 290.18 39.54L290.18 36.76C290.18 35.78 290.71 35.01 291.64 35.01C292.50 35.01 293.03 35.68 293.03 36.64L293.03 39.54C293.03 39.83 293.27 40.07 293.56 40.07C293.86 40.07 294.10 39.83 294.10 39.54ZM301.03 32.44C301.03 32.16 300.79 31.92 300.52 31.92C300.20 31.92 299.96 32.16 299.96 32.44L299.96 35.04C299.50 34.42 298.93 34.06 298.06 34.06C296.54 34.06 295.48 35.25 295.48 37.11C295.48 39.00 296.56 40.14 298.06 40.14C298.96 40.14 299.52 39.75 299.96 39.17L299.96 39.54C299.96 39.83 300.20 40.07 300.49 40.07C300.79 40.07 301.03 39.83 301.03 39.54ZM299.96 37.14C299.96 38.34 299.36 39.20 298.33 39.20C297.25 39.20 296.58 38.32 296.58 37.11C296.58 35.90 297.25 35.01 298.33 35.01C299.36 35.01 299.96 35.88 299.96 37.07ZM308.11 36.90C308.11 36.68 308.05 36.42 308.00 36.23C307.67 34.94 306.71 34.06 305.30 34.06C303.62 34.06 302.41 35.42 302.41 37.10C302.41 38.92 303.67 40.14 305.40 40.14C306.25 40.14 307.74 39.70 307.74 39.05C307.74 38.64 307.33 38.55 307.07 38.68C306.65 38.99 306 39.28 305.51 39.28C304.33 39.28 303.61 38.48 303.53 37.48L307.56 37.48C307.86 37.48 308.11 37.19 308.11 36.90ZM303.53 36.69C303.58 35.88 304.14 34.92 305.29 34.92C306.53 34.92 307.06 35.91 307.08 36.69ZM314.46 36.28C314.46 35.06 313.57 34.06 312.35 34.06C311.34 34.06 310.82 34.55 310.55 35.02L310.55 34.65C310.55 34.37 310.31 34.13 310.03 34.13C309.72 34.13 309.48 34.37 309.48 34.65L309.48 39.54C309.48 39.83 309.72 40.07 310.01 40.07C310.31 40.07 310.55 39.83 310.55 39.54L310.55 36.76C310.55 35.78 311.08 35.01 312.00 35.01C312.86 35.01 313.39 35.68 313.39 36.64L313.39 39.54C313.39 39.83 313.63 40.07 313.92 40.07C314.22 40.07 314.46 39.83 314.46 39.54ZM318.89 39.58C318.89 39.33 318.70 39.14 318.43 39.14C318.31 39.14 318.17 39.20 318.04 39.20C317.69 39.20 317.47 38.92 317.47 38.48L317.47 35.14L318.26 35.14C318.52 35.14 318.72 34.94 318.72 34.68C318.72 34.41 318.52 34.20 318.26 34.20L317.47 34.20L317.47 33.06C317.47 32.79 317.23 32.55 316.94 32.55C316.63 32.55 316.39 32.79 316.39 33.06L316.39 34.20L315.83 34.20C315.56 34.20 315.36 34.41 315.36 34.66C315.36 34.94 315.56 35.14 315.83 35.14L316.39 35.14L316.39 38.73C316.39 39.64 316.87 40.14 317.78 40.14C318.42 40.14 318.89 39.96 318.89 39.58ZM324.52 36.08C324.52 34.60 323.44 34.06 322.19 34.06C321.41 34.06 320.53 34.31 319.98 34.86C319.91 34.95 319.87 35.04 319.87 35.14C319.87 35.39 320.10 35.56 320.32 35.56C320.40 35.56 320.50 35.52 320.58 35.46C321.01 35.13 321.49 34.96 322.03 34.96C322.85 34.96 323.45 35.39 323.45 36.12L323.45 36.45L321.78 36.45C320.58 36.45 319.52 36.92 319.52 38.22C319.52 39.50 320.58 40.14 321.54 40.14C322.44 40.14 322.98 39.87 323.45 39.35L323.45 39.54C323.45 39.89 323.72 40.07 323.94 40.07L323.98 40.07C324.28 40.07 324.52 39.83 324.52 39.54ZM323.45 37.19L323.45 38.01C323.45 38.69 322.67 39.39 321.83 39.39C321.05 39.39 320.60 38.92 320.60 38.25C320.60 37.55 321.16 37.19 322.07 37.19ZM328.93 39.58C328.93 39.33 328.74 39.14 328.48 39.14C328.36 39.14 328.21 39.20 328.08 39.20C327.73 39.20 327.52 38.92 327.52 38.48L327.52 35.14L328.31 35.14C328.56 35.14 328.76 34.94 328.76 34.68C328.76 34.41 328.56 34.20 328.31 34.20L327.52 34.20L327.52 33.06C327.52 32.79 327.28 32.55 326.99 32.55C326.68 32.55 326.44 32.79 326.44 33.06L326.44 34.20L325.87 34.20C325.61 34.20 325.40 34.41 325.40 34.66C325.40 34.94 325.61 35.14 325.87 35.14L326.44 35.14L326.44 38.73C326.44 39.64 326.92 40.14 327.83 40.14C328.46 40.14 328.93 39.96 328.93 39.58ZM330.43 32.06C330.06 32.06 329.75 32.37 329.75 32.75C329.75 33.12 330.06 33.44 330.43 33.44C330.82 33.44 331.12 33.12 331.12 32.75C331.12 32.37 330.82 32.06 330.43 32.06ZM330.97 34.65C330.97 34.37 330.73 34.13 330.46 34.13C330.14 34.13 329.90 34.37 329.90 34.65L329.90 39.54C329.90 39.83 330.14 40.07 330.43 40.07C330.73 40.07 330.97 39.83 330.97 39.54ZM338.20 37.10C338.20 35.43 337.08 34.06 335.27 34.06C333.47 34.06 332.35 35.43 332.35 37.10C332.35 38.76 333.47 40.14 335.27 40.14C337.08 40.14 338.20 38.76 338.20 37.10ZM337.08 37.10C337.08 38.21 336.43 39.20 335.27 39.20C334.12 39.20 333.46 38.21 333.46 37.10C333.46 35.99 334.12 35.01 335.27 35.01C336.43 35.01 337.08 35.99 337.08 37.10ZM344.56 36.28C344.56 35.06 343.67 34.06 342.44 34.06C341.44 34.06 340.92 34.55 340.64 35.02L340.64 34.65C340.64 34.37 340.40 34.13 340.13 34.13C339.82 34.13 339.58 34.37 339.58 34.65L339.58 39.54C339.58 39.83 339.82 40.07 340.10 40.07C340.40 40.07 340.64 39.83 340.64 39.54L340.64 36.76C340.64 35.78 341.17 35.01 342.10 35.01C342.96 35.01 343.49 35.68 343.49 36.64L343.49 39.54C343.49 39.83 343.73 40.07 344.02 40.07C344.32 40.07 344.56 39.83 344.56 39.54ZM352.61 32.46C352.61 32.06 351.91 31.88 351.40 31.88C350.33 31.88 349.64 32.60 349.64 33.80L349.64 34.20L349.07 34.20C348.82 34.20 348.61 34.41 348.61 34.66C348.61 34.94 348.82 35.14 349.07 35.14L349.64 35.14L349.64 39.54C349.64 39.83 349.88 40.07 350.17 40.07C350.47 40.07 350.71 39.83 350.71 39.54L350.71 35.14L351.50 35.14C351.76 35.14 351.96 34.94 351.96 34.68C351.96 34.41 351.76 34.20 351.50 34.20L350.71 34.20L350.71 33.80C350.71 33.11 351.02 32.74 351.58 32.74C351.83 32.74 352.01 32.88 352.20 32.88C352.40 32.88 352.61 32.73 352.61 32.46ZM355.96 34.60C355.96 34.32 355.75 34.12 355.48 34.12C354.83 34.12 354.30 34.66 353.98 35.10L353.98 34.65C353.98 34.37 353.74 34.13 353.46 34.13C353.15 34.13 352.91 34.37 352.91 34.65L352.91 39.54C352.91 39.83 353.14 40.06 353.42 40.07L353.44 40.07C353.74 40.07 353.98 39.83 353.98 39.54L353.98 36.57C353.98 35.81 354.50 35.21 355.42 35.16C355.72 35.15 355.96 34.91 355.96 34.60ZM362.46 37.10C362.46 35.43 361.34 34.06 359.53 34.06C357.73 34.06 356.62 35.43 356.62 37.10C356.62 38.76 357.73 40.14 359.53 40.14C361.34 40.14 362.46 38.76 362.46 37.10ZM361.34 37.10C361.34 38.21 360.70 39.20 359.53 39.20C358.38 39.20 357.72 38.21 357.72 37.10C357.72 35.99 358.38 35.01 359.53 35.01C360.70 35.01 361.34 35.99 361.34 37.10ZM371.95 36.29C371.95 35.12 371.15 34.06 369.95 34.06C369.11 34.06 368.53 34.52 368.20 35.16C368.02 34.67 367.38 34.06 366.42 34.06C365.58 34.06 365.15 34.54 364.91 34.90L364.91 34.65C364.91 34.37 364.67 34.13 364.39 34.13C364.08 34.13 363.84 34.37 363.84 34.65L363.84 39.54C363.84 39.83 364.08 40.07 364.37 40.07C364.67 40.07 364.91 39.83 364.91 39.54L364.91 36.70C364.91 35.79 365.34 35.01 366.18 35.01C367.02 35.01 367.36 35.69 367.36 36.62L367.36 39.54C367.36 39.83 367.60 40.07 367.88 40.07C368.18 40.07 368.42 39.83 368.42 39.54L368.42 36.69C368.42 35.79 368.83 35.01 369.67 35.01C370.51 35.01 370.88 35.69 370.88 36.62L370.88 39.54C370.88 39.83 371.12 40.07 371.41 40.07C371.71 40.07 371.95 39.83 371.95 39.54ZM384.88 36.29C384.88 35.12 384.07 34.06 382.87 34.06C382.03 34.06 381.46 34.52 381.12 35.16C380.94 34.67 380.30 34.06 379.34 34.06C378.50 34.06 378.07 34.54 377.83 34.90L377.83 34.65C377.83 34.37 377.59 34.13 377.32 34.13C377.00 34.13 376.76 34.37 376.76 34.65L376.76 39.54C376.76 39.83 377.00 40.07 377.29 40.07C377.59 40.07 377.83 39.83 377.83 39.54L377.83 36.70C377.83 35.79 378.26 35.01 379.10 35.01C379.94 35.01 380.28 35.69 380.28 36.62L380.28 39.54C380.28 39.83 380.52 40.07 380.81 40.07C381.11 40.07 381.35 39.83 381.35 39.54L381.35 36.69C381.35 35.79 381.76 35.01 382.60 35.01C383.44 35.01 383.81 35.69 383.81 36.62L383.81 39.54C383.81 39.83 384.05 40.07 384.34 40.07C384.64 40.07 384.88 39.83 384.88 39.54ZM391.60 34.65C391.60 34.37 391.36 34.13 391.08 34.13C390.77 34.13 390.53 34.37 390.53 34.65L390.53 37.41C390.53 38.39 389.90 39.20 389.04 39.20C388.18 39.20 387.68 38.54 387.68 37.58L387.68 34.65C387.68 34.37 387.44 34.13 387.17 34.13C386.86 34.13 386.62 34.37 386.62 34.65L386.62 37.95C386.62 39.17 387.48 40.14 388.70 40.14C389.71 40.14 390.22 39.70 390.53 39.21L390.53 39.54C390.53 39.83 390.77 40.07 391.06 40.07C391.36 40.07 391.60 39.83 391.60 39.54ZM394.60 39.38C394.60 38.98 394.26 38.63 393.86 38.63C393.46 38.63 393.13 38.98 393.13 39.38C393.13 39.77 393.46 40.12 393.86 40.12C394.26 40.12 394.60 39.77 394.60 39.38ZM397.45 39.38C397.45 38.98 397.10 38.63 396.70 38.63C396.30 38.63 395.96 38.98 395.96 39.38C395.96 39.77 396.30 40.12 396.70 40.12C397.10 40.12 397.45 39.77 397.45 39.38ZM400.30 39.38C400.30 38.98 399.96 38.63 399.55 38.63C399.14 38.63 398.81 38.98 398.81 39.38C398.81 39.77 399.14 40.12 399.55 40.12C399.96 40.12 400.30 39.77 400.30 39.38Z" fill="#9aa7b4" /><rect x="18" y="50" width="384" height="6" rx="3" fill="#21262d" /><rect x="18" y="50" width="384.00" height="6" rx="3" fill="#00a5fe" /></svg>