<svg xmlns="http://www.w3.org/2000/svg" width="420" height="40" viewBox="0 0 420 40" role="img"><rect x="0.5" y="0.5" width="419" height="39" rx="10" fill="#161b22" stroke="#30363d" /><path d="M27.03 19.22C27.03 17.46 25.84 16.00 23.67 16.00L20.19 16.00C19.53 16.00 18.99 16.54 18.99 17.20L18.99 25.04C18.99 25.61 19.47 26.09 20.04 26.09C20.64 26.09 21.12 25.61 21.12 25.04L21.12 22.45L23.67 22.45C25.83 22.45 27.03 20.96 27.03 19.22ZM24.86 19.22C24.86 20.05 24.23 20.57 23.38 20.57L21.12 20.57L21.12 17.87L23.38 17.87C24.23 17.87 24.86 18.38 24.86 19.22ZM35.25 22.37C35.25 20.32 33.81 18.57 31.41 18.57C29.02 18.57 27.59 20.32 27.59 22.37C27.59 24.44 29.02 26.18 31.41 26.18C33.81 26.18 35.25 24.44 35.25 22.37ZM33.27 22.37C33.27 23.51 32.59 24.48 31.41 24.48C30.23 24.48 29.57 23.51 29.57 22.37C29.57 21.25 30.23 20.27 31.41 20.27C32.59 20.27 33.27 21.25 33.27 22.37ZM44.01 22.37C44.01 19.95 42.48 18.57 40.65 18.57C39.78 18.57 38.99 18.96 38.57 19.69L38.57 19.61C38.57 19.09 38.15 18.66 37.61 18.66C37.08 18.66 36.66 19.09 36.66 19.61L36.66 27.92C36.66 28.43 37.07 28.85 37.62 28.85C38.13 28.85 38.57 28.43 38.57 27.92L38.57 25.07C38.99 25.80 39.80 26.18 40.65 26.18C42.50 26.18 44.01 24.74 44.01 22.37ZM42.05 22.37C42.05 23.63 41.31 24.48 40.20 24.48C39.44 24.48 38.57 23.68 38.57 22.45L38.57 22.28C38.57 21.07 39.44 20.27 40.20 20.27C41.31 20.27 42.05 21.11 42.05 22.37ZM45.41 23.42C45.41 24.83 46.62 26.18 48.21 26.18C49.35 26.18 50.04 25.59 50.30 25.14L50.30 25.16C50.30 25.67 50.72 26.09 51.23 26.09C51.78 26.09 52.20 25.67 52.20 25.16L52.20 19.61C52.20 19.09 51.78 18.66 51.26 18.66C50.72 18.66 50.30 19.09 50.30 19.61L50.30 22.80C50.30 23.84 49.55 24.48 48.80 24.48C47.98 24.48 47.31 23.84 47.31 22.84L47.31 19.61C47.31 19.09 46.89 18.66 46.37 18.66C45.83 18.66 45.41 19.09 45.41 19.61ZM56.00 16.84C56.00 16.33 55.58 15.91 55.07 15.91C54.51 15.91 54.09 16.33 54.09 16.84L54.09 25.14C54.09 25.67 54.51 26.09 55.04 26.09C55.58 26.09 56.00 25.67 56.00 25.14ZM64.14 21.32C64.14 19.23 62.63 18.57 60.98 18.57C60.14 18.57 58.52 18.88 58.07 19.59C58.01 19.70 57.96 19.84 57.96 19.97C57.96 20.42 58.34 20.70 58.68 20.70C58.80 20.70 58.92 20.66 59.03 20.60C59.52 20.27 60.08 20.13 60.65 20.13C61.61 20.13 62.24 20.62 62.24 21.35L62.24 21.59L59.94 21.59C58.79 21.59 57.42 22.09 57.42 23.78C57.42 25.40 58.79 26.18 59.94 26.18C61.04 26.18 61.74 25.91 62.24 25.32C62.24 25.66 62.55 26.09 63.06 26.09L63.21 26.09C63.72 26.09 64.14 25.67 64.14 25.14ZM62.24 22.88L62.24 23.21C62.24 24.38 61.32 24.89 60.71 24.89C59.96 24.89 59.34 24.50 59.34 23.82C59.34 23.12 59.96 22.88 60.71 22.88ZM70.34 19.48C70.34 19.04 70.05 18.70 69.50 18.70C68.78 18.70 68.30 19.27 67.94 19.75L67.94 19.59C67.94 19.09 67.52 18.66 67.01 18.66C66.45 18.66 66.03 19.09 66.03 19.59L66.03 25.14C66.03 25.67 66.45 26.09 66.98 26.09L67.01 26.09C67.52 26.09 67.94 25.67 67.94 25.14L67.94 22.12C67.94 20.91 68.84 20.52 69.42 20.45C69.95 20.38 70.34 20.05 70.34 19.48ZM83.36 19.22C83.36 17.36 82.08 16.00 80.00 16.00L76.52 16.00C75.86 16.00 75.32 16.54 75.32 17.20L75.32 25.04C75.32 25.61 75.80 26.09 76.37 26.09C76.97 26.09 77.45 25.61 77.45 25.04L77.45 22.45L79.16 22.45L81.02 25.55C81.23 25.89 81.56 26.09 81.93 26.09C82.56 26.09 82.98 25.55 82.98 25.04C82.98 24.88 82.95 24.68 82.85 24.53L81.32 22.19C82.41 21.83 83.36 20.78 83.36 19.22ZM77.45 20.57L77.45 17.87L79.68 17.87C80.54 17.87 81.18 18.38 81.18 19.22C81.18 20.06 80.54 20.57 79.68 20.57ZM91.35 22.14C91.35 21.79 91.25 21.35 91.14 21.02C90.63 19.52 89.39 18.57 87.75 18.57C85.55 18.57 84.00 20.27 84.00 22.37C84.00 24.70 85.67 26.18 87.87 26.18C88.98 26.18 90.59 25.76 90.68 24.91C90.72 24.45 90.27 24.14 89.87 24.14C89.75 24.14 89.61 24.17 89.49 24.23C89.04 24.47 88.49 24.66 88.08 24.66C86.85 24.66 86.12 23.93 86.00 23.02L90.47 23.02C90.96 23.02 91.35 22.61 91.35 22.14ZM85.97 21.73C86.06 21.00 86.57 20.09 87.75 20.09C89.01 20.09 89.49 21.04 89.54 21.73ZM100.11 22.37C100.11 19.95 98.58 18.57 96.75 18.57C95.88 18.57 95.09 18.96 94.67 19.69L94.67 19.61C94.67 19.09 94.25 18.66 93.71 18.66C93.18 18.66 92.76 19.09 92.76 19.61L92.76 27.92C92.76 28.43 93.17 28.85 93.72 28.85C94.23 28.85 94.67 28.43 94.67 27.92L94.67 25.07C95.09 25.80 95.90 26.18 96.75 26.18C98.60 26.18 100.11 24.74 100.11 22.37ZM98.15 22.37C98.15 23.63 97.41 24.48 96.30 24.48C95.54 24.48 94.67 23.68 94.67 22.45L94.67 22.28C94.67 21.07 95.54 20.27 96.30 20.27C97.41 20.27 98.15 21.11 98.15 22.37ZM108.71 22.37C108.71 20.32 107.27 18.57 104.87 18.57C102.48 18.57 101.04 20.32 101.04 22.37C101.04 24.44 102.48 26.18 104.87 26.18C107.27 26.18 108.71 24.44 108.71 22.37ZM106.73 22.37C106.73 23.51 106.05 24.48 104.87 24.48C103.68 24.48 103.02 23.51 103.02 22.37C103.02 21.25 103.68 20.27 104.87 20.27C106.05 20.27 106.73 21.25 106.73 22.37ZM115.86 23.86C115.86 20.93 111.57 21.83 111.57 20.75C111.57 20.34 112.02 20.03 112.71 20.03C113.30 20.03 113.88 20.20 114.35 20.46C114.45 20.52 114.59 20.55 114.71 20.55C115.10 20.55 115.46 20.24 115.46 19.84C115.46 19.70 115.41 19.57 115.34 19.46C114.93 18.88 113.64 18.57 112.70 18.57C110.79 18.57 109.73 19.64 109.73 20.86C109.73 23.70 114.03 22.73 114.03 23.93C114.03 24.38 113.64 24.71 112.82 24.71C112.19 24.71 111.44 24.45 110.87 24.13C110.75 24.05 110.61 24.02 110.48 24.02C110.07 24.02 109.68 24.36 109.68 24.82C109.68 24.96 109.73 25.10 109.82 25.22C110.27 25.86 111.78 26.18 112.73 26.18C114.74 26.18 115.86 25.18 115.86 23.86ZM118.22 15.71C117.60 15.71 117.08 16.20 117.08 16.84C117.08 17.46 117.60 17.98 118.22 17.98C118.85 17.98 119.36 17.46 119.36 16.84C119.36 16.20 118.85 15.71 118.22 15.71ZM119.18 19.59C119.18 19.09 118.76 18.66 118.25 18.66C117.69 18.66 117.27 19.09 117.27 19.59L117.27 25.14C117.27 25.67 117.69 26.09 118.22 26.09C118.76 26.09 119.18 25.67 119.18 25.14ZM125.03 25.31C125.03 24.84 124.73 24.48 124.19 24.48L124.02 24.48C123.72 24.48 123.36 24.26 123.36 23.69L123.36 20.42L124.11 20.42C124.55 20.42 124.92 20.05 124.92 19.59C124.92 19.13 124.55 18.75 124.11 18.75L123.36 18.75L123.36 17.63C123.36 17.11 122.94 16.69 122.42 16.69C121.86 16.69 121.44 17.11 121.44 17.63L121.44 18.75L120.98 18.75C120.53 18.75 120.15 19.13 120.15 19.57C120.15 20.05 120.53 20.42 120.98 20.42L121.44 20.42L121.44 24.20C121.44 25.49 122.16 26.18 123.50 26.18C124.74 26.18 125.03 25.79 125.03 25.31ZM133.34 22.37C133.34 20.32 131.90 18.57 129.50 18.57C127.11 18.57 125.67 20.32 125.67 22.37C125.67 24.44 127.11 26.18 129.50 26.18C131.90 26.18 133.34 24.44 133.34 22.37ZM131.36 22.37C131.36 23.51 130.68 24.48 129.50 24.48C128.31 24.48 127.65 23.51 127.65 22.37C127.65 21.25 128.31 20.27 129.50 20.27C130.68 20.27 131.36 21.25 131.36 22.37ZM139.05 19.48C139.05 19.04 138.77 18.70 138.21 18.70C137.49 18.70 137.01 19.27 136.65 19.75L136.65 19.59C136.65 19.09 136.23 18.66 135.72 18.66C135.17 18.66 134.75 19.09 134.75 19.59L134.75 25.14C134.75 25.67 135.17 26.09 135.69 26.09L135.72 26.09C136.23 26.09 136.65 25.67 136.65 25.14L136.65 22.12C136.65 20.91 137.55 20.52 138.14 20.45C138.66 20.38 139.05 20.05 139.05 19.48ZM141.09 15.71C140.48 15.71 139.95 16.20 139.95 16.84C139.95 17.46 140.48 17.98 141.09 17.98C141.72 17.98 142.23 17.46 142.23 16.84C142.23 16.20 141.72 15.71 141.09 15.71ZM142.05 19.59C142.05 19.09 141.63 18.66 141.12 18.66C140.57 18.66 140.15 19.09 140.15 19.59L140.15 25.14C140.15 25.67 140.57 26.09 141.09 26.09C141.63 26.09 142.05 25.67 142.05 25.14ZM150.83 22.14C150.83 21.79 150.72 21.35 150.62 21.02C150.11 19.52 148.86 18.57 147.22 18.57C145.02 18.57 143.47 20.27 143.47 22.37C143.47 24.70 145.14 26.18 147.34 26.18C148.46 26.18 150.06 25.76 150.15 24.91C150.19 24.45 149.75 24.14 149.34 24.14C149.22 24.14 149.09 24.17 148.97 24.23C148.52 24.47 147.96 24.66 147.56 24.66C146.33 24.66 145.59 23.93 145.47 23.02L149.94 23.02C150.44 23.02 150.83 22.61 150.83 22.14ZM145.44 21.73C145.53 21.00 146.04 20.09 147.22 20.09C148.49 20.09 148.97 21.04 149.01 21.73ZM157.98 23.86C157.98 20.93 153.69 21.83 153.69 20.75C153.69 20.34 154.14 20.03 154.83 20.03C155.41 20.03 156 20.20 156.47 20.46C156.57 20.52 156.70 20.55 156.82 20.55C157.22 20.55 157.57 20.24 157.57 19.84C157.57 19.70 157.53 19.57 157.45 19.46C157.05 18.88 155.76 18.57 154.81 18.57C152.91 18.57 151.84 19.64 151.84 20.86C151.84 23.70 156.15 22.73 156.15 23.93C156.15 24.38 155.76 24.71 154.94 24.71C154.30 24.71 153.55 24.45 152.98 24.13C152.86 24.05 152.73 24.02 152.59 24.02C152.19 24.02 151.80 24.36 151.80 24.82C151.80 24.96 151.84 25.10 151.94 25.22C152.38 25.86 153.90 26.18 154.84 26.18C156.85 26.18 157.98 25.18 157.98 23.86Z" fill="#e6edf3" /></svg>