<svg xmlns="http://www.w3.org/2000/svg" width="420" height="64" viewBox="0 0 420 64" role="img"><rect x="0.5" y="0.5" width="419" height="63" rx="10" fill="#ffffff" stroke="#f2f4f6" /><path d="M24.45 22.92C24.45 22.46 24.03 22.15 23.60 22.15C23.43 22.15 23.28 22.19 23.12 22.29C22.82 22.49 22.48 22.59 22.12 22.59C21.04 22.59 20.28 21.79 20.28 20.61C20.28 19.44 21.04 18.65 22.12 18.65C22.47 18.65 22.82 18.75 23.11 18.93C23.26 19.03 23.43 19.07 23.60 19.07C23.99 19.07 24.44 18.79 24.44 18.32C24.44 18.20 24.41 18.09 24.36 17.99C24.06 17.45 23.08 17.07 22.03 17.07C19.95 17.07 18.45 18.54 18.45 20.61C18.45 22.70 19.95 24.17 22.03 24.17C22.98 24.17 23.68 23.89 24.17 23.50C24.36 23.36 24.45 23.13 24.45 22.92ZM25.45 20.63C25.45 22.88 26.88 24.17 28.58 24.17C29.40 24.17 30.14 23.80 30.53 23.13L30.53 23.20C30.53 23.69 30.92 24.08 31.43 24.08C31.92 24.08 32.31 23.69 32.31 23.20L32.31 15.45C32.31 14.97 31.92 14.58 31.40 14.58C30.92 14.58 30.53 14.97 30.53 15.45L30.53 18.11C30.14 17.42 29.38 17.07 28.58 17.07C26.86 17.07 25.45 18.41 25.45 20.63ZM27.28 20.63C27.28 19.45 27.97 18.65 29.00 18.65C29.72 18.65 30.53 19.41 30.53 20.56L30.53 20.71C30.53 21.84 29.72 22.59 29.00 22.59C27.97 22.59 27.28 21.80 27.28 20.63ZM40.41 19.65C40.41 18.33 39.28 17.07 37.80 17.07C36.76 17.07 36.12 17.62 35.85 18.04L35.85 18.02C35.85 17.55 35.46 17.15 34.98 17.15C34.46 17.15 34.07 17.55 34.07 18.02L34.07 23.20C34.07 23.69 34.46 24.08 34.95 24.08C35.46 24.08 35.85 23.69 35.85 23.20L35.85 20.22C35.85 19.25 36.55 18.65 37.25 18.65C38.01 18.65 38.64 19.25 38.64 20.19L38.64 23.20C38.64 23.69 39.03 24.08 39.52 24.08C40.02 24.08 40.41 23.69 40.41 23.20ZM45.16 20.60C45.16 20.19 44.82 19.86 44.42 19.86L42.37 19.86C41.97 19.86 41.63 20.19 41.63 20.60C41.63 21.03 41.97 21.37 42.37 21.37L44.42 21.37C44.82 21.37 45.16 21.03 45.16 20.60ZM52.80 18.04C52.80 17.55 52.41 17.15 51.92 17.15C51.40 17.15 51.01 17.55 51.01 18.04L51.01 18.11C50.59 17.49 49.84 17.07 48.93 17.07C47.22 17.07 45.94 18.30 45.94 20.51C45.94 22.77 47.23 23.96 48.93 23.96C49.89 23.96 50.69 23.57 51.01 22.89L51.01 23.58C51.01 24.91 50.00 25.29 49.15 25.29C48.55 25.29 48.02 25.16 47.54 24.87C47.41 24.80 47.29 24.77 47.16 24.77C46.77 24.77 46.42 25.08 46.42 25.51C46.42 25.65 46.46 25.79 46.53 25.90C46.94 26.53 48.32 26.74 49.15 26.74C50.82 26.74 52.80 26.11 52.80 23.54ZM51.01 20.56C51.01 21.69 50.21 22.38 49.49 22.38C48.48 22.38 47.78 21.68 47.78 20.51C47.78 19.35 48.48 18.65 49.49 18.65C50.21 18.65 51.01 19.32 51.01 20.47ZM60.99 20.40C60.99 20.07 60.90 19.66 60.80 19.35C60.32 17.95 59.16 17.07 57.63 17.07C55.58 17.07 54.13 18.65 54.13 20.61C54.13 22.78 55.69 24.17 57.75 24.17C58.78 24.17 60.28 23.78 60.36 22.98C60.41 22.56 59.99 22.26 59.61 22.26C59.50 22.26 59.37 22.29 59.26 22.35C58.84 22.57 58.32 22.75 57.94 22.75C56.79 22.75 56.11 22.07 56.00 21.21L60.17 21.21C60.63 21.21 60.99 20.84 60.99 20.40ZM55.97 20.01C56.05 19.34 56.53 18.48 57.63 18.48C58.81 18.48 59.26 19.37 59.30 20.01ZM66.01 23.36C66.01 22.92 65.73 22.59 65.22 22.59L65.07 22.59C64.79 22.59 64.45 22.38 64.45 21.84L64.45 18.79L65.15 18.79C65.56 18.79 65.91 18.44 65.91 18.02C65.91 17.59 65.56 17.24 65.15 17.24L64.45 17.24L64.45 16.19C64.45 15.70 64.06 15.31 63.57 15.31C63.05 15.31 62.66 15.70 62.66 16.19L62.66 17.24L62.23 17.24C61.81 17.24 61.46 17.59 61.46 17.99C61.46 18.44 61.81 18.79 62.23 18.79L62.66 18.79L62.66 22.32C62.66 23.52 63.33 24.17 64.58 24.17C65.74 24.17 66.01 23.80 66.01 23.36ZM72.40 22.00C72.40 19.27 68.40 20.11 68.40 19.10C68.40 18.72 68.82 18.43 69.46 18.43C70.01 18.43 70.56 18.58 70.99 18.83C71.09 18.89 71.21 18.92 71.33 18.92C71.69 18.92 72.03 18.62 72.03 18.25C72.03 18.12 71.98 17.99 71.91 17.90C71.54 17.35 70.33 17.07 69.45 17.07C67.67 17.07 66.68 18.06 66.68 19.20C66.68 21.86 70.70 20.95 70.70 22.07C70.70 22.49 70.33 22.80 69.56 22.80C68.97 22.80 68.27 22.56 67.74 22.25C67.63 22.18 67.50 22.15 67.38 22.15C67 22.15 66.64 22.47 66.64 22.89C66.64 23.03 66.68 23.16 66.76 23.27C67.18 23.87 68.60 24.17 69.48 24.17C71.35 24.17 72.40 23.23 72.40 22.00ZM80.08 19.90C80.08 18.44 78.94 17.07 77.46 17.07C76.35 17.07 75.79 17.60 75.50 17.98L75.50 15.45C75.50 14.97 75.11 14.58 74.63 14.58C74.11 14.58 73.72 14.97 73.72 15.45L73.72 23.20C73.72 23.69 74.11 24.08 74.60 24.08C75.11 24.08 75.50 23.69 75.50 23.20L75.50 20.15C75.50 19.32 76.07 18.65 76.90 18.65C77.67 18.65 78.30 19.23 78.30 20.16L78.30 23.20C78.30 23.69 78.69 24.08 79.18 24.08C79.68 24.08 80.08 23.69 80.08 23.20ZM87.68 19.63C87.68 17.69 86.26 17.07 84.72 17.07C83.94 17.07 82.43 17.35 82.01 18.02C81.95 18.12 81.91 18.25 81.91 18.37C81.91 18.79 82.26 19.06 82.58 19.06C82.69 19.06 82.81 19.02 82.90 18.96C83.37 18.65 83.88 18.53 84.42 18.53C85.31 18.53 85.90 18.97 85.90 19.66L85.90 19.88L83.76 19.88C82.68 19.88 81.41 20.35 81.41 21.93C81.41 23.44 82.68 24.17 83.76 24.17C84.78 24.17 85.44 23.92 85.90 23.37C85.90 23.68 86.19 24.08 86.67 24.08L86.81 24.08C87.29 24.08 87.68 23.69 87.68 23.20ZM85.90 21.09L85.90 21.40C85.90 22.49 85.05 22.96 84.47 22.96C83.77 22.96 83.20 22.60 83.20 21.97C83.20 21.31 83.77 21.09 84.47 21.09ZM93.46 17.91C93.46 17.50 93.19 17.18 92.68 17.18C92.00 17.18 91.56 17.71 91.22 18.16L91.22 18.02C91.22 17.55 90.83 17.15 90.35 17.15C89.83 17.15 89.44 17.55 89.44 18.02L89.44 23.20C89.44 23.69 89.83 24.08 90.32 24.08L90.35 24.08C90.83 24.08 91.22 23.69 91.22 23.20L91.22 20.37C91.22 19.25 92.06 18.89 92.61 18.82C93.10 18.75 93.46 18.44 93.46 17.91ZM100.91 20.40C100.91 20.07 100.81 19.66 100.71 19.35C100.24 17.95 99.07 17.07 97.55 17.07C95.49 17.07 94.05 18.65 94.05 20.61C94.05 22.78 95.60 24.17 97.66 24.17C98.70 24.17 100.19 23.78 100.28 22.98C100.32 22.56 99.90 22.26 99.52 22.26C99.41 22.26 99.28 22.29 99.17 22.35C98.75 22.57 98.23 22.75 97.86 22.75C96.71 22.75 96.02 22.07 95.91 21.21L100.08 21.21C100.54 21.21 100.91 20.84 100.91 20.40ZM95.88 20.01C95.97 19.34 96.44 18.48 97.55 18.48C98.72 18.48 99.17 19.37 99.21 20.01ZM107.59 22.00C107.59 19.27 103.58 20.11 103.58 19.10C103.58 18.72 104.00 18.43 104.65 18.43C105.19 18.43 105.74 18.58 106.17 18.83C106.27 18.89 106.40 18.92 106.51 18.92C106.87 18.92 107.21 18.62 107.21 18.25C107.21 18.12 107.17 17.99 107.10 17.90C106.72 17.35 105.51 17.07 104.63 17.07C102.85 17.07 101.86 18.06 101.86 19.20C101.86 21.86 105.88 20.95 105.88 22.07C105.88 22.49 105.51 22.80 104.74 22.80C104.16 22.80 103.46 22.56 102.92 22.25C102.81 22.18 102.69 22.15 102.56 22.15C102.18 22.15 101.82 22.47 101.82 22.89C101.82 23.03 101.86 23.16 101.94 23.27C102.36 23.87 103.78 24.17 104.66 24.17C106.54 24.17 107.59 23.23 107.59 22.00ZM110.95 23.02C110.95 22.40 110.43 21.89 109.81 21.89C109.20 21.89 108.68 22.40 108.68 23.02C108.68 23.64 109.20 24.15 109.81 24.15C110.43 24.15 110.95 23.64 110.95 23.02ZM118.86 18.04C118.86 17.55 118.46 17.15 117.97 17.15C117.46 17.15 117.06 17.55 117.06 18.04L117.06 18.11C116.64 17.49 115.89 17.07 114.98 17.07C113.27 17.07 112.00 18.30 112.00 20.51C112.00 22.77 113.28 23.96 114.98 23.96C115.94 23.96 116.74 23.57 117.06 22.89L117.06 23.58C117.06 24.91 116.06 25.29 115.20 25.29C114.60 25.29 114.07 25.16 113.59 24.87C113.47 24.80 113.34 24.77 113.21 24.77C112.82 24.77 112.47 25.08 112.47 25.51C112.47 25.65 112.51 25.79 112.58 25.90C112.99 26.53 114.38 26.74 115.20 26.74C116.87 26.74 118.86 26.11 118.86 23.54ZM117.06 20.56C117.06 21.69 116.27 22.38 115.54 22.38C114.53 22.38 113.83 21.68 113.83 20.51C113.83 19.35 114.53 18.65 115.54 18.65C116.27 18.65 117.06 19.32 117.06 20.47ZM121.50 14.40C120.93 14.40 120.44 14.86 120.44 15.45C120.44 16.03 120.93 16.51 121.50 16.51C122.09 16.51 122.57 16.03 122.57 15.45C122.57 14.86 122.09 14.40 121.50 14.40ZM122.40 18.02C122.40 17.55 122.01 17.15 121.53 17.15C121.01 17.15 120.62 17.55 120.62 18.02L120.62 23.20C120.62 23.69 121.01 24.08 121.50 24.08C122.01 24.08 122.40 23.69 122.40 23.20ZM127.86 23.36C127.86 22.92 127.58 22.59 127.07 22.59L126.92 22.59C126.64 22.59 126.30 22.38 126.30 21.84L126.30 18.79L127.00 18.79C127.41 18.79 127.76 18.44 127.76 18.02C127.76 17.59 127.41 17.24 127.00 17.24L126.30 17.24L126.30 16.19C126.30 15.70 125.91 15.31 125.42 15.31C124.90 15.31 124.51 15.70 124.51 16.19L124.51 17.24L124.08 17.24C123.66 17.24 123.31 17.59 123.31 17.99C123.31 18.44 123.66 18.79 124.08 18.79L124.51 18.79L124.51 22.32C124.51 23.52 125.18 24.17 126.43 24.17C127.59 24.17 127.86 23.80 127.86 23.36ZM135.25 19.90C135.25 18.44 134.12 17.07 132.63 17.07C131.53 17.07 130.97 17.60 130.67 17.98L130.67 15.45C130.67 14.97 130.28 14.58 129.80 14.58C129.29 14.58 128.89 14.97 128.89 15.45L128.89 23.20C128.89 23.69 129.29 24.08 129.78 24.08C130.28 24.08 130.67 23.69 130.67 23.20L130.67 20.15C130.67 19.32 131.25 18.65 132.07 18.65C132.84 18.65 133.47 19.23 133.47 20.16L133.47 23.20C133.47 23.69 133.86 24.08 134.35 24.08C134.86 24.08 135.25 23.69 135.25 23.20ZM137.01 21.59C137.01 22.91 138.15 24.17 139.63 24.17C140.70 24.17 141.34 23.62 141.58 23.20L141.58 23.22C141.58 23.69 141.97 24.08 142.45 24.08C142.96 24.08 143.36 23.69 143.36 23.22L143.36 18.04C143.36 17.55 142.96 17.15 142.47 17.15C141.97 17.15 141.58 17.55 141.58 18.04L141.58 21.02C141.58 21.98 140.88 22.59 140.18 22.59C139.42 22.59 138.79 21.98 138.79 21.05L138.79 18.04C138.79 17.55 138.40 17.15 137.91 17.15C137.41 17.15 137.01 17.55 137.01 18.04ZM151.98 20.63C151.98 18.41 150.57 17.07 148.84 17.07C148.05 17.07 147.29 17.42 146.90 18.11L146.90 15.45C146.90 14.97 146.51 14.58 146.03 14.58C145.51 14.58 145.12 14.97 145.12 15.45L145.12 23.20C145.12 23.69 145.51 24.08 146.00 24.08C146.51 24.08 146.90 23.69 146.90 23.20L146.90 23.13C147.29 23.80 148.03 24.17 148.84 24.17C150.55 24.17 151.98 22.88 151.98 20.63ZM150.15 20.63C150.15 21.80 149.46 22.59 148.42 22.59C147.71 22.59 146.90 21.84 146.90 20.71L146.90 20.56C146.90 19.41 147.71 18.65 148.42 18.65C149.46 18.65 150.15 19.45 150.15 20.63ZM155.31 23.02C155.31 22.40 154.79 21.89 154.18 21.89C153.56 21.89 153.04 22.40 153.04 23.02C153.04 23.64 153.56 24.15 154.18 24.15C154.79 24.15 155.31 23.64 155.31 23.02ZM157.73 14.40C157.16 14.40 156.67 14.86 156.67 15.45C156.67 16.03 157.16 16.51 157.73 16.51C158.32 16.51 158.80 16.03 158.80 15.45C158.80 14.86 158.32 14.40 157.73 14.40ZM158.63 18.02C158.63 17.55 158.24 17.15 157.76 17.15C157.24 17.15 156.85 17.55 156.85 18.02L156.85 23.20C156.85 23.69 157.24 24.08 157.73 24.08C158.24 24.08 158.63 23.69 158.63 23.20ZM167.11 20.61C167.11 18.69 165.77 17.07 163.53 17.07C161.30 17.07 159.96 18.69 159.96 20.61C159.96 22.54 161.30 24.17 163.53 24.17C165.77 24.17 167.11 22.54 167.11 20.61ZM165.27 20.61C165.27 21.68 164.64 22.59 163.53 22.59C162.42 22.59 161.81 21.68 161.81 20.61C161.81 19.56 162.42 18.65 163.53 18.65C164.64 18.65 165.27 19.56 165.27 20.61Z" fill="#22272e" /><path d="M393.38 16.32C393.38 15.73 392.89 15.26 392.30 15.26C392.00 15.26 391.72 15.38 391.52 15.58L389.52 17.60C389.36 17.76 389.29 17.95 389.29 18.15C389.29 18.58 389.65 18.92 390.05 18.92C390.24 18.92 390.42 18.85 390.56 18.71L391.54 17.71L391.54 23.17C391.54 23.66 391.95 24.08 392.44 24.08C392.97 24.08 393.38 23.66 393.38 23.17ZM401.75 21.40C401.75 20.95 401.39 20.58 400.96 20.58L400.56 20.58L400.56 16.29C400.56 15.48 399.78 15.12 398.98 15.25C398.43 15.25 397.87 15.55 397.57 16.02L394.67 20.59C394.55 20.78 394.50 20.98 394.50 21.19C394.50 21.78 394.93 22.21 395.45 22.21L398.71 22.21L398.71 23.17C398.71 23.66 399.13 24.08 399.62 24.08C400.14 24.08 400.56 23.66 400.56 23.17L400.56 22.21L400.96 22.21C401.39 22.21 401.75 21.84 401.75 21.40ZM396.37 20.58L398.71 16.97L398.71 20.58Z" fill="#627386" /><path transform="translate(371.90, 12)" d="M6 0.5 L7.5 4.2 L11.5 4.5 L8.4 7 L9.4 11 L6 8.8 L2.6 11 L3.6 7 L0.5 4.5 L4.5 4.2 Z" fill="#627386" /><path d="M24.06 34.65C24.06 34.37 23.82 34.13 23.54 34.13C23.23 34.13 22.99 34.37 22.99 34.65L22.99 35.04C22.52 34.42 21.85 34.06 21.08 34.06C19.58 34.06 18.52 35.19 18.52 37.06C18.52 38.94 19.60 40.05 21.08 40.05C21.88 40.05 22.56 39.63 22.99 39.04L22.99 39.81C22.99 41.04 22.10 41.48 21.20 41.48C20.57 41.48 20.06 41.34 19.62 40.97C19.54 40.91 19.45 40.89 19.34 40.89C19.10 40.89 18.89 41.09 18.89 41.34C18.89 41.46 18.94 41.57 19.01 41.64C19.57 42.18 20.39 42.35 21.20 42.35C22.62 42.35 24.06 41.76 24.06 39.77ZM22.99 37.07C22.99 38.26 22.21 39.10 21.25 39.10C20.17 39.10 19.62 38.25 19.62 37.06C19.62 35.85 20.17 35.01 21.25 35.01C22.21 35.01 22.99 35.84 22.99 37.02ZM31.14 36.90C31.14 36.68 31.08 36.42 31.03 36.23C30.70 34.94 29.74 34.06 28.33 34.06C26.65 34.06 25.44 35.42 25.44 37.10C25.44 38.92 26.70 40.14 28.43 40.14C29.28 40.14 30.77 39.70 30.77 39.05C30.77 38.64 30.36 38.55 30.10 38.68C29.68 38.99 29.03 39.28 28.54 39.28C27.36 39.28 26.64 38.48 26.56 37.48L30.59 37.48C30.89 37.48 31.14 37.19 31.14 36.90ZM26.56 36.69C26.60 35.88 27.17 34.92 28.32 34.92C29.56 34.92 30.08 35.91 30.11 36.69ZM35.21 39.58C35.21 39.33 35.02 39.14 34.75 39.14C34.63 39.14 34.49 39.20 34.36 39.20C34.01 39.20 33.79 38.92 33.79 38.48L33.79 35.14L34.58 35.14C34.84 35.14 35.04 34.94 35.04 34.68C35.04 34.41 34.84 34.20 34.58 34.20L33.79 34.20L33.79 33.06C33.79 32.79 33.55 32.55 33.26 32.55C32.95 32.55 32.71 32.79 32.71 33.06L32.71 34.20L32.15 34.20C31.88 34.20 31.68 34.41 31.68 34.66C31.68 34.94 31.88 35.14 32.15 35.14L32.71 35.14L32.71 38.73C32.71 39.64 33.19 40.14 34.10 40.14C34.74 40.14 35.21 39.96 35.21 39.58ZM40.43 38.25C40.32 36.21 37.00 36.77 36.88 35.73C36.83 35.26 37.33 34.91 38.06 34.91C38.62 34.91 39.13 35.09 39.50 35.36C39.58 35.42 39.66 35.44 39.76 35.44C39.97 35.44 40.18 35.26 40.18 35.02C40.18 34.92 40.14 34.83 40.07 34.76C39.61 34.31 38.88 34.06 38.05 34.06C36.64 34.06 35.78 34.73 35.84 35.76C35.95 37.71 39.26 37.11 39.38 38.39C39.43 38.92 38.95 39.29 38.12 39.29C37.52 39.29 36.92 39.05 36.49 38.74C36.41 38.68 36.32 38.66 36.22 38.66C35.96 38.66 35.75 38.85 35.75 39.10C35.75 39.22 35.80 39.32 35.88 39.39C36.41 39.92 37.28 40.14 38.08 40.14C39.61 40.14 40.49 39.35 40.43 38.25ZM46.79 36.26C46.79 35.03 45.91 34.06 44.69 34.06C43.67 34.06 43.14 34.55 42.86 35.02L42.86 32.44C42.86 32.16 42.62 31.92 42.35 31.92C42.04 31.92 41.80 32.16 41.80 32.44L41.80 39.54C41.80 39.83 42.04 40.07 42.32 40.07C42.62 40.07 42.86 39.83 42.86 39.54L42.86 36.82C42.86 35.74 43.44 35.01 44.35 35.01C45.22 35.01 45.72 35.66 45.72 36.62L45.72 39.54C45.72 39.83 45.96 40.07 46.25 40.07C46.55 40.07 46.79 39.83 46.79 39.54ZM53.17 36.08C53.17 34.60 52.09 34.06 50.84 34.06C50.06 34.06 49.19 34.31 48.64 34.86C48.56 34.95 48.53 35.04 48.53 35.14C48.53 35.39 48.76 35.56 48.97 35.56C49.06 35.56 49.15 35.52 49.24 35.46C49.67 35.13 50.15 34.96 50.69 34.96C51.50 34.96 52.10 35.39 52.10 36.12L52.10 36.45L50.44 36.45C49.24 36.45 48.18 36.92 48.18 38.22C48.18 39.50 49.24 40.14 50.20 40.14C51.10 40.14 51.64 39.87 52.10 39.35L52.10 39.54C52.10 39.89 52.38 40.07 52.60 40.07L52.63 40.07C52.93 40.07 53.17 39.83 53.17 39.54ZM52.10 37.19L52.10 38.01C52.10 38.69 51.32 39.39 50.48 39.39C49.70 39.39 49.26 38.92 49.26 38.25C49.26 37.55 49.81 37.19 50.72 37.19ZM57.94 34.60C57.94 34.32 57.73 34.12 57.46 34.12C56.81 34.12 56.28 34.66 55.96 35.10L55.96 34.65C55.96 34.37 55.72 34.13 55.44 34.13C55.13 34.13 54.89 34.37 54.89 34.65L54.89 39.54C54.89 39.83 55.12 40.06 55.40 40.07L55.42 40.07C55.72 40.07 55.96 39.83 55.96 39.54L55.96 36.57C55.96 35.81 56.48 35.21 57.40 35.16C57.70 35.15 57.94 34.91 57.94 34.60ZM64.30 36.90C64.30 36.68 64.24 36.42 64.19 36.23C63.85 34.94 62.89 34.06 61.49 34.06C59.81 34.06 58.60 35.42 58.60 37.10C58.60 38.92 59.86 40.14 61.58 40.14C62.44 40.14 63.92 39.70 63.92 39.05C63.92 38.64 63.52 38.55 63.25 38.68C62.83 38.99 62.18 39.28 61.69 39.28C60.52 39.28 59.80 38.48 59.71 37.48L63.74 37.48C64.04 37.48 64.30 37.19 64.30 36.90ZM59.71 36.69C59.76 35.88 60.32 34.92 61.48 34.92C62.71 34.92 63.24 35.91 63.26 36.69ZM69.91 38.25C69.80 36.21 66.48 36.77 66.36 35.73C66.31 35.26 66.82 34.91 67.55 34.91C68.10 34.91 68.62 35.09 68.99 35.36C69.06 35.42 69.14 35.44 69.24 35.44C69.46 35.44 69.66 35.26 69.66 35.02C69.66 34.92 69.62 34.83 69.55 34.76C69.10 34.31 68.36 34.06 67.54 34.06C66.12 34.06 65.27 34.73 65.33 35.76C65.44 37.71 68.75 37.11 68.87 38.39C68.92 38.92 68.44 39.29 67.61 39.29C67.01 39.29 66.41 39.05 65.98 38.74C65.89 38.68 65.81 38.66 65.70 38.66C65.45 38.66 65.23 38.85 65.23 39.10C65.23 39.22 65.28 39.32 65.36 39.39C65.89 39.92 66.77 40.14 67.56 40.14C69.10 40.14 69.97 39.35 69.91 38.25ZM78.98 39.12C78.98 38.85 78.73 38.66 78.48 38.66C78.36 38.66 78.24 38.69 78.14 38.76C77.82 39.05 77.45 39.20 77.02 39.20C75.86 39.20 75.12 38.31 75.12 37.10C75.12 35.88 75.86 35.01 77.02 35.01C77.44 35.01 77.82 35.14 78.14 35.43C78.24 35.51 78.36 35.56 78.48 35.56C78.74 35.56 78.97 35.34 78.97 35.08C78.97 34.98 78.95 34.90 78.89 34.83C78.49 34.37 77.84 34.06 76.96 34.06C75.22 34.06 74.02 35.37 74.02 37.10C74.02 38.84 75.22 40.14 76.96 40.14C77.82 40.14 78.41 39.86 78.84 39.44C78.94 39.35 78.98 39.23 78.98 39.12ZM85.52 32.44C85.52 32.16 85.28 31.92 85.01 31.92C84.70 31.92 84.46 32.16 84.46 32.44L84.46 35.04C83.99 34.42 83.42 34.06 82.55 34.06C81.04 34.06 79.97 35.25 79.97 37.11C79.97 39.00 81.05 40.14 82.55 40.14C83.45 40.14 84.01 39.75 84.46 39.17L84.46 39.54C84.46 39.83 84.70 40.07 84.98 40.07C85.28 40.07 85.52 39.83 85.52 39.54ZM84.46 37.14C84.46 38.34 83.86 39.20 82.82 39.20C81.74 39.20 81.07 38.32 81.07 37.11C81.07 35.90 81.74 35.01 82.82 35.01C83.86 35.01 84.46 35.88 84.46 37.07ZM92.23 36.28C92.23 35.06 91.34 34.06 90.12 34.06C89.11 34.06 88.60 34.55 88.32 35.02L88.32 34.65C88.32 34.37 88.08 34.13 87.80 34.13C87.49 34.13 87.25 34.37 87.25 34.65L87.25 39.54C87.25 39.83 87.49 40.07 87.78 40.07C88.08 40.07 88.32 39.83 88.32 39.54L88.32 36.76C88.32 35.78 88.85 35.01 89.77 35.01C90.64 35.01 91.16 35.68 91.16 36.64L91.16 39.54C91.16 39.83 91.40 40.07 91.69 40.07C91.99 40.07 92.23 39.83 92.23 39.54ZM101.66 39.12C101.66 38.85 101.41 38.66 101.16 38.66C101.04 38.66 100.92 38.69 100.82 38.76C100.50 39.05 100.13 39.20 99.70 39.20C98.54 39.20 97.80 38.31 97.80 37.10C97.80 35.88 98.54 35.01 99.70 35.01C100.12 35.01 100.50 35.14 100.82 35.43C100.92 35.51 101.04 35.56 101.16 35.56C101.42 35.56 101.65 35.34 101.65 35.08C101.65 34.98 101.63 34.90 101.57 34.83C101.17 34.37 100.52 34.06 99.64 34.06C97.90 34.06 96.70 35.37 96.70 37.10C96.70 38.84 97.90 40.14 99.64 40.14C100.50 40.14 101.09 39.86 101.52 39.44C101.62 39.35 101.66 39.23 101.66 39.12ZM108.49 37.10C108.49 35.43 107.38 34.06 105.56 34.06C103.76 34.06 102.65 35.43 102.65 37.10C102.65 38.76 103.76 40.14 105.56 40.14C107.38 40.14 108.49 38.76 108.49 37.10ZM107.38 37.10C107.38 38.21 106.73 39.20 105.56 39.20C104.41 39.20 103.75 38.21 103.75 37.10C103.75 35.99 104.41 35.01 105.56 35.01C106.73 35.01 107.38 35.99 107.38 37.10ZM115.08 32.44C115.08 32.16 114.84 31.92 114.56 31.92C114.25 31.92 114.01 32.16 114.01 32.44L114.01 35.04C113.54 34.42 112.98 34.06 112.10 34.06C110.59 34.06 109.52 35.25 109.52 37.11C109.52 39.00 110.60 40.14 112.10 40.14C113.00 40.14 113.57 39.75 114.01 39.17L114.01 39.54C114.01 39.83 114.25 40.07 114.54 40.07C114.84 40.07 115.08 39.83 115.08 39.54ZM114.01 37.14C114.01 38.34 113.41 39.20 112.38 39.20C111.30 39.20 110.63 38.32 110.63 37.11C110.63 35.90 111.30 35.01 112.38 35.01C113.41 35.01 114.01 35.88 114.01 37.07ZM122.16 36.90C122.16 36.68 122.10 36.42 122.05 36.23C121.72 34.94 120.76 34.06 119.35 34.06C117.67 34.06 116.46 35.42 116.46 37.10C116.46 38.92 117.72 40.14 119.45 40.14C120.30 40.14 121.79 39.70 121.79 39.05C121.79 38.64 121.38 38.55 121.12 38.68C120.70 38.99 120.05 39.28 119.56 39.28C118.38 39.28 117.66 38.48 117.58 37.48L121.61 37.48C121.91 37.48 122.16 37.19 122.16 36.90ZM117.58 36.69C117.62 35.88 118.19 34.92 119.34 34.92C120.58 34.92 121.10 35.91 121.13 36.69ZM126.77 32.46C126.77 32.06 126.07 31.88 125.56 31.88C124.49 31.88 123.80 32.60 123.80 33.80L123.80 34.20L123.23 34.20C122.98 34.20 122.77 34.41 122.77 34.66C122.77 34.94 122.98 35.14 123.23 35.14L123.80 35.14L123.80 39.54C123.80 39.83 124.04 40.07 124.33 40.07C124.63 40.07 124.87 39.83 124.87 39.54L124.87 35.14L125.66 35.14C125.92 35.14 126.12 34.94 126.12 34.68C126.12 34.41 125.92 34.20 125.66 34.20L124.87 34.20L124.87 33.80C124.87 33.11 125.18 32.74 125.74 32.74C125.99 32.74 126.17 32.88 126.36 32.88C126.56 32.88 126.77 32.73 126.77 32.46ZM127.60 32.06C127.22 32.06 126.91 32.37 126.91 32.75C126.91 33.12 127.22 33.44 127.60 33.44C127.98 33.44 128.28 33.12 128.28 32.75C128.28 32.37 127.98 32.06 127.60 32.06ZM128.14 34.65C128.14 34.37 127.90 34.13 127.62 34.13C127.31 34.13 127.07 34.37 127.07 34.65L127.07 39.54C127.07 39.83 127.31 40.07 127.60 40.07C127.90 40.07 128.14 39.83 128.14 39.54ZM130.93 32.44C130.93 32.16 130.69 31.92 130.42 31.92C130.10 31.92 129.86 32.16 129.86 32.44L129.86 39.54C129.86 39.83 130.10 40.07 130.39 40.07C130.69 40.07 130.93 39.83 130.93 39.54ZM138.01 36.90C138.01 36.68 137.95 36.42 137.90 36.23C137.57 34.94 136.61 34.06 135.20 34.06C133.52 34.06 132.31 35.42 132.31 37.10C132.31 38.92 133.57 40.14 135.30 40.14C136.15 40.14 137.64 39.70 137.64 39.05C137.64 38.64 137.23 38.55 136.97 38.68C136.55 38.99 135.90 39.28 135.41 39.28C134.23 39.28 133.51 38.48 133.43 37.48L137.46 37.48C137.76 37.48 138.01 37.19 138.01 36.90ZM133.43 36.69C133.48 35.88 134.04 34.92 135.19 34.92C136.43 34.92 136.96 35.91 136.98 36.69ZM143.63 38.25C143.52 36.21 140.20 36.77 140.08 35.73C140.03 35.26 140.53 34.91 141.26 34.91C141.82 34.91 142.33 35.09 142.70 35.36C142.78 35.42 142.86 35.44 142.96 35.44C143.17 35.44 143.38 35.26 143.38 35.02C143.38 34.92 143.34 34.83 143.27 34.76C142.81 34.31 142.08 34.06 141.25 34.06C139.84 34.06 138.98 34.73 139.04 35.76C139.15 37.71 142.46 37.11 142.58 38.39C142.63 38.92 142.15 39.29 141.32 39.29C140.72 39.29 140.12 39.05 139.69 38.74C139.61 38.68 139.52 38.66 139.42 38.66C139.16 38.66 138.95 38.85 138.95 39.10C138.95 39.22 139.00 39.32 139.08 39.39C139.61 39.92 140.48 40.14 141.28 40.14C142.81 40.14 143.69 39.35 143.63 38.25Z" fill="#627386" /><rect x="18" y="50" width="384" height="6" rx="3" fill="#f4faff" /><rect x="18" y="50" width="30.37" height="6" rx="3" fill="#663399" /></svg>