<svg xmlns="http://www.w3.org/2000/svg" width="420" height="64" viewBox="0 0 420 64" role="img"><rect x="0.5" y="0.5" width="419" height="63" rx="10" fill="#ffffff" stroke="#f2f4f6" /><path d="M24.45 22.92C24.45 22.46 24.03 22.15 23.60 22.15C23.43 22.15 23.28 22.19 23.12 22.29C22.82 22.49 22.48 22.59 22.12 22.59C21.04 22.59 20.28 21.79 20.28 20.61C20.28 19.44 21.04 18.65 22.12 18.65C22.47 18.65 22.82 18.75 23.11 18.93C23.26 19.03 23.43 19.07 23.60 19.07C23.99 19.07 24.44 18.79 24.44 18.32C24.44 18.20 24.41 18.09 24.36 17.99C24.06 17.45 23.08 17.07 22.03 17.07C19.95 17.07 18.45 18.54 18.45 20.61C18.45 22.70 19.95 24.17 22.03 24.17C22.98 24.17 23.68 23.89 24.17 23.50C24.36 23.36 24.45 23.13 24.45 22.92ZM25.45 20.63C25.45 22.88 26.88 24.17 28.58 24.17C29.40 24.17 30.14 23.80 30.53 23.13L30.53 23.20C30.53 23.69 30.92 24.08 31.43 24.08C31.92 24.08 32.31 23.69 32.31 23.20L32.31 15.45C32.31 14.97 31.92 14.58 31.40 14.58C30.92 14.58 30.53 14.97 30.53 15.45L30.53 18.11C30.14 17.42 29.38 17.07 28.58 17.07C26.86 17.07 25.45 18.41 25.45 20.63ZM27.28 20.63C27.28 19.45 27.97 18.65 29.00 18.65C29.72 18.65 30.53 19.41 30.53 20.56L30.53 20.71C30.53 21.84 29.72 22.59 29.00 22.59C27.97 22.59 27.28 21.80 27.28 20.63ZM40.41 19.65C40.41 18.33 39.28 17.07 37.80 17.07C36.76 17.07 36.12 17.62 35.85 18.04L35.85 18.02C35.85 17.55 35.46 17.15 34.98 17.15C34.46 17.15 34.07 17.55 34.07 18.02L34.07 23.20C34.07 23.69 34.46 24.08 34.95 24.08C35.46 24.08 35.85 23.69 35.85 23.20L35.85 20.22C35.85 19.25 36.55 18.65 37.25 18.65C38.01 18.65 38.64 19.25 38.64 20.19L38.64 23.20C38.64 23.69 39.03 24.08 39.52 24.08C40.02 24.08 40.41 23.69 40.41 23.20ZM45.16 20.60C45.16 20.19 44.82 19.86 44.42 19.86L42.37 19.86C41.97 19.86 41.63 20.19 41.63 20.60C41.63 21.03 41.97 21.37 42.37 21.37L44.42 21.37C44.82 21.37 45.16 21.03 45.16 20.60ZM52.80 18.04C52.80 17.55 52.41 17.15 51.92 17.15C51.40 17.15 51.01 17.55 51.01 18.04L51.01 18.11C50.59 17.49 49.84 17.07 48.93 17.07C47.22 17.07 45.94 18.30 45.94 20.51C45.94 22.77 47.23 23.96 48.93 23.96C49.89 23.96 50.69 23.57 51.01 22.89L51.01 23.58C51.01 24.91 50.00 25.29 49.15 25.29C48.55 25.29 48.02 25.16 47.54 24.87C47.41 24.80 47.29 24.77 47.16 24.77C46.77 24.77 46.42 25.08 46.42 25.51C46.42 25.65 46.46 25.79 46.53 25.90C46.94 26.53 48.32 26.74 49.15 26.74C50.82 26.74 52.80 26.11 52.80 23.54ZM51.01 20.56C51.01 21.69 50.21 22.38 49.49 22.38C48.48 22.38 47.78 21.68 47.78 20.51C47.78 19.35 48.48 18.65 49.49 18.65C50.21 18.65 51.01 19.32 51.01 20.47ZM60.99 20.40C60.99 20.07 60.90 19.66 60.80 19.35C60.32 17.95 59.16 17.07 57.63 17.07C55.58 17.07 54.13 18.65 54.13 20.61C54.13 22.78 55.69 24.17 57.75 24.17C58.78 24.17 60.28 23.78 60.36 22.98C60.41 22.56 59.99 22.26 59.61 22.26C59.50 22.26 59.37 22.29 59.26 22.35C58.84 22.57 58.32 22.75 57.94 22.75C56.79 22.75 56.11 22.07 56.00 21.21L60.17 21.21C60.63 21.21 60.99 20.84 60.99 20.40ZM55.97 20.01C56.05 19.34 56.53 18.48 57.63 18.48C58.81 18.48 59.26 19.37 59.30 20.01ZM66.01 23.36C66.01 22.92 65.73 22.59 65.22 22.59L65.07 22.59C64.79 22.59 64.45 22.38 64.45 21.84L64.45 18.79L65.15 18.79C65.56 18.79 65.91 18.44 65.91 18.02C65.91 17.59 65.56 17.24 65.15 17.24L64.45 17.24L64.45 16.19C64.45 15.70 64.06 15.31 63.57 15.31C63.05 15.31 62.66 15.70 62.66 16.19L62.66 17.24L62.23 17.24C61.81 17.24 61.46 17.59 61.46 17.99C61.46 18.44 61.81 18.79 62.23 18.79L62.66 18.79L62.66 22.32C62.66 23.52 63.33 24.17 64.58 24.17C65.74 24.17 66.01 23.80 66.01 23.36ZM72.40 22.00C72.40 19.27 68.40 20.11 68.40 19.10C68.40 18.72 68.82 18.43 69.46 18.43C70.01 18.43 70.56 18.58 70.99 18.83C71.09 18.89 71.21 18.92 71.33 18.92C71.69 18.92 72.03 18.62 72.03 18.25C72.03 18.12 71.98 17.99 71.91 17.90C71.54 17.35 70.33 17.07 69.45 17.07C67.67 17.07 66.68 18.06 66.68 19.20C66.68 21.86 70.70 20.95 70.70 22.07C70.70 22.49 70.33 22.80 69.56 22.80C68.97 22.80 68.27 22.56 67.74 22.25C67.63 22.18 67.50 22.15 67.38 22.15C67 22.15 66.64 22.47 66.64 22.89C66.64 23.03 66.68 23.16 66.76 23.27C67.18 23.87 68.60 24.17 69.48 24.17C71.35 24.17 72.40 23.23 72.40 22.00ZM80.08 19.90C80.08 18.44 78.94 17.07 77.46 17.07C76.35 17.07 75.79 17.60 75.50 17.98L75.50 15.45C75.50 14.97 75.11 14.58 74.63 14.58C74.11 14.58 73.72 14.97 73.72 15.45L73.72 23.20C73.72 23.69 74.11 24.08 74.60 24.08C75.11 24.08 75.50 23.69 75.50 23.20L75.50 20.15C75.50 19.32 76.07 18.65 76.90 18.65C77.67 18.65 78.30 19.23 78.30 20.16L78.30 23.20C78.30 23.69 78.69 24.08 79.18 24.08C79.68 24.08 80.08 23.69 80.08 23.20ZM87.68 19.63C87.68 17.69 86.26 17.07 84.72 17.07C83.94 17.07 82.43 17.35 82.01 18.02C81.95 18.12 81.91 18.25 81.91 18.37C81.91 18.79 82.26 19.06 82.58 19.06C82.69 19.06 82.81 19.02 82.90 18.96C83.37 18.65 83.88 18.53 84.42 18.53C85.31 18.53 85.90 18.97 85.90 19.66L85.90 19.88L83.76 19.88C82.68 19.88 81.41 20.35 81.41 21.93C81.41 23.44 82.68 24.17 83.76 24.17C84.78 24.17 85.44 23.92 85.90 23.37C85.90 23.68 86.19 24.08 86.67 24.08L86.81 24.08C87.29 24.08 87.68 23.69 87.68 23.20ZM85.90 21.09L85.90 21.40C85.90 22.49 85.05 22.96 84.47 22.96C83.77 22.96 83.20 22.60 83.20 21.97C83.20 21.31 83.77 21.09 84.47 21.09ZM93.46 17.91C93.46 17.50 93.19 17.18 92.68 17.18C92.00 17.18 91.56 17.71 91.22 18.16L91.22 18.02C91.22 17.55 90.83 17.15 90.35 17.15C89.83 17.15 89.44 17.55 89.44 18.02L89.44 23.20C89.44 23.69 89.83 24.08 90.32 24.08L90.35 24.08C90.83 24.08 91.22 23.69 91.22 23.20L91.22 20.37C91.22 19.25 92.06 18.89 92.61 18.82C93.10 18.75 93.46 18.44 93.46 17.91ZM100.91 20.40C100.91 20.07 100.81 19.66 100.71 19.35C100.24 17.95 99.07 17.07 97.55 17.07C95.49 17.07 94.05 18.65 94.05 20.61C94.05 22.78 95.60 24.17 97.66 24.17C98.70 24.17 100.19 23.78 100.28 22.98C100.32 22.56 99.90 22.26 99.52 22.26C99.41 22.26 99.28 22.29 99.17 22.35C98.75 22.57 98.23 22.75 97.86 22.75C96.71 22.75 96.02 22.07 95.91 21.21L100.08 21.21C100.54 21.21 100.91 20.84 100.91 20.40ZM95.88 20.01C95.97 19.34 96.44 18.48 97.55 18.48C98.72 18.48 99.17 19.37 99.21 20.01ZM107.59 22.00C107.59 19.27 103.58 20.11 103.58 19.10C103.58 18.72 104.00 18.43 104.65 18.43C105.19 18.43 105.74 18.58 106.17 18.83C106.27 18.89 106.40 18.92 106.51 18.92C106.87 18.92 107.21 18.62 107.21 18.25C107.21 18.12 107.17 17.99 107.10 17.90C106.72 17.35 105.51 17.07 104.63 17.07C102.85 17.07 101.86 18.06 101.86 19.20C101.86 21.86 105.88 20.95 105.88 22.07C105.88 22.49 105.51 22.80 104.74 22.80C104.16 22.80 103.46 22.56 102.92 22.25C102.81 22.18 102.69 22.15 102.56 22.15C102.18 22.15 101.82 22.47 101.82 22.89C101.82 23.03 101.86 23.16 101.94 23.27C102.36 23.87 103.78 24.17 104.66 24.17C106.54 24.17 107.59 23.23 107.59 22.00ZM110.95 23.02C110.95 22.40 110.43 21.89 109.81 21.89C109.20 21.89 108.68 22.40 108.68 23.02C108.68 23.64 109.20 24.15 109.81 24.15C110.43 24.15 110.95 23.64 110.95 23.02ZM118.86 18.04C118.86 17.55 118.46 17.15 117.97 17.15C117.46 17.15 117.06 17.55 117.06 18.04L117.06 18.11C116.64 17.49 115.89 17.07 114.98 17.07C113.27 17.07 112.00 18.30 112.00 20.51C112.00 22.77 113.28 23.96 114.98 23.96C115.94 23.96 116.74 23.57 117.06 22.89L117.06 23.58C117.06 24.91 116.06 25.29 115.20 25.29C114.60 25.29 114.07 25.16 113.59 24.87C113.47 24.80 113.34 24.77 113.21 24.77C112.82 24.77 112.47 25.08 112.47 25.51C112.47 25.65 112.51 25.79 112.58 25.90C112.99 26.53 114.38 26.74 115.20 26.74C116.87 26.74 118.86 26.11 118.86 23.54ZM117.06 20.56C117.06 21.69 116.27 22.38 115.54 22.38C114.53 22.38 113.83 21.68 113.83 20.51C113.83 19.35 114.53 18.65 115.54 18.65C116.27 18.65 117.06 19.32 117.06 20.47ZM121.50 14.40C120.93 14.40 120.44 14.86 120.44 15.45C120.44 16.03 120.93 16.51 121.50 16.51C122.09 16.51 122.57 16.03 122.57 15.45C122.57 14.86 122.09 14.40 121.50 14.40ZM122.40 18.02C122.40 17.55 122.01 17.15 121.53 17.15C121.01 17.15 120.62 17.55 120.62 18.02L120.62 23.20C120.62 23.69 121.01 24.08 121.50 24.08C122.01 24.08 122.40 23.69 122.40 23.20ZM127.86 23.36C127.86 22.92 127.58 22.59 127.07 22.59L126.92 22.59C126.64 22.59 126.30 22.38 126.30 21.84L126.30 18.79L127.00 18.79C127.41 18.79 127.76 18.44 127.76 18.02C127.76 17.59 127.41 17.24 127.00 17.24L126.30 17.24L126.30 16.19C126.30 15.70 125.91 15.31 125.42 15.31C124.90 15.31 124.51 15.70 124.51 16.19L124.51 17.24L124.08 17.24C123.66 17.24 123.31 17.59 123.31 17.99C123.31 18.44 123.66 18.79 124.08 18.79L124.51 18.79L124.51 22.32C124.51 23.52 125.18 24.17 126.43 24.17C127.59 24.17 127.86 23.80 127.86 23.36ZM135.25 19.90C135.25 18.44 134.12 17.07 132.63 17.07C131.53 17.07 130.97 17.60 130.67 17.98L130.67 15.45C130.67 14.97 130.28 14.58 129.80 14.58C129.29 14.58 128.89 14.97 128.89 15.45L128.89 23.20C128.89 23.69 129.29 24.08 129.78 24.08C130.28 24.08 130.67 23.69 130.67 23.20L130.67 20.15C130.67 19.32 131.25 18.65 132.07 18.65C132.84 18.65 133.47 19.23 133.47 20.16L133.47 23.20C133.47 23.69 133.86 24.08 134.35 24.08C134.86 24.08 135.25 23.69 135.25 23.20ZM137.01 21.59C137.01 22.91 138.15 24.17 139.63 24.17C140.70 24.17 141.34 23.62 141.58 23.20L141.58 23.22C141.58 23.69 141.97 24.08 142.45 24.08C142.96 24.08 143.36 23.69 143.36 23.22L143.36 18.04C143.36 17.55 142.96 17.15 142.47 17.15C141.97 17.15 141.58 17.55 141.58 18.04L141.58 21.02C141.58 21.98 140.88 22.59 140.18 22.59C139.42 22.59 138.79 21.98 138.79 21.05L138.79 18.04C138.79 17.55 138.40 17.15 137.91 17.15C137.41 17.15 137.01 17.55 137.01 18.04ZM151.98 20.63C151.98 18.41 150.57 17.07 148.84 17.07C148.05 17.07 147.29 17.42 146.90 18.11L146.90 15.45C146.90 14.97 146.51 14.58 146.03 14.58C145.51 14.58 145.12 14.97 145.12 15.45L145.12 23.20C145.12 23.69 145.51 24.08 146.00 24.08C146.51 24.08 146.90 23.69 146.90 23.20L146.90 23.13C147.29 23.80 148.03 24.17 148.84 24.17C150.55 24.17 151.98 22.88 151.98 20.63ZM150.15 20.63C150.15 21.80 149.46 22.59 148.42 22.59C147.71 22.59 146.90 21.84 146.90 20.71L146.90 20.56C146.90 19.41 147.71 18.65 148.42 18.65C149.46 18.65 150.15 19.45 150.15 20.63ZM155.31 23.02C155.31 22.40 154.79 21.89 154.18 21.89C153.56 21.89 153.04 22.40 153.04 23.02C153.04 23.64 153.56 24.15 154.18 24.15C154.79 24.15 155.31 23.64 155.31 23.02ZM157.73 14.40C157.16 14.40 156.67 14.86 156.67 15.45C156.67 16.03 157.16 16.51 157.73 16.51C158.32 16.51 158.80 16.03 158.80 15.45C158.80 14.86 158.32 14.40 157.73 14.40ZM158.63 18.02C158.63 17.55 158.24 17.15 157.76 17.15C157.24 17.15 156.85 17.55 156.85 18.02L156.85 23.20C156.85 23.69 157.24 24.08 157.73 24.08C158.24 24.08 158.63 23.69 158.63 23.20ZM167.11 20.61C167.11 18.69 165.77 17.07 163.53 17.07C161.30 17.07 159.96 18.69 159.96 20.61C159.96 22.54 161.30 24.17 163.53 24.17C165.77 24.17 167.11 22.54 167.11 20.61ZM165.27 20.61C165.27 21.68 164.64 22.59 163.53 22.59C162.42 22.59 161.81 21.68 161.81 20.61C161.81 19.56 162.42 18.65 163.53 18.65C164.64 18.65 165.27 19.56 165.27 20.61Z" fill="#22272e" /><path d="M401.56 19.67C401.56 17.43 400.44 15.20 397.97 15.20C395.49 15.20 394.38 17.43 394.38 19.67C394.38 21.91 395.49 24.16 397.97 24.16C400.44 24.16 401.56 21.91 401.56 19.67ZM399.67 19.67C399.67 21.27 399.20 22.52 397.97 22.52C396.72 22.52 396.25 21.27 396.25 19.67C396.25 18.07 396.72 16.84 397.97 16.84C399.20 16.84 399.67 18.07 399.67 19.67Z" fill="#627386" /><path transform="translate(376.94, 12)" d="M6 0.5 L7.5 4.2 L11.5 4.5 L8.4 7 L9.4 11 L6 8.8 L2.6 11 L3.6 7 L0.5 4.5 L4.5 4.2 Z" fill="#627386" /><path d="" fill="#627386" /><rect x="18" y="50" width="384" height="6" rx="3" fill="#f4faff" /><rect x="18" y="50" width="0.00" height="6" rx="3" fill="#663399" /></svg>