<svg xmlns="http://www.w3.org/2000/svg" width="420" height="64" viewBox="0 0 420 64" role="img"><rect x="0.5" y="0.5" width="419" height="63" rx="10" fill="#ffffff" stroke="#f2f4f6" /><path d="M20.66 15.45C20.66 14.97 20.27 14.58 19.79 14.58C19.27 14.58 18.88 14.97 18.88 15.45L18.88 23.20C18.88 23.69 19.27 24.08 19.76 24.08C20.27 24.08 20.66 23.69 20.66 23.20ZM28.85 20.40C28.85 20.07 28.75 19.66 28.65 19.35C28.18 17.95 27.02 17.07 25.49 17.07C23.43 17.07 21.99 18.65 21.99 20.61C21.99 22.78 23.54 24.17 25.60 24.17C26.64 24.17 28.14 23.78 28.22 22.98C28.26 22.56 27.84 22.26 27.46 22.26C27.35 22.26 27.23 22.29 27.11 22.35C26.69 22.57 26.18 22.75 25.80 22.75C24.65 22.75 23.96 22.07 23.85 21.21L28.02 21.21C28.49 21.21 28.85 20.84 28.85 20.40ZM23.82 20.01C23.91 19.34 24.38 18.48 25.49 18.48C26.67 18.48 27.11 19.37 27.16 20.01ZM33.86 23.36C33.86 22.92 33.58 22.59 33.08 22.59L32.92 22.59C32.64 22.59 32.31 22.38 32.31 21.84L32.31 18.79L33.01 18.79C33.41 18.79 33.76 18.44 33.76 18.02C33.76 17.59 33.41 17.24 33.01 17.24L32.31 17.24L32.31 16.19C32.31 15.70 31.92 15.31 31.43 15.31C30.91 15.31 30.52 15.70 30.52 16.19L30.52 17.24L30.08 17.24C29.66 17.24 29.31 17.59 29.31 17.99C29.31 18.44 29.66 18.79 30.08 18.79L30.52 18.79L30.52 22.32C30.52 23.52 31.19 24.17 32.43 24.17C33.60 24.17 33.86 23.80 33.86 23.36ZM40.26 22.00C40.26 19.27 36.26 20.11 36.26 19.10C36.26 18.72 36.68 18.43 37.32 18.43C37.87 18.43 38.41 18.58 38.85 18.83C38.94 18.89 39.07 18.92 39.18 18.92C39.55 18.92 39.88 18.62 39.88 18.25C39.88 18.12 39.84 17.99 39.77 17.90C39.39 17.35 38.19 17.07 37.31 17.07C35.53 17.07 34.53 18.06 34.53 19.20C34.53 21.86 38.55 20.95 38.55 22.07C38.55 22.49 38.19 22.80 37.42 22.80C36.83 22.80 36.13 22.56 35.60 22.25C35.49 22.18 35.36 22.15 35.23 22.15C34.86 22.15 34.49 22.47 34.49 22.89C34.49 23.03 34.53 23.16 34.62 23.27C35.04 23.87 36.45 24.17 37.33 24.17C39.21 24.17 40.26 23.23 40.26 22.00ZM44.56 20.60C44.56 20.19 44.22 19.86 43.82 19.86L41.77 19.86C41.37 19.86 41.03 20.19 41.03 20.60C41.03 21.03 41.37 21.37 41.77 21.37L43.82 21.37C44.22 21.37 44.56 21.03 44.56 20.60ZM49.47 23.36C49.47 22.92 49.19 22.59 48.69 22.59L48.53 22.59C48.25 22.59 47.92 22.38 47.92 21.84L47.92 18.79L48.62 18.79C49.02 18.79 49.37 18.44 49.37 18.02C49.37 17.59 49.02 17.24 48.62 17.24L47.92 17.24L47.92 16.19C47.92 15.70 47.53 15.31 47.04 15.31C46.52 15.31 46.13 15.70 46.13 16.19L46.13 17.24L45.69 17.24C45.27 17.24 44.92 17.59 44.92 17.99C44.92 18.44 45.27 18.79 45.69 18.79L46.13 18.79L46.13 22.32C46.13 23.52 46.80 24.17 48.04 24.17C49.21 24.17 49.47 23.80 49.47 23.36ZM56.35 19.63C56.35 17.69 54.93 17.07 53.39 17.07C52.61 17.07 51.10 17.35 50.68 18.02C50.62 18.12 50.58 18.25 50.58 18.37C50.58 18.79 50.93 19.06 51.25 19.06C51.36 19.06 51.47 19.02 51.57 18.96C52.03 18.65 52.55 18.53 53.08 18.53C53.98 18.53 54.57 18.97 54.57 19.66L54.57 19.88L52.43 19.88C51.35 19.88 50.07 20.35 50.07 21.93C50.07 23.44 51.35 24.17 52.43 24.17C53.45 24.17 54.11 23.92 54.57 23.37C54.57 23.68 54.86 24.08 55.34 24.08L55.48 24.08C55.95 24.08 56.35 23.69 56.35 23.20ZM54.57 21.09L54.57 21.40C54.57 22.49 53.71 22.96 53.14 22.96C52.44 22.96 51.87 22.60 51.87 21.97C51.87 21.31 52.44 21.09 53.14 21.09ZM59.89 15.45C59.89 14.97 59.50 14.58 59.02 14.58C58.50 14.58 58.11 14.97 58.11 15.45L58.11 23.20C58.11 23.69 58.50 24.08 58.99 24.08C59.50 24.08 59.89 23.69 59.89 23.20ZM67.45 23.19C67.45 23.02 67.39 22.84 67.28 22.68L65.50 20.30L67.07 18.51C67.20 18.36 67.27 18.18 67.27 17.98C67.27 17.53 66.87 17.14 66.43 17.14C66.20 17.14 65.98 17.24 65.82 17.42L63.43 20.25L63.43 15.45C63.43 14.97 63.04 14.58 62.56 14.58C62.04 14.58 61.65 14.97 61.65 15.45L61.65 23.20C61.65 23.69 62.04 24.08 62.53 24.08C63.04 24.08 63.43 23.69 63.43 23.20L63.43 22.26L64.24 21.40L65.82 23.71C65.99 23.96 66.29 24.08 66.57 24.08C67.08 24.08 67.45 23.62 67.45 23.19ZM71.79 20.60C71.79 20.19 71.45 19.86 71.05 19.86L69.00 19.86C68.60 19.86 68.26 20.19 68.26 20.60C68.26 21.03 68.60 21.37 69.00 21.37L71.05 21.37C71.45 21.37 71.79 21.03 71.79 20.60ZM78.84 19.63C78.84 17.69 77.43 17.07 75.89 17.07C75.11 17.07 73.59 17.35 73.17 18.02C73.12 18.12 73.08 18.25 73.08 18.37C73.08 18.79 73.43 19.06 73.75 19.06C73.86 19.06 73.97 19.02 74.07 18.96C74.53 18.65 75.05 18.53 75.58 18.53C76.48 18.53 77.07 18.97 77.07 19.66L77.07 19.88L74.92 19.88C73.85 19.88 72.57 20.35 72.57 21.93C72.57 23.44 73.85 24.17 74.92 24.17C75.95 24.17 76.60 23.92 77.07 23.37C77.07 23.68 77.36 24.08 77.84 24.08L77.98 24.08C78.45 24.08 78.84 23.69 78.84 23.20ZM77.07 21.09L77.07 21.40C77.07 22.49 76.21 22.96 75.64 22.96C74.94 22.96 74.36 22.60 74.36 21.97C74.36 21.31 74.94 21.09 75.64 21.09ZM87.47 20.63C87.47 18.41 86.05 17.07 84.33 17.07C83.53 17.07 82.78 17.42 82.39 18.11L82.39 15.45C82.39 14.97 81.99 14.58 81.52 14.58C81.00 14.58 80.61 14.97 80.61 15.45L80.61 23.20C80.61 23.69 81.00 24.08 81.49 24.08C81.99 24.08 82.39 23.69 82.39 23.20L82.39 23.13C82.78 23.80 83.52 24.17 84.33 24.17C86.04 24.17 87.47 22.88 87.47 20.63ZM85.63 20.63C85.63 21.80 84.95 22.59 83.91 22.59C83.20 22.59 82.39 21.84 82.39 20.71L82.39 20.56C82.39 19.41 83.20 18.65 83.91 18.65C84.95 18.65 85.63 19.45 85.63 20.63ZM95.53 20.61C95.53 18.69 94.19 17.07 91.95 17.07C89.72 17.07 88.38 18.69 88.38 20.61C88.38 22.54 89.72 24.17 91.95 24.17C94.19 24.17 95.53 22.54 95.53 20.61ZM93.68 20.61C93.68 21.68 93.05 22.59 91.95 22.59C90.84 22.59 90.23 21.68 90.23 20.61C90.23 19.56 90.84 18.65 91.95 18.65C93.05 18.65 93.68 19.56 93.68 20.61ZM96.85 21.59C96.85 22.91 97.98 24.17 99.47 24.17C100.53 24.17 101.17 23.62 101.41 23.20L101.41 23.22C101.41 23.69 101.80 24.08 102.28 24.08C102.80 24.08 103.19 23.69 103.19 23.22L103.19 18.04C103.19 17.55 102.80 17.15 102.31 17.15C101.80 17.15 101.41 17.55 101.41 18.04L101.41 21.02C101.41 21.98 100.71 22.59 100.01 22.59C99.26 22.59 98.63 21.98 98.63 21.05L98.63 18.04C98.63 17.55 98.23 17.15 97.74 17.15C97.24 17.15 96.85 17.55 96.85 18.04ZM108.65 23.36C108.65 22.92 108.37 22.59 107.87 22.59L107.71 22.59C107.43 22.59 107.10 22.38 107.10 21.84L107.10 18.79L107.80 18.79C108.20 18.79 108.55 18.44 108.55 18.02C108.55 17.59 108.20 17.24 107.80 17.24L107.10 17.24L107.10 16.19C107.10 15.70 106.70 15.31 106.21 15.31C105.70 15.31 105.30 15.70 105.30 16.19L105.30 17.24L104.87 17.24C104.45 17.24 104.10 17.59 104.10 17.99C104.10 18.44 104.45 18.79 104.87 18.79L105.30 18.79L105.30 22.32C105.30 23.52 105.98 24.17 107.22 24.17C108.38 24.17 108.65 23.80 108.65 23.36ZM112.67 20.60C112.67 20.19 112.33 19.86 111.93 19.86L109.88 19.86C109.48 19.86 109.14 20.19 109.14 20.60C109.14 21.03 109.48 21.37 109.88 21.37L111.93 21.37C112.33 21.37 112.67 21.03 112.67 20.60ZM116.87 20.60C116.87 20.19 116.53 19.86 116.13 19.86L114.08 19.86C113.68 19.86 113.34 20.19 113.34 20.60C113.34 21.03 113.68 21.37 114.08 21.37L116.13 21.37C116.53 21.37 116.87 21.03 116.87 20.60ZM124.51 20.40C124.51 20.07 124.41 19.66 124.32 19.35C123.84 17.95 122.68 17.07 121.15 17.07C119.09 17.07 117.65 18.65 117.65 20.61C117.65 22.78 119.21 24.17 121.26 24.17C122.30 24.17 123.80 23.78 123.88 22.98C123.92 22.56 123.50 22.26 123.13 22.26C123.01 22.26 122.89 22.29 122.78 22.35C122.36 22.57 121.84 22.75 121.46 22.75C120.31 22.75 119.63 22.07 119.51 21.21L123.69 21.21C124.15 21.21 124.51 20.84 124.51 20.40ZM119.49 20.01C119.57 19.34 120.05 18.48 121.15 18.48C122.33 18.48 122.78 19.37 122.82 20.01ZM131.32 23.27C131.32 23.12 131.27 22.96 131.18 22.82L129.57 20.57L131.18 18.41C131.27 18.27 131.32 18.12 131.32 17.97C131.32 17.56 130.97 17.17 130.49 17.17C130.21 17.17 129.96 17.32 129.79 17.55L128.47 19.32L127.13 17.53C126.96 17.29 126.71 17.17 126.44 17.17C125.95 17.17 125.62 17.57 125.62 17.97C125.62 18.12 125.66 18.27 125.76 18.41L127.35 20.57L125.76 22.82C125.66 22.96 125.62 23.12 125.62 23.27C125.62 23.71 126.00 24.08 126.44 24.08C126.70 24.08 126.93 23.97 127.09 23.75L128.47 21.86L129.83 23.73C130 23.96 130.24 24.08 130.50 24.08C131.01 24.08 131.32 23.66 131.32 23.27ZM138.72 19.63C138.72 17.69 137.31 17.07 135.77 17.07C134.98 17.07 133.47 17.35 133.05 18.02C133.00 18.12 132.95 18.25 132.95 18.37C132.95 18.79 133.30 19.06 133.63 19.06C133.74 19.06 133.85 19.02 133.95 18.96C134.41 18.65 134.93 18.53 135.46 18.53C136.36 18.53 136.94 18.97 136.94 19.66L136.94 19.88L134.80 19.88C133.72 19.88 132.45 20.35 132.45 21.93C132.45 23.44 133.72 24.17 134.80 24.17C135.82 24.17 136.48 23.92 136.94 23.37C136.94 23.68 137.24 24.08 137.71 24.08L137.85 24.08C138.33 24.08 138.72 23.69 138.72 23.20ZM136.94 21.09L136.94 21.40C136.94 22.49 136.09 22.96 135.52 22.96C134.82 22.96 134.24 22.60 134.24 21.97C134.24 21.31 134.82 21.09 135.52 21.09ZM150.66 19.67C150.66 18.29 149.70 17.07 148.17 17.07C147.00 17.07 146.32 17.76 146.07 18.23C145.82 17.74 145.19 17.07 144.06 17.07C143.02 17.07 142.54 17.45 142.26 17.81L142.26 17.80C142.26 17.60 142.01 17.15 141.40 17.15C140.88 17.15 140.49 17.55 140.49 18.02L140.49 23.20C140.49 23.69 140.88 24.08 141.37 24.08C141.87 24.08 142.26 23.69 142.26 23.20L142.26 20.01C142.26 19.35 142.77 18.65 143.52 18.65C144.25 18.65 144.67 19.38 144.67 20.01L144.67 23.20C144.67 23.69 145.06 24.08 145.55 24.08C146.07 24.08 146.46 23.69 146.46 23.20L146.46 20.14C146.46 19.35 146.95 18.65 147.72 18.65C148.45 18.65 148.87 19.38 148.87 20.01L148.87 23.20C148.87 23.69 149.26 24.08 149.75 24.08C150.27 24.08 150.66 23.69 150.66 23.20ZM159.27 20.61C159.27 18.36 157.85 17.07 156.14 17.07C155.33 17.07 154.58 17.43 154.19 18.11L154.19 18.04C154.19 17.55 153.80 17.15 153.30 17.15C152.81 17.15 152.41 17.55 152.41 18.04L152.41 25.79C152.41 26.27 152.79 26.66 153.31 26.66C153.79 26.66 154.19 26.27 154.19 25.79L154.19 23.13C154.58 23.82 155.34 24.17 156.14 24.17C157.86 24.17 159.27 22.82 159.27 20.61ZM157.44 20.61C157.44 21.79 156.75 22.59 155.72 22.59C155.00 22.59 154.19 21.83 154.19 20.68L154.19 20.53C154.19 19.39 155.00 18.65 155.72 18.65C156.75 18.65 157.44 19.44 157.44 20.61ZM162.35 15.45C162.35 14.97 161.96 14.58 161.49 14.58C160.97 14.58 160.58 14.97 160.58 15.45L160.58 23.20C160.58 23.69 160.97 24.08 161.46 24.08C161.96 24.08 162.35 23.69 162.35 23.20ZM170.54 20.40C170.54 20.07 170.45 19.66 170.35 19.35C169.87 17.95 168.71 17.07 167.18 17.07C165.13 17.07 163.68 18.65 163.68 20.61C163.68 22.78 165.24 24.17 167.30 24.17C168.33 24.17 169.83 23.78 169.91 22.98C169.96 22.56 169.54 22.26 169.16 22.26C169.05 22.26 168.92 22.29 168.81 22.35C168.39 22.57 167.87 22.75 167.49 22.75C166.34 22.75 165.66 22.07 165.55 21.21L169.72 21.21C170.18 21.21 170.54 20.84 170.54 20.40ZM165.52 20.01C165.60 19.34 166.08 18.48 167.18 18.48C168.36 18.48 168.81 19.37 168.85 20.01Z" fill="#22272e" /><path d="M401.14 16.32C401.14 15.73 400.65 15.26 400.06 15.26C399.76 15.26 399.48 15.38 399.28 15.58L397.28 17.60C397.13 17.76 397.05 17.95 397.05 18.15C397.05 18.58 397.41 18.92 397.81 18.92C398.00 18.92 398.18 18.85 398.32 18.71L399.30 17.71L399.30 23.17C399.30 23.66 399.71 24.08 400.21 24.08C400.73 24.08 401.14 23.66 401.14 23.17Z" fill="#627386" /><path transform="translate(379.66, 12)" d="M6 0.5 L7.5 4.2 L11.5 4.5 L8.4 7 L9.4 11 L6 8.8 L2.6 11 L3.6 7 L0.5 4.5 L4.5 4.2 Z" fill="#627386" /><path d="M24.32 39.46C24.32 39.18 24.10 38.94 23.81 38.94L20.09 38.94L20.09 36.45L23.72 36.45C24.01 36.45 24.24 36.21 24.24 35.93C24.24 35.62 24.01 35.39 23.72 35.39L20.09 35.39L20.09 33.05L23.81 33.05C24.10 33.05 24.32 32.81 24.32 32.54C24.32 32.22 24.10 32.00 23.81 32.00L19.68 32.00C19.25 32.00 18.90 32.34 18.90 32.78L18.90 39.22C18.90 39.65 19.25 40 19.68 40L23.81 40C24.10 40 24.32 39.77 24.32 39.46ZM30.24 39.42C30.22 39.36 30.19 39.30 30.16 39.24L28.51 37.07L30.10 34.98C30.13 34.92 30.17 34.86 30.18 34.80C30.25 34.54 30.10 34.24 29.77 34.16C29.58 34.10 29.35 34.18 29.22 34.35L27.82 36.27L26.41 34.35C26.28 34.18 26.05 34.10 25.85 34.16C25.54 34.24 25.38 34.54 25.45 34.80C25.46 34.86 25.50 34.92 25.54 34.98L27.12 37.08L25.49 39.24C25.45 39.30 25.42 39.36 25.40 39.42C25.33 39.69 25.50 40.01 25.81 40.07C26.00 40.11 26.23 40.05 26.36 39.87L27.82 37.89L29.27 39.87C29.40 40.05 29.64 40.11 29.83 40.07C30.14 40.01 30.30 39.69 30.24 39.42ZM36.29 36.08C36.29 34.60 35.21 34.06 33.96 34.06C33.18 34.06 32.30 34.31 31.75 34.86C31.68 34.95 31.64 35.04 31.64 35.14C31.64 35.39 31.87 35.56 32.09 35.56C32.17 35.56 32.27 35.52 32.35 35.46C32.78 35.13 33.26 34.96 33.80 34.96C34.62 34.96 35.22 35.39 35.22 36.12L35.22 36.45L33.55 36.45C32.35 36.45 31.30 36.92 31.30 38.22C31.30 39.50 32.35 40.14 33.31 40.14C34.21 40.14 34.75 39.87 35.22 39.35L35.22 39.54C35.22 39.89 35.50 40.07 35.71 40.07L35.75 40.07C36.05 40.07 36.29 39.83 36.29 39.54ZM35.22 37.19L35.22 38.01C35.22 38.69 34.44 39.39 33.60 39.39C32.82 39.39 32.38 38.92 32.38 38.25C32.38 37.55 32.93 37.19 33.84 37.19ZM46.12 36.29C46.12 35.12 45.31 34.06 44.11 34.06C43.27 34.06 42.70 34.52 42.36 35.16C42.18 34.67 41.54 34.06 40.58 34.06C39.74 34.06 39.31 34.54 39.07 34.90L39.07 34.65C39.07 34.37 38.83 34.13 38.56 34.13C38.24 34.13 38.00 34.37 38.00 34.65L38.00 39.54C38.00 39.83 38.24 40.07 38.53 40.07C38.83 40.07 39.07 39.83 39.07 39.54L39.07 36.70C39.07 35.79 39.50 35.01 40.34 35.01C41.18 35.01 41.52 35.69 41.52 36.62L41.52 39.54C41.52 39.83 41.76 40.07 42.05 40.07C42.35 40.07 42.59 39.83 42.59 39.54L42.59 36.69C42.59 35.79 43.00 35.01 43.84 35.01C44.68 35.01 45.05 35.69 45.05 36.62L45.05 39.54C45.05 39.83 45.29 40.07 45.58 40.07C45.88 40.07 46.12 39.83 46.12 39.54ZM53.40 37.10C53.40 35.20 52.33 34.06 50.82 34.06C50.03 34.06 49.33 34.46 48.91 35.03L48.91 34.65C48.91 34.37 48.67 34.13 48.40 34.13C48.08 34.13 47.84 34.37 47.84 34.65L47.84 41.76C47.84 42.04 48.08 42.28 48.37 42.28C48.67 42.28 48.91 42.04 48.91 41.76L48.91 39.16C49.38 39.80 50.05 40.14 50.82 40.14C52.33 40.14 53.40 38.98 53.40 37.10ZM52.27 37.10C52.27 38.31 51.73 39.20 50.64 39.20C49.63 39.20 48.91 38.32 48.91 37.13L48.91 37.06C48.91 35.87 49.63 35.01 50.64 35.01C51.73 35.01 52.27 35.88 52.27 37.10ZM55.81 32.44C55.81 32.16 55.57 31.92 55.30 31.92C54.98 31.92 54.74 32.16 54.74 32.44L54.74 39.54C54.74 39.83 54.98 40.07 55.27 40.07C55.57 40.07 55.81 39.83 55.81 39.54ZM62.89 36.90C62.89 36.68 62.83 36.42 62.78 36.23C62.45 34.94 61.49 34.06 60.08 34.06C58.40 34.06 57.19 35.42 57.19 37.10C57.19 38.92 58.45 40.14 60.18 40.14C61.03 40.14 62.52 39.70 62.52 39.05C62.52 38.64 62.11 38.55 61.85 38.68C61.43 38.99 60.78 39.28 60.29 39.28C59.11 39.28 58.39 38.48 58.31 37.48L62.34 37.48C62.64 37.48 62.89 37.19 62.89 36.90ZM58.31 36.69C58.36 35.88 58.92 34.92 60.07 34.92C61.31 34.92 61.84 35.91 61.86 36.69ZM70.58 32.46C70.58 32.06 69.89 31.88 69.37 31.88C68.30 31.88 67.62 32.60 67.62 33.80L67.62 34.20L67.04 34.20C66.79 34.20 66.59 34.41 66.59 34.66C66.59 34.94 66.79 35.14 67.04 35.14L67.62 35.14L67.62 39.54C67.62 39.83 67.86 40.07 68.15 40.07C68.45 40.07 68.69 39.83 68.69 39.54L68.69 35.14L69.48 35.14C69.73 35.14 69.94 34.94 69.94 34.68C69.94 34.41 69.73 34.20 69.48 34.20L68.69 34.20L68.69 33.80C68.69 33.11 69 32.74 69.55 32.74C69.80 32.74 69.98 32.88 70.18 32.88C70.38 32.88 70.58 32.73 70.58 32.46ZM76.38 37.10C76.38 35.43 75.26 34.06 73.45 34.06C71.65 34.06 70.54 35.43 70.54 37.10C70.54 38.76 71.65 40.14 73.45 40.14C75.26 40.14 76.38 38.76 76.38 37.10ZM75.26 37.10C75.26 38.21 74.62 39.20 73.45 39.20C72.30 39.20 71.64 38.21 71.64 37.10C71.64 35.99 72.30 35.01 73.45 35.01C74.62 35.01 75.26 35.99 75.26 37.10ZM80.81 34.60C80.81 34.32 80.60 34.12 80.33 34.12C79.68 34.12 79.15 34.66 78.83 35.10L78.83 34.65C78.83 34.37 78.59 34.13 78.31 34.13C78.00 34.13 77.76 34.37 77.76 34.65L77.76 39.54C77.76 39.83 77.99 40.06 78.28 40.07L78.29 40.07C78.59 40.07 78.83 39.83 78.83 39.54L78.83 36.57C78.83 35.81 79.36 35.21 80.27 35.16C80.57 35.15 80.81 34.91 80.81 34.60ZM89.15 38.25C89.04 36.21 85.72 36.77 85.60 35.73C85.55 35.26 86.05 34.91 86.78 34.91C87.34 34.91 87.85 35.09 88.22 35.36C88.30 35.42 88.38 35.44 88.48 35.44C88.69 35.44 88.90 35.26 88.90 35.02C88.90 34.92 88.86 34.83 88.79 34.76C88.33 34.31 87.60 34.06 86.77 34.06C85.36 34.06 84.50 34.73 84.56 35.76C84.67 37.71 87.98 37.11 88.10 38.39C88.15 38.92 87.67 39.29 86.84 39.29C86.24 39.29 85.64 39.05 85.21 38.74C85.13 38.68 85.04 38.66 84.94 38.66C84.68 38.66 84.47 38.85 84.47 39.10C84.47 39.22 84.52 39.32 84.60 39.39C85.13 39.92 86.00 40.14 86.80 40.14C88.33 40.14 89.21 39.35 89.15 38.25ZM91.58 32.44C91.58 32.16 91.34 31.92 91.07 31.92C90.76 31.92 90.52 32.16 90.52 32.44L90.52 39.54C90.52 39.83 90.76 40.07 91.04 40.07C91.34 40.07 91.58 39.83 91.58 39.54ZM93.84 32.06C93.47 32.06 93.16 32.37 93.16 32.75C93.16 33.12 93.47 33.44 93.84 33.44C94.22 33.44 94.52 33.12 94.52 32.75C94.52 32.37 94.22 32.06 93.84 32.06ZM94.38 34.65C94.38 34.37 94.14 34.13 93.86 34.13C93.55 34.13 93.31 34.37 93.31 34.65L93.31 39.54C93.31 39.83 93.55 40.07 93.84 40.07C94.14 40.07 94.38 39.83 94.38 39.54ZM101.32 32.44C101.32 32.16 101.08 31.92 100.80 31.92C100.49 31.92 100.25 32.16 100.25 32.44L100.25 35.04C99.78 34.42 99.22 34.06 98.34 34.06C96.83 34.06 95.76 35.25 95.76 37.11C95.76 39.00 96.84 40.14 98.34 40.14C99.24 40.14 99.80 39.75 100.25 39.17L100.25 39.54C100.25 39.83 100.49 40.07 100.78 40.07C101.08 40.07 101.32 39.83 101.32 39.54ZM100.25 37.14C100.25 38.34 99.65 39.20 98.62 39.20C97.54 39.20 96.86 38.32 96.86 37.11C96.86 35.90 97.54 35.01 98.62 35.01C99.65 35.01 100.25 35.88 100.25 37.07ZM108.40 36.90C108.40 36.68 108.34 36.42 108.29 36.23C107.95 34.94 106.99 34.06 105.59 34.06C103.91 34.06 102.70 35.42 102.70 37.10C102.70 38.92 103.96 40.14 105.68 40.14C106.54 40.14 108.02 39.70 108.02 39.05C108.02 38.64 107.62 38.55 107.35 38.68C106.93 38.99 106.28 39.28 105.79 39.28C104.62 39.28 103.90 38.48 103.81 37.48L107.84 37.48C108.14 37.48 108.40 37.19 108.40 36.90ZM103.81 36.69C103.86 35.88 104.42 34.92 105.58 34.92C106.81 34.92 107.34 35.91 107.36 36.69ZM114.01 38.25C113.90 36.21 110.58 36.77 110.46 35.73C110.41 35.26 110.92 34.91 111.65 34.91C112.20 34.91 112.72 35.09 113.09 35.36C113.16 35.42 113.24 35.44 113.34 35.44C113.56 35.44 113.76 35.26 113.76 35.02C113.76 34.92 113.72 34.83 113.65 34.76C113.20 34.31 112.46 34.06 111.64 34.06C110.22 34.06 109.37 34.73 109.43 35.76C109.54 37.71 112.85 37.11 112.97 38.39C113.02 38.92 112.54 39.29 111.71 39.29C111.11 39.29 110.51 39.05 110.08 38.74C109.99 38.68 109.91 38.66 109.80 38.66C109.55 38.66 109.33 38.85 109.33 39.10C109.33 39.22 109.38 39.32 109.46 39.39C109.99 39.92 110.87 40.14 111.66 40.14C113.20 40.14 114.07 39.35 114.01 38.25ZM124.02 37.11C124.02 35.25 123.06 34.06 121.56 34.06C120.67 34.06 120.00 34.42 119.53 35.04L119.53 32.44C119.53 32.16 119.29 31.92 119.02 31.92C118.70 31.92 118.46 32.16 118.46 32.44L118.46 39.54C118.46 39.83 118.70 40.07 118.99 40.07C119.29 40.07 119.53 39.83 119.53 39.54L119.53 39.17C119.96 39.75 120.66 40.14 121.44 40.14C122.94 40.14 124.02 39.00 124.02 37.11ZM122.90 37.11C122.90 38.32 122.36 39.20 121.26 39.20C120.49 39.20 119.53 38.36 119.53 37.16L119.53 37.07C119.53 35.88 120.25 35.01 121.26 35.01C122.36 35.01 122.90 35.90 122.90 37.11ZM130.39 34.65C130.39 34.37 130.15 34.13 129.88 34.13C129.56 34.13 129.32 34.37 129.32 34.65L129.32 37.41C129.32 38.39 128.70 39.20 127.84 39.20C126.97 39.20 126.48 38.54 126.48 37.58L126.48 34.65C126.48 34.37 126.24 34.13 125.96 34.13C125.65 34.13 125.41 34.37 125.41 34.65L125.41 37.95C125.41 39.17 126.28 40.14 127.50 40.14C128.51 40.14 129.01 39.70 129.32 39.21L129.32 39.54C129.32 39.83 129.56 40.07 129.85 40.07C130.15 40.07 130.39 39.83 130.39 39.54ZM132.64 32.06C132.26 32.06 131.95 32.37 131.95 32.75C131.95 33.12 132.26 33.44 132.64 33.44C133.02 33.44 133.32 33.12 133.32 32.75C133.32 32.37 133.02 32.06 132.64 32.06ZM133.18 34.65C133.18 34.37 132.94 34.13 132.66 34.13C132.35 34.13 132.11 34.37 132.11 34.65L132.11 39.54C132.11 39.83 132.35 40.07 132.64 40.07C132.94 40.07 133.18 39.83 133.18 39.54ZM135.97 32.44C135.97 32.16 135.73 31.92 135.46 31.92C135.14 31.92 134.90 32.16 134.90 32.44L134.90 39.54C134.90 39.83 135.14 40.07 135.43 40.07C135.73 40.07 135.97 39.83 135.97 39.54ZM142.91 32.44C142.91 32.16 142.67 31.92 142.39 31.92C142.08 31.92 141.84 32.16 141.84 32.44L141.84 35.04C141.37 34.42 140.81 34.06 139.93 34.06C138.42 34.06 137.35 35.25 137.35 37.11C137.35 39.00 138.43 40.14 139.93 40.14C140.83 40.14 141.40 39.75 141.84 39.17L141.84 39.54C141.84 39.83 142.08 40.07 142.37 40.07C142.67 40.07 142.91 39.83 142.91 39.54ZM141.84 37.14C141.84 38.34 141.24 39.20 140.21 39.20C139.13 39.20 138.46 38.32 138.46 37.11C138.46 35.90 139.13 35.01 140.21 35.01C141.24 35.01 141.84 35.88 141.84 37.07ZM155.51 34.65C155.51 34.37 155.29 34.13 154.98 34.13C154.75 34.13 154.54 34.28 154.48 34.49L153.24 38.63L151.88 34.54C151.80 34.30 151.58 34.13 151.33 34.13C151.04 34.13 150.83 34.30 150.74 34.54L149.40 38.63L148.16 34.49C148.09 34.28 147.86 34.13 147.64 34.13C147.34 34.13 147.12 34.40 147.12 34.65C147.12 34.70 147.13 34.74 147.14 34.79L148.66 39.58C148.75 39.87 149.02 40.07 149.32 40.07L149.34 40.07C149.65 40.07 149.93 39.87 150.01 39.58L151.32 35.54L152.62 39.58C152.71 39.87 152.98 40.07 153.29 40.07L153.30 40.07C153.61 40.07 153.89 39.87 153.97 39.58L155.48 34.79C155.50 34.74 155.51 34.70 155.51 34.65ZM157.16 32.06C156.79 32.06 156.48 32.37 156.48 32.75C156.48 33.12 156.79 33.44 157.16 33.44C157.55 33.44 157.85 33.12 157.85 32.75C157.85 32.37 157.55 32.06 157.16 32.06ZM157.70 34.65C157.70 34.37 157.46 34.13 157.19 34.13C156.88 34.13 156.64 34.37 156.64 34.65L156.64 39.54C156.64 39.83 156.88 40.07 157.16 40.07C157.46 40.07 157.70 39.83 157.70 39.54ZM162.13 39.58C162.13 39.33 161.94 39.14 161.68 39.14C161.56 39.14 161.41 39.20 161.28 39.20C160.93 39.20 160.72 38.92 160.72 38.48L160.72 35.14L161.51 35.14C161.76 35.14 161.96 34.94 161.96 34.68C161.96 34.41 161.76 34.20 161.51 34.20L160.72 34.20L160.72 33.06C160.72 32.79 160.48 32.55 160.19 32.55C159.88 32.55 159.64 32.79 159.64 33.06L159.64 34.20L159.07 34.20C158.81 34.20 158.60 34.41 158.60 34.66C158.60 34.94 158.81 35.14 159.07 35.14L159.64 35.14L159.64 38.73C159.64 39.64 160.12 40.14 161.03 40.14C161.66 40.14 162.13 39.96 162.13 39.58ZM168.10 36.26C168.10 35.03 167.22 34.06 166.00 34.06C164.98 34.06 164.45 34.55 164.17 35.02L164.17 32.44C164.17 32.16 163.93 31.92 163.66 31.92C163.34 31.92 163.10 32.16 163.10 32.44L163.10 39.54C163.10 39.83 163.34 40.07 163.63 40.07C163.93 40.07 164.17 39.83 164.17 39.54L164.17 36.82C164.17 35.74 164.75 35.01 165.66 35.01C166.52 35.01 167.03 35.66 167.03 36.62L167.03 39.54C167.03 39.83 167.27 40.07 167.56 40.07C167.86 40.07 168.10 39.83 168.10 39.54ZM179.76 32.50C179.76 32.19 179.50 31.92 179.18 31.92C178.82 31.92 178.56 32.19 178.56 32.50L178.56 35.36L174.13 35.36L174.13 32.50C174.13 32.19 173.87 31.92 173.56 31.92C173.21 31.92 172.94 32.19 172.94 32.50L172.94 39.48C172.94 39.81 173.21 40.07 173.53 40.07C173.87 40.07 174.13 39.81 174.13 39.48L174.13 36.41L178.56 36.41L178.56 39.48C178.56 39.81 178.82 40.07 179.16 40.07C179.50 40.07 179.76 39.81 179.76 39.48ZM187.24 32.54C187.24 32.22 187.01 32.00 186.72 32.00L181.45 32.00C181.16 32.00 180.94 32.22 180.94 32.51C180.94 32.81 181.16 33.05 181.45 33.05L183.49 33.05L183.49 39.48C183.49 39.81 183.76 40.07 184.08 40.07C184.42 40.07 184.68 39.81 184.68 39.48L184.68 33.05L186.72 33.05C187.01 33.05 187.24 32.81 187.24 32.54ZM196.49 32.80C196.49 32.27 196.00 31.92 195.46 31.95C195.07 31.95 194.71 32.18 194.57 32.54L192.44 37.70L190.33 32.54C190.16 32.12 189.73 31.92 189.29 31.95C188.81 31.95 188.42 32.34 188.42 32.80L188.42 39.48C188.42 39.81 188.69 40.07 189.01 40.07C189.35 40.07 189.61 39.81 189.61 39.48L189.61 33.68L191.90 39.28C192.14 39.88 192.74 39.86 192.98 39.28L195.29 33.68L195.29 39.48C195.29 39.81 195.55 40.07 195.89 40.07C196.22 40.07 196.49 39.81 196.49 39.48ZM203.16 39.46C203.16 39.18 202.93 38.94 202.64 38.94L199.46 38.94L199.46 32.50C199.46 32.19 199.20 31.92 198.89 31.92C198.54 31.92 198.28 32.19 198.28 32.50L198.28 39.22C198.28 39.65 198.62 40 199.06 40L202.64 40C202.93 40 203.16 39.77 203.16 39.46ZM212.14 36.08C212.14 34.60 211.06 34.06 209.81 34.06C209.03 34.06 208.15 34.31 207.60 34.86C207.53 34.95 207.49 35.04 207.49 35.14C207.49 35.39 207.72 35.56 207.94 35.56C208.02 35.56 208.12 35.52 208.20 35.46C208.63 35.13 209.11 34.96 209.65 34.96C210.47 34.96 211.07 35.39 211.07 36.12L211.07 36.45L209.40 36.45C208.20 36.45 207.14 36.92 207.14 38.22C207.14 39.50 208.20 40.14 209.16 40.14C210.06 40.14 210.60 39.87 211.07 39.35L211.07 39.54C211.07 39.89 211.34 40.07 211.56 40.07L211.60 40.07C211.90 40.07 212.14 39.83 212.14 39.54ZM211.07 37.19L211.07 38.01C211.07 38.69 210.29 39.39 209.45 39.39C208.67 39.39 208.22 38.92 208.22 38.25C208.22 37.55 208.78 37.19 209.69 37.19ZM218.83 36.28C218.83 35.06 217.94 34.06 216.72 34.06C215.71 34.06 215.20 34.55 214.92 35.02L214.92 34.65C214.92 34.37 214.68 34.13 214.40 34.13C214.09 34.13 213.85 34.37 213.85 34.65L213.85 39.54C213.85 39.83 214.09 40.07 214.38 40.07C214.68 40.07 214.92 39.83 214.92 39.54L214.92 36.76C214.92 35.78 215.45 35.01 216.37 35.01C217.24 35.01 217.76 35.68 217.76 36.64L217.76 39.54C217.76 39.83 218.00 40.07 218.29 40.07C218.59 40.07 218.83 39.83 218.83 39.54ZM225.77 32.44C225.77 32.16 225.53 31.92 225.25 31.92C224.94 31.92 224.70 32.16 224.70 32.44L224.70 35.04C224.23 34.42 223.67 34.06 222.79 34.06C221.28 34.06 220.21 35.25 220.21 37.11C220.21 39.00 221.29 40.14 222.79 40.14C223.69 40.14 224.26 39.75 224.70 39.17L224.70 39.54C224.70 39.83 224.94 40.07 225.23 40.07C225.53 40.07 225.77 39.83 225.77 39.54ZM224.70 37.14C224.70 38.34 224.10 39.20 223.07 39.20C221.99 39.20 221.32 38.32 221.32 37.11C221.32 35.90 221.99 35.01 223.07 35.01C224.10 35.01 224.70 35.88 224.70 37.07ZM234.43 31.86C232.10 31.86 230.27 33.54 230.27 36.00C230.27 38.46 232.10 40.14 234.43 40.14C235.68 40.14 236.54 39.63 237.17 38.96C237.26 38.86 237.31 38.73 237.31 38.58C237.31 38.30 237.07 38.03 236.76 38.03C236.60 38.03 236.44 38.10 236.34 38.22C235.85 38.78 235.14 39.09 234.43 39.09C232.75 39.09 231.50 37.79 231.50 36.00C231.50 34.20 232.75 32.92 234.43 32.92C235.13 32.92 235.87 33.26 236.34 33.80C236.44 33.93 236.60 33.99 236.75 33.99C237.06 33.99 237.31 33.74 237.31 33.44C237.31 33.29 237.26 33.16 237.17 33.05C236.56 32.37 235.68 31.86 234.43 31.86ZM244.44 37.73C244.44 34.74 239.74 35.73 239.74 34.07C239.74 33.39 240.35 32.92 241.25 32.92C241.94 32.92 242.64 33.12 243.23 33.56C243.32 33.63 243.44 33.66 243.55 33.66C243.85 33.66 244.12 33.41 244.12 33.11C244.12 32.98 244.07 32.84 243.96 32.74C243.36 32.19 242.34 31.88 241.34 31.88C239.69 31.88 238.51 32.84 238.51 34.16C238.51 37.05 243.22 35.96 243.22 37.85C243.22 38.42 242.76 39.10 241.46 39.10C240.59 39.10 239.84 38.75 239.29 38.28C239.20 38.21 239.06 38.18 238.96 38.18C238.63 38.18 238.40 38.46 238.40 38.76C238.40 38.90 238.45 39.03 238.55 39.14C239.17 39.75 240.24 40.14 241.42 40.14C243.58 40.14 244.44 38.98 244.44 37.73ZM251.52 37.73C251.52 34.74 246.82 35.73 246.82 34.07C246.82 33.39 247.43 32.92 248.33 32.92C249.02 32.92 249.72 33.12 250.31 33.56C250.40 33.63 250.52 33.66 250.63 33.66C250.93 33.66 251.20 33.41 251.20 33.11C251.20 32.98 251.15 32.84 251.04 32.74C250.44 32.19 249.42 31.88 248.42 31.88C246.77 31.88 245.59 32.84 245.59 34.16C245.59 37.05 250.30 35.96 250.30 37.85C250.30 38.42 249.84 39.10 248.54 39.10C247.67 39.10 246.92 38.75 246.37 38.28C246.28 38.21 246.14 38.18 246.04 38.18C245.71 38.18 245.48 38.46 245.48 38.76C245.48 38.90 245.53 39.03 245.63 39.14C246.25 39.75 247.32 40.14 248.50 40.14C250.66 40.14 251.52 38.98 251.52 37.73ZM254.18 39.38C254.18 38.98 253.85 38.63 253.44 38.63C253.04 38.63 252.71 38.98 252.71 39.38C252.71 39.78 253.04 40.12 253.44 40.12C253.85 40.12 254.18 39.78 254.18 39.38Z" fill="#627386" /><rect x="18" y="50" width="384" height="6" rx="3" fill="#f4faff" /><rect x="18" y="50" width="2.16" height="6" rx="3" fill="#663399" /></svg>