<svg xmlns="http://www.w3.org/2000/svg" width="420" height="64" viewBox="0 0 420 64" role="img"><rect x="0.5" y="0.5" width="419" height="63" rx="10" fill="#161b22" stroke="#30363d" /><path d="M29.06 19.67C29.06 18.29 28.09 17.07 26.57 17.07C25.39 17.07 24.72 17.76 24.47 18.23C24.22 17.74 23.59 17.07 22.45 17.07C21.42 17.07 20.94 17.45 20.66 17.81L20.66 17.80C20.66 17.60 20.41 17.15 19.79 17.15C19.27 17.15 18.88 17.55 18.88 18.02L18.88 23.20C18.88 23.69 19.27 24.08 19.76 24.08C20.27 24.08 20.66 23.69 20.66 23.20L20.66 20.01C20.66 19.35 21.16 18.65 21.92 18.65C22.65 18.65 23.07 19.38 23.07 20.01L23.07 23.20C23.07 23.69 23.46 24.08 23.95 24.08C24.47 24.08 24.86 23.69 24.86 23.20L24.86 20.14C24.86 19.35 25.35 18.65 26.12 18.65C26.85 18.65 27.27 19.38 27.27 20.01L27.27 23.20C27.27 23.69 27.66 24.08 28.15 24.08C28.67 24.08 29.06 23.69 29.06 23.20ZM37.24 20.40C37.24 20.07 37.14 19.66 37.04 19.35C36.56 17.95 35.40 17.07 33.88 17.07C31.82 17.07 30.38 18.65 30.38 20.61C30.38 22.78 31.93 24.17 33.99 24.17C35.02 24.17 36.52 23.78 36.61 22.98C36.65 22.56 36.23 22.26 35.85 22.26C35.74 22.26 35.61 22.29 35.50 22.35C35.08 22.57 34.56 22.75 34.18 22.75C33.04 22.75 32.35 22.07 32.24 21.21L36.41 21.21C36.87 21.21 37.24 20.84 37.24 20.40ZM32.21 20.01C32.29 19.34 32.77 18.48 33.88 18.48C35.05 18.48 35.50 19.37 35.54 20.01ZM42.25 23.36C42.25 22.92 41.97 22.59 41.46 22.59L41.31 22.59C41.03 22.59 40.69 22.38 40.69 21.84L40.69 18.79L41.39 18.79C41.80 18.79 42.15 18.44 42.15 18.02C42.15 17.59 41.80 17.24 41.39 17.24L40.69 17.24L40.69 16.19C40.69 15.70 40.30 15.31 39.81 15.31C39.29 15.31 38.90 15.70 38.90 16.19L38.90 17.24L38.47 17.24C38.05 17.24 37.70 17.59 37.70 17.99C37.70 18.44 38.05 18.79 38.47 18.79L38.90 18.79L38.90 22.32C38.90 23.52 39.57 24.17 40.82 24.17C41.98 24.17 42.25 23.80 42.25 23.36ZM49.71 20.40C49.71 20.07 49.61 19.66 49.51 19.35C49.04 17.95 47.88 17.07 46.35 17.07C44.29 17.07 42.85 18.65 42.85 20.61C42.85 22.78 44.40 24.17 46.46 24.17C47.50 24.17 49.00 23.78 49.08 22.98C49.12 22.56 48.70 22.26 48.32 22.26C48.21 22.26 48.09 22.29 47.97 22.35C47.55 22.57 47.04 22.75 46.66 22.75C45.51 22.75 44.82 22.07 44.71 21.21L48.88 21.21C49.35 21.21 49.71 20.84 49.71 20.40ZM44.68 20.01C44.77 19.34 45.24 18.48 46.35 18.48C47.53 18.48 47.97 19.37 48.02 20.01ZM57.75 20.61C57.75 18.69 56.40 17.07 54.16 17.07C51.94 17.07 50.59 18.69 50.59 20.61C50.59 22.54 51.94 24.17 54.16 24.17C56.40 24.17 57.75 22.54 57.75 20.61ZM55.90 20.61C55.90 21.68 55.27 22.59 54.16 22.59C53.06 22.59 52.44 21.68 52.44 20.61C52.44 19.56 53.06 18.65 54.16 18.65C55.27 18.65 55.90 19.56 55.90 20.61ZM63.08 17.91C63.08 17.50 62.81 17.18 62.30 17.18C61.62 17.18 61.18 17.71 60.84 18.16L60.84 18.02C60.84 17.55 60.45 17.15 59.97 17.15C59.45 17.15 59.06 17.55 59.06 18.02L59.06 23.20C59.06 23.69 59.45 24.08 59.94 24.08L59.97 24.08C60.45 24.08 60.84 23.69 60.84 23.20L60.84 20.37C60.84 19.25 61.68 18.89 62.23 18.82C62.72 18.75 63.08 18.44 63.08 17.91ZM67.08 20.60C67.08 20.19 66.75 19.86 66.34 19.86L64.30 19.86C63.89 19.86 63.56 20.19 63.56 20.60C63.56 21.03 63.89 21.37 64.30 21.37L66.34 21.37C66.75 21.37 67.08 21.03 67.08 20.60ZM78.48 19.67C78.48 18.29 77.51 17.07 75.99 17.07C74.81 17.07 74.14 17.76 73.89 18.23C73.64 17.74 73.01 17.07 71.87 17.07C70.84 17.07 70.36 17.45 70.08 17.81L70.08 17.80C70.08 17.60 69.83 17.15 69.21 17.15C68.69 17.15 68.30 17.55 68.30 18.02L68.30 23.20C68.30 23.69 68.69 24.08 69.18 24.08C69.69 24.08 70.08 23.69 70.08 23.20L70.08 20.01C70.08 19.35 70.58 18.65 71.34 18.65C72.07 18.65 72.49 19.38 72.49 20.01L72.49 23.20C72.49 23.69 72.88 24.08 73.37 24.08C73.89 24.08 74.28 23.69 74.28 23.20L74.28 20.14C74.28 19.35 74.77 18.65 75.54 18.65C76.27 18.65 76.69 19.38 76.69 20.01L76.69 23.20C76.69 23.69 77.08 24.08 77.57 24.08C78.09 24.08 78.48 23.69 78.48 23.20ZM86.66 20.40C86.66 20.07 86.56 19.66 86.46 19.35C85.98 17.95 84.82 17.07 83.30 17.07C81.24 17.07 79.80 18.65 79.80 20.61C79.80 22.78 81.35 24.17 83.41 24.17C84.44 24.17 85.94 23.78 86.03 22.98C86.07 22.56 85.65 22.26 85.27 22.26C85.16 22.26 85.03 22.29 84.92 22.35C84.50 22.57 83.98 22.75 83.60 22.75C82.46 22.75 81.77 22.07 81.66 21.21L85.83 21.21C86.29 21.21 86.66 20.84 86.66 20.40ZM81.63 20.01C81.71 19.34 82.19 18.48 83.30 18.48C84.47 18.48 84.92 19.37 84.96 20.01ZM91.67 23.36C91.67 22.92 91.39 22.59 90.88 22.59L90.73 22.59C90.45 22.59 90.11 22.38 90.11 21.84L90.11 18.79L90.81 18.79C91.22 18.79 91.57 18.44 91.57 18.02C91.57 17.59 91.22 17.24 90.81 17.24L90.11 17.24L90.11 16.19C90.11 15.70 89.72 15.31 89.23 15.31C88.71 15.31 88.32 15.70 88.32 16.19L88.32 17.24L87.89 17.24C87.47 17.24 87.12 17.59 87.12 17.99C87.12 18.44 87.47 18.79 87.89 18.79L88.32 18.79L88.32 22.32C88.32 23.52 88.99 24.17 90.24 24.17C91.40 24.17 91.67 23.80 91.67 23.36ZM99.06 19.90C99.06 18.44 97.93 17.07 96.44 17.07C95.34 17.07 94.78 17.60 94.48 17.98L94.48 15.45C94.48 14.97 94.09 14.58 93.61 14.58C93.10 14.58 92.70 14.97 92.70 15.45L92.70 23.20C92.70 23.69 93.10 24.08 93.59 24.08C94.09 24.08 94.48 23.69 94.48 23.20L94.48 20.15C94.48 19.32 95.06 18.65 95.88 18.65C96.65 18.65 97.28 19.23 97.28 20.16L97.28 23.20C97.28 23.69 97.67 24.08 98.16 24.08C98.67 24.08 99.06 23.69 99.06 23.20ZM107.54 20.61C107.54 18.69 106.20 17.07 103.96 17.07C101.73 17.07 100.39 18.69 100.39 20.61C100.39 22.54 101.73 24.17 103.96 24.17C106.20 24.17 107.54 22.54 107.54 20.61ZM105.70 20.61C105.70 21.68 105.07 22.59 103.96 22.59C102.85 22.59 102.24 21.68 102.24 20.61C102.24 19.56 102.85 18.65 103.96 18.65C105.07 18.65 105.70 19.56 105.70 20.61ZM108.44 20.63C108.44 22.88 109.87 24.17 111.58 24.17C112.39 24.17 113.13 23.80 113.52 23.13L113.52 23.20C113.52 23.69 113.91 24.08 114.42 24.08C114.91 24.08 115.30 23.69 115.30 23.20L115.30 15.45C115.30 14.97 114.91 14.58 114.39 14.58C113.91 14.58 113.52 14.97 113.52 15.45L113.52 18.11C113.13 17.42 112.37 17.07 111.58 17.07C109.85 17.07 108.44 18.41 108.44 20.63ZM110.27 20.63C110.27 19.45 110.96 18.65 112.00 18.65C112.71 18.65 113.52 19.41 113.52 20.56L113.52 20.71C113.52 21.84 112.71 22.59 112.00 22.59C110.96 22.59 110.27 21.80 110.27 20.63ZM120.05 20.60C120.05 20.19 119.71 19.86 119.30 19.86L117.26 19.86C116.85 19.86 116.52 20.19 116.52 20.60C116.52 21.03 116.85 21.37 117.26 21.37L119.30 21.37C119.71 21.37 120.05 21.03 120.05 20.60ZM128.12 20.61C128.12 18.36 126.70 17.07 124.99 17.07C124.18 17.07 123.43 17.43 123.04 18.11L123.04 18.04C123.04 17.55 122.65 17.15 122.15 17.15C121.66 17.15 121.26 17.55 121.26 18.04L121.26 25.79C121.26 26.27 121.64 26.66 122.16 26.66C122.64 26.66 123.04 26.27 123.04 25.79L123.04 23.13C123.43 23.82 124.19 24.17 124.99 24.17C126.71 24.17 128.12 22.82 128.12 20.61ZM126.29 20.61C126.29 21.79 125.60 22.59 124.57 22.59C123.85 22.59 123.04 21.83 123.04 20.68L123.04 20.53C123.04 19.39 123.85 18.65 124.57 18.65C125.60 18.65 126.29 19.44 126.29 20.61ZM135.26 19.63C135.26 17.69 133.85 17.07 132.31 17.07C131.53 17.07 130.01 17.35 129.59 18.02C129.54 18.12 129.50 18.25 129.50 18.37C129.50 18.79 129.85 19.06 130.17 19.06C130.28 19.06 130.39 19.02 130.49 18.96C130.95 18.65 131.47 18.53 132.00 18.53C132.90 18.53 133.49 18.97 133.49 19.66L133.49 19.88L131.34 19.88C130.27 19.88 128.99 20.35 128.99 21.93C128.99 23.44 130.27 24.17 131.34 24.17C132.37 24.17 133.02 23.92 133.49 23.37C133.49 23.68 133.78 24.08 134.26 24.08L134.40 24.08C134.87 24.08 135.26 23.69 135.26 23.20ZM133.49 21.09L133.49 21.40C133.49 22.49 132.63 22.96 132.06 22.96C131.36 22.96 130.78 22.60 130.78 21.97C130.78 21.31 131.36 21.09 132.06 21.09ZM143.45 18.04C143.45 17.55 143.06 17.15 142.57 17.15C142.05 17.15 141.66 17.55 141.66 18.04L141.66 18.11C141.24 17.49 140.49 17.07 139.58 17.07C137.87 17.07 136.59 18.30 136.59 20.51C136.59 22.77 137.88 23.96 139.58 23.96C140.54 23.96 141.34 23.57 141.66 22.89L141.66 23.58C141.66 24.91 140.65 25.29 139.80 25.29C139.20 25.29 138.67 25.16 138.19 24.87C138.06 24.80 137.94 24.77 137.81 24.77C137.42 24.77 137.07 25.08 137.07 25.51C137.07 25.65 137.11 25.79 137.18 25.90C137.59 26.53 138.97 26.74 139.80 26.74C141.47 26.74 143.45 26.11 143.45 23.54ZM141.66 20.56C141.66 21.69 140.86 22.38 140.14 22.38C139.13 22.38 138.43 21.68 138.43 20.51C138.43 19.35 139.13 18.65 140.14 18.65C140.86 18.65 141.66 19.32 141.66 20.47ZM146.10 14.40C145.53 14.40 145.04 14.86 145.04 15.45C145.04 16.03 145.53 16.51 146.10 16.51C146.69 16.51 147.16 16.03 147.16 15.45C147.16 14.86 146.69 14.40 146.10 14.40ZM147.00 18.02C147.00 17.55 146.60 17.15 146.13 17.15C145.61 17.15 145.22 17.55 145.22 18.02L145.22 23.20C145.22 23.69 145.61 24.08 146.10 24.08C146.60 24.08 147.00 23.69 147.00 23.20ZM155.10 19.65C155.10 18.33 153.97 17.07 152.48 17.07C151.45 17.07 150.80 17.62 150.54 18.04L150.54 18.02C150.54 17.55 150.15 17.15 149.67 17.15C149.15 17.15 148.76 17.55 148.76 18.02L148.76 23.20C148.76 23.69 149.15 24.08 149.64 24.08C150.15 24.08 150.54 23.69 150.54 23.20L150.54 20.22C150.54 19.25 151.24 18.65 151.94 18.65C152.69 18.65 153.32 19.25 153.32 20.19L153.32 23.20C153.32 23.69 153.72 24.08 154.21 24.08C154.71 24.08 155.10 23.69 155.10 23.20ZM162.70 19.63C162.70 17.69 161.29 17.07 159.75 17.07C158.97 17.07 157.45 17.35 157.03 18.02C156.98 18.12 156.94 18.25 156.94 18.37C156.94 18.79 157.29 19.06 157.61 19.06C157.72 19.06 157.83 19.02 157.93 18.96C158.39 18.65 158.91 18.53 159.44 18.53C160.34 18.53 160.93 18.97 160.93 19.66L160.93 19.88L158.78 19.88C157.71 19.88 156.43 20.35 156.43 21.93C156.43 23.44 157.71 24.17 158.78 24.17C159.81 24.17 160.46 23.92 160.93 23.37C160.93 23.68 161.22 24.08 161.70 24.08L161.84 24.08C162.31 24.08 162.70 23.69 162.70 23.20ZM160.93 21.09L160.93 21.40C160.93 22.49 160.07 22.96 159.50 22.96C158.80 22.96 158.22 22.60 158.22 21.97C158.22 21.31 158.80 21.09 159.50 21.09ZM168.16 23.36C168.16 22.92 167.88 22.59 167.38 22.59L167.23 22.59C166.95 22.59 166.61 22.38 166.61 21.84L166.61 18.79L167.31 18.79C167.72 18.79 168.07 18.44 168.07 18.02C168.07 17.59 167.72 17.24 167.31 17.24L166.61 17.24L166.61 16.19C166.61 15.70 166.22 15.31 165.73 15.31C165.21 15.31 164.82 15.70 164.82 16.19L164.82 17.24L164.38 17.24C163.96 17.24 163.61 17.59 163.61 17.99C163.61 18.44 163.96 18.79 164.38 18.79L164.82 18.79L164.82 22.32C164.82 23.52 165.49 24.17 166.74 24.17C167.90 24.17 168.16 23.80 168.16 23.36ZM170.08 14.40C169.51 14.40 169.02 14.86 169.02 15.45C169.02 16.03 169.51 16.51 170.08 16.51C170.67 16.51 171.15 16.03 171.15 15.45C171.15 14.86 170.67 14.40 170.08 14.40ZM170.98 18.02C170.98 17.55 170.59 17.15 170.11 17.15C169.59 17.15 169.20 17.55 169.20 18.02L169.20 23.20C169.20 23.69 169.59 24.08 170.08 24.08C170.59 24.08 170.98 23.69 170.98 23.20ZM179.46 20.61C179.46 18.69 178.12 17.07 175.88 17.07C173.65 17.07 172.31 18.69 172.31 20.61C172.31 22.54 173.65 24.17 175.88 24.17C178.12 24.17 179.46 22.54 179.46 20.61ZM177.61 20.61C177.61 21.68 176.98 22.59 175.88 22.59C174.77 22.59 174.16 21.68 174.16 20.61C174.16 19.56 174.77 18.65 175.88 18.65C176.98 18.65 177.61 19.56 177.61 20.61ZM187.12 19.65C187.12 18.33 185.99 17.07 184.50 17.07C183.47 17.07 182.82 17.62 182.56 18.04L182.56 18.02C182.56 17.55 182.16 17.15 181.69 17.15C181.17 17.15 180.78 17.55 180.78 18.02L180.78 23.20C180.78 23.69 181.17 24.08 181.66 24.08C182.16 24.08 182.56 23.69 182.56 23.20L182.56 20.22C182.56 19.25 183.26 18.65 183.96 18.65C184.71 18.65 185.34 19.25 185.34 20.19L185.34 23.20C185.34 23.69 185.73 24.08 186.22 24.08C186.73 24.08 187.12 23.69 187.12 23.20Z" fill="#e6edf3" /><path d="M401.60 21.18C401.60 19.33 400.21 18.36 398.65 18.36C397.57 18.36 396.76 18.89 396.42 19.48C396.41 19.41 396.41 19.36 396.41 19.29C396.41 17.92 397.31 16.84 398.58 16.84C399.02 16.84 399.39 16.91 399.71 17.08C399.83 17.15 399.96 17.18 400.09 17.18C400.49 17.18 400.93 16.86 400.93 16.37C400.93 16.24 400.89 16.12 400.84 16.02C400.52 15.45 399.43 15.20 398.58 15.20C396.02 15.20 394.54 17.06 394.54 19.68C394.54 22.13 395.64 24.16 398.28 24.16C400.26 24.16 401.60 22.87 401.60 21.18ZM399.73 21.24C399.73 21.89 399.24 22.52 398.24 22.52C397.42 22.52 396.81 21.96 396.81 21.15C396.81 20.37 397.44 19.81 398.24 19.81C399.07 19.81 399.73 20.37 399.73 21.24Z" fill="#9aa7b4" /><path transform="translate(377.10, 12)" d="M6 0.5 L7.5 4.2 L11.5 4.5 L8.4 7 L9.4 11 L6 8.8 L2.6 11 L3.6 7 L0.5 4.5 L4.5 4.2 Z" fill="#9aa7b4" /><path d="" fill="#9aa7b4" /><rect x="18" y="50" width="384" height="6" rx="3" fill="#21262d" /><rect x="18" y="50" width="13.02" height="6" rx="3" fill="#244776" /></svg>