<svg xmlns="http://www.w3.org/2000/svg" width="420" height="64" viewBox="0 0 420 64" role="img"><rect x="0.5" y="0.5" width="419" height="63" rx="10" fill="#161b22" stroke="#30363d" /><path d="M29.06 19.67C29.06 18.29 28.09 17.07 26.57 17.07C25.39 17.07 24.72 17.76 24.47 18.23C24.22 17.74 23.59 17.07 22.45 17.07C21.42 17.07 20.94 17.45 20.66 17.81L20.66 17.80C20.66 17.60 20.41 17.15 19.79 17.15C19.27 17.15 18.88 17.55 18.88 18.02L18.88 23.20C18.88 23.69 19.27 24.08 19.76 24.08C20.27 24.08 20.66 23.69 20.66 23.20L20.66 20.01C20.66 19.35 21.16 18.65 21.92 18.65C22.65 18.65 23.07 19.38 23.07 20.01L23.07 23.20C23.07 23.69 23.46 24.08 23.95 24.08C24.47 24.08 24.86 23.69 24.86 23.20L24.86 20.14C24.86 19.35 25.35 18.65 26.12 18.65C26.85 18.65 27.27 19.38 27.27 20.01L27.27 23.20C27.27 23.69 27.66 24.08 28.15 24.08C28.67 24.08 29.06 23.69 29.06 23.20ZM37.24 20.40C37.24 20.07 37.14 19.66 37.04 19.35C36.56 17.95 35.40 17.07 33.88 17.07C31.82 17.07 30.38 18.65 30.38 20.61C30.38 22.78 31.93 24.17 33.99 24.17C35.02 24.17 36.52 23.78 36.61 22.98C36.65 22.56 36.23 22.26 35.85 22.26C35.74 22.26 35.61 22.29 35.50 22.35C35.08 22.57 34.56 22.75 34.18 22.75C33.04 22.75 32.35 22.07 32.24 21.21L36.41 21.21C36.87 21.21 37.24 20.84 37.24 20.40ZM32.21 20.01C32.29 19.34 32.77 18.48 33.88 18.48C35.05 18.48 35.50 19.37 35.54 20.01ZM42.25 23.36C42.25 22.92 41.97 22.59 41.46 22.59L41.31 22.59C41.03 22.59 40.69 22.38 40.69 21.84L40.69 18.79L41.39 18.79C41.80 18.79 42.15 18.44 42.15 18.02C42.15 17.59 41.80 17.24 41.39 17.24L40.69 17.24L40.69 16.19C40.69 15.70 40.30 15.31 39.81 15.31C39.29 15.31 38.90 15.70 38.90 16.19L38.90 17.24L38.47 17.24C38.05 17.24 37.70 17.59 37.70 17.99C37.70 18.44 38.05 18.79 38.47 18.79L38.90 18.79L38.90 22.32C38.90 23.52 39.57 24.17 40.82 24.17C41.98 24.17 42.25 23.80 42.25 23.36ZM49.71 20.40C49.71 20.07 49.61 19.66 49.51 19.35C49.04 17.95 47.88 17.07 46.35 17.07C44.29 17.07 42.85 18.65 42.85 20.61C42.85 22.78 44.40 24.17 46.46 24.17C47.50 24.17 49.00 23.78 49.08 22.98C49.12 22.56 48.70 22.26 48.32 22.26C48.21 22.26 48.09 22.29 47.97 22.35C47.55 22.57 47.04 22.75 46.66 22.75C45.51 22.75 44.82 22.07 44.71 21.21L48.88 21.21C49.35 21.21 49.71 20.84 49.71 20.40ZM44.68 20.01C44.77 19.34 45.24 18.48 46.35 18.48C47.53 18.48 47.97 19.37 48.02 20.01ZM57.75 20.61C57.75 18.69 56.40 17.07 54.16 17.07C51.94 17.07 50.59 18.69 50.59 20.61C50.59 22.54 51.94 24.17 54.16 24.17C56.40 24.17 57.75 22.54 57.75 20.61ZM55.90 20.61C55.90 21.68 55.27 22.59 54.16 22.59C53.06 22.59 52.44 21.68 52.44 20.61C52.44 19.56 53.06 18.65 54.16 18.65C55.27 18.65 55.90 19.56 55.90 20.61ZM63.08 17.91C63.08 17.50 62.81 17.18 62.30 17.18C61.62 17.18 61.18 17.71 60.84 18.16L60.84 18.02C60.84 17.55 60.45 17.15 59.97 17.15C59.45 17.15 59.06 17.55 59.06 18.02L59.06 23.20C59.06 23.69 59.45 24.08 59.94 24.08L59.97 24.08C60.45 24.08 60.84 23.69 60.84 23.20L60.84 20.37C60.84 19.25 61.68 18.89 62.23 18.82C62.72 18.75 63.08 18.44 63.08 17.91ZM67.08 20.60C67.08 20.19 66.75 19.86 66.34 19.86L64.30 19.86C63.89 19.86 63.56 20.19 63.56 20.60C63.56 21.03 63.89 21.37 64.30 21.37L66.34 21.37C66.75 21.37 67.08 21.03 67.08 20.60ZM73.66 22.00C73.66 19.27 69.66 20.11 69.66 19.10C69.66 18.72 70.08 18.43 70.72 18.43C71.27 18.43 71.82 18.58 72.25 18.83C72.35 18.89 72.47 18.92 72.59 18.92C72.95 18.92 73.29 18.62 73.29 18.25C73.29 18.12 73.24 17.99 73.17 17.90C72.80 17.35 71.59 17.07 70.71 17.07C68.93 17.07 67.94 18.06 67.94 19.20C67.94 21.86 71.96 20.95 71.96 22.07C71.96 22.49 71.59 22.80 70.82 22.80C70.23 22.80 69.53 22.56 69.00 22.25C68.89 22.18 68.76 22.15 68.64 22.15C68.26 22.15 67.90 22.47 67.90 22.89C67.90 23.03 67.94 23.16 68.02 23.27C68.44 23.87 69.86 24.17 70.74 24.17C72.61 24.17 73.66 23.23 73.66 22.00ZM85.16 19.67C85.16 18.29 84.19 17.07 82.67 17.07C81.49 17.07 80.82 17.76 80.57 18.23C80.31 17.74 79.68 17.07 78.55 17.07C77.51 17.07 77.04 17.45 76.76 17.81L76.76 17.80C76.76 17.60 76.51 17.15 75.89 17.15C75.37 17.15 74.98 17.55 74.98 18.02L74.98 23.20C74.98 23.69 75.37 24.08 75.86 24.08C76.37 24.08 76.76 23.69 76.76 23.20L76.76 20.01C76.76 19.35 77.26 18.65 78.02 18.65C78.75 18.65 79.17 19.38 79.17 20.01L79.17 23.20C79.17 23.69 79.56 24.08 80.05 24.08C80.57 24.08 80.96 23.69 80.96 23.20L80.96 20.14C80.96 19.35 81.45 18.65 82.22 18.65C82.95 18.65 83.37 19.38 83.37 20.01L83.37 23.20C83.37 23.69 83.76 24.08 84.25 24.08C84.77 24.08 85.16 23.69 85.16 23.20ZM92.75 19.63C92.75 17.69 91.33 17.07 89.79 17.07C89.01 17.07 87.50 17.35 87.08 18.02C87.02 18.12 86.98 18.25 86.98 18.37C86.98 18.79 87.33 19.06 87.65 19.06C87.76 19.06 87.87 19.02 87.97 18.96C88.43 18.65 88.95 18.53 89.48 18.53C90.38 18.53 90.97 18.97 90.97 19.66L90.97 19.88L88.83 19.88C87.75 19.88 86.47 20.35 86.47 21.93C86.47 23.44 87.75 24.17 88.83 24.17C89.85 24.17 90.51 23.92 90.97 23.37C90.97 23.68 91.26 24.08 91.74 24.08L91.88 24.08C92.35 24.08 92.75 23.69 92.75 23.20ZM90.97 21.09L90.97 21.40C90.97 22.49 90.11 22.96 89.54 22.96C88.84 22.96 88.27 22.60 88.27 21.97C88.27 21.31 88.84 21.09 89.54 21.09ZM98.53 17.91C98.53 17.50 98.26 17.18 97.74 17.18C97.07 17.18 96.62 17.71 96.29 18.16L96.29 18.02C96.29 17.55 95.90 17.15 95.42 17.15C94.90 17.15 94.51 17.55 94.51 18.02L94.51 23.20C94.51 23.69 94.90 24.08 95.39 24.08L95.42 24.08C95.90 24.08 96.29 23.69 96.29 23.20L96.29 20.37C96.29 19.25 97.13 18.89 97.67 18.82C98.16 18.75 98.53 18.44 98.53 17.91ZM103.25 23.36C103.25 22.92 102.97 22.59 102.46 22.59L102.31 22.59C102.03 22.59 101.69 22.38 101.69 21.84L101.69 18.79L102.39 18.79C102.80 18.79 103.15 18.44 103.15 18.02C103.15 17.59 102.80 17.24 102.39 17.24L101.69 17.24L101.69 16.19C101.69 15.70 101.30 15.31 100.81 15.31C100.29 15.31 99.90 15.70 99.90 16.19L99.90 17.24L99.47 17.24C99.05 17.24 98.70 17.59 98.70 17.99C98.70 18.44 99.05 18.79 99.47 18.79L99.90 18.79L99.90 22.32C99.90 23.52 100.57 24.17 101.82 24.17C102.98 24.17 103.25 23.80 103.25 23.36ZM107.26 20.60C107.26 20.19 106.93 19.86 106.52 19.86L104.48 19.86C104.07 19.86 103.74 20.19 103.74 20.60C103.74 21.03 104.07 21.37 104.48 21.37L106.52 21.37C106.93 21.37 107.26 21.03 107.26 20.60ZM112.50 17.91C112.50 17.50 112.23 17.18 111.72 17.18C111.04 17.18 110.60 17.71 110.26 18.16L110.26 18.02C110.26 17.55 109.87 17.15 109.39 17.15C108.87 17.15 108.48 17.55 108.48 18.02L108.48 23.20C108.48 23.69 108.87 24.08 109.36 24.08L109.39 24.08C109.87 24.08 110.26 23.69 110.26 23.20L110.26 20.37C110.26 19.25 111.10 18.89 111.65 18.82C112.14 18.75 112.50 18.44 112.50 17.91ZM119.95 20.40C119.95 20.07 119.85 19.66 119.75 19.35C119.28 17.95 118.11 17.07 116.59 17.07C114.53 17.07 113.09 18.65 113.09 20.61C113.09 22.78 114.64 24.17 116.70 24.17C117.74 24.17 119.23 23.78 119.32 22.98C119.36 22.56 118.94 22.26 118.56 22.26C118.45 22.26 118.32 22.29 118.21 22.35C117.79 22.57 117.27 22.75 116.90 22.75C115.75 22.75 115.06 22.07 114.95 21.21L119.12 21.21C119.58 21.21 119.95 20.84 119.95 20.40ZM114.92 20.01C115.01 19.34 115.48 18.48 116.59 18.48C117.76 18.48 118.21 19.37 118.25 20.01ZM126.84 22.92C126.84 22.46 126.42 22.15 125.98 22.15C125.81 22.15 125.66 22.19 125.51 22.29C125.20 22.49 124.86 22.59 124.50 22.59C123.42 22.59 122.66 21.79 122.66 20.61C122.66 19.44 123.42 18.65 124.50 18.65C124.85 18.65 125.20 18.75 125.49 18.93C125.65 19.03 125.81 19.07 125.98 19.07C126.37 19.07 126.82 18.79 126.82 18.32C126.82 18.20 126.79 18.09 126.74 17.99C126.44 17.45 125.46 17.07 124.41 17.07C122.33 17.07 120.83 18.54 120.83 20.61C120.83 22.70 122.33 24.17 124.41 24.17C125.37 24.17 126.07 23.89 126.56 23.50C126.74 23.36 126.84 23.13 126.84 22.92ZM134.97 20.61C134.97 18.69 133.63 17.07 131.39 17.07C129.16 17.07 127.82 18.69 127.82 20.61C127.82 22.54 129.16 24.17 131.39 24.17C133.63 24.17 134.97 22.54 134.97 20.61ZM133.12 20.61C133.12 21.68 132.49 22.59 131.39 22.59C130.28 22.59 129.66 21.68 129.66 20.61C129.66 19.56 130.28 18.65 131.39 18.65C132.49 18.65 133.12 19.56 133.12 20.61ZM140.30 17.91C140.30 17.50 140.04 17.18 139.52 17.18C138.85 17.18 138.40 17.71 138.06 18.16L138.06 18.02C138.06 17.55 137.67 17.15 137.20 17.15C136.68 17.15 136.29 17.55 136.29 18.02L136.29 23.20C136.29 23.69 136.68 24.08 137.17 24.08L137.20 24.08C137.67 24.08 138.06 23.69 138.06 23.20L138.06 20.37C138.06 19.25 138.90 18.89 139.45 18.82C139.94 18.75 140.30 18.44 140.30 17.91ZM140.91 20.63C140.91 22.88 142.33 24.17 144.04 24.17C144.85 24.17 145.60 23.80 145.99 23.13L145.99 23.20C145.99 23.69 146.38 24.08 146.88 24.08C147.37 24.08 147.77 23.69 147.77 23.20L147.77 15.45C147.77 14.97 147.37 14.58 146.86 14.58C146.38 14.58 145.99 14.97 145.99 15.45L145.99 18.11C145.60 17.42 144.84 17.07 144.04 17.07C142.32 17.07 140.91 18.41 140.91 20.63ZM142.74 20.63C142.74 19.45 143.43 18.65 144.46 18.65C145.18 18.65 145.99 19.41 145.99 20.56L145.99 20.71C145.99 21.84 145.18 22.59 144.46 22.59C143.43 22.59 142.74 21.80 142.74 20.63Z" fill="#e6edf3" /><path d="M382.12 14.72C382.12 14.46 381.89 14.22 381.63 14.22L378.05 14.22C377.79 14.22 377.56 14.46 377.56 14.72L377.56 24.68C377.56 24.94 377.79 25.17 378.05 25.17L381.63 25.17C381.89 25.17 382.12 24.94 382.12 24.68ZM377.96 14.61L381.71 14.61L381.71 24.78L377.96 24.78ZM393.37 21.63C393.47 20.07 392.42 19.53 392.42 19.53C392.42 19.53 393.38 19.03 393.28 17.55C393.17 16.11 392.03 15.20 390.00 15.20C388.80 15.20 387.87 15.55 387.15 16.12C386.97 16.27 386.88 16.47 386.88 16.68C386.88 17.14 387.28 17.46 387.69 17.46C387.84 17.46 388.00 17.42 388.13 17.33C388.64 17.01 389.21 16.84 389.81 16.84C390.72 16.84 391.42 17.04 391.42 17.73C391.42 18.45 390.99 18.79 390.12 18.79C389.49 18.79 389.22 19.14 389.22 19.59C389.22 20.05 389.49 20.41 390.17 20.41C391.05 20.41 391.56 20.72 391.56 21.41C391.56 22.06 390.98 22.52 389.92 22.52C389.32 22.52 388.64 22.31 388.06 21.97C387.92 21.88 387.76 21.84 387.61 21.84C387.18 21.84 386.76 22.19 386.76 22.66C386.76 22.79 386.80 22.91 386.87 23.01C387.27 23.69 388.74 24.16 389.99 24.16C392.07 24.16 393.26 23.26 393.37 21.63ZM401.56 19.67C401.56 17.43 400.44 15.20 397.97 15.20C395.49 15.20 394.38 17.43 394.38 19.67C394.38 21.91 395.49 24.16 397.97 24.16C400.44 24.16 401.56 21.91 401.56 19.67ZM399.67 19.67C399.67 21.27 399.20 22.52 397.97 22.52C396.72 22.52 396.25 21.27 396.25 19.67C396.25 18.07 396.72 16.84 397.97 16.84C399.20 16.84 399.67 18.07 399.67 19.67Z" fill="#9aa7b4" /><path d="M24.82 34.46C24.82 32.97 23.77 32.00 22.26 32.00L19.68 32.00C19.25 32.00 18.90 32.34 18.90 32.78L18.90 39.48C18.90 39.81 19.16 40.07 19.49 40.07C19.82 40.07 20.09 39.81 20.09 39.48L20.09 36.92L21.83 36.92L23.63 39.80C23.74 39.98 23.92 40.07 24.11 40.07C24.46 40.07 24.70 39.78 24.70 39.50C24.70 39.40 24.67 39.30 24.61 39.20L23.09 36.83C23.98 36.60 24.82 35.88 24.82 34.46ZM20.09 35.87L20.09 33.05L22.10 33.05C22.98 33.05 23.59 33.62 23.59 34.46C23.59 35.30 22.98 35.87 22.10 35.87ZM30.68 36.08C30.68 34.60 29.60 34.06 28.36 34.06C27.58 34.06 26.70 34.31 26.15 34.86C26.08 34.95 26.04 35.04 26.04 35.14C26.04 35.39 26.27 35.56 26.48 35.56C26.57 35.56 26.66 35.52 26.75 35.46C27.18 35.13 27.66 34.96 28.20 34.96C29.02 34.96 29.62 35.39 29.62 36.12L29.62 36.45L27.95 36.45C26.75 36.45 25.69 36.92 25.69 38.22C25.69 39.50 26.75 40.14 27.71 40.14C28.61 40.14 29.15 39.87 29.62 39.35L29.62 39.54C29.62 39.89 29.89 40.07 30.11 40.07L30.14 40.07C30.44 40.07 30.68 39.83 30.68 39.54ZM29.62 37.19L29.62 38.01C29.62 38.69 28.84 39.39 28.00 39.39C27.22 39.39 26.77 38.92 26.77 38.25C26.77 37.55 27.32 37.19 28.24 37.19ZM32.93 32.06C32.56 32.06 32.24 32.37 32.24 32.75C32.24 33.12 32.56 33.44 32.93 33.44C33.31 33.44 33.61 33.12 33.61 32.75C33.61 32.37 33.31 32.06 32.93 32.06ZM33.47 34.65C33.47 34.37 33.23 34.13 32.95 34.13C32.64 34.13 32.40 34.37 32.40 34.65L32.40 39.54C32.40 39.83 32.64 40.07 32.93 40.07C33.23 40.07 33.47 39.83 33.47 39.54ZM36.26 32.44C36.26 32.16 36.02 31.92 35.75 31.92C35.44 31.92 35.20 32.16 35.20 32.44L35.20 39.54C35.20 39.83 35.44 40.07 35.72 40.07C36.02 40.07 36.26 39.83 36.26 39.54ZM42.24 38.25C42.13 36.21 38.81 36.77 38.69 35.73C38.64 35.26 39.14 34.91 39.88 34.91C40.43 34.91 40.94 35.09 41.32 35.36C41.39 35.42 41.47 35.44 41.57 35.44C41.78 35.44 41.99 35.26 41.99 35.02C41.99 34.92 41.95 34.83 41.88 34.76C41.42 34.31 40.69 34.06 39.86 34.06C38.45 34.06 37.60 34.73 37.66 35.76C37.76 37.71 41.08 37.11 41.20 38.39C41.24 38.92 40.76 39.29 39.94 39.29C39.34 39.29 38.74 39.05 38.30 38.74C38.22 38.68 38.14 38.66 38.03 38.66C37.78 38.66 37.56 38.85 37.56 39.10C37.56 39.22 37.61 39.32 37.69 39.39C38.22 39.92 39.10 40.14 39.89 40.14C41.42 40.14 42.30 39.35 42.24 38.25ZM47.76 32.44C47.76 32.16 47.52 31.92 47.24 31.92C46.93 31.92 46.69 32.16 46.69 32.44L46.69 39.54C46.69 39.83 46.93 40.07 47.22 40.07C47.52 40.07 47.76 39.83 47.76 39.54ZM50.02 32.06C49.64 32.06 49.33 32.37 49.33 32.75C49.33 33.12 49.64 33.44 50.02 33.44C50.40 33.44 50.70 33.12 50.70 32.75C50.70 32.37 50.40 32.06 50.02 32.06ZM50.56 34.65C50.56 34.37 50.32 34.13 50.04 34.13C49.73 34.13 49.49 34.37 49.49 34.65L49.49 39.54C49.49 39.83 49.73 40.07 50.02 40.07C50.32 40.07 50.56 39.83 50.56 39.54ZM57.02 39.54C57.02 39.44 56.99 39.32 56.92 39.23L55.01 36.83L56.81 34.95C56.89 34.85 56.94 34.74 56.94 34.62C56.94 34.36 56.70 34.12 56.44 34.12C56.32 34.12 56.18 34.18 56.09 34.28L53.35 37.16L53.35 32.44C53.35 32.16 53.11 31.92 52.84 31.92C52.52 31.92 52.28 32.16 52.28 32.44L52.28 39.54C52.28 39.83 52.52 40.07 52.81 40.07C53.11 40.07 53.35 39.83 53.35 39.54L53.35 38.39L54.24 37.49L56.08 39.87C56.17 40.01 56.34 40.08 56.50 40.08C56.82 40.08 57.02 39.80 57.02 39.54ZM63.83 36.90C63.83 36.68 63.77 36.42 63.72 36.23C63.38 34.94 62.42 34.06 61.02 34.06C59.34 34.06 58.13 35.42 58.13 37.10C58.13 38.92 59.39 40.14 61.12 40.14C61.97 40.14 63.46 39.70 63.46 39.05C63.46 38.64 63.05 38.55 62.78 38.68C62.36 38.99 61.72 39.28 61.22 39.28C60.05 39.28 59.33 38.48 59.24 37.48L63.28 37.48C63.58 37.48 63.83 37.19 63.83 36.90ZM59.24 36.69C59.29 35.88 59.86 34.92 61.01 34.92C62.24 34.92 62.77 35.91 62.80 36.69ZM76.39 36.29C76.39 35.12 75.59 34.06 74.39 34.06C73.55 34.06 72.97 34.52 72.64 35.16C72.46 34.67 71.82 34.06 70.86 34.06C70.02 34.06 69.59 34.54 69.35 34.90L69.35 34.65C69.35 34.37 69.11 34.13 68.83 34.13C68.52 34.13 68.28 34.37 68.28 34.65L68.28 39.54C68.28 39.83 68.52 40.07 68.81 40.07C69.11 40.07 69.35 39.83 69.35 39.54L69.35 36.70C69.35 35.79 69.78 35.01 70.62 35.01C71.46 35.01 71.80 35.69 71.80 36.62L71.80 39.54C71.80 39.83 72.04 40.07 72.32 40.07C72.62 40.07 72.86 39.83 72.86 39.54L72.86 36.69C72.86 35.79 73.27 35.01 74.11 35.01C74.95 35.01 75.32 35.69 75.32 36.62L75.32 39.54C75.32 39.83 75.56 40.07 75.85 40.07C76.15 40.07 76.39 39.83 76.39 39.54ZM83.62 37.10C83.62 35.43 82.50 34.06 80.69 34.06C78.89 34.06 77.77 35.43 77.77 37.10C77.77 38.76 78.89 40.14 80.69 40.14C82.50 40.14 83.62 38.76 83.62 37.10ZM82.50 37.10C82.50 38.21 81.85 39.20 80.69 39.20C79.54 39.20 78.88 38.21 78.88 37.10C78.88 35.99 79.54 35.01 80.69 35.01C81.85 35.01 82.50 35.99 82.50 37.10ZM90.20 32.44C90.20 32.16 89.96 31.92 89.69 31.92C89.38 31.92 89.14 32.16 89.14 32.44L89.14 35.04C88.67 34.42 88.10 34.06 87.23 34.06C85.72 34.06 84.65 35.25 84.65 37.11C84.65 39.00 85.73 40.14 87.23 40.14C88.13 40.14 88.69 39.75 89.14 39.17L89.14 39.54C89.14 39.83 89.38 40.07 89.66 40.07C89.96 40.07 90.20 39.83 90.20 39.54ZM89.14 37.14C89.14 38.34 88.54 39.20 87.50 39.20C86.42 39.20 85.75 38.32 85.75 37.11C85.75 35.90 86.42 35.01 87.50 35.01C88.54 35.01 89.14 35.88 89.14 37.07ZM97.28 36.90C97.28 36.68 97.22 36.42 97.18 36.23C96.84 34.94 95.88 34.06 94.48 34.06C92.80 34.06 91.58 35.42 91.58 37.10C91.58 38.92 92.84 40.14 94.57 40.14C95.42 40.14 96.91 39.70 96.91 39.05C96.91 38.64 96.50 38.55 96.24 38.68C95.82 38.99 95.17 39.28 94.68 39.28C93.50 39.28 92.78 38.48 92.70 37.48L96.73 37.48C97.03 37.48 97.28 37.19 97.28 36.90ZM92.70 36.69C92.75 35.88 93.31 34.92 94.46 34.92C95.70 34.92 96.23 35.91 96.25 36.69ZM99.72 32.44C99.72 32.16 99.48 31.92 99.20 31.92C98.89 31.92 98.65 32.16 98.65 32.44L98.65 39.54C98.65 39.83 98.89 40.07 99.18 40.07C99.48 40.07 99.72 39.83 99.72 39.54ZM105.70 38.25C105.59 36.21 102.26 36.77 102.14 35.73C102.10 35.26 102.60 34.91 103.33 34.91C103.88 34.91 104.40 35.09 104.77 35.36C104.84 35.42 104.93 35.44 105.02 35.44C105.24 35.44 105.44 35.26 105.44 35.02C105.44 34.92 105.41 34.83 105.34 34.76C104.88 34.31 104.15 34.06 103.32 34.06C101.90 34.06 101.05 34.73 101.11 35.76C101.22 37.71 104.53 37.11 104.65 38.39C104.70 38.92 104.22 39.29 103.39 39.29C102.79 39.29 102.19 39.05 101.76 38.74C101.68 38.68 101.59 38.66 101.48 38.66C101.23 38.66 101.02 38.85 101.02 39.10C101.02 39.22 101.06 39.32 101.15 39.39C101.68 39.92 102.55 40.14 103.34 40.14C104.88 40.14 105.76 39.35 105.70 38.25ZM115.14 34.65C115.14 34.37 114.90 34.13 114.62 34.13C114.31 34.13 114.07 34.37 114.07 34.65L114.07 37.41C114.07 38.39 113.45 39.20 112.58 39.20C111.72 39.20 111.23 38.54 111.23 37.58L111.23 34.65C111.23 34.37 110.99 34.13 110.71 34.13C110.40 34.13 110.16 34.37 110.16 34.65L110.16 37.95C110.16 39.17 111.02 40.14 112.25 40.14C113.26 40.14 113.76 39.70 114.07 39.21L114.07 39.54C114.07 39.83 114.31 40.07 114.60 40.07C114.90 40.07 115.14 39.83 115.14 39.54ZM121.10 38.25C121.00 36.21 117.67 36.77 117.55 35.73C117.50 35.26 118.01 34.91 118.74 34.91C119.29 34.91 119.81 35.09 120.18 35.36C120.25 35.42 120.34 35.44 120.43 35.44C120.65 35.44 120.85 35.26 120.85 35.02C120.85 34.92 120.82 34.83 120.74 34.76C120.29 34.31 119.56 34.06 118.73 34.06C117.31 34.06 116.46 34.73 116.52 35.76C116.63 37.71 119.94 37.11 120.06 38.39C120.11 38.92 119.63 39.29 118.80 39.29C118.20 39.29 117.60 39.05 117.17 38.74C117.08 38.68 117.00 38.66 116.89 38.66C116.64 38.66 116.42 38.85 116.42 39.10C116.42 39.22 116.47 39.32 116.56 39.39C117.08 39.92 117.96 40.14 118.75 40.14C120.29 40.14 121.16 39.35 121.10 38.25ZM123.00 32.06C122.63 32.06 122.32 32.37 122.32 32.75C122.32 33.12 122.63 33.44 123.00 33.44C123.38 33.44 123.68 33.12 123.68 32.75C123.68 32.37 123.38 32.06 123.00 32.06ZM123.54 34.65C123.54 34.37 123.30 34.13 123.02 34.13C122.71 34.13 122.47 34.37 122.47 34.65L122.47 39.54C122.47 39.83 122.71 40.07 123.00 40.07C123.30 40.07 123.54 39.83 123.54 39.54ZM130.25 36.28C130.25 35.06 129.36 34.06 128.14 34.06C127.13 34.06 126.61 34.55 126.34 35.02L126.34 34.65C126.34 34.37 126.10 34.13 125.82 34.13C125.51 34.13 125.27 34.37 125.27 34.65L125.27 39.54C125.27 39.83 125.51 40.07 125.80 40.07C126.10 40.07 126.34 39.83 126.34 39.54L126.34 36.76C126.34 35.78 126.86 35.01 127.79 35.01C128.65 35.01 129.18 35.68 129.18 36.64L129.18 39.54C129.18 39.83 129.42 40.07 129.71 40.07C130.01 40.07 130.25 39.83 130.25 39.54ZM137.17 34.65C137.17 34.37 136.93 34.13 136.66 34.13C136.34 34.13 136.10 34.37 136.10 34.65L136.10 35.04C135.64 34.42 134.96 34.06 134.20 34.06C132.70 34.06 131.63 35.19 131.63 37.06C131.63 38.94 132.71 40.05 134.20 40.05C134.99 40.05 135.67 39.63 136.10 39.04L136.10 39.81C136.10 41.04 135.22 41.48 134.32 41.48C133.68 41.48 133.18 41.34 132.73 40.97C132.65 40.91 132.56 40.89 132.46 40.89C132.22 40.89 132.00 41.09 132.00 41.34C132.00 41.46 132.05 41.57 132.12 41.64C132.68 42.18 133.50 42.35 134.32 42.35C135.73 42.35 137.17 41.76 137.17 39.77ZM136.10 37.07C136.10 38.26 135.32 39.10 134.36 39.10C133.28 39.10 132.73 38.25 132.73 37.06C132.73 35.85 133.28 35.01 134.36 35.01C135.32 35.01 136.10 35.84 136.10 37.02ZM147.44 39.46C147.44 39.18 147.22 38.94 146.93 38.94L143.21 38.94L143.21 36.45L146.84 36.45C147.13 36.45 147.36 36.21 147.36 35.93C147.36 35.62 147.13 35.39 146.84 35.39L143.21 35.39L143.21 33.05L146.93 33.05C147.22 33.05 147.44 32.81 147.44 32.54C147.44 32.22 147.22 32.00 146.93 32.00L142.80 32.00C142.37 32.00 142.02 32.34 142.02 32.78L142.02 39.22C142.02 39.65 142.37 40 142.80 40L146.93 40C147.22 40 147.44 39.77 147.44 39.46ZM154.57 37.73C154.57 34.74 149.87 35.73 149.87 34.07C149.87 33.39 150.48 32.92 151.38 32.92C152.08 32.92 152.77 33.12 153.36 33.56C153.46 33.63 153.58 33.66 153.68 33.66C153.98 33.66 154.25 33.41 154.25 33.11C154.25 32.98 154.20 32.84 154.09 32.74C153.49 32.19 152.47 31.88 151.48 31.88C149.82 31.88 148.64 32.84 148.64 34.16C148.64 37.05 153.35 35.96 153.35 37.85C153.35 38.42 152.89 39.10 151.60 39.10C150.72 39.10 149.98 38.75 149.42 38.28C149.33 38.21 149.20 38.18 149.09 38.18C148.76 38.18 148.54 38.46 148.54 38.76C148.54 38.90 148.58 39.03 148.68 39.14C149.30 39.75 150.37 40.14 151.55 40.14C153.71 40.14 154.57 38.98 154.57 37.73ZM161.69 37.43C161.69 35.73 160.49 34.92 159.05 34.92C157.93 34.92 157.19 35.44 156.84 35.99C156.83 35.90 156.83 35.93 156.83 35.84C156.83 34.35 157.57 32.93 159.01 32.93C159.60 32.93 160.00 33.10 160.33 33.38C160.42 33.44 160.54 33.47 160.64 33.47C160.92 33.47 161.17 33.24 161.17 32.94C161.17 32.84 161.14 32.73 161.06 32.64C160.60 32.12 159.86 31.88 159.01 31.88C156.73 31.88 155.63 33.77 155.63 36.02C155.63 38.21 156.53 40.14 158.82 40.14C160.58 40.14 161.69 38.87 161.69 37.43ZM160.49 37.54C160.49 38.25 159.91 39.09 158.88 39.09C157.75 39.09 157.15 38.32 157.15 37.53C157.15 36.77 157.74 35.94 158.77 35.94C159.91 35.94 160.49 36.69 160.49 37.54ZM164.39 39.38C164.39 38.98 164.05 38.63 163.64 38.63C163.25 38.63 162.91 38.98 162.91 39.38C162.91 39.78 163.25 40.12 163.64 40.12C164.05 40.12 164.39 39.78 164.39 39.38Z" fill="#9aa7b4" /><rect x="18" y="50" width="384" height="6" rx="3" fill="#21262d" /><rect x="18" y="50" width="65.08" height="6" rx="3" fill="#f1e05a" /></svg>