<svg xmlns="http://www.w3.org/2000/svg" width="420" height="64" viewBox="0 0 420 64" role="img"><rect x="0.5" y="0.5" width="419" height="63" rx="10" fill="#ffffff" stroke="#f2f4f6" /><path d="M25.22 19.65C25.22 18.33 24.09 17.07 22.61 17.07C21.57 17.07 20.93 17.62 20.66 18.04L20.66 18.02C20.66 17.55 20.27 17.15 19.79 17.15C19.27 17.15 18.88 17.55 18.88 18.02L18.88 23.20C18.88 23.69 19.27 24.08 19.76 24.08C20.27 24.08 20.66 23.69 20.66 23.20L20.66 20.22C20.66 19.25 21.36 18.65 22.06 18.65C22.82 18.65 23.45 19.25 23.45 20.19L23.45 23.20C23.45 23.69 23.84 24.08 24.33 24.08C24.83 24.08 25.22 23.69 25.22 23.20ZM33.71 20.61C33.71 18.69 32.36 17.07 30.12 17.07C27.90 17.07 26.55 18.69 26.55 20.61C26.55 22.54 27.90 24.17 30.12 24.17C32.36 24.17 33.71 22.54 33.71 20.61ZM31.86 20.61C31.86 21.68 31.23 22.59 30.12 22.59C29.02 22.59 28.40 21.68 28.40 20.61C28.40 19.56 29.02 18.65 30.12 18.65C31.23 18.65 31.86 19.56 31.86 20.61ZM34.60 20.63C34.60 22.88 36.03 24.17 37.74 24.17C38.55 24.17 39.29 23.80 39.69 23.13L39.69 23.20C39.69 23.69 40.08 24.08 40.58 24.08C41.07 24.08 41.46 23.69 41.46 23.20L41.46 15.45C41.46 14.97 41.07 14.58 40.55 14.58C40.08 14.58 39.69 14.97 39.69 15.45L39.69 18.11C39.29 17.42 38.54 17.07 37.74 17.07C36.02 17.07 34.60 18.41 34.60 20.63ZM36.44 20.63C36.44 19.45 37.12 18.65 38.16 18.65C38.87 18.65 39.69 19.41 39.69 20.56L39.69 20.71C39.69 21.84 38.87 22.59 38.16 22.59C37.12 22.59 36.44 21.80 36.44 20.63ZM49.65 20.40C49.65 20.07 49.56 19.66 49.46 19.35C48.98 17.95 47.82 17.07 46.29 17.07C44.24 17.07 42.79 18.65 42.79 20.61C42.79 22.78 44.35 24.17 46.41 24.17C47.44 24.17 48.94 23.78 49.02 22.98C49.07 22.56 48.65 22.26 48.27 22.26C48.16 22.26 48.03 22.29 47.92 22.35C47.50 22.57 46.98 22.75 46.60 22.75C45.45 22.75 44.77 22.07 44.66 21.21L48.83 21.21C49.29 21.21 49.65 20.84 49.65 20.40ZM44.63 20.01C44.71 19.34 45.19 18.48 46.29 18.48C47.47 18.48 47.92 19.37 47.96 20.01ZM53.95 20.60C53.95 20.19 53.62 19.86 53.21 19.86L51.17 19.86C50.76 19.86 50.42 20.19 50.42 20.60C50.42 21.03 50.76 21.37 51.17 21.37L53.21 21.37C53.62 21.37 53.95 21.03 53.95 20.60ZM61.60 18.04C61.60 17.55 61.20 17.15 60.71 17.15C60.20 17.15 59.80 17.55 59.80 18.04L59.80 18.11C59.38 17.49 58.63 17.07 57.72 17.07C56.01 17.07 54.74 18.30 54.74 20.51C54.74 22.77 56.02 23.96 57.72 23.96C58.68 23.96 59.48 23.57 59.80 22.89L59.80 23.58C59.80 24.91 58.80 25.29 57.94 25.29C57.34 25.29 56.81 25.16 56.33 24.87C56.21 24.80 56.08 24.77 55.95 24.77C55.56 24.77 55.21 25.08 55.21 25.51C55.21 25.65 55.25 25.79 55.32 25.90C55.73 26.53 57.12 26.74 57.94 26.74C59.61 26.74 61.60 26.11 61.60 23.54ZM59.80 20.56C59.80 21.69 59.01 22.38 58.28 22.38C57.27 22.38 56.57 21.68 56.57 20.51C56.57 19.35 57.27 18.65 58.28 18.65C59.01 18.65 59.80 19.32 59.80 20.47ZM64.24 14.40C63.67 14.40 63.18 14.86 63.18 15.45C63.18 16.03 63.67 16.51 64.24 16.51C64.83 16.51 65.31 16.03 65.31 15.45C65.31 14.86 64.83 14.40 64.24 14.40ZM65.14 18.02C65.14 17.55 64.75 17.15 64.27 17.15C63.75 17.15 63.36 17.55 63.36 18.02L63.36 23.20C63.36 23.69 63.75 24.08 64.24 24.08C64.75 24.08 65.14 23.69 65.14 23.20ZM70.60 23.36C70.60 22.92 70.32 22.59 69.81 22.59L69.66 22.59C69.38 22.59 69.04 22.38 69.04 21.84L69.04 18.79L69.74 18.79C70.15 18.79 70.50 18.44 70.50 18.02C70.50 17.59 70.15 17.24 69.74 17.24L69.04 17.24L69.04 16.19C69.04 15.70 68.65 15.31 68.16 15.31C67.64 15.31 67.25 15.70 67.25 16.19L67.25 17.24L66.82 17.24C66.40 17.24 66.05 17.59 66.05 17.99C66.05 18.44 66.40 18.79 66.82 18.79L67.25 18.79L67.25 22.32C67.25 23.52 67.92 24.17 69.17 24.17C70.33 24.17 70.60 23.80 70.60 23.36ZM77.99 19.90C77.99 18.44 76.86 17.07 75.37 17.07C74.27 17.07 73.71 17.60 73.41 17.98L73.41 15.45C73.41 14.97 73.02 14.58 72.54 14.58C72.03 14.58 71.63 14.97 71.63 15.45L71.63 23.20C71.63 23.69 72.03 24.08 72.52 24.08C73.02 24.08 73.41 23.69 73.41 23.20L73.41 20.15C73.41 19.32 73.99 18.65 74.81 18.65C75.58 18.65 76.21 19.23 76.21 20.16L76.21 23.20C76.21 23.69 76.60 24.08 77.09 24.08C77.60 24.08 77.99 23.69 77.99 23.20ZM79.75 21.59C79.75 22.91 80.89 24.17 82.37 24.17C83.44 24.17 84.08 23.62 84.32 23.20L84.32 23.22C84.32 23.69 84.71 24.08 85.19 24.08C85.70 24.08 86.10 23.69 86.10 23.22L86.10 18.04C86.10 17.55 85.70 17.15 85.21 17.15C84.71 17.15 84.32 17.55 84.32 18.04L84.32 21.02C84.32 21.98 83.62 22.59 82.92 22.59C82.16 22.59 81.53 21.98 81.53 21.05L81.53 18.04C81.53 17.55 81.14 17.15 80.65 17.15C80.15 17.15 79.75 17.55 79.75 18.04ZM94.72 20.63C94.72 18.41 93.31 17.07 91.58 17.07C90.79 17.07 90.03 17.42 89.64 18.11L89.64 15.45C89.64 14.97 89.25 14.58 88.77 14.58C88.25 14.58 87.86 14.97 87.86 15.45L87.86 23.20C87.86 23.69 88.25 24.08 88.74 24.08C89.25 24.08 89.64 23.69 89.64 23.20L89.64 23.13C90.03 23.80 90.77 24.17 91.58 24.17C93.29 24.17 94.72 22.88 94.72 20.63ZM92.89 20.63C92.89 21.80 92.20 22.59 91.16 22.59C90.45 22.59 89.64 21.84 89.64 20.71L89.64 20.56C89.64 19.41 90.45 18.65 91.16 18.65C92.20 18.65 92.89 19.45 92.89 20.63ZM99.05 20.60C99.05 20.19 98.71 19.86 98.30 19.86L96.26 19.86C95.85 19.86 95.52 20.19 95.52 20.60C95.52 21.03 95.85 21.37 96.26 21.37L98.30 21.37C98.71 21.37 99.05 21.03 99.05 20.60ZM106.69 18.04C106.69 17.55 106.30 17.15 105.81 17.15C105.29 17.15 104.90 17.55 104.90 18.04L104.90 18.11C104.48 17.49 103.72 17.07 102.81 17.07C101.10 17.07 99.83 18.30 99.83 20.51C99.83 22.77 101.12 23.96 102.81 23.96C103.78 23.96 104.58 23.57 104.90 22.89L104.90 23.58C104.90 24.91 103.89 25.29 103.04 25.29C102.43 25.29 101.90 25.16 101.43 24.87C101.30 24.80 101.17 24.77 101.05 24.77C100.66 24.77 100.31 25.08 100.31 25.51C100.31 25.65 100.35 25.79 100.42 25.90C100.82 26.53 102.21 26.74 103.04 26.74C104.70 26.74 106.69 26.11 106.69 23.54ZM104.90 20.56C104.90 21.69 104.10 22.38 103.37 22.38C102.36 22.38 101.66 21.68 101.66 20.51C101.66 19.35 102.36 18.65 103.37 18.65C104.10 18.65 104.90 19.32 104.90 20.47ZM112.47 17.91C112.47 17.50 112.21 17.18 111.69 17.18C111.02 17.18 110.57 17.71 110.23 18.16L110.23 18.02C110.23 17.55 109.84 17.15 109.36 17.15C108.85 17.15 108.45 17.55 108.45 18.02L108.45 23.20C108.45 23.69 108.85 24.08 109.34 24.08L109.36 24.08C109.84 24.08 110.23 23.69 110.23 23.20L110.23 20.37C110.23 19.25 111.07 18.89 111.62 18.82C112.11 18.75 112.47 18.44 112.47 17.91ZM119.33 19.63C119.33 17.69 117.92 17.07 116.38 17.07C115.59 17.07 114.08 17.35 113.66 18.02C113.61 18.12 113.56 18.25 113.56 18.37C113.56 18.79 113.91 19.06 114.24 19.06C114.35 19.06 114.46 19.02 114.56 18.96C115.02 18.65 115.54 18.53 116.07 18.53C116.97 18.53 117.55 18.97 117.55 19.66L117.55 19.88L115.41 19.88C114.33 19.88 113.06 20.35 113.06 21.93C113.06 23.44 114.33 24.17 115.41 24.17C116.43 24.17 117.09 23.92 117.55 23.37C117.55 23.68 117.85 24.08 118.32 24.08L118.46 24.08C118.94 24.08 119.33 23.69 119.33 23.20ZM117.55 21.09L117.55 21.40C117.55 22.49 116.70 22.96 116.13 22.96C115.43 22.96 114.85 22.60 114.85 21.97C114.85 21.31 115.43 21.09 116.13 21.09ZM127.96 20.61C127.96 18.36 126.53 17.07 124.82 17.07C124.01 17.07 123.27 17.43 122.87 18.11L122.87 18.04C122.87 17.55 122.48 17.15 121.98 17.15C121.49 17.15 121.10 17.55 121.10 18.04L121.10 25.79C121.10 26.27 121.47 26.66 121.99 26.66C122.47 26.66 122.87 26.27 122.87 25.79L122.87 23.13C123.27 23.82 124.02 24.17 124.82 24.17C126.54 24.17 127.96 22.82 127.96 20.61ZM126.12 20.61C126.12 21.79 125.44 22.59 124.40 22.59C123.69 22.59 122.87 21.83 122.87 20.68L122.87 20.53C122.87 19.39 123.69 18.65 124.40 18.65C125.44 18.65 126.12 19.44 126.12 20.61ZM135.61 19.90C135.61 18.44 134.48 17.07 133.00 17.07C131.89 17.07 131.33 17.60 131.04 17.98L131.04 15.45C131.04 14.97 130.64 14.58 130.17 14.58C129.65 14.58 129.26 14.97 129.26 15.45L129.26 23.20C129.26 23.69 129.65 24.08 130.14 24.08C130.64 24.08 131.04 23.69 131.04 23.20L131.04 20.15C131.04 19.32 131.61 18.65 132.44 18.65C133.21 18.65 133.84 19.23 133.84 20.16L133.84 23.20C133.84 23.69 134.23 24.08 134.72 24.08C135.22 24.08 135.61 23.69 135.61 23.20ZM136.93 20.61C136.93 22.82 138.34 24.17 140.07 24.17C140.86 24.17 141.62 23.82 142.01 23.13L142.01 25.79C142.01 26.27 142.40 26.66 142.88 26.66C143.40 26.66 143.79 26.27 143.79 25.79L143.79 18.04C143.79 17.55 143.40 17.15 142.91 17.15C142.40 17.15 142.01 17.55 142.01 18.04L142.01 18.11C141.62 17.43 140.88 17.07 140.07 17.07C138.36 17.07 136.93 18.36 136.93 20.61ZM138.76 20.61C138.76 19.44 139.45 18.65 140.49 18.65C141.20 18.65 142.01 19.39 142.01 20.53L142.01 20.68C142.01 21.83 141.20 22.59 140.49 22.59C139.45 22.59 138.76 21.79 138.76 20.61ZM147.32 15.45C147.32 14.97 146.93 14.58 146.45 14.58C145.93 14.58 145.54 14.97 145.54 15.45L145.54 23.20C145.54 23.69 145.93 24.08 146.42 24.08C146.93 24.08 147.32 23.69 147.32 23.20ZM152.06 20.60C152.06 20.19 151.73 19.86 151.32 19.86L149.28 19.86C148.87 19.86 148.54 20.19 148.54 20.60C148.54 21.03 148.87 21.37 149.28 21.37L151.32 21.37C151.73 21.37 152.06 21.03 152.06 20.60ZM159.12 19.63C159.12 17.69 157.71 17.07 156.17 17.07C155.38 17.07 153.87 17.35 153.45 18.02C153.39 18.12 153.35 18.25 153.35 18.37C153.35 18.79 153.70 19.06 154.02 19.06C154.14 19.06 154.25 19.02 154.35 18.96C154.81 18.65 155.33 18.53 155.86 18.53C156.75 18.53 157.34 18.97 157.34 19.66L157.34 19.88L155.20 19.88C154.12 19.88 152.85 20.35 152.85 21.93C152.85 23.44 154.12 24.17 155.20 24.17C156.22 24.17 156.88 23.92 157.34 23.37C157.34 23.68 157.64 24.08 158.11 24.08L158.25 24.08C158.73 24.08 159.12 23.69 159.12 23.20ZM157.34 21.09L157.34 21.40C157.34 22.49 156.49 22.96 155.91 22.96C155.21 22.96 154.64 22.60 154.64 21.97C154.64 21.31 155.21 21.09 155.91 21.09ZM167.74 20.61C167.74 18.36 166.32 17.07 164.61 17.07C163.80 17.07 163.05 17.43 162.66 18.11L162.66 18.04C162.66 17.55 162.27 17.15 161.77 17.15C161.28 17.15 160.88 17.55 160.88 18.04L160.88 25.79C160.88 26.27 161.26 26.66 161.78 26.66C162.26 26.66 162.66 26.27 162.66 25.79L162.66 23.13C163.05 23.82 163.81 24.17 164.61 24.17C166.33 24.17 167.74 22.82 167.74 20.61ZM165.91 20.61C165.91 21.79 165.22 22.59 164.19 22.59C163.47 22.59 162.66 21.83 162.66 20.68L162.66 20.53C162.66 19.39 163.47 18.65 164.19 18.65C165.22 18.65 165.91 19.44 165.91 20.61ZM169.93 14.40C169.35 14.40 168.86 14.86 168.86 15.45C168.86 16.03 169.35 16.51 169.93 16.51C170.52 16.51 170.99 16.03 170.99 15.45C170.99 14.86 170.52 14.40 169.93 14.40ZM170.82 18.02C170.82 17.55 170.43 17.15 169.96 17.15C169.44 17.15 169.05 17.55 169.05 18.02L169.05 23.20C169.05 23.69 169.44 24.08 169.93 24.08C170.43 24.08 170.82 23.69 170.82 23.20Z" fill="#22272e" /><path d="M401.55 21.62C401.55 20.44 400.84 19.76 400.32 19.53C400.76 19.32 401.40 18.83 401.40 17.49C401.40 15.99 399.79 15.20 398.06 15.20C396.32 15.20 394.72 15.99 394.72 17.49C394.72 18.83 395.34 19.32 395.79 19.53C395.27 19.76 394.58 20.44 394.58 21.62C394.58 23.25 396.24 24.16 398.06 24.16C399.88 24.16 401.55 23.23 401.55 21.62ZM399.52 17.77C399.52 18.42 398.85 18.80 398.06 18.80C397.27 18.80 396.59 18.42 396.59 17.77C396.59 17.15 397.20 16.79 398.06 16.79C398.91 16.79 399.52 17.15 399.52 17.77ZM399.67 21.52C399.67 22.15 398.94 22.57 398.06 22.57C397.15 22.57 396.45 22.15 396.45 21.52C396.45 20.79 397.25 20.36 398.06 20.36C398.85 20.36 399.67 20.79 399.67 21.52Z" fill="#627386" /><path transform="translate(377.12, 12)" d="M6 0.5 L7.5 4.2 L11.5 4.5 L8.4 7 L9.4 11 L6 8.8 L2.6 11 L3.6 7 L0.5 4.5 L4.5 4.2 Z" fill="#627386" /><path d="M25.64 39.44C25.64 39.36 25.63 39.29 25.60 39.21L22.94 32.56C22.79 32.16 22.39 31.91 21.97 31.92C21.55 31.92 21.17 32.18 21.02 32.56L18.37 39.21C18.35 39.29 18.34 39.36 18.34 39.44C18.34 39.76 18.60 40.07 18.97 40.07C19.22 40.07 19.45 39.93 19.55 39.69L20.08 38.33L23.90 38.33L24.43 39.69C24.53 39.93 24.76 40.07 25.01 40.07C25.39 40.07 25.64 39.74 25.64 39.44ZM21.98 33.21L23.57 37.29L20.41 37.29ZM34.91 36.28C34.91 35.06 34.02 34.06 32.80 34.06C31.79 34.06 31.27 34.55 31.00 35.02L31.00 34.65C31.00 34.37 30.76 34.13 30.48 34.13C30.17 34.13 29.93 34.37 29.93 34.65L29.93 39.54C29.93 39.83 30.17 40.07 30.46 40.07C30.76 40.07 31.00 39.83 31.00 39.54L31.00 36.76C31.00 35.78 31.52 35.01 32.45 35.01C33.31 35.01 33.84 35.68 33.84 36.64L33.84 39.54C33.84 39.83 34.08 40.07 34.37 40.07C34.67 40.07 34.91 39.83 34.91 39.54ZM42.13 37.10C42.13 35.43 41.02 34.06 39.20 34.06C37.40 34.06 36.29 35.43 36.29 37.10C36.29 38.76 37.40 40.14 39.20 40.14C41.02 40.14 42.13 38.76 42.13 37.10ZM41.02 37.10C41.02 38.21 40.37 39.20 39.20 39.20C38.05 39.20 37.39 38.21 37.39 37.10C37.39 35.99 38.05 35.01 39.20 35.01C40.37 35.01 41.02 35.99 41.02 37.10ZM48.72 32.44C48.72 32.16 48.48 31.92 48.20 31.92C47.89 31.92 47.65 32.16 47.65 32.44L47.65 35.04C47.18 34.42 46.62 34.06 45.74 34.06C44.23 34.06 43.16 35.25 43.16 37.11C43.16 39.00 44.24 40.14 45.74 40.14C46.64 40.14 47.21 39.75 47.65 39.17L47.65 39.54C47.65 39.83 47.89 40.07 48.18 40.07C48.48 40.07 48.72 39.83 48.72 39.54ZM47.65 37.14C47.65 38.34 47.05 39.20 46.02 39.20C44.94 39.20 44.27 38.32 44.27 37.11C44.27 35.90 44.94 35.01 46.02 35.01C47.05 35.01 47.65 35.88 47.65 37.07ZM55.80 36.90C55.80 36.68 55.74 36.42 55.69 36.23C55.36 34.94 54.40 34.06 52.99 34.06C51.31 34.06 50.10 35.42 50.10 37.10C50.10 38.92 51.36 40.14 53.09 40.14C53.94 40.14 55.43 39.70 55.43 39.05C55.43 38.64 55.02 38.55 54.76 38.68C54.34 38.99 53.69 39.28 53.20 39.28C52.02 39.28 51.30 38.48 51.22 37.48L55.25 37.48C55.55 37.48 55.80 37.19 55.80 36.90ZM51.22 36.69C51.26 35.88 51.83 34.92 52.98 34.92C54.22 34.92 54.74 35.91 54.77 36.69ZM64.87 39.12C64.87 38.85 64.62 38.66 64.37 38.66C64.25 38.66 64.13 38.69 64.03 38.76C63.71 39.05 63.34 39.20 62.90 39.20C61.75 39.20 61.01 38.31 61.01 37.10C61.01 35.88 61.75 35.01 62.90 35.01C63.32 35.01 63.71 35.14 64.03 35.43C64.13 35.51 64.25 35.56 64.37 35.56C64.63 35.56 64.86 35.34 64.86 35.08C64.86 34.98 64.84 34.90 64.78 34.83C64.38 34.37 63.73 34.06 62.84 34.06C61.10 34.06 59.90 35.37 59.90 37.10C59.90 38.84 61.10 40.14 62.84 40.14C63.71 40.14 64.30 39.86 64.73 39.44C64.82 39.35 64.87 39.23 64.87 39.12ZM67.27 32.44C67.27 32.16 67.03 31.92 66.76 31.92C66.44 31.92 66.20 32.16 66.20 32.44L66.20 39.54C66.20 39.83 66.44 40.07 66.73 40.07C67.03 40.07 67.27 39.83 67.27 39.54ZM69.53 32.06C69.16 32.06 68.84 32.37 68.84 32.75C68.84 33.12 69.16 33.44 69.53 33.44C69.91 33.44 70.21 33.12 70.21 32.75C70.21 32.37 69.91 32.06 69.53 32.06ZM70.07 34.65C70.07 34.37 69.83 34.13 69.55 34.13C69.24 34.13 69.00 34.37 69.00 34.65L69.00 39.54C69.00 39.83 69.24 40.07 69.53 40.07C69.83 40.07 70.07 39.83 70.07 39.54ZM77.15 36.90C77.15 36.68 77.09 36.42 77.04 36.23C76.70 34.94 75.74 34.06 74.34 34.06C72.66 34.06 71.45 35.42 71.45 37.10C71.45 38.92 72.71 40.14 74.44 40.14C75.29 40.14 76.78 39.70 76.78 39.05C76.78 38.64 76.37 38.55 76.10 38.68C75.68 38.99 75.04 39.28 74.54 39.28C73.37 39.28 72.65 38.48 72.56 37.48L76.60 37.48C76.90 37.48 77.15 37.19 77.15 36.90ZM72.56 36.69C72.61 35.88 73.18 34.92 74.33 34.92C75.56 34.92 76.09 35.91 76.12 36.69ZM83.50 36.28C83.50 35.06 82.61 34.06 81.38 34.06C80.38 34.06 79.86 34.55 79.58 35.02L79.58 34.65C79.58 34.37 79.34 34.13 79.07 34.13C78.76 34.13 78.52 34.37 78.52 34.65L78.52 39.54C78.52 39.83 78.76 40.07 79.04 40.07C79.34 40.07 79.58 39.83 79.58 39.54L79.58 36.76C79.58 35.78 80.11 35.01 81.04 35.01C81.90 35.01 82.43 35.68 82.43 36.64L82.43 39.54C82.43 39.83 82.67 40.07 82.96 40.07C83.26 40.07 83.50 39.83 83.50 39.54ZM87.92 39.58C87.92 39.33 87.73 39.14 87.47 39.14C87.35 39.14 87.20 39.20 87.07 39.20C86.72 39.20 86.51 38.92 86.51 38.48L86.51 35.14L87.30 35.14C87.55 35.14 87.76 34.94 87.76 34.68C87.76 34.41 87.55 34.20 87.30 34.20L86.51 34.20L86.51 33.06C86.51 32.79 86.27 32.55 85.98 32.55C85.67 32.55 85.43 32.79 85.43 33.06L85.43 34.20L84.86 34.20C84.60 34.20 84.40 34.41 84.40 34.66C84.40 34.94 84.60 35.14 84.86 35.14L85.43 35.14L85.43 38.73C85.43 39.64 85.91 40.14 86.82 40.14C87.46 40.14 87.92 39.96 87.92 39.58ZM95.22 32.46C95.22 32.06 94.52 31.88 94.01 31.88C92.94 31.88 92.26 32.60 92.26 33.80L92.26 34.20L91.68 34.20C91.43 34.20 91.22 34.41 91.22 34.66C91.22 34.94 91.43 35.14 91.68 35.14L92.26 35.14L92.26 39.54C92.26 39.83 92.50 40.07 92.78 40.07C93.08 40.07 93.32 39.83 93.32 39.54L93.32 35.14L94.12 35.14C94.37 35.14 94.57 34.94 94.57 34.68C94.57 34.41 94.37 34.20 94.12 34.20L93.32 34.20L93.32 33.80C93.32 33.11 93.64 32.74 94.19 32.74C94.44 32.74 94.62 32.88 94.81 32.88C95.02 32.88 95.22 32.73 95.22 32.46ZM101.02 37.10C101.02 35.43 99.90 34.06 98.09 34.06C96.29 34.06 95.17 35.43 95.17 37.10C95.17 38.76 96.29 40.14 98.09 40.14C99.90 40.14 101.02 38.76 101.02 37.10ZM99.90 37.10C99.90 38.21 99.25 39.20 98.09 39.20C96.94 39.20 96.28 38.21 96.28 37.10C96.28 35.99 96.94 35.01 98.09 35.01C99.25 35.01 99.90 35.99 99.90 37.10ZM105.44 34.60C105.44 34.32 105.24 34.12 104.96 34.12C104.32 34.12 103.79 34.66 103.46 35.10L103.46 34.65C103.46 34.37 103.22 34.13 102.95 34.13C102.64 34.13 102.40 34.37 102.40 34.65L102.40 39.54C102.40 39.83 102.62 40.06 102.91 40.07L102.92 40.07C103.22 40.07 103.46 39.83 103.46 39.54L103.46 36.57C103.46 35.81 103.99 35.21 104.90 35.16C105.20 35.15 105.44 34.91 105.44 34.60ZM112.24 39.58C112.24 39.33 112.04 39.14 111.78 39.14C111.66 39.14 111.52 39.20 111.38 39.20C111.04 39.20 110.82 38.92 110.82 38.48L110.82 35.14L111.61 35.14C111.86 35.14 112.07 34.94 112.07 34.68C112.07 34.41 111.86 34.20 111.61 34.20L110.82 34.20L110.82 33.06C110.82 32.79 110.58 32.55 110.29 32.55C109.98 32.55 109.74 32.79 109.74 33.06L109.74 34.20L109.18 34.20C108.91 34.20 108.71 34.41 108.71 34.66C108.71 34.94 108.91 35.14 109.18 35.14L109.74 35.14L109.74 38.73C109.74 39.64 110.22 40.14 111.13 40.14C111.77 40.14 112.24 39.96 112.24 39.58ZM118.20 36.26C118.20 35.03 117.32 34.06 116.10 34.06C115.08 34.06 114.55 34.55 114.28 35.02L114.28 32.44C114.28 32.16 114.04 31.92 113.76 31.92C113.45 31.92 113.21 32.16 113.21 32.44L113.21 39.54C113.21 39.83 113.45 40.07 113.74 40.07C114.04 40.07 114.28 39.83 114.28 39.54L114.28 36.82C114.28 35.74 114.85 35.01 115.76 35.01C116.63 35.01 117.13 35.66 117.13 36.62L117.13 39.54C117.13 39.83 117.37 40.07 117.66 40.07C117.96 40.07 118.20 39.83 118.20 39.54ZM125.28 36.90C125.28 36.68 125.22 36.42 125.17 36.23C124.84 34.94 123.88 34.06 122.47 34.06C120.79 34.06 119.58 35.42 119.58 37.10C119.58 38.92 120.84 40.14 122.57 40.14C123.42 40.14 124.91 39.70 124.91 39.05C124.91 38.64 124.50 38.55 124.24 38.68C123.82 38.99 123.17 39.28 122.68 39.28C121.50 39.28 120.78 38.48 120.70 37.48L124.73 37.48C125.03 37.48 125.28 37.19 125.28 36.90ZM120.70 36.69C120.74 35.88 121.31 34.92 122.46 34.92C123.70 34.92 124.22 35.91 124.25 36.69ZM136.80 36.58C136.80 36.15 136.44 35.80 136.01 35.80L133.48 35.80C133.19 35.80 132.96 36.03 132.96 36.32C132.96 36.62 133.19 36.84 133.48 36.84L135.61 36.84L135.61 37.46C135.61 38.55 134.47 39.10 133.58 39.10C131.90 39.10 130.66 37.79 130.66 36.00C130.66 34.20 131.90 32.92 133.58 32.92C134.33 32.92 135.07 33.23 135.56 33.74C135.67 33.86 135.82 33.92 135.96 33.92C136.26 33.92 136.50 33.66 136.50 33.36C136.50 33.23 136.46 33.08 136.36 32.98C135.72 32.33 134.81 31.86 133.58 31.86C131.28 31.86 129.42 33.51 129.42 36.00C129.42 38.50 131.28 40.16 133.58 40.16C135.53 40.16 136.80 38.80 136.80 37.38ZM138.84 32.06C138.47 32.06 138.16 32.37 138.16 32.75C138.16 33.12 138.47 33.44 138.84 33.44C139.22 33.44 139.52 33.12 139.52 32.75C139.52 32.37 139.22 32.06 138.84 32.06ZM139.38 34.65C139.38 34.37 139.14 34.13 138.86 34.13C138.55 34.13 138.31 34.37 138.31 34.65L138.31 39.54C138.31 39.83 138.55 40.07 138.84 40.07C139.14 40.07 139.38 39.83 139.38 39.54ZM143.81 39.58C143.81 39.33 143.62 39.14 143.35 39.14C143.23 39.14 143.09 39.20 142.96 39.20C142.61 39.20 142.39 38.92 142.39 38.48L142.39 35.14L143.18 35.14C143.44 35.14 143.64 34.94 143.64 34.68C143.64 34.41 143.44 34.20 143.18 34.20L142.39 34.20L142.39 33.06C142.39 32.79 142.15 32.55 141.86 32.55C141.55 32.55 141.31 32.79 141.31 33.06L141.31 34.20L140.75 34.20C140.48 34.20 140.28 34.41 140.28 34.66C140.28 34.94 140.48 35.14 140.75 35.14L141.31 35.14L141.31 38.73C141.31 39.64 141.79 40.14 142.70 40.14C143.34 40.14 143.81 39.96 143.81 39.58ZM151.63 32.50C151.63 32.19 151.37 31.92 151.06 31.92C150.70 31.92 150.43 32.19 150.43 32.50L150.43 35.36L146.00 35.36L146.00 32.50C146.00 32.19 145.74 31.92 145.43 31.92C145.08 31.92 144.82 32.19 144.82 32.50L144.82 39.48C144.82 39.81 145.08 40.07 145.40 40.07C145.74 40.07 146.00 39.81 146.00 39.48L146.00 36.41L150.43 36.41L150.43 39.48C150.43 39.81 150.70 40.07 151.03 40.07C151.37 40.07 151.63 39.81 151.63 39.48ZM158.38 34.65C158.38 34.37 158.14 34.13 157.86 34.13C157.55 34.13 157.31 34.37 157.31 34.65L157.31 37.41C157.31 38.39 156.68 39.20 155.82 39.20C154.96 39.20 154.46 38.54 154.46 37.58L154.46 34.65C154.46 34.37 154.22 34.13 153.95 34.13C153.64 34.13 153.40 34.37 153.40 34.65L153.40 37.95C153.40 39.17 154.26 40.14 155.48 40.14C156.49 40.14 157.00 39.70 157.31 39.21L157.31 39.54C157.31 39.83 157.55 40.07 157.84 40.07C158.14 40.07 158.38 39.83 158.38 39.54ZM165.65 37.11C165.65 35.25 164.69 34.06 163.19 34.06C162.30 34.06 161.63 34.42 161.16 35.04L161.16 32.44C161.16 32.16 160.92 31.92 160.64 31.92C160.33 31.92 160.09 32.16 160.09 32.44L160.09 39.54C160.09 39.83 160.33 40.07 160.62 40.07C160.92 40.07 161.16 39.83 161.16 39.54L161.16 39.17C161.59 39.75 162.29 40.14 163.07 40.14C164.57 40.14 165.65 39.00 165.65 37.11ZM164.53 37.11C164.53 38.32 163.99 39.20 162.89 39.20C162.12 39.20 161.16 38.36 161.16 37.16L161.16 37.07C161.16 35.88 161.88 35.01 162.89 35.01C163.99 35.01 164.53 35.90 164.53 37.11ZM177.18 36.58C177.18 36.15 176.82 35.80 176.39 35.80L173.86 35.80C173.57 35.80 173.34 36.03 173.34 36.32C173.34 36.62 173.57 36.84 173.86 36.84L175.99 36.84L175.99 37.46C175.99 38.55 174.85 39.10 173.96 39.10C172.28 39.10 171.04 37.79 171.04 36.00C171.04 34.20 172.28 32.92 173.96 32.92C174.71 32.92 175.45 33.23 175.94 33.74C176.05 33.86 176.20 33.92 176.34 33.92C176.64 33.92 176.88 33.66 176.88 33.36C176.88 33.23 176.84 33.08 176.74 32.98C176.10 32.33 175.19 31.86 173.96 31.86C171.66 31.86 169.80 33.51 169.80 36.00C169.80 38.50 171.66 40.16 173.96 40.16C175.91 40.16 177.18 38.80 177.18 37.38ZM181.74 34.60C181.74 34.32 181.54 34.12 181.26 34.12C180.61 34.12 180.08 34.66 179.76 35.10L179.76 34.65C179.76 34.37 179.52 34.13 179.24 34.13C178.93 34.13 178.69 34.37 178.69 34.65L178.69 39.54C178.69 39.83 178.92 40.06 179.21 40.07L179.22 40.07C179.52 40.07 179.76 39.83 179.76 39.54L179.76 36.57C179.76 35.81 180.29 35.21 181.20 35.16C181.50 35.15 181.74 34.91 181.74 34.60ZM187.40 36.08C187.40 34.60 186.32 34.06 185.08 34.06C184.30 34.06 183.42 34.31 182.87 34.86C182.80 34.95 182.76 35.04 182.76 35.14C182.76 35.39 182.99 35.56 183.20 35.56C183.29 35.56 183.38 35.52 183.47 35.46C183.90 35.13 184.38 34.96 184.92 34.96C185.74 34.96 186.34 35.39 186.34 36.12L186.34 36.45L184.67 36.45C183.47 36.45 182.41 36.92 182.41 38.22C182.41 39.50 183.47 40.14 184.43 40.14C185.33 40.14 185.87 39.87 186.34 39.35L186.34 39.54C186.34 39.89 186.61 40.07 186.83 40.07L186.86 40.07C187.16 40.07 187.40 39.83 187.40 39.54ZM186.34 37.19L186.34 38.01C186.34 38.69 185.56 39.39 184.72 39.39C183.94 39.39 183.49 38.92 183.49 38.25C183.49 37.55 184.04 37.19 184.96 37.19ZM194.68 37.10C194.68 35.20 193.61 34.06 192.10 34.06C191.30 34.06 190.61 34.46 190.19 35.03L190.19 34.65C190.19 34.37 189.95 34.13 189.67 34.13C189.36 34.13 189.12 34.37 189.12 34.65L189.12 41.76C189.12 42.04 189.36 42.28 189.65 42.28C189.95 42.28 190.19 42.04 190.19 41.76L190.19 39.16C190.66 39.80 191.33 40.14 192.10 40.14C193.61 40.14 194.68 38.98 194.68 37.10ZM193.55 37.10C193.55 38.31 193.01 39.20 191.92 39.20C190.91 39.20 190.19 38.32 190.19 37.13L190.19 37.06C190.19 35.87 190.91 35.01 191.92 35.01C193.01 35.01 193.55 35.88 193.55 37.10ZM201.01 36.26C201.01 35.03 200.14 34.06 198.91 34.06C197.89 34.06 197.36 34.55 197.09 35.02L197.09 32.44C197.09 32.16 196.85 31.92 196.57 31.92C196.26 31.92 196.02 32.16 196.02 32.44L196.02 39.54C196.02 39.83 196.26 40.07 196.55 40.07C196.85 40.07 197.09 39.83 197.09 39.54L197.09 36.82C197.09 35.74 197.66 35.01 198.58 35.01C199.44 35.01 199.94 35.66 199.94 36.62L199.94 39.54C199.94 39.83 200.18 40.07 200.47 40.07C200.77 40.07 201.01 39.83 201.01 39.54ZM210.49 36.00C210.49 33.63 208.84 31.86 206.46 31.86C204.07 31.86 202.43 33.63 202.43 36.00C202.43 38.38 204.07 40.14 206.46 40.14C207.25 40.14 207.96 39.95 208.55 39.60L208.99 40.07C209.09 40.19 209.23 40.25 209.39 40.25C209.70 40.25 209.93 39.99 209.93 39.70C209.93 39.58 209.89 39.46 209.81 39.36L209.40 38.92C210.08 38.20 210.49 37.18 210.49 36.00ZM209.27 36.00C209.27 36.81 209.03 37.52 208.62 38.06L207.84 37.20C207.73 37.08 207.59 37.02 207.44 37.02C207.13 37.02 206.90 37.31 206.90 37.58C206.90 37.70 206.94 37.82 207.04 37.91L207.80 38.75C207.41 38.97 206.96 39.09 206.46 39.09C204.74 39.09 203.66 37.77 203.66 36.00C203.66 34.23 204.74 32.92 206.46 32.92C208.16 32.92 209.27 34.23 209.27 36.00ZM216.84 39.46C216.84 39.18 216.61 38.94 216.32 38.94L213.14 38.94L213.14 32.50C213.14 32.19 212.88 31.92 212.57 31.92C212.22 31.92 211.96 32.19 211.96 32.50L211.96 39.22C211.96 39.65 212.30 40 212.74 40L216.32 40C216.61 40 216.84 39.77 216.84 39.46ZM227.94 39.44C227.94 39.36 227.93 39.29 227.89 39.21L225.24 32.56C225.08 32.16 224.69 31.91 224.27 31.92C223.85 31.92 223.46 32.18 223.32 32.56L220.67 39.21C220.64 39.29 220.63 39.36 220.63 39.44C220.63 39.76 220.90 40.07 221.27 40.07C221.52 40.07 221.75 39.93 221.84 39.69L222.37 38.33L226.20 38.33L226.73 39.69C226.82 39.93 227.05 40.07 227.30 40.07C227.69 40.07 227.94 39.74 227.94 39.44ZM224.28 33.21L225.86 37.29L222.71 37.29ZM235.09 34.46C235.09 33.12 234.18 32.00 232.54 32.00L229.96 32.00C229.52 32.00 229.18 32.34 229.18 32.78L229.18 39.48C229.18 39.81 229.44 40.07 229.76 40.07C230.10 40.07 230.36 39.81 230.36 39.48L230.36 36.92L232.54 36.92C234.16 36.92 235.09 35.79 235.09 34.46ZM233.87 34.46C233.87 35.28 233.26 35.86 232.38 35.86L230.36 35.86L230.36 33.05L232.38 33.05C233.26 33.05 233.87 33.62 233.87 34.46ZM237.53 32.50C237.53 32.19 237.26 31.92 236.95 31.92C236.60 31.92 236.34 32.19 236.34 32.50L236.34 39.48C236.34 39.81 236.60 40.07 236.93 40.07C237.26 40.07 237.53 39.81 237.53 39.48ZM250.15 34.65C250.15 34.37 249.94 34.13 249.62 34.13C249.40 34.13 249.18 34.28 249.12 34.49L247.88 38.63L246.53 34.54C246.44 34.30 246.23 34.13 245.98 34.13C245.69 34.13 245.47 34.30 245.39 34.54L244.04 38.63L242.81 34.49C242.74 34.28 242.51 34.13 242.28 34.13C241.98 34.13 241.76 34.40 241.76 34.65C241.76 34.70 241.78 34.74 241.79 34.79L243.30 39.58C243.40 39.87 243.66 40.07 243.96 40.07L243.98 40.07C244.30 40.07 244.57 39.87 244.66 39.58L245.96 35.54L247.26 39.58C247.36 39.87 247.62 40.07 247.93 40.07L247.94 40.07C248.26 40.07 248.53 39.87 248.62 39.58L250.13 34.79C250.14 34.74 250.15 34.70 250.15 34.65ZM251.81 32.06C251.44 32.06 251.12 32.37 251.12 32.75C251.12 33.12 251.44 33.44 251.81 33.44C252.19 33.44 252.49 33.12 252.49 32.75C252.49 32.37 252.19 32.06 251.81 32.06ZM252.35 34.65C252.35 34.37 252.11 34.13 251.83 34.13C251.52 34.13 251.28 34.37 251.28 34.65L251.28 39.54C251.28 39.83 251.52 40.07 251.81 40.07C252.11 40.07 252.35 39.83 252.35 39.54ZM256.78 39.58C256.78 39.33 256.58 39.14 256.32 39.14C256.20 39.14 256.06 39.20 255.92 39.20C255.58 39.20 255.36 38.92 255.36 38.48L255.36 35.14L256.15 35.14C256.40 35.14 256.61 34.94 256.61 34.68C256.61 34.41 256.40 34.20 256.15 34.20L255.36 34.20L255.36 33.06C255.36 32.79 255.12 32.55 254.83 32.55C254.52 32.55 254.28 32.79 254.28 33.06L254.28 34.20L253.72 34.20C253.45 34.20 253.25 34.41 253.25 34.66C253.25 34.94 253.45 35.14 253.72 35.14L254.28 35.14L254.28 38.73C254.28 39.64 254.76 40.14 255.67 40.14C256.31 40.14 256.78 39.96 256.78 39.58ZM262.74 36.26C262.74 35.03 261.86 34.06 260.64 34.06C259.62 34.06 259.09 34.55 258.82 35.02L258.82 32.44C258.82 32.16 258.58 31.92 258.30 31.92C257.99 31.92 257.75 32.16 257.75 32.44L257.75 39.54C257.75 39.83 257.99 40.07 258.28 40.07C258.58 40.07 258.82 39.83 258.82 39.54L258.82 36.82C258.82 35.74 259.39 35.01 260.30 35.01C261.17 35.01 261.67 35.66 261.67 36.62L261.67 39.54C261.67 39.83 261.91 40.07 262.20 40.07C262.50 40.07 262.74 39.83 262.74 39.54ZM275.66 36.29C275.66 35.12 274.86 34.06 273.66 34.06C272.82 34.06 272.24 34.52 271.91 35.16C271.73 34.67 271.09 34.06 270.13 34.06C269.29 34.06 268.86 34.54 268.62 34.90L268.62 34.65C268.62 34.37 268.38 34.13 268.10 34.13C267.79 34.13 267.55 34.37 267.55 34.65L267.55 39.54C267.55 39.83 267.79 40.07 268.08 40.07C268.38 40.07 268.62 39.83 268.62 39.54L268.62 36.70C268.62 35.79 269.05 35.01 269.89 35.01C270.73 35.01 271.07 35.69 271.07 36.62L271.07 39.54C271.07 39.83 271.31 40.07 271.60 40.07C271.90 40.07 272.14 39.83 272.14 39.54L272.14 36.69C272.14 35.79 272.54 35.01 273.38 35.01C274.22 35.01 274.60 35.69 274.60 36.62L274.60 39.54C274.60 39.83 274.84 40.07 275.12 40.07C275.42 40.07 275.66 39.83 275.66 39.54ZM277.92 32.06C277.55 32.06 277.24 32.37 277.24 32.75C277.24 33.12 277.55 33.44 277.92 33.44C278.30 33.44 278.60 33.12 278.60 32.75C278.60 32.37 278.30 32.06 277.92 32.06ZM278.46 34.65C278.46 34.37 278.22 34.13 277.94 34.13C277.63 34.13 277.39 34.37 277.39 34.65L277.39 39.54C277.39 39.83 277.63 40.07 277.92 40.07C278.22 40.07 278.46 39.83 278.46 39.54ZM285.17 36.28C285.17 35.06 284.28 34.06 283.06 34.06C282.05 34.06 281.53 34.55 281.26 35.02L281.26 34.65C281.26 34.37 281.02 34.13 280.74 34.13C280.43 34.13 280.19 34.37 280.19 34.65L280.19 39.54C280.19 39.83 280.43 40.07 280.72 40.07C281.02 40.07 281.26 39.83 281.26 39.54L281.26 36.76C281.26 35.78 281.78 35.01 282.71 35.01C283.57 35.01 284.10 35.68 284.10 36.64L284.10 39.54C284.10 39.83 284.34 40.07 284.63 40.07C284.93 40.07 285.17 39.83 285.17 39.54ZM287.42 32.06C287.05 32.06 286.74 32.37 286.74 32.75C286.74 33.12 287.05 33.44 287.42 33.44C287.81 33.44 288.11 33.12 288.11 32.75C288.11 32.37 287.81 32.06 287.42 32.06ZM287.96 34.65C287.96 34.37 287.72 34.13 287.45 34.13C287.14 34.13 286.90 34.37 286.90 34.65L286.90 39.54C286.90 39.83 287.14 40.07 287.42 40.07C287.72 40.07 287.96 39.83 287.96 39.54ZM297.80 36.29C297.80 35.12 297.00 34.06 295.80 34.06C294.96 34.06 294.38 34.52 294.05 35.16C293.87 34.67 293.23 34.06 292.27 34.06C291.43 34.06 291.00 34.54 290.76 34.90L290.76 34.65C290.76 34.37 290.52 34.13 290.24 34.13C289.93 34.13 289.69 34.37 289.69 34.65L289.69 39.54C289.69 39.83 289.93 40.07 290.22 40.07C290.52 40.07 290.76 39.83 290.76 39.54L290.76 36.70C290.76 35.79 291.19 35.01 292.03 35.01C292.87 35.01 293.21 35.69 293.21 36.62L293.21 39.54C293.21 39.83 293.45 40.07 293.74 40.07C294.04 40.07 294.28 39.83 294.28 39.54L294.28 36.69C294.28 35.79 294.68 35.01 295.52 35.01C296.36 35.01 296.74 35.69 296.74 36.62L296.74 39.54C296.74 39.83 296.98 40.07 297.26 40.07C297.56 40.07 297.80 39.83 297.80 39.54ZM304.19 36.08C304.19 34.60 303.11 34.06 301.86 34.06C301.08 34.06 300.20 34.31 299.65 34.86C299.58 34.95 299.54 35.04 299.54 35.14C299.54 35.39 299.77 35.56 299.99 35.56C300.07 35.56 300.17 35.52 300.25 35.46C300.68 35.13 301.16 34.96 301.70 34.96C302.52 34.96 303.12 35.39 303.12 36.12L303.12 36.45L301.45 36.45C300.25 36.45 299.20 36.92 299.20 38.22C299.20 39.50 300.25 40.14 301.21 40.14C302.11 40.14 302.65 39.87 303.12 39.35L303.12 39.54C303.12 39.89 303.40 40.07 303.61 40.07L303.65 40.07C303.95 40.07 304.19 39.83 304.19 39.54ZM303.12 37.19L303.12 38.01C303.12 38.69 302.34 39.39 301.50 39.39C300.72 39.39 300.28 38.92 300.28 38.25C300.28 37.55 300.83 37.19 301.74 37.19ZM306.97 32.44C306.97 32.16 306.73 31.92 306.46 31.92C306.14 31.92 305.90 32.16 305.90 32.44L305.90 39.54C305.90 39.83 306.14 40.07 306.43 40.07C306.73 40.07 306.97 39.83 306.97 39.54ZM316.99 32.44C316.99 32.16 316.75 31.92 316.48 31.92C316.16 31.92 315.92 32.16 315.92 32.44L315.92 35.04C315.46 34.42 314.89 34.06 314.02 34.06C312.50 34.06 311.44 35.25 311.44 37.11C311.44 39.00 312.52 40.14 314.02 40.14C314.92 40.14 315.48 39.75 315.92 39.17L315.92 39.54C315.92 39.83 316.16 40.07 316.45 40.07C316.75 40.07 316.99 39.83 316.99 39.54ZM315.92 37.14C315.92 38.34 315.32 39.20 314.29 39.20C313.21 39.20 312.54 38.32 312.54 37.11C312.54 35.90 313.21 35.01 314.29 35.01C315.32 35.01 315.92 35.88 315.92 37.07ZM324.07 36.90C324.07 36.68 324.01 36.42 323.96 36.23C323.63 34.94 322.67 34.06 321.26 34.06C319.58 34.06 318.37 35.42 318.37 37.10C318.37 38.92 319.63 40.14 321.36 40.14C322.21 40.14 323.70 39.70 323.70 39.05C323.70 38.64 323.29 38.55 323.03 38.68C322.61 38.99 321.96 39.28 321.47 39.28C320.29 39.28 319.57 38.48 319.49 37.48L323.52 37.48C323.82 37.48 324.07 37.19 324.07 36.90ZM319.49 36.69C319.54 35.88 320.10 34.92 321.25 34.92C322.49 34.92 323.02 35.91 323.04 36.69ZM331.00 37.10C331.00 35.20 329.93 34.06 328.42 34.06C327.62 34.06 326.93 34.46 326.51 35.03L326.51 34.65C326.51 34.37 326.27 34.13 325.99 34.13C325.68 34.13 325.44 34.37 325.44 34.65L325.44 41.76C325.44 42.04 325.68 42.28 325.97 42.28C326.27 42.28 326.51 42.04 326.51 41.76L326.51 39.16C326.98 39.80 327.65 40.14 328.42 40.14C329.93 40.14 331.00 38.98 331.00 37.10ZM329.87 37.10C329.87 38.31 329.33 39.20 328.24 39.20C327.23 39.20 326.51 38.32 326.51 37.13L326.51 37.06C326.51 35.87 327.23 35.01 328.24 35.01C329.33 35.01 329.87 35.88 329.87 37.10ZM337.69 36.90C337.69 36.68 337.63 36.42 337.58 36.23C337.25 34.94 336.29 34.06 334.88 34.06C333.20 34.06 331.99 35.42 331.99 37.10C331.99 38.92 333.25 40.14 334.98 40.14C335.83 40.14 337.32 39.70 337.32 39.05C337.32 38.64 336.91 38.55 336.65 38.68C336.23 38.99 335.58 39.28 335.09 39.28C333.91 39.28 333.19 38.48 333.11 37.48L337.14 37.48C337.44 37.48 337.69 37.19 337.69 36.90ZM333.11 36.69C333.16 35.88 333.72 34.92 334.87 34.92C336.11 34.92 336.64 35.91 336.66 36.69ZM344.04 36.28C344.04 35.06 343.15 34.06 341.93 34.06C340.92 34.06 340.40 34.55 340.13 35.02L340.13 34.65C340.13 34.37 339.89 34.13 339.61 34.13C339.30 34.13 339.06 34.37 339.06 34.65L339.06 39.54C339.06 39.83 339.30 40.07 339.59 40.07C339.89 40.07 340.13 39.83 340.13 39.54L340.13 36.76C340.13 35.78 340.66 35.01 341.58 35.01C342.44 35.01 342.97 35.68 342.97 36.64L342.97 39.54C342.97 39.83 343.21 40.07 343.50 40.07C343.80 40.07 344.04 39.83 344.04 39.54ZM350.98 32.44C350.98 32.16 350.74 31.92 350.46 31.92C350.15 31.92 349.91 32.16 349.91 32.44L349.91 35.04C349.44 34.42 348.88 34.06 348.00 34.06C346.49 34.06 345.42 35.25 345.42 37.11C345.42 39.00 346.50 40.14 348.00 40.14C348.90 40.14 349.46 39.75 349.91 39.17L349.91 39.54C349.91 39.83 350.15 40.07 350.44 40.07C350.74 40.07 350.98 39.83 350.98 39.54ZM349.91 37.14C349.91 38.34 349.31 39.20 348.28 39.20C347.20 39.20 346.52 38.32 346.52 37.11C346.52 35.90 347.20 35.01 348.28 35.01C349.31 35.01 349.91 35.88 349.91 37.07ZM358.06 36.90C358.06 36.68 358.00 36.42 357.95 36.23C357.61 34.94 356.65 34.06 355.25 34.06C353.57 34.06 352.36 35.42 352.36 37.10C352.36 38.92 353.62 40.14 355.34 40.14C356.20 40.14 357.68 39.70 357.68 39.05C357.68 38.64 357.28 38.55 357.01 38.68C356.59 38.99 355.94 39.28 355.45 39.28C354.28 39.28 353.56 38.48 353.47 37.48L357.50 37.48C357.80 37.48 358.06 37.19 358.06 36.90ZM353.47 36.69C353.52 35.88 354.08 34.92 355.24 34.92C356.47 34.92 357.00 35.91 357.02 36.69ZM364.40 36.28C364.40 35.06 363.52 34.06 362.29 34.06C361.28 34.06 360.77 34.55 360.49 35.02L360.49 34.65C360.49 34.37 360.25 34.13 359.98 34.13C359.66 34.13 359.42 34.37 359.42 34.65L359.42 39.54C359.42 39.83 359.66 40.07 359.95 40.07C360.25 40.07 360.49 39.83 360.49 39.54L360.49 36.76C360.49 35.78 361.02 35.01 361.94 35.01C362.81 35.01 363.34 35.68 363.34 36.64L363.34 39.54C363.34 39.83 363.58 40.07 363.86 40.07C364.16 40.07 364.40 39.83 364.40 39.54ZM370.75 39.12C370.75 38.85 370.50 38.66 370.25 38.66C370.13 38.66 370.01 38.69 369.91 38.76C369.59 39.05 369.22 39.20 368.78 39.20C367.63 39.20 366.89 38.31 366.89 37.10C366.89 35.88 367.63 35.01 368.78 35.01C369.20 35.01 369.59 35.14 369.91 35.43C370.01 35.51 370.13 35.56 370.25 35.56C370.51 35.56 370.74 35.34 370.74 35.08C370.74 34.98 370.72 34.90 370.66 34.83C370.26 34.37 369.61 34.06 368.72 34.06C366.98 34.06 365.78 35.37 365.78 37.10C365.78 38.84 366.98 40.14 368.72 40.14C369.59 40.14 370.18 39.86 370.61 39.44C370.70 39.35 370.75 39.23 370.75 39.12ZM372.61 32.06C372.24 32.06 371.93 32.37 371.93 32.75C371.93 33.12 372.24 33.44 372.61 33.44C373.00 33.44 373.30 33.12 373.30 32.75C373.30 32.37 373.00 32.06 372.61 32.06ZM373.15 34.65C373.15 34.37 372.91 34.13 372.64 34.13C372.32 34.13 372.08 34.37 372.08 34.65L372.08 39.54C372.08 39.83 372.32 40.07 372.61 40.07C372.91 40.07 373.15 39.83 373.15 39.54ZM380.23 36.90C380.23 36.68 380.17 36.42 380.12 36.23C379.79 34.94 378.83 34.06 377.42 34.06C375.74 34.06 374.53 35.42 374.53 37.10C374.53 38.92 375.79 40.14 377.52 40.14C378.37 40.14 379.86 39.70 379.86 39.05C379.86 38.64 379.45 38.55 379.19 38.68C378.77 38.99 378.12 39.28 377.63 39.28C376.45 39.28 375.73 38.48 375.65 37.48L379.68 37.48C379.98 37.48 380.23 37.19 380.23 36.90ZM375.65 36.69C375.70 35.88 376.26 34.92 377.41 34.92C378.65 34.92 379.18 35.91 379.20 36.69ZM385.85 38.25C385.74 36.21 382.42 36.77 382.30 35.73C382.25 35.26 382.75 34.91 383.48 34.91C384.04 34.91 384.55 35.09 384.92 35.36C385.00 35.42 385.08 35.44 385.18 35.44C385.39 35.44 385.60 35.26 385.60 35.02C385.60 34.92 385.56 34.83 385.49 34.76C385.03 34.31 384.30 34.06 383.47 34.06C382.06 34.06 381.20 34.73 381.26 35.76C381.37 37.71 384.68 37.11 384.80 38.39C384.85 38.92 384.37 39.29 383.54 39.29C382.94 39.29 382.34 39.05 381.91 38.74C381.83 38.68 381.74 38.66 381.64 38.66C381.38 38.66 381.17 38.85 381.17 39.10C381.17 39.22 381.22 39.32 381.30 39.39C381.83 39.92 382.70 40.14 383.50 40.14C385.03 40.14 385.91 39.35 385.85 38.25ZM391.58 39.38C391.58 38.98 391.25 38.63 390.85 38.63C390.44 38.63 390.12 38.98 390.12 39.38C390.12 39.77 390.44 40.12 390.85 40.12C391.25 40.12 391.58 39.77 391.58 39.38ZM394.44 39.38C394.44 38.98 394.09 38.63 393.68 38.63C393.29 38.63 392.95 38.98 392.95 39.38C392.95 39.77 393.29 40.12 393.68 40.12C394.09 40.12 394.44 39.77 394.44 39.38ZM397.28 39.38C397.28 38.98 396.95 38.63 396.54 38.63C396.13 38.63 395.80 38.98 395.80 39.38C395.80 39.77 396.13 40.12 396.54 40.12C396.95 40.12 397.28 39.77 397.28 39.38Z" fill="#627386" /><rect x="18" y="50" width="384" height="6" rx="3" fill="#f4faff" /><rect x="18" y="50" width="17.36" height="6" rx="3" fill="#3178c6" /></svg>