<svg xmlns="http://www.w3.org/2000/svg" width="420" height="64" viewBox="0 0 420 64" role="img"><rect x="0.5" y="0.5" width="419" height="63" rx="10" fill="#161b22" stroke="#30363d" /><path d="M25.22 19.65C25.22 18.33 24.09 17.07 22.61 17.07C21.57 17.07 20.93 17.62 20.66 18.04L20.66 18.02C20.66 17.55 20.27 17.15 19.79 17.15C19.27 17.15 18.88 17.55 18.88 18.02L18.88 23.20C18.88 23.69 19.27 24.08 19.76 24.08C20.27 24.08 20.66 23.69 20.66 23.20L20.66 20.22C20.66 19.25 21.36 18.65 22.06 18.65C22.82 18.65 23.45 19.25 23.45 20.19L23.45 23.20C23.45 23.69 23.84 24.08 24.33 24.08C24.83 24.08 25.22 23.69 25.22 23.20ZM33.71 20.61C33.71 18.69 32.36 17.07 30.12 17.07C27.90 17.07 26.55 18.69 26.55 20.61C26.55 22.54 27.90 24.17 30.12 24.17C32.36 24.17 33.71 22.54 33.71 20.61ZM31.86 20.61C31.86 21.68 31.23 22.59 30.12 22.59C29.02 22.59 28.40 21.68 28.40 20.61C28.40 19.56 29.02 18.65 30.12 18.65C31.23 18.65 31.86 19.56 31.86 20.61ZM34.60 20.63C34.60 22.88 36.03 24.17 37.74 24.17C38.55 24.17 39.29 23.80 39.69 23.13L39.69 23.20C39.69 23.69 40.08 24.08 40.58 24.08C41.07 24.08 41.46 23.69 41.46 23.20L41.46 15.45C41.46 14.97 41.07 14.58 40.55 14.58C40.08 14.58 39.69 14.97 39.69 15.45L39.69 18.11C39.29 17.42 38.54 17.07 37.74 17.07C36.02 17.07 34.60 18.41 34.60 20.63ZM36.44 20.63C36.44 19.45 37.12 18.65 38.16 18.65C38.87 18.65 39.69 19.41 39.69 20.56L39.69 20.71C39.69 21.84 38.87 22.59 38.16 22.59C37.12 22.59 36.44 21.80 36.44 20.63ZM49.65 20.40C49.65 20.07 49.56 19.66 49.46 19.35C48.98 17.95 47.82 17.07 46.29 17.07C44.24 17.07 42.79 18.65 42.79 20.61C42.79 22.78 44.35 24.17 46.41 24.17C47.44 24.17 48.94 23.78 49.02 22.98C49.07 22.56 48.65 22.26 48.27 22.26C48.16 22.26 48.03 22.29 47.92 22.35C47.50 22.57 46.98 22.75 46.60 22.75C45.45 22.75 44.77 22.07 44.66 21.21L48.83 21.21C49.29 21.21 49.65 20.84 49.65 20.40ZM44.63 20.01C44.71 19.34 45.19 18.48 46.29 18.48C47.47 18.48 47.92 19.37 47.96 20.01ZM53.95 20.60C53.95 20.19 53.62 19.86 53.21 19.86L51.17 19.86C50.76 19.86 50.42 20.19 50.42 20.60C50.42 21.03 50.76 21.37 51.17 21.37L53.21 21.37C53.62 21.37 53.95 21.03 53.95 20.60ZM61.51 19.65C61.51 18.33 60.38 17.07 58.89 17.07C57.86 17.07 57.21 17.62 56.95 18.04L56.95 18.02C56.95 17.55 56.56 17.15 56.08 17.15C55.56 17.15 55.17 17.55 55.17 18.02L55.17 23.20C55.17 23.69 55.56 24.08 56.05 24.08C56.56 24.08 56.95 23.69 56.95 23.20L56.95 20.22C56.95 19.25 57.65 18.65 58.35 18.65C59.10 18.65 59.73 19.25 59.73 20.19L59.73 23.20C59.73 23.69 60.13 24.08 60.62 24.08C61.12 24.08 61.51 23.69 61.51 23.20ZM69.70 20.40C69.70 20.07 69.60 19.66 69.51 19.35C69.03 17.95 67.87 17.07 66.34 17.07C64.28 17.07 62.84 18.65 62.84 20.61C62.84 22.78 64.40 24.17 66.45 24.17C67.49 24.17 68.99 23.78 69.07 22.98C69.11 22.56 68.69 22.26 68.32 22.26C68.20 22.26 68.08 22.29 67.97 22.35C67.55 22.57 67.03 22.75 66.65 22.75C65.50 22.75 64.82 22.07 64.70 21.21L68.88 21.21C69.34 21.21 69.70 20.84 69.70 20.40ZM64.68 20.01C64.76 19.34 65.24 18.48 66.34 18.48C67.52 18.48 67.97 19.37 68.01 20.01ZM76.51 23.27C76.51 23.12 76.46 22.96 76.37 22.82L74.76 20.57L76.37 18.41C76.46 18.27 76.51 18.12 76.51 17.97C76.51 17.56 76.16 17.17 75.68 17.17C75.40 17.17 75.15 17.32 74.98 17.55L73.66 19.32L72.32 17.53C72.15 17.29 71.90 17.17 71.63 17.17C71.14 17.17 70.81 17.57 70.81 17.97C70.81 18.12 70.85 18.27 70.95 18.41L72.54 20.57L70.95 22.82C70.85 22.96 70.81 23.12 70.81 23.27C70.81 23.71 71.19 24.08 71.63 24.08C71.89 24.08 72.12 23.97 72.28 23.75L73.66 21.86L75.02 23.73C75.19 23.96 75.43 24.08 75.69 24.08C76.20 24.08 76.51 23.66 76.51 23.27ZM81.77 23.36C81.77 22.92 81.49 22.59 80.99 22.59L80.83 22.59C80.55 22.59 80.22 22.38 80.22 21.84L80.22 18.79L80.92 18.79C81.32 18.79 81.67 18.44 81.67 18.02C81.67 17.59 81.32 17.24 80.92 17.24L80.22 17.24L80.22 16.19C80.22 15.70 79.82 15.31 79.33 15.31C78.82 15.31 78.42 15.70 78.42 16.19L78.42 17.24L77.99 17.24C77.57 17.24 77.22 17.59 77.22 17.99C77.22 18.44 77.57 18.79 77.99 18.79L78.42 18.79L78.42 22.32C78.42 23.52 79.10 24.17 80.34 24.17C81.50 24.17 81.77 23.80 81.77 23.36ZM85.79 20.60C85.79 20.19 85.45 19.86 85.05 19.86L83.00 19.86C82.60 19.86 82.26 20.19 82.26 20.60C82.26 21.03 82.60 21.37 83.00 21.37L85.05 21.37C85.45 21.37 85.79 21.03 85.79 20.60ZM97.18 19.67C97.18 18.29 96.22 17.07 94.69 17.07C93.52 17.07 92.84 17.76 92.59 18.23C92.34 17.74 91.71 17.07 90.58 17.07C89.54 17.07 89.06 17.45 88.78 17.81L88.78 17.80C88.78 17.60 88.53 17.15 87.92 17.15C87.40 17.15 87.01 17.55 87.01 18.02L87.01 23.20C87.01 23.69 87.40 24.08 87.89 24.08C88.39 24.08 88.78 23.69 88.78 23.20L88.78 20.01C88.78 19.35 89.29 18.65 90.04 18.65C90.77 18.65 91.19 19.38 91.19 20.01L91.19 23.20C91.19 23.69 91.58 24.08 92.07 24.08C92.59 24.08 92.98 23.69 92.98 23.20L92.98 20.14C92.98 19.35 93.47 18.65 94.24 18.65C94.97 18.65 95.39 19.38 95.39 20.01L95.39 23.20C95.39 23.69 95.78 24.08 96.27 24.08C96.79 24.08 97.18 23.69 97.18 23.20ZM105.65 20.61C105.65 18.69 104.31 17.07 102.07 17.07C99.84 17.07 98.50 18.69 98.50 20.61C98.50 22.54 99.84 24.17 102.07 24.17C104.31 24.17 105.65 22.54 105.65 20.61ZM103.81 20.61C103.81 21.68 103.18 22.59 102.07 22.59C100.96 22.59 100.35 21.68 100.35 20.61C100.35 19.56 100.96 18.65 102.07 18.65C103.18 18.65 103.81 19.56 103.81 20.61ZM106.55 20.63C106.55 22.88 107.98 24.17 109.69 24.17C110.50 24.17 111.24 23.80 111.63 23.13L111.63 23.20C111.63 23.69 112.02 24.08 112.53 24.08C113.02 24.08 113.41 23.69 113.41 23.20L113.41 15.45C113.41 14.97 113.02 14.58 112.50 14.58C112.02 14.58 111.63 14.97 111.63 15.45L111.63 18.11C111.24 17.42 110.48 17.07 109.69 17.07C107.96 17.07 106.55 18.41 106.55 20.63ZM108.38 20.63C108.38 19.45 109.07 18.65 110.11 18.65C110.82 18.65 111.63 19.41 111.63 20.56L111.63 20.71C111.63 21.84 110.82 22.59 110.11 22.59C109.07 22.59 108.38 21.80 108.38 20.63ZM121.60 20.40C121.60 20.07 121.50 19.66 121.40 19.35C120.93 17.95 119.77 17.07 118.24 17.07C116.18 17.07 114.74 18.65 114.74 20.61C114.74 22.78 116.29 24.17 118.35 24.17C119.39 24.17 120.89 23.78 120.97 22.98C121.01 22.56 120.59 22.26 120.21 22.26C120.10 22.26 119.98 22.29 119.86 22.35C119.44 22.57 118.93 22.75 118.55 22.75C117.40 22.75 116.71 22.07 116.60 21.21L120.77 21.21C121.24 21.21 121.60 20.84 121.60 20.40ZM116.57 20.01C116.66 19.34 117.13 18.48 118.24 18.48C119.42 18.48 119.86 19.37 119.91 20.01ZM124.69 15.45C124.69 14.97 124.30 14.58 123.83 14.58C123.31 14.58 122.92 14.97 122.92 15.45L122.92 23.20C122.92 23.69 123.31 24.08 123.80 24.08C124.30 24.08 124.69 23.69 124.69 23.20Z" fill="#e6edf3" /><path d="M401.75 21.40C401.75 20.95 401.39 20.58 400.96 20.58L400.56 20.58L400.56 16.29C400.56 15.48 399.78 15.12 398.98 15.25C398.42 15.25 397.87 15.55 397.57 16.02L394.67 20.59C394.55 20.78 394.50 20.98 394.50 21.19C394.50 21.78 394.93 22.21 395.45 22.21L398.71 22.21L398.71 23.17C398.71 23.66 399.13 24.08 399.62 24.08C400.14 24.08 400.56 23.66 400.56 23.17L400.56 22.21L400.96 22.21C401.39 22.21 401.75 21.84 401.75 21.40ZM396.37 20.58L398.71 16.97L398.71 20.58Z" fill="#9aa7b4" /><path transform="translate(377.24, 12)" d="M6 0.5 L7.5 4.2 L11.5 4.5 L8.4 7 L9.4 11 L6 8.8 L2.6 11 L3.6 7 L0.5 4.5 L4.5 4.2 Z" fill="#9aa7b4" /><path d="M24.82 34.46C24.82 32.97 23.77 32.00 22.26 32.00L19.68 32.00C19.25 32.00 18.90 32.34 18.90 32.78L18.90 39.48C18.90 39.81 19.16 40.07 19.49 40.07C19.82 40.07 20.09 39.81 20.09 39.48L20.09 36.92L21.83 36.92L23.63 39.80C23.74 39.98 23.92 40.07 24.11 40.07C24.46 40.07 24.70 39.78 24.70 39.50C24.70 39.40 24.67 39.30 24.61 39.20L23.09 36.83C23.98 36.60 24.82 35.88 24.82 34.46ZM20.09 35.87L20.09 33.05L22.10 33.05C22.98 33.05 23.59 33.62 23.59 34.46C23.59 35.30 22.98 35.87 22.10 35.87ZM30.68 36.08C30.68 34.60 29.60 34.06 28.36 34.06C27.58 34.06 26.70 34.31 26.15 34.86C26.08 34.95 26.04 35.04 26.04 35.14C26.04 35.39 26.27 35.56 26.48 35.56C26.57 35.56 26.66 35.52 26.75 35.46C27.18 35.13 27.66 34.96 28.20 34.96C29.02 34.96 29.62 35.39 29.62 36.12L29.62 36.45L27.95 36.45C26.75 36.45 25.69 36.92 25.69 38.22C25.69 39.50 26.75 40.14 27.71 40.14C28.61 40.14 29.15 39.87 29.62 39.35L29.62 39.54C29.62 39.89 29.89 40.07 30.11 40.07L30.14 40.07C30.44 40.07 30.68 39.83 30.68 39.54ZM29.62 37.19L29.62 38.01C29.62 38.69 28.84 39.39 28.00 39.39C27.22 39.39 26.77 38.92 26.77 38.25C26.77 37.55 27.32 37.19 28.24 37.19ZM32.93 32.06C32.56 32.06 32.24 32.37 32.24 32.75C32.24 33.12 32.56 33.44 32.93 33.44C33.31 33.44 33.61 33.12 33.61 32.75C33.61 32.37 33.31 32.06 32.93 32.06ZM33.47 34.65C33.47 34.37 33.23 34.13 32.95 34.13C32.64 34.13 32.40 34.37 32.40 34.65L32.40 39.54C32.40 39.83 32.64 40.07 32.93 40.07C33.23 40.07 33.47 39.83 33.47 39.54ZM36.26 32.44C36.26 32.16 36.02 31.92 35.75 31.92C35.44 31.92 35.20 32.16 35.20 32.44L35.20 39.54C35.20 39.83 35.44 40.07 35.72 40.07C36.02 40.07 36.26 39.83 36.26 39.54ZM42.24 38.25C42.13 36.21 38.81 36.77 38.69 35.73C38.64 35.26 39.14 34.91 39.88 34.91C40.43 34.91 40.94 35.09 41.32 35.36C41.39 35.42 41.47 35.44 41.57 35.44C41.78 35.44 41.99 35.26 41.99 35.02C41.99 34.92 41.95 34.83 41.88 34.76C41.42 34.31 40.69 34.06 39.86 34.06C38.45 34.06 37.60 34.73 37.66 35.76C37.76 37.71 41.08 37.11 41.20 38.39C41.24 38.92 40.76 39.29 39.94 39.29C39.34 39.29 38.74 39.05 38.30 38.74C38.22 38.68 38.14 38.66 38.03 38.66C37.78 38.66 37.56 38.85 37.56 39.10C37.56 39.22 37.61 39.32 37.69 39.39C38.22 39.92 39.10 40.14 39.89 40.14C41.42 40.14 42.30 39.35 42.24 38.25ZM47.76 32.44C47.76 32.16 47.52 31.92 47.24 31.92C46.93 31.92 46.69 32.16 46.69 32.44L46.69 39.54C46.69 39.83 46.93 40.07 47.22 40.07C47.52 40.07 47.76 39.83 47.76 39.54ZM50.02 32.06C49.64 32.06 49.33 32.37 49.33 32.75C49.33 33.12 49.64 33.44 50.02 33.44C50.40 33.44 50.70 33.12 50.70 32.75C50.70 32.37 50.40 32.06 50.02 32.06ZM50.56 34.65C50.56 34.37 50.32 34.13 50.04 34.13C49.73 34.13 49.49 34.37 49.49 34.65L49.49 39.54C49.49 39.83 49.73 40.07 50.02 40.07C50.32 40.07 50.56 39.83 50.56 39.54ZM57.02 39.54C57.02 39.44 56.99 39.32 56.92 39.23L55.01 36.83L56.81 34.95C56.89 34.85 56.94 34.74 56.94 34.62C56.94 34.36 56.70 34.12 56.44 34.12C56.32 34.12 56.18 34.18 56.09 34.28L53.35 37.16L53.35 32.44C53.35 32.16 53.11 31.92 52.84 31.92C52.52 31.92 52.28 32.16 52.28 32.44L52.28 39.54C52.28 39.83 52.52 40.07 52.81 40.07C53.11 40.07 53.35 39.83 53.35 39.54L53.35 38.39L54.24 37.49L56.08 39.87C56.17 40.01 56.34 40.08 56.50 40.08C56.82 40.08 57.02 39.80 57.02 39.54ZM63.83 36.90C63.83 36.68 63.77 36.42 63.72 36.23C63.38 34.94 62.42 34.06 61.02 34.06C59.34 34.06 58.13 35.42 58.13 37.10C58.13 38.92 59.39 40.14 61.12 40.14C61.97 40.14 63.46 39.70 63.46 39.05C63.46 38.64 63.05 38.55 62.78 38.68C62.36 38.99 61.72 39.28 61.22 39.28C60.05 39.28 59.33 38.48 59.24 37.48L63.28 37.48C63.58 37.48 63.83 37.19 63.83 36.90ZM59.24 36.69C59.29 35.88 59.86 34.92 61.01 34.92C62.24 34.92 62.77 35.91 62.80 36.69ZM76.39 36.29C76.39 35.12 75.59 34.06 74.39 34.06C73.55 34.06 72.97 34.52 72.64 35.16C72.46 34.67 71.82 34.06 70.86 34.06C70.02 34.06 69.59 34.54 69.35 34.90L69.35 34.65C69.35 34.37 69.11 34.13 68.83 34.13C68.52 34.13 68.28 34.37 68.28 34.65L68.28 39.54C68.28 39.83 68.52 40.07 68.81 40.07C69.11 40.07 69.35 39.83 69.35 39.54L69.35 36.70C69.35 35.79 69.78 35.01 70.62 35.01C71.46 35.01 71.80 35.69 71.80 36.62L71.80 39.54C71.80 39.83 72.04 40.07 72.32 40.07C72.62 40.07 72.86 39.83 72.86 39.54L72.86 36.69C72.86 35.79 73.27 35.01 74.11 35.01C74.95 35.01 75.32 35.69 75.32 36.62L75.32 39.54C75.32 39.83 75.56 40.07 75.85 40.07C76.15 40.07 76.39 39.83 76.39 39.54ZM83.62 37.10C83.62 35.43 82.50 34.06 80.69 34.06C78.89 34.06 77.77 35.43 77.77 37.10C77.77 38.76 78.89 40.14 80.69 40.14C82.50 40.14 83.62 38.76 83.62 37.10ZM82.50 37.10C82.50 38.21 81.85 39.20 80.69 39.20C79.54 39.20 78.88 38.21 78.88 37.10C78.88 35.99 79.54 35.01 80.69 35.01C81.85 35.01 82.50 35.99 82.50 37.10ZM90.20 32.44C90.20 32.16 89.96 31.92 89.69 31.92C89.38 31.92 89.14 32.16 89.14 32.44L89.14 35.04C88.67 34.42 88.10 34.06 87.23 34.06C85.72 34.06 84.65 35.25 84.65 37.11C84.65 39.00 85.73 40.14 87.23 40.14C88.13 40.14 88.69 39.75 89.14 39.17L89.14 39.54C89.14 39.83 89.38 40.07 89.66 40.07C89.96 40.07 90.20 39.83 90.20 39.54ZM89.14 37.14C89.14 38.34 88.54 39.20 87.50 39.20C86.42 39.20 85.75 38.32 85.75 37.11C85.75 35.90 86.42 35.01 87.50 35.01C88.54 35.01 89.14 35.88 89.14 37.07ZM97.28 36.90C97.28 36.68 97.22 36.42 97.18 36.23C96.84 34.94 95.88 34.06 94.48 34.06C92.80 34.06 91.58 35.42 91.58 37.10C91.58 38.92 92.84 40.14 94.57 40.14C95.42 40.14 96.91 39.70 96.91 39.05C96.91 38.64 96.50 38.55 96.24 38.68C95.82 38.99 95.17 39.28 94.68 39.28C93.50 39.28 92.78 38.48 92.70 37.48L96.73 37.48C97.03 37.48 97.28 37.19 97.28 36.90ZM92.70 36.69C92.75 35.88 93.31 34.92 94.46 34.92C95.70 34.92 96.23 35.91 96.25 36.69ZM99.72 32.44C99.72 32.16 99.48 31.92 99.20 31.92C98.89 31.92 98.65 32.16 98.65 32.44L98.65 39.54C98.65 39.83 98.89 40.07 99.18 40.07C99.48 40.07 99.72 39.83 99.72 39.54ZM105.70 38.25C105.59 36.21 102.26 36.77 102.14 35.73C102.10 35.26 102.60 34.91 103.33 34.91C103.88 34.91 104.40 35.09 104.77 35.36C104.84 35.42 104.93 35.44 105.02 35.44C105.24 35.44 105.44 35.26 105.44 35.02C105.44 34.92 105.41 34.83 105.34 34.76C104.88 34.31 104.15 34.06 103.32 34.06C101.90 34.06 101.05 34.73 101.11 35.76C101.22 37.71 104.53 37.11 104.65 38.39C104.70 38.92 104.22 39.29 103.39 39.29C102.79 39.29 102.19 39.05 101.76 38.74C101.68 38.68 101.59 38.66 101.48 38.66C101.23 38.66 101.02 38.85 101.02 39.10C101.02 39.22 101.06 39.32 101.15 39.39C101.68 39.92 102.55 40.14 103.34 40.14C104.88 40.14 105.76 39.35 105.70 38.25ZM115.14 34.65C115.14 34.37 114.90 34.13 114.62 34.13C114.31 34.13 114.07 34.37 114.07 34.65L114.07 37.41C114.07 38.39 113.45 39.20 112.58 39.20C111.72 39.20 111.23 38.54 111.23 37.58L111.23 34.65C111.23 34.37 110.99 34.13 110.71 34.13C110.40 34.13 110.16 34.37 110.16 34.65L110.16 37.95C110.16 39.17 111.02 40.14 112.25 40.14C113.26 40.14 113.76 39.70 114.07 39.21L114.07 39.54C114.07 39.83 114.31 40.07 114.60 40.07C114.90 40.07 115.14 39.83 115.14 39.54ZM121.10 38.25C121.00 36.21 117.67 36.77 117.55 35.73C117.50 35.26 118.01 34.91 118.74 34.91C119.29 34.91 119.81 35.09 120.18 35.36C120.25 35.42 120.34 35.44 120.43 35.44C120.65 35.44 120.85 35.26 120.85 35.02C120.85 34.92 120.82 34.83 120.74 34.76C120.29 34.31 119.56 34.06 118.73 34.06C117.31 34.06 116.46 34.73 116.52 35.76C116.63 37.71 119.94 37.11 120.06 38.39C120.11 38.92 119.63 39.29 118.80 39.29C118.20 39.29 117.60 39.05 117.17 38.74C117.08 38.68 117.00 38.66 116.89 38.66C116.64 38.66 116.42 38.85 116.42 39.10C116.42 39.22 116.47 39.32 116.56 39.39C117.08 39.92 117.96 40.14 118.75 40.14C120.29 40.14 121.16 39.35 121.10 38.25ZM123.00 32.06C122.63 32.06 122.32 32.37 122.32 32.75C122.32 33.12 122.63 33.44 123.00 33.44C123.38 33.44 123.68 33.12 123.68 32.75C123.68 32.37 123.38 32.06 123.00 32.06ZM123.54 34.65C123.54 34.37 123.30 34.13 123.02 34.13C122.71 34.13 122.47 34.37 122.47 34.65L122.47 39.54C122.47 39.83 122.71 40.07 123.00 40.07C123.30 40.07 123.54 39.83 123.54 39.54ZM130.25 36.28C130.25 35.06 129.36 34.06 128.14 34.06C127.13 34.06 126.61 34.55 126.34 35.02L126.34 34.65C126.34 34.37 126.10 34.13 125.82 34.13C125.51 34.13 125.27 34.37 125.27 34.65L125.27 39.54C125.27 39.83 125.51 40.07 125.80 40.07C126.10 40.07 126.34 39.83 126.34 39.54L126.34 36.76C126.34 35.78 126.86 35.01 127.79 35.01C128.65 35.01 129.18 35.68 129.18 36.64L129.18 39.54C129.18 39.83 129.42 40.07 129.71 40.07C130.01 40.07 130.25 39.83 130.25 39.54ZM137.17 34.65C137.17 34.37 136.93 34.13 136.66 34.13C136.34 34.13 136.10 34.37 136.10 34.65L136.10 35.04C135.64 34.42 134.96 34.06 134.20 34.06C132.70 34.06 131.63 35.19 131.63 37.06C131.63 38.94 132.71 40.05 134.20 40.05C134.99 40.05 135.67 39.63 136.10 39.04L136.10 39.81C136.10 41.04 135.22 41.48 134.32 41.48C133.68 41.48 133.18 41.34 132.73 40.97C132.65 40.91 132.56 40.89 132.46 40.89C132.22 40.89 132.00 41.09 132.00 41.34C132.00 41.46 132.05 41.57 132.12 41.64C132.68 42.18 133.50 42.35 134.32 42.35C135.73 42.35 137.17 41.76 137.17 39.77ZM136.10 37.07C136.10 38.26 135.32 39.10 134.36 39.10C133.28 39.10 132.73 38.25 132.73 37.06C132.73 35.85 133.28 35.01 134.36 35.01C135.32 35.01 136.10 35.84 136.10 37.02ZM147.44 39.46C147.44 39.18 147.22 38.94 146.93 38.94L143.21 38.94L143.21 36.45L146.84 36.45C147.13 36.45 147.36 36.21 147.36 35.93C147.36 35.62 147.13 35.39 146.84 35.39L143.21 35.39L143.21 33.05L146.93 33.05C147.22 33.05 147.44 32.81 147.44 32.54C147.44 32.22 147.22 32.00 146.93 32.00L142.80 32.00C142.37 32.00 142.02 32.34 142.02 32.78L142.02 39.22C142.02 39.65 142.37 40 142.80 40L146.93 40C147.22 40 147.44 39.77 147.44 39.46ZM154.57 37.73C154.57 34.74 149.87 35.73 149.87 34.07C149.87 33.39 150.48 32.92 151.38 32.92C152.08 32.92 152.77 33.12 153.36 33.56C153.46 33.63 153.58 33.66 153.68 33.66C153.98 33.66 154.25 33.41 154.25 33.11C154.25 32.98 154.20 32.84 154.09 32.74C153.49 32.19 152.47 31.88 151.48 31.88C149.82 31.88 148.64 32.84 148.64 34.16C148.64 37.05 153.35 35.96 153.35 37.85C153.35 38.42 152.89 39.10 151.60 39.10C150.72 39.10 149.98 38.75 149.42 38.28C149.33 38.21 149.20 38.18 149.09 38.18C148.76 38.18 148.54 38.46 148.54 38.76C148.54 38.90 148.58 39.03 148.68 39.14C149.30 39.75 150.37 40.14 151.55 40.14C153.71 40.14 154.57 38.98 154.57 37.73ZM161.69 37.43C161.69 35.73 160.49 34.92 159.05 34.92C157.93 34.92 157.19 35.44 156.84 35.99C156.83 35.90 156.83 35.93 156.83 35.84C156.83 34.35 157.57 32.93 159.01 32.93C159.60 32.93 160.00 33.10 160.33 33.38C160.42 33.44 160.54 33.47 160.64 33.47C160.92 33.47 161.17 33.24 161.17 32.94C161.17 32.84 161.14 32.73 161.06 32.64C160.60 32.12 159.86 31.88 159.01 31.88C156.73 31.88 155.63 33.77 155.63 36.02C155.63 38.21 156.53 40.14 158.82 40.14C160.58 40.14 161.69 38.87 161.69 37.43ZM160.49 37.54C160.49 38.25 159.91 39.09 158.88 39.09C157.75 39.09 157.15 38.32 157.15 37.53C157.15 36.77 157.74 35.94 158.77 35.94C159.91 35.94 160.49 36.69 160.49 37.54ZM164.39 39.38C164.39 38.98 164.05 38.63 163.64 38.63C163.25 38.63 162.91 38.98 162.91 39.38C162.91 39.78 163.25 40.12 163.64 40.12C164.05 40.12 164.39 39.78 164.39 39.38Z" fill="#9aa7b4" /><rect x="18" y="50" width="384" height="6" rx="3" fill="#21262d" /><rect x="18" y="50" width="8.63" height="6" rx="3" fill="#3178c6" /></svg>