<svg xmlns="http://www.w3.org/2000/svg" width="420" height="64" viewBox="0 0 420 64" role="img"><rect x="0.5" y="0.5" width="419" height="63" rx="10" fill="#161b22" stroke="#30363d" /><path d="M18.88 21.59C18.88 22.91 20.02 24.17 21.50 24.17C22.56 24.17 23.21 23.62 23.45 23.20L23.45 23.22C23.45 23.69 23.84 24.08 24.31 24.08C24.83 24.08 25.22 23.69 25.22 23.22L25.22 18.04C25.22 17.55 24.83 17.15 24.34 17.15C23.84 17.15 23.45 17.55 23.45 18.04L23.45 21.02C23.45 21.98 22.75 22.59 22.05 22.59C21.29 22.59 20.66 21.98 20.66 21.05L20.66 18.04C20.66 17.55 20.27 17.15 19.78 17.15C19.27 17.15 18.88 17.55 18.88 18.04ZM27.87 14.40C27.30 14.40 26.81 14.86 26.81 15.45C26.81 16.03 27.30 16.51 27.87 16.51C28.46 16.51 28.93 16.03 28.93 15.45C28.93 14.86 28.46 14.40 27.87 14.40ZM28.77 18.02C28.77 17.55 28.37 17.15 27.90 17.15C27.38 17.15 26.99 17.55 26.99 18.02L26.99 23.20C26.99 23.69 27.38 24.08 27.87 24.08C28.37 24.08 28.77 23.69 28.77 23.20ZM33.51 20.60C33.51 20.19 33.18 19.86 32.77 19.86L30.73 19.86C30.32 19.86 29.98 20.19 29.98 20.60C29.98 21.03 30.32 21.37 30.73 21.37L32.77 21.37C33.18 21.37 33.51 21.03 33.51 20.60ZM40.09 22.00C40.09 19.27 36.09 20.11 36.09 19.10C36.09 18.72 36.51 18.43 37.15 18.43C37.70 18.43 38.24 18.58 38.68 18.83C38.78 18.89 38.90 18.92 39.01 18.92C39.38 18.92 39.71 18.62 39.71 18.25C39.71 18.12 39.67 17.99 39.60 17.90C39.22 17.35 38.02 17.07 37.14 17.07C35.36 17.07 34.37 18.06 34.37 19.20C34.37 21.86 38.38 20.95 38.38 22.07C38.38 22.49 38.02 22.80 37.25 22.80C36.66 22.80 35.96 22.56 35.43 22.25C35.32 22.18 35.19 22.15 35.07 22.15C34.69 22.15 34.32 22.47 34.32 22.89C34.32 23.03 34.37 23.16 34.45 23.27C34.87 23.87 36.28 24.17 37.17 24.17C39.04 24.17 40.09 23.23 40.09 22.00ZM47.75 19.65C47.75 18.33 46.62 17.07 45.13 17.07C44.10 17.07 43.45 17.62 43.19 18.04L43.19 18.02C43.19 17.55 42.79 17.15 42.32 17.15C41.80 17.15 41.41 17.55 41.41 18.02L41.41 23.20C41.41 23.69 41.80 24.08 42.29 24.08C42.79 24.08 43.19 23.69 43.19 23.20L43.19 20.22C43.19 19.25 43.89 18.65 44.59 18.65C45.34 18.65 45.97 19.25 45.97 20.19L45.97 23.20C45.97 23.69 46.36 24.08 46.85 24.08C47.36 24.08 47.75 23.69 47.75 23.20ZM50.40 14.40C49.82 14.40 49.33 14.86 49.33 15.45C49.33 16.03 49.82 16.51 50.40 16.51C50.98 16.51 51.46 16.03 51.46 15.45C51.46 14.86 50.98 14.40 50.40 14.40ZM51.29 18.02C51.29 17.55 50.90 17.15 50.42 17.15C49.91 17.15 49.51 17.55 49.51 18.02L49.51 23.20C49.51 23.69 49.91 24.08 50.40 24.08C50.90 24.08 51.29 23.69 51.29 23.20ZM59.92 20.61C59.92 18.36 58.49 17.07 56.78 17.07C55.97 17.07 55.23 17.43 54.83 18.11L54.83 18.04C54.83 17.55 54.44 17.15 53.94 17.15C53.45 17.15 53.06 17.55 53.06 18.04L53.06 25.79C53.06 26.27 53.43 26.66 53.95 26.66C54.43 26.66 54.83 26.27 54.83 25.79L54.83 23.13C55.23 23.82 55.98 24.17 56.78 24.17C58.50 24.17 59.92 22.82 59.92 20.61ZM58.08 20.61C58.08 21.79 57.40 22.59 56.36 22.59C55.65 22.59 54.83 21.83 54.83 20.68L54.83 20.53C54.83 19.39 55.65 18.65 56.36 18.65C57.40 18.65 58.08 19.44 58.08 20.61ZM68.08 20.61C68.08 18.36 66.65 17.07 64.94 17.07C64.13 17.07 63.39 17.43 63.00 18.11L63.00 18.04C63.00 17.55 62.60 17.15 62.10 17.15C61.61 17.15 61.22 17.55 61.22 18.04L61.22 25.79C61.22 26.27 61.60 26.66 62.11 26.66C62.59 26.66 63.00 26.27 63.00 25.79L63.00 23.13C63.39 23.82 64.14 24.17 64.94 24.17C66.66 24.17 68.08 22.82 68.08 20.61ZM66.24 20.61C66.24 21.79 65.56 22.59 64.52 22.59C63.81 22.59 63.00 21.83 63.00 20.68L63.00 20.53C63.00 19.39 63.81 18.65 64.52 18.65C65.56 18.65 66.24 19.44 66.24 20.61ZM75.81 20.40C75.81 20.07 75.71 19.66 75.61 19.35C75.13 17.95 73.97 17.07 72.45 17.07C70.39 17.07 68.95 18.65 68.95 20.61C68.95 22.78 70.50 24.17 72.56 24.17C73.59 24.17 75.09 23.78 75.18 22.98C75.22 22.56 74.80 22.26 74.42 22.26C74.31 22.26 74.18 22.29 74.07 22.35C73.65 22.57 73.13 22.75 72.75 22.75C71.61 22.75 70.92 22.07 70.81 21.21L74.98 21.21C75.44 21.21 75.81 20.84 75.81 20.40ZM70.78 20.01C70.86 19.34 71.34 18.48 72.45 18.48C73.62 18.48 74.07 19.37 74.11 20.01ZM80.82 23.36C80.82 22.92 80.54 22.59 80.03 22.59L79.88 22.59C79.60 22.59 79.26 22.38 79.26 21.84L79.26 18.79L79.96 18.79C80.37 18.79 80.72 18.44 80.72 18.02C80.72 17.59 80.37 17.24 79.96 17.24L79.26 17.24L79.26 16.19C79.26 15.70 78.87 15.31 78.38 15.31C77.86 15.31 77.47 15.70 77.47 16.19L77.47 17.24L77.04 17.24C76.62 17.24 76.27 17.59 76.27 17.99C76.27 18.44 76.62 18.79 77.04 18.79L77.47 18.79L77.47 22.32C77.47 23.52 78.14 24.17 79.39 24.17C80.55 24.17 80.82 23.80 80.82 23.36ZM87.22 22.00C87.22 19.27 83.21 20.11 83.21 19.10C83.21 18.72 83.63 18.43 84.28 18.43C84.82 18.43 85.37 18.58 85.80 18.83C85.90 18.89 86.03 18.92 86.14 18.92C86.50 18.92 86.84 18.62 86.84 18.25C86.84 18.12 86.80 17.99 86.73 17.90C86.35 17.35 85.14 17.07 84.26 17.07C82.48 17.07 81.49 18.06 81.49 19.20C81.49 21.86 85.51 20.95 85.51 22.07C85.51 22.49 85.14 22.80 84.37 22.80C83.79 22.80 83.09 22.56 82.55 22.25C82.44 22.18 82.32 22.15 82.19 22.15C81.81 22.15 81.45 22.47 81.45 22.89C81.45 23.03 81.49 23.16 81.57 23.27C81.99 23.87 83.41 24.17 84.29 24.17C86.17 24.17 87.22 23.23 87.22 22.00ZM91.51 20.60C91.51 20.19 91.18 19.86 90.77 19.86L88.73 19.86C88.32 19.86 87.99 20.19 87.99 20.60C87.99 21.03 88.32 21.37 88.73 21.37L90.77 21.37C91.18 21.37 91.51 21.03 91.51 20.60ZM98.30 22.92C98.30 22.46 97.88 22.15 97.45 22.15C97.28 22.15 97.13 22.19 96.97 22.29C96.67 22.49 96.33 22.59 95.97 22.59C94.89 22.59 94.13 21.79 94.13 20.61C94.13 19.44 94.89 18.65 95.97 18.65C96.32 18.65 96.67 18.75 96.96 18.93C97.11 19.03 97.28 19.07 97.45 19.07C97.84 19.07 98.29 18.79 98.29 18.32C98.29 18.20 98.26 18.09 98.21 17.99C97.91 17.45 96.93 17.07 95.88 17.07C93.80 17.07 92.30 18.54 92.30 20.61C92.30 22.70 93.80 24.17 95.88 24.17C96.83 24.17 97.53 23.89 98.02 23.50C98.21 23.36 98.30 23.13 98.30 22.92ZM106.07 19.90C106.07 18.44 104.94 17.07 103.46 17.07C102.35 17.07 101.79 17.60 101.50 17.98L101.50 15.45C101.50 14.97 101.10 14.58 100.63 14.58C100.11 14.58 99.72 14.97 99.72 15.45L99.72 23.20C99.72 23.69 100.11 24.08 100.60 24.08C101.10 24.08 101.50 23.69 101.50 23.20L101.50 20.15C101.50 19.32 102.07 18.65 102.90 18.65C103.67 18.65 104.30 19.23 104.30 20.16L104.30 23.20C104.30 23.69 104.69 24.08 105.18 24.08C105.68 24.08 106.07 23.69 106.07 23.20ZM114.26 20.40C114.26 20.07 114.17 19.66 114.07 19.35C113.59 17.95 112.43 17.07 110.90 17.07C108.85 17.07 107.40 18.65 107.40 20.61C107.40 22.78 108.96 24.17 111.02 24.17C112.05 24.17 113.55 23.78 113.63 22.98C113.68 22.56 113.26 22.26 112.88 22.26C112.77 22.26 112.64 22.29 112.53 22.35C112.11 22.57 111.59 22.75 111.21 22.75C110.06 22.75 109.38 22.07 109.27 21.21L113.44 21.21C113.90 21.21 114.26 20.84 114.26 20.40ZM109.24 20.01C109.32 19.34 109.80 18.48 110.90 18.48C112.08 18.48 112.53 19.37 112.57 20.01ZM121.15 22.92C121.15 22.46 120.73 22.15 120.30 22.15C120.13 22.15 119.98 22.19 119.82 22.29C119.51 22.49 119.18 22.59 118.81 22.59C117.74 22.59 116.98 21.79 116.98 20.61C116.98 19.44 117.74 18.65 118.81 18.65C119.16 18.65 119.51 18.75 119.81 18.93C119.96 19.03 120.13 19.07 120.30 19.07C120.69 19.07 121.14 18.79 121.14 18.32C121.14 18.20 121.11 18.09 121.05 17.99C120.76 17.45 119.78 17.07 118.73 17.07C116.64 17.07 115.15 18.54 115.15 20.61C115.15 22.70 116.64 24.17 118.73 24.17C119.68 24.17 120.38 23.89 120.87 23.50C121.05 23.36 121.15 23.13 121.15 22.92ZM128.36 23.19C128.36 23.02 128.31 22.84 128.19 22.68L126.42 20.30L127.98 18.51C128.11 18.36 128.18 18.18 128.18 17.98C128.18 17.53 127.79 17.14 127.34 17.14C127.12 17.14 126.89 17.24 126.74 17.42L124.34 20.25L124.34 15.45C124.34 14.97 123.95 14.58 123.48 14.58C122.96 14.58 122.57 14.97 122.57 15.45L122.57 23.20C122.57 23.69 122.96 24.08 123.45 24.08C123.95 24.08 124.34 23.69 124.34 23.20L124.34 22.26L125.16 21.40L126.74 23.71C126.91 23.96 127.20 24.08 127.48 24.08C128.00 24.08 128.36 23.62 128.36 23.19ZM136.92 20.63C136.92 18.41 135.50 17.07 133.78 17.07C132.98 17.07 132.23 17.42 131.83 18.11L131.83 15.45C131.83 14.97 131.44 14.58 130.97 14.58C130.45 14.58 130.06 14.97 130.06 15.45L130.06 23.20C130.06 23.69 130.45 24.08 130.94 24.08C131.44 24.08 131.83 23.69 131.83 23.20L131.83 23.13C132.23 23.80 132.97 24.17 133.78 24.17C135.49 24.17 136.92 22.88 136.92 20.63ZM135.08 20.63C135.08 21.80 134.40 22.59 133.36 22.59C132.65 22.59 131.83 21.84 131.83 20.71L131.83 20.56C131.83 19.41 132.65 18.65 133.36 18.65C134.40 18.65 135.08 19.45 135.08 20.63ZM144.98 20.61C144.98 18.69 143.64 17.07 141.40 17.07C139.17 17.07 137.83 18.69 137.83 20.61C137.83 22.54 139.17 24.17 141.40 24.17C143.64 24.17 144.98 22.54 144.98 20.61ZM143.13 20.61C143.13 21.68 142.50 22.59 141.40 22.59C140.29 22.59 139.67 21.68 139.67 20.61C139.67 19.56 140.29 18.65 141.40 18.65C142.50 18.65 143.13 19.56 143.13 20.61ZM151.31 23.27C151.31 23.12 151.27 22.96 151.17 22.82L149.56 20.57L151.17 18.41C151.27 18.27 151.31 18.12 151.31 17.97C151.31 17.56 150.96 17.17 150.48 17.17C150.20 17.17 149.95 17.32 149.78 17.55L148.47 19.32L147.12 17.53C146.95 17.29 146.70 17.17 146.44 17.17C145.95 17.17 145.61 17.57 145.61 17.97C145.61 18.12 145.65 18.27 145.75 18.41L147.35 20.57L145.75 22.82C145.65 22.96 145.61 23.12 145.61 23.27C145.61 23.71 145.99 24.08 146.44 24.08C146.69 24.08 146.93 23.97 147.08 23.75L148.47 21.86L149.82 23.73C149.99 23.96 150.23 24.08 150.50 24.08C151.00 24.08 151.31 23.66 151.31 23.27ZM158.83 20.40C158.83 20.07 158.73 19.66 158.63 19.35C158.15 17.95 156.99 17.07 155.47 17.07C153.41 17.07 151.97 18.65 151.97 20.61C151.97 22.78 153.52 24.17 155.58 24.17C156.61 24.17 158.11 23.78 158.20 22.98C158.24 22.56 157.82 22.26 157.44 22.26C157.33 22.26 157.20 22.29 157.09 22.35C156.67 22.57 156.15 22.75 155.77 22.75C154.63 22.75 153.94 22.07 153.83 21.21L158.00 21.21C158.46 21.21 158.83 20.84 158.83 20.40ZM153.80 20.01C153.88 19.34 154.36 18.48 155.47 18.48C156.64 18.48 157.09 19.37 157.13 20.01ZM165.50 22.00C165.50 19.27 161.50 20.11 161.50 19.10C161.50 18.72 161.92 18.43 162.56 18.43C163.11 18.43 163.66 18.58 164.09 18.83C164.19 18.89 164.31 18.92 164.43 18.92C164.79 18.92 165.13 18.62 165.13 18.25C165.13 18.12 165.08 17.99 165.01 17.90C164.64 17.35 163.43 17.07 162.55 17.07C160.77 17.07 159.78 18.06 159.78 19.20C159.78 21.86 163.80 20.95 163.80 22.07C163.80 22.49 163.43 22.80 162.66 22.80C162.07 22.80 161.37 22.56 160.84 22.25C160.73 22.18 160.60 22.15 160.48 22.15C160.10 22.15 159.74 22.47 159.74 22.89C159.74 23.03 159.78 23.16 159.86 23.27C160.28 23.87 161.70 24.17 162.58 24.17C164.45 24.17 165.50 23.23 165.50 22.00Z" fill="#e6edf3" /><path d="M393.51 16.32C393.51 15.73 393.02 15.26 392.43 15.26C392.13 15.26 391.85 15.38 391.65 15.58L389.65 17.60C389.49 17.76 389.42 17.95 389.42 18.15C389.42 18.58 389.78 18.92 390.18 18.92C390.37 18.92 390.55 18.85 390.69 18.71L391.67 17.71L391.67 23.17C391.67 23.66 392.08 24.08 392.57 24.08C393.10 24.08 393.51 23.66 393.51 23.17ZM401.43 21.63C401.53 20.07 400.48 19.53 400.48 19.53C400.48 19.53 401.44 19.03 401.34 17.55C401.23 16.11 400.09 15.20 398.06 15.20C396.87 15.20 395.93 15.55 395.21 16.12C395.03 16.27 394.94 16.47 394.94 16.68C394.94 17.14 395.34 17.46 395.75 17.46C395.90 17.46 396.06 17.42 396.19 17.33C396.70 17.01 397.27 16.84 397.87 16.84C398.78 16.84 399.48 17.04 399.48 17.73C399.48 18.45 399.05 18.79 398.18 18.79C397.55 18.79 397.28 19.14 397.28 19.59C397.28 20.05 397.55 20.41 398.23 20.41C399.11 20.41 399.62 20.72 399.62 21.41C399.62 22.06 399.04 22.52 397.98 22.52C397.39 22.52 396.70 22.31 396.12 21.97C395.98 21.88 395.83 21.84 395.67 21.84C395.24 21.84 394.82 22.19 394.82 22.66C394.82 22.79 394.86 22.91 394.93 23.01C395.33 23.69 396.80 24.16 398.05 24.16C400.13 24.16 401.32 23.26 401.43 21.63Z" fill="#9aa7b4" /><path transform="translate(372.03, 12)" d="M6 0.5 L7.5 4.2 L11.5 4.5 L8.4 7 L9.4 11 L6 8.8 L2.6 11 L3.6 7 L0.5 4.5 L4.5 4.2 Z" fill="#9aa7b4" /><path d="" fill="#9aa7b4" /><rect x="18" y="50" width="384" height="6" rx="3" fill="#21262d" /><rect x="18" y="50" width="28.20" height="6" rx="3" fill="#e34c26" /></svg>