<svg xmlns="http://www.w3.org/2000/svg" width="420" height="64" viewBox="0 0 420 64" role="img"><rect x="0.5" y="0.5" width="419" height="63" rx="10" fill="#161b22" stroke="#30363d" /><path d="M18.88 21.59C18.88 22.91 20.02 24.17 21.50 24.17C22.56 24.17 23.21 23.62 23.45 23.20L23.45 23.22C23.45 23.69 23.84 24.08 24.31 24.08C24.83 24.08 25.22 23.69 25.22 23.22L25.22 18.04C25.22 17.55 24.83 17.15 24.34 17.15C23.84 17.15 23.45 17.55 23.45 18.04L23.45 21.02C23.45 21.98 22.75 22.59 22.05 22.59C21.29 22.59 20.66 21.98 20.66 21.05L20.66 18.04C20.66 17.55 20.27 17.15 19.78 17.15C19.27 17.15 18.88 17.55 18.88 18.04ZM27.87 14.40C27.30 14.40 26.81 14.86 26.81 15.45C26.81 16.03 27.30 16.51 27.87 16.51C28.46 16.51 28.93 16.03 28.93 15.45C28.93 14.86 28.46 14.40 27.87 14.40ZM28.77 18.02C28.77 17.55 28.37 17.15 27.90 17.15C27.38 17.15 26.99 17.55 26.99 18.02L26.99 23.20C26.99 23.69 27.38 24.08 27.87 24.08C28.37 24.08 28.77 23.69 28.77 23.20ZM33.51 20.60C33.51 20.19 33.18 19.86 32.77 19.86L30.73 19.86C30.32 19.86 29.98 20.19 29.98 20.60C29.98 21.03 30.32 21.37 30.73 21.37L32.77 21.37C33.18 21.37 33.51 21.03 33.51 20.60ZM40.09 22.00C40.09 19.27 36.09 20.11 36.09 19.10C36.09 18.72 36.51 18.43 37.15 18.43C37.70 18.43 38.24 18.58 38.68 18.83C38.78 18.89 38.90 18.92 39.01 18.92C39.38 18.92 39.71 18.62 39.71 18.25C39.71 18.12 39.67 17.99 39.60 17.90C39.22 17.35 38.02 17.07 37.14 17.07C35.36 17.07 34.37 18.06 34.37 19.20C34.37 21.86 38.38 20.95 38.38 22.07C38.38 22.49 38.02 22.80 37.25 22.80C36.66 22.80 35.96 22.56 35.43 22.25C35.32 22.18 35.19 22.15 35.07 22.15C34.69 22.15 34.32 22.47 34.32 22.89C34.32 23.03 34.37 23.16 34.45 23.27C34.87 23.87 36.28 24.17 37.17 24.17C39.04 24.17 40.09 23.23 40.09 22.00ZM47.75 19.65C47.75 18.33 46.62 17.07 45.13 17.07C44.10 17.07 43.45 17.62 43.19 18.04L43.19 18.02C43.19 17.55 42.79 17.15 42.32 17.15C41.80 17.15 41.41 17.55 41.41 18.02L41.41 23.20C41.41 23.69 41.80 24.08 42.29 24.08C42.79 24.08 43.19 23.69 43.19 23.20L43.19 20.22C43.19 19.25 43.89 18.65 44.59 18.65C45.34 18.65 45.97 19.25 45.97 20.19L45.97 23.20C45.97 23.69 46.36 24.08 46.85 24.08C47.36 24.08 47.75 23.69 47.75 23.20ZM50.40 14.40C49.82 14.40 49.33 14.86 49.33 15.45C49.33 16.03 49.82 16.51 50.40 16.51C50.98 16.51 51.46 16.03 51.46 15.45C51.46 14.86 50.98 14.40 50.40 14.40ZM51.29 18.02C51.29 17.55 50.90 17.15 50.42 17.15C49.91 17.15 49.51 17.55 49.51 18.02L49.51 23.20C49.51 23.69 49.91 24.08 50.40 24.08C50.90 24.08 51.29 23.69 51.29 23.20ZM59.92 20.61C59.92 18.36 58.49 17.07 56.78 17.07C55.97 17.07 55.23 17.43 54.83 18.11L54.83 18.04C54.83 17.55 54.44 17.15 53.94 17.15C53.45 17.15 53.06 17.55 53.06 18.04L53.06 25.79C53.06 26.27 53.43 26.66 53.95 26.66C54.43 26.66 54.83 26.27 54.83 25.79L54.83 23.13C55.23 23.82 55.98 24.17 56.78 24.17C58.50 24.17 59.92 22.82 59.92 20.61ZM58.08 20.61C58.08 21.79 57.40 22.59 56.36 22.59C55.65 22.59 54.83 21.83 54.83 20.68L54.83 20.53C54.83 19.39 55.65 18.65 56.36 18.65C57.40 18.65 58.08 19.44 58.08 20.61ZM68.08 20.61C68.08 18.36 66.65 17.07 64.94 17.07C64.13 17.07 63.39 17.43 63.00 18.11L63.00 18.04C63.00 17.55 62.60 17.15 62.10 17.15C61.61 17.15 61.22 17.55 61.22 18.04L61.22 25.79C61.22 26.27 61.60 26.66 62.11 26.66C62.59 26.66 63.00 26.27 63.00 25.79L63.00 23.13C63.39 23.82 64.14 24.17 64.94 24.17C66.66 24.17 68.08 22.82 68.08 20.61ZM66.24 20.61C66.24 21.79 65.56 22.59 64.52 22.59C63.81 22.59 63.00 21.83 63.00 20.68L63.00 20.53C63.00 19.39 63.81 18.65 64.52 18.65C65.56 18.65 66.24 19.44 66.24 20.61ZM75.81 20.40C75.81 20.07 75.71 19.66 75.61 19.35C75.13 17.95 73.97 17.07 72.45 17.07C70.39 17.07 68.95 18.65 68.95 20.61C68.95 22.78 70.50 24.17 72.56 24.17C73.59 24.17 75.09 23.78 75.18 22.98C75.22 22.56 74.80 22.26 74.42 22.26C74.31 22.26 74.18 22.29 74.07 22.35C73.65 22.57 73.13 22.75 72.75 22.75C71.61 22.75 70.92 22.07 70.81 21.21L74.98 21.21C75.44 21.21 75.81 20.84 75.81 20.40ZM70.78 20.01C70.86 19.34 71.34 18.48 72.45 18.48C73.62 18.48 74.07 19.37 74.11 20.01ZM80.82 23.36C80.82 22.92 80.54 22.59 80.03 22.59L79.88 22.59C79.60 22.59 79.26 22.38 79.26 21.84L79.26 18.79L79.96 18.79C80.37 18.79 80.72 18.44 80.72 18.02C80.72 17.59 80.37 17.24 79.96 17.24L79.26 17.24L79.26 16.19C79.26 15.70 78.87 15.31 78.38 15.31C77.86 15.31 77.47 15.70 77.47 16.19L77.47 17.24L77.04 17.24C76.62 17.24 76.27 17.59 76.27 17.99C76.27 18.44 76.62 18.79 77.04 18.79L77.47 18.79L77.47 22.32C77.47 23.52 78.14 24.17 79.39 24.17C80.55 24.17 80.82 23.80 80.82 23.36ZM87.22 22.00C87.22 19.27 83.21 20.11 83.21 19.10C83.21 18.72 83.63 18.43 84.28 18.43C84.82 18.43 85.37 18.58 85.80 18.83C85.90 18.89 86.03 18.92 86.14 18.92C86.50 18.92 86.84 18.62 86.84 18.25C86.84 18.12 86.80 17.99 86.73 17.90C86.35 17.35 85.14 17.07 84.26 17.07C82.48 17.07 81.49 18.06 81.49 19.20C81.49 21.86 85.51 20.95 85.51 22.07C85.51 22.49 85.14 22.80 84.37 22.80C83.79 22.80 83.09 22.56 82.55 22.25C82.44 22.18 82.32 22.15 82.19 22.15C81.81 22.15 81.45 22.47 81.45 22.89C81.45 23.03 81.49 23.16 81.57 23.27C81.99 23.87 83.41 24.17 84.29 24.17C86.17 24.17 87.22 23.23 87.22 22.00Z" fill="#e6edf3" /><path d="M378.30 14.72C378.30 14.46 378.07 14.22 377.81 14.22L374.23 14.22C373.97 14.22 373.74 14.46 373.74 14.72L373.74 24.68C373.74 24.94 373.97 25.17 374.23 25.17L377.81 25.17C378.07 25.17 378.30 24.94 378.30 24.68ZM374.14 14.61L377.88 14.61L377.88 24.78L374.14 24.78ZM386.97 16.32C386.97 15.73 386.48 15.26 385.89 15.26C385.59 15.26 385.31 15.38 385.11 15.58L383.11 17.60C382.95 17.76 382.88 17.95 382.88 18.15C382.88 18.58 383.24 18.92 383.64 18.92C383.83 18.92 384.01 18.85 384.15 18.71L385.13 17.71L385.13 23.17C385.13 23.66 385.54 24.08 386.04 24.08C386.56 24.08 386.97 23.66 386.97 23.17ZM394.73 16.27C394.73 15.72 394.29 15.33 393.84 15.33L388.87 15.33C388.43 15.33 388.06 15.69 388.06 16.12C388.06 16.59 388.43 16.95 388.87 16.95L392.51 16.95L389.92 22.82C389.87 22.93 389.84 23.05 389.84 23.17C389.84 23.64 390.22 24.08 390.77 24.08C391.14 24.08 391.50 23.86 391.64 23.52L394.65 16.63C394.71 16.52 394.73 16.39 394.73 16.27ZM401.82 16.27C401.82 15.72 401.38 15.33 400.92 15.33L395.95 15.33C395.51 15.33 395.15 15.69 395.15 16.12C395.15 16.59 395.51 16.95 395.95 16.95L399.59 16.95L397.01 22.82C396.96 22.93 396.93 23.05 396.93 23.17C396.93 23.64 397.31 24.08 397.85 24.08C398.23 24.08 398.58 23.86 398.72 23.52L401.74 16.63C401.79 16.52 401.82 16.39 401.82 16.27Z" fill="#9aa7b4" /><path d="M26.96 32.80C26.96 32.27 26.47 31.92 25.93 31.95C25.55 31.95 25.19 32.18 25.04 32.54L22.92 37.70L20.81 32.54C20.64 32.12 20.21 31.92 19.76 31.95C19.28 31.95 18.90 32.34 18.90 32.80L18.90 39.48C18.90 39.81 19.16 40.07 19.49 40.07C19.82 40.07 20.09 39.81 20.09 39.48L20.09 33.68L22.38 39.28C22.62 39.88 23.22 39.86 23.46 39.28L25.76 33.68L25.76 39.48C25.76 39.81 26.03 40.07 26.36 40.07C26.70 40.07 26.96 39.81 26.96 39.48ZM34.07 36.90C34.07 36.68 34.01 36.42 33.96 36.23C33.62 34.94 32.66 34.06 31.26 34.06C29.58 34.06 28.37 35.42 28.37 37.10C28.37 38.92 29.63 40.14 31.36 40.14C32.21 40.14 33.70 39.70 33.70 39.05C33.70 38.64 33.29 38.55 33.02 38.68C32.60 38.99 31.96 39.28 31.46 39.28C30.29 39.28 29.57 38.48 29.48 37.48L33.52 37.48C33.82 37.48 34.07 37.19 34.07 36.90ZM29.48 36.69C29.53 35.88 30.10 34.92 31.25 34.92C32.48 34.92 33.01 35.91 33.04 36.69ZM40.42 36.28C40.42 35.06 39.53 34.06 38.30 34.06C37.30 34.06 36.78 34.55 36.50 35.02L36.50 34.65C36.50 34.37 36.26 34.13 35.99 34.13C35.68 34.13 35.44 34.37 35.44 34.65L35.44 39.54C35.44 39.83 35.68 40.07 35.96 40.07C36.26 40.07 36.50 39.83 36.50 39.54L36.50 36.76C36.50 35.78 37.03 35.01 37.96 35.01C38.82 35.01 39.35 35.68 39.35 36.64L39.35 39.54C39.35 39.83 39.59 40.07 39.88 40.07C40.18 40.07 40.42 39.83 40.42 39.54ZM47.14 34.65C47.14 34.37 46.90 34.13 46.62 34.13C46.31 34.13 46.07 34.37 46.07 34.65L46.07 37.41C46.07 38.39 45.44 39.20 44.58 39.20C43.72 39.20 43.22 38.54 43.22 37.58L43.22 34.65C43.22 34.37 42.98 34.13 42.71 34.13C42.40 34.13 42.16 34.37 42.16 34.65L42.16 37.95C42.16 39.17 43.02 40.14 44.24 40.14C45.25 40.14 45.76 39.70 46.07 39.21L46.07 39.54C46.07 39.83 46.31 40.07 46.60 40.07C46.90 40.07 47.14 39.83 47.14 39.54ZM56.59 36.08C56.59 34.60 55.51 34.06 54.26 34.06C53.48 34.06 52.61 34.31 52.06 34.86C51.98 34.95 51.95 35.04 51.95 35.14C51.95 35.39 52.18 35.56 52.39 35.56C52.48 35.56 52.57 35.52 52.66 35.46C53.09 35.13 53.57 34.96 54.11 34.96C54.92 34.96 55.52 35.39 55.52 36.12L55.52 36.45L53.86 36.45C52.66 36.45 51.60 36.92 51.60 38.22C51.60 39.50 52.66 40.14 53.62 40.14C54.52 40.14 55.06 39.87 55.52 39.35L55.52 39.54C55.52 39.89 55.80 40.07 56.02 40.07L56.05 40.07C56.35 40.07 56.59 39.83 56.59 39.54ZM55.52 37.19L55.52 38.01C55.52 38.69 54.74 39.39 53.90 39.39C53.12 39.39 52.68 38.92 52.68 38.25C52.68 37.55 53.23 37.19 54.14 37.19ZM63.29 36.28C63.29 35.06 62.40 34.06 61.18 34.06C60.17 34.06 59.65 34.55 59.38 35.02L59.38 34.65C59.38 34.37 59.14 34.13 58.86 34.13C58.55 34.13 58.31 34.37 58.31 34.65L58.31 39.54C58.31 39.83 58.55 40.07 58.84 40.07C59.14 40.07 59.38 39.83 59.38 39.54L59.38 36.76C59.38 35.78 59.90 35.01 60.83 35.01C61.69 35.01 62.22 35.68 62.22 36.64L62.22 39.54C62.22 39.83 62.46 40.07 62.75 40.07C63.05 40.07 63.29 39.83 63.29 39.54ZM65.54 32.06C65.17 32.06 64.86 32.37 64.86 32.75C64.86 33.12 65.17 33.44 65.54 33.44C65.93 33.44 66.23 33.12 66.23 32.75C66.23 32.37 65.93 32.06 65.54 32.06ZM66.08 34.65C66.08 34.37 65.84 34.13 65.57 34.13C65.26 34.13 65.02 34.37 65.02 34.65L65.02 39.54C65.02 39.83 65.26 40.07 65.54 40.07C65.84 40.07 66.08 39.83 66.08 39.54ZM75.92 36.29C75.92 35.12 75.12 34.06 73.92 34.06C73.08 34.06 72.50 34.52 72.17 35.16C71.99 34.67 71.35 34.06 70.39 34.06C69.55 34.06 69.12 34.54 68.88 34.90L68.88 34.65C68.88 34.37 68.64 34.13 68.36 34.13C68.05 34.13 67.81 34.37 67.81 34.65L67.81 39.54C67.81 39.83 68.05 40.07 68.34 40.07C68.64 40.07 68.88 39.83 68.88 39.54L68.88 36.70C68.88 35.79 69.31 35.01 70.15 35.01C70.99 35.01 71.33 35.69 71.33 36.62L71.33 39.54C71.33 39.83 71.57 40.07 71.86 40.07C72.16 40.07 72.40 39.83 72.40 39.54L72.40 36.69C72.40 35.79 72.80 35.01 73.64 35.01C74.48 35.01 74.86 35.69 74.86 36.62L74.86 39.54C74.86 39.83 75.10 40.07 75.38 40.07C75.68 40.07 75.92 39.83 75.92 39.54ZM82.31 36.08C82.31 34.60 81.23 34.06 79.98 34.06C79.20 34.06 78.32 34.31 77.77 34.86C77.70 34.95 77.66 35.04 77.66 35.14C77.66 35.39 77.89 35.56 78.11 35.56C78.19 35.56 78.29 35.52 78.37 35.46C78.80 35.13 79.28 34.96 79.82 34.96C80.64 34.96 81.24 35.39 81.24 36.12L81.24 36.45L79.57 36.45C78.37 36.45 77.32 36.92 77.32 38.22C77.32 39.50 78.37 40.14 79.33 40.14C80.23 40.14 80.77 39.87 81.24 39.35L81.24 39.54C81.24 39.89 81.52 40.07 81.73 40.07L81.77 40.07C82.07 40.07 82.31 39.83 82.31 39.54ZM81.24 37.19L81.24 38.01C81.24 38.69 80.46 39.39 79.62 39.39C78.84 39.39 78.40 38.92 78.40 38.25C78.40 37.55 78.95 37.19 79.86 37.19ZM86.72 39.58C86.72 39.33 86.53 39.14 86.27 39.14C86.15 39.14 86.00 39.20 85.87 39.20C85.52 39.20 85.31 38.92 85.31 38.48L85.31 35.14L86.10 35.14C86.35 35.14 86.56 34.94 86.56 34.68C86.56 34.41 86.35 34.20 86.10 34.20L85.31 34.20L85.31 33.06C85.31 32.79 85.07 32.55 84.78 32.55C84.47 32.55 84.23 32.79 84.23 33.06L84.23 34.20L83.66 34.20C83.40 34.20 83.20 34.41 83.20 34.66C83.20 34.94 83.40 35.14 83.66 35.14L84.23 35.14L84.23 38.73C84.23 39.64 84.71 40.14 85.62 40.14C86.26 40.14 86.72 39.96 86.72 39.58ZM88.22 32.06C87.85 32.06 87.54 32.37 87.54 32.75C87.54 33.12 87.85 33.44 88.22 33.44C88.61 33.44 88.91 33.12 88.91 32.75C88.91 32.37 88.61 32.06 88.22 32.06ZM88.76 34.65C88.76 34.37 88.52 34.13 88.25 34.13C87.94 34.13 87.70 34.37 87.70 34.65L87.70 39.54C87.70 39.83 87.94 40.07 88.22 40.07C88.52 40.07 88.76 39.83 88.76 39.54ZM95.99 37.10C95.99 35.43 94.87 34.06 93.06 34.06C91.26 34.06 90.14 35.43 90.14 37.10C90.14 38.76 91.26 40.14 93.06 40.14C94.87 40.14 95.99 38.76 95.99 37.10ZM94.87 37.10C94.87 38.21 94.22 39.20 93.06 39.20C91.91 39.20 91.25 38.21 91.25 37.10C91.25 35.99 91.91 35.01 93.06 35.01C94.22 35.01 94.87 35.99 94.87 37.10ZM102.35 36.28C102.35 35.06 101.46 34.06 100.24 34.06C99.23 34.06 98.71 34.55 98.44 35.02L98.44 34.65C98.44 34.37 98.20 34.13 97.92 34.13C97.61 34.13 97.37 34.37 97.37 34.65L97.37 39.54C97.37 39.83 97.61 40.07 97.90 40.07C98.20 40.07 98.44 39.83 98.44 39.54L98.44 36.76C98.44 35.78 98.96 35.01 99.89 35.01C100.75 35.01 101.28 35.68 101.28 36.64L101.28 39.54C101.28 39.83 101.52 40.07 101.81 40.07C102.11 40.07 102.35 39.83 102.35 39.54ZM108.32 38.25C108.22 36.21 104.89 36.77 104.77 35.73C104.72 35.26 105.23 34.91 105.96 34.91C106.51 34.91 107.03 35.09 107.40 35.36C107.47 35.42 107.56 35.44 107.65 35.44C107.87 35.44 108.07 35.26 108.07 35.02C108.07 34.92 108.04 34.83 107.96 34.76C107.51 34.31 106.78 34.06 105.95 34.06C104.53 34.06 103.68 34.73 103.74 35.76C103.85 37.71 107.16 37.11 107.28 38.39C107.33 38.92 106.85 39.29 106.02 39.29C105.42 39.29 104.82 39.05 104.39 38.74C104.30 38.68 104.22 38.66 104.11 38.66C103.86 38.66 103.64 38.85 103.64 39.10C103.64 39.22 103.69 39.32 103.78 39.39C104.30 39.92 105.18 40.14 105.97 40.14C107.51 40.14 108.38 39.35 108.32 38.25ZM117.43 36.08C117.43 34.60 116.35 34.06 115.10 34.06C114.32 34.06 113.45 34.31 112.90 34.86C112.82 34.95 112.79 35.04 112.79 35.14C112.79 35.39 113.02 35.56 113.23 35.56C113.32 35.56 113.41 35.52 113.50 35.46C113.93 35.13 114.41 34.96 114.95 34.96C115.76 34.96 116.36 35.39 116.36 36.12L116.36 36.45L114.70 36.45C113.50 36.45 112.44 36.92 112.44 38.22C112.44 39.50 113.50 40.14 114.46 40.14C115.36 40.14 115.90 39.87 116.36 39.35L116.36 39.54C116.36 39.89 116.64 40.07 116.86 40.07L116.89 40.07C117.19 40.07 117.43 39.83 117.43 39.54ZM116.36 37.19L116.36 38.01C116.36 38.69 115.58 39.39 114.74 39.39C113.96 39.39 113.52 38.92 113.52 38.25C113.52 37.55 114.07 37.19 114.98 37.19ZM124.13 36.28C124.13 35.06 123.24 34.06 122.02 34.06C121.01 34.06 120.49 34.55 120.22 35.02L120.22 34.65C120.22 34.37 119.98 34.13 119.70 34.13C119.39 34.13 119.15 34.37 119.15 34.65L119.15 39.54C119.15 39.83 119.39 40.07 119.68 40.07C119.98 40.07 120.22 39.83 120.22 39.54L120.22 36.76C120.22 35.78 120.74 35.01 121.67 35.01C122.53 35.01 123.06 35.68 123.06 36.64L123.06 39.54C123.06 39.83 123.30 40.07 123.59 40.07C123.89 40.07 124.13 39.83 124.13 39.54ZM131.06 32.44C131.06 32.16 130.82 31.92 130.55 31.92C130.24 31.92 130.00 32.16 130.00 32.44L130.00 35.04C129.53 34.42 128.96 34.06 128.09 34.06C126.58 34.06 125.51 35.25 125.51 37.11C125.51 39.00 126.59 40.14 128.09 40.14C128.99 40.14 129.55 39.75 130.00 39.17L130.00 39.54C130.00 39.83 130.24 40.07 130.52 40.07C130.82 40.07 131.06 39.83 131.06 39.54ZM130.00 37.14C130.00 38.34 129.40 39.20 128.36 39.20C127.28 39.20 126.61 38.32 126.61 37.11C126.61 35.90 127.28 35.01 128.36 35.01C129.40 35.01 130.00 35.88 130.00 37.07ZM140.53 36.08C140.53 34.60 139.45 34.06 138.20 34.06C137.42 34.06 136.55 34.31 136.00 34.86C135.92 34.95 135.89 35.04 135.89 35.14C135.89 35.39 136.12 35.56 136.33 35.56C136.42 35.56 136.51 35.52 136.60 35.46C137.03 35.13 137.51 34.96 138.05 34.96C138.86 34.96 139.46 35.39 139.46 36.12L139.46 36.45L137.80 36.45C136.60 36.45 135.54 36.92 135.54 38.22C135.54 39.50 136.60 40.14 137.56 40.14C138.46 40.14 139.00 39.87 139.46 39.35L139.46 39.54C139.46 39.89 139.74 40.07 139.96 40.07L139.99 40.07C140.29 40.07 140.53 39.83 140.53 39.54ZM139.46 37.19L139.46 38.01C139.46 38.69 138.68 39.39 137.84 39.39C137.06 39.39 136.62 38.92 136.62 38.25C136.62 37.55 137.17 37.19 138.08 37.19ZM143.32 32.44C143.32 32.16 143.08 31.92 142.80 31.92C142.49 31.92 142.25 32.16 142.25 32.44L142.25 39.54C142.25 39.83 142.49 40.07 142.78 40.07C143.08 40.07 143.32 39.83 143.32 39.54ZM146.11 32.44C146.11 32.16 145.87 31.92 145.60 31.92C145.28 31.92 145.04 32.16 145.04 32.44L145.04 39.54C145.04 39.83 145.28 40.07 145.57 40.07C145.87 40.07 146.11 39.83 146.11 39.54ZM159.04 36.29C159.04 35.12 158.23 34.06 157.03 34.06C156.19 34.06 155.62 34.52 155.28 35.16C155.10 34.67 154.46 34.06 153.50 34.06C152.66 34.06 152.23 34.54 151.99 34.90L151.99 34.65C151.99 34.37 151.75 34.13 151.48 34.13C151.16 34.13 150.92 34.37 150.92 34.65L150.92 39.54C150.92 39.83 151.16 40.07 151.45 40.07C151.75 40.07 151.99 39.83 151.99 39.54L151.99 36.70C151.99 35.79 152.42 35.01 153.26 35.01C154.10 35.01 154.44 35.69 154.44 36.62L154.44 39.54C154.44 39.83 154.68 40.07 154.97 40.07C155.27 40.07 155.51 39.83 155.51 39.54L155.51 36.69C155.51 35.79 155.92 35.01 156.76 35.01C157.60 35.01 157.97 35.69 157.97 36.62L157.97 39.54C157.97 39.83 158.21 40.07 158.50 40.07C158.80 40.07 159.04 39.83 159.04 39.54ZM165.62 34.66C165.62 34.38 165.40 34.13 165.08 34.13C164.87 34.13 164.66 34.26 164.58 34.47L162.88 38.76L161.16 34.47C161.08 34.25 160.87 34.13 160.67 34.13C160.34 34.13 160.13 34.40 160.13 34.66C160.13 34.72 160.14 34.78 160.16 34.84L162.31 40.07L161.98 40.84C161.78 41.26 161.52 41.39 161.20 41.39C161.11 41.40 161.02 41.39 160.92 41.39C160.66 41.39 160.44 41.60 160.44 41.87C160.44 42.27 160.84 42.35 161.21 42.35C161.99 42.35 162.62 41.99 163.00 41.12L165.59 34.84C165.61 34.79 165.62 34.72 165.62 34.66ZM175.30 37.10C175.30 35.43 174.18 34.06 172.37 34.06C170.57 34.06 169.45 35.43 169.45 37.10C169.45 38.76 170.57 40.14 172.37 40.14C174.18 40.14 175.30 38.76 175.30 37.10ZM174.18 37.10C174.18 38.21 173.53 39.20 172.37 39.20C171.22 39.20 170.56 38.21 170.56 37.10C170.56 35.99 171.22 35.01 172.37 35.01C173.53 35.01 174.18 35.99 174.18 37.10ZM179.38 39.58C179.38 39.33 179.18 39.14 178.92 39.14C178.80 39.14 178.66 39.20 178.52 39.20C178.18 39.20 177.96 38.92 177.96 38.48L177.96 35.14L178.75 35.14C179.00 35.14 179.21 34.94 179.21 34.68C179.21 34.41 179.00 34.20 178.75 34.20L177.96 34.20L177.96 33.06C177.96 32.79 177.72 32.55 177.43 32.55C177.12 32.55 176.88 32.79 176.88 33.06L176.88 34.20L176.32 34.20C176.05 34.20 175.85 34.41 175.85 34.66C175.85 34.94 176.05 35.14 176.32 35.14L176.88 35.14L176.88 38.73C176.88 39.64 177.36 40.14 178.27 40.14C178.91 40.14 179.38 39.96 179.38 39.58ZM185.34 36.26C185.34 35.03 184.46 34.06 183.24 34.06C182.22 34.06 181.69 34.55 181.42 35.02L181.42 32.44C181.42 32.16 181.18 31.92 180.90 31.92C180.59 31.92 180.35 32.16 180.35 32.44L180.35 39.54C180.35 39.83 180.59 40.07 180.88 40.07C181.18 40.07 181.42 39.83 181.42 39.54L181.42 36.82C181.42 35.74 181.99 35.01 182.90 35.01C183.77 35.01 184.27 35.66 184.27 36.62L184.27 39.54C184.27 39.83 184.51 40.07 184.80 40.07C185.10 40.07 185.34 39.83 185.34 39.54ZM192.42 36.90C192.42 36.68 192.36 36.42 192.31 36.23C191.98 34.94 191.02 34.06 189.61 34.06C187.93 34.06 186.72 35.42 186.72 37.10C186.72 38.92 187.98 40.14 189.71 40.14C190.56 40.14 192.05 39.70 192.05 39.05C192.05 38.64 191.64 38.55 191.38 38.68C190.96 38.99 190.31 39.28 189.82 39.28C188.64 39.28 187.92 38.48 187.84 37.48L191.87 37.48C192.17 37.48 192.42 37.19 192.42 36.90ZM187.84 36.69C187.88 35.88 188.45 34.92 189.60 34.92C190.84 34.92 191.36 35.91 191.39 36.69ZM196.84 34.60C196.84 34.32 196.63 34.12 196.36 34.12C195.71 34.12 195.18 34.66 194.86 35.10L194.86 34.65C194.86 34.37 194.62 34.13 194.34 34.13C194.03 34.13 193.79 34.37 193.79 34.65L193.79 39.54C193.79 39.83 194.02 40.06 194.30 40.07L194.32 40.07C194.62 40.07 194.86 39.83 194.86 39.54L194.86 36.57C194.86 35.81 195.38 35.21 196.30 35.16C196.60 35.15 196.84 34.91 196.84 34.60ZM207.67 32.50C207.67 32.19 207.42 31.92 207.10 31.92C206.74 31.92 206.48 32.19 206.48 32.50L206.48 36.83C206.48 38.21 205.73 39.09 204.32 39.09C202.91 39.09 202.15 38.21 202.15 36.83L202.15 32.50C202.15 32.19 201.89 31.92 201.58 31.92C201.23 31.92 200.96 32.19 200.96 32.50L200.96 36.87C200.96 38.84 202.08 40.14 204.32 40.14C206.56 40.14 207.67 38.85 207.67 36.86ZM210.66 32.50C210.66 32.19 210.40 31.92 210.08 31.92C209.74 31.92 209.47 32.19 209.47 32.50L209.47 39.48C209.47 39.81 209.74 40.07 210.06 40.07C210.40 40.07 210.66 39.81 210.66 39.48ZM219.74 38.25C219.64 36.21 216.31 36.77 216.19 35.73C216.14 35.26 216.65 34.91 217.38 34.91C217.93 34.91 218.45 35.09 218.82 35.36C218.89 35.42 218.98 35.44 219.07 35.44C219.29 35.44 219.49 35.26 219.49 35.02C219.49 34.92 219.46 34.83 219.38 34.76C218.93 34.31 218.20 34.06 217.37 34.06C215.95 34.06 215.10 34.73 215.16 35.76C215.27 37.71 218.58 37.11 218.70 38.39C218.75 38.92 218.27 39.29 217.44 39.29C216.84 39.29 216.24 39.05 215.81 38.74C215.72 38.68 215.64 38.66 215.53 38.66C215.28 38.66 215.06 38.85 215.06 39.10C215.06 39.22 215.11 39.32 215.20 39.39C215.72 39.92 216.60 40.14 217.39 40.14C218.93 40.14 219.80 39.35 219.74 38.25ZM226.09 36.28C226.09 35.06 225.20 34.06 223.98 34.06C222.97 34.06 222.46 34.55 222.18 35.02L222.18 34.65C222.18 34.37 221.94 34.13 221.66 34.13C221.35 34.13 221.11 34.37 221.11 34.65L221.11 39.54C221.11 39.83 221.35 40.07 221.64 40.07C221.94 40.07 222.18 39.83 222.18 39.54L222.18 36.76C222.18 35.78 222.71 35.01 223.63 35.01C224.50 35.01 225.02 35.68 225.02 36.64L225.02 39.54C225.02 39.83 225.26 40.07 225.55 40.07C225.85 40.07 226.09 39.83 226.09 39.54ZM228.35 32.06C227.98 32.06 227.66 32.37 227.66 32.75C227.66 33.12 227.98 33.44 228.35 33.44C228.73 33.44 229.03 33.12 229.03 32.75C229.03 32.37 228.73 32.06 228.35 32.06ZM228.89 34.65C228.89 34.37 228.65 34.13 228.37 34.13C228.06 34.13 227.82 34.37 227.82 34.65L227.82 39.54C227.82 39.83 228.06 40.07 228.35 40.07C228.65 40.07 228.89 39.83 228.89 39.54ZM236.17 37.10C236.17 35.20 235.10 34.06 233.59 34.06C232.80 34.06 232.10 34.46 231.68 35.03L231.68 34.65C231.68 34.37 231.44 34.13 231.17 34.13C230.86 34.13 230.62 34.37 230.62 34.65L230.62 41.76C230.62 42.04 230.86 42.28 231.14 42.28C231.44 42.28 231.68 42.04 231.68 41.76L231.68 39.16C232.15 39.80 232.82 40.14 233.59 40.14C235.10 40.14 236.17 38.98 236.17 37.10ZM235.04 37.10C235.04 38.31 234.50 39.20 233.41 39.20C232.40 39.20 231.68 38.32 231.68 37.13L231.68 37.06C231.68 35.87 232.40 35.01 233.41 35.01C234.50 35.01 235.04 35.88 235.04 37.10ZM243.07 37.10C243.07 35.20 242.00 34.06 240.49 34.06C239.70 34.06 239.00 34.46 238.58 35.03L238.58 34.65C238.58 34.37 238.34 34.13 238.07 34.13C237.76 34.13 237.52 34.37 237.52 34.65L237.52 41.76C237.52 42.04 237.76 42.28 238.04 42.28C238.34 42.28 238.58 42.04 238.58 41.76L238.58 39.16C239.05 39.80 239.72 40.14 240.49 40.14C242.00 40.14 243.07 38.98 243.07 37.10ZM241.94 37.10C241.94 38.31 241.40 39.20 240.31 39.20C239.30 39.20 238.58 38.32 238.58 37.13L238.58 37.06C238.58 35.87 239.30 35.01 240.31 35.01C241.40 35.01 241.94 35.88 241.94 37.10ZM249.77 36.90C249.77 36.68 249.71 36.42 249.66 36.23C249.32 34.94 248.36 34.06 246.96 34.06C245.28 34.06 244.07 35.42 244.07 37.10C244.07 38.92 245.33 40.14 247.06 40.14C247.91 40.14 249.40 39.70 249.40 39.05C249.40 38.64 248.99 38.55 248.72 38.68C248.30 38.99 247.66 39.28 247.16 39.28C245.99 39.28 245.27 38.48 245.18 37.48L249.22 37.48C249.52 37.48 249.77 37.19 249.77 36.90ZM245.18 36.69C245.23 35.88 245.80 34.92 246.95 34.92C248.18 34.92 248.71 35.91 248.74 36.69ZM253.84 39.58C253.84 39.33 253.64 39.14 253.38 39.14C253.26 39.14 253.12 39.20 252.98 39.20C252.64 39.20 252.42 38.92 252.42 38.48L252.42 35.14L253.21 35.14C253.46 35.14 253.67 34.94 253.67 34.68C253.67 34.41 253.46 34.20 253.21 34.20L252.42 34.20L252.42 33.06C252.42 32.79 252.18 32.55 251.89 32.55C251.58 32.55 251.34 32.79 251.34 33.06L251.34 34.20L250.78 34.20C250.51 34.20 250.31 34.41 250.31 34.66C250.31 34.94 250.51 35.14 250.78 35.14L251.34 35.14L251.34 38.73C251.34 39.64 251.82 40.14 252.73 40.14C253.37 40.14 253.84 39.96 253.84 39.58ZM259.06 38.25C258.95 36.21 255.62 36.77 255.50 35.73C255.46 35.26 255.96 34.91 256.69 34.91C257.24 34.91 257.76 35.09 258.13 35.36C258.20 35.42 258.29 35.44 258.38 35.44C258.60 35.44 258.80 35.26 258.80 35.02C258.80 34.92 258.77 34.83 258.70 34.76C258.24 34.31 257.51 34.06 256.68 34.06C255.26 34.06 254.41 34.73 254.47 35.76C254.58 37.71 257.89 37.11 258.01 38.39C258.06 38.92 257.58 39.29 256.75 39.29C256.15 39.29 255.55 39.05 255.12 38.74C255.04 38.68 254.95 38.66 254.84 38.66C254.59 38.66 254.38 38.85 254.38 39.10C254.38 39.22 254.42 39.32 254.51 39.39C255.04 39.92 255.91 40.14 256.70 40.14C258.24 40.14 259.12 39.35 259.06 38.25ZM266.21 39.58C266.21 39.33 266.02 39.14 265.75 39.14C265.63 39.14 265.49 39.20 265.36 39.20C265.01 39.20 264.79 38.92 264.79 38.48L264.79 35.14L265.58 35.14C265.84 35.14 266.04 34.94 266.04 34.68C266.04 34.41 265.84 34.20 265.58 34.20L264.79 34.20L264.79 33.06C264.79 32.79 264.55 32.55 264.26 32.55C263.95 32.55 263.71 32.79 263.71 33.06L263.71 34.20L263.15 34.20C262.88 34.20 262.68 34.41 262.68 34.66C262.68 34.94 262.88 35.14 263.15 35.14L263.71 35.14L263.71 38.73C263.71 39.64 264.19 40.14 265.10 40.14C265.74 40.14 266.21 39.96 266.21 39.58ZM272.68 37.10C272.68 35.43 271.56 34.06 269.75 34.06C267.95 34.06 266.83 35.43 266.83 37.10C266.83 38.76 267.95 40.14 269.75 40.14C271.56 40.14 272.68 38.76 272.68 37.10ZM271.56 37.10C271.56 38.21 270.91 39.20 269.75 39.20C268.60 39.20 267.94 38.21 267.94 37.10C267.94 35.99 268.60 35.01 269.75 35.01C270.91 35.01 271.56 35.99 271.56 37.10ZM279.25 34.65C279.25 34.37 279.01 34.13 278.74 34.13C278.42 34.13 278.18 34.37 278.18 34.65L278.18 35.04C277.72 34.42 277.04 34.06 276.28 34.06C274.78 34.06 273.71 35.19 273.71 37.06C273.71 38.94 274.79 40.05 276.28 40.05C277.07 40.05 277.75 39.63 278.18 39.04L278.18 39.81C278.18 41.04 277.30 41.48 276.40 41.48C275.76 41.48 275.26 41.34 274.81 40.97C274.73 40.91 274.64 40.89 274.54 40.89C274.30 40.89 274.08 41.09 274.08 41.34C274.08 41.46 274.13 41.57 274.20 41.64C274.76 42.18 275.58 42.35 276.40 42.35C277.81 42.35 279.25 41.76 279.25 39.77ZM278.18 37.07C278.18 38.26 277.40 39.10 276.44 39.10C275.36 39.10 274.81 38.25 274.81 37.06C274.81 35.85 275.36 35.01 276.44 35.01C277.40 35.01 278.18 35.84 278.18 37.02ZM286.33 36.90C286.33 36.68 286.27 36.42 286.22 36.23C285.89 34.94 284.93 34.06 283.52 34.06C281.84 34.06 280.63 35.42 280.63 37.10C280.63 38.92 281.89 40.14 283.62 40.14C284.47 40.14 285.96 39.70 285.96 39.05C285.96 38.64 285.55 38.55 285.29 38.68C284.87 38.99 284.22 39.28 283.73 39.28C282.55 39.28 281.83 38.48 281.75 37.48L285.78 37.48C286.08 37.48 286.33 37.19 286.33 36.90ZM281.75 36.69C281.80 35.88 282.36 34.92 283.51 34.92C284.75 34.92 285.28 35.91 285.30 36.69ZM290.40 39.58C290.40 39.33 290.21 39.14 289.94 39.14C289.82 39.14 289.68 39.20 289.55 39.20C289.20 39.20 288.98 38.92 288.98 38.48L288.98 35.14L289.78 35.14C290.03 35.14 290.23 34.94 290.23 34.68C290.23 34.41 290.03 34.20 289.78 34.20L288.98 34.20L288.98 33.06C288.98 32.79 288.74 32.55 288.46 32.55C288.14 32.55 287.90 32.79 287.90 33.06L287.90 34.20L287.34 34.20C287.08 34.20 286.87 34.41 286.87 34.66C286.87 34.94 287.08 35.14 287.34 35.14L287.90 35.14L287.90 38.73C287.90 39.64 288.38 40.14 289.30 40.14C289.93 40.14 290.40 39.96 290.40 39.58ZM296.36 36.26C296.36 35.03 295.49 34.06 294.26 34.06C293.24 34.06 292.72 34.55 292.44 35.02L292.44 32.44C292.44 32.16 292.20 31.92 291.92 31.92C291.61 31.92 291.37 32.16 291.37 32.44L291.37 39.54C291.37 39.83 291.61 40.07 291.90 40.07C292.20 40.07 292.44 39.83 292.44 39.54L292.44 36.82C292.44 35.74 293.02 35.01 293.93 35.01C294.79 35.01 295.30 35.66 295.30 36.62L295.30 39.54C295.30 39.83 295.54 40.07 295.82 40.07C296.12 40.07 296.36 39.83 296.36 39.54ZM303.44 36.90C303.44 36.68 303.38 36.42 303.34 36.23C303.00 34.94 302.04 34.06 300.64 34.06C298.96 34.06 297.74 35.42 297.74 37.10C297.74 38.92 299.00 40.14 300.73 40.14C301.58 40.14 303.07 39.70 303.07 39.05C303.07 38.64 302.66 38.55 302.40 38.68C301.98 38.99 301.33 39.28 300.84 39.28C299.66 39.28 298.94 38.48 298.86 37.48L302.89 37.48C303.19 37.48 303.44 37.19 303.44 36.90ZM298.86 36.69C298.91 35.88 299.47 34.92 300.62 34.92C301.86 34.92 302.39 35.91 302.41 36.69ZM307.86 34.60C307.86 34.32 307.66 34.12 307.38 34.12C306.73 34.12 306.20 34.66 305.88 35.10L305.88 34.65C305.88 34.37 305.64 34.13 305.36 34.13C305.05 34.13 304.81 34.37 304.81 34.65L304.81 39.54C304.81 39.83 305.04 40.06 305.33 40.07L305.34 40.07C305.64 40.07 305.88 39.83 305.88 39.54L305.88 36.57C305.88 35.81 306.41 35.21 307.32 35.16C307.62 35.15 307.86 34.91 307.86 34.60ZM312.48 32.06C312.11 32.06 311.80 32.37 311.80 32.75C311.80 33.12 312.11 33.44 312.48 33.44C312.86 33.44 313.16 33.12 313.16 32.75C313.16 32.37 312.86 32.06 312.48 32.06ZM313.02 34.65C313.02 34.37 312.78 34.13 312.50 34.13C312.19 34.13 311.95 34.37 311.95 34.65L311.95 39.54C311.95 39.83 312.19 40.07 312.48 40.07C312.78 40.07 313.02 39.83 313.02 39.54ZM319.73 36.28C319.73 35.06 318.84 34.06 317.62 34.06C316.61 34.06 316.09 34.55 315.82 35.02L315.82 34.65C315.82 34.37 315.58 34.13 315.30 34.13C314.99 34.13 314.75 34.37 314.75 34.65L314.75 39.54C314.75 39.83 314.99 40.07 315.28 40.07C315.58 40.07 315.82 39.83 315.82 39.54L315.82 36.76C315.82 35.78 316.34 35.01 317.27 35.01C318.13 35.01 318.66 35.68 318.66 36.64L318.66 39.54C318.66 39.83 318.90 40.07 319.19 40.07C319.49 40.07 319.73 39.83 319.73 39.54ZM330.04 37.10C330.04 35.43 328.92 34.06 327.11 34.06C325.31 34.06 324.19 35.43 324.19 37.10C324.19 38.76 325.31 40.14 327.11 40.14C328.92 40.14 330.04 38.76 330.04 37.10ZM328.92 37.10C328.92 38.21 328.27 39.20 327.11 39.20C325.96 39.20 325.30 38.21 325.30 37.10C325.30 35.99 325.96 35.01 327.11 35.01C328.27 35.01 328.92 35.99 328.92 37.10ZM336.40 36.28C336.40 35.06 335.51 34.06 334.28 34.06C333.28 34.06 332.76 34.55 332.48 35.02L332.48 34.65C332.48 34.37 332.24 34.13 331.97 34.13C331.66 34.13 331.42 34.37 331.42 34.65L331.42 39.54C331.42 39.83 331.66 40.07 331.94 40.07C332.24 40.07 332.48 39.83 332.48 39.54L332.48 36.76C332.48 35.78 333.01 35.01 333.94 35.01C334.80 35.01 335.33 35.68 335.33 36.64L335.33 39.54C335.33 39.83 335.57 40.07 335.86 40.07C336.16 40.07 336.40 39.83 336.40 39.54ZM343.48 36.90C343.48 36.68 343.42 36.42 343.37 36.23C343.03 34.94 342.07 34.06 340.67 34.06C338.99 34.06 337.78 35.42 337.78 37.10C337.78 38.92 339.04 40.14 340.76 40.14C341.62 40.14 343.10 39.70 343.10 39.05C343.10 38.64 342.70 38.55 342.43 38.68C342.01 38.99 341.36 39.28 340.87 39.28C339.70 39.28 338.98 38.48 338.89 37.48L342.92 37.48C343.22 37.48 343.48 37.19 343.48 36.90ZM338.89 36.69C338.94 35.88 339.50 34.92 340.66 34.92C341.89 34.92 342.42 35.91 342.44 36.69ZM350.98 34.60C350.98 34.32 350.77 34.12 350.50 34.12C349.85 34.12 349.32 34.66 349.00 35.10L349.00 34.65C349.00 34.37 348.76 34.13 348.48 34.13C348.17 34.13 347.93 34.37 347.93 34.65L347.93 39.54C347.93 39.83 348.16 40.06 348.44 40.07L348.46 40.07C348.76 40.07 349.00 39.83 349.00 39.54L349.00 36.57C349.00 35.81 349.52 35.21 350.44 35.16C350.74 35.15 350.98 34.91 350.98 34.60ZM357.34 36.90C357.34 36.68 357.28 36.42 357.23 36.23C356.89 34.94 355.93 34.06 354.53 34.06C352.85 34.06 351.64 35.42 351.64 37.10C351.64 38.92 352.90 40.14 354.62 40.14C355.48 40.14 356.96 39.70 356.96 39.05C356.96 38.64 356.56 38.55 356.29 38.68C355.87 38.99 355.22 39.28 354.73 39.28C353.56 39.28 352.84 38.48 352.75 37.48L356.78 37.48C357.08 37.48 357.34 37.19 357.34 36.90ZM352.75 36.69C352.80 35.88 353.36 34.92 354.52 34.92C355.75 34.92 356.28 35.91 356.30 36.69ZM364.26 37.10C364.26 35.20 363.19 34.06 361.68 34.06C360.89 34.06 360.19 34.46 359.77 35.03L359.77 34.65C359.77 34.37 359.53 34.13 359.26 34.13C358.94 34.13 358.70 34.37 358.70 34.65L358.70 41.76C358.70 42.04 358.94 42.28 359.23 42.28C359.53 42.28 359.77 42.04 359.77 41.76L359.77 39.16C360.24 39.80 360.91 40.14 361.68 40.14C363.19 40.14 364.26 38.98 364.26 37.10ZM363.13 37.10C363.13 38.31 362.59 39.20 361.50 39.20C360.49 39.20 359.77 38.32 359.77 37.13L359.77 37.06C359.77 35.87 360.49 35.01 361.50 35.01C362.59 35.01 363.13 35.88 363.13 37.10ZM371.10 37.10C371.10 35.43 369.98 34.06 368.17 34.06C366.37 34.06 365.26 35.43 365.26 37.10C365.26 38.76 366.37 40.14 368.17 40.14C369.98 40.14 371.10 38.76 371.10 37.10ZM369.98 37.10C369.98 38.21 369.34 39.20 368.17 39.20C367.02 39.20 366.36 38.21 366.36 37.10C366.36 35.99 367.02 35.01 368.17 35.01C369.34 35.01 369.98 35.99 369.98 37.10Z" fill="#9aa7b4" /><rect x="18" y="50" width="384" height="6" rx="3" fill="#21262d" /><rect x="18" y="50" width="384.00" height="6" rx="3" fill="#e34c26" /></svg>