<svg xmlns="http://www.w3.org/2000/svg" width="840" height="240" viewBox="0 0 840 240" role="img"><rect x="0.5" y="0.5" width="839" height="239" rx="10" fill="#161b22" stroke="#30363d" /><path d="M28.93 26.67C28.93 23.46 26.61 21.33 23.26 21.33L20.34 21.33C19.63 21.33 19.06 21.90 19.06 22.61L19.06 30.72C19.06 31.42 19.63 32 20.34 32L23.26 32C26.61 32 28.93 29.89 28.93 26.67ZM26.61 26.67C26.61 28.48 25.38 30 23.26 30L21.33 30L21.33 23.33L23.26 23.33C25.46 23.33 26.61 24.78 26.61 26.67ZM37.17 27.01C37.17 24.78 35.55 24.08 33.79 24.08C32.90 24.08 31.17 24.40 30.69 25.17C30.62 25.28 30.58 25.42 30.58 25.57C30.58 26.05 30.98 26.35 31.34 26.35C31.47 26.35 31.60 26.30 31.71 26.24C32.24 25.89 32.83 25.74 33.44 25.74C34.46 25.74 35.14 26.26 35.14 27.04L35.14 27.30L32.69 27.30C31.46 27.30 30 27.82 30 29.63C30 31.36 31.46 32.19 32.69 32.19C33.86 32.19 34.61 31.90 35.14 31.28C35.14 31.63 35.47 32.10 36.02 32.10L36.18 32.10C36.72 32.10 37.17 31.65 37.17 31.09ZM35.14 28.67L35.14 29.02C35.14 30.27 34.16 30.82 33.50 30.82C32.70 30.82 32.05 30.40 32.05 29.68C32.05 28.93 32.70 28.67 33.50 28.67ZM46.03 25.17C46.03 24.67 45.65 24.18 45.04 24.18C44.61 24.18 44.21 24.45 44.06 24.85L42.27 29.65L40.48 24.85C40.32 24.43 39.94 24.18 39.54 24.18C38.91 24.18 38.51 24.69 38.51 25.18C38.51 25.30 38.53 25.41 38.58 25.52L41.22 32.11L40.93 32.77C40.78 33.09 40.50 33.25 40.16 33.31C40.08 33.33 39.98 33.33 39.90 33.33C39.33 33.33 38.94 33.74 38.94 34.22C38.94 34.78 39.49 35.14 40.19 35.14C41.33 35.14 42.30 34.61 42.85 33.26L45.97 25.54C46.02 25.42 46.03 25.30 46.03 25.17ZM51.62 31.26C51.62 30.77 51.30 30.38 50.72 30.38L50.54 30.38C50.22 30.38 49.84 30.14 49.84 29.54L49.84 26.05L50.64 26.05C51.10 26.05 51.50 25.65 51.50 25.17C51.50 24.67 51.10 24.27 50.64 24.27L49.84 24.27L49.84 23.07C49.84 22.51 49.39 22.06 48.83 22.06C48.24 22.06 47.79 22.51 47.79 23.07L47.79 24.27L47.30 24.27C46.82 24.27 46.42 24.67 46.42 25.14C46.42 25.65 46.82 26.05 47.30 26.05L47.79 26.05L47.79 30.08C47.79 31.46 48.56 32.19 49.98 32.19C51.31 32.19 51.62 31.78 51.62 31.26ZM53.81 21.02C53.15 21.02 52.59 21.55 52.59 22.22C52.59 22.90 53.15 23.44 53.81 23.44C54.48 23.44 55.02 22.90 55.02 22.22C55.02 21.55 54.48 21.02 53.81 21.02ZM54.83 25.17C54.83 24.62 54.38 24.18 53.84 24.18C53.25 24.18 52.80 24.62 52.80 25.17L52.80 31.09C52.80 31.65 53.25 32.10 53.81 32.10C54.38 32.10 54.83 31.65 54.83 31.09ZM68.48 27.06C68.48 25.47 67.38 24.08 65.63 24.08C64.29 24.08 63.52 24.86 63.23 25.41C62.94 24.85 62.22 24.08 60.93 24.08C59.74 24.08 59.20 24.51 58.88 24.93L58.88 24.91C58.88 24.69 58.59 24.18 57.89 24.18C57.30 24.18 56.85 24.62 56.85 25.17L56.85 31.09C56.85 31.65 57.30 32.10 57.86 32.10C58.43 32.10 58.88 31.65 58.88 31.09L58.88 27.44C58.88 26.69 59.46 25.89 60.32 25.89C61.15 25.89 61.63 26.72 61.63 27.44L61.63 31.09C61.63 31.65 62.08 32.10 62.64 32.10C63.23 32.10 63.68 31.65 63.68 31.09L63.68 27.58C63.68 26.69 64.24 25.89 65.12 25.89C65.95 25.89 66.43 26.72 66.43 27.44L66.43 31.09C66.43 31.65 66.88 32.10 67.44 32.10C68.03 32.10 68.48 31.65 68.48 31.09ZM77.82 27.89C77.82 27.50 77.71 27.04 77.60 26.69C77.06 25.09 75.73 24.08 73.98 24.08C71.63 24.08 69.98 25.89 69.98 28.13C69.98 30.61 71.76 32.19 74.11 32.19C75.30 32.19 77.01 31.74 77.10 30.83C77.15 30.35 76.67 30.02 76.24 30.02C76.11 30.02 75.97 30.05 75.84 30.11C75.36 30.37 74.77 30.58 74.34 30.58C73.02 30.58 72.24 29.79 72.11 28.82L76.88 28.82C77.41 28.82 77.82 28.38 77.82 27.89ZM72.08 27.44C72.18 26.67 72.72 25.70 73.98 25.70C75.33 25.70 75.84 26.70 75.89 27.44ZM88.64 21.15C85.44 21.15 82.96 23.39 82.96 26.67C82.96 29.95 85.44 32.19 88.64 32.19C90.48 32.19 91.71 31.39 92.51 30.42C92.67 30.24 92.74 30.02 92.74 29.79C92.74 29.25 92.27 28.80 91.70 28.80C91.38 28.80 91.06 28.93 90.83 29.17C90.24 29.82 89.44 30.18 88.64 30.18C86.70 30.18 85.30 28.69 85.30 26.67C85.30 24.66 86.70 23.17 88.64 23.17C89.44 23.17 90.22 23.55 90.83 24.19C91.06 24.43 91.36 24.56 91.66 24.56C92.26 24.56 92.75 24.11 92.75 23.54C92.75 23.33 92.67 23.09 92.53 22.91C91.71 21.94 90.48 21.15 88.64 21.15ZM101.68 27.31C101.68 25.65 100.38 24.08 98.69 24.08C97.42 24.08 96.78 24.69 96.45 25.12L96.45 22.22C96.45 21.68 96.00 21.23 95.46 21.23C94.86 21.23 94.42 21.68 94.42 22.22L94.42 31.09C94.42 31.65 94.86 32.10 95.42 32.10C96.00 32.10 96.45 31.65 96.45 31.09L96.45 27.60C96.45 26.66 97.10 25.89 98.05 25.89C98.93 25.89 99.65 26.54 99.65 27.62L99.65 31.09C99.65 31.65 100.10 32.10 100.66 32.10C101.23 32.10 101.68 31.65 101.68 31.09ZM110.37 27.01C110.37 24.78 108.75 24.08 106.99 24.08C106.10 24.08 104.37 24.40 103.89 25.17C103.82 25.28 103.78 25.42 103.78 25.57C103.78 26.05 104.18 26.35 104.54 26.35C104.67 26.35 104.80 26.30 104.91 26.24C105.44 25.89 106.03 25.74 106.64 25.74C107.66 25.74 108.34 26.26 108.34 27.04L108.34 27.30L105.89 27.30C104.66 27.30 103.20 27.82 103.20 29.63C103.20 31.36 104.66 32.19 105.89 32.19C107.06 32.19 107.81 31.90 108.34 31.28C108.34 31.63 108.67 32.10 109.22 32.10L109.38 32.10C109.92 32.10 110.37 31.65 110.37 31.09ZM108.34 28.67L108.34 29.02C108.34 30.27 107.36 30.82 106.70 30.82C105.90 30.82 105.25 30.40 105.25 29.68C105.25 28.93 105.90 28.67 106.70 28.67ZM116.98 25.04C116.98 24.58 116.67 24.21 116.08 24.21C115.31 24.21 114.80 24.82 114.42 25.33L114.42 25.17C114.42 24.62 113.97 24.18 113.42 24.18C112.83 24.18 112.38 24.62 112.38 25.17L112.38 31.09C112.38 31.65 112.83 32.10 113.39 32.10L113.42 32.10C113.97 32.10 114.42 31.65 114.42 31.09L114.42 27.86C114.42 26.58 115.38 26.16 116.00 26.08C116.56 26 116.98 25.65 116.98 25.04ZM122.37 31.26C122.37 30.77 122.05 30.38 121.47 30.38L121.30 30.38C120.98 30.38 120.59 30.14 120.59 29.54L120.59 26.05L121.39 26.05C121.86 26.05 122.26 25.65 122.26 25.17C122.26 24.67 121.86 24.27 121.39 24.27L120.59 24.27L120.59 23.07C120.59 22.51 120.14 22.06 119.58 22.06C118.99 22.06 118.54 22.51 118.54 23.07L118.54 24.27L118.05 24.27C117.57 24.27 117.17 24.67 117.17 25.14C117.17 25.65 117.57 26.05 118.05 26.05L118.54 26.05L118.54 30.08C118.54 31.46 119.31 32.19 120.74 32.19C122.06 32.19 122.37 31.78 122.37 31.26Z" fill="#e6edf3" /><circle cx="551.4" cy="26" r="3" fill="#673bd6" /><path d="M563.43 27.92C563.43 25.18 559.12 26.08 559.12 24.57C559.12 23.94 559.68 23.51 560.50 23.51C561.14 23.51 561.78 23.70 562.32 24.09C562.41 24.16 562.52 24.19 562.62 24.19C562.89 24.19 563.13 23.96 563.13 23.69C563.13 23.57 563.09 23.43 562.99 23.34C562.44 22.84 561.50 22.55 560.59 22.55C559.07 22.55 558.00 23.43 558.00 24.64C558.00 27.29 562.31 26.29 562.31 28.03C562.31 28.55 561.89 29.18 560.70 29.18C559.90 29.18 559.22 28.86 558.71 28.43C558.62 28.36 558.50 28.33 558.40 28.33C558.11 28.33 557.90 28.59 557.90 28.87C557.90 28.99 557.94 29.11 558.03 29.21C558.60 29.77 559.58 30.13 560.66 30.13C562.64 30.13 563.43 29.07 563.43 27.92ZM569.26 25.09C569.26 24.84 569.04 24.62 568.79 24.62C568.50 24.62 568.28 24.84 568.28 25.09L568.28 27.62C568.28 28.53 567.71 29.26 566.92 29.26C566.12 29.26 565.67 28.66 565.67 27.78L565.67 25.09C565.67 24.84 565.45 24.62 565.20 24.62C564.91 24.62 564.69 24.84 564.69 25.09L564.69 28.12C564.69 29.24 565.49 30.13 566.61 30.13C567.53 30.13 567.99 29.73 568.28 29.27L568.28 29.58C568.28 29.85 568.50 30.07 568.76 30.07C569.04 30.07 569.26 29.85 569.26 29.58ZM575.40 26.59C575.40 25.47 574.58 24.55 573.46 24.55C572.54 24.55 572.06 25.01 571.81 25.44L571.81 25.09C571.81 24.84 571.59 24.62 571.34 24.62C571.05 24.62 570.83 24.84 570.83 25.09L570.83 29.58C570.83 29.85 571.05 30.07 571.32 30.07C571.59 30.07 571.81 29.85 571.81 29.58L571.81 27.03C571.81 26.13 572.30 25.42 573.14 25.42C573.93 25.42 574.42 26.04 574.42 26.92L574.42 29.58C574.42 29.85 574.64 30.07 574.90 30.07C575.18 30.07 575.40 29.85 575.40 29.58Z" fill="#9aa7b4" /><circle cx="593.2" cy="26" r="3" fill="#535ae0" /><path d="M607.41 23.40C607.41 22.92 606.96 22.60 606.46 22.62C606.11 22.62 605.78 22.83 605.65 23.16L603.70 27.89L601.76 23.16C601.61 22.77 601.21 22.60 600.81 22.62C600.37 22.62 600.01 22.98 600.01 23.40L600.01 29.53C600.01 29.82 600.26 30.07 600.55 30.07C600.86 30.07 601.10 29.82 601.10 29.53L601.10 24.20L603.20 29.34C603.42 29.89 603.97 29.87 604.19 29.34L606.31 24.20L606.31 29.53C606.31 29.82 606.55 30.07 606.86 30.07C607.16 30.07 607.41 29.82 607.41 29.53ZM614.05 27.34C614.05 25.81 613.03 24.55 611.37 24.55C609.72 24.55 608.69 25.81 608.69 27.34C608.69 28.87 609.72 30.13 611.37 30.13C613.03 30.13 614.05 28.87 614.05 27.34ZM613.03 27.34C613.03 28.36 612.43 29.26 611.37 29.26C610.31 29.26 609.71 28.36 609.71 27.34C609.71 26.33 610.31 25.42 611.37 25.42C612.43 25.42 613.03 26.33 613.03 27.34ZM619.88 26.59C619.88 25.47 619.07 24.55 617.94 24.55C617.02 24.55 616.55 25.01 616.29 25.44L616.29 25.09C616.29 24.84 616.07 24.62 615.82 24.62C615.53 24.62 615.32 24.84 615.32 25.09L615.32 29.58C615.32 29.85 615.53 30.07 615.80 30.07C616.07 30.07 616.29 29.85 616.29 29.58L616.29 27.03C616.29 26.13 616.78 25.42 617.63 25.42C618.42 25.42 618.90 26.04 618.90 26.92L618.90 29.58C618.90 29.85 619.12 30.07 619.38 30.07C619.66 30.07 619.88 29.85 619.88 29.58Z" fill="#9aa7b4" /><circle cx="637.7" cy="26" r="3" fill="#3f77e9" /><path d="M649.71 23.16C649.71 22.87 649.50 22.66 649.24 22.66L644.41 22.66C644.14 22.66 643.94 22.87 643.94 23.14C643.94 23.41 644.14 23.63 644.41 23.63L646.28 23.63L646.28 29.53C646.28 29.82 646.52 30.07 646.82 30.07C647.13 30.07 647.37 29.82 647.37 29.53L647.37 23.63L649.24 23.63C649.50 23.63 649.71 23.41 649.71 23.16ZM654.46 25.09C654.46 24.84 654.24 24.62 653.99 24.62C653.70 24.62 653.48 24.84 653.48 25.09L653.48 27.62C653.48 28.53 652.91 29.26 652.12 29.26C651.33 29.26 650.88 28.66 650.88 27.78L650.88 25.09C650.88 24.84 650.66 24.62 650.40 24.62C650.12 24.62 649.90 24.84 649.90 25.09L649.90 28.12C649.90 29.24 650.69 30.13 651.81 30.13C652.74 30.13 653.20 29.73 653.48 29.27L653.48 29.58C653.48 29.85 653.70 30.07 653.97 30.07C654.24 30.07 654.46 29.85 654.46 29.58ZM660.94 27.16C660.94 26.95 660.89 26.72 660.84 26.55C660.54 25.36 659.65 24.55 658.37 24.55C656.83 24.55 655.72 25.80 655.72 27.34C655.72 29.01 656.87 30.13 658.46 30.13C659.24 30.13 660.60 29.73 660.60 29.13C660.60 28.76 660.23 28.67 659.99 28.79C659.60 29.08 659.01 29.34 658.56 29.34C657.48 29.34 656.82 28.60 656.74 27.69L660.44 27.69C660.71 27.69 660.94 27.43 660.94 27.16ZM656.74 26.96C656.78 26.23 657.30 25.35 658.36 25.35C659.49 25.35 659.97 26.25 660.00 26.96Z" fill="#9aa7b4" /><circle cx="678.4" cy="26" r="3" fill="#2c96f2" /><path d="M693.94 23.14C693.94 22.84 693.70 22.59 693.36 22.59C693.09 22.59 692.85 22.76 692.80 23.02L691.36 28.56L689.85 23.00C689.78 22.76 689.56 22.60 689.32 22.60C689.06 22.60 688.84 22.76 688.78 23.00L687.26 28.56L685.82 23.02C685.76 22.75 685.50 22.57 685.25 22.57C684.90 22.57 684.68 22.85 684.68 23.14C684.68 23.19 684.69 23.23 684.70 23.29L686.48 29.54C686.56 29.85 686.84 30.07 687.18 30.07L687.20 30.07C687.53 30.07 687.81 29.85 687.90 29.53L689.31 24.32L690.71 29.53C690.78 29.84 691.07 30.07 691.40 30.07L691.42 30.07C691.75 30.07 692.05 29.85 692.14 29.53L693.92 23.29C693.93 23.25 693.94 23.19 693.94 23.14ZM699.47 27.16C699.47 26.95 699.42 26.72 699.38 26.55C699.07 25.36 698.19 24.55 696.90 24.55C695.36 24.55 694.25 25.80 694.25 27.34C694.25 29.01 695.40 30.13 696.99 30.13C697.77 30.13 699.13 29.73 699.13 29.13C699.13 28.76 698.76 28.67 698.52 28.79C698.13 29.08 697.54 29.34 697.09 29.34C696.01 29.34 695.35 28.60 695.27 27.69L698.97 27.69C699.24 27.69 699.47 27.43 699.47 27.16ZM695.27 26.96C695.32 26.23 695.83 25.35 696.89 25.35C698.02 25.35 698.51 26.25 698.53 26.96ZM705.50 23.07C705.50 22.82 705.28 22.60 705.03 22.60C704.74 22.60 704.52 22.82 704.52 23.07L704.52 25.46C704.09 24.89 703.58 24.55 702.77 24.55C701.39 24.55 700.41 25.64 700.41 27.35C700.41 29.09 701.40 30.13 702.77 30.13C703.60 30.13 704.12 29.77 704.52 29.24L704.52 29.58C704.52 29.85 704.74 30.07 705.01 30.07C705.28 30.07 705.50 29.85 705.50 29.58ZM704.52 27.38C704.52 28.48 703.97 29.26 703.03 29.26C702.04 29.26 701.42 28.46 701.42 27.35C701.42 26.24 702.04 25.42 703.03 25.42C703.97 25.42 704.52 26.23 704.52 27.32Z" fill="#9aa7b4" /><circle cx="723.3" cy="26" r="3" fill="#34adf0" /><path d="M735.33 23.16C735.33 22.87 735.12 22.66 734.86 22.66L730.03 22.66C729.77 22.66 729.56 22.87 729.56 23.14C729.56 23.41 729.77 23.63 730.03 23.63L731.90 23.63L731.90 29.53C731.90 29.82 732.14 30.07 732.44 30.07C732.75 30.07 732.99 29.82 732.99 29.53L732.99 23.63L734.86 23.63C735.12 23.63 735.33 23.41 735.33 23.16ZM740.97 26.57C740.97 25.45 740.16 24.55 739.04 24.55C738.11 24.55 737.62 25.01 737.37 25.44L737.37 23.07C737.37 22.82 737.15 22.60 736.89 22.60C736.61 22.60 736.39 22.82 736.39 23.07L736.39 29.58C736.39 29.85 736.61 30.07 736.87 30.07C737.15 30.07 737.37 29.85 737.37 29.58L737.37 27.09C737.37 26.09 737.90 25.42 738.73 25.42C739.52 25.42 739.99 26.02 739.99 26.90L739.99 29.58C739.99 29.85 740.21 30.07 740.47 30.07C740.75 30.07 740.97 29.85 740.97 29.58ZM747.13 25.09C747.13 24.84 746.90 24.62 746.65 24.62C746.37 24.62 746.15 24.84 746.15 25.09L746.15 27.62C746.15 28.53 745.57 29.26 744.78 29.26C743.99 29.26 743.54 28.66 743.54 27.78L743.54 25.09C743.54 24.84 743.32 24.62 743.07 24.62C742.78 24.62 742.56 24.84 742.56 25.09L742.56 28.12C742.56 29.24 743.35 30.13 744.47 30.13C745.40 30.13 745.86 29.73 746.15 29.27L746.15 29.58C746.15 29.85 746.37 30.07 746.63 30.07C746.90 30.07 747.13 29.85 747.13 29.58Z" fill="#9aa7b4" /><circle cx="764.9" cy="26" r="3" fill="#56bce1" /><path d="M776.70 23.16C776.70 22.87 776.49 22.66 776.23 22.66L772.45 22.66C772.05 22.66 771.73 22.98 771.73 23.38L771.73 29.53C771.73 29.82 771.97 30.07 772.27 30.07C772.58 30.07 772.82 29.82 772.82 29.53L772.82 26.74L776.15 26.74C776.42 26.74 776.63 26.52 776.63 26.27C776.63 25.98 776.42 25.78 776.15 25.78L772.82 25.78L772.82 23.63L776.23 23.63C776.49 23.63 776.70 23.41 776.70 23.16ZM780.61 25.05C780.61 24.80 780.42 24.61 780.17 24.61C779.57 24.61 779.09 25.11 778.79 25.51L778.79 25.09C778.79 24.84 778.57 24.62 778.32 24.62C778.03 24.62 777.81 24.84 777.81 25.09L777.81 29.58C777.81 29.85 778.02 30.05 778.29 30.07L778.30 30.07C778.57 30.07 778.79 29.85 778.79 29.58L778.79 26.85C778.79 26.16 779.28 25.61 780.11 25.57C780.39 25.56 780.61 25.34 780.61 25.05ZM782.02 22.72C781.67 22.72 781.39 23.00 781.39 23.36C781.39 23.70 781.67 23.98 782.02 23.98C782.37 23.98 782.64 23.70 782.64 23.36C782.64 23.00 782.37 22.72 782.02 22.72ZM782.51 25.09C782.51 24.84 782.29 24.62 782.04 24.62C781.75 24.62 781.53 24.84 781.53 25.09L781.53 29.58C781.53 29.85 781.75 30.07 782.02 30.07C782.29 30.07 782.51 29.85 782.51 29.58Z" fill="#9aa7b4" /><circle cx="800.3" cy="26" r="3" fill="#7accd4" /><path d="M812.33 27.92C812.33 25.18 808.02 26.08 808.02 24.57C808.02 23.94 808.58 23.51 809.40 23.51C810.04 23.51 810.68 23.70 811.22 24.09C811.31 24.16 811.42 24.19 811.52 24.19C811.79 24.19 812.03 23.96 812.03 23.69C812.03 23.57 811.99 23.43 811.89 23.34C811.34 22.84 810.41 22.55 809.49 22.55C807.98 22.55 806.90 23.43 806.90 24.64C806.90 27.29 811.21 26.29 811.21 28.03C811.21 28.55 810.79 29.18 809.60 29.18C808.80 29.18 808.12 28.86 807.61 28.43C807.52 28.36 807.40 28.33 807.30 28.33C807.01 28.33 806.80 28.59 806.80 28.87C806.80 28.99 806.84 29.11 806.93 29.21C807.50 29.77 808.48 30.13 809.56 30.13C811.54 30.13 812.33 29.07 812.33 27.92ZM817.85 26.40C817.85 25.05 816.86 24.55 815.72 24.55C815.00 24.55 814.20 24.79 813.70 25.29C813.63 25.37 813.60 25.46 813.60 25.55C813.60 25.78 813.80 25.93 814.00 25.93C814.08 25.93 814.17 25.90 814.25 25.84C814.64 25.53 815.08 25.38 815.58 25.38C816.32 25.38 816.87 25.78 816.87 26.45L816.87 26.74L815.35 26.74C814.25 26.74 813.28 27.17 813.28 28.37C813.28 29.54 814.25 30.13 815.13 30.13C815.95 30.13 816.45 29.88 816.87 29.41L816.87 29.58C816.87 29.90 817.13 30.07 817.33 30.07L817.36 30.07C817.63 30.07 817.85 29.85 817.85 29.58ZM816.87 27.43L816.87 28.17C816.87 28.80 816.16 29.44 815.39 29.44C814.67 29.44 814.27 29.01 814.27 28.39C814.27 27.76 814.77 27.43 815.61 27.43ZM821.90 29.61C821.90 29.38 821.73 29.21 821.48 29.21C821.37 29.21 821.24 29.26 821.12 29.26C820.80 29.26 820.60 29.01 820.60 28.60L820.60 25.55L821.33 25.55C821.56 25.55 821.75 25.36 821.75 25.13C821.75 24.87 821.56 24.69 821.33 24.69L820.60 24.69L820.60 23.64C820.60 23.39 820.38 23.17 820.12 23.17C819.83 23.17 819.61 23.39 819.61 23.64L819.61 24.69L819.10 24.69C818.85 24.69 818.67 24.87 818.67 25.11C818.67 25.36 818.85 25.55 819.10 25.55L819.61 25.55L819.61 28.83C819.61 29.67 820.05 30.13 820.89 30.13C821.47 30.13 821.90 29.97 821.90 29.61Z" fill="#9aa7b4" /><path d="M24,208.804L29.739,209.003C35.478,209.203,46.957,209.601,58.435,209.801C69.913,210,81.391,210,92.87,210C104.348,210,115.826,210,127.304,210C138.783,210,150.261,210,161.739,210C173.217,210,184.696,210,196.174,209.934C207.652,209.867,219.13,209.734,230.609,207.498C242.087,205.261,253.565,200.92,265.043,200.309C276.522,199.698,288,202.816,299.478,204.15C310.957,205.483,322.435,205.032,333.913,204.342C345.391,203.653,356.87,202.724,368.348,202.02C379.826,201.315,391.304,200.836,402.783,199.701C414.261,198.566,425.739,196.776,437.217,196.067C448.696,195.357,460.174,195.729,471.652,195.877C483.13,196.025,494.609,195.948,506.087,197.082C517.565,198.216,529.043,200.562,540.522,201.735C552,202.908,563.478,202.908,574.957,202.483C586.435,202.057,597.913,201.206,609.391,195.146C620.87,189.086,632.348,177.818,643.826,177.275C655.304,176.731,666.783,186.911,678.261,191.186C689.739,195.461,701.217,193.83,712.696,192.873C724.174,191.915,735.652,191.63,747.13,194.172C758.609,196.713,770.087,202.081,781.565,205.19C793.043,208.299,804.522,209.15,810.261,209.575L816,210L816,210L810.261,210C804.522,210,793.043,210,781.565,210C770.087,210,758.609,210,747.13,210C735.652,210,724.174,210,712.696,210C701.217,210,689.739,210,678.261,210C666.783,210,655.304,210,643.826,210C632.348,210,620.87,210,609.391,210C597.913,210,586.435,210,574.957,210C563.478,210,552,210,540.522,210C529.043,210,517.565,210,506.087,210C494.609,210,483.13,210,471.652,210C460.174,210,448.696,210,437.217,210C425.739,210,414.261,210,402.783,210C391.304,210,379.826,210,368.348,210C356.87,210,345.391,210,333.913,210C322.435,210,310.957,210,299.478,210C288,210,276.522,210,265.043,210C253.565,210,242.087,210,230.609,210C219.13,210,207.652,210,196.174,210C184.696,210,173.217,210,161.739,210C150.261,210,138.783,210,127.304,210C115.826,210,104.348,210,92.87,210C81.391,210,69.913,210,58.435,210C46.957,210,35.478,210,29.739,210L24,210Z" fill="#673bd6" fill-opacity="0.12" stroke="#673bd6" stroke-width="1.5" /><path d="M24,209.92L29.739,209.934C35.478,209.947,46.957,209.973,58.435,209.987C69.913,210,81.391,210,92.87,209.974C104.348,209.948,115.826,209.895,127.304,209.737C138.783,209.579,150.261,209.316,161.739,203.505C173.217,197.695,184.696,186.337,196.174,168.805C207.652,151.274,219.13,127.568,230.609,121.844C242.087,116.121,253.565,128.38,265.043,130.67C276.522,132.96,288,125.28,299.478,123.187C310.957,121.093,322.435,124.586,333.913,124.857C345.391,125.129,356.87,122.178,368.348,121.389C379.826,120.599,391.304,121.97,402.783,127.987C414.261,134.003,425.739,144.664,437.217,151.096C448.696,157.528,460.174,159.731,471.652,157.301C483.13,154.87,494.609,147.805,506.087,141.207C517.565,134.609,529.043,128.478,540.522,133.455C552,138.432,563.478,154.517,574.957,160.008C586.435,165.498,597.913,160.395,609.391,160.706C620.87,161.017,632.348,166.743,643.826,172.389C655.304,178.034,666.783,183.601,678.261,188.449C689.739,193.296,701.217,197.424,712.696,197.782C724.174,198.141,735.652,194.729,747.13,194.463C758.609,194.197,770.087,197.076,781.565,200.19C793.043,203.303,804.522,206.652,810.261,208.326L816,210L816,210L810.261,210C804.522,210,793.043,210,781.565,210C770.087,210,758.609,210,747.13,210C735.652,210,724.174,210,712.696,210C701.217,210,689.739,210,678.261,210C666.783,210,655.304,210,643.826,210C632.348,210,620.87,210,609.391,210C597.913,210,586.435,210,574.957,210C563.478,210,552,210,540.522,210C529.043,210,517.565,210,506.087,210C494.609,210,483.13,210,471.652,210C460.174,210,448.696,210,437.217,210C425.739,210,414.261,210,402.783,210C391.304,210,379.826,210,368.348,210C356.87,210,345.391,210,333.913,210C322.435,210,310.957,210,299.478,210C288,210,276.522,210,265.043,210C253.565,210,242.087,210,230.609,210C219.13,210,207.652,210,196.174,210C184.696,210,173.217,210,161.739,210C150.261,210,138.783,210,127.304,210C115.826,210,104.348,210,92.87,210C81.391,210,69.913,210,58.435,210C46.957,210,35.478,210,29.739,210L24,210Z" fill="#535ae0" fill-opacity="0.12" stroke="#535ae0" stroke-width="1.5" /><path d="M24,209.92L29.739,209.934C35.478,209.947,46.957,209.973,58.435,209.987C69.913,210,81.391,210,92.87,209.894C104.348,209.788,115.826,209.576,127.304,209.206C138.783,208.835,150.261,208.306,161.739,204.546C173.217,200.786,184.696,193.796,196.174,181.012C207.652,168.229,219.13,149.652,230.609,148.222C242.087,146.792,253.565,162.51,265.043,158.582C276.522,154.654,288,131.08,299.478,109.709C310.957,88.338,322.435,69.169,333.913,69.156C345.391,69.143,356.87,88.286,368.348,100.02C379.826,111.755,391.304,116.081,402.783,120.075C414.261,124.07,425.739,127.733,437.217,125.982C448.696,124.231,460.174,117.066,471.652,115.648C483.13,114.231,494.609,118.562,506.087,126.756C517.565,134.949,529.043,147.006,540.522,151.918C552,156.83,563.478,154.597,574.957,155.256C586.435,155.916,597.913,159.466,609.391,155.679C620.87,151.892,632.348,140.767,643.826,146.525C655.304,152.283,666.783,174.924,678.261,184.5C689.739,194.076,701.217,190.585,712.696,189.163C724.174,187.741,735.652,188.387,747.13,189.716C758.609,191.044,770.087,193.055,781.565,196.549C793.043,200.043,804.522,205.022,810.261,207.511L816,210L816,210L810.261,210C804.522,210,793.043,210,781.565,210C770.087,210,758.609,210,747.13,210C735.652,210,724.174,210,712.696,210C701.217,210,689.739,210,678.261,210C666.783,210,655.304,210,643.826,210C632.348,210,620.87,210,609.391,210C597.913,210,586.435,210,574.957,210C563.478,210,552,210,540.522,210C529.043,210,517.565,210,506.087,210C494.609,210,483.13,210,471.652,210C460.174,210,448.696,210,437.217,210C425.739,210,414.261,210,402.783,210C391.304,210,379.826,210,368.348,210C356.87,210,345.391,210,333.913,210C322.435,210,310.957,210,299.478,210C288,210,276.522,210,265.043,210C253.565,210,242.087,210,230.609,210C219.13,210,207.652,210,196.174,210C184.696,210,173.217,210,161.739,210C150.261,210,138.783,210,127.304,210C115.826,210,104.348,210,92.87,210C81.391,210,69.913,210,58.435,210C46.957,210,35.478,210,29.739,210L24,210Z" fill="#3f77e9" fill-opacity="0.12" stroke="#3f77e9" stroke-width="1.5" /><path d="M24,209.92L29.739,209.92C35.478,209.92,46.957,209.92,58.435,209.854C69.913,209.787,81.391,209.655,92.87,209.642C104.348,209.629,115.826,209.736,127.304,208.217C138.783,206.697,150.261,203.552,161.739,199.583C173.217,195.614,184.696,190.822,196.174,184.248C207.652,177.674,219.13,169.318,230.609,159.2C242.087,149.082,253.565,137.201,265.043,129.774C276.522,122.346,288,119.371,299.478,120.877C310.957,122.382,322.435,128.369,333.913,128.179C345.391,127.988,356.87,121.621,368.348,114.448C379.826,107.275,391.304,99.297,402.783,101.76C414.261,104.224,425.739,117.13,437.217,116.661C448.696,116.191,460.174,102.347,471.652,103.47C483.13,104.593,494.609,120.684,506.087,129.414C517.565,138.144,529.043,139.514,540.522,139.973C552,140.432,563.478,139.98,574.957,144.955C586.435,149.931,597.913,160.334,609.391,164.779C620.87,169.225,632.348,167.711,643.826,167.523C655.304,167.334,666.783,168.47,678.261,171.049C689.739,173.629,701.217,177.653,712.696,178.559C724.174,179.465,735.652,177.254,747.13,181.23C758.609,185.207,770.087,195.371,781.565,201.198C793.043,207.024,804.522,208.512,810.261,209.256L816,210L816,210L810.261,210C804.522,210,793.043,210,781.565,210C770.087,210,758.609,210,747.13,210C735.652,210,724.174,210,712.696,210C701.217,210,689.739,210,678.261,210C666.783,210,655.304,210,643.826,210C632.348,210,620.87,210,609.391,210C597.913,210,586.435,210,574.957,210C563.478,210,552,210,540.522,210C529.043,210,517.565,210,506.087,210C494.609,210,483.13,210,471.652,210C460.174,210,448.696,210,437.217,210C425.739,210,414.261,210,402.783,210C391.304,210,379.826,210,368.348,210C356.87,210,345.391,210,333.913,210C322.435,210,310.957,210,299.478,210C288,210,276.522,210,265.043,210C253.565,210,242.087,210,230.609,210C219.13,210,207.652,210,196.174,210C184.696,210,173.217,210,161.739,210C150.261,210,138.783,210,127.304,210C115.826,210,104.348,210,92.87,210C81.391,210,69.913,210,58.435,210C46.957,210,35.478,210,29.739,210L24,210Z" fill="#2c96f2" fill-opacity="0.12" stroke="#2c96f2" stroke-width="1.5" /><path d="M24,209.841L29.739,209.867C35.478,209.894,46.957,209.947,58.435,209.867C69.913,209.787,81.391,209.575,92.87,209.522C104.348,209.469,115.826,209.575,127.304,209.31C138.783,209.045,150.261,208.408,161.739,200.722C173.217,193.036,184.696,178.301,196.174,168.463C207.652,158.625,219.13,153.685,230.609,151.99C242.087,150.295,253.565,151.844,265.043,146.349C276.522,140.853,288,128.313,299.478,117.189C310.957,106.065,322.435,96.357,333.913,89.546C345.391,82.734,356.87,78.819,368.348,77.696C379.826,76.573,391.304,78.242,402.783,79.986C414.261,81.729,425.739,83.547,437.217,89.176C448.696,94.805,460.174,104.245,471.652,107.83C483.13,111.416,494.609,109.146,506.087,113.422C517.565,117.699,529.043,128.522,540.522,135.59C552,142.659,563.478,145.973,574.957,148.663C586.435,151.353,597.913,153.42,609.391,154.878C620.87,156.336,632.348,157.185,643.826,163.348C655.304,169.511,666.783,180.987,678.261,187.084C689.739,193.18,701.217,193.897,712.696,191.859C724.174,189.822,735.652,185.029,747.13,185.614C758.609,186.199,770.087,192.16,781.565,197.121C793.043,202.081,804.522,206.041,810.261,208.02L816,210L816,210L810.261,210C804.522,210,793.043,210,781.565,210C770.087,210,758.609,210,747.13,210C735.652,210,724.174,210,712.696,210C701.217,210,689.739,210,678.261,210C666.783,210,655.304,210,643.826,210C632.348,210,620.87,210,609.391,210C597.913,210,586.435,210,574.957,210C563.478,210,552,210,540.522,210C529.043,210,517.565,210,506.087,210C494.609,210,483.13,210,471.652,210C460.174,210,448.696,210,437.217,210C425.739,210,414.261,210,402.783,210C391.304,210,379.826,210,368.348,210C356.87,210,345.391,210,333.913,210C322.435,210,310.957,210,299.478,210C288,210,276.522,210,265.043,210C253.565,210,242.087,210,230.609,210C219.13,210,207.652,210,196.174,210C184.696,210,173.217,210,161.739,210C150.261,210,138.783,210,127.304,210C115.826,210,104.348,210,92.87,210C81.391,210,69.913,210,58.435,210C46.957,210,35.478,210,29.739,210L24,210Z" fill="#34adf0" fill-opacity="0.12" stroke="#34adf0" stroke-width="1.5" /><path d="M24,208.724L29.739,208.724C35.478,208.724,46.957,208.724,58.435,208.937C69.913,209.15,81.391,209.575,92.87,209.761C104.348,209.948,115.826,209.895,127.304,209.803C138.783,209.711,150.261,209.58,161.739,206.772C173.217,203.964,184.696,198.479,196.174,190.56C207.652,182.64,219.13,172.286,230.609,161.567C242.087,150.849,253.565,139.766,265.043,128.525C276.522,117.284,288,105.885,299.478,102.537C310.957,99.188,322.435,103.891,333.913,107.797C345.391,111.703,356.87,114.812,368.348,118.346C379.826,121.88,391.304,125.84,402.783,127.563C414.261,129.285,425.739,128.771,437.217,125.932C448.696,123.093,460.174,117.929,471.652,114.896C483.13,111.863,494.609,110.96,506.087,115.337C517.565,119.714,529.043,129.369,540.522,138.333C552,147.297,563.478,155.57,574.957,163.493C586.435,171.416,597.913,178.99,609.391,182.998C620.87,187.006,632.348,187.448,643.826,190.026C655.304,192.603,666.783,197.315,678.261,197.706C689.739,198.098,701.217,194.167,712.696,194C724.174,193.833,735.652,197.428,747.13,200.177C758.609,202.927,770.087,204.829,781.565,206.325C793.043,207.821,804.522,208.91,810.261,209.455L816,210L816,210L810.261,210C804.522,210,793.043,210,781.565,210C770.087,210,758.609,210,747.13,210C735.652,210,724.174,210,712.696,210C701.217,210,689.739,210,678.261,210C666.783,210,655.304,210,643.826,210C632.348,210,620.87,210,609.391,210C597.913,210,586.435,210,574.957,210C563.478,210,552,210,540.522,210C529.043,210,517.565,210,506.087,210C494.609,210,483.13,210,471.652,210C460.174,210,448.696,210,437.217,210C425.739,210,414.261,210,402.783,210C391.304,210,379.826,210,368.348,210C356.87,210,345.391,210,333.913,210C322.435,210,310.957,210,299.478,210C288,210,276.522,210,265.043,210C253.565,210,242.087,210,230.609,210C219.13,210,207.652,210,196.174,210C184.696,210,173.217,210,161.739,210C150.261,210,138.783,210,127.304,210C115.826,210,104.348,210,92.87,210C81.391,210,69.913,210,58.435,210C46.957,210,35.478,210,29.739,210L24,210Z" fill="#56bce1" fill-opacity="0.12" stroke="#56bce1" stroke-width="1.5" /><path d="M24,209.761L29.739,209.787C35.478,209.814,46.957,209.867,58.435,209.907C69.913,209.947,81.391,209.973,92.87,209.987C104.348,210,115.826,210,127.304,209.867C138.783,209.734,150.261,209.469,161.739,209.415C173.217,209.362,184.696,209.522,196.174,209.442C207.652,209.362,219.13,209.043,230.609,207.622C242.087,206.201,253.565,203.677,265.043,201.674C276.522,199.671,288,198.188,299.478,195.455C310.957,192.721,322.435,188.735,333.913,187.47C345.391,186.204,356.87,187.659,368.348,190.352C379.826,193.046,391.304,196.979,402.783,199.743C414.261,202.506,425.739,204.101,437.217,204.951C448.696,205.801,460.174,205.908,471.652,205.962C483.13,206.015,494.609,206.017,506.087,204.994C517.565,203.971,529.043,201.925,540.522,198.584C552,195.244,563.478,190.61,574.957,189.282C586.435,187.954,597.913,189.931,609.391,191.645C620.87,193.359,632.348,194.811,643.826,197.122C655.304,199.434,666.783,202.604,678.261,203.95C689.739,205.296,701.217,204.818,712.696,203.339C724.174,201.859,735.652,199.379,747.13,199.1C758.609,198.821,770.087,200.743,781.565,202.927C793.043,205.11,804.522,207.555,810.261,208.778L816,210L816,210L810.261,210C804.522,210,793.043,210,781.565,210C770.087,210,758.609,210,747.13,210C735.652,210,724.174,210,712.696,210C701.217,210,689.739,210,678.261,210C666.783,210,655.304,210,643.826,210C632.348,210,620.87,210,609.391,210C597.913,210,586.435,210,574.957,210C563.478,210,552,210,540.522,210C529.043,210,517.565,210,506.087,210C494.609,210,483.13,210,471.652,210C460.174,210,448.696,210,437.217,210C425.739,210,414.261,210,402.783,210C391.304,210,379.826,210,368.348,210C356.87,210,345.391,210,333.913,210C322.435,210,310.957,210,299.478,210C288,210,276.522,210,265.043,210C253.565,210,242.087,210,230.609,210C219.13,210,207.652,210,196.174,210C184.696,210,173.217,210,161.739,210C150.261,210,138.783,210,127.304,210C115.826,210,104.348,210,92.87,210C81.391,210,69.913,210,58.435,210C46.957,210,35.478,210,29.739,210L24,210Z" fill="#7accd4" fill-opacity="0.12" stroke="#7accd4" stroke-width="1.5" /><path d="M17.50 226.67C17.50 225.02 16.73 223.23 14.89 223.23C13.04 223.23 12.28 225.02 12.28 226.67C12.28 228.32 13.04 230.12 14.89 230.12C16.73 230.12 17.50 228.32 17.50 226.67ZM16.49 226.67C16.49 227.97 16.07 229.24 14.89 229.24C13.70 229.24 13.29 227.97 13.29 226.67C13.29 225.37 13.70 224.11 14.89 224.11C16.07 224.11 16.49 225.37 16.49 226.67ZM20.80 223.83C20.80 223.52 20.53 223.28 20.23 223.28C20.07 223.28 19.93 223.33 19.83 223.44L18.38 224.91C18.30 225 18.26 225.10 18.26 225.21C18.26 225.45 18.47 225.63 18.68 225.63C18.79 225.63 18.88 225.59 18.96 225.51L19.81 224.63L19.81 229.57C19.81 229.84 20.03 230.06 20.30 230.06C20.58 230.06 20.80 229.84 20.80 229.57ZM23.34 225.72C23.34 225.38 23.06 225.10 22.72 225.10C22.39 225.10 22.11 225.38 22.11 225.72C22.11 226.06 22.39 226.34 22.72 226.34C23.06 226.34 23.34 226.06 23.34 225.72ZM23.34 229.48C23.34 229.15 23.06 228.86 22.72 228.86C22.39 228.86 22.11 229.15 22.11 229.48C22.11 229.82 22.39 230.10 22.72 230.10C23.06 230.10 23.34 229.82 23.34 229.48ZM29.58 226.67C29.58 225.02 28.81 223.23 26.97 223.23C25.12 223.23 24.36 225.02 24.36 226.67C24.36 228.32 25.12 230.12 26.97 230.12C28.81 230.12 29.58 228.32 29.58 226.67ZM28.57 226.67C28.57 227.97 28.15 229.24 26.97 229.24C25.78 229.24 25.37 227.97 25.37 226.67C25.37 225.37 25.78 224.11 26.97 224.11C28.15 224.11 28.57 225.37 28.57 226.67ZM35.72 226.67C35.72 225.02 34.95 223.23 33.11 223.23C31.26 223.23 30.50 225.02 30.50 226.67C30.50 228.32 31.26 230.12 33.11 230.12C34.95 230.12 35.72 228.32 35.72 226.67ZM34.71 226.67C34.71 227.97 34.29 229.24 33.11 229.24C31.92 229.24 31.51 227.97 31.51 226.67C31.51 225.37 31.92 224.11 33.11 224.11C34.29 224.11 34.71 225.37 34.71 226.67Z" fill="#9aa7b4" /><path d="M85.33 226.67C85.33 225.02 84.56 223.23 82.72 223.23C80.87 223.23 80.11 225.02 80.11 226.67C80.11 228.32 80.87 230.12 82.72 230.12C84.56 230.12 85.33 228.32 85.33 226.67ZM84.32 226.67C84.32 227.97 83.90 229.24 82.72 229.24C81.53 229.24 81.12 227.97 81.12 226.67C81.12 225.37 81.53 224.11 82.72 224.11C83.90 224.11 84.32 225.37 84.32 226.67ZM90.93 228.19C90.93 226.94 89.98 226.56 89.98 226.56C89.98 226.56 90.83 226.15 90.83 225.02C90.83 223.89 89.85 223.23 88.50 223.23C87.60 223.23 86.90 223.54 86.37 224.03C86.29 224.10 86.24 224.22 86.24 224.33C86.24 224.57 86.46 224.75 86.67 224.75C86.76 224.75 86.85 224.72 86.92 224.66C87.35 224.30 87.84 224.11 88.41 224.11C89.19 224.11 89.84 224.47 89.84 225.16C89.84 226 89.19 226.16 88.22 226.15C87.97 226.15 87.79 226.34 87.79 226.58C87.79 227.02 88.21 227.05 88.57 227.03C89.34 227.03 89.95 227.35 89.95 228.10C89.95 228.80 89.39 229.24 88.47 229.24C87.86 229.24 87.29 229.01 86.86 228.64C86.78 228.57 86.68 228.54 86.59 228.54C86.35 228.54 86.15 228.76 86.15 228.99C86.15 229.08 86.18 229.17 86.25 229.24C86.68 229.75 87.54 230.12 88.50 230.12C90.00 230.12 90.93 229.31 90.93 228.19ZM93.24 225.72C93.24 225.38 92.96 225.10 92.62 225.10C92.29 225.10 92.01 225.38 92.01 225.72C92.01 226.06 92.29 226.34 92.62 226.34C92.96 226.34 93.24 226.06 93.24 225.72ZM93.24 229.48C93.24 229.15 92.96 228.86 92.62 228.86C92.29 228.86 92.01 229.15 92.01 229.48C92.01 229.82 92.29 230.10 92.62 230.10C92.96 230.10 93.24 229.82 93.24 229.48ZM99.48 226.67C99.48 225.02 98.71 223.23 96.87 223.23C95.02 223.23 94.26 225.02 94.26 226.67C94.26 228.32 95.02 230.12 96.87 230.12C98.71 230.12 99.48 228.32 99.48 226.67ZM98.47 226.67C98.47 227.97 98.05 229.24 96.87 229.24C95.68 229.24 95.27 227.97 95.27 226.67C95.27 225.37 95.68 224.11 96.87 224.11C98.05 224.11 98.47 225.37 98.47 226.67ZM105.62 226.67C105.62 225.02 104.85 223.23 103.01 223.23C101.16 223.23 100.40 225.02 100.40 226.67C100.40 228.32 101.16 230.12 103.01 230.12C104.85 230.12 105.62 228.32 105.62 226.67ZM104.61 226.67C104.61 227.97 104.19 229.24 103.01 229.24C101.82 229.24 101.41 227.97 101.41 226.67C101.41 225.37 101.82 224.11 103.01 224.11C104.19 224.11 104.61 225.37 104.61 226.67Z" fill="#9aa7b4" /><path d="M154.05 226.67C154.05 225.02 153.28 223.23 151.44 223.23C149.59 223.23 148.83 225.02 148.83 226.67C148.83 228.32 149.59 230.12 151.44 230.12C153.28 230.12 154.05 228.32 154.05 226.67ZM153.04 226.67C153.04 227.97 152.62 229.24 151.44 229.24C150.25 229.24 149.84 227.97 149.84 226.67C149.84 225.37 150.25 224.11 151.44 224.11C152.62 224.11 153.04 225.37 153.04 226.67ZM159.98 227.89C159.98 226.53 158.97 225.75 157.86 225.75C157.20 225.75 156.64 226.02 156.32 226.34L156.32 224.21L159.18 224.21C159.42 224.21 159.61 224.01 159.61 223.78C159.61 223.52 159.42 223.33 159.18 223.33L155.99 223.33C155.63 223.33 155.33 223.62 155.33 223.98L155.33 226.70C155.33 226.98 155.56 227.19 155.84 227.19C155.98 227.19 156.12 227.13 156.24 227.05C156.62 226.75 157.07 226.61 157.55 226.61C158.41 226.61 158.99 227.13 158.99 227.93C158.99 228.67 158.41 229.24 157.53 229.24C156.90 229.24 156.39 229.04 155.97 228.67C155.89 228.60 155.78 228.56 155.68 228.56C155.43 228.56 155.24 228.80 155.24 229.02C155.24 229.12 155.27 229.21 155.33 229.29C155.79 229.82 156.59 230.12 157.53 230.12C158.95 230.12 159.98 229.27 159.98 227.89ZM162.26 225.72C162.26 225.38 161.98 225.10 161.64 225.10C161.31 225.10 161.03 225.38 161.03 225.72C161.03 226.06 161.31 226.34 161.64 226.34C161.98 226.34 162.26 226.06 162.26 225.72ZM162.26 229.48C162.26 229.15 161.98 228.86 161.64 228.86C161.31 228.86 161.03 229.15 161.03 229.48C161.03 229.82 161.31 230.10 161.64 230.10C161.98 230.10 162.26 229.82 162.26 229.48ZM168.50 226.67C168.50 225.02 167.73 223.23 165.89 223.23C164.04 223.23 163.28 225.02 163.28 226.67C163.28 228.32 164.04 230.12 165.89 230.12C167.73 230.12 168.50 228.32 168.50 226.67ZM167.49 226.67C167.49 227.97 167.07 229.24 165.89 229.24C164.70 229.24 164.29 227.97 164.29 226.67C164.29 225.37 164.70 224.11 165.89 224.11C167.07 224.11 167.49 225.37 167.49 226.67ZM174.64 226.67C174.64 225.02 173.87 223.23 172.03 223.23C170.18 223.23 169.42 225.02 169.42 226.67C169.42 228.32 170.18 230.12 172.03 230.12C173.87 230.12 174.64 228.32 174.64 226.67ZM173.63 226.67C173.63 227.97 173.21 229.24 172.03 229.24C170.84 229.24 170.43 227.97 170.43 226.67C170.43 225.37 170.84 224.11 172.03 224.11C173.21 224.11 173.63 225.37 173.63 226.67Z" fill="#9aa7b4" /><path d="M223.28 226.67C223.28 225.02 222.51 223.23 220.67 223.23C218.82 223.23 218.06 225.02 218.06 226.67C218.06 228.32 218.82 230.12 220.67 230.12C222.51 230.12 223.28 228.32 223.28 226.67ZM222.27 226.67C222.27 227.97 221.85 229.24 220.67 229.24C219.48 229.24 219.07 227.97 219.07 226.67C219.07 225.37 219.48 224.11 220.67 224.11C221.85 224.11 222.27 225.37 222.27 226.67ZM228.76 223.81C228.76 223.52 228.51 223.33 228.29 223.33L224.40 223.33C224.16 223.33 223.97 223.52 223.97 223.76C223.97 224.01 224.16 224.21 224.40 224.21L227.56 224.21L225.23 229.38C225.20 229.44 225.18 229.51 225.18 229.57C225.18 229.82 225.39 230.06 225.69 230.06C225.88 230.06 226.06 229.95 226.14 229.77L228.72 223.99C228.74 223.94 228.76 223.87 228.76 223.81ZM230.77 225.72C230.77 225.38 230.49 225.10 230.15 225.10C229.82 225.10 229.54 225.38 229.54 225.72C229.54 226.06 229.82 226.34 230.15 226.34C230.49 226.34 230.77 226.06 230.77 225.72ZM230.77 229.48C230.77 229.15 230.49 228.86 230.15 228.86C229.82 228.86 229.54 229.15 229.54 229.48C229.54 229.82 229.82 230.10 230.15 230.10C230.49 230.10 230.77 229.82 230.77 229.48ZM237.01 226.67C237.01 225.02 236.24 223.23 234.40 223.23C232.55 223.23 231.79 225.02 231.79 226.67C231.79 228.32 232.55 230.12 234.40 230.12C236.24 230.12 237.01 228.32 237.01 226.67ZM236.00 226.67C236.00 227.97 235.58 229.24 234.40 229.24C233.21 229.24 232.80 227.97 232.80 226.67C232.80 225.37 233.21 224.11 234.40 224.11C235.58 224.11 236.00 225.37 236.00 226.67ZM243.15 226.67C243.15 225.02 242.38 223.23 240.54 223.23C238.69 223.23 237.93 225.02 237.93 226.67C237.93 228.32 238.69 230.12 240.54 230.12C242.38 230.12 243.15 228.32 243.15 226.67ZM242.14 226.67C242.14 227.97 241.72 229.24 240.54 229.24C239.35 229.24 238.94 227.97 238.94 226.67C238.94 225.37 239.35 224.11 240.54 224.11C241.72 224.11 242.14 225.37 242.14 226.67Z" fill="#9aa7b4" /><path d="M291.79 226.67C291.79 225.02 291.02 223.23 289.18 223.23C287.33 223.23 286.57 225.02 286.57 226.67C286.57 228.32 287.33 230.12 289.18 230.12C291.02 230.12 291.79 228.32 291.79 226.67ZM290.78 226.67C290.78 227.97 290.36 229.24 289.18 229.24C287.99 229.24 287.58 227.97 287.58 226.67C287.58 225.37 287.99 224.11 289.18 224.11C290.36 224.11 290.78 225.37 290.78 226.67ZM297.74 226.66C297.74 224.83 296.99 223.22 295.09 223.22C293.61 223.22 292.69 224.23 292.69 225.43C292.69 226.85 293.69 227.57 294.89 227.57C295.72 227.57 296.44 227.24 296.73 226.68C296.74 226.73 296.74 226.79 296.74 226.81C296.74 228.04 296.13 229.23 294.92 229.23C294.44 229.23 294.10 229.09 293.82 228.86C293.75 228.81 293.66 228.78 293.56 228.78C293.33 228.78 293.11 228.97 293.11 229.22C293.11 229.32 293.15 229.41 293.21 229.48C293.61 229.91 294.21 230.11 294.92 230.11C296.82 230.11 297.74 228.53 297.74 226.66ZM296.47 225.42C296.47 226.05 295.94 226.72 295.12 226.72C294.12 226.72 293.69 226.10 293.69 225.39C293.69 224.80 294.17 224.10 295.13 224.10C296.03 224.10 296.47 224.74 296.47 225.42ZM300.01 225.72C300.01 225.38 299.73 225.10 299.39 225.10C299.06 225.10 298.78 225.38 298.78 225.72C298.78 226.06 299.06 226.34 299.39 226.34C299.73 226.34 300.01 226.06 300.01 225.72ZM300.01 229.48C300.01 229.15 299.73 228.86 299.39 228.86C299.06 228.86 298.78 229.15 298.78 229.48C298.78 229.82 299.06 230.10 299.39 230.10C299.73 230.10 300.01 229.82 300.01 229.48ZM306.25 226.67C306.25 225.02 305.48 223.23 303.64 223.23C301.79 223.23 301.03 225.02 301.03 226.67C301.03 228.32 301.79 230.12 303.64 230.12C305.48 230.12 306.25 228.32 306.25 226.67ZM305.24 226.67C305.24 227.97 304.82 229.24 303.64 229.24C302.45 229.24 302.04 227.97 302.04 226.67C302.04 225.37 302.45 224.11 303.64 224.11C304.82 224.11 305.24 225.37 305.24 226.67ZM312.39 226.67C312.39 225.02 311.62 223.23 309.78 223.23C307.93 223.23 307.17 225.02 307.17 226.67C307.17 228.32 307.93 230.12 309.78 230.12C311.62 230.12 312.39 228.32 312.39 226.67ZM311.38 226.67C311.38 227.97 310.96 229.24 309.78 229.24C308.59 229.24 308.18 227.97 308.18 226.67C308.18 225.37 308.59 224.11 309.78 224.11C310.96 224.11 311.38 225.37 311.38 226.67Z" fill="#9aa7b4" /><path d="M360.29 223.83C360.29 223.52 360.02 223.28 359.72 223.28C359.56 223.28 359.42 223.33 359.32 223.44L357.87 224.91C357.79 225 357.75 225.10 357.75 225.21C357.75 225.45 357.96 225.63 358.17 225.63C358.28 225.63 358.37 225.59 358.45 225.51L359.30 224.63L359.30 229.57C359.30 229.84 359.52 230.06 359.79 230.06C360.07 230.06 360.29 229.84 360.29 229.57ZM363.87 223.83C363.87 223.52 363.60 223.28 363.30 223.28C363.14 223.28 363.00 223.33 362.90 223.44L361.45 224.91C361.37 225 361.33 225.10 361.33 225.21C361.33 225.45 361.54 225.63 361.75 225.63C361.86 225.63 361.95 225.59 362.03 225.51L362.88 224.63L362.88 229.57C362.88 229.84 363.10 230.06 363.37 230.06C363.65 230.06 363.87 229.84 363.87 229.57ZM366.41 225.72C366.41 225.38 366.13 225.10 365.79 225.10C365.46 225.10 365.18 225.38 365.18 225.72C365.18 226.06 365.46 226.34 365.79 226.34C366.13 226.34 366.41 226.06 366.41 225.72ZM366.41 229.48C366.41 229.15 366.13 228.86 365.79 228.86C365.46 228.86 365.18 229.15 365.18 229.48C365.18 229.82 365.46 230.10 365.79 230.10C366.13 230.10 366.41 229.82 366.41 229.48ZM372.65 226.67C372.65 225.02 371.88 223.23 370.04 223.23C368.19 223.23 367.43 225.02 367.43 226.67C367.43 228.32 368.19 230.12 370.04 230.12C371.88 230.12 372.65 228.32 372.65 226.67ZM371.64 226.67C371.64 227.97 371.22 229.24 370.04 229.24C368.85 229.24 368.44 227.97 368.44 226.67C368.44 225.37 368.85 224.11 370.04 224.11C371.22 224.11 371.64 225.37 371.64 226.67ZM378.79 226.67C378.79 225.02 378.02 223.23 376.18 223.23C374.33 223.23 373.57 225.02 373.57 226.67C373.57 228.32 374.33 230.12 376.18 230.12C378.02 230.12 378.79 228.32 378.79 226.67ZM377.78 226.67C377.78 227.97 377.36 229.24 376.18 229.24C374.99 229.24 374.58 227.97 374.58 226.67C374.58 225.37 374.99 224.11 376.18 224.11C377.36 224.11 377.78 225.37 377.78 226.67Z" fill="#9aa7b4" /><path d="M428.12 223.83C428.12 223.52 427.85 223.28 427.55 223.28C427.39 223.28 427.25 223.33 427.15 223.44L425.70 224.91C425.62 225 425.58 225.10 425.58 225.21C425.58 225.45 425.79 225.63 426.00 225.63C426.11 225.63 426.20 225.59 426.28 225.51L427.13 224.63L427.13 229.57C427.13 229.84 427.35 230.06 427.62 230.06C427.90 230.06 428.12 229.84 428.12 229.57ZM434.00 228.19C434.00 226.94 433.05 226.56 433.05 226.56C433.05 226.56 433.90 226.15 433.90 225.02C433.90 223.89 432.92 223.23 431.57 223.23C430.67 223.23 429.97 223.54 429.44 224.03C429.36 224.10 429.31 224.22 429.31 224.33C429.31 224.57 429.53 224.75 429.74 224.75C429.83 224.75 429.92 224.72 429.99 224.66C430.42 224.30 430.91 224.11 431.48 224.11C432.26 224.11 432.91 224.47 432.91 225.16C432.91 226 432.26 226.16 431.29 226.15C431.04 226.15 430.86 226.34 430.86 226.58C430.86 227.02 431.28 227.05 431.64 227.03C432.41 227.03 433.02 227.35 433.02 228.10C433.02 228.80 432.46 229.24 431.54 229.24C430.93 229.24 430.36 229.01 429.93 228.64C429.85 228.57 429.75 228.54 429.66 228.54C429.42 228.54 429.22 228.76 429.22 228.99C429.22 229.08 429.25 229.17 429.32 229.24C429.75 229.75 430.61 230.12 431.57 230.12C433.07 230.12 434.00 229.31 434.00 228.19ZM436.31 225.72C436.31 225.38 436.03 225.10 435.69 225.10C435.36 225.10 435.08 225.38 435.08 225.72C435.08 226.06 435.36 226.34 435.69 226.34C436.03 226.34 436.31 226.06 436.31 225.72ZM436.31 229.48C436.31 229.15 436.03 228.86 435.69 228.86C435.36 228.86 435.08 229.15 435.08 229.48C435.08 229.82 435.36 230.10 435.69 230.10C436.03 230.10 436.31 229.82 436.31 229.48ZM442.55 226.67C442.55 225.02 441.78 223.23 439.94 223.23C438.09 223.23 437.33 225.02 437.33 226.67C437.33 228.32 438.09 230.12 439.94 230.12C441.78 230.12 442.55 228.32 442.55 226.67ZM441.54 226.67C441.54 227.97 441.12 229.24 439.94 229.24C438.75 229.24 438.34 227.97 438.34 226.67C438.34 225.37 438.75 224.11 439.94 224.11C441.12 224.11 441.54 225.37 441.54 226.67ZM448.69 226.67C448.69 225.02 447.92 223.23 446.08 223.23C444.23 223.23 443.47 225.02 443.47 226.67C443.47 228.32 444.23 230.12 446.08 230.12C447.92 230.12 448.69 228.32 448.69 226.67ZM447.68 226.67C447.68 227.97 447.26 229.24 446.08 229.24C444.89 229.24 444.48 227.97 444.48 226.67C444.48 225.37 444.89 224.11 446.08 224.11C447.26 224.11 447.68 225.37 447.68 226.67Z" fill="#9aa7b4" /><path d="M496.84 223.83C496.84 223.52 496.57 223.28 496.27 223.28C496.11 223.28 495.97 223.33 495.87 223.44L494.42 224.91C494.34 225 494.30 225.10 494.30 225.21C494.30 225.45 494.51 225.63 494.72 225.63C494.83 225.63 494.92 225.59 495.00 225.51L495.85 224.63L495.85 229.57C495.85 229.84 496.07 230.06 496.34 230.06C496.62 230.06 496.84 229.84 496.84 229.57ZM503.05 227.89C503.05 226.53 502.04 225.75 500.93 225.75C500.27 225.75 499.71 226.02 499.39 226.34L499.39 224.21L502.25 224.21C502.49 224.21 502.68 224.01 502.68 223.78C502.68 223.52 502.49 223.33 502.25 223.33L499.06 223.33C498.70 223.33 498.40 223.62 498.40 223.98L498.40 226.70C498.40 226.98 498.63 227.19 498.91 227.19C499.05 227.19 499.19 227.13 499.31 227.05C499.69 226.75 500.14 226.61 500.62 226.61C501.48 226.61 502.06 227.13 502.06 227.93C502.06 228.67 501.48 229.24 500.60 229.24C499.97 229.24 499.46 229.04 499.04 228.67C498.96 228.60 498.85 228.56 498.75 228.56C498.50 228.56 498.31 228.80 498.31 229.02C498.31 229.12 498.34 229.21 498.40 229.29C498.86 229.82 499.66 230.12 500.60 230.12C502.02 230.12 503.05 229.27 503.05 227.89ZM505.33 225.72C505.33 225.38 505.05 225.10 504.71 225.10C504.38 225.10 504.10 225.38 504.10 225.72C504.10 226.06 504.38 226.34 504.71 226.34C505.05 226.34 505.33 226.06 505.33 225.72ZM505.33 229.48C505.33 229.15 505.05 228.86 504.71 228.86C504.38 228.86 504.10 229.15 504.10 229.48C504.10 229.82 504.38 230.10 504.71 230.10C505.05 230.10 505.33 229.82 505.33 229.48ZM511.57 226.67C511.57 225.02 510.80 223.23 508.96 223.23C507.11 223.23 506.35 225.02 506.35 226.67C506.35 228.32 507.11 230.12 508.96 230.12C510.80 230.12 511.57 228.32 511.57 226.67ZM510.56 226.67C510.56 227.97 510.14 229.24 508.96 229.24C507.77 229.24 507.36 227.97 507.36 226.67C507.36 225.37 507.77 224.11 508.96 224.11C510.14 224.11 510.56 225.37 510.56 226.67ZM517.71 226.67C517.71 225.02 516.94 223.23 515.10 223.23C513.25 223.23 512.49 225.02 512.49 226.67C512.49 228.32 513.25 230.12 515.10 230.12C516.94 230.12 517.71 228.32 517.71 226.67ZM516.70 226.67C516.70 227.97 516.28 229.24 515.10 229.24C513.91 229.24 513.50 227.97 513.50 226.67C513.50 225.37 513.91 224.11 515.10 224.11C516.28 224.11 516.70 225.37 516.70 226.67Z" fill="#9aa7b4" /><path d="M566.07 223.83C566.07 223.52 565.80 223.28 565.50 223.28C565.34 223.28 565.20 223.33 565.10 223.44L563.65 224.91C563.57 225 563.53 225.10 563.53 225.21C563.53 225.45 563.74 225.63 563.95 225.63C564.06 225.63 564.15 225.59 564.23 225.51L565.08 224.63L565.08 229.57C565.08 229.84 565.30 230.06 565.57 230.06C565.85 230.06 566.07 229.84 566.07 229.57ZM571.83 223.81C571.83 223.52 571.58 223.33 571.36 223.33L567.47 223.33C567.23 223.33 567.04 223.52 567.04 223.76C567.04 224.01 567.23 224.21 567.47 224.21L570.63 224.21L568.30 229.38C568.27 229.44 568.25 229.51 568.25 229.57C568.25 229.82 568.46 230.06 568.76 230.06C568.95 230.06 569.13 229.95 569.21 229.77L571.79 223.99C571.81 223.94 571.83 223.87 571.83 223.81ZM573.84 225.72C573.84 225.38 573.56 225.10 573.22 225.10C572.89 225.10 572.61 225.38 572.61 225.72C572.61 226.06 572.89 226.34 573.22 226.34C573.56 226.34 573.84 226.06 573.84 225.72ZM573.84 229.48C573.84 229.15 573.56 228.86 573.22 228.86C572.89 228.86 572.61 229.15 572.61 229.48C572.61 229.82 572.89 230.10 573.22 230.10C573.56 230.10 573.84 229.82 573.84 229.48ZM580.08 226.67C580.08 225.02 579.31 223.23 577.47 223.23C575.62 223.23 574.86 225.02 574.86 226.67C574.86 228.32 575.62 230.12 577.47 230.12C579.31 230.12 580.08 228.32 580.08 226.67ZM579.07 226.67C579.07 227.97 578.65 229.24 577.47 229.24C576.28 229.24 575.87 227.97 575.87 226.67C575.87 225.37 576.28 224.11 577.47 224.11C578.65 224.11 579.07 225.37 579.07 226.67ZM586.22 226.67C586.22 225.02 585.45 223.23 583.61 223.23C581.76 223.23 581.00 225.02 581.00 226.67C581.00 228.32 581.76 230.12 583.61 230.12C585.45 230.12 586.22 228.32 586.22 226.67ZM585.21 226.67C585.21 227.97 584.79 229.24 583.61 229.24C582.42 229.24 582.01 227.97 582.01 226.67C582.01 225.37 582.42 224.11 583.61 224.11C584.79 224.11 585.21 225.37 585.21 226.67Z" fill="#9aa7b4" /><path d="M634.58 223.83C634.58 223.52 634.31 223.28 634.01 223.28C633.85 223.28 633.71 223.33 633.61 223.44L632.16 224.91C632.08 225 632.04 225.10 632.04 225.21C632.04 225.45 632.25 225.63 632.46 225.63C632.57 225.63 632.66 225.59 632.74 225.51L633.59 224.63L633.59 229.57C633.59 229.84 633.81 230.06 634.08 230.06C634.36 230.06 634.58 229.84 634.58 229.57ZM640.81 226.66C640.81 224.83 640.06 223.22 638.16 223.22C636.68 223.22 635.76 224.23 635.76 225.43C635.76 226.85 636.76 227.57 637.96 227.57C638.79 227.57 639.51 227.24 639.80 226.68C639.81 226.73 639.81 226.79 639.81 226.81C639.81 228.04 639.20 229.23 637.99 229.23C637.51 229.23 637.17 229.09 636.89 228.86C636.82 228.81 636.73 228.78 636.63 228.78C636.40 228.78 636.18 228.97 636.18 229.22C636.18 229.32 636.22 229.41 636.28 229.48C636.68 229.91 637.28 230.11 637.99 230.11C639.89 230.11 640.81 228.53 640.81 226.66ZM639.54 225.42C639.54 226.05 639.01 226.72 638.19 226.72C637.19 226.72 636.76 226.10 636.76 225.39C636.76 224.80 637.24 224.10 638.20 224.10C639.10 224.10 639.54 224.74 639.54 225.42ZM643.08 225.72C643.08 225.38 642.80 225.10 642.46 225.10C642.13 225.10 641.85 225.38 641.85 225.72C641.85 226.06 642.13 226.34 642.46 226.34C642.80 226.34 643.08 226.06 643.08 225.72ZM643.08 229.48C643.08 229.15 642.80 228.86 642.46 228.86C642.13 228.86 641.85 229.15 641.85 229.48C641.85 229.82 642.13 230.10 642.46 230.10C642.80 230.10 643.08 229.82 643.08 229.48ZM649.32 226.67C649.32 225.02 648.55 223.23 646.71 223.23C644.86 223.23 644.10 225.02 644.10 226.67C644.10 228.32 644.86 230.12 646.71 230.12C648.55 230.12 649.32 228.32 649.32 226.67ZM648.31 226.67C648.31 227.97 647.89 229.24 646.71 229.24C645.52 229.24 645.11 227.97 645.11 226.67C645.11 225.37 645.52 224.11 646.71 224.11C647.89 224.11 648.31 225.37 648.31 226.67ZM655.46 226.67C655.46 225.02 654.69 223.23 652.85 223.23C651.00 223.23 650.24 225.02 650.24 226.67C650.24 228.32 651.00 230.12 652.85 230.12C654.69 230.12 655.46 228.32 655.46 226.67ZM654.45 226.67C654.45 227.97 654.03 229.24 652.85 229.24C651.66 229.24 651.25 227.97 651.25 226.67C651.25 225.37 651.66 224.11 652.85 224.11C654.03 224.11 654.45 225.37 654.45 226.67Z" fill="#9aa7b4" /><path d="M705.91 229.55C705.91 229.32 705.72 229.12 705.48 229.12L702.73 229.12C704.55 227.71 705.81 226.54 705.81 225.24C705.81 223.91 704.68 223.23 703.49 223.23C702.67 223.23 701.81 223.53 701.32 224.07C701.25 224.15 701.22 224.25 701.22 224.34C701.22 224.59 701.44 224.78 701.67 224.78C701.77 224.78 701.87 224.75 701.95 224.67C702.35 224.32 702.87 224.11 703.50 224.11C704.15 224.11 704.81 224.46 704.81 225.24C704.81 226.26 703.64 227.32 701.26 229.13C701.14 229.23 701.07 229.37 701.07 229.52C701.07 229.80 701.29 230 701.53 230L705.48 230C705.72 230 705.91 229.81 705.91 229.55ZM709.38 223.83C709.38 223.52 709.11 223.28 708.81 223.28C708.65 223.28 708.51 223.33 708.41 223.44L706.96 224.91C706.88 225 706.84 225.10 706.84 225.21C706.84 225.45 707.05 225.63 707.26 225.63C707.37 225.63 707.46 225.59 707.54 225.51L708.39 224.63L708.39 229.57C708.39 229.84 708.61 230.06 708.88 230.06C709.16 230.06 709.38 229.84 709.38 229.57ZM711.92 225.72C711.92 225.38 711.64 225.10 711.30 225.10C710.97 225.10 710.69 225.38 710.69 225.72C710.69 226.06 710.97 226.34 711.30 226.34C711.64 226.34 711.92 226.06 711.92 225.72ZM711.92 229.48C711.92 229.15 711.64 228.86 711.30 228.86C710.97 228.86 710.69 229.15 710.69 229.48C710.69 229.82 710.97 230.10 711.30 230.10C711.64 230.10 711.92 229.82 711.92 229.48ZM718.16 226.67C718.16 225.02 717.39 223.23 715.55 223.23C713.70 223.23 712.94 225.02 712.94 226.67C712.94 228.32 713.70 230.12 715.55 230.12C717.39 230.12 718.16 228.32 718.16 226.67ZM717.15 226.67C717.15 227.97 716.73 229.24 715.55 229.24C714.36 229.24 713.95 227.97 713.95 226.67C713.95 225.37 714.36 224.11 715.55 224.11C716.73 224.11 717.15 225.37 717.15 226.67ZM724.30 226.67C724.30 225.02 723.53 223.23 721.69 223.23C719.84 223.23 719.08 225.02 719.08 226.67C719.08 228.32 719.84 230.12 721.69 230.12C723.53 230.12 724.30 228.32 724.30 226.67ZM723.29 226.67C723.29 227.97 722.87 229.24 721.69 229.24C720.50 229.24 720.09 227.97 720.09 226.67C720.09 225.37 720.50 224.11 721.69 224.11C722.87 224.11 723.29 225.37 723.29 226.67Z" fill="#9aa7b4" /><path d="M773.75 229.55C773.75 229.32 773.56 229.12 773.32 229.12L770.57 229.12C772.39 227.71 773.65 226.54 773.65 225.24C773.65 223.91 772.52 223.23 771.33 223.23C770.51 223.23 769.65 223.53 769.16 224.07C769.09 224.15 769.06 224.25 769.06 224.34C769.06 224.59 769.28 224.78 769.51 224.78C769.61 224.78 769.71 224.75 769.79 224.67C770.19 224.32 770.71 224.11 771.34 224.11C771.99 224.11 772.65 224.46 772.65 225.24C772.65 226.26 771.48 227.32 769.10 229.13C768.98 229.23 768.91 229.37 768.91 229.52C768.91 229.80 769.13 230 769.37 230L773.32 230C773.56 230 773.75 229.81 773.75 229.55ZM779.52 228.19C779.52 226.94 778.57 226.56 778.57 226.56C778.57 226.56 779.42 226.15 779.42 225.02C779.42 223.89 778.44 223.23 777.09 223.23C776.19 223.23 775.49 223.54 774.96 224.03C774.88 224.10 774.83 224.22 774.83 224.33C774.83 224.57 775.05 224.75 775.26 224.75C775.35 224.75 775.44 224.72 775.51 224.66C775.94 224.30 776.43 224.11 777.00 224.11C777.78 224.11 778.43 224.47 778.43 225.16C778.43 226 777.78 226.16 776.81 226.15C776.56 226.15 776.38 226.34 776.38 226.58C776.38 227.02 776.80 227.05 777.16 227.03C777.93 227.03 778.54 227.35 778.54 228.10C778.54 228.80 777.98 229.24 777.06 229.24C776.45 229.24 775.88 229.01 775.45 228.64C775.37 228.57 775.27 228.54 775.18 228.54C774.94 228.54 774.74 228.76 774.74 228.99C774.74 229.08 774.77 229.17 774.84 229.24C775.27 229.75 776.13 230.12 777.09 230.12C778.59 230.12 779.52 229.31 779.52 228.19ZM781.83 225.72C781.83 225.38 781.55 225.10 781.21 225.10C780.88 225.10 780.60 225.38 780.60 225.72C780.60 226.06 780.88 226.34 781.21 226.34C781.55 226.34 781.83 226.06 781.83 225.72ZM781.83 229.48C781.83 229.15 781.55 228.86 781.21 228.86C780.88 228.86 780.60 229.15 780.60 229.48C780.60 229.82 780.88 230.10 781.21 230.10C781.55 230.10 781.83 229.82 781.83 229.48ZM788.07 226.67C788.07 225.02 787.30 223.23 785.46 223.23C783.61 223.23 782.85 225.02 782.85 226.67C782.85 228.32 783.61 230.12 785.46 230.12C787.30 230.12 788.07 228.32 788.07 226.67ZM787.06 226.67C787.06 227.97 786.64 229.24 785.46 229.24C784.27 229.24 783.86 227.97 783.86 226.67C783.86 225.37 784.27 224.11 785.46 224.11C786.64 224.11 787.06 225.37 787.06 226.67ZM794.21 226.67C794.21 225.02 793.44 223.23 791.60 223.23C789.75 223.23 788.99 225.02 788.99 226.67C788.99 228.32 789.75 230.12 791.60 230.12C793.44 230.12 794.21 228.32 794.21 226.67ZM793.20 226.67C793.20 227.97 792.78 229.24 791.60 229.24C790.41 229.24 790.00 227.97 790.00 226.67C790.00 225.37 790.41 224.11 791.60 224.11C792.78 224.11 793.20 225.37 793.20 226.67Z" fill="#9aa7b4" /></svg>