<svg xmlns="http://www.w3.org/2000/svg" width="860" height="240" viewBox="0 0 860 240" role="img"><rect x="0.5" y="0.5" width="859" height="239" rx="10" fill="#ffffff" stroke="#f2f4f6" /><path d="M28.93 26.67C28.93 23.46 26.61 21.33 23.26 21.33L20.34 21.33C19.63 21.33 19.06 21.90 19.06 22.61L19.06 30.72C19.06 31.42 19.63 32 20.34 32L23.26 32C26.61 32 28.93 29.89 28.93 26.67ZM26.61 26.67C26.61 28.48 25.38 30 23.26 30L21.33 30L21.33 23.33L23.26 23.33C25.46 23.33 26.61 24.78 26.61 26.67ZM37.17 27.01C37.17 24.78 35.55 24.08 33.79 24.08C32.90 24.08 31.17 24.40 30.69 25.17C30.62 25.28 30.58 25.42 30.58 25.57C30.58 26.05 30.98 26.35 31.34 26.35C31.47 26.35 31.60 26.30 31.71 26.24C32.24 25.89 32.83 25.74 33.44 25.74C34.46 25.74 35.14 26.26 35.14 27.04L35.14 27.30L32.69 27.30C31.46 27.30 30 27.82 30 29.63C30 31.36 31.46 32.19 32.69 32.19C33.86 32.19 34.61 31.90 35.14 31.28C35.14 31.63 35.47 32.10 36.02 32.10L36.18 32.10C36.72 32.10 37.17 31.65 37.17 31.09ZM35.14 28.67L35.14 29.02C35.14 30.27 34.16 30.82 33.50 30.82C32.70 30.82 32.05 30.40 32.05 29.68C32.05 28.93 32.70 28.67 33.50 28.67ZM46.03 25.17C46.03 24.67 45.65 24.18 45.04 24.18C44.61 24.18 44.21 24.45 44.06 24.85L42.27 29.65L40.48 24.85C40.32 24.43 39.94 24.18 39.54 24.18C38.91 24.18 38.51 24.69 38.51 25.18C38.51 25.30 38.53 25.41 38.58 25.52L41.22 32.11L40.93 32.77C40.78 33.09 40.50 33.25 40.16 33.31C40.08 33.33 39.98 33.33 39.90 33.33C39.33 33.33 38.94 33.74 38.94 34.22C38.94 34.78 39.49 35.14 40.19 35.14C41.33 35.14 42.30 34.61 42.85 33.26L45.97 25.54C46.02 25.42 46.03 25.30 46.03 25.17ZM51.62 31.26C51.62 30.77 51.30 30.38 50.72 30.38L50.54 30.38C50.22 30.38 49.84 30.14 49.84 29.54L49.84 26.05L50.64 26.05C51.10 26.05 51.50 25.65 51.50 25.17C51.50 24.67 51.10 24.27 50.64 24.27L49.84 24.27L49.84 23.07C49.84 22.51 49.39 22.06 48.83 22.06C48.24 22.06 47.79 22.51 47.79 23.07L47.79 24.27L47.30 24.27C46.82 24.27 46.42 24.67 46.42 25.14C46.42 25.65 46.82 26.05 47.30 26.05L47.79 26.05L47.79 30.08C47.79 31.46 48.56 32.19 49.98 32.19C51.31 32.19 51.62 31.78 51.62 31.26ZM53.81 21.02C53.15 21.02 52.59 21.55 52.59 22.22C52.59 22.90 53.15 23.44 53.81 23.44C54.48 23.44 55.02 22.90 55.02 22.22C55.02 21.55 54.48 21.02 53.81 21.02ZM54.83 25.17C54.83 24.62 54.38 24.18 53.84 24.18C53.25 24.18 52.80 24.62 52.80 25.17L52.80 31.09C52.80 31.65 53.25 32.10 53.81 32.10C54.38 32.10 54.83 31.65 54.83 31.09ZM68.48 27.06C68.48 25.47 67.38 24.08 65.63 24.08C64.29 24.08 63.52 24.86 63.23 25.41C62.94 24.85 62.22 24.08 60.93 24.08C59.74 24.08 59.20 24.51 58.88 24.93L58.88 24.91C58.88 24.69 58.59 24.18 57.89 24.18C57.30 24.18 56.85 24.62 56.85 25.17L56.85 31.09C56.85 31.65 57.30 32.10 57.86 32.10C58.43 32.10 58.88 31.65 58.88 31.09L58.88 27.44C58.88 26.69 59.46 25.89 60.32 25.89C61.15 25.89 61.63 26.72 61.63 27.44L61.63 31.09C61.63 31.65 62.08 32.10 62.64 32.10C63.23 32.10 63.68 31.65 63.68 31.09L63.68 27.58C63.68 26.69 64.24 25.89 65.12 25.89C65.95 25.89 66.43 26.72 66.43 27.44L66.43 31.09C66.43 31.65 66.88 32.10 67.44 32.10C68.03 32.10 68.48 31.65 68.48 31.09ZM77.82 27.89C77.82 27.50 77.71 27.04 77.60 26.69C77.06 25.09 75.73 24.08 73.98 24.08C71.63 24.08 69.98 25.89 69.98 28.13C69.98 30.61 71.76 32.19 74.11 32.19C75.30 32.19 77.01 31.74 77.10 30.83C77.15 30.35 76.67 30.02 76.24 30.02C76.11 30.02 75.97 30.05 75.84 30.11C75.36 30.37 74.77 30.58 74.34 30.58C73.02 30.58 72.24 29.79 72.11 28.82L76.88 28.82C77.41 28.82 77.82 28.38 77.82 27.89ZM72.08 27.44C72.18 26.67 72.72 25.70 73.98 25.70C75.33 25.70 75.84 26.70 75.89 27.44ZM88.64 21.15C85.44 21.15 82.96 23.39 82.96 26.67C82.96 29.95 85.44 32.19 88.64 32.19C90.48 32.19 91.71 31.39 92.51 30.42C92.67 30.24 92.74 30.02 92.74 29.79C92.74 29.25 92.27 28.80 91.70 28.80C91.38 28.80 91.06 28.93 90.83 29.17C90.24 29.82 89.44 30.18 88.64 30.18C86.70 30.18 85.30 28.69 85.30 26.67C85.30 24.66 86.70 23.17 88.64 23.17C89.44 23.17 90.22 23.55 90.83 24.19C91.06 24.43 91.36 24.56 91.66 24.56C92.26 24.56 92.75 24.11 92.75 23.54C92.75 23.33 92.67 23.09 92.53 22.91C91.71 21.94 90.48 21.15 88.64 21.15ZM101.68 27.31C101.68 25.65 100.38 24.08 98.69 24.08C97.42 24.08 96.78 24.69 96.45 25.12L96.45 22.22C96.45 21.68 96.00 21.23 95.46 21.23C94.86 21.23 94.42 21.68 94.42 22.22L94.42 31.09C94.42 31.65 94.86 32.10 95.42 32.10C96.00 32.10 96.45 31.65 96.45 31.09L96.45 27.60C96.45 26.66 97.10 25.89 98.05 25.89C98.93 25.89 99.65 26.54 99.65 27.62L99.65 31.09C99.65 31.65 100.10 32.10 100.66 32.10C101.23 32.10 101.68 31.65 101.68 31.09ZM110.37 27.01C110.37 24.78 108.75 24.08 106.99 24.08C106.10 24.08 104.37 24.40 103.89 25.17C103.82 25.28 103.78 25.42 103.78 25.57C103.78 26.05 104.18 26.35 104.54 26.35C104.67 26.35 104.80 26.30 104.91 26.24C105.44 25.89 106.03 25.74 106.64 25.74C107.66 25.74 108.34 26.26 108.34 27.04L108.34 27.30L105.89 27.30C104.66 27.30 103.20 27.82 103.20 29.63C103.20 31.36 104.66 32.19 105.89 32.19C107.06 32.19 107.81 31.90 108.34 31.28C108.34 31.63 108.67 32.10 109.22 32.10L109.38 32.10C109.92 32.10 110.37 31.65 110.37 31.09ZM108.34 28.67L108.34 29.02C108.34 30.27 107.36 30.82 106.70 30.82C105.90 30.82 105.25 30.40 105.25 29.68C105.25 28.93 105.90 28.67 106.70 28.67ZM116.98 25.04C116.98 24.58 116.67 24.21 116.08 24.21C115.31 24.21 114.80 24.82 114.42 25.33L114.42 25.17C114.42 24.62 113.97 24.18 113.42 24.18C112.83 24.18 112.38 24.62 112.38 25.17L112.38 31.09C112.38 31.65 112.83 32.10 113.39 32.10L113.42 32.10C113.97 32.10 114.42 31.65 114.42 31.09L114.42 27.86C114.42 26.58 115.38 26.16 116.00 26.08C116.56 26 116.98 25.65 116.98 25.04ZM122.37 31.26C122.37 30.77 122.05 30.38 121.47 30.38L121.30 30.38C120.98 30.38 120.59 30.14 120.59 29.54L120.59 26.05L121.39 26.05C121.86 26.05 122.26 25.65 122.26 25.17C122.26 24.67 121.86 24.27 121.39 24.27L120.59 24.27L120.59 23.07C120.59 22.51 120.14 22.06 119.58 22.06C118.99 22.06 118.54 22.51 118.54 23.07L118.54 24.27L118.05 24.27C117.57 24.27 117.17 24.67 117.17 25.14C117.17 25.65 117.57 26.05 118.05 26.05L118.54 26.05L118.54 30.08C118.54 31.46 119.31 32.19 120.74 32.19C122.06 32.19 122.37 31.78 122.37 31.26Z" fill="#22272e" /><circle cx="571.4" cy="26" r="3" fill="#673bd6" /><path d="M583.43 27.92C583.43 25.18 579.12 26.08 579.12 24.57C579.12 23.94 579.68 23.51 580.50 23.51C581.14 23.51 581.78 23.70 582.32 24.09C582.41 24.16 582.52 24.19 582.62 24.19C582.89 24.19 583.13 23.96 583.13 23.69C583.13 23.57 583.09 23.43 582.99 23.34C582.44 22.84 581.50 22.55 580.59 22.55C579.07 22.55 578.00 23.43 578.00 24.64C578.00 27.29 582.31 26.29 582.31 28.03C582.31 28.55 581.89 29.18 580.70 29.18C579.90 29.18 579.22 28.86 578.71 28.43C578.62 28.36 578.50 28.33 578.40 28.33C578.11 28.33 577.90 28.59 577.90 28.87C577.90 28.99 577.94 29.11 578.03 29.21C578.60 29.77 579.58 30.13 580.66 30.13C582.64 30.13 583.43 29.07 583.43 27.92ZM589.26 25.09C589.26 24.84 589.04 24.62 588.79 24.62C588.50 24.62 588.28 24.84 588.28 25.09L588.28 27.62C588.28 28.53 587.71 29.26 586.92 29.26C586.12 29.26 585.67 28.66 585.67 27.78L585.67 25.09C585.67 24.84 585.45 24.62 585.20 24.62C584.91 24.62 584.69 24.84 584.69 25.09L584.69 28.12C584.69 29.24 585.49 30.13 586.61 30.13C587.53 30.13 587.99 29.73 588.28 29.27L588.28 29.58C588.28 29.85 588.50 30.07 588.76 30.07C589.04 30.07 589.26 29.85 589.26 29.58ZM595.40 26.59C595.40 25.47 594.58 24.55 593.46 24.55C592.54 24.55 592.06 25.01 591.81 25.44L591.81 25.09C591.81 24.84 591.59 24.62 591.34 24.62C591.05 24.62 590.83 24.84 590.83 25.09L590.83 29.58C590.83 29.85 591.05 30.07 591.32 30.07C591.59 30.07 591.81 29.85 591.81 29.58L591.81 27.03C591.81 26.13 592.30 25.42 593.14 25.42C593.93 25.42 594.42 26.04 594.42 26.92L594.42 29.58C594.42 29.85 594.64 30.07 594.90 30.07C595.18 30.07 595.40 29.85 595.40 29.58Z" fill="#627386" /><circle cx="613.2" cy="26" r="3" fill="#535ae0" /><path d="M627.41 23.40C627.41 22.92 626.96 22.60 626.46 22.62C626.11 22.62 625.78 22.83 625.65 23.16L623.70 27.89L621.76 23.16C621.61 22.77 621.21 22.60 620.81 22.62C620.37 22.62 620.01 22.98 620.01 23.40L620.01 29.53C620.01 29.82 620.26 30.07 620.55 30.07C620.86 30.07 621.10 29.82 621.10 29.53L621.10 24.20L623.20 29.34C623.42 29.89 623.97 29.87 624.19 29.34L626.31 24.20L626.31 29.53C626.31 29.82 626.55 30.07 626.86 30.07C627.16 30.07 627.41 29.82 627.41 29.53ZM634.05 27.34C634.05 25.81 633.03 24.55 631.37 24.55C629.72 24.55 628.69 25.81 628.69 27.34C628.69 28.87 629.72 30.13 631.37 30.13C633.03 30.13 634.05 28.87 634.05 27.34ZM633.03 27.34C633.03 28.36 632.43 29.26 631.37 29.26C630.31 29.26 629.71 28.36 629.71 27.34C629.71 26.33 630.31 25.42 631.37 25.42C632.43 25.42 633.03 26.33 633.03 27.34ZM639.88 26.59C639.88 25.47 639.07 24.55 637.94 24.55C637.02 24.55 636.55 25.01 636.29 25.44L636.29 25.09C636.29 24.84 636.07 24.62 635.82 24.62C635.53 24.62 635.32 24.84 635.32 25.09L635.32 29.58C635.32 29.85 635.53 30.07 635.80 30.07C636.07 30.07 636.29 29.85 636.29 29.58L636.29 27.03C636.29 26.13 636.78 25.42 637.63 25.42C638.42 25.42 638.90 26.04 638.90 26.92L638.90 29.58C638.90 29.85 639.12 30.07 639.38 30.07C639.66 30.07 639.88 29.85 639.88 29.58Z" fill="#627386" /><circle cx="657.7" cy="26" r="3" fill="#3f77e9" /><path d="M669.71 23.16C669.71 22.87 669.50 22.66 669.24 22.66L664.41 22.66C664.14 22.66 663.94 22.87 663.94 23.14C663.94 23.41 664.14 23.63 664.41 23.63L666.28 23.63L666.28 29.53C666.28 29.82 666.52 30.07 666.82 30.07C667.13 30.07 667.37 29.82 667.37 29.53L667.37 23.63L669.24 23.63C669.50 23.63 669.71 23.41 669.71 23.16ZM674.46 25.09C674.46 24.84 674.24 24.62 673.99 24.62C673.70 24.62 673.48 24.84 673.48 25.09L673.48 27.62C673.48 28.53 672.91 29.26 672.12 29.26C671.33 29.26 670.88 28.66 670.88 27.78L670.88 25.09C670.88 24.84 670.66 24.62 670.40 24.62C670.12 24.62 669.90 24.84 669.90 25.09L669.90 28.12C669.90 29.24 670.69 30.13 671.81 30.13C672.74 30.13 673.20 29.73 673.48 29.27L673.48 29.58C673.48 29.85 673.70 30.07 673.97 30.07C674.24 30.07 674.46 29.85 674.46 29.58ZM680.94 27.16C680.94 26.95 680.89 26.72 680.84 26.55C680.54 25.36 679.65 24.55 678.37 24.55C676.83 24.55 675.72 25.80 675.72 27.34C675.72 29.01 676.87 30.13 678.46 30.13C679.24 30.13 680.60 29.73 680.60 29.13C680.60 28.76 680.23 28.67 679.99 28.79C679.60 29.08 679.01 29.34 678.56 29.34C677.48 29.34 676.82 28.60 676.74 27.69L680.44 27.69C680.71 27.69 680.94 27.43 680.94 27.16ZM676.74 26.96C676.78 26.23 677.30 25.35 678.36 25.35C679.49 25.35 679.97 26.25 680.00 26.96Z" fill="#627386" /><circle cx="698.4" cy="26" r="3" fill="#2c96f2" /><path d="M713.94 23.14C713.94 22.84 713.70 22.59 713.36 22.59C713.09 22.59 712.85 22.76 712.80 23.02L711.36 28.56L709.85 23.00C709.78 22.76 709.56 22.60 709.32 22.60C709.06 22.60 708.84 22.76 708.78 23.00L707.26 28.56L705.82 23.02C705.76 22.75 705.50 22.57 705.25 22.57C704.90 22.57 704.68 22.85 704.68 23.14C704.68 23.19 704.69 23.23 704.70 23.29L706.48 29.54C706.56 29.85 706.84 30.07 707.18 30.07L707.20 30.07C707.53 30.07 707.81 29.85 707.90 29.53L709.31 24.32L710.71 29.53C710.78 29.84 711.07 30.07 711.40 30.07L711.42 30.07C711.75 30.07 712.05 29.85 712.14 29.53L713.92 23.29C713.93 23.25 713.94 23.19 713.94 23.14ZM719.47 27.16C719.47 26.95 719.42 26.72 719.38 26.55C719.07 25.36 718.19 24.55 716.90 24.55C715.36 24.55 714.25 25.80 714.25 27.34C714.25 29.01 715.40 30.13 716.99 30.13C717.77 30.13 719.13 29.73 719.13 29.13C719.13 28.76 718.76 28.67 718.52 28.79C718.13 29.08 717.54 29.34 717.09 29.34C716.01 29.34 715.35 28.60 715.27 27.69L718.97 27.69C719.24 27.69 719.47 27.43 719.47 27.16ZM715.27 26.96C715.32 26.23 715.83 25.35 716.89 25.35C718.02 25.35 718.51 26.25 718.53 26.96ZM725.50 23.07C725.50 22.82 725.28 22.60 725.03 22.60C724.74 22.60 724.52 22.82 724.52 23.07L724.52 25.46C724.09 24.89 723.58 24.55 722.77 24.55C721.39 24.55 720.41 25.64 720.41 27.35C720.41 29.09 721.40 30.13 722.77 30.13C723.60 30.13 724.12 29.77 724.52 29.24L724.52 29.58C724.52 29.85 724.74 30.07 725.01 30.07C725.28 30.07 725.50 29.85 725.50 29.58ZM724.52 27.38C724.52 28.48 723.97 29.26 723.03 29.26C722.04 29.26 721.42 28.46 721.42 27.35C721.42 26.24 722.04 25.42 723.03 25.42C723.97 25.42 724.52 26.23 724.52 27.32Z" fill="#627386" /><circle cx="743.3" cy="26" r="3" fill="#34adf0" /><path d="M755.33 23.16C755.33 22.87 755.12 22.66 754.86 22.66L750.03 22.66C749.77 22.66 749.56 22.87 749.56 23.14C749.56 23.41 749.77 23.63 750.03 23.63L751.90 23.63L751.90 29.53C751.90 29.82 752.14 30.07 752.44 30.07C752.75 30.07 752.99 29.82 752.99 29.53L752.99 23.63L754.86 23.63C755.12 23.63 755.33 23.41 755.33 23.16ZM760.97 26.57C760.97 25.45 760.16 24.55 759.04 24.55C758.11 24.55 757.62 25.01 757.37 25.44L757.37 23.07C757.37 22.82 757.15 22.60 756.89 22.60C756.61 22.60 756.39 22.82 756.39 23.07L756.39 29.58C756.39 29.85 756.61 30.07 756.87 30.07C757.15 30.07 757.37 29.85 757.37 29.58L757.37 27.09C757.37 26.09 757.90 25.42 758.73 25.42C759.52 25.42 759.99 26.02 759.99 26.90L759.99 29.58C759.99 29.85 760.21 30.07 760.47 30.07C760.75 30.07 760.97 29.85 760.97 29.58ZM767.13 25.09C767.13 24.84 766.90 24.62 766.65 24.62C766.37 24.62 766.15 24.84 766.15 25.09L766.15 27.62C766.15 28.53 765.57 29.26 764.78 29.26C763.99 29.26 763.54 28.66 763.54 27.78L763.54 25.09C763.54 24.84 763.32 24.62 763.07 24.62C762.78 24.62 762.56 24.84 762.56 25.09L762.56 28.12C762.56 29.24 763.35 30.13 764.47 30.13C765.40 30.13 765.86 29.73 766.15 29.27L766.15 29.58C766.15 29.85 766.37 30.07 766.63 30.07C766.90 30.07 767.13 29.85 767.13 29.58Z" fill="#627386" /><circle cx="784.9" cy="26" r="3" fill="#56bce1" /><path d="M796.70 23.16C796.70 22.87 796.49 22.66 796.23 22.66L792.45 22.66C792.05 22.66 791.73 22.98 791.73 23.38L791.73 29.53C791.73 29.82 791.97 30.07 792.27 30.07C792.58 30.07 792.82 29.82 792.82 29.53L792.82 26.74L796.15 26.74C796.42 26.74 796.63 26.52 796.63 26.27C796.63 25.98 796.42 25.78 796.15 25.78L792.82 25.78L792.82 23.63L796.23 23.63C796.49 23.63 796.70 23.41 796.70 23.16ZM800.61 25.05C800.61 24.80 800.42 24.61 800.17 24.61C799.57 24.61 799.09 25.11 798.79 25.51L798.79 25.09C798.79 24.84 798.57 24.62 798.32 24.62C798.03 24.62 797.81 24.84 797.81 25.09L797.81 29.58C797.81 29.85 798.02 30.05 798.29 30.07L798.30 30.07C798.57 30.07 798.79 29.85 798.79 29.58L798.79 26.85C798.79 26.16 799.28 25.61 800.11 25.57C800.39 25.56 800.61 25.34 800.61 25.05ZM802.02 22.72C801.67 22.72 801.39 23.00 801.39 23.36C801.39 23.70 801.67 23.98 802.02 23.98C802.37 23.98 802.64 23.70 802.64 23.36C802.64 23.00 802.37 22.72 802.02 22.72ZM802.51 25.09C802.51 24.84 802.29 24.62 802.04 24.62C801.75 24.62 801.53 24.84 801.53 25.09L801.53 29.58C801.53 29.85 801.75 30.07 802.02 30.07C802.29 30.07 802.51 29.85 802.51 29.58Z" fill="#627386" /><circle cx="820.3" cy="26" r="3" fill="#7accd4" /><path d="M832.33 27.92C832.33 25.18 828.02 26.08 828.02 24.57C828.02 23.94 828.58 23.51 829.40 23.51C830.04 23.51 830.68 23.70 831.22 24.09C831.31 24.16 831.42 24.19 831.52 24.19C831.79 24.19 832.03 23.96 832.03 23.69C832.03 23.57 831.99 23.43 831.89 23.34C831.34 22.84 830.41 22.55 829.49 22.55C827.98 22.55 826.90 23.43 826.90 24.64C826.90 27.29 831.21 26.29 831.21 28.03C831.21 28.55 830.79 29.18 829.60 29.18C828.80 29.18 828.12 28.86 827.61 28.43C827.52 28.36 827.40 28.33 827.30 28.33C827.01 28.33 826.80 28.59 826.80 28.87C826.80 28.99 826.84 29.11 826.93 29.21C827.50 29.77 828.48 30.13 829.56 30.13C831.54 30.13 832.33 29.07 832.33 27.92ZM837.85 26.40C837.85 25.05 836.86 24.55 835.72 24.55C835.00 24.55 834.20 24.79 833.70 25.29C833.63 25.37 833.60 25.46 833.60 25.55C833.60 25.78 833.80 25.93 834.00 25.93C834.08 25.93 834.17 25.90 834.25 25.84C834.64 25.53 835.08 25.38 835.58 25.38C836.32 25.38 836.87 25.78 836.87 26.45L836.87 26.74L835.35 26.74C834.25 26.74 833.28 27.17 833.28 28.37C833.28 29.54 834.25 30.13 835.13 30.13C835.95 30.13 836.45 29.88 836.87 29.41L836.87 29.58C836.87 29.90 837.13 30.07 837.33 30.07L837.36 30.07C837.63 30.07 837.85 29.85 837.85 29.58ZM836.87 27.43L836.87 28.17C836.87 28.80 836.16 29.44 835.39 29.44C834.67 29.44 834.27 29.01 834.27 28.39C834.27 27.76 834.77 27.43 835.61 27.43ZM841.90 29.61C841.90 29.38 841.73 29.21 841.48 29.21C841.37 29.21 841.24 29.26 841.12 29.26C840.80 29.26 840.60 29.01 840.60 28.60L840.60 25.55L841.33 25.55C841.56 25.55 841.75 25.36 841.75 25.13C841.75 24.87 841.56 24.69 841.33 24.69L840.60 24.69L840.60 23.64C840.60 23.39 840.38 23.17 840.12 23.17C839.83 23.17 839.61 23.39 839.61 23.64L839.61 24.69L839.10 24.69C838.85 24.69 838.67 24.87 838.67 25.11C838.67 25.36 838.85 25.55 839.10 25.55L839.61 25.55L839.61 28.83C839.61 29.67 840.05 30.13 840.89 30.13C841.47 30.13 841.90 29.97 841.90 29.61Z" fill="#627386" /><path d="M24,208.794L29.884,208.995C35.768,209.196,47.536,209.598,59.304,209.799C71.072,210,82.841,210,94.609,210C106.377,210,118.145,210,129.913,210C141.681,210,153.449,210,165.217,210C176.986,210,188.754,210,200.522,209.933C212.29,209.866,224.058,209.732,235.826,207.478C247.594,205.223,259.362,200.849,271.13,200.232C282.899,199.616,294.667,202.758,306.435,204.128C318.203,205.497,329.971,205.095,341.739,204.4C353.507,203.704,365.275,202.715,377.043,201.978C388.812,201.242,400.58,200.758,412.348,199.614C424.116,198.471,435.884,196.669,447.652,196.022C459.42,195.375,471.188,195.884,482.957,196.033C494.725,196.182,506.493,195.971,518.261,197.047C530.029,198.122,541.797,200.484,553.565,201.666C565.333,202.847,577.101,202.848,588.87,202.526C600.638,202.204,612.406,201.559,624.174,195.452C635.942,189.345,647.71,177.776,659.478,177.134C671.246,176.492,683.014,186.777,694.783,191.126C706.551,195.474,718.319,193.886,730.087,192.907C741.855,191.927,753.623,191.557,765.391,194.078C777.159,196.6,788.928,202.013,800.696,205.149C812.464,208.285,824.232,209.142,830.116,209.571L836,210L836,210L830.116,210C824.232,210,812.464,210,800.696,210C788.928,210,777.159,210,765.391,210C753.623,210,741.855,210,730.087,210C718.319,210,706.551,210,694.783,210C683.014,210,671.246,210,659.478,210C647.71,210,635.942,210,624.174,210C612.406,210,600.638,210,588.87,210C577.101,210,565.333,210,553.565,210C541.797,210,530.029,210,518.261,210C506.493,210,494.725,210,482.957,210C471.188,210,459.42,210,447.652,210C435.884,210,424.116,210,412.348,210C400.58,210,388.812,210,377.043,210C365.275,210,353.507,210,341.739,210C329.971,210,318.203,210,306.435,210C294.667,210,282.899,210,271.13,210C259.362,210,247.594,210,235.826,210C224.058,210,212.29,210,200.522,210C188.754,210,176.986,210,165.217,210C153.449,210,141.681,210,129.913,210C118.145,210,106.377,210,94.609,210C82.841,210,71.072,210,59.304,210C47.536,210,35.768,210,29.884,210L24,210Z" fill="#673bd6" fill-opacity="0.12" stroke="#673bd6" stroke-width="1.5" /><path d="M24,209.92L29.884,209.933C35.768,209.946,47.536,209.973,59.304,209.987C71.072,210,82.841,210,94.609,209.974C106.377,209.947,118.145,209.894,129.913,209.735C141.681,209.576,153.449,209.31,165.217,203.465C176.986,197.62,188.754,186.195,200.522,168.524C212.29,150.852,224.058,126.935,235.826,121.17C247.594,115.405,259.362,127.793,271.13,130.128C282.899,132.463,294.667,124.744,306.435,122.801C318.203,120.858,329.971,124.69,341.739,124.998C353.507,125.306,365.275,122.089,377.043,121.214C388.812,120.339,400.58,121.805,412.348,127.873C424.116,133.942,435.884,144.612,447.652,151.577C459.42,158.542,471.188,161.802,482.957,159.67C494.725,157.537,506.493,150.012,518.261,142.84C530.029,135.668,541.797,128.849,553.565,133.493C565.333,138.138,577.101,154.247,588.87,159.97C600.638,165.694,612.406,161.033,624.174,161.334C635.942,161.635,647.71,166.897,659.478,172.335C671.246,177.772,683.014,183.386,694.783,188.299C706.551,193.213,718.319,197.427,730.087,197.936C741.855,198.444,753.623,195.248,765.391,195.02C777.159,194.792,788.928,197.532,800.696,200.523C812.464,203.514,824.232,206.757,830.116,208.379L836,210L836,210L830.116,210C824.232,210,812.464,210,800.696,210C788.928,210,777.159,210,765.391,210C753.623,210,741.855,210,730.087,210C718.319,210,706.551,210,694.783,210C683.014,210,671.246,210,659.478,210C647.71,210,635.942,210,624.174,210C612.406,210,600.638,210,588.87,210C577.101,210,565.333,210,553.565,210C541.797,210,530.029,210,518.261,210C506.493,210,494.725,210,482.957,210C471.188,210,459.42,210,447.652,210C435.884,210,424.116,210,412.348,210C400.58,210,388.812,210,377.043,210C365.275,210,353.507,210,341.739,210C329.971,210,318.203,210,306.435,210C294.667,210,282.899,210,271.13,210C259.362,210,247.594,210,235.826,210C224.058,210,212.29,210,200.522,210C188.754,210,176.986,210,165.217,210C153.449,210,141.681,210,129.913,210C118.145,210,106.377,210,94.609,210C82.841,210,71.072,210,59.304,210C47.536,210,35.768,210,29.884,210L24,210Z" fill="#535ae0" fill-opacity="0.12" stroke="#535ae0" stroke-width="1.5" /><path d="M24,209.92L29.884,209.933C35.768,209.946,47.536,209.973,59.304,209.987C71.072,210,82.841,210,94.609,209.893C106.377,209.786,118.145,209.573,129.913,209.199C141.681,208.825,153.449,208.292,165.217,204.527C176.986,200.762,188.754,193.765,200.522,180.97C212.29,168.176,224.058,149.583,235.826,148.224C247.594,146.866,259.362,162.742,271.13,158.799C282.899,154.855,294.667,131.092,306.435,109.656C318.203,88.22,329.971,69.11,341.739,69.104C353.507,69.098,365.275,88.196,377.043,100.021C388.812,111.846,400.58,116.398,412.348,120.991C424.116,125.584,435.884,130.218,447.652,128.277C459.42,126.336,471.188,117.82,482.957,115.8C494.725,113.78,506.493,118.254,518.261,126.703C530.029,135.151,541.797,147.573,553.565,152.609C565.333,157.645,577.101,155.295,588.87,155.907C600.638,156.52,612.406,160.095,624.174,156.115C635.942,152.134,647.71,140.599,659.478,146.27C671.246,151.942,683.014,174.821,694.783,184.516C706.551,194.211,718.319,190.72,730.087,189.259C741.855,187.798,753.623,188.367,765.391,189.653C777.159,190.939,788.928,192.943,800.696,196.453C812.464,199.964,824.232,204.982,830.116,207.491L836,210L836,210L830.116,210C824.232,210,812.464,210,800.696,210C788.928,210,777.159,210,765.391,210C753.623,210,741.855,210,730.087,210C718.319,210,706.551,210,694.783,210C683.014,210,671.246,210,659.478,210C647.71,210,635.942,210,624.174,210C612.406,210,600.638,210,588.87,210C577.101,210,565.333,210,553.565,210C541.797,210,530.029,210,518.261,210C506.493,210,494.725,210,482.957,210C471.188,210,459.42,210,447.652,210C435.884,210,424.116,210,412.348,210C400.58,210,388.812,210,377.043,210C365.275,210,353.507,210,341.739,210C329.971,210,318.203,210,306.435,210C294.667,210,282.899,210,271.13,210C259.362,210,247.594,210,235.826,210C224.058,210,212.29,210,200.522,210C188.754,210,176.986,210,165.217,210C153.449,210,141.681,210,129.913,210C118.145,210,106.377,210,94.609,210C82.841,210,71.072,210,59.304,210C47.536,210,35.768,210,29.884,210L24,210Z" fill="#3f77e9" fill-opacity="0.12" stroke="#3f77e9" stroke-width="1.5" /><path d="M24,209.92L29.884,209.92C35.768,209.92,47.536,209.92,59.304,209.853C71.072,209.786,82.841,209.652,94.609,209.639C106.377,209.626,118.145,209.734,129.913,208.203C141.681,206.672,153.449,203.503,165.217,199.53C176.986,195.557,188.754,190.78,200.522,184.167C212.29,177.554,224.058,169.105,235.826,158.974C247.594,148.843,259.362,137.031,271.13,129.58C282.899,122.129,294.667,119.039,306.435,120.552C318.203,122.064,329.971,128.179,341.739,128.148C353.507,128.117,365.275,121.938,377.043,114.682C388.812,107.426,400.58,99.091,412.348,101.681C424.116,104.272,435.884,117.788,447.652,117.476C459.42,117.164,471.188,103.024,482.957,104.008C494.725,104.992,506.493,121.1,518.261,130.003C530.029,138.906,541.797,140.605,553.565,141.057C565.333,141.508,577.101,140.713,588.87,145.478C600.638,150.244,612.406,160.571,624.174,164.918C635.942,169.265,647.71,167.632,659.478,167.389C671.246,167.147,683.014,168.296,694.783,170.91C706.551,173.524,718.319,177.605,730.087,178.517C741.855,179.429,753.623,177.174,765.391,181.169C777.159,185.165,788.928,195.412,800.696,201.259C812.464,207.106,824.232,208.553,830.116,209.276L836,210L836,210L830.116,210C824.232,210,812.464,210,800.696,210C788.928,210,777.159,210,765.391,210C753.623,210,741.855,210,730.087,210C718.319,210,706.551,210,694.783,210C683.014,210,671.246,210,659.478,210C647.71,210,635.942,210,624.174,210C612.406,210,600.638,210,588.87,210C577.101,210,565.333,210,553.565,210C541.797,210,530.029,210,518.261,210C506.493,210,494.725,210,482.957,210C471.188,210,459.42,210,447.652,210C435.884,210,424.116,210,412.348,210C400.58,210,388.812,210,377.043,210C365.275,210,353.507,210,341.739,210C329.971,210,318.203,210,306.435,210C294.667,210,282.899,210,271.13,210C259.362,210,247.594,210,235.826,210C224.058,210,212.29,210,200.522,210C188.754,210,176.986,210,165.217,210C153.449,210,141.681,210,129.913,210C118.145,210,106.377,210,94.609,210C82.841,210,71.072,210,59.304,210C47.536,210,35.768,210,29.884,210L24,210Z" fill="#2c96f2" fill-opacity="0.12" stroke="#2c96f2" stroke-width="1.5" /><path d="M24,209.92L29.884,209.933C35.768,209.946,47.536,209.973,59.304,209.987C71.072,210,82.841,210,94.609,210C106.377,210,118.145,210,129.913,209.626C141.681,209.251,153.449,208.502,165.217,200.753C176.986,193.003,188.754,178.254,200.522,168.334C212.29,158.415,224.058,153.326,235.826,151.673C247.594,150.021,259.362,151.806,271.13,146.483C282.899,141.161,294.667,128.732,306.435,117.62C318.203,106.508,329.971,96.713,341.739,89.642C353.507,82.571,365.275,78.223,377.043,77.146C388.812,76.069,400.58,78.263,412.348,80.197C424.116,82.131,435.884,83.804,447.652,89.371C459.42,94.938,471.188,104.398,482.957,107.956C494.725,111.513,506.493,109.168,518.261,113.384C530.029,117.599,541.797,128.376,553.565,135.53C565.333,142.685,577.101,146.218,588.87,148.907C600.638,151.596,612.406,153.44,624.174,154.75C635.942,156.061,647.71,156.837,659.478,163.009C671.246,169.18,683.014,180.747,694.783,186.919C706.551,193.09,718.319,193.867,730.087,191.826C741.855,189.786,753.623,184.929,765.391,185.706C777.159,186.484,788.928,192.895,800.696,197.883C812.464,202.871,824.232,206.436,830.116,208.218L836,210L836,210L830.116,210C824.232,210,812.464,210,800.696,210C788.928,210,777.159,210,765.391,210C753.623,210,741.855,210,730.087,210C718.319,210,706.551,210,694.783,210C683.014,210,671.246,210,659.478,210C647.71,210,635.942,210,624.174,210C612.406,210,600.638,210,588.87,210C577.101,210,565.333,210,553.565,210C541.797,210,530.029,210,518.261,210C506.493,210,494.725,210,482.957,210C471.188,210,459.42,210,447.652,210C435.884,210,424.116,210,412.348,210C400.58,210,388.812,210,377.043,210C365.275,210,353.507,210,341.739,210C329.971,210,318.203,210,306.435,210C294.667,210,282.899,210,271.13,210C259.362,210,247.594,210,235.826,210C224.058,210,212.29,210,200.522,210C188.754,210,176.986,210,165.217,210C153.449,210,141.681,210,129.913,210C118.145,210,106.377,210,94.609,210C82.841,210,71.072,210,59.304,210C47.536,210,35.768,210,29.884,210L24,210Z" fill="#34adf0" fill-opacity="0.12" stroke="#34adf0" stroke-width="1.5" /><path d="M24,208.714L29.884,208.727C35.768,208.74,47.536,208.767,59.304,208.982C71.072,209.196,82.841,209.598,94.609,209.773C106.377,209.947,118.145,209.894,129.913,209.802C141.681,209.709,153.449,209.577,165.217,206.76C176.986,203.942,188.754,198.441,200.522,190.509C212.29,182.577,224.058,172.215,235.826,161.425C247.594,150.635,259.362,139.416,271.13,128.247C282.899,117.078,294.667,105.959,306.435,102.618C318.203,99.278,329.971,103.717,341.739,107.719C353.507,111.72,365.275,115.285,377.043,119.077C388.812,122.869,400.58,126.89,412.348,128.535C424.116,130.18,435.884,129.45,447.652,126.429C459.42,123.408,471.188,118.095,482.957,114.944C494.725,111.792,506.493,110.802,518.261,115.134C530.029,119.467,541.797,129.121,553.565,138.078C565.333,147.035,577.101,155.295,588.87,163.321C600.638,171.346,612.406,179.136,624.174,183.31C635.942,187.483,647.71,188.039,659.478,190.544C671.246,193.05,683.014,197.505,694.783,197.833C706.551,198.16,718.319,194.361,730.087,194.219C741.855,194.078,753.623,197.594,765.391,200.284C777.159,202.975,788.928,204.839,800.696,206.321C812.464,207.802,824.232,208.901,830.116,209.451L836,210L836,210L830.116,210C824.232,210,812.464,210,800.696,210C788.928,210,777.159,210,765.391,210C753.623,210,741.855,210,730.087,210C718.319,210,706.551,210,694.783,210C683.014,210,671.246,210,659.478,210C647.71,210,635.942,210,624.174,210C612.406,210,600.638,210,588.87,210C577.101,210,565.333,210,553.565,210C541.797,210,530.029,210,518.261,210C506.493,210,494.725,210,482.957,210C471.188,210,459.42,210,447.652,210C435.884,210,424.116,210,412.348,210C400.58,210,388.812,210,377.043,210C365.275,210,353.507,210,341.739,210C329.971,210,318.203,210,306.435,210C294.667,210,282.899,210,271.13,210C259.362,210,247.594,210,235.826,210C224.058,210,212.29,210,200.522,210C188.754,210,176.986,210,165.217,210C153.449,210,141.681,210,129.913,210C118.145,210,106.377,210,94.609,210C82.841,210,71.072,210,59.304,210C47.536,210,35.768,210,29.884,210L24,210Z" fill="#56bce1" fill-opacity="0.12" stroke="#56bce1" stroke-width="1.5" /><path d="M24,209.759L29.884,209.786C35.768,209.812,47.536,209.866,59.304,209.906C71.072,209.946,82.841,209.973,94.609,209.987C106.377,210,118.145,210,129.913,209.866C141.681,209.732,153.449,209.464,165.217,209.41C176.986,209.357,188.754,209.518,200.522,209.437C212.29,209.357,224.058,209.035,235.826,207.655C247.594,206.275,259.362,203.837,271.13,201.938C282.899,200.039,294.667,198.678,306.435,195.884C318.203,193.089,329.971,188.86,341.739,187.463C353.507,186.066,365.275,187.5,377.043,190.201C388.812,192.901,400.58,196.868,412.348,199.655C424.116,202.442,435.884,204.05,447.652,204.908C459.42,205.765,471.188,205.873,482.957,205.981C494.725,206.089,506.493,206.197,518.261,205.206C530.029,204.215,541.797,202.124,553.565,198.703C565.333,195.282,577.101,190.531,588.87,189.178C600.638,187.825,612.406,189.87,624.174,191.666C635.942,193.462,647.71,195.009,659.478,197.367C671.246,199.725,683.014,202.892,694.783,204.208C706.551,205.524,718.319,204.988,730.087,203.444C741.855,201.9,753.623,199.348,765.391,199.04C777.159,198.731,788.928,200.667,800.696,202.868C812.464,205.069,824.232,207.534,830.116,208.767L836,210L836,210L830.116,210C824.232,210,812.464,210,800.696,210C788.928,210,777.159,210,765.391,210C753.623,210,741.855,210,730.087,210C718.319,210,706.551,210,694.783,210C683.014,210,671.246,210,659.478,210C647.71,210,635.942,210,624.174,210C612.406,210,600.638,210,588.87,210C577.101,210,565.333,210,553.565,210C541.797,210,530.029,210,518.261,210C506.493,210,494.725,210,482.957,210C471.188,210,459.42,210,447.652,210C435.884,210,424.116,210,412.348,210C400.58,210,388.812,210,377.043,210C365.275,210,353.507,210,341.739,210C329.971,210,318.203,210,306.435,210C294.667,210,282.899,210,271.13,210C259.362,210,247.594,210,235.826,210C224.058,210,212.29,210,200.522,210C188.754,210,176.986,210,165.217,210C153.449,210,141.681,210,129.913,210C118.145,210,106.377,210,94.609,210C82.841,210,71.072,210,59.304,210C47.536,210,35.768,210,29.884,210L24,210Z" fill="#7accd4" fill-opacity="0.12" stroke="#7accd4" stroke-width="1.5" /><path d="M17.50 226.67C17.50 225.02 16.73 223.23 14.89 223.23C13.04 223.23 12.28 225.02 12.28 226.67C12.28 228.32 13.04 230.12 14.89 230.12C16.73 230.12 17.50 228.32 17.50 226.67ZM16.49 226.67C16.49 227.97 16.07 229.24 14.89 229.24C13.70 229.24 13.29 227.97 13.29 226.67C13.29 225.37 13.70 224.11 14.89 224.11C16.07 224.11 16.49 225.37 16.49 226.67ZM20.80 223.83C20.80 223.52 20.53 223.28 20.23 223.28C20.07 223.28 19.93 223.33 19.83 223.44L18.38 224.91C18.30 225 18.26 225.10 18.26 225.21C18.26 225.45 18.47 225.63 18.68 225.63C18.79 225.63 18.88 225.59 18.96 225.51L19.81 224.63L19.81 229.57C19.81 229.84 20.03 230.06 20.30 230.06C20.58 230.06 20.80 229.84 20.80 229.57ZM23.34 225.72C23.34 225.38 23.06 225.10 22.72 225.10C22.39 225.10 22.11 225.38 22.11 225.72C22.11 226.06 22.39 226.34 22.72 226.34C23.06 226.34 23.34 226.06 23.34 225.72ZM23.34 229.48C23.34 229.15 23.06 228.86 22.72 228.86C22.39 228.86 22.11 229.15 22.11 229.48C22.11 229.82 22.39 230.10 22.72 230.10C23.06 230.10 23.34 229.82 23.34 229.48ZM29.58 226.67C29.58 225.02 28.81 223.23 26.97 223.23C25.12 223.23 24.36 225.02 24.36 226.67C24.36 228.32 25.12 230.12 26.97 230.12C28.81 230.12 29.58 228.32 29.58 226.67ZM28.57 226.67C28.57 227.97 28.15 229.24 26.97 229.24C25.78 229.24 25.37 227.97 25.37 226.67C25.37 225.37 25.78 224.11 26.97 224.11C28.15 224.11 28.57 225.37 28.57 226.67ZM35.72 226.67C35.72 225.02 34.95 223.23 33.11 223.23C31.26 223.23 30.50 225.02 30.50 226.67C30.50 228.32 31.26 230.12 33.11 230.12C34.95 230.12 35.72 228.32 35.72 226.67ZM34.71 226.67C34.71 227.97 34.29 229.24 33.11 229.24C31.92 229.24 31.51 227.97 31.51 226.67C31.51 225.37 31.92 224.11 33.11 224.11C34.29 224.11 34.71 225.37 34.71 226.67Z" fill="#627386" /><path d="M87.07 226.67C87.07 225.02 86.30 223.23 84.46 223.23C82.61 223.23 81.85 225.02 81.85 226.67C81.85 228.32 82.61 230.12 84.46 230.12C86.30 230.12 87.07 228.32 87.07 226.67ZM86.06 226.67C86.06 227.97 85.64 229.24 84.46 229.24C83.27 229.24 82.86 227.97 82.86 226.67C82.86 225.37 83.27 224.11 84.46 224.11C85.64 224.11 86.06 225.37 86.06 226.67ZM92.67 228.19C92.67 226.94 91.72 226.56 91.72 226.56C91.72 226.56 92.57 226.15 92.57 225.02C92.57 223.89 91.59 223.23 90.24 223.23C89.34 223.23 88.64 223.54 88.11 224.03C88.03 224.10 87.98 224.22 87.98 224.33C87.98 224.57 88.20 224.75 88.41 224.75C88.50 224.75 88.59 224.72 88.66 224.66C89.09 224.30 89.58 224.11 90.15 224.11C90.93 224.11 91.58 224.47 91.58 225.16C91.58 226 90.93 226.16 89.96 226.15C89.71 226.15 89.53 226.34 89.53 226.58C89.53 227.02 89.95 227.05 90.31 227.03C91.08 227.03 91.69 227.35 91.69 228.10C91.69 228.80 91.13 229.24 90.21 229.24C89.60 229.24 89.03 229.01 88.60 228.64C88.52 228.57 88.42 228.54 88.33 228.54C88.09 228.54 87.89 228.76 87.89 228.99C87.89 229.08 87.92 229.17 87.99 229.24C88.42 229.75 89.28 230.12 90.24 230.12C91.74 230.12 92.67 229.31 92.67 228.19ZM94.98 225.72C94.98 225.38 94.70 225.10 94.36 225.10C94.03 225.10 93.75 225.38 93.75 225.72C93.75 226.06 94.03 226.34 94.36 226.34C94.70 226.34 94.98 226.06 94.98 225.72ZM94.98 229.48C94.98 229.15 94.70 228.86 94.36 228.86C94.03 228.86 93.75 229.15 93.75 229.48C93.75 229.82 94.03 230.10 94.36 230.10C94.70 230.10 94.98 229.82 94.98 229.48ZM101.22 226.67C101.22 225.02 100.45 223.23 98.61 223.23C96.76 223.23 96.00 225.02 96.00 226.67C96.00 228.32 96.76 230.12 98.61 230.12C100.45 230.12 101.22 228.32 101.22 226.67ZM100.21 226.67C100.21 227.97 99.79 229.24 98.61 229.24C97.42 229.24 97.01 227.97 97.01 226.67C97.01 225.37 97.42 224.11 98.61 224.11C99.79 224.11 100.21 225.37 100.21 226.67ZM107.36 226.67C107.36 225.02 106.59 223.23 104.75 223.23C102.90 223.23 102.14 225.02 102.14 226.67C102.14 228.32 102.90 230.12 104.75 230.12C106.59 230.12 107.36 228.32 107.36 226.67ZM106.35 226.67C106.35 227.97 105.93 229.24 104.75 229.24C103.56 229.24 103.15 227.97 103.15 226.67C103.15 225.37 103.56 224.11 104.75 224.11C105.93 224.11 106.35 225.37 106.35 226.67Z" fill="#627386" /><path d="M157.53 226.67C157.53 225.02 156.76 223.23 154.92 223.23C153.07 223.23 152.31 225.02 152.31 226.67C152.31 228.32 153.07 230.12 154.92 230.12C156.76 230.12 157.53 228.32 157.53 226.67ZM156.52 226.67C156.52 227.97 156.10 229.24 154.92 229.24C153.73 229.24 153.32 227.97 153.32 226.67C153.32 225.37 153.73 224.11 154.92 224.11C156.10 224.11 156.52 225.37 156.52 226.67ZM163.46 227.89C163.46 226.53 162.45 225.75 161.34 225.75C160.68 225.75 160.12 226.02 159.80 226.34L159.80 224.21L162.66 224.21C162.90 224.21 163.09 224.01 163.09 223.78C163.09 223.52 162.90 223.33 162.66 223.33L159.47 223.33C159.11 223.33 158.81 223.62 158.81 223.98L158.81 226.70C158.81 226.98 159.04 227.19 159.32 227.19C159.46 227.19 159.60 227.13 159.72 227.05C160.10 226.75 160.55 226.61 161.03 226.61C161.89 226.61 162.47 227.13 162.47 227.93C162.47 228.67 161.89 229.24 161.01 229.24C160.38 229.24 159.87 229.04 159.45 228.67C159.37 228.60 159.26 228.56 159.16 228.56C158.91 228.56 158.72 228.80 158.72 229.02C158.72 229.12 158.75 229.21 158.81 229.29C159.27 229.82 160.07 230.12 161.01 230.12C162.43 230.12 163.46 229.27 163.46 227.89ZM165.74 225.72C165.74 225.38 165.46 225.10 165.12 225.10C164.79 225.10 164.51 225.38 164.51 225.72C164.51 226.06 164.79 226.34 165.12 226.34C165.46 226.34 165.74 226.06 165.74 225.72ZM165.74 229.48C165.74 229.15 165.46 228.86 165.12 228.86C164.79 228.86 164.51 229.15 164.51 229.48C164.51 229.82 164.79 230.10 165.12 230.10C165.46 230.10 165.74 229.82 165.74 229.48ZM171.98 226.67C171.98 225.02 171.21 223.23 169.37 223.23C167.52 223.23 166.76 225.02 166.76 226.67C166.76 228.32 167.52 230.12 169.37 230.12C171.21 230.12 171.98 228.32 171.98 226.67ZM170.97 226.67C170.97 227.97 170.55 229.24 169.37 229.24C168.18 229.24 167.77 227.97 167.77 226.67C167.77 225.37 168.18 224.11 169.37 224.11C170.55 224.11 170.97 225.37 170.97 226.67ZM178.12 226.67C178.12 225.02 177.35 223.23 175.51 223.23C173.66 223.23 172.90 225.02 172.90 226.67C172.90 228.32 173.66 230.12 175.51 230.12C177.35 230.12 178.12 228.32 178.12 226.67ZM177.11 226.67C177.11 227.97 176.69 229.24 175.51 229.24C174.32 229.24 173.91 227.97 173.91 226.67C173.91 225.37 174.32 224.11 175.51 224.11C176.69 224.11 177.11 225.37 177.11 226.67Z" fill="#627386" /><path d="M228.50 226.67C228.50 225.02 227.73 223.23 225.89 223.23C224.04 223.23 223.28 225.02 223.28 226.67C223.28 228.32 224.04 230.12 225.89 230.12C227.73 230.12 228.50 228.32 228.50 226.67ZM227.49 226.67C227.49 227.97 227.07 229.24 225.89 229.24C224.70 229.24 224.29 227.97 224.29 226.67C224.29 225.37 224.70 224.11 225.89 224.11C227.07 224.11 227.49 225.37 227.49 226.67ZM233.98 223.81C233.98 223.52 233.73 223.33 233.51 223.33L229.62 223.33C229.38 223.33 229.19 223.52 229.19 223.76C229.19 224.01 229.38 224.21 229.62 224.21L232.78 224.21L230.45 229.38C230.42 229.44 230.40 229.51 230.40 229.57C230.40 229.82 230.61 230.06 230.91 230.06C231.10 230.06 231.28 229.95 231.36 229.77L233.94 223.99C233.96 223.94 233.98 223.87 233.98 223.81ZM235.99 225.72C235.99 225.38 235.71 225.10 235.37 225.10C235.04 225.10 234.76 225.38 234.76 225.72C234.76 226.06 235.04 226.34 235.37 226.34C235.71 226.34 235.99 226.06 235.99 225.72ZM235.99 229.48C235.99 229.15 235.71 228.86 235.37 228.86C235.04 228.86 234.76 229.15 234.76 229.48C234.76 229.82 235.04 230.10 235.37 230.10C235.71 230.10 235.99 229.82 235.99 229.48ZM242.23 226.67C242.23 225.02 241.46 223.23 239.62 223.23C237.77 223.23 237.01 225.02 237.01 226.67C237.01 228.32 237.77 230.12 239.62 230.12C241.46 230.12 242.23 228.32 242.23 226.67ZM241.22 226.67C241.22 227.97 240.80 229.24 239.62 229.24C238.43 229.24 238.02 227.97 238.02 226.67C238.02 225.37 238.43 224.11 239.62 224.11C240.80 224.11 241.22 225.37 241.22 226.67ZM248.37 226.67C248.37 225.02 247.60 223.23 245.76 223.23C243.91 223.23 243.15 225.02 243.15 226.67C243.15 228.32 243.91 230.12 245.76 230.12C247.60 230.12 248.37 228.32 248.37 226.67ZM247.36 226.67C247.36 227.97 246.94 229.24 245.76 229.24C244.57 229.24 244.16 227.97 244.16 226.67C244.16 225.37 244.57 224.11 245.76 224.11C246.94 224.11 247.36 225.37 247.36 226.67Z" fill="#627386" /><path d="M298.74 226.67C298.74 225.02 297.97 223.23 296.13 223.23C294.28 223.23 293.52 225.02 293.52 226.67C293.52 228.32 294.28 230.12 296.13 230.12C297.97 230.12 298.74 228.32 298.74 226.67ZM297.73 226.67C297.73 227.97 297.31 229.24 296.13 229.24C294.94 229.24 294.53 227.97 294.53 226.67C294.53 225.37 294.94 224.11 296.13 224.11C297.31 224.11 297.73 225.37 297.73 226.67ZM304.69 226.66C304.69 224.83 303.94 223.22 302.04 223.22C300.56 223.22 299.64 224.23 299.64 225.43C299.64 226.85 300.64 227.57 301.84 227.57C302.67 227.57 303.39 227.24 303.68 226.68C303.69 226.73 303.69 226.79 303.69 226.81C303.69 228.04 303.08 229.23 301.87 229.23C301.39 229.23 301.05 229.09 300.77 228.86C300.70 228.81 300.61 228.78 300.51 228.78C300.28 228.78 300.06 228.97 300.06 229.22C300.06 229.32 300.10 229.41 300.16 229.48C300.56 229.91 301.16 230.11 301.87 230.11C303.77 230.11 304.69 228.53 304.69 226.66ZM303.42 225.42C303.42 226.05 302.89 226.72 302.07 226.72C301.07 226.72 300.64 226.10 300.64 225.39C300.64 224.80 301.12 224.10 302.08 224.10C302.98 224.10 303.42 224.74 303.42 225.42ZM306.96 225.72C306.96 225.38 306.68 225.10 306.34 225.10C306.01 225.10 305.73 225.38 305.73 225.72C305.73 226.06 306.01 226.34 306.34 226.34C306.68 226.34 306.96 226.06 306.96 225.72ZM306.96 229.48C306.96 229.15 306.68 228.86 306.34 228.86C306.01 228.86 305.73 229.15 305.73 229.48C305.73 229.82 306.01 230.10 306.34 230.10C306.68 230.10 306.96 229.82 306.96 229.48ZM313.20 226.67C313.20 225.02 312.43 223.23 310.59 223.23C308.74 223.23 307.98 225.02 307.98 226.67C307.98 228.32 308.74 230.12 310.59 230.12C312.43 230.12 313.20 228.32 313.20 226.67ZM312.19 226.67C312.19 227.97 311.77 229.24 310.59 229.24C309.40 229.24 308.99 227.97 308.99 226.67C308.99 225.37 309.40 224.11 310.59 224.11C311.77 224.11 312.19 225.37 312.19 226.67ZM319.34 226.67C319.34 225.02 318.57 223.23 316.73 223.23C314.88 223.23 314.12 225.02 314.12 226.67C314.12 228.32 314.88 230.12 316.73 230.12C318.57 230.12 319.34 228.32 319.34 226.67ZM318.33 226.67C318.33 227.97 317.91 229.24 316.73 229.24C315.54 229.24 315.13 227.97 315.13 226.67C315.13 225.37 315.54 224.11 316.73 224.11C317.91 224.11 318.33 225.37 318.33 226.67Z" fill="#627386" /><path d="M368.98 223.83C368.98 223.52 368.71 223.28 368.41 223.28C368.25 223.28 368.11 223.33 368.01 223.44L366.56 224.91C366.48 225 366.44 225.10 366.44 225.21C366.44 225.45 366.65 225.63 366.86 225.63C366.97 225.63 367.06 225.59 367.14 225.51L367.99 224.63L367.99 229.57C367.99 229.84 368.21 230.06 368.48 230.06C368.76 230.06 368.98 229.84 368.98 229.57ZM372.56 223.83C372.56 223.52 372.29 223.28 371.99 223.28C371.83 223.28 371.69 223.33 371.59 223.44L370.14 224.91C370.06 225 370.02 225.10 370.02 225.21C370.02 225.45 370.23 225.63 370.44 225.63C370.55 225.63 370.64 225.59 370.72 225.51L371.57 224.63L371.57 229.57C371.57 229.84 371.79 230.06 372.06 230.06C372.34 230.06 372.56 229.84 372.56 229.57ZM375.10 225.72C375.10 225.38 374.82 225.10 374.48 225.10C374.15 225.10 373.87 225.38 373.87 225.72C373.87 226.06 374.15 226.34 374.48 226.34C374.82 226.34 375.10 226.06 375.10 225.72ZM375.10 229.48C375.10 229.15 374.82 228.86 374.48 228.86C374.15 228.86 373.87 229.15 373.87 229.48C373.87 229.82 374.15 230.10 374.48 230.10C374.82 230.10 375.10 229.82 375.10 229.48ZM381.34 226.67C381.34 225.02 380.57 223.23 378.73 223.23C376.88 223.23 376.12 225.02 376.12 226.67C376.12 228.32 376.88 230.12 378.73 230.12C380.57 230.12 381.34 228.32 381.34 226.67ZM380.33 226.67C380.33 227.97 379.91 229.24 378.73 229.24C377.54 229.24 377.13 227.97 377.13 226.67C377.13 225.37 377.54 224.11 378.73 224.11C379.91 224.11 380.33 225.37 380.33 226.67ZM387.48 226.67C387.48 225.02 386.71 223.23 384.87 223.23C383.02 223.23 382.26 225.02 382.26 226.67C382.26 228.32 383.02 230.12 384.87 230.12C386.71 230.12 387.48 228.32 387.48 226.67ZM386.47 226.67C386.47 227.97 386.05 229.24 384.87 229.24C383.68 229.24 383.27 227.97 383.27 226.67C383.27 225.37 383.68 224.11 384.87 224.11C386.05 224.11 386.47 225.37 386.47 226.67Z" fill="#627386" /><path d="M438.56 223.83C438.56 223.52 438.29 223.28 437.99 223.28C437.83 223.28 437.69 223.33 437.59 223.44L436.14 224.91C436.06 225 436.02 225.10 436.02 225.21C436.02 225.45 436.23 225.63 436.44 225.63C436.55 225.63 436.64 225.59 436.72 225.51L437.57 224.63L437.57 229.57C437.57 229.84 437.79 230.06 438.06 230.06C438.34 230.06 438.56 229.84 438.56 229.57ZM444.44 228.19C444.44 226.94 443.49 226.56 443.49 226.56C443.49 226.56 444.34 226.15 444.34 225.02C444.34 223.89 443.36 223.23 442.01 223.23C441.11 223.23 440.41 223.54 439.88 224.03C439.80 224.10 439.75 224.22 439.75 224.33C439.75 224.57 439.97 224.75 440.18 224.75C440.27 224.75 440.36 224.72 440.43 224.66C440.86 224.30 441.35 224.11 441.92 224.11C442.70 224.11 443.35 224.47 443.35 225.16C443.35 226 442.70 226.16 441.73 226.15C441.48 226.15 441.30 226.34 441.30 226.58C441.30 227.02 441.72 227.05 442.08 227.03C442.85 227.03 443.46 227.35 443.46 228.10C443.46 228.80 442.90 229.24 441.98 229.24C441.37 229.24 440.80 229.01 440.37 228.64C440.29 228.57 440.19 228.54 440.10 228.54C439.86 228.54 439.66 228.76 439.66 228.99C439.66 229.08 439.69 229.17 439.76 229.24C440.19 229.75 441.05 230.12 442.01 230.12C443.51 230.12 444.44 229.31 444.44 228.19ZM446.75 225.72C446.75 225.38 446.47 225.10 446.13 225.10C445.80 225.10 445.52 225.38 445.52 225.72C445.52 226.06 445.80 226.34 446.13 226.34C446.47 226.34 446.75 226.06 446.75 225.72ZM446.75 229.48C446.75 229.15 446.47 228.86 446.13 228.86C445.80 228.86 445.52 229.15 445.52 229.48C445.52 229.82 445.80 230.10 446.13 230.10C446.47 230.10 446.75 229.82 446.75 229.48ZM452.99 226.67C452.99 225.02 452.22 223.23 450.38 223.23C448.53 223.23 447.77 225.02 447.77 226.67C447.77 228.32 448.53 230.12 450.38 230.12C452.22 230.12 452.99 228.32 452.99 226.67ZM451.98 226.67C451.98 227.97 451.56 229.24 450.38 229.24C449.19 229.24 448.78 227.97 448.78 226.67C448.78 225.37 449.19 224.11 450.38 224.11C451.56 224.11 451.98 225.37 451.98 226.67ZM459.13 226.67C459.13 225.02 458.36 223.23 456.52 223.23C454.67 223.23 453.91 225.02 453.91 226.67C453.91 228.32 454.67 230.12 456.52 230.12C458.36 230.12 459.13 228.32 459.13 226.67ZM458.12 226.67C458.12 227.97 457.70 229.24 456.52 229.24C455.33 229.24 454.92 227.97 454.92 226.67C454.92 225.37 455.33 224.11 456.52 224.11C457.70 224.11 458.12 225.37 458.12 226.67Z" fill="#627386" /><path d="M509.02 223.83C509.02 223.52 508.75 223.28 508.45 223.28C508.29 223.28 508.15 223.33 508.05 223.44L506.60 224.91C506.52 225 506.48 225.10 506.48 225.21C506.48 225.45 506.69 225.63 506.90 225.63C507.01 225.63 507.10 225.59 507.18 225.51L508.03 224.63L508.03 229.57C508.03 229.84 508.25 230.06 508.52 230.06C508.80 230.06 509.02 229.84 509.02 229.57ZM515.23 227.89C515.23 226.53 514.22 225.75 513.11 225.75C512.45 225.75 511.89 226.02 511.57 226.34L511.57 224.21L514.43 224.21C514.67 224.21 514.86 224.01 514.86 223.78C514.86 223.52 514.67 223.33 514.43 223.33L511.24 223.33C510.88 223.33 510.58 223.62 510.58 223.98L510.58 226.70C510.58 226.98 510.81 227.19 511.09 227.19C511.23 227.19 511.37 227.13 511.49 227.05C511.87 226.75 512.32 226.61 512.80 226.61C513.66 226.61 514.24 227.13 514.24 227.93C514.24 228.67 513.66 229.24 512.78 229.24C512.15 229.24 511.64 229.04 511.22 228.67C511.14 228.60 511.03 228.56 510.93 228.56C510.68 228.56 510.49 228.80 510.49 229.02C510.49 229.12 510.52 229.21 510.58 229.29C511.04 229.82 511.84 230.12 512.78 230.12C514.20 230.12 515.23 229.27 515.23 227.89ZM517.51 225.72C517.51 225.38 517.23 225.10 516.89 225.10C516.56 225.10 516.28 225.38 516.28 225.72C516.28 226.06 516.56 226.34 516.89 226.34C517.23 226.34 517.51 226.06 517.51 225.72ZM517.51 229.48C517.51 229.15 517.23 228.86 516.89 228.86C516.56 228.86 516.28 229.15 516.28 229.48C516.28 229.82 516.56 230.10 516.89 230.10C517.23 230.10 517.51 229.82 517.51 229.48ZM523.75 226.67C523.75 225.02 522.98 223.23 521.14 223.23C519.29 223.23 518.53 225.02 518.53 226.67C518.53 228.32 519.29 230.12 521.14 230.12C522.98 230.12 523.75 228.32 523.75 226.67ZM522.74 226.67C522.74 227.97 522.32 229.24 521.14 229.24C519.95 229.24 519.54 227.97 519.54 226.67C519.54 225.37 519.95 224.11 521.14 224.11C522.32 224.11 522.74 225.37 522.74 226.67ZM529.89 226.67C529.89 225.02 529.12 223.23 527.28 223.23C525.43 223.23 524.67 225.02 524.67 226.67C524.67 228.32 525.43 230.12 527.28 230.12C529.12 230.12 529.89 228.32 529.89 226.67ZM528.88 226.67C528.88 227.97 528.46 229.24 527.28 229.24C526.09 229.24 525.68 227.97 525.68 226.67C525.68 225.37 526.09 224.11 527.28 224.11C528.46 224.11 528.88 225.37 528.88 226.67Z" fill="#627386" /><path d="M579.98 223.83C579.98 223.52 579.71 223.28 579.41 223.28C579.25 223.28 579.11 223.33 579.01 223.44L577.56 224.91C577.48 225 577.44 225.10 577.44 225.21C577.44 225.45 577.65 225.63 577.86 225.63C577.97 225.63 578.06 225.59 578.14 225.51L578.99 224.63L578.99 229.57C578.99 229.84 579.21 230.06 579.48 230.06C579.76 230.06 579.98 229.84 579.98 229.57ZM585.74 223.81C585.74 223.52 585.49 223.33 585.27 223.33L581.38 223.33C581.14 223.33 580.95 223.52 580.95 223.76C580.95 224.01 581.14 224.21 581.38 224.21L584.54 224.21L582.21 229.38C582.18 229.44 582.16 229.51 582.16 229.57C582.16 229.82 582.37 230.06 582.67 230.06C582.86 230.06 583.04 229.95 583.12 229.77L585.70 223.99C585.72 223.94 585.74 223.87 585.74 223.81ZM587.75 225.72C587.75 225.38 587.47 225.10 587.13 225.10C586.80 225.10 586.52 225.38 586.52 225.72C586.52 226.06 586.80 226.34 587.13 226.34C587.47 226.34 587.75 226.06 587.75 225.72ZM587.75 229.48C587.75 229.15 587.47 228.86 587.13 228.86C586.80 228.86 586.52 229.15 586.52 229.48C586.52 229.82 586.80 230.10 587.13 230.10C587.47 230.10 587.75 229.82 587.75 229.48ZM593.99 226.67C593.99 225.02 593.22 223.23 591.38 223.23C589.53 223.23 588.77 225.02 588.77 226.67C588.77 228.32 589.53 230.12 591.38 230.12C593.22 230.12 593.99 228.32 593.99 226.67ZM592.98 226.67C592.98 227.97 592.56 229.24 591.38 229.24C590.19 229.24 589.78 227.97 589.78 226.67C589.78 225.37 590.19 224.11 591.38 224.11C592.56 224.11 592.98 225.37 592.98 226.67ZM600.13 226.67C600.13 225.02 599.36 223.23 597.52 223.23C595.67 223.23 594.91 225.02 594.91 226.67C594.91 228.32 595.67 230.12 597.52 230.12C599.36 230.12 600.13 228.32 600.13 226.67ZM599.12 226.67C599.12 227.97 598.70 229.24 597.52 229.24C596.33 229.24 595.92 227.97 595.92 226.67C595.92 225.37 596.33 224.11 597.52 224.11C598.70 224.11 599.12 225.37 599.12 226.67Z" fill="#627386" /><path d="M650.23 223.83C650.23 223.52 649.96 223.28 649.66 223.28C649.50 223.28 649.36 223.33 649.26 223.44L647.81 224.91C647.73 225 647.69 225.10 647.69 225.21C647.69 225.45 647.90 225.63 648.11 225.63C648.22 225.63 648.31 225.59 648.39 225.51L649.24 224.63L649.24 229.57C649.24 229.84 649.46 230.06 649.73 230.06C650.01 230.06 650.23 229.84 650.23 229.57ZM656.46 226.66C656.46 224.83 655.71 223.22 653.81 223.22C652.33 223.22 651.41 224.23 651.41 225.43C651.41 226.85 652.41 227.57 653.61 227.57C654.44 227.57 655.16 227.24 655.45 226.68C655.46 226.73 655.46 226.79 655.46 226.81C655.46 228.04 654.85 229.23 653.64 229.23C653.16 229.23 652.82 229.09 652.54 228.86C652.47 228.81 652.38 228.78 652.28 228.78C652.05 228.78 651.83 228.97 651.83 229.22C651.83 229.32 651.87 229.41 651.93 229.48C652.33 229.91 652.93 230.11 653.64 230.11C655.54 230.11 656.46 228.53 656.46 226.66ZM655.19 225.42C655.19 226.05 654.66 226.72 653.84 226.72C652.84 226.72 652.41 226.10 652.41 225.39C652.41 224.80 652.89 224.10 653.85 224.10C654.75 224.10 655.19 224.74 655.19 225.42ZM658.73 225.72C658.73 225.38 658.45 225.10 658.11 225.10C657.78 225.10 657.50 225.38 657.50 225.72C657.50 226.06 657.78 226.34 658.11 226.34C658.45 226.34 658.73 226.06 658.73 225.72ZM658.73 229.48C658.73 229.15 658.45 228.86 658.11 228.86C657.78 228.86 657.50 229.15 657.50 229.48C657.50 229.82 657.78 230.10 658.11 230.10C658.45 230.10 658.73 229.82 658.73 229.48ZM664.97 226.67C664.97 225.02 664.20 223.23 662.36 223.23C660.51 223.23 659.75 225.02 659.75 226.67C659.75 228.32 660.51 230.12 662.36 230.12C664.20 230.12 664.97 228.32 664.97 226.67ZM663.96 226.67C663.96 227.97 663.54 229.24 662.36 229.24C661.17 229.24 660.76 227.97 660.76 226.67C660.76 225.37 661.17 224.11 662.36 224.11C663.54 224.11 663.96 225.37 663.96 226.67ZM671.11 226.67C671.11 225.02 670.34 223.23 668.50 223.23C666.65 223.23 665.89 225.02 665.89 226.67C665.89 228.32 666.65 230.12 668.50 230.12C670.34 230.12 671.11 228.32 671.11 226.67ZM670.10 226.67C670.10 227.97 669.68 229.24 668.50 229.24C667.31 229.24 666.90 227.97 666.90 226.67C666.90 225.37 667.31 224.11 668.50 224.11C669.68 224.11 670.10 225.37 670.10 226.67Z" fill="#627386" /><path d="M723.30 229.55C723.30 229.32 723.11 229.12 722.87 229.12L720.12 229.12C721.94 227.71 723.20 226.54 723.20 225.24C723.20 223.91 722.07 223.23 720.88 223.23C720.06 223.23 719.20 223.53 718.71 224.07C718.64 224.15 718.61 224.25 718.61 224.34C718.61 224.59 718.83 224.78 719.06 224.78C719.16 224.78 719.26 224.75 719.34 224.67C719.74 224.32 720.26 224.11 720.89 224.11C721.54 224.11 722.20 224.46 722.20 225.24C722.20 226.26 721.03 227.32 718.65 229.13C718.53 229.23 718.46 229.37 718.46 229.52C718.46 229.80 718.68 230 718.92 230L722.87 230C723.11 230 723.30 229.81 723.30 229.55ZM726.77 223.83C726.77 223.52 726.50 223.28 726.20 223.28C726.04 223.28 725.90 223.33 725.80 223.44L724.35 224.91C724.27 225 724.23 225.10 724.23 225.21C724.23 225.45 724.44 225.63 724.65 225.63C724.76 225.63 724.85 225.59 724.93 225.51L725.78 224.63L725.78 229.57C725.78 229.84 726.00 230.06 726.27 230.06C726.55 230.06 726.77 229.84 726.77 229.57ZM729.31 225.72C729.31 225.38 729.03 225.10 728.69 225.10C728.36 225.10 728.08 225.38 728.08 225.72C728.08 226.06 728.36 226.34 728.69 226.34C729.03 226.34 729.31 226.06 729.31 225.72ZM729.31 229.48C729.31 229.15 729.03 228.86 728.69 228.86C728.36 228.86 728.08 229.15 728.08 229.48C728.08 229.82 728.36 230.10 728.69 230.10C729.03 230.10 729.31 229.82 729.31 229.48ZM735.55 226.67C735.55 225.02 734.78 223.23 732.94 223.23C731.09 223.23 730.33 225.02 730.33 226.67C730.33 228.32 731.09 230.12 732.94 230.12C734.78 230.12 735.55 228.32 735.55 226.67ZM734.54 226.67C734.54 227.97 734.12 229.24 732.94 229.24C731.75 229.24 731.34 227.97 731.34 226.67C731.34 225.37 731.75 224.11 732.94 224.11C734.12 224.11 734.54 225.37 734.54 226.67ZM741.69 226.67C741.69 225.02 740.92 223.23 739.08 223.23C737.23 223.23 736.47 225.02 736.47 226.67C736.47 228.32 737.23 230.12 739.08 230.12C740.92 230.12 741.69 228.32 741.69 226.67ZM740.68 226.67C740.68 227.97 740.26 229.24 739.08 229.24C737.89 229.24 737.48 227.97 737.48 226.67C737.48 225.37 737.89 224.11 739.08 224.11C740.26 224.11 740.68 225.37 740.68 226.67Z" fill="#627386" /><path d="M792.88 229.55C792.88 229.32 792.69 229.12 792.45 229.12L789.70 229.12C791.52 227.71 792.78 226.54 792.78 225.24C792.78 223.91 791.65 223.23 790.46 223.23C789.64 223.23 788.78 223.53 788.29 224.07C788.22 224.15 788.19 224.25 788.19 224.34C788.19 224.59 788.41 224.78 788.64 224.78C788.74 224.78 788.84 224.75 788.92 224.67C789.32 224.32 789.84 224.11 790.47 224.11C791.12 224.11 791.78 224.46 791.78 225.24C791.78 226.26 790.61 227.32 788.23 229.13C788.11 229.23 788.04 229.37 788.04 229.52C788.04 229.80 788.26 230 788.50 230L792.45 230C792.69 230 792.88 229.81 792.88 229.55ZM798.65 228.19C798.65 226.94 797.70 226.56 797.70 226.56C797.70 226.56 798.55 226.15 798.55 225.02C798.55 223.89 797.57 223.23 796.22 223.23C795.32 223.23 794.62 223.54 794.09 224.03C794.01 224.10 793.96 224.22 793.96 224.33C793.96 224.57 794.18 224.75 794.39 224.75C794.48 224.75 794.57 224.72 794.64 224.66C795.07 224.30 795.56 224.11 796.13 224.11C796.91 224.11 797.56 224.47 797.56 225.16C797.56 226 796.91 226.16 795.94 226.15C795.69 226.15 795.51 226.34 795.51 226.58C795.51 227.02 795.93 227.05 796.29 227.03C797.06 227.03 797.67 227.35 797.67 228.10C797.67 228.80 797.11 229.24 796.19 229.24C795.58 229.24 795.01 229.01 794.58 228.64C794.50 228.57 794.40 228.54 794.31 228.54C794.07 228.54 793.87 228.76 793.87 228.99C793.87 229.08 793.90 229.17 793.97 229.24C794.40 229.75 795.26 230.12 796.22 230.12C797.72 230.12 798.65 229.31 798.65 228.19ZM800.96 225.72C800.96 225.38 800.68 225.10 800.34 225.10C800.01 225.10 799.73 225.38 799.73 225.72C799.73 226.06 800.01 226.34 800.34 226.34C800.68 226.34 800.96 226.06 800.96 225.72ZM800.96 229.48C800.96 229.15 800.68 228.86 800.34 228.86C800.01 228.86 799.73 229.15 799.73 229.48C799.73 229.82 800.01 230.10 800.34 230.10C800.68 230.10 800.96 229.82 800.96 229.48ZM807.20 226.67C807.20 225.02 806.43 223.23 804.59 223.23C802.74 223.23 801.98 225.02 801.98 226.67C801.98 228.32 802.74 230.12 804.59 230.12C806.43 230.12 807.20 228.32 807.20 226.67ZM806.19 226.67C806.19 227.97 805.77 229.24 804.59 229.24C803.40 229.24 802.99 227.97 802.99 226.67C802.99 225.37 803.40 224.11 804.59 224.11C805.77 224.11 806.19 225.37 806.19 226.67ZM813.34 226.67C813.34 225.02 812.57 223.23 810.73 223.23C808.88 223.23 808.12 225.02 808.12 226.67C808.12 228.32 808.88 230.12 810.73 230.12C812.57 230.12 813.34 228.32 813.34 226.67ZM812.33 226.67C812.33 227.97 811.91 229.24 810.73 229.24C809.54 229.24 809.13 227.97 809.13 226.67C809.13 225.37 809.54 224.11 810.73 224.11C811.91 224.11 812.33 225.37 812.33 226.67Z" fill="#627386" /></svg>