<svg xmlns="http://www.w3.org/2000/svg" width="420" height="184" viewBox="0 0 420 184" role="img"><rect x="0.5" y="0.5" width="419" height="183" rx="10" fill="#161b22" stroke="#30363d" /><path d="M30.72 33.60C30.72 32.83 30.10 32.21 29.37 32.21L28.69 32.21L28.69 24.95C28.69 23.59 27.37 22.97 26.03 23.19C25.08 23.19 24.14 23.70 23.63 24.49L18.73 32.24C18.53 32.54 18.44 32.90 18.44 33.25C18.44 34.24 19.17 34.96 20.05 34.96L25.57 34.96L25.57 36.59C25.57 37.43 26.27 38.13 27.11 38.13C27.99 38.13 28.69 37.43 28.69 36.59L28.69 34.96L29.37 34.96C30.10 34.96 30.72 34.35 30.72 33.60ZM21.61 32.21L25.57 26.10L25.57 32.21ZM43.70 33.97C43.70 31.97 42.51 30.83 41.63 30.43C42.38 30.08 43.45 29.24 43.45 26.98C43.45 24.45 40.73 23.11 37.80 23.11C34.85 23.11 32.15 24.45 32.15 26.98C32.15 29.24 33.20 30.08 33.95 30.43C33.07 30.83 31.90 31.97 31.90 33.97C31.90 36.72 34.72 38.26 37.80 38.26C40.88 38.26 43.70 36.70 43.70 33.97ZM40.26 27.46C40.26 28.56 39.14 29.20 37.80 29.20C36.46 29.20 35.31 28.56 35.31 27.46C35.31 26.41 36.35 25.79 37.80 25.79C39.23 25.79 40.26 26.41 40.26 27.46ZM40.53 33.80C40.53 34.88 39.30 35.58 37.80 35.58C36.26 35.58 35.07 34.88 35.07 33.80C35.07 32.57 36.44 31.84 37.80 31.84C39.14 31.84 40.53 32.57 40.53 33.80ZM49.20 36.92C49.20 35.49 48.25 34.68 47.22 34.68C46.29 34.68 45.50 35.47 45.50 36.44C45.50 37.38 46.16 38.02 47.00 38.02C47.15 38.02 47.35 37.98 47.41 37.96C47.28 38.53 46.80 39.21 46.23 39.67C46.07 39.80 46.01 39.98 46.01 40.16C46.01 40.60 46.47 40.86 46.84 40.86C47.06 40.86 47.26 40.79 47.41 40.64C48.51 39.65 49.20 38.33 49.20 36.92ZM62.04 34.00C62.22 31.36 60.44 30.43 60.44 30.43C60.44 30.43 62.07 29.60 61.89 27.09C61.71 24.65 59.78 23.11 56.35 23.11C54.32 23.11 52.74 23.70 51.53 24.67C51.22 24.91 51.07 25.26 51.07 25.61C51.07 26.38 51.75 26.93 52.43 26.93C52.69 26.93 52.96 26.87 53.18 26.71C54.04 26.16 55.00 25.88 56.02 25.88C57.56 25.88 58.74 26.23 58.74 27.40C58.74 28.61 58.02 29.18 56.54 29.18C55.49 29.18 55.03 29.77 55.03 30.54C55.03 31.31 55.49 31.93 56.63 31.93C58.13 31.93 58.99 32.46 58.99 33.62C58.99 34.72 58.00 35.49 56.21 35.49C55.20 35.49 54.04 35.14 53.07 34.57C52.83 34.41 52.56 34.35 52.30 34.35C51.57 34.35 50.87 34.94 50.87 35.73C50.87 35.95 50.93 36.15 51.04 36.33C51.73 37.47 54.21 38.26 56.32 38.26C59.84 38.26 61.87 36.75 62.04 34.00ZM75.22 36.59C75.22 35.87 74.61 35.25 73.88 35.25L69.11 35.25C72.91 32.48 74.98 30.30 74.98 27.79C74.98 24.87 72.49 23.11 69.37 23.11C67.52 23.11 65.06 23.90 64.35 25.02C64.22 25.22 64.16 25.44 64.16 25.66C64.16 26.45 64.79 27.07 65.52 27.07C65.85 27.07 66.14 26.98 66.42 26.78C67.26 26.21 68.27 25.88 69.44 25.88C70.65 25.88 71.81 26.52 71.81 27.79C71.81 29.51 70.05 31.11 64.57 35.16C64.16 35.47 63.91 35.98 63.91 36.48C63.91 37.36 64.62 38 65.39 38L73.88 38C74.61 38 75.22 37.38 75.22 36.59ZM88.93 33.60C88.93 32.83 88.31 32.21 87.59 32.21L86.90 32.21L86.90 24.95C86.90 23.59 85.58 22.97 84.24 23.19C83.30 23.19 82.35 23.70 81.84 24.49L76.94 32.24C76.74 32.54 76.65 32.90 76.65 33.25C76.65 34.24 77.38 34.96 78.26 34.96L83.78 34.96L83.78 36.59C83.78 37.43 84.48 38.13 85.32 38.13C86.20 38.13 86.90 37.43 86.90 36.59L86.90 34.96L87.59 34.96C88.31 34.96 88.93 34.35 88.93 33.60ZM79.82 32.21L83.78 26.10L83.78 32.21ZM103.54 23.08C99.14 23.08 95.73 26.16 95.73 30.67C95.73 35.18 99.14 38.26 103.54 38.26C106.07 38.26 107.76 37.16 108.86 35.82C109.08 35.58 109.17 35.27 109.17 34.96C109.17 34.22 108.53 33.60 107.74 33.60C107.30 33.60 106.86 33.78 106.55 34.11C105.74 35.01 104.64 35.49 103.54 35.49C100.87 35.49 98.94 33.45 98.94 30.67C98.94 27.90 100.87 25.86 103.54 25.86C104.64 25.86 105.71 26.38 106.55 27.26C106.86 27.59 107.28 27.77 107.69 27.77C108.51 27.77 109.19 27.15 109.19 26.36C109.19 26.08 109.08 25.75 108.88 25.50C107.76 24.16 106.07 23.08 103.54 23.08ZM122.04 32.68C122.04 29.66 119.93 27.11 116.41 27.11C112.91 27.11 110.80 29.66 110.80 32.68C110.80 35.71 112.91 38.26 116.41 38.26C119.93 38.26 122.04 35.71 122.04 32.68ZM119.13 32.68C119.13 34.35 118.14 35.78 116.41 35.78C114.67 35.78 113.70 34.35 113.70 32.68C113.70 31.03 114.67 29.60 116.41 29.60C118.14 29.60 119.13 31.03 119.13 32.68ZM140.10 31.20C140.10 29.02 138.58 27.11 136.18 27.11C134.34 27.11 133.28 28.19 132.88 28.94C132.49 28.17 131.50 27.11 129.72 27.11C128.09 27.11 127.34 27.70 126.90 28.28L126.90 28.25C126.90 27.95 126.50 27.24 125.54 27.24C124.72 27.24 124.11 27.86 124.11 28.61L124.11 36.75C124.11 37.52 124.72 38.13 125.49 38.13C126.28 38.13 126.90 37.52 126.90 36.75L126.90 31.73C126.90 30.70 127.69 29.60 128.88 29.60C130.02 29.60 130.68 30.74 130.68 31.73L130.68 36.75C130.68 37.52 131.30 38.13 132.07 38.13C132.88 38.13 133.50 37.52 133.50 36.75L133.50 31.93C133.50 30.70 134.27 29.60 135.48 29.60C136.62 29.60 137.28 30.74 137.28 31.73L137.28 36.75C137.28 37.52 137.90 38.13 138.67 38.13C139.48 38.13 140.10 37.52 140.10 36.75ZM158.84 31.20C158.84 29.02 157.33 27.11 154.93 27.11C153.08 27.11 152.02 28.19 151.63 28.94C151.23 28.17 150.24 27.11 148.46 27.11C146.83 27.11 146.08 27.70 145.64 28.28L145.64 28.25C145.64 27.95 145.25 27.24 144.28 27.24C143.47 27.24 142.85 27.86 142.85 28.61L142.85 36.75C142.85 37.52 143.47 38.13 144.24 38.13C145.03 38.13 145.64 37.52 145.64 36.75L145.64 31.73C145.64 30.70 146.44 29.60 147.62 29.60C148.77 29.60 149.43 30.74 149.43 31.73L149.43 36.75C149.43 37.52 150.04 38.13 150.81 38.13C151.63 38.13 152.24 37.52 152.24 36.75L152.24 31.93C152.24 30.70 153.01 29.60 154.22 29.60C155.37 29.60 156.03 30.74 156.03 31.73L156.03 36.75C156.03 37.52 156.64 38.13 157.41 38.13C158.23 38.13 158.84 37.52 158.84 36.75ZM162.98 22.91C162.08 22.91 161.31 23.63 161.31 24.56C161.31 25.48 162.08 26.23 162.98 26.23C163.90 26.23 164.65 25.48 164.65 24.56C164.65 23.63 163.90 22.91 162.98 22.91ZM164.39 28.61C164.39 27.86 163.77 27.24 163.02 27.24C162.21 27.24 161.59 27.86 161.59 28.61L161.59 36.75C161.59 37.52 162.21 38.13 162.98 38.13C163.77 38.13 164.39 37.52 164.39 36.75ZM172.97 36.99C172.97 36.31 172.53 35.78 171.74 35.78L171.49 35.78C171.05 35.78 170.53 35.45 170.53 34.61L170.53 29.82L171.63 29.82C172.26 29.82 172.81 29.27 172.81 28.61C172.81 27.92 172.26 27.37 171.63 27.37L170.53 27.37L170.53 25.72C170.53 24.95 169.91 24.34 169.14 24.34C168.33 24.34 167.71 24.95 167.71 25.72L167.71 27.37L167.03 27.37C166.37 27.37 165.82 27.92 165.82 28.56C165.82 29.27 166.37 29.82 167.03 29.82L167.71 29.82L167.71 35.36C167.71 37.25 168.77 38.26 170.72 38.26C172.55 38.26 172.97 37.69 172.97 36.99ZM183.02 34.85C183.02 30.56 176.73 31.88 176.73 30.30C176.73 29.71 177.39 29.24 178.40 29.24C179.26 29.24 180.12 29.49 180.80 29.88C180.95 29.97 181.15 30.01 181.33 30.01C181.90 30.01 182.43 29.55 182.43 28.96C182.43 28.76 182.36 28.56 182.25 28.41C181.66 27.55 179.77 27.11 178.38 27.11C175.59 27.11 174.02 28.67 174.02 30.45C174.02 34.63 180.34 33.20 180.34 34.96C180.34 35.62 179.77 36.11 178.56 36.11C177.63 36.11 176.53 35.73 175.70 35.25C175.52 35.14 175.32 35.10 175.12 35.10C174.53 35.10 173.96 35.60 173.96 36.26C173.96 36.48 174.02 36.68 174.16 36.86C174.82 37.80 177.04 38.26 178.42 38.26C181.37 38.26 183.02 36.79 183.02 34.85Z" fill="#e6edf3" /><path d="M20.26 49.88C20.26 49.54 19.98 49.25 19.64 49.25C19.26 49.25 18.98 49.54 18.98 49.88L18.98 57.44C18.98 57.79 19.26 58.08 19.61 58.08C19.98 58.08 20.26 57.79 20.26 57.44ZM27.55 53.97C27.55 52.64 26.59 51.56 25.27 51.56C24.18 51.56 23.62 52.10 23.32 52.60L23.32 52.20C23.32 51.90 23.06 51.64 22.76 51.64C22.42 51.64 22.16 51.90 22.16 52.20L22.16 57.51C22.16 57.82 22.42 58.08 22.73 58.08C23.06 58.08 23.32 57.82 23.32 57.51L23.32 54.49C23.32 53.42 23.89 52.59 24.89 52.59C25.83 52.59 26.40 53.32 26.40 54.36L26.40 57.51C26.40 57.82 26.66 58.08 26.97 58.08C27.30 58.08 27.55 57.82 27.55 57.51ZM38.97 49.91C38.97 49.58 38.72 49.33 38.41 49.33L32.70 49.33C32.39 49.33 32.14 49.58 32.14 49.89C32.14 50.21 32.39 50.47 32.70 50.47L34.91 50.47L34.91 57.44C34.91 57.79 35.20 58.08 35.55 58.08C35.91 58.08 36.20 57.79 36.20 57.44L36.20 50.47L38.41 50.47C38.72 50.47 38.97 50.21 38.97 49.91ZM44.74 54.85C44.74 53.05 43.53 51.56 41.57 51.56C39.62 51.56 38.41 53.05 38.41 54.85C38.41 56.66 39.62 58.16 41.57 58.16C43.53 58.16 44.74 56.66 44.74 54.85ZM43.53 54.85C43.53 56.06 42.83 57.13 41.57 57.13C40.32 57.13 39.61 56.06 39.61 54.85C39.61 53.66 40.32 52.59 41.57 52.59C42.83 52.59 43.53 53.66 43.53 54.85ZM49.16 57.55C49.16 57.27 48.95 57.06 48.67 57.06C48.54 57.06 48.38 57.13 48.24 57.13C47.86 57.13 47.63 56.83 47.63 56.35L47.63 52.73L48.48 52.73C48.76 52.73 48.98 52.51 48.98 52.24C48.98 51.94 48.76 51.72 48.48 51.72L47.63 51.72L47.63 50.49C47.63 50.19 47.37 49.93 47.05 49.93C46.72 49.93 46.46 50.19 46.46 50.49L46.46 51.72L45.85 51.72C45.56 51.72 45.34 51.94 45.34 52.22C45.34 52.51 45.56 52.73 45.85 52.73L46.46 52.73L46.46 56.62C46.46 57.61 46.98 58.16 47.96 58.16C48.65 58.16 49.16 57.96 49.16 57.55ZM55.26 53.75C55.26 52.15 54.09 51.56 52.74 51.56C51.89 51.56 50.94 51.84 50.34 52.44C50.27 52.53 50.23 52.63 50.23 52.73C50.23 53.01 50.47 53.19 50.71 53.19C50.80 53.19 50.90 53.15 50.99 53.09C51.46 52.72 51.98 52.54 52.57 52.54C53.45 52.54 54.10 53.01 54.10 53.80L54.10 54.15L52.29 54.15C50.99 54.15 49.85 54.66 49.85 56.08C49.85 57.45 50.99 58.16 52.03 58.16C53.01 58.16 53.59 57.86 54.10 57.30L54.10 57.51C54.10 57.88 54.40 58.08 54.63 58.08L54.67 58.08C55.00 58.08 55.26 57.82 55.26 57.51ZM54.10 54.96L54.10 55.84C54.10 56.58 53.26 57.34 52.35 57.34C51.50 57.34 51.02 56.83 51.02 56.10C51.02 55.35 51.62 54.96 52.61 54.96ZM58.27 49.81C58.27 49.51 58.01 49.25 57.71 49.25C57.38 49.25 57.12 49.51 57.12 49.81L57.12 57.51C57.12 57.82 57.38 58.08 57.69 58.08C58.01 58.08 58.27 57.82 58.27 57.51Z" fill="#9aa7b4" /><line x1="18" y1="76" x2="48" y2="76" stroke="#9aa7b4" stroke-opacity="0.4" /><g aria-label="Additions: 34,279,007"><circle cx="22" cy="96" r="4" fill="#00d559" /><path d="M42.28 99.39C42.28 99.31 42.27 99.23 42.23 99.14L39.36 91.94C39.19 91.51 38.76 91.24 38.30 91.25C37.85 91.25 37.43 91.52 37.28 91.94L34.40 99.14C34.38 99.23 34.36 99.31 34.36 99.39C34.36 99.74 34.65 100.08 35.05 100.08C35.33 100.08 35.57 99.92 35.68 99.66L36.25 98.19L40.40 98.19L40.97 99.66C41.07 99.92 41.32 100.08 41.59 100.08C42.01 100.08 42.28 99.71 42.28 99.39ZM38.32 92.64L40.03 97.06L36.61 97.06ZM49.22 91.81C49.22 91.51 48.96 91.25 48.66 91.25C48.33 91.25 48.07 91.51 48.07 91.81L48.07 94.63C47.56 93.95 46.95 93.56 46.00 93.56C44.36 93.56 43.20 94.85 43.20 96.87C43.20 98.92 44.37 100.16 46.00 100.16C46.97 100.16 47.59 99.73 48.07 99.10L48.07 99.51C48.07 99.82 48.33 100.08 48.64 100.08C48.96 100.08 49.22 99.82 49.22 99.51ZM48.07 96.91C48.07 98.21 47.42 99.13 46.30 99.13C45.13 99.13 44.40 98.18 44.40 96.87C44.40 95.55 45.13 94.59 46.30 94.59C47.42 94.59 48.07 95.54 48.07 96.83ZM56.74 91.81C56.74 91.51 56.48 91.25 56.18 91.25C55.84 91.25 55.58 91.51 55.58 91.81L55.58 94.63C55.07 93.95 54.46 93.56 53.51 93.56C51.88 93.56 50.72 94.85 50.72 96.87C50.72 98.92 51.89 100.16 53.51 100.16C54.49 100.16 55.10 99.73 55.58 99.10L55.58 99.51C55.58 99.82 55.84 100.08 56.15 100.08C56.48 100.08 56.74 99.82 56.74 99.51ZM55.58 96.91C55.58 98.21 54.93 99.13 53.81 99.13C52.64 99.13 51.91 98.18 51.91 96.87C51.91 95.55 52.64 94.59 53.81 94.59C54.93 94.59 55.58 95.54 55.58 96.83ZM59.18 91.39C58.78 91.39 58.44 91.73 58.44 92.15C58.44 92.55 58.78 92.89 59.18 92.89C59.60 92.89 59.92 92.55 59.92 92.15C59.92 91.73 59.60 91.39 59.18 91.39ZM59.77 94.20C59.77 93.90 59.51 93.64 59.21 93.64C58.87 93.64 58.61 93.90 58.61 94.20L58.61 99.51C58.61 99.82 58.87 100.08 59.18 100.08C59.51 100.08 59.77 99.82 59.77 99.51ZM64.56 99.55C64.56 99.27 64.36 99.06 64.07 99.06C63.94 99.06 63.78 99.13 63.64 99.13C63.26 99.13 63.03 98.83 63.03 98.35L63.03 94.73L63.89 94.73C64.16 94.73 64.38 94.51 64.38 94.24C64.38 93.94 64.16 93.72 63.89 93.72L63.03 93.72L63.03 92.49C63.03 92.19 62.77 91.93 62.46 91.93C62.12 91.93 61.86 92.19 61.86 92.49L61.86 93.72L61.25 93.72C60.96 93.72 60.74 93.94 60.74 94.22C60.74 94.51 60.96 94.73 61.25 94.73L61.86 94.73L61.86 98.62C61.86 99.61 62.38 100.16 63.37 100.16C64.06 100.16 64.56 99.96 64.56 99.55ZM66.19 91.39C65.79 91.39 65.45 91.73 65.45 92.15C65.45 92.55 65.79 92.89 66.19 92.89C66.60 92.89 66.93 92.55 66.93 92.15C66.93 91.73 66.60 91.39 66.19 91.39ZM66.77 94.20C66.77 93.90 66.51 93.64 66.21 93.64C65.88 93.64 65.62 93.90 65.62 94.20L65.62 99.51C65.62 99.82 65.88 100.08 66.19 100.08C66.51 100.08 66.77 99.82 66.77 99.51ZM74.60 96.85C74.60 95.05 73.39 93.56 71.43 93.56C69.48 93.56 68.27 95.05 68.27 96.85C68.27 98.66 69.48 100.16 71.43 100.16C73.39 100.16 74.60 98.66 74.60 96.85ZM73.39 96.85C73.39 98.06 72.69 99.13 71.43 99.13C70.18 99.13 69.46 98.06 69.46 96.85C69.46 95.66 70.18 94.59 71.43 94.59C72.69 94.59 73.39 95.66 73.39 96.85ZM81.49 95.97C81.49 94.64 80.53 93.56 79.20 93.56C78.11 93.56 77.55 94.10 77.25 94.61L77.25 94.20C77.25 93.90 76.99 93.64 76.69 93.64C76.35 93.64 76.09 93.90 76.09 94.20L76.09 99.51C76.09 99.82 76.35 100.08 76.67 100.08C76.99 100.08 77.25 99.82 77.25 99.51L77.25 96.49C77.25 95.42 77.82 94.59 78.82 94.59C79.76 94.59 80.33 95.32 80.33 96.36L80.33 99.51C80.33 99.82 80.59 100.08 80.90 100.08C81.23 100.08 81.49 99.82 81.49 99.51ZM87.96 98.10C87.85 95.89 84.24 96.50 84.11 95.37C84.06 94.86 84.61 94.49 85.40 94.49C86 94.49 86.56 94.68 86.96 94.97C87.04 95.03 87.13 95.06 87.23 95.06C87.47 95.06 87.69 94.86 87.69 94.61C87.69 94.50 87.65 94.40 87.57 94.32C87.08 93.84 86.29 93.56 85.39 93.56C83.86 93.56 82.93 94.29 83.00 95.41C83.11 97.52 86.70 96.87 86.83 98.26C86.88 98.83 86.36 99.23 85.47 99.23C84.82 99.23 84.17 98.97 83.70 98.64C83.61 98.57 83.52 98.54 83.40 98.54C83.13 98.54 82.89 98.75 82.89 99.03C82.89 99.16 82.94 99.26 83.04 99.34C83.61 99.91 84.56 100.16 85.41 100.16C87.08 100.16 88.03 99.30 87.96 98.10Z" fill="#e6edf3" /><path d="M157.56 97.63C157.67 96.07 156.61 95.53 156.61 95.53C156.61 95.53 157.58 95.03 157.47 93.55C157.37 92.11 156.22 91.20 154.20 91.20C153 91.20 152.06 91.55 151.35 92.12C151.17 92.27 151.08 92.47 151.08 92.68C151.08 93.14 151.48 93.46 151.88 93.46C152.04 93.46 152.19 93.42 152.32 93.33C152.83 93.01 153.40 92.84 154.00 92.84C154.91 92.84 155.61 93.05 155.61 93.73C155.61 94.45 155.18 94.79 154.31 94.79C153.69 94.79 153.42 95.14 153.42 95.59C153.42 96.05 153.69 96.41 154.36 96.41C155.25 96.41 155.76 96.72 155.76 97.41C155.76 98.06 155.17 98.52 154.12 98.52C153.52 98.52 152.83 98.31 152.26 97.97C152.12 97.88 151.96 97.84 151.80 97.84C151.38 97.84 150.96 98.19 150.96 98.66C150.96 98.79 151.00 98.91 151.06 99.01C151.47 99.69 152.94 100.16 154.18 100.16C156.26 100.16 157.46 99.26 157.56 97.63ZM165.65 97.40C165.65 96.94 165.28 96.58 164.86 96.58L164.45 96.58L164.45 92.29C164.45 91.48 163.67 91.12 162.88 91.25C162.32 91.25 161.76 91.55 161.46 92.02L158.56 96.59C158.45 96.78 158.39 96.98 158.39 97.19C158.39 97.78 158.82 98.21 159.34 98.21L162.61 98.21L162.61 99.17C162.61 99.66 163.02 100.08 163.52 100.08C164.04 100.08 164.45 99.66 164.45 99.17L164.45 98.21L164.86 98.21C165.28 98.21 165.65 97.84 165.65 97.40ZM160.27 96.58L162.61 92.97L162.61 96.58ZM168.69 99.36C168.69 98.52 168.13 98.04 167.52 98.04C166.97 98.04 166.51 98.50 166.51 99.08C166.51 99.64 166.90 100.01 167.39 100.01C167.48 100.01 167.60 99.99 167.64 99.97C167.56 100.31 167.27 100.72 166.94 100.99C166.84 101.07 166.81 101.17 166.81 101.27C166.81 101.53 167.08 101.69 167.30 101.69C167.43 101.69 167.55 101.65 167.64 101.56C168.29 100.97 168.69 100.19 168.69 99.36ZM176.44 99.17C176.44 98.74 176.07 98.38 175.65 98.38L172.82 98.38C175.07 96.74 176.30 95.45 176.30 93.97C176.30 92.24 174.83 91.20 172.98 91.20C171.89 91.20 170.43 91.67 170.02 92.33C169.94 92.45 169.90 92.58 169.90 92.71C169.90 93.17 170.28 93.54 170.71 93.54C170.90 93.54 171.07 93.49 171.24 93.37C171.73 93.03 172.33 92.84 173.02 92.84C173.73 92.84 174.42 93.21 174.42 93.97C174.42 94.98 173.38 95.93 170.15 98.32C169.90 98.50 169.76 98.80 169.76 99.10C169.76 99.62 170.17 100 170.63 100L175.65 100C176.07 100 176.44 99.64 176.44 99.17ZM183.93 92.27C183.93 91.72 183.49 91.33 183.03 91.33L178.06 91.33C177.62 91.33 177.26 91.69 177.26 92.12C177.26 92.59 177.62 92.95 178.06 92.95L181.70 92.95L179.12 98.82C179.06 98.93 179.04 99.05 179.04 99.17C179.04 99.64 179.42 100.08 179.96 100.08C180.34 100.08 180.69 99.86 180.83 99.52L183.85 92.63C183.90 92.53 183.93 92.39 183.93 92.27ZM184.50 94.16C184.50 96.01 185.89 96.98 187.45 96.98C188.53 96.98 189.34 96.45 189.67 95.87C189.69 95.93 189.69 95.98 189.69 96.05C189.69 97.43 188.79 98.50 187.52 98.50C187.07 98.50 186.71 98.43 186.38 98.26C186.27 98.19 186.14 98.17 186.01 98.17C185.60 98.17 185.16 98.48 185.16 98.97C185.16 99.10 185.20 99.22 185.25 99.32C185.58 99.90 186.67 100.14 187.52 100.14C190.08 100.14 191.56 98.28 191.56 95.66C191.56 93.21 190.45 91.19 187.81 91.19C185.84 91.19 184.50 92.47 184.50 94.16ZM186.37 94.10C186.37 93.45 186.85 92.82 187.85 92.82C188.67 92.82 189.28 93.38 189.28 94.19C189.28 94.97 188.66 95.53 187.85 95.53C187.02 95.53 186.37 94.97 186.37 94.10ZM194.53 99.36C194.53 98.52 193.98 98.04 193.37 98.04C192.82 98.04 192.35 98.50 192.35 99.08C192.35 99.64 192.74 100.01 193.24 100.01C193.33 100.01 193.44 99.99 193.48 99.97C193.40 100.31 193.12 100.72 192.78 100.99C192.69 101.07 192.65 101.17 192.65 101.27C192.65 101.53 192.92 101.69 193.14 101.69C193.27 101.69 193.39 101.65 193.48 101.56C194.13 100.97 194.53 100.19 194.53 99.36ZM202.41 95.67C202.41 93.44 201.30 91.20 198.83 91.20C196.34 91.20 195.24 93.44 195.24 95.67C195.24 97.91 196.34 100.16 198.83 100.16C201.30 100.16 202.41 97.91 202.41 95.67ZM200.53 95.67C200.53 97.27 200.06 98.52 198.83 98.52C197.58 98.52 197.11 97.27 197.11 95.67C197.11 94.07 197.58 92.84 198.83 92.84C200.06 92.84 200.53 94.07 200.53 95.67ZM210.47 95.67C210.47 93.44 209.36 91.20 206.89 91.20C204.40 91.20 203.30 93.44 203.30 95.67C203.30 97.91 204.40 100.16 206.89 100.16C209.36 100.16 210.47 97.91 210.47 95.67ZM208.59 95.67C208.59 97.27 208.12 98.52 206.89 98.52C205.64 98.52 205.17 97.27 205.17 95.67C205.17 94.07 205.64 92.84 206.89 92.84C208.12 92.84 208.59 94.07 208.59 95.67ZM217.82 92.27C217.82 91.72 217.38 91.33 216.92 91.33L211.96 91.33C211.51 91.33 211.15 91.69 211.15 92.12C211.15 92.59 211.51 92.95 211.96 92.95L215.60 92.95L213.01 98.82C212.96 98.93 212.93 99.05 212.93 99.17C212.93 99.64 213.31 100.08 213.85 100.08C214.23 100.08 214.58 99.86 214.72 99.52L217.74 92.63C217.79 92.53 217.82 92.39 217.82 92.27Z" fill="#9aa7b4" /></g><g aria-label="Deletions: 17,194,866"><circle cx="22" cy="118" r="4" fill="#00a5fe" /><path d="M42.54 117.67C42.54 115.17 40.76 113.33 38.06 113.33L35.82 113.33C35.35 113.33 34.98 113.71 34.98 114.17L34.98 121.16C34.98 121.62 35.35 122 35.82 122L38.06 122C40.76 122 42.54 120.18 42.54 117.67ZM41.23 117.67C41.23 119.43 40.06 120.86 38.06 120.86L36.26 120.86L36.26 114.47L38.06 114.47C40.11 114.47 41.23 115.89 41.23 117.67ZM49.90 118.65C49.90 118.40 49.83 118.13 49.78 117.92C49.42 116.51 48.38 115.56 46.86 115.56C45.04 115.56 43.72 117.03 43.72 118.85C43.72 120.83 45.09 122.16 46.96 122.16C47.88 122.16 49.50 121.67 49.50 120.97C49.50 120.53 49.05 120.43 48.77 120.57C48.31 120.91 47.61 121.22 47.08 121.22C45.80 121.22 45.02 120.35 44.93 119.27L49.30 119.27C49.63 119.27 49.90 118.96 49.90 118.65ZM44.93 118.41C44.98 117.54 45.60 116.50 46.84 116.50C48.18 116.50 48.76 117.57 48.78 118.41ZM52.54 113.81C52.54 113.51 52.28 113.25 51.98 113.25C51.64 113.25 51.38 113.51 51.38 113.81L51.38 121.51C51.38 121.82 51.64 122.08 51.95 122.08C52.28 122.08 52.54 121.82 52.54 121.51ZM60.21 118.65C60.21 118.40 60.14 118.13 60.09 117.92C59.73 116.51 58.69 115.56 57.17 115.56C55.35 115.56 54.03 117.03 54.03 118.85C54.03 120.83 55.40 122.16 57.27 122.16C58.19 122.16 59.81 121.67 59.81 120.97C59.81 120.53 59.36 120.43 59.08 120.57C58.62 120.91 57.92 121.22 57.39 121.22C56.11 121.22 55.33 120.35 55.24 119.27L59.61 119.27C59.94 119.27 60.21 118.96 60.21 118.65ZM55.24 118.41C55.29 117.54 55.91 116.50 57.15 116.50C58.49 116.50 59.06 117.57 59.09 118.41ZM64.62 121.55C64.62 121.27 64.41 121.06 64.12 121.06C63.99 121.06 63.84 121.13 63.69 121.13C63.32 121.13 63.08 120.83 63.08 120.35L63.08 116.73L63.94 116.73C64.21 116.73 64.43 116.51 64.43 116.24C64.43 115.94 64.21 115.72 63.94 115.72L63.08 115.72L63.08 114.49C63.08 114.19 62.82 113.93 62.51 113.93C62.17 113.93 61.91 114.19 61.91 114.49L61.91 115.72L61.30 115.72C61.01 115.72 60.79 115.94 60.79 116.22C60.79 116.51 61.01 116.73 61.30 116.73L61.91 116.73L61.91 120.62C61.91 121.61 62.43 122.16 63.42 122.16C64.11 122.16 64.62 121.96 64.62 121.55ZM66.24 113.39C65.84 113.39 65.50 113.73 65.50 114.15C65.50 114.55 65.84 114.89 66.24 114.89C66.66 114.89 66.98 114.55 66.98 114.15C66.98 113.73 66.66 113.39 66.24 113.39ZM66.83 116.20C66.83 115.90 66.56 115.64 66.27 115.64C65.93 115.64 65.67 115.90 65.67 116.20L65.67 121.51C65.67 121.82 65.93 122.08 66.24 122.08C66.56 122.08 66.83 121.82 66.83 121.51ZM74.65 118.85C74.65 117.05 73.44 115.56 71.48 115.56C69.53 115.56 68.32 117.05 68.32 118.85C68.32 120.66 69.53 122.16 71.48 122.16C73.44 122.16 74.65 120.66 74.65 118.85ZM73.44 118.85C73.44 120.06 72.74 121.13 71.48 121.13C70.23 121.13 69.52 120.06 69.52 118.85C69.52 117.66 70.23 116.59 71.48 116.59C72.74 116.59 73.44 117.66 73.44 118.85ZM81.54 117.97C81.54 116.64 80.58 115.56 79.25 115.56C78.16 115.56 77.60 116.10 77.30 116.61L77.30 116.20C77.30 115.90 77.04 115.64 76.74 115.64C76.41 115.64 76.15 115.90 76.15 116.20L76.15 121.51C76.15 121.82 76.41 122.08 76.72 122.08C77.04 122.08 77.30 121.82 77.30 121.51L77.30 118.49C77.30 117.42 77.88 116.59 78.88 116.59C79.81 116.59 80.38 117.32 80.38 118.36L80.38 121.51C80.38 121.82 80.64 122.08 80.96 122.08C81.28 122.08 81.54 121.82 81.54 121.51ZM88.01 120.10C87.90 117.89 84.30 118.50 84.17 117.37C84.11 116.86 84.66 116.49 85.45 116.49C86.05 116.49 86.61 116.68 87.01 116.97C87.09 117.03 87.18 117.06 87.29 117.06C87.52 117.06 87.74 116.86 87.74 116.61C87.74 116.50 87.70 116.40 87.62 116.32C87.13 115.84 86.34 115.56 85.44 115.56C83.91 115.56 82.98 116.29 83.05 117.41C83.17 119.52 86.75 118.87 86.88 120.26C86.94 120.83 86.42 121.23 85.52 121.23C84.87 121.23 84.22 120.97 83.75 120.64C83.66 120.57 83.57 120.54 83.45 120.54C83.18 120.54 82.94 120.75 82.94 121.03C82.94 121.16 83.00 121.26 83.09 121.34C83.66 121.91 84.61 122.16 85.47 122.16C87.13 122.16 88.08 121.30 88.01 120.10Z" fill="#e6edf3" /><path d="M161.22 114.32C161.22 113.73 160.72 113.26 160.14 113.26C159.84 113.26 159.55 113.38 159.36 113.58L157.35 115.60C157.20 115.76 157.12 115.95 157.12 116.15C157.12 116.58 157.48 116.92 157.89 116.92C158.07 116.92 158.25 116.85 158.39 116.71L159.37 115.71L159.37 121.17C159.37 121.66 159.79 122.08 160.28 122.08C160.80 122.08 161.22 121.66 161.22 121.17ZM168.98 114.27C168.98 113.72 168.53 113.33 168.08 113.33L163.11 113.33C162.67 113.33 162.31 113.69 162.31 114.12C162.31 114.59 162.67 114.95 163.11 114.95L166.75 114.95L164.17 120.82C164.11 120.93 164.09 121.05 164.09 121.17C164.09 121.64 164.47 122.08 165.01 122.08C165.39 122.08 165.74 121.86 165.88 121.52L168.90 114.63C168.95 114.53 168.98 114.39 168.98 114.27ZM170.73 121.36C170.73 120.52 170.17 120.04 169.56 120.04C169.02 120.04 168.55 120.50 168.55 121.08C168.55 121.64 168.94 122.01 169.43 122.01C169.52 122.01 169.64 121.99 169.68 121.97C169.60 122.31 169.31 122.72 168.98 122.99C168.89 123.07 168.85 123.17 168.85 123.27C168.85 123.53 169.12 123.69 169.34 123.69C169.47 123.69 169.59 123.65 169.68 123.56C170.33 122.97 170.73 122.19 170.73 121.36ZM174.46 114.32C174.46 113.73 173.97 113.26 173.38 113.26C173.08 113.26 172.80 113.38 172.60 113.58L170.60 115.60C170.45 115.76 170.37 115.95 170.37 116.15C170.37 116.58 170.73 116.92 171.13 116.92C171.32 116.92 171.50 116.85 171.64 116.71L172.62 115.71L172.62 121.17C172.62 121.66 173.03 122.08 173.53 122.08C174.05 122.08 174.46 121.66 174.46 121.17ZM175.71 116.16C175.71 118.01 177.10 118.98 178.66 118.98C179.74 118.98 180.55 118.45 180.88 117.87C180.90 117.93 180.90 117.98 180.90 118.05C180.90 119.43 180.00 120.50 178.73 120.50C178.28 120.50 177.92 120.43 177.60 120.26C177.48 120.19 177.35 120.17 177.22 120.17C176.82 120.17 176.37 120.48 176.37 120.97C176.37 121.10 176.41 121.22 176.46 121.32C176.79 121.90 177.88 122.14 178.73 122.14C181.29 122.14 182.77 120.28 182.77 117.66C182.77 115.21 181.66 113.19 179.03 113.19C177.05 113.19 175.71 114.47 175.71 116.16ZM177.58 116.10C177.58 115.45 178.06 114.82 179.06 114.82C179.88 114.82 180.49 115.38 180.49 116.19C180.49 116.97 179.87 117.53 179.06 117.53C178.23 117.53 177.58 116.97 177.58 116.10ZM190.74 119.40C190.74 118.94 190.37 118.58 189.95 118.58L189.54 118.58L189.54 114.29C189.54 113.48 188.76 113.12 187.97 113.25C187.41 113.25 186.85 113.55 186.55 114.02L183.65 118.59C183.54 118.78 183.48 118.98 183.48 119.19C183.48 119.78 183.91 120.21 184.43 120.21L187.70 120.21L187.70 121.17C187.70 121.66 188.11 122.08 188.61 122.08C189.13 122.08 189.54 121.66 189.54 121.17L189.54 120.21L189.95 120.21C190.37 120.21 190.74 119.84 190.74 119.40ZM185.36 118.58L187.70 114.97L187.70 118.58ZM193.78 121.36C193.78 120.52 193.22 120.04 192.61 120.04C192.06 120.04 191.60 120.50 191.60 121.08C191.60 121.64 191.99 122.01 192.48 122.01C192.57 122.01 192.69 121.99 192.73 121.97C192.65 122.31 192.36 122.72 192.03 122.99C191.93 123.07 191.90 123.17 191.90 123.27C191.90 123.53 192.17 123.69 192.39 123.69C192.52 123.69 192.64 123.65 192.73 123.56C193.38 122.97 193.78 122.19 193.78 121.36ZM201.74 119.62C201.74 118.44 201.03 117.76 200.51 117.53C200.96 117.32 201.59 116.83 201.59 115.49C201.59 113.99 199.98 113.20 198.25 113.20C196.51 113.20 194.91 113.99 194.91 115.49C194.91 116.83 195.54 117.32 195.98 117.53C195.46 117.76 194.77 118.44 194.77 119.62C194.77 121.25 196.43 122.16 198.25 122.16C200.07 122.16 201.74 121.23 201.74 119.62ZM199.71 115.77C199.71 116.42 199.05 116.80 198.25 116.80C197.46 116.80 196.78 116.42 196.78 115.77C196.78 115.15 197.39 114.78 198.25 114.78C199.10 114.78 199.71 115.15 199.71 115.77ZM199.86 119.52C199.86 120.15 199.14 120.57 198.25 120.57C197.34 120.57 196.64 120.15 196.64 119.52C196.64 118.79 197.45 118.36 198.25 118.36C199.05 118.36 199.86 118.79 199.86 119.52ZM209.69 119.18C209.69 117.33 208.30 116.36 206.74 116.36C205.66 116.36 204.86 116.89 204.52 117.48C204.51 117.41 204.51 117.36 204.51 117.29C204.51 115.92 205.40 114.84 206.68 114.84C207.12 114.84 207.48 114.91 207.81 115.08C207.92 115.15 208.05 115.17 208.18 115.17C208.59 115.17 209.03 114.86 209.03 114.37C209.03 114.24 208.99 114.12 208.94 114.02C208.61 113.45 207.52 113.20 206.68 113.20C204.12 113.20 202.63 115.06 202.63 117.68C202.63 120.13 203.74 122.16 206.38 122.16C208.35 122.16 209.69 120.87 209.69 119.18ZM207.82 119.24C207.82 119.89 207.34 120.52 206.34 120.52C205.52 120.52 204.91 119.96 204.91 119.15C204.91 118.37 205.53 117.81 206.34 117.81C207.17 117.81 207.82 118.37 207.82 119.24ZM217.60 119.18C217.60 117.33 216.21 116.36 214.65 116.36C213.57 116.36 212.76 116.89 212.42 117.48C212.41 117.41 212.41 117.36 212.41 117.29C212.41 115.92 213.31 114.84 214.58 114.84C215.02 114.84 215.39 114.91 215.71 115.08C215.83 115.15 215.96 115.17 216.09 115.17C216.49 115.17 216.93 114.86 216.93 114.37C216.93 114.24 216.89 114.12 216.84 114.02C216.52 113.45 215.43 113.20 214.58 113.20C212.02 113.20 210.54 115.06 210.54 117.68C210.54 120.13 211.64 122.16 214.28 122.16C216.26 122.16 217.60 120.87 217.60 119.18ZM215.72 119.24C215.72 119.89 215.24 120.52 214.24 120.52C213.42 120.52 212.81 119.96 212.81 119.15C212.81 118.37 213.44 117.81 214.24 117.81C215.07 117.81 215.72 118.37 215.72 119.24Z" fill="#9aa7b4" /></g><g aria-label="Changed Files: 526,524"><circle cx="22" cy="140" r="4" fill="#673bd6" /><path d="M39.11 135.19C36.59 135.19 34.60 137.01 34.60 139.67C34.60 142.34 36.59 144.16 39.11 144.16C40.46 144.16 41.40 143.60 42.07 142.87C42.18 142.76 42.23 142.62 42.23 142.47C42.23 142.15 41.97 141.87 41.63 141.87C41.46 141.87 41.28 141.95 41.18 142.08C40.64 142.67 39.88 143.01 39.11 143.01C37.29 143.01 35.94 141.61 35.94 139.67C35.94 137.72 37.29 136.33 39.11 136.33C39.86 136.33 40.67 136.69 41.18 137.28C41.28 137.42 41.46 137.49 41.62 137.49C41.96 137.49 42.23 137.21 42.23 136.89C42.23 136.73 42.18 136.59 42.07 136.47C41.41 135.73 40.46 135.19 39.11 135.19ZM49.17 139.94C49.17 138.62 48.22 137.56 46.90 137.56C45.79 137.56 45.22 138.10 44.92 138.60L44.92 135.81C44.92 135.51 44.66 135.25 44.36 135.25C44.02 135.25 43.76 135.51 43.76 135.81L43.76 143.51C43.76 143.82 44.02 144.08 44.34 144.08C44.66 144.08 44.92 143.82 44.92 143.51L44.92 140.56C44.92 139.38 45.54 138.59 46.53 138.59C47.47 138.59 48.01 139.29 48.01 140.33L48.01 143.51C48.01 143.82 48.27 144.08 48.59 144.08C48.91 144.08 49.17 143.82 49.17 143.51ZM56.09 139.75C56.09 138.15 54.92 137.56 53.56 137.56C52.72 137.56 51.77 137.84 51.17 138.44C51.09 138.53 51.06 138.63 51.06 138.74C51.06 139.01 51.30 139.19 51.54 139.19C51.63 139.19 51.73 139.15 51.82 139.09C52.29 138.72 52.81 138.54 53.40 138.54C54.28 138.54 54.93 139.01 54.93 139.80L54.93 140.15L53.12 140.15C51.82 140.15 50.68 140.66 50.68 142.08C50.68 143.45 51.82 144.16 52.86 144.16C53.84 144.16 54.42 143.86 54.93 143.30L54.93 143.51C54.93 143.88 55.23 144.08 55.46 144.08L55.50 144.08C55.83 144.08 56.09 143.82 56.09 143.51ZM54.93 140.96L54.93 141.84C54.93 142.58 54.09 143.34 53.17 143.34C52.33 143.34 51.85 142.83 51.85 142.10C51.85 141.35 52.45 140.96 53.44 140.96ZM63.34 139.97C63.34 138.64 62.38 137.56 61.05 137.56C59.96 137.56 59.40 138.10 59.10 138.60L59.10 138.20C59.10 137.90 58.84 137.64 58.54 137.64C58.21 137.64 57.95 137.90 57.95 138.20L57.95 143.51C57.95 143.82 58.21 144.08 58.52 144.08C58.84 144.08 59.10 143.82 59.10 143.51L59.10 140.49C59.10 139.42 59.67 138.59 60.68 138.59C61.61 138.59 62.18 139.32 62.18 140.36L62.18 143.51C62.18 143.82 62.44 144.08 62.76 144.08C63.08 144.08 63.34 143.82 63.34 143.51ZM70.84 138.20C70.84 137.90 70.58 137.64 70.28 137.64C69.95 137.64 69.69 137.90 69.69 138.20L69.69 138.63C69.18 137.96 68.45 137.56 67.62 137.56C65.99 137.56 64.84 138.79 64.84 140.81C64.84 142.86 66.01 144.05 67.62 144.05C68.48 144.05 69.22 143.60 69.69 142.96L69.69 143.79C69.69 145.13 68.72 145.60 67.75 145.60C67.06 145.60 66.51 145.46 66.03 145.05C65.94 144.99 65.85 144.96 65.73 144.96C65.47 144.96 65.24 145.18 65.24 145.46C65.24 145.59 65.29 145.70 65.37 145.78C65.98 146.37 66.86 146.55 67.75 146.55C69.28 146.55 70.84 145.91 70.84 143.75ZM69.69 140.83C69.69 142.12 68.84 143.03 67.80 143.03C66.63 143.03 66.03 142.10 66.03 140.81C66.03 139.50 66.63 138.59 67.80 138.59C68.84 138.59 69.69 139.49 69.69 140.78ZM78.51 140.65C78.51 140.40 78.45 140.13 78.40 139.92C78.03 138.51 76.99 137.56 75.47 137.56C73.65 137.56 72.34 139.03 72.34 140.85C72.34 142.83 73.70 144.16 75.57 144.16C76.50 144.16 78.11 143.68 78.11 142.97C78.11 142.53 77.67 142.43 77.38 142.57C76.93 142.91 76.22 143.22 75.69 143.22C74.42 143.22 73.64 142.35 73.55 141.27L77.91 141.27C78.24 141.27 78.51 140.96 78.51 140.65ZM73.55 140.41C73.60 139.54 74.21 138.50 75.46 138.50C76.80 138.50 77.37 139.57 77.39 140.41ZM85.64 135.81C85.64 135.51 85.38 135.25 85.08 135.25C84.74 135.25 84.48 135.51 84.48 135.81L84.48 138.63C83.97 137.96 83.36 137.56 82.41 137.56C80.77 137.56 79.62 138.85 79.62 140.87C79.62 142.92 80.79 144.16 82.41 144.16C83.39 144.16 84.00 143.73 84.48 143.10L84.48 143.51C84.48 143.82 84.74 144.08 85.05 144.08C85.38 144.08 85.64 143.82 85.64 143.51ZM84.48 140.91C84.48 142.21 83.83 143.13 82.71 143.13C81.54 143.13 80.81 142.18 80.81 140.87C80.81 139.55 81.54 138.59 82.71 138.59C83.83 138.59 84.48 139.54 84.48 140.83ZM96.76 135.91C96.76 135.58 96.52 135.33 96.20 135.33L91.73 135.33C91.27 135.33 90.89 135.71 90.89 136.17L90.89 143.44C90.89 143.79 91.17 144.08 91.52 144.08C91.89 144.08 92.17 143.79 92.17 143.44L92.17 140.15L96.11 140.15C96.43 140.15 96.67 139.89 96.67 139.59C96.67 139.25 96.43 139.01 96.11 139.01L92.17 139.01L92.17 136.47L96.20 136.47C96.52 136.47 96.76 136.21 96.76 135.91ZM98.65 135.39C98.25 135.39 97.91 135.73 97.91 136.15C97.91 136.55 98.25 136.89 98.65 136.89C99.06 136.89 99.39 136.55 99.39 136.15C99.39 135.73 99.06 135.39 98.65 135.39ZM99.23 138.20C99.23 137.90 98.97 137.64 98.67 137.64C98.34 137.64 98.08 137.90 98.08 138.20L98.08 143.51C98.08 143.82 98.34 144.08 98.65 144.08C98.97 144.08 99.23 143.82 99.23 143.51ZM102.26 135.81C102.26 135.51 102.00 135.25 101.70 135.25C101.37 135.25 101.11 135.51 101.11 135.81L101.11 143.51C101.11 143.82 101.37 144.08 101.68 144.08C102.00 144.08 102.26 143.82 102.26 143.51ZM109.93 140.65C109.93 140.40 109.87 140.13 109.82 139.92C109.45 138.51 108.41 137.56 106.89 137.56C105.07 137.56 103.76 139.03 103.76 140.85C103.76 142.83 105.12 144.16 106.99 144.16C107.92 144.16 109.53 143.68 109.53 142.97C109.53 142.53 109.09 142.43 108.80 142.57C108.35 142.91 107.64 143.22 107.11 143.22C105.84 143.22 105.06 142.35 104.97 141.27L109.33 141.27C109.66 141.27 109.93 140.96 109.93 140.65ZM104.97 140.41C105.02 139.54 105.63 138.50 106.88 138.50C108.22 138.50 108.79 139.57 108.81 140.41ZM116.02 142.10C115.90 139.89 112.30 140.50 112.17 139.37C112.12 138.87 112.66 138.49 113.46 138.49C114.05 138.49 114.61 138.68 115.02 138.97C115.09 139.03 115.18 139.06 115.29 139.06C115.52 139.06 115.74 138.87 115.74 138.60C115.74 138.50 115.70 138.40 115.63 138.32C115.13 137.84 114.34 137.56 113.44 137.56C111.91 137.56 110.99 138.29 111.05 139.41C111.17 141.52 114.76 140.87 114.89 142.26C114.94 142.83 114.42 143.23 113.52 143.23C112.87 143.23 112.22 142.97 111.75 142.63C111.66 142.57 111.57 142.54 111.45 142.54C111.18 142.54 110.95 142.75 110.95 143.03C110.95 143.16 111.00 143.26 111.09 143.34C111.66 143.91 112.61 144.16 113.47 144.16C115.13 144.16 116.08 143.30 116.02 142.10Z" fill="#e6edf3" /><path d="M175.05 141.15C175.05 139.40 173.73 138.34 172.27 138.34C171.47 138.34 170.77 138.66 170.35 139.07L170.35 136.95L173.75 136.95C174.18 136.95 174.54 136.59 174.54 136.15C174.54 135.69 174.18 135.33 173.75 135.33L169.55 135.33C168.98 135.33 168.51 135.80 168.51 136.37L168.51 139.70C168.51 140.20 168.87 140.58 169.44 140.58C169.70 140.58 169.95 140.50 170.16 140.36C170.63 140.05 171.08 139.94 171.62 139.94C172.60 139.94 173.18 140.46 173.18 141.23C173.18 141.93 172.59 142.52 171.56 142.52C170.94 142.52 170.34 142.35 169.83 142.04C169.68 141.95 169.51 141.89 169.35 141.89C168.90 141.89 168.47 142.25 168.47 142.73C168.47 142.86 168.51 142.99 168.57 143.10C168.98 143.78 170.45 144.16 171.58 144.16C173.67 144.16 175.05 143.00 175.05 141.15ZM182.72 143.17C182.72 142.74 182.35 142.38 181.92 142.38L179.10 142.38C181.35 140.74 182.57 139.45 182.57 137.97C182.57 136.24 181.11 135.20 179.26 135.20C178.17 135.20 176.71 135.67 176.30 136.33C176.22 136.45 176.18 136.58 176.18 136.71C176.18 137.18 176.56 137.54 176.98 137.54C177.18 137.54 177.35 137.49 177.52 137.37C178.01 137.03 178.61 136.84 179.30 136.84C180.01 136.84 180.70 137.21 180.70 137.97C180.70 138.98 179.66 139.93 176.43 142.32C176.18 142.50 176.04 142.80 176.04 143.10C176.04 143.62 176.45 144 176.91 144L181.92 144C182.35 144 182.72 143.64 182.72 143.17ZM190.80 141.18C190.80 139.33 189.41 138.36 187.85 138.36C186.77 138.36 185.97 138.89 185.63 139.48C185.62 139.41 185.62 139.36 185.62 139.29C185.62 137.92 186.51 136.84 187.79 136.84C188.23 136.84 188.59 136.91 188.92 137.08C189.04 137.15 189.17 137.18 189.30 137.18C189.70 137.18 190.14 136.86 190.14 136.37C190.14 136.24 190.10 136.12 190.05 136.02C189.72 135.45 188.63 135.20 187.79 135.20C185.23 135.20 183.75 137.06 183.75 139.68C183.75 142.13 184.85 144.16 187.49 144.16C189.47 144.16 190.80 142.87 190.80 141.18ZM188.93 141.24C188.93 141.89 188.45 142.52 187.45 142.52C186.63 142.52 186.02 141.96 186.02 141.15C186.02 140.37 186.64 139.81 187.45 139.81C188.28 139.81 188.93 140.37 188.93 141.24ZM194.00 143.36C194.00 142.52 193.44 142.04 192.83 142.04C192.29 142.04 191.82 142.50 191.82 143.08C191.82 143.64 192.21 144.01 192.70 144.01C192.79 144.01 192.91 143.99 192.95 143.97C192.87 144.31 192.58 144.72 192.25 144.99C192.16 145.07 192.12 145.17 192.12 145.27C192.12 145.53 192.39 145.69 192.61 145.69C192.74 145.69 192.86 145.65 192.95 145.56C193.60 144.97 194.00 144.19 194.00 143.36ZM201.98 141.15C201.98 139.40 200.67 138.34 199.20 138.34C198.41 138.34 197.71 138.66 197.29 139.07L197.29 136.95L200.68 136.95C201.11 136.95 201.48 136.59 201.48 136.15C201.48 135.69 201.11 135.33 200.68 135.33L196.48 135.33C195.91 135.33 195.44 135.80 195.44 136.37L195.44 139.70C195.44 140.20 195.81 140.58 196.38 140.58C196.64 140.58 196.89 140.50 197.10 140.36C197.56 140.05 198.02 139.94 198.55 139.94C199.54 139.94 200.11 140.46 200.11 141.23C200.11 141.93 199.53 142.52 198.50 142.52C197.88 142.52 197.28 142.35 196.77 142.04C196.62 141.95 196.45 141.89 196.29 141.89C195.84 141.89 195.41 142.25 195.41 142.73C195.41 142.86 195.44 142.99 195.51 143.10C195.91 143.78 197.38 144.16 198.51 144.16C200.61 144.16 201.98 143.00 201.98 141.15ZM209.65 143.17C209.65 142.74 209.29 142.38 208.86 142.38L206.04 142.38C208.29 140.74 209.51 139.45 209.51 137.97C209.51 136.24 208.04 135.20 206.20 135.20C205.10 135.20 203.65 135.67 203.23 136.33C203.15 136.45 203.11 136.58 203.11 136.71C203.11 137.18 203.49 137.54 203.92 137.54C204.12 137.54 204.28 137.49 204.45 137.37C204.95 137.03 205.55 136.84 206.23 136.84C206.95 136.84 207.64 137.21 207.64 137.97C207.64 138.98 206.60 139.93 203.36 142.32C203.11 142.50 202.97 142.80 202.97 143.10C202.97 143.62 203.39 144 203.84 144L208.86 144C209.29 144 209.65 143.64 209.65 143.17ZM217.75 141.40C217.75 140.94 217.39 140.58 216.96 140.58L216.56 140.58L216.56 136.29C216.56 135.49 215.78 135.12 214.98 135.25C214.43 135.25 213.87 135.55 213.57 136.02L210.67 140.59C210.55 140.78 210.50 140.98 210.50 141.19C210.50 141.78 210.93 142.21 211.45 142.21L214.71 142.21L214.71 143.17C214.71 143.66 215.13 144.08 215.62 144.08C216.14 144.08 216.56 143.66 216.56 143.17L216.56 142.21L216.96 142.21C217.39 142.21 217.75 141.84 217.75 141.40ZM212.37 140.58L214.71 136.97L214.71 140.58Z" fill="#9aa7b4" /></g><rect x="18" y="166" width="384" height="8" rx="4" fill="#21262d" /><rect x="18.00" y="166" width="255.72" height="8" rx="4" fill="#00d559" /><rect x="273.72" y="166" width="128.28" height="8" rx="4" fill="#00a5fe" /></svg>