<svg xmlns="http://www.w3.org/2000/svg" width="420" height="184" viewBox="0 0 420 184" role="img"><rect x="0.5" y="0.5" width="419" height="183" rx="10" fill="#ffffff" stroke="#f2f4f6" /><path d="M30.72 33.60C30.72 32.83 30.10 32.21 29.37 32.21L28.69 32.21L28.69 24.95C28.69 23.59 27.37 22.97 26.03 23.19C25.08 23.19 24.14 23.70 23.63 24.49L18.73 32.24C18.53 32.54 18.44 32.90 18.44 33.25C18.44 34.24 19.17 34.96 20.05 34.96L25.57 34.96L25.57 36.59C25.57 37.43 26.27 38.13 27.11 38.13C27.99 38.13 28.69 37.43 28.69 36.59L28.69 34.96L29.37 34.96C30.10 34.96 30.72 34.35 30.72 33.60ZM21.61 32.21L25.57 26.10L25.57 32.21ZM42.82 24.91C42.82 23.99 42.07 23.33 41.30 23.33L32.89 23.33C32.15 23.33 31.53 23.94 31.53 24.67C31.53 25.46 32.15 26.08 32.89 26.08L39.05 26.08L34.68 36.00C34.59 36.20 34.54 36.39 34.54 36.59C34.54 37.38 35.18 38.13 36.11 38.13C36.74 38.13 37.34 37.76 37.58 37.19L42.68 25.53C42.77 25.35 42.82 25.13 42.82 24.91ZM45.79 36.92C45.79 35.49 44.84 34.68 43.81 34.68C42.88 34.68 42.09 35.47 42.09 36.44C42.09 37.38 42.75 38.02 43.59 38.02C43.74 38.02 43.94 37.98 44.00 37.96C43.87 38.53 43.39 39.21 42.82 39.67C42.66 39.80 42.60 39.98 42.60 40.16C42.60 40.60 43.06 40.86 43.43 40.86C43.65 40.86 43.85 40.79 44.00 40.64C45.10 39.65 45.79 38.33 45.79 36.92ZM59.29 33.18C59.29 30.21 57.07 28.43 54.59 28.43C53.24 28.43 52.06 28.96 51.35 29.66L51.35 26.08L57.09 26.08C57.82 26.08 58.44 25.46 58.44 24.71C58.44 23.94 57.82 23.33 57.09 23.33L49.99 23.33C49.02 23.33 48.23 24.12 48.23 25.09L48.23 30.72C48.23 31.58 48.84 32.21 49.81 32.21C50.25 32.21 50.67 32.08 51.02 31.84C51.81 31.31 52.58 31.14 53.49 31.14C55.16 31.14 56.13 32.02 56.13 33.31C56.13 34.50 55.14 35.49 53.40 35.49C52.34 35.49 51.33 35.21 50.47 34.68C50.21 34.52 49.92 34.44 49.66 34.44C48.89 34.44 48.16 35.03 48.16 35.84C48.16 36.06 48.23 36.28 48.34 36.48C49.02 37.63 51.51 38.26 53.42 38.26C56.96 38.26 59.29 36.31 59.29 33.18ZM60.72 28.12C60.72 31.25 63.08 32.90 65.72 32.90C67.54 32.90 68.91 31.99 69.48 31.00C69.50 31.11 69.50 31.20 69.50 31.31C69.50 33.64 67.98 35.47 65.83 35.47C65.08 35.47 64.46 35.34 63.91 35.05C63.72 34.94 63.50 34.90 63.28 34.90C62.59 34.90 61.85 35.43 61.85 36.26C61.85 36.48 61.91 36.68 62.00 36.86C62.55 37.82 64.40 38.24 65.83 38.24C70.16 38.24 72.67 35.10 72.67 30.65C72.67 26.52 70.80 23.08 66.33 23.08C62.99 23.08 60.72 25.26 60.72 28.12ZM63.89 28.01C63.89 26.91 64.71 25.86 66.40 25.86C67.79 25.86 68.82 26.80 68.82 28.17C68.82 29.49 67.76 30.43 66.40 30.43C64.99 30.43 63.89 29.49 63.89 28.01ZM81.03 25.00C81.03 24.01 80.19 23.22 79.20 23.22C78.70 23.22 78.21 23.41 77.88 23.74L74.50 27.18C74.23 27.44 74.10 27.77 74.10 28.10C74.10 28.83 74.72 29.40 75.40 29.40C75.71 29.40 76.01 29.29 76.26 29.05L77.91 27.35L77.91 36.59C77.91 37.43 78.61 38.13 79.45 38.13C80.33 38.13 81.03 37.43 81.03 36.59ZM96.67 23.08C92.27 23.08 88.86 26.16 88.86 30.67C88.86 35.18 92.27 38.26 96.67 38.26C99.20 38.26 100.90 37.16 102.00 35.82C102.22 35.58 102.30 35.27 102.30 34.96C102.30 34.22 101.67 33.60 100.87 33.60C100.43 33.60 99.99 33.78 99.69 34.11C98.87 35.01 97.77 35.49 96.67 35.49C94.01 35.49 92.07 33.45 92.07 30.67C92.07 27.90 94.01 25.86 96.67 25.86C97.77 25.86 98.85 26.38 99.69 27.26C99.99 27.59 100.41 27.77 100.83 27.77C101.64 27.77 102.33 27.15 102.33 26.36C102.33 26.08 102.22 25.75 102.02 25.50C100.90 24.16 99.20 23.08 96.67 23.08ZM115.17 32.68C115.17 29.66 113.06 27.11 109.54 27.11C106.04 27.11 103.93 29.66 103.93 32.68C103.93 35.71 106.04 38.26 109.54 38.26C113.06 38.26 115.17 35.71 115.17 32.68ZM112.27 32.68C112.27 34.35 111.28 35.78 109.54 35.78C107.80 35.78 106.84 34.35 106.84 32.68C106.84 31.03 107.80 29.60 109.54 29.60C111.28 29.60 112.27 31.03 112.27 32.68ZM133.24 31.20C133.24 29.02 131.72 27.11 129.32 27.11C127.47 27.11 126.42 28.19 126.02 28.94C125.62 28.17 124.63 27.11 122.85 27.11C121.22 27.11 120.48 27.70 120.04 28.28L120.04 28.25C120.04 27.95 119.64 27.24 118.67 27.24C117.86 27.24 117.24 27.86 117.24 28.61L117.24 36.75C117.24 37.52 117.86 38.13 118.63 38.13C119.42 38.13 120.04 37.52 120.04 36.75L120.04 31.73C120.04 30.70 120.83 29.60 122.02 29.60C123.16 29.60 123.82 30.74 123.82 31.73L123.82 36.75C123.82 37.52 124.44 38.13 125.21 38.13C126.02 38.13 126.64 37.52 126.64 36.75L126.64 31.93C126.64 30.70 127.41 29.60 128.62 29.60C129.76 29.60 130.42 30.74 130.42 31.73L130.42 36.75C130.42 37.52 131.04 38.13 131.81 38.13C132.62 38.13 133.24 37.52 133.24 36.75ZM151.98 31.20C151.98 29.02 150.46 27.11 148.06 27.11C146.22 27.11 145.16 28.19 144.76 28.94C144.37 28.17 143.38 27.11 141.60 27.11C139.97 27.11 139.22 27.70 138.78 28.28L138.78 28.25C138.78 27.95 138.38 27.24 137.42 27.24C136.60 27.24 135.99 27.86 135.99 28.61L135.99 36.75C135.99 37.52 136.60 38.13 137.37 38.13C138.16 38.13 138.78 37.52 138.78 36.75L138.78 31.73C138.78 30.70 139.57 29.60 140.76 29.60C141.90 29.60 142.56 30.74 142.56 31.73L142.56 36.75C142.56 37.52 143.18 38.13 143.95 38.13C144.76 38.13 145.38 37.52 145.38 36.75L145.38 31.93C145.38 30.70 146.15 29.60 147.36 29.60C148.50 29.60 149.16 30.74 149.16 31.73L149.16 36.75C149.16 37.52 149.78 38.13 150.55 38.13C151.36 38.13 151.98 37.52 151.98 36.75ZM156.12 22.91C155.21 22.91 154.44 23.63 154.44 24.56C154.44 25.48 155.21 26.23 156.12 26.23C157.04 26.23 157.79 25.48 157.79 24.56C157.79 23.63 157.04 22.91 156.12 22.91ZM157.52 28.61C157.52 27.86 156.91 27.24 156.16 27.24C155.35 27.24 154.73 27.86 154.73 28.61L154.73 36.75C154.73 37.52 155.35 38.13 156.12 38.13C156.91 38.13 157.52 37.52 157.52 36.75ZM166.10 36.99C166.10 36.31 165.66 35.78 164.87 35.78L164.63 35.78C164.19 35.78 163.66 35.45 163.66 34.61L163.66 29.82L164.76 29.82C165.40 29.82 165.95 29.27 165.95 28.61C165.95 27.92 165.40 27.37 164.76 27.37L163.66 27.37L163.66 25.72C163.66 24.95 163.05 24.34 162.28 24.34C161.46 24.34 160.85 24.95 160.85 25.72L160.85 27.37L160.16 27.37C159.50 27.37 158.95 27.92 158.95 28.56C158.95 29.27 159.50 29.82 160.16 29.82L160.85 29.82L160.85 35.36C160.85 37.25 161.90 38.26 163.86 38.26C165.69 38.26 166.10 37.69 166.10 36.99ZM176.16 34.85C176.16 30.56 169.87 31.88 169.87 30.30C169.87 29.71 170.53 29.24 171.54 29.24C172.40 29.24 173.25 29.49 173.94 29.88C174.09 29.97 174.29 30.01 174.46 30.01C175.04 30.01 175.56 29.55 175.56 28.96C175.56 28.76 175.50 28.56 175.39 28.41C174.79 27.55 172.90 27.11 171.52 27.11C168.72 27.11 167.16 28.67 167.16 30.45C167.16 34.63 173.47 33.20 173.47 34.96C173.47 35.62 172.90 36.11 171.69 36.11C170.77 36.11 169.67 35.73 168.83 35.25C168.66 35.14 168.46 35.10 168.26 35.10C167.67 35.10 167.09 35.60 167.09 36.26C167.09 36.48 167.16 36.68 167.29 36.86C167.95 37.80 170.17 38.26 171.56 38.26C174.51 38.26 176.16 36.79 176.16 34.85Z" fill="#22272e" /><path d="M20.26 49.88C20.26 49.54 19.98 49.25 19.64 49.25C19.26 49.25 18.98 49.54 18.98 49.88L18.98 57.44C18.98 57.79 19.26 58.08 19.61 58.08C19.98 58.08 20.26 57.79 20.26 57.44ZM27.55 53.97C27.55 52.64 26.59 51.56 25.27 51.56C24.18 51.56 23.62 52.10 23.32 52.60L23.32 52.20C23.32 51.90 23.06 51.64 22.76 51.64C22.42 51.64 22.16 51.90 22.16 52.20L22.16 57.51C22.16 57.82 22.42 58.08 22.73 58.08C23.06 58.08 23.32 57.82 23.32 57.51L23.32 54.49C23.32 53.42 23.89 52.59 24.89 52.59C25.83 52.59 26.40 53.32 26.40 54.36L26.40 57.51C26.40 57.82 26.66 58.08 26.97 58.08C27.30 58.08 27.55 57.82 27.55 57.51ZM38.97 49.91C38.97 49.58 38.72 49.33 38.41 49.33L32.70 49.33C32.39 49.33 32.14 49.58 32.14 49.89C32.14 50.21 32.39 50.47 32.70 50.47L34.91 50.47L34.91 57.44C34.91 57.79 35.20 58.08 35.55 58.08C35.91 58.08 36.20 57.79 36.20 57.44L36.20 50.47L38.41 50.47C38.72 50.47 38.97 50.21 38.97 49.91ZM44.74 54.85C44.74 53.05 43.53 51.56 41.57 51.56C39.62 51.56 38.41 53.05 38.41 54.85C38.41 56.66 39.62 58.16 41.57 58.16C43.53 58.16 44.74 56.66 44.74 54.85ZM43.53 54.85C43.53 56.06 42.83 57.13 41.57 57.13C40.32 57.13 39.61 56.06 39.61 54.85C39.61 53.66 40.32 52.59 41.57 52.59C42.83 52.59 43.53 53.66 43.53 54.85ZM49.16 57.55C49.16 57.27 48.95 57.06 48.67 57.06C48.54 57.06 48.38 57.13 48.24 57.13C47.86 57.13 47.63 56.83 47.63 56.35L47.63 52.73L48.48 52.73C48.76 52.73 48.98 52.51 48.98 52.24C48.98 51.94 48.76 51.72 48.48 51.72L47.63 51.72L47.63 50.49C47.63 50.19 47.37 49.93 47.05 49.93C46.72 49.93 46.46 50.19 46.46 50.49L46.46 51.72L45.85 51.72C45.56 51.72 45.34 51.94 45.34 52.22C45.34 52.51 45.56 52.73 45.85 52.73L46.46 52.73L46.46 56.62C46.46 57.61 46.98 58.16 47.96 58.16C48.65 58.16 49.16 57.96 49.16 57.55ZM55.26 53.75C55.26 52.15 54.09 51.56 52.74 51.56C51.89 51.56 50.94 51.84 50.34 52.44C50.27 52.53 50.23 52.63 50.23 52.73C50.23 53.01 50.47 53.19 50.71 53.19C50.80 53.19 50.90 53.15 50.99 53.09C51.46 52.72 51.98 52.54 52.57 52.54C53.45 52.54 54.10 53.01 54.10 53.80L54.10 54.15L52.29 54.15C50.99 54.15 49.85 54.66 49.85 56.08C49.85 57.45 50.99 58.16 52.03 58.16C53.01 58.16 53.59 57.86 54.10 57.30L54.10 57.51C54.10 57.88 54.40 58.08 54.63 58.08L54.67 58.08C55.00 58.08 55.26 57.82 55.26 57.51ZM54.10 54.96L54.10 55.84C54.10 56.58 53.26 57.34 52.35 57.34C51.50 57.34 51.02 56.83 51.02 56.10C51.02 55.35 51.62 54.96 52.61 54.96ZM58.27 49.81C58.27 49.51 58.01 49.25 57.71 49.25C57.38 49.25 57.12 49.51 57.12 49.81L57.12 57.51C57.12 57.82 57.38 58.08 57.69 58.08C58.01 58.08 58.27 57.82 58.27 57.51Z" fill="#627386" /><line x1="18" y1="76" x2="48" y2="76" stroke="#627386" stroke-opacity="0.4" /><g aria-label="Additions: 32,330,729"><circle cx="22" cy="96" r="4" fill="#00d559" /><path d="M42.28 99.39C42.28 99.31 42.27 99.23 42.23 99.14L39.36 91.94C39.19 91.51 38.76 91.24 38.30 91.25C37.85 91.25 37.43 91.52 37.28 91.94L34.40 99.14C34.38 99.23 34.36 99.31 34.36 99.39C34.36 99.74 34.65 100.08 35.05 100.08C35.33 100.08 35.57 99.92 35.68 99.66L36.25 98.19L40.40 98.19L40.97 99.66C41.07 99.92 41.32 100.08 41.59 100.08C42.01 100.08 42.28 99.71 42.28 99.39ZM38.32 92.64L40.03 97.06L36.61 97.06ZM49.22 91.81C49.22 91.51 48.96 91.25 48.66 91.25C48.33 91.25 48.07 91.51 48.07 91.81L48.07 94.63C47.56 93.95 46.95 93.56 46.00 93.56C44.36 93.56 43.20 94.85 43.20 96.87C43.20 98.92 44.37 100.16 46.00 100.16C46.97 100.16 47.59 99.73 48.07 99.10L48.07 99.51C48.07 99.82 48.33 100.08 48.64 100.08C48.96 100.08 49.22 99.82 49.22 99.51ZM48.07 96.91C48.07 98.21 47.42 99.13 46.30 99.13C45.13 99.13 44.40 98.18 44.40 96.87C44.40 95.55 45.13 94.59 46.30 94.59C47.42 94.59 48.07 95.54 48.07 96.83ZM56.74 91.81C56.74 91.51 56.48 91.25 56.18 91.25C55.84 91.25 55.58 91.51 55.58 91.81L55.58 94.63C55.07 93.95 54.46 93.56 53.51 93.56C51.88 93.56 50.72 94.85 50.72 96.87C50.72 98.92 51.89 100.16 53.51 100.16C54.49 100.16 55.10 99.73 55.58 99.10L55.58 99.51C55.58 99.82 55.84 100.08 56.15 100.08C56.48 100.08 56.74 99.82 56.74 99.51ZM55.58 96.91C55.58 98.21 54.93 99.13 53.81 99.13C52.64 99.13 51.91 98.18 51.91 96.87C51.91 95.55 52.64 94.59 53.81 94.59C54.93 94.59 55.58 95.54 55.58 96.83ZM59.18 91.39C58.78 91.39 58.44 91.73 58.44 92.15C58.44 92.55 58.78 92.89 59.18 92.89C59.60 92.89 59.92 92.55 59.92 92.15C59.92 91.73 59.60 91.39 59.18 91.39ZM59.77 94.20C59.77 93.90 59.51 93.64 59.21 93.64C58.87 93.64 58.61 93.90 58.61 94.20L58.61 99.51C58.61 99.82 58.87 100.08 59.18 100.08C59.51 100.08 59.77 99.82 59.77 99.51ZM64.56 99.55C64.56 99.27 64.36 99.06 64.07 99.06C63.94 99.06 63.78 99.13 63.64 99.13C63.26 99.13 63.03 98.83 63.03 98.35L63.03 94.73L63.89 94.73C64.16 94.73 64.38 94.51 64.38 94.24C64.38 93.94 64.16 93.72 63.89 93.72L63.03 93.72L63.03 92.49C63.03 92.19 62.77 91.93 62.46 91.93C62.12 91.93 61.86 92.19 61.86 92.49L61.86 93.72L61.25 93.72C60.96 93.72 60.74 93.94 60.74 94.22C60.74 94.51 60.96 94.73 61.25 94.73L61.86 94.73L61.86 98.62C61.86 99.61 62.38 100.16 63.37 100.16C64.06 100.16 64.56 99.96 64.56 99.55ZM66.19 91.39C65.79 91.39 65.45 91.73 65.45 92.15C65.45 92.55 65.79 92.89 66.19 92.89C66.60 92.89 66.93 92.55 66.93 92.15C66.93 91.73 66.60 91.39 66.19 91.39ZM66.77 94.20C66.77 93.90 66.51 93.64 66.21 93.64C65.88 93.64 65.62 93.90 65.62 94.20L65.62 99.51C65.62 99.82 65.88 100.08 66.19 100.08C66.51 100.08 66.77 99.82 66.77 99.51ZM74.60 96.85C74.60 95.05 73.39 93.56 71.43 93.56C69.48 93.56 68.27 95.05 68.27 96.85C68.27 98.66 69.48 100.16 71.43 100.16C73.39 100.16 74.60 98.66 74.60 96.85ZM73.39 96.85C73.39 98.06 72.69 99.13 71.43 99.13C70.18 99.13 69.46 98.06 69.46 96.85C69.46 95.66 70.18 94.59 71.43 94.59C72.69 94.59 73.39 95.66 73.39 96.85ZM81.49 95.97C81.49 94.64 80.53 93.56 79.20 93.56C78.11 93.56 77.55 94.10 77.25 94.61L77.25 94.20C77.25 93.90 76.99 93.64 76.69 93.64C76.35 93.64 76.09 93.90 76.09 94.20L76.09 99.51C76.09 99.82 76.35 100.08 76.67 100.08C76.99 100.08 77.25 99.82 77.25 99.51L77.25 96.49C77.25 95.42 77.82 94.59 78.82 94.59C79.76 94.59 80.33 95.32 80.33 96.36L80.33 99.51C80.33 99.82 80.59 100.08 80.90 100.08C81.23 100.08 81.49 99.82 81.49 99.51ZM87.96 98.10C87.85 95.89 84.24 96.50 84.11 95.37C84.06 94.86 84.61 94.49 85.40 94.49C86 94.49 86.56 94.68 86.96 94.97C87.04 95.03 87.13 95.06 87.23 95.06C87.47 95.06 87.69 94.86 87.69 94.61C87.69 94.50 87.65 94.40 87.57 94.32C87.08 93.84 86.29 93.56 85.39 93.56C83.86 93.56 82.93 94.29 83.00 95.41C83.11 97.52 86.70 96.87 86.83 98.26C86.88 98.83 86.36 99.23 85.47 99.23C84.82 99.23 84.17 98.97 83.70 98.64C83.61 98.57 83.52 98.54 83.40 98.54C83.13 98.54 82.89 98.75 82.89 99.03C82.89 99.16 82.94 99.26 83.04 99.34C83.61 99.91 84.56 100.16 85.41 100.16C87.08 100.16 88.03 99.30 87.96 98.10Z" fill="#22272e" /><path d="M158.08 97.63C158.19 96.07 157.13 95.53 157.13 95.53C157.13 95.53 158.10 95.03 157.99 93.55C157.89 92.11 156.74 91.20 154.72 91.20C153.52 91.20 152.58 91.55 151.87 92.12C151.69 92.27 151.60 92.47 151.60 92.68C151.60 93.14 152.00 93.46 152.40 93.46C152.56 93.46 152.71 93.42 152.84 93.33C153.35 93.01 153.92 92.84 154.52 92.84C155.43 92.84 156.13 93.05 156.13 93.73C156.13 94.45 155.70 94.79 154.83 94.79C154.21 94.79 153.94 95.14 153.94 95.59C153.94 96.05 154.21 96.41 154.88 96.41C155.77 96.41 156.28 96.72 156.28 97.41C156.28 98.06 155.69 98.52 154.64 98.52C154.04 98.52 153.35 98.31 152.78 97.97C152.64 97.88 152.48 97.84 152.32 97.84C151.90 97.84 151.48 98.19 151.48 98.66C151.48 98.79 151.52 98.91 151.58 99.01C151.99 99.69 153.46 100.16 154.70 100.16C156.78 100.16 157.98 99.26 158.08 97.63ZM165.87 99.17C165.87 98.74 165.51 98.38 165.08 98.38L162.26 98.38C164.50 96.74 165.73 95.45 165.73 93.97C165.73 92.24 164.26 91.20 162.41 91.20C161.32 91.20 159.86 91.67 159.45 92.33C159.37 92.45 159.33 92.58 159.33 92.71C159.33 93.17 159.71 93.54 160.14 93.54C160.33 93.54 160.50 93.49 160.67 93.37C161.16 93.03 161.76 92.84 162.45 92.84C163.17 92.84 163.85 93.21 163.85 93.97C163.85 94.98 162.81 95.93 159.58 98.32C159.33 98.50 159.19 98.80 159.19 99.10C159.19 99.62 159.60 100 160.06 100L165.08 100C165.51 100 165.87 99.64 165.87 99.17ZM169.25 99.36C169.25 98.52 168.69 98.04 168.08 98.04C167.53 98.04 167.07 98.50 167.07 99.08C167.07 99.64 167.46 100.01 167.95 100.01C168.04 100.01 168.16 99.99 168.20 99.97C168.12 100.31 167.83 100.72 167.50 100.99C167.40 101.07 167.37 101.17 167.37 101.27C167.37 101.53 167.64 101.69 167.86 101.69C167.99 101.69 168.11 101.65 168.20 101.56C168.85 100.97 169.25 100.19 169.25 99.36ZM176.84 97.63C176.95 96.07 175.89 95.53 175.89 95.53C175.89 95.53 176.86 95.03 176.75 93.55C176.65 92.11 175.50 91.20 173.48 91.20C172.28 91.20 171.34 91.55 170.63 92.12C170.45 92.27 170.36 92.47 170.36 92.68C170.36 93.14 170.76 93.46 171.16 93.46C171.32 93.46 171.47 93.42 171.60 93.33C172.11 93.01 172.68 92.84 173.28 92.84C174.19 92.84 174.89 93.05 174.89 93.73C174.89 94.45 174.46 94.79 173.59 94.79C172.97 94.79 172.70 95.14 172.70 95.59C172.70 96.05 172.97 96.41 173.64 96.41C174.53 96.41 175.04 96.72 175.04 97.41C175.04 98.06 174.45 98.52 173.40 98.52C172.80 98.52 172.11 98.31 171.54 97.97C171.40 97.88 171.24 97.84 171.08 97.84C170.65 97.84 170.24 98.19 170.24 98.66C170.24 98.79 170.28 98.91 170.34 99.01C170.75 99.69 172.21 100.16 173.46 100.16C175.54 100.16 176.74 99.26 176.84 97.63ZM184.47 97.63C184.58 96.07 183.52 95.53 183.52 95.53C183.52 95.53 184.49 95.03 184.38 93.55C184.28 92.11 183.13 91.20 181.11 91.20C179.91 91.20 178.97 91.55 178.26 92.12C178.08 92.27 177.99 92.47 177.99 92.68C177.99 93.14 178.39 93.46 178.79 93.46C178.95 93.46 179.10 93.42 179.23 93.33C179.74 93.01 180.31 92.84 180.91 92.84C181.82 92.84 182.52 93.05 182.52 93.73C182.52 94.45 182.09 94.79 181.22 94.79C180.60 94.79 180.33 95.14 180.33 95.59C180.33 96.05 180.60 96.41 181.28 96.41C182.16 96.41 182.67 96.72 182.67 97.41C182.67 98.06 182.08 98.52 181.03 98.52C180.43 98.52 179.74 98.31 179.17 97.97C179.03 97.88 178.87 97.84 178.71 97.84C178.29 97.84 177.87 98.19 177.87 98.66C177.87 98.79 177.91 98.91 177.97 99.01C178.38 99.69 179.85 100.16 181.09 100.16C183.17 100.16 184.37 99.26 184.47 97.63ZM192.66 95.67C192.66 93.44 191.55 91.20 189.08 91.20C186.59 91.20 185.49 93.44 185.49 95.67C185.49 97.91 186.59 100.16 189.08 100.16C191.55 100.16 192.66 97.91 192.66 95.67ZM190.78 95.67C190.78 97.27 190.31 98.52 189.08 98.52C187.83 98.52 187.36 97.27 187.36 95.67C187.36 94.07 187.83 92.84 189.08 92.84C190.31 92.84 190.78 94.07 190.78 95.67ZM195.63 99.36C195.63 98.52 195.07 98.04 194.46 98.04C193.91 98.04 193.44 98.50 193.44 99.08C193.44 99.64 193.83 100.01 194.33 100.01C194.42 100.01 194.54 99.99 194.57 99.97C194.50 100.31 194.21 100.72 193.87 100.99C193.78 101.07 193.74 101.17 193.74 101.27C193.74 101.53 194.02 101.69 194.24 101.69C194.37 101.69 194.48 101.65 194.57 101.56C195.22 100.97 195.63 100.19 195.63 99.36ZM202.11 92.27C202.11 91.72 201.67 91.33 201.22 91.33L196.25 91.33C195.81 91.33 195.45 91.69 195.45 92.12C195.45 92.59 195.81 92.95 196.25 92.95L199.89 92.95L197.30 98.82C197.25 98.93 197.23 99.05 197.23 99.17C197.23 99.64 197.60 100.08 198.15 100.08C198.53 100.08 198.88 99.86 199.02 99.52L202.04 92.63C202.09 92.53 202.11 92.39 202.11 92.27ZM209.51 99.17C209.51 98.74 209.15 98.38 208.72 98.38L205.90 98.38C208.15 96.74 209.37 95.45 209.37 93.97C209.37 92.24 207.90 91.20 206.05 91.20C204.96 91.20 203.51 91.67 203.09 92.33C203.01 92.45 202.97 92.58 202.97 92.71C202.97 93.17 203.35 93.54 203.78 93.54C203.97 93.54 204.14 93.49 204.31 93.37C204.81 93.03 205.40 92.84 206.09 92.84C206.81 92.84 207.50 93.21 207.50 93.97C207.50 94.98 206.46 95.93 203.22 98.32C202.97 98.50 202.83 98.80 202.83 99.10C202.83 99.62 203.25 100 203.70 100L208.72 100C209.15 100 209.51 99.64 209.51 99.17ZM210.49 94.16C210.49 96.01 211.88 96.98 213.44 96.98C214.52 96.98 215.32 96.45 215.66 95.87C215.67 95.93 215.67 95.98 215.67 96.05C215.67 97.43 214.78 98.50 213.50 98.50C213.06 98.50 212.70 98.43 212.37 98.26C212.25 98.19 212.12 98.17 211.99 98.17C211.59 98.17 211.15 98.48 211.15 98.97C211.15 99.10 211.19 99.22 211.24 99.32C211.57 99.90 212.66 100.14 213.50 100.14C216.06 100.14 217.55 98.28 217.55 95.66C217.55 93.21 216.44 91.19 213.80 91.19C211.83 91.19 210.49 92.47 210.49 94.16ZM212.36 94.10C212.36 93.45 212.84 92.82 213.84 92.82C214.66 92.82 215.27 93.38 215.27 94.19C215.27 94.97 214.65 95.53 213.84 95.53C213.01 95.53 212.36 94.97 212.36 94.10Z" fill="#627386" /></g><g aria-label="Deletions: 14,287,427"><circle cx="22" cy="118" r="4" fill="#00a5fe" /><path d="M42.54 117.67C42.54 115.17 40.76 113.33 38.06 113.33L35.82 113.33C35.35 113.33 34.98 113.71 34.98 114.17L34.98 121.16C34.98 121.62 35.35 122 35.82 122L38.06 122C40.76 122 42.54 120.18 42.54 117.67ZM41.23 117.67C41.23 119.43 40.06 120.86 38.06 120.86L36.26 120.86L36.26 114.47L38.06 114.47C40.11 114.47 41.23 115.89 41.23 117.67ZM49.90 118.65C49.90 118.40 49.83 118.13 49.78 117.92C49.42 116.51 48.38 115.56 46.86 115.56C45.04 115.56 43.72 117.03 43.72 118.85C43.72 120.83 45.09 122.16 46.96 122.16C47.88 122.16 49.50 121.67 49.50 120.97C49.50 120.53 49.05 120.43 48.77 120.57C48.31 120.91 47.61 121.22 47.08 121.22C45.80 121.22 45.02 120.35 44.93 119.27L49.30 119.27C49.63 119.27 49.90 118.96 49.90 118.65ZM44.93 118.41C44.98 117.54 45.60 116.50 46.84 116.50C48.18 116.50 48.76 117.57 48.78 118.41ZM52.54 113.81C52.54 113.51 52.28 113.25 51.98 113.25C51.64 113.25 51.38 113.51 51.38 113.81L51.38 121.51C51.38 121.82 51.64 122.08 51.95 122.08C52.28 122.08 52.54 121.82 52.54 121.51ZM60.21 118.65C60.21 118.40 60.14 118.13 60.09 117.92C59.73 116.51 58.69 115.56 57.17 115.56C55.35 115.56 54.03 117.03 54.03 118.85C54.03 120.83 55.40 122.16 57.27 122.16C58.19 122.16 59.81 121.67 59.81 120.97C59.81 120.53 59.36 120.43 59.08 120.57C58.62 120.91 57.92 121.22 57.39 121.22C56.11 121.22 55.33 120.35 55.24 119.27L59.61 119.27C59.94 119.27 60.21 118.96 60.21 118.65ZM55.24 118.41C55.29 117.54 55.91 116.50 57.15 116.50C58.49 116.50 59.06 117.57 59.09 118.41ZM64.62 121.55C64.62 121.27 64.41 121.06 64.12 121.06C63.99 121.06 63.84 121.13 63.69 121.13C63.32 121.13 63.08 120.83 63.08 120.35L63.08 116.73L63.94 116.73C64.21 116.73 64.43 116.51 64.43 116.24C64.43 115.94 64.21 115.72 63.94 115.72L63.08 115.72L63.08 114.49C63.08 114.19 62.82 113.93 62.51 113.93C62.17 113.93 61.91 114.19 61.91 114.49L61.91 115.72L61.30 115.72C61.01 115.72 60.79 115.94 60.79 116.22C60.79 116.51 61.01 116.73 61.30 116.73L61.91 116.73L61.91 120.62C61.91 121.61 62.43 122.16 63.42 122.16C64.11 122.16 64.62 121.96 64.62 121.55ZM66.24 113.39C65.84 113.39 65.50 113.73 65.50 114.15C65.50 114.55 65.84 114.89 66.24 114.89C66.66 114.89 66.98 114.55 66.98 114.15C66.98 113.73 66.66 113.39 66.24 113.39ZM66.83 116.20C66.83 115.90 66.56 115.64 66.27 115.64C65.93 115.64 65.67 115.90 65.67 116.20L65.67 121.51C65.67 121.82 65.93 122.08 66.24 122.08C66.56 122.08 66.83 121.82 66.83 121.51ZM74.65 118.85C74.65 117.05 73.44 115.56 71.48 115.56C69.53 115.56 68.32 117.05 68.32 118.85C68.32 120.66 69.53 122.16 71.48 122.16C73.44 122.16 74.65 120.66 74.65 118.85ZM73.44 118.85C73.44 120.06 72.74 121.13 71.48 121.13C70.23 121.13 69.52 120.06 69.52 118.85C69.52 117.66 70.23 116.59 71.48 116.59C72.74 116.59 73.44 117.66 73.44 118.85ZM81.54 117.97C81.54 116.64 80.58 115.56 79.25 115.56C78.16 115.56 77.60 116.10 77.30 116.61L77.30 116.20C77.30 115.90 77.04 115.64 76.74 115.64C76.41 115.64 76.15 115.90 76.15 116.20L76.15 121.51C76.15 121.82 76.41 122.08 76.72 122.08C77.04 122.08 77.30 121.82 77.30 121.51L77.30 118.49C77.30 117.42 77.88 116.59 78.88 116.59C79.81 116.59 80.38 117.32 80.38 118.36L80.38 121.51C80.38 121.82 80.64 122.08 80.96 122.08C81.28 122.08 81.54 121.82 81.54 121.51ZM88.01 120.10C87.90 117.89 84.30 118.50 84.17 117.37C84.11 116.86 84.66 116.49 85.45 116.49C86.05 116.49 86.61 116.68 87.01 116.97C87.09 117.03 87.18 117.06 87.29 117.06C87.52 117.06 87.74 116.86 87.74 116.61C87.74 116.50 87.70 116.40 87.62 116.32C87.13 115.84 86.34 115.56 85.44 115.56C83.91 115.56 82.98 116.29 83.05 117.41C83.17 119.52 86.75 118.87 86.88 120.26C86.94 120.83 86.42 121.23 85.52 121.23C84.87 121.23 84.22 120.97 83.75 120.64C83.66 120.57 83.57 120.54 83.45 120.54C83.18 120.54 82.94 120.75 82.94 121.03C82.94 121.16 83.00 121.26 83.09 121.34C83.66 121.91 84.61 122.16 85.47 122.16C87.13 122.16 88.08 121.30 88.01 120.10Z" fill="#22272e" /><path d="M158.54 114.32C158.54 113.73 158.04 113.26 157.46 113.26C157.16 113.26 156.87 113.38 156.68 113.58L154.68 115.60C154.52 115.76 154.44 115.95 154.44 116.15C154.44 116.58 154.81 116.92 155.21 116.92C155.39 116.92 155.57 116.85 155.72 116.71L156.69 115.71L156.69 121.17C156.69 121.66 157.11 122.08 157.60 122.08C158.12 122.08 158.54 121.66 158.54 121.17ZM166.91 119.40C166.91 118.94 166.55 118.58 166.12 118.58L165.71 118.58L165.71 114.29C165.71 113.48 164.93 113.12 164.14 113.25C163.58 113.25 163.02 113.55 162.72 114.02L159.82 118.59C159.71 118.78 159.66 118.98 159.66 119.19C159.66 119.78 160.08 120.21 160.60 120.21L163.87 120.21L163.87 121.17C163.87 121.66 164.28 122.08 164.78 122.08C165.30 122.08 165.71 121.66 165.71 121.17L165.71 120.21L166.12 120.21C166.55 120.21 166.91 119.84 166.91 119.40ZM161.53 118.58L163.87 114.97L163.87 118.58ZM169.95 121.36C169.95 120.52 169.39 120.04 168.78 120.04C168.24 120.04 167.77 120.50 167.77 121.08C167.77 121.64 168.16 122.01 168.65 122.01C168.74 122.01 168.86 121.99 168.90 121.97C168.82 122.31 168.53 122.72 168.20 122.99C168.11 123.07 168.07 123.17 168.07 123.27C168.07 123.53 168.34 123.69 168.56 123.69C168.69 123.69 168.81 123.65 168.90 123.56C169.55 122.97 169.95 122.19 169.95 121.36ZM177.70 121.17C177.70 120.74 177.34 120.38 176.91 120.38L174.09 120.38C176.33 118.74 177.56 117.45 177.56 115.97C177.56 114.24 176.09 113.20 174.24 113.20C173.15 113.20 171.69 113.67 171.28 114.33C171.20 114.45 171.16 114.58 171.16 114.71C171.16 115.17 171.54 115.54 171.97 115.54C172.16 115.54 172.33 115.49 172.50 115.37C172.99 115.03 173.59 114.84 174.28 114.84C175.00 114.84 175.68 115.21 175.68 115.97C175.68 116.98 174.64 117.93 171.41 120.32C171.16 120.50 171.02 120.80 171.02 121.10C171.02 121.62 171.43 122 171.89 122L176.91 122C177.34 122 177.70 121.64 177.70 121.17ZM185.71 119.62C185.71 118.44 185.01 117.76 184.49 117.53C184.93 117.32 185.56 116.83 185.56 115.49C185.56 113.99 183.95 113.20 182.22 113.20C180.48 113.20 178.88 113.99 178.88 115.49C178.88 116.83 179.51 117.32 179.95 117.53C179.43 117.76 178.74 118.44 178.74 119.62C178.74 121.25 180.40 122.16 182.22 122.16C184.04 122.16 185.71 121.23 185.71 119.62ZM183.68 115.77C183.68 116.42 183.02 116.80 182.22 116.80C181.43 116.80 180.75 116.42 180.75 115.77C180.75 115.15 181.37 114.78 182.22 114.78C183.07 114.78 183.68 115.15 183.68 115.77ZM183.84 119.52C183.84 120.15 183.11 120.57 182.22 120.57C181.31 120.57 180.61 120.15 180.61 119.52C180.61 118.79 181.42 118.36 182.22 118.36C183.02 118.36 183.84 118.79 183.84 119.52ZM193.07 114.27C193.07 113.72 192.62 113.33 192.17 113.33L187.20 113.33C186.76 113.33 186.40 113.69 186.40 114.12C186.40 114.59 186.76 114.95 187.20 114.95L190.84 114.95L188.26 120.82C188.20 120.93 188.18 121.05 188.18 121.17C188.18 121.64 188.56 122.08 189.10 122.08C189.48 122.08 189.83 121.86 189.97 121.52L192.99 114.63C193.04 114.53 193.07 114.39 193.07 114.27ZM194.82 121.36C194.82 120.52 194.26 120.04 193.65 120.04C193.11 120.04 192.64 120.50 192.64 121.08C192.64 121.64 193.03 122.01 193.52 122.01C193.61 122.01 193.73 121.99 193.77 121.97C193.69 122.31 193.40 122.72 193.07 122.99C192.98 123.07 192.94 123.17 192.94 123.27C192.94 123.53 193.21 123.69 193.43 123.69C193.56 123.69 193.68 123.65 193.77 123.56C194.42 122.97 194.82 122.19 194.82 121.36ZM202.87 119.40C202.87 118.94 202.50 118.58 202.08 118.58L201.67 118.58L201.67 114.29C201.67 113.48 200.89 113.12 200.10 113.25C199.54 113.25 198.98 113.55 198.68 114.02L195.78 118.59C195.67 118.78 195.61 118.98 195.61 119.19C195.61 119.78 196.04 120.21 196.56 120.21L199.83 120.21L199.83 121.17C199.83 121.66 200.24 122.08 200.74 122.08C201.26 122.08 201.67 121.66 201.67 121.17L201.67 120.21L202.08 120.21C202.50 120.21 202.87 119.84 202.87 119.40ZM197.49 118.58L199.83 114.97L199.83 118.58ZM210.33 121.17C210.33 120.74 209.97 120.38 209.54 120.38L206.72 120.38C208.97 118.74 210.19 117.45 210.19 115.97C210.19 114.24 208.72 113.20 206.87 113.20C205.78 113.20 204.32 113.67 203.91 114.33C203.83 114.45 203.79 114.58 203.79 114.71C203.79 115.17 204.17 115.54 204.60 115.54C204.79 115.54 204.96 115.49 205.13 115.37C205.62 115.03 206.22 114.84 206.91 114.84C207.63 114.84 208.31 115.21 208.31 115.97C208.31 116.98 207.28 117.93 204.04 120.32C203.79 120.50 203.65 120.80 203.65 121.10C203.65 121.62 204.06 122 204.52 122L209.54 122C209.97 122 210.33 121.64 210.33 121.17ZM217.82 114.27C217.82 113.72 217.38 113.33 216.92 113.33L211.96 113.33C211.51 113.33 211.15 113.69 211.15 114.12C211.15 114.59 211.51 114.95 211.96 114.95L215.60 114.95L213.01 120.82C212.96 120.93 212.93 121.05 212.93 121.17C212.93 121.64 213.31 122.08 213.85 122.08C214.23 122.08 214.58 121.86 214.72 121.52L217.74 114.63C217.79 114.53 217.82 114.39 217.82 114.27Z" fill="#627386" /></g><g aria-label="Changed Files: 506,705"><circle cx="22" cy="140" r="4" fill="#673bd6" /><path d="M39.11 135.19C36.59 135.19 34.60 137.01 34.60 139.67C34.60 142.34 36.59 144.16 39.11 144.16C40.46 144.16 41.40 143.60 42.07 142.87C42.18 142.76 42.23 142.62 42.23 142.47C42.23 142.15 41.97 141.87 41.63 141.87C41.46 141.87 41.28 141.95 41.18 142.08C40.64 142.67 39.88 143.01 39.11 143.01C37.29 143.01 35.94 141.61 35.94 139.67C35.94 137.72 37.29 136.33 39.11 136.33C39.86 136.33 40.67 136.69 41.18 137.28C41.28 137.42 41.46 137.49 41.62 137.49C41.96 137.49 42.23 137.21 42.23 136.89C42.23 136.73 42.18 136.59 42.07 136.47C41.41 135.73 40.46 135.19 39.11 135.19ZM49.17 139.94C49.17 138.62 48.22 137.56 46.90 137.56C45.79 137.56 45.22 138.10 44.92 138.60L44.92 135.81C44.92 135.51 44.66 135.25 44.36 135.25C44.02 135.25 43.76 135.51 43.76 135.81L43.76 143.51C43.76 143.82 44.02 144.08 44.34 144.08C44.66 144.08 44.92 143.82 44.92 143.51L44.92 140.56C44.92 139.38 45.54 138.59 46.53 138.59C47.47 138.59 48.01 139.29 48.01 140.33L48.01 143.51C48.01 143.82 48.27 144.08 48.59 144.08C48.91 144.08 49.17 143.82 49.17 143.51ZM56.09 139.75C56.09 138.15 54.92 137.56 53.56 137.56C52.72 137.56 51.77 137.84 51.17 138.44C51.09 138.53 51.06 138.63 51.06 138.74C51.06 139.01 51.30 139.19 51.54 139.19C51.63 139.19 51.73 139.15 51.82 139.09C52.29 138.72 52.81 138.54 53.40 138.54C54.28 138.54 54.93 139.01 54.93 139.80L54.93 140.15L53.12 140.15C51.82 140.15 50.68 140.66 50.68 142.08C50.68 143.45 51.82 144.16 52.86 144.16C53.84 144.16 54.42 143.86 54.93 143.30L54.93 143.51C54.93 143.88 55.23 144.08 55.46 144.08L55.50 144.08C55.83 144.08 56.09 143.82 56.09 143.51ZM54.93 140.96L54.93 141.84C54.93 142.58 54.09 143.34 53.17 143.34C52.33 143.34 51.85 142.83 51.85 142.10C51.85 141.35 52.45 140.96 53.44 140.96ZM63.34 139.97C63.34 138.64 62.38 137.56 61.05 137.56C59.96 137.56 59.40 138.10 59.10 138.60L59.10 138.20C59.10 137.90 58.84 137.64 58.54 137.64C58.21 137.64 57.95 137.90 57.95 138.20L57.95 143.51C57.95 143.82 58.21 144.08 58.52 144.08C58.84 144.08 59.10 143.82 59.10 143.51L59.10 140.49C59.10 139.42 59.67 138.59 60.68 138.59C61.61 138.59 62.18 139.32 62.18 140.36L62.18 143.51C62.18 143.82 62.44 144.08 62.76 144.08C63.08 144.08 63.34 143.82 63.34 143.51ZM70.84 138.20C70.84 137.90 70.58 137.64 70.28 137.64C69.95 137.64 69.69 137.90 69.69 138.20L69.69 138.63C69.18 137.96 68.45 137.56 67.62 137.56C65.99 137.56 64.84 138.79 64.84 140.81C64.84 142.86 66.01 144.05 67.62 144.05C68.48 144.05 69.22 143.60 69.69 142.96L69.69 143.79C69.69 145.13 68.72 145.60 67.75 145.60C67.06 145.60 66.51 145.46 66.03 145.05C65.94 144.99 65.85 144.96 65.73 144.96C65.47 144.96 65.24 145.18 65.24 145.46C65.24 145.59 65.29 145.70 65.37 145.78C65.98 146.37 66.86 146.55 67.75 146.55C69.28 146.55 70.84 145.91 70.84 143.75ZM69.69 140.83C69.69 142.12 68.84 143.03 67.80 143.03C66.63 143.03 66.03 142.10 66.03 140.81C66.03 139.50 66.63 138.59 67.80 138.59C68.84 138.59 69.69 139.49 69.69 140.78ZM78.51 140.65C78.51 140.40 78.45 140.13 78.40 139.92C78.03 138.51 76.99 137.56 75.47 137.56C73.65 137.56 72.34 139.03 72.34 140.85C72.34 142.83 73.70 144.16 75.57 144.16C76.50 144.16 78.11 143.68 78.11 142.97C78.11 142.53 77.67 142.43 77.38 142.57C76.93 142.91 76.22 143.22 75.69 143.22C74.42 143.22 73.64 142.35 73.55 141.27L77.91 141.27C78.24 141.27 78.51 140.96 78.51 140.65ZM73.55 140.41C73.60 139.54 74.21 138.50 75.46 138.50C76.80 138.50 77.37 139.57 77.39 140.41ZM85.64 135.81C85.64 135.51 85.38 135.25 85.08 135.25C84.74 135.25 84.48 135.51 84.48 135.81L84.48 138.63C83.97 137.96 83.36 137.56 82.41 137.56C80.77 137.56 79.62 138.85 79.62 140.87C79.62 142.92 80.79 144.16 82.41 144.16C83.39 144.16 84.00 143.73 84.48 143.10L84.48 143.51C84.48 143.82 84.74 144.08 85.05 144.08C85.38 144.08 85.64 143.82 85.64 143.51ZM84.48 140.91C84.48 142.21 83.83 143.13 82.71 143.13C81.54 143.13 80.81 142.18 80.81 140.87C80.81 139.55 81.54 138.59 82.71 138.59C83.83 138.59 84.48 139.54 84.48 140.83ZM96.76 135.91C96.76 135.58 96.52 135.33 96.20 135.33L91.73 135.33C91.27 135.33 90.89 135.71 90.89 136.17L90.89 143.44C90.89 143.79 91.17 144.08 91.52 144.08C91.89 144.08 92.17 143.79 92.17 143.44L92.17 140.15L96.11 140.15C96.43 140.15 96.67 139.89 96.67 139.59C96.67 139.25 96.43 139.01 96.11 139.01L92.17 139.01L92.17 136.47L96.20 136.47C96.52 136.47 96.76 136.21 96.76 135.91ZM98.65 135.39C98.25 135.39 97.91 135.73 97.91 136.15C97.91 136.55 98.25 136.89 98.65 136.89C99.06 136.89 99.39 136.55 99.39 136.15C99.39 135.73 99.06 135.39 98.65 135.39ZM99.23 138.20C99.23 137.90 98.97 137.64 98.67 137.64C98.34 137.64 98.08 137.90 98.08 138.20L98.08 143.51C98.08 143.82 98.34 144.08 98.65 144.08C98.97 144.08 99.23 143.82 99.23 143.51ZM102.26 135.81C102.26 135.51 102.00 135.25 101.70 135.25C101.37 135.25 101.11 135.51 101.11 135.81L101.11 143.51C101.11 143.82 101.37 144.08 101.68 144.08C102.00 144.08 102.26 143.82 102.26 143.51ZM109.93 140.65C109.93 140.40 109.87 140.13 109.82 139.92C109.45 138.51 108.41 137.56 106.89 137.56C105.07 137.56 103.76 139.03 103.76 140.85C103.76 142.83 105.12 144.16 106.99 144.16C107.92 144.16 109.53 143.68 109.53 142.97C109.53 142.53 109.09 142.43 108.80 142.57C108.35 142.91 107.64 143.22 107.11 143.22C105.84 143.22 105.06 142.35 104.97 141.27L109.33 141.27C109.66 141.27 109.93 140.96 109.93 140.65ZM104.97 140.41C105.02 139.54 105.63 138.50 106.88 138.50C108.22 138.50 108.79 139.57 108.81 140.41ZM116.02 142.10C115.90 139.89 112.30 140.50 112.17 139.37C112.12 138.87 112.66 138.49 113.46 138.49C114.05 138.49 114.61 138.68 115.02 138.97C115.09 139.03 115.18 139.06 115.29 139.06C115.52 139.06 115.74 138.87 115.74 138.60C115.74 138.50 115.70 138.40 115.63 138.32C115.13 137.84 114.34 137.56 113.44 137.56C111.91 137.56 110.99 138.29 111.05 139.41C111.17 141.52 114.76 140.87 114.89 142.26C114.94 142.83 114.42 143.23 113.52 143.23C112.87 143.23 112.22 142.97 111.75 142.63C111.66 142.57 111.57 142.54 111.45 142.54C111.18 142.54 110.95 142.75 110.95 143.03C110.95 143.16 111.00 143.26 111.09 143.34C111.66 143.91 112.61 144.16 113.47 144.16C115.13 144.16 116.08 143.30 116.02 142.10Z" fill="#22272e" /><path d="M176.15 141.15C176.15 139.40 174.84 138.34 173.37 138.34C172.58 138.34 171.88 138.66 171.46 139.07L171.46 136.95L174.85 136.95C175.28 136.95 175.65 136.59 175.65 136.15C175.65 135.69 175.28 135.33 174.85 135.33L170.65 135.33C170.08 135.33 169.61 135.80 169.61 136.37L169.61 139.70C169.61 140.20 169.98 140.58 170.55 140.58C170.81 140.58 171.06 140.50 171.27 140.36C171.73 140.05 172.19 139.94 172.72 139.94C173.71 139.94 174.28 140.46 174.28 141.23C174.28 141.93 173.70 142.52 172.67 142.52C172.05 142.52 171.45 142.35 170.94 142.04C170.78 141.95 170.62 141.89 170.46 141.89C170.00 141.89 169.58 142.25 169.58 142.73C169.58 142.86 169.61 142.99 169.68 143.10C170.08 143.78 171.55 144.16 172.68 144.16C174.78 144.16 176.15 143.00 176.15 141.15ZM184.23 139.67C184.23 137.44 183.11 135.20 180.64 135.20C178.16 135.20 177.05 137.44 177.05 139.67C177.05 141.91 178.16 144.16 180.64 144.16C183.11 144.16 184.23 141.91 184.23 139.67ZM182.34 139.67C182.34 141.27 181.87 142.52 180.64 142.52C179.39 142.52 178.92 141.27 178.92 139.67C178.92 138.07 179.39 136.84 180.64 136.84C181.87 136.84 182.34 138.07 182.34 139.67ZM192.17 141.18C192.17 139.33 190.78 138.36 189.22 138.36C188.14 138.36 187.33 138.89 187.00 139.48C186.98 139.41 186.98 139.36 186.98 139.29C186.98 137.92 187.88 136.84 189.15 136.84C189.59 136.84 189.96 136.91 190.28 137.08C190.40 137.15 190.53 137.18 190.66 137.18C191.06 137.18 191.51 136.86 191.51 136.37C191.51 136.24 191.47 136.12 191.42 136.02C191.09 135.45 190.00 135.20 189.15 135.20C186.59 135.20 185.11 137.06 185.11 139.68C185.11 142.13 186.22 144.16 188.85 144.16C190.83 144.16 192.17 142.87 192.17 141.18ZM190.30 141.24C190.30 141.89 189.82 142.52 188.81 142.52C188.00 142.52 187.39 141.96 187.39 141.15C187.39 140.37 188.01 139.81 188.81 139.81C189.65 139.81 190.30 140.37 190.30 141.24ZM195.37 143.36C195.37 142.52 194.81 142.04 194.20 142.04C193.65 142.04 193.18 142.50 193.18 143.08C193.18 143.64 193.57 144.01 194.07 144.01C194.16 144.01 194.28 143.99 194.31 143.97C194.24 144.31 193.95 144.72 193.61 144.99C193.52 145.07 193.48 145.17 193.48 145.27C193.48 145.53 193.75 145.69 193.98 145.69C194.11 145.69 194.22 145.65 194.31 145.56C194.96 144.97 195.37 144.19 195.37 143.36ZM201.85 136.26C201.85 135.72 201.41 135.33 200.96 135.33L195.99 135.33C195.55 135.33 195.19 135.69 195.19 136.12C195.19 136.59 195.55 136.95 195.99 136.95L199.63 136.95L197.04 142.82C196.99 142.93 196.97 143.05 196.97 143.17C196.97 143.64 197.34 144.08 197.89 144.08C198.27 144.08 198.62 143.86 198.76 143.52L201.78 136.63C201.83 136.53 201.85 136.40 201.85 136.26ZM209.65 139.67C209.65 137.44 208.54 135.20 206.07 135.20C203.58 135.20 202.48 137.44 202.48 139.67C202.48 141.91 203.58 144.16 206.07 144.16C208.54 144.16 209.65 141.91 209.65 139.67ZM207.77 139.67C207.77 141.27 207.30 142.52 206.07 142.52C204.82 142.52 204.35 141.27 204.35 139.67C204.35 138.07 204.82 136.84 206.07 136.84C207.30 136.84 207.77 138.07 207.77 139.67ZM217.55 141.15C217.55 139.40 216.23 138.34 214.76 138.34C213.97 138.34 213.27 138.66 212.85 139.07L212.85 136.95L216.25 136.95C216.67 136.95 217.04 136.59 217.04 136.15C217.04 135.69 216.67 135.33 216.25 135.33L212.05 135.33C211.47 135.33 211.01 135.80 211.01 136.37L211.01 139.70C211.01 140.20 211.37 140.58 211.94 140.58C212.20 140.58 212.45 140.50 212.66 140.36C213.13 140.05 213.58 139.94 214.11 139.94C215.10 139.94 215.67 140.46 215.67 141.23C215.67 141.93 215.09 142.52 214.06 142.52C213.44 142.52 212.84 142.35 212.33 142.04C212.18 141.95 212.01 141.89 211.85 141.89C211.40 141.89 210.97 142.25 210.97 142.73C210.97 142.86 211.01 142.99 211.07 143.10C211.47 143.78 212.94 144.16 214.07 144.16C216.17 144.16 217.55 143.00 217.55 141.15Z" fill="#627386" /></g><rect x="18" y="166" width="384" height="8" rx="4" fill="#f4faff" /><rect x="18.00" y="166" width="266.31" height="8" rx="4" fill="#00d559" /><rect x="284.31" y="166" width="117.69" height="8" rx="4" fill="#00a5fe" /></svg>