<svg xmlns="http://www.w3.org/2000/svg" width="420" height="184" viewBox="0 0 420 184" role="img"><rect x="0.5" y="0.5" width="419" height="183" rx="10" fill="#161b22" stroke="#30363d" /><path d="M30.72 33.60C30.72 32.83 30.10 32.21 29.37 32.21L28.69 32.21L28.69 24.95C28.69 23.59 27.37 22.97 26.03 23.19C25.08 23.19 24.14 23.70 23.63 24.49L18.73 32.24C18.53 32.54 18.44 32.90 18.44 33.25C18.44 34.24 19.17 34.96 20.05 34.96L25.57 34.96L25.57 36.59C25.57 37.43 26.27 38.13 27.11 38.13C27.99 38.13 28.69 37.43 28.69 36.59L28.69 34.96L29.37 34.96C30.10 34.96 30.72 34.35 30.72 33.60ZM21.61 32.21L25.57 26.10L25.57 32.21ZM42.82 24.91C42.82 23.99 42.07 23.33 41.30 23.33L32.89 23.33C32.15 23.33 31.53 23.94 31.53 24.67C31.53 25.46 32.15 26.08 32.89 26.08L39.05 26.08L34.68 36.00C34.59 36.20 34.54 36.39 34.54 36.59C34.54 37.38 35.18 38.13 36.11 38.13C36.74 38.13 37.34 37.76 37.58 37.19L42.68 25.53C42.77 25.35 42.82 25.13 42.82 24.91ZM45.79 36.92C45.79 35.49 44.84 34.68 43.81 34.68C42.88 34.68 42.09 35.47 42.09 36.44C42.09 37.38 42.75 38.02 43.59 38.02C43.74 38.02 43.94 37.98 44.00 37.96C43.87 38.53 43.39 39.21 42.82 39.67C42.66 39.80 42.60 39.98 42.60 40.16C42.60 40.60 43.06 40.86 43.43 40.86C43.65 40.86 43.85 40.79 44.00 40.64C45.10 39.65 45.79 38.33 45.79 36.92ZM59.40 33.60C59.40 32.83 58.79 32.21 58.06 32.21L57.38 32.21L57.38 24.95C57.38 23.59 56.06 22.97 54.72 23.19C53.77 23.19 52.83 23.70 52.32 24.49L47.41 32.24C47.22 32.54 47.13 32.90 47.13 33.25C47.13 34.24 47.85 34.96 48.73 34.96L54.26 34.96L54.26 36.59C54.26 37.43 54.96 38.13 55.80 38.13C56.68 38.13 57.38 37.43 57.38 36.59L57.38 34.96L58.06 34.96C58.79 34.96 59.40 34.35 59.40 33.60ZM50.30 32.21L54.26 26.10L54.26 32.21ZM72.43 33.18C72.43 30.21 70.21 28.43 67.72 28.43C66.38 28.43 65.19 28.96 64.49 29.66L64.49 26.08L70.23 26.08C70.95 26.08 71.57 25.46 71.57 24.71C71.57 23.94 70.95 23.33 70.23 23.33L63.12 23.33C62.15 23.33 61.36 24.12 61.36 25.09L61.36 30.72C61.36 31.58 61.98 32.21 62.95 32.21C63.39 32.21 63.80 32.08 64.16 31.84C64.95 31.31 65.72 31.14 66.62 31.14C68.29 31.14 69.26 32.02 69.26 33.31C69.26 34.50 68.27 35.49 66.53 35.49C65.48 35.49 64.46 35.21 63.61 34.68C63.34 34.52 63.06 34.44 62.79 34.44C62.02 34.44 61.30 35.03 61.30 35.84C61.30 36.06 61.36 36.28 61.47 36.48C62.15 37.63 64.64 38.26 66.55 38.26C70.10 38.26 72.43 36.31 72.43 33.18ZM86.09 30.67C86.09 26.89 84.20 23.11 80.02 23.11C75.82 23.11 73.95 26.89 73.95 30.67C73.95 34.46 75.82 38.26 80.02 38.26C84.20 38.26 86.09 34.46 86.09 30.67ZM82.90 30.67C82.90 33.38 82.11 35.49 80.02 35.49C77.91 35.49 77.11 33.38 77.11 30.67C77.11 27.97 77.91 25.88 80.02 25.88C82.11 25.88 82.90 27.97 82.90 30.67ZM101.03 23.08C96.63 23.08 93.22 26.16 93.22 30.67C93.22 35.18 96.63 38.26 101.03 38.26C103.56 38.26 105.25 37.16 106.35 35.82C106.57 35.58 106.66 35.27 106.66 34.96C106.66 34.22 106.02 33.60 105.23 33.60C104.79 33.60 104.35 33.78 104.04 34.11C103.23 35.01 102.13 35.49 101.03 35.49C98.37 35.49 96.43 33.45 96.43 30.67C96.43 27.90 98.37 25.86 101.03 25.86C102.13 25.86 103.21 26.38 104.04 27.26C104.35 27.59 104.77 27.77 105.19 27.77C106 27.77 106.68 27.15 106.68 26.36C106.68 26.08 106.57 25.75 106.37 25.50C105.25 24.16 103.56 23.08 101.03 23.08ZM119.53 32.68C119.53 29.66 117.42 27.11 113.90 27.11C110.40 27.11 108.29 29.66 108.29 32.68C108.29 35.71 110.40 38.26 113.90 38.26C117.42 38.26 119.53 35.71 119.53 32.68ZM116.63 32.68C116.63 34.35 115.64 35.78 113.90 35.78C112.16 35.78 111.19 34.35 111.19 32.68C111.19 31.03 112.16 29.60 113.90 29.60C115.64 29.60 116.63 31.03 116.63 32.68ZM137.59 31.20C137.59 29.02 136.07 27.11 133.68 27.11C131.83 27.11 130.77 28.19 130.38 28.94C129.98 28.17 128.99 27.11 127.21 27.11C125.58 27.11 124.83 27.70 124.39 28.28L124.39 28.25C124.39 27.95 124.00 27.24 123.03 27.24C122.21 27.24 121.60 27.86 121.60 28.61L121.60 36.75C121.60 37.52 122.21 38.13 122.98 38.13C123.78 38.13 124.39 37.52 124.39 36.75L124.39 31.73C124.39 30.70 125.18 29.60 126.37 29.60C127.52 29.60 128.18 30.74 128.18 31.73L128.18 36.75C128.18 37.52 128.79 38.13 129.56 38.13C130.38 38.13 130.99 37.52 130.99 36.75L130.99 31.93C130.99 30.70 131.76 29.60 132.97 29.60C134.12 29.60 134.78 30.74 134.78 31.73L134.78 36.75C134.78 37.52 135.39 38.13 136.16 38.13C136.98 38.13 137.59 37.52 137.59 36.75ZM156.34 31.20C156.34 29.02 154.82 27.11 152.42 27.11C150.57 27.11 149.52 28.19 149.12 28.94C148.72 28.17 147.73 27.11 145.95 27.11C144.32 27.11 143.58 27.70 143.14 28.28L143.14 28.25C143.14 27.95 142.74 27.24 141.77 27.24C140.96 27.24 140.34 27.86 140.34 28.61L140.34 36.75C140.34 37.52 140.96 38.13 141.73 38.13C142.52 38.13 143.14 37.52 143.14 36.75L143.14 31.73C143.14 30.70 143.93 29.60 145.12 29.60C146.26 29.60 146.92 30.74 146.92 31.73L146.92 36.75C146.92 37.52 147.54 38.13 148.31 38.13C149.12 38.13 149.74 37.52 149.74 36.75L149.74 31.93C149.74 30.70 150.51 29.60 151.72 29.60C152.86 29.60 153.52 30.74 153.52 31.73L153.52 36.75C153.52 37.52 154.14 38.13 154.91 38.13C155.72 38.13 156.34 37.52 156.34 36.75ZM160.47 22.91C159.57 22.91 158.80 23.63 158.80 24.56C158.80 25.48 159.57 26.23 160.47 26.23C161.40 26.23 162.14 25.48 162.14 24.56C162.14 23.63 161.40 22.91 160.47 22.91ZM161.88 28.61C161.88 27.86 161.26 27.24 160.52 27.24C159.70 27.24 159.09 27.86 159.09 28.61L159.09 36.75C159.09 37.52 159.70 38.13 160.47 38.13C161.26 38.13 161.88 37.52 161.88 36.75ZM170.46 36.99C170.46 36.31 170.02 35.78 169.23 35.78L168.99 35.78C168.55 35.78 168.02 35.45 168.02 34.61L168.02 29.82L169.12 29.82C169.76 29.82 170.31 29.27 170.31 28.61C170.31 27.92 169.76 27.37 169.12 27.37L168.02 27.37L168.02 25.72C168.02 24.95 167.40 24.34 166.63 24.34C165.82 24.34 165.20 24.95 165.20 25.72L165.20 27.37L164.52 27.37C163.86 27.37 163.31 27.92 163.31 28.56C163.31 29.27 163.86 29.82 164.52 29.82L165.20 29.82L165.20 35.36C165.20 37.25 166.26 38.26 168.22 38.26C170.04 38.26 170.46 37.69 170.46 36.99ZM180.51 34.85C180.51 30.56 174.22 31.88 174.22 30.30C174.22 29.71 174.88 29.24 175.89 29.24C176.75 29.24 177.61 29.49 178.29 29.88C178.45 29.97 178.64 30.01 178.82 30.01C179.39 30.01 179.92 29.55 179.92 28.96C179.92 28.76 179.85 28.56 179.74 28.41C179.15 27.55 177.26 27.11 175.87 27.11C173.08 27.11 171.52 28.67 171.52 30.45C171.52 34.63 177.83 33.20 177.83 34.96C177.83 35.62 177.26 36.11 176.05 36.11C175.12 36.11 174.02 35.73 173.19 35.25C173.01 35.14 172.81 35.10 172.62 35.10C172.02 35.10 171.45 35.60 171.45 36.26C171.45 36.48 171.52 36.68 171.65 36.86C172.31 37.80 174.53 38.26 175.92 38.26C178.86 38.26 180.51 36.79 180.51 34.85Z" fill="#e6edf3" /><path d="M20.26 49.88C20.26 49.54 19.98 49.25 19.64 49.25C19.26 49.25 18.98 49.54 18.98 49.88L18.98 57.44C18.98 57.79 19.26 58.08 19.61 58.08C19.98 58.08 20.26 57.79 20.26 57.44ZM27.55 53.97C27.55 52.64 26.59 51.56 25.27 51.56C24.18 51.56 23.62 52.10 23.32 52.60L23.32 52.20C23.32 51.90 23.06 51.64 22.76 51.64C22.42 51.64 22.16 51.90 22.16 52.20L22.16 57.51C22.16 57.82 22.42 58.08 22.73 58.08C23.06 58.08 23.32 57.82 23.32 57.51L23.32 54.49C23.32 53.42 23.89 52.59 24.89 52.59C25.83 52.59 26.40 53.32 26.40 54.36L26.40 57.51C26.40 57.82 26.66 58.08 26.97 58.08C27.30 58.08 27.55 57.82 27.55 57.51ZM38.97 49.91C38.97 49.58 38.72 49.33 38.41 49.33L32.70 49.33C32.39 49.33 32.14 49.58 32.14 49.89C32.14 50.21 32.39 50.47 32.70 50.47L34.91 50.47L34.91 57.44C34.91 57.79 35.20 58.08 35.55 58.08C35.91 58.08 36.20 57.79 36.20 57.44L36.20 50.47L38.41 50.47C38.72 50.47 38.97 50.21 38.97 49.91ZM44.74 54.85C44.74 53.05 43.53 51.56 41.57 51.56C39.62 51.56 38.41 53.05 38.41 54.85C38.41 56.66 39.62 58.16 41.57 58.16C43.53 58.16 44.74 56.66 44.74 54.85ZM43.53 54.85C43.53 56.06 42.83 57.13 41.57 57.13C40.32 57.13 39.61 56.06 39.61 54.85C39.61 53.66 40.32 52.59 41.57 52.59C42.83 52.59 43.53 53.66 43.53 54.85ZM49.16 57.55C49.16 57.27 48.95 57.06 48.67 57.06C48.54 57.06 48.38 57.13 48.24 57.13C47.86 57.13 47.63 56.83 47.63 56.35L47.63 52.73L48.48 52.73C48.76 52.73 48.98 52.51 48.98 52.24C48.98 51.94 48.76 51.72 48.48 51.72L47.63 51.72L47.63 50.49C47.63 50.19 47.37 49.93 47.05 49.93C46.72 49.93 46.46 50.19 46.46 50.49L46.46 51.72L45.85 51.72C45.56 51.72 45.34 51.94 45.34 52.22C45.34 52.51 45.56 52.73 45.85 52.73L46.46 52.73L46.46 56.62C46.46 57.61 46.98 58.16 47.96 58.16C48.65 58.16 49.16 57.96 49.16 57.55ZM55.26 53.75C55.26 52.15 54.09 51.56 52.74 51.56C51.89 51.56 50.94 51.84 50.34 52.44C50.27 52.53 50.23 52.63 50.23 52.73C50.23 53.01 50.47 53.19 50.71 53.19C50.80 53.19 50.90 53.15 50.99 53.09C51.46 52.72 51.98 52.54 52.57 52.54C53.45 52.54 54.10 53.01 54.10 53.80L54.10 54.15L52.29 54.15C50.99 54.15 49.85 54.66 49.85 56.08C49.85 57.45 50.99 58.16 52.03 58.16C53.01 58.16 53.59 57.86 54.10 57.30L54.10 57.51C54.10 57.88 54.40 58.08 54.63 58.08L54.67 58.08C55.00 58.08 55.26 57.82 55.26 57.51ZM54.10 54.96L54.10 55.84C54.10 56.58 53.26 57.34 52.35 57.34C51.50 57.34 51.02 56.83 51.02 56.10C51.02 55.35 51.62 54.96 52.61 54.96ZM58.27 49.81C58.27 49.51 58.01 49.25 57.71 49.25C57.38 49.25 57.12 49.51 57.12 49.81L57.12 57.51C57.12 57.82 57.38 58.08 57.69 58.08C58.01 58.08 58.27 57.82 58.27 57.51Z" fill="#9aa7b4" /><line x1="18" y1="76" x2="48" y2="76" stroke="#9aa7b4" stroke-opacity="0.4" /><g aria-label="Additions: 31,303,501"><circle cx="22" cy="96" r="4" fill="#00d559" /><path d="M42.28 99.39C42.28 99.31 42.27 99.23 42.23 99.14L39.36 91.94C39.19 91.51 38.76 91.24 38.30 91.25C37.85 91.25 37.43 91.52 37.28 91.94L34.40 99.14C34.38 99.23 34.36 99.31 34.36 99.39C34.36 99.74 34.65 100.08 35.05 100.08C35.33 100.08 35.57 99.92 35.68 99.66L36.25 98.19L40.40 98.19L40.97 99.66C41.07 99.92 41.32 100.08 41.59 100.08C42.01 100.08 42.28 99.71 42.28 99.39ZM38.32 92.64L40.03 97.06L36.61 97.06ZM49.22 91.81C49.22 91.51 48.96 91.25 48.66 91.25C48.33 91.25 48.07 91.51 48.07 91.81L48.07 94.63C47.56 93.95 46.95 93.56 46.00 93.56C44.36 93.56 43.20 94.85 43.20 96.87C43.20 98.92 44.37 100.16 46.00 100.16C46.97 100.16 47.59 99.73 48.07 99.10L48.07 99.51C48.07 99.82 48.33 100.08 48.64 100.08C48.96 100.08 49.22 99.82 49.22 99.51ZM48.07 96.91C48.07 98.21 47.42 99.13 46.30 99.13C45.13 99.13 44.40 98.18 44.40 96.87C44.40 95.55 45.13 94.59 46.30 94.59C47.42 94.59 48.07 95.54 48.07 96.83ZM56.74 91.81C56.74 91.51 56.48 91.25 56.18 91.25C55.84 91.25 55.58 91.51 55.58 91.81L55.58 94.63C55.07 93.95 54.46 93.56 53.51 93.56C51.88 93.56 50.72 94.85 50.72 96.87C50.72 98.92 51.89 100.16 53.51 100.16C54.49 100.16 55.10 99.73 55.58 99.10L55.58 99.51C55.58 99.82 55.84 100.08 56.15 100.08C56.48 100.08 56.74 99.82 56.74 99.51ZM55.58 96.91C55.58 98.21 54.93 99.13 53.81 99.13C52.64 99.13 51.91 98.18 51.91 96.87C51.91 95.55 52.64 94.59 53.81 94.59C54.93 94.59 55.58 95.54 55.58 96.83ZM59.18 91.39C58.78 91.39 58.44 91.73 58.44 92.15C58.44 92.55 58.78 92.89 59.18 92.89C59.60 92.89 59.92 92.55 59.92 92.15C59.92 91.73 59.60 91.39 59.18 91.39ZM59.77 94.20C59.77 93.90 59.51 93.64 59.21 93.64C58.87 93.64 58.61 93.90 58.61 94.20L58.61 99.51C58.61 99.82 58.87 100.08 59.18 100.08C59.51 100.08 59.77 99.82 59.77 99.51ZM64.56 99.55C64.56 99.27 64.36 99.06 64.07 99.06C63.94 99.06 63.78 99.13 63.64 99.13C63.26 99.13 63.03 98.83 63.03 98.35L63.03 94.73L63.89 94.73C64.16 94.73 64.38 94.51 64.38 94.24C64.38 93.94 64.16 93.72 63.89 93.72L63.03 93.72L63.03 92.49C63.03 92.19 62.77 91.93 62.46 91.93C62.12 91.93 61.86 92.19 61.86 92.49L61.86 93.72L61.25 93.72C60.96 93.72 60.74 93.94 60.74 94.22C60.74 94.51 60.96 94.73 61.25 94.73L61.86 94.73L61.86 98.62C61.86 99.61 62.38 100.16 63.37 100.16C64.06 100.16 64.56 99.96 64.56 99.55ZM66.19 91.39C65.79 91.39 65.45 91.73 65.45 92.15C65.45 92.55 65.79 92.89 66.19 92.89C66.60 92.89 66.93 92.55 66.93 92.15C66.93 91.73 66.60 91.39 66.19 91.39ZM66.77 94.20C66.77 93.90 66.51 93.64 66.21 93.64C65.88 93.64 65.62 93.90 65.62 94.20L65.62 99.51C65.62 99.82 65.88 100.08 66.19 100.08C66.51 100.08 66.77 99.82 66.77 99.51ZM74.60 96.85C74.60 95.05 73.39 93.56 71.43 93.56C69.48 93.56 68.27 95.05 68.27 96.85C68.27 98.66 69.48 100.16 71.43 100.16C73.39 100.16 74.60 98.66 74.60 96.85ZM73.39 96.85C73.39 98.06 72.69 99.13 71.43 99.13C70.18 99.13 69.46 98.06 69.46 96.85C69.46 95.66 70.18 94.59 71.43 94.59C72.69 94.59 73.39 95.66 73.39 96.85ZM81.49 95.97C81.49 94.64 80.53 93.56 79.20 93.56C78.11 93.56 77.55 94.10 77.25 94.61L77.25 94.20C77.25 93.90 76.99 93.64 76.69 93.64C76.35 93.64 76.09 93.90 76.09 94.20L76.09 99.51C76.09 99.82 76.35 100.08 76.67 100.08C76.99 100.08 77.25 99.82 77.25 99.51L77.25 96.49C77.25 95.42 77.82 94.59 78.82 94.59C79.76 94.59 80.33 95.32 80.33 96.36L80.33 99.51C80.33 99.82 80.59 100.08 80.90 100.08C81.23 100.08 81.49 99.82 81.49 99.51ZM87.96 98.10C87.85 95.89 84.24 96.50 84.11 95.37C84.06 94.86 84.61 94.49 85.40 94.49C86 94.49 86.56 94.68 86.96 94.97C87.04 95.03 87.13 95.06 87.23 95.06C87.47 95.06 87.69 94.86 87.69 94.61C87.69 94.50 87.65 94.40 87.57 94.32C87.08 93.84 86.29 93.56 85.39 93.56C83.86 93.56 82.93 94.29 83.00 95.41C83.11 97.52 86.70 96.87 86.83 98.26C86.88 98.83 86.36 99.23 85.47 99.23C84.82 99.23 84.17 98.97 83.70 98.64C83.61 98.57 83.52 98.54 83.40 98.54C83.13 98.54 82.89 98.75 82.89 99.03C82.89 99.16 82.94 99.26 83.04 99.34C83.61 99.91 84.56 100.16 85.41 100.16C87.08 100.16 88.03 99.30 87.96 98.10Z" fill="#e6edf3" /><path d="M160.80 97.63C160.90 96.07 159.85 95.53 159.85 95.53C159.85 95.53 160.81 95.03 160.71 93.55C160.60 92.11 159.46 91.20 157.43 91.20C156.24 91.20 155.30 91.55 154.59 92.12C154.40 92.27 154.31 92.47 154.31 92.68C154.31 93.14 154.72 93.46 155.12 93.46C155.27 93.46 155.43 93.42 155.56 93.33C156.07 93.01 156.64 92.84 157.24 92.84C158.15 92.84 158.85 93.05 158.85 93.73C158.85 94.45 158.42 94.79 157.55 94.79C156.93 94.79 156.65 95.14 156.65 95.59C156.65 96.05 156.93 96.41 157.60 96.41C158.49 96.41 158.99 96.72 158.99 97.41C158.99 98.06 158.41 98.52 157.35 98.52C156.76 98.52 156.07 98.31 155.50 97.97C155.35 97.88 155.20 97.84 155.04 97.84C154.61 97.84 154.20 98.19 154.20 98.66C154.20 98.79 154.23 98.91 154.30 99.01C154.70 99.69 156.17 100.16 157.42 100.16C159.50 100.16 160.70 99.26 160.80 97.63ZM165.86 92.32C165.86 91.73 165.36 91.26 164.78 91.26C164.48 91.26 164.19 91.38 164.00 91.58L162.00 93.60C161.84 93.76 161.76 93.95 161.76 94.15C161.76 94.58 162.13 94.92 162.53 94.92C162.71 94.92 162.89 94.85 163.04 94.71L164.01 93.71L164.01 99.17C164.01 99.66 164.43 100.08 164.92 100.08C165.44 100.08 165.86 99.66 165.86 99.17ZM169.51 99.36C169.51 98.52 168.95 98.04 168.34 98.04C167.79 98.04 167.33 98.50 167.33 99.08C167.33 99.64 167.72 100.01 168.21 100.01C168.30 100.01 168.42 99.99 168.46 99.97C168.38 100.31 168.09 100.72 167.75 100.99C167.66 101.07 167.62 101.17 167.62 101.27C167.62 101.53 167.90 101.69 168.12 101.69C168.25 101.69 168.37 101.65 168.46 101.56C169.11 100.97 169.51 100.19 169.51 99.36ZM177.10 97.63C177.21 96.07 176.15 95.53 176.15 95.53C176.15 95.53 177.11 95.03 177.01 93.55C176.91 92.11 175.76 91.20 173.73 91.20C172.54 91.20 171.60 91.55 170.89 92.12C170.71 92.27 170.61 92.47 170.61 92.68C170.61 93.14 171.02 93.46 171.42 93.46C171.58 93.46 171.73 93.42 171.86 93.33C172.37 93.01 172.94 92.84 173.54 92.84C174.45 92.84 175.15 93.05 175.15 93.73C175.15 94.45 174.72 94.79 173.85 94.79C173.23 94.79 172.95 95.14 172.95 95.59C172.95 96.05 173.23 96.41 173.90 96.41C174.79 96.41 175.29 96.72 175.29 97.41C175.29 98.06 174.71 98.52 173.66 98.52C173.06 98.52 172.37 98.31 171.80 97.97C171.65 97.88 171.50 97.84 171.34 97.84C170.91 97.84 170.50 98.19 170.50 98.66C170.50 98.79 170.54 98.91 170.60 99.01C171.00 99.69 172.47 100.16 173.72 100.16C175.80 100.16 177.00 99.26 177.10 97.63ZM185.29 95.67C185.29 93.44 184.17 91.20 181.70 91.20C179.22 91.20 178.12 93.44 178.12 95.67C178.12 97.91 179.22 100.16 181.70 100.16C184.17 100.16 185.29 97.91 185.29 95.67ZM183.41 95.67C183.41 97.27 182.94 98.52 181.70 98.52C180.46 98.52 179.99 97.27 179.99 95.67C179.99 94.07 180.46 92.84 181.70 92.84C182.94 92.84 183.41 94.07 183.41 95.67ZM192.79 97.63C192.90 96.07 191.84 95.53 191.84 95.53C191.84 95.53 192.81 95.03 192.70 93.55C192.60 92.11 191.45 91.20 189.43 91.20C188.23 91.20 187.29 91.55 186.58 92.12C186.40 92.27 186.31 92.47 186.31 92.68C186.31 93.14 186.71 93.46 187.11 93.46C187.27 93.46 187.42 93.42 187.55 93.33C188.06 93.01 188.63 92.84 189.23 92.84C190.14 92.84 190.84 93.05 190.84 93.73C190.84 94.45 190.41 94.79 189.54 94.79C188.92 94.79 188.65 95.14 188.65 95.59C188.65 96.05 188.92 96.41 189.59 96.41C190.48 96.41 190.99 96.72 190.99 97.41C190.99 98.06 190.40 98.52 189.35 98.52C188.75 98.52 188.06 98.31 187.49 97.97C187.35 97.88 187.19 97.84 187.03 97.84C186.60 97.84 186.19 98.19 186.19 98.66C186.19 98.79 186.23 98.91 186.29 99.01C186.70 99.69 188.16 100.16 189.41 100.16C191.49 100.16 192.69 99.26 192.79 97.63ZM196.16 99.36C196.16 98.52 195.60 98.04 194.99 98.04C194.44 98.04 193.98 98.50 193.98 99.08C193.98 99.64 194.37 100.01 194.86 100.01C194.95 100.01 195.07 99.99 195.11 99.97C195.03 100.31 194.74 100.72 194.40 100.99C194.31 101.07 194.27 101.17 194.27 101.27C194.27 101.53 194.55 101.69 194.77 101.69C194.90 101.69 195.02 101.65 195.11 101.56C195.76 100.97 196.16 100.19 196.16 99.36ZM204.14 97.15C204.14 95.40 202.83 94.34 201.36 94.34C200.57 94.34 199.86 94.66 199.45 95.07L199.45 92.95L202.84 92.95C203.27 92.95 203.63 92.59 203.63 92.15C203.63 91.69 203.27 91.33 202.84 91.33L198.64 91.33C198.07 91.33 197.60 91.80 197.60 92.37L197.60 95.70C197.60 96.20 197.97 96.58 198.54 96.58C198.80 96.58 199.05 96.50 199.25 96.36C199.72 96.05 200.18 95.94 200.71 95.94C201.70 95.94 202.27 96.46 202.27 97.23C202.27 97.93 201.68 98.52 200.66 98.52C200.03 98.52 199.44 98.35 198.93 98.04C198.77 97.95 198.60 97.89 198.45 97.89C197.99 97.89 197.56 98.25 197.56 98.73C197.56 98.86 197.60 98.99 197.67 99.10C198.07 99.78 199.54 100.16 200.67 100.16C202.76 100.16 204.14 99.00 204.14 97.15ZM212.21 95.67C212.21 93.44 211.10 91.20 208.63 91.20C206.14 91.20 205.04 93.44 205.04 95.67C205.04 97.91 206.14 100.16 208.63 100.16C211.10 100.16 212.21 97.91 212.21 95.67ZM210.33 95.67C210.33 97.27 209.86 98.52 208.63 98.52C207.38 98.52 206.91 97.27 206.91 95.67C206.91 94.07 207.38 92.84 208.63 92.84C209.86 92.84 210.33 94.07 210.33 95.67ZM217.14 92.32C217.14 91.73 216.65 91.26 216.06 91.26C215.76 91.26 215.48 91.38 215.28 91.58L213.28 93.60C213.12 93.76 213.05 93.95 213.05 94.15C213.05 94.58 213.41 94.92 213.81 94.92C214.00 94.92 214.18 94.85 214.32 94.71L215.30 93.71L215.30 99.17C215.30 99.66 215.71 100.08 216.21 100.08C216.73 100.08 217.14 99.66 217.14 99.17Z" fill="#9aa7b4" /></g><g aria-label="Deletions: 13,833,535"><circle cx="22" cy="118" r="4" fill="#00a5fe" /><path d="M42.54 117.67C42.54 115.17 40.76 113.33 38.06 113.33L35.82 113.33C35.35 113.33 34.98 113.71 34.98 114.17L34.98 121.16C34.98 121.62 35.35 122 35.82 122L38.06 122C40.76 122 42.54 120.18 42.54 117.67ZM41.23 117.67C41.23 119.43 40.06 120.86 38.06 120.86L36.26 120.86L36.26 114.47L38.06 114.47C40.11 114.47 41.23 115.89 41.23 117.67ZM49.90 118.65C49.90 118.40 49.83 118.13 49.78 117.92C49.42 116.51 48.38 115.56 46.86 115.56C45.04 115.56 43.72 117.03 43.72 118.85C43.72 120.83 45.09 122.16 46.96 122.16C47.88 122.16 49.50 121.67 49.50 120.97C49.50 120.53 49.05 120.43 48.77 120.57C48.31 120.91 47.61 121.22 47.08 121.22C45.80 121.22 45.02 120.35 44.93 119.27L49.30 119.27C49.63 119.27 49.90 118.96 49.90 118.65ZM44.93 118.41C44.98 117.54 45.60 116.50 46.84 116.50C48.18 116.50 48.76 117.57 48.78 118.41ZM52.54 113.81C52.54 113.51 52.28 113.25 51.98 113.25C51.64 113.25 51.38 113.51 51.38 113.81L51.38 121.51C51.38 121.82 51.64 122.08 51.95 122.08C52.28 122.08 52.54 121.82 52.54 121.51ZM60.21 118.65C60.21 118.40 60.14 118.13 60.09 117.92C59.73 116.51 58.69 115.56 57.17 115.56C55.35 115.56 54.03 117.03 54.03 118.85C54.03 120.83 55.40 122.16 57.27 122.16C58.19 122.16 59.81 121.67 59.81 120.97C59.81 120.53 59.36 120.43 59.08 120.57C58.62 120.91 57.92 121.22 57.39 121.22C56.11 121.22 55.33 120.35 55.24 119.27L59.61 119.27C59.94 119.27 60.21 118.96 60.21 118.65ZM55.24 118.41C55.29 117.54 55.91 116.50 57.15 116.50C58.49 116.50 59.06 117.57 59.09 118.41ZM64.62 121.55C64.62 121.27 64.41 121.06 64.12 121.06C63.99 121.06 63.84 121.13 63.69 121.13C63.32 121.13 63.08 120.83 63.08 120.35L63.08 116.73L63.94 116.73C64.21 116.73 64.43 116.51 64.43 116.24C64.43 115.94 64.21 115.72 63.94 115.72L63.08 115.72L63.08 114.49C63.08 114.19 62.82 113.93 62.51 113.93C62.17 113.93 61.91 114.19 61.91 114.49L61.91 115.72L61.30 115.72C61.01 115.72 60.79 115.94 60.79 116.22C60.79 116.51 61.01 116.73 61.30 116.73L61.91 116.73L61.91 120.62C61.91 121.61 62.43 122.16 63.42 122.16C64.11 122.16 64.62 121.96 64.62 121.55ZM66.24 113.39C65.84 113.39 65.50 113.73 65.50 114.15C65.50 114.55 65.84 114.89 66.24 114.89C66.66 114.89 66.98 114.55 66.98 114.15C66.98 113.73 66.66 113.39 66.24 113.39ZM66.83 116.20C66.83 115.90 66.56 115.64 66.27 115.64C65.93 115.64 65.67 115.90 65.67 116.20L65.67 121.51C65.67 121.82 65.93 122.08 66.24 122.08C66.56 122.08 66.83 121.82 66.83 121.51ZM74.65 118.85C74.65 117.05 73.44 115.56 71.48 115.56C69.53 115.56 68.32 117.05 68.32 118.85C68.32 120.66 69.53 122.16 71.48 122.16C73.44 122.16 74.65 120.66 74.65 118.85ZM73.44 118.85C73.44 120.06 72.74 121.13 71.48 121.13C70.23 121.13 69.52 120.06 69.52 118.85C69.52 117.66 70.23 116.59 71.48 116.59C72.74 116.59 73.44 117.66 73.44 118.85ZM81.54 117.97C81.54 116.64 80.58 115.56 79.25 115.56C78.16 115.56 77.60 116.10 77.30 116.61L77.30 116.20C77.30 115.90 77.04 115.64 76.74 115.64C76.41 115.64 76.15 115.90 76.15 116.20L76.15 121.51C76.15 121.82 76.41 122.08 76.72 122.08C77.04 122.08 77.30 121.82 77.30 121.51L77.30 118.49C77.30 117.42 77.88 116.59 78.88 116.59C79.81 116.59 80.38 117.32 80.38 118.36L80.38 121.51C80.38 121.82 80.64 122.08 80.96 122.08C81.28 122.08 81.54 121.82 81.54 121.51ZM88.01 120.10C87.90 117.89 84.30 118.50 84.17 117.37C84.11 116.86 84.66 116.49 85.45 116.49C86.05 116.49 86.61 116.68 87.01 116.97C87.09 117.03 87.18 117.06 87.29 117.06C87.52 117.06 87.74 116.86 87.74 116.61C87.74 116.50 87.70 116.40 87.62 116.32C87.13 115.84 86.34 115.56 85.44 115.56C83.91 115.56 82.98 116.29 83.05 117.41C83.17 119.52 86.75 118.87 86.88 120.26C86.94 120.83 86.42 121.23 85.52 121.23C84.87 121.23 84.22 120.97 83.75 120.64C83.66 120.57 83.57 120.54 83.45 120.54C83.18 120.54 82.94 120.75 82.94 121.03C82.94 121.16 83.00 121.26 83.09 121.34C83.66 121.91 84.61 122.16 85.47 122.16C87.13 122.16 88.08 121.30 88.01 120.10Z" fill="#e6edf3" /><path d="M156.28 114.32C156.28 113.73 155.78 113.26 155.20 113.26C154.90 113.26 154.61 113.38 154.42 113.58L152.41 115.60C152.26 115.76 152.18 115.95 152.18 116.15C152.18 116.58 152.54 116.92 152.95 116.92C153.13 116.92 153.31 116.85 153.45 116.71L154.43 115.71L154.43 121.17C154.43 121.66 154.85 122.08 155.34 122.08C155.86 122.08 156.28 121.66 156.28 121.17ZM164.19 119.63C164.30 118.07 163.24 117.53 163.24 117.53C163.24 117.53 164.21 117.03 164.10 115.55C164.00 114.11 162.85 113.20 160.83 113.20C159.63 113.20 158.69 113.55 157.98 114.12C157.80 114.27 157.71 114.47 157.71 114.68C157.71 115.14 158.11 115.46 158.51 115.46C158.67 115.46 158.82 115.42 158.95 115.33C159.46 115.01 160.03 114.84 160.63 114.84C161.54 114.84 162.24 115.05 162.24 115.73C162.24 116.45 161.81 116.79 160.94 116.79C160.32 116.79 160.05 117.14 160.05 117.59C160.05 118.05 160.32 118.41 160.99 118.41C161.88 118.41 162.39 118.72 162.39 119.41C162.39 120.06 161.80 120.52 160.75 120.52C160.15 120.52 159.46 120.31 158.89 119.97C158.75 119.88 158.59 119.84 158.43 119.84C158.00 119.84 157.59 120.19 157.59 120.66C157.59 120.79 157.63 120.91 157.69 121.01C158.10 121.69 159.56 122.16 160.81 122.16C162.89 122.16 164.09 121.26 164.19 119.63ZM167.56 121.36C167.56 120.52 167.00 120.04 166.39 120.04C165.84 120.04 165.38 120.50 165.38 121.08C165.38 121.64 165.77 122.01 166.26 122.01C166.35 122.01 166.47 121.99 166.51 121.97C166.43 122.31 166.14 122.72 165.80 122.99C165.71 123.07 165.67 123.17 165.67 123.27C165.67 123.53 165.95 123.69 166.17 123.69C166.30 123.69 166.42 123.65 166.51 123.56C167.16 122.97 167.56 122.19 167.56 121.36ZM175.52 119.62C175.52 118.44 174.81 117.76 174.29 117.53C174.74 117.32 175.37 116.83 175.37 115.49C175.37 113.99 173.76 113.20 172.03 113.20C170.29 113.20 168.69 113.99 168.69 115.49C168.69 116.83 169.31 117.32 169.76 117.53C169.24 117.76 168.55 118.44 168.55 119.62C168.55 121.25 170.21 122.16 172.03 122.16C173.85 122.16 175.52 121.23 175.52 119.62ZM173.49 115.77C173.49 116.42 172.82 116.80 172.03 116.80C171.24 116.80 170.56 116.42 170.56 115.77C170.56 115.15 171.17 114.78 172.03 114.78C172.88 114.78 173.49 115.15 173.49 115.77ZM173.64 119.52C173.64 120.15 172.92 120.57 172.03 120.57C171.12 120.57 170.42 120.15 170.42 119.52C170.42 118.79 171.23 118.36 172.03 118.36C172.82 118.36 173.64 118.79 173.64 119.52ZM183.03 119.63C183.13 118.07 182.08 117.53 182.08 117.53C182.08 117.53 183.04 117.03 182.94 115.55C182.84 114.11 181.69 113.20 179.66 113.20C178.47 113.20 177.53 113.55 176.82 114.12C176.63 114.27 176.54 114.47 176.54 114.68C176.54 115.14 176.95 115.46 177.35 115.46C177.50 115.46 177.66 115.42 177.79 115.33C178.30 115.01 178.87 114.84 179.47 114.84C180.38 114.84 181.08 115.05 181.08 115.73C181.08 116.45 180.65 116.79 179.78 116.79C179.16 116.79 178.88 117.14 178.88 117.59C178.88 118.05 179.16 118.41 179.83 118.41C180.72 118.41 181.22 118.72 181.22 119.41C181.22 120.06 180.64 120.52 179.59 120.52C178.99 120.52 178.30 120.31 177.73 119.97C177.58 119.88 177.43 119.84 177.27 119.84C176.84 119.84 176.43 120.19 176.43 120.66C176.43 120.79 176.47 120.91 176.53 121.01C176.93 121.69 178.40 122.16 179.65 122.16C181.73 122.16 182.93 121.26 183.03 119.63ZM190.66 119.63C190.77 118.07 189.71 117.53 189.71 117.53C189.71 117.53 190.67 117.03 190.57 115.55C190.47 114.11 189.32 113.20 187.29 113.20C186.10 113.20 185.16 113.55 184.45 114.12C184.27 114.27 184.17 114.47 184.17 114.68C184.17 115.14 184.58 115.46 184.98 115.46C185.14 115.46 185.29 115.42 185.42 115.33C185.93 115.01 186.50 114.84 187.10 114.84C188.01 114.84 188.71 115.05 188.71 115.73C188.71 116.45 188.28 116.79 187.41 116.79C186.79 116.79 186.51 117.14 186.51 117.59C186.51 118.05 186.79 118.41 187.46 118.41C188.35 118.41 188.85 118.72 188.85 119.41C188.85 120.06 188.27 120.52 187.22 120.52C186.62 120.52 185.93 120.31 185.36 119.97C185.21 119.88 185.06 119.84 184.90 119.84C184.47 119.84 184.06 120.19 184.06 120.66C184.06 120.79 184.10 120.91 184.16 121.01C184.56 121.69 186.03 122.16 187.28 122.16C189.36 122.16 190.56 121.26 190.66 119.63ZM194.03 121.36C194.03 120.52 193.47 120.04 192.86 120.04C192.31 120.04 191.84 120.50 191.84 121.08C191.84 121.64 192.23 122.01 192.73 122.01C192.82 122.01 192.94 121.99 192.97 121.97C192.90 122.31 192.61 122.72 192.27 122.99C192.18 123.07 192.14 123.17 192.14 123.27C192.14 123.53 192.42 123.69 192.64 123.69C192.77 123.69 192.88 123.65 192.97 123.56C193.63 122.97 194.03 122.19 194.03 121.36ZM202.01 119.15C202.01 117.40 200.70 116.34 199.23 116.34C198.44 116.34 197.73 116.66 197.32 117.07L197.32 114.95L200.71 114.95C201.14 114.95 201.50 114.59 201.50 114.15C201.50 113.69 201.14 113.33 200.71 113.33L196.51 113.33C195.94 113.33 195.47 113.80 195.47 114.37L195.47 117.70C195.47 118.20 195.84 118.58 196.41 118.58C196.67 118.58 196.91 118.50 197.12 118.36C197.59 118.05 198.05 117.94 198.58 117.94C199.57 117.94 200.14 118.46 200.14 119.23C200.14 119.93 199.55 120.52 198.53 120.52C197.90 120.52 197.30 120.35 196.80 120.04C196.64 119.95 196.47 119.89 196.32 119.89C195.86 119.89 195.43 120.25 195.43 120.73C195.43 120.86 195.47 120.99 195.54 121.10C195.94 121.78 197.41 122.16 198.54 122.16C200.63 122.16 202.01 121.00 202.01 119.15ZM209.52 119.63C209.63 118.07 208.58 117.53 208.58 117.53C208.58 117.53 209.54 117.03 209.43 115.55C209.33 114.11 208.19 113.20 206.16 113.20C204.96 113.20 204.03 113.55 203.31 114.12C203.13 114.27 203.04 114.47 203.04 114.68C203.04 115.14 203.44 115.46 203.84 115.46C204.00 115.46 204.16 115.42 204.28 115.33C204.79 115.01 205.36 114.84 205.96 114.84C206.87 114.84 207.57 115.05 207.57 115.73C207.57 116.45 207.15 116.79 206.27 116.79C205.65 116.79 205.38 117.14 205.38 117.59C205.38 118.05 205.65 118.41 206.33 118.41C207.21 118.41 207.72 118.72 207.72 119.41C207.72 120.06 207.13 120.52 206.08 120.52C205.48 120.52 204.79 120.31 204.22 119.97C204.08 119.88 203.92 119.84 203.77 119.84C203.34 119.84 202.92 120.19 202.92 120.66C202.92 120.79 202.96 120.91 203.02 121.01C203.43 121.69 204.90 122.16 206.14 122.16C208.22 122.16 209.42 121.26 209.52 119.63ZM217.55 119.15C217.55 117.40 216.23 116.34 214.76 116.34C213.97 116.34 213.27 116.66 212.85 117.07L212.85 114.95L216.25 114.95C216.67 114.95 217.04 114.59 217.04 114.15C217.04 113.69 216.67 113.33 216.25 113.33L212.05 113.33C211.47 113.33 211.01 113.80 211.01 114.37L211.01 117.70C211.01 118.20 211.37 118.58 211.94 118.58C212.20 118.58 212.45 118.50 212.66 118.36C213.13 118.05 213.58 117.94 214.11 117.94C215.10 117.94 215.67 118.46 215.67 119.23C215.67 119.93 215.09 120.52 214.06 120.52C213.44 120.52 212.84 120.35 212.33 120.04C212.18 119.95 212.01 119.89 211.85 119.89C211.40 119.89 210.97 120.25 210.97 120.73C210.97 120.86 211.01 120.99 211.07 121.10C211.47 121.78 212.94 122.16 214.07 122.16C216.17 122.16 217.55 121.00 217.55 119.15Z" fill="#9aa7b4" /></g><g aria-label="Changed Files: 504,932"><circle cx="22" cy="140" r="4" fill="#673bd6" /><path d="M39.11 135.19C36.59 135.19 34.60 137.01 34.60 139.67C34.60 142.34 36.59 144.16 39.11 144.16C40.46 144.16 41.40 143.60 42.07 142.87C42.18 142.76 42.23 142.62 42.23 142.47C42.23 142.15 41.97 141.87 41.63 141.87C41.46 141.87 41.28 141.95 41.18 142.08C40.64 142.67 39.88 143.01 39.11 143.01C37.29 143.01 35.94 141.61 35.94 139.67C35.94 137.72 37.29 136.33 39.11 136.33C39.86 136.33 40.67 136.69 41.18 137.28C41.28 137.42 41.46 137.49 41.62 137.49C41.96 137.49 42.23 137.21 42.23 136.89C42.23 136.73 42.18 136.59 42.07 136.47C41.41 135.73 40.46 135.19 39.11 135.19ZM49.17 139.94C49.17 138.62 48.22 137.56 46.90 137.56C45.79 137.56 45.22 138.10 44.92 138.60L44.92 135.81C44.92 135.51 44.66 135.25 44.36 135.25C44.02 135.25 43.76 135.51 43.76 135.81L43.76 143.51C43.76 143.82 44.02 144.08 44.34 144.08C44.66 144.08 44.92 143.82 44.92 143.51L44.92 140.56C44.92 139.38 45.54 138.59 46.53 138.59C47.47 138.59 48.01 139.29 48.01 140.33L48.01 143.51C48.01 143.82 48.27 144.08 48.59 144.08C48.91 144.08 49.17 143.82 49.17 143.51ZM56.09 139.75C56.09 138.15 54.92 137.56 53.56 137.56C52.72 137.56 51.77 137.84 51.17 138.44C51.09 138.53 51.06 138.63 51.06 138.74C51.06 139.01 51.30 139.19 51.54 139.19C51.63 139.19 51.73 139.15 51.82 139.09C52.29 138.72 52.81 138.54 53.40 138.54C54.28 138.54 54.93 139.01 54.93 139.80L54.93 140.15L53.12 140.15C51.82 140.15 50.68 140.66 50.68 142.08C50.68 143.45 51.82 144.16 52.86 144.16C53.84 144.16 54.42 143.86 54.93 143.30L54.93 143.51C54.93 143.88 55.23 144.08 55.46 144.08L55.50 144.08C55.83 144.08 56.09 143.82 56.09 143.51ZM54.93 140.96L54.93 141.84C54.93 142.58 54.09 143.34 53.17 143.34C52.33 143.34 51.85 142.83 51.85 142.10C51.85 141.35 52.45 140.96 53.44 140.96ZM63.34 139.97C63.34 138.64 62.38 137.56 61.05 137.56C59.96 137.56 59.40 138.10 59.10 138.60L59.10 138.20C59.10 137.90 58.84 137.64 58.54 137.64C58.21 137.64 57.95 137.90 57.95 138.20L57.95 143.51C57.95 143.82 58.21 144.08 58.52 144.08C58.84 144.08 59.10 143.82 59.10 143.51L59.10 140.49C59.10 139.42 59.67 138.59 60.68 138.59C61.61 138.59 62.18 139.32 62.18 140.36L62.18 143.51C62.18 143.82 62.44 144.08 62.76 144.08C63.08 144.08 63.34 143.82 63.34 143.51ZM70.84 138.20C70.84 137.90 70.58 137.64 70.28 137.64C69.95 137.64 69.69 137.90 69.69 138.20L69.69 138.63C69.18 137.96 68.45 137.56 67.62 137.56C65.99 137.56 64.84 138.79 64.84 140.81C64.84 142.86 66.01 144.05 67.62 144.05C68.48 144.05 69.22 143.60 69.69 142.96L69.69 143.79C69.69 145.13 68.72 145.60 67.75 145.60C67.06 145.60 66.51 145.46 66.03 145.05C65.94 144.99 65.85 144.96 65.73 144.96C65.47 144.96 65.24 145.18 65.24 145.46C65.24 145.59 65.29 145.70 65.37 145.78C65.98 146.37 66.86 146.55 67.75 146.55C69.28 146.55 70.84 145.91 70.84 143.75ZM69.69 140.83C69.69 142.12 68.84 143.03 67.80 143.03C66.63 143.03 66.03 142.10 66.03 140.81C66.03 139.50 66.63 138.59 67.80 138.59C68.84 138.59 69.69 139.49 69.69 140.78ZM78.51 140.65C78.51 140.40 78.45 140.13 78.40 139.92C78.03 138.51 76.99 137.56 75.47 137.56C73.65 137.56 72.34 139.03 72.34 140.85C72.34 142.83 73.70 144.16 75.57 144.16C76.50 144.16 78.11 143.68 78.11 142.97C78.11 142.53 77.67 142.43 77.38 142.57C76.93 142.91 76.22 143.22 75.69 143.22C74.42 143.22 73.64 142.35 73.55 141.27L77.91 141.27C78.24 141.27 78.51 140.96 78.51 140.65ZM73.55 140.41C73.60 139.54 74.21 138.50 75.46 138.50C76.80 138.50 77.37 139.57 77.39 140.41ZM85.64 135.81C85.64 135.51 85.38 135.25 85.08 135.25C84.74 135.25 84.48 135.51 84.48 135.81L84.48 138.63C83.97 137.96 83.36 137.56 82.41 137.56C80.77 137.56 79.62 138.85 79.62 140.87C79.62 142.92 80.79 144.16 82.41 144.16C83.39 144.16 84.00 143.73 84.48 143.10L84.48 143.51C84.48 143.82 84.74 144.08 85.05 144.08C85.38 144.08 85.64 143.82 85.64 143.51ZM84.48 140.91C84.48 142.21 83.83 143.13 82.71 143.13C81.54 143.13 80.81 142.18 80.81 140.87C80.81 139.55 81.54 138.59 82.71 138.59C83.83 138.59 84.48 139.54 84.48 140.83ZM96.76 135.91C96.76 135.58 96.52 135.33 96.20 135.33L91.73 135.33C91.27 135.33 90.89 135.71 90.89 136.17L90.89 143.44C90.89 143.79 91.17 144.08 91.52 144.08C91.89 144.08 92.17 143.79 92.17 143.44L92.17 140.15L96.11 140.15C96.43 140.15 96.67 139.89 96.67 139.59C96.67 139.25 96.43 139.01 96.11 139.01L92.17 139.01L92.17 136.47L96.20 136.47C96.52 136.47 96.76 136.21 96.76 135.91ZM98.65 135.39C98.25 135.39 97.91 135.73 97.91 136.15C97.91 136.55 98.25 136.89 98.65 136.89C99.06 136.89 99.39 136.55 99.39 136.15C99.39 135.73 99.06 135.39 98.65 135.39ZM99.23 138.20C99.23 137.90 98.97 137.64 98.67 137.64C98.34 137.64 98.08 137.90 98.08 138.20L98.08 143.51C98.08 143.82 98.34 144.08 98.65 144.08C98.97 144.08 99.23 143.82 99.23 143.51ZM102.26 135.81C102.26 135.51 102.00 135.25 101.70 135.25C101.37 135.25 101.11 135.51 101.11 135.81L101.11 143.51C101.11 143.82 101.37 144.08 101.68 144.08C102.00 144.08 102.26 143.82 102.26 143.51ZM109.93 140.65C109.93 140.40 109.87 140.13 109.82 139.92C109.45 138.51 108.41 137.56 106.89 137.56C105.07 137.56 103.76 139.03 103.76 140.85C103.76 142.83 105.12 144.16 106.99 144.16C107.92 144.16 109.53 143.68 109.53 142.97C109.53 142.53 109.09 142.43 108.80 142.57C108.35 142.91 107.64 143.22 107.11 143.22C105.84 143.22 105.06 142.35 104.97 141.27L109.33 141.27C109.66 141.27 109.93 140.96 109.93 140.65ZM104.97 140.41C105.02 139.54 105.63 138.50 106.88 138.50C108.22 138.50 108.79 139.57 108.81 140.41ZM116.02 142.10C115.90 139.89 112.30 140.50 112.17 139.37C112.12 138.87 112.66 138.49 113.46 138.49C114.05 138.49 114.61 138.68 115.02 138.97C115.09 139.03 115.18 139.06 115.29 139.06C115.52 139.06 115.74 138.87 115.74 138.60C115.74 138.50 115.70 138.40 115.63 138.32C115.13 137.84 114.34 137.56 113.44 137.56C111.91 137.56 110.99 138.29 111.05 139.41C111.17 141.52 114.76 140.87 114.89 142.26C114.94 142.83 114.42 143.23 113.52 143.23C112.87 143.23 112.22 142.97 111.75 142.63C111.66 142.57 111.57 142.54 111.45 142.54C111.18 142.54 110.95 142.75 110.95 143.03C110.95 143.16 111.00 143.26 111.09 143.34C111.66 143.91 112.61 144.16 113.47 144.16C115.13 144.16 116.08 143.30 116.02 142.10Z" fill="#e6edf3" /><path d="M175.06 141.15C175.06 139.40 173.75 138.34 172.28 138.34C171.49 138.34 170.78 138.66 170.37 139.07L170.37 136.95L173.76 136.95C174.19 136.95 174.55 136.59 174.55 136.15C174.55 135.69 174.19 135.33 173.76 135.33L169.56 135.33C168.99 135.33 168.52 135.80 168.52 136.37L168.52 139.70C168.52 140.20 168.89 140.58 169.46 140.58C169.72 140.58 169.97 140.50 170.17 140.36C170.64 140.05 171.10 139.94 171.63 139.94C172.62 139.94 173.19 140.46 173.19 141.23C173.19 141.93 172.60 142.52 171.58 142.52C170.95 142.52 170.35 142.35 169.85 142.04C169.69 141.95 169.52 141.89 169.37 141.89C168.91 141.89 168.48 142.25 168.48 142.73C168.48 142.86 168.52 142.99 168.59 143.10C168.99 143.78 170.46 144.16 171.59 144.16C173.68 144.16 175.06 143.00 175.06 141.15ZM183.13 139.67C183.13 137.44 182.02 135.20 179.55 135.20C177.06 135.20 175.96 137.44 175.96 139.67C175.96 141.91 177.06 144.16 179.55 144.16C182.02 144.16 183.13 141.91 183.13 139.67ZM181.25 139.67C181.25 141.27 180.78 142.52 179.55 142.52C178.30 142.52 177.83 141.27 177.83 139.67C177.83 138.07 178.30 136.84 179.55 136.84C180.78 136.84 181.25 138.07 181.25 139.67ZM191.09 141.40C191.09 140.94 190.73 140.58 190.30 140.58L189.89 140.58L189.89 136.29C189.89 135.49 189.11 135.12 188.32 135.25C187.76 135.25 187.20 135.55 186.90 136.02L184.00 140.59C183.89 140.78 183.84 140.98 183.84 141.19C183.84 141.78 184.26 142.21 184.78 142.21L188.05 142.21L188.05 143.17C188.05 143.66 188.46 144.08 188.96 144.08C189.48 144.08 189.89 143.66 189.89 143.17L189.89 142.21L190.30 142.21C190.73 142.21 191.09 141.84 191.09 141.40ZM185.71 140.58L188.05 136.97L188.05 140.58ZM194.13 143.36C194.13 142.52 193.57 142.04 192.96 142.04C192.42 142.04 191.95 142.50 191.95 143.08C191.95 143.64 192.34 144.01 192.83 144.01C192.92 144.01 193.04 143.99 193.08 143.97C193.00 144.31 192.71 144.72 192.38 144.99C192.29 145.07 192.25 145.17 192.25 145.27C192.25 145.53 192.52 145.69 192.74 145.69C192.87 145.69 192.99 145.65 193.08 145.56C193.73 144.97 194.13 144.19 194.13 143.36ZM195.05 138.16C195.05 140.01 196.45 140.98 198.01 140.98C199.08 140.98 199.89 140.45 200.23 139.87C200.24 139.93 200.24 139.98 200.24 140.05C200.24 141.43 199.34 142.50 198.07 142.50C197.63 142.50 197.26 142.43 196.94 142.26C196.82 142.19 196.69 142.17 196.56 142.17C196.16 142.17 195.72 142.48 195.72 142.97C195.72 143.10 195.76 143.22 195.81 143.32C196.13 143.90 197.23 144.14 198.07 144.14C200.63 144.14 202.11 142.28 202.11 139.66C202.11 137.21 201.01 135.19 198.37 135.19C196.39 135.19 195.05 136.47 195.05 138.16ZM196.93 138.10C196.93 137.45 197.41 136.82 198.41 136.82C199.23 136.82 199.84 137.38 199.84 138.19C199.84 138.97 199.22 139.53 198.41 139.53C197.58 139.53 196.93 138.97 196.93 138.10ZM209.63 141.63C209.73 140.07 208.68 139.53 208.68 139.53C208.68 139.53 209.64 139.03 209.54 137.55C209.43 136.11 208.29 135.20 206.26 135.20C205.06 135.20 204.13 135.55 203.41 136.12C203.23 136.26 203.14 136.47 203.14 136.68C203.14 137.14 203.54 137.46 203.95 137.46C204.10 137.46 204.26 137.42 204.39 137.33C204.90 137.01 205.47 136.84 206.07 136.84C206.98 136.84 207.68 137.04 207.68 137.73C207.68 138.45 207.25 138.79 206.38 138.79C205.75 138.79 205.48 139.14 205.48 139.59C205.48 140.05 205.75 140.41 206.43 140.41C207.31 140.41 207.82 140.72 207.82 141.41C207.82 142.06 207.24 142.52 206.18 142.52C205.58 142.52 204.90 142.31 204.32 141.97C204.18 141.88 204.02 141.84 203.87 141.84C203.44 141.84 203.02 142.19 203.02 142.66C203.02 142.79 203.06 142.91 203.13 143.01C203.53 143.69 205 144.16 206.25 144.16C208.33 144.16 209.52 143.26 209.63 141.63ZM217.41 143.17C217.41 142.74 217.05 142.38 216.62 142.38L213.80 142.38C216.05 140.74 217.27 139.45 217.27 137.97C217.27 136.24 215.80 135.20 213.96 135.20C212.86 135.20 211.41 135.67 210.99 136.33C210.91 136.45 210.88 136.58 210.88 136.71C210.88 137.18 211.25 137.54 211.68 137.54C211.88 137.54 212.05 137.49 212.21 137.37C212.71 137.03 213.31 136.84 214.00 136.84C214.71 136.84 215.40 137.21 215.40 137.97C215.40 138.98 214.36 139.93 211.12 142.32C210.88 142.50 210.73 142.80 210.73 143.10C210.73 143.62 211.15 144 211.60 144L216.62 144C217.05 144 217.41 143.64 217.41 143.17Z" fill="#9aa7b4" /></g><rect x="18" y="166" width="384" height="8" rx="4" fill="#21262d" /><rect x="18.00" y="166" width="266.31" height="8" rx="4" fill="#00d559" /><rect x="284.31" y="166" width="117.69" height="8" rx="4" fill="#00a5fe" /></svg>