<svg xmlns="http://www.w3.org/2000/svg" width="420" height="184" viewBox="0 0 420 184" role="img"><rect x="0.5" y="0.5" width="419" height="183" rx="10" fill="#161b22" stroke="#30363d" /><path d="M30.72 33.60C30.72 32.83 30.10 32.21 29.37 32.21L28.69 32.21L28.69 24.95C28.69 23.59 27.37 22.97 26.03 23.19C25.08 23.19 24.14 23.70 23.63 24.49L18.73 32.24C18.53 32.54 18.44 32.90 18.44 33.25C18.44 34.24 19.17 34.96 20.05 34.96L25.57 34.96L25.57 36.59C25.57 37.43 26.27 38.13 27.11 38.13C27.99 38.13 28.69 37.43 28.69 36.59L28.69 34.96L29.37 34.96C30.10 34.96 30.72 34.35 30.72 33.60ZM21.61 32.21L25.57 26.10L25.57 32.21ZM42.82 24.91C42.82 23.99 42.07 23.33 41.30 23.33L32.89 23.33C32.15 23.33 31.53 23.94 31.53 24.67C31.53 25.46 32.15 26.08 32.89 26.08L39.05 26.08L34.68 36.00C34.59 36.20 34.54 36.39 34.54 36.59C34.54 37.38 35.18 38.13 36.11 38.13C36.74 38.13 37.34 37.76 37.58 37.19L42.68 25.53C42.77 25.35 42.82 25.13 42.82 24.91ZM45.79 36.92C45.79 35.49 44.84 34.68 43.81 34.68C42.88 34.68 42.09 35.47 42.09 36.44C42.09 37.38 42.75 38.02 43.59 38.02C43.74 38.02 43.94 37.98 44.00 37.96C43.87 38.53 43.39 39.21 42.82 39.67C42.66 39.80 42.60 39.98 42.60 40.16C42.60 40.60 43.06 40.86 43.43 40.86C43.65 40.86 43.85 40.79 44.00 40.64C45.10 39.65 45.79 38.33 45.79 36.92ZM59.25 33.97C59.25 31.97 58.06 30.83 57.18 30.43C57.93 30.08 59.01 29.24 59.01 26.98C59.01 24.45 56.28 23.11 53.35 23.11C50.41 23.11 47.70 24.45 47.70 26.98C47.70 29.24 48.76 30.08 49.50 30.43C48.62 30.83 47.46 31.97 47.46 33.97C47.46 36.72 50.27 38.26 53.35 38.26C56.43 38.26 59.25 36.70 59.25 33.97ZM55.82 27.46C55.82 28.56 54.70 29.20 53.35 29.20C52.01 29.20 50.87 28.56 50.87 27.46C50.87 26.41 51.90 25.79 53.35 25.79C54.78 25.79 55.82 26.41 55.82 27.46ZM56.08 33.80C56.08 34.88 54.85 35.58 53.35 35.58C51.81 35.58 50.63 34.88 50.63 33.80C50.63 32.57 51.99 31.84 53.35 31.84C54.70 31.84 56.08 32.57 56.08 33.80ZM72.23 36.59C72.23 35.87 71.61 35.25 70.89 35.25L66.11 35.25C69.92 32.48 71.99 30.30 71.99 27.79C71.99 24.87 69.50 23.11 66.38 23.11C64.53 23.11 62.07 23.90 61.36 25.02C61.23 25.22 61.16 25.44 61.16 25.66C61.16 26.45 61.80 27.07 62.53 27.07C62.86 27.07 63.14 26.98 63.43 26.78C64.27 26.21 65.28 25.88 66.44 25.88C67.65 25.88 68.82 26.52 68.82 27.79C68.82 29.51 67.06 31.11 61.58 35.16C61.16 35.47 60.92 35.98 60.92 36.48C60.92 37.36 61.63 38 62.40 38L70.89 38C71.61 38 72.23 37.38 72.23 36.59ZM85.83 33.18C85.83 30.21 83.60 28.43 81.12 28.43C79.78 28.43 78.59 28.96 77.88 29.66L77.88 26.08L83.63 26.08C84.35 26.08 84.97 25.46 84.97 24.71C84.97 23.94 84.35 23.33 83.63 23.33L76.52 23.33C75.55 23.33 74.76 24.12 74.76 25.09L74.76 30.72C74.76 31.58 75.38 32.21 76.34 32.21C76.78 32.21 77.20 32.08 77.55 31.84C78.35 31.31 79.12 31.14 80.02 31.14C81.69 31.14 82.66 32.02 82.66 33.31C82.66 34.50 81.67 35.49 79.93 35.49C78.87 35.49 77.86 35.21 77.00 34.68C76.74 34.52 76.45 34.44 76.19 34.44C75.42 34.44 74.69 35.03 74.69 35.84C74.69 36.06 74.76 36.28 74.87 36.48C75.55 37.63 78.04 38.26 79.95 38.26C83.49 38.26 85.83 36.31 85.83 33.18ZM100.79 23.08C96.39 23.08 92.98 26.16 92.98 30.67C92.98 35.18 96.39 38.26 100.79 38.26C103.32 38.26 105.01 37.16 106.11 35.82C106.33 35.58 106.42 35.27 106.42 34.96C106.42 34.22 105.78 33.60 104.99 33.60C104.55 33.60 104.11 33.78 103.80 34.11C102.99 35.01 101.89 35.49 100.79 35.49C98.12 35.49 96.19 33.45 96.19 30.67C96.19 27.90 98.12 25.86 100.79 25.86C101.89 25.86 102.96 26.38 103.80 27.26C104.11 27.59 104.53 27.77 104.94 27.77C105.76 27.77 106.44 27.15 106.44 26.36C106.44 26.08 106.33 25.75 106.13 25.50C105.01 24.16 103.32 23.08 100.79 23.08ZM119.29 32.68C119.29 29.66 117.18 27.11 113.66 27.11C110.16 27.11 108.05 29.66 108.05 32.68C108.05 35.71 110.16 38.26 113.66 38.26C117.18 38.26 119.29 35.71 119.29 32.68ZM116.38 32.68C116.38 34.35 115.39 35.78 113.66 35.78C111.92 35.78 110.95 34.35 110.95 32.68C110.95 31.03 111.92 29.60 113.66 29.60C115.39 29.60 116.38 31.03 116.38 32.68ZM137.35 31.20C137.35 29.02 135.83 27.11 133.43 27.11C131.59 27.11 130.53 28.19 130.13 28.94C129.74 28.17 128.75 27.11 126.97 27.11C125.34 27.11 124.59 27.70 124.15 28.28L124.15 28.25C124.15 27.95 123.75 27.24 122.79 27.24C121.97 27.24 121.36 27.86 121.36 28.61L121.36 36.75C121.36 37.52 121.97 38.13 122.74 38.13C123.53 38.13 124.15 37.52 124.15 36.75L124.15 31.73C124.15 30.70 124.94 29.60 126.13 29.60C127.27 29.60 127.93 30.74 127.93 31.73L127.93 36.75C127.93 37.52 128.55 38.13 129.32 38.13C130.13 38.13 130.75 37.52 130.75 36.75L130.75 31.93C130.75 30.70 131.52 29.60 132.73 29.60C133.87 29.60 134.53 30.74 134.53 31.73L134.53 36.75C134.53 37.52 135.15 38.13 135.92 38.13C136.73 38.13 137.35 37.52 137.35 36.75ZM156.09 31.20C156.09 29.02 154.58 27.11 152.18 27.11C150.33 27.11 149.27 28.19 148.88 28.94C148.48 28.17 147.49 27.11 145.71 27.11C144.08 27.11 143.33 27.70 142.89 28.28L142.89 28.25C142.89 27.95 142.50 27.24 141.53 27.24C140.72 27.24 140.10 27.86 140.10 28.61L140.10 36.75C140.10 37.52 140.72 38.13 141.49 38.13C142.28 38.13 142.89 37.52 142.89 36.75L142.89 31.73C142.89 30.70 143.69 29.60 144.87 29.60C146.02 29.60 146.68 30.74 146.68 31.73L146.68 36.75C146.68 37.52 147.29 38.13 148.06 38.13C148.88 38.13 149.49 37.52 149.49 36.75L149.49 31.93C149.49 30.70 150.26 29.60 151.47 29.60C152.62 29.60 153.28 30.74 153.28 31.73L153.28 36.75C153.28 37.52 153.89 38.13 154.66 38.13C155.48 38.13 156.09 37.52 156.09 36.75ZM160.23 22.91C159.33 22.91 158.56 23.63 158.56 24.56C158.56 25.48 159.33 26.23 160.23 26.23C161.15 26.23 161.90 25.48 161.90 24.56C161.90 23.63 161.15 22.91 160.23 22.91ZM161.64 28.61C161.64 27.86 161.02 27.24 160.27 27.24C159.46 27.24 158.84 27.86 158.84 28.61L158.84 36.75C158.84 37.52 159.46 38.13 160.23 38.13C161.02 38.13 161.64 37.52 161.64 36.75ZM170.22 36.99C170.22 36.31 169.78 35.78 168.99 35.78L168.74 35.78C168.30 35.78 167.78 35.45 167.78 34.61L167.78 29.82L168.88 29.82C169.51 29.82 170.06 29.27 170.06 28.61C170.06 27.92 169.51 27.37 168.88 27.37L167.78 27.37L167.78 25.72C167.78 24.95 167.16 24.34 166.39 24.34C165.58 24.34 164.96 24.95 164.96 25.72L164.96 27.37L164.28 27.37C163.62 27.37 163.07 27.92 163.07 28.56C163.07 29.27 163.62 29.82 164.28 29.82L164.96 29.82L164.96 35.36C164.96 37.25 166.02 38.26 167.97 38.26C169.80 38.26 170.22 37.69 170.22 36.99ZM180.27 34.85C180.27 30.56 173.98 31.88 173.98 30.30C173.98 29.71 174.64 29.24 175.65 29.24C176.51 29.24 177.37 29.49 178.05 29.88C178.20 29.97 178.40 30.01 178.58 30.01C179.15 30.01 179.68 29.55 179.68 28.96C179.68 28.76 179.61 28.56 179.50 28.41C178.91 27.55 177.02 27.11 175.63 27.11C172.84 27.11 171.27 28.67 171.27 30.45C171.27 34.63 177.59 33.20 177.59 34.96C177.59 35.62 177.02 36.11 175.81 36.11C174.88 36.11 173.78 35.73 172.95 35.25C172.77 35.14 172.57 35.10 172.37 35.10C171.78 35.10 171.21 35.60 171.21 36.26C171.21 36.48 171.27 36.68 171.41 36.86C172.07 37.80 174.29 38.26 175.67 38.26C178.62 38.26 180.27 36.79 180.27 34.85Z" fill="#e6edf3" /><path d="M20.26 49.88C20.26 49.54 19.98 49.25 19.64 49.25C19.26 49.25 18.98 49.54 18.98 49.88L18.98 57.44C18.98 57.79 19.26 58.08 19.61 58.08C19.98 58.08 20.26 57.79 20.26 57.44ZM27.55 53.97C27.55 52.64 26.59 51.56 25.27 51.56C24.18 51.56 23.62 52.10 23.32 52.60L23.32 52.20C23.32 51.90 23.06 51.64 22.76 51.64C22.42 51.64 22.16 51.90 22.16 52.20L22.16 57.51C22.16 57.82 22.42 58.08 22.73 58.08C23.06 58.08 23.32 57.82 23.32 57.51L23.32 54.49C23.32 53.42 23.89 52.59 24.89 52.59C25.83 52.59 26.40 53.32 26.40 54.36L26.40 57.51C26.40 57.82 26.66 58.08 26.97 58.08C27.30 58.08 27.55 57.82 27.55 57.51ZM38.97 49.91C38.97 49.58 38.72 49.33 38.41 49.33L32.70 49.33C32.39 49.33 32.14 49.58 32.14 49.89C32.14 50.21 32.39 50.47 32.70 50.47L34.91 50.47L34.91 57.44C34.91 57.79 35.20 58.08 35.55 58.08C35.91 58.08 36.20 57.79 36.20 57.44L36.20 50.47L38.41 50.47C38.72 50.47 38.97 50.21 38.97 49.91ZM44.74 54.85C44.74 53.05 43.53 51.56 41.57 51.56C39.62 51.56 38.41 53.05 38.41 54.85C38.41 56.66 39.62 58.16 41.57 58.16C43.53 58.16 44.74 56.66 44.74 54.85ZM43.53 54.85C43.53 56.06 42.83 57.13 41.57 57.13C40.32 57.13 39.61 56.06 39.61 54.85C39.61 53.66 40.32 52.59 41.57 52.59C42.83 52.59 43.53 53.66 43.53 54.85ZM49.16 57.55C49.16 57.27 48.95 57.06 48.67 57.06C48.54 57.06 48.38 57.13 48.24 57.13C47.86 57.13 47.63 56.83 47.63 56.35L47.63 52.73L48.48 52.73C48.76 52.73 48.98 52.51 48.98 52.24C48.98 51.94 48.76 51.72 48.48 51.72L47.63 51.72L47.63 50.49C47.63 50.19 47.37 49.93 47.05 49.93C46.72 49.93 46.46 50.19 46.46 50.49L46.46 51.72L45.85 51.72C45.56 51.72 45.34 51.94 45.34 52.22C45.34 52.51 45.56 52.73 45.85 52.73L46.46 52.73L46.46 56.62C46.46 57.61 46.98 58.16 47.96 58.16C48.65 58.16 49.16 57.96 49.16 57.55ZM55.26 53.75C55.26 52.15 54.09 51.56 52.74 51.56C51.89 51.56 50.94 51.84 50.34 52.44C50.27 52.53 50.23 52.63 50.23 52.73C50.23 53.01 50.47 53.19 50.71 53.19C50.80 53.19 50.90 53.15 50.99 53.09C51.46 52.72 51.98 52.54 52.57 52.54C53.45 52.54 54.10 53.01 54.10 53.80L54.10 54.15L52.29 54.15C50.99 54.15 49.85 54.66 49.85 56.08C49.85 57.45 50.99 58.16 52.03 58.16C53.01 58.16 53.59 57.86 54.10 57.30L54.10 57.51C54.10 57.88 54.40 58.08 54.63 58.08L54.67 58.08C55.00 58.08 55.26 57.82 55.26 57.51ZM54.10 54.96L54.10 55.84C54.10 56.58 53.26 57.34 52.35 57.34C51.50 57.34 51.02 56.83 51.02 56.10C51.02 55.35 51.62 54.96 52.61 54.96ZM58.27 49.81C58.27 49.51 58.01 49.25 57.71 49.25C57.38 49.25 57.12 49.51 57.12 49.81L57.12 57.51C57.12 57.82 57.38 58.08 57.69 58.08C58.01 58.08 58.27 57.82 58.27 57.51Z" fill="#9aa7b4" /><line x1="18" y1="76" x2="48" y2="76" stroke="#9aa7b4" stroke-opacity="0.4" /><g aria-label="Additions: 32,466,938"><circle cx="22" cy="96" r="4" fill="#00d559" /><path d="M42.28 99.39C42.28 99.31 42.27 99.23 42.23 99.14L39.36 91.94C39.19 91.51 38.76 91.24 38.30 91.25C37.85 91.25 37.43 91.52 37.28 91.94L34.40 99.14C34.38 99.23 34.36 99.31 34.36 99.39C34.36 99.74 34.65 100.08 35.05 100.08C35.33 100.08 35.57 99.92 35.68 99.66L36.25 98.19L40.40 98.19L40.97 99.66C41.07 99.92 41.32 100.08 41.59 100.08C42.01 100.08 42.28 99.71 42.28 99.39ZM38.32 92.64L40.03 97.06L36.61 97.06ZM49.22 91.81C49.22 91.51 48.96 91.25 48.66 91.25C48.33 91.25 48.07 91.51 48.07 91.81L48.07 94.63C47.56 93.95 46.95 93.56 46.00 93.56C44.36 93.56 43.20 94.85 43.20 96.87C43.20 98.92 44.37 100.16 46.00 100.16C46.97 100.16 47.59 99.73 48.07 99.10L48.07 99.51C48.07 99.82 48.33 100.08 48.64 100.08C48.96 100.08 49.22 99.82 49.22 99.51ZM48.07 96.91C48.07 98.21 47.42 99.13 46.30 99.13C45.13 99.13 44.40 98.18 44.40 96.87C44.40 95.55 45.13 94.59 46.30 94.59C47.42 94.59 48.07 95.54 48.07 96.83ZM56.74 91.81C56.74 91.51 56.48 91.25 56.18 91.25C55.84 91.25 55.58 91.51 55.58 91.81L55.58 94.63C55.07 93.95 54.46 93.56 53.51 93.56C51.88 93.56 50.72 94.85 50.72 96.87C50.72 98.92 51.89 100.16 53.51 100.16C54.49 100.16 55.10 99.73 55.58 99.10L55.58 99.51C55.58 99.82 55.84 100.08 56.15 100.08C56.48 100.08 56.74 99.82 56.74 99.51ZM55.58 96.91C55.58 98.21 54.93 99.13 53.81 99.13C52.64 99.13 51.91 98.18 51.91 96.87C51.91 95.55 52.64 94.59 53.81 94.59C54.93 94.59 55.58 95.54 55.58 96.83ZM59.18 91.39C58.78 91.39 58.44 91.73 58.44 92.15C58.44 92.55 58.78 92.89 59.18 92.89C59.60 92.89 59.92 92.55 59.92 92.15C59.92 91.73 59.60 91.39 59.18 91.39ZM59.77 94.20C59.77 93.90 59.51 93.64 59.21 93.64C58.87 93.64 58.61 93.90 58.61 94.20L58.61 99.51C58.61 99.82 58.87 100.08 59.18 100.08C59.51 100.08 59.77 99.82 59.77 99.51ZM64.56 99.55C64.56 99.27 64.36 99.06 64.07 99.06C63.94 99.06 63.78 99.13 63.64 99.13C63.26 99.13 63.03 98.83 63.03 98.35L63.03 94.73L63.89 94.73C64.16 94.73 64.38 94.51 64.38 94.24C64.38 93.94 64.16 93.72 63.89 93.72L63.03 93.72L63.03 92.49C63.03 92.19 62.77 91.93 62.46 91.93C62.12 91.93 61.86 92.19 61.86 92.49L61.86 93.72L61.25 93.72C60.96 93.72 60.74 93.94 60.74 94.22C60.74 94.51 60.96 94.73 61.25 94.73L61.86 94.73L61.86 98.62C61.86 99.61 62.38 100.16 63.37 100.16C64.06 100.16 64.56 99.96 64.56 99.55ZM66.19 91.39C65.79 91.39 65.45 91.73 65.45 92.15C65.45 92.55 65.79 92.89 66.19 92.89C66.60 92.89 66.93 92.55 66.93 92.15C66.93 91.73 66.60 91.39 66.19 91.39ZM66.77 94.20C66.77 93.90 66.51 93.64 66.21 93.64C65.88 93.64 65.62 93.90 65.62 94.20L65.62 99.51C65.62 99.82 65.88 100.08 66.19 100.08C66.51 100.08 66.77 99.82 66.77 99.51ZM74.60 96.85C74.60 95.05 73.39 93.56 71.43 93.56C69.48 93.56 68.27 95.05 68.27 96.85C68.27 98.66 69.48 100.16 71.43 100.16C73.39 100.16 74.60 98.66 74.60 96.85ZM73.39 96.85C73.39 98.06 72.69 99.13 71.43 99.13C70.18 99.13 69.46 98.06 69.46 96.85C69.46 95.66 70.18 94.59 71.43 94.59C72.69 94.59 73.39 95.66 73.39 96.85ZM81.49 95.97C81.49 94.64 80.53 93.56 79.20 93.56C78.11 93.56 77.55 94.10 77.25 94.61L77.25 94.20C77.25 93.90 76.99 93.64 76.69 93.64C76.35 93.64 76.09 93.90 76.09 94.20L76.09 99.51C76.09 99.82 76.35 100.08 76.67 100.08C76.99 100.08 77.25 99.82 77.25 99.51L77.25 96.49C77.25 95.42 77.82 94.59 78.82 94.59C79.76 94.59 80.33 95.32 80.33 96.36L80.33 99.51C80.33 99.82 80.59 100.08 80.90 100.08C81.23 100.08 81.49 99.82 81.49 99.51ZM87.96 98.10C87.85 95.89 84.24 96.50 84.11 95.37C84.06 94.86 84.61 94.49 85.40 94.49C86 94.49 86.56 94.68 86.96 94.97C87.04 95.03 87.13 95.06 87.23 95.06C87.47 95.06 87.69 94.86 87.69 94.61C87.69 94.50 87.65 94.40 87.57 94.32C87.08 93.84 86.29 93.56 85.39 93.56C83.86 93.56 82.93 94.29 83.00 95.41C83.11 97.52 86.70 96.87 86.83 98.26C86.88 98.83 86.36 99.23 85.47 99.23C84.82 99.23 84.17 98.97 83.70 98.64C83.61 98.57 83.52 98.54 83.40 98.54C83.13 98.54 82.89 98.75 82.89 99.03C82.89 99.16 82.94 99.26 83.04 99.34C83.61 99.91 84.56 100.16 85.41 100.16C87.08 100.16 88.03 99.30 87.96 98.10Z" fill="#e6edf3" /><path d="M155.99 97.63C156.09 96.07 155.04 95.53 155.04 95.53C155.04 95.53 156.00 95.03 155.90 93.55C155.79 92.11 154.65 91.20 152.62 91.20C151.43 91.20 150.49 91.55 149.78 92.12C149.59 92.27 149.50 92.47 149.50 92.68C149.50 93.14 149.91 93.46 150.31 93.46C150.46 93.46 150.62 93.42 150.75 93.33C151.26 93.01 151.83 92.84 152.43 92.84C153.34 92.84 154.04 93.05 154.04 93.73C154.04 94.45 153.61 94.79 152.74 94.79C152.12 94.79 151.84 95.14 151.84 95.59C151.84 96.05 152.12 96.41 152.79 96.41C153.68 96.41 154.18 96.72 154.18 97.41C154.18 98.06 153.60 98.52 152.54 98.52C151.95 98.52 151.26 98.31 150.69 97.97C150.54 97.88 150.39 97.84 150.23 97.84C149.80 97.84 149.39 98.19 149.39 98.66C149.39 98.79 149.42 98.91 149.49 99.01C149.89 99.69 151.36 100.16 152.61 100.16C154.69 100.16 155.89 99.26 155.99 97.63ZM163.78 99.17C163.78 98.74 163.41 98.38 162.98 98.38L160.16 98.38C162.41 96.74 163.63 95.45 163.63 93.97C163.63 92.24 162.16 91.20 160.32 91.20C159.23 91.20 157.77 91.67 157.35 92.33C157.28 92.45 157.24 92.58 157.24 92.71C157.24 93.17 157.61 93.54 158.04 93.54C158.24 93.54 158.41 93.49 158.58 93.37C159.07 93.03 159.67 92.84 160.36 92.84C161.07 92.84 161.76 93.21 161.76 93.97C161.76 94.98 160.72 95.93 157.48 98.32C157.24 98.50 157.09 98.80 157.09 99.10C157.09 99.62 157.51 100 157.97 100L162.98 100C163.41 100 163.78 99.64 163.78 99.17ZM167.16 99.36C167.16 98.52 166.60 98.04 165.99 98.04C165.44 98.04 164.97 98.50 164.97 99.08C164.97 99.64 165.36 100.01 165.86 100.01C165.95 100.01 166.06 99.99 166.10 99.97C166.03 100.31 165.74 100.72 165.40 100.99C165.31 101.07 165.27 101.17 165.27 101.27C165.27 101.53 165.54 101.69 165.77 101.69C165.90 101.69 166.01 101.65 166.10 101.56C166.75 100.97 167.16 100.19 167.16 99.36ZM175.20 97.40C175.20 96.94 174.84 96.58 174.41 96.58L174.01 96.58L174.01 92.29C174.01 91.48 173.23 91.12 172.44 91.25C171.88 91.25 171.32 91.55 171.02 92.02L168.12 96.59C168.00 96.78 167.95 96.98 167.95 97.19C167.95 97.78 168.38 98.21 168.90 98.21L172.16 98.21L172.16 99.17C172.16 99.66 172.58 100.08 173.07 100.08C173.59 100.08 174.01 99.66 174.01 99.17L174.01 98.21L174.41 98.21C174.84 98.21 175.20 97.84 175.20 97.40ZM169.82 96.58L172.16 92.97L172.16 96.58ZM182.95 97.18C182.95 95.33 181.56 94.36 180.00 94.36C178.92 94.36 178.12 94.89 177.78 95.48C177.76 95.41 177.76 95.36 177.76 95.29C177.76 93.92 178.66 92.84 179.94 92.84C180.38 92.84 180.74 92.91 181.07 93.08C181.18 93.15 181.31 93.17 181.44 93.17C181.85 93.17 182.29 92.86 182.29 92.37C182.29 92.24 182.25 92.12 182.20 92.02C181.87 91.45 180.78 91.20 179.94 91.20C177.38 91.20 175.89 93.06 175.89 95.68C175.89 98.13 177.00 100.16 179.64 100.16C181.61 100.16 182.95 98.87 182.95 97.18ZM181.08 97.24C181.08 97.89 180.60 98.52 179.60 98.52C178.78 98.52 178.17 97.96 178.17 97.15C178.17 96.37 178.79 95.81 179.60 95.81C180.43 95.81 181.08 96.37 181.08 97.24ZM190.86 97.18C190.86 95.33 189.47 94.36 187.91 94.36C186.83 94.36 186.02 94.89 185.68 95.48C185.67 95.41 185.67 95.36 185.67 95.29C185.67 93.92 186.57 92.84 187.84 92.84C188.28 92.84 188.65 92.91 188.97 93.08C189.09 93.15 189.22 93.17 189.35 93.17C189.75 93.17 190.19 92.86 190.19 92.37C190.19 92.24 190.15 92.12 190.10 92.02C189.78 91.45 188.69 91.20 187.84 91.20C185.28 91.20 183.80 93.06 183.80 95.68C183.80 98.13 184.90 100.16 187.54 100.16C189.52 100.16 190.86 98.87 190.86 97.18ZM188.98 97.24C188.98 97.89 188.50 98.52 187.50 98.52C186.68 98.52 186.07 97.96 186.07 97.15C186.07 96.37 186.70 95.81 187.50 95.81C188.33 95.81 188.98 96.37 188.98 97.24ZM194.05 99.36C194.05 98.52 193.49 98.04 192.88 98.04C192.34 98.04 191.87 98.50 191.87 99.08C191.87 99.64 192.26 100.01 192.75 100.01C192.84 100.01 192.96 99.99 193.00 99.97C192.92 100.31 192.64 100.72 192.30 100.99C192.21 101.07 192.17 101.17 192.17 101.27C192.17 101.53 192.44 101.69 192.66 101.69C192.79 101.69 192.91 101.65 193.00 101.56C193.65 100.97 194.05 100.19 194.05 99.36ZM194.98 94.16C194.98 96.01 196.37 96.98 197.93 96.98C199.01 96.98 199.81 96.45 200.15 95.87C200.16 95.93 200.16 95.98 200.16 96.05C200.16 97.43 199.27 98.50 197.99 98.50C197.55 98.50 197.19 98.43 196.86 98.26C196.74 98.19 196.61 98.17 196.48 98.17C196.08 98.17 195.64 98.48 195.64 98.97C195.64 99.10 195.68 99.22 195.73 99.32C196.06 99.90 197.15 100.14 197.99 100.14C200.55 100.14 202.04 98.28 202.04 95.66C202.04 93.21 200.93 91.19 198.29 91.19C196.32 91.19 194.98 92.47 194.98 94.16ZM196.85 94.10C196.85 93.45 197.33 92.82 198.33 92.82C199.15 92.82 199.76 93.38 199.76 94.19C199.76 94.97 199.14 95.53 198.33 95.53C197.50 95.53 196.85 94.97 196.85 94.10ZM209.55 97.63C209.65 96.07 208.60 95.53 208.60 95.53C208.60 95.53 209.56 95.03 209.46 93.55C209.35 92.11 208.21 91.20 206.18 91.20C204.99 91.20 204.05 91.55 203.34 92.12C203.15 92.27 203.06 92.47 203.06 92.68C203.06 93.14 203.47 93.46 203.87 93.46C204.02 93.46 204.18 93.42 204.31 93.33C204.82 93.01 205.39 92.84 205.99 92.84C206.90 92.84 207.60 93.05 207.60 93.73C207.60 94.45 207.17 94.79 206.30 94.79C205.68 94.79 205.40 95.14 205.40 95.59C205.40 96.05 205.68 96.41 206.35 96.41C207.24 96.41 207.74 96.72 207.74 97.41C207.74 98.06 207.16 98.52 206.10 98.52C205.51 98.52 204.82 98.31 204.25 97.97C204.10 97.88 203.95 97.84 203.79 97.84C203.36 97.84 202.95 98.19 202.95 98.66C202.95 98.79 202.98 98.91 203.05 99.01C203.45 99.69 204.92 100.16 206.17 100.16C208.25 100.16 209.45 99.26 209.55 97.63ZM217.54 97.62C217.54 96.44 216.84 95.76 216.32 95.53C216.76 95.32 217.40 94.83 217.40 93.49C217.40 91.99 215.79 91.20 214.06 91.20C212.32 91.20 210.72 91.99 210.72 93.49C210.72 94.83 211.34 95.32 211.79 95.53C211.27 95.76 210.58 96.44 210.58 97.62C210.58 99.25 212.24 100.16 214.06 100.16C215.88 100.16 217.54 99.23 217.54 97.62ZM215.52 93.77C215.52 94.42 214.85 94.80 214.06 94.80C213.27 94.80 212.59 94.42 212.59 93.77C212.59 93.15 213.20 92.78 214.06 92.78C214.91 92.78 215.52 93.15 215.52 93.77ZM215.67 97.52C215.67 98.15 214.94 98.57 214.06 98.57C213.15 98.57 212.45 98.15 212.45 97.52C212.45 96.79 213.25 96.36 214.06 96.36C214.85 96.36 215.67 96.79 215.67 97.52Z" fill="#9aa7b4" /></g><g aria-label="Deletions: 14,680,312"><circle cx="22" cy="118" r="4" fill="#00a5fe" /><path d="M42.54 117.67C42.54 115.17 40.76 113.33 38.06 113.33L35.82 113.33C35.35 113.33 34.98 113.71 34.98 114.17L34.98 121.16C34.98 121.62 35.35 122 35.82 122L38.06 122C40.76 122 42.54 120.18 42.54 117.67ZM41.23 117.67C41.23 119.43 40.06 120.86 38.06 120.86L36.26 120.86L36.26 114.47L38.06 114.47C40.11 114.47 41.23 115.89 41.23 117.67ZM49.90 118.65C49.90 118.40 49.83 118.13 49.78 117.92C49.42 116.51 48.38 115.56 46.86 115.56C45.04 115.56 43.72 117.03 43.72 118.85C43.72 120.83 45.09 122.16 46.96 122.16C47.88 122.16 49.50 121.67 49.50 120.97C49.50 120.53 49.05 120.43 48.77 120.57C48.31 120.91 47.61 121.22 47.08 121.22C45.80 121.22 45.02 120.35 44.93 119.27L49.30 119.27C49.63 119.27 49.90 118.96 49.90 118.65ZM44.93 118.41C44.98 117.54 45.60 116.50 46.84 116.50C48.18 116.50 48.76 117.57 48.78 118.41ZM52.54 113.81C52.54 113.51 52.28 113.25 51.98 113.25C51.64 113.25 51.38 113.51 51.38 113.81L51.38 121.51C51.38 121.82 51.64 122.08 51.95 122.08C52.28 122.08 52.54 121.82 52.54 121.51ZM60.21 118.65C60.21 118.40 60.14 118.13 60.09 117.92C59.73 116.51 58.69 115.56 57.17 115.56C55.35 115.56 54.03 117.03 54.03 118.85C54.03 120.83 55.40 122.16 57.27 122.16C58.19 122.16 59.81 121.67 59.81 120.97C59.81 120.53 59.36 120.43 59.08 120.57C58.62 120.91 57.92 121.22 57.39 121.22C56.11 121.22 55.33 120.35 55.24 119.27L59.61 119.27C59.94 119.27 60.21 118.96 60.21 118.65ZM55.24 118.41C55.29 117.54 55.91 116.50 57.15 116.50C58.49 116.50 59.06 117.57 59.09 118.41ZM64.62 121.55C64.62 121.27 64.41 121.06 64.12 121.06C63.99 121.06 63.84 121.13 63.69 121.13C63.32 121.13 63.08 120.83 63.08 120.35L63.08 116.73L63.94 116.73C64.21 116.73 64.43 116.51 64.43 116.24C64.43 115.94 64.21 115.72 63.94 115.72L63.08 115.72L63.08 114.49C63.08 114.19 62.82 113.93 62.51 113.93C62.17 113.93 61.91 114.19 61.91 114.49L61.91 115.72L61.30 115.72C61.01 115.72 60.79 115.94 60.79 116.22C60.79 116.51 61.01 116.73 61.30 116.73L61.91 116.73L61.91 120.62C61.91 121.61 62.43 122.16 63.42 122.16C64.11 122.16 64.62 121.96 64.62 121.55ZM66.24 113.39C65.84 113.39 65.50 113.73 65.50 114.15C65.50 114.55 65.84 114.89 66.24 114.89C66.66 114.89 66.98 114.55 66.98 114.15C66.98 113.73 66.66 113.39 66.24 113.39ZM66.83 116.20C66.83 115.90 66.56 115.64 66.27 115.64C65.93 115.64 65.67 115.90 65.67 116.20L65.67 121.51C65.67 121.82 65.93 122.08 66.24 122.08C66.56 122.08 66.83 121.82 66.83 121.51ZM74.65 118.85C74.65 117.05 73.44 115.56 71.48 115.56C69.53 115.56 68.32 117.05 68.32 118.85C68.32 120.66 69.53 122.16 71.48 122.16C73.44 122.16 74.65 120.66 74.65 118.85ZM73.44 118.85C73.44 120.06 72.74 121.13 71.48 121.13C70.23 121.13 69.52 120.06 69.52 118.85C69.52 117.66 70.23 116.59 71.48 116.59C72.74 116.59 73.44 117.66 73.44 118.85ZM81.54 117.97C81.54 116.64 80.58 115.56 79.25 115.56C78.16 115.56 77.60 116.10 77.30 116.61L77.30 116.20C77.30 115.90 77.04 115.64 76.74 115.64C76.41 115.64 76.15 115.90 76.15 116.20L76.15 121.51C76.15 121.82 76.41 122.08 76.72 122.08C77.04 122.08 77.30 121.82 77.30 121.51L77.30 118.49C77.30 117.42 77.88 116.59 78.88 116.59C79.81 116.59 80.38 117.32 80.38 118.36L80.38 121.51C80.38 121.82 80.64 122.08 80.96 122.08C81.28 122.08 81.54 121.82 81.54 121.51ZM88.01 120.10C87.90 117.89 84.30 118.50 84.17 117.37C84.11 116.86 84.66 116.49 85.45 116.49C86.05 116.49 86.61 116.68 87.01 116.97C87.09 117.03 87.18 117.06 87.29 117.06C87.52 117.06 87.74 116.86 87.74 116.61C87.74 116.50 87.70 116.40 87.62 116.32C87.13 115.84 86.34 115.56 85.44 115.56C83.91 115.56 82.98 116.29 83.05 117.41C83.17 119.52 86.75 118.87 86.88 120.26C86.94 120.83 86.42 121.23 85.52 121.23C84.87 121.23 84.22 120.97 83.75 120.64C83.66 120.57 83.57 120.54 83.45 120.54C83.18 120.54 82.94 120.75 82.94 121.03C82.94 121.16 83.00 121.26 83.09 121.34C83.66 121.91 84.61 122.16 85.47 122.16C87.13 122.16 88.08 121.30 88.01 120.10Z" fill="#e6edf3" /><path d="M158.66 114.32C158.66 113.73 158.16 113.26 157.58 113.26C157.28 113.26 156.99 113.38 156.80 113.58L154.79 115.60C154.64 115.76 154.56 115.95 154.56 116.15C154.56 116.58 154.92 116.92 155.33 116.92C155.51 116.92 155.69 116.85 155.83 116.71L156.81 115.71L156.81 121.17C156.81 121.66 157.22 122.08 157.72 122.08C158.24 122.08 158.66 121.66 158.66 121.17ZM167.03 119.40C167.03 118.94 166.66 118.58 166.23 118.58L165.83 118.58L165.83 114.29C165.83 113.48 165.05 113.12 164.26 113.25C163.70 113.25 163.14 113.55 162.84 114.02L159.94 118.59C159.82 118.78 159.77 118.98 159.77 119.19C159.77 119.78 160.20 120.21 160.72 120.21L163.98 120.21L163.98 121.17C163.98 121.66 164.40 122.08 164.89 122.08C165.41 122.08 165.83 121.66 165.83 121.17L165.83 120.21L166.23 120.21C166.66 120.21 167.03 119.84 167.03 119.40ZM161.64 118.58L163.98 114.97L163.98 118.58ZM170.07 121.36C170.07 120.52 169.51 120.04 168.90 120.04C168.35 120.04 167.88 120.50 167.88 121.08C167.88 121.64 168.27 122.01 168.77 122.01C168.86 122.01 168.98 121.99 169.02 121.97C168.94 122.31 168.65 122.72 168.31 122.99C168.22 123.07 168.18 123.17 168.18 123.27C168.18 123.53 168.46 123.69 168.68 123.69C168.81 123.69 168.92 123.65 169.02 123.56C169.67 122.97 170.07 122.19 170.07 121.36ZM177.83 119.18C177.83 117.33 176.44 116.36 174.88 116.36C173.80 116.36 172.99 116.89 172.66 117.48C172.64 117.41 172.64 117.36 172.64 117.29C172.64 115.92 173.54 114.84 174.81 114.84C175.26 114.84 175.62 114.91 175.94 115.08C176.06 115.15 176.19 115.17 176.32 115.17C176.72 115.17 177.17 114.86 177.17 114.37C177.17 114.24 177.13 114.12 177.08 114.02C176.75 113.45 175.66 113.20 174.81 113.20C172.25 113.20 170.77 115.06 170.77 117.68C170.77 120.13 171.88 122.16 174.51 122.16C176.49 122.16 177.83 120.87 177.83 119.18ZM175.96 119.24C175.96 119.89 175.48 120.52 174.48 120.52C173.66 120.52 173.05 119.96 173.05 119.15C173.05 118.37 173.67 117.81 174.48 117.81C175.31 117.81 175.96 118.37 175.96 119.24ZM185.66 119.62C185.66 118.44 184.95 117.76 184.43 117.53C184.88 117.32 185.51 116.83 185.51 115.49C185.51 113.99 183.90 113.20 182.17 113.20C180.43 113.20 178.83 113.99 178.83 115.49C178.83 116.83 179.45 117.32 179.90 117.53C179.38 117.76 178.69 118.44 178.69 119.62C178.69 121.25 180.35 122.16 182.17 122.16C183.99 122.16 185.66 121.23 185.66 119.62ZM183.63 115.77C183.63 116.42 182.96 116.80 182.17 116.80C181.38 116.80 180.70 116.42 180.70 115.77C180.70 115.15 181.31 114.78 182.17 114.78C183.02 114.78 183.63 115.15 183.63 115.77ZM183.78 119.52C183.78 120.15 183.06 120.57 182.17 120.57C181.26 120.57 180.56 120.15 180.56 119.52C180.56 118.79 181.37 118.36 182.17 118.36C182.96 118.36 183.78 118.79 183.78 119.52ZM193.73 117.67C193.73 115.44 192.61 113.20 190.14 113.20C187.66 113.20 186.55 115.44 186.55 117.67C186.55 119.91 187.66 122.16 190.14 122.16C192.61 122.16 193.73 119.91 193.73 117.67ZM191.84 117.67C191.84 119.27 191.38 120.52 190.14 120.52C188.89 120.52 188.42 119.27 188.42 117.67C188.42 116.07 188.89 114.84 190.14 114.84C191.38 114.84 191.84 116.07 191.84 117.67ZM196.69 121.36C196.69 120.52 196.13 120.04 195.52 120.04C194.98 120.04 194.51 120.50 194.51 121.08C194.51 121.64 194.90 122.01 195.39 122.01C195.48 122.01 195.60 121.99 195.64 121.97C195.56 122.31 195.28 122.72 194.94 122.99C194.85 123.07 194.81 123.17 194.81 123.27C194.81 123.53 195.08 123.69 195.30 123.69C195.43 123.69 195.55 123.65 195.64 123.56C196.29 122.97 196.69 122.19 196.69 121.36ZM204.28 119.63C204.39 118.07 203.34 117.53 203.34 117.53C203.34 117.53 204.30 117.03 204.19 115.55C204.09 114.11 202.95 113.20 200.92 113.20C199.72 113.20 198.79 113.55 198.07 114.12C197.89 114.27 197.80 114.47 197.80 114.68C197.80 115.14 198.20 115.46 198.60 115.46C198.76 115.46 198.92 115.42 199.05 115.33C199.55 115.01 200.13 114.84 200.72 114.84C201.63 114.84 202.34 115.05 202.34 115.73C202.34 116.45 201.91 116.79 201.03 116.79C200.41 116.79 200.14 117.14 200.14 117.59C200.14 118.05 200.41 118.41 201.09 118.41C201.97 118.41 202.48 118.72 202.48 119.41C202.48 120.06 201.89 120.52 200.84 120.52C200.24 120.52 199.55 120.31 198.98 119.97C198.84 119.88 198.68 119.84 198.53 119.84C198.10 119.84 197.68 120.19 197.68 120.66C197.68 120.79 197.72 120.91 197.78 121.01C198.19 121.69 199.66 122.16 200.91 122.16C202.99 122.16 204.18 121.26 204.28 119.63ZM209.34 114.32C209.34 113.73 208.85 113.26 208.26 113.26C207.96 113.26 207.68 113.38 207.48 113.58L205.48 115.60C205.32 115.76 205.25 115.95 205.25 116.15C205.25 116.58 205.61 116.92 206.01 116.92C206.20 116.92 206.38 116.85 206.52 116.71L207.50 115.71L207.50 121.17C207.50 121.66 207.91 122.08 208.41 122.08C208.93 122.08 209.34 121.66 209.34 121.17ZM217.41 121.17C217.41 120.74 217.05 120.38 216.62 120.38L213.80 120.38C216.05 118.74 217.27 117.45 217.27 115.97C217.27 114.24 215.80 113.20 213.96 113.20C212.86 113.20 211.41 113.67 210.99 114.33C210.91 114.45 210.88 114.58 210.88 114.71C210.88 115.17 211.25 115.54 211.68 115.54C211.88 115.54 212.05 115.49 212.21 115.37C212.71 115.03 213.31 114.84 214.00 114.84C214.71 114.84 215.40 115.21 215.40 115.97C215.40 116.98 214.36 117.93 211.12 120.32C210.88 120.50 210.73 120.80 210.73 121.10C210.73 121.62 211.15 122 211.60 122L216.62 122C217.05 122 217.41 121.64 217.41 121.17Z" fill="#9aa7b4" /></g><g aria-label="Changed Files: 510,608"><circle cx="22" cy="140" r="4" fill="#673bd6" /><path d="M39.11 135.19C36.59 135.19 34.60 137.01 34.60 139.67C34.60 142.34 36.59 144.16 39.11 144.16C40.46 144.16 41.40 143.60 42.07 142.87C42.18 142.76 42.23 142.62 42.23 142.47C42.23 142.15 41.97 141.87 41.63 141.87C41.46 141.87 41.28 141.95 41.18 142.08C40.64 142.67 39.88 143.01 39.11 143.01C37.29 143.01 35.94 141.61 35.94 139.67C35.94 137.72 37.29 136.33 39.11 136.33C39.86 136.33 40.67 136.69 41.18 137.28C41.28 137.42 41.46 137.49 41.62 137.49C41.96 137.49 42.23 137.21 42.23 136.89C42.23 136.73 42.18 136.59 42.07 136.47C41.41 135.73 40.46 135.19 39.11 135.19ZM49.17 139.94C49.17 138.62 48.22 137.56 46.90 137.56C45.79 137.56 45.22 138.10 44.92 138.60L44.92 135.81C44.92 135.51 44.66 135.25 44.36 135.25C44.02 135.25 43.76 135.51 43.76 135.81L43.76 143.51C43.76 143.82 44.02 144.08 44.34 144.08C44.66 144.08 44.92 143.82 44.92 143.51L44.92 140.56C44.92 139.38 45.54 138.59 46.53 138.59C47.47 138.59 48.01 139.29 48.01 140.33L48.01 143.51C48.01 143.82 48.27 144.08 48.59 144.08C48.91 144.08 49.17 143.82 49.17 143.51ZM56.09 139.75C56.09 138.15 54.92 137.56 53.56 137.56C52.72 137.56 51.77 137.84 51.17 138.44C51.09 138.53 51.06 138.63 51.06 138.74C51.06 139.01 51.30 139.19 51.54 139.19C51.63 139.19 51.73 139.15 51.82 139.09C52.29 138.72 52.81 138.54 53.40 138.54C54.28 138.54 54.93 139.01 54.93 139.80L54.93 140.15L53.12 140.15C51.82 140.15 50.68 140.66 50.68 142.08C50.68 143.45 51.82 144.16 52.86 144.16C53.84 144.16 54.42 143.86 54.93 143.30L54.93 143.51C54.93 143.88 55.23 144.08 55.46 144.08L55.50 144.08C55.83 144.08 56.09 143.82 56.09 143.51ZM54.93 140.96L54.93 141.84C54.93 142.58 54.09 143.34 53.17 143.34C52.33 143.34 51.85 142.83 51.85 142.10C51.85 141.35 52.45 140.96 53.44 140.96ZM63.34 139.97C63.34 138.64 62.38 137.56 61.05 137.56C59.96 137.56 59.40 138.10 59.10 138.60L59.10 138.20C59.10 137.90 58.84 137.64 58.54 137.64C58.21 137.64 57.95 137.90 57.95 138.20L57.95 143.51C57.95 143.82 58.21 144.08 58.52 144.08C58.84 144.08 59.10 143.82 59.10 143.51L59.10 140.49C59.10 139.42 59.67 138.59 60.68 138.59C61.61 138.59 62.18 139.32 62.18 140.36L62.18 143.51C62.18 143.82 62.44 144.08 62.76 144.08C63.08 144.08 63.34 143.82 63.34 143.51ZM70.84 138.20C70.84 137.90 70.58 137.64 70.28 137.64C69.95 137.64 69.69 137.90 69.69 138.20L69.69 138.63C69.18 137.96 68.45 137.56 67.62 137.56C65.99 137.56 64.84 138.79 64.84 140.81C64.84 142.86 66.01 144.05 67.62 144.05C68.48 144.05 69.22 143.60 69.69 142.96L69.69 143.79C69.69 145.13 68.72 145.60 67.75 145.60C67.06 145.60 66.51 145.46 66.03 145.05C65.94 144.99 65.85 144.96 65.73 144.96C65.47 144.96 65.24 145.18 65.24 145.46C65.24 145.59 65.29 145.70 65.37 145.78C65.98 146.37 66.86 146.55 67.75 146.55C69.28 146.55 70.84 145.91 70.84 143.75ZM69.69 140.83C69.69 142.12 68.84 143.03 67.80 143.03C66.63 143.03 66.03 142.10 66.03 140.81C66.03 139.50 66.63 138.59 67.80 138.59C68.84 138.59 69.69 139.49 69.69 140.78ZM78.51 140.65C78.51 140.40 78.45 140.13 78.40 139.92C78.03 138.51 76.99 137.56 75.47 137.56C73.65 137.56 72.34 139.03 72.34 140.85C72.34 142.83 73.70 144.16 75.57 144.16C76.50 144.16 78.11 143.68 78.11 142.97C78.11 142.53 77.67 142.43 77.38 142.57C76.93 142.91 76.22 143.22 75.69 143.22C74.42 143.22 73.64 142.35 73.55 141.27L77.91 141.27C78.24 141.27 78.51 140.96 78.51 140.65ZM73.55 140.41C73.60 139.54 74.21 138.50 75.46 138.50C76.80 138.50 77.37 139.57 77.39 140.41ZM85.64 135.81C85.64 135.51 85.38 135.25 85.08 135.25C84.74 135.25 84.48 135.51 84.48 135.81L84.48 138.63C83.97 137.96 83.36 137.56 82.41 137.56C80.77 137.56 79.62 138.85 79.62 140.87C79.62 142.92 80.79 144.16 82.41 144.16C83.39 144.16 84.00 143.73 84.48 143.10L84.48 143.51C84.48 143.82 84.74 144.08 85.05 144.08C85.38 144.08 85.64 143.82 85.64 143.51ZM84.48 140.91C84.48 142.21 83.83 143.13 82.71 143.13C81.54 143.13 80.81 142.18 80.81 140.87C80.81 139.55 81.54 138.59 82.71 138.59C83.83 138.59 84.48 139.54 84.48 140.83ZM96.76 135.91C96.76 135.58 96.52 135.33 96.20 135.33L91.73 135.33C91.27 135.33 90.89 135.71 90.89 136.17L90.89 143.44C90.89 143.79 91.17 144.08 91.52 144.08C91.89 144.08 92.17 143.79 92.17 143.44L92.17 140.15L96.11 140.15C96.43 140.15 96.67 139.89 96.67 139.59C96.67 139.25 96.43 139.01 96.11 139.01L92.17 139.01L92.17 136.47L96.20 136.47C96.52 136.47 96.76 136.21 96.76 135.91ZM98.65 135.39C98.25 135.39 97.91 135.73 97.91 136.15C97.91 136.55 98.25 136.89 98.65 136.89C99.06 136.89 99.39 136.55 99.39 136.15C99.39 135.73 99.06 135.39 98.65 135.39ZM99.23 138.20C99.23 137.90 98.97 137.64 98.67 137.64C98.34 137.64 98.08 137.90 98.08 138.20L98.08 143.51C98.08 143.82 98.34 144.08 98.65 144.08C98.97 144.08 99.23 143.82 99.23 143.51ZM102.26 135.81C102.26 135.51 102.00 135.25 101.70 135.25C101.37 135.25 101.11 135.51 101.11 135.81L101.11 143.51C101.11 143.82 101.37 144.08 101.68 144.08C102.00 144.08 102.26 143.82 102.26 143.51ZM109.93 140.65C109.93 140.40 109.87 140.13 109.82 139.92C109.45 138.51 108.41 137.56 106.89 137.56C105.07 137.56 103.76 139.03 103.76 140.85C103.76 142.83 105.12 144.16 106.99 144.16C107.92 144.16 109.53 143.68 109.53 142.97C109.53 142.53 109.09 142.43 108.80 142.57C108.35 142.91 107.64 143.22 107.11 143.22C105.84 143.22 105.06 142.35 104.97 141.27L109.33 141.27C109.66 141.27 109.93 140.96 109.93 140.65ZM104.97 140.41C105.02 139.54 105.63 138.50 106.88 138.50C108.22 138.50 108.79 139.57 108.81 140.41ZM116.02 142.10C115.90 139.89 112.30 140.50 112.17 139.37C112.12 138.87 112.66 138.49 113.46 138.49C114.05 138.49 114.61 138.68 115.02 138.97C115.09 139.03 115.18 139.06 115.29 139.06C115.52 139.06 115.74 138.87 115.74 138.60C115.74 138.50 115.70 138.40 115.63 138.32C115.13 137.84 114.34 137.56 113.44 137.56C111.91 137.56 110.99 138.29 111.05 139.41C111.17 141.52 114.76 140.87 114.89 142.26C114.94 142.83 114.42 143.23 113.52 143.23C112.87 143.23 112.22 142.97 111.75 142.63C111.66 142.57 111.57 142.54 111.45 142.54C111.18 142.54 110.95 142.75 110.95 143.03C110.95 143.16 111.00 143.26 111.09 143.34C111.66 143.91 112.61 144.16 113.47 144.16C115.13 144.16 116.08 143.30 116.02 142.10Z" fill="#e6edf3" /><path d="M177.52 141.15C177.52 139.40 176.20 138.34 174.74 138.34C173.94 138.34 173.24 138.66 172.82 139.07L172.82 136.95L176.22 136.95C176.65 136.95 177.01 136.59 177.01 136.15C177.01 135.69 176.65 135.33 176.22 135.33L172.02 135.33C171.45 135.33 170.98 135.80 170.98 136.37L170.98 139.70C170.98 140.20 171.34 140.58 171.91 140.58C172.17 140.58 172.42 140.50 172.63 140.36C173.10 140.05 173.55 139.94 174.09 139.94C175.07 139.94 175.65 140.46 175.65 141.23C175.65 141.93 175.06 142.52 174.03 142.52C173.41 142.52 172.81 142.35 172.30 142.04C172.15 141.95 171.98 141.89 171.82 141.89C171.37 141.89 170.94 142.25 170.94 142.73C170.94 142.86 170.98 142.99 171.04 143.10C171.45 143.78 172.92 144.16 174.05 144.16C176.14 144.16 177.52 143.00 177.52 141.15ZM182.46 136.32C182.46 135.73 181.96 135.26 181.38 135.26C181.08 135.26 180.79 135.38 180.60 135.58L178.60 137.60C178.44 137.76 178.36 137.96 178.36 138.15C178.36 138.58 178.73 138.92 179.13 138.92C179.31 138.92 179.49 138.85 179.64 138.71L180.61 137.71L180.61 143.17C180.61 143.66 181.03 144.08 181.52 144.08C182.04 144.08 182.46 143.66 182.46 143.17ZM190.93 139.67C190.93 137.44 189.82 135.20 187.35 135.20C184.86 135.20 183.76 137.44 183.76 139.67C183.76 141.91 184.86 144.16 187.35 144.16C189.82 144.16 190.93 141.91 190.93 139.67ZM189.05 139.67C189.05 141.27 188.58 142.52 187.35 142.52C186.10 142.52 185.63 141.27 185.63 139.67C185.63 138.07 186.10 136.84 187.35 136.84C188.58 136.84 189.05 138.07 189.05 139.67ZM193.90 143.36C193.90 142.52 193.34 142.04 192.73 142.04C192.18 142.04 191.71 142.50 191.71 143.08C191.71 143.64 192.10 144.01 192.60 144.01C192.69 144.01 192.81 143.99 192.84 143.97C192.77 144.31 192.48 144.72 192.14 144.99C192.05 145.07 192.01 145.17 192.01 145.27C192.01 145.53 192.29 145.69 192.51 145.69C192.64 145.69 192.75 145.65 192.84 145.56C193.49 144.97 193.90 144.19 193.90 143.36ZM201.66 141.18C201.66 139.33 200.27 138.36 198.71 138.36C197.63 138.36 196.82 138.89 196.48 139.48C196.47 139.41 196.47 139.36 196.47 139.29C196.47 137.92 197.37 136.84 198.64 136.84C199.08 136.84 199.45 136.91 199.77 137.08C199.89 137.15 200.02 137.18 200.15 137.18C200.55 137.18 201.00 136.86 201.00 136.37C201.00 136.24 200.96 136.12 200.91 136.02C200.58 135.45 199.49 135.20 198.64 135.20C196.08 135.20 194.60 137.06 194.60 139.68C194.60 142.13 195.70 144.16 198.34 144.16C200.32 144.16 201.66 142.87 201.66 141.18ZM199.79 141.24C199.79 141.89 199.31 142.52 198.30 142.52C197.49 142.52 196.88 141.96 196.88 141.15C196.88 140.37 197.50 139.81 198.30 139.81C199.14 139.81 199.79 140.37 199.79 141.24ZM209.68 139.67C209.68 137.44 208.56 135.20 206.09 135.20C203.61 135.20 202.50 137.44 202.50 139.67C202.50 141.91 203.61 144.16 206.09 144.16C208.56 144.16 209.68 141.91 209.68 139.67ZM207.79 139.67C207.79 141.27 207.33 142.52 206.09 142.52C204.84 142.52 204.38 141.27 204.38 139.67C204.38 138.07 204.84 136.84 206.09 136.84C207.33 136.84 207.79 138.07 207.79 139.67ZM217.54 141.62C217.54 140.44 216.84 139.76 216.32 139.53C216.76 139.32 217.40 138.83 217.40 137.49C217.40 135.99 215.79 135.20 214.06 135.20C212.32 135.20 210.72 135.99 210.72 137.49C210.72 138.83 211.34 139.32 211.79 139.53C211.27 139.76 210.58 140.44 210.58 141.62C210.58 143.25 212.24 144.16 214.06 144.16C215.88 144.16 217.54 143.23 217.54 141.62ZM215.52 137.77C215.52 138.42 214.85 138.80 214.06 138.80C213.27 138.80 212.59 138.42 212.59 137.77C212.59 137.15 213.20 136.78 214.06 136.78C214.91 136.78 215.52 137.15 215.52 137.77ZM215.67 141.52C215.67 142.15 214.94 142.57 214.06 142.57C213.15 142.57 212.45 142.15 212.45 141.52C212.45 140.79 213.25 140.36 214.06 140.36C214.85 140.36 215.67 140.79 215.67 141.52Z" fill="#9aa7b4" /></g><rect x="18" y="166" width="384" height="8" rx="4" fill="#21262d" /><rect x="18.00" y="166" width="264.43" height="8" rx="4" fill="#00d559" /><rect x="282.43" y="166" width="119.57" height="8" rx="4" fill="#00a5fe" /></svg>