<svg xmlns="http://www.w3.org/2000/svg" width="420" height="184" viewBox="0 0 420 184" role="img"><rect x="0.5" y="0.5" width="419" height="183" rx="10" fill="#ffffff" stroke="#f2f4f6" /><path d="M30.72 33.60C30.72 32.83 30.10 32.21 29.37 32.21L28.69 32.21L28.69 24.95C28.69 23.59 27.37 22.97 26.03 23.19C25.08 23.19 24.14 23.70 23.63 24.49L18.73 32.24C18.53 32.54 18.44 32.90 18.44 33.25C18.44 34.24 19.17 34.96 20.05 34.96L25.57 34.96L25.57 36.59C25.57 37.43 26.27 38.13 27.11 38.13C27.99 38.13 28.69 37.43 28.69 36.59L28.69 34.96L29.37 34.96C30.10 34.96 30.72 34.35 30.72 33.60ZM21.61 32.21L25.57 26.10L25.57 32.21ZM42.82 24.91C42.82 23.99 42.07 23.33 41.30 23.33L32.89 23.33C32.15 23.33 31.53 23.94 31.53 24.67C31.53 25.46 32.15 26.08 32.89 26.08L39.05 26.08L34.68 36.00C34.59 36.20 34.54 36.39 34.54 36.59C34.54 37.38 35.18 38.13 36.11 38.13C36.74 38.13 37.34 37.76 37.58 37.19L42.68 25.53C42.77 25.35 42.82 25.13 42.82 24.91ZM45.79 36.92C45.79 35.49 44.84 34.68 43.81 34.68C42.88 34.68 42.09 35.47 42.09 36.44C42.09 37.38 42.75 38.02 43.59 38.02C43.74 38.02 43.94 37.98 44.00 37.96C43.87 38.53 43.39 39.21 42.82 39.67C42.66 39.80 42.60 39.98 42.60 40.16C42.60 40.60 43.06 40.86 43.43 40.86C43.65 40.86 43.85 40.79 44.00 40.64C45.10 39.65 45.79 38.33 45.79 36.92ZM59.29 33.18C59.29 30.21 57.07 28.43 54.59 28.43C53.24 28.43 52.06 28.96 51.35 29.66L51.35 26.08L57.09 26.08C57.82 26.08 58.44 25.46 58.44 24.71C58.44 23.94 57.82 23.33 57.09 23.33L49.99 23.33C49.02 23.33 48.23 24.12 48.23 25.09L48.23 30.72C48.23 31.58 48.84 32.21 49.81 32.21C50.25 32.21 50.67 32.08 51.02 31.84C51.81 31.31 52.58 31.14 53.49 31.14C55.16 31.14 56.13 32.02 56.13 33.31C56.13 34.50 55.14 35.49 53.40 35.49C52.34 35.49 51.33 35.21 50.47 34.68C50.21 34.52 49.92 34.44 49.66 34.44C48.89 34.44 48.16 35.03 48.16 35.84C48.16 36.06 48.23 36.28 48.34 36.48C49.02 37.63 51.51 38.26 53.42 38.26C56.96 38.26 59.29 36.31 59.29 33.18ZM72.78 33.60C72.78 32.83 72.16 32.21 71.44 32.21L70.76 32.21L70.76 24.95C70.76 23.59 69.44 22.97 68.09 23.19C67.15 23.19 66.20 23.70 65.70 24.49L60.79 32.24C60.59 32.54 60.50 32.90 60.50 33.25C60.50 34.24 61.23 34.96 62.11 34.96L67.63 34.96L67.63 36.59C67.63 37.43 68.34 38.13 69.17 38.13C70.05 38.13 70.76 37.43 70.76 36.59L70.76 34.96L71.44 34.96C72.16 34.96 72.78 34.35 72.78 33.60ZM63.67 32.21L67.63 26.10L67.63 32.21ZM86.09 30.67C86.09 26.89 84.20 23.11 80.02 23.11C75.82 23.11 73.95 26.89 73.95 30.67C73.95 34.46 75.82 38.26 80.02 38.26C84.20 38.26 86.09 34.46 86.09 30.67ZM82.90 30.67C82.90 33.38 82.11 35.49 80.02 35.49C77.91 35.49 77.11 33.38 77.11 30.67C77.11 27.97 77.91 25.88 80.02 25.88C82.11 25.88 82.90 27.97 82.90 30.67ZM101.03 23.08C96.63 23.08 93.22 26.16 93.22 30.67C93.22 35.18 96.63 38.26 101.03 38.26C103.56 38.26 105.25 37.16 106.35 35.82C106.57 35.58 106.66 35.27 106.66 34.96C106.66 34.22 106.02 33.60 105.23 33.60C104.79 33.60 104.35 33.78 104.04 34.11C103.23 35.01 102.13 35.49 101.03 35.49C98.37 35.49 96.43 33.45 96.43 30.67C96.43 27.90 98.37 25.86 101.03 25.86C102.13 25.86 103.21 26.38 104.04 27.26C104.35 27.59 104.77 27.77 105.19 27.77C106 27.77 106.68 27.15 106.68 26.36C106.68 26.08 106.57 25.75 106.37 25.50C105.25 24.16 103.56 23.08 101.03 23.08ZM119.53 32.68C119.53 29.66 117.42 27.11 113.90 27.11C110.40 27.11 108.29 29.66 108.29 32.68C108.29 35.71 110.40 38.26 113.90 38.26C117.42 38.26 119.53 35.71 119.53 32.68ZM116.63 32.68C116.63 34.35 115.64 35.78 113.90 35.78C112.16 35.78 111.19 34.35 111.19 32.68C111.19 31.03 112.16 29.60 113.90 29.60C115.64 29.60 116.63 31.03 116.63 32.68ZM137.59 31.20C137.59 29.02 136.07 27.11 133.68 27.11C131.83 27.11 130.77 28.19 130.38 28.94C129.98 28.17 128.99 27.11 127.21 27.11C125.58 27.11 124.83 27.70 124.39 28.28L124.39 28.25C124.39 27.95 124.00 27.24 123.03 27.24C122.21 27.24 121.60 27.86 121.60 28.61L121.60 36.75C121.60 37.52 122.21 38.13 122.98 38.13C123.78 38.13 124.39 37.52 124.39 36.75L124.39 31.73C124.39 30.70 125.18 29.60 126.37 29.60C127.52 29.60 128.18 30.74 128.18 31.73L128.18 36.75C128.18 37.52 128.79 38.13 129.56 38.13C130.38 38.13 130.99 37.52 130.99 36.75L130.99 31.93C130.99 30.70 131.76 29.60 132.97 29.60C134.12 29.60 134.78 30.74 134.78 31.73L134.78 36.75C134.78 37.52 135.39 38.13 136.16 38.13C136.98 38.13 137.59 37.52 137.59 36.75ZM156.34 31.20C156.34 29.02 154.82 27.11 152.42 27.11C150.57 27.11 149.52 28.19 149.12 28.94C148.72 28.17 147.73 27.11 145.95 27.11C144.32 27.11 143.58 27.70 143.14 28.28L143.14 28.25C143.14 27.95 142.74 27.24 141.77 27.24C140.96 27.24 140.34 27.86 140.34 28.61L140.34 36.75C140.34 37.52 140.96 38.13 141.73 38.13C142.52 38.13 143.14 37.52 143.14 36.75L143.14 31.73C143.14 30.70 143.93 29.60 145.12 29.60C146.26 29.60 146.92 30.74 146.92 31.73L146.92 36.75C146.92 37.52 147.54 38.13 148.31 38.13C149.12 38.13 149.74 37.52 149.74 36.75L149.74 31.93C149.74 30.70 150.51 29.60 151.72 29.60C152.86 29.60 153.52 30.74 153.52 31.73L153.52 36.75C153.52 37.52 154.14 38.13 154.91 38.13C155.72 38.13 156.34 37.52 156.34 36.75ZM160.47 22.91C159.57 22.91 158.80 23.63 158.80 24.56C158.80 25.48 159.57 26.23 160.47 26.23C161.40 26.23 162.14 25.48 162.14 24.56C162.14 23.63 161.40 22.91 160.47 22.91ZM161.88 28.61C161.88 27.86 161.26 27.24 160.52 27.24C159.70 27.24 159.09 27.86 159.09 28.61L159.09 36.75C159.09 37.52 159.70 38.13 160.47 38.13C161.26 38.13 161.88 37.52 161.88 36.75ZM170.46 36.99C170.46 36.31 170.02 35.78 169.23 35.78L168.99 35.78C168.55 35.78 168.02 35.45 168.02 34.61L168.02 29.82L169.12 29.82C169.76 29.82 170.31 29.27 170.31 28.61C170.31 27.92 169.76 27.37 169.12 27.37L168.02 27.37L168.02 25.72C168.02 24.95 167.40 24.34 166.63 24.34C165.82 24.34 165.20 24.95 165.20 25.72L165.20 27.37L164.52 27.37C163.86 27.37 163.31 27.92 163.31 28.56C163.31 29.27 163.86 29.82 164.52 29.82L165.20 29.82L165.20 35.36C165.20 37.25 166.26 38.26 168.22 38.26C170.04 38.26 170.46 37.69 170.46 36.99ZM180.51 34.85C180.51 30.56 174.22 31.88 174.22 30.30C174.22 29.71 174.88 29.24 175.89 29.24C176.75 29.24 177.61 29.49 178.29 29.88C178.45 29.97 178.64 30.01 178.82 30.01C179.39 30.01 179.92 29.55 179.92 28.96C179.92 28.76 179.85 28.56 179.74 28.41C179.15 27.55 177.26 27.11 175.87 27.11C173.08 27.11 171.52 28.67 171.52 30.45C171.52 34.63 177.83 33.20 177.83 34.96C177.83 35.62 177.26 36.11 176.05 36.11C175.12 36.11 174.02 35.73 173.19 35.25C173.01 35.14 172.81 35.10 172.62 35.10C172.02 35.10 171.45 35.60 171.45 36.26C171.45 36.48 171.52 36.68 171.65 36.86C172.31 37.80 174.53 38.26 175.92 38.26C178.86 38.26 180.51 36.79 180.51 34.85Z" fill="#22272e" /><path d="M20.26 49.88C20.26 49.54 19.98 49.25 19.64 49.25C19.26 49.25 18.98 49.54 18.98 49.88L18.98 57.44C18.98 57.79 19.26 58.08 19.61 58.08C19.98 58.08 20.26 57.79 20.26 57.44ZM27.55 53.97C27.55 52.64 26.59 51.56 25.27 51.56C24.18 51.56 23.62 52.10 23.32 52.60L23.32 52.20C23.32 51.90 23.06 51.64 22.76 51.64C22.42 51.64 22.16 51.90 22.16 52.20L22.16 57.51C22.16 57.82 22.42 58.08 22.73 58.08C23.06 58.08 23.32 57.82 23.32 57.51L23.32 54.49C23.32 53.42 23.89 52.59 24.89 52.59C25.83 52.59 26.40 53.32 26.40 54.36L26.40 57.51C26.40 57.82 26.66 58.08 26.97 58.08C27.30 58.08 27.55 57.82 27.55 57.51ZM38.97 49.91C38.97 49.58 38.72 49.33 38.41 49.33L32.70 49.33C32.39 49.33 32.14 49.58 32.14 49.89C32.14 50.21 32.39 50.47 32.70 50.47L34.91 50.47L34.91 57.44C34.91 57.79 35.20 58.08 35.55 58.08C35.91 58.08 36.20 57.79 36.20 57.44L36.20 50.47L38.41 50.47C38.72 50.47 38.97 50.21 38.97 49.91ZM44.74 54.85C44.74 53.05 43.53 51.56 41.57 51.56C39.62 51.56 38.41 53.05 38.41 54.85C38.41 56.66 39.62 58.16 41.57 58.16C43.53 58.16 44.74 56.66 44.74 54.85ZM43.53 54.85C43.53 56.06 42.83 57.13 41.57 57.13C40.32 57.13 39.61 56.06 39.61 54.85C39.61 53.66 40.32 52.59 41.57 52.59C42.83 52.59 43.53 53.66 43.53 54.85ZM49.16 57.55C49.16 57.27 48.95 57.06 48.67 57.06C48.54 57.06 48.38 57.13 48.24 57.13C47.86 57.13 47.63 56.83 47.63 56.35L47.63 52.73L48.48 52.73C48.76 52.73 48.98 52.51 48.98 52.24C48.98 51.94 48.76 51.72 48.48 51.72L47.63 51.72L47.63 50.49C47.63 50.19 47.37 49.93 47.05 49.93C46.72 49.93 46.46 50.19 46.46 50.49L46.46 51.72L45.85 51.72C45.56 51.72 45.34 51.94 45.34 52.22C45.34 52.51 45.56 52.73 45.85 52.73L46.46 52.73L46.46 56.62C46.46 57.61 46.98 58.16 47.96 58.16C48.65 58.16 49.16 57.96 49.16 57.55ZM55.26 53.75C55.26 52.15 54.09 51.56 52.74 51.56C51.89 51.56 50.94 51.84 50.34 52.44C50.27 52.53 50.23 52.63 50.23 52.73C50.23 53.01 50.47 53.19 50.71 53.19C50.80 53.19 50.90 53.15 50.99 53.09C51.46 52.72 51.98 52.54 52.57 52.54C53.45 52.54 54.10 53.01 54.10 53.80L54.10 54.15L52.29 54.15C50.99 54.15 49.85 54.66 49.85 56.08C49.85 57.45 50.99 58.16 52.03 58.16C53.01 58.16 53.59 57.86 54.10 57.30L54.10 57.51C54.10 57.88 54.40 58.08 54.63 58.08L54.67 58.08C55.00 58.08 55.26 57.82 55.26 57.51ZM54.10 54.96L54.10 55.84C54.10 56.58 53.26 57.34 52.35 57.34C51.50 57.34 51.02 56.83 51.02 56.10C51.02 55.35 51.62 54.96 52.61 54.96ZM58.27 49.81C58.27 49.51 58.01 49.25 57.71 49.25C57.38 49.25 57.12 49.51 57.12 49.81L57.12 57.51C57.12 57.82 57.38 58.08 57.69 58.08C58.01 58.08 58.27 57.82 58.27 57.51Z" fill="#627386" /><line x1="18" y1="76" x2="48" y2="76" stroke="#627386" stroke-opacity="0.4" /><g aria-label="Additions: 31,825,693"><circle cx="22" cy="96" r="4" fill="#00d559" /><path d="M42.28 99.39C42.28 99.31 42.27 99.23 42.23 99.14L39.36 91.94C39.19 91.51 38.76 91.24 38.30 91.25C37.85 91.25 37.43 91.52 37.28 91.94L34.40 99.14C34.38 99.23 34.36 99.31 34.36 99.39C34.36 99.74 34.65 100.08 35.05 100.08C35.33 100.08 35.57 99.92 35.68 99.66L36.25 98.19L40.40 98.19L40.97 99.66C41.07 99.92 41.32 100.08 41.59 100.08C42.01 100.08 42.28 99.71 42.28 99.39ZM38.32 92.64L40.03 97.06L36.61 97.06ZM49.22 91.81C49.22 91.51 48.96 91.25 48.66 91.25C48.33 91.25 48.07 91.51 48.07 91.81L48.07 94.63C47.56 93.95 46.95 93.56 46.00 93.56C44.36 93.56 43.20 94.85 43.20 96.87C43.20 98.92 44.37 100.16 46.00 100.16C46.97 100.16 47.59 99.73 48.07 99.10L48.07 99.51C48.07 99.82 48.33 100.08 48.64 100.08C48.96 100.08 49.22 99.82 49.22 99.51ZM48.07 96.91C48.07 98.21 47.42 99.13 46.30 99.13C45.13 99.13 44.40 98.18 44.40 96.87C44.40 95.55 45.13 94.59 46.30 94.59C47.42 94.59 48.07 95.54 48.07 96.83ZM56.74 91.81C56.74 91.51 56.48 91.25 56.18 91.25C55.84 91.25 55.58 91.51 55.58 91.81L55.58 94.63C55.07 93.95 54.46 93.56 53.51 93.56C51.88 93.56 50.72 94.85 50.72 96.87C50.72 98.92 51.89 100.16 53.51 100.16C54.49 100.16 55.10 99.73 55.58 99.10L55.58 99.51C55.58 99.82 55.84 100.08 56.15 100.08C56.48 100.08 56.74 99.82 56.74 99.51ZM55.58 96.91C55.58 98.21 54.93 99.13 53.81 99.13C52.64 99.13 51.91 98.18 51.91 96.87C51.91 95.55 52.64 94.59 53.81 94.59C54.93 94.59 55.58 95.54 55.58 96.83ZM59.18 91.39C58.78 91.39 58.44 91.73 58.44 92.15C58.44 92.55 58.78 92.89 59.18 92.89C59.60 92.89 59.92 92.55 59.92 92.15C59.92 91.73 59.60 91.39 59.18 91.39ZM59.77 94.20C59.77 93.90 59.51 93.64 59.21 93.64C58.87 93.64 58.61 93.90 58.61 94.20L58.61 99.51C58.61 99.82 58.87 100.08 59.18 100.08C59.51 100.08 59.77 99.82 59.77 99.51ZM64.56 99.55C64.56 99.27 64.36 99.06 64.07 99.06C63.94 99.06 63.78 99.13 63.64 99.13C63.26 99.13 63.03 98.83 63.03 98.35L63.03 94.73L63.89 94.73C64.16 94.73 64.38 94.51 64.38 94.24C64.38 93.94 64.16 93.72 63.89 93.72L63.03 93.72L63.03 92.49C63.03 92.19 62.77 91.93 62.46 91.93C62.12 91.93 61.86 92.19 61.86 92.49L61.86 93.72L61.25 93.72C60.96 93.72 60.74 93.94 60.74 94.22C60.74 94.51 60.96 94.73 61.25 94.73L61.86 94.73L61.86 98.62C61.86 99.61 62.38 100.16 63.37 100.16C64.06 100.16 64.56 99.96 64.56 99.55ZM66.19 91.39C65.79 91.39 65.45 91.73 65.45 92.15C65.45 92.55 65.79 92.89 66.19 92.89C66.60 92.89 66.93 92.55 66.93 92.15C66.93 91.73 66.60 91.39 66.19 91.39ZM66.77 94.20C66.77 93.90 66.51 93.64 66.21 93.64C65.88 93.64 65.62 93.90 65.62 94.20L65.62 99.51C65.62 99.82 65.88 100.08 66.19 100.08C66.51 100.08 66.77 99.82 66.77 99.51ZM74.60 96.85C74.60 95.05 73.39 93.56 71.43 93.56C69.48 93.56 68.27 95.05 68.27 96.85C68.27 98.66 69.48 100.16 71.43 100.16C73.39 100.16 74.60 98.66 74.60 96.85ZM73.39 96.85C73.39 98.06 72.69 99.13 71.43 99.13C70.18 99.13 69.46 98.06 69.46 96.85C69.46 95.66 70.18 94.59 71.43 94.59C72.69 94.59 73.39 95.66 73.39 96.85ZM81.49 95.97C81.49 94.64 80.53 93.56 79.20 93.56C78.11 93.56 77.55 94.10 77.25 94.61L77.25 94.20C77.25 93.90 76.99 93.64 76.69 93.64C76.35 93.64 76.09 93.90 76.09 94.20L76.09 99.51C76.09 99.82 76.35 100.08 76.67 100.08C76.99 100.08 77.25 99.82 77.25 99.51L77.25 96.49C77.25 95.42 77.82 94.59 78.82 94.59C79.76 94.59 80.33 95.32 80.33 96.36L80.33 99.51C80.33 99.82 80.59 100.08 80.90 100.08C81.23 100.08 81.49 99.82 81.49 99.51ZM87.96 98.10C87.85 95.89 84.24 96.50 84.11 95.37C84.06 94.86 84.61 94.49 85.40 94.49C86 94.49 86.56 94.68 86.96 94.97C87.04 95.03 87.13 95.06 87.23 95.06C87.47 95.06 87.69 94.86 87.69 94.61C87.69 94.50 87.65 94.40 87.57 94.32C87.08 93.84 86.29 93.56 85.39 93.56C83.86 93.56 82.93 94.29 83.00 95.41C83.11 97.52 86.70 96.87 86.83 98.26C86.88 98.83 86.36 99.23 85.47 99.23C84.82 99.23 84.17 98.97 83.70 98.64C83.61 98.57 83.52 98.54 83.40 98.54C83.13 98.54 82.89 98.75 82.89 99.03C82.89 99.16 82.94 99.26 83.04 99.34C83.61 99.91 84.56 100.16 85.41 100.16C87.08 100.16 88.03 99.30 87.96 98.10Z" fill="#22272e" /><path d="M158.68 97.63C158.78 96.07 157.73 95.53 157.73 95.53C157.73 95.53 158.69 95.03 158.59 93.55C158.49 92.11 157.34 91.20 155.31 91.20C154.12 91.20 153.18 91.55 152.47 92.12C152.28 92.27 152.19 92.47 152.19 92.68C152.19 93.14 152.60 93.46 153 93.46C153.16 93.46 153.31 93.42 153.44 93.33C153.95 93.01 154.52 92.84 155.12 92.84C156.03 92.84 156.73 93.05 156.73 93.73C156.73 94.45 156.30 94.79 155.43 94.79C154.81 94.79 154.53 95.14 154.53 95.59C154.53 96.05 154.81 96.41 155.48 96.41C156.37 96.41 156.87 96.72 156.87 97.41C156.87 98.06 156.29 98.52 155.24 98.52C154.64 98.52 153.95 98.31 153.38 97.97C153.23 97.88 153.08 97.84 152.92 97.84C152.49 97.84 152.08 98.19 152.08 98.66C152.08 98.79 152.12 98.91 152.18 99.01C152.58 99.69 154.05 100.16 155.30 100.16C157.38 100.16 158.58 99.26 158.68 97.63ZM163.74 92.32C163.74 91.73 163.24 91.26 162.66 91.26C162.36 91.26 162.07 91.38 161.88 91.58L159.88 93.60C159.72 93.76 159.64 93.95 159.64 94.15C159.64 94.58 160.01 94.92 160.41 94.92C160.59 94.92 160.77 94.85 160.92 94.71L161.89 93.71L161.89 99.17C161.89 99.66 162.31 100.08 162.80 100.08C163.32 100.08 163.74 99.66 163.74 99.17ZM167.39 99.36C167.39 98.52 166.83 98.04 166.22 98.04C165.67 98.04 165.21 98.50 165.21 99.08C165.21 99.64 165.60 100.01 166.09 100.01C166.18 100.01 166.30 99.99 166.34 99.97C166.26 100.31 165.97 100.72 165.64 100.99C165.54 101.07 165.51 101.17 165.51 101.27C165.51 101.53 165.78 101.69 166.00 101.69C166.13 101.69 166.25 101.65 166.34 101.56C166.99 100.97 167.39 100.19 167.39 99.36ZM175.35 97.62C175.35 96.44 174.64 95.76 174.12 95.53C174.57 95.32 175.20 94.83 175.20 93.49C175.20 91.99 173.59 91.20 171.86 91.20C170.12 91.20 168.52 91.99 168.52 93.49C168.52 94.83 169.15 95.32 169.59 95.53C169.07 95.76 168.38 96.44 168.38 97.62C168.38 99.25 170.04 100.16 171.86 100.16C173.68 100.16 175.35 99.23 175.35 97.62ZM173.32 93.77C173.32 94.42 172.66 94.80 171.86 94.80C171.07 94.80 170.39 94.42 170.39 93.77C170.39 93.15 171.00 92.78 171.86 92.78C172.71 92.78 173.32 93.15 173.32 93.77ZM173.47 97.52C173.47 98.15 172.75 98.57 171.86 98.57C170.95 98.57 170.25 98.15 170.25 97.52C170.25 96.79 171.06 96.36 171.86 96.36C172.66 96.36 173.47 96.79 173.47 97.52ZM183.02 99.17C183.02 98.74 182.65 98.38 182.22 98.38L179.40 98.38C181.65 96.74 182.87 95.45 182.87 93.97C182.87 92.24 181.41 91.20 179.56 91.20C178.47 91.20 177.01 91.67 176.59 92.33C176.52 92.45 176.48 92.58 176.48 92.71C176.48 93.17 176.85 93.54 177.28 93.54C177.48 93.54 177.65 93.49 177.82 93.37C178.31 93.03 178.91 92.84 179.60 92.84C180.31 92.84 181.00 93.21 181.00 93.97C181.00 94.98 179.96 95.93 176.72 98.32C176.48 98.50 176.33 98.80 176.33 99.10C176.33 99.62 176.75 100 177.21 100L182.22 100C182.65 100 183.02 99.64 183.02 99.17ZM191.05 97.15C191.05 95.40 189.74 94.34 188.27 94.34C187.48 94.34 186.77 94.66 186.36 95.07L186.36 92.95L189.75 92.95C190.18 92.95 190.54 92.59 190.54 92.15C190.54 91.69 190.18 91.33 189.75 91.33L185.55 91.33C184.98 91.33 184.51 91.80 184.51 92.37L184.51 95.70C184.51 96.20 184.88 96.58 185.45 96.58C185.71 96.58 185.96 96.50 186.16 96.36C186.63 96.05 187.09 95.94 187.62 95.94C188.61 95.94 189.18 96.46 189.18 97.23C189.18 97.93 188.59 98.52 187.57 98.52C186.94 98.52 186.34 98.35 185.84 98.04C185.68 97.95 185.51 97.89 185.36 97.89C184.90 97.89 184.47 98.25 184.47 98.73C184.47 98.86 184.51 98.99 184.58 99.10C184.98 99.78 186.45 100.16 187.58 100.16C189.67 100.16 191.05 99.00 191.05 97.15ZM194.30 99.36C194.30 98.52 193.74 98.04 193.13 98.04C192.59 98.04 192.12 98.50 192.12 99.08C192.12 99.64 192.51 100.01 193.00 100.01C193.09 100.01 193.21 99.99 193.25 99.97C193.17 100.31 192.88 100.72 192.55 100.99C192.46 101.07 192.42 101.17 192.42 101.27C192.42 101.53 192.69 101.69 192.91 101.69C193.04 101.69 193.16 101.65 193.25 101.56C193.90 100.97 194.30 100.19 194.30 99.36ZM202.06 97.18C202.06 95.33 200.67 94.36 199.11 94.36C198.03 94.36 197.23 94.89 196.89 95.48C196.88 95.41 196.88 95.36 196.88 95.29C196.88 93.92 197.77 92.84 199.05 92.84C199.49 92.84 199.85 92.91 200.18 93.08C200.29 93.15 200.42 93.17 200.55 93.17C200.96 93.17 201.40 92.86 201.40 92.37C201.40 92.24 201.36 92.12 201.31 92.02C200.98 91.45 199.89 91.20 199.05 91.20C196.49 91.20 195.00 93.06 195.00 95.68C195.00 98.13 196.11 100.16 198.75 100.16C200.72 100.16 202.06 98.87 202.06 97.18ZM200.19 97.24C200.19 97.89 199.71 98.52 198.71 98.52C197.89 98.52 197.28 97.96 197.28 97.15C197.28 96.37 197.90 95.81 198.71 95.81C199.54 95.81 200.19 96.37 200.19 97.24ZM202.85 94.16C202.85 96.01 204.25 96.98 205.81 96.98C206.88 96.98 207.69 96.45 208.03 95.87C208.04 95.93 208.04 95.98 208.04 96.05C208.04 97.43 207.15 98.50 205.87 98.50C205.43 98.50 205.06 98.43 204.74 98.26C204.62 98.19 204.49 98.17 204.36 98.17C203.96 98.17 203.52 98.48 203.52 98.97C203.52 99.10 203.56 99.22 203.61 99.32C203.93 99.90 205.03 100.14 205.87 100.14C208.43 100.14 209.91 98.28 209.91 95.66C209.91 93.21 208.81 91.19 206.17 91.19C204.19 91.19 202.85 92.47 202.85 94.16ZM204.73 94.10C204.73 93.45 205.21 92.82 206.21 92.82C207.03 92.82 207.64 93.38 207.64 94.19C207.64 94.97 207.02 95.53 206.21 95.53C205.38 95.53 204.73 94.97 204.73 94.10ZM217.43 97.63C217.53 96.07 216.48 95.53 216.48 95.53C216.48 95.53 217.44 95.03 217.34 93.55C217.23 92.11 216.09 91.20 214.06 91.20C212.87 91.20 211.93 91.55 211.21 92.12C211.03 92.27 210.94 92.47 210.94 92.68C210.94 93.14 211.34 93.46 211.75 93.46C211.90 93.46 212.06 93.42 212.19 93.33C212.70 93.01 213.27 92.84 213.87 92.84C214.78 92.84 215.48 93.05 215.48 93.73C215.48 94.45 215.05 94.79 214.18 94.79C213.55 94.79 213.28 95.14 213.28 95.59C213.28 96.05 213.55 96.41 214.23 96.41C215.11 96.41 215.62 96.72 215.62 97.41C215.62 98.06 215.04 98.52 213.98 98.52C213.38 98.52 212.70 98.31 212.12 97.97C211.98 97.88 211.82 97.84 211.67 97.84C211.24 97.84 210.82 98.19 210.82 98.66C210.82 98.79 210.86 98.91 210.93 99.01C211.33 99.69 212.80 100.16 214.05 100.16C216.13 100.16 217.32 99.26 217.43 97.63Z" fill="#627386" /></g><g aria-label="Deletions: 14,070,953"><circle cx="22" cy="118" r="4" fill="#00a5fe" /><path d="M42.54 117.67C42.54 115.17 40.76 113.33 38.06 113.33L35.82 113.33C35.35 113.33 34.98 113.71 34.98 114.17L34.98 121.16C34.98 121.62 35.35 122 35.82 122L38.06 122C40.76 122 42.54 120.18 42.54 117.67ZM41.23 117.67C41.23 119.43 40.06 120.86 38.06 120.86L36.26 120.86L36.26 114.47L38.06 114.47C40.11 114.47 41.23 115.89 41.23 117.67ZM49.90 118.65C49.90 118.40 49.83 118.13 49.78 117.92C49.42 116.51 48.38 115.56 46.86 115.56C45.04 115.56 43.72 117.03 43.72 118.85C43.72 120.83 45.09 122.16 46.96 122.16C47.88 122.16 49.50 121.67 49.50 120.97C49.50 120.53 49.05 120.43 48.77 120.57C48.31 120.91 47.61 121.22 47.08 121.22C45.80 121.22 45.02 120.35 44.93 119.27L49.30 119.27C49.63 119.27 49.90 118.96 49.90 118.65ZM44.93 118.41C44.98 117.54 45.60 116.50 46.84 116.50C48.18 116.50 48.76 117.57 48.78 118.41ZM52.54 113.81C52.54 113.51 52.28 113.25 51.98 113.25C51.64 113.25 51.38 113.51 51.38 113.81L51.38 121.51C51.38 121.82 51.64 122.08 51.95 122.08C52.28 122.08 52.54 121.82 52.54 121.51ZM60.21 118.65C60.21 118.40 60.14 118.13 60.09 117.92C59.73 116.51 58.69 115.56 57.17 115.56C55.35 115.56 54.03 117.03 54.03 118.85C54.03 120.83 55.40 122.16 57.27 122.16C58.19 122.16 59.81 121.67 59.81 120.97C59.81 120.53 59.36 120.43 59.08 120.57C58.62 120.91 57.92 121.22 57.39 121.22C56.11 121.22 55.33 120.35 55.24 119.27L59.61 119.27C59.94 119.27 60.21 118.96 60.21 118.65ZM55.24 118.41C55.29 117.54 55.91 116.50 57.15 116.50C58.49 116.50 59.06 117.57 59.09 118.41ZM64.62 121.55C64.62 121.27 64.41 121.06 64.12 121.06C63.99 121.06 63.84 121.13 63.69 121.13C63.32 121.13 63.08 120.83 63.08 120.35L63.08 116.73L63.94 116.73C64.21 116.73 64.43 116.51 64.43 116.24C64.43 115.94 64.21 115.72 63.94 115.72L63.08 115.72L63.08 114.49C63.08 114.19 62.82 113.93 62.51 113.93C62.17 113.93 61.91 114.19 61.91 114.49L61.91 115.72L61.30 115.72C61.01 115.72 60.79 115.94 60.79 116.22C60.79 116.51 61.01 116.73 61.30 116.73L61.91 116.73L61.91 120.62C61.91 121.61 62.43 122.16 63.42 122.16C64.11 122.16 64.62 121.96 64.62 121.55ZM66.24 113.39C65.84 113.39 65.50 113.73 65.50 114.15C65.50 114.55 65.84 114.89 66.24 114.89C66.66 114.89 66.98 114.55 66.98 114.15C66.98 113.73 66.66 113.39 66.24 113.39ZM66.83 116.20C66.83 115.90 66.56 115.64 66.27 115.64C65.93 115.64 65.67 115.90 65.67 116.20L65.67 121.51C65.67 121.82 65.93 122.08 66.24 122.08C66.56 122.08 66.83 121.82 66.83 121.51ZM74.65 118.85C74.65 117.05 73.44 115.56 71.48 115.56C69.53 115.56 68.32 117.05 68.32 118.85C68.32 120.66 69.53 122.16 71.48 122.16C73.44 122.16 74.65 120.66 74.65 118.85ZM73.44 118.85C73.44 120.06 72.74 121.13 71.48 121.13C70.23 121.13 69.52 120.06 69.52 118.85C69.52 117.66 70.23 116.59 71.48 116.59C72.74 116.59 73.44 117.66 73.44 118.85ZM81.54 117.97C81.54 116.64 80.58 115.56 79.25 115.56C78.16 115.56 77.60 116.10 77.30 116.61L77.30 116.20C77.30 115.90 77.04 115.64 76.74 115.64C76.41 115.64 76.15 115.90 76.15 116.20L76.15 121.51C76.15 121.82 76.41 122.08 76.72 122.08C77.04 122.08 77.30 121.82 77.30 121.51L77.30 118.49C77.30 117.42 77.88 116.59 78.88 116.59C79.81 116.59 80.38 117.32 80.38 118.36L80.38 121.51C80.38 121.82 80.64 122.08 80.96 122.08C81.28 122.08 81.54 121.82 81.54 121.51ZM88.01 120.10C87.90 117.89 84.30 118.50 84.17 117.37C84.11 116.86 84.66 116.49 85.45 116.49C86.05 116.49 86.61 116.68 87.01 116.97C87.09 117.03 87.18 117.06 87.29 117.06C87.52 117.06 87.74 116.86 87.74 116.61C87.74 116.50 87.70 116.40 87.62 116.32C87.13 115.84 86.34 115.56 85.44 115.56C83.91 115.56 82.98 116.29 83.05 117.41C83.17 119.52 86.75 118.87 86.88 120.26C86.94 120.83 86.42 121.23 85.52 121.23C84.87 121.23 84.22 120.97 83.75 120.64C83.66 120.57 83.57 120.54 83.45 120.54C83.18 120.54 82.94 120.75 82.94 121.03C82.94 121.16 83.00 121.26 83.09 121.34C83.66 121.91 84.61 122.16 85.47 122.16C87.13 122.16 88.08 121.30 88.01 120.10Z" fill="#22272e" /><path d="M156.63 114.32C156.63 113.73 156.13 113.26 155.55 113.26C155.25 113.26 154.96 113.38 154.77 113.58L152.77 115.60C152.61 115.76 152.53 115.95 152.53 116.15C152.53 116.58 152.90 116.92 153.30 116.92C153.48 116.92 153.66 116.85 153.81 116.71L154.78 115.71L154.78 121.17C154.78 121.66 155.20 122.08 155.69 122.08C156.21 122.08 156.63 121.66 156.63 121.17ZM165.00 119.40C165.00 118.94 164.63 118.58 164.21 118.58L163.80 118.58L163.80 114.29C163.80 113.48 163.02 113.12 162.23 113.25C161.67 113.25 161.11 113.55 160.81 114.02L157.91 118.59C157.80 118.78 157.74 118.98 157.74 119.19C157.74 119.78 158.17 120.21 158.69 120.21L161.96 120.21L161.96 121.17C161.96 121.66 162.37 122.08 162.87 122.08C163.39 122.08 163.80 121.66 163.80 121.17L163.80 120.21L164.21 120.21C164.63 120.21 165.00 119.84 165.00 119.40ZM159.62 118.58L161.96 114.97L161.96 118.58ZM168.04 121.36C168.04 120.52 167.48 120.04 166.87 120.04C166.32 120.04 165.86 120.50 165.86 121.08C165.86 121.64 166.25 122.01 166.74 122.01C166.83 122.01 166.95 121.99 166.99 121.97C166.91 122.31 166.62 122.72 166.29 122.99C166.19 123.07 166.16 123.17 166.16 123.27C166.16 123.53 166.43 123.69 166.65 123.69C166.78 123.69 166.90 123.65 166.99 123.56C167.64 122.97 168.04 122.19 168.04 121.36ZM175.92 117.67C175.92 115.44 174.80 113.20 172.33 113.20C169.85 113.20 168.74 115.44 168.74 117.67C168.74 119.91 169.85 122.16 172.33 122.16C174.80 122.16 175.92 119.91 175.92 117.67ZM174.03 117.67C174.03 119.27 173.57 120.52 172.33 120.52C171.08 120.52 170.61 119.27 170.61 117.67C170.61 116.07 171.08 114.84 172.33 114.84C173.57 114.84 174.03 116.07 174.03 117.67ZM183.26 114.27C183.26 113.72 182.82 113.33 182.37 113.33L177.40 113.33C176.96 113.33 176.59 113.69 176.59 114.12C176.59 114.59 176.96 114.95 177.40 114.95L181.04 114.95L178.45 120.82C178.40 120.93 178.38 121.05 178.38 121.17C178.38 121.64 178.75 122.08 179.30 122.08C179.68 122.08 180.03 121.86 180.17 121.52L183.19 114.63C183.24 114.53 183.26 114.39 183.26 114.27ZM191.06 117.67C191.06 115.44 189.95 113.20 187.48 113.20C184.99 113.20 183.89 115.44 183.89 117.67C183.89 119.91 184.99 122.16 187.48 122.16C189.95 122.16 191.06 119.91 191.06 117.67ZM189.18 117.67C189.18 119.27 188.71 120.52 187.48 120.52C186.23 120.52 185.76 119.27 185.76 117.67C185.76 116.07 186.23 114.84 187.48 114.84C188.71 114.84 189.18 116.07 189.18 117.67ZM194.03 121.36C194.03 120.52 193.47 120.04 192.86 120.04C192.31 120.04 191.84 120.50 191.84 121.08C191.84 121.64 192.23 122.01 192.73 122.01C192.82 122.01 192.94 121.99 192.97 121.97C192.90 122.31 192.61 122.72 192.27 122.99C192.18 123.07 192.14 123.17 192.14 123.27C192.14 123.53 192.42 123.69 192.64 123.69C192.77 123.69 192.88 123.65 192.97 123.56C193.63 122.97 194.03 122.19 194.03 121.36ZM194.95 116.16C194.95 118.01 196.34 118.98 197.90 118.98C198.98 118.98 199.79 118.45 200.13 117.87C200.14 117.93 200.14 117.98 200.14 118.05C200.14 119.43 199.24 120.50 197.97 120.50C197.53 120.50 197.16 120.43 196.84 120.26C196.72 120.19 196.59 120.17 196.46 120.17C196.06 120.17 195.61 120.48 195.61 120.97C195.61 121.10 195.65 121.22 195.71 121.32C196.03 121.90 197.12 122.14 197.97 122.14C200.53 122.14 202.01 120.28 202.01 117.66C202.01 115.21 200.91 113.19 198.27 113.19C196.29 113.19 194.95 114.47 194.95 116.16ZM196.82 116.10C196.82 115.45 197.30 114.82 198.31 114.82C199.12 114.82 199.74 115.38 199.74 116.19C199.74 116.97 199.11 117.53 198.31 117.53C197.47 117.53 196.82 116.97 196.82 116.10ZM209.91 119.15C209.91 117.40 208.60 116.34 207.13 116.34C206.34 116.34 205.64 116.66 205.22 117.07L205.22 114.95L208.61 114.95C209.04 114.95 209.41 114.59 209.41 114.15C209.41 113.69 209.04 113.33 208.61 113.33L204.41 113.33C203.84 113.33 203.38 113.80 203.38 114.37L203.38 117.70C203.38 118.20 203.74 118.58 204.31 118.58C204.57 118.58 204.82 118.50 205.03 118.36C205.49 118.05 205.95 117.94 206.48 117.94C207.47 117.94 208.04 118.46 208.04 119.23C208.04 119.93 207.46 120.52 206.43 120.52C205.81 120.52 205.21 120.35 204.70 120.04C204.55 119.95 204.38 119.89 204.22 119.89C203.77 119.89 203.34 120.25 203.34 120.73C203.34 120.86 203.38 120.99 203.44 121.10C203.84 121.78 205.31 122.16 206.44 122.16C208.54 122.16 209.91 121.00 209.91 119.15ZM217.43 119.63C217.53 118.07 216.48 117.53 216.48 117.53C216.48 117.53 217.44 117.03 217.34 115.55C217.23 114.11 216.09 113.20 214.06 113.20C212.87 113.20 211.93 113.55 211.21 114.12C211.03 114.27 210.94 114.47 210.94 114.68C210.94 115.14 211.34 115.46 211.75 115.46C211.90 115.46 212.06 115.42 212.19 115.33C212.70 115.01 213.27 114.84 213.87 114.84C214.78 114.84 215.48 115.05 215.48 115.73C215.48 116.45 215.05 116.79 214.18 116.79C213.55 116.79 213.28 117.14 213.28 117.59C213.28 118.05 213.55 118.41 214.23 118.41C215.11 118.41 215.62 118.72 215.62 119.41C215.62 120.06 215.04 120.52 213.98 120.52C213.38 120.52 212.70 120.31 212.12 119.97C211.98 119.88 211.82 119.84 211.67 119.84C211.24 119.84 210.82 120.19 210.82 120.66C210.82 120.79 210.86 120.91 210.93 121.01C211.33 121.69 212.80 122.16 214.05 122.16C216.13 122.16 217.32 121.26 217.43 119.63Z" fill="#627386" /></g><g aria-label="Changed Files: 505,951"><circle cx="22" cy="140" r="4" fill="#673bd6" /><path d="M39.11 135.19C36.59 135.19 34.60 137.01 34.60 139.67C34.60 142.34 36.59 144.16 39.11 144.16C40.46 144.16 41.40 143.60 42.07 142.87C42.18 142.76 42.23 142.62 42.23 142.47C42.23 142.15 41.97 141.87 41.63 141.87C41.46 141.87 41.28 141.95 41.18 142.08C40.64 142.67 39.88 143.01 39.11 143.01C37.29 143.01 35.94 141.61 35.94 139.67C35.94 137.72 37.29 136.33 39.11 136.33C39.86 136.33 40.67 136.69 41.18 137.28C41.28 137.42 41.46 137.49 41.62 137.49C41.96 137.49 42.23 137.21 42.23 136.89C42.23 136.73 42.18 136.59 42.07 136.47C41.41 135.73 40.46 135.19 39.11 135.19ZM49.17 139.94C49.17 138.62 48.22 137.56 46.90 137.56C45.79 137.56 45.22 138.10 44.92 138.60L44.92 135.81C44.92 135.51 44.66 135.25 44.36 135.25C44.02 135.25 43.76 135.51 43.76 135.81L43.76 143.51C43.76 143.82 44.02 144.08 44.34 144.08C44.66 144.08 44.92 143.82 44.92 143.51L44.92 140.56C44.92 139.38 45.54 138.59 46.53 138.59C47.47 138.59 48.01 139.29 48.01 140.33L48.01 143.51C48.01 143.82 48.27 144.08 48.59 144.08C48.91 144.08 49.17 143.82 49.17 143.51ZM56.09 139.75C56.09 138.15 54.92 137.56 53.56 137.56C52.72 137.56 51.77 137.84 51.17 138.44C51.09 138.53 51.06 138.63 51.06 138.74C51.06 139.01 51.30 139.19 51.54 139.19C51.63 139.19 51.73 139.15 51.82 139.09C52.29 138.72 52.81 138.54 53.40 138.54C54.28 138.54 54.93 139.01 54.93 139.80L54.93 140.15L53.12 140.15C51.82 140.15 50.68 140.66 50.68 142.08C50.68 143.45 51.82 144.16 52.86 144.16C53.84 144.16 54.42 143.86 54.93 143.30L54.93 143.51C54.93 143.88 55.23 144.08 55.46 144.08L55.50 144.08C55.83 144.08 56.09 143.82 56.09 143.51ZM54.93 140.96L54.93 141.84C54.93 142.58 54.09 143.34 53.17 143.34C52.33 143.34 51.85 142.83 51.85 142.10C51.85 141.35 52.45 140.96 53.44 140.96ZM63.34 139.97C63.34 138.64 62.38 137.56 61.05 137.56C59.96 137.56 59.40 138.10 59.10 138.60L59.10 138.20C59.10 137.90 58.84 137.64 58.54 137.64C58.21 137.64 57.95 137.90 57.95 138.20L57.95 143.51C57.95 143.82 58.21 144.08 58.52 144.08C58.84 144.08 59.10 143.82 59.10 143.51L59.10 140.49C59.10 139.42 59.67 138.59 60.68 138.59C61.61 138.59 62.18 139.32 62.18 140.36L62.18 143.51C62.18 143.82 62.44 144.08 62.76 144.08C63.08 144.08 63.34 143.82 63.34 143.51ZM70.84 138.20C70.84 137.90 70.58 137.64 70.28 137.64C69.95 137.64 69.69 137.90 69.69 138.20L69.69 138.63C69.18 137.96 68.45 137.56 67.62 137.56C65.99 137.56 64.84 138.79 64.84 140.81C64.84 142.86 66.01 144.05 67.62 144.05C68.48 144.05 69.22 143.60 69.69 142.96L69.69 143.79C69.69 145.13 68.72 145.60 67.75 145.60C67.06 145.60 66.51 145.46 66.03 145.05C65.94 144.99 65.85 144.96 65.73 144.96C65.47 144.96 65.24 145.18 65.24 145.46C65.24 145.59 65.29 145.70 65.37 145.78C65.98 146.37 66.86 146.55 67.75 146.55C69.28 146.55 70.84 145.91 70.84 143.75ZM69.69 140.83C69.69 142.12 68.84 143.03 67.80 143.03C66.63 143.03 66.03 142.10 66.03 140.81C66.03 139.50 66.63 138.59 67.80 138.59C68.84 138.59 69.69 139.49 69.69 140.78ZM78.51 140.65C78.51 140.40 78.45 140.13 78.40 139.92C78.03 138.51 76.99 137.56 75.47 137.56C73.65 137.56 72.34 139.03 72.34 140.85C72.34 142.83 73.70 144.16 75.57 144.16C76.50 144.16 78.11 143.68 78.11 142.97C78.11 142.53 77.67 142.43 77.38 142.57C76.93 142.91 76.22 143.22 75.69 143.22C74.42 143.22 73.64 142.35 73.55 141.27L77.91 141.27C78.24 141.27 78.51 140.96 78.51 140.65ZM73.55 140.41C73.60 139.54 74.21 138.50 75.46 138.50C76.80 138.50 77.37 139.57 77.39 140.41ZM85.64 135.81C85.64 135.51 85.38 135.25 85.08 135.25C84.74 135.25 84.48 135.51 84.48 135.81L84.48 138.63C83.97 137.96 83.36 137.56 82.41 137.56C80.77 137.56 79.62 138.85 79.62 140.87C79.62 142.92 80.79 144.16 82.41 144.16C83.39 144.16 84.00 143.73 84.48 143.10L84.48 143.51C84.48 143.82 84.74 144.08 85.05 144.08C85.38 144.08 85.64 143.82 85.64 143.51ZM84.48 140.91C84.48 142.21 83.83 143.13 82.71 143.13C81.54 143.13 80.81 142.18 80.81 140.87C80.81 139.55 81.54 138.59 82.71 138.59C83.83 138.59 84.48 139.54 84.48 140.83ZM96.76 135.91C96.76 135.58 96.52 135.33 96.20 135.33L91.73 135.33C91.27 135.33 90.89 135.71 90.89 136.17L90.89 143.44C90.89 143.79 91.17 144.08 91.52 144.08C91.89 144.08 92.17 143.79 92.17 143.44L92.17 140.15L96.11 140.15C96.43 140.15 96.67 139.89 96.67 139.59C96.67 139.25 96.43 139.01 96.11 139.01L92.17 139.01L92.17 136.47L96.20 136.47C96.52 136.47 96.76 136.21 96.76 135.91ZM98.65 135.39C98.25 135.39 97.91 135.73 97.91 136.15C97.91 136.55 98.25 136.89 98.65 136.89C99.06 136.89 99.39 136.55 99.39 136.15C99.39 135.73 99.06 135.39 98.65 135.39ZM99.23 138.20C99.23 137.90 98.97 137.64 98.67 137.64C98.34 137.64 98.08 137.90 98.08 138.20L98.08 143.51C98.08 143.82 98.34 144.08 98.65 144.08C98.97 144.08 99.23 143.82 99.23 143.51ZM102.26 135.81C102.26 135.51 102.00 135.25 101.70 135.25C101.37 135.25 101.11 135.51 101.11 135.81L101.11 143.51C101.11 143.82 101.37 144.08 101.68 144.08C102.00 144.08 102.26 143.82 102.26 143.51ZM109.93 140.65C109.93 140.40 109.87 140.13 109.82 139.92C109.45 138.51 108.41 137.56 106.89 137.56C105.07 137.56 103.76 139.03 103.76 140.85C103.76 142.83 105.12 144.16 106.99 144.16C107.92 144.16 109.53 143.68 109.53 142.97C109.53 142.53 109.09 142.43 108.80 142.57C108.35 142.91 107.64 143.22 107.11 143.22C105.84 143.22 105.06 142.35 104.97 141.27L109.33 141.27C109.66 141.27 109.93 140.96 109.93 140.65ZM104.97 140.41C105.02 139.54 105.63 138.50 106.88 138.50C108.22 138.50 108.79 139.57 108.81 140.41ZM116.02 142.10C115.90 139.89 112.30 140.50 112.17 139.37C112.12 138.87 112.66 138.49 113.46 138.49C114.05 138.49 114.61 138.68 115.02 138.97C115.09 139.03 115.18 139.06 115.29 139.06C115.52 139.06 115.74 138.87 115.74 138.60C115.74 138.50 115.70 138.40 115.63 138.32C115.13 137.84 114.34 137.56 113.44 137.56C111.91 137.56 110.99 138.29 111.05 139.41C111.17 141.52 114.76 140.87 114.89 142.26C114.94 142.83 114.42 143.23 113.52 143.23C112.87 143.23 112.22 142.97 111.75 142.63C111.66 142.57 111.57 142.54 111.45 142.54C111.18 142.54 110.95 142.75 110.95 143.03C110.95 143.16 111.00 143.26 111.09 143.34C111.66 143.91 112.61 144.16 113.47 144.16C115.13 144.16 116.08 143.30 116.02 142.10Z" fill="#22272e" /><path d="M177.10 141.15C177.10 139.40 175.79 138.34 174.32 138.34C173.53 138.34 172.82 138.66 172.41 139.07L172.41 136.95L175.80 136.95C176.23 136.95 176.59 136.59 176.59 136.15C176.59 135.69 176.23 135.33 175.80 135.33L171.60 135.33C171.03 135.33 170.56 135.80 170.56 136.37L170.56 139.70C170.56 140.20 170.93 140.58 171.50 140.58C171.76 140.58 172.01 140.50 172.21 140.36C172.68 140.05 173.14 139.94 173.67 139.94C174.66 139.94 175.23 140.46 175.23 141.23C175.23 141.93 174.64 142.52 173.62 142.52C172.99 142.52 172.40 142.35 171.89 142.04C171.73 141.95 171.56 141.89 171.41 141.89C170.95 141.89 170.52 142.25 170.52 142.73C170.52 142.86 170.56 142.99 170.63 143.10C171.03 143.78 172.50 144.16 173.63 144.16C175.72 144.16 177.10 143.00 177.10 141.15ZM185.17 139.67C185.17 137.44 184.06 135.20 181.59 135.20C179.10 135.20 178.00 137.44 178.00 139.67C178.00 141.91 179.10 144.16 181.59 144.16C184.06 144.16 185.17 141.91 185.17 139.67ZM183.29 139.67C183.29 141.27 182.82 142.52 181.59 142.52C180.34 142.52 179.87 141.27 179.87 139.67C179.87 138.07 180.34 136.84 181.59 136.84C182.82 136.84 183.29 138.07 183.29 139.67ZM193.07 141.15C193.07 139.40 191.75 138.34 190.28 138.34C189.49 138.34 188.79 138.66 188.37 139.07L188.37 136.95L191.77 136.95C192.19 136.95 192.56 136.59 192.56 136.15C192.56 135.69 192.19 135.33 191.77 135.33L187.57 135.33C187.00 135.33 186.53 135.80 186.53 136.37L186.53 139.70C186.53 140.20 186.89 140.58 187.46 140.58C187.72 140.58 187.97 140.50 188.18 140.36C188.65 140.05 189.10 139.94 189.63 139.94C190.62 139.94 191.19 140.46 191.19 141.23C191.19 141.93 190.61 142.52 189.58 142.52C188.96 142.52 188.36 142.35 187.85 142.04C187.70 141.95 187.53 141.89 187.37 141.89C186.92 141.89 186.49 142.25 186.49 142.73C186.49 142.86 186.53 142.99 186.59 143.10C187.00 143.78 188.46 144.16 189.59 144.16C191.69 144.16 193.07 143.00 193.07 141.15ZM196.32 143.36C196.32 142.52 195.76 142.04 195.15 142.04C194.60 142.04 194.13 142.50 194.13 143.08C194.13 143.64 194.52 144.01 195.02 144.01C195.11 144.01 195.22 143.99 195.26 143.97C195.18 144.31 194.90 144.72 194.56 144.99C194.47 145.07 194.43 145.17 194.43 145.27C194.43 145.53 194.70 145.69 194.92 145.69C195.05 145.69 195.17 145.65 195.26 145.56C195.91 144.97 196.32 144.19 196.32 143.36ZM197.24 138.16C197.24 140.01 198.63 140.98 200.19 140.98C201.27 140.98 202.07 140.45 202.41 139.87C202.43 139.93 202.43 139.98 202.43 140.05C202.43 141.43 201.53 142.50 200.25 142.50C199.81 142.50 199.45 142.43 199.12 142.26C199.01 142.19 198.88 142.17 198.75 142.17C198.34 142.17 197.90 142.48 197.90 142.97C197.90 143.10 197.94 143.22 197.99 143.32C198.32 143.90 199.41 144.14 200.25 144.14C202.82 144.14 204.30 142.28 204.30 139.66C204.30 137.21 203.19 135.19 200.55 135.19C198.58 135.19 197.24 136.47 197.24 138.16ZM199.11 138.10C199.11 137.45 199.59 136.82 200.59 136.82C201.41 136.82 202.02 137.38 202.02 138.19C202.02 138.97 201.40 139.53 200.59 139.53C199.76 139.53 199.11 138.97 199.11 138.10ZM212.20 141.15C212.20 139.40 210.89 138.34 209.42 138.34C208.63 138.34 207.92 138.66 207.51 139.07L207.51 136.95L210.90 136.95C211.33 136.95 211.69 136.59 211.69 136.15C211.69 135.69 211.33 135.33 210.90 135.33L206.70 135.33C206.13 135.33 205.66 135.80 205.66 136.37L205.66 139.70C205.66 140.20 206.03 140.58 206.60 140.58C206.86 140.58 207.11 140.50 207.31 140.36C207.78 140.05 208.24 139.94 208.77 139.94C209.76 139.94 210.33 140.46 210.33 141.23C210.33 141.93 209.74 142.52 208.72 142.52C208.09 142.52 207.50 142.35 206.99 142.04C206.83 141.95 206.66 141.89 206.51 141.89C206.05 141.89 205.62 142.25 205.62 142.73C205.62 142.86 205.66 142.99 205.73 143.10C206.13 143.78 207.60 144.16 208.73 144.16C210.82 144.16 212.20 143.00 212.20 141.15ZM217.14 136.32C217.14 135.73 216.65 135.26 216.06 135.26C215.76 135.26 215.48 135.38 215.28 135.58L213.28 137.60C213.12 137.76 213.05 137.96 213.05 138.15C213.05 138.58 213.41 138.92 213.81 138.92C214.00 138.92 214.18 138.85 214.32 138.71L215.30 137.71L215.30 143.17C215.30 143.66 215.71 144.08 216.21 144.08C216.73 144.08 217.14 143.66 217.14 143.17Z" fill="#627386" /></g><rect x="18" y="166" width="384" height="8" rx="4" fill="#f4faff" /><rect x="18.00" y="166" width="266.27" height="8" rx="4" fill="#00d559" /><rect x="284.27" y="166" width="117.73" height="8" rx="4" fill="#00a5fe" /></svg>