<svg xmlns="http://www.w3.org/2000/svg" width="420" height="184" viewBox="0 0 420 184" role="img"><rect x="0.5" y="0.5" width="419" height="183" rx="10" fill="#161b22" stroke="#30363d" /><path d="M30.72 33.60C30.72 32.83 30.10 32.21 29.37 32.21L28.69 32.21L28.69 24.95C28.69 23.59 27.37 22.97 26.03 23.19C25.08 23.19 24.14 23.70 23.63 24.49L18.73 32.24C18.53 32.54 18.44 32.90 18.44 33.25C18.44 34.24 19.17 34.96 20.05 34.96L25.57 34.96L25.57 36.59C25.57 37.43 26.27 38.13 27.11 38.13C27.99 38.13 28.69 37.43 28.69 36.59L28.69 34.96L29.37 34.96C30.10 34.96 30.72 34.35 30.72 33.60ZM21.61 32.21L25.57 26.10L25.57 32.21ZM43.70 33.97C43.70 31.97 42.51 30.83 41.63 30.43C42.38 30.08 43.45 29.24 43.45 26.98C43.45 24.45 40.73 23.11 37.80 23.11C34.85 23.11 32.15 24.45 32.15 26.98C32.15 29.24 33.20 30.08 33.95 30.43C33.07 30.83 31.90 31.97 31.90 33.97C31.90 36.72 34.72 38.26 37.80 38.26C40.88 38.26 43.70 36.70 43.70 33.97ZM40.26 27.46C40.26 28.56 39.14 29.20 37.80 29.20C36.46 29.20 35.31 28.56 35.31 27.46C35.31 26.41 36.35 25.79 37.80 25.79C39.23 25.79 40.26 26.41 40.26 27.46ZM40.53 33.80C40.53 34.88 39.30 35.58 37.80 35.58C36.26 35.58 35.07 34.88 35.07 33.80C35.07 32.57 36.44 31.84 37.80 31.84C39.14 31.84 40.53 32.57 40.53 33.80ZM49.20 36.92C49.20 35.49 48.25 34.68 47.22 34.68C46.29 34.68 45.50 35.47 45.50 36.44C45.50 37.38 46.16 38.02 47.00 38.02C47.15 38.02 47.35 37.98 47.41 37.96C47.28 38.53 46.80 39.21 46.23 39.67C46.07 39.80 46.01 39.98 46.01 40.16C46.01 40.60 46.47 40.86 46.84 40.86C47.06 40.86 47.26 40.79 47.41 40.64C48.51 39.65 49.20 38.33 49.20 36.92ZM55.51 25.00C55.51 24.01 54.67 23.22 53.68 23.22C53.18 23.22 52.69 23.41 52.36 23.74L48.98 27.18C48.71 27.44 48.58 27.77 48.58 28.10C48.58 28.83 49.20 29.40 49.88 29.40C50.19 29.40 50.49 29.29 50.74 29.05L52.39 27.35L52.39 36.59C52.39 37.43 53.09 38.13 53.93 38.13C54.81 38.13 55.51 37.43 55.51 36.59ZM69.57 33.18C69.57 30.21 67.35 28.43 64.86 28.43C63.52 28.43 62.33 28.96 61.63 29.66L61.63 26.08L67.37 26.08C68.09 26.08 68.71 25.46 68.71 24.71C68.71 23.94 68.09 23.33 67.37 23.33L60.26 23.33C59.29 23.33 58.50 24.12 58.50 25.09L58.50 30.72C58.50 31.58 59.12 32.21 60.09 32.21C60.53 32.21 60.94 32.08 61.30 31.84C62.09 31.31 62.86 31.14 63.76 31.14C65.43 31.14 66.40 32.02 66.40 33.31C66.40 34.50 65.41 35.49 63.67 35.49C62.62 35.49 61.60 35.21 60.75 34.68C60.48 34.52 60.20 34.44 59.93 34.44C59.16 34.44 58.44 35.03 58.44 35.84C58.44 36.06 58.50 36.28 58.61 36.48C59.29 37.63 61.78 38.26 63.69 38.26C67.24 38.26 69.57 36.31 69.57 33.18ZM82.94 33.18C82.94 30.21 80.72 28.43 78.24 28.43C76.89 28.43 75.71 28.96 75.00 29.66L75.00 26.08L80.74 26.08C81.47 26.08 82.09 25.46 82.09 24.71C82.09 23.94 81.47 23.33 80.74 23.33L73.64 23.33C72.67 23.33 71.88 24.12 71.88 25.09L71.88 30.72C71.88 31.58 72.49 32.21 73.46 32.21C73.90 32.21 74.32 32.08 74.67 31.84C75.46 31.31 76.23 31.14 77.14 31.14C78.81 31.14 79.78 32.02 79.78 33.31C79.78 34.50 78.79 35.49 77.05 35.49C75.99 35.49 74.98 35.21 74.12 34.68C73.86 34.52 73.57 34.44 73.31 34.44C72.54 34.44 71.81 35.03 71.81 35.84C71.81 36.06 71.88 36.28 71.99 36.48C72.67 37.63 75.16 38.26 77.07 38.26C80.61 38.26 82.94 36.31 82.94 33.18ZM97.90 23.08C93.50 23.08 90.09 26.16 90.09 30.67C90.09 35.18 93.50 38.26 97.90 38.26C100.43 38.26 102.13 37.16 103.23 35.82C103.45 35.58 103.54 35.27 103.54 34.96C103.54 34.22 102.90 33.60 102.11 33.60C101.67 33.60 101.23 33.78 100.92 34.11C100.10 35.01 99.00 35.49 97.90 35.49C95.24 35.49 93.31 33.45 93.31 30.67C93.31 27.90 95.24 25.86 97.90 25.86C99.00 25.86 100.08 26.38 100.92 27.26C101.23 27.59 101.64 27.77 102.06 27.77C102.88 27.77 103.56 27.15 103.56 26.36C103.56 26.08 103.45 25.75 103.25 25.50C102.13 24.16 100.43 23.08 97.90 23.08ZM116.41 32.68C116.41 29.66 114.29 27.11 110.77 27.11C107.28 27.11 105.16 29.66 105.16 32.68C105.16 35.71 107.28 38.26 110.77 38.26C114.29 38.26 116.41 35.71 116.41 32.68ZM113.50 32.68C113.50 34.35 112.51 35.78 110.77 35.78C109.04 35.78 108.07 34.35 108.07 32.68C108.07 31.03 109.04 29.60 110.77 29.60C112.51 29.60 113.50 31.03 113.50 32.68ZM134.47 31.20C134.47 29.02 132.95 27.11 130.55 27.11C128.70 27.11 127.65 28.19 127.25 28.94C126.86 28.17 125.87 27.11 124.08 27.11C122.46 27.11 121.71 27.70 121.27 28.28L121.27 28.25C121.27 27.95 120.87 27.24 119.90 27.24C119.09 27.24 118.47 27.86 118.47 28.61L118.47 36.75C118.47 37.52 119.09 38.13 119.86 38.13C120.65 38.13 121.27 37.52 121.27 36.75L121.27 31.73C121.27 30.70 122.06 29.60 123.25 29.60C124.39 29.60 125.05 30.74 125.05 31.73L125.05 36.75C125.05 37.52 125.67 38.13 126.44 38.13C127.25 38.13 127.87 37.52 127.87 36.75L127.87 31.93C127.87 30.70 128.64 29.60 129.85 29.60C130.99 29.60 131.65 30.74 131.65 31.73L131.65 36.75C131.65 37.52 132.27 38.13 133.04 38.13C133.85 38.13 134.47 37.52 134.47 36.75ZM153.21 31.20C153.21 29.02 151.69 27.11 149.30 27.11C147.45 27.11 146.39 28.19 146.00 28.94C145.60 28.17 144.61 27.11 142.83 27.11C141.20 27.11 140.45 27.70 140.01 28.28L140.01 28.25C140.01 27.95 139.62 27.24 138.65 27.24C137.83 27.24 137.22 27.86 137.22 28.61L137.22 36.75C137.22 37.52 137.83 38.13 138.60 38.13C139.40 38.13 140.01 37.52 140.01 36.75L140.01 31.73C140.01 30.70 140.80 29.60 141.99 29.60C143.14 29.60 143.80 30.74 143.80 31.73L143.80 36.75C143.80 37.52 144.41 38.13 145.18 38.13C146.00 38.13 146.61 37.52 146.61 36.75L146.61 31.93C146.61 30.70 147.38 29.60 148.59 29.60C149.74 29.60 150.40 30.74 150.40 31.73L150.40 36.75C150.40 37.52 151.01 38.13 151.78 38.13C152.60 38.13 153.21 37.52 153.21 36.75ZM157.35 22.91C156.45 22.91 155.68 23.63 155.68 24.56C155.68 25.48 156.45 26.23 157.35 26.23C158.27 26.23 159.02 25.48 159.02 24.56C159.02 23.63 158.27 22.91 157.35 22.91ZM158.76 28.61C158.76 27.86 158.14 27.24 157.39 27.24C156.58 27.24 155.96 27.86 155.96 28.61L155.96 36.75C155.96 37.52 156.58 38.13 157.35 38.13C158.14 38.13 158.76 37.52 158.76 36.75ZM167.34 36.99C167.34 36.31 166.90 35.78 166.10 35.78L165.86 35.78C165.42 35.78 164.89 35.45 164.89 34.61L164.89 29.82L165.99 29.82C166.63 29.82 167.18 29.27 167.18 28.61C167.18 27.92 166.63 27.37 165.99 27.37L164.89 27.37L164.89 25.72C164.89 24.95 164.28 24.34 163.51 24.34C162.69 24.34 162.08 24.95 162.08 25.72L162.08 27.37L161.40 27.37C160.74 27.37 160.19 27.92 160.19 28.56C160.19 29.27 160.74 29.82 161.40 29.82L162.08 29.82L162.08 35.36C162.08 37.25 163.13 38.26 165.09 38.26C166.92 38.26 167.34 37.69 167.34 36.99ZM177.39 34.85C177.39 30.56 171.10 31.88 171.10 30.30C171.10 29.71 171.76 29.24 172.77 29.24C173.63 29.24 174.49 29.49 175.17 29.88C175.32 29.97 175.52 30.01 175.70 30.01C176.27 30.01 176.80 29.55 176.80 28.96C176.80 28.76 176.73 28.56 176.62 28.41C176.03 27.55 174.13 27.11 172.75 27.11C169.95 27.11 168.39 28.67 168.39 30.45C168.39 34.63 174.71 33.20 174.71 34.96C174.71 35.62 174.13 36.11 172.92 36.11C172.00 36.11 170.90 35.73 170.06 35.25C169.89 35.14 169.69 35.10 169.49 35.10C168.90 35.10 168.33 35.60 168.33 36.26C168.33 36.48 168.39 36.68 168.52 36.86C169.18 37.80 171.41 38.26 172.79 38.26C175.74 38.26 177.39 36.79 177.39 34.85Z" fill="#e6edf3" /><path d="M20.26 49.88C20.26 49.54 19.98 49.25 19.64 49.25C19.26 49.25 18.98 49.54 18.98 49.88L18.98 57.44C18.98 57.79 19.26 58.08 19.61 58.08C19.98 58.08 20.26 57.79 20.26 57.44ZM27.55 53.97C27.55 52.64 26.59 51.56 25.27 51.56C24.18 51.56 23.62 52.10 23.32 52.60L23.32 52.20C23.32 51.90 23.06 51.64 22.76 51.64C22.42 51.64 22.16 51.90 22.16 52.20L22.16 57.51C22.16 57.82 22.42 58.08 22.73 58.08C23.06 58.08 23.32 57.82 23.32 57.51L23.32 54.49C23.32 53.42 23.89 52.59 24.89 52.59C25.83 52.59 26.40 53.32 26.40 54.36L26.40 57.51C26.40 57.82 26.66 58.08 26.97 58.08C27.30 58.08 27.55 57.82 27.55 57.51ZM38.97 49.91C38.97 49.58 38.72 49.33 38.41 49.33L32.70 49.33C32.39 49.33 32.14 49.58 32.14 49.89C32.14 50.21 32.39 50.47 32.70 50.47L34.91 50.47L34.91 57.44C34.91 57.79 35.20 58.08 35.55 58.08C35.91 58.08 36.20 57.79 36.20 57.44L36.20 50.47L38.41 50.47C38.72 50.47 38.97 50.21 38.97 49.91ZM44.74 54.85C44.74 53.05 43.53 51.56 41.57 51.56C39.62 51.56 38.41 53.05 38.41 54.85C38.41 56.66 39.62 58.16 41.57 58.16C43.53 58.16 44.74 56.66 44.74 54.85ZM43.53 54.85C43.53 56.06 42.83 57.13 41.57 57.13C40.32 57.13 39.61 56.06 39.61 54.85C39.61 53.66 40.32 52.59 41.57 52.59C42.83 52.59 43.53 53.66 43.53 54.85ZM49.16 57.55C49.16 57.27 48.95 57.06 48.67 57.06C48.54 57.06 48.38 57.13 48.24 57.13C47.86 57.13 47.63 56.83 47.63 56.35L47.63 52.73L48.48 52.73C48.76 52.73 48.98 52.51 48.98 52.24C48.98 51.94 48.76 51.72 48.48 51.72L47.63 51.72L47.63 50.49C47.63 50.19 47.37 49.93 47.05 49.93C46.72 49.93 46.46 50.19 46.46 50.49L46.46 51.72L45.85 51.72C45.56 51.72 45.34 51.94 45.34 52.22C45.34 52.51 45.56 52.73 45.85 52.73L46.46 52.73L46.46 56.62C46.46 57.61 46.98 58.16 47.96 58.16C48.65 58.16 49.16 57.96 49.16 57.55ZM55.26 53.75C55.26 52.15 54.09 51.56 52.74 51.56C51.89 51.56 50.94 51.84 50.34 52.44C50.27 52.53 50.23 52.63 50.23 52.73C50.23 53.01 50.47 53.19 50.71 53.19C50.80 53.19 50.90 53.15 50.99 53.09C51.46 52.72 51.98 52.54 52.57 52.54C53.45 52.54 54.10 53.01 54.10 53.80L54.10 54.15L52.29 54.15C50.99 54.15 49.85 54.66 49.85 56.08C49.85 57.45 50.99 58.16 52.03 58.16C53.01 58.16 53.59 57.86 54.10 57.30L54.10 57.51C54.10 57.88 54.40 58.08 54.63 58.08L54.67 58.08C55.00 58.08 55.26 57.82 55.26 57.51ZM54.10 54.96L54.10 55.84C54.10 56.58 53.26 57.34 52.35 57.34C51.50 57.34 51.02 56.83 51.02 56.10C51.02 55.35 51.62 54.96 52.61 54.96ZM58.27 49.81C58.27 49.51 58.01 49.25 57.71 49.25C57.38 49.25 57.12 49.51 57.12 49.81L57.12 57.51C57.12 57.82 57.38 58.08 57.69 58.08C58.01 58.08 58.27 57.82 58.27 57.51Z" fill="#9aa7b4" /><line x1="18" y1="76" x2="48" y2="76" stroke="#9aa7b4" stroke-opacity="0.4" /><g aria-label="Additions: 34,093,440"><circle cx="22" cy="96" r="4" fill="#00d559" /><path d="M42.28 99.39C42.28 99.31 42.27 99.23 42.23 99.14L39.36 91.94C39.19 91.51 38.76 91.24 38.30 91.25C37.85 91.25 37.43 91.52 37.28 91.94L34.40 99.14C34.38 99.23 34.36 99.31 34.36 99.39C34.36 99.74 34.65 100.08 35.05 100.08C35.33 100.08 35.57 99.92 35.68 99.66L36.25 98.19L40.40 98.19L40.97 99.66C41.07 99.92 41.32 100.08 41.59 100.08C42.01 100.08 42.28 99.71 42.28 99.39ZM38.32 92.64L40.03 97.06L36.61 97.06ZM49.22 91.81C49.22 91.51 48.96 91.25 48.66 91.25C48.33 91.25 48.07 91.51 48.07 91.81L48.07 94.63C47.56 93.95 46.95 93.56 46.00 93.56C44.36 93.56 43.20 94.85 43.20 96.87C43.20 98.92 44.37 100.16 46.00 100.16C46.97 100.16 47.59 99.73 48.07 99.10L48.07 99.51C48.07 99.82 48.33 100.08 48.64 100.08C48.96 100.08 49.22 99.82 49.22 99.51ZM48.07 96.91C48.07 98.21 47.42 99.13 46.30 99.13C45.13 99.13 44.40 98.18 44.40 96.87C44.40 95.55 45.13 94.59 46.30 94.59C47.42 94.59 48.07 95.54 48.07 96.83ZM56.74 91.81C56.74 91.51 56.48 91.25 56.18 91.25C55.84 91.25 55.58 91.51 55.58 91.81L55.58 94.63C55.07 93.95 54.46 93.56 53.51 93.56C51.88 93.56 50.72 94.85 50.72 96.87C50.72 98.92 51.89 100.16 53.51 100.16C54.49 100.16 55.10 99.73 55.58 99.10L55.58 99.51C55.58 99.82 55.84 100.08 56.15 100.08C56.48 100.08 56.74 99.82 56.74 99.51ZM55.58 96.91C55.58 98.21 54.93 99.13 53.81 99.13C52.64 99.13 51.91 98.18 51.91 96.87C51.91 95.55 52.64 94.59 53.81 94.59C54.93 94.59 55.58 95.54 55.58 96.83ZM59.18 91.39C58.78 91.39 58.44 91.73 58.44 92.15C58.44 92.55 58.78 92.89 59.18 92.89C59.60 92.89 59.92 92.55 59.92 92.15C59.92 91.73 59.60 91.39 59.18 91.39ZM59.77 94.20C59.77 93.90 59.51 93.64 59.21 93.64C58.87 93.64 58.61 93.90 58.61 94.20L58.61 99.51C58.61 99.82 58.87 100.08 59.18 100.08C59.51 100.08 59.77 99.82 59.77 99.51ZM64.56 99.55C64.56 99.27 64.36 99.06 64.07 99.06C63.94 99.06 63.78 99.13 63.64 99.13C63.26 99.13 63.03 98.83 63.03 98.35L63.03 94.73L63.89 94.73C64.16 94.73 64.38 94.51 64.38 94.24C64.38 93.94 64.16 93.72 63.89 93.72L63.03 93.72L63.03 92.49C63.03 92.19 62.77 91.93 62.46 91.93C62.12 91.93 61.86 92.19 61.86 92.49L61.86 93.72L61.25 93.72C60.96 93.72 60.74 93.94 60.74 94.22C60.74 94.51 60.96 94.73 61.25 94.73L61.86 94.73L61.86 98.62C61.86 99.61 62.38 100.16 63.37 100.16C64.06 100.16 64.56 99.96 64.56 99.55ZM66.19 91.39C65.79 91.39 65.45 91.73 65.45 92.15C65.45 92.55 65.79 92.89 66.19 92.89C66.60 92.89 66.93 92.55 66.93 92.15C66.93 91.73 66.60 91.39 66.19 91.39ZM66.77 94.20C66.77 93.90 66.51 93.64 66.21 93.64C65.88 93.64 65.62 93.90 65.62 94.20L65.62 99.51C65.62 99.82 65.88 100.08 66.19 100.08C66.51 100.08 66.77 99.82 66.77 99.51ZM74.60 96.85C74.60 95.05 73.39 93.56 71.43 93.56C69.48 93.56 68.27 95.05 68.27 96.85C68.27 98.66 69.48 100.16 71.43 100.16C73.39 100.16 74.60 98.66 74.60 96.85ZM73.39 96.85C73.39 98.06 72.69 99.13 71.43 99.13C70.18 99.13 69.46 98.06 69.46 96.85C69.46 95.66 70.18 94.59 71.43 94.59C72.69 94.59 73.39 95.66 73.39 96.85ZM81.49 95.97C81.49 94.64 80.53 93.56 79.20 93.56C78.11 93.56 77.55 94.10 77.25 94.61L77.25 94.20C77.25 93.90 76.99 93.64 76.69 93.64C76.35 93.64 76.09 93.90 76.09 94.20L76.09 99.51C76.09 99.82 76.35 100.08 76.67 100.08C76.99 100.08 77.25 99.82 77.25 99.51L77.25 96.49C77.25 95.42 77.82 94.59 78.82 94.59C79.76 94.59 80.33 95.32 80.33 96.36L80.33 99.51C80.33 99.82 80.59 100.08 80.90 100.08C81.23 100.08 81.49 99.82 81.49 99.51ZM87.96 98.10C87.85 95.89 84.24 96.50 84.11 95.37C84.06 94.86 84.61 94.49 85.40 94.49C86 94.49 86.56 94.68 86.96 94.97C87.04 95.03 87.13 95.06 87.23 95.06C87.47 95.06 87.69 94.86 87.69 94.61C87.69 94.50 87.65 94.40 87.57 94.32C87.08 93.84 86.29 93.56 85.39 93.56C83.86 93.56 82.93 94.29 83.00 95.41C83.11 97.52 86.70 96.87 86.83 98.26C86.88 98.83 86.36 99.23 85.47 99.23C84.82 99.23 84.17 98.97 83.70 98.64C83.61 98.57 83.52 98.54 83.40 98.54C83.13 98.54 82.89 98.75 82.89 99.03C82.89 99.16 82.94 99.26 83.04 99.34C83.61 99.91 84.56 100.16 85.41 100.16C87.08 100.16 88.03 99.30 87.96 98.10Z" fill="#e6edf3" /><path d="M156.11 97.63C156.21 96.07 155.16 95.53 155.16 95.53C155.16 95.53 156.12 95.03 156.02 93.55C155.91 92.11 154.77 91.20 152.74 91.20C151.54 91.20 150.61 91.55 149.89 92.12C149.71 92.27 149.62 92.47 149.62 92.68C149.62 93.14 150.02 93.46 150.43 93.46C150.58 93.46 150.74 93.42 150.87 93.33C151.38 93.01 151.95 92.84 152.55 92.84C153.46 92.84 154.16 93.05 154.16 93.73C154.16 94.45 153.73 94.79 152.86 94.79C152.23 94.79 151.96 95.14 151.96 95.59C151.96 96.05 152.23 96.41 152.91 96.41C153.79 96.41 154.30 96.72 154.30 97.41C154.30 98.06 153.72 98.52 152.66 98.52C152.06 98.52 151.38 98.31 150.80 97.97C150.66 97.88 150.50 97.84 150.35 97.84C149.92 97.84 149.50 98.19 149.50 98.66C149.50 98.79 149.54 98.91 149.61 99.01C150.01 99.69 151.48 100.16 152.73 100.16C154.81 100.16 156.00 99.26 156.11 97.63ZM164.19 97.40C164.19 96.94 163.83 96.58 163.40 96.58L163.00 96.58L163.00 92.29C163.00 91.48 162.22 91.12 161.42 91.25C160.87 91.25 160.31 91.55 160.01 92.02L157.11 96.59C156.99 96.78 156.94 96.98 156.94 97.19C156.94 97.78 157.37 98.21 157.89 98.21L161.15 98.21L161.15 99.17C161.15 99.66 161.57 100.08 162.06 100.08C162.58 100.08 163.00 99.66 163.00 99.17L163.00 98.21L163.40 98.21C163.83 98.21 164.19 97.84 164.19 97.40ZM158.81 96.58L161.15 92.97L161.15 96.58ZM167.23 99.36C167.23 98.52 166.68 98.04 166.06 98.04C165.52 98.04 165.05 98.50 165.05 99.08C165.05 99.64 165.44 100.01 165.94 100.01C166.03 100.01 166.14 99.99 166.18 99.97C166.10 100.31 165.82 100.72 165.48 100.99C165.39 101.07 165.35 101.17 165.35 101.27C165.35 101.53 165.62 101.69 165.84 101.69C165.97 101.69 166.09 101.65 166.18 101.56C166.83 100.97 167.23 100.19 167.23 99.36ZM175.11 95.67C175.11 93.44 174.00 91.20 171.53 91.20C169.04 91.20 167.94 93.44 167.94 95.67C167.94 97.91 169.04 100.16 171.53 100.16C174.00 100.16 175.11 97.91 175.11 95.67ZM173.23 95.67C173.23 97.27 172.76 98.52 171.53 98.52C170.28 98.52 169.81 97.27 169.81 95.67C169.81 94.07 170.28 92.84 171.53 92.84C172.76 92.84 173.23 94.07 173.23 95.67ZM175.94 94.16C175.94 96.01 177.34 96.98 178.90 96.98C179.97 96.98 180.78 96.45 181.12 95.87C181.13 95.93 181.13 95.98 181.13 96.05C181.13 97.43 180.24 98.50 178.96 98.50C178.52 98.50 178.16 98.43 177.83 98.26C177.71 98.19 177.58 98.17 177.45 98.17C177.05 98.17 176.61 98.48 176.61 98.97C176.61 99.10 176.65 99.22 176.70 99.32C177.02 99.90 178.12 100.14 178.96 100.14C181.52 100.14 183.00 98.28 183.00 95.66C183.00 93.21 181.90 91.19 179.26 91.19C177.28 91.19 175.94 92.47 175.94 94.16ZM177.82 94.10C177.82 93.45 178.30 92.82 179.30 92.82C180.12 92.82 180.73 93.38 180.73 94.19C180.73 94.97 180.11 95.53 179.30 95.53C178.47 95.53 177.82 94.97 177.82 94.10ZM190.52 97.63C190.62 96.07 189.57 95.53 189.57 95.53C189.57 95.53 190.53 95.03 190.43 93.55C190.32 92.11 189.18 91.20 187.15 91.20C185.96 91.20 185.02 91.55 184.30 92.12C184.12 92.27 184.03 92.47 184.03 92.68C184.03 93.14 184.43 93.46 184.84 93.46C184.99 93.46 185.15 93.42 185.28 93.33C185.79 93.01 186.36 92.84 186.96 92.84C187.87 92.84 188.57 93.05 188.57 93.73C188.57 94.45 188.14 94.79 187.27 94.79C186.64 94.79 186.37 95.14 186.37 95.59C186.37 96.05 186.64 96.41 187.32 96.41C188.20 96.41 188.71 96.72 188.71 97.41C188.71 98.06 188.13 98.52 187.07 98.52C186.47 98.52 185.79 98.31 185.21 97.97C185.07 97.88 184.91 97.84 184.76 97.84C184.33 97.84 183.91 98.19 183.91 98.66C183.91 98.79 183.95 98.91 184.02 99.01C184.42 99.69 185.89 100.16 187.14 100.16C189.22 100.16 190.41 99.26 190.52 97.63ZM193.88 99.36C193.88 98.52 193.33 98.04 192.72 98.04C192.17 98.04 191.70 98.50 191.70 99.08C191.70 99.64 192.09 100.01 192.59 100.01C192.68 100.01 192.79 99.99 192.83 99.97C192.75 100.31 192.47 100.72 192.13 100.99C192.04 101.07 192 101.17 192 101.27C192 101.53 192.27 101.69 192.49 101.69C192.62 101.69 192.74 101.65 192.83 101.56C193.48 100.97 193.88 100.19 193.88 99.36ZM201.93 97.40C201.93 96.94 201.57 96.58 201.14 96.58L200.74 96.58L200.74 92.29C200.74 91.48 199.96 91.12 199.16 91.25C198.60 91.25 198.05 91.55 197.75 92.02L194.85 96.59C194.73 96.78 194.68 96.98 194.68 97.19C194.68 97.78 195.11 98.21 195.63 98.21L198.89 98.21L198.89 99.17C198.89 99.66 199.31 100.08 199.80 100.08C200.32 100.08 200.74 99.66 200.74 99.17L200.74 98.21L201.14 98.21C201.57 98.21 201.93 97.84 201.93 97.40ZM196.55 96.58L198.89 92.97L198.89 96.58ZM209.69 97.40C209.69 96.94 209.33 96.58 208.90 96.58L208.50 96.58L208.50 92.29C208.50 91.48 207.72 91.12 206.92 91.25C206.37 91.25 205.81 91.55 205.51 92.02L202.61 96.59C202.49 96.78 202.44 96.98 202.44 97.19C202.44 97.78 202.87 98.21 203.39 98.21L206.65 98.21L206.65 99.17C206.65 99.66 207.07 100.08 207.56 100.08C208.08 100.08 208.50 99.66 208.50 99.17L208.50 98.21L208.90 98.21C209.33 98.21 209.69 97.84 209.69 97.40ZM204.31 96.58L206.65 92.97L206.65 96.58ZM217.56 95.67C217.56 93.44 216.44 91.20 213.97 91.20C211.49 91.20 210.38 93.44 210.38 95.67C210.38 97.91 211.49 100.16 213.97 100.16C216.44 100.16 217.56 97.91 217.56 95.67ZM215.67 95.67C215.67 97.27 215.20 98.52 213.97 98.52C212.72 98.52 212.25 97.27 212.25 95.67C212.25 94.07 212.72 92.84 213.97 92.84C215.20 92.84 215.67 94.07 215.67 95.67Z" fill="#9aa7b4" /></g><g aria-label="Deletions: 17,154,398"><circle cx="22" cy="118" r="4" fill="#00a5fe" /><path d="M42.54 117.67C42.54 115.17 40.76 113.33 38.06 113.33L35.82 113.33C35.35 113.33 34.98 113.71 34.98 114.17L34.98 121.16C34.98 121.62 35.35 122 35.82 122L38.06 122C40.76 122 42.54 120.18 42.54 117.67ZM41.23 117.67C41.23 119.43 40.06 120.86 38.06 120.86L36.26 120.86L36.26 114.47L38.06 114.47C40.11 114.47 41.23 115.89 41.23 117.67ZM49.90 118.65C49.90 118.40 49.83 118.13 49.78 117.92C49.42 116.51 48.38 115.56 46.86 115.56C45.04 115.56 43.72 117.03 43.72 118.85C43.72 120.83 45.09 122.16 46.96 122.16C47.88 122.16 49.50 121.67 49.50 120.97C49.50 120.53 49.05 120.43 48.77 120.57C48.31 120.91 47.61 121.22 47.08 121.22C45.80 121.22 45.02 120.35 44.93 119.27L49.30 119.27C49.63 119.27 49.90 118.96 49.90 118.65ZM44.93 118.41C44.98 117.54 45.60 116.50 46.84 116.50C48.18 116.50 48.76 117.57 48.78 118.41ZM52.54 113.81C52.54 113.51 52.28 113.25 51.98 113.25C51.64 113.25 51.38 113.51 51.38 113.81L51.38 121.51C51.38 121.82 51.64 122.08 51.95 122.08C52.28 122.08 52.54 121.82 52.54 121.51ZM60.21 118.65C60.21 118.40 60.14 118.13 60.09 117.92C59.73 116.51 58.69 115.56 57.17 115.56C55.35 115.56 54.03 117.03 54.03 118.85C54.03 120.83 55.40 122.16 57.27 122.16C58.19 122.16 59.81 121.67 59.81 120.97C59.81 120.53 59.36 120.43 59.08 120.57C58.62 120.91 57.92 121.22 57.39 121.22C56.11 121.22 55.33 120.35 55.24 119.27L59.61 119.27C59.94 119.27 60.21 118.96 60.21 118.65ZM55.24 118.41C55.29 117.54 55.91 116.50 57.15 116.50C58.49 116.50 59.06 117.57 59.09 118.41ZM64.62 121.55C64.62 121.27 64.41 121.06 64.12 121.06C63.99 121.06 63.84 121.13 63.69 121.13C63.32 121.13 63.08 120.83 63.08 120.35L63.08 116.73L63.94 116.73C64.21 116.73 64.43 116.51 64.43 116.24C64.43 115.94 64.21 115.72 63.94 115.72L63.08 115.72L63.08 114.49C63.08 114.19 62.82 113.93 62.51 113.93C62.17 113.93 61.91 114.19 61.91 114.49L61.91 115.72L61.30 115.72C61.01 115.72 60.79 115.94 60.79 116.22C60.79 116.51 61.01 116.73 61.30 116.73L61.91 116.73L61.91 120.62C61.91 121.61 62.43 122.16 63.42 122.16C64.11 122.16 64.62 121.96 64.62 121.55ZM66.24 113.39C65.84 113.39 65.50 113.73 65.50 114.15C65.50 114.55 65.84 114.89 66.24 114.89C66.66 114.89 66.98 114.55 66.98 114.15C66.98 113.73 66.66 113.39 66.24 113.39ZM66.83 116.20C66.83 115.90 66.56 115.64 66.27 115.64C65.93 115.64 65.67 115.90 65.67 116.20L65.67 121.51C65.67 121.82 65.93 122.08 66.24 122.08C66.56 122.08 66.83 121.82 66.83 121.51ZM74.65 118.85C74.65 117.05 73.44 115.56 71.48 115.56C69.53 115.56 68.32 117.05 68.32 118.85C68.32 120.66 69.53 122.16 71.48 122.16C73.44 122.16 74.65 120.66 74.65 118.85ZM73.44 118.85C73.44 120.06 72.74 121.13 71.48 121.13C70.23 121.13 69.52 120.06 69.52 118.85C69.52 117.66 70.23 116.59 71.48 116.59C72.74 116.59 73.44 117.66 73.44 118.85ZM81.54 117.97C81.54 116.64 80.58 115.56 79.25 115.56C78.16 115.56 77.60 116.10 77.30 116.61L77.30 116.20C77.30 115.90 77.04 115.64 76.74 115.64C76.41 115.64 76.15 115.90 76.15 116.20L76.15 121.51C76.15 121.82 76.41 122.08 76.72 122.08C77.04 122.08 77.30 121.82 77.30 121.51L77.30 118.49C77.30 117.42 77.88 116.59 78.88 116.59C79.81 116.59 80.38 117.32 80.38 118.36L80.38 121.51C80.38 121.82 80.64 122.08 80.96 122.08C81.28 122.08 81.54 121.82 81.54 121.51ZM88.01 120.10C87.90 117.89 84.30 118.50 84.17 117.37C84.11 116.86 84.66 116.49 85.45 116.49C86.05 116.49 86.61 116.68 87.01 116.97C87.09 117.03 87.18 117.06 87.29 117.06C87.52 117.06 87.74 116.86 87.74 116.61C87.74 116.50 87.70 116.40 87.62 116.32C87.13 115.84 86.34 115.56 85.44 115.56C83.91 115.56 82.98 116.29 83.05 117.41C83.17 119.52 86.75 118.87 86.88 120.26C86.94 120.83 86.42 121.23 85.52 121.23C84.87 121.23 84.22 120.97 83.75 120.64C83.66 120.57 83.57 120.54 83.45 120.54C83.18 120.54 82.94 120.75 82.94 121.03C82.94 121.16 83.00 121.26 83.09 121.34C83.66 121.91 84.61 122.16 85.47 122.16C87.13 122.16 88.08 121.30 88.01 120.10Z" fill="#e6edf3" /><path d="M161.49 114.32C161.49 113.73 161.00 113.26 160.41 113.26C160.11 113.26 159.82 113.38 159.63 113.58L157.63 115.60C157.47 115.76 157.39 115.95 157.39 116.15C157.39 116.58 157.76 116.92 158.16 116.92C158.34 116.92 158.52 116.85 158.67 116.71L159.64 115.71L159.64 121.17C159.64 121.66 160.06 122.08 160.55 122.08C161.07 122.08 161.49 121.66 161.49 121.17ZM169.25 114.27C169.25 113.72 168.81 113.33 168.35 113.33L163.39 113.33C162.94 113.33 162.58 113.69 162.58 114.12C162.58 114.59 162.94 114.95 163.39 114.95L167.03 114.95L164.44 120.82C164.39 120.93 164.36 121.05 164.36 121.17C164.36 121.64 164.74 122.08 165.28 122.08C165.66 122.08 166.01 121.86 166.16 121.52L169.17 114.63C169.22 114.53 169.25 114.39 169.25 114.27ZM171.00 121.36C171.00 120.52 170.45 120.04 169.83 120.04C169.29 120.04 168.82 120.50 168.82 121.08C168.82 121.64 169.21 122.01 169.70 122.01C169.80 122.01 169.91 121.99 169.95 121.97C169.87 122.31 169.59 122.72 169.25 122.99C169.16 123.07 169.12 123.17 169.12 123.27C169.12 123.53 169.39 123.69 169.61 123.69C169.74 123.69 169.86 123.65 169.95 123.56C170.60 122.97 171.00 122.19 171.00 121.36ZM174.74 114.32C174.74 113.73 174.24 113.26 173.66 113.26C173.36 113.26 173.07 113.38 172.88 113.58L170.87 115.60C170.72 115.76 170.64 115.95 170.64 116.15C170.64 116.58 171.00 116.92 171.41 116.92C171.59 116.92 171.77 116.85 171.91 116.71L172.89 115.71L172.89 121.17C172.89 121.66 173.31 122.08 173.80 122.08C174.32 122.08 174.74 121.66 174.74 121.17ZM183.04 119.15C183.04 117.40 181.73 116.34 180.26 116.34C179.47 116.34 178.77 116.66 178.35 117.07L178.35 114.95L181.74 114.95C182.17 114.95 182.54 114.59 182.54 114.15C182.54 113.69 182.17 113.33 181.74 113.33L177.54 113.33C176.97 113.33 176.50 113.80 176.50 114.37L176.50 117.70C176.50 118.20 176.87 118.58 177.44 118.58C177.70 118.58 177.95 118.50 178.15 118.36C178.62 118.05 179.08 117.94 179.61 117.94C180.60 117.94 181.17 118.46 181.17 119.23C181.17 119.93 180.59 120.52 179.56 120.52C178.93 120.52 178.34 120.35 177.83 120.04C177.67 119.95 177.50 119.89 177.35 119.89C176.89 119.89 176.46 120.25 176.46 120.73C176.46 120.86 176.50 120.99 176.57 121.10C176.97 121.78 178.44 122.16 179.57 122.16C181.66 122.16 183.04 121.00 183.04 119.15ZM191.01 119.40C191.01 118.94 190.65 118.58 190.22 118.58L189.82 118.58L189.82 114.29C189.82 113.48 189.04 113.12 188.24 113.25C187.68 113.25 187.12 113.55 186.83 114.02L183.93 118.59C183.81 118.78 183.76 118.98 183.76 119.19C183.76 119.78 184.19 120.21 184.71 120.21L187.97 120.21L187.97 121.17C187.97 121.66 188.39 122.08 188.88 122.08C189.40 122.08 189.82 121.66 189.82 121.17L189.82 120.21L190.22 120.21C190.65 120.21 191.01 119.84 191.01 119.40ZM185.63 118.58L187.97 114.97L187.97 118.58ZM194.05 121.36C194.05 120.52 193.49 120.04 192.88 120.04C192.34 120.04 191.87 120.50 191.87 121.08C191.87 121.64 192.26 122.01 192.75 122.01C192.84 122.01 192.96 121.99 193.00 121.97C192.92 122.31 192.64 122.72 192.30 122.99C192.21 123.07 192.17 123.17 192.17 123.27C192.17 123.53 192.44 123.69 192.66 123.69C192.79 123.69 192.91 123.65 193.00 123.56C193.65 122.97 194.05 122.19 194.05 121.36ZM201.65 119.63C201.75 118.07 200.70 117.53 200.70 117.53C200.70 117.53 201.66 117.03 201.55 115.55C201.45 114.11 200.31 113.20 198.28 113.20C197.08 113.20 196.15 113.55 195.43 114.12C195.25 114.27 195.16 114.47 195.16 114.68C195.16 115.14 195.56 115.46 195.96 115.46C196.12 115.46 196.28 115.42 196.41 115.33C196.91 115.01 197.49 114.84 198.08 114.84C198.99 114.84 199.70 115.05 199.70 115.73C199.70 116.45 199.27 116.79 198.40 116.79C197.77 116.79 197.50 117.14 197.50 117.59C197.50 118.05 197.77 118.41 198.45 118.41C199.33 118.41 199.84 118.72 199.84 119.41C199.84 120.06 199.25 120.52 198.20 120.52C197.60 120.52 196.91 120.31 196.34 119.97C196.20 119.88 196.04 119.84 195.89 119.84C195.46 119.84 195.04 120.19 195.04 120.66C195.04 120.79 195.08 120.91 195.15 121.01C195.55 121.69 197.02 122.16 198.27 122.16C200.35 122.16 201.54 121.26 201.65 119.63ZM202.61 116.16C202.61 118.01 204.00 118.98 205.56 118.98C206.64 118.98 207.44 118.45 207.78 117.87C207.79 117.93 207.79 117.98 207.79 118.05C207.79 119.43 206.90 120.50 205.62 120.50C205.18 120.50 204.82 120.43 204.49 120.26C204.38 120.19 204.25 120.17 204.12 120.17C203.71 120.17 203.27 120.48 203.27 120.97C203.27 121.10 203.31 121.22 203.36 121.32C203.69 121.90 204.78 122.14 205.62 122.14C208.18 122.14 209.67 120.28 209.67 117.66C209.67 115.21 208.56 113.19 205.92 113.19C203.95 113.19 202.61 114.47 202.61 116.16ZM204.48 116.10C204.48 115.45 204.96 114.82 205.96 114.82C206.78 114.82 207.39 115.38 207.39 116.19C207.39 116.97 206.77 117.53 205.96 117.53C205.13 117.53 204.48 116.97 204.48 116.10ZM217.54 119.62C217.54 118.44 216.84 117.76 216.32 117.53C216.76 117.32 217.40 116.83 217.40 115.49C217.40 113.99 215.79 113.20 214.06 113.20C212.32 113.20 210.72 113.99 210.72 115.49C210.72 116.83 211.34 117.32 211.79 117.53C211.27 117.76 210.58 118.44 210.58 119.62C210.58 121.25 212.24 122.16 214.06 122.16C215.88 122.16 217.54 121.23 217.54 119.62ZM215.52 115.77C215.52 116.42 214.85 116.80 214.06 116.80C213.27 116.80 212.59 116.42 212.59 115.77C212.59 115.15 213.20 114.78 214.06 114.78C214.91 114.78 215.52 115.15 215.52 115.77ZM215.67 119.52C215.67 120.15 214.94 120.57 214.06 120.57C213.15 120.57 212.45 120.15 212.45 119.52C212.45 118.79 213.25 118.36 214.06 118.36C214.85 118.36 215.67 118.79 215.67 119.52Z" fill="#9aa7b4" /></g><g aria-label="Changed Files: 524,152"><circle cx="22" cy="140" r="4" fill="#673bd6" /><path d="M39.11 135.19C36.59 135.19 34.60 137.01 34.60 139.67C34.60 142.34 36.59 144.16 39.11 144.16C40.46 144.16 41.40 143.60 42.07 142.87C42.18 142.76 42.23 142.62 42.23 142.47C42.23 142.15 41.97 141.87 41.63 141.87C41.46 141.87 41.28 141.95 41.18 142.08C40.64 142.67 39.88 143.01 39.11 143.01C37.29 143.01 35.94 141.61 35.94 139.67C35.94 137.72 37.29 136.33 39.11 136.33C39.86 136.33 40.67 136.69 41.18 137.28C41.28 137.42 41.46 137.49 41.62 137.49C41.96 137.49 42.23 137.21 42.23 136.89C42.23 136.73 42.18 136.59 42.07 136.47C41.41 135.73 40.46 135.19 39.11 135.19ZM49.17 139.94C49.17 138.62 48.22 137.56 46.90 137.56C45.79 137.56 45.22 138.10 44.92 138.60L44.92 135.81C44.92 135.51 44.66 135.25 44.36 135.25C44.02 135.25 43.76 135.51 43.76 135.81L43.76 143.51C43.76 143.82 44.02 144.08 44.34 144.08C44.66 144.08 44.92 143.82 44.92 143.51L44.92 140.56C44.92 139.38 45.54 138.59 46.53 138.59C47.47 138.59 48.01 139.29 48.01 140.33L48.01 143.51C48.01 143.82 48.27 144.08 48.59 144.08C48.91 144.08 49.17 143.82 49.17 143.51ZM56.09 139.75C56.09 138.15 54.92 137.56 53.56 137.56C52.72 137.56 51.77 137.84 51.17 138.44C51.09 138.53 51.06 138.63 51.06 138.74C51.06 139.01 51.30 139.19 51.54 139.19C51.63 139.19 51.73 139.15 51.82 139.09C52.29 138.72 52.81 138.54 53.40 138.54C54.28 138.54 54.93 139.01 54.93 139.80L54.93 140.15L53.12 140.15C51.82 140.15 50.68 140.66 50.68 142.08C50.68 143.45 51.82 144.16 52.86 144.16C53.84 144.16 54.42 143.86 54.93 143.30L54.93 143.51C54.93 143.88 55.23 144.08 55.46 144.08L55.50 144.08C55.83 144.08 56.09 143.82 56.09 143.51ZM54.93 140.96L54.93 141.84C54.93 142.58 54.09 143.34 53.17 143.34C52.33 143.34 51.85 142.83 51.85 142.10C51.85 141.35 52.45 140.96 53.44 140.96ZM63.34 139.97C63.34 138.64 62.38 137.56 61.05 137.56C59.96 137.56 59.40 138.10 59.10 138.60L59.10 138.20C59.10 137.90 58.84 137.64 58.54 137.64C58.21 137.64 57.95 137.90 57.95 138.20L57.95 143.51C57.95 143.82 58.21 144.08 58.52 144.08C58.84 144.08 59.10 143.82 59.10 143.51L59.10 140.49C59.10 139.42 59.67 138.59 60.68 138.59C61.61 138.59 62.18 139.32 62.18 140.36L62.18 143.51C62.18 143.82 62.44 144.08 62.76 144.08C63.08 144.08 63.34 143.82 63.34 143.51ZM70.84 138.20C70.84 137.90 70.58 137.64 70.28 137.64C69.95 137.64 69.69 137.90 69.69 138.20L69.69 138.63C69.18 137.96 68.45 137.56 67.62 137.56C65.99 137.56 64.84 138.79 64.84 140.81C64.84 142.86 66.01 144.05 67.62 144.05C68.48 144.05 69.22 143.60 69.69 142.96L69.69 143.79C69.69 145.13 68.72 145.60 67.75 145.60C67.06 145.60 66.51 145.46 66.03 145.05C65.94 144.99 65.85 144.96 65.73 144.96C65.47 144.96 65.24 145.18 65.24 145.46C65.24 145.59 65.29 145.70 65.37 145.78C65.98 146.37 66.86 146.55 67.75 146.55C69.28 146.55 70.84 145.91 70.84 143.75ZM69.69 140.83C69.69 142.12 68.84 143.03 67.80 143.03C66.63 143.03 66.03 142.10 66.03 140.81C66.03 139.50 66.63 138.59 67.80 138.59C68.84 138.59 69.69 139.49 69.69 140.78ZM78.51 140.65C78.51 140.40 78.45 140.13 78.40 139.92C78.03 138.51 76.99 137.56 75.47 137.56C73.65 137.56 72.34 139.03 72.34 140.85C72.34 142.83 73.70 144.16 75.57 144.16C76.50 144.16 78.11 143.68 78.11 142.97C78.11 142.53 77.67 142.43 77.38 142.57C76.93 142.91 76.22 143.22 75.69 143.22C74.42 143.22 73.64 142.35 73.55 141.27L77.91 141.27C78.24 141.27 78.51 140.96 78.51 140.65ZM73.55 140.41C73.60 139.54 74.21 138.50 75.46 138.50C76.80 138.50 77.37 139.57 77.39 140.41ZM85.64 135.81C85.64 135.51 85.38 135.25 85.08 135.25C84.74 135.25 84.48 135.51 84.48 135.81L84.48 138.63C83.97 137.96 83.36 137.56 82.41 137.56C80.77 137.56 79.62 138.85 79.62 140.87C79.62 142.92 80.79 144.16 82.41 144.16C83.39 144.16 84.00 143.73 84.48 143.10L84.48 143.51C84.48 143.82 84.74 144.08 85.05 144.08C85.38 144.08 85.64 143.82 85.64 143.51ZM84.48 140.91C84.48 142.21 83.83 143.13 82.71 143.13C81.54 143.13 80.81 142.18 80.81 140.87C80.81 139.55 81.54 138.59 82.71 138.59C83.83 138.59 84.48 139.54 84.48 140.83ZM96.76 135.91C96.76 135.58 96.52 135.33 96.20 135.33L91.73 135.33C91.27 135.33 90.89 135.71 90.89 136.17L90.89 143.44C90.89 143.79 91.17 144.08 91.52 144.08C91.89 144.08 92.17 143.79 92.17 143.44L92.17 140.15L96.11 140.15C96.43 140.15 96.67 139.89 96.67 139.59C96.67 139.25 96.43 139.01 96.11 139.01L92.17 139.01L92.17 136.47L96.20 136.47C96.52 136.47 96.76 136.21 96.76 135.91ZM98.65 135.39C98.25 135.39 97.91 135.73 97.91 136.15C97.91 136.55 98.25 136.89 98.65 136.89C99.06 136.89 99.39 136.55 99.39 136.15C99.39 135.73 99.06 135.39 98.65 135.39ZM99.23 138.20C99.23 137.90 98.97 137.64 98.67 137.64C98.34 137.64 98.08 137.90 98.08 138.20L98.08 143.51C98.08 143.82 98.34 144.08 98.65 144.08C98.97 144.08 99.23 143.82 99.23 143.51ZM102.26 135.81C102.26 135.51 102.00 135.25 101.70 135.25C101.37 135.25 101.11 135.51 101.11 135.81L101.11 143.51C101.11 143.82 101.37 144.08 101.68 144.08C102.00 144.08 102.26 143.82 102.26 143.51ZM109.93 140.65C109.93 140.40 109.87 140.13 109.82 139.92C109.45 138.51 108.41 137.56 106.89 137.56C105.07 137.56 103.76 139.03 103.76 140.85C103.76 142.83 105.12 144.16 106.99 144.16C107.92 144.16 109.53 143.68 109.53 142.97C109.53 142.53 109.09 142.43 108.80 142.57C108.35 142.91 107.64 143.22 107.11 143.22C105.84 143.22 105.06 142.35 104.97 141.27L109.33 141.27C109.66 141.27 109.93 140.96 109.93 140.65ZM104.97 140.41C105.02 139.54 105.63 138.50 106.88 138.50C108.22 138.50 108.79 139.57 108.81 140.41ZM116.02 142.10C115.90 139.89 112.30 140.50 112.17 139.37C112.12 138.87 112.66 138.49 113.46 138.49C114.05 138.49 114.61 138.68 115.02 138.97C115.09 139.03 115.18 139.06 115.29 139.06C115.52 139.06 115.74 138.87 115.74 138.60C115.74 138.50 115.70 138.40 115.63 138.32C115.13 137.84 114.34 137.56 113.44 137.56C111.91 137.56 110.99 138.29 111.05 139.41C111.17 141.52 114.76 140.87 114.89 142.26C114.94 142.83 114.42 143.23 113.52 143.23C112.87 143.23 112.22 142.97 111.75 142.63C111.66 142.57 111.57 142.54 111.45 142.54C111.18 142.54 110.95 142.75 110.95 143.03C110.95 143.16 111.00 143.26 111.09 143.34C111.66 143.91 112.61 144.16 113.47 144.16C115.13 144.16 116.08 143.30 116.02 142.10Z" fill="#e6edf3" /><path d="M178.90 141.15C178.90 139.40 177.58 138.34 176.11 138.34C175.32 138.34 174.62 138.66 174.20 139.07L174.20 136.95L177.60 136.95C178.03 136.95 178.39 136.59 178.39 136.15C178.39 135.69 178.03 135.33 177.60 135.33L173.40 135.33C172.82 135.33 172.36 135.80 172.36 136.37L172.36 139.70C172.36 140.20 172.72 140.58 173.29 140.58C173.55 140.58 173.80 140.50 174.01 140.36C174.48 140.05 174.93 139.94 175.46 139.94C176.45 139.94 177.02 140.46 177.02 141.23C177.02 141.93 176.44 142.52 175.41 142.52C174.79 142.52 174.19 142.35 173.68 142.04C173.53 141.95 173.36 141.89 173.20 141.89C172.75 141.89 172.32 142.25 172.32 142.73C172.32 142.86 172.36 142.99 172.42 143.10C172.82 143.78 174.29 144.16 175.43 144.16C177.52 144.16 178.90 143.00 178.90 141.15ZM186.57 143.17C186.57 142.74 186.20 142.38 185.77 142.38L182.95 142.38C185.20 140.74 186.42 139.45 186.42 137.97C186.42 136.24 184.95 135.20 183.11 135.20C182.02 135.20 180.56 135.67 180.14 136.33C180.07 136.45 180.03 136.58 180.03 136.71C180.03 137.18 180.40 137.54 180.83 137.54C181.03 137.54 181.20 137.49 181.37 137.37C181.86 137.03 182.46 136.84 183.15 136.84C183.86 136.84 184.55 137.21 184.55 137.97C184.55 138.98 183.51 139.93 180.27 142.32C180.03 142.50 179.88 142.80 179.88 143.10C179.88 143.62 180.30 144 180.75 144L185.77 144C186.20 144 186.57 143.64 186.57 143.17ZM194.67 141.40C194.67 140.94 194.30 140.58 193.87 140.58L193.47 140.58L193.47 136.29C193.47 135.49 192.69 135.12 191.90 135.25C191.34 135.25 190.78 135.55 190.48 136.02L187.58 140.59C187.46 140.78 187.41 140.98 187.41 141.19C187.41 141.78 187.84 142.21 188.36 142.21L191.62 142.21L191.62 143.17C191.62 143.66 192.04 144.08 192.53 144.08C193.05 144.08 193.47 143.66 193.47 143.17L193.47 142.21L193.87 142.21C194.30 142.21 194.67 141.84 194.67 141.40ZM189.28 140.58L191.62 136.97L191.62 140.58ZM197.71 143.36C197.71 142.52 197.15 142.04 196.54 142.04C195.99 142.04 195.52 142.50 195.52 143.08C195.52 143.64 195.91 144.01 196.41 144.01C196.50 144.01 196.62 143.99 196.65 143.97C196.58 144.31 196.29 144.72 195.95 144.99C195.86 145.07 195.82 145.17 195.82 145.27C195.82 145.53 196.09 145.69 196.32 145.69C196.45 145.69 196.56 145.65 196.65 145.56C197.30 144.97 197.71 144.19 197.71 143.36ZM201.44 136.32C201.44 135.73 200.94 135.26 200.36 135.26C200.06 135.26 199.77 135.38 199.58 135.58L197.58 137.60C197.42 137.76 197.34 137.96 197.34 138.15C197.34 138.58 197.71 138.92 198.11 138.92C198.29 138.92 198.47 138.85 198.62 138.71L199.59 137.71L199.59 143.17C199.59 143.66 200.01 144.08 200.50 144.08C201.02 144.08 201.44 143.66 201.44 143.17ZM209.75 141.15C209.75 139.40 208.43 138.34 206.96 138.34C206.17 138.34 205.47 138.66 205.05 139.07L205.05 136.95L208.44 136.95C208.87 136.95 209.24 136.59 209.24 136.15C209.24 135.69 208.87 135.33 208.44 135.33L204.25 135.33C203.67 135.33 203.21 135.80 203.21 136.37L203.21 139.70C203.21 140.20 203.57 140.58 204.14 140.58C204.40 140.58 204.65 140.50 204.86 140.36C205.32 140.05 205.78 139.94 206.31 139.94C207.30 139.94 207.87 140.46 207.87 141.23C207.87 141.93 207.29 142.52 206.26 142.52C205.64 142.52 205.04 142.35 204.53 142.04C204.38 141.95 204.21 141.89 204.05 141.89C203.60 141.89 203.17 142.25 203.17 142.73C203.17 142.86 203.21 142.99 203.27 143.10C203.67 143.78 205.14 144.16 206.27 144.16C208.37 144.16 209.75 143.00 209.75 141.15ZM217.41 143.17C217.41 142.74 217.05 142.38 216.62 142.38L213.80 142.38C216.05 140.74 217.27 139.45 217.27 137.97C217.27 136.24 215.80 135.20 213.96 135.20C212.86 135.20 211.41 135.67 210.99 136.33C210.91 136.45 210.88 136.58 210.88 136.71C210.88 137.18 211.25 137.54 211.68 137.54C211.88 137.54 212.05 137.49 212.21 137.37C212.71 137.03 213.31 136.84 214.00 136.84C214.71 136.84 215.40 137.21 215.40 137.97C215.40 138.98 214.36 139.93 211.12 142.32C210.88 142.50 210.73 142.80 210.73 143.10C210.73 143.62 211.15 144 211.60 144L216.62 144C217.05 144 217.41 143.64 217.41 143.17Z" fill="#9aa7b4" /></g><rect x="18" y="166" width="384" height="8" rx="4" fill="#21262d" /><rect x="18.00" y="166" width="255.46" height="8" rx="4" fill="#00d559" /><rect x="273.46" y="166" width="128.54" height="8" rx="4" fill="#00a5fe" /></svg>