<svg xmlns="http://www.w3.org/2000/svg" width="420" height="184" viewBox="0 0 420 184" role="img"><rect x="0.5" y="0.5" width="419" height="183" rx="10" fill="#161b22" stroke="#30363d" /><path d="M30.72 33.60C30.72 32.83 30.10 32.21 29.37 32.21L28.69 32.21L28.69 24.95C28.69 23.59 27.37 22.97 26.03 23.19C25.08 23.19 24.14 23.70 23.63 24.49L18.73 32.24C18.53 32.54 18.44 32.90 18.44 33.25C18.44 34.24 19.17 34.96 20.05 34.96L25.57 34.96L25.57 36.59C25.57 37.43 26.27 38.13 27.11 38.13C27.99 38.13 28.69 37.43 28.69 36.59L28.69 34.96L29.37 34.96C30.10 34.96 30.72 34.35 30.72 33.60ZM21.61 32.21L25.57 26.10L25.57 32.21ZM42.82 24.91C42.82 23.99 42.07 23.33 41.30 23.33L32.89 23.33C32.15 23.33 31.53 23.94 31.53 24.67C31.53 25.46 32.15 26.08 32.89 26.08L39.05 26.08L34.68 36.00C34.59 36.20 34.54 36.39 34.54 36.59C34.54 37.38 35.18 38.13 36.11 38.13C36.74 38.13 37.34 37.76 37.58 37.19L42.68 25.53C42.77 25.35 42.82 25.13 42.82 24.91ZM45.79 36.92C45.79 35.49 44.84 34.68 43.81 34.68C42.88 34.68 42.09 35.47 42.09 36.44C42.09 37.38 42.75 38.02 43.59 38.02C43.74 38.02 43.94 37.98 44.00 37.96C43.87 38.53 43.39 39.21 42.82 39.67C42.66 39.80 42.60 39.98 42.60 40.16C42.60 40.60 43.06 40.86 43.43 40.86C43.65 40.86 43.85 40.79 44.00 40.64C45.10 39.65 45.79 38.33 45.79 36.92ZM59.12 30.67C59.12 26.89 57.23 23.11 53.05 23.11C48.84 23.11 46.97 26.89 46.97 30.67C46.97 34.46 48.84 38.26 53.05 38.26C57.23 38.26 59.12 34.46 59.12 30.67ZM55.93 30.67C55.93 33.38 55.14 35.49 53.05 35.49C50.93 35.49 50.14 33.38 50.14 30.67C50.14 27.97 50.93 25.88 53.05 25.88C55.14 25.88 55.93 27.97 55.93 30.67ZM72.43 33.97C72.43 31.97 71.24 30.83 70.36 30.43C71.11 30.08 72.19 29.24 72.19 26.98C72.19 24.45 69.46 23.11 66.53 23.11C63.58 23.11 60.88 24.45 60.88 26.98C60.88 29.24 61.93 30.08 62.68 30.43C61.80 30.83 60.64 31.97 60.64 33.97C60.64 36.72 63.45 38.26 66.53 38.26C69.61 38.26 72.43 36.70 72.43 33.97ZM69.00 27.46C69.00 28.56 67.87 29.20 66.53 29.20C65.19 29.20 64.05 28.56 64.05 27.46C64.05 26.41 65.08 25.79 66.53 25.79C67.96 25.79 69.00 26.41 69.00 27.46ZM69.26 33.80C69.26 34.88 68.03 35.58 66.53 35.58C64.99 35.58 63.80 34.88 63.80 33.80C63.80 32.57 65.17 31.84 66.53 31.84C67.87 31.84 69.26 32.57 69.26 33.80ZM85.76 33.97C85.76 31.97 84.57 30.83 83.69 30.43C84.44 30.08 85.52 29.24 85.52 26.98C85.52 24.45 82.79 23.11 79.86 23.11C76.92 23.11 74.21 24.45 74.21 26.98C74.21 29.24 75.27 30.08 76.01 30.43C75.13 30.83 73.97 31.97 73.97 33.97C73.97 36.72 76.78 38.26 79.86 38.26C82.94 38.26 85.76 36.70 85.76 33.97ZM82.33 27.46C82.33 28.56 81.21 29.20 79.86 29.20C78.52 29.20 77.38 28.56 77.38 27.46C77.38 26.41 78.41 25.79 79.86 25.79C81.29 25.79 82.33 26.41 82.33 27.46ZM82.59 33.80C82.59 34.88 81.36 35.58 79.86 35.58C78.32 35.58 77.14 34.88 77.14 33.80C77.14 32.57 78.50 31.84 79.86 31.84C81.21 31.84 82.59 32.57 82.59 33.80ZM100.72 23.08C96.32 23.08 92.91 26.16 92.91 30.67C92.91 35.18 96.32 38.26 100.72 38.26C103.25 38.26 104.94 37.16 106.04 35.82C106.26 35.58 106.35 35.27 106.35 34.96C106.35 34.22 105.71 33.60 104.92 33.60C104.48 33.60 104.04 33.78 103.73 34.11C102.92 35.01 101.82 35.49 100.72 35.49C98.06 35.49 96.12 33.45 96.12 30.67C96.12 27.90 98.06 25.86 100.72 25.86C101.82 25.86 102.90 26.38 103.73 27.26C104.04 27.59 104.46 27.77 104.88 27.77C105.69 27.77 106.37 27.15 106.37 26.36C106.37 26.08 106.26 25.75 106.07 25.50C104.94 24.16 103.25 23.08 100.72 23.08ZM119.22 32.68C119.22 29.66 117.11 27.11 113.59 27.11C110.09 27.11 107.98 29.66 107.98 32.68C107.98 35.71 110.09 38.26 113.59 38.26C117.11 38.26 119.22 35.71 119.22 32.68ZM116.32 32.68C116.32 34.35 115.33 35.78 113.59 35.78C111.85 35.78 110.88 34.35 110.88 32.68C110.88 31.03 111.85 29.60 113.59 29.60C115.33 29.60 116.32 31.03 116.32 32.68ZM137.28 31.20C137.28 29.02 135.77 27.11 133.37 27.11C131.52 27.11 130.46 28.19 130.07 28.94C129.67 28.17 128.68 27.11 126.90 27.11C125.27 27.11 124.52 27.70 124.08 28.28L124.08 28.25C124.08 27.95 123.69 27.24 122.72 27.24C121.91 27.24 121.29 27.86 121.29 28.61L121.29 36.75C121.29 37.52 121.91 38.13 122.68 38.13C123.47 38.13 124.08 37.52 124.08 36.75L124.08 31.73C124.08 30.70 124.88 29.60 126.06 29.60C127.21 29.60 127.87 30.74 127.87 31.73L127.87 36.75C127.87 37.52 128.48 38.13 129.25 38.13C130.07 38.13 130.68 37.52 130.68 36.75L130.68 31.93C130.68 30.70 131.45 29.60 132.66 29.60C133.81 29.60 134.47 30.74 134.47 31.73L134.47 36.75C134.47 37.52 135.08 38.13 135.85 38.13C136.67 38.13 137.28 37.52 137.28 36.75ZM156.03 31.20C156.03 29.02 154.51 27.11 152.11 27.11C150.26 27.11 149.21 28.19 148.81 28.94C148.42 28.17 147.43 27.11 145.64 27.11C144.02 27.11 143.27 27.70 142.83 28.28L142.83 28.25C142.83 27.95 142.43 27.24 141.46 27.24C140.65 27.24 140.03 27.86 140.03 28.61L140.03 36.75C140.03 37.52 140.65 38.13 141.42 38.13C142.21 38.13 142.83 37.52 142.83 36.75L142.83 31.73C142.83 30.70 143.62 29.60 144.81 29.60C145.95 29.60 146.61 30.74 146.61 31.73L146.61 36.75C146.61 37.52 147.23 38.13 148.00 38.13C148.81 38.13 149.43 37.52 149.43 36.75L149.43 31.93C149.43 30.70 150.20 29.60 151.41 29.60C152.55 29.60 153.21 30.74 153.21 31.73L153.21 36.75C153.21 37.52 153.83 38.13 154.60 38.13C155.41 38.13 156.03 37.52 156.03 36.75ZM160.16 22.91C159.26 22.91 158.49 23.63 158.49 24.56C158.49 25.48 159.26 26.23 160.16 26.23C161.09 26.23 161.84 25.48 161.84 24.56C161.84 23.63 161.09 22.91 160.16 22.91ZM161.57 28.61C161.57 27.86 160.96 27.24 160.21 27.24C159.39 27.24 158.78 27.86 158.78 28.61L158.78 36.75C158.78 37.52 159.39 38.13 160.16 38.13C160.96 38.13 161.57 37.52 161.57 36.75ZM170.15 36.99C170.15 36.31 169.71 35.78 168.92 35.78L168.68 35.78C168.24 35.78 167.71 35.45 167.71 34.61L167.71 29.82L168.81 29.82C169.45 29.82 170.00 29.27 170.00 28.61C170.00 27.92 169.45 27.37 168.81 27.37L167.71 27.37L167.71 25.72C167.71 24.95 167.09 24.34 166.32 24.34C165.51 24.34 164.89 24.95 164.89 25.72L164.89 27.37L164.21 27.37C163.55 27.37 163.00 27.92 163.00 28.56C163.00 29.27 163.55 29.82 164.21 29.82L164.89 29.82L164.89 35.36C164.89 37.25 165.95 38.26 167.91 38.26C169.73 38.26 170.15 37.69 170.15 36.99ZM180.21 34.85C180.21 30.56 173.91 31.88 173.91 30.30C173.91 29.71 174.57 29.24 175.59 29.24C176.44 29.24 177.30 29.49 177.98 29.88C178.14 29.97 178.34 30.01 178.51 30.01C179.08 30.01 179.61 29.55 179.61 28.96C179.61 28.76 179.55 28.56 179.44 28.41C178.84 27.55 176.95 27.11 175.56 27.11C172.77 27.11 171.21 28.67 171.21 30.45C171.21 34.63 177.52 33.20 177.52 34.96C177.52 35.62 176.95 36.11 175.74 36.11C174.82 36.11 173.72 35.73 172.88 35.25C172.70 35.14 172.51 35.10 172.31 35.10C171.71 35.10 171.14 35.60 171.14 36.26C171.14 36.48 171.21 36.68 171.34 36.86C172 37.80 174.22 38.26 175.61 38.26C178.56 38.26 180.21 36.79 180.21 34.85Z" fill="#e6edf3" /><path d="M20.26 49.88C20.26 49.54 19.98 49.25 19.64 49.25C19.26 49.25 18.98 49.54 18.98 49.88L18.98 57.44C18.98 57.79 19.26 58.08 19.61 58.08C19.98 58.08 20.26 57.79 20.26 57.44ZM27.55 53.97C27.55 52.64 26.59 51.56 25.27 51.56C24.18 51.56 23.62 52.10 23.32 52.60L23.32 52.20C23.32 51.90 23.06 51.64 22.76 51.64C22.42 51.64 22.16 51.90 22.16 52.20L22.16 57.51C22.16 57.82 22.42 58.08 22.73 58.08C23.06 58.08 23.32 57.82 23.32 57.51L23.32 54.49C23.32 53.42 23.89 52.59 24.89 52.59C25.83 52.59 26.40 53.32 26.40 54.36L26.40 57.51C26.40 57.82 26.66 58.08 26.97 58.08C27.30 58.08 27.55 57.82 27.55 57.51ZM38.97 49.91C38.97 49.58 38.72 49.33 38.41 49.33L32.70 49.33C32.39 49.33 32.14 49.58 32.14 49.89C32.14 50.21 32.39 50.47 32.70 50.47L34.91 50.47L34.91 57.44C34.91 57.79 35.20 58.08 35.55 58.08C35.91 58.08 36.20 57.79 36.20 57.44L36.20 50.47L38.41 50.47C38.72 50.47 38.97 50.21 38.97 49.91ZM44.74 54.85C44.74 53.05 43.53 51.56 41.57 51.56C39.62 51.56 38.41 53.05 38.41 54.85C38.41 56.66 39.62 58.16 41.57 58.16C43.53 58.16 44.74 56.66 44.74 54.85ZM43.53 54.85C43.53 56.06 42.83 57.13 41.57 57.13C40.32 57.13 39.61 56.06 39.61 54.85C39.61 53.66 40.32 52.59 41.57 52.59C42.83 52.59 43.53 53.66 43.53 54.85ZM49.16 57.55C49.16 57.27 48.95 57.06 48.67 57.06C48.54 57.06 48.38 57.13 48.24 57.13C47.86 57.13 47.63 56.83 47.63 56.35L47.63 52.73L48.48 52.73C48.76 52.73 48.98 52.51 48.98 52.24C48.98 51.94 48.76 51.72 48.48 51.72L47.63 51.72L47.63 50.49C47.63 50.19 47.37 49.93 47.05 49.93C46.72 49.93 46.46 50.19 46.46 50.49L46.46 51.72L45.85 51.72C45.56 51.72 45.34 51.94 45.34 52.22C45.34 52.51 45.56 52.73 45.85 52.73L46.46 52.73L46.46 56.62C46.46 57.61 46.98 58.16 47.96 58.16C48.65 58.16 49.16 57.96 49.16 57.55ZM55.26 53.75C55.26 52.15 54.09 51.56 52.74 51.56C51.89 51.56 50.94 51.84 50.34 52.44C50.27 52.53 50.23 52.63 50.23 52.73C50.23 53.01 50.47 53.19 50.71 53.19C50.80 53.19 50.90 53.15 50.99 53.09C51.46 52.72 51.98 52.54 52.57 52.54C53.45 52.54 54.10 53.01 54.10 53.80L54.10 54.15L52.29 54.15C50.99 54.15 49.85 54.66 49.85 56.08C49.85 57.45 50.99 58.16 52.03 58.16C53.01 58.16 53.59 57.86 54.10 57.30L54.10 57.51C54.10 57.88 54.40 58.08 54.63 58.08L54.67 58.08C55.00 58.08 55.26 57.82 55.26 57.51ZM54.10 54.96L54.10 55.84C54.10 56.58 53.26 57.34 52.35 57.34C51.50 57.34 51.02 56.83 51.02 56.10C51.02 55.35 51.62 54.96 52.61 54.96ZM58.27 49.81C58.27 49.51 58.01 49.25 57.71 49.25C57.38 49.25 57.12 49.51 57.12 49.81L57.12 57.51C57.12 57.82 57.38 58.08 57.69 58.08C58.01 58.08 58.27 57.82 58.27 57.51Z" fill="#9aa7b4" /><line x1="18" y1="76" x2="48" y2="76" stroke="#9aa7b4" stroke-opacity="0.4" /><g aria-label="Additions: 29,018,688"><circle cx="22" cy="96" r="4" fill="#00d559" /><path d="M42.28 99.39C42.28 99.31 42.27 99.23 42.23 99.14L39.36 91.94C39.19 91.51 38.76 91.24 38.30 91.25C37.85 91.25 37.43 91.52 37.28 91.94L34.40 99.14C34.38 99.23 34.36 99.31 34.36 99.39C34.36 99.74 34.65 100.08 35.05 100.08C35.33 100.08 35.57 99.92 35.68 99.66L36.25 98.19L40.40 98.19L40.97 99.66C41.07 99.92 41.32 100.08 41.59 100.08C42.01 100.08 42.28 99.71 42.28 99.39ZM38.32 92.64L40.03 97.06L36.61 97.06ZM49.22 91.81C49.22 91.51 48.96 91.25 48.66 91.25C48.33 91.25 48.07 91.51 48.07 91.81L48.07 94.63C47.56 93.95 46.95 93.56 46.00 93.56C44.36 93.56 43.20 94.85 43.20 96.87C43.20 98.92 44.37 100.16 46.00 100.16C46.97 100.16 47.59 99.73 48.07 99.10L48.07 99.51C48.07 99.82 48.33 100.08 48.64 100.08C48.96 100.08 49.22 99.82 49.22 99.51ZM48.07 96.91C48.07 98.21 47.42 99.13 46.30 99.13C45.13 99.13 44.40 98.18 44.40 96.87C44.40 95.55 45.13 94.59 46.30 94.59C47.42 94.59 48.07 95.54 48.07 96.83ZM56.74 91.81C56.74 91.51 56.48 91.25 56.18 91.25C55.84 91.25 55.58 91.51 55.58 91.81L55.58 94.63C55.07 93.95 54.46 93.56 53.51 93.56C51.88 93.56 50.72 94.85 50.72 96.87C50.72 98.92 51.89 100.16 53.51 100.16C54.49 100.16 55.10 99.73 55.58 99.10L55.58 99.51C55.58 99.82 55.84 100.08 56.15 100.08C56.48 100.08 56.74 99.82 56.74 99.51ZM55.58 96.91C55.58 98.21 54.93 99.13 53.81 99.13C52.64 99.13 51.91 98.18 51.91 96.87C51.91 95.55 52.64 94.59 53.81 94.59C54.93 94.59 55.58 95.54 55.58 96.83ZM59.18 91.39C58.78 91.39 58.44 91.73 58.44 92.15C58.44 92.55 58.78 92.89 59.18 92.89C59.60 92.89 59.92 92.55 59.92 92.15C59.92 91.73 59.60 91.39 59.18 91.39ZM59.77 94.20C59.77 93.90 59.51 93.64 59.21 93.64C58.87 93.64 58.61 93.90 58.61 94.20L58.61 99.51C58.61 99.82 58.87 100.08 59.18 100.08C59.51 100.08 59.77 99.82 59.77 99.51ZM64.56 99.55C64.56 99.27 64.36 99.06 64.07 99.06C63.94 99.06 63.78 99.13 63.64 99.13C63.26 99.13 63.03 98.83 63.03 98.35L63.03 94.73L63.89 94.73C64.16 94.73 64.38 94.51 64.38 94.24C64.38 93.94 64.16 93.72 63.89 93.72L63.03 93.72L63.03 92.49C63.03 92.19 62.77 91.93 62.46 91.93C62.12 91.93 61.86 92.19 61.86 92.49L61.86 93.72L61.25 93.72C60.96 93.72 60.74 93.94 60.74 94.22C60.74 94.51 60.96 94.73 61.25 94.73L61.86 94.73L61.86 98.62C61.86 99.61 62.38 100.16 63.37 100.16C64.06 100.16 64.56 99.96 64.56 99.55ZM66.19 91.39C65.79 91.39 65.45 91.73 65.45 92.15C65.45 92.55 65.79 92.89 66.19 92.89C66.60 92.89 66.93 92.55 66.93 92.15C66.93 91.73 66.60 91.39 66.19 91.39ZM66.77 94.20C66.77 93.90 66.51 93.64 66.21 93.64C65.88 93.64 65.62 93.90 65.62 94.20L65.62 99.51C65.62 99.82 65.88 100.08 66.19 100.08C66.51 100.08 66.77 99.82 66.77 99.51ZM74.60 96.85C74.60 95.05 73.39 93.56 71.43 93.56C69.48 93.56 68.27 95.05 68.27 96.85C68.27 98.66 69.48 100.16 71.43 100.16C73.39 100.16 74.60 98.66 74.60 96.85ZM73.39 96.85C73.39 98.06 72.69 99.13 71.43 99.13C70.18 99.13 69.46 98.06 69.46 96.85C69.46 95.66 70.18 94.59 71.43 94.59C72.69 94.59 73.39 95.66 73.39 96.85ZM81.49 95.97C81.49 94.64 80.53 93.56 79.20 93.56C78.11 93.56 77.55 94.10 77.25 94.61L77.25 94.20C77.25 93.90 76.99 93.64 76.69 93.64C76.35 93.64 76.09 93.90 76.09 94.20L76.09 99.51C76.09 99.82 76.35 100.08 76.67 100.08C76.99 100.08 77.25 99.82 77.25 99.51L77.25 96.49C77.25 95.42 77.82 94.59 78.82 94.59C79.76 94.59 80.33 95.32 80.33 96.36L80.33 99.51C80.33 99.82 80.59 100.08 80.90 100.08C81.23 100.08 81.49 99.82 81.49 99.51ZM87.96 98.10C87.85 95.89 84.24 96.50 84.11 95.37C84.06 94.86 84.61 94.49 85.40 94.49C86 94.49 86.56 94.68 86.96 94.97C87.04 95.03 87.13 95.06 87.23 95.06C87.47 95.06 87.69 94.86 87.69 94.61C87.69 94.50 87.65 94.40 87.57 94.32C87.08 93.84 86.29 93.56 85.39 93.56C83.86 93.56 82.93 94.29 83.00 95.41C83.11 97.52 86.70 96.87 86.83 98.26C86.88 98.83 86.36 99.23 85.47 99.23C84.82 99.23 84.17 98.97 83.70 98.64C83.61 98.57 83.52 98.54 83.40 98.54C83.13 98.54 82.89 98.75 82.89 99.03C82.89 99.16 82.94 99.26 83.04 99.34C83.61 99.91 84.56 100.16 85.41 100.16C87.08 100.16 88.03 99.30 87.96 98.10Z" fill="#e6edf3" /><path d="M158.73 99.17C158.73 98.74 158.37 98.38 157.94 98.38L155.12 98.38C157.37 96.74 158.59 95.45 158.59 93.97C158.59 92.24 157.12 91.20 155.27 91.20C154.18 91.20 152.73 91.67 152.31 92.33C152.23 92.45 152.19 92.58 152.19 92.71C152.19 93.17 152.57 93.54 153.00 93.54C153.19 93.54 153.36 93.49 153.53 93.37C154.03 93.03 154.62 92.84 155.31 92.84C156.03 92.84 156.72 93.21 156.72 93.97C156.72 94.98 155.68 95.93 152.44 98.32C152.19 98.50 152.05 98.80 152.05 99.10C152.05 99.62 152.47 100 152.92 100L157.94 100C158.37 100 158.73 99.64 158.73 99.17ZM159.71 94.16C159.71 96.01 161.10 96.98 162.66 96.98C163.74 96.98 164.54 96.45 164.88 95.87C164.89 95.93 164.89 95.98 164.89 96.05C164.89 97.43 164.00 98.50 162.72 98.50C162.28 98.50 161.92 98.43 161.59 98.26C161.48 98.19 161.35 98.17 161.22 98.17C160.81 98.17 160.37 98.48 160.37 98.97C160.37 99.10 160.41 99.22 160.46 99.32C160.79 99.90 161.88 100.14 162.72 100.14C165.28 100.14 166.77 98.28 166.77 95.66C166.77 93.21 165.66 91.19 163.02 91.19C161.05 91.19 159.71 92.47 159.71 94.16ZM161.58 94.10C161.58 93.45 162.06 92.82 163.06 92.82C163.88 92.82 164.49 93.38 164.49 94.19C164.49 94.97 163.87 95.53 163.06 95.53C162.23 95.53 161.58 94.97 161.58 94.10ZM169.74 99.36C169.74 98.52 169.18 98.04 168.57 98.04C168.03 98.04 167.56 98.50 167.56 99.08C167.56 99.64 167.95 100.01 168.44 100.01C168.53 100.01 168.65 99.99 168.69 99.97C168.61 100.31 168.33 100.72 167.99 100.99C167.90 101.07 167.86 101.17 167.86 101.27C167.86 101.53 168.13 101.69 168.35 101.69C168.48 101.69 168.60 101.65 168.69 101.56C169.34 100.97 169.74 100.19 169.74 99.36ZM177.62 95.67C177.62 93.44 176.50 91.20 174.03 91.20C171.55 91.20 170.45 93.44 170.45 95.67C170.45 97.91 171.55 100.16 174.03 100.16C176.50 100.16 177.62 97.91 177.62 95.67ZM175.74 95.67C175.74 97.27 175.27 98.52 174.03 98.52C172.79 98.52 172.32 97.27 172.32 95.67C172.32 94.07 172.79 92.84 174.03 92.84C175.27 92.84 175.74 94.07 175.74 95.67ZM182.55 92.32C182.55 91.73 182.06 91.26 181.47 91.26C181.17 91.26 180.88 91.38 180.69 91.58L178.69 93.60C178.53 93.76 178.45 93.95 178.45 94.15C178.45 94.58 178.82 94.92 179.22 94.92C179.40 94.92 179.58 94.85 179.73 94.71L180.70 93.71L180.70 99.17C180.70 99.66 181.12 100.08 181.61 100.08C182.13 100.08 182.55 99.66 182.55 99.17ZM190.83 97.62C190.83 96.44 190.13 95.76 189.61 95.53C190.05 95.32 190.69 94.83 190.69 93.49C190.69 91.99 189.07 91.20 187.35 91.20C185.60 91.20 184.00 91.99 184.00 93.49C184.00 94.83 184.63 95.32 185.07 95.53C184.55 95.76 183.86 96.44 183.86 97.62C183.86 99.25 185.53 100.16 187.35 100.16C189.17 100.16 190.83 99.23 190.83 97.62ZM188.80 93.77C188.80 94.42 188.14 94.80 187.35 94.80C186.55 94.80 185.88 94.42 185.88 93.77C185.88 93.15 186.49 92.78 187.35 92.78C188.19 92.78 188.80 93.15 188.80 93.77ZM188.96 97.52C188.96 98.15 188.23 98.57 187.35 98.57C186.44 98.57 185.73 98.15 185.73 97.52C185.73 96.79 186.54 96.36 187.35 96.36C188.14 96.36 188.96 96.79 188.96 97.52ZM194.08 99.36C194.08 98.52 193.52 98.04 192.91 98.04C192.36 98.04 191.90 98.50 191.90 99.08C191.90 99.64 192.29 100.01 192.78 100.01C192.87 100.01 192.99 99.99 193.03 99.97C192.95 100.31 192.66 100.72 192.32 100.99C192.23 101.07 192.19 101.17 192.19 101.27C192.19 101.53 192.47 101.69 192.69 101.69C192.82 101.69 192.94 101.65 193.03 101.56C193.68 100.97 194.08 100.19 194.08 99.36ZM201.84 97.18C201.84 95.33 200.45 94.36 198.89 94.36C197.81 94.36 197.00 94.89 196.67 95.48C196.65 95.41 196.65 95.36 196.65 95.29C196.65 93.92 197.55 92.84 198.83 92.84C199.27 92.84 199.63 92.91 199.96 93.08C200.07 93.15 200.20 93.17 200.33 93.17C200.74 93.17 201.18 92.86 201.18 92.37C201.18 92.24 201.14 92.12 201.09 92.02C200.76 91.45 199.67 91.20 198.83 91.20C196.26 91.20 194.78 93.06 194.78 95.68C194.78 98.13 195.89 100.16 198.53 100.16C200.50 100.16 201.84 98.87 201.84 97.18ZM199.97 97.24C199.97 97.89 199.49 98.52 198.49 98.52C197.67 98.52 197.06 97.96 197.06 97.15C197.06 96.37 197.68 95.81 198.49 95.81C199.32 95.81 199.97 96.37 199.97 97.24ZM209.67 97.62C209.67 96.44 208.97 95.76 208.44 95.53C208.89 95.32 209.52 94.83 209.52 93.49C209.52 91.99 207.91 91.20 206.18 91.20C204.44 91.20 202.84 91.99 202.84 93.49C202.84 94.83 203.47 95.32 203.91 95.53C203.39 95.76 202.70 96.44 202.70 97.62C202.70 99.25 204.36 100.16 206.18 100.16C208.00 100.16 209.67 99.23 209.67 97.62ZM207.64 93.77C207.64 94.42 206.98 94.80 206.18 94.80C205.39 94.80 204.71 94.42 204.71 93.77C204.71 93.15 205.32 92.78 206.18 92.78C207.03 92.78 207.64 93.15 207.64 93.77ZM207.79 97.52C207.79 98.15 207.07 98.57 206.18 98.57C205.27 98.57 204.57 98.15 204.57 97.52C204.57 96.79 205.38 96.36 206.18 96.36C206.98 96.36 207.79 96.79 207.79 97.52ZM217.55 97.62C217.55 96.44 216.84 95.76 216.32 95.53C216.77 95.32 217.40 94.83 217.40 93.49C217.40 91.99 215.79 91.20 214.06 91.20C212.32 91.20 210.72 91.99 210.72 93.49C210.72 94.83 211.34 95.32 211.79 95.53C211.27 95.76 210.58 96.44 210.58 97.62C210.58 99.25 212.24 100.16 214.06 100.16C215.88 100.16 217.55 99.23 217.55 97.62ZM215.52 93.77C215.52 94.42 214.85 94.80 214.06 94.80C213.27 94.80 212.59 94.42 212.59 93.77C212.59 93.15 213.20 92.78 214.06 92.78C214.91 92.78 215.52 93.15 215.52 93.77ZM215.67 97.52C215.67 98.15 214.95 98.57 214.06 98.57C213.15 98.57 212.45 98.15 212.45 97.52C212.45 96.79 213.26 96.36 214.06 96.36C214.85 96.36 215.67 96.79 215.67 97.52Z" fill="#9aa7b4" /></g><g aria-label="Deletions: 12,889,093"><circle cx="22" cy="118" r="4" fill="#00a5fe" /><path d="M42.54 117.67C42.54 115.17 40.76 113.33 38.06 113.33L35.82 113.33C35.35 113.33 34.98 113.71 34.98 114.17L34.98 121.16C34.98 121.62 35.35 122 35.82 122L38.06 122C40.76 122 42.54 120.18 42.54 117.67ZM41.23 117.67C41.23 119.43 40.06 120.86 38.06 120.86L36.26 120.86L36.26 114.47L38.06 114.47C40.11 114.47 41.23 115.89 41.23 117.67ZM49.90 118.65C49.90 118.40 49.83 118.13 49.78 117.92C49.42 116.51 48.38 115.56 46.86 115.56C45.04 115.56 43.72 117.03 43.72 118.85C43.72 120.83 45.09 122.16 46.96 122.16C47.88 122.16 49.50 121.67 49.50 120.97C49.50 120.53 49.05 120.43 48.77 120.57C48.31 120.91 47.61 121.22 47.08 121.22C45.80 121.22 45.02 120.35 44.93 119.27L49.30 119.27C49.63 119.27 49.90 118.96 49.90 118.65ZM44.93 118.41C44.98 117.54 45.60 116.50 46.84 116.50C48.18 116.50 48.76 117.57 48.78 118.41ZM52.54 113.81C52.54 113.51 52.28 113.25 51.98 113.25C51.64 113.25 51.38 113.51 51.38 113.81L51.38 121.51C51.38 121.82 51.64 122.08 51.95 122.08C52.28 122.08 52.54 121.82 52.54 121.51ZM60.21 118.65C60.21 118.40 60.14 118.13 60.09 117.92C59.73 116.51 58.69 115.56 57.17 115.56C55.35 115.56 54.03 117.03 54.03 118.85C54.03 120.83 55.40 122.16 57.27 122.16C58.19 122.16 59.81 121.67 59.81 120.97C59.81 120.53 59.36 120.43 59.08 120.57C58.62 120.91 57.92 121.22 57.39 121.22C56.11 121.22 55.33 120.35 55.24 119.27L59.61 119.27C59.94 119.27 60.21 118.96 60.21 118.65ZM55.24 118.41C55.29 117.54 55.91 116.50 57.15 116.50C58.49 116.50 59.06 117.57 59.09 118.41ZM64.62 121.55C64.62 121.27 64.41 121.06 64.12 121.06C63.99 121.06 63.84 121.13 63.69 121.13C63.32 121.13 63.08 120.83 63.08 120.35L63.08 116.73L63.94 116.73C64.21 116.73 64.43 116.51 64.43 116.24C64.43 115.94 64.21 115.72 63.94 115.72L63.08 115.72L63.08 114.49C63.08 114.19 62.82 113.93 62.51 113.93C62.17 113.93 61.91 114.19 61.91 114.49L61.91 115.72L61.30 115.72C61.01 115.72 60.79 115.94 60.79 116.22C60.79 116.51 61.01 116.73 61.30 116.73L61.91 116.73L61.91 120.62C61.91 121.61 62.43 122.16 63.42 122.16C64.11 122.16 64.62 121.96 64.62 121.55ZM66.24 113.39C65.84 113.39 65.50 113.73 65.50 114.15C65.50 114.55 65.84 114.89 66.24 114.89C66.66 114.89 66.98 114.55 66.98 114.15C66.98 113.73 66.66 113.39 66.24 113.39ZM66.83 116.20C66.83 115.90 66.56 115.64 66.27 115.64C65.93 115.64 65.67 115.90 65.67 116.20L65.67 121.51C65.67 121.82 65.93 122.08 66.24 122.08C66.56 122.08 66.83 121.82 66.83 121.51ZM74.65 118.85C74.65 117.05 73.44 115.56 71.48 115.56C69.53 115.56 68.32 117.05 68.32 118.85C68.32 120.66 69.53 122.16 71.48 122.16C73.44 122.16 74.65 120.66 74.65 118.85ZM73.44 118.85C73.44 120.06 72.74 121.13 71.48 121.13C70.23 121.13 69.52 120.06 69.52 118.85C69.52 117.66 70.23 116.59 71.48 116.59C72.74 116.59 73.44 117.66 73.44 118.85ZM81.54 117.97C81.54 116.64 80.58 115.56 79.25 115.56C78.16 115.56 77.60 116.10 77.30 116.61L77.30 116.20C77.30 115.90 77.04 115.64 76.74 115.64C76.41 115.64 76.15 115.90 76.15 116.20L76.15 121.51C76.15 121.82 76.41 122.08 76.72 122.08C77.04 122.08 77.30 121.82 77.30 121.51L77.30 118.49C77.30 117.42 77.88 116.59 78.88 116.59C79.81 116.59 80.38 117.32 80.38 118.36L80.38 121.51C80.38 121.82 80.64 122.08 80.96 122.08C81.28 122.08 81.54 121.82 81.54 121.51ZM88.01 120.10C87.90 117.89 84.30 118.50 84.17 117.37C84.11 116.86 84.66 116.49 85.45 116.49C86.05 116.49 86.61 116.68 87.01 116.97C87.09 117.03 87.18 117.06 87.29 117.06C87.52 117.06 87.74 116.86 87.74 116.61C87.74 116.50 87.70 116.40 87.62 116.32C87.13 115.84 86.34 115.56 85.44 115.56C83.91 115.56 82.98 116.29 83.05 117.41C83.17 119.52 86.75 118.87 86.88 120.26C86.94 120.83 86.42 121.23 85.52 121.23C84.87 121.23 84.22 120.97 83.75 120.64C83.66 120.57 83.57 120.54 83.45 120.54C83.18 120.54 82.94 120.75 82.94 121.03C82.94 121.16 83.00 121.26 83.09 121.34C83.66 121.91 84.61 122.16 85.47 122.16C87.13 122.16 88.08 121.30 88.01 120.10Z" fill="#e6edf3" /><path d="M155.98 114.32C155.98 113.73 155.48 113.26 154.90 113.26C154.60 113.26 154.31 113.38 154.12 113.58L152.12 115.60C151.96 115.76 151.88 115.95 151.88 116.15C151.88 116.58 152.25 116.92 152.65 116.92C152.83 116.92 153.01 116.85 153.16 116.71L154.13 115.71L154.13 121.17C154.13 121.66 154.55 122.08 155.04 122.08C155.56 122.08 155.98 121.66 155.98 121.17ZM164.05 121.17C164.05 120.74 163.69 120.38 163.26 120.38L160.44 120.38C162.68 118.74 163.91 117.45 163.91 115.97C163.91 114.24 162.44 113.20 160.59 113.20C159.50 113.20 158.04 113.67 157.63 114.33C157.55 114.45 157.51 114.58 157.51 114.71C157.51 115.17 157.89 115.54 158.32 115.54C158.51 115.54 158.68 115.49 158.85 115.37C159.34 115.03 159.94 114.84 160.63 114.84C161.35 114.84 162.03 115.21 162.03 115.97C162.03 116.98 160.99 117.93 157.76 120.32C157.51 120.50 157.37 120.80 157.37 121.10C157.37 121.62 157.78 122 158.24 122L163.26 122C163.69 122 164.05 121.64 164.05 121.17ZM167.43 121.36C167.43 120.52 166.87 120.04 166.26 120.04C165.71 120.04 165.25 120.50 165.25 121.08C165.25 121.64 165.64 122.01 166.13 122.01C166.22 122.01 166.34 121.99 166.38 121.97C166.30 122.31 166.01 122.72 165.67 122.99C165.58 123.07 165.54 123.17 165.54 123.27C165.54 123.53 165.82 123.69 166.04 123.69C166.17 123.69 166.29 123.65 166.38 123.56C167.03 122.97 167.43 122.19 167.43 121.36ZM175.39 119.62C175.39 118.44 174.68 117.76 174.16 117.53C174.61 117.32 175.24 116.83 175.24 115.49C175.24 113.99 173.63 113.20 171.90 113.20C170.16 113.20 168.56 113.99 168.56 115.49C168.56 116.83 169.19 117.32 169.63 117.53C169.11 117.76 168.42 118.44 168.42 119.62C168.42 121.25 170.08 122.16 171.90 122.16C173.72 122.16 175.39 121.23 175.39 119.62ZM173.36 115.77C173.36 116.42 172.69 116.80 171.90 116.80C171.11 116.80 170.43 116.42 170.43 115.77C170.43 115.15 171.04 114.78 171.90 114.78C172.75 114.78 173.36 115.15 173.36 115.77ZM173.51 119.52C173.51 120.15 172.79 120.57 171.90 120.57C170.99 120.57 170.29 120.15 170.29 119.52C170.29 118.79 171.10 118.36 171.90 118.36C172.69 118.36 173.51 118.79 173.51 119.52ZM183.26 119.62C183.26 118.44 182.56 117.76 182.04 117.53C182.48 117.32 183.12 116.83 183.12 115.49C183.12 113.99 181.51 113.20 179.78 113.20C178.04 113.20 176.44 113.99 176.44 115.49C176.44 116.83 177.06 117.32 177.50 117.53C176.99 117.76 176.30 118.44 176.30 119.62C176.30 121.25 177.96 122.16 179.78 122.16C181.60 122.16 183.26 121.23 183.26 119.62ZM181.24 115.77C181.24 116.42 180.57 116.80 179.78 116.80C178.99 116.80 178.31 116.42 178.31 115.77C178.31 115.15 178.92 114.78 179.78 114.78C180.63 114.78 181.24 115.15 181.24 115.77ZM181.39 119.52C181.39 120.15 180.66 120.57 179.78 120.57C178.87 120.57 178.17 120.15 178.17 119.52C178.17 118.79 178.97 118.36 179.78 118.36C180.57 118.36 181.39 118.79 181.39 119.52ZM184.11 116.16C184.11 118.01 185.50 118.98 187.06 118.98C188.14 118.98 188.95 118.45 189.28 117.87C189.30 117.93 189.30 117.98 189.30 118.05C189.30 119.43 188.40 120.50 187.13 120.50C186.68 120.50 186.32 120.43 185.99 120.26C185.88 120.19 185.75 120.17 185.62 120.17C185.21 120.17 184.77 120.48 184.77 120.97C184.77 121.10 184.81 121.22 184.86 121.32C185.19 121.90 186.28 122.14 187.13 122.14C189.69 122.14 191.17 120.28 191.17 117.66C191.17 115.21 190.06 113.19 187.42 113.19C185.45 113.19 184.11 114.47 184.11 116.16ZM185.98 116.10C185.98 115.45 186.46 114.82 187.46 114.82C188.28 114.82 188.89 115.38 188.89 116.19C188.89 116.97 188.27 117.53 187.46 117.53C186.63 117.53 185.98 116.97 185.98 116.10ZM194.15 121.36C194.15 120.52 193.59 120.04 192.98 120.04C192.43 120.04 191.96 120.50 191.96 121.08C191.96 121.64 192.35 122.01 192.85 122.01C192.94 122.01 193.05 121.99 193.09 121.97C193.01 122.31 192.73 122.72 192.39 122.99C192.30 123.07 192.26 123.17 192.26 123.27C192.26 123.53 192.53 123.69 192.75 123.69C192.88 123.69 193.00 123.65 193.09 123.56C193.74 122.97 194.15 122.19 194.15 121.36ZM202.02 117.67C202.02 115.44 200.91 113.20 198.44 113.20C195.95 113.20 194.85 115.44 194.85 117.67C194.85 119.91 195.95 122.16 198.44 122.16C200.91 122.16 202.02 119.91 202.02 117.67ZM200.14 117.67C200.14 119.27 199.67 120.52 198.44 120.52C197.19 120.52 196.72 119.27 196.72 117.67C196.72 116.07 197.19 114.84 198.44 114.84C199.67 114.84 200.14 116.07 200.14 117.67ZM202.86 116.16C202.86 118.01 204.25 118.98 205.81 118.98C206.89 118.98 207.69 118.45 208.03 117.87C208.04 117.93 208.04 117.98 208.04 118.05C208.04 119.43 207.15 120.50 205.87 120.50C205.43 120.50 205.07 120.43 204.74 120.26C204.62 120.19 204.49 120.17 204.36 120.17C203.96 120.17 203.52 120.48 203.52 120.97C203.52 121.10 203.56 121.22 203.61 121.32C203.93 121.90 205.03 122.14 205.87 122.14C208.43 122.14 209.91 120.28 209.91 117.66C209.91 115.21 208.81 113.19 206.17 113.19C204.19 113.19 202.86 114.47 202.86 116.16ZM204.73 116.10C204.73 115.45 205.21 114.82 206.21 114.82C207.03 114.82 207.64 115.38 207.64 116.19C207.64 116.97 207.02 117.53 206.21 117.53C205.38 117.53 204.73 116.97 204.73 116.10ZM217.43 119.63C217.53 118.07 216.48 117.53 216.48 117.53C216.48 117.53 217.44 117.03 217.34 115.55C217.23 114.11 216.09 113.20 214.06 113.20C212.87 113.20 211.93 113.55 211.21 114.12C211.03 114.27 210.94 114.47 210.94 114.68C210.94 115.14 211.34 115.46 211.75 115.46C211.90 115.46 212.06 115.42 212.19 115.33C212.70 115.01 213.27 114.84 213.87 114.84C214.78 114.84 215.48 115.05 215.48 115.73C215.48 116.45 215.05 116.79 214.18 116.79C213.55 116.79 213.28 117.14 213.28 117.59C213.28 118.05 213.55 118.41 214.23 118.41C215.11 118.41 215.62 118.72 215.62 119.41C215.62 120.06 215.04 120.52 213.98 120.52C213.39 120.52 212.70 120.31 212.12 119.97C211.98 119.88 211.83 119.84 211.67 119.84C211.24 119.84 210.82 120.19 210.82 120.66C210.82 120.79 210.86 120.91 210.93 121.01C211.33 121.69 212.80 122.16 214.05 122.16C216.13 122.16 217.32 121.26 217.43 119.63Z" fill="#9aa7b4" /></g><g aria-label="Changed Files: 501,539"><circle cx="22" cy="140" r="4" fill="#673bd6" /><path d="M39.11 135.19C36.59 135.19 34.60 137.01 34.60 139.67C34.60 142.34 36.59 144.16 39.11 144.16C40.46 144.16 41.40 143.60 42.07 142.87C42.18 142.76 42.23 142.62 42.23 142.47C42.23 142.15 41.97 141.87 41.63 141.87C41.46 141.87 41.28 141.95 41.18 142.08C40.64 142.67 39.88 143.01 39.11 143.01C37.29 143.01 35.94 141.61 35.94 139.67C35.94 137.72 37.29 136.33 39.11 136.33C39.86 136.33 40.67 136.69 41.18 137.28C41.28 137.42 41.46 137.49 41.62 137.49C41.96 137.49 42.23 137.21 42.23 136.89C42.23 136.73 42.18 136.59 42.07 136.47C41.41 135.73 40.46 135.19 39.11 135.19ZM49.17 139.94C49.17 138.62 48.22 137.56 46.90 137.56C45.79 137.56 45.22 138.10 44.92 138.60L44.92 135.81C44.92 135.51 44.66 135.25 44.36 135.25C44.02 135.25 43.76 135.51 43.76 135.81L43.76 143.51C43.76 143.82 44.02 144.08 44.34 144.08C44.66 144.08 44.92 143.82 44.92 143.51L44.92 140.56C44.92 139.38 45.54 138.59 46.53 138.59C47.47 138.59 48.01 139.29 48.01 140.33L48.01 143.51C48.01 143.82 48.27 144.08 48.59 144.08C48.91 144.08 49.17 143.82 49.17 143.51ZM56.09 139.75C56.09 138.15 54.92 137.56 53.56 137.56C52.72 137.56 51.77 137.84 51.17 138.44C51.09 138.53 51.06 138.63 51.06 138.74C51.06 139.01 51.30 139.19 51.54 139.19C51.63 139.19 51.73 139.15 51.82 139.09C52.29 138.72 52.81 138.54 53.40 138.54C54.28 138.54 54.93 139.01 54.93 139.80L54.93 140.15L53.12 140.15C51.82 140.15 50.68 140.66 50.68 142.08C50.68 143.45 51.82 144.16 52.86 144.16C53.84 144.16 54.42 143.86 54.93 143.30L54.93 143.51C54.93 143.88 55.23 144.08 55.46 144.08L55.50 144.08C55.83 144.08 56.09 143.82 56.09 143.51ZM54.93 140.96L54.93 141.84C54.93 142.58 54.09 143.34 53.17 143.34C52.33 143.34 51.85 142.83 51.85 142.10C51.85 141.35 52.45 140.96 53.44 140.96ZM63.34 139.97C63.34 138.64 62.38 137.56 61.05 137.56C59.96 137.56 59.40 138.10 59.10 138.60L59.10 138.20C59.10 137.90 58.84 137.64 58.54 137.64C58.21 137.64 57.95 137.90 57.95 138.20L57.95 143.51C57.95 143.82 58.21 144.08 58.52 144.08C58.84 144.08 59.10 143.82 59.10 143.51L59.10 140.49C59.10 139.42 59.67 138.59 60.68 138.59C61.61 138.59 62.18 139.32 62.18 140.36L62.18 143.51C62.18 143.82 62.44 144.08 62.76 144.08C63.08 144.08 63.34 143.82 63.34 143.51ZM70.84 138.20C70.84 137.90 70.58 137.64 70.28 137.64C69.95 137.64 69.69 137.90 69.69 138.20L69.69 138.63C69.18 137.96 68.45 137.56 67.62 137.56C65.99 137.56 64.84 138.79 64.84 140.81C64.84 142.86 66.01 144.05 67.62 144.05C68.48 144.05 69.22 143.60 69.69 142.96L69.69 143.79C69.69 145.13 68.72 145.60 67.75 145.60C67.06 145.60 66.51 145.46 66.03 145.05C65.94 144.99 65.85 144.96 65.73 144.96C65.47 144.96 65.24 145.18 65.24 145.46C65.24 145.59 65.29 145.70 65.37 145.78C65.98 146.37 66.86 146.55 67.75 146.55C69.28 146.55 70.84 145.91 70.84 143.75ZM69.69 140.83C69.69 142.12 68.84 143.03 67.80 143.03C66.63 143.03 66.03 142.10 66.03 140.81C66.03 139.50 66.63 138.59 67.80 138.59C68.84 138.59 69.69 139.49 69.69 140.78ZM78.51 140.65C78.51 140.40 78.45 140.13 78.40 139.92C78.03 138.51 76.99 137.56 75.47 137.56C73.65 137.56 72.34 139.03 72.34 140.85C72.34 142.83 73.70 144.16 75.57 144.16C76.50 144.16 78.11 143.68 78.11 142.97C78.11 142.53 77.67 142.43 77.38 142.57C76.93 142.91 76.22 143.22 75.69 143.22C74.42 143.22 73.64 142.35 73.55 141.27L77.91 141.27C78.24 141.27 78.51 140.96 78.51 140.65ZM73.55 140.41C73.60 139.54 74.21 138.50 75.46 138.50C76.80 138.50 77.37 139.57 77.39 140.41ZM85.64 135.81C85.64 135.51 85.38 135.25 85.08 135.25C84.74 135.25 84.48 135.51 84.48 135.81L84.48 138.63C83.97 137.96 83.36 137.56 82.41 137.56C80.77 137.56 79.62 138.85 79.62 140.87C79.62 142.92 80.79 144.16 82.41 144.16C83.39 144.16 84.00 143.73 84.48 143.10L84.48 143.51C84.48 143.82 84.74 144.08 85.05 144.08C85.38 144.08 85.64 143.82 85.64 143.51ZM84.48 140.91C84.48 142.21 83.83 143.13 82.71 143.13C81.54 143.13 80.81 142.18 80.81 140.87C80.81 139.55 81.54 138.59 82.71 138.59C83.83 138.59 84.48 139.54 84.48 140.83ZM96.76 135.91C96.76 135.58 96.52 135.33 96.20 135.33L91.73 135.33C91.27 135.33 90.89 135.71 90.89 136.17L90.89 143.44C90.89 143.79 91.17 144.08 91.52 144.08C91.89 144.08 92.17 143.79 92.17 143.44L92.17 140.15L96.11 140.15C96.43 140.15 96.67 139.89 96.67 139.59C96.67 139.25 96.43 139.01 96.11 139.01L92.17 139.01L92.17 136.47L96.20 136.47C96.52 136.47 96.76 136.21 96.76 135.91ZM98.65 135.39C98.25 135.39 97.91 135.73 97.91 136.15C97.91 136.55 98.25 136.89 98.65 136.89C99.06 136.89 99.39 136.55 99.39 136.15C99.39 135.73 99.06 135.39 98.65 135.39ZM99.23 138.20C99.23 137.90 98.97 137.64 98.67 137.64C98.34 137.64 98.08 137.90 98.08 138.20L98.08 143.51C98.08 143.82 98.34 144.08 98.65 144.08C98.97 144.08 99.23 143.82 99.23 143.51ZM102.26 135.81C102.26 135.51 102.00 135.25 101.70 135.25C101.37 135.25 101.11 135.51 101.11 135.81L101.11 143.51C101.11 143.82 101.37 144.08 101.68 144.08C102.00 144.08 102.26 143.82 102.26 143.51ZM109.93 140.65C109.93 140.40 109.87 140.13 109.82 139.92C109.45 138.51 108.41 137.56 106.89 137.56C105.07 137.56 103.76 139.03 103.76 140.85C103.76 142.83 105.12 144.16 106.99 144.16C107.92 144.16 109.53 143.68 109.53 142.97C109.53 142.53 109.09 142.43 108.80 142.57C108.35 142.91 107.64 143.22 107.11 143.22C105.84 143.22 105.06 142.35 104.97 141.27L109.33 141.27C109.66 141.27 109.93 140.96 109.93 140.65ZM104.97 140.41C105.02 139.54 105.63 138.50 106.88 138.50C108.22 138.50 108.79 139.57 108.81 140.41ZM116.02 142.10C115.90 139.89 112.30 140.50 112.17 139.37C112.12 138.87 112.66 138.49 113.46 138.49C114.05 138.49 114.61 138.68 115.02 138.97C115.09 139.03 115.18 139.06 115.29 139.06C115.52 139.06 115.74 138.87 115.74 138.60C115.74 138.50 115.70 138.40 115.63 138.32C115.13 137.84 114.34 137.56 113.44 137.56C111.91 137.56 110.99 138.29 111.05 139.41C111.17 141.52 114.76 140.87 114.89 142.26C114.94 142.83 114.42 143.23 113.52 143.23C112.87 143.23 112.22 142.97 111.75 142.63C111.66 142.57 111.57 142.54 111.45 142.54C111.18 142.54 110.95 142.75 110.95 143.03C110.95 143.16 111.00 143.26 111.09 143.34C111.66 143.91 112.61 144.16 113.47 144.16C115.13 144.16 116.08 143.30 116.02 142.10Z" fill="#e6edf3" /><path d="M177.38 141.15C177.38 139.40 176.06 138.34 174.59 138.34C173.80 138.34 173.10 138.66 172.68 139.07L172.68 136.95L176.07 136.95C176.50 136.95 176.87 136.59 176.87 136.15C176.87 135.69 176.50 135.33 176.07 135.33L171.88 135.33C171.30 135.33 170.84 135.80 170.84 136.37L170.84 139.70C170.84 140.20 171.20 140.58 171.77 140.58C172.03 140.58 172.28 140.50 172.49 140.36C172.95 140.05 173.41 139.94 173.94 139.94C174.93 139.94 175.50 140.46 175.50 141.23C175.50 141.93 174.92 142.52 173.89 142.52C173.27 142.52 172.67 142.35 172.16 142.04C172.01 141.95 171.84 141.89 171.68 141.89C171.23 141.89 170.80 142.25 170.80 142.73C170.80 142.86 170.84 142.99 170.90 143.10C171.30 143.78 172.77 144.16 173.90 144.16C176.00 144.16 177.38 143.00 177.38 141.15ZM185.45 139.67C185.45 137.44 184.33 135.20 181.86 135.20C179.38 135.20 178.27 137.44 178.27 139.67C178.27 141.91 179.38 144.16 181.86 144.16C184.33 144.16 185.45 141.91 185.45 139.67ZM183.56 139.67C183.56 141.27 183.09 142.52 181.86 142.52C180.61 142.52 180.14 141.27 180.14 139.67C180.14 138.07 180.61 136.84 181.86 136.84C183.09 136.84 183.56 138.07 183.56 139.67ZM190.38 136.32C190.38 135.73 189.88 135.26 189.30 135.26C189.00 135.26 188.71 135.38 188.52 135.58L186.51 137.60C186.36 137.76 186.28 137.96 186.28 138.15C186.28 138.58 186.64 138.92 187.05 138.92C187.23 138.92 187.41 138.85 187.55 138.71L188.53 137.71L188.53 143.17C188.53 143.66 188.94 144.08 189.44 144.08C189.96 144.08 190.38 143.66 190.38 143.17ZM194.03 143.36C194.03 142.52 193.47 142.04 192.86 142.04C192.31 142.04 191.84 142.50 191.84 143.08C191.84 143.64 192.23 144.01 192.73 144.01C192.82 144.01 192.94 143.99 192.97 143.97C192.90 144.31 192.61 144.72 192.27 144.99C192.18 145.07 192.14 145.17 192.14 145.27C192.14 145.53 192.42 145.69 192.64 145.69C192.77 145.69 192.88 145.65 192.97 145.56C193.62 144.97 194.03 144.19 194.03 143.36ZM202.01 141.15C202.01 139.40 200.70 138.34 199.23 138.34C198.43 138.34 197.73 138.66 197.32 139.07L197.32 136.95L200.71 136.95C201.14 136.95 201.50 136.59 201.50 136.15C201.50 135.69 201.14 135.33 200.71 135.33L196.51 135.33C195.94 135.33 195.47 135.80 195.47 136.37L195.47 139.70C195.47 140.20 195.83 140.58 196.41 140.58C196.67 140.58 196.91 140.50 197.12 140.36C197.59 140.05 198.04 139.94 198.58 139.94C199.57 139.94 200.14 140.46 200.14 141.23C200.14 141.93 199.55 142.52 198.53 142.52C197.90 142.52 197.30 142.35 196.80 142.04C196.64 141.95 196.47 141.89 196.32 141.89C195.86 141.89 195.43 142.25 195.43 142.73C195.43 142.86 195.47 142.99 195.54 143.10C195.94 143.78 197.41 144.16 198.54 144.16C200.63 144.16 202.01 143.00 202.01 141.15ZM209.52 141.63C209.63 140.07 208.57 139.53 208.57 139.53C208.57 139.53 209.54 139.03 209.43 137.55C209.33 136.11 208.18 135.20 206.16 135.20C204.96 135.20 204.02 135.55 203.31 136.12C203.13 136.26 203.04 136.47 203.04 136.68C203.04 137.14 203.44 137.46 203.84 137.46C204.00 137.46 204.15 137.42 204.28 137.33C204.79 137.01 205.36 136.84 205.96 136.84C206.87 136.84 207.57 137.04 207.57 137.73C207.57 138.45 207.14 138.79 206.27 138.79C205.65 138.79 205.38 139.14 205.38 139.59C205.38 140.05 205.65 140.41 206.33 140.41C207.21 140.41 207.72 140.72 207.72 141.41C207.72 142.06 207.13 142.52 206.08 142.52C205.48 142.52 204.79 142.31 204.22 141.97C204.08 141.88 203.92 141.84 203.76 141.84C203.34 141.84 202.92 142.19 202.92 142.66C202.92 142.79 202.96 142.91 203.02 143.01C203.43 143.69 204.90 144.16 206.14 144.16C208.22 144.16 209.42 143.26 209.52 141.63ZM210.49 138.16C210.49 140.01 211.88 140.98 213.44 140.98C214.52 140.98 215.32 140.45 215.66 139.87C215.67 139.93 215.67 139.98 215.67 140.05C215.67 141.43 214.78 142.50 213.50 142.50C213.06 142.50 212.70 142.43 212.37 142.26C212.25 142.19 212.12 142.17 211.99 142.17C211.59 142.17 211.15 142.48 211.15 142.97C211.15 143.10 211.19 143.22 211.24 143.32C211.56 143.90 212.66 144.14 213.50 144.14C216.06 144.14 217.54 142.28 217.54 139.66C217.54 137.21 216.44 135.19 213.80 135.19C211.82 135.19 210.49 136.47 210.49 138.16ZM212.36 138.10C212.36 137.45 212.84 136.82 213.84 136.82C214.66 136.82 215.27 137.38 215.27 138.19C215.27 138.97 214.65 139.53 213.84 139.53C213.01 139.53 212.36 138.97 212.36 138.10Z" fill="#9aa7b4" /></g><rect x="18" y="166" width="384" height="8" rx="4" fill="#21262d" /><rect x="18.00" y="166" width="265.90" height="8" rx="4" fill="#00d559" /><rect x="283.90" y="166" width="118.10" height="8" rx="4" fill="#00a5fe" /></svg>