<svg xmlns="http://www.w3.org/2000/svg" width="420" height="184" viewBox="0 0 420 184" role="img"><rect x="0.5" y="0.5" width="419" height="183" rx="10" fill="#161b22" stroke="#30363d" /><path d="M30.72 33.60C30.72 32.83 30.10 32.21 29.37 32.21L28.69 32.21L28.69 24.95C28.69 23.59 27.37 22.97 26.03 23.19C25.08 23.19 24.14 23.70 23.63 24.49L18.73 32.24C18.53 32.54 18.44 32.90 18.44 33.25C18.44 34.24 19.17 34.96 20.05 34.96L25.57 34.96L25.57 36.59C25.57 37.43 26.27 38.13 27.11 38.13C27.99 38.13 28.69 37.43 28.69 36.59L28.69 34.96L29.37 34.96C30.10 34.96 30.72 34.35 30.72 33.60ZM21.61 32.21L25.57 26.10L25.57 32.21ZM43.83 33.23C43.83 30.10 41.47 28.45 38.83 28.45C37.01 28.45 35.64 29.35 35.07 30.34C35.05 30.23 35.05 30.15 35.05 30.04C35.05 27.70 36.57 25.88 38.72 25.88C39.47 25.88 40.09 26.01 40.64 26.30C40.84 26.41 41.06 26.45 41.28 26.45C41.96 26.45 42.71 25.92 42.71 25.09C42.71 24.87 42.64 24.67 42.55 24.49C42.00 23.52 40.15 23.11 38.72 23.11C34.39 23.11 31.88 26.25 31.88 30.70C31.88 34.83 33.75 38.26 38.22 38.26C41.56 38.26 43.83 36.09 43.83 33.23ZM40.66 33.34C40.66 34.44 39.85 35.49 38.15 35.49C36.77 35.49 35.73 34.55 35.73 33.18C35.73 31.86 36.79 30.92 38.15 30.92C39.56 30.92 40.66 31.86 40.66 33.34ZM49.24 36.92C49.24 35.49 48.29 34.68 47.26 34.68C46.34 34.68 45.54 35.47 45.54 36.44C45.54 37.38 46.20 38.02 47.04 38.02C47.19 38.02 47.39 37.98 47.46 37.96C47.33 38.53 46.84 39.21 46.27 39.67C46.12 39.80 46.05 39.98 46.05 40.16C46.05 40.60 46.51 40.86 46.89 40.86C47.11 40.86 47.30 40.79 47.46 40.64C48.56 39.65 49.24 38.33 49.24 36.92ZM62.09 34.00C62.26 31.36 60.48 30.43 60.48 30.43C60.48 30.43 62.11 29.60 61.93 27.09C61.76 24.65 59.82 23.11 56.39 23.11C54.37 23.11 52.78 23.70 51.57 24.67C51.26 24.91 51.11 25.26 51.11 25.61C51.11 26.38 51.79 26.93 52.47 26.93C52.74 26.93 53.00 26.87 53.22 26.71C54.08 26.16 55.05 25.88 56.06 25.88C57.60 25.88 58.79 26.23 58.79 27.40C58.79 28.61 58.06 29.18 56.59 29.18C55.53 29.18 55.07 29.77 55.07 30.54C55.07 31.31 55.53 31.93 56.68 31.93C58.17 31.93 59.03 32.46 59.03 33.62C59.03 34.72 58.04 35.49 56.26 35.49C55.25 35.49 54.08 35.14 53.11 34.57C52.87 34.41 52.61 34.35 52.34 34.35C51.62 34.35 50.91 34.94 50.91 35.73C50.91 35.95 50.98 36.15 51.09 36.33C51.77 37.47 54.26 38.26 56.37 38.26C59.89 38.26 61.91 36.75 62.09 34.00ZM75.95 30.67C75.95 26.89 74.06 23.11 69.88 23.11C65.67 23.11 63.80 26.89 63.80 30.67C63.80 34.46 65.67 38.26 69.88 38.26C74.06 38.26 75.95 34.46 75.95 30.67ZM72.76 30.67C72.76 33.38 71.97 35.49 69.88 35.49C67.76 35.49 66.97 33.38 66.97 30.67C66.97 27.97 67.76 25.88 69.88 25.88C71.97 25.88 72.76 27.97 72.76 30.67ZM89.41 33.60C89.41 32.83 88.80 32.21 88.07 32.21L87.39 32.21L87.39 24.95C87.39 23.59 86.07 22.97 84.73 23.19C83.78 23.19 82.83 23.70 82.33 24.49L77.42 32.24C77.22 32.54 77.14 32.90 77.14 33.25C77.14 34.24 77.86 34.96 78.74 34.96L84.26 34.96L84.26 36.59C84.26 37.43 84.97 38.13 85.80 38.13C86.68 38.13 87.39 37.43 87.39 36.59L87.39 34.96L88.07 34.96C88.80 34.96 89.41 34.35 89.41 33.60ZM80.30 32.21L84.26 26.10L84.26 32.21ZM104.02 23.08C99.62 23.08 96.21 26.16 96.21 30.67C96.21 35.18 99.62 38.26 104.02 38.26C106.55 38.26 108.24 37.16 109.34 35.82C109.56 35.58 109.65 35.27 109.65 34.96C109.65 34.22 109.01 33.60 108.22 33.60C107.78 33.60 107.34 33.78 107.03 34.11C106.22 35.01 105.12 35.49 104.02 35.49C101.36 35.49 99.42 33.45 99.42 30.67C99.42 27.90 101.36 25.86 104.02 25.86C105.12 25.86 106.20 26.38 107.03 27.26C107.34 27.59 107.76 27.77 108.18 27.77C108.99 27.77 109.67 27.15 109.67 26.36C109.67 26.08 109.56 25.75 109.37 25.50C108.24 24.16 106.55 23.08 104.02 23.08ZM122.52 32.68C122.52 29.66 120.41 27.11 116.89 27.11C113.39 27.11 111.28 29.66 111.28 32.68C111.28 35.71 113.39 38.26 116.89 38.26C120.41 38.26 122.52 35.71 122.52 32.68ZM119.62 32.68C119.62 34.35 118.63 35.78 116.89 35.78C115.15 35.78 114.18 34.35 114.18 32.68C114.18 31.03 115.15 29.60 116.89 29.60C118.63 29.60 119.62 31.03 119.62 32.68ZM140.58 31.20C140.58 29.02 139.07 27.11 136.67 27.11C134.82 27.11 133.76 28.19 133.37 28.94C132.97 28.17 131.98 27.11 130.20 27.11C128.57 27.11 127.82 27.70 127.38 28.28L127.38 28.25C127.38 27.95 126.99 27.24 126.02 27.24C125.21 27.24 124.59 27.86 124.59 28.61L124.59 36.75C124.59 37.52 125.21 38.13 125.98 38.13C126.77 38.13 127.38 37.52 127.38 36.75L127.38 31.73C127.38 30.70 128.18 29.60 129.36 29.60C130.51 29.60 131.17 30.74 131.17 31.73L131.17 36.75C131.17 37.52 131.78 38.13 132.55 38.13C133.37 38.13 133.98 37.52 133.98 36.75L133.98 31.93C133.98 30.70 134.75 29.60 135.96 29.60C137.11 29.60 137.77 30.74 137.77 31.73L137.77 36.75C137.77 37.52 138.38 38.13 139.15 38.13C139.97 38.13 140.58 37.52 140.58 36.75ZM159.33 31.20C159.33 29.02 157.81 27.11 155.41 27.11C153.56 27.11 152.51 28.19 152.11 28.94C151.72 28.17 150.73 27.11 148.94 27.11C147.32 27.11 146.57 27.70 146.13 28.28L146.13 28.25C146.13 27.95 145.73 27.24 144.76 27.24C143.95 27.24 143.33 27.86 143.33 28.61L143.33 36.75C143.33 37.52 143.95 38.13 144.72 38.13C145.51 38.13 146.13 37.52 146.13 36.75L146.13 31.73C146.13 30.70 146.92 29.60 148.11 29.60C149.25 29.60 149.91 30.74 149.91 31.73L149.91 36.75C149.91 37.52 150.53 38.13 151.30 38.13C152.11 38.13 152.73 37.52 152.73 36.75L152.73 31.93C152.73 30.70 153.50 29.60 154.71 29.60C155.85 29.60 156.51 30.74 156.51 31.73L156.51 36.75C156.51 37.52 157.13 38.13 157.90 38.13C158.71 38.13 159.33 37.52 159.33 36.75ZM163.46 22.91C162.56 22.91 161.79 23.63 161.79 24.56C161.79 25.48 162.56 26.23 163.46 26.23C164.39 26.23 165.14 25.48 165.14 24.56C165.14 23.63 164.39 22.91 163.46 22.91ZM164.87 28.61C164.87 27.86 164.26 27.24 163.51 27.24C162.69 27.24 162.08 27.86 162.08 28.61L162.08 36.75C162.08 37.52 162.69 38.13 163.46 38.13C164.26 38.13 164.87 37.52 164.87 36.75ZM173.45 36.99C173.45 36.31 173.01 35.78 172.22 35.78L171.98 35.78C171.54 35.78 171.01 35.45 171.01 34.61L171.01 29.82L172.11 29.82C172.75 29.82 173.30 29.27 173.30 28.61C173.30 27.92 172.75 27.37 172.11 27.37L171.01 27.37L171.01 25.72C171.01 24.95 170.39 24.34 169.62 24.34C168.81 24.34 168.19 24.95 168.19 25.72L168.19 27.37L167.51 27.37C166.85 27.37 166.30 27.92 166.30 28.56C166.30 29.27 166.85 29.82 167.51 29.82L168.19 29.82L168.19 35.36C168.19 37.25 169.25 38.26 171.21 38.26C173.03 38.26 173.45 37.69 173.45 36.99ZM183.51 34.85C183.51 30.56 177.21 31.88 177.21 30.30C177.21 29.71 177.87 29.24 178.89 29.24C179.74 29.24 180.60 29.49 181.28 29.88C181.44 29.97 181.64 30.01 181.81 30.01C182.38 30.01 182.91 29.55 182.91 28.96C182.91 28.76 182.85 28.56 182.74 28.41C182.14 27.55 180.25 27.11 178.86 27.11C176.07 27.11 174.51 28.67 174.51 30.45C174.51 34.63 180.82 33.20 180.82 34.96C180.82 35.62 180.25 36.11 179.04 36.11C178.12 36.11 177.02 35.73 176.18 35.25C176.00 35.14 175.81 35.10 175.61 35.10C175.01 35.10 174.44 35.60 174.44 36.26C174.44 36.48 174.51 36.68 174.64 36.86C175.30 37.80 177.52 38.26 178.91 38.26C181.86 38.26 183.51 36.79 183.51 34.85Z" fill="#e6edf3" /><path d="M20.26 49.88C20.26 49.54 19.98 49.25 19.64 49.25C19.26 49.25 18.98 49.54 18.98 49.88L18.98 57.44C18.98 57.79 19.26 58.08 19.61 58.08C19.98 58.08 20.26 57.79 20.26 57.44ZM27.55 53.97C27.55 52.64 26.59 51.56 25.27 51.56C24.18 51.56 23.62 52.10 23.32 52.60L23.32 52.20C23.32 51.90 23.06 51.64 22.76 51.64C22.42 51.64 22.16 51.90 22.16 52.20L22.16 57.51C22.16 57.82 22.42 58.08 22.73 58.08C23.06 58.08 23.32 57.82 23.32 57.51L23.32 54.49C23.32 53.42 23.89 52.59 24.89 52.59C25.83 52.59 26.40 53.32 26.40 54.36L26.40 57.51C26.40 57.82 26.66 58.08 26.97 58.08C27.30 58.08 27.55 57.82 27.55 57.51ZM38.97 49.91C38.97 49.58 38.72 49.33 38.41 49.33L32.70 49.33C32.39 49.33 32.14 49.58 32.14 49.89C32.14 50.21 32.39 50.47 32.70 50.47L34.91 50.47L34.91 57.44C34.91 57.79 35.20 58.08 35.55 58.08C35.91 58.08 36.20 57.79 36.20 57.44L36.20 50.47L38.41 50.47C38.72 50.47 38.97 50.21 38.97 49.91ZM44.74 54.85C44.74 53.05 43.53 51.56 41.57 51.56C39.62 51.56 38.41 53.05 38.41 54.85C38.41 56.66 39.62 58.16 41.57 58.16C43.53 58.16 44.74 56.66 44.74 54.85ZM43.53 54.85C43.53 56.06 42.83 57.13 41.57 57.13C40.32 57.13 39.61 56.06 39.61 54.85C39.61 53.66 40.32 52.59 41.57 52.59C42.83 52.59 43.53 53.66 43.53 54.85ZM49.16 57.55C49.16 57.27 48.95 57.06 48.67 57.06C48.54 57.06 48.38 57.13 48.24 57.13C47.86 57.13 47.63 56.83 47.63 56.35L47.63 52.73L48.48 52.73C48.76 52.73 48.98 52.51 48.98 52.24C48.98 51.94 48.76 51.72 48.48 51.72L47.63 51.72L47.63 50.49C47.63 50.19 47.37 49.93 47.05 49.93C46.72 49.93 46.46 50.19 46.46 50.49L46.46 51.72L45.85 51.72C45.56 51.72 45.34 51.94 45.34 52.22C45.34 52.51 45.56 52.73 45.85 52.73L46.46 52.73L46.46 56.62C46.46 57.61 46.98 58.16 47.96 58.16C48.65 58.16 49.16 57.96 49.16 57.55ZM55.26 53.75C55.26 52.15 54.09 51.56 52.74 51.56C51.89 51.56 50.94 51.84 50.34 52.44C50.27 52.53 50.23 52.63 50.23 52.73C50.23 53.01 50.47 53.19 50.71 53.19C50.80 53.19 50.90 53.15 50.99 53.09C51.46 52.72 51.98 52.54 52.57 52.54C53.45 52.54 54.10 53.01 54.10 53.80L54.10 54.15L52.29 54.15C50.99 54.15 49.85 54.66 49.85 56.08C49.85 57.45 50.99 58.16 52.03 58.16C53.01 58.16 53.59 57.86 54.10 57.30L54.10 57.51C54.10 57.88 54.40 58.08 54.63 58.08L54.67 58.08C55.00 58.08 55.26 57.82 55.26 57.51ZM54.10 54.96L54.10 55.84C54.10 56.58 53.26 57.34 52.35 57.34C51.50 57.34 51.02 56.83 51.02 56.10C51.02 55.35 51.62 54.96 52.61 54.96ZM58.27 49.81C58.27 49.51 58.01 49.25 57.71 49.25C57.38 49.25 57.12 49.51 57.12 49.81L57.12 57.51C57.12 57.82 57.38 58.08 57.69 58.08C58.01 58.08 58.27 57.82 58.27 57.51Z" fill="#9aa7b4" /><line x1="18" y1="76" x2="48" y2="76" stroke="#9aa7b4" stroke-opacity="0.4" /><g aria-label="Additions: 27,679,068"><circle cx="22" cy="96" r="4" fill="#00d559" /><path d="M42.28 99.39C42.28 99.31 42.27 99.23 42.23 99.14L39.36 91.94C39.19 91.51 38.76 91.24 38.30 91.25C37.85 91.25 37.43 91.52 37.28 91.94L34.40 99.14C34.38 99.23 34.36 99.31 34.36 99.39C34.36 99.74 34.65 100.08 35.05 100.08C35.33 100.08 35.57 99.92 35.68 99.66L36.25 98.19L40.40 98.19L40.97 99.66C41.07 99.92 41.32 100.08 41.59 100.08C42.01 100.08 42.28 99.71 42.28 99.39ZM38.32 92.64L40.03 97.06L36.61 97.06ZM49.22 91.81C49.22 91.51 48.96 91.25 48.66 91.25C48.33 91.25 48.07 91.51 48.07 91.81L48.07 94.63C47.56 93.95 46.95 93.56 46.00 93.56C44.36 93.56 43.20 94.85 43.20 96.87C43.20 98.92 44.37 100.16 46.00 100.16C46.97 100.16 47.59 99.73 48.07 99.10L48.07 99.51C48.07 99.82 48.33 100.08 48.64 100.08C48.96 100.08 49.22 99.82 49.22 99.51ZM48.07 96.91C48.07 98.21 47.42 99.13 46.30 99.13C45.13 99.13 44.40 98.18 44.40 96.87C44.40 95.55 45.13 94.59 46.30 94.59C47.42 94.59 48.07 95.54 48.07 96.83ZM56.74 91.81C56.74 91.51 56.48 91.25 56.18 91.25C55.84 91.25 55.58 91.51 55.58 91.81L55.58 94.63C55.07 93.95 54.46 93.56 53.51 93.56C51.88 93.56 50.72 94.85 50.72 96.87C50.72 98.92 51.89 100.16 53.51 100.16C54.49 100.16 55.10 99.73 55.58 99.10L55.58 99.51C55.58 99.82 55.84 100.08 56.15 100.08C56.48 100.08 56.74 99.82 56.74 99.51ZM55.58 96.91C55.58 98.21 54.93 99.13 53.81 99.13C52.64 99.13 51.91 98.18 51.91 96.87C51.91 95.55 52.64 94.59 53.81 94.59C54.93 94.59 55.58 95.54 55.58 96.83ZM59.18 91.39C58.78 91.39 58.44 91.73 58.44 92.15C58.44 92.55 58.78 92.89 59.18 92.89C59.60 92.89 59.92 92.55 59.92 92.15C59.92 91.73 59.60 91.39 59.18 91.39ZM59.77 94.20C59.77 93.90 59.51 93.64 59.21 93.64C58.87 93.64 58.61 93.90 58.61 94.20L58.61 99.51C58.61 99.82 58.87 100.08 59.18 100.08C59.51 100.08 59.77 99.82 59.77 99.51ZM64.56 99.55C64.56 99.27 64.36 99.06 64.07 99.06C63.94 99.06 63.78 99.13 63.64 99.13C63.26 99.13 63.03 98.83 63.03 98.35L63.03 94.73L63.89 94.73C64.16 94.73 64.38 94.51 64.38 94.24C64.38 93.94 64.16 93.72 63.89 93.72L63.03 93.72L63.03 92.49C63.03 92.19 62.77 91.93 62.46 91.93C62.12 91.93 61.86 92.19 61.86 92.49L61.86 93.72L61.25 93.72C60.96 93.72 60.74 93.94 60.74 94.22C60.74 94.51 60.96 94.73 61.25 94.73L61.86 94.73L61.86 98.62C61.86 99.61 62.38 100.16 63.37 100.16C64.06 100.16 64.56 99.96 64.56 99.55ZM66.19 91.39C65.79 91.39 65.45 91.73 65.45 92.15C65.45 92.55 65.79 92.89 66.19 92.89C66.60 92.89 66.93 92.55 66.93 92.15C66.93 91.73 66.60 91.39 66.19 91.39ZM66.77 94.20C66.77 93.90 66.51 93.64 66.21 93.64C65.88 93.64 65.62 93.90 65.62 94.20L65.62 99.51C65.62 99.82 65.88 100.08 66.19 100.08C66.51 100.08 66.77 99.82 66.77 99.51ZM74.60 96.85C74.60 95.05 73.39 93.56 71.43 93.56C69.48 93.56 68.27 95.05 68.27 96.85C68.27 98.66 69.48 100.16 71.43 100.16C73.39 100.16 74.60 98.66 74.60 96.85ZM73.39 96.85C73.39 98.06 72.69 99.13 71.43 99.13C70.18 99.13 69.46 98.06 69.46 96.85C69.46 95.66 70.18 94.59 71.43 94.59C72.69 94.59 73.39 95.66 73.39 96.85ZM81.49 95.97C81.49 94.64 80.53 93.56 79.20 93.56C78.11 93.56 77.55 94.10 77.25 94.61L77.25 94.20C77.25 93.90 76.99 93.64 76.69 93.64C76.35 93.64 76.09 93.90 76.09 94.20L76.09 99.51C76.09 99.82 76.35 100.08 76.67 100.08C76.99 100.08 77.25 99.82 77.25 99.51L77.25 96.49C77.25 95.42 77.82 94.59 78.82 94.59C79.76 94.59 80.33 95.32 80.33 96.36L80.33 99.51C80.33 99.82 80.59 100.08 80.90 100.08C81.23 100.08 81.49 99.82 81.49 99.51ZM87.96 98.10C87.85 95.89 84.24 96.50 84.11 95.37C84.06 94.86 84.61 94.49 85.40 94.49C86 94.49 86.56 94.68 86.96 94.97C87.04 95.03 87.13 95.06 87.23 95.06C87.47 95.06 87.69 94.86 87.69 94.61C87.69 94.50 87.65 94.40 87.57 94.32C87.08 93.84 86.29 93.56 85.39 93.56C83.86 93.56 82.93 94.29 83.00 95.41C83.11 97.52 86.70 96.87 86.83 98.26C86.88 98.83 86.36 99.23 85.47 99.23C84.82 99.23 84.17 98.97 83.70 98.64C83.61 98.57 83.52 98.54 83.40 98.54C83.13 98.54 82.89 98.75 82.89 99.03C82.89 99.16 82.94 99.26 83.04 99.34C83.61 99.91 84.56 100.16 85.41 100.16C87.08 100.16 88.03 99.30 87.96 98.10Z" fill="#e6edf3" /><path d="M158.98 99.17C158.98 98.74 158.62 98.38 158.19 98.38L155.37 98.38C157.61 96.74 158.84 95.45 158.84 93.97C158.84 92.24 157.37 91.20 155.52 91.20C154.43 91.20 152.97 91.67 152.56 92.33C152.48 92.45 152.44 92.58 152.44 92.71C152.44 93.17 152.82 93.54 153.25 93.54C153.44 93.54 153.61 93.49 153.78 93.37C154.27 93.03 154.87 92.84 155.56 92.84C156.28 92.84 156.96 93.21 156.96 93.97C156.96 94.98 155.92 95.93 152.69 98.32C152.44 98.50 152.30 98.80 152.30 99.10C152.30 99.62 152.71 100 153.17 100L158.19 100C158.62 100 158.98 99.64 158.98 99.17ZM166.47 92.27C166.47 91.72 166.03 91.33 165.57 91.33L160.60 91.33C160.16 91.33 159.80 91.69 159.80 92.12C159.80 92.59 160.16 92.95 160.60 92.95L164.25 92.95L161.66 98.82C161.61 98.93 161.58 99.05 161.58 99.17C161.58 99.64 161.96 100.08 162.50 100.08C162.88 100.08 163.23 99.86 163.37 99.52L166.39 92.63C166.44 92.53 166.47 92.39 166.47 92.27ZM168.22 99.36C168.22 98.52 167.66 98.04 167.05 98.04C166.51 98.04 166.04 98.50 166.04 99.08C166.04 99.64 166.43 100.01 166.92 100.01C167.01 100.01 167.13 99.99 167.17 99.97C167.09 100.31 166.81 100.72 166.47 100.99C166.38 101.07 166.34 101.17 166.34 101.27C166.34 101.53 166.61 101.69 166.83 101.69C166.96 101.69 167.08 101.65 167.17 101.56C167.82 100.97 168.22 100.19 168.22 99.36ZM175.98 97.18C175.98 95.33 174.59 94.36 173.03 94.36C171.95 94.36 171.15 94.89 170.81 95.48C170.80 95.41 170.80 95.36 170.80 95.29C170.80 93.92 171.69 92.84 172.97 92.84C173.41 92.84 173.77 92.91 174.10 93.08C174.22 93.15 174.35 93.17 174.48 93.17C174.88 93.17 175.32 92.86 175.32 92.37C175.32 92.24 175.28 92.12 175.23 92.02C174.91 91.45 173.81 91.20 172.97 91.20C170.41 91.20 168.93 93.06 168.93 95.68C168.93 98.13 170.03 100.16 172.67 100.16C174.65 100.16 175.98 98.87 175.98 97.18ZM174.11 97.24C174.11 97.89 173.63 98.52 172.63 98.52C171.81 98.52 171.20 97.96 171.20 97.15C171.20 96.37 171.82 95.81 172.63 95.81C173.46 95.81 174.11 96.37 174.11 97.24ZM183.29 92.27C183.29 91.72 182.85 91.33 182.39 91.33L177.43 91.33C176.99 91.33 176.62 91.69 176.62 92.12C176.62 92.59 176.99 92.95 177.43 92.95L181.07 92.95L178.48 98.82C178.43 98.93 178.40 99.05 178.40 99.17C178.40 99.64 178.78 100.08 179.32 100.08C179.70 100.08 180.05 99.86 180.20 99.52L183.21 92.63C183.26 92.53 183.29 92.39 183.29 92.27ZM183.86 94.16C183.86 96.01 185.25 96.98 186.81 96.98C187.89 96.98 188.70 96.45 189.04 95.87C189.05 95.93 189.05 95.98 189.05 96.05C189.05 97.43 188.15 98.50 186.88 98.50C186.44 98.50 186.07 98.43 185.75 98.26C185.63 98.19 185.50 98.17 185.37 98.17C184.97 98.17 184.53 98.48 184.53 98.97C184.53 99.10 184.56 99.22 184.62 99.32C184.94 99.90 186.03 100.14 186.88 100.14C189.44 100.14 190.92 98.28 190.92 95.66C190.92 93.21 189.82 91.19 187.18 91.19C185.20 91.19 183.86 92.47 183.86 94.16ZM185.73 94.10C185.73 93.45 186.22 92.82 187.22 92.82C188.03 92.82 188.65 93.38 188.65 94.19C188.65 94.97 188.02 95.53 187.22 95.53C186.38 95.53 185.73 94.97 185.73 94.10ZM193.90 99.36C193.90 98.52 193.34 98.04 192.73 98.04C192.18 98.04 191.71 98.50 191.71 99.08C191.71 99.64 192.10 100.01 192.60 100.01C192.69 100.01 192.81 99.99 192.84 99.97C192.77 100.31 192.48 100.72 192.14 100.99C192.05 101.07 192.01 101.17 192.01 101.27C192.01 101.53 192.29 101.69 192.51 101.69C192.64 101.69 192.75 101.65 192.84 101.56C193.50 100.97 193.90 100.19 193.90 99.36ZM201.78 95.67C201.78 93.44 200.66 91.20 198.19 91.20C195.71 91.20 194.60 93.44 194.60 95.67C194.60 97.91 195.71 100.16 198.19 100.16C200.66 100.16 201.78 97.91 201.78 95.67ZM199.89 95.67C199.89 97.27 199.42 98.52 198.19 98.52C196.94 98.52 196.47 97.27 196.47 95.67C196.47 94.07 196.94 92.84 198.19 92.84C199.42 92.84 199.89 94.07 199.89 95.67ZM209.72 97.18C209.72 95.33 208.33 94.36 206.77 94.36C205.69 94.36 204.88 94.89 204.55 95.48C204.53 95.41 204.53 95.36 204.53 95.29C204.53 93.92 205.43 92.84 206.70 92.84C207.15 92.84 207.51 92.91 207.83 93.08C207.95 93.15 208.08 93.17 208.21 93.17C208.61 93.17 209.06 92.86 209.06 92.37C209.06 92.24 209.02 92.12 208.97 92.02C208.64 91.45 207.55 91.20 206.70 91.20C204.14 91.20 202.66 93.06 202.66 95.68C202.66 98.13 203.77 100.16 206.40 100.16C208.38 100.16 209.72 98.87 209.72 97.18ZM207.85 97.24C207.85 97.89 207.37 98.52 206.37 98.52C205.55 98.52 204.94 97.96 204.94 97.15C204.94 96.37 205.56 95.81 206.37 95.81C207.20 95.81 207.85 96.37 207.85 97.24ZM217.55 97.62C217.55 96.44 216.84 95.76 216.32 95.53C216.77 95.32 217.40 94.83 217.40 93.49C217.40 91.99 215.79 91.20 214.06 91.20C212.32 91.20 210.72 91.99 210.72 93.49C210.72 94.83 211.34 95.32 211.79 95.53C211.27 95.76 210.58 96.44 210.58 97.62C210.58 99.25 212.24 100.16 214.06 100.16C215.88 100.16 217.55 99.23 217.55 97.62ZM215.52 93.77C215.52 94.42 214.85 94.80 214.06 94.80C213.27 94.80 212.59 94.42 212.59 93.77C212.59 93.15 213.20 92.78 214.06 92.78C214.91 92.78 215.52 93.15 215.52 93.77ZM215.67 97.52C215.67 98.15 214.95 98.57 214.06 98.57C213.15 98.57 212.45 98.15 212.45 97.52C212.45 96.79 213.26 96.36 214.06 96.36C214.85 96.36 215.67 96.79 215.67 97.52Z" fill="#9aa7b4" /></g><g aria-label="Deletions: 12,806,497"><circle cx="22" cy="118" r="4" fill="#00a5fe" /><path d="M42.54 117.67C42.54 115.17 40.76 113.33 38.06 113.33L35.82 113.33C35.35 113.33 34.98 113.71 34.98 114.17L34.98 121.16C34.98 121.62 35.35 122 35.82 122L38.06 122C40.76 122 42.54 120.18 42.54 117.67ZM41.23 117.67C41.23 119.43 40.06 120.86 38.06 120.86L36.26 120.86L36.26 114.47L38.06 114.47C40.11 114.47 41.23 115.89 41.23 117.67ZM49.90 118.65C49.90 118.40 49.83 118.13 49.78 117.92C49.42 116.51 48.38 115.56 46.86 115.56C45.04 115.56 43.72 117.03 43.72 118.85C43.72 120.83 45.09 122.16 46.96 122.16C47.88 122.16 49.50 121.67 49.50 120.97C49.50 120.53 49.05 120.43 48.77 120.57C48.31 120.91 47.61 121.22 47.08 121.22C45.80 121.22 45.02 120.35 44.93 119.27L49.30 119.27C49.63 119.27 49.90 118.96 49.90 118.65ZM44.93 118.41C44.98 117.54 45.60 116.50 46.84 116.50C48.18 116.50 48.76 117.57 48.78 118.41ZM52.54 113.81C52.54 113.51 52.28 113.25 51.98 113.25C51.64 113.25 51.38 113.51 51.38 113.81L51.38 121.51C51.38 121.82 51.64 122.08 51.95 122.08C52.28 122.08 52.54 121.82 52.54 121.51ZM60.21 118.65C60.21 118.40 60.14 118.13 60.09 117.92C59.73 116.51 58.69 115.56 57.17 115.56C55.35 115.56 54.03 117.03 54.03 118.85C54.03 120.83 55.40 122.16 57.27 122.16C58.19 122.16 59.81 121.67 59.81 120.97C59.81 120.53 59.36 120.43 59.08 120.57C58.62 120.91 57.92 121.22 57.39 121.22C56.11 121.22 55.33 120.35 55.24 119.27L59.61 119.27C59.94 119.27 60.21 118.96 60.21 118.65ZM55.24 118.41C55.29 117.54 55.91 116.50 57.15 116.50C58.49 116.50 59.06 117.57 59.09 118.41ZM64.62 121.55C64.62 121.27 64.41 121.06 64.12 121.06C63.99 121.06 63.84 121.13 63.69 121.13C63.32 121.13 63.08 120.83 63.08 120.35L63.08 116.73L63.94 116.73C64.21 116.73 64.43 116.51 64.43 116.24C64.43 115.94 64.21 115.72 63.94 115.72L63.08 115.72L63.08 114.49C63.08 114.19 62.82 113.93 62.51 113.93C62.17 113.93 61.91 114.19 61.91 114.49L61.91 115.72L61.30 115.72C61.01 115.72 60.79 115.94 60.79 116.22C60.79 116.51 61.01 116.73 61.30 116.73L61.91 116.73L61.91 120.62C61.91 121.61 62.43 122.16 63.42 122.16C64.11 122.16 64.62 121.96 64.62 121.55ZM66.24 113.39C65.84 113.39 65.50 113.73 65.50 114.15C65.50 114.55 65.84 114.89 66.24 114.89C66.66 114.89 66.98 114.55 66.98 114.15C66.98 113.73 66.66 113.39 66.24 113.39ZM66.83 116.20C66.83 115.90 66.56 115.64 66.27 115.64C65.93 115.64 65.67 115.90 65.67 116.20L65.67 121.51C65.67 121.82 65.93 122.08 66.24 122.08C66.56 122.08 66.83 121.82 66.83 121.51ZM74.65 118.85C74.65 117.05 73.44 115.56 71.48 115.56C69.53 115.56 68.32 117.05 68.32 118.85C68.32 120.66 69.53 122.16 71.48 122.16C73.44 122.16 74.65 120.66 74.65 118.85ZM73.44 118.85C73.44 120.06 72.74 121.13 71.48 121.13C70.23 121.13 69.52 120.06 69.52 118.85C69.52 117.66 70.23 116.59 71.48 116.59C72.74 116.59 73.44 117.66 73.44 118.85ZM81.54 117.97C81.54 116.64 80.58 115.56 79.25 115.56C78.16 115.56 77.60 116.10 77.30 116.61L77.30 116.20C77.30 115.90 77.04 115.64 76.74 115.64C76.41 115.64 76.15 115.90 76.15 116.20L76.15 121.51C76.15 121.82 76.41 122.08 76.72 122.08C77.04 122.08 77.30 121.82 77.30 121.51L77.30 118.49C77.30 117.42 77.88 116.59 78.88 116.59C79.81 116.59 80.38 117.32 80.38 118.36L80.38 121.51C80.38 121.82 80.64 122.08 80.96 122.08C81.28 122.08 81.54 121.82 81.54 121.51ZM88.01 120.10C87.90 117.89 84.30 118.50 84.17 117.37C84.11 116.86 84.66 116.49 85.45 116.49C86.05 116.49 86.61 116.68 87.01 116.97C87.09 117.03 87.18 117.06 87.29 117.06C87.52 117.06 87.74 116.86 87.74 116.61C87.74 116.50 87.70 116.40 87.62 116.32C87.13 115.84 86.34 115.56 85.44 115.56C83.91 115.56 82.98 116.29 83.05 117.41C83.17 119.52 86.75 118.87 86.88 120.26C86.94 120.83 86.42 121.23 85.52 121.23C84.87 121.23 84.22 120.97 83.75 120.64C83.66 120.57 83.57 120.54 83.45 120.54C83.18 120.54 82.94 120.75 82.94 121.03C82.94 121.16 83.00 121.26 83.09 121.34C83.66 121.91 84.61 122.16 85.47 122.16C87.13 122.16 88.08 121.30 88.01 120.10Z" fill="#e6edf3" /><path d="M156.09 114.32C156.09 113.73 155.60 113.26 155.01 113.26C154.72 113.26 154.43 113.38 154.23 113.58L152.23 115.60C152.08 115.76 152.00 115.95 152.00 116.15C152.00 116.58 152.36 116.92 152.77 116.92C152.95 116.92 153.13 116.85 153.27 116.71L154.25 115.71L154.25 121.17C154.25 121.66 154.66 122.08 155.16 122.08C155.68 122.08 156.09 121.66 156.09 121.17ZM164.17 121.17C164.17 120.74 163.80 120.38 163.37 120.38L160.55 120.38C162.80 118.74 164.02 117.45 164.02 115.97C164.02 114.24 162.55 113.20 160.71 113.20C159.62 113.20 158.16 113.67 157.74 114.33C157.67 114.45 157.63 114.58 157.63 114.71C157.63 115.17 158.00 115.54 158.43 115.54C158.63 115.54 158.80 115.49 158.97 115.37C159.46 115.03 160.06 114.84 160.75 114.84C161.46 114.84 162.15 115.21 162.15 115.97C162.15 116.98 161.11 117.93 157.87 120.32C157.63 120.50 157.48 120.80 157.48 121.10C157.48 121.62 157.90 122 158.36 122L163.37 122C163.80 122 164.17 121.64 164.17 121.17ZM167.55 121.36C167.55 120.52 166.99 120.04 166.38 120.04C165.83 120.04 165.36 120.50 165.36 121.08C165.36 121.64 165.75 122.01 166.25 122.01C166.34 122.01 166.45 121.99 166.49 121.97C166.42 122.31 166.13 122.72 165.79 122.99C165.70 123.07 165.66 123.17 165.66 123.27C165.66 123.53 165.93 123.69 166.16 123.69C166.29 123.69 166.40 123.65 166.49 123.56C167.14 122.97 167.55 122.19 167.55 121.36ZM175.50 119.62C175.50 118.44 174.80 117.76 174.28 117.53C174.72 117.32 175.36 116.83 175.36 115.49C175.36 113.99 173.75 113.20 172.02 113.20C170.28 113.20 168.68 113.99 168.68 115.49C168.68 116.83 169.30 117.32 169.74 117.53C169.22 117.76 168.53 118.44 168.53 119.62C168.53 121.25 170.20 122.16 172.02 122.16C173.84 122.16 175.50 121.23 175.50 119.62ZM173.47 115.77C173.47 116.42 172.81 116.80 172.02 116.80C171.23 116.80 170.55 116.42 170.55 115.77C170.55 115.15 171.16 114.78 172.02 114.78C172.86 114.78 173.47 115.15 173.47 115.77ZM173.63 119.52C173.63 120.15 172.90 120.57 172.02 120.57C171.11 120.57 170.41 120.15 170.41 119.52C170.41 118.79 171.21 118.36 172.02 118.36C172.81 118.36 173.63 118.79 173.63 119.52ZM183.58 117.67C183.58 115.44 182.46 113.20 179.99 113.20C177.50 113.20 176.40 115.44 176.40 117.67C176.40 119.91 177.50 122.16 179.99 122.16C182.46 122.16 183.58 119.91 183.58 117.67ZM181.69 117.67C181.69 119.27 181.22 120.52 179.99 120.52C178.74 120.52 178.27 119.27 178.27 117.67C178.27 116.07 178.74 114.84 179.99 114.84C181.22 114.84 181.69 116.07 181.69 117.67ZM191.52 119.18C191.52 117.33 190.13 116.36 188.57 116.36C187.49 116.36 186.68 116.89 186.34 117.48C186.33 117.41 186.33 117.36 186.33 117.29C186.33 115.92 187.23 114.84 188.50 114.84C188.94 114.84 189.31 114.91 189.63 115.08C189.75 115.15 189.88 115.17 190.01 115.17C190.41 115.17 190.86 114.86 190.86 114.37C190.86 114.24 190.82 114.12 190.77 114.02C190.44 113.45 189.35 113.20 188.50 113.20C185.94 113.20 184.46 115.06 184.46 117.68C184.46 120.13 185.56 122.16 188.20 122.16C190.18 122.16 191.52 120.87 191.52 119.18ZM189.65 119.24C189.65 119.89 189.17 120.52 188.16 120.52C187.35 120.52 186.74 119.96 186.74 119.15C186.74 118.37 187.36 117.81 188.16 117.81C189.00 117.81 189.65 118.37 189.65 119.24ZM194.72 121.36C194.72 120.52 194.16 120.04 193.55 120.04C193.00 120.04 192.53 120.50 192.53 121.08C192.53 121.64 192.92 122.01 193.42 122.01C193.51 122.01 193.63 121.99 193.66 121.97C193.59 122.31 193.30 122.72 192.96 122.99C192.87 123.07 192.83 123.17 192.83 123.27C192.83 123.53 193.10 123.69 193.33 123.69C193.46 123.69 193.57 123.65 193.66 123.56C194.31 122.97 194.72 122.19 194.72 121.36ZM202.76 119.40C202.76 118.94 202.40 118.58 201.97 118.58L201.57 118.58L201.57 114.29C201.57 113.48 200.79 113.12 200.00 113.25C199.44 113.25 198.88 113.55 198.58 114.02L195.68 118.59C195.56 118.78 195.51 118.98 195.51 119.19C195.51 119.78 195.94 120.21 196.46 120.21L199.72 120.21L199.72 121.17C199.72 121.66 200.14 122.08 200.63 122.08C201.15 122.08 201.57 121.66 201.57 121.17L201.57 120.21L201.97 120.21C202.40 120.21 202.76 119.84 202.76 119.40ZM197.38 118.58L199.72 114.97L199.72 118.58ZM203.40 116.16C203.40 118.01 204.79 118.98 206.35 118.98C207.43 118.98 208.24 118.45 208.57 117.87C208.59 117.93 208.59 117.98 208.59 118.05C208.59 119.43 207.69 120.50 206.42 120.50C205.97 120.50 205.61 120.43 205.29 120.26C205.17 120.19 205.04 120.17 204.91 120.17C204.51 120.17 204.06 120.48 204.06 120.97C204.06 121.10 204.10 121.22 204.16 121.32C204.48 121.90 205.57 122.14 206.42 122.14C208.98 122.14 210.46 120.28 210.46 117.66C210.46 115.21 209.35 113.19 206.72 113.19C204.74 113.19 203.40 114.47 203.40 116.16ZM205.27 116.10C205.27 115.45 205.75 114.82 206.75 114.82C207.57 114.82 208.19 115.38 208.19 116.19C208.19 116.97 207.56 117.53 206.75 117.53C205.92 117.53 205.27 116.97 205.27 116.10ZM217.82 114.27C217.82 113.72 217.38 113.33 216.92 113.33L211.95 113.33C211.51 113.33 211.15 113.69 211.15 114.12C211.15 114.59 211.51 114.95 211.95 114.95L215.59 114.95L213.01 120.82C212.96 120.93 212.93 121.05 212.93 121.17C212.93 121.64 213.31 122.08 213.85 122.08C214.23 122.08 214.58 121.86 214.72 121.52L217.74 114.63C217.79 114.53 217.82 114.39 217.82 114.27Z" fill="#9aa7b4" /></g><g aria-label="Changed Files: 495,545"><circle cx="22" cy="140" r="4" fill="#673bd6" /><path d="M39.11 135.19C36.59 135.19 34.60 137.01 34.60 139.67C34.60 142.34 36.59 144.16 39.11 144.16C40.46 144.16 41.40 143.60 42.07 142.87C42.18 142.76 42.23 142.62 42.23 142.47C42.23 142.15 41.97 141.87 41.63 141.87C41.46 141.87 41.28 141.95 41.18 142.08C40.64 142.67 39.88 143.01 39.11 143.01C37.29 143.01 35.94 141.61 35.94 139.67C35.94 137.72 37.29 136.33 39.11 136.33C39.86 136.33 40.67 136.69 41.18 137.28C41.28 137.42 41.46 137.49 41.62 137.49C41.96 137.49 42.23 137.21 42.23 136.89C42.23 136.73 42.18 136.59 42.07 136.47C41.41 135.73 40.46 135.19 39.11 135.19ZM49.17 139.94C49.17 138.62 48.22 137.56 46.90 137.56C45.79 137.56 45.22 138.10 44.92 138.60L44.92 135.81C44.92 135.51 44.66 135.25 44.36 135.25C44.02 135.25 43.76 135.51 43.76 135.81L43.76 143.51C43.76 143.82 44.02 144.08 44.34 144.08C44.66 144.08 44.92 143.82 44.92 143.51L44.92 140.56C44.92 139.38 45.54 138.59 46.53 138.59C47.47 138.59 48.01 139.29 48.01 140.33L48.01 143.51C48.01 143.82 48.27 144.08 48.59 144.08C48.91 144.08 49.17 143.82 49.17 143.51ZM56.09 139.75C56.09 138.15 54.92 137.56 53.56 137.56C52.72 137.56 51.77 137.84 51.17 138.44C51.09 138.53 51.06 138.63 51.06 138.74C51.06 139.01 51.30 139.19 51.54 139.19C51.63 139.19 51.73 139.15 51.82 139.09C52.29 138.72 52.81 138.54 53.40 138.54C54.28 138.54 54.93 139.01 54.93 139.80L54.93 140.15L53.12 140.15C51.82 140.15 50.68 140.66 50.68 142.08C50.68 143.45 51.82 144.16 52.86 144.16C53.84 144.16 54.42 143.86 54.93 143.30L54.93 143.51C54.93 143.88 55.23 144.08 55.46 144.08L55.50 144.08C55.83 144.08 56.09 143.82 56.09 143.51ZM54.93 140.96L54.93 141.84C54.93 142.58 54.09 143.34 53.17 143.34C52.33 143.34 51.85 142.83 51.85 142.10C51.85 141.35 52.45 140.96 53.44 140.96ZM63.34 139.97C63.34 138.64 62.38 137.56 61.05 137.56C59.96 137.56 59.40 138.10 59.10 138.60L59.10 138.20C59.10 137.90 58.84 137.64 58.54 137.64C58.21 137.64 57.95 137.90 57.95 138.20L57.95 143.51C57.95 143.82 58.21 144.08 58.52 144.08C58.84 144.08 59.10 143.82 59.10 143.51L59.10 140.49C59.10 139.42 59.67 138.59 60.68 138.59C61.61 138.59 62.18 139.32 62.18 140.36L62.18 143.51C62.18 143.82 62.44 144.08 62.76 144.08C63.08 144.08 63.34 143.82 63.34 143.51ZM70.84 138.20C70.84 137.90 70.58 137.64 70.28 137.64C69.95 137.64 69.69 137.90 69.69 138.20L69.69 138.63C69.18 137.96 68.45 137.56 67.62 137.56C65.99 137.56 64.84 138.79 64.84 140.81C64.84 142.86 66.01 144.05 67.62 144.05C68.48 144.05 69.22 143.60 69.69 142.96L69.69 143.79C69.69 145.13 68.72 145.60 67.75 145.60C67.06 145.60 66.51 145.46 66.03 145.05C65.94 144.99 65.85 144.96 65.73 144.96C65.47 144.96 65.24 145.18 65.24 145.46C65.24 145.59 65.29 145.70 65.37 145.78C65.98 146.37 66.86 146.55 67.75 146.55C69.28 146.55 70.84 145.91 70.84 143.75ZM69.69 140.83C69.69 142.12 68.84 143.03 67.80 143.03C66.63 143.03 66.03 142.10 66.03 140.81C66.03 139.50 66.63 138.59 67.80 138.59C68.84 138.59 69.69 139.49 69.69 140.78ZM78.51 140.65C78.51 140.40 78.45 140.13 78.40 139.92C78.03 138.51 76.99 137.56 75.47 137.56C73.65 137.56 72.34 139.03 72.34 140.85C72.34 142.83 73.70 144.16 75.57 144.16C76.50 144.16 78.11 143.68 78.11 142.97C78.11 142.53 77.67 142.43 77.38 142.57C76.93 142.91 76.22 143.22 75.69 143.22C74.42 143.22 73.64 142.35 73.55 141.27L77.91 141.27C78.24 141.27 78.51 140.96 78.51 140.65ZM73.55 140.41C73.60 139.54 74.21 138.50 75.46 138.50C76.80 138.50 77.37 139.57 77.39 140.41ZM85.64 135.81C85.64 135.51 85.38 135.25 85.08 135.25C84.74 135.25 84.48 135.51 84.48 135.81L84.48 138.63C83.97 137.96 83.36 137.56 82.41 137.56C80.77 137.56 79.62 138.85 79.62 140.87C79.62 142.92 80.79 144.16 82.41 144.16C83.39 144.16 84.00 143.73 84.48 143.10L84.48 143.51C84.48 143.82 84.74 144.08 85.05 144.08C85.38 144.08 85.64 143.82 85.64 143.51ZM84.48 140.91C84.48 142.21 83.83 143.13 82.71 143.13C81.54 143.13 80.81 142.18 80.81 140.87C80.81 139.55 81.54 138.59 82.71 138.59C83.83 138.59 84.48 139.54 84.48 140.83ZM96.76 135.91C96.76 135.58 96.52 135.33 96.20 135.33L91.73 135.33C91.27 135.33 90.89 135.71 90.89 136.17L90.89 143.44C90.89 143.79 91.17 144.08 91.52 144.08C91.89 144.08 92.17 143.79 92.17 143.44L92.17 140.15L96.11 140.15C96.43 140.15 96.67 139.89 96.67 139.59C96.67 139.25 96.43 139.01 96.11 139.01L92.17 139.01L92.17 136.47L96.20 136.47C96.52 136.47 96.76 136.21 96.76 135.91ZM98.65 135.39C98.25 135.39 97.91 135.73 97.91 136.15C97.91 136.55 98.25 136.89 98.65 136.89C99.06 136.89 99.39 136.55 99.39 136.15C99.39 135.73 99.06 135.39 98.65 135.39ZM99.23 138.20C99.23 137.90 98.97 137.64 98.67 137.64C98.34 137.64 98.08 137.90 98.08 138.20L98.08 143.51C98.08 143.82 98.34 144.08 98.65 144.08C98.97 144.08 99.23 143.82 99.23 143.51ZM102.26 135.81C102.26 135.51 102.00 135.25 101.70 135.25C101.37 135.25 101.11 135.51 101.11 135.81L101.11 143.51C101.11 143.82 101.37 144.08 101.68 144.08C102.00 144.08 102.26 143.82 102.26 143.51ZM109.93 140.65C109.93 140.40 109.87 140.13 109.82 139.92C109.45 138.51 108.41 137.56 106.89 137.56C105.07 137.56 103.76 139.03 103.76 140.85C103.76 142.83 105.12 144.16 106.99 144.16C107.92 144.16 109.53 143.68 109.53 142.97C109.53 142.53 109.09 142.43 108.80 142.57C108.35 142.91 107.64 143.22 107.11 143.22C105.84 143.22 105.06 142.35 104.97 141.27L109.33 141.27C109.66 141.27 109.93 140.96 109.93 140.65ZM104.97 140.41C105.02 139.54 105.63 138.50 106.88 138.50C108.22 138.50 108.79 139.57 108.81 140.41ZM116.02 142.10C115.90 139.89 112.30 140.50 112.17 139.37C112.12 138.87 112.66 138.49 113.46 138.49C114.05 138.49 114.61 138.68 115.02 138.97C115.09 139.03 115.18 139.06 115.29 139.06C115.52 139.06 115.74 138.87 115.74 138.60C115.74 138.50 115.70 138.40 115.63 138.32C115.13 137.84 114.34 137.56 113.44 137.56C111.91 137.56 110.99 138.29 111.05 139.41C111.17 141.52 114.76 140.87 114.89 142.26C114.94 142.83 114.42 143.23 113.52 143.23C112.87 143.23 112.22 142.97 111.75 142.63C111.66 142.57 111.57 142.54 111.45 142.54C111.18 142.54 110.95 142.75 110.95 143.03C110.95 143.16 111.00 143.26 111.09 143.34C111.66 143.91 112.61 144.16 113.47 144.16C115.13 144.16 116.08 143.30 116.02 142.10Z" fill="#e6edf3" /><path d="M175.05 141.40C175.05 140.94 174.68 140.58 174.25 140.58L173.85 140.58L173.85 136.29C173.85 135.49 173.07 135.12 172.28 135.25C171.72 135.25 171.16 135.55 170.86 136.02L167.96 140.59C167.85 140.78 167.79 140.98 167.79 141.19C167.79 141.78 168.22 142.21 168.74 142.21L172.01 142.21L172.01 143.17C172.01 143.66 172.42 144.08 172.92 144.08C173.44 144.08 173.85 143.66 173.85 143.17L173.85 142.21L174.25 142.21C174.68 142.21 175.05 141.84 175.05 141.40ZM169.67 140.58L172.01 136.97L172.01 140.58ZM175.68 138.16C175.68 140.01 177.08 140.98 178.64 140.98C179.71 140.98 180.52 140.45 180.86 139.87C180.87 139.93 180.87 139.98 180.87 140.05C180.87 141.43 179.97 142.50 178.70 142.50C178.26 142.50 177.89 142.43 177.57 142.26C177.45 142.19 177.32 142.17 177.19 142.17C176.79 142.17 176.35 142.48 176.35 142.97C176.35 143.10 176.39 143.22 176.44 143.32C176.76 143.90 177.86 144.14 178.70 144.14C181.26 144.14 182.74 142.28 182.74 139.66C182.74 137.21 181.64 135.19 179 135.19C177.02 135.19 175.68 136.47 175.68 138.16ZM177.56 138.10C177.56 137.45 178.04 136.82 179.04 136.82C179.86 136.82 180.47 137.38 180.47 138.19C180.47 138.97 179.84 139.53 179.04 139.53C178.21 139.53 177.56 138.97 177.56 138.10ZM190.65 141.15C190.65 139.40 189.33 138.34 187.87 138.34C187.07 138.34 186.37 138.66 185.95 139.07L185.95 136.95L189.35 136.95C189.78 136.95 190.14 136.59 190.14 136.15C190.14 135.69 189.78 135.33 189.35 135.33L185.15 135.33C184.58 135.33 184.11 135.80 184.11 136.37L184.11 139.70C184.11 140.20 184.47 140.58 185.04 140.58C185.30 140.58 185.55 140.50 185.76 140.36C186.23 140.05 186.68 139.94 187.22 139.94C188.20 139.94 188.78 140.46 188.78 141.23C188.78 141.93 188.19 142.52 187.16 142.52C186.54 142.52 185.94 142.35 185.43 142.04C185.28 141.95 185.11 141.89 184.95 141.89C184.50 141.89 184.07 142.25 184.07 142.73C184.07 142.86 184.11 142.99 184.17 143.10C184.58 143.78 186.05 144.16 187.18 144.16C189.27 144.16 190.65 143.00 190.65 141.15ZM193.90 143.36C193.90 142.52 193.34 142.04 192.73 142.04C192.18 142.04 191.71 142.50 191.71 143.08C191.71 143.64 192.10 144.01 192.60 144.01C192.69 144.01 192.81 143.99 192.84 143.97C192.77 144.31 192.48 144.72 192.14 144.99C192.05 145.07 192.01 145.17 192.01 145.27C192.01 145.53 192.29 145.69 192.51 145.69C192.64 145.69 192.75 145.65 192.84 145.56C193.49 144.97 193.90 144.19 193.90 143.36ZM201.88 141.15C201.88 139.40 200.57 138.34 199.10 138.34C198.30 138.34 197.60 138.66 197.19 139.07L197.19 136.95L200.58 136.95C201.01 136.95 201.37 136.59 201.37 136.15C201.37 135.69 201.01 135.33 200.58 135.33L196.38 135.33C195.81 135.33 195.34 135.80 195.34 136.37L195.34 139.70C195.34 140.20 195.70 140.58 196.28 140.58C196.54 140.58 196.78 140.50 196.99 140.36C197.46 140.05 197.91 139.94 198.45 139.94C199.44 139.94 200.01 140.46 200.01 141.23C200.01 141.93 199.42 142.52 198.40 142.52C197.77 142.52 197.17 142.35 196.67 142.04C196.51 141.95 196.34 141.89 196.19 141.89C195.73 141.89 195.30 142.25 195.30 142.73C195.30 142.86 195.34 142.99 195.41 143.10C195.81 143.78 197.28 144.16 198.41 144.16C200.50 144.16 201.88 143.00 201.88 141.15ZM209.85 141.40C209.85 140.94 209.48 140.58 209.06 140.58L208.65 140.58L208.65 136.29C208.65 135.49 207.87 135.12 207.08 135.25C206.52 135.25 205.96 135.55 205.66 136.02L202.76 140.59C202.65 140.78 202.59 140.98 202.59 141.19C202.59 141.78 203.02 142.21 203.54 142.21L206.81 142.21L206.81 143.17C206.81 143.66 207.22 144.08 207.72 144.08C208.24 144.08 208.65 143.66 208.65 143.17L208.65 142.21L209.06 142.21C209.48 142.21 209.85 141.84 209.85 141.40ZM204.47 140.58L206.81 136.97L206.81 140.58ZM217.54 141.15C217.54 139.40 216.23 138.34 214.76 138.34C213.97 138.34 213.27 138.66 212.85 139.07L212.85 136.95L216.24 136.95C216.67 136.95 217.04 136.59 217.04 136.15C217.04 135.69 216.67 135.33 216.24 135.33L212.05 135.33C211.47 135.33 211.01 135.80 211.01 136.37L211.01 139.70C211.01 140.20 211.37 140.58 211.94 140.58C212.20 140.58 212.45 140.50 212.66 140.36C213.12 140.05 213.58 139.94 214.11 139.94C215.10 139.94 215.67 140.46 215.67 141.23C215.67 141.93 215.09 142.52 214.06 142.52C213.44 142.52 212.84 142.35 212.33 142.04C212.18 141.95 212.01 141.89 211.85 141.89C211.40 141.89 210.97 142.25 210.97 142.73C210.97 142.86 211.01 142.99 211.07 143.10C211.47 143.78 212.94 144.16 214.07 144.16C216.17 144.16 217.54 143.00 217.54 141.15Z" fill="#9aa7b4" /></g><rect x="18" y="166" width="384" height="8" rx="4" fill="#21262d" /><rect x="18.00" y="166" width="262.53" height="8" rx="4" fill="#00d559" /><rect x="280.53" y="166" width="121.47" height="8" rx="4" fill="#00a5fe" /></svg>