<svg xmlns="http://www.w3.org/2000/svg" width="420" height="184" viewBox="0 0 420 184" role="img"><rect x="0.5" y="0.5" width="419" height="183" rx="10" fill="#161b22" stroke="#30363d" /><path d="M30.72 33.60C30.72 32.83 30.10 32.21 29.37 32.21L28.69 32.21L28.69 24.95C28.69 23.59 27.37 22.97 26.03 23.19C25.08 23.19 24.14 23.70 23.63 24.49L18.73 32.24C18.53 32.54 18.44 32.90 18.44 33.25C18.44 34.24 19.17 34.96 20.05 34.96L25.57 34.96L25.57 36.59C25.57 37.43 26.27 38.13 27.11 38.13C27.99 38.13 28.69 37.43 28.69 36.59L28.69 34.96L29.37 34.96C30.10 34.96 30.72 34.35 30.72 33.60ZM21.61 32.21L25.57 26.10L25.57 32.21ZM42.82 24.91C42.82 23.99 42.07 23.33 41.30 23.33L32.89 23.33C32.15 23.33 31.53 23.94 31.53 24.67C31.53 25.46 32.15 26.08 32.89 26.08L39.05 26.08L34.68 36.00C34.59 36.20 34.54 36.39 34.54 36.59C34.54 37.38 35.18 38.13 36.11 38.13C36.74 38.13 37.34 37.76 37.58 37.19L42.68 25.53C42.77 25.35 42.82 25.13 42.82 24.91ZM45.79 36.92C45.79 35.49 44.84 34.68 43.81 34.68C42.88 34.68 42.09 35.47 42.09 36.44C42.09 37.38 42.75 38.02 43.59 38.02C43.74 38.02 43.94 37.98 44.00 37.96C43.87 38.53 43.39 39.21 42.82 39.67C42.66 39.80 42.60 39.98 42.60 40.16C42.60 40.60 43.06 40.86 43.43 40.86C43.65 40.86 43.85 40.79 44.00 40.64C45.10 39.65 45.79 38.33 45.79 36.92ZM58.90 36.59C58.90 35.87 58.28 35.25 57.56 35.25L52.78 35.25C56.59 32.48 58.66 30.30 58.66 27.79C58.66 24.87 56.17 23.11 53.05 23.11C51.20 23.11 48.73 23.90 48.03 25.02C47.90 25.22 47.83 25.44 47.83 25.66C47.83 26.45 48.47 27.07 49.20 27.07C49.53 27.07 49.81 26.98 50.10 26.78C50.93 26.21 51.95 25.88 53.11 25.88C54.32 25.88 55.49 26.52 55.49 27.79C55.49 29.51 53.73 31.11 48.25 35.16C47.83 35.47 47.59 35.98 47.59 36.48C47.59 37.36 48.29 38 49.06 38L57.56 38C58.28 38 58.90 37.38 58.90 36.59ZM72.78 30.67C72.78 26.89 70.89 23.11 66.71 23.11C62.51 23.11 60.64 26.89 60.64 30.67C60.64 34.46 62.51 38.26 66.71 38.26C70.89 38.26 72.78 34.46 72.78 30.67ZM69.59 30.67C69.59 33.38 68.80 35.49 66.71 35.49C64.60 35.49 63.80 33.38 63.80 30.67C63.80 27.97 64.60 25.88 66.71 25.88C68.80 25.88 69.59 27.97 69.59 30.67ZM86.42 30.67C86.42 26.89 84.53 23.11 80.35 23.11C76.15 23.11 74.28 26.89 74.28 30.67C74.28 34.46 76.15 38.26 80.35 38.26C84.53 38.26 86.42 34.46 86.42 30.67ZM83.23 30.67C83.23 33.38 82.44 35.49 80.35 35.49C78.24 35.49 77.44 33.38 77.44 30.67C77.44 27.97 78.24 25.88 80.35 25.88C82.44 25.88 83.23 27.97 83.23 30.67ZM101.36 23.08C96.96 23.08 93.55 26.16 93.55 30.67C93.55 35.18 96.96 38.26 101.36 38.26C103.89 38.26 105.58 37.16 106.68 35.82C106.90 35.58 106.99 35.27 106.99 34.96C106.99 34.22 106.35 33.60 105.56 33.60C105.12 33.60 104.68 33.78 104.37 34.11C103.56 35.01 102.46 35.49 101.36 35.49C98.70 35.49 96.76 33.45 96.76 30.67C96.76 27.90 98.70 25.86 101.36 25.86C102.46 25.86 103.54 26.38 104.37 27.26C104.68 27.59 105.10 27.77 105.52 27.77C106.33 27.77 107.01 27.15 107.01 26.36C107.01 26.08 106.90 25.75 106.70 25.50C105.58 24.16 103.89 23.08 101.36 23.08ZM119.86 32.68C119.86 29.66 117.75 27.11 114.23 27.11C110.73 27.11 108.62 29.66 108.62 32.68C108.62 35.71 110.73 38.26 114.23 38.26C117.75 38.26 119.86 35.71 119.86 32.68ZM116.96 32.68C116.96 34.35 115.97 35.78 114.23 35.78C112.49 35.78 111.52 34.35 111.52 32.68C111.52 31.03 112.49 29.60 114.23 29.60C115.97 29.60 116.96 31.03 116.96 32.68ZM137.92 31.20C137.92 29.02 136.40 27.11 134.01 27.11C132.16 27.11 131.10 28.19 130.71 28.94C130.31 28.17 129.32 27.11 127.54 27.11C125.91 27.11 125.16 27.70 124.72 28.28L124.72 28.25C124.72 27.95 124.33 27.24 123.36 27.24C122.54 27.24 121.93 27.86 121.93 28.61L121.93 36.75C121.93 37.52 122.54 38.13 123.31 38.13C124.11 38.13 124.72 37.52 124.72 36.75L124.72 31.73C124.72 30.70 125.51 29.60 126.70 29.60C127.85 29.60 128.51 30.74 128.51 31.73L128.51 36.75C128.51 37.52 129.12 38.13 129.89 38.13C130.71 38.13 131.32 37.52 131.32 36.75L131.32 31.93C131.32 30.70 132.09 29.60 133.30 29.60C134.45 29.60 135.11 30.74 135.11 31.73L135.11 36.75C135.11 37.52 135.72 38.13 136.49 38.13C137.31 38.13 137.92 37.52 137.92 36.75ZM156.67 31.20C156.67 29.02 155.15 27.11 152.75 27.11C150.90 27.11 149.85 28.19 149.45 28.94C149.05 28.17 148.06 27.11 146.28 27.11C144.65 27.11 143.91 27.70 143.47 28.28L143.47 28.25C143.47 27.95 143.07 27.24 142.10 27.24C141.29 27.24 140.67 27.86 140.67 28.61L140.67 36.75C140.67 37.52 141.29 38.13 142.06 38.13C142.85 38.13 143.47 37.52 143.47 36.75L143.47 31.73C143.47 30.70 144.26 29.60 145.45 29.60C146.59 29.60 147.25 30.74 147.25 31.73L147.25 36.75C147.25 37.52 147.87 38.13 148.64 38.13C149.45 38.13 150.07 37.52 150.07 36.75L150.07 31.93C150.07 30.70 150.84 29.60 152.05 29.60C153.19 29.60 153.85 30.74 153.85 31.73L153.85 36.75C153.85 37.52 154.47 38.13 155.24 38.13C156.05 38.13 156.67 37.52 156.67 36.75ZM160.80 22.91C159.90 22.91 159.13 23.63 159.13 24.56C159.13 25.48 159.90 26.23 160.80 26.23C161.73 26.23 162.47 25.48 162.47 24.56C162.47 23.63 161.73 22.91 160.80 22.91ZM162.21 28.61C162.21 27.86 161.59 27.24 160.85 27.24C160.03 27.24 159.42 27.86 159.42 28.61L159.42 36.75C159.42 37.52 160.03 38.13 160.80 38.13C161.59 38.13 162.21 37.52 162.21 36.75ZM170.79 36.99C170.79 36.31 170.35 35.78 169.56 35.78L169.32 35.78C168.88 35.78 168.35 35.45 168.35 34.61L168.35 29.82L169.45 29.82C170.09 29.82 170.64 29.27 170.64 28.61C170.64 27.92 170.09 27.37 169.45 27.37L168.35 27.37L168.35 25.72C168.35 24.95 167.73 24.34 166.96 24.34C166.15 24.34 165.53 24.95 165.53 25.72L165.53 27.37L164.85 27.37C164.19 27.37 163.64 27.92 163.64 28.56C163.64 29.27 164.19 29.82 164.85 29.82L165.53 29.82L165.53 35.36C165.53 37.25 166.59 38.26 168.55 38.26C170.37 38.26 170.79 37.69 170.79 36.99ZM180.84 34.85C180.84 30.56 174.55 31.88 174.55 30.30C174.55 29.71 175.21 29.24 176.22 29.24C177.08 29.24 177.94 29.49 178.62 29.88C178.78 29.97 178.97 30.01 179.15 30.01C179.72 30.01 180.25 29.55 180.25 28.96C180.25 28.76 180.18 28.56 180.07 28.41C179.48 27.55 177.59 27.11 176.20 27.11C173.41 27.11 171.85 28.67 171.85 30.45C171.85 34.63 178.16 33.20 178.16 34.96C178.16 35.62 177.59 36.11 176.38 36.11C175.45 36.11 174.35 35.73 173.52 35.25C173.34 35.14 173.14 35.10 172.95 35.10C172.35 35.10 171.78 35.60 171.78 36.26C171.78 36.48 171.85 36.68 171.98 36.86C172.64 37.80 174.86 38.26 176.25 38.26C179.19 38.26 180.84 36.79 180.84 34.85Z" fill="#e6edf3" /><path d="M20.26 49.88C20.26 49.54 19.98 49.25 19.64 49.25C19.26 49.25 18.98 49.54 18.98 49.88L18.98 57.44C18.98 57.79 19.26 58.08 19.61 58.08C19.98 58.08 20.26 57.79 20.26 57.44ZM27.55 53.97C27.55 52.64 26.59 51.56 25.27 51.56C24.18 51.56 23.62 52.10 23.32 52.60L23.32 52.20C23.32 51.90 23.06 51.64 22.76 51.64C22.42 51.64 22.16 51.90 22.16 52.20L22.16 57.51C22.16 57.82 22.42 58.08 22.73 58.08C23.06 58.08 23.32 57.82 23.32 57.51L23.32 54.49C23.32 53.42 23.89 52.59 24.89 52.59C25.83 52.59 26.40 53.32 26.40 54.36L26.40 57.51C26.40 57.82 26.66 58.08 26.97 58.08C27.30 58.08 27.55 57.82 27.55 57.51ZM38.97 49.91C38.97 49.58 38.72 49.33 38.41 49.33L32.70 49.33C32.39 49.33 32.14 49.58 32.14 49.89C32.14 50.21 32.39 50.47 32.70 50.47L34.91 50.47L34.91 57.44C34.91 57.79 35.20 58.08 35.55 58.08C35.91 58.08 36.20 57.79 36.20 57.44L36.20 50.47L38.41 50.47C38.72 50.47 38.97 50.21 38.97 49.91ZM44.74 54.85C44.74 53.05 43.53 51.56 41.57 51.56C39.62 51.56 38.41 53.05 38.41 54.85C38.41 56.66 39.62 58.16 41.57 58.16C43.53 58.16 44.74 56.66 44.74 54.85ZM43.53 54.85C43.53 56.06 42.83 57.13 41.57 57.13C40.32 57.13 39.61 56.06 39.61 54.85C39.61 53.66 40.32 52.59 41.57 52.59C42.83 52.59 43.53 53.66 43.53 54.85ZM49.16 57.55C49.16 57.27 48.95 57.06 48.67 57.06C48.54 57.06 48.38 57.13 48.24 57.13C47.86 57.13 47.63 56.83 47.63 56.35L47.63 52.73L48.48 52.73C48.76 52.73 48.98 52.51 48.98 52.24C48.98 51.94 48.76 51.72 48.48 51.72L47.63 51.72L47.63 50.49C47.63 50.19 47.37 49.93 47.05 49.93C46.72 49.93 46.46 50.19 46.46 50.49L46.46 51.72L45.85 51.72C45.56 51.72 45.34 51.94 45.34 52.22C45.34 52.51 45.56 52.73 45.85 52.73L46.46 52.73L46.46 56.62C46.46 57.61 46.98 58.16 47.96 58.16C48.65 58.16 49.16 57.96 49.16 57.55ZM55.26 53.75C55.26 52.15 54.09 51.56 52.74 51.56C51.89 51.56 50.94 51.84 50.34 52.44C50.27 52.53 50.23 52.63 50.23 52.73C50.23 53.01 50.47 53.19 50.71 53.19C50.80 53.19 50.90 53.15 50.99 53.09C51.46 52.72 51.98 52.54 52.57 52.54C53.45 52.54 54.10 53.01 54.10 53.80L54.10 54.15L52.29 54.15C50.99 54.15 49.85 54.66 49.85 56.08C49.85 57.45 50.99 58.16 52.03 58.16C53.01 58.16 53.59 57.86 54.10 57.30L54.10 57.51C54.10 57.88 54.40 58.08 54.63 58.08L54.67 58.08C55.00 58.08 55.26 57.82 55.26 57.51ZM54.10 54.96L54.10 55.84C54.10 56.58 53.26 57.34 52.35 57.34C51.50 57.34 51.02 56.83 51.02 56.10C51.02 55.35 51.62 54.96 52.61 54.96ZM58.27 49.81C58.27 49.51 58.01 49.25 57.71 49.25C57.38 49.25 57.12 49.51 57.12 49.81L57.12 57.51C57.12 57.82 57.38 58.08 57.69 58.08C58.01 58.08 58.27 57.82 58.27 57.51Z" fill="#9aa7b4" /><line x1="18" y1="76" x2="48" y2="76" stroke="#9aa7b4" stroke-opacity="0.4" /><g aria-label="Additions: 29,730,514"><circle cx="22" cy="96" r="4" fill="#00d559" /><path d="M42.28 99.39C42.28 99.31 42.27 99.23 42.23 99.14L39.36 91.94C39.19 91.51 38.76 91.24 38.30 91.25C37.85 91.25 37.43 91.52 37.28 91.94L34.40 99.14C34.38 99.23 34.36 99.31 34.36 99.39C34.36 99.74 34.65 100.08 35.05 100.08C35.33 100.08 35.57 99.92 35.68 99.66L36.25 98.19L40.40 98.19L40.97 99.66C41.07 99.92 41.32 100.08 41.59 100.08C42.01 100.08 42.28 99.71 42.28 99.39ZM38.32 92.64L40.03 97.06L36.61 97.06ZM49.22 91.81C49.22 91.51 48.96 91.25 48.66 91.25C48.33 91.25 48.07 91.51 48.07 91.81L48.07 94.63C47.56 93.95 46.95 93.56 46.00 93.56C44.36 93.56 43.20 94.85 43.20 96.87C43.20 98.92 44.37 100.16 46.00 100.16C46.97 100.16 47.59 99.73 48.07 99.10L48.07 99.51C48.07 99.82 48.33 100.08 48.64 100.08C48.96 100.08 49.22 99.82 49.22 99.51ZM48.07 96.91C48.07 98.21 47.42 99.13 46.30 99.13C45.13 99.13 44.40 98.18 44.40 96.87C44.40 95.55 45.13 94.59 46.30 94.59C47.42 94.59 48.07 95.54 48.07 96.83ZM56.74 91.81C56.74 91.51 56.48 91.25 56.18 91.25C55.84 91.25 55.58 91.51 55.58 91.81L55.58 94.63C55.07 93.95 54.46 93.56 53.51 93.56C51.88 93.56 50.72 94.85 50.72 96.87C50.72 98.92 51.89 100.16 53.51 100.16C54.49 100.16 55.10 99.73 55.58 99.10L55.58 99.51C55.58 99.82 55.84 100.08 56.15 100.08C56.48 100.08 56.74 99.82 56.74 99.51ZM55.58 96.91C55.58 98.21 54.93 99.13 53.81 99.13C52.64 99.13 51.91 98.18 51.91 96.87C51.91 95.55 52.64 94.59 53.81 94.59C54.93 94.59 55.58 95.54 55.58 96.83ZM59.18 91.39C58.78 91.39 58.44 91.73 58.44 92.15C58.44 92.55 58.78 92.89 59.18 92.89C59.60 92.89 59.92 92.55 59.92 92.15C59.92 91.73 59.60 91.39 59.18 91.39ZM59.77 94.20C59.77 93.90 59.51 93.64 59.21 93.64C58.87 93.64 58.61 93.90 58.61 94.20L58.61 99.51C58.61 99.82 58.87 100.08 59.18 100.08C59.51 100.08 59.77 99.82 59.77 99.51ZM64.56 99.55C64.56 99.27 64.36 99.06 64.07 99.06C63.94 99.06 63.78 99.13 63.64 99.13C63.26 99.13 63.03 98.83 63.03 98.35L63.03 94.73L63.89 94.73C64.16 94.73 64.38 94.51 64.38 94.24C64.38 93.94 64.16 93.72 63.89 93.72L63.03 93.72L63.03 92.49C63.03 92.19 62.77 91.93 62.46 91.93C62.12 91.93 61.86 92.19 61.86 92.49L61.86 93.72L61.25 93.72C60.96 93.72 60.74 93.94 60.74 94.22C60.74 94.51 60.96 94.73 61.25 94.73L61.86 94.73L61.86 98.62C61.86 99.61 62.38 100.16 63.37 100.16C64.06 100.16 64.56 99.96 64.56 99.55ZM66.19 91.39C65.79 91.39 65.45 91.73 65.45 92.15C65.45 92.55 65.79 92.89 66.19 92.89C66.60 92.89 66.93 92.55 66.93 92.15C66.93 91.73 66.60 91.39 66.19 91.39ZM66.77 94.20C66.77 93.90 66.51 93.64 66.21 93.64C65.88 93.64 65.62 93.90 65.62 94.20L65.62 99.51C65.62 99.82 65.88 100.08 66.19 100.08C66.51 100.08 66.77 99.82 66.77 99.51ZM74.60 96.85C74.60 95.05 73.39 93.56 71.43 93.56C69.48 93.56 68.27 95.05 68.27 96.85C68.27 98.66 69.48 100.16 71.43 100.16C73.39 100.16 74.60 98.66 74.60 96.85ZM73.39 96.85C73.39 98.06 72.69 99.13 71.43 99.13C70.18 99.13 69.46 98.06 69.46 96.85C69.46 95.66 70.18 94.59 71.43 94.59C72.69 94.59 73.39 95.66 73.39 96.85ZM81.49 95.97C81.49 94.64 80.53 93.56 79.20 93.56C78.11 93.56 77.55 94.10 77.25 94.61L77.25 94.20C77.25 93.90 76.99 93.64 76.69 93.64C76.35 93.64 76.09 93.90 76.09 94.20L76.09 99.51C76.09 99.82 76.35 100.08 76.67 100.08C76.99 100.08 77.25 99.82 77.25 99.51L77.25 96.49C77.25 95.42 77.82 94.59 78.82 94.59C79.76 94.59 80.33 95.32 80.33 96.36L80.33 99.51C80.33 99.82 80.59 100.08 80.90 100.08C81.23 100.08 81.49 99.82 81.49 99.51ZM87.96 98.10C87.85 95.89 84.24 96.50 84.11 95.37C84.06 94.86 84.61 94.49 85.40 94.49C86 94.49 86.56 94.68 86.96 94.97C87.04 95.03 87.13 95.06 87.23 95.06C87.47 95.06 87.69 94.86 87.69 94.61C87.69 94.50 87.65 94.40 87.57 94.32C87.08 93.84 86.29 93.56 85.39 93.56C83.86 93.56 82.93 94.29 83.00 95.41C83.11 97.52 86.70 96.87 86.83 98.26C86.88 98.83 86.36 99.23 85.47 99.23C84.82 99.23 84.17 98.97 83.70 98.64C83.61 98.57 83.52 98.54 83.40 98.54C83.13 98.54 82.89 98.75 82.89 99.03C82.89 99.16 82.94 99.26 83.04 99.34C83.61 99.91 84.56 100.16 85.41 100.16C87.08 100.16 88.03 99.30 87.96 98.10Z" fill="#e6edf3" /><path d="M160.57 99.17C160.57 98.74 160.20 98.38 159.77 98.38L156.95 98.38C159.20 96.74 160.42 95.45 160.42 93.97C160.42 92.24 158.95 91.20 157.11 91.20C156.02 91.20 154.56 91.67 154.14 92.33C154.07 92.45 154.03 92.58 154.03 92.71C154.03 93.17 154.40 93.54 154.83 93.54C155.03 93.54 155.20 93.49 155.37 93.37C155.86 93.03 156.46 92.84 157.15 92.84C157.86 92.84 158.55 93.21 158.55 93.97C158.55 94.98 157.51 95.93 154.27 98.32C154.03 98.50 153.88 98.80 153.88 99.10C153.88 99.62 154.30 100 154.75 100L159.77 100C160.20 100 160.57 99.64 160.57 99.17ZM161.54 94.16C161.54 96.01 162.93 96.98 164.49 96.98C165.57 96.98 166.38 96.45 166.72 95.87C166.73 95.93 166.73 95.98 166.73 96.05C166.73 97.43 165.83 98.50 164.56 98.50C164.12 98.50 163.75 98.43 163.43 98.26C163.31 98.19 163.18 98.17 163.05 98.17C162.65 98.17 162.20 98.48 162.20 98.97C162.20 99.10 162.24 99.22 162.30 99.32C162.62 99.90 163.71 100.14 164.56 100.14C167.12 100.14 168.60 98.28 168.60 95.66C168.60 93.21 167.50 91.19 164.86 91.19C162.88 91.19 161.54 92.47 161.54 94.16ZM163.41 94.10C163.41 93.45 163.89 92.82 164.90 92.82C165.71 92.82 166.33 93.38 166.33 94.19C166.33 94.97 165.70 95.53 164.90 95.53C164.06 95.53 163.41 94.97 163.41 94.10ZM171.58 99.36C171.58 98.52 171.02 98.04 170.41 98.04C169.86 98.04 169.39 98.50 169.39 99.08C169.39 99.64 169.78 100.01 170.28 100.01C170.37 100.01 170.49 99.99 170.52 99.97C170.45 100.31 170.16 100.72 169.82 100.99C169.73 101.07 169.69 101.17 169.69 101.27C169.69 101.53 169.97 101.69 170.19 101.69C170.32 101.69 170.43 101.65 170.52 101.56C171.17 100.97 171.58 100.19 171.58 99.36ZM178.06 92.27C178.06 91.72 177.62 91.33 177.17 91.33L172.20 91.33C171.76 91.33 171.40 91.69 171.40 92.12C171.40 92.59 171.76 92.95 172.20 92.95L175.84 92.95L173.25 98.82C173.20 98.93 173.18 99.05 173.18 99.17C173.18 99.64 173.55 100.08 174.10 100.08C174.48 100.08 174.83 99.86 174.97 99.52L177.99 92.63C178.04 92.53 178.06 92.39 178.06 92.27ZM185.31 97.63C185.41 96.07 184.36 95.53 184.36 95.53C184.36 95.53 185.32 95.03 185.21 93.55C185.11 92.11 183.97 91.20 181.94 91.20C180.74 91.20 179.81 91.55 179.09 92.12C178.91 92.27 178.82 92.47 178.82 92.68C178.82 93.14 179.22 93.46 179.62 93.46C179.78 93.46 179.94 93.42 180.07 93.33C180.57 93.01 181.15 92.84 181.74 92.84C182.65 92.84 183.36 93.05 183.36 93.73C183.36 94.45 182.93 94.79 182.06 94.79C181.43 94.79 181.16 95.14 181.16 95.59C181.16 96.05 181.43 96.41 182.11 96.41C182.99 96.41 183.50 96.72 183.50 97.41C183.50 98.06 182.91 98.52 181.86 98.52C181.26 98.52 180.57 98.31 180.00 97.97C179.86 97.88 179.70 97.84 179.55 97.84C179.12 97.84 178.70 98.19 178.70 98.66C178.70 98.79 178.74 98.91 178.81 99.01C179.21 99.69 180.68 100.16 181.93 100.16C184.00 100.16 185.20 99.26 185.31 97.63ZM193.50 95.67C193.50 93.44 192.38 91.20 189.91 91.20C187.42 91.20 186.32 93.44 186.32 95.67C186.32 97.91 187.42 100.16 189.91 100.16C192.38 100.16 193.50 97.91 193.50 95.67ZM191.61 95.67C191.61 97.27 191.14 98.52 189.91 98.52C188.66 98.52 188.19 97.27 188.19 95.67C188.19 94.07 188.66 92.84 189.91 92.84C191.14 92.84 191.61 94.07 191.61 95.67ZM196.46 99.36C196.46 98.52 195.90 98.04 195.29 98.04C194.74 98.04 194.28 98.50 194.28 99.08C194.28 99.64 194.67 100.01 195.16 100.01C195.25 100.01 195.37 99.99 195.41 99.97C195.33 100.31 195.04 100.72 194.70 100.99C194.61 101.07 194.57 101.17 194.57 101.27C194.57 101.53 194.85 101.69 195.07 101.69C195.20 101.69 195.32 101.65 195.41 101.56C196.06 100.97 196.46 100.19 196.46 99.36ZM204.44 97.15C204.44 95.40 203.13 94.34 201.66 94.34C200.87 94.34 200.16 94.66 199.75 95.07L199.75 92.95L203.14 92.95C203.57 92.95 203.93 92.59 203.93 92.15C203.93 91.69 203.57 91.33 203.14 91.33L198.94 91.33C198.37 91.33 197.90 91.80 197.90 92.37L197.90 95.70C197.90 96.20 198.27 96.58 198.84 96.58C199.10 96.58 199.35 96.50 199.55 96.36C200.02 96.05 200.48 95.94 201.01 95.94C202.00 95.94 202.57 96.46 202.57 97.23C202.57 97.93 201.98 98.52 200.96 98.52C200.33 98.52 199.74 98.35 199.23 98.04C199.07 97.95 198.90 97.89 198.75 97.89C198.29 97.89 197.86 98.25 197.86 98.73C197.86 98.86 197.90 98.99 197.97 99.10C198.37 99.78 199.84 100.16 200.97 100.16C203.06 100.16 204.44 99.00 204.44 97.15ZM209.38 92.32C209.38 91.73 208.89 91.26 208.30 91.26C208.00 91.26 207.72 91.38 207.52 91.58L205.52 93.60C205.36 93.76 205.29 93.95 205.29 94.15C205.29 94.58 205.65 94.92 206.05 94.92C206.24 94.92 206.42 94.85 206.56 94.71L207.54 93.71L207.54 99.17C207.54 99.66 207.95 100.08 208.45 100.08C208.97 100.08 209.38 99.66 209.38 99.17ZM217.75 97.40C217.75 96.94 217.39 96.58 216.96 96.58L216.56 96.58L216.56 92.29C216.56 91.48 215.78 91.12 214.98 91.25C214.43 91.25 213.87 91.55 213.57 92.02L210.67 96.59C210.55 96.78 210.50 96.98 210.50 97.19C210.50 97.78 210.93 98.21 211.45 98.21L214.71 98.21L214.71 99.17C214.71 99.66 215.13 100.08 215.62 100.08C216.14 100.08 216.56 99.66 216.56 99.17L216.56 98.21L216.96 98.21C217.39 98.21 217.75 97.84 217.75 97.40ZM212.37 96.58L214.71 92.97L214.71 96.58Z" fill="#9aa7b4" /></g><g aria-label="Deletions: 12,891,636"><circle cx="22" cy="118" r="4" fill="#00a5fe" /><path d="M42.54 117.67C42.54 115.17 40.76 113.33 38.06 113.33L35.82 113.33C35.35 113.33 34.98 113.71 34.98 114.17L34.98 121.16C34.98 121.62 35.35 122 35.82 122L38.06 122C40.76 122 42.54 120.18 42.54 117.67ZM41.23 117.67C41.23 119.43 40.06 120.86 38.06 120.86L36.26 120.86L36.26 114.47L38.06 114.47C40.11 114.47 41.23 115.89 41.23 117.67ZM49.90 118.65C49.90 118.40 49.83 118.13 49.78 117.92C49.42 116.51 48.38 115.56 46.86 115.56C45.04 115.56 43.72 117.03 43.72 118.85C43.72 120.83 45.09 122.16 46.96 122.16C47.88 122.16 49.50 121.67 49.50 120.97C49.50 120.53 49.05 120.43 48.77 120.57C48.31 120.91 47.61 121.22 47.08 121.22C45.80 121.22 45.02 120.35 44.93 119.27L49.30 119.27C49.63 119.27 49.90 118.96 49.90 118.65ZM44.93 118.41C44.98 117.54 45.60 116.50 46.84 116.50C48.18 116.50 48.76 117.57 48.78 118.41ZM52.54 113.81C52.54 113.51 52.28 113.25 51.98 113.25C51.64 113.25 51.38 113.51 51.38 113.81L51.38 121.51C51.38 121.82 51.64 122.08 51.95 122.08C52.28 122.08 52.54 121.82 52.54 121.51ZM60.21 118.65C60.21 118.40 60.14 118.13 60.09 117.92C59.73 116.51 58.69 115.56 57.17 115.56C55.35 115.56 54.03 117.03 54.03 118.85C54.03 120.83 55.40 122.16 57.27 122.16C58.19 122.16 59.81 121.67 59.81 120.97C59.81 120.53 59.36 120.43 59.08 120.57C58.62 120.91 57.92 121.22 57.39 121.22C56.11 121.22 55.33 120.35 55.24 119.27L59.61 119.27C59.94 119.27 60.21 118.96 60.21 118.65ZM55.24 118.41C55.29 117.54 55.91 116.50 57.15 116.50C58.49 116.50 59.06 117.57 59.09 118.41ZM64.62 121.55C64.62 121.27 64.41 121.06 64.12 121.06C63.99 121.06 63.84 121.13 63.69 121.13C63.32 121.13 63.08 120.83 63.08 120.35L63.08 116.73L63.94 116.73C64.21 116.73 64.43 116.51 64.43 116.24C64.43 115.94 64.21 115.72 63.94 115.72L63.08 115.72L63.08 114.49C63.08 114.19 62.82 113.93 62.51 113.93C62.17 113.93 61.91 114.19 61.91 114.49L61.91 115.72L61.30 115.72C61.01 115.72 60.79 115.94 60.79 116.22C60.79 116.51 61.01 116.73 61.30 116.73L61.91 116.73L61.91 120.62C61.91 121.61 62.43 122.16 63.42 122.16C64.11 122.16 64.62 121.96 64.62 121.55ZM66.24 113.39C65.84 113.39 65.50 113.73 65.50 114.15C65.50 114.55 65.84 114.89 66.24 114.89C66.66 114.89 66.98 114.55 66.98 114.15C66.98 113.73 66.66 113.39 66.24 113.39ZM66.83 116.20C66.83 115.90 66.56 115.64 66.27 115.64C65.93 115.64 65.67 115.90 65.67 116.20L65.67 121.51C65.67 121.82 65.93 122.08 66.24 122.08C66.56 122.08 66.83 121.82 66.83 121.51ZM74.65 118.85C74.65 117.05 73.44 115.56 71.48 115.56C69.53 115.56 68.32 117.05 68.32 118.85C68.32 120.66 69.53 122.16 71.48 122.16C73.44 122.16 74.65 120.66 74.65 118.85ZM73.44 118.85C73.44 120.06 72.74 121.13 71.48 121.13C70.23 121.13 69.52 120.06 69.52 118.85C69.52 117.66 70.23 116.59 71.48 116.59C72.74 116.59 73.44 117.66 73.44 118.85ZM81.54 117.97C81.54 116.64 80.58 115.56 79.25 115.56C78.16 115.56 77.60 116.10 77.30 116.61L77.30 116.20C77.30 115.90 77.04 115.64 76.74 115.64C76.41 115.64 76.15 115.90 76.15 116.20L76.15 121.51C76.15 121.82 76.41 122.08 76.72 122.08C77.04 122.08 77.30 121.82 77.30 121.51L77.30 118.49C77.30 117.42 77.88 116.59 78.88 116.59C79.81 116.59 80.38 117.32 80.38 118.36L80.38 121.51C80.38 121.82 80.64 122.08 80.96 122.08C81.28 122.08 81.54 121.82 81.54 121.51ZM88.01 120.10C87.90 117.89 84.30 118.50 84.17 117.37C84.11 116.86 84.66 116.49 85.45 116.49C86.05 116.49 86.61 116.68 87.01 116.97C87.09 117.03 87.18 117.06 87.29 117.06C87.52 117.06 87.74 116.86 87.74 116.61C87.74 116.50 87.70 116.40 87.62 116.32C87.13 115.84 86.34 115.56 85.44 115.56C83.91 115.56 82.98 116.29 83.05 117.41C83.17 119.52 86.75 118.87 86.88 120.26C86.94 120.83 86.42 121.23 85.52 121.23C84.87 121.23 84.22 120.97 83.75 120.64C83.66 120.57 83.57 120.54 83.45 120.54C83.18 120.54 82.94 120.75 82.94 121.03C82.94 121.16 83.00 121.26 83.09 121.34C83.66 121.91 84.61 122.16 85.47 122.16C87.13 122.16 88.08 121.30 88.01 120.10Z" fill="#e6edf3" /><path d="M158.40 114.32C158.40 113.73 157.90 113.26 157.32 113.26C157.02 113.26 156.73 113.38 156.54 113.58L154.53 115.60C154.38 115.76 154.30 115.95 154.30 116.15C154.30 116.58 154.66 116.92 155.07 116.92C155.25 116.92 155.43 116.85 155.57 116.71L156.55 115.71L156.55 121.17C156.55 121.66 156.97 122.08 157.46 122.08C157.98 122.08 158.40 121.66 158.40 121.17ZM166.47 121.17C166.47 120.74 166.10 120.38 165.67 120.38L162.85 120.38C165.10 118.74 166.32 117.45 166.32 115.97C166.32 114.24 164.86 113.20 163.01 113.20C161.92 113.20 160.46 113.67 160.05 114.33C159.97 114.45 159.93 114.58 159.93 114.71C159.93 115.17 160.31 115.54 160.73 115.54C160.93 115.54 161.10 115.49 161.27 115.37C161.76 115.03 162.36 114.84 163.05 114.84C163.76 114.84 164.45 115.21 164.45 115.97C164.45 116.98 163.41 117.93 160.18 120.32C159.93 120.50 159.79 120.80 159.79 121.10C159.79 121.62 160.20 122 160.66 122L165.67 122C166.10 122 166.47 121.64 166.47 121.17ZM169.85 121.36C169.85 120.52 169.29 120.04 168.68 120.04C168.13 120.04 167.66 120.50 167.66 121.08C167.66 121.64 168.05 122.01 168.55 122.01C168.64 122.01 168.76 121.99 168.79 121.97C168.72 122.31 168.43 122.72 168.09 122.99C168.00 123.07 167.96 123.17 167.96 123.27C167.96 123.53 168.24 123.69 168.46 123.69C168.59 123.69 168.70 123.65 168.79 123.56C169.44 122.97 169.85 122.19 169.85 121.36ZM177.80 119.62C177.80 118.44 177.10 117.76 176.58 117.53C177.02 117.32 177.66 116.83 177.66 115.49C177.66 113.99 176.05 113.20 174.32 113.20C172.58 113.20 170.98 113.99 170.98 115.49C170.98 116.83 171.60 117.32 172.04 117.53C171.53 117.76 170.84 118.44 170.84 119.62C170.84 121.25 172.50 122.16 174.32 122.16C176.14 122.16 177.80 121.23 177.80 119.62ZM175.78 115.77C175.78 116.42 175.11 116.80 174.32 116.80C173.53 116.80 172.85 116.42 172.85 115.77C172.85 115.15 173.46 114.78 174.32 114.78C175.16 114.78 175.78 115.15 175.78 115.77ZM175.93 119.52C175.93 120.15 175.20 120.57 174.32 120.57C173.41 120.57 172.71 120.15 172.71 119.52C172.71 118.79 173.51 118.36 174.32 118.36C175.11 118.36 175.93 118.79 175.93 119.52ZM178.65 116.16C178.65 118.01 180.04 118.98 181.60 118.98C182.68 118.98 183.49 118.45 183.82 117.87C183.84 117.93 183.84 117.98 183.84 118.05C183.84 119.43 182.94 120.50 181.67 120.50C181.22 120.50 180.86 120.43 180.53 120.26C180.42 120.19 180.29 120.17 180.16 120.17C179.75 120.17 179.31 120.48 179.31 120.97C179.31 121.10 179.35 121.22 179.40 121.32C179.73 121.90 180.82 122.14 181.67 122.14C184.23 122.14 185.71 120.28 185.71 117.66C185.71 115.21 184.60 113.19 181.96 113.19C179.99 113.19 178.65 114.47 178.65 116.16ZM180.52 116.10C180.52 115.45 181.00 114.82 182.00 114.82C182.82 114.82 183.43 115.38 183.43 116.19C183.43 116.97 182.81 117.53 182.00 117.53C181.17 117.53 180.52 116.97 180.52 116.10ZM190.65 114.32C190.65 113.73 190.15 113.26 189.57 113.26C189.27 113.26 188.98 113.38 188.79 113.58L186.79 115.60C186.63 115.76 186.55 115.95 186.55 116.15C186.55 116.58 186.92 116.92 187.32 116.92C187.50 116.92 187.68 116.85 187.83 116.71L188.80 115.71L188.80 121.17C188.80 121.66 189.22 122.08 189.71 122.08C190.23 122.08 190.65 121.66 190.65 121.17ZM194.30 121.36C194.30 120.52 193.74 120.04 193.13 120.04C192.59 120.04 192.12 120.50 192.12 121.08C192.12 121.64 192.51 122.01 193.00 122.01C193.09 122.01 193.21 121.99 193.25 121.97C193.17 122.31 192.88 122.72 192.55 122.99C192.46 123.07 192.42 123.17 192.42 123.27C192.42 123.53 192.69 123.69 192.91 123.69C193.04 123.69 193.16 123.65 193.25 123.56C193.90 122.97 194.30 122.19 194.30 121.36ZM202.06 119.18C202.06 117.33 200.67 116.36 199.11 116.36C198.03 116.36 197.23 116.89 196.89 117.48C196.88 117.41 196.88 117.36 196.88 117.29C196.88 115.92 197.77 114.84 199.05 114.84C199.49 114.84 199.85 114.91 200.18 115.08C200.29 115.15 200.42 115.17 200.55 115.17C200.96 115.17 201.40 114.86 201.40 114.37C201.40 114.24 201.36 114.12 201.31 114.02C200.98 113.45 199.89 113.20 199.05 113.20C196.49 113.20 195.00 115.06 195.00 117.68C195.00 120.13 196.11 122.16 198.75 122.16C200.72 122.16 202.06 120.87 202.06 119.18ZM200.19 119.24C200.19 119.89 199.71 120.52 198.71 120.52C197.89 120.52 197.28 119.96 197.28 119.15C197.28 118.37 197.90 117.81 198.71 117.81C199.54 117.81 200.19 118.37 200.19 119.24ZM209.52 119.63C209.63 118.07 208.58 117.53 208.58 117.53C208.58 117.53 209.54 117.03 209.43 115.55C209.33 114.11 208.19 113.20 206.16 113.20C204.96 113.20 204.03 113.55 203.31 114.12C203.13 114.27 203.04 114.47 203.04 114.68C203.04 115.14 203.44 115.46 203.84 115.46C204.00 115.46 204.16 115.42 204.28 115.33C204.79 115.01 205.36 114.84 205.96 114.84C206.87 114.84 207.57 115.05 207.57 115.73C207.57 116.45 207.15 116.79 206.27 116.79C205.65 116.79 205.38 117.14 205.38 117.59C205.38 118.05 205.65 118.41 206.33 118.41C207.21 118.41 207.72 118.72 207.72 119.41C207.72 120.06 207.13 120.52 206.08 120.52C205.48 120.52 204.79 120.31 204.22 119.97C204.08 119.88 203.92 119.84 203.77 119.84C203.34 119.84 202.92 120.19 202.92 120.66C202.92 120.79 202.96 120.91 203.02 121.01C203.43 121.69 204.90 122.16 206.14 122.16C208.22 122.16 209.42 121.26 209.52 119.63ZM217.60 119.18C217.60 117.33 216.21 116.36 214.65 116.36C213.57 116.36 212.76 116.89 212.42 117.48C212.41 117.41 212.41 117.36 212.41 117.29C212.41 115.92 213.31 114.84 214.58 114.84C215.02 114.84 215.39 114.91 215.71 115.08C215.83 115.15 215.96 115.17 216.09 115.17C216.49 115.17 216.93 114.86 216.93 114.37C216.93 114.24 216.90 114.12 216.84 114.02C216.52 113.45 215.43 113.20 214.58 113.20C212.02 113.20 210.54 115.06 210.54 117.68C210.54 120.13 211.64 122.16 214.28 122.16C216.26 122.16 217.60 120.87 217.60 119.18ZM215.72 119.24C215.72 119.89 215.24 120.52 214.24 120.52C213.42 120.52 212.81 119.96 212.81 119.15C212.81 118.37 213.44 117.81 214.24 117.81C215.08 117.81 215.72 118.37 215.72 119.24Z" fill="#9aa7b4" /></g><g aria-label="Changed Files: 502,605"><circle cx="22" cy="140" r="4" fill="#673bd6" /><path d="M39.11 135.19C36.59 135.19 34.60 137.01 34.60 139.67C34.60 142.34 36.59 144.16 39.11 144.16C40.46 144.16 41.40 143.60 42.07 142.87C42.18 142.76 42.23 142.62 42.23 142.47C42.23 142.15 41.97 141.87 41.63 141.87C41.46 141.87 41.28 141.95 41.18 142.08C40.64 142.67 39.88 143.01 39.11 143.01C37.29 143.01 35.94 141.61 35.94 139.67C35.94 137.72 37.29 136.33 39.11 136.33C39.86 136.33 40.67 136.69 41.18 137.28C41.28 137.42 41.46 137.49 41.62 137.49C41.96 137.49 42.23 137.21 42.23 136.89C42.23 136.73 42.18 136.59 42.07 136.47C41.41 135.73 40.46 135.19 39.11 135.19ZM49.17 139.94C49.17 138.62 48.22 137.56 46.90 137.56C45.79 137.56 45.22 138.10 44.92 138.60L44.92 135.81C44.92 135.51 44.66 135.25 44.36 135.25C44.02 135.25 43.76 135.51 43.76 135.81L43.76 143.51C43.76 143.82 44.02 144.08 44.34 144.08C44.66 144.08 44.92 143.82 44.92 143.51L44.92 140.56C44.92 139.38 45.54 138.59 46.53 138.59C47.47 138.59 48.01 139.29 48.01 140.33L48.01 143.51C48.01 143.82 48.27 144.08 48.59 144.08C48.91 144.08 49.17 143.82 49.17 143.51ZM56.09 139.75C56.09 138.15 54.92 137.56 53.56 137.56C52.72 137.56 51.77 137.84 51.17 138.44C51.09 138.53 51.06 138.63 51.06 138.74C51.06 139.01 51.30 139.19 51.54 139.19C51.63 139.19 51.73 139.15 51.82 139.09C52.29 138.72 52.81 138.54 53.40 138.54C54.28 138.54 54.93 139.01 54.93 139.80L54.93 140.15L53.12 140.15C51.82 140.15 50.68 140.66 50.68 142.08C50.68 143.45 51.82 144.16 52.86 144.16C53.84 144.16 54.42 143.86 54.93 143.30L54.93 143.51C54.93 143.88 55.23 144.08 55.46 144.08L55.50 144.08C55.83 144.08 56.09 143.82 56.09 143.51ZM54.93 140.96L54.93 141.84C54.93 142.58 54.09 143.34 53.17 143.34C52.33 143.34 51.85 142.83 51.85 142.10C51.85 141.35 52.45 140.96 53.44 140.96ZM63.34 139.97C63.34 138.64 62.38 137.56 61.05 137.56C59.96 137.56 59.40 138.10 59.10 138.60L59.10 138.20C59.10 137.90 58.84 137.64 58.54 137.64C58.21 137.64 57.95 137.90 57.95 138.20L57.95 143.51C57.95 143.82 58.21 144.08 58.52 144.08C58.84 144.08 59.10 143.82 59.10 143.51L59.10 140.49C59.10 139.42 59.67 138.59 60.68 138.59C61.61 138.59 62.18 139.32 62.18 140.36L62.18 143.51C62.18 143.82 62.44 144.08 62.76 144.08C63.08 144.08 63.34 143.82 63.34 143.51ZM70.84 138.20C70.84 137.90 70.58 137.64 70.28 137.64C69.95 137.64 69.69 137.90 69.69 138.20L69.69 138.63C69.18 137.96 68.45 137.56 67.62 137.56C65.99 137.56 64.84 138.79 64.84 140.81C64.84 142.86 66.01 144.05 67.62 144.05C68.48 144.05 69.22 143.60 69.69 142.96L69.69 143.79C69.69 145.13 68.72 145.60 67.75 145.60C67.06 145.60 66.51 145.46 66.03 145.05C65.94 144.99 65.85 144.96 65.73 144.96C65.47 144.96 65.24 145.18 65.24 145.46C65.24 145.59 65.29 145.70 65.37 145.78C65.98 146.37 66.86 146.55 67.75 146.55C69.28 146.55 70.84 145.91 70.84 143.75ZM69.69 140.83C69.69 142.12 68.84 143.03 67.80 143.03C66.63 143.03 66.03 142.10 66.03 140.81C66.03 139.50 66.63 138.59 67.80 138.59C68.84 138.59 69.69 139.49 69.69 140.78ZM78.51 140.65C78.51 140.40 78.45 140.13 78.40 139.92C78.03 138.51 76.99 137.56 75.47 137.56C73.65 137.56 72.34 139.03 72.34 140.85C72.34 142.83 73.70 144.16 75.57 144.16C76.50 144.16 78.11 143.68 78.11 142.97C78.11 142.53 77.67 142.43 77.38 142.57C76.93 142.91 76.22 143.22 75.69 143.22C74.42 143.22 73.64 142.35 73.55 141.27L77.91 141.27C78.24 141.27 78.51 140.96 78.51 140.65ZM73.55 140.41C73.60 139.54 74.21 138.50 75.46 138.50C76.80 138.50 77.37 139.57 77.39 140.41ZM85.64 135.81C85.64 135.51 85.38 135.25 85.08 135.25C84.74 135.25 84.48 135.51 84.48 135.81L84.48 138.63C83.97 137.96 83.36 137.56 82.41 137.56C80.77 137.56 79.62 138.85 79.62 140.87C79.62 142.92 80.79 144.16 82.41 144.16C83.39 144.16 84.00 143.73 84.48 143.10L84.48 143.51C84.48 143.82 84.74 144.08 85.05 144.08C85.38 144.08 85.64 143.82 85.64 143.51ZM84.48 140.91C84.48 142.21 83.83 143.13 82.71 143.13C81.54 143.13 80.81 142.18 80.81 140.87C80.81 139.55 81.54 138.59 82.71 138.59C83.83 138.59 84.48 139.54 84.48 140.83ZM96.76 135.91C96.76 135.58 96.52 135.33 96.20 135.33L91.73 135.33C91.27 135.33 90.89 135.71 90.89 136.17L90.89 143.44C90.89 143.79 91.17 144.08 91.52 144.08C91.89 144.08 92.17 143.79 92.17 143.44L92.17 140.15L96.11 140.15C96.43 140.15 96.67 139.89 96.67 139.59C96.67 139.25 96.43 139.01 96.11 139.01L92.17 139.01L92.17 136.47L96.20 136.47C96.52 136.47 96.76 136.21 96.76 135.91ZM98.65 135.39C98.25 135.39 97.91 135.73 97.91 136.15C97.91 136.55 98.25 136.89 98.65 136.89C99.06 136.89 99.39 136.55 99.39 136.15C99.39 135.73 99.06 135.39 98.65 135.39ZM99.23 138.20C99.23 137.90 98.97 137.64 98.67 137.64C98.34 137.64 98.08 137.90 98.08 138.20L98.08 143.51C98.08 143.82 98.34 144.08 98.65 144.08C98.97 144.08 99.23 143.82 99.23 143.51ZM102.26 135.81C102.26 135.51 102.00 135.25 101.70 135.25C101.37 135.25 101.11 135.51 101.11 135.81L101.11 143.51C101.11 143.82 101.37 144.08 101.68 144.08C102.00 144.08 102.26 143.82 102.26 143.51ZM109.93 140.65C109.93 140.40 109.87 140.13 109.82 139.92C109.45 138.51 108.41 137.56 106.89 137.56C105.07 137.56 103.76 139.03 103.76 140.85C103.76 142.83 105.12 144.16 106.99 144.16C107.92 144.16 109.53 143.68 109.53 142.97C109.53 142.53 109.09 142.43 108.80 142.57C108.35 142.91 107.64 143.22 107.11 143.22C105.84 143.22 105.06 142.35 104.97 141.27L109.33 141.27C109.66 141.27 109.93 140.96 109.93 140.65ZM104.97 140.41C105.02 139.54 105.63 138.50 106.88 138.50C108.22 138.50 108.79 139.57 108.81 140.41ZM116.02 142.10C115.90 139.89 112.30 140.50 112.17 139.37C112.12 138.87 112.66 138.49 113.46 138.49C114.05 138.49 114.61 138.68 115.02 138.97C115.09 139.03 115.18 139.06 115.29 139.06C115.52 139.06 115.74 138.87 115.74 138.60C115.74 138.50 115.70 138.40 115.63 138.32C115.13 137.84 114.34 137.56 113.44 137.56C111.91 137.56 110.99 138.29 111.05 139.41C111.17 141.52 114.76 140.87 114.89 142.26C114.94 142.83 114.42 143.23 113.52 143.23C112.87 143.23 112.22 142.97 111.75 142.63C111.66 142.57 111.57 142.54 111.45 142.54C111.18 142.54 110.95 142.75 110.95 143.03C110.95 143.16 111.00 143.26 111.09 143.34C111.66 143.91 112.61 144.16 113.47 144.16C115.13 144.16 116.08 143.30 116.02 142.10Z" fill="#e6edf3" /><path d="M174.76 141.15C174.76 139.40 173.45 138.34 171.98 138.34C171.19 138.34 170.48 138.66 170.07 139.07L170.07 136.95L173.46 136.95C173.89 136.95 174.25 136.59 174.25 136.15C174.25 135.69 173.89 135.33 173.46 135.33L169.26 135.33C168.69 135.33 168.22 135.80 168.22 136.37L168.22 139.70C168.22 140.20 168.59 140.58 169.16 140.58C169.42 140.58 169.67 140.50 169.87 140.36C170.34 140.05 170.80 139.94 171.33 139.94C172.32 139.94 172.89 140.46 172.89 141.23C172.89 141.93 172.30 142.52 171.28 142.52C170.65 142.52 170.06 142.35 169.55 142.04C169.39 141.95 169.22 141.89 169.07 141.89C168.61 141.89 168.18 142.25 168.18 142.73C168.18 142.86 168.22 142.99 168.29 143.10C168.69 143.78 170.16 144.16 171.29 144.16C173.38 144.16 174.76 143.00 174.76 141.15ZM182.83 139.67C182.83 137.44 181.72 135.20 179.25 135.20C176.76 135.20 175.66 137.44 175.66 139.67C175.66 141.91 176.76 144.16 179.25 144.16C181.72 144.16 182.83 141.91 182.83 139.67ZM180.95 139.67C180.95 141.27 180.48 142.52 179.25 142.52C178.00 142.52 177.53 141.27 177.53 139.67C177.53 138.07 178.00 136.84 179.25 136.84C180.48 136.84 180.95 138.07 180.95 139.67ZM190.49 143.17C190.49 142.74 190.13 142.38 189.70 142.38L186.88 142.38C189.13 140.74 190.35 139.45 190.35 137.97C190.35 136.24 188.88 135.20 187.03 135.20C185.94 135.20 184.49 135.67 184.07 136.33C183.99 136.45 183.95 136.58 183.95 136.71C183.95 137.18 184.33 137.54 184.76 137.54C184.95 137.54 185.12 137.49 185.29 137.37C185.79 137.03 186.38 136.84 187.07 136.84C187.79 136.84 188.48 137.21 188.48 137.97C188.48 138.98 187.44 139.93 184.20 142.32C183.95 142.50 183.81 142.80 183.81 143.10C183.81 143.62 184.23 144 184.68 144L189.70 144C190.13 144 190.49 143.64 190.49 143.17ZM193.87 143.36C193.87 142.52 193.31 142.04 192.70 142.04C192.16 142.04 191.69 142.50 191.69 143.08C191.69 143.64 192.08 144.01 192.57 144.01C192.66 144.01 192.78 143.99 192.82 143.97C192.74 144.31 192.45 144.72 192.12 144.99C192.03 145.07 191.99 145.17 191.99 145.27C191.99 145.53 192.26 145.69 192.48 145.69C192.61 145.69 192.73 145.65 192.82 145.56C193.47 144.97 193.87 144.19 193.87 143.36ZM201.63 141.18C201.63 139.33 200.24 138.36 198.68 138.36C197.60 138.36 196.80 138.89 196.46 139.48C196.45 139.41 196.45 139.36 196.45 139.29C196.45 137.92 197.34 136.84 198.62 136.84C199.06 136.84 199.42 136.91 199.75 137.08C199.87 137.15 200.00 137.18 200.13 137.18C200.53 137.18 200.97 136.86 200.97 136.37C200.97 136.24 200.93 136.12 200.88 136.02C200.55 135.45 199.46 135.20 198.62 135.20C196.06 135.20 194.57 137.06 194.57 139.68C194.57 142.13 195.68 144.16 198.32 144.16C200.29 144.16 201.63 142.87 201.63 141.18ZM199.76 141.24C199.76 141.89 199.28 142.52 198.28 142.52C197.46 142.52 196.85 141.96 196.85 141.15C196.85 140.37 197.47 139.81 198.28 139.81C199.11 139.81 199.76 140.37 199.76 141.24ZM209.65 139.67C209.65 137.44 208.54 135.20 206.07 135.20C203.58 135.20 202.48 137.44 202.48 139.67C202.48 141.91 203.58 144.16 206.07 144.16C208.54 144.16 209.65 141.91 209.65 139.67ZM207.77 139.67C207.77 141.27 207.30 142.52 206.07 142.52C204.82 142.52 204.35 141.27 204.35 139.67C204.35 138.07 204.82 136.84 206.07 136.84C207.30 136.84 207.77 138.07 207.77 139.67ZM217.55 141.15C217.55 139.40 216.23 138.34 214.76 138.34C213.97 138.34 213.27 138.66 212.85 139.07L212.85 136.95L216.25 136.95C216.67 136.95 217.04 136.59 217.04 136.15C217.04 135.69 216.67 135.33 216.25 135.33L212.05 135.33C211.47 135.33 211.01 135.80 211.01 136.37L211.01 139.70C211.01 140.20 211.37 140.58 211.94 140.58C212.20 140.58 212.45 140.50 212.66 140.36C213.13 140.05 213.58 139.94 214.11 139.94C215.10 139.94 215.67 140.46 215.67 141.23C215.67 141.93 215.09 142.52 214.06 142.52C213.44 142.52 212.84 142.35 212.33 142.04C212.18 141.95 212.01 141.89 211.85 141.89C211.40 141.89 210.97 142.25 210.97 142.73C210.97 142.86 211.01 142.99 211.07 143.10C211.47 143.78 212.94 144.16 214.07 144.16C216.17 144.16 217.55 143.00 217.55 141.15Z" fill="#9aa7b4" /></g><rect x="18" y="166" width="384" height="8" rx="4" fill="#21262d" /><rect x="18.00" y="166" width="267.85" height="8" rx="4" fill="#00d559" /><rect x="285.85" y="166" width="116.15" height="8" rx="4" fill="#00a5fe" /></svg>