<svg xmlns="http://www.w3.org/2000/svg" width="420" height="184" viewBox="0 0 420 184" role="img"><rect x="0.5" y="0.5" width="419" height="183" rx="10" fill="#ffffff" stroke="#f2f4f6" /><path d="M30.72 33.60C30.72 32.83 30.10 32.21 29.37 32.21L28.69 32.21L28.69 24.95C28.69 23.59 27.37 22.97 26.03 23.19C25.08 23.19 24.14 23.70 23.63 24.49L18.73 32.24C18.53 32.54 18.44 32.90 18.44 33.25C18.44 34.24 19.17 34.96 20.05 34.96L25.57 34.96L25.57 36.59C25.57 37.43 26.27 38.13 27.11 38.13C27.99 38.13 28.69 37.43 28.69 36.59L28.69 34.96L29.37 34.96C30.10 34.96 30.72 34.35 30.72 33.60ZM21.61 32.21L25.57 26.10L25.57 32.21ZM43.70 33.97C43.70 31.97 42.51 30.83 41.63 30.43C42.38 30.08 43.45 29.24 43.45 26.98C43.45 24.45 40.73 23.11 37.80 23.11C34.85 23.11 32.15 24.45 32.15 26.98C32.15 29.24 33.20 30.08 33.95 30.43C33.07 30.83 31.90 31.97 31.90 33.97C31.90 36.72 34.72 38.26 37.80 38.26C40.88 38.26 43.70 36.70 43.70 33.97ZM40.26 27.46C40.26 28.56 39.14 29.20 37.80 29.20C36.46 29.20 35.31 28.56 35.31 27.46C35.31 26.41 36.35 25.79 37.80 25.79C39.23 25.79 40.26 26.41 40.26 27.46ZM40.53 33.80C40.53 34.88 39.30 35.58 37.80 35.58C36.26 35.58 35.07 34.88 35.07 33.80C35.07 32.57 36.44 31.84 37.80 31.84C39.14 31.84 40.53 32.57 40.53 33.80ZM49.20 36.92C49.20 35.49 48.25 34.68 47.22 34.68C46.29 34.68 45.50 35.47 45.50 36.44C45.50 37.38 46.16 38.02 47.00 38.02C47.15 38.02 47.35 37.98 47.41 37.96C47.28 38.53 46.80 39.21 46.23 39.67C46.07 39.80 46.01 39.98 46.01 40.16C46.01 40.60 46.47 40.86 46.84 40.86C47.06 40.86 47.26 40.79 47.41 40.64C48.51 39.65 49.20 38.33 49.20 36.92ZM62.53 30.67C62.53 26.89 60.64 23.11 56.46 23.11C52.25 23.11 50.38 26.89 50.38 30.67C50.38 34.46 52.25 38.26 56.46 38.26C60.64 38.26 62.53 34.46 62.53 30.67ZM59.34 30.67C59.34 33.38 58.55 35.49 56.46 35.49C54.34 35.49 53.55 33.38 53.55 30.67C53.55 27.97 54.34 25.88 56.46 25.88C58.55 25.88 59.34 27.97 59.34 30.67ZM75.84 33.97C75.84 31.97 74.65 30.83 73.77 30.43C74.52 30.08 75.60 29.24 75.60 26.98C75.60 24.45 72.87 23.11 69.94 23.11C66.99 23.11 64.29 24.45 64.29 26.98C64.29 29.24 65.34 30.08 66.09 30.43C65.21 30.83 64.05 31.97 64.05 33.97C64.05 36.72 66.86 38.26 69.94 38.26C73.02 38.26 75.84 36.70 75.84 33.97ZM72.41 27.46C72.41 28.56 71.28 29.20 69.94 29.20C68.60 29.20 67.46 28.56 67.46 27.46C67.46 26.41 68.49 25.79 69.94 25.79C71.37 25.79 72.41 26.41 72.41 27.46ZM72.67 33.80C72.67 34.88 71.44 35.58 69.94 35.58C68.40 35.58 67.21 34.88 67.21 33.80C67.21 32.57 68.58 31.84 69.94 31.84C71.28 31.84 72.67 32.57 72.67 33.80ZM84.20 25.00C84.20 24.01 83.36 23.22 82.37 23.22C81.87 23.22 81.38 23.41 81.05 23.74L77.66 27.18C77.40 27.44 77.27 27.77 77.27 28.10C77.27 28.83 77.88 29.40 78.57 29.40C78.87 29.40 79.18 29.29 79.42 29.05L81.07 27.35L81.07 36.59C81.07 37.43 81.78 38.13 82.61 38.13C83.49 38.13 84.20 37.43 84.20 36.59ZM99.84 23.08C95.44 23.08 92.03 26.16 92.03 30.67C92.03 35.18 95.44 38.26 99.84 38.26C102.37 38.26 104.06 37.16 105.16 35.82C105.38 35.58 105.47 35.27 105.47 34.96C105.47 34.22 104.83 33.60 104.04 33.60C103.60 33.60 103.16 33.78 102.85 34.11C102.04 35.01 100.94 35.49 99.84 35.49C97.18 35.49 95.24 33.45 95.24 30.67C95.24 27.90 97.18 25.86 99.84 25.86C100.94 25.86 102.02 26.38 102.85 27.26C103.16 27.59 103.58 27.77 104.00 27.77C104.81 27.77 105.49 27.15 105.49 26.36C105.49 26.08 105.38 25.75 105.19 25.50C104.06 24.16 102.37 23.08 99.84 23.08ZM118.34 32.68C118.34 29.66 116.23 27.11 112.71 27.11C109.21 27.11 107.10 29.66 107.10 32.68C107.10 35.71 109.21 38.26 112.71 38.26C116.23 38.26 118.34 35.71 118.34 32.68ZM115.44 32.68C115.44 34.35 114.45 35.78 112.71 35.78C110.97 35.78 110.00 34.35 110.00 32.68C110.00 31.03 110.97 29.60 112.71 29.60C114.45 29.60 115.44 31.03 115.44 32.68ZM136.40 31.20C136.40 29.02 134.89 27.11 132.49 27.11C130.64 27.11 129.58 28.19 129.19 28.94C128.79 28.17 127.80 27.11 126.02 27.11C124.39 27.11 123.64 27.70 123.20 28.28L123.20 28.25C123.20 27.95 122.81 27.24 121.84 27.24C121.03 27.24 120.41 27.86 120.41 28.61L120.41 36.75C120.41 37.52 121.03 38.13 121.80 38.13C122.59 38.13 123.20 37.52 123.20 36.75L123.20 31.73C123.20 30.70 124.00 29.60 125.18 29.60C126.33 29.60 126.99 30.74 126.99 31.73L126.99 36.75C126.99 37.52 127.60 38.13 128.37 38.13C129.19 38.13 129.80 37.52 129.80 36.75L129.80 31.93C129.80 30.70 130.57 29.60 131.78 29.60C132.93 29.60 133.59 30.74 133.59 31.73L133.59 36.75C133.59 37.52 134.20 38.13 134.97 38.13C135.79 38.13 136.40 37.52 136.40 36.75ZM155.15 31.20C155.15 29.02 153.63 27.11 151.23 27.11C149.38 27.11 148.33 28.19 147.93 28.94C147.54 28.17 146.55 27.11 144.76 27.11C143.14 27.11 142.39 27.70 141.95 28.28L141.95 28.25C141.95 27.95 141.55 27.24 140.58 27.24C139.77 27.24 139.15 27.86 139.15 28.61L139.15 36.75C139.15 37.52 139.77 38.13 140.54 38.13C141.33 38.13 141.95 37.52 141.95 36.75L141.95 31.73C141.95 30.70 142.74 29.60 143.93 29.60C145.07 29.60 145.73 30.74 145.73 31.73L145.73 36.75C145.73 37.52 146.35 38.13 147.12 38.13C147.93 38.13 148.55 37.52 148.55 36.75L148.55 31.93C148.55 30.70 149.32 29.60 150.53 29.60C151.67 29.60 152.33 30.74 152.33 31.73L152.33 36.75C152.33 37.52 152.95 38.13 153.72 38.13C154.53 38.13 155.15 37.52 155.15 36.75ZM159.28 22.91C158.38 22.91 157.61 23.63 157.61 24.56C157.61 25.48 158.38 26.23 159.28 26.23C160.21 26.23 160.96 25.48 160.96 24.56C160.96 23.63 160.21 22.91 159.28 22.91ZM160.69 28.61C160.69 27.86 160.08 27.24 159.33 27.24C158.51 27.24 157.90 27.86 157.90 28.61L157.90 36.75C157.90 37.52 158.51 38.13 159.28 38.13C160.08 38.13 160.69 37.52 160.69 36.75ZM169.27 36.99C169.27 36.31 168.83 35.78 168.04 35.78L167.80 35.78C167.36 35.78 166.83 35.45 166.83 34.61L166.83 29.82L167.93 29.82C168.57 29.82 169.12 29.27 169.12 28.61C169.12 27.92 168.57 27.37 167.93 27.37L166.83 27.37L166.83 25.72C166.83 24.95 166.21 24.34 165.44 24.34C164.63 24.34 164.01 24.95 164.01 25.72L164.01 27.37L163.33 27.37C162.67 27.37 162.12 27.92 162.12 28.56C162.12 29.27 162.67 29.82 163.33 29.82L164.01 29.82L164.01 35.36C164.01 37.25 165.07 38.26 167.03 38.26C168.85 38.26 169.27 37.69 169.27 36.99ZM179.33 34.85C179.33 30.56 173.03 31.88 173.03 30.30C173.03 29.71 173.69 29.24 174.71 29.24C175.56 29.24 176.42 29.49 177.10 29.88C177.26 29.97 177.46 30.01 177.63 30.01C178.20 30.01 178.73 29.55 178.73 28.96C178.73 28.76 178.67 28.56 178.56 28.41C177.96 27.55 176.07 27.11 174.68 27.11C171.89 27.11 170.33 28.67 170.33 30.45C170.33 34.63 176.64 33.20 176.64 34.96C176.64 35.62 176.07 36.11 174.86 36.11C173.94 36.11 172.84 35.73 172 35.25C171.82 35.14 171.63 35.10 171.43 35.10C170.83 35.10 170.26 35.60 170.26 36.26C170.26 36.48 170.33 36.68 170.46 36.86C171.12 37.80 173.34 38.26 174.73 38.26C177.68 38.26 179.33 36.79 179.33 34.85Z" fill="#22272e" /><path d="M20.26 49.88C20.26 49.54 19.98 49.25 19.64 49.25C19.26 49.25 18.98 49.54 18.98 49.88L18.98 57.44C18.98 57.79 19.26 58.08 19.61 58.08C19.98 58.08 20.26 57.79 20.26 57.44ZM27.55 53.97C27.55 52.64 26.59 51.56 25.27 51.56C24.18 51.56 23.62 52.10 23.32 52.60L23.32 52.20C23.32 51.90 23.06 51.64 22.76 51.64C22.42 51.64 22.16 51.90 22.16 52.20L22.16 57.51C22.16 57.82 22.42 58.08 22.73 58.08C23.06 58.08 23.32 57.82 23.32 57.51L23.32 54.49C23.32 53.42 23.89 52.59 24.89 52.59C25.83 52.59 26.40 53.32 26.40 54.36L26.40 57.51C26.40 57.82 26.66 58.08 26.97 58.08C27.30 58.08 27.55 57.82 27.55 57.51ZM38.97 49.91C38.97 49.58 38.72 49.33 38.41 49.33L32.70 49.33C32.39 49.33 32.14 49.58 32.14 49.89C32.14 50.21 32.39 50.47 32.70 50.47L34.91 50.47L34.91 57.44C34.91 57.79 35.20 58.08 35.55 58.08C35.91 58.08 36.20 57.79 36.20 57.44L36.20 50.47L38.41 50.47C38.72 50.47 38.97 50.21 38.97 49.91ZM44.74 54.85C44.74 53.05 43.53 51.56 41.57 51.56C39.62 51.56 38.41 53.05 38.41 54.85C38.41 56.66 39.62 58.16 41.57 58.16C43.53 58.16 44.74 56.66 44.74 54.85ZM43.53 54.85C43.53 56.06 42.83 57.13 41.57 57.13C40.32 57.13 39.61 56.06 39.61 54.85C39.61 53.66 40.32 52.59 41.57 52.59C42.83 52.59 43.53 53.66 43.53 54.85ZM49.16 57.55C49.16 57.27 48.95 57.06 48.67 57.06C48.54 57.06 48.38 57.13 48.24 57.13C47.86 57.13 47.63 56.83 47.63 56.35L47.63 52.73L48.48 52.73C48.76 52.73 48.98 52.51 48.98 52.24C48.98 51.94 48.76 51.72 48.48 51.72L47.63 51.72L47.63 50.49C47.63 50.19 47.37 49.93 47.05 49.93C46.72 49.93 46.46 50.19 46.46 50.49L46.46 51.72L45.85 51.72C45.56 51.72 45.34 51.94 45.34 52.22C45.34 52.51 45.56 52.73 45.85 52.73L46.46 52.73L46.46 56.62C46.46 57.61 46.98 58.16 47.96 58.16C48.65 58.16 49.16 57.96 49.16 57.55ZM55.26 53.75C55.26 52.15 54.09 51.56 52.74 51.56C51.89 51.56 50.94 51.84 50.34 52.44C50.27 52.53 50.23 52.63 50.23 52.73C50.23 53.01 50.47 53.19 50.71 53.19C50.80 53.19 50.90 53.15 50.99 53.09C51.46 52.72 51.98 52.54 52.57 52.54C53.45 52.54 54.10 53.01 54.10 53.80L54.10 54.15L52.29 54.15C50.99 54.15 49.85 54.66 49.85 56.08C49.85 57.45 50.99 58.16 52.03 58.16C53.01 58.16 53.59 57.86 54.10 57.30L54.10 57.51C54.10 57.88 54.40 58.08 54.63 58.08L54.67 58.08C55.00 58.08 55.26 57.82 55.26 57.51ZM54.10 54.96L54.10 55.84C54.10 56.58 53.26 57.34 52.35 57.34C51.50 57.34 51.02 56.83 51.02 56.10C51.02 55.35 51.62 54.96 52.61 54.96ZM58.27 49.81C58.27 49.51 58.01 49.25 57.71 49.25C57.38 49.25 57.12 49.51 57.12 49.81L57.12 57.51C57.12 57.82 57.38 58.08 57.69 58.08C58.01 58.08 58.27 57.82 58.27 57.51Z" fill="#627386" /><line x1="18" y1="76" x2="48" y2="76" stroke="#627386" stroke-opacity="0.4" /><g aria-label="Additions: 34,046,727"><circle cx="22" cy="96" r="4" fill="#00d559" /><path d="M42.28 99.39C42.28 99.31 42.27 99.23 42.23 99.14L39.36 91.94C39.19 91.51 38.76 91.24 38.30 91.25C37.85 91.25 37.43 91.52 37.28 91.94L34.40 99.14C34.38 99.23 34.36 99.31 34.36 99.39C34.36 99.74 34.65 100.08 35.05 100.08C35.33 100.08 35.57 99.92 35.68 99.66L36.25 98.19L40.40 98.19L40.97 99.66C41.07 99.92 41.32 100.08 41.59 100.08C42.01 100.08 42.28 99.71 42.28 99.39ZM38.32 92.64L40.03 97.06L36.61 97.06ZM49.22 91.81C49.22 91.51 48.96 91.25 48.66 91.25C48.33 91.25 48.07 91.51 48.07 91.81L48.07 94.63C47.56 93.95 46.95 93.56 46.00 93.56C44.36 93.56 43.20 94.85 43.20 96.87C43.20 98.92 44.37 100.16 46.00 100.16C46.97 100.16 47.59 99.73 48.07 99.10L48.07 99.51C48.07 99.82 48.33 100.08 48.64 100.08C48.96 100.08 49.22 99.82 49.22 99.51ZM48.07 96.91C48.07 98.21 47.42 99.13 46.30 99.13C45.13 99.13 44.40 98.18 44.40 96.87C44.40 95.55 45.13 94.59 46.30 94.59C47.42 94.59 48.07 95.54 48.07 96.83ZM56.74 91.81C56.74 91.51 56.48 91.25 56.18 91.25C55.84 91.25 55.58 91.51 55.58 91.81L55.58 94.63C55.07 93.95 54.46 93.56 53.51 93.56C51.88 93.56 50.72 94.85 50.72 96.87C50.72 98.92 51.89 100.16 53.51 100.16C54.49 100.16 55.10 99.73 55.58 99.10L55.58 99.51C55.58 99.82 55.84 100.08 56.15 100.08C56.48 100.08 56.74 99.82 56.74 99.51ZM55.58 96.91C55.58 98.21 54.93 99.13 53.81 99.13C52.64 99.13 51.91 98.18 51.91 96.87C51.91 95.55 52.64 94.59 53.81 94.59C54.93 94.59 55.58 95.54 55.58 96.83ZM59.18 91.39C58.78 91.39 58.44 91.73 58.44 92.15C58.44 92.55 58.78 92.89 59.18 92.89C59.60 92.89 59.92 92.55 59.92 92.15C59.92 91.73 59.60 91.39 59.18 91.39ZM59.77 94.20C59.77 93.90 59.51 93.64 59.21 93.64C58.87 93.64 58.61 93.90 58.61 94.20L58.61 99.51C58.61 99.82 58.87 100.08 59.18 100.08C59.51 100.08 59.77 99.82 59.77 99.51ZM64.56 99.55C64.56 99.27 64.36 99.06 64.07 99.06C63.94 99.06 63.78 99.13 63.64 99.13C63.26 99.13 63.03 98.83 63.03 98.35L63.03 94.73L63.89 94.73C64.16 94.73 64.38 94.51 64.38 94.24C64.38 93.94 64.16 93.72 63.89 93.72L63.03 93.72L63.03 92.49C63.03 92.19 62.77 91.93 62.46 91.93C62.12 91.93 61.86 92.19 61.86 92.49L61.86 93.72L61.25 93.72C60.96 93.72 60.74 93.94 60.74 94.22C60.74 94.51 60.96 94.73 61.25 94.73L61.86 94.73L61.86 98.62C61.86 99.61 62.38 100.16 63.37 100.16C64.06 100.16 64.56 99.96 64.56 99.55ZM66.19 91.39C65.79 91.39 65.45 91.73 65.45 92.15C65.45 92.55 65.79 92.89 66.19 92.89C66.60 92.89 66.93 92.55 66.93 92.15C66.93 91.73 66.60 91.39 66.19 91.39ZM66.77 94.20C66.77 93.90 66.51 93.64 66.21 93.64C65.88 93.64 65.62 93.90 65.62 94.20L65.62 99.51C65.62 99.82 65.88 100.08 66.19 100.08C66.51 100.08 66.77 99.82 66.77 99.51ZM74.60 96.85C74.60 95.05 73.39 93.56 71.43 93.56C69.48 93.56 68.27 95.05 68.27 96.85C68.27 98.66 69.48 100.16 71.43 100.16C73.39 100.16 74.60 98.66 74.60 96.85ZM73.39 96.85C73.39 98.06 72.69 99.13 71.43 99.13C70.18 99.13 69.46 98.06 69.46 96.85C69.46 95.66 70.18 94.59 71.43 94.59C72.69 94.59 73.39 95.66 73.39 96.85ZM81.49 95.97C81.49 94.64 80.53 93.56 79.20 93.56C78.11 93.56 77.55 94.10 77.25 94.61L77.25 94.20C77.25 93.90 76.99 93.64 76.69 93.64C76.35 93.64 76.09 93.90 76.09 94.20L76.09 99.51C76.09 99.82 76.35 100.08 76.67 100.08C76.99 100.08 77.25 99.82 77.25 99.51L77.25 96.49C77.25 95.42 77.82 94.59 78.82 94.59C79.76 94.59 80.33 95.32 80.33 96.36L80.33 99.51C80.33 99.82 80.59 100.08 80.90 100.08C81.23 100.08 81.49 99.82 81.49 99.51ZM87.96 98.10C87.85 95.89 84.24 96.50 84.11 95.37C84.06 94.86 84.61 94.49 85.40 94.49C86 94.49 86.56 94.68 86.96 94.97C87.04 95.03 87.13 95.06 87.23 95.06C87.47 95.06 87.69 94.86 87.69 94.61C87.69 94.50 87.65 94.40 87.57 94.32C87.08 93.84 86.29 93.56 85.39 93.56C83.86 93.56 82.93 94.29 83.00 95.41C83.11 97.52 86.70 96.87 86.83 98.26C86.88 98.83 86.36 99.23 85.47 99.23C84.82 99.23 84.17 98.97 83.70 98.64C83.61 98.57 83.52 98.54 83.40 98.54C83.13 98.54 82.89 98.75 82.89 99.03C82.89 99.16 82.94 99.26 83.04 99.34C83.61 99.91 84.56 100.16 85.41 100.16C87.08 100.16 88.03 99.30 87.96 98.10Z" fill="#22272e" /><path d="M158.54 97.63C158.64 96.07 157.59 95.53 157.59 95.53C157.59 95.53 158.55 95.03 158.45 93.55C158.34 92.11 157.20 91.20 155.17 91.20C153.97 91.20 153.04 91.55 152.32 92.12C152.14 92.27 152.05 92.47 152.05 92.68C152.05 93.14 152.45 93.46 152.86 93.46C153.01 93.46 153.17 93.42 153.30 93.33C153.81 93.01 154.38 92.84 154.98 92.84C155.89 92.84 156.59 93.05 156.59 93.73C156.59 94.45 156.16 94.79 155.29 94.79C154.66 94.79 154.39 95.14 154.39 95.59C154.39 96.05 154.66 96.41 155.34 96.41C156.22 96.41 156.73 96.72 156.73 97.41C156.73 98.06 156.15 98.52 155.09 98.52C154.49 98.52 153.81 98.31 153.23 97.97C153.09 97.88 152.93 97.84 152.78 97.84C152.35 97.84 151.93 98.19 151.93 98.66C151.93 98.79 151.97 98.91 152.04 99.01C152.44 99.69 153.91 100.16 155.16 100.16C157.24 100.16 158.43 99.26 158.54 97.63ZM166.62 97.40C166.62 96.94 166.26 96.58 165.83 96.58L165.43 96.58L165.43 92.29C165.43 91.48 164.65 91.12 163.85 91.25C163.30 91.25 162.74 91.55 162.44 92.02L159.54 96.59C159.42 96.78 159.37 96.98 159.37 97.19C159.37 97.78 159.80 98.21 160.32 98.21L163.58 98.21L163.58 99.17C163.58 99.66 164.00 100.08 164.49 100.08C165.01 100.08 165.43 99.66 165.43 99.17L165.43 98.21L165.83 98.21C166.26 98.21 166.62 97.84 166.62 97.40ZM161.24 96.58L163.58 92.97L163.58 96.58ZM169.67 99.36C169.67 98.52 169.11 98.04 168.50 98.04C167.95 98.04 167.48 98.50 167.48 99.08C167.48 99.64 167.87 100.01 168.37 100.01C168.46 100.01 168.57 99.99 168.61 99.97C168.53 100.31 168.25 100.72 167.91 100.99C167.82 101.07 167.78 101.17 167.78 101.27C167.78 101.53 168.05 101.69 168.27 101.69C168.40 101.69 168.52 101.65 168.61 101.56C169.26 100.97 169.67 100.19 169.67 99.36ZM177.54 95.67C177.54 93.44 176.43 91.20 173.96 91.20C171.47 91.20 170.37 93.44 170.37 95.67C170.37 97.91 171.47 100.16 173.96 100.16C176.43 100.16 177.54 97.91 177.54 95.67ZM175.66 95.67C175.66 97.27 175.19 98.52 173.96 98.52C172.71 98.52 172.24 97.27 172.24 95.67C172.24 94.07 172.71 92.84 173.96 92.84C175.19 92.84 175.66 94.07 175.66 95.67ZM185.50 97.40C185.50 96.94 185.14 96.58 184.71 96.58L184.30 96.58L184.30 92.29C184.30 91.48 183.52 91.12 182.73 91.25C182.17 91.25 181.61 91.55 181.31 92.02L178.41 96.59C178.30 96.78 178.25 96.98 178.25 97.19C178.25 97.78 178.67 98.21 179.19 98.21L182.46 98.21L182.46 99.17C182.46 99.66 182.87 100.08 183.37 100.08C183.89 100.08 184.30 99.66 184.30 99.17L184.30 98.21L184.71 98.21C185.14 98.21 185.50 97.84 185.50 97.40ZM180.12 96.58L182.46 92.97L182.46 96.58ZM193.25 97.18C193.25 95.33 191.86 94.36 190.30 94.36C189.22 94.36 188.41 94.89 188.07 95.48C188.06 95.41 188.06 95.36 188.06 95.29C188.06 93.92 188.96 92.84 190.23 92.84C190.67 92.84 191.04 92.91 191.36 93.08C191.48 93.15 191.61 93.17 191.74 93.17C192.14 93.17 192.58 92.86 192.58 92.37C192.58 92.24 192.55 92.12 192.49 92.02C192.17 91.45 191.08 91.20 190.23 91.20C187.67 91.20 186.19 93.06 186.19 95.68C186.19 98.13 187.29 100.16 189.93 100.16C191.91 100.16 193.25 98.87 193.25 97.18ZM191.38 97.24C191.38 97.89 190.89 98.52 189.89 98.52C189.07 98.52 188.46 97.96 188.46 97.15C188.46 96.37 189.09 95.81 189.89 95.81C190.73 95.81 191.38 96.37 191.38 97.24ZM196.45 99.36C196.45 98.52 195.89 98.04 195.28 98.04C194.73 98.04 194.26 98.50 194.26 99.08C194.26 99.64 194.65 100.01 195.15 100.01C195.24 100.01 195.35 99.99 195.39 99.97C195.31 100.31 195.03 100.72 194.69 100.99C194.60 101.07 194.56 101.17 194.56 101.27C194.56 101.53 194.83 101.69 195.05 101.69C195.18 101.69 195.30 101.65 195.39 101.56C196.04 100.97 196.45 100.19 196.45 99.36ZM202.93 92.27C202.93 91.72 202.49 91.33 202.04 91.33L197.07 91.33C196.63 91.33 196.26 91.69 196.26 92.12C196.26 92.59 196.63 92.95 197.07 92.95L200.71 92.95L198.12 98.82C198.07 98.93 198.04 99.05 198.04 99.17C198.04 99.64 198.42 100.08 198.97 100.08C199.34 100.08 199.70 99.86 199.84 99.52L202.85 92.63C202.91 92.53 202.93 92.39 202.93 92.27ZM210.33 99.17C210.33 98.74 209.97 98.38 209.54 98.38L206.72 98.38C208.96 96.74 210.19 95.45 210.19 93.97C210.19 92.24 208.72 91.20 206.87 91.20C205.78 91.20 204.32 91.67 203.91 92.33C203.83 92.45 203.79 92.58 203.79 92.71C203.79 93.17 204.17 93.54 204.60 93.54C204.79 93.54 204.96 93.49 205.13 93.37C205.62 93.03 206.22 92.84 206.91 92.84C207.63 92.84 208.31 93.21 208.31 93.97C208.31 94.98 207.27 95.93 204.04 98.32C203.79 98.50 203.65 98.80 203.65 99.10C203.65 99.62 204.06 100 204.52 100L209.54 100C209.97 100 210.33 99.64 210.33 99.17ZM217.82 92.27C217.82 91.72 217.38 91.33 216.92 91.33L211.95 91.33C211.51 91.33 211.15 91.69 211.15 92.12C211.15 92.59 211.51 92.95 211.95 92.95L215.59 92.95L213.01 98.82C212.96 98.93 212.93 99.05 212.93 99.17C212.93 99.64 213.31 100.08 213.85 100.08C214.23 100.08 214.58 99.86 214.72 99.52L217.74 92.63C217.79 92.53 217.82 92.39 217.82 92.27Z" fill="#627386" /></g><g aria-label="Deletions: 16,779,631"><circle cx="22" cy="118" r="4" fill="#00a5fe" /><path d="M42.54 117.67C42.54 115.17 40.76 113.33 38.06 113.33L35.82 113.33C35.35 113.33 34.98 113.71 34.98 114.17L34.98 121.16C34.98 121.62 35.35 122 35.82 122L38.06 122C40.76 122 42.54 120.18 42.54 117.67ZM41.23 117.67C41.23 119.43 40.06 120.86 38.06 120.86L36.26 120.86L36.26 114.47L38.06 114.47C40.11 114.47 41.23 115.89 41.23 117.67ZM49.90 118.65C49.90 118.40 49.83 118.13 49.78 117.92C49.42 116.51 48.38 115.56 46.86 115.56C45.04 115.56 43.72 117.03 43.72 118.85C43.72 120.83 45.09 122.16 46.96 122.16C47.88 122.16 49.50 121.67 49.50 120.97C49.50 120.53 49.05 120.43 48.77 120.57C48.31 120.91 47.61 121.22 47.08 121.22C45.80 121.22 45.02 120.35 44.93 119.27L49.30 119.27C49.63 119.27 49.90 118.96 49.90 118.65ZM44.93 118.41C44.98 117.54 45.60 116.50 46.84 116.50C48.18 116.50 48.76 117.57 48.78 118.41ZM52.54 113.81C52.54 113.51 52.28 113.25 51.98 113.25C51.64 113.25 51.38 113.51 51.38 113.81L51.38 121.51C51.38 121.82 51.64 122.08 51.95 122.08C52.28 122.08 52.54 121.82 52.54 121.51ZM60.21 118.65C60.21 118.40 60.14 118.13 60.09 117.92C59.73 116.51 58.69 115.56 57.17 115.56C55.35 115.56 54.03 117.03 54.03 118.85C54.03 120.83 55.40 122.16 57.27 122.16C58.19 122.16 59.81 121.67 59.81 120.97C59.81 120.53 59.36 120.43 59.08 120.57C58.62 120.91 57.92 121.22 57.39 121.22C56.11 121.22 55.33 120.35 55.24 119.27L59.61 119.27C59.94 119.27 60.21 118.96 60.21 118.65ZM55.24 118.41C55.29 117.54 55.91 116.50 57.15 116.50C58.49 116.50 59.06 117.57 59.09 118.41ZM64.62 121.55C64.62 121.27 64.41 121.06 64.12 121.06C63.99 121.06 63.84 121.13 63.69 121.13C63.32 121.13 63.08 120.83 63.08 120.35L63.08 116.73L63.94 116.73C64.21 116.73 64.43 116.51 64.43 116.24C64.43 115.94 64.21 115.72 63.94 115.72L63.08 115.72L63.08 114.49C63.08 114.19 62.82 113.93 62.51 113.93C62.17 113.93 61.91 114.19 61.91 114.49L61.91 115.72L61.30 115.72C61.01 115.72 60.79 115.94 60.79 116.22C60.79 116.51 61.01 116.73 61.30 116.73L61.91 116.73L61.91 120.62C61.91 121.61 62.43 122.16 63.42 122.16C64.11 122.16 64.62 121.96 64.62 121.55ZM66.24 113.39C65.84 113.39 65.50 113.73 65.50 114.15C65.50 114.55 65.84 114.89 66.24 114.89C66.66 114.89 66.98 114.55 66.98 114.15C66.98 113.73 66.66 113.39 66.24 113.39ZM66.83 116.20C66.83 115.90 66.56 115.64 66.27 115.64C65.93 115.64 65.67 115.90 65.67 116.20L65.67 121.51C65.67 121.82 65.93 122.08 66.24 122.08C66.56 122.08 66.83 121.82 66.83 121.51ZM74.65 118.85C74.65 117.05 73.44 115.56 71.48 115.56C69.53 115.56 68.32 117.05 68.32 118.85C68.32 120.66 69.53 122.16 71.48 122.16C73.44 122.16 74.65 120.66 74.65 118.85ZM73.44 118.85C73.44 120.06 72.74 121.13 71.48 121.13C70.23 121.13 69.52 120.06 69.52 118.85C69.52 117.66 70.23 116.59 71.48 116.59C72.74 116.59 73.44 117.66 73.44 118.85ZM81.54 117.97C81.54 116.64 80.58 115.56 79.25 115.56C78.16 115.56 77.60 116.10 77.30 116.61L77.30 116.20C77.30 115.90 77.04 115.64 76.74 115.64C76.41 115.64 76.15 115.90 76.15 116.20L76.15 121.51C76.15 121.82 76.41 122.08 76.72 122.08C77.04 122.08 77.30 121.82 77.30 121.51L77.30 118.49C77.30 117.42 77.88 116.59 78.88 116.59C79.81 116.59 80.38 117.32 80.38 118.36L80.38 121.51C80.38 121.82 80.64 122.08 80.96 122.08C81.28 122.08 81.54 121.82 81.54 121.51ZM88.01 120.10C87.90 117.89 84.30 118.50 84.17 117.37C84.11 116.86 84.66 116.49 85.45 116.49C86.05 116.49 86.61 116.68 87.01 116.97C87.09 117.03 87.18 117.06 87.29 117.06C87.52 117.06 87.74 116.86 87.74 116.61C87.74 116.50 87.70 116.40 87.62 116.32C87.13 115.84 86.34 115.56 85.44 115.56C83.91 115.56 82.98 116.29 83.05 117.41C83.17 119.52 86.75 118.87 86.88 120.26C86.94 120.83 86.42 121.23 85.52 121.23C84.87 121.23 84.22 120.97 83.75 120.64C83.66 120.57 83.57 120.54 83.45 120.54C83.18 120.54 82.94 120.75 82.94 121.03C82.94 121.16 83.00 121.26 83.09 121.34C83.66 121.91 84.61 122.16 85.47 122.16C87.13 122.16 88.08 121.30 88.01 120.10Z" fill="#22272e" /><path d="M161.13 114.32C161.13 113.73 160.63 113.26 160.05 113.26C159.75 113.26 159.46 113.38 159.27 113.58L157.26 115.60C157.11 115.76 157.03 115.95 157.03 116.15C157.03 116.58 157.39 116.92 157.80 116.92C157.98 116.92 158.16 116.85 158.30 116.71L159.28 115.71L159.28 121.17C159.28 121.66 159.69 122.08 160.19 122.08C160.71 122.08 161.13 121.66 161.13 121.17ZM169.48 119.18C169.48 117.33 168.09 116.36 166.53 116.36C165.45 116.36 164.65 116.89 164.31 117.48C164.30 117.41 164.30 117.36 164.30 117.29C164.30 115.92 165.19 114.84 166.47 114.84C166.91 114.84 167.27 114.91 167.60 115.08C167.72 115.15 167.85 115.17 167.98 115.17C168.38 115.17 168.82 114.86 168.82 114.37C168.82 114.24 168.78 114.12 168.73 114.02C168.40 113.45 167.31 113.20 166.47 113.20C163.91 113.20 162.42 115.06 162.42 117.68C162.42 120.13 163.53 122.16 166.17 122.16C168.14 122.16 169.48 120.87 169.48 119.18ZM167.61 119.24C167.61 119.89 167.13 120.52 166.13 120.52C165.31 120.52 164.70 119.96 164.70 119.15C164.70 118.37 165.32 117.81 166.13 117.81C166.96 117.81 167.61 118.37 167.61 119.24ZM172.68 121.36C172.68 120.52 172.12 120.04 171.51 120.04C170.97 120.04 170.50 120.50 170.50 121.08C170.50 121.64 170.89 122.01 171.38 122.01C171.47 122.01 171.59 121.99 171.63 121.97C171.55 122.31 171.26 122.72 170.93 122.99C170.84 123.07 170.80 123.17 170.80 123.27C170.80 123.53 171.07 123.69 171.29 123.69C171.42 123.69 171.54 123.65 171.63 123.56C172.28 122.97 172.68 122.19 172.68 121.36ZM179.17 114.27C179.17 113.72 178.73 113.33 178.27 113.33L173.31 113.33C172.86 113.33 172.50 113.69 172.50 114.12C172.50 114.59 172.86 114.95 173.31 114.95L176.95 114.95L174.36 120.82C174.31 120.93 174.28 121.05 174.28 121.17C174.28 121.64 174.66 122.08 175.20 122.08C175.58 122.08 175.93 121.86 176.07 121.52L179.09 114.63C179.14 114.53 179.17 114.39 179.17 114.27ZM186.25 114.27C186.25 113.72 185.81 113.33 185.36 113.33L180.39 113.33C179.95 113.33 179.58 113.69 179.58 114.12C179.58 114.59 179.95 114.95 180.39 114.95L184.03 114.95L181.44 120.82C181.39 120.93 181.37 121.05 181.37 121.17C181.37 121.64 181.74 122.08 182.29 122.08C182.67 122.08 183.02 121.86 183.16 121.52L186.18 114.63C186.23 114.53 186.25 114.39 186.25 114.27ZM186.83 116.16C186.83 118.01 188.22 118.98 189.78 118.98C190.86 118.98 191.66 118.45 192.00 117.87C192.01 117.93 192.01 117.98 192.01 118.05C192.01 119.43 191.12 120.50 189.84 120.50C189.40 120.50 189.04 120.43 188.71 120.26C188.59 120.19 188.46 120.17 188.33 120.17C187.93 120.17 187.49 120.48 187.49 120.97C187.49 121.10 187.53 121.22 187.58 121.32C187.90 121.90 189.00 122.14 189.84 122.14C192.40 122.14 193.88 120.28 193.88 117.66C193.88 115.21 192.78 113.19 190.14 113.19C188.16 113.19 186.83 114.47 186.83 116.16ZM188.70 116.10C188.70 115.45 189.18 114.82 190.18 114.82C191.00 114.82 191.61 115.38 191.61 116.19C191.61 116.97 190.99 117.53 190.18 117.53C189.35 117.53 188.70 116.97 188.70 116.10ZM196.86 121.36C196.86 120.52 196.30 120.04 195.69 120.04C195.15 120.04 194.68 120.50 194.68 121.08C194.68 121.64 195.07 122.01 195.56 122.01C195.65 122.01 195.77 121.99 195.81 121.97C195.73 122.31 195.44 122.72 195.11 122.99C195.02 123.07 194.98 123.17 194.98 123.27C194.98 123.53 195.25 123.69 195.47 123.69C195.60 123.69 195.72 123.65 195.81 123.56C196.46 122.97 196.86 122.19 196.86 121.36ZM204.62 119.18C204.62 117.33 203.23 116.36 201.67 116.36C200.59 116.36 199.79 116.89 199.45 117.48C199.44 117.41 199.44 117.36 199.44 117.29C199.44 115.92 200.33 114.84 201.61 114.84C202.05 114.84 202.41 114.91 202.74 115.08C202.85 115.15 202.98 115.17 203.11 115.17C203.52 115.17 203.96 114.86 203.96 114.37C203.96 114.24 203.92 114.12 203.87 114.02C203.54 113.45 202.45 113.20 201.61 113.20C199.05 113.20 197.56 115.06 197.56 117.68C197.56 120.13 198.67 122.16 201.31 122.16C203.28 122.16 204.62 120.87 204.62 119.18ZM202.75 119.24C202.75 119.89 202.27 120.52 201.27 120.52C200.45 120.52 199.84 119.96 199.84 119.15C199.84 118.37 200.46 117.81 201.27 117.81C202.10 117.81 202.75 118.37 202.75 119.24ZM212.08 119.63C212.19 118.07 211.14 117.53 211.14 117.53C211.14 117.53 212.10 117.03 211.99 115.55C211.89 114.11 210.75 113.20 208.72 113.20C207.52 113.20 206.59 113.55 205.87 114.12C205.69 114.27 205.60 114.47 205.60 114.68C205.60 115.14 206.00 115.46 206.40 115.46C206.56 115.46 206.72 115.42 206.85 115.33C207.35 115.01 207.92 114.84 208.52 114.84C209.43 114.84 210.13 115.05 210.13 115.73C210.13 116.45 209.71 116.79 208.83 116.79C208.21 116.79 207.94 117.14 207.94 117.59C207.94 118.05 208.21 118.41 208.89 118.41C209.77 118.41 210.28 118.72 210.28 119.41C210.28 120.06 209.69 120.52 208.64 120.52C208.04 120.52 207.35 120.31 206.78 119.97C206.64 119.88 206.48 119.84 206.33 119.84C205.90 119.84 205.48 120.19 205.48 120.66C205.48 120.79 205.52 120.91 205.58 121.01C205.99 121.69 207.46 122.16 208.70 122.16C210.78 122.16 211.98 121.26 212.08 119.63ZM217.14 114.32C217.14 113.73 216.65 113.26 216.06 113.26C215.76 113.26 215.48 113.38 215.28 113.58L213.28 115.60C213.12 115.76 213.05 115.95 213.05 116.15C213.05 116.58 213.41 116.92 213.81 116.92C214.00 116.92 214.18 116.85 214.32 116.71L215.30 115.71L215.30 121.17C215.30 121.66 215.71 122.08 216.21 122.08C216.73 122.08 217.14 121.66 217.14 121.17Z" fill="#627386" /></g><g aria-label="Changed Files: 523,665"><circle cx="22" cy="140" r="4" fill="#673bd6" /><path d="M39.11 135.19C36.59 135.19 34.60 137.01 34.60 139.67C34.60 142.34 36.59 144.16 39.11 144.16C40.46 144.16 41.40 143.60 42.07 142.87C42.18 142.76 42.23 142.62 42.23 142.47C42.23 142.15 41.97 141.87 41.63 141.87C41.46 141.87 41.28 141.95 41.18 142.08C40.64 142.67 39.88 143.01 39.11 143.01C37.29 143.01 35.94 141.61 35.94 139.67C35.94 137.72 37.29 136.33 39.11 136.33C39.86 136.33 40.67 136.69 41.18 137.28C41.28 137.42 41.46 137.49 41.62 137.49C41.96 137.49 42.23 137.21 42.23 136.89C42.23 136.73 42.18 136.59 42.07 136.47C41.41 135.73 40.46 135.19 39.11 135.19ZM49.17 139.94C49.17 138.62 48.22 137.56 46.90 137.56C45.79 137.56 45.22 138.10 44.92 138.60L44.92 135.81C44.92 135.51 44.66 135.25 44.36 135.25C44.02 135.25 43.76 135.51 43.76 135.81L43.76 143.51C43.76 143.82 44.02 144.08 44.34 144.08C44.66 144.08 44.92 143.82 44.92 143.51L44.92 140.56C44.92 139.38 45.54 138.59 46.53 138.59C47.47 138.59 48.01 139.29 48.01 140.33L48.01 143.51C48.01 143.82 48.27 144.08 48.59 144.08C48.91 144.08 49.17 143.82 49.17 143.51ZM56.09 139.75C56.09 138.15 54.92 137.56 53.56 137.56C52.72 137.56 51.77 137.84 51.17 138.44C51.09 138.53 51.06 138.63 51.06 138.74C51.06 139.01 51.30 139.19 51.54 139.19C51.63 139.19 51.73 139.15 51.82 139.09C52.29 138.72 52.81 138.54 53.40 138.54C54.28 138.54 54.93 139.01 54.93 139.80L54.93 140.15L53.12 140.15C51.82 140.15 50.68 140.66 50.68 142.08C50.68 143.45 51.82 144.16 52.86 144.16C53.84 144.16 54.42 143.86 54.93 143.30L54.93 143.51C54.93 143.88 55.23 144.08 55.46 144.08L55.50 144.08C55.83 144.08 56.09 143.82 56.09 143.51ZM54.93 140.96L54.93 141.84C54.93 142.58 54.09 143.34 53.17 143.34C52.33 143.34 51.85 142.83 51.85 142.10C51.85 141.35 52.45 140.96 53.44 140.96ZM63.34 139.97C63.34 138.64 62.38 137.56 61.05 137.56C59.96 137.56 59.40 138.10 59.10 138.60L59.10 138.20C59.10 137.90 58.84 137.64 58.54 137.64C58.21 137.64 57.95 137.90 57.95 138.20L57.95 143.51C57.95 143.82 58.21 144.08 58.52 144.08C58.84 144.08 59.10 143.82 59.10 143.51L59.10 140.49C59.10 139.42 59.67 138.59 60.68 138.59C61.61 138.59 62.18 139.32 62.18 140.36L62.18 143.51C62.18 143.82 62.44 144.08 62.76 144.08C63.08 144.08 63.34 143.82 63.34 143.51ZM70.84 138.20C70.84 137.90 70.58 137.64 70.28 137.64C69.95 137.64 69.69 137.90 69.69 138.20L69.69 138.63C69.18 137.96 68.45 137.56 67.62 137.56C65.99 137.56 64.84 138.79 64.84 140.81C64.84 142.86 66.01 144.05 67.62 144.05C68.48 144.05 69.22 143.60 69.69 142.96L69.69 143.79C69.69 145.13 68.72 145.60 67.75 145.60C67.06 145.60 66.51 145.46 66.03 145.05C65.94 144.99 65.85 144.96 65.73 144.96C65.47 144.96 65.24 145.18 65.24 145.46C65.24 145.59 65.29 145.70 65.37 145.78C65.98 146.37 66.86 146.55 67.75 146.55C69.28 146.55 70.84 145.91 70.84 143.75ZM69.69 140.83C69.69 142.12 68.84 143.03 67.80 143.03C66.63 143.03 66.03 142.10 66.03 140.81C66.03 139.50 66.63 138.59 67.80 138.59C68.84 138.59 69.69 139.49 69.69 140.78ZM78.51 140.65C78.51 140.40 78.45 140.13 78.40 139.92C78.03 138.51 76.99 137.56 75.47 137.56C73.65 137.56 72.34 139.03 72.34 140.85C72.34 142.83 73.70 144.16 75.57 144.16C76.50 144.16 78.11 143.68 78.11 142.97C78.11 142.53 77.67 142.43 77.38 142.57C76.93 142.91 76.22 143.22 75.69 143.22C74.42 143.22 73.64 142.35 73.55 141.27L77.91 141.27C78.24 141.27 78.51 140.96 78.51 140.65ZM73.55 140.41C73.60 139.54 74.21 138.50 75.46 138.50C76.80 138.50 77.37 139.57 77.39 140.41ZM85.64 135.81C85.64 135.51 85.38 135.25 85.08 135.25C84.74 135.25 84.48 135.51 84.48 135.81L84.48 138.63C83.97 137.96 83.36 137.56 82.41 137.56C80.77 137.56 79.62 138.85 79.62 140.87C79.62 142.92 80.79 144.16 82.41 144.16C83.39 144.16 84.00 143.73 84.48 143.10L84.48 143.51C84.48 143.82 84.74 144.08 85.05 144.08C85.38 144.08 85.64 143.82 85.64 143.51ZM84.48 140.91C84.48 142.21 83.83 143.13 82.71 143.13C81.54 143.13 80.81 142.18 80.81 140.87C80.81 139.55 81.54 138.59 82.71 138.59C83.83 138.59 84.48 139.54 84.48 140.83ZM96.76 135.91C96.76 135.58 96.52 135.33 96.20 135.33L91.73 135.33C91.27 135.33 90.89 135.71 90.89 136.17L90.89 143.44C90.89 143.79 91.17 144.08 91.52 144.08C91.89 144.08 92.17 143.79 92.17 143.44L92.17 140.15L96.11 140.15C96.43 140.15 96.67 139.89 96.67 139.59C96.67 139.25 96.43 139.01 96.11 139.01L92.17 139.01L92.17 136.47L96.20 136.47C96.52 136.47 96.76 136.21 96.76 135.91ZM98.65 135.39C98.25 135.39 97.91 135.73 97.91 136.15C97.91 136.55 98.25 136.89 98.65 136.89C99.06 136.89 99.39 136.55 99.39 136.15C99.39 135.73 99.06 135.39 98.65 135.39ZM99.23 138.20C99.23 137.90 98.97 137.64 98.67 137.64C98.34 137.64 98.08 137.90 98.08 138.20L98.08 143.51C98.08 143.82 98.34 144.08 98.65 144.08C98.97 144.08 99.23 143.82 99.23 143.51ZM102.26 135.81C102.26 135.51 102.00 135.25 101.70 135.25C101.37 135.25 101.11 135.51 101.11 135.81L101.11 143.51C101.11 143.82 101.37 144.08 101.68 144.08C102.00 144.08 102.26 143.82 102.26 143.51ZM109.93 140.65C109.93 140.40 109.87 140.13 109.82 139.92C109.45 138.51 108.41 137.56 106.89 137.56C105.07 137.56 103.76 139.03 103.76 140.85C103.76 142.83 105.12 144.16 106.99 144.16C107.92 144.16 109.53 143.68 109.53 142.97C109.53 142.53 109.09 142.43 108.80 142.57C108.35 142.91 107.64 143.22 107.11 143.22C105.84 143.22 105.06 142.35 104.97 141.27L109.33 141.27C109.66 141.27 109.93 140.96 109.93 140.65ZM104.97 140.41C105.02 139.54 105.63 138.50 106.88 138.50C108.22 138.50 108.79 139.57 108.81 140.41ZM116.02 142.10C115.90 139.89 112.30 140.50 112.17 139.37C112.12 138.87 112.66 138.49 113.46 138.49C114.05 138.49 114.61 138.68 115.02 138.97C115.09 139.03 115.18 139.06 115.29 139.06C115.52 139.06 115.74 138.87 115.74 138.60C115.74 138.50 115.70 138.40 115.63 138.32C115.13 137.84 114.34 137.56 113.44 137.56C111.91 137.56 110.99 138.29 111.05 139.41C111.17 141.52 114.76 140.87 114.89 142.26C114.94 142.83 114.42 143.23 113.52 143.23C112.87 143.23 112.22 142.97 111.75 142.63C111.66 142.57 111.57 142.54 111.45 142.54C111.18 142.54 110.95 142.75 110.95 143.03C110.95 143.16 111.00 143.26 111.09 143.34C111.66 143.91 112.61 144.16 113.47 144.16C115.13 144.16 116.08 143.30 116.02 142.10Z" fill="#22272e" /><path d="M175.35 141.15C175.35 139.40 174.03 138.34 172.56 138.34C171.77 138.34 171.07 138.66 170.65 139.07L170.65 136.95L174.05 136.95C174.48 136.95 174.84 136.59 174.84 136.15C174.84 135.69 174.48 135.33 174.05 135.33L169.85 135.33C169.28 135.33 168.81 135.80 168.81 136.37L168.81 139.70C168.81 140.20 169.17 140.58 169.74 140.58C170.00 140.58 170.25 140.50 170.46 140.36C170.93 140.05 171.38 139.94 171.91 139.94C172.90 139.94 173.47 140.46 173.47 141.23C173.47 141.93 172.89 142.52 171.86 142.52C171.24 142.52 170.64 142.35 170.13 142.04C169.98 141.95 169.81 141.89 169.65 141.89C169.20 141.89 168.77 142.25 168.77 142.73C168.77 142.86 168.81 142.99 168.87 143.10C169.28 143.78 170.75 144.16 171.88 144.16C173.97 144.16 175.35 143.00 175.35 141.15ZM183.02 143.17C183.02 142.74 182.65 142.38 182.22 142.38L179.40 142.38C181.65 140.74 182.87 139.45 182.87 137.97C182.87 136.24 181.41 135.20 179.56 135.20C178.47 135.20 177.01 135.67 176.59 136.33C176.52 136.45 176.48 136.58 176.48 136.71C176.48 137.18 176.85 137.54 177.28 137.54C177.48 137.54 177.65 137.49 177.82 137.37C178.31 137.03 178.91 136.84 179.60 136.84C180.31 136.84 181.00 137.21 181.00 137.97C181.00 138.98 179.96 139.93 176.72 142.32C176.48 142.50 176.33 142.80 176.33 143.10C176.33 143.62 176.75 144 177.21 144L182.22 144C182.65 144 183.02 143.64 183.02 143.17ZM190.66 141.63C190.77 140.07 189.71 139.53 189.71 139.53C189.71 139.53 190.67 139.03 190.57 137.55C190.47 136.11 189.32 135.20 187.29 135.20C186.10 135.20 185.16 135.55 184.45 136.12C184.27 136.26 184.17 136.47 184.17 136.68C184.17 137.14 184.58 137.46 184.98 137.46C185.14 137.46 185.29 137.42 185.42 137.33C185.93 137.01 186.50 136.84 187.10 136.84C188.01 136.84 188.71 137.04 188.71 137.73C188.71 138.45 188.28 138.79 187.41 138.79C186.79 138.79 186.51 139.14 186.51 139.59C186.51 140.05 186.79 140.41 187.46 140.41C188.35 140.41 188.85 140.72 188.85 141.41C188.85 142.06 188.27 142.52 187.22 142.52C186.62 142.52 185.93 142.31 185.36 141.97C185.21 141.88 185.06 141.84 184.90 141.84C184.47 141.84 184.06 142.19 184.06 142.66C184.06 142.79 184.10 142.91 184.16 143.01C184.56 143.69 186.03 144.16 187.28 144.16C189.36 144.16 190.56 143.26 190.66 141.63ZM194.03 143.36C194.03 142.52 193.47 142.04 192.86 142.04C192.31 142.04 191.84 142.50 191.84 143.08C191.84 143.64 192.23 144.01 192.73 144.01C192.82 144.01 192.94 143.99 192.97 143.97C192.90 144.31 192.61 144.72 192.27 144.99C192.18 145.07 192.14 145.17 192.14 145.27C192.14 145.53 192.42 145.69 192.64 145.69C192.77 145.69 192.88 145.65 192.97 145.56C193.63 144.97 194.03 144.19 194.03 143.36ZM201.79 141.18C201.79 139.33 200.40 138.36 198.84 138.36C197.76 138.36 196.95 138.89 196.62 139.48C196.60 139.41 196.60 139.36 196.60 139.29C196.60 137.92 197.50 136.84 198.77 136.84C199.22 136.84 199.58 136.91 199.90 137.08C200.02 137.15 200.15 137.18 200.28 137.18C200.68 137.18 201.13 136.86 201.13 136.37C201.13 136.24 201.09 136.12 201.04 136.02C200.71 135.45 199.62 135.20 198.77 135.20C196.21 135.20 194.73 137.06 194.73 139.68C194.73 142.13 195.84 144.16 198.47 144.16C200.45 144.16 201.79 142.87 201.79 141.18ZM199.92 141.24C199.92 141.89 199.44 142.52 198.44 142.52C197.62 142.52 197.01 141.96 197.01 141.15C197.01 140.37 197.63 139.81 198.44 139.81C199.27 139.81 199.92 140.37 199.92 141.24ZM209.69 141.18C209.69 139.33 208.30 138.36 206.74 138.36C205.66 138.36 204.86 138.89 204.52 139.48C204.51 139.41 204.51 139.36 204.51 139.29C204.51 137.92 205.40 136.84 206.68 136.84C207.12 136.84 207.48 136.91 207.81 137.08C207.93 137.15 208.06 137.18 208.19 137.18C208.59 137.18 209.03 136.86 209.03 136.37C209.03 136.24 208.99 136.12 208.94 136.02C208.61 135.45 207.52 135.20 206.68 135.20C204.12 135.20 202.63 137.06 202.63 139.68C202.63 142.13 203.74 144.16 206.38 144.16C208.35 144.16 209.69 142.87 209.69 141.18ZM207.82 141.24C207.82 141.89 207.34 142.52 206.34 142.52C205.52 142.52 204.91 141.96 204.91 141.15C204.91 140.37 205.53 139.81 206.34 139.81C207.17 139.81 207.82 140.37 207.82 141.24ZM217.55 141.15C217.55 139.40 216.23 138.34 214.76 138.34C213.97 138.34 213.27 138.66 212.85 139.07L212.85 136.95L216.25 136.95C216.67 136.95 217.04 136.59 217.04 136.15C217.04 135.69 216.67 135.33 216.25 135.33L212.05 135.33C211.47 135.33 211.01 135.80 211.01 136.37L211.01 139.70C211.01 140.20 211.37 140.58 211.94 140.58C212.20 140.58 212.45 140.50 212.66 140.36C213.13 140.05 213.58 139.94 214.11 139.94C215.10 139.94 215.67 140.46 215.67 141.23C215.67 141.93 215.09 142.52 214.06 142.52C213.44 142.52 212.84 142.35 212.33 142.04C212.18 141.95 212.01 141.89 211.85 141.89C211.40 141.89 210.97 142.25 210.97 142.73C210.97 142.86 211.01 142.99 211.07 143.10C211.47 143.78 212.94 144.16 214.07 144.16C216.17 144.16 217.55 143.00 217.55 141.15Z" fill="#627386" /></g><rect x="18" y="166" width="384" height="8" rx="4" fill="#f4faff" /><rect x="18.00" y="166" width="257.23" height="8" rx="4" fill="#00d559" /><rect x="275.23" y="166" width="126.77" height="8" rx="4" fill="#00a5fe" /></svg>