<svg xmlns="http://www.w3.org/2000/svg" width="420" height="184" viewBox="0 0 420 184" role="img"><rect x="0.5" y="0.5" width="419" height="183" rx="10" fill="#161b22" stroke="#30363d" /><path d="M30.72 33.60C30.72 32.83 30.10 32.21 29.37 32.21L28.69 32.21L28.69 24.95C28.69 23.59 27.37 22.97 26.03 23.19C25.08 23.19 24.14 23.70 23.63 24.49L18.73 32.24C18.53 32.54 18.44 32.90 18.44 33.25C18.44 34.24 19.17 34.96 20.05 34.96L25.57 34.96L25.57 36.59C25.57 37.43 26.27 38.13 27.11 38.13C27.99 38.13 28.69 37.43 28.69 36.59L28.69 34.96L29.37 34.96C30.10 34.96 30.72 34.35 30.72 33.60ZM21.61 32.21L25.57 26.10L25.57 32.21ZM43.83 33.23C43.83 30.10 41.47 28.45 38.83 28.45C37.01 28.45 35.64 29.35 35.07 30.34C35.05 30.23 35.05 30.15 35.05 30.04C35.05 27.70 36.57 25.88 38.72 25.88C39.47 25.88 40.09 26.01 40.64 26.30C40.84 26.41 41.06 26.45 41.28 26.45C41.96 26.45 42.71 25.92 42.71 25.09C42.71 24.87 42.64 24.67 42.55 24.49C42.00 23.52 40.15 23.11 38.72 23.11C34.39 23.11 31.88 26.25 31.88 30.70C31.88 34.83 33.75 38.26 38.22 38.26C41.56 38.26 43.83 36.09 43.83 33.23ZM40.66 33.34C40.66 34.44 39.85 35.49 38.15 35.49C36.77 35.49 35.73 34.55 35.73 33.18C35.73 31.86 36.79 30.92 38.15 30.92C39.56 30.92 40.66 31.86 40.66 33.34ZM49.24 36.92C49.24 35.49 48.29 34.68 47.26 34.68C46.34 34.68 45.54 35.47 45.54 36.44C45.54 37.38 46.20 38.02 47.04 38.02C47.19 38.02 47.39 37.98 47.46 37.96C47.33 38.53 46.84 39.21 46.27 39.67C46.12 39.80 46.05 39.98 46.05 40.16C46.05 40.60 46.51 40.86 46.89 40.86C47.11 40.86 47.30 40.79 47.46 40.64C48.56 39.65 49.24 38.33 49.24 36.92ZM62.35 36.59C62.35 35.87 61.74 35.25 61.01 35.25L56.24 35.25C60.04 32.48 62.11 30.30 62.11 27.79C62.11 24.87 59.62 23.11 56.50 23.11C54.65 23.11 52.19 23.90 51.48 25.02C51.35 25.22 51.29 25.44 51.29 25.66C51.29 26.45 51.92 27.07 52.65 27.07C52.98 27.07 53.27 26.98 53.55 26.78C54.39 26.21 55.40 25.88 56.57 25.88C57.78 25.88 58.94 26.52 58.94 27.79C58.94 29.51 57.18 31.11 51.70 35.16C51.29 35.47 51.04 35.98 51.04 36.48C51.04 37.36 51.75 38 52.52 38L61.01 38C61.74 38 62.35 37.38 62.35 36.59ZM64.00 28.12C64.00 31.25 66.36 32.90 69.00 32.90C70.82 32.90 72.19 31.99 72.76 31.00C72.78 31.11 72.78 31.20 72.78 31.31C72.78 33.64 71.26 35.47 69.11 35.47C68.36 35.47 67.74 35.34 67.19 35.05C66.99 34.94 66.77 34.90 66.55 34.90C65.87 34.90 65.12 35.43 65.12 36.26C65.12 36.48 65.19 36.68 65.28 36.86C65.83 37.82 67.68 38.24 69.11 38.24C73.44 38.24 75.95 35.10 75.95 30.65C75.95 26.52 74.08 23.08 69.61 23.08C66.27 23.08 64.00 25.26 64.00 28.12ZM67.17 28.01C67.17 26.91 67.98 25.86 69.68 25.86C71.06 25.86 72.10 26.80 72.10 28.17C72.10 29.49 71.04 30.43 69.68 30.43C68.27 30.43 67.17 29.49 67.17 28.01ZM89.61 30.67C89.61 26.89 87.72 23.11 83.54 23.11C79.34 23.11 77.47 26.89 77.47 30.67C77.47 34.46 79.34 38.26 83.54 38.26C87.72 38.26 89.61 34.46 89.61 30.67ZM86.42 30.67C86.42 33.38 85.63 35.49 83.54 35.49C81.43 35.49 80.63 33.38 80.63 30.67C80.63 27.97 81.43 25.88 83.54 25.88C85.63 25.88 86.42 27.97 86.42 30.67ZM104.55 23.08C100.15 23.08 96.74 26.16 96.74 30.67C96.74 35.18 100.15 38.26 104.55 38.26C107.08 38.26 108.77 37.16 109.87 35.82C110.09 35.58 110.18 35.27 110.18 34.96C110.18 34.22 109.54 33.60 108.75 33.60C108.31 33.60 107.87 33.78 107.56 34.11C106.75 35.01 105.65 35.49 104.55 35.49C101.89 35.49 99.95 33.45 99.95 30.67C99.95 27.90 101.89 25.86 104.55 25.86C105.65 25.86 106.73 26.38 107.56 27.26C107.87 27.59 108.29 27.77 108.71 27.77C109.52 27.77 110.20 27.15 110.20 26.36C110.20 26.08 110.09 25.75 109.89 25.50C108.77 24.16 107.08 23.08 104.55 23.08ZM123.05 32.68C123.05 29.66 120.94 27.11 117.42 27.11C113.92 27.11 111.81 29.66 111.81 32.68C111.81 35.71 113.92 38.26 117.42 38.26C120.94 38.26 123.05 35.71 123.05 32.68ZM120.15 32.68C120.15 34.35 119.16 35.78 117.42 35.78C115.68 35.78 114.71 34.35 114.71 32.68C114.71 31.03 115.68 29.60 117.42 29.60C119.16 29.60 120.15 31.03 120.15 32.68ZM141.11 31.20C141.11 29.02 139.59 27.11 137.20 27.11C135.35 27.11 134.29 28.19 133.90 28.94C133.50 28.17 132.51 27.11 130.73 27.11C129.10 27.11 128.35 27.70 127.91 28.28L127.91 28.25C127.91 27.95 127.52 27.24 126.55 27.24C125.73 27.24 125.12 27.86 125.12 28.61L125.12 36.75C125.12 37.52 125.73 38.13 126.50 38.13C127.30 38.13 127.91 37.52 127.91 36.75L127.91 31.73C127.91 30.70 128.70 29.60 129.89 29.60C131.04 29.60 131.70 30.74 131.70 31.73L131.70 36.75C131.70 37.52 132.31 38.13 133.08 38.13C133.90 38.13 134.51 37.52 134.51 36.75L134.51 31.93C134.51 30.70 135.28 29.60 136.49 29.60C137.64 29.60 138.30 30.74 138.30 31.73L138.30 36.75C138.30 37.52 138.91 38.13 139.68 38.13C140.50 38.13 141.11 37.52 141.11 36.75ZM159.86 31.20C159.86 29.02 158.34 27.11 155.94 27.11C154.09 27.11 153.04 28.19 152.64 28.94C152.24 28.17 151.25 27.11 149.47 27.11C147.84 27.11 147.10 27.70 146.66 28.28L146.66 28.25C146.66 27.95 146.26 27.24 145.29 27.24C144.48 27.24 143.86 27.86 143.86 28.61L143.86 36.75C143.86 37.52 144.48 38.13 145.25 38.13C146.04 38.13 146.66 37.52 146.66 36.75L146.66 31.73C146.66 30.70 147.45 29.60 148.64 29.60C149.78 29.60 150.44 30.74 150.44 31.73L150.44 36.75C150.44 37.52 151.06 38.13 151.83 38.13C152.64 38.13 153.26 37.52 153.26 36.75L153.26 31.93C153.26 30.70 154.03 29.60 155.24 29.60C156.38 29.60 157.04 30.74 157.04 31.73L157.04 36.75C157.04 37.52 157.66 38.13 158.43 38.13C159.24 38.13 159.86 37.52 159.86 36.75ZM163.99 22.91C163.09 22.91 162.32 23.63 162.32 24.56C162.32 25.48 163.09 26.23 163.99 26.23C164.92 26.23 165.66 25.48 165.66 24.56C165.66 23.63 164.92 22.91 163.99 22.91ZM165.40 28.61C165.40 27.86 164.78 27.24 164.04 27.24C163.22 27.24 162.61 27.86 162.61 28.61L162.61 36.75C162.61 37.52 163.22 38.13 163.99 38.13C164.78 38.13 165.40 37.52 165.40 36.75ZM173.98 36.99C173.98 36.31 173.54 35.78 172.75 35.78L172.51 35.78C172.07 35.78 171.54 35.45 171.54 34.61L171.54 29.82L172.64 29.82C173.28 29.82 173.83 29.27 173.83 28.61C173.83 27.92 173.28 27.37 172.64 27.37L171.54 27.37L171.54 25.72C171.54 24.95 170.92 24.34 170.15 24.34C169.34 24.34 168.72 24.95 168.72 25.72L168.72 27.37L168.04 27.37C167.38 27.37 166.83 27.92 166.83 28.56C166.83 29.27 167.38 29.82 168.04 29.82L168.72 29.82L168.72 35.36C168.72 37.25 169.78 38.26 171.74 38.26C173.56 38.26 173.98 37.69 173.98 36.99ZM184.03 34.85C184.03 30.56 177.74 31.88 177.74 30.30C177.74 29.71 178.40 29.24 179.41 29.24C180.27 29.24 181.13 29.49 181.81 29.88C181.97 29.97 182.16 30.01 182.34 30.01C182.91 30.01 183.44 29.55 183.44 28.96C183.44 28.76 183.37 28.56 183.26 28.41C182.67 27.55 180.78 27.11 179.39 27.11C176.60 27.11 175.04 28.67 175.04 30.45C175.04 34.63 181.35 33.20 181.35 34.96C181.35 35.62 180.78 36.11 179.57 36.11C178.64 36.11 177.54 35.73 176.71 35.25C176.53 35.14 176.33 35.10 176.14 35.10C175.54 35.10 174.97 35.60 174.97 36.26C174.97 36.48 175.04 36.68 175.17 36.86C175.83 37.80 178.05 38.26 179.44 38.26C182.38 38.26 184.03 36.79 184.03 34.85Z" fill="#e6edf3" /><path d="M20.26 49.88C20.26 49.54 19.98 49.25 19.64 49.25C19.26 49.25 18.98 49.54 18.98 49.88L18.98 57.44C18.98 57.79 19.26 58.08 19.61 58.08C19.98 58.08 20.26 57.79 20.26 57.44ZM27.55 53.97C27.55 52.64 26.59 51.56 25.27 51.56C24.18 51.56 23.62 52.10 23.32 52.60L23.32 52.20C23.32 51.90 23.06 51.64 22.76 51.64C22.42 51.64 22.16 51.90 22.16 52.20L22.16 57.51C22.16 57.82 22.42 58.08 22.73 58.08C23.06 58.08 23.32 57.82 23.32 57.51L23.32 54.49C23.32 53.42 23.89 52.59 24.89 52.59C25.83 52.59 26.40 53.32 26.40 54.36L26.40 57.51C26.40 57.82 26.66 58.08 26.97 58.08C27.30 58.08 27.55 57.82 27.55 57.51ZM38.97 49.91C38.97 49.58 38.72 49.33 38.41 49.33L32.70 49.33C32.39 49.33 32.14 49.58 32.14 49.89C32.14 50.21 32.39 50.47 32.70 50.47L34.91 50.47L34.91 57.44C34.91 57.79 35.20 58.08 35.55 58.08C35.91 58.08 36.20 57.79 36.20 57.44L36.20 50.47L38.41 50.47C38.72 50.47 38.97 50.21 38.97 49.91ZM44.74 54.85C44.74 53.05 43.53 51.56 41.57 51.56C39.62 51.56 38.41 53.05 38.41 54.85C38.41 56.66 39.62 58.16 41.57 58.16C43.53 58.16 44.74 56.66 44.74 54.85ZM43.53 54.85C43.53 56.06 42.83 57.13 41.57 57.13C40.32 57.13 39.61 56.06 39.61 54.85C39.61 53.66 40.32 52.59 41.57 52.59C42.83 52.59 43.53 53.66 43.53 54.85ZM49.16 57.55C49.16 57.27 48.95 57.06 48.67 57.06C48.54 57.06 48.38 57.13 48.24 57.13C47.86 57.13 47.63 56.83 47.63 56.35L47.63 52.73L48.48 52.73C48.76 52.73 48.98 52.51 48.98 52.24C48.98 51.94 48.76 51.72 48.48 51.72L47.63 51.72L47.63 50.49C47.63 50.19 47.37 49.93 47.05 49.93C46.72 49.93 46.46 50.19 46.46 50.49L46.46 51.72L45.85 51.72C45.56 51.72 45.34 51.94 45.34 52.22C45.34 52.51 45.56 52.73 45.85 52.73L46.46 52.73L46.46 56.62C46.46 57.61 46.98 58.16 47.96 58.16C48.65 58.16 49.16 57.96 49.16 57.55ZM55.26 53.75C55.26 52.15 54.09 51.56 52.74 51.56C51.89 51.56 50.94 51.84 50.34 52.44C50.27 52.53 50.23 52.63 50.23 52.73C50.23 53.01 50.47 53.19 50.71 53.19C50.80 53.19 50.90 53.15 50.99 53.09C51.46 52.72 51.98 52.54 52.57 52.54C53.45 52.54 54.10 53.01 54.10 53.80L54.10 54.15L52.29 54.15C50.99 54.15 49.85 54.66 49.85 56.08C49.85 57.45 50.99 58.16 52.03 58.16C53.01 58.16 53.59 57.86 54.10 57.30L54.10 57.51C54.10 57.88 54.40 58.08 54.63 58.08L54.67 58.08C55.00 58.08 55.26 57.82 55.26 57.51ZM54.10 54.96L54.10 55.84C54.10 56.58 53.26 57.34 52.35 57.34C51.50 57.34 51.02 56.83 51.02 56.10C51.02 55.35 51.62 54.96 52.61 54.96ZM58.27 49.81C58.27 49.51 58.01 49.25 57.71 49.25C57.38 49.25 57.12 49.51 57.12 49.81L57.12 57.51C57.12 57.82 57.38 58.08 57.69 58.08C58.01 58.08 58.27 57.82 58.27 57.51Z" fill="#9aa7b4" /><line x1="18" y1="76" x2="48" y2="76" stroke="#9aa7b4" stroke-opacity="0.4" /><g aria-label="Additions: 27,676,551"><circle cx="22" cy="96" r="4" fill="#00d559" /><path d="M42.28 99.39C42.28 99.31 42.27 99.23 42.23 99.14L39.36 91.94C39.19 91.51 38.76 91.24 38.30 91.25C37.85 91.25 37.43 91.52 37.28 91.94L34.40 99.14C34.38 99.23 34.36 99.31 34.36 99.39C34.36 99.74 34.65 100.08 35.05 100.08C35.33 100.08 35.57 99.92 35.68 99.66L36.25 98.19L40.40 98.19L40.97 99.66C41.07 99.92 41.32 100.08 41.59 100.08C42.01 100.08 42.28 99.71 42.28 99.39ZM38.32 92.64L40.03 97.06L36.61 97.06ZM49.22 91.81C49.22 91.51 48.96 91.25 48.66 91.25C48.33 91.25 48.07 91.51 48.07 91.81L48.07 94.63C47.56 93.95 46.95 93.56 46.00 93.56C44.36 93.56 43.20 94.85 43.20 96.87C43.20 98.92 44.37 100.16 46.00 100.16C46.97 100.16 47.59 99.73 48.07 99.10L48.07 99.51C48.07 99.82 48.33 100.08 48.64 100.08C48.96 100.08 49.22 99.82 49.22 99.51ZM48.07 96.91C48.07 98.21 47.42 99.13 46.30 99.13C45.13 99.13 44.40 98.18 44.40 96.87C44.40 95.55 45.13 94.59 46.30 94.59C47.42 94.59 48.07 95.54 48.07 96.83ZM56.74 91.81C56.74 91.51 56.48 91.25 56.18 91.25C55.84 91.25 55.58 91.51 55.58 91.81L55.58 94.63C55.07 93.95 54.46 93.56 53.51 93.56C51.88 93.56 50.72 94.85 50.72 96.87C50.72 98.92 51.89 100.16 53.51 100.16C54.49 100.16 55.10 99.73 55.58 99.10L55.58 99.51C55.58 99.82 55.84 100.08 56.15 100.08C56.48 100.08 56.74 99.82 56.74 99.51ZM55.58 96.91C55.58 98.21 54.93 99.13 53.81 99.13C52.64 99.13 51.91 98.18 51.91 96.87C51.91 95.55 52.64 94.59 53.81 94.59C54.93 94.59 55.58 95.54 55.58 96.83ZM59.18 91.39C58.78 91.39 58.44 91.73 58.44 92.15C58.44 92.55 58.78 92.89 59.18 92.89C59.60 92.89 59.92 92.55 59.92 92.15C59.92 91.73 59.60 91.39 59.18 91.39ZM59.77 94.20C59.77 93.90 59.51 93.64 59.21 93.64C58.87 93.64 58.61 93.90 58.61 94.20L58.61 99.51C58.61 99.82 58.87 100.08 59.18 100.08C59.51 100.08 59.77 99.82 59.77 99.51ZM64.56 99.55C64.56 99.27 64.36 99.06 64.07 99.06C63.94 99.06 63.78 99.13 63.64 99.13C63.26 99.13 63.03 98.83 63.03 98.35L63.03 94.73L63.89 94.73C64.16 94.73 64.38 94.51 64.38 94.24C64.38 93.94 64.16 93.72 63.89 93.72L63.03 93.72L63.03 92.49C63.03 92.19 62.77 91.93 62.46 91.93C62.12 91.93 61.86 92.19 61.86 92.49L61.86 93.72L61.25 93.72C60.96 93.72 60.74 93.94 60.74 94.22C60.74 94.51 60.96 94.73 61.25 94.73L61.86 94.73L61.86 98.62C61.86 99.61 62.38 100.16 63.37 100.16C64.06 100.16 64.56 99.96 64.56 99.55ZM66.19 91.39C65.79 91.39 65.45 91.73 65.45 92.15C65.45 92.55 65.79 92.89 66.19 92.89C66.60 92.89 66.93 92.55 66.93 92.15C66.93 91.73 66.60 91.39 66.19 91.39ZM66.77 94.20C66.77 93.90 66.51 93.64 66.21 93.64C65.88 93.64 65.62 93.90 65.62 94.20L65.62 99.51C65.62 99.82 65.88 100.08 66.19 100.08C66.51 100.08 66.77 99.82 66.77 99.51ZM74.60 96.85C74.60 95.05 73.39 93.56 71.43 93.56C69.48 93.56 68.27 95.05 68.27 96.85C68.27 98.66 69.48 100.16 71.43 100.16C73.39 100.16 74.60 98.66 74.60 96.85ZM73.39 96.85C73.39 98.06 72.69 99.13 71.43 99.13C70.18 99.13 69.46 98.06 69.46 96.85C69.46 95.66 70.18 94.59 71.43 94.59C72.69 94.59 73.39 95.66 73.39 96.85ZM81.49 95.97C81.49 94.64 80.53 93.56 79.20 93.56C78.11 93.56 77.55 94.10 77.25 94.61L77.25 94.20C77.25 93.90 76.99 93.64 76.69 93.64C76.35 93.64 76.09 93.90 76.09 94.20L76.09 99.51C76.09 99.82 76.35 100.08 76.67 100.08C76.99 100.08 77.25 99.82 77.25 99.51L77.25 96.49C77.25 95.42 77.82 94.59 78.82 94.59C79.76 94.59 80.33 95.32 80.33 96.36L80.33 99.51C80.33 99.82 80.59 100.08 80.90 100.08C81.23 100.08 81.49 99.82 81.49 99.51ZM87.96 98.10C87.85 95.89 84.24 96.50 84.11 95.37C84.06 94.86 84.61 94.49 85.40 94.49C86 94.49 86.56 94.68 86.96 94.97C87.04 95.03 87.13 95.06 87.23 95.06C87.47 95.06 87.69 94.86 87.69 94.61C87.69 94.50 87.65 94.40 87.57 94.32C87.08 93.84 86.29 93.56 85.39 93.56C83.86 93.56 82.93 94.29 83.00 95.41C83.11 97.52 86.70 96.87 86.83 98.26C86.88 98.83 86.36 99.23 85.47 99.23C84.82 99.23 84.17 98.97 83.70 98.64C83.61 98.57 83.52 98.54 83.40 98.54C83.13 98.54 82.89 98.75 82.89 99.03C82.89 99.16 82.94 99.26 83.04 99.34C83.61 99.91 84.56 100.16 85.41 100.16C87.08 100.16 88.03 99.30 87.96 98.10Z" fill="#e6edf3" /><path d="M161.12 99.17C161.12 98.74 160.76 98.38 160.33 98.38L157.51 98.38C159.76 96.74 160.98 95.45 160.98 93.97C160.98 92.24 159.51 91.20 157.67 91.20C156.57 91.20 155.12 91.67 154.70 92.33C154.62 92.45 154.59 92.58 154.59 92.71C154.59 93.17 154.96 93.54 155.39 93.54C155.59 93.54 155.76 93.49 155.92 93.37C156.42 93.03 157.02 92.84 157.71 92.84C158.42 92.84 159.11 93.21 159.11 93.97C159.11 94.98 158.07 95.93 154.83 98.32C154.59 98.50 154.44 98.80 154.44 99.10C154.44 99.62 154.86 100 155.31 100L160.33 100C160.76 100 161.12 99.64 161.12 99.17ZM168.61 92.27C168.61 91.72 168.17 91.33 167.72 91.33L162.75 91.33C162.31 91.33 161.94 91.69 161.94 92.12C161.94 92.59 162.31 92.95 162.75 92.95L166.39 92.95L163.80 98.82C163.75 98.93 163.72 99.05 163.72 99.17C163.72 99.64 164.10 100.08 164.65 100.08C165.02 100.08 165.38 99.86 165.52 99.52L168.53 92.63C168.59 92.53 168.61 92.39 168.61 92.27ZM170.37 99.36C170.37 98.52 169.81 98.04 169.20 98.04C168.65 98.04 168.18 98.50 168.18 99.08C168.18 99.64 168.57 100.01 169.07 100.01C169.16 100.01 169.28 99.99 169.31 99.97C169.24 100.31 168.95 100.72 168.61 100.99C168.52 101.07 168.48 101.17 168.48 101.27C168.48 101.53 168.76 101.69 168.98 101.69C169.11 101.69 169.22 101.65 169.31 101.56C169.96 100.97 170.37 100.19 170.37 99.36ZM178.13 97.18C178.13 95.33 176.74 94.36 175.18 94.36C174.10 94.36 173.29 94.89 172.95 95.48C172.94 95.41 172.94 95.36 172.94 95.29C172.94 93.92 173.84 92.84 175.11 92.84C175.55 92.84 175.92 92.91 176.24 93.08C176.36 93.15 176.49 93.17 176.62 93.17C177.02 93.17 177.47 92.86 177.47 92.37C177.47 92.24 177.43 92.12 177.38 92.02C177.05 91.45 175.96 91.20 175.11 91.20C172.55 91.20 171.07 93.06 171.07 95.68C171.07 98.13 172.17 100.16 174.81 100.16C176.79 100.16 178.13 98.87 178.13 97.18ZM176.26 97.24C176.26 97.89 175.78 98.52 174.77 98.52C173.96 98.52 173.34 97.96 173.34 97.15C173.34 96.37 173.97 95.81 174.77 95.81C175.61 95.81 176.26 96.37 176.26 97.24ZM185.43 92.27C185.43 91.72 184.99 91.33 184.54 91.33L179.57 91.33C179.13 91.33 178.77 91.69 178.77 92.12C178.77 92.59 179.13 92.95 179.57 92.95L183.21 92.95L180.62 98.82C180.57 98.93 180.55 99.05 180.55 99.17C180.55 99.64 180.92 100.08 181.47 100.08C181.85 100.08 182.20 99.86 182.34 99.52L185.36 92.63C185.41 92.53 185.43 92.39 185.43 92.27ZM193.12 97.18C193.12 95.33 191.73 94.36 190.17 94.36C189.09 94.36 188.28 94.89 187.94 95.48C187.93 95.41 187.93 95.36 187.93 95.29C187.93 93.92 188.83 92.84 190.10 92.84C190.54 92.84 190.91 92.91 191.23 93.08C191.35 93.15 191.48 93.17 191.61 93.17C192.01 93.17 192.45 92.86 192.45 92.37C192.45 92.24 192.42 92.12 192.36 92.02C192.04 91.45 190.95 91.20 190.10 91.20C187.54 91.20 186.06 93.06 186.06 95.68C186.06 98.13 187.16 100.16 189.80 100.16C191.78 100.16 193.12 98.87 193.12 97.18ZM191.25 97.24C191.25 97.89 190.76 98.52 189.76 98.52C188.94 98.52 188.33 97.96 188.33 97.15C188.33 96.37 188.96 95.81 189.76 95.81C190.60 95.81 191.25 96.37 191.25 97.24ZM196.32 99.36C196.32 98.52 195.76 98.04 195.15 98.04C194.60 98.04 194.13 98.50 194.13 99.08C194.13 99.64 194.52 100.01 195.02 100.01C195.11 100.01 195.22 99.99 195.26 99.97C195.18 100.31 194.90 100.72 194.56 100.99C194.47 101.07 194.43 101.17 194.43 101.27C194.43 101.53 194.70 101.69 194.92 101.69C195.05 101.69 195.17 101.65 195.26 101.56C195.91 100.97 196.32 100.19 196.32 99.36ZM204.30 97.15C204.30 95.40 202.98 94.34 201.52 94.34C200.72 94.34 200.02 94.66 199.60 95.07L199.60 92.95L203.00 92.95C203.43 92.95 203.79 92.59 203.79 92.15C203.79 91.69 203.43 91.33 203.00 91.33L198.80 91.33C198.23 91.33 197.76 91.80 197.76 92.37L197.76 95.70C197.76 96.20 198.12 96.58 198.69 96.58C198.95 96.58 199.20 96.50 199.41 96.36C199.88 96.05 200.33 95.94 200.87 95.94C201.85 95.94 202.43 96.46 202.43 97.23C202.43 97.93 201.84 98.52 200.81 98.52C200.19 98.52 199.59 98.35 199.08 98.04C198.93 97.95 198.76 97.89 198.60 97.89C198.15 97.89 197.72 98.25 197.72 98.73C197.72 98.86 197.76 98.99 197.82 99.10C198.23 99.78 199.70 100.16 200.83 100.16C202.92 100.16 204.30 99.00 204.30 97.15ZM212.20 97.15C212.20 95.40 210.89 94.34 209.42 94.34C208.63 94.34 207.92 94.66 207.51 95.07L207.51 92.95L210.90 92.95C211.33 92.95 211.69 92.59 211.69 92.15C211.69 91.69 211.33 91.33 210.90 91.33L206.70 91.33C206.13 91.33 205.66 91.80 205.66 92.37L205.66 95.70C205.66 96.20 206.03 96.58 206.60 96.58C206.86 96.58 207.11 96.50 207.31 96.36C207.78 96.05 208.24 95.94 208.77 95.94C209.76 95.94 210.33 96.46 210.33 97.23C210.33 97.93 209.74 98.52 208.72 98.52C208.09 98.52 207.50 98.35 206.99 98.04C206.83 97.95 206.66 97.89 206.51 97.89C206.05 97.89 205.62 98.25 205.62 98.73C205.62 98.86 205.66 98.99 205.73 99.10C206.13 99.78 207.60 100.16 208.73 100.16C210.82 100.16 212.20 99.00 212.20 97.15ZM217.14 92.32C217.14 91.73 216.65 91.26 216.06 91.26C215.76 91.26 215.48 91.38 215.28 91.58L213.28 93.60C213.12 93.76 213.05 93.95 213.05 94.15C213.05 94.58 213.41 94.92 213.81 94.92C214.00 94.92 214.18 94.85 214.32 94.71L215.30 93.71L215.30 99.17C215.30 99.66 215.71 100.08 216.21 100.08C216.73 100.08 217.14 99.66 217.14 99.17Z" fill="#9aa7b4" /></g><g aria-label="Deletions: 12,806,167"><circle cx="22" cy="118" r="4" fill="#00a5fe" /><path d="M42.54 117.67C42.54 115.17 40.76 113.33 38.06 113.33L35.82 113.33C35.35 113.33 34.98 113.71 34.98 114.17L34.98 121.16C34.98 121.62 35.35 122 35.82 122L38.06 122C40.76 122 42.54 120.18 42.54 117.67ZM41.23 117.67C41.23 119.43 40.06 120.86 38.06 120.86L36.26 120.86L36.26 114.47L38.06 114.47C40.11 114.47 41.23 115.89 41.23 117.67ZM49.90 118.65C49.90 118.40 49.83 118.13 49.78 117.92C49.42 116.51 48.38 115.56 46.86 115.56C45.04 115.56 43.72 117.03 43.72 118.85C43.72 120.83 45.09 122.16 46.96 122.16C47.88 122.16 49.50 121.67 49.50 120.97C49.50 120.53 49.05 120.43 48.77 120.57C48.31 120.91 47.61 121.22 47.08 121.22C45.80 121.22 45.02 120.35 44.93 119.27L49.30 119.27C49.63 119.27 49.90 118.96 49.90 118.65ZM44.93 118.41C44.98 117.54 45.60 116.50 46.84 116.50C48.18 116.50 48.76 117.57 48.78 118.41ZM52.54 113.81C52.54 113.51 52.28 113.25 51.98 113.25C51.64 113.25 51.38 113.51 51.38 113.81L51.38 121.51C51.38 121.82 51.64 122.08 51.95 122.08C52.28 122.08 52.54 121.82 52.54 121.51ZM60.21 118.65C60.21 118.40 60.14 118.13 60.09 117.92C59.73 116.51 58.69 115.56 57.17 115.56C55.35 115.56 54.03 117.03 54.03 118.85C54.03 120.83 55.40 122.16 57.27 122.16C58.19 122.16 59.81 121.67 59.81 120.97C59.81 120.53 59.36 120.43 59.08 120.57C58.62 120.91 57.92 121.22 57.39 121.22C56.11 121.22 55.33 120.35 55.24 119.27L59.61 119.27C59.94 119.27 60.21 118.96 60.21 118.65ZM55.24 118.41C55.29 117.54 55.91 116.50 57.15 116.50C58.49 116.50 59.06 117.57 59.09 118.41ZM64.62 121.55C64.62 121.27 64.41 121.06 64.12 121.06C63.99 121.06 63.84 121.13 63.69 121.13C63.32 121.13 63.08 120.83 63.08 120.35L63.08 116.73L63.94 116.73C64.21 116.73 64.43 116.51 64.43 116.24C64.43 115.94 64.21 115.72 63.94 115.72L63.08 115.72L63.08 114.49C63.08 114.19 62.82 113.93 62.51 113.93C62.17 113.93 61.91 114.19 61.91 114.49L61.91 115.72L61.30 115.72C61.01 115.72 60.79 115.94 60.79 116.22C60.79 116.51 61.01 116.73 61.30 116.73L61.91 116.73L61.91 120.62C61.91 121.61 62.43 122.16 63.42 122.16C64.11 122.16 64.62 121.96 64.62 121.55ZM66.24 113.39C65.84 113.39 65.50 113.73 65.50 114.15C65.50 114.55 65.84 114.89 66.24 114.89C66.66 114.89 66.98 114.55 66.98 114.15C66.98 113.73 66.66 113.39 66.24 113.39ZM66.83 116.20C66.83 115.90 66.56 115.64 66.27 115.64C65.93 115.64 65.67 115.90 65.67 116.20L65.67 121.51C65.67 121.82 65.93 122.08 66.24 122.08C66.56 122.08 66.83 121.82 66.83 121.51ZM74.65 118.85C74.65 117.05 73.44 115.56 71.48 115.56C69.53 115.56 68.32 117.05 68.32 118.85C68.32 120.66 69.53 122.16 71.48 122.16C73.44 122.16 74.65 120.66 74.65 118.85ZM73.44 118.85C73.44 120.06 72.74 121.13 71.48 121.13C70.23 121.13 69.52 120.06 69.52 118.85C69.52 117.66 70.23 116.59 71.48 116.59C72.74 116.59 73.44 117.66 73.44 118.85ZM81.54 117.97C81.54 116.64 80.58 115.56 79.25 115.56C78.16 115.56 77.60 116.10 77.30 116.61L77.30 116.20C77.30 115.90 77.04 115.64 76.74 115.64C76.41 115.64 76.15 115.90 76.15 116.20L76.15 121.51C76.15 121.82 76.41 122.08 76.72 122.08C77.04 122.08 77.30 121.82 77.30 121.51L77.30 118.49C77.30 117.42 77.88 116.59 78.88 116.59C79.81 116.59 80.38 117.32 80.38 118.36L80.38 121.51C80.38 121.82 80.64 122.08 80.96 122.08C81.28 122.08 81.54 121.82 81.54 121.51ZM88.01 120.10C87.90 117.89 84.30 118.50 84.17 117.37C84.11 116.86 84.66 116.49 85.45 116.49C86.05 116.49 86.61 116.68 87.01 116.97C87.09 117.03 87.18 117.06 87.29 117.06C87.52 117.06 87.74 116.86 87.74 116.61C87.74 116.50 87.70 116.40 87.62 116.32C87.13 115.84 86.34 115.56 85.44 115.56C83.91 115.56 82.98 116.29 83.05 117.41C83.17 119.52 86.75 118.87 86.88 120.26C86.94 120.83 86.42 121.23 85.52 121.23C84.87 121.23 84.22 120.97 83.75 120.64C83.66 120.57 83.57 120.54 83.45 120.54C83.18 120.54 82.94 120.75 82.94 121.03C82.94 121.16 83.00 121.26 83.09 121.34C83.66 121.91 84.61 122.16 85.47 122.16C87.13 122.16 88.08 121.30 88.01 120.10Z" fill="#e6edf3" /><path d="M159.80 114.32C159.80 113.73 159.31 113.26 158.72 113.26C158.42 113.26 158.13 113.38 157.94 113.58L155.94 115.60C155.78 115.76 155.70 115.95 155.70 116.15C155.70 116.58 156.07 116.92 156.47 116.92C156.65 116.92 156.83 116.85 156.98 116.71L157.95 115.71L157.95 121.17C157.95 121.66 158.37 122.08 158.86 122.08C159.38 122.08 159.80 121.66 159.80 121.17ZM167.87 121.17C167.87 120.74 167.51 120.38 167.08 120.38L164.26 120.38C166.51 118.74 167.73 117.45 167.73 115.97C167.73 114.24 166.26 113.20 164.41 113.20C163.32 113.20 161.87 113.67 161.45 114.33C161.37 114.45 161.33 114.58 161.33 114.71C161.33 115.17 161.71 115.54 162.14 115.54C162.33 115.54 162.50 115.49 162.67 115.37C163.17 115.03 163.76 114.84 164.45 114.84C165.17 114.84 165.86 115.21 165.86 115.97C165.86 116.98 164.82 117.93 161.58 120.32C161.33 120.50 161.19 120.80 161.19 121.10C161.19 121.62 161.61 122 162.06 122L167.08 122C167.51 122 167.87 121.64 167.87 121.17ZM171.25 121.36C171.25 120.52 170.69 120.04 170.08 120.04C169.54 120.04 169.07 120.50 169.07 121.08C169.07 121.64 169.46 122.01 169.95 122.01C170.04 122.01 170.16 121.99 170.20 121.97C170.12 122.31 169.83 122.72 169.50 122.99C169.41 123.07 169.37 123.17 169.37 123.27C169.37 123.53 169.64 123.69 169.86 123.69C169.99 123.69 170.11 123.65 170.20 123.56C170.85 122.97 171.25 122.19 171.25 121.36ZM179.21 119.62C179.21 118.44 178.51 117.76 177.99 117.53C178.43 117.32 179.06 116.83 179.06 115.49C179.06 113.99 177.45 113.20 175.72 113.20C173.98 113.20 172.38 113.99 172.38 115.49C172.38 116.83 173.01 117.32 173.45 117.53C172.93 117.76 172.24 118.44 172.24 119.62C172.24 121.25 173.90 122.16 175.72 122.16C177.54 122.16 179.21 121.23 179.21 119.62ZM177.18 115.77C177.18 116.42 176.52 116.80 175.72 116.80C174.93 116.80 174.25 116.42 174.25 115.77C174.25 115.15 174.87 114.78 175.72 114.78C176.57 114.78 177.18 115.15 177.18 115.77ZM177.34 119.52C177.34 120.15 176.61 120.57 175.72 120.57C174.81 120.57 174.11 120.15 174.11 119.52C174.11 118.79 174.92 118.36 175.72 118.36C176.52 118.36 177.34 118.79 177.34 119.52ZM187.28 117.67C187.28 115.44 186.16 113.20 183.69 113.20C181.21 113.20 180.11 115.44 180.11 117.67C180.11 119.91 181.21 122.16 183.69 122.16C186.16 122.16 187.28 119.91 187.28 117.67ZM185.40 117.67C185.40 119.27 184.93 120.52 183.69 120.52C182.45 120.52 181.98 119.27 181.98 117.67C181.98 116.07 182.45 114.84 183.69 114.84C184.93 114.84 185.40 116.07 185.40 117.67ZM195.22 119.18C195.22 117.33 193.83 116.36 192.27 116.36C191.19 116.36 190.39 116.89 190.05 117.48C190.04 117.41 190.04 117.36 190.04 117.29C190.04 115.92 190.93 114.84 192.21 114.84C192.65 114.84 193.01 114.91 193.34 115.08C193.46 115.15 193.59 115.17 193.72 115.17C194.12 115.17 194.56 114.86 194.56 114.37C194.56 114.24 194.52 114.12 194.47 114.02C194.15 113.45 193.05 113.20 192.21 113.20C189.65 113.20 188.17 115.06 188.17 117.68C188.17 120.13 189.27 122.16 191.91 122.16C193.89 122.16 195.22 120.87 195.22 119.18ZM193.35 119.24C193.35 119.89 192.87 120.52 191.87 120.52C191.05 120.52 190.44 119.96 190.44 119.15C190.44 118.37 191.06 117.81 191.87 117.81C192.70 117.81 193.35 118.37 193.35 119.24ZM198.42 121.36C198.42 120.52 197.86 120.04 197.25 120.04C196.71 120.04 196.24 120.50 196.24 121.08C196.24 121.64 196.63 122.01 197.12 122.01C197.21 122.01 197.33 121.99 197.37 121.97C197.29 122.31 197.00 122.72 196.67 122.99C196.58 123.07 196.54 123.17 196.54 123.27C196.54 123.53 196.81 123.69 197.03 123.69C197.16 123.69 197.28 123.65 197.37 123.56C198.02 122.97 198.42 122.19 198.42 121.36ZM202.15 114.32C202.15 113.73 201.66 113.26 201.07 113.26C200.78 113.26 200.49 113.38 200.29 113.58L198.29 115.60C198.14 115.76 198.06 115.95 198.06 116.15C198.06 116.58 198.42 116.92 198.83 116.92C199.01 116.92 199.19 116.85 199.33 116.71L200.31 115.71L200.31 121.17C200.31 121.66 200.72 122.08 201.22 122.08C201.74 122.08 202.15 121.66 202.15 121.17ZM210.51 119.18C210.51 117.33 209.12 116.36 207.56 116.36C206.48 116.36 205.68 116.89 205.34 117.48C205.32 117.41 205.32 117.36 205.32 117.29C205.32 115.92 206.22 114.84 207.50 114.84C207.94 114.84 208.30 114.91 208.63 115.08C208.74 115.15 208.87 115.17 209.00 115.17C209.41 115.17 209.85 114.86 209.85 114.37C209.85 114.24 209.81 114.12 209.76 114.02C209.43 113.45 208.34 113.20 207.50 113.20C204.94 113.20 203.45 115.06 203.45 117.68C203.45 120.13 204.56 122.16 207.20 122.16C209.17 122.16 210.51 120.87 210.51 119.18ZM208.64 119.24C208.64 119.89 208.16 120.52 207.16 120.52C206.34 120.52 205.73 119.96 205.73 119.15C205.73 118.37 206.35 117.81 207.16 117.81C207.99 117.81 208.64 118.37 208.64 119.24ZM217.82 114.27C217.82 113.72 217.38 113.33 216.92 113.33L211.95 113.33C211.51 113.33 211.15 113.69 211.15 114.12C211.15 114.59 211.51 114.95 211.95 114.95L215.59 114.95L213.01 120.82C212.96 120.93 212.93 121.05 212.93 121.17C212.93 121.64 213.31 122.08 213.85 122.08C214.23 122.08 214.58 121.86 214.72 121.52L217.74 114.63C217.79 114.53 217.82 114.39 217.82 114.27Z" fill="#9aa7b4" /></g><g aria-label="Changed Files: 495,354"><circle cx="22" cy="140" r="4" fill="#673bd6" /><path d="M39.11 135.19C36.59 135.19 34.60 137.01 34.60 139.67C34.60 142.34 36.59 144.16 39.11 144.16C40.46 144.16 41.40 143.60 42.07 142.87C42.18 142.76 42.23 142.62 42.23 142.47C42.23 142.15 41.97 141.87 41.63 141.87C41.46 141.87 41.28 141.95 41.18 142.08C40.64 142.67 39.88 143.01 39.11 143.01C37.29 143.01 35.94 141.61 35.94 139.67C35.94 137.72 37.29 136.33 39.11 136.33C39.86 136.33 40.67 136.69 41.18 137.28C41.28 137.42 41.46 137.49 41.62 137.49C41.96 137.49 42.23 137.21 42.23 136.89C42.23 136.73 42.18 136.59 42.07 136.47C41.41 135.73 40.46 135.19 39.11 135.19ZM49.17 139.94C49.17 138.62 48.22 137.56 46.90 137.56C45.79 137.56 45.22 138.10 44.92 138.60L44.92 135.81C44.92 135.51 44.66 135.25 44.36 135.25C44.02 135.25 43.76 135.51 43.76 135.81L43.76 143.51C43.76 143.82 44.02 144.08 44.34 144.08C44.66 144.08 44.92 143.82 44.92 143.51L44.92 140.56C44.92 139.38 45.54 138.59 46.53 138.59C47.47 138.59 48.01 139.29 48.01 140.33L48.01 143.51C48.01 143.82 48.27 144.08 48.59 144.08C48.91 144.08 49.17 143.82 49.17 143.51ZM56.09 139.75C56.09 138.15 54.92 137.56 53.56 137.56C52.72 137.56 51.77 137.84 51.17 138.44C51.09 138.53 51.06 138.63 51.06 138.74C51.06 139.01 51.30 139.19 51.54 139.19C51.63 139.19 51.73 139.15 51.82 139.09C52.29 138.72 52.81 138.54 53.40 138.54C54.28 138.54 54.93 139.01 54.93 139.80L54.93 140.15L53.12 140.15C51.82 140.15 50.68 140.66 50.68 142.08C50.68 143.45 51.82 144.16 52.86 144.16C53.84 144.16 54.42 143.86 54.93 143.30L54.93 143.51C54.93 143.88 55.23 144.08 55.46 144.08L55.50 144.08C55.83 144.08 56.09 143.82 56.09 143.51ZM54.93 140.96L54.93 141.84C54.93 142.58 54.09 143.34 53.17 143.34C52.33 143.34 51.85 142.83 51.85 142.10C51.85 141.35 52.45 140.96 53.44 140.96ZM63.34 139.97C63.34 138.64 62.38 137.56 61.05 137.56C59.96 137.56 59.40 138.10 59.10 138.60L59.10 138.20C59.10 137.90 58.84 137.64 58.54 137.64C58.21 137.64 57.95 137.90 57.95 138.20L57.95 143.51C57.95 143.82 58.21 144.08 58.52 144.08C58.84 144.08 59.10 143.82 59.10 143.51L59.10 140.49C59.10 139.42 59.67 138.59 60.68 138.59C61.61 138.59 62.18 139.32 62.18 140.36L62.18 143.51C62.18 143.82 62.44 144.08 62.76 144.08C63.08 144.08 63.34 143.82 63.34 143.51ZM70.84 138.20C70.84 137.90 70.58 137.64 70.28 137.64C69.95 137.64 69.69 137.90 69.69 138.20L69.69 138.63C69.18 137.96 68.45 137.56 67.62 137.56C65.99 137.56 64.84 138.79 64.84 140.81C64.84 142.86 66.01 144.05 67.62 144.05C68.48 144.05 69.22 143.60 69.69 142.96L69.69 143.79C69.69 145.13 68.72 145.60 67.75 145.60C67.06 145.60 66.51 145.46 66.03 145.05C65.94 144.99 65.85 144.96 65.73 144.96C65.47 144.96 65.24 145.18 65.24 145.46C65.24 145.59 65.29 145.70 65.37 145.78C65.98 146.37 66.86 146.55 67.75 146.55C69.28 146.55 70.84 145.91 70.84 143.75ZM69.69 140.83C69.69 142.12 68.84 143.03 67.80 143.03C66.63 143.03 66.03 142.10 66.03 140.81C66.03 139.50 66.63 138.59 67.80 138.59C68.84 138.59 69.69 139.49 69.69 140.78ZM78.51 140.65C78.51 140.40 78.45 140.13 78.40 139.92C78.03 138.51 76.99 137.56 75.47 137.56C73.65 137.56 72.34 139.03 72.34 140.85C72.34 142.83 73.70 144.16 75.57 144.16C76.50 144.16 78.11 143.68 78.11 142.97C78.11 142.53 77.67 142.43 77.38 142.57C76.93 142.91 76.22 143.22 75.69 143.22C74.42 143.22 73.64 142.35 73.55 141.27L77.91 141.27C78.24 141.27 78.51 140.96 78.51 140.65ZM73.55 140.41C73.60 139.54 74.21 138.50 75.46 138.50C76.80 138.50 77.37 139.57 77.39 140.41ZM85.64 135.81C85.64 135.51 85.38 135.25 85.08 135.25C84.74 135.25 84.48 135.51 84.48 135.81L84.48 138.63C83.97 137.96 83.36 137.56 82.41 137.56C80.77 137.56 79.62 138.85 79.62 140.87C79.62 142.92 80.79 144.16 82.41 144.16C83.39 144.16 84.00 143.73 84.48 143.10L84.48 143.51C84.48 143.82 84.74 144.08 85.05 144.08C85.38 144.08 85.64 143.82 85.64 143.51ZM84.48 140.91C84.48 142.21 83.83 143.13 82.71 143.13C81.54 143.13 80.81 142.18 80.81 140.87C80.81 139.55 81.54 138.59 82.71 138.59C83.83 138.59 84.48 139.54 84.48 140.83ZM96.76 135.91C96.76 135.58 96.52 135.33 96.20 135.33L91.73 135.33C91.27 135.33 90.89 135.71 90.89 136.17L90.89 143.44C90.89 143.79 91.17 144.08 91.52 144.08C91.89 144.08 92.17 143.79 92.17 143.44L92.17 140.15L96.11 140.15C96.43 140.15 96.67 139.89 96.67 139.59C96.67 139.25 96.43 139.01 96.11 139.01L92.17 139.01L92.17 136.47L96.20 136.47C96.52 136.47 96.76 136.21 96.76 135.91ZM98.65 135.39C98.25 135.39 97.91 135.73 97.91 136.15C97.91 136.55 98.25 136.89 98.65 136.89C99.06 136.89 99.39 136.55 99.39 136.15C99.39 135.73 99.06 135.39 98.65 135.39ZM99.23 138.20C99.23 137.90 98.97 137.64 98.67 137.64C98.34 137.64 98.08 137.90 98.08 138.20L98.08 143.51C98.08 143.82 98.34 144.08 98.65 144.08C98.97 144.08 99.23 143.82 99.23 143.51ZM102.26 135.81C102.26 135.51 102.00 135.25 101.70 135.25C101.37 135.25 101.11 135.51 101.11 135.81L101.11 143.51C101.11 143.82 101.37 144.08 101.68 144.08C102.00 144.08 102.26 143.82 102.26 143.51ZM109.93 140.65C109.93 140.40 109.87 140.13 109.82 139.92C109.45 138.51 108.41 137.56 106.89 137.56C105.07 137.56 103.76 139.03 103.76 140.85C103.76 142.83 105.12 144.16 106.99 144.16C107.92 144.16 109.53 143.68 109.53 142.97C109.53 142.53 109.09 142.43 108.80 142.57C108.35 142.91 107.64 143.22 107.11 143.22C105.84 143.22 105.06 142.35 104.97 141.27L109.33 141.27C109.66 141.27 109.93 140.96 109.93 140.65ZM104.97 140.41C105.02 139.54 105.63 138.50 106.88 138.50C108.22 138.50 108.79 139.57 108.81 140.41ZM116.02 142.10C115.90 139.89 112.30 140.50 112.17 139.37C112.12 138.87 112.66 138.49 113.46 138.49C114.05 138.49 114.61 138.68 115.02 138.97C115.09 139.03 115.18 139.06 115.29 139.06C115.52 139.06 115.74 138.87 115.74 138.60C115.74 138.50 115.70 138.40 115.63 138.32C115.13 137.84 114.34 137.56 113.44 137.56C111.91 137.56 110.99 138.29 111.05 139.41C111.17 141.52 114.76 140.87 114.89 142.26C114.94 142.83 114.42 143.23 113.52 143.23C112.87 143.23 112.22 142.97 111.75 142.63C111.66 142.57 111.57 142.54 111.45 142.54C111.18 142.54 110.95 142.75 110.95 143.03C110.95 143.16 111.00 143.26 111.09 143.34C111.66 143.91 112.61 144.16 113.47 144.16C115.13 144.16 116.08 143.30 116.02 142.10Z" fill="#e6edf3" /><path d="M175.32 141.40C175.32 140.94 174.96 140.58 174.53 140.58L174.13 140.58L174.13 136.29C174.13 135.49 173.34 135.12 172.55 135.25C171.99 135.25 171.43 135.55 171.13 136.02L168.24 140.59C168.12 140.78 168.07 140.98 168.07 141.19C168.07 141.78 168.50 142.21 169.02 142.21L172.28 142.21L172.28 143.17C172.28 143.66 172.69 144.08 173.19 144.08C173.71 144.08 174.13 143.66 174.13 143.17L174.13 142.21L174.53 142.21C174.96 142.21 175.32 141.84 175.32 141.40ZM169.94 140.58L172.28 136.97L172.28 140.58ZM175.96 138.16C175.96 140.01 177.35 140.98 178.91 140.98C179.99 140.98 180.79 140.45 181.13 139.87C181.14 139.93 181.14 139.98 181.14 140.05C181.14 141.43 180.25 142.50 178.97 142.50C178.53 142.50 178.17 142.43 177.84 142.26C177.73 142.19 177.60 142.17 177.47 142.17C177.06 142.17 176.62 142.48 176.62 142.97C176.62 143.10 176.66 143.22 176.71 143.32C177.04 143.90 178.13 144.14 178.97 144.14C181.53 144.14 183.02 142.28 183.02 139.66C183.02 137.21 181.91 135.19 179.27 135.19C177.30 135.19 175.96 136.47 175.96 138.16ZM177.83 138.10C177.83 137.45 178.31 136.82 179.31 136.82C180.13 136.82 180.74 137.38 180.74 138.19C180.74 138.97 180.12 139.53 179.31 139.53C178.48 139.53 177.83 138.97 177.83 138.10ZM190.92 141.15C190.92 139.40 189.61 138.34 188.14 138.34C187.35 138.34 186.64 138.66 186.23 139.07L186.23 136.95L189.62 136.95C190.05 136.95 190.41 136.59 190.41 136.15C190.41 135.69 190.05 135.33 189.62 135.33L185.42 135.33C184.85 135.33 184.38 135.80 184.38 136.37L184.38 139.70C184.38 140.20 184.75 140.58 185.32 140.58C185.58 140.58 185.82 140.50 186.03 140.36C186.50 140.05 186.96 139.94 187.49 139.94C188.48 139.94 189.05 140.46 189.05 141.23C189.05 141.93 188.46 142.52 187.44 142.52C186.81 142.52 186.21 142.35 185.71 142.04C185.55 141.95 185.38 141.89 185.23 141.89C184.77 141.89 184.34 142.25 184.34 142.73C184.34 142.86 184.38 142.99 184.45 143.10C184.85 143.78 186.32 144.16 187.45 144.16C189.54 144.16 190.92 143.00 190.92 141.15ZM194.17 143.36C194.17 142.52 193.61 142.04 193.00 142.04C192.45 142.04 191.99 142.50 191.99 143.08C191.99 143.64 192.38 144.01 192.87 144.01C192.96 144.01 193.08 143.99 193.12 143.97C193.04 144.31 192.75 144.72 192.42 144.99C192.32 145.07 192.29 145.17 192.29 145.27C192.29 145.53 192.56 145.69 192.78 145.69C192.91 145.69 193.03 145.65 193.12 145.56C193.77 144.97 194.17 144.19 194.17 143.36ZM201.76 141.63C201.87 140.07 200.81 139.53 200.81 139.53C200.81 139.53 201.78 139.03 201.67 137.55C201.57 136.11 200.42 135.20 198.40 135.20C197.20 135.20 196.26 135.55 195.55 136.12C195.37 136.26 195.28 136.47 195.28 136.68C195.28 137.14 195.68 137.46 196.08 137.46C196.24 137.46 196.39 137.42 196.52 137.33C197.03 137.01 197.60 136.84 198.20 136.84C199.11 136.84 199.81 137.04 199.81 137.73C199.81 138.45 199.38 138.79 198.51 138.79C197.89 138.79 197.62 139.14 197.62 139.59C197.62 140.05 197.89 140.41 198.56 140.41C199.45 140.41 199.96 140.72 199.96 141.41C199.96 142.06 199.37 142.52 198.32 142.52C197.72 142.52 197.03 142.31 196.46 141.97C196.32 141.88 196.16 141.84 196.00 141.84C195.57 141.84 195.16 142.19 195.16 142.66C195.16 142.79 195.20 142.91 195.26 143.01C195.67 143.69 197.13 144.16 198.38 144.16C200.46 144.16 201.66 143.26 201.76 141.63ZM209.78 141.15C209.78 139.40 208.47 138.34 207.00 138.34C206.21 138.34 205.51 138.66 205.09 139.07L205.09 136.95L208.48 136.95C208.91 136.95 209.28 136.59 209.28 136.15C209.28 135.69 208.91 135.33 208.48 135.33L204.28 135.33C203.71 135.33 203.24 135.80 203.24 136.37L203.24 139.70C203.24 140.20 203.61 140.58 204.18 140.58C204.44 140.58 204.69 140.50 204.90 140.36C205.36 140.05 205.82 139.94 206.35 139.94C207.34 139.94 207.91 140.46 207.91 141.23C207.91 141.93 207.33 142.52 206.30 142.52C205.68 142.52 205.08 142.35 204.57 142.04C204.41 141.95 204.25 141.89 204.09 141.89C203.63 141.89 203.21 142.25 203.21 142.73C203.21 142.86 203.24 142.99 203.31 143.10C203.71 143.78 205.18 144.16 206.31 144.16C208.41 144.16 209.78 143.00 209.78 141.15ZM217.75 141.40C217.75 140.94 217.39 140.58 216.96 140.58L216.56 140.58L216.56 136.29C216.56 135.49 215.78 135.12 214.98 135.25C214.42 135.25 213.87 135.55 213.57 136.02L210.67 140.59C210.55 140.78 210.50 140.98 210.50 141.19C210.50 141.78 210.93 142.21 211.45 142.21L214.71 142.21L214.71 143.17C214.71 143.66 215.13 144.08 215.62 144.08C216.14 144.08 216.56 143.66 216.56 143.17L216.56 142.21L216.96 142.21C217.39 142.21 217.75 141.84 217.75 141.40ZM212.37 140.58L214.71 136.97L214.71 140.58Z" fill="#9aa7b4" /></g><rect x="18" y="166" width="384" height="8" rx="4" fill="#21262d" /><rect x="18.00" y="166" width="262.53" height="8" rx="4" fill="#00d559" /><rect x="280.53" y="166" width="121.47" height="8" rx="4" fill="#00a5fe" /></svg>