<svg xmlns="http://www.w3.org/2000/svg" width="420" height="184" viewBox="0 0 420 184" role="img"><rect x="0.5" y="0.5" width="419" height="183" rx="10" fill="#161b22" stroke="#30363d" /><path d="M30.72 33.60C30.72 32.83 30.10 32.21 29.37 32.21L28.69 32.21L28.69 24.95C28.69 23.59 27.37 22.97 26.03 23.19C25.08 23.19 24.14 23.70 23.63 24.49L18.73 32.24C18.53 32.54 18.44 32.90 18.44 33.25C18.44 34.24 19.17 34.96 20.05 34.96L25.57 34.96L25.57 36.59C25.57 37.43 26.27 38.13 27.11 38.13C27.99 38.13 28.69 37.43 28.69 36.59L28.69 34.96L29.37 34.96C30.10 34.96 30.72 34.35 30.72 33.60ZM21.61 32.21L25.57 26.10L25.57 32.21ZM42.82 24.91C42.82 23.99 42.07 23.33 41.30 23.33L32.89 23.33C32.15 23.33 31.53 23.94 31.53 24.67C31.53 25.46 32.15 26.08 32.89 26.08L39.05 26.08L34.68 36.00C34.59 36.20 34.54 36.39 34.54 36.59C34.54 37.38 35.18 38.13 36.11 38.13C36.74 38.13 37.34 37.76 37.58 37.19L42.68 25.53C42.77 25.35 42.82 25.13 42.82 24.91ZM45.79 36.92C45.79 35.49 44.84 34.68 43.81 34.68C42.88 34.68 42.09 35.47 42.09 36.44C42.09 37.38 42.75 38.02 43.59 38.02C43.74 38.02 43.94 37.98 44.00 37.96C43.87 38.53 43.39 39.21 42.82 39.67C42.66 39.80 42.60 39.98 42.60 40.16C42.60 40.60 43.06 40.86 43.43 40.86C43.65 40.86 43.85 40.79 44.00 40.64C45.10 39.65 45.79 38.33 45.79 36.92ZM58.92 33.23C58.92 30.10 56.57 28.45 53.93 28.45C52.10 28.45 50.74 29.35 50.16 30.34C50.14 30.23 50.14 30.15 50.14 30.04C50.14 27.70 51.66 25.88 53.82 25.88C54.56 25.88 55.18 26.01 55.73 26.30C55.93 26.41 56.15 26.45 56.37 26.45C57.05 26.45 57.80 25.92 57.80 25.09C57.80 24.87 57.73 24.67 57.64 24.49C57.09 23.52 55.25 23.11 53.82 23.11C49.48 23.11 46.97 26.25 46.97 30.70C46.97 34.83 48.84 38.26 53.31 38.26C56.65 38.26 58.92 36.09 58.92 33.23ZM55.75 33.34C55.75 34.44 54.94 35.49 53.24 35.49C51.86 35.49 50.82 34.55 50.82 33.18C50.82 31.86 51.88 30.92 53.24 30.92C54.65 30.92 55.75 31.86 55.75 33.34ZM71.55 34.00C71.72 31.36 69.94 30.43 69.94 30.43C69.94 30.43 71.57 29.60 71.39 27.09C71.22 24.65 69.28 23.11 65.85 23.11C63.83 23.11 62.24 23.70 61.03 24.67C60.72 24.91 60.57 25.26 60.57 25.61C60.57 26.38 61.25 26.93 61.93 26.93C62.20 26.93 62.46 26.87 62.68 26.71C63.54 26.16 64.51 25.88 65.52 25.88C67.06 25.88 68.25 26.23 68.25 27.40C68.25 28.61 67.52 29.18 66.05 29.18C64.99 29.18 64.53 29.77 64.53 30.54C64.53 31.31 64.99 31.93 66.14 31.93C67.63 31.93 68.49 32.46 68.49 33.62C68.49 34.72 67.50 35.49 65.72 35.49C64.71 35.49 63.54 35.14 62.57 34.57C62.33 34.41 62.07 34.35 61.80 34.35C61.08 34.35 60.37 34.94 60.37 35.73C60.37 35.95 60.44 36.15 60.55 36.33C61.23 37.47 63.72 38.26 65.83 38.26C69.35 38.26 71.37 36.75 71.55 34.00ZM85.21 33.23C85.21 30.10 82.86 28.45 80.22 28.45C78.39 28.45 77.03 29.35 76.45 30.34C76.43 30.23 76.43 30.15 76.43 30.04C76.43 27.70 77.95 25.88 80.11 25.88C80.85 25.88 81.47 26.01 82.02 26.30C82.22 26.41 82.44 26.45 82.66 26.45C83.34 26.45 84.09 25.92 84.09 25.09C84.09 24.87 84.02 24.67 83.93 24.49C83.38 23.52 81.54 23.11 80.11 23.11C75.77 23.11 73.26 26.25 73.26 30.70C73.26 34.83 75.13 38.26 79.60 38.26C82.94 38.26 85.21 36.09 85.21 33.23ZM82.04 33.34C82.04 34.44 81.23 35.49 79.53 35.49C78.15 35.49 77.11 34.55 77.11 33.18C77.11 31.86 78.17 30.92 79.53 30.92C80.94 30.92 82.04 31.86 82.04 33.34ZM100.08 23.08C95.68 23.08 92.27 26.16 92.27 30.67C92.27 35.18 95.68 38.26 100.08 38.26C102.61 38.26 104.31 37.16 105.41 35.82C105.63 35.58 105.71 35.27 105.71 34.96C105.71 34.22 105.08 33.60 104.28 33.60C103.84 33.60 103.40 33.78 103.10 34.11C102.28 35.01 101.18 35.49 100.08 35.49C97.42 35.49 95.48 33.45 95.48 30.67C95.48 27.90 97.42 25.86 100.08 25.86C101.18 25.86 102.26 26.38 103.10 27.26C103.40 27.59 103.82 27.77 104.24 27.77C105.05 27.77 105.74 27.15 105.74 26.36C105.74 26.08 105.63 25.75 105.43 25.50C104.31 24.16 102.61 23.08 100.08 23.08ZM118.58 32.68C118.58 29.66 116.47 27.11 112.95 27.11C109.45 27.11 107.34 29.66 107.34 32.68C107.34 35.71 109.45 38.26 112.95 38.26C116.47 38.26 118.58 35.71 118.58 32.68ZM115.68 32.68C115.68 34.35 114.69 35.78 112.95 35.78C111.21 35.78 110.25 34.35 110.25 32.68C110.25 31.03 111.21 29.60 112.95 29.60C114.69 29.60 115.68 31.03 115.68 32.68ZM136.65 31.20C136.65 29.02 135.13 27.11 132.73 27.11C130.88 27.11 129.83 28.19 129.43 28.94C129.03 28.17 128.04 27.11 126.26 27.11C124.63 27.11 123.89 27.70 123.45 28.28L123.45 28.25C123.45 27.95 123.05 27.24 122.08 27.24C121.27 27.24 120.65 27.86 120.65 28.61L120.65 36.75C120.65 37.52 121.27 38.13 122.04 38.13C122.83 38.13 123.45 37.52 123.45 36.75L123.45 31.73C123.45 30.70 124.24 29.60 125.43 29.60C126.57 29.60 127.23 30.74 127.23 31.73L127.23 36.75C127.23 37.52 127.85 38.13 128.62 38.13C129.43 38.13 130.05 37.52 130.05 36.75L130.05 31.93C130.05 30.70 130.82 29.60 132.03 29.60C133.17 29.60 133.83 30.74 133.83 31.73L133.83 36.75C133.83 37.52 134.45 38.13 135.22 38.13C136.03 38.13 136.65 37.52 136.65 36.75ZM155.39 31.20C155.39 29.02 153.87 27.11 151.47 27.11C149.63 27.11 148.57 28.19 148.17 28.94C147.78 28.17 146.79 27.11 145.01 27.11C143.38 27.11 142.63 27.70 142.19 28.28L142.19 28.25C142.19 27.95 141.79 27.24 140.83 27.24C140.01 27.24 139.40 27.86 139.40 28.61L139.40 36.75C139.40 37.52 140.01 38.13 140.78 38.13C141.57 38.13 142.19 37.52 142.19 36.75L142.19 31.73C142.19 30.70 142.98 29.60 144.17 29.60C145.31 29.60 145.97 30.74 145.97 31.73L145.97 36.75C145.97 37.52 146.59 38.13 147.36 38.13C148.17 38.13 148.79 37.52 148.79 36.75L148.79 31.93C148.79 30.70 149.56 29.60 150.77 29.60C151.91 29.60 152.57 30.74 152.57 31.73L152.57 36.75C152.57 37.52 153.19 38.13 153.96 38.13C154.77 38.13 155.39 37.52 155.39 36.75ZM159.53 22.91C158.62 22.91 157.85 23.63 157.85 24.56C157.85 25.48 158.62 26.23 159.53 26.23C160.45 26.23 161.20 25.48 161.20 24.56C161.20 23.63 160.45 22.91 159.53 22.91ZM160.93 28.61C160.93 27.86 160.32 27.24 159.57 27.24C158.76 27.24 158.14 27.86 158.14 28.61L158.14 36.75C158.14 37.52 158.76 38.13 159.53 38.13C160.32 38.13 160.93 37.52 160.93 36.75ZM169.51 36.99C169.51 36.31 169.07 35.78 168.28 35.78L168.04 35.78C167.60 35.78 167.07 35.45 167.07 34.61L167.07 29.82L168.17 29.82C168.81 29.82 169.36 29.27 169.36 28.61C169.36 27.92 168.81 27.37 168.17 27.37L167.07 27.37L167.07 25.72C167.07 24.95 166.46 24.34 165.69 24.34C164.87 24.34 164.26 24.95 164.26 25.72L164.26 27.37L163.57 27.37C162.91 27.37 162.36 27.92 162.36 28.56C162.36 29.27 162.91 29.82 163.57 29.82L164.26 29.82L164.26 35.36C164.26 37.25 165.31 38.26 167.27 38.26C169.10 38.26 169.51 37.69 169.51 36.99ZM179.57 34.85C179.57 30.56 173.28 31.88 173.28 30.30C173.28 29.71 173.94 29.24 174.95 29.24C175.81 29.24 176.66 29.49 177.35 29.88C177.50 29.97 177.70 30.01 177.87 30.01C178.45 30.01 178.97 29.55 178.97 28.96C178.97 28.76 178.91 28.56 178.80 28.41C178.20 27.55 176.31 27.11 174.93 27.11C172.13 27.11 170.57 28.67 170.57 30.45C170.57 34.63 176.88 33.20 176.88 34.96C176.88 35.62 176.31 36.11 175.10 36.11C174.18 36.11 173.08 35.73 172.24 35.25C172.07 35.14 171.87 35.10 171.67 35.10C171.08 35.10 170.50 35.60 170.50 36.26C170.50 36.48 170.57 36.68 170.70 36.86C171.36 37.80 173.58 38.26 174.97 38.26C177.92 38.26 179.57 36.79 179.57 34.85Z" fill="#e6edf3" /><path d="M20.26 49.88C20.26 49.54 19.98 49.25 19.64 49.25C19.26 49.25 18.98 49.54 18.98 49.88L18.98 57.44C18.98 57.79 19.26 58.08 19.61 58.08C19.98 58.08 20.26 57.79 20.26 57.44ZM27.55 53.97C27.55 52.64 26.59 51.56 25.27 51.56C24.18 51.56 23.62 52.10 23.32 52.60L23.32 52.20C23.32 51.90 23.06 51.64 22.76 51.64C22.42 51.64 22.16 51.90 22.16 52.20L22.16 57.51C22.16 57.82 22.42 58.08 22.73 58.08C23.06 58.08 23.32 57.82 23.32 57.51L23.32 54.49C23.32 53.42 23.89 52.59 24.89 52.59C25.83 52.59 26.40 53.32 26.40 54.36L26.40 57.51C26.40 57.82 26.66 58.08 26.97 58.08C27.30 58.08 27.55 57.82 27.55 57.51ZM38.97 49.91C38.97 49.58 38.72 49.33 38.41 49.33L32.70 49.33C32.39 49.33 32.14 49.58 32.14 49.89C32.14 50.21 32.39 50.47 32.70 50.47L34.91 50.47L34.91 57.44C34.91 57.79 35.20 58.08 35.55 58.08C35.91 58.08 36.20 57.79 36.20 57.44L36.20 50.47L38.41 50.47C38.72 50.47 38.97 50.21 38.97 49.91ZM44.74 54.85C44.74 53.05 43.53 51.56 41.57 51.56C39.62 51.56 38.41 53.05 38.41 54.85C38.41 56.66 39.62 58.16 41.57 58.16C43.53 58.16 44.74 56.66 44.74 54.85ZM43.53 54.85C43.53 56.06 42.83 57.13 41.57 57.13C40.32 57.13 39.61 56.06 39.61 54.85C39.61 53.66 40.32 52.59 41.57 52.59C42.83 52.59 43.53 53.66 43.53 54.85ZM49.16 57.55C49.16 57.27 48.95 57.06 48.67 57.06C48.54 57.06 48.38 57.13 48.24 57.13C47.86 57.13 47.63 56.83 47.63 56.35L47.63 52.73L48.48 52.73C48.76 52.73 48.98 52.51 48.98 52.24C48.98 51.94 48.76 51.72 48.48 51.72L47.63 51.72L47.63 50.49C47.63 50.19 47.37 49.93 47.05 49.93C46.72 49.93 46.46 50.19 46.46 50.49L46.46 51.72L45.85 51.72C45.56 51.72 45.34 51.94 45.34 52.22C45.34 52.51 45.56 52.73 45.85 52.73L46.46 52.73L46.46 56.62C46.46 57.61 46.98 58.16 47.96 58.16C48.65 58.16 49.16 57.96 49.16 57.55ZM55.26 53.75C55.26 52.15 54.09 51.56 52.74 51.56C51.89 51.56 50.94 51.84 50.34 52.44C50.27 52.53 50.23 52.63 50.23 52.73C50.23 53.01 50.47 53.19 50.71 53.19C50.80 53.19 50.90 53.15 50.99 53.09C51.46 52.72 51.98 52.54 52.57 52.54C53.45 52.54 54.10 53.01 54.10 53.80L54.10 54.15L52.29 54.15C50.99 54.15 49.85 54.66 49.85 56.08C49.85 57.45 50.99 58.16 52.03 58.16C53.01 58.16 53.59 57.86 54.10 57.30L54.10 57.51C54.10 57.88 54.40 58.08 54.63 58.08L54.67 58.08C55.00 58.08 55.26 57.82 55.26 57.51ZM54.10 54.96L54.10 55.84C54.10 56.58 53.26 57.34 52.35 57.34C51.50 57.34 51.02 56.83 51.02 56.10C51.02 55.35 51.62 54.96 52.61 54.96ZM58.27 49.81C58.27 49.51 58.01 49.25 57.71 49.25C57.38 49.25 57.12 49.51 57.12 49.81L57.12 57.51C57.12 57.82 57.38 58.08 57.69 58.08C58.01 58.08 58.27 57.82 58.27 57.51Z" fill="#9aa7b4" /><line x1="18" y1="76" x2="48" y2="76" stroke="#9aa7b4" stroke-opacity="0.4" /><g aria-label="Additions: 32,362,949"><circle cx="22" cy="96" r="4" fill="#00d559" /><path d="M42.28 99.39C42.28 99.31 42.27 99.23 42.23 99.14L39.36 91.94C39.19 91.51 38.76 91.24 38.30 91.25C37.85 91.25 37.43 91.52 37.28 91.94L34.40 99.14C34.38 99.23 34.36 99.31 34.36 99.39C34.36 99.74 34.65 100.08 35.05 100.08C35.33 100.08 35.57 99.92 35.68 99.66L36.25 98.19L40.40 98.19L40.97 99.66C41.07 99.92 41.32 100.08 41.59 100.08C42.01 100.08 42.28 99.71 42.28 99.39ZM38.32 92.64L40.03 97.06L36.61 97.06ZM49.22 91.81C49.22 91.51 48.96 91.25 48.66 91.25C48.33 91.25 48.07 91.51 48.07 91.81L48.07 94.63C47.56 93.95 46.95 93.56 46.00 93.56C44.36 93.56 43.20 94.85 43.20 96.87C43.20 98.92 44.37 100.16 46.00 100.16C46.97 100.16 47.59 99.73 48.07 99.10L48.07 99.51C48.07 99.82 48.33 100.08 48.64 100.08C48.96 100.08 49.22 99.82 49.22 99.51ZM48.07 96.91C48.07 98.21 47.42 99.13 46.30 99.13C45.13 99.13 44.40 98.18 44.40 96.87C44.40 95.55 45.13 94.59 46.30 94.59C47.42 94.59 48.07 95.54 48.07 96.83ZM56.74 91.81C56.74 91.51 56.48 91.25 56.18 91.25C55.84 91.25 55.58 91.51 55.58 91.81L55.58 94.63C55.07 93.95 54.46 93.56 53.51 93.56C51.88 93.56 50.72 94.85 50.72 96.87C50.72 98.92 51.89 100.16 53.51 100.16C54.49 100.16 55.10 99.73 55.58 99.10L55.58 99.51C55.58 99.82 55.84 100.08 56.15 100.08C56.48 100.08 56.74 99.82 56.74 99.51ZM55.58 96.91C55.58 98.21 54.93 99.13 53.81 99.13C52.64 99.13 51.91 98.18 51.91 96.87C51.91 95.55 52.64 94.59 53.81 94.59C54.93 94.59 55.58 95.54 55.58 96.83ZM59.18 91.39C58.78 91.39 58.44 91.73 58.44 92.15C58.44 92.55 58.78 92.89 59.18 92.89C59.60 92.89 59.92 92.55 59.92 92.15C59.92 91.73 59.60 91.39 59.18 91.39ZM59.77 94.20C59.77 93.90 59.51 93.64 59.21 93.64C58.87 93.64 58.61 93.90 58.61 94.20L58.61 99.51C58.61 99.82 58.87 100.08 59.18 100.08C59.51 100.08 59.77 99.82 59.77 99.51ZM64.56 99.55C64.56 99.27 64.36 99.06 64.07 99.06C63.94 99.06 63.78 99.13 63.64 99.13C63.26 99.13 63.03 98.83 63.03 98.35L63.03 94.73L63.89 94.73C64.16 94.73 64.38 94.51 64.38 94.24C64.38 93.94 64.16 93.72 63.89 93.72L63.03 93.72L63.03 92.49C63.03 92.19 62.77 91.93 62.46 91.93C62.12 91.93 61.86 92.19 61.86 92.49L61.86 93.72L61.25 93.72C60.96 93.72 60.74 93.94 60.74 94.22C60.74 94.51 60.96 94.73 61.25 94.73L61.86 94.73L61.86 98.62C61.86 99.61 62.38 100.16 63.37 100.16C64.06 100.16 64.56 99.96 64.56 99.55ZM66.19 91.39C65.79 91.39 65.45 91.73 65.45 92.15C65.45 92.55 65.79 92.89 66.19 92.89C66.60 92.89 66.93 92.55 66.93 92.15C66.93 91.73 66.60 91.39 66.19 91.39ZM66.77 94.20C66.77 93.90 66.51 93.64 66.21 93.64C65.88 93.64 65.62 93.90 65.62 94.20L65.62 99.51C65.62 99.82 65.88 100.08 66.19 100.08C66.51 100.08 66.77 99.82 66.77 99.51ZM74.60 96.85C74.60 95.05 73.39 93.56 71.43 93.56C69.48 93.56 68.27 95.05 68.27 96.85C68.27 98.66 69.48 100.16 71.43 100.16C73.39 100.16 74.60 98.66 74.60 96.85ZM73.39 96.85C73.39 98.06 72.69 99.13 71.43 99.13C70.18 99.13 69.46 98.06 69.46 96.85C69.46 95.66 70.18 94.59 71.43 94.59C72.69 94.59 73.39 95.66 73.39 96.85ZM81.49 95.97C81.49 94.64 80.53 93.56 79.20 93.56C78.11 93.56 77.55 94.10 77.25 94.61L77.25 94.20C77.25 93.90 76.99 93.64 76.69 93.64C76.35 93.64 76.09 93.90 76.09 94.20L76.09 99.51C76.09 99.82 76.35 100.08 76.67 100.08C76.99 100.08 77.25 99.82 77.25 99.51L77.25 96.49C77.25 95.42 77.82 94.59 78.82 94.59C79.76 94.59 80.33 95.32 80.33 96.36L80.33 99.51C80.33 99.82 80.59 100.08 80.90 100.08C81.23 100.08 81.49 99.82 81.49 99.51ZM87.96 98.10C87.85 95.89 84.24 96.50 84.11 95.37C84.06 94.86 84.61 94.49 85.40 94.49C86 94.49 86.56 94.68 86.96 94.97C87.04 95.03 87.13 95.06 87.23 95.06C87.47 95.06 87.69 94.86 87.69 94.61C87.69 94.50 87.65 94.40 87.57 94.32C87.08 93.84 86.29 93.56 85.39 93.56C83.86 93.56 82.93 94.29 83.00 95.41C83.11 97.52 86.70 96.87 86.83 98.26C86.88 98.83 86.36 99.23 85.47 99.23C84.82 99.23 84.17 98.97 83.70 98.64C83.61 98.57 83.52 98.54 83.40 98.54C83.13 98.54 82.89 98.75 82.89 99.03C82.89 99.16 82.94 99.26 83.04 99.34C83.61 99.91 84.56 100.16 85.41 100.16C87.08 100.16 88.03 99.30 87.96 98.10Z" fill="#e6edf3" /><path d="M156.07 97.63C156.17 96.07 155.12 95.53 155.12 95.53C155.12 95.53 156.08 95.03 155.98 93.55C155.87 92.11 154.73 91.20 152.70 91.20C151.50 91.20 150.57 91.55 149.85 92.12C149.67 92.27 149.58 92.47 149.58 92.68C149.58 93.14 149.98 93.46 150.39 93.46C150.54 93.46 150.70 93.42 150.83 93.33C151.34 93.01 151.91 92.84 152.51 92.84C153.42 92.84 154.12 93.05 154.12 93.73C154.12 94.45 153.69 94.79 152.82 94.79C152.19 94.79 151.92 95.14 151.92 95.59C151.92 96.05 152.19 96.41 152.87 96.41C153.75 96.41 154.26 96.72 154.26 97.41C154.26 98.06 153.68 98.52 152.62 98.52C152.02 98.52 151.34 98.31 150.76 97.97C150.62 97.88 150.46 97.84 150.31 97.84C149.88 97.84 149.46 98.19 149.46 98.66C149.46 98.79 149.50 98.91 149.57 99.01C149.97 99.69 151.44 100.16 152.69 100.16C154.77 100.16 155.96 99.26 156.07 97.63ZM163.85 99.17C163.85 98.74 163.49 98.38 163.06 98.38L160.24 98.38C162.49 96.74 163.71 95.45 163.71 93.97C163.71 92.24 162.24 91.20 160.40 91.20C159.30 91.20 157.85 91.67 157.43 92.33C157.35 92.45 157.32 92.58 157.32 92.71C157.32 93.17 157.69 93.54 158.12 93.54C158.32 93.54 158.49 93.49 158.65 93.37C159.15 93.03 159.75 92.84 160.44 92.84C161.15 92.84 161.84 93.21 161.84 93.97C161.84 94.98 160.80 95.93 157.56 98.32C157.32 98.50 157.17 98.80 157.17 99.10C157.17 99.62 157.59 100 158.04 100L163.06 100C163.49 100 163.85 99.64 163.85 99.17ZM167.23 99.36C167.23 98.52 166.68 98.04 166.06 98.04C165.52 98.04 165.05 98.50 165.05 99.08C165.05 99.64 165.44 100.01 165.94 100.01C166.03 100.01 166.14 99.99 166.18 99.97C166.10 100.31 165.82 100.72 165.48 100.99C165.39 101.07 165.35 101.17 165.35 101.27C165.35 101.53 165.62 101.69 165.84 101.69C165.97 101.69 166.09 101.65 166.18 101.56C166.83 100.97 167.23 100.19 167.23 99.36ZM174.83 97.63C174.93 96.07 173.88 95.53 173.88 95.53C173.88 95.53 174.84 95.03 174.74 93.55C174.63 92.11 173.49 91.20 171.46 91.20C170.26 91.20 169.33 91.55 168.61 92.12C168.43 92.27 168.34 92.47 168.34 92.68C168.34 93.14 168.74 93.46 169.15 93.46C169.30 93.46 169.46 93.42 169.59 93.33C170.09 93.01 170.67 92.84 171.27 92.84C172.18 92.84 172.88 93.05 172.88 93.73C172.88 94.45 172.45 94.79 171.58 94.79C170.95 94.79 170.68 95.14 170.68 95.59C170.68 96.05 170.95 96.41 171.63 96.41C172.51 96.41 173.02 96.72 173.02 97.41C173.02 98.06 172.44 98.52 171.38 98.52C170.78 98.52 170.09 98.31 169.52 97.97C169.38 97.88 169.22 97.84 169.07 97.84C168.64 97.84 168.22 98.19 168.22 98.66C168.22 98.79 168.26 98.91 168.33 99.01C168.73 99.69 170.20 100.16 171.45 100.16C173.53 100.16 174.72 99.26 174.83 97.63ZM182.90 97.18C182.90 95.33 181.51 94.36 179.95 94.36C178.87 94.36 178.06 94.89 177.73 95.48C177.71 95.41 177.71 95.36 177.71 95.29C177.71 93.92 178.61 92.84 179.88 92.84C180.33 92.84 180.69 92.91 181.02 93.08C181.13 93.15 181.26 93.17 181.39 93.17C181.80 93.17 182.24 92.86 182.24 92.37C182.24 92.24 182.20 92.12 182.15 92.02C181.82 91.45 180.73 91.20 179.88 91.20C177.32 91.20 175.84 93.06 175.84 95.68C175.84 98.13 176.95 100.16 179.59 100.16C181.56 100.16 182.90 98.87 182.90 97.18ZM181.03 97.24C181.03 97.89 180.55 98.52 179.55 98.52C178.73 98.52 178.12 97.96 178.12 97.15C178.12 96.37 178.74 95.81 179.55 95.81C180.38 95.81 181.03 96.37 181.03 97.24ZM190.52 99.17C190.52 98.74 190.15 98.38 189.72 98.38L186.90 98.38C189.15 96.74 190.38 95.45 190.38 93.97C190.38 92.24 188.91 91.20 187.06 91.20C185.97 91.20 184.51 91.67 184.10 92.33C184.02 92.45 183.98 92.58 183.98 92.71C183.98 93.17 184.36 93.54 184.78 93.54C184.98 93.54 185.15 93.49 185.32 93.37C185.81 93.03 186.41 92.84 187.10 92.84C187.81 92.84 188.50 93.21 188.50 93.97C188.50 94.98 187.46 95.93 184.23 98.32C183.98 98.50 183.84 98.80 183.84 99.10C183.84 99.62 184.25 100 184.71 100L189.72 100C190.15 100 190.52 99.64 190.52 99.17ZM193.90 99.36C193.90 98.52 193.34 98.04 192.73 98.04C192.18 98.04 191.71 98.50 191.71 99.08C191.71 99.64 192.10 100.01 192.60 100.01C192.69 100.01 192.81 99.99 192.84 99.97C192.77 100.31 192.48 100.72 192.14 100.99C192.05 101.07 192.01 101.17 192.01 101.27C192.01 101.53 192.29 101.69 192.51 101.69C192.64 101.69 192.75 101.65 192.84 101.56C193.50 100.97 193.90 100.19 193.90 99.36ZM194.82 94.16C194.82 96.01 196.21 96.98 197.77 96.98C198.85 96.98 199.66 96.45 200.00 95.87C200.01 95.93 200.01 95.98 200.01 96.05C200.01 97.43 199.11 98.50 197.84 98.50C197.40 98.50 197.03 98.43 196.71 98.26C196.59 98.19 196.46 98.17 196.33 98.17C195.93 98.17 195.48 98.48 195.48 98.97C195.48 99.10 195.52 99.22 195.58 99.32C195.90 99.90 196.99 100.14 197.84 100.14C200.40 100.14 201.88 98.28 201.88 95.66C201.88 93.21 200.78 91.19 198.14 91.19C196.16 91.19 194.82 92.47 194.82 94.16ZM196.69 94.10C196.69 93.45 197.17 92.82 198.18 92.82C198.99 92.82 199.61 93.38 199.61 94.19C199.61 94.97 198.98 95.53 198.18 95.53C197.34 95.53 196.69 94.97 196.69 94.10ZM209.85 97.40C209.85 96.94 209.49 96.58 209.06 96.58L208.65 96.58L208.65 92.29C208.65 91.48 207.87 91.12 207.08 91.25C206.52 91.25 205.96 91.55 205.66 92.02L202.76 96.59C202.65 96.78 202.59 96.98 202.59 97.19C202.59 97.78 203.02 98.21 203.54 98.21L206.81 98.21L206.81 99.17C206.81 99.66 207.22 100.08 207.72 100.08C208.24 100.08 208.65 99.66 208.65 99.17L208.65 98.21L209.06 98.21C209.49 98.21 209.85 97.84 209.85 97.40ZM204.47 96.58L206.81 92.97L206.81 96.58ZM210.49 94.16C210.49 96.01 211.88 96.98 213.44 96.98C214.52 96.98 215.32 96.45 215.66 95.87C215.67 95.93 215.67 95.98 215.67 96.05C215.67 97.43 214.78 98.50 213.50 98.50C213.06 98.50 212.70 98.43 212.37 98.26C212.25 98.19 212.12 98.17 211.99 98.17C211.59 98.17 211.15 98.48 211.15 98.97C211.15 99.10 211.19 99.22 211.24 99.32C211.56 99.90 212.66 100.14 213.50 100.14C216.06 100.14 217.55 98.28 217.55 95.66C217.55 93.21 216.44 91.19 213.80 91.19C211.83 91.19 210.49 92.47 210.49 94.16ZM212.36 94.10C212.36 93.45 212.84 92.82 213.84 92.82C214.66 92.82 215.27 93.38 215.27 94.19C215.27 94.97 214.65 95.53 213.84 95.53C213.01 95.53 212.36 94.97 212.36 94.10Z" fill="#9aa7b4" /></g><g aria-label="Deletions: 14,290,172"><circle cx="22" cy="118" r="4" fill="#00a5fe" /><path d="M42.54 117.67C42.54 115.17 40.76 113.33 38.06 113.33L35.82 113.33C35.35 113.33 34.98 113.71 34.98 114.17L34.98 121.16C34.98 121.62 35.35 122 35.82 122L38.06 122C40.76 122 42.54 120.18 42.54 117.67ZM41.23 117.67C41.23 119.43 40.06 120.86 38.06 120.86L36.26 120.86L36.26 114.47L38.06 114.47C40.11 114.47 41.23 115.89 41.23 117.67ZM49.90 118.65C49.90 118.40 49.83 118.13 49.78 117.92C49.42 116.51 48.38 115.56 46.86 115.56C45.04 115.56 43.72 117.03 43.72 118.85C43.72 120.83 45.09 122.16 46.96 122.16C47.88 122.16 49.50 121.67 49.50 120.97C49.50 120.53 49.05 120.43 48.77 120.57C48.31 120.91 47.61 121.22 47.08 121.22C45.80 121.22 45.02 120.35 44.93 119.27L49.30 119.27C49.63 119.27 49.90 118.96 49.90 118.65ZM44.93 118.41C44.98 117.54 45.60 116.50 46.84 116.50C48.18 116.50 48.76 117.57 48.78 118.41ZM52.54 113.81C52.54 113.51 52.28 113.25 51.98 113.25C51.64 113.25 51.38 113.51 51.38 113.81L51.38 121.51C51.38 121.82 51.64 122.08 51.95 122.08C52.28 122.08 52.54 121.82 52.54 121.51ZM60.21 118.65C60.21 118.40 60.14 118.13 60.09 117.92C59.73 116.51 58.69 115.56 57.17 115.56C55.35 115.56 54.03 117.03 54.03 118.85C54.03 120.83 55.40 122.16 57.27 122.16C58.19 122.16 59.81 121.67 59.81 120.97C59.81 120.53 59.36 120.43 59.08 120.57C58.62 120.91 57.92 121.22 57.39 121.22C56.11 121.22 55.33 120.35 55.24 119.27L59.61 119.27C59.94 119.27 60.21 118.96 60.21 118.65ZM55.24 118.41C55.29 117.54 55.91 116.50 57.15 116.50C58.49 116.50 59.06 117.57 59.09 118.41ZM64.62 121.55C64.62 121.27 64.41 121.06 64.12 121.06C63.99 121.06 63.84 121.13 63.69 121.13C63.32 121.13 63.08 120.83 63.08 120.35L63.08 116.73L63.94 116.73C64.21 116.73 64.43 116.51 64.43 116.24C64.43 115.94 64.21 115.72 63.94 115.72L63.08 115.72L63.08 114.49C63.08 114.19 62.82 113.93 62.51 113.93C62.17 113.93 61.91 114.19 61.91 114.49L61.91 115.72L61.30 115.72C61.01 115.72 60.79 115.94 60.79 116.22C60.79 116.51 61.01 116.73 61.30 116.73L61.91 116.73L61.91 120.62C61.91 121.61 62.43 122.16 63.42 122.16C64.11 122.16 64.62 121.96 64.62 121.55ZM66.24 113.39C65.84 113.39 65.50 113.73 65.50 114.15C65.50 114.55 65.84 114.89 66.24 114.89C66.66 114.89 66.98 114.55 66.98 114.15C66.98 113.73 66.66 113.39 66.24 113.39ZM66.83 116.20C66.83 115.90 66.56 115.64 66.27 115.64C65.93 115.64 65.67 115.90 65.67 116.20L65.67 121.51C65.67 121.82 65.93 122.08 66.24 122.08C66.56 122.08 66.83 121.82 66.83 121.51ZM74.65 118.85C74.65 117.05 73.44 115.56 71.48 115.56C69.53 115.56 68.32 117.05 68.32 118.85C68.32 120.66 69.53 122.16 71.48 122.16C73.44 122.16 74.65 120.66 74.65 118.85ZM73.44 118.85C73.44 120.06 72.74 121.13 71.48 121.13C70.23 121.13 69.52 120.06 69.52 118.85C69.52 117.66 70.23 116.59 71.48 116.59C72.74 116.59 73.44 117.66 73.44 118.85ZM81.54 117.97C81.54 116.64 80.58 115.56 79.25 115.56C78.16 115.56 77.60 116.10 77.30 116.61L77.30 116.20C77.30 115.90 77.04 115.64 76.74 115.64C76.41 115.64 76.15 115.90 76.15 116.20L76.15 121.51C76.15 121.82 76.41 122.08 76.72 122.08C77.04 122.08 77.30 121.82 77.30 121.51L77.30 118.49C77.30 117.42 77.88 116.59 78.88 116.59C79.81 116.59 80.38 117.32 80.38 118.36L80.38 121.51C80.38 121.82 80.64 122.08 80.96 122.08C81.28 122.08 81.54 121.82 81.54 121.51ZM88.01 120.10C87.90 117.89 84.30 118.50 84.17 117.37C84.11 116.86 84.66 116.49 85.45 116.49C86.05 116.49 86.61 116.68 87.01 116.97C87.09 117.03 87.18 117.06 87.29 117.06C87.52 117.06 87.74 116.86 87.74 116.61C87.74 116.50 87.70 116.40 87.62 116.32C87.13 115.84 86.34 115.56 85.44 115.56C83.91 115.56 82.98 116.29 83.05 117.41C83.17 119.52 86.75 118.87 86.88 120.26C86.94 120.83 86.42 121.23 85.52 121.23C84.87 121.23 84.22 120.97 83.75 120.64C83.66 120.57 83.57 120.54 83.45 120.54C83.18 120.54 82.94 120.75 82.94 121.03C82.94 121.16 83.00 121.26 83.09 121.34C83.66 121.91 84.61 122.16 85.47 122.16C87.13 122.16 88.08 121.30 88.01 120.10Z" fill="#e6edf3" /><path d="M160.29 114.32C160.29 113.73 159.80 113.26 159.21 113.26C158.91 113.26 158.63 113.38 158.43 113.58L156.43 115.60C156.28 115.76 156.20 115.95 156.20 116.15C156.20 116.58 156.56 116.92 156.97 116.92C157.15 116.92 157.33 116.85 157.47 116.71L158.45 115.71L158.45 121.17C158.45 121.66 158.86 122.08 159.36 122.08C159.88 122.08 160.29 121.66 160.29 121.17ZM168.66 119.40C168.66 118.94 168.30 118.58 167.87 118.58L167.47 118.58L167.47 114.29C167.47 113.48 166.69 113.12 165.90 113.25C165.34 113.25 164.78 113.55 164.48 114.02L161.58 118.59C161.46 118.78 161.41 118.98 161.41 119.19C161.41 119.78 161.84 120.21 162.36 120.21L165.62 120.21L165.62 121.17C165.62 121.66 166.04 122.08 166.53 122.08C167.05 122.08 167.47 121.66 167.47 121.17L167.47 120.21L167.87 120.21C168.30 120.21 168.66 119.84 168.66 119.40ZM163.28 118.58L165.62 114.97L165.62 118.58ZM171.71 121.36C171.71 120.52 171.15 120.04 170.54 120.04C169.99 120.04 169.52 120.50 169.52 121.08C169.52 121.64 169.91 122.01 170.41 122.01C170.50 122.01 170.61 121.99 170.65 121.97C170.58 122.31 170.29 122.72 169.95 122.99C169.86 123.07 169.82 123.17 169.82 123.27C169.82 123.53 170.09 123.69 170.32 123.69C170.45 123.69 170.56 123.65 170.65 123.56C171.30 122.97 171.71 122.19 171.71 121.36ZM179.45 121.17C179.45 120.74 179.09 120.38 178.66 120.38L175.84 120.38C178.09 118.74 179.31 117.45 179.31 115.97C179.31 114.24 177.84 113.20 176.00 113.20C174.90 113.20 173.45 113.67 173.03 114.33C172.95 114.45 172.92 114.58 172.92 114.71C172.92 115.17 173.29 115.54 173.72 115.54C173.92 115.54 174.09 115.49 174.25 115.37C174.75 115.03 175.35 114.84 176.04 114.84C176.75 114.84 177.44 115.21 177.44 115.97C177.44 116.98 176.40 117.93 173.16 120.32C172.92 120.50 172.77 120.80 172.77 121.10C172.77 121.62 173.19 122 173.64 122L178.66 122C179.09 122 179.45 121.64 179.45 121.17ZM180.43 116.16C180.43 118.01 181.82 118.98 183.38 118.98C184.46 118.98 185.27 118.45 185.60 117.87C185.62 117.93 185.62 117.98 185.62 118.05C185.62 119.43 184.72 120.50 183.45 120.50C183.00 120.50 182.64 120.43 182.31 120.26C182.20 120.19 182.07 120.17 181.94 120.17C181.53 120.17 181.09 120.48 181.09 120.97C181.09 121.10 181.13 121.22 181.18 121.32C181.51 121.90 182.60 122.14 183.45 122.14C186.01 122.14 187.49 120.28 187.49 117.66C187.49 115.21 186.38 113.19 183.75 113.19C181.77 113.19 180.43 114.47 180.43 116.16ZM182.30 116.10C182.30 115.45 182.78 114.82 183.78 114.82C184.60 114.82 185.21 115.38 185.21 116.19C185.21 116.97 184.59 117.53 183.78 117.53C182.95 117.53 182.30 116.97 182.30 116.10ZM195.56 117.67C195.56 115.44 194.44 113.20 191.97 113.20C189.49 113.20 188.39 115.44 188.39 117.67C188.39 119.91 189.49 122.16 191.97 122.16C194.44 122.16 195.56 119.91 195.56 117.67ZM193.68 117.67C193.68 119.27 193.21 120.52 191.97 120.52C190.73 120.52 190.26 119.27 190.26 117.67C190.26 116.07 190.73 114.84 191.97 114.84C193.21 114.84 193.68 116.07 193.68 117.67ZM198.53 121.36C198.53 120.52 197.97 120.04 197.36 120.04C196.81 120.04 196.34 120.50 196.34 121.08C196.34 121.64 196.73 122.01 197.23 122.01C197.32 122.01 197.43 121.99 197.47 121.97C197.39 122.31 197.11 122.72 196.77 122.99C196.68 123.07 196.64 123.17 196.64 123.27C196.64 123.53 196.91 123.69 197.13 123.69C197.26 123.69 197.38 123.65 197.47 123.56C198.12 122.97 198.53 122.19 198.53 121.36ZM202.26 114.32C202.26 113.73 201.76 113.26 201.18 113.26C200.88 113.26 200.59 113.38 200.40 113.58L198.40 115.60C198.24 115.76 198.16 115.95 198.16 116.15C198.16 116.58 198.53 116.92 198.93 116.92C199.11 116.92 199.29 116.85 199.44 116.71L200.41 115.71L200.41 121.17C200.41 121.66 200.83 122.08 201.32 122.08C201.84 122.08 202.26 121.66 202.26 121.17ZM210.02 114.27C210.02 113.72 209.58 113.33 209.12 113.33L204.15 113.33C203.71 113.33 203.35 113.69 203.35 114.12C203.35 114.59 203.71 114.95 204.15 114.95L207.79 114.95L205.21 120.82C205.16 120.93 205.13 121.05 205.13 121.17C205.13 121.64 205.51 122.08 206.05 122.08C206.43 122.08 206.78 121.86 206.92 121.52L209.94 114.63C209.99 114.53 210.02 114.39 210.02 114.27ZM217.41 121.17C217.41 120.74 217.05 120.38 216.62 120.38L213.80 120.38C216.05 118.74 217.27 117.45 217.27 115.97C217.27 114.24 215.80 113.20 213.96 113.20C212.86 113.20 211.41 113.67 210.99 114.33C210.91 114.45 210.88 114.58 210.88 114.71C210.88 115.17 211.25 115.54 211.68 115.54C211.88 115.54 212.05 115.49 212.21 115.37C212.71 115.03 213.31 114.84 214.00 114.84C214.71 114.84 215.40 115.21 215.40 115.97C215.40 116.98 214.36 117.93 211.12 120.32C210.88 120.50 210.73 120.80 210.73 121.10C210.73 121.62 211.15 122 211.60 122L216.62 122C217.05 122 217.41 121.64 217.41 121.17Z" fill="#9aa7b4" /></g><g aria-label="Changed Files: 507,083"><circle cx="22" cy="140" r="4" fill="#673bd6" /><path d="M39.11 135.19C36.59 135.19 34.60 137.01 34.60 139.67C34.60 142.34 36.59 144.16 39.11 144.16C40.46 144.16 41.40 143.60 42.07 142.87C42.18 142.76 42.23 142.62 42.23 142.47C42.23 142.15 41.97 141.87 41.63 141.87C41.46 141.87 41.28 141.95 41.18 142.08C40.64 142.67 39.88 143.01 39.11 143.01C37.29 143.01 35.94 141.61 35.94 139.67C35.94 137.72 37.29 136.33 39.11 136.33C39.86 136.33 40.67 136.69 41.18 137.28C41.28 137.42 41.46 137.49 41.62 137.49C41.96 137.49 42.23 137.21 42.23 136.89C42.23 136.73 42.18 136.59 42.07 136.47C41.41 135.73 40.46 135.19 39.11 135.19ZM49.17 139.94C49.17 138.62 48.22 137.56 46.90 137.56C45.79 137.56 45.22 138.10 44.92 138.60L44.92 135.81C44.92 135.51 44.66 135.25 44.36 135.25C44.02 135.25 43.76 135.51 43.76 135.81L43.76 143.51C43.76 143.82 44.02 144.08 44.34 144.08C44.66 144.08 44.92 143.82 44.92 143.51L44.92 140.56C44.92 139.38 45.54 138.59 46.53 138.59C47.47 138.59 48.01 139.29 48.01 140.33L48.01 143.51C48.01 143.82 48.27 144.08 48.59 144.08C48.91 144.08 49.17 143.82 49.17 143.51ZM56.09 139.75C56.09 138.15 54.92 137.56 53.56 137.56C52.72 137.56 51.77 137.84 51.17 138.44C51.09 138.53 51.06 138.63 51.06 138.74C51.06 139.01 51.30 139.19 51.54 139.19C51.63 139.19 51.73 139.15 51.82 139.09C52.29 138.72 52.81 138.54 53.40 138.54C54.28 138.54 54.93 139.01 54.93 139.80L54.93 140.15L53.12 140.15C51.82 140.15 50.68 140.66 50.68 142.08C50.68 143.45 51.82 144.16 52.86 144.16C53.84 144.16 54.42 143.86 54.93 143.30L54.93 143.51C54.93 143.88 55.23 144.08 55.46 144.08L55.50 144.08C55.83 144.08 56.09 143.82 56.09 143.51ZM54.93 140.96L54.93 141.84C54.93 142.58 54.09 143.34 53.17 143.34C52.33 143.34 51.85 142.83 51.85 142.10C51.85 141.35 52.45 140.96 53.44 140.96ZM63.34 139.97C63.34 138.64 62.38 137.56 61.05 137.56C59.96 137.56 59.40 138.10 59.10 138.60L59.10 138.20C59.10 137.90 58.84 137.64 58.54 137.64C58.21 137.64 57.95 137.90 57.95 138.20L57.95 143.51C57.95 143.82 58.21 144.08 58.52 144.08C58.84 144.08 59.10 143.82 59.10 143.51L59.10 140.49C59.10 139.42 59.67 138.59 60.68 138.59C61.61 138.59 62.18 139.32 62.18 140.36L62.18 143.51C62.18 143.82 62.44 144.08 62.76 144.08C63.08 144.08 63.34 143.82 63.34 143.51ZM70.84 138.20C70.84 137.90 70.58 137.64 70.28 137.64C69.95 137.64 69.69 137.90 69.69 138.20L69.69 138.63C69.18 137.96 68.45 137.56 67.62 137.56C65.99 137.56 64.84 138.79 64.84 140.81C64.84 142.86 66.01 144.05 67.62 144.05C68.48 144.05 69.22 143.60 69.69 142.96L69.69 143.79C69.69 145.13 68.72 145.60 67.75 145.60C67.06 145.60 66.51 145.46 66.03 145.05C65.94 144.99 65.85 144.96 65.73 144.96C65.47 144.96 65.24 145.18 65.24 145.46C65.24 145.59 65.29 145.70 65.37 145.78C65.98 146.37 66.86 146.55 67.75 146.55C69.28 146.55 70.84 145.91 70.84 143.75ZM69.69 140.83C69.69 142.12 68.84 143.03 67.80 143.03C66.63 143.03 66.03 142.10 66.03 140.81C66.03 139.50 66.63 138.59 67.80 138.59C68.84 138.59 69.69 139.49 69.69 140.78ZM78.51 140.65C78.51 140.40 78.45 140.13 78.40 139.92C78.03 138.51 76.99 137.56 75.47 137.56C73.65 137.56 72.34 139.03 72.34 140.85C72.34 142.83 73.70 144.16 75.57 144.16C76.50 144.16 78.11 143.68 78.11 142.97C78.11 142.53 77.67 142.43 77.38 142.57C76.93 142.91 76.22 143.22 75.69 143.22C74.42 143.22 73.64 142.35 73.55 141.27L77.91 141.27C78.24 141.27 78.51 140.96 78.51 140.65ZM73.55 140.41C73.60 139.54 74.21 138.50 75.46 138.50C76.80 138.50 77.37 139.57 77.39 140.41ZM85.64 135.81C85.64 135.51 85.38 135.25 85.08 135.25C84.74 135.25 84.48 135.51 84.48 135.81L84.48 138.63C83.97 137.96 83.36 137.56 82.41 137.56C80.77 137.56 79.62 138.85 79.62 140.87C79.62 142.92 80.79 144.16 82.41 144.16C83.39 144.16 84.00 143.73 84.48 143.10L84.48 143.51C84.48 143.82 84.74 144.08 85.05 144.08C85.38 144.08 85.64 143.82 85.64 143.51ZM84.48 140.91C84.48 142.21 83.83 143.13 82.71 143.13C81.54 143.13 80.81 142.18 80.81 140.87C80.81 139.55 81.54 138.59 82.71 138.59C83.83 138.59 84.48 139.54 84.48 140.83ZM96.76 135.91C96.76 135.58 96.52 135.33 96.20 135.33L91.73 135.33C91.27 135.33 90.89 135.71 90.89 136.17L90.89 143.44C90.89 143.79 91.17 144.08 91.52 144.08C91.89 144.08 92.17 143.79 92.17 143.44L92.17 140.15L96.11 140.15C96.43 140.15 96.67 139.89 96.67 139.59C96.67 139.25 96.43 139.01 96.11 139.01L92.17 139.01L92.17 136.47L96.20 136.47C96.52 136.47 96.76 136.21 96.76 135.91ZM98.65 135.39C98.25 135.39 97.91 135.73 97.91 136.15C97.91 136.55 98.25 136.89 98.65 136.89C99.06 136.89 99.39 136.55 99.39 136.15C99.39 135.73 99.06 135.39 98.65 135.39ZM99.23 138.20C99.23 137.90 98.97 137.64 98.67 137.64C98.34 137.64 98.08 137.90 98.08 138.20L98.08 143.51C98.08 143.82 98.34 144.08 98.65 144.08C98.97 144.08 99.23 143.82 99.23 143.51ZM102.26 135.81C102.26 135.51 102.00 135.25 101.70 135.25C101.37 135.25 101.11 135.51 101.11 135.81L101.11 143.51C101.11 143.82 101.37 144.08 101.68 144.08C102.00 144.08 102.26 143.82 102.26 143.51ZM109.93 140.65C109.93 140.40 109.87 140.13 109.82 139.92C109.45 138.51 108.41 137.56 106.89 137.56C105.07 137.56 103.76 139.03 103.76 140.85C103.76 142.83 105.12 144.16 106.99 144.16C107.92 144.16 109.53 143.68 109.53 142.97C109.53 142.53 109.09 142.43 108.80 142.57C108.35 142.91 107.64 143.22 107.11 143.22C105.84 143.22 105.06 142.35 104.97 141.27L109.33 141.27C109.66 141.27 109.93 140.96 109.93 140.65ZM104.97 140.41C105.02 139.54 105.63 138.50 106.88 138.50C108.22 138.50 108.79 139.57 108.81 140.41ZM116.02 142.10C115.90 139.89 112.30 140.50 112.17 139.37C112.12 138.87 112.66 138.49 113.46 138.49C114.05 138.49 114.61 138.68 115.02 138.97C115.09 139.03 115.18 139.06 115.29 139.06C115.52 139.06 115.74 138.87 115.74 138.60C115.74 138.50 115.70 138.40 115.63 138.32C115.13 137.84 114.34 137.56 113.44 137.56C111.91 137.56 110.99 138.29 111.05 139.41C111.17 141.52 114.76 140.87 114.89 142.26C114.94 142.83 114.42 143.23 113.52 143.23C112.87 143.23 112.22 142.97 111.75 142.63C111.66 142.57 111.57 142.54 111.45 142.54C111.18 142.54 110.95 142.75 110.95 143.03C110.95 143.16 111.00 143.26 111.09 143.34C111.66 143.91 112.61 144.16 113.47 144.16C115.13 144.16 116.08 143.30 116.02 142.10Z" fill="#e6edf3" /><path d="M177.00 141.15C177.00 139.40 175.69 138.34 174.22 138.34C173.42 138.34 172.72 138.66 172.31 139.07L172.31 136.95L175.70 136.95C176.13 136.95 176.49 136.59 176.49 136.15C176.49 135.69 176.13 135.33 175.70 135.33L171.50 135.33C170.93 135.33 170.46 135.80 170.46 136.37L170.46 139.70C170.46 140.20 170.82 140.58 171.40 140.58C171.66 140.58 171.90 140.50 172.11 140.36C172.58 140.05 173.03 139.94 173.57 139.94C174.55 139.94 175.13 140.46 175.13 141.23C175.13 141.93 174.54 142.52 173.51 142.52C172.89 142.52 172.29 142.35 171.78 142.04C171.63 141.95 171.46 141.89 171.30 141.89C170.85 141.89 170.42 142.25 170.42 142.73C170.42 142.86 170.46 142.99 170.52 143.10C170.93 143.78 172.40 144.16 173.53 144.16C175.62 144.16 177.00 143.00 177.00 141.15ZM185.07 139.67C185.07 137.44 183.95 135.20 181.48 135.20C179 135.20 177.90 137.44 177.90 139.67C177.90 141.91 179 144.16 181.48 144.16C183.95 144.16 185.07 141.91 185.07 139.67ZM183.19 139.67C183.19 141.27 182.72 142.52 181.48 142.52C180.24 142.52 179.77 141.27 179.77 139.67C179.77 138.07 180.24 136.84 181.48 136.84C182.72 136.84 183.19 138.07 183.19 139.67ZM192.42 136.26C192.42 135.72 191.97 135.33 191.52 135.33L186.55 135.33C186.11 135.33 185.75 135.69 185.75 136.12C185.75 136.59 186.11 136.95 186.55 136.95L190.19 136.95L187.61 142.82C187.55 142.93 187.53 143.05 187.53 143.17C187.53 143.64 187.91 144.08 188.45 144.08C188.83 144.08 189.18 143.86 189.32 143.52L192.34 136.63C192.39 136.53 192.42 136.40 192.42 136.26ZM194.17 143.36C194.17 142.52 193.61 142.04 193.00 142.04C192.46 142.04 191.99 142.50 191.99 143.08C191.99 143.64 192.38 144.01 192.87 144.01C192.96 144.01 193.08 143.99 193.12 143.97C193.04 144.31 192.75 144.72 192.42 144.99C192.33 145.07 192.29 145.17 192.29 145.27C192.29 145.53 192.56 145.69 192.78 145.69C192.91 145.69 193.03 145.65 193.12 145.56C193.77 144.97 194.17 144.19 194.17 143.36ZM202.05 139.67C202.05 137.44 200.93 135.20 198.46 135.20C195.98 135.20 194.87 137.44 194.87 139.67C194.87 141.91 195.98 144.16 198.46 144.16C200.93 144.16 202.05 141.91 202.05 139.67ZM200.16 139.67C200.16 141.27 199.70 142.52 198.46 142.52C197.21 142.52 196.75 141.27 196.75 139.67C196.75 138.07 197.21 136.84 198.46 136.84C199.70 136.84 200.16 138.07 200.16 139.67ZM209.91 141.62C209.91 140.44 209.21 139.76 208.69 139.53C209.13 139.32 209.77 138.83 209.77 137.49C209.77 135.99 208.16 135.20 206.43 135.20C204.69 135.20 203.09 135.99 203.09 137.49C203.09 138.83 203.71 139.32 204.16 139.53C203.64 139.76 202.95 140.44 202.95 141.62C202.95 143.25 204.61 144.16 206.43 144.16C208.25 144.16 209.91 143.23 209.91 141.62ZM207.89 137.77C207.89 138.42 207.22 138.80 206.43 138.80C205.64 138.80 204.96 138.42 204.96 137.77C204.96 137.15 205.57 136.78 206.43 136.78C207.28 136.78 207.89 137.15 207.89 137.77ZM208.04 141.52C208.04 142.15 207.31 142.57 206.43 142.57C205.52 142.57 204.82 142.15 204.82 141.52C204.82 140.79 205.62 140.36 206.43 140.36C207.22 140.36 208.04 140.79 208.04 141.52ZM217.43 141.63C217.53 140.07 216.48 139.53 216.48 139.53C216.48 139.53 217.44 139.03 217.34 137.55C217.23 136.11 216.09 135.20 214.06 135.20C212.87 135.20 211.93 135.55 211.21 136.12C211.03 136.26 210.94 136.47 210.94 136.68C210.94 137.14 211.34 137.46 211.75 137.46C211.90 137.46 212.06 137.42 212.19 137.33C212.70 137.01 213.27 136.84 213.87 136.84C214.78 136.84 215.48 137.04 215.48 137.73C215.48 138.45 215.05 138.79 214.18 138.79C213.55 138.79 213.28 139.14 213.28 139.59C213.28 140.05 213.55 140.41 214.23 140.41C215.11 140.41 215.62 140.72 215.62 141.41C215.62 142.06 215.04 142.52 213.98 142.52C213.39 142.52 212.70 142.31 212.12 141.97C211.98 141.88 211.83 141.84 211.67 141.84C211.24 141.84 210.82 142.19 210.82 142.66C210.82 142.79 210.86 142.91 210.93 143.01C211.33 143.69 212.80 144.16 214.05 144.16C216.13 144.16 217.32 143.26 217.43 141.63Z" fill="#9aa7b4" /></g><rect x="18" y="166" width="384" height="8" rx="4" fill="#21262d" /><rect x="18.00" y="166" width="266.38" height="8" rx="4" fill="#00d559" /><rect x="284.38" y="166" width="117.62" height="8" rx="4" fill="#00a5fe" /></svg>