<svg xmlns="http://www.w3.org/2000/svg" width="420" height="184" viewBox="0 0 420 184" role="img"><rect x="0.5" y="0.5" width="419" height="183" rx="10" fill="#161b22" stroke="#30363d" /><path d="M30.72 33.60C30.72 32.83 30.10 32.21 29.37 32.21L28.69 32.21L28.69 24.95C28.69 23.59 27.37 22.97 26.03 23.19C25.08 23.19 24.14 23.70 23.63 24.49L18.73 32.24C18.53 32.54 18.44 32.90 18.44 33.25C18.44 34.24 19.17 34.96 20.05 34.96L25.57 34.96L25.57 36.59C25.57 37.43 26.27 38.13 27.11 38.13C27.99 38.13 28.69 37.43 28.69 36.59L28.69 34.96L29.37 34.96C30.10 34.96 30.72 34.35 30.72 33.60ZM21.61 32.21L25.57 26.10L25.57 32.21ZM43.83 33.23C43.83 30.10 41.47 28.45 38.83 28.45C37.01 28.45 35.64 29.35 35.07 30.34C35.05 30.23 35.05 30.15 35.05 30.04C35.05 27.70 36.57 25.88 38.72 25.88C39.47 25.88 40.09 26.01 40.64 26.30C40.84 26.41 41.06 26.45 41.28 26.45C41.96 26.45 42.71 25.92 42.71 25.09C42.71 24.87 42.64 24.67 42.55 24.49C42.00 23.52 40.15 23.11 38.72 23.11C34.39 23.11 31.88 26.25 31.88 30.70C31.88 34.83 33.75 38.26 38.22 38.26C41.56 38.26 43.83 36.09 43.83 33.23ZM40.66 33.34C40.66 34.44 39.85 35.49 38.15 35.49C36.77 35.49 35.73 34.55 35.73 33.18C35.73 31.86 36.79 30.92 38.15 30.92C39.56 30.92 40.66 31.86 40.66 33.34ZM49.24 36.92C49.24 35.49 48.29 34.68 47.26 34.68C46.34 34.68 45.54 35.47 45.54 36.44C45.54 37.38 46.20 38.02 47.04 38.02C47.19 38.02 47.39 37.98 47.46 37.96C47.33 38.53 46.84 39.21 46.27 39.67C46.12 39.80 46.05 39.98 46.05 40.16C46.05 40.60 46.51 40.86 46.89 40.86C47.11 40.86 47.30 40.79 47.46 40.64C48.56 39.65 49.24 38.33 49.24 36.92ZM62.37 33.23C62.37 30.10 60.02 28.45 57.38 28.45C55.55 28.45 54.19 29.35 53.62 30.34C53.60 30.23 53.60 30.15 53.60 30.04C53.60 27.70 55.11 25.88 57.27 25.88C58.02 25.88 58.63 26.01 59.18 26.30C59.38 26.41 59.60 26.45 59.82 26.45C60.50 26.45 61.25 25.92 61.25 25.09C61.25 24.87 61.19 24.67 61.10 24.49C60.55 23.52 58.70 23.11 57.27 23.11C52.94 23.11 50.43 26.25 50.43 30.70C50.43 34.83 52.30 38.26 56.76 38.26C60.11 38.26 62.37 36.09 62.37 33.23ZM59.21 33.34C59.21 34.44 58.39 35.49 56.70 35.49C55.31 35.49 54.28 34.55 54.28 33.18C54.28 31.86 55.33 30.92 56.70 30.92C58.11 30.92 59.21 31.86 59.21 33.34ZM63.72 28.12C63.72 31.25 66.07 32.90 68.71 32.90C70.54 32.90 71.90 31.99 72.47 31.00C72.49 31.11 72.49 31.20 72.49 31.31C72.49 33.64 70.98 35.47 68.82 35.47C68.07 35.47 67.46 35.34 66.91 35.05C66.71 34.94 66.49 34.90 66.27 34.90C65.59 34.90 64.84 35.43 64.84 36.26C64.84 36.48 64.90 36.68 64.99 36.86C65.54 37.82 67.39 38.24 68.82 38.24C73.15 38.24 75.66 35.10 75.66 30.65C75.66 26.52 73.79 23.08 69.33 23.08C65.98 23.08 63.72 25.26 63.72 28.12ZM66.88 28.01C66.88 26.91 67.70 25.86 69.39 25.86C70.78 25.86 71.81 26.80 71.81 28.17C71.81 29.49 70.76 30.43 69.39 30.43C67.98 30.43 66.88 29.49 66.88 28.01ZM88.11 24.91C88.11 23.99 87.37 23.33 86.60 23.33L78.19 23.33C77.44 23.33 76.83 23.94 76.83 24.67C76.83 25.46 77.44 26.08 78.19 26.08L84.35 26.08L79.97 36.00C79.89 36.20 79.84 36.39 79.84 36.59C79.84 37.38 80.48 38.13 81.40 38.13C82.04 38.13 82.64 37.76 82.88 37.19L87.98 25.53C88.07 25.35 88.11 25.13 88.11 24.91ZM102.61 23.08C98.21 23.08 94.80 26.16 94.80 30.67C94.80 35.18 98.21 38.26 102.61 38.26C105.14 38.26 106.84 37.16 107.94 35.82C108.16 35.58 108.24 35.27 108.24 34.96C108.24 34.22 107.61 33.60 106.81 33.60C106.37 33.60 105.93 33.78 105.63 34.11C104.81 35.01 103.71 35.49 102.61 35.49C99.95 35.49 98.01 33.45 98.01 30.67C98.01 27.90 99.95 25.86 102.61 25.86C103.71 25.86 104.79 26.38 105.63 27.26C105.93 27.59 106.35 27.77 106.77 27.77C107.58 27.77 108.27 27.15 108.27 26.36C108.27 26.08 108.16 25.75 107.96 25.50C106.84 24.16 105.14 23.08 102.61 23.08ZM121.11 32.68C121.11 29.66 119.00 27.11 115.48 27.11C111.98 27.11 109.87 29.66 109.87 32.68C109.87 35.71 111.98 38.26 115.48 38.26C119.00 38.26 121.11 35.71 121.11 32.68ZM118.21 32.68C118.21 34.35 117.22 35.78 115.48 35.78C113.74 35.78 112.78 34.35 112.78 32.68C112.78 31.03 113.74 29.60 115.48 29.60C117.22 29.60 118.21 31.03 118.21 32.68ZM139.18 31.20C139.18 29.02 137.66 27.11 135.26 27.11C133.41 27.11 132.36 28.19 131.96 28.94C131.56 28.17 130.57 27.11 128.79 27.11C127.16 27.11 126.42 27.70 125.98 28.28L125.98 28.25C125.98 27.95 125.58 27.24 124.61 27.24C123.80 27.24 123.18 27.86 123.18 28.61L123.18 36.75C123.18 37.52 123.80 38.13 124.57 38.13C125.36 38.13 125.98 37.52 125.98 36.75L125.98 31.73C125.98 30.70 126.77 29.60 127.96 29.60C129.10 29.60 129.76 30.74 129.76 31.73L129.76 36.75C129.76 37.52 130.38 38.13 131.15 38.13C131.96 38.13 132.58 37.52 132.58 36.75L132.58 31.93C132.58 30.70 133.35 29.60 134.56 29.60C135.70 29.60 136.36 30.74 136.36 31.73L136.36 36.75C136.36 37.52 136.98 38.13 137.75 38.13C138.56 38.13 139.18 37.52 139.18 36.75ZM157.92 31.20C157.92 29.02 156.40 27.11 154.00 27.11C152.16 27.11 151.10 28.19 150.70 28.94C150.31 28.17 149.32 27.11 147.54 27.11C145.91 27.11 145.16 27.70 144.72 28.28L144.72 28.25C144.72 27.95 144.32 27.24 143.36 27.24C142.54 27.24 141.93 27.86 141.93 28.61L141.93 36.75C141.93 37.52 142.54 38.13 143.31 38.13C144.10 38.13 144.72 37.52 144.72 36.75L144.72 31.73C144.72 30.70 145.51 29.60 146.70 29.60C147.84 29.60 148.50 30.74 148.50 31.73L148.50 36.75C148.50 37.52 149.12 38.13 149.89 38.13C150.70 38.13 151.32 37.52 151.32 36.75L151.32 31.93C151.32 30.70 152.09 29.60 153.30 29.60C154.44 29.60 155.10 30.74 155.10 31.73L155.10 36.75C155.10 37.52 155.72 38.13 156.49 38.13C157.30 38.13 157.92 37.52 157.92 36.75ZM162.06 22.91C161.15 22.91 160.38 23.63 160.38 24.56C160.38 25.48 161.15 26.23 162.06 26.23C162.98 26.23 163.73 25.48 163.73 24.56C163.73 23.63 162.98 22.91 162.06 22.91ZM163.46 28.61C163.46 27.86 162.85 27.24 162.10 27.24C161.29 27.24 160.67 27.86 160.67 28.61L160.67 36.75C160.67 37.52 161.29 38.13 162.06 38.13C162.85 38.13 163.46 37.52 163.46 36.75ZM172.04 36.99C172.04 36.31 171.60 35.78 170.81 35.78L170.57 35.78C170.13 35.78 169.60 35.45 169.60 34.61L169.60 29.82L170.70 29.82C171.34 29.82 171.89 29.27 171.89 28.61C171.89 27.92 171.34 27.37 170.70 27.37L169.60 27.37L169.60 25.72C169.60 24.95 168.99 24.34 168.22 24.34C167.40 24.34 166.79 24.95 166.79 25.72L166.79 27.37L166.10 27.37C165.44 27.37 164.89 27.92 164.89 28.56C164.89 29.27 165.44 29.82 166.10 29.82L166.79 29.82L166.79 35.36C166.79 37.25 167.84 38.26 169.80 38.26C171.63 38.26 172.04 37.69 172.04 36.99ZM182.10 34.85C182.10 30.56 175.81 31.88 175.81 30.30C175.81 29.71 176.47 29.24 177.48 29.24C178.34 29.24 179.19 29.49 179.88 29.88C180.03 29.97 180.23 30.01 180.40 30.01C180.98 30.01 181.50 29.55 181.50 28.96C181.50 28.76 181.44 28.56 181.33 28.41C180.73 27.55 178.84 27.11 177.46 27.11C174.66 27.11 173.10 28.67 173.10 30.45C173.10 34.63 179.41 33.20 179.41 34.96C179.41 35.62 178.84 36.11 177.63 36.11C176.71 36.11 175.61 35.73 174.77 35.25C174.60 35.14 174.40 35.10 174.20 35.10C173.61 35.10 173.03 35.60 173.03 36.26C173.03 36.48 173.10 36.68 173.23 36.86C173.89 37.80 176.11 38.26 177.50 38.26C180.45 38.26 182.10 36.79 182.10 34.85Z" fill="#e6edf3" /><path d="M20.26 49.88C20.26 49.54 19.98 49.25 19.64 49.25C19.26 49.25 18.98 49.54 18.98 49.88L18.98 57.44C18.98 57.79 19.26 58.08 19.61 58.08C19.98 58.08 20.26 57.79 20.26 57.44ZM27.55 53.97C27.55 52.64 26.59 51.56 25.27 51.56C24.18 51.56 23.62 52.10 23.32 52.60L23.32 52.20C23.32 51.90 23.06 51.64 22.76 51.64C22.42 51.64 22.16 51.90 22.16 52.20L22.16 57.51C22.16 57.82 22.42 58.08 22.73 58.08C23.06 58.08 23.32 57.82 23.32 57.51L23.32 54.49C23.32 53.42 23.89 52.59 24.89 52.59C25.83 52.59 26.40 53.32 26.40 54.36L26.40 57.51C26.40 57.82 26.66 58.08 26.97 58.08C27.30 58.08 27.55 57.82 27.55 57.51ZM38.97 49.91C38.97 49.58 38.72 49.33 38.41 49.33L32.70 49.33C32.39 49.33 32.14 49.58 32.14 49.89C32.14 50.21 32.39 50.47 32.70 50.47L34.91 50.47L34.91 57.44C34.91 57.79 35.20 58.08 35.55 58.08C35.91 58.08 36.20 57.79 36.20 57.44L36.20 50.47L38.41 50.47C38.72 50.47 38.97 50.21 38.97 49.91ZM44.74 54.85C44.74 53.05 43.53 51.56 41.57 51.56C39.62 51.56 38.41 53.05 38.41 54.85C38.41 56.66 39.62 58.16 41.57 58.16C43.53 58.16 44.74 56.66 44.74 54.85ZM43.53 54.85C43.53 56.06 42.83 57.13 41.57 57.13C40.32 57.13 39.61 56.06 39.61 54.85C39.61 53.66 40.32 52.59 41.57 52.59C42.83 52.59 43.53 53.66 43.53 54.85ZM49.16 57.55C49.16 57.27 48.95 57.06 48.67 57.06C48.54 57.06 48.38 57.13 48.24 57.13C47.86 57.13 47.63 56.83 47.63 56.35L47.63 52.73L48.48 52.73C48.76 52.73 48.98 52.51 48.98 52.24C48.98 51.94 48.76 51.72 48.48 51.72L47.63 51.72L47.63 50.49C47.63 50.19 47.37 49.93 47.05 49.93C46.72 49.93 46.46 50.19 46.46 50.49L46.46 51.72L45.85 51.72C45.56 51.72 45.34 51.94 45.34 52.22C45.34 52.51 45.56 52.73 45.85 52.73L46.46 52.73L46.46 56.62C46.46 57.61 46.98 58.16 47.96 58.16C48.65 58.16 49.16 57.96 49.16 57.55ZM55.26 53.75C55.26 52.15 54.09 51.56 52.74 51.56C51.89 51.56 50.94 51.84 50.34 52.44C50.27 52.53 50.23 52.63 50.23 52.73C50.23 53.01 50.47 53.19 50.71 53.19C50.80 53.19 50.90 53.15 50.99 53.09C51.46 52.72 51.98 52.54 52.57 52.54C53.45 52.54 54.10 53.01 54.10 53.80L54.10 54.15L52.29 54.15C50.99 54.15 49.85 54.66 49.85 56.08C49.85 57.45 50.99 58.16 52.03 58.16C53.01 58.16 53.59 57.86 54.10 57.30L54.10 57.51C54.10 57.88 54.40 58.08 54.63 58.08L54.67 58.08C55.00 58.08 55.26 57.82 55.26 57.51ZM54.10 54.96L54.10 55.84C54.10 56.58 53.26 57.34 52.35 57.34C51.50 57.34 51.02 56.83 51.02 56.10C51.02 55.35 51.62 54.96 52.61 54.96ZM58.27 49.81C58.27 49.51 58.01 49.25 57.71 49.25C57.38 49.25 57.12 49.51 57.12 49.81L57.12 57.51C57.12 57.82 57.38 58.08 57.69 58.08C58.01 58.08 58.27 57.82 58.27 57.51Z" fill="#9aa7b4" /><line x1="18" y1="76" x2="48" y2="76" stroke="#9aa7b4" stroke-opacity="0.4" /><g aria-label="Additions: 27,751,524"><circle cx="22" cy="96" r="4" fill="#00d559" /><path d="M42.28 99.39C42.28 99.31 42.27 99.23 42.23 99.14L39.36 91.94C39.19 91.51 38.76 91.24 38.30 91.25C37.85 91.25 37.43 91.52 37.28 91.94L34.40 99.14C34.38 99.23 34.36 99.31 34.36 99.39C34.36 99.74 34.65 100.08 35.05 100.08C35.33 100.08 35.57 99.92 35.68 99.66L36.25 98.19L40.40 98.19L40.97 99.66C41.07 99.92 41.32 100.08 41.59 100.08C42.01 100.08 42.28 99.71 42.28 99.39ZM38.32 92.64L40.03 97.06L36.61 97.06ZM49.22 91.81C49.22 91.51 48.96 91.25 48.66 91.25C48.33 91.25 48.07 91.51 48.07 91.81L48.07 94.63C47.56 93.95 46.95 93.56 46.00 93.56C44.36 93.56 43.20 94.85 43.20 96.87C43.20 98.92 44.37 100.16 46.00 100.16C46.97 100.16 47.59 99.73 48.07 99.10L48.07 99.51C48.07 99.82 48.33 100.08 48.64 100.08C48.96 100.08 49.22 99.82 49.22 99.51ZM48.07 96.91C48.07 98.21 47.42 99.13 46.30 99.13C45.13 99.13 44.40 98.18 44.40 96.87C44.40 95.55 45.13 94.59 46.30 94.59C47.42 94.59 48.07 95.54 48.07 96.83ZM56.74 91.81C56.74 91.51 56.48 91.25 56.18 91.25C55.84 91.25 55.58 91.51 55.58 91.81L55.58 94.63C55.07 93.95 54.46 93.56 53.51 93.56C51.88 93.56 50.72 94.85 50.72 96.87C50.72 98.92 51.89 100.16 53.51 100.16C54.49 100.16 55.10 99.73 55.58 99.10L55.58 99.51C55.58 99.82 55.84 100.08 56.15 100.08C56.48 100.08 56.74 99.82 56.74 99.51ZM55.58 96.91C55.58 98.21 54.93 99.13 53.81 99.13C52.64 99.13 51.91 98.18 51.91 96.87C51.91 95.55 52.64 94.59 53.81 94.59C54.93 94.59 55.58 95.54 55.58 96.83ZM59.18 91.39C58.78 91.39 58.44 91.73 58.44 92.15C58.44 92.55 58.78 92.89 59.18 92.89C59.60 92.89 59.92 92.55 59.92 92.15C59.92 91.73 59.60 91.39 59.18 91.39ZM59.77 94.20C59.77 93.90 59.51 93.64 59.21 93.64C58.87 93.64 58.61 93.90 58.61 94.20L58.61 99.51C58.61 99.82 58.87 100.08 59.18 100.08C59.51 100.08 59.77 99.82 59.77 99.51ZM64.56 99.55C64.56 99.27 64.36 99.06 64.07 99.06C63.94 99.06 63.78 99.13 63.64 99.13C63.26 99.13 63.03 98.83 63.03 98.35L63.03 94.73L63.89 94.73C64.16 94.73 64.38 94.51 64.38 94.24C64.38 93.94 64.16 93.72 63.89 93.72L63.03 93.72L63.03 92.49C63.03 92.19 62.77 91.93 62.46 91.93C62.12 91.93 61.86 92.19 61.86 92.49L61.86 93.72L61.25 93.72C60.96 93.72 60.74 93.94 60.74 94.22C60.74 94.51 60.96 94.73 61.25 94.73L61.86 94.73L61.86 98.62C61.86 99.61 62.38 100.16 63.37 100.16C64.06 100.16 64.56 99.96 64.56 99.55ZM66.19 91.39C65.79 91.39 65.45 91.73 65.45 92.15C65.45 92.55 65.79 92.89 66.19 92.89C66.60 92.89 66.93 92.55 66.93 92.15C66.93 91.73 66.60 91.39 66.19 91.39ZM66.77 94.20C66.77 93.90 66.51 93.64 66.21 93.64C65.88 93.64 65.62 93.90 65.62 94.20L65.62 99.51C65.62 99.82 65.88 100.08 66.19 100.08C66.51 100.08 66.77 99.82 66.77 99.51ZM74.60 96.85C74.60 95.05 73.39 93.56 71.43 93.56C69.48 93.56 68.27 95.05 68.27 96.85C68.27 98.66 69.48 100.16 71.43 100.16C73.39 100.16 74.60 98.66 74.60 96.85ZM73.39 96.85C73.39 98.06 72.69 99.13 71.43 99.13C70.18 99.13 69.46 98.06 69.46 96.85C69.46 95.66 70.18 94.59 71.43 94.59C72.69 94.59 73.39 95.66 73.39 96.85ZM81.49 95.97C81.49 94.64 80.53 93.56 79.20 93.56C78.11 93.56 77.55 94.10 77.25 94.61L77.25 94.20C77.25 93.90 76.99 93.64 76.69 93.64C76.35 93.64 76.09 93.90 76.09 94.20L76.09 99.51C76.09 99.82 76.35 100.08 76.67 100.08C76.99 100.08 77.25 99.82 77.25 99.51L77.25 96.49C77.25 95.42 77.82 94.59 78.82 94.59C79.76 94.59 80.33 95.32 80.33 96.36L80.33 99.51C80.33 99.82 80.59 100.08 80.90 100.08C81.23 100.08 81.49 99.82 81.49 99.51ZM87.96 98.10C87.85 95.89 84.24 96.50 84.11 95.37C84.06 94.86 84.61 94.49 85.40 94.49C86 94.49 86.56 94.68 86.96 94.97C87.04 95.03 87.13 95.06 87.23 95.06C87.47 95.06 87.69 94.86 87.69 94.61C87.69 94.50 87.65 94.40 87.57 94.32C87.08 93.84 86.29 93.56 85.39 93.56C83.86 93.56 82.93 94.29 83.00 95.41C83.11 97.52 86.70 96.87 86.83 98.26C86.88 98.83 86.36 99.23 85.47 99.23C84.82 99.23 84.17 98.97 83.70 98.64C83.61 98.57 83.52 98.54 83.40 98.54C83.13 98.54 82.89 98.75 82.89 99.03C82.89 99.16 82.94 99.26 83.04 99.34C83.61 99.91 84.56 100.16 85.41 100.16C87.08 100.16 88.03 99.30 87.96 98.10Z" fill="#e6edf3" /><path d="M162.05 99.17C162.05 98.74 161.68 98.38 161.25 98.38L158.43 98.38C160.68 96.74 161.91 95.45 161.91 93.97C161.91 92.24 160.44 91.20 158.59 91.20C157.50 91.20 156.04 91.67 155.63 92.33C155.55 92.45 155.51 92.58 155.51 92.71C155.51 93.17 155.89 93.54 156.31 93.54C156.51 93.54 156.68 93.49 156.85 93.37C157.34 93.03 157.94 92.84 158.63 92.84C159.34 92.84 160.03 93.21 160.03 93.97C160.03 94.98 158.99 95.93 155.76 98.32C155.51 98.50 155.37 98.80 155.37 99.10C155.37 99.62 155.78 100 156.24 100L161.25 100C161.68 100 162.05 99.64 162.05 99.17ZM169.54 92.27C169.54 91.72 169.09 91.33 168.64 91.33L163.67 91.33C163.23 91.33 162.87 91.69 162.87 92.12C162.87 92.59 163.23 92.95 163.67 92.95L167.31 92.95L164.73 98.82C164.67 98.93 164.65 99.05 164.65 99.17C164.65 99.64 165.03 100.08 165.57 100.08C165.95 100.08 166.30 99.86 166.44 99.52L169.46 92.63C169.51 92.53 169.54 92.39 169.54 92.27ZM171.29 99.36C171.29 98.52 170.73 98.04 170.12 98.04C169.58 98.04 169.11 98.50 169.11 99.08C169.11 99.64 169.50 100.01 169.99 100.01C170.08 100.01 170.20 99.99 170.24 99.97C170.16 100.31 169.87 100.72 169.54 100.99C169.45 101.07 169.41 101.17 169.41 101.27C169.41 101.53 169.68 101.69 169.90 101.69C170.03 101.69 170.15 101.65 170.24 101.56C170.89 100.97 171.29 100.19 171.29 99.36ZM177.78 92.27C177.78 91.72 177.34 91.33 176.88 91.33L171.91 91.33C171.47 91.33 171.11 91.69 171.11 92.12C171.11 92.59 171.47 92.95 171.91 92.95L175.56 92.95L172.97 98.82C172.92 98.93 172.89 99.05 172.89 99.17C172.89 99.64 173.27 100.08 173.81 100.08C174.19 100.08 174.54 99.86 174.68 99.52L177.70 92.63C177.75 92.53 177.78 92.39 177.78 92.27ZM185.41 97.15C185.41 95.40 184.10 94.34 182.63 94.34C181.83 94.34 181.13 94.66 180.72 95.07L180.72 92.95L184.11 92.95C184.54 92.95 184.90 92.59 184.90 92.15C184.90 91.69 184.54 91.33 184.11 91.33L179.91 91.33C179.34 91.33 178.87 91.80 178.87 92.37L178.87 95.70C178.87 96.20 179.23 96.58 179.81 96.58C180.07 96.58 180.31 96.50 180.52 96.36C180.99 96.05 181.44 95.94 181.98 95.94C182.97 95.94 183.54 96.46 183.54 97.23C183.54 97.93 182.95 98.52 181.93 98.52C181.30 98.52 180.70 98.35 180.20 98.04C180.04 97.95 179.87 97.89 179.72 97.89C179.26 97.89 178.83 98.25 178.83 98.73C178.83 98.86 178.87 98.99 178.94 99.10C179.34 99.78 180.81 100.16 181.94 100.16C184.03 100.16 185.41 99.00 185.41 97.15ZM190.35 92.32C190.35 91.73 189.86 91.26 189.27 91.26C188.97 91.26 188.69 91.38 188.49 91.58L186.49 93.60C186.33 93.76 186.25 93.95 186.25 94.15C186.25 94.58 186.62 94.92 187.02 94.92C187.20 94.92 187.38 94.85 187.53 94.71L188.50 93.71L188.50 99.17C188.50 99.66 188.92 100.08 189.41 100.08C189.93 100.08 190.35 99.66 190.35 99.17ZM194.00 99.36C194.00 98.52 193.44 98.04 192.83 98.04C192.29 98.04 191.82 98.50 191.82 99.08C191.82 99.64 192.21 100.01 192.70 100.01C192.79 100.01 192.91 99.99 192.95 99.97C192.87 100.31 192.58 100.72 192.25 100.99C192.16 101.07 192.12 101.17 192.12 101.27C192.12 101.53 192.39 101.69 192.61 101.69C192.74 101.69 192.86 101.65 192.95 101.56C193.60 100.97 194.00 100.19 194.00 99.36ZM201.98 97.15C201.98 95.40 200.67 94.34 199.20 94.34C198.41 94.34 197.71 94.66 197.29 95.07L197.29 92.95L200.68 92.95C201.11 92.95 201.48 92.59 201.48 92.15C201.48 91.69 201.11 91.33 200.68 91.33L196.48 91.33C195.91 91.33 195.44 91.80 195.44 92.37L195.44 95.70C195.44 96.20 195.81 96.58 196.38 96.58C196.64 96.58 196.89 96.50 197.10 96.36C197.56 96.05 198.02 95.94 198.55 95.94C199.54 95.94 200.11 96.46 200.11 97.23C200.11 97.93 199.53 98.52 198.50 98.52C197.88 98.52 197.28 98.35 196.77 98.04C196.62 97.95 196.45 97.89 196.29 97.89C195.84 97.89 195.41 98.25 195.41 98.73C195.41 98.86 195.44 98.99 195.51 99.10C195.91 99.78 197.38 100.16 198.51 100.16C200.61 100.16 201.98 99.00 201.98 97.15ZM209.65 99.17C209.65 98.74 209.29 98.38 208.86 98.38L206.04 98.38C208.29 96.74 209.51 95.45 209.51 93.97C209.51 92.24 208.04 91.20 206.20 91.20C205.10 91.20 203.65 91.67 203.23 92.33C203.15 92.45 203.11 92.58 203.11 92.71C203.11 93.17 203.49 93.54 203.92 93.54C204.12 93.54 204.28 93.49 204.45 93.37C204.95 93.03 205.55 92.84 206.23 92.84C206.95 92.84 207.64 93.21 207.64 93.97C207.64 94.98 206.60 95.93 203.36 98.32C203.11 98.50 202.97 98.80 202.97 99.10C202.97 99.62 203.39 100 203.84 100L208.86 100C209.29 100 209.65 99.64 209.65 99.17ZM217.75 97.40C217.75 96.94 217.39 96.58 216.96 96.58L216.56 96.58L216.56 92.29C216.56 91.48 215.78 91.12 214.98 91.25C214.43 91.25 213.87 91.55 213.57 92.02L210.67 96.59C210.55 96.78 210.50 96.98 210.50 97.19C210.50 97.78 210.93 98.21 211.45 98.21L214.71 98.21L214.71 99.17C214.71 99.66 215.13 100.08 215.62 100.08C216.14 100.08 216.56 99.66 216.56 99.17L216.56 98.21L216.96 98.21C217.39 98.21 217.75 97.84 217.75 97.40ZM212.37 96.58L214.71 92.97L214.71 96.58Z" fill="#9aa7b4" /></g><g aria-label="Deletions: 12,835,648"><circle cx="22" cy="118" r="4" fill="#00a5fe" /><path d="M42.54 117.67C42.54 115.17 40.76 113.33 38.06 113.33L35.82 113.33C35.35 113.33 34.98 113.71 34.98 114.17L34.98 121.16C34.98 121.62 35.35 122 35.82 122L38.06 122C40.76 122 42.54 120.18 42.54 117.67ZM41.23 117.67C41.23 119.43 40.06 120.86 38.06 120.86L36.26 120.86L36.26 114.47L38.06 114.47C40.11 114.47 41.23 115.89 41.23 117.67ZM49.90 118.65C49.90 118.40 49.83 118.13 49.78 117.92C49.42 116.51 48.38 115.56 46.86 115.56C45.04 115.56 43.72 117.03 43.72 118.85C43.72 120.83 45.09 122.16 46.96 122.16C47.88 122.16 49.50 121.67 49.50 120.97C49.50 120.53 49.05 120.43 48.77 120.57C48.31 120.91 47.61 121.22 47.08 121.22C45.80 121.22 45.02 120.35 44.93 119.27L49.30 119.27C49.63 119.27 49.90 118.96 49.90 118.65ZM44.93 118.41C44.98 117.54 45.60 116.50 46.84 116.50C48.18 116.50 48.76 117.57 48.78 118.41ZM52.54 113.81C52.54 113.51 52.28 113.25 51.98 113.25C51.64 113.25 51.38 113.51 51.38 113.81L51.38 121.51C51.38 121.82 51.64 122.08 51.95 122.08C52.28 122.08 52.54 121.82 52.54 121.51ZM60.21 118.65C60.21 118.40 60.14 118.13 60.09 117.92C59.73 116.51 58.69 115.56 57.17 115.56C55.35 115.56 54.03 117.03 54.03 118.85C54.03 120.83 55.40 122.16 57.27 122.16C58.19 122.16 59.81 121.67 59.81 120.97C59.81 120.53 59.36 120.43 59.08 120.57C58.62 120.91 57.92 121.22 57.39 121.22C56.11 121.22 55.33 120.35 55.24 119.27L59.61 119.27C59.94 119.27 60.21 118.96 60.21 118.65ZM55.24 118.41C55.29 117.54 55.91 116.50 57.15 116.50C58.49 116.50 59.06 117.57 59.09 118.41ZM64.62 121.55C64.62 121.27 64.41 121.06 64.12 121.06C63.99 121.06 63.84 121.13 63.69 121.13C63.32 121.13 63.08 120.83 63.08 120.35L63.08 116.73L63.94 116.73C64.21 116.73 64.43 116.51 64.43 116.24C64.43 115.94 64.21 115.72 63.94 115.72L63.08 115.72L63.08 114.49C63.08 114.19 62.82 113.93 62.51 113.93C62.17 113.93 61.91 114.19 61.91 114.49L61.91 115.72L61.30 115.72C61.01 115.72 60.79 115.94 60.79 116.22C60.79 116.51 61.01 116.73 61.30 116.73L61.91 116.73L61.91 120.62C61.91 121.61 62.43 122.16 63.42 122.16C64.11 122.16 64.62 121.96 64.62 121.55ZM66.24 113.39C65.84 113.39 65.50 113.73 65.50 114.15C65.50 114.55 65.84 114.89 66.24 114.89C66.66 114.89 66.98 114.55 66.98 114.15C66.98 113.73 66.66 113.39 66.24 113.39ZM66.83 116.20C66.83 115.90 66.56 115.64 66.27 115.64C65.93 115.64 65.67 115.90 65.67 116.20L65.67 121.51C65.67 121.82 65.93 122.08 66.24 122.08C66.56 122.08 66.83 121.82 66.83 121.51ZM74.65 118.85C74.65 117.05 73.44 115.56 71.48 115.56C69.53 115.56 68.32 117.05 68.32 118.85C68.32 120.66 69.53 122.16 71.48 122.16C73.44 122.16 74.65 120.66 74.65 118.85ZM73.44 118.85C73.44 120.06 72.74 121.13 71.48 121.13C70.23 121.13 69.52 120.06 69.52 118.85C69.52 117.66 70.23 116.59 71.48 116.59C72.74 116.59 73.44 117.66 73.44 118.85ZM81.54 117.97C81.54 116.64 80.58 115.56 79.25 115.56C78.16 115.56 77.60 116.10 77.30 116.61L77.30 116.20C77.30 115.90 77.04 115.64 76.74 115.64C76.41 115.64 76.15 115.90 76.15 116.20L76.15 121.51C76.15 121.82 76.41 122.08 76.72 122.08C77.04 122.08 77.30 121.82 77.30 121.51L77.30 118.49C77.30 117.42 77.88 116.59 78.88 116.59C79.81 116.59 80.38 117.32 80.38 118.36L80.38 121.51C80.38 121.82 80.64 122.08 80.96 122.08C81.28 122.08 81.54 121.82 81.54 121.51ZM88.01 120.10C87.90 117.89 84.30 118.50 84.17 117.37C84.11 116.86 84.66 116.49 85.45 116.49C86.05 116.49 86.61 116.68 87.01 116.97C87.09 117.03 87.18 117.06 87.29 117.06C87.52 117.06 87.74 116.86 87.74 116.61C87.74 116.50 87.70 116.40 87.62 116.32C87.13 115.84 86.34 115.56 85.44 115.56C83.91 115.56 82.98 116.29 83.05 117.41C83.17 119.52 86.75 118.87 86.88 120.26C86.94 120.83 86.42 121.23 85.52 121.23C84.87 121.23 84.22 120.97 83.75 120.64C83.66 120.57 83.57 120.54 83.45 120.54C83.18 120.54 82.94 120.75 82.94 121.03C82.94 121.16 83.00 121.26 83.09 121.34C83.66 121.91 84.61 122.16 85.47 122.16C87.13 122.16 88.08 121.30 88.01 120.10Z" fill="#e6edf3" /><path d="M156.00 114.32C156.00 113.73 155.51 113.26 154.92 113.26C154.62 113.26 154.34 113.38 154.14 113.58L152.14 115.60C151.99 115.76 151.91 115.95 151.91 116.15C151.91 116.58 152.27 116.92 152.67 116.92C152.86 116.92 153.04 116.85 153.18 116.71L154.16 115.71L154.16 121.17C154.16 121.66 154.57 122.08 155.07 122.08C155.59 122.08 156.00 121.66 156.00 121.17ZM164.08 121.17C164.08 120.74 163.71 120.38 163.28 120.38L160.46 120.38C162.71 118.74 163.93 117.45 163.93 115.97C163.93 114.24 162.46 113.20 160.62 113.20C159.53 113.20 158.07 113.67 157.65 114.33C157.58 114.45 157.54 114.58 157.54 114.71C157.54 115.17 157.91 115.54 158.34 115.54C158.54 115.54 158.71 115.49 158.88 115.37C159.37 115.03 159.97 114.84 160.66 114.84C161.37 114.84 162.06 115.21 162.06 115.97C162.06 116.98 161.02 117.93 157.78 120.32C157.54 120.50 157.39 120.80 157.39 121.10C157.39 121.62 157.81 122 158.26 122L163.28 122C163.71 122 164.08 121.64 164.08 121.17ZM167.46 121.36C167.46 120.52 166.90 120.04 166.29 120.04C165.74 120.04 165.27 120.50 165.27 121.08C165.27 121.64 165.66 122.01 166.16 122.01C166.25 122.01 166.36 121.99 166.40 121.97C166.32 122.31 166.04 122.72 165.70 122.99C165.61 123.07 165.57 123.17 165.57 123.27C165.57 123.53 165.84 123.69 166.06 123.69C166.19 123.69 166.31 123.65 166.40 123.56C167.05 122.97 167.46 122.19 167.46 121.36ZM175.41 119.62C175.41 118.44 174.71 117.76 174.19 117.53C174.63 117.32 175.27 116.83 175.27 115.49C175.27 113.99 173.66 113.20 171.93 113.20C170.19 113.20 168.59 113.99 168.59 115.49C168.59 116.83 169.21 117.32 169.65 117.53C169.13 117.76 168.44 118.44 168.44 119.62C168.44 121.25 170.11 122.16 171.93 122.16C173.75 122.16 175.41 121.23 175.41 119.62ZM173.38 115.77C173.38 116.42 172.72 116.80 171.93 116.80C171.13 116.80 170.46 116.42 170.46 115.77C170.46 115.15 171.07 114.78 171.93 114.78C172.77 114.78 173.38 115.15 173.38 115.77ZM173.54 119.52C173.54 120.15 172.81 120.57 171.93 120.57C171.02 120.57 170.32 120.15 170.32 119.52C170.32 118.79 171.12 118.36 171.93 118.36C172.72 118.36 173.54 118.79 173.54 119.52ZM182.93 119.63C183.03 118.07 181.98 117.53 181.98 117.53C181.98 117.53 182.94 117.03 182.83 115.55C182.73 114.11 181.59 113.20 179.56 113.20C178.36 113.20 177.43 113.55 176.71 114.12C176.53 114.27 176.44 114.47 176.44 114.68C176.44 115.14 176.84 115.46 177.25 115.46C177.40 115.46 177.56 115.42 177.69 115.33C178.19 115.01 178.77 114.84 179.36 114.84C180.27 114.84 180.98 115.05 180.98 115.73C180.98 116.45 180.55 116.79 179.68 116.79C179.05 116.79 178.78 117.14 178.78 117.59C178.78 118.05 179.05 118.41 179.73 118.41C180.61 118.41 181.12 118.72 181.12 119.41C181.12 120.06 180.53 120.52 179.48 120.52C178.88 120.52 178.19 120.31 177.62 119.97C177.48 119.88 177.32 119.84 177.17 119.84C176.74 119.84 176.32 120.19 176.32 120.66C176.32 120.79 176.36 120.91 176.43 121.01C176.83 121.69 178.30 122.16 179.55 122.16C181.63 122.16 182.82 121.26 182.93 119.63ZM190.95 119.15C190.95 117.40 189.63 116.34 188.16 116.34C187.37 116.34 186.67 116.66 186.25 117.07L186.25 114.95L189.65 114.95C190.08 114.95 190.44 114.59 190.44 114.15C190.44 113.69 190.08 113.33 189.65 113.33L185.45 113.33C184.88 113.33 184.41 113.80 184.41 114.37L184.41 117.70C184.41 118.20 184.77 118.58 185.34 118.58C185.60 118.58 185.85 118.50 186.06 118.36C186.53 118.05 186.98 117.94 187.51 117.94C188.50 117.94 189.07 118.46 189.07 119.23C189.07 119.93 188.49 120.52 187.46 120.52C186.84 120.52 186.24 120.35 185.73 120.04C185.58 119.95 185.41 119.89 185.25 119.89C184.80 119.89 184.37 120.25 184.37 120.73C184.37 120.86 184.41 120.99 184.47 121.10C184.88 121.78 186.34 122.16 187.48 122.16C189.57 122.16 190.95 121.00 190.95 119.15ZM194.20 121.36C194.20 120.52 193.64 120.04 193.03 120.04C192.48 120.04 192.01 120.50 192.01 121.08C192.01 121.64 192.40 122.01 192.90 122.01C192.99 122.01 193.10 121.99 193.14 121.97C193.07 122.31 192.78 122.72 192.44 122.99C192.35 123.07 192.31 123.17 192.31 123.27C192.31 123.53 192.58 123.69 192.81 123.69C192.94 123.69 193.05 123.65 193.14 123.56C193.79 122.97 194.20 122.19 194.20 121.36ZM201.96 119.18C201.96 117.33 200.57 116.36 199.01 116.36C197.93 116.36 197.12 116.89 196.78 117.48C196.77 117.41 196.77 117.36 196.77 117.29C196.77 115.92 197.67 114.84 198.94 114.84C199.38 114.84 199.75 114.91 200.07 115.08C200.19 115.15 200.32 115.17 200.45 115.17C200.85 115.17 201.29 114.86 201.29 114.37C201.29 114.24 201.26 114.12 201.20 114.02C200.88 113.45 199.79 113.20 198.94 113.20C196.38 113.20 194.90 115.06 194.90 117.68C194.90 120.13 196.00 122.16 198.64 122.16C200.62 122.16 201.96 120.87 201.96 119.18ZM200.09 119.24C200.09 119.89 199.60 120.52 198.60 120.52C197.78 120.52 197.17 119.96 197.17 119.15C197.17 118.37 197.80 117.81 198.60 117.81C199.44 117.81 200.09 118.37 200.09 119.24ZM209.88 119.40C209.88 118.94 209.51 118.58 209.08 118.58L208.68 118.58L208.68 114.29C208.68 113.48 207.90 113.12 207.11 113.25C206.55 113.25 205.99 113.55 205.69 114.02L202.79 118.59C202.67 118.78 202.62 118.98 202.62 119.19C202.62 119.78 203.05 120.21 203.57 120.21L206.83 120.21L206.83 121.17C206.83 121.66 207.25 122.08 207.74 122.08C208.26 122.08 208.68 121.66 208.68 121.17L208.68 120.21L209.08 120.21C209.51 120.21 209.88 119.84 209.88 119.40ZM204.49 118.58L206.83 114.97L206.83 118.58ZM217.54 119.62C217.54 118.44 216.84 117.76 216.32 117.53C216.76 117.32 217.40 116.83 217.40 115.49C217.40 113.99 215.79 113.20 214.06 113.20C212.32 113.20 210.72 113.99 210.72 115.49C210.72 116.83 211.34 117.32 211.79 117.53C211.27 117.76 210.58 118.44 210.58 119.62C210.58 121.25 212.24 122.16 214.06 122.16C215.88 122.16 217.54 121.23 217.54 119.62ZM215.52 115.77C215.52 116.42 214.85 116.80 214.06 116.80C213.27 116.80 212.59 116.42 212.59 115.77C212.59 115.15 213.20 114.78 214.06 114.78C214.91 114.78 215.52 115.15 215.52 115.77ZM215.67 119.52C215.67 120.15 214.94 120.57 214.06 120.57C213.15 120.57 212.45 120.15 212.45 119.52C212.45 118.79 213.25 118.36 214.06 118.36C214.85 118.36 215.67 118.79 215.67 119.52Z" fill="#9aa7b4" /></g><g aria-label="Changed Files: 498,499"><circle cx="22" cy="140" r="4" fill="#673bd6" /><path d="M39.11 135.19C36.59 135.19 34.60 137.01 34.60 139.67C34.60 142.34 36.59 144.16 39.11 144.16C40.46 144.16 41.40 143.60 42.07 142.87C42.18 142.76 42.23 142.62 42.23 142.47C42.23 142.15 41.97 141.87 41.63 141.87C41.46 141.87 41.28 141.95 41.18 142.08C40.64 142.67 39.88 143.01 39.11 143.01C37.29 143.01 35.94 141.61 35.94 139.67C35.94 137.72 37.29 136.33 39.11 136.33C39.86 136.33 40.67 136.69 41.18 137.28C41.28 137.42 41.46 137.49 41.62 137.49C41.96 137.49 42.23 137.21 42.23 136.89C42.23 136.73 42.18 136.59 42.07 136.47C41.41 135.73 40.46 135.19 39.11 135.19ZM49.17 139.94C49.17 138.62 48.22 137.56 46.90 137.56C45.79 137.56 45.22 138.10 44.92 138.60L44.92 135.81C44.92 135.51 44.66 135.25 44.36 135.25C44.02 135.25 43.76 135.51 43.76 135.81L43.76 143.51C43.76 143.82 44.02 144.08 44.34 144.08C44.66 144.08 44.92 143.82 44.92 143.51L44.92 140.56C44.92 139.38 45.54 138.59 46.53 138.59C47.47 138.59 48.01 139.29 48.01 140.33L48.01 143.51C48.01 143.82 48.27 144.08 48.59 144.08C48.91 144.08 49.17 143.82 49.17 143.51ZM56.09 139.75C56.09 138.15 54.92 137.56 53.56 137.56C52.72 137.56 51.77 137.84 51.17 138.44C51.09 138.53 51.06 138.63 51.06 138.74C51.06 139.01 51.30 139.19 51.54 139.19C51.63 139.19 51.73 139.15 51.82 139.09C52.29 138.72 52.81 138.54 53.40 138.54C54.28 138.54 54.93 139.01 54.93 139.80L54.93 140.15L53.12 140.15C51.82 140.15 50.68 140.66 50.68 142.08C50.68 143.45 51.82 144.16 52.86 144.16C53.84 144.16 54.42 143.86 54.93 143.30L54.93 143.51C54.93 143.88 55.23 144.08 55.46 144.08L55.50 144.08C55.83 144.08 56.09 143.82 56.09 143.51ZM54.93 140.96L54.93 141.84C54.93 142.58 54.09 143.34 53.17 143.34C52.33 143.34 51.85 142.83 51.85 142.10C51.85 141.35 52.45 140.96 53.44 140.96ZM63.34 139.97C63.34 138.64 62.38 137.56 61.05 137.56C59.96 137.56 59.40 138.10 59.10 138.60L59.10 138.20C59.10 137.90 58.84 137.64 58.54 137.64C58.21 137.64 57.95 137.90 57.95 138.20L57.95 143.51C57.95 143.82 58.21 144.08 58.52 144.08C58.84 144.08 59.10 143.82 59.10 143.51L59.10 140.49C59.10 139.42 59.67 138.59 60.68 138.59C61.61 138.59 62.18 139.32 62.18 140.36L62.18 143.51C62.18 143.82 62.44 144.08 62.76 144.08C63.08 144.08 63.34 143.82 63.34 143.51ZM70.84 138.20C70.84 137.90 70.58 137.64 70.28 137.64C69.95 137.64 69.69 137.90 69.69 138.20L69.69 138.63C69.18 137.96 68.45 137.56 67.62 137.56C65.99 137.56 64.84 138.79 64.84 140.81C64.84 142.86 66.01 144.05 67.62 144.05C68.48 144.05 69.22 143.60 69.69 142.96L69.69 143.79C69.69 145.13 68.72 145.60 67.75 145.60C67.06 145.60 66.51 145.46 66.03 145.05C65.94 144.99 65.85 144.96 65.73 144.96C65.47 144.96 65.24 145.18 65.24 145.46C65.24 145.59 65.29 145.70 65.37 145.78C65.98 146.37 66.86 146.55 67.75 146.55C69.28 146.55 70.84 145.91 70.84 143.75ZM69.69 140.83C69.69 142.12 68.84 143.03 67.80 143.03C66.63 143.03 66.03 142.10 66.03 140.81C66.03 139.50 66.63 138.59 67.80 138.59C68.84 138.59 69.69 139.49 69.69 140.78ZM78.51 140.65C78.51 140.40 78.45 140.13 78.40 139.92C78.03 138.51 76.99 137.56 75.47 137.56C73.65 137.56 72.34 139.03 72.34 140.85C72.34 142.83 73.70 144.16 75.57 144.16C76.50 144.16 78.11 143.68 78.11 142.97C78.11 142.53 77.67 142.43 77.38 142.57C76.93 142.91 76.22 143.22 75.69 143.22C74.42 143.22 73.64 142.35 73.55 141.27L77.91 141.27C78.24 141.27 78.51 140.96 78.51 140.65ZM73.55 140.41C73.60 139.54 74.21 138.50 75.46 138.50C76.80 138.50 77.37 139.57 77.39 140.41ZM85.64 135.81C85.64 135.51 85.38 135.25 85.08 135.25C84.74 135.25 84.48 135.51 84.48 135.81L84.48 138.63C83.97 137.96 83.36 137.56 82.41 137.56C80.77 137.56 79.62 138.85 79.62 140.87C79.62 142.92 80.79 144.16 82.41 144.16C83.39 144.16 84.00 143.73 84.48 143.10L84.48 143.51C84.48 143.82 84.74 144.08 85.05 144.08C85.38 144.08 85.64 143.82 85.64 143.51ZM84.48 140.91C84.48 142.21 83.83 143.13 82.71 143.13C81.54 143.13 80.81 142.18 80.81 140.87C80.81 139.55 81.54 138.59 82.71 138.59C83.83 138.59 84.48 139.54 84.48 140.83ZM96.76 135.91C96.76 135.58 96.52 135.33 96.20 135.33L91.73 135.33C91.27 135.33 90.89 135.71 90.89 136.17L90.89 143.44C90.89 143.79 91.17 144.08 91.52 144.08C91.89 144.08 92.17 143.79 92.17 143.44L92.17 140.15L96.11 140.15C96.43 140.15 96.67 139.89 96.67 139.59C96.67 139.25 96.43 139.01 96.11 139.01L92.17 139.01L92.17 136.47L96.20 136.47C96.52 136.47 96.76 136.21 96.76 135.91ZM98.65 135.39C98.25 135.39 97.91 135.73 97.91 136.15C97.91 136.55 98.25 136.89 98.65 136.89C99.06 136.89 99.39 136.55 99.39 136.15C99.39 135.73 99.06 135.39 98.65 135.39ZM99.23 138.20C99.23 137.90 98.97 137.64 98.67 137.64C98.34 137.64 98.08 137.90 98.08 138.20L98.08 143.51C98.08 143.82 98.34 144.08 98.65 144.08C98.97 144.08 99.23 143.82 99.23 143.51ZM102.26 135.81C102.26 135.51 102.00 135.25 101.70 135.25C101.37 135.25 101.11 135.51 101.11 135.81L101.11 143.51C101.11 143.82 101.37 144.08 101.68 144.08C102.00 144.08 102.26 143.82 102.26 143.51ZM109.93 140.65C109.93 140.40 109.87 140.13 109.82 139.92C109.45 138.51 108.41 137.56 106.89 137.56C105.07 137.56 103.76 139.03 103.76 140.85C103.76 142.83 105.12 144.16 106.99 144.16C107.92 144.16 109.53 143.68 109.53 142.97C109.53 142.53 109.09 142.43 108.80 142.57C108.35 142.91 107.64 143.22 107.11 143.22C105.84 143.22 105.06 142.35 104.97 141.27L109.33 141.27C109.66 141.27 109.93 140.96 109.93 140.65ZM104.97 140.41C105.02 139.54 105.63 138.50 106.88 138.50C108.22 138.50 108.79 139.57 108.81 140.41ZM116.02 142.10C115.90 139.89 112.30 140.50 112.17 139.37C112.12 138.87 112.66 138.49 113.46 138.49C114.05 138.49 114.61 138.68 115.02 138.97C115.09 139.03 115.18 139.06 115.29 139.06C115.52 139.06 115.74 138.87 115.74 138.60C115.74 138.50 115.70 138.40 115.63 138.32C115.13 137.84 114.34 137.56 113.44 137.56C111.91 137.56 110.99 138.29 111.05 139.41C111.17 141.52 114.76 140.87 114.89 142.26C114.94 142.83 114.42 143.23 113.52 143.23C112.87 143.23 112.22 142.97 111.75 142.63C111.66 142.57 111.57 142.54 111.45 142.54C111.18 142.54 110.95 142.75 110.95 143.03C110.95 143.16 111.00 143.26 111.09 143.34C111.66 143.91 112.61 144.16 113.47 144.16C115.13 144.16 116.08 143.30 116.02 142.10Z" fill="#e6edf3" /><path d="M175.07 141.40C175.07 140.94 174.71 140.58 174.28 140.58L173.88 140.58L173.88 136.29C173.88 135.49 173.10 135.12 172.31 135.25C171.75 135.25 171.19 135.55 170.89 136.02L167.99 140.59C167.87 140.78 167.82 140.98 167.82 141.19C167.82 141.78 168.25 142.21 168.77 142.21L172.03 142.21L172.03 143.17C172.03 143.66 172.45 144.08 172.94 144.08C173.46 144.08 173.88 143.66 173.88 143.17L173.88 142.21L174.28 142.21C174.71 142.21 175.07 141.84 175.07 141.40ZM169.69 140.58L172.03 136.97L172.03 140.58ZM175.71 138.16C175.71 140.01 177.10 140.98 178.66 140.98C179.74 140.98 180.55 140.45 180.88 139.87C180.90 139.93 180.90 139.98 180.90 140.05C180.90 141.43 180.00 142.50 178.73 142.50C178.28 142.50 177.92 142.43 177.60 142.26C177.48 142.19 177.35 142.17 177.22 142.17C176.82 142.17 176.37 142.48 176.37 142.97C176.37 143.10 176.41 143.22 176.47 143.32C176.79 143.90 177.88 144.14 178.73 144.14C181.29 144.14 182.77 142.28 182.77 139.66C182.77 137.21 181.66 135.19 179.03 135.19C177.05 135.19 175.71 136.47 175.71 138.16ZM177.58 138.10C177.58 137.45 178.06 136.82 179.06 136.82C179.88 136.82 180.50 137.38 180.50 138.19C180.50 138.97 179.87 139.53 179.06 139.53C178.23 139.53 177.58 138.97 177.58 138.10ZM190.65 141.62C190.65 140.44 189.95 139.76 189.43 139.53C189.87 139.32 190.50 138.83 190.50 137.49C190.50 135.99 188.89 135.20 187.16 135.20C185.42 135.20 183.82 135.99 183.82 137.49C183.82 138.83 184.45 139.32 184.89 139.53C184.37 139.76 183.68 140.44 183.68 141.62C183.68 143.25 185.34 144.16 187.16 144.16C188.98 144.16 190.65 143.23 190.65 141.62ZM188.62 137.77C188.62 138.42 187.96 138.80 187.16 138.80C186.37 138.80 185.69 138.42 185.69 137.77C185.69 137.15 186.31 136.78 187.16 136.78C188.01 136.78 188.62 137.15 188.62 137.77ZM188.78 141.52C188.78 142.15 188.05 142.57 187.16 142.57C186.25 142.57 185.55 142.15 185.55 141.52C185.55 140.79 186.36 140.36 187.16 140.36C187.96 140.36 188.78 140.79 188.78 141.52ZM193.90 143.36C193.90 142.52 193.34 142.04 192.73 142.04C192.18 142.04 191.71 142.50 191.71 143.08C191.71 143.64 192.10 144.01 192.60 144.01C192.69 144.01 192.81 143.99 192.84 143.97C192.77 144.31 192.48 144.72 192.14 144.99C192.05 145.07 192.01 145.17 192.01 145.27C192.01 145.53 192.29 145.69 192.51 145.69C192.64 145.69 192.75 145.65 192.84 145.56C193.50 144.97 193.90 144.19 193.90 143.36ZM201.95 141.40C201.95 140.94 201.58 140.58 201.15 140.58L200.75 140.58L200.75 136.29C200.75 135.49 199.97 135.12 199.18 135.25C198.62 135.25 198.06 135.55 197.76 136.02L194.86 140.59C194.74 140.78 194.69 140.98 194.69 141.19C194.69 141.78 195.12 142.21 195.64 142.21L198.90 142.21L198.90 143.17C198.90 143.66 199.32 144.08 199.81 144.08C200.33 144.08 200.75 143.66 200.75 143.17L200.75 142.21L201.15 142.21C201.58 142.21 201.95 141.84 201.95 141.40ZM196.56 140.58L198.90 136.97L198.90 140.58ZM202.58 138.16C202.58 140.01 203.97 140.98 205.53 140.98C206.61 140.98 207.42 140.45 207.76 139.87C207.77 139.93 207.77 139.98 207.77 140.05C207.77 141.43 206.87 142.50 205.60 142.50C205.16 142.50 204.79 142.43 204.47 142.26C204.35 142.19 204.22 142.17 204.09 142.17C203.69 142.17 203.25 142.48 203.25 142.97C203.25 143.10 203.28 143.22 203.34 143.32C203.66 143.90 204.75 144.14 205.60 144.14C208.16 144.14 209.64 142.28 209.64 139.66C209.64 137.21 208.54 135.19 205.90 135.19C203.92 135.19 202.58 136.47 202.58 138.16ZM204.45 138.10C204.45 137.45 204.94 136.82 205.94 136.82C206.75 136.82 207.37 137.38 207.37 138.19C207.37 138.97 206.74 139.53 205.94 139.53C205.10 139.53 204.45 138.97 204.45 138.10ZM210.49 138.16C210.49 140.01 211.88 140.98 213.44 140.98C214.52 140.98 215.32 140.45 215.66 139.87C215.67 139.93 215.67 139.98 215.67 140.05C215.67 141.43 214.78 142.50 213.50 142.50C213.06 142.50 212.70 142.43 212.37 142.26C212.25 142.19 212.12 142.17 211.99 142.17C211.59 142.17 211.15 142.48 211.15 142.97C211.15 143.10 211.19 143.22 211.24 143.32C211.56 143.90 212.66 144.14 213.50 144.14C216.06 144.14 217.55 142.28 217.55 139.66C217.55 137.21 216.44 135.19 213.80 135.19C211.83 135.19 210.49 136.47 210.49 138.16ZM212.36 138.10C212.36 137.45 212.84 136.82 213.84 136.82C214.66 136.82 215.27 137.38 215.27 138.19C215.27 138.97 214.65 139.53 213.84 139.53C213.01 139.53 212.36 138.97 212.36 138.10Z" fill="#9aa7b4" /></g><rect x="18" y="166" width="384" height="8" rx="4" fill="#21262d" /><rect x="18.00" y="166" width="262.56" height="8" rx="4" fill="#00d559" /><rect x="280.56" y="166" width="121.44" height="8" rx="4" fill="#00a5fe" /></svg>