<svg xmlns="http://www.w3.org/2000/svg" width="420" height="184" viewBox="0 0 420 184" role="img"><rect x="0.5" y="0.5" width="419" height="183" rx="10" fill="#ffffff" stroke="#f2f4f6" /><path d="M30.72 33.60C30.72 32.83 30.10 32.21 29.37 32.21L28.69 32.21L28.69 24.95C28.69 23.59 27.37 22.97 26.03 23.19C25.08 23.19 24.14 23.70 23.63 24.49L18.73 32.24C18.53 32.54 18.44 32.90 18.44 33.25C18.44 34.24 19.17 34.96 20.05 34.96L25.57 34.96L25.57 36.59C25.57 37.43 26.27 38.13 27.11 38.13C27.99 38.13 28.69 37.43 28.69 36.59L28.69 34.96L29.37 34.96C30.10 34.96 30.72 34.35 30.72 33.60ZM21.61 32.21L25.57 26.10L25.57 32.21ZM42.82 24.91C42.82 23.99 42.07 23.33 41.30 23.33L32.89 23.33C32.15 23.33 31.53 23.94 31.53 24.67C31.53 25.46 32.15 26.08 32.89 26.08L39.05 26.08L34.68 36.00C34.59 36.20 34.54 36.39 34.54 36.59C34.54 37.38 35.18 38.13 36.11 38.13C36.74 38.13 37.34 37.76 37.58 37.19L42.68 25.53C42.77 25.35 42.82 25.13 42.82 24.91ZM45.79 36.92C45.79 35.49 44.84 34.68 43.81 34.68C42.88 34.68 42.09 35.47 42.09 36.44C42.09 37.38 42.75 38.02 43.59 38.02C43.74 38.02 43.94 37.98 44.00 37.96C43.87 38.53 43.39 39.21 42.82 39.67C42.66 39.80 42.60 39.98 42.60 40.16C42.60 40.60 43.06 40.86 43.43 40.86C43.65 40.86 43.85 40.79 44.00 40.64C45.10 39.65 45.79 38.33 45.79 36.92ZM59.25 33.97C59.25 31.97 58.06 30.83 57.18 30.43C57.93 30.08 59.01 29.24 59.01 26.98C59.01 24.45 56.28 23.11 53.35 23.11C50.41 23.11 47.70 24.45 47.70 26.98C47.70 29.24 48.76 30.08 49.50 30.43C48.62 30.83 47.46 31.97 47.46 33.97C47.46 36.72 50.27 38.26 53.35 38.26C56.43 38.26 59.25 36.70 59.25 33.97ZM55.82 27.46C55.82 28.56 54.70 29.20 53.35 29.20C52.01 29.20 50.87 28.56 50.87 27.46C50.87 26.41 51.90 25.79 53.35 25.79C54.78 25.79 55.82 26.41 55.82 27.46ZM56.08 33.80C56.08 34.88 54.85 35.58 53.35 35.58C51.81 35.58 50.63 34.88 50.63 33.80C50.63 32.57 51.99 31.84 53.35 31.84C54.70 31.84 56.08 32.57 56.08 33.80ZM72.71 33.23C72.71 30.10 70.36 28.45 67.72 28.45C65.89 28.45 64.53 29.35 63.96 30.34C63.94 30.23 63.94 30.15 63.94 30.04C63.94 27.70 65.45 25.88 67.61 25.88C68.36 25.88 68.97 26.01 69.52 26.30C69.72 26.41 69.94 26.45 70.16 26.45C70.84 26.45 71.59 25.92 71.59 25.09C71.59 24.87 71.53 24.67 71.44 24.49C70.89 23.52 69.04 23.11 67.61 23.11C63.28 23.11 60.77 26.25 60.77 30.70C60.77 34.83 62.64 38.26 67.10 38.26C70.45 38.26 72.71 36.09 72.71 33.23ZM69.55 33.34C69.55 34.44 68.73 35.49 67.04 35.49C65.65 35.49 64.62 34.55 64.62 33.18C64.62 31.86 65.67 30.92 67.04 30.92C68.45 30.92 69.55 31.86 69.55 33.34ZM85.96 33.97C85.96 31.97 84.77 30.83 83.89 30.43C84.64 30.08 85.72 29.24 85.72 26.98C85.72 24.45 82.99 23.11 80.06 23.11C77.11 23.11 74.41 24.45 74.41 26.98C74.41 29.24 75.46 30.08 76.21 30.43C75.33 30.83 74.17 31.97 74.17 33.97C74.17 36.72 76.98 38.26 80.06 38.26C83.14 38.26 85.96 36.70 85.96 33.97ZM82.53 27.46C82.53 28.56 81.40 29.20 80.06 29.20C78.72 29.20 77.58 28.56 77.58 27.46C77.58 26.41 78.61 25.79 80.06 25.79C81.49 25.79 82.53 26.41 82.53 27.46ZM82.79 33.80C82.79 34.88 81.56 35.58 80.06 35.58C78.52 35.58 77.33 34.88 77.33 33.80C77.33 32.57 78.70 31.84 80.06 31.84C81.40 31.84 82.79 32.57 82.79 33.80ZM100.92 23.08C96.52 23.08 93.11 26.16 93.11 30.67C93.11 35.18 96.52 38.26 100.92 38.26C103.45 38.26 105.14 37.16 106.24 35.82C106.46 35.58 106.55 35.27 106.55 34.96C106.55 34.22 105.91 33.60 105.12 33.60C104.68 33.60 104.24 33.78 103.93 34.11C103.12 35.01 102.02 35.49 100.92 35.49C98.26 35.49 96.32 33.45 96.32 30.67C96.32 27.90 98.26 25.86 100.92 25.86C102.02 25.86 103.10 26.38 103.93 27.26C104.24 27.59 104.66 27.77 105.08 27.77C105.89 27.77 106.57 27.15 106.57 26.36C106.57 26.08 106.46 25.75 106.26 25.50C105.14 24.16 103.45 23.08 100.92 23.08ZM119.42 32.68C119.42 29.66 117.31 27.11 113.79 27.11C110.29 27.11 108.18 29.66 108.18 32.68C108.18 35.71 110.29 38.26 113.79 38.26C117.31 38.26 119.42 35.71 119.42 32.68ZM116.52 32.68C116.52 34.35 115.53 35.78 113.79 35.78C112.05 35.78 111.08 34.35 111.08 32.68C111.08 31.03 112.05 29.60 113.79 29.60C115.53 29.60 116.52 31.03 116.52 32.68ZM137.48 31.20C137.48 29.02 135.96 27.11 133.57 27.11C131.72 27.11 130.66 28.19 130.27 28.94C129.87 28.17 128.88 27.11 127.10 27.11C125.47 27.11 124.72 27.70 124.28 28.28L124.28 28.25C124.28 27.95 123.89 27.24 122.92 27.24C122.10 27.24 121.49 27.86 121.49 28.61L121.49 36.75C121.49 37.52 122.10 38.13 122.87 38.13C123.67 38.13 124.28 37.52 124.28 36.75L124.28 31.73C124.28 30.70 125.07 29.60 126.26 29.60C127.41 29.60 128.07 30.74 128.07 31.73L128.07 36.75C128.07 37.52 128.68 38.13 129.45 38.13C130.27 38.13 130.88 37.52 130.88 36.75L130.88 31.93C130.88 30.70 131.65 29.60 132.86 29.60C134.01 29.60 134.67 30.74 134.67 31.73L134.67 36.75C134.67 37.52 135.28 38.13 136.05 38.13C136.87 38.13 137.48 37.52 137.48 36.75ZM156.23 31.20C156.23 29.02 154.71 27.11 152.31 27.11C150.46 27.11 149.41 28.19 149.01 28.94C148.61 28.17 147.62 27.11 145.84 27.11C144.21 27.11 143.47 27.70 143.03 28.28L143.03 28.25C143.03 27.95 142.63 27.24 141.66 27.24C140.85 27.24 140.23 27.86 140.23 28.61L140.23 36.75C140.23 37.52 140.85 38.13 141.62 38.13C142.41 38.13 143.03 37.52 143.03 36.75L143.03 31.73C143.03 30.70 143.82 29.60 145.01 29.60C146.15 29.60 146.81 30.74 146.81 31.73L146.81 36.75C146.81 37.52 147.43 38.13 148.20 38.13C149.01 38.13 149.63 37.52 149.63 36.75L149.63 31.93C149.63 30.70 150.40 29.60 151.61 29.60C152.75 29.60 153.41 30.74 153.41 31.73L153.41 36.75C153.41 37.52 154.03 38.13 154.80 38.13C155.61 38.13 156.23 37.52 156.23 36.75ZM160.36 22.91C159.46 22.91 158.69 23.63 158.69 24.56C158.69 25.48 159.46 26.23 160.36 26.23C161.29 26.23 162.03 25.48 162.03 24.56C162.03 23.63 161.29 22.91 160.36 22.91ZM161.77 28.61C161.77 27.86 161.15 27.24 160.41 27.24C159.59 27.24 158.98 27.86 158.98 28.61L158.98 36.75C158.98 37.52 159.59 38.13 160.36 38.13C161.15 38.13 161.77 37.52 161.77 36.75ZM170.35 36.99C170.35 36.31 169.91 35.78 169.12 35.78L168.88 35.78C168.44 35.78 167.91 35.45 167.91 34.61L167.91 29.82L169.01 29.82C169.65 29.82 170.20 29.27 170.20 28.61C170.20 27.92 169.65 27.37 169.01 27.37L167.91 27.37L167.91 25.72C167.91 24.95 167.29 24.34 166.52 24.34C165.71 24.34 165.09 24.95 165.09 25.72L165.09 27.37L164.41 27.37C163.75 27.37 163.20 27.92 163.20 28.56C163.20 29.27 163.75 29.82 164.41 29.82L165.09 29.82L165.09 35.36C165.09 37.25 166.15 38.26 168.11 38.26C169.93 38.26 170.35 37.69 170.35 36.99ZM180.40 34.85C180.40 30.56 174.11 31.88 174.11 30.30C174.11 29.71 174.77 29.24 175.78 29.24C176.64 29.24 177.50 29.49 178.18 29.88C178.34 29.97 178.53 30.01 178.71 30.01C179.28 30.01 179.81 29.55 179.81 28.96C179.81 28.76 179.74 28.56 179.63 28.41C179.04 27.55 177.15 27.11 175.76 27.11C172.97 27.11 171.41 28.67 171.41 30.45C171.41 34.63 177.72 33.20 177.72 34.96C177.72 35.62 177.15 36.11 175.94 36.11C175.01 36.11 173.91 35.73 173.08 35.25C172.90 35.14 172.70 35.10 172.51 35.10C171.91 35.10 171.34 35.60 171.34 36.26C171.34 36.48 171.41 36.68 171.54 36.86C172.20 37.80 174.42 38.26 175.81 38.26C178.75 38.26 180.40 36.79 180.40 34.85Z" fill="#22272e" /><path d="M20.26 49.88C20.26 49.54 19.98 49.25 19.64 49.25C19.26 49.25 18.98 49.54 18.98 49.88L18.98 57.44C18.98 57.79 19.26 58.08 19.61 58.08C19.98 58.08 20.26 57.79 20.26 57.44ZM27.55 53.97C27.55 52.64 26.59 51.56 25.27 51.56C24.18 51.56 23.62 52.10 23.32 52.60L23.32 52.20C23.32 51.90 23.06 51.64 22.76 51.64C22.42 51.64 22.16 51.90 22.16 52.20L22.16 57.51C22.16 57.82 22.42 58.08 22.73 58.08C23.06 58.08 23.32 57.82 23.32 57.51L23.32 54.49C23.32 53.42 23.89 52.59 24.89 52.59C25.83 52.59 26.40 53.32 26.40 54.36L26.40 57.51C26.40 57.82 26.66 58.08 26.97 58.08C27.30 58.08 27.55 57.82 27.55 57.51ZM38.97 49.91C38.97 49.58 38.72 49.33 38.41 49.33L32.70 49.33C32.39 49.33 32.14 49.58 32.14 49.89C32.14 50.21 32.39 50.47 32.70 50.47L34.91 50.47L34.91 57.44C34.91 57.79 35.20 58.08 35.55 58.08C35.91 58.08 36.20 57.79 36.20 57.44L36.20 50.47L38.41 50.47C38.72 50.47 38.97 50.21 38.97 49.91ZM44.74 54.85C44.74 53.05 43.53 51.56 41.57 51.56C39.62 51.56 38.41 53.05 38.41 54.85C38.41 56.66 39.62 58.16 41.57 58.16C43.53 58.16 44.74 56.66 44.74 54.85ZM43.53 54.85C43.53 56.06 42.83 57.13 41.57 57.13C40.32 57.13 39.61 56.06 39.61 54.85C39.61 53.66 40.32 52.59 41.57 52.59C42.83 52.59 43.53 53.66 43.53 54.85ZM49.16 57.55C49.16 57.27 48.95 57.06 48.67 57.06C48.54 57.06 48.38 57.13 48.24 57.13C47.86 57.13 47.63 56.83 47.63 56.35L47.63 52.73L48.48 52.73C48.76 52.73 48.98 52.51 48.98 52.24C48.98 51.94 48.76 51.72 48.48 51.72L47.63 51.72L47.63 50.49C47.63 50.19 47.37 49.93 47.05 49.93C46.72 49.93 46.46 50.19 46.46 50.49L46.46 51.72L45.85 51.72C45.56 51.72 45.34 51.94 45.34 52.22C45.34 52.51 45.56 52.73 45.85 52.73L46.46 52.73L46.46 56.62C46.46 57.61 46.98 58.16 47.96 58.16C48.65 58.16 49.16 57.96 49.16 57.55ZM55.26 53.75C55.26 52.15 54.09 51.56 52.74 51.56C51.89 51.56 50.94 51.84 50.34 52.44C50.27 52.53 50.23 52.63 50.23 52.73C50.23 53.01 50.47 53.19 50.71 53.19C50.80 53.19 50.90 53.15 50.99 53.09C51.46 52.72 51.98 52.54 52.57 52.54C53.45 52.54 54.10 53.01 54.10 53.80L54.10 54.15L52.29 54.15C50.99 54.15 49.85 54.66 49.85 56.08C49.85 57.45 50.99 58.16 52.03 58.16C53.01 58.16 53.59 57.86 54.10 57.30L54.10 57.51C54.10 57.88 54.40 58.08 54.63 58.08L54.67 58.08C55.00 58.08 55.26 57.82 55.26 57.51ZM54.10 54.96L54.10 55.84C54.10 56.58 53.26 57.34 52.35 57.34C51.50 57.34 51.02 56.83 51.02 56.10C51.02 55.35 51.62 54.96 52.61 54.96ZM58.27 49.81C58.27 49.51 58.01 49.25 57.71 49.25C57.38 49.25 57.12 49.51 57.12 49.81L57.12 57.51C57.12 57.82 57.38 58.08 57.69 58.08C58.01 58.08 58.27 57.82 58.27 57.51Z" fill="#627386" /><line x1="18" y1="76" x2="48" y2="76" stroke="#627386" stroke-opacity="0.4" /><g aria-label="Additions: 32,488,745"><circle cx="22" cy="96" r="4" fill="#00d559" /><path d="M42.28 99.39C42.28 99.31 42.27 99.23 42.23 99.14L39.36 91.94C39.19 91.51 38.76 91.24 38.30 91.25C37.85 91.25 37.43 91.52 37.28 91.94L34.40 99.14C34.38 99.23 34.36 99.31 34.36 99.39C34.36 99.74 34.65 100.08 35.05 100.08C35.33 100.08 35.57 99.92 35.68 99.66L36.25 98.19L40.40 98.19L40.97 99.66C41.07 99.92 41.32 100.08 41.59 100.08C42.01 100.08 42.28 99.71 42.28 99.39ZM38.32 92.64L40.03 97.06L36.61 97.06ZM49.22 91.81C49.22 91.51 48.96 91.25 48.66 91.25C48.33 91.25 48.07 91.51 48.07 91.81L48.07 94.63C47.56 93.95 46.95 93.56 46.00 93.56C44.36 93.56 43.20 94.85 43.20 96.87C43.20 98.92 44.37 100.16 46.00 100.16C46.97 100.16 47.59 99.73 48.07 99.10L48.07 99.51C48.07 99.82 48.33 100.08 48.64 100.08C48.96 100.08 49.22 99.82 49.22 99.51ZM48.07 96.91C48.07 98.21 47.42 99.13 46.30 99.13C45.13 99.13 44.40 98.18 44.40 96.87C44.40 95.55 45.13 94.59 46.30 94.59C47.42 94.59 48.07 95.54 48.07 96.83ZM56.74 91.81C56.74 91.51 56.48 91.25 56.18 91.25C55.84 91.25 55.58 91.51 55.58 91.81L55.58 94.63C55.07 93.95 54.46 93.56 53.51 93.56C51.88 93.56 50.72 94.85 50.72 96.87C50.72 98.92 51.89 100.16 53.51 100.16C54.49 100.16 55.10 99.73 55.58 99.10L55.58 99.51C55.58 99.82 55.84 100.08 56.15 100.08C56.48 100.08 56.74 99.82 56.74 99.51ZM55.58 96.91C55.58 98.21 54.93 99.13 53.81 99.13C52.64 99.13 51.91 98.18 51.91 96.87C51.91 95.55 52.64 94.59 53.81 94.59C54.93 94.59 55.58 95.54 55.58 96.83ZM59.18 91.39C58.78 91.39 58.44 91.73 58.44 92.15C58.44 92.55 58.78 92.89 59.18 92.89C59.60 92.89 59.92 92.55 59.92 92.15C59.92 91.73 59.60 91.39 59.18 91.39ZM59.77 94.20C59.77 93.90 59.51 93.64 59.21 93.64C58.87 93.64 58.61 93.90 58.61 94.20L58.61 99.51C58.61 99.82 58.87 100.08 59.18 100.08C59.51 100.08 59.77 99.82 59.77 99.51ZM64.56 99.55C64.56 99.27 64.36 99.06 64.07 99.06C63.94 99.06 63.78 99.13 63.64 99.13C63.26 99.13 63.03 98.83 63.03 98.35L63.03 94.73L63.89 94.73C64.16 94.73 64.38 94.51 64.38 94.24C64.38 93.94 64.16 93.72 63.89 93.72L63.03 93.72L63.03 92.49C63.03 92.19 62.77 91.93 62.46 91.93C62.12 91.93 61.86 92.19 61.86 92.49L61.86 93.72L61.25 93.72C60.96 93.72 60.74 93.94 60.74 94.22C60.74 94.51 60.96 94.73 61.25 94.73L61.86 94.73L61.86 98.62C61.86 99.61 62.38 100.16 63.37 100.16C64.06 100.16 64.56 99.96 64.56 99.55ZM66.19 91.39C65.79 91.39 65.45 91.73 65.45 92.15C65.45 92.55 65.79 92.89 66.19 92.89C66.60 92.89 66.93 92.55 66.93 92.15C66.93 91.73 66.60 91.39 66.19 91.39ZM66.77 94.20C66.77 93.90 66.51 93.64 66.21 93.64C65.88 93.64 65.62 93.90 65.62 94.20L65.62 99.51C65.62 99.82 65.88 100.08 66.19 100.08C66.51 100.08 66.77 99.82 66.77 99.51ZM74.60 96.85C74.60 95.05 73.39 93.56 71.43 93.56C69.48 93.56 68.27 95.05 68.27 96.85C68.27 98.66 69.48 100.16 71.43 100.16C73.39 100.16 74.60 98.66 74.60 96.85ZM73.39 96.85C73.39 98.06 72.69 99.13 71.43 99.13C70.18 99.13 69.46 98.06 69.46 96.85C69.46 95.66 70.18 94.59 71.43 94.59C72.69 94.59 73.39 95.66 73.39 96.85ZM81.49 95.97C81.49 94.64 80.53 93.56 79.20 93.56C78.11 93.56 77.55 94.10 77.25 94.61L77.25 94.20C77.25 93.90 76.99 93.64 76.69 93.64C76.35 93.64 76.09 93.90 76.09 94.20L76.09 99.51C76.09 99.82 76.35 100.08 76.67 100.08C76.99 100.08 77.25 99.82 77.25 99.51L77.25 96.49C77.25 95.42 77.82 94.59 78.82 94.59C79.76 94.59 80.33 95.32 80.33 96.36L80.33 99.51C80.33 99.82 80.59 100.08 80.90 100.08C81.23 100.08 81.49 99.82 81.49 99.51ZM87.96 98.10C87.85 95.89 84.24 96.50 84.11 95.37C84.06 94.86 84.61 94.49 85.40 94.49C86 94.49 86.56 94.68 86.96 94.97C87.04 95.03 87.13 95.06 87.23 95.06C87.47 95.06 87.69 94.86 87.69 94.61C87.69 94.50 87.65 94.40 87.57 94.32C87.08 93.84 86.29 93.56 85.39 93.56C83.86 93.56 82.93 94.29 83.00 95.41C83.11 97.52 86.70 96.87 86.83 98.26C86.88 98.83 86.36 99.23 85.47 99.23C84.82 99.23 84.17 98.97 83.70 98.64C83.61 98.57 83.52 98.54 83.40 98.54C83.13 98.54 82.89 98.75 82.89 99.03C82.89 99.16 82.94 99.26 83.04 99.34C83.61 99.91 84.56 100.16 85.41 100.16C87.08 100.16 88.03 99.30 87.96 98.10Z" fill="#22272e" /><path d="M157.65 97.63C157.76 96.07 156.70 95.53 156.70 95.53C156.70 95.53 157.67 95.03 157.56 93.55C157.46 92.11 156.31 91.20 154.29 91.20C153.09 91.20 152.15 91.55 151.44 92.12C151.26 92.27 151.17 92.47 151.17 92.68C151.17 93.14 151.57 93.46 151.97 93.46C152.13 93.46 152.28 93.42 152.41 93.33C152.92 93.01 153.49 92.84 154.09 92.84C155.00 92.84 155.70 93.05 155.70 93.73C155.70 94.45 155.27 94.79 154.40 94.79C153.78 94.79 153.51 95.14 153.51 95.59C153.51 96.05 153.78 96.41 154.46 96.41C155.34 96.41 155.85 96.72 155.85 97.41C155.85 98.06 155.26 98.52 154.21 98.52C153.61 98.52 152.92 98.31 152.35 97.97C152.21 97.88 152.05 97.84 151.89 97.84C151.47 97.84 151.05 98.19 151.05 98.66C151.05 98.79 151.09 98.91 151.15 99.01C151.56 99.69 153.03 100.16 154.27 100.16C156.35 100.16 157.55 99.26 157.65 97.63ZM165.44 99.17C165.44 98.74 165.08 98.38 164.65 98.38L161.83 98.38C164.08 96.74 165.30 95.45 165.30 93.97C165.30 92.24 163.83 91.20 161.98 91.20C160.89 91.20 159.43 91.67 159.02 92.33C158.94 92.45 158.90 92.58 158.90 92.71C158.90 93.17 159.28 93.54 159.71 93.54C159.90 93.54 160.07 93.49 160.24 93.37C160.73 93.03 161.33 92.84 162.02 92.84C162.74 92.84 163.43 93.21 163.43 93.97C163.43 94.98 162.39 95.93 159.15 98.32C158.90 98.50 158.76 98.80 158.76 99.10C158.76 99.62 159.17 100 159.63 100L164.65 100C165.08 100 165.44 99.64 165.44 99.17ZM168.82 99.36C168.82 98.52 168.26 98.04 167.65 98.04C167.10 98.04 166.64 98.50 166.64 99.08C166.64 99.64 167.03 100.01 167.52 100.01C167.61 100.01 167.73 99.99 167.77 99.97C167.69 100.31 167.40 100.72 167.07 100.99C166.97 101.07 166.94 101.17 166.94 101.27C166.94 101.53 167.21 101.69 167.43 101.69C167.56 101.69 167.68 101.65 167.77 101.56C168.42 100.97 168.82 100.19 168.82 99.36ZM176.87 97.40C176.87 96.94 176.50 96.58 176.07 96.58L175.67 96.58L175.67 92.29C175.67 91.48 174.89 91.12 174.10 91.25C173.54 91.25 172.98 91.55 172.68 92.02L169.78 96.59C169.67 96.78 169.61 96.98 169.61 97.19C169.61 97.78 170.04 98.21 170.56 98.21L173.83 98.21L173.83 99.17C173.83 99.66 174.24 100.08 174.74 100.08C175.26 100.08 175.67 99.66 175.67 99.17L175.67 98.21L176.07 98.21C176.50 98.21 176.87 97.84 176.87 97.40ZM171.49 96.58L173.83 92.97L173.83 96.58ZM184.54 97.62C184.54 96.44 183.84 95.76 183.32 95.53C183.76 95.32 184.39 94.83 184.39 93.49C184.39 91.99 182.78 91.20 181.05 91.20C179.31 91.20 177.71 91.99 177.71 93.49C177.71 94.83 178.34 95.32 178.78 95.53C178.26 95.76 177.57 96.44 177.57 97.62C177.57 99.25 179.23 100.16 181.05 100.16C182.87 100.16 184.54 99.23 184.54 97.62ZM182.51 93.77C182.51 94.42 181.85 94.80 181.05 94.80C180.26 94.80 179.58 94.42 179.58 93.77C179.58 93.15 180.20 92.78 181.05 92.78C181.90 92.78 182.51 93.15 182.51 93.77ZM182.67 97.52C182.67 98.15 181.94 98.57 181.05 98.57C180.14 98.57 179.44 98.15 179.44 97.52C179.44 96.79 180.25 96.36 181.05 96.36C181.85 96.36 182.67 96.79 182.67 97.52ZM192.42 97.62C192.42 96.44 191.71 95.76 191.19 95.53C191.64 95.32 192.27 94.83 192.27 93.49C192.27 91.99 190.66 91.20 188.93 91.20C187.19 91.20 185.59 91.99 185.59 93.49C185.59 94.83 186.22 95.32 186.66 95.53C186.14 95.76 185.45 96.44 185.45 97.62C185.45 99.25 187.11 100.16 188.93 100.16C190.75 100.16 192.42 99.23 192.42 97.62ZM190.39 93.77C190.39 94.42 189.72 94.80 188.93 94.80C188.14 94.80 187.46 94.42 187.46 93.77C187.46 93.15 188.07 92.78 188.93 92.78C189.78 92.78 190.39 93.15 190.39 93.77ZM190.54 97.52C190.54 98.15 189.82 98.57 188.93 98.57C188.02 98.57 187.32 98.15 187.32 97.52C187.32 96.79 188.13 96.36 188.93 96.36C189.72 96.36 190.54 96.79 190.54 97.52ZM195.67 99.36C195.67 98.52 195.11 98.04 194.50 98.04C193.95 98.04 193.48 98.50 193.48 99.08C193.48 99.64 193.87 100.01 194.37 100.01C194.46 100.01 194.57 99.99 194.61 99.97C194.53 100.31 194.25 100.72 193.91 100.99C193.82 101.07 193.78 101.17 193.78 101.27C193.78 101.53 194.05 101.69 194.28 101.69C194.41 101.69 194.52 101.65 194.61 101.56C195.26 100.97 195.67 100.19 195.67 99.36ZM202.15 92.27C202.15 91.72 201.71 91.33 201.26 91.33L196.29 91.33C195.85 91.33 195.48 91.69 195.48 92.12C195.48 92.59 195.85 92.95 196.29 92.95L199.93 92.95L197.34 98.82C197.29 98.93 197.26 99.05 197.26 99.17C197.26 99.64 197.64 100.08 198.19 100.08C198.56 100.08 198.92 99.86 199.06 99.52L202.07 92.63C202.13 92.53 202.15 92.39 202.15 92.27ZM209.85 97.40C209.85 96.94 209.49 96.58 209.06 96.58L208.65 96.58L208.65 92.29C208.65 91.48 207.87 91.12 207.08 91.25C206.52 91.25 205.96 91.55 205.66 92.02L202.76 96.59C202.65 96.78 202.59 96.98 202.59 97.19C202.59 97.78 203.02 98.21 203.54 98.21L206.81 98.21L206.81 99.17C206.81 99.66 207.22 100.08 207.72 100.08C208.24 100.08 208.65 99.66 208.65 99.17L208.65 98.21L209.06 98.21C209.49 98.21 209.85 97.84 209.85 97.40ZM204.47 96.58L206.81 92.97L206.81 96.58ZM217.55 97.15C217.55 95.40 216.23 94.34 214.76 94.34C213.97 94.34 213.27 94.66 212.85 95.07L212.85 92.95L216.25 92.95C216.67 92.95 217.04 92.59 217.04 92.15C217.04 91.69 216.67 91.33 216.25 91.33L212.05 91.33C211.47 91.33 211.01 91.80 211.01 92.37L211.01 95.70C211.01 96.20 211.37 96.58 211.94 96.58C212.20 96.58 212.45 96.50 212.66 96.36C213.13 96.05 213.58 95.94 214.11 95.94C215.10 95.94 215.67 96.46 215.67 97.23C215.67 97.93 215.09 98.52 214.06 98.52C213.44 98.52 212.84 98.35 212.33 98.04C212.18 97.95 212.01 97.89 211.85 97.89C211.40 97.89 210.97 98.25 210.97 98.73C210.97 98.86 211.01 98.99 211.07 99.10C211.47 99.78 212.94 100.16 214.07 100.16C216.17 100.16 217.55 99.00 217.55 97.15Z" fill="#627386" /></g><g aria-label="Deletions: 14,738,430"><circle cx="22" cy="118" r="4" fill="#00a5fe" /><path d="M42.54 117.67C42.54 115.17 40.76 113.33 38.06 113.33L35.82 113.33C35.35 113.33 34.98 113.71 34.98 114.17L34.98 121.16C34.98 121.62 35.35 122 35.82 122L38.06 122C40.76 122 42.54 120.18 42.54 117.67ZM41.23 117.67C41.23 119.43 40.06 120.86 38.06 120.86L36.26 120.86L36.26 114.47L38.06 114.47C40.11 114.47 41.23 115.89 41.23 117.67ZM49.90 118.65C49.90 118.40 49.83 118.13 49.78 117.92C49.42 116.51 48.38 115.56 46.86 115.56C45.04 115.56 43.72 117.03 43.72 118.85C43.72 120.83 45.09 122.16 46.96 122.16C47.88 122.16 49.50 121.67 49.50 120.97C49.50 120.53 49.05 120.43 48.77 120.57C48.31 120.91 47.61 121.22 47.08 121.22C45.80 121.22 45.02 120.35 44.93 119.27L49.30 119.27C49.63 119.27 49.90 118.96 49.90 118.65ZM44.93 118.41C44.98 117.54 45.60 116.50 46.84 116.50C48.18 116.50 48.76 117.57 48.78 118.41ZM52.54 113.81C52.54 113.51 52.28 113.25 51.98 113.25C51.64 113.25 51.38 113.51 51.38 113.81L51.38 121.51C51.38 121.82 51.64 122.08 51.95 122.08C52.28 122.08 52.54 121.82 52.54 121.51ZM60.21 118.65C60.21 118.40 60.14 118.13 60.09 117.92C59.73 116.51 58.69 115.56 57.17 115.56C55.35 115.56 54.03 117.03 54.03 118.85C54.03 120.83 55.40 122.16 57.27 122.16C58.19 122.16 59.81 121.67 59.81 120.97C59.81 120.53 59.36 120.43 59.08 120.57C58.62 120.91 57.92 121.22 57.39 121.22C56.11 121.22 55.33 120.35 55.24 119.27L59.61 119.27C59.94 119.27 60.21 118.96 60.21 118.65ZM55.24 118.41C55.29 117.54 55.91 116.50 57.15 116.50C58.49 116.50 59.06 117.57 59.09 118.41ZM64.62 121.55C64.62 121.27 64.41 121.06 64.12 121.06C63.99 121.06 63.84 121.13 63.69 121.13C63.32 121.13 63.08 120.83 63.08 120.35L63.08 116.73L63.94 116.73C64.21 116.73 64.43 116.51 64.43 116.24C64.43 115.94 64.21 115.72 63.94 115.72L63.08 115.72L63.08 114.49C63.08 114.19 62.82 113.93 62.51 113.93C62.17 113.93 61.91 114.19 61.91 114.49L61.91 115.72L61.30 115.72C61.01 115.72 60.79 115.94 60.79 116.22C60.79 116.51 61.01 116.73 61.30 116.73L61.91 116.73L61.91 120.62C61.91 121.61 62.43 122.16 63.42 122.16C64.11 122.16 64.62 121.96 64.62 121.55ZM66.24 113.39C65.84 113.39 65.50 113.73 65.50 114.15C65.50 114.55 65.84 114.89 66.24 114.89C66.66 114.89 66.98 114.55 66.98 114.15C66.98 113.73 66.66 113.39 66.24 113.39ZM66.83 116.20C66.83 115.90 66.56 115.64 66.27 115.64C65.93 115.64 65.67 115.90 65.67 116.20L65.67 121.51C65.67 121.82 65.93 122.08 66.24 122.08C66.56 122.08 66.83 121.82 66.83 121.51ZM74.65 118.85C74.65 117.05 73.44 115.56 71.48 115.56C69.53 115.56 68.32 117.05 68.32 118.85C68.32 120.66 69.53 122.16 71.48 122.16C73.44 122.16 74.65 120.66 74.65 118.85ZM73.44 118.85C73.44 120.06 72.74 121.13 71.48 121.13C70.23 121.13 69.52 120.06 69.52 118.85C69.52 117.66 70.23 116.59 71.48 116.59C72.74 116.59 73.44 117.66 73.44 118.85ZM81.54 117.97C81.54 116.64 80.58 115.56 79.25 115.56C78.16 115.56 77.60 116.10 77.30 116.61L77.30 116.20C77.30 115.90 77.04 115.64 76.74 115.64C76.41 115.64 76.15 115.90 76.15 116.20L76.15 121.51C76.15 121.82 76.41 122.08 76.72 122.08C77.04 122.08 77.30 121.82 77.30 121.51L77.30 118.49C77.30 117.42 77.88 116.59 78.88 116.59C79.81 116.59 80.38 117.32 80.38 118.36L80.38 121.51C80.38 121.82 80.64 122.08 80.96 122.08C81.28 122.08 81.54 121.82 81.54 121.51ZM88.01 120.10C87.90 117.89 84.30 118.50 84.17 117.37C84.11 116.86 84.66 116.49 85.45 116.49C86.05 116.49 86.61 116.68 87.01 116.97C87.09 117.03 87.18 117.06 87.29 117.06C87.52 117.06 87.74 116.86 87.74 116.61C87.74 116.50 87.70 116.40 87.62 116.32C87.13 115.84 86.34 115.56 85.44 115.56C83.91 115.56 82.98 116.29 83.05 117.41C83.17 119.52 86.75 118.87 86.88 120.26C86.94 120.83 86.42 121.23 85.52 121.23C84.87 121.23 84.22 120.97 83.75 120.64C83.66 120.57 83.57 120.54 83.45 120.54C83.18 120.54 82.94 120.75 82.94 121.03C82.94 121.16 83.00 121.26 83.09 121.34C83.66 121.91 84.61 122.16 85.47 122.16C87.13 122.16 88.08 121.30 88.01 120.10Z" fill="#22272e" /><path d="M157.63 114.32C157.63 113.73 157.13 113.26 156.55 113.26C156.25 113.26 155.96 113.38 155.77 113.58L153.77 115.60C153.61 115.76 153.53 115.95 153.53 116.15C153.53 116.58 153.90 116.92 154.30 116.92C154.48 116.92 154.66 116.85 154.81 116.71L155.78 115.71L155.78 121.17C155.78 121.66 156.20 122.08 156.69 122.08C157.21 122.08 157.63 121.66 157.63 121.17ZM166.00 119.40C166.00 118.94 165.64 118.58 165.21 118.58L164.80 118.58L164.80 114.29C164.80 113.48 164.02 113.12 163.23 113.25C162.67 113.25 162.11 113.55 161.81 114.02L158.91 118.59C158.80 118.78 158.75 118.98 158.75 119.19C158.75 119.78 159.17 120.21 159.69 120.21L162.96 120.21L162.96 121.17C162.96 121.66 163.37 122.08 163.87 122.08C164.39 122.08 164.80 121.66 164.80 121.17L164.80 120.21L165.21 120.21C165.64 120.21 166.00 119.84 166.00 119.40ZM160.62 118.58L162.96 114.97L162.96 118.58ZM169.04 121.36C169.04 120.52 168.48 120.04 167.87 120.04C167.33 120.04 166.86 120.50 166.86 121.08C166.86 121.64 167.25 122.01 167.74 122.01C167.83 122.01 167.95 121.99 167.99 121.97C167.91 122.31 167.62 122.72 167.29 122.99C167.20 123.07 167.16 123.17 167.16 123.27C167.16 123.53 167.43 123.69 167.65 123.69C167.78 123.69 167.90 123.65 167.99 123.56C168.64 122.97 169.04 122.19 169.04 121.36ZM175.53 114.27C175.53 113.72 175.09 113.33 174.63 113.33L169.67 113.33C169.22 113.33 168.86 113.69 168.86 114.12C168.86 114.59 169.22 114.95 169.67 114.95L173.31 114.95L170.72 120.82C170.67 120.93 170.64 121.05 170.64 121.17C170.64 121.64 171.02 122.08 171.56 122.08C171.94 122.08 172.29 121.86 172.43 121.52L175.45 114.63C175.50 114.53 175.53 114.39 175.53 114.27ZM182.77 119.63C182.87 118.07 181.82 117.53 181.82 117.53C181.82 117.53 182.78 117.03 182.68 115.55C182.57 114.11 181.43 113.20 179.40 113.20C178.21 113.20 177.27 113.55 176.56 114.12C176.37 114.27 176.28 114.47 176.28 114.68C176.28 115.14 176.69 115.46 177.09 115.46C177.24 115.46 177.40 115.42 177.53 115.33C178.04 115.01 178.61 114.84 179.21 114.84C180.12 114.84 180.82 115.05 180.82 115.73C180.82 116.45 180.39 116.79 179.52 116.79C178.90 116.79 178.62 117.14 178.62 117.59C178.62 118.05 178.90 118.41 179.57 118.41C180.46 118.41 180.96 118.72 180.96 119.41C180.96 120.06 180.38 120.52 179.32 120.52C178.73 120.52 178.04 120.31 177.47 119.97C177.32 119.88 177.17 119.84 177.01 119.84C176.58 119.84 176.17 120.19 176.17 120.66C176.17 120.79 176.20 120.91 176.27 121.01C176.67 121.69 178.14 122.16 179.39 122.16C181.47 122.16 182.67 121.26 182.77 119.63ZM190.76 119.62C190.76 118.44 190.06 117.76 189.54 117.53C189.98 117.32 190.62 116.83 190.62 115.49C190.62 113.99 189.01 113.20 187.28 113.20C185.54 113.20 183.94 113.99 183.94 115.49C183.94 116.83 184.56 117.32 185.01 117.53C184.49 117.76 183.80 118.44 183.80 119.62C183.80 121.25 185.46 122.16 187.28 122.16C189.10 122.16 190.76 121.23 190.76 119.62ZM188.74 115.77C188.74 116.42 188.07 116.80 187.28 116.80C186.49 116.80 185.81 116.42 185.81 115.77C185.81 115.15 186.42 114.78 187.28 114.78C188.13 114.78 188.74 115.15 188.74 115.77ZM188.89 119.52C188.89 120.15 188.16 120.57 187.28 120.57C186.37 120.57 185.67 120.15 185.67 119.52C185.67 118.79 186.47 118.36 187.28 118.36C188.07 118.36 188.89 118.79 188.89 119.52ZM194.01 121.36C194.01 120.52 193.46 120.04 192.84 120.04C192.30 120.04 191.83 120.50 191.83 121.08C191.83 121.64 192.22 122.01 192.71 122.01C192.81 122.01 192.92 121.99 192.96 121.97C192.88 122.31 192.60 122.72 192.26 122.99C192.17 123.07 192.13 123.17 192.13 123.27C192.13 123.53 192.40 123.69 192.62 123.69C192.75 123.69 192.87 123.65 192.96 123.56C193.61 122.97 194.01 122.19 194.01 121.36ZM202.06 119.40C202.06 118.94 201.70 118.58 201.27 118.58L200.87 118.58L200.87 114.29C200.87 113.48 200.09 113.12 199.29 113.25C198.73 113.25 198.17 113.55 197.88 114.02L194.98 118.59C194.86 118.78 194.81 118.98 194.81 119.19C194.81 119.78 195.24 120.21 195.76 120.21L199.02 120.21L199.02 121.17C199.02 121.66 199.44 122.08 199.93 122.08C200.45 122.08 200.87 121.66 200.87 121.17L200.87 120.21L201.27 120.21C201.70 120.21 202.06 119.84 202.06 119.40ZM196.68 118.58L199.02 114.97L199.02 118.58ZM209.37 119.63C209.47 118.07 208.42 117.53 208.42 117.53C208.42 117.53 209.38 117.03 209.28 115.55C209.17 114.11 208.03 113.20 206.00 113.20C204.80 113.20 203.87 113.55 203.15 114.12C202.97 114.27 202.88 114.47 202.88 114.68C202.88 115.14 203.28 115.46 203.69 115.46C203.84 115.46 204.00 115.42 204.13 115.33C204.64 115.01 205.21 114.84 205.81 114.84C206.72 114.84 207.42 115.05 207.42 115.73C207.42 116.45 206.99 116.79 206.12 116.79C205.49 116.79 205.22 117.14 205.22 117.59C205.22 118.05 205.49 118.41 206.17 118.41C207.05 118.41 207.56 118.72 207.56 119.41C207.56 120.06 206.98 120.52 205.92 120.52C205.32 120.52 204.64 120.31 204.06 119.97C203.92 119.88 203.76 119.84 203.61 119.84C203.18 119.84 202.76 120.19 202.76 120.66C202.76 120.79 202.80 120.91 202.87 121.01C203.27 121.69 204.74 122.16 205.99 122.16C208.07 122.16 209.26 121.26 209.37 119.63ZM217.56 117.67C217.56 115.44 216.44 113.20 213.97 113.20C211.49 113.20 210.38 115.44 210.38 117.67C210.38 119.91 211.49 122.16 213.97 122.16C216.44 122.16 217.56 119.91 217.56 117.67ZM215.67 117.67C215.67 119.27 215.20 120.52 213.97 120.52C212.72 120.52 212.25 119.27 212.25 117.67C212.25 116.07 212.72 114.84 213.97 114.84C215.20 114.84 215.67 116.07 215.67 117.67Z" fill="#627386" /></g><g aria-label="Changed Files: 511,229"><circle cx="22" cy="140" r="4" fill="#673bd6" /><path d="M39.11 135.19C36.59 135.19 34.60 137.01 34.60 139.67C34.60 142.34 36.59 144.16 39.11 144.16C40.46 144.16 41.40 143.60 42.07 142.87C42.18 142.76 42.23 142.62 42.23 142.47C42.23 142.15 41.97 141.87 41.63 141.87C41.46 141.87 41.28 141.95 41.18 142.08C40.64 142.67 39.88 143.01 39.11 143.01C37.29 143.01 35.94 141.61 35.94 139.67C35.94 137.72 37.29 136.33 39.11 136.33C39.86 136.33 40.67 136.69 41.18 137.28C41.28 137.42 41.46 137.49 41.62 137.49C41.96 137.49 42.23 137.21 42.23 136.89C42.23 136.73 42.18 136.59 42.07 136.47C41.41 135.73 40.46 135.19 39.11 135.19ZM49.17 139.94C49.17 138.62 48.22 137.56 46.90 137.56C45.79 137.56 45.22 138.10 44.92 138.60L44.92 135.81C44.92 135.51 44.66 135.25 44.36 135.25C44.02 135.25 43.76 135.51 43.76 135.81L43.76 143.51C43.76 143.82 44.02 144.08 44.34 144.08C44.66 144.08 44.92 143.82 44.92 143.51L44.92 140.56C44.92 139.38 45.54 138.59 46.53 138.59C47.47 138.59 48.01 139.29 48.01 140.33L48.01 143.51C48.01 143.82 48.27 144.08 48.59 144.08C48.91 144.08 49.17 143.82 49.17 143.51ZM56.09 139.75C56.09 138.15 54.92 137.56 53.56 137.56C52.72 137.56 51.77 137.84 51.17 138.44C51.09 138.53 51.06 138.63 51.06 138.74C51.06 139.01 51.30 139.19 51.54 139.19C51.63 139.19 51.73 139.15 51.82 139.09C52.29 138.72 52.81 138.54 53.40 138.54C54.28 138.54 54.93 139.01 54.93 139.80L54.93 140.15L53.12 140.15C51.82 140.15 50.68 140.66 50.68 142.08C50.68 143.45 51.82 144.16 52.86 144.16C53.84 144.16 54.42 143.86 54.93 143.30L54.93 143.51C54.93 143.88 55.23 144.08 55.46 144.08L55.50 144.08C55.83 144.08 56.09 143.82 56.09 143.51ZM54.93 140.96L54.93 141.84C54.93 142.58 54.09 143.34 53.17 143.34C52.33 143.34 51.85 142.83 51.85 142.10C51.85 141.35 52.45 140.96 53.44 140.96ZM63.34 139.97C63.34 138.64 62.38 137.56 61.05 137.56C59.96 137.56 59.40 138.10 59.10 138.60L59.10 138.20C59.10 137.90 58.84 137.64 58.54 137.64C58.21 137.64 57.95 137.90 57.95 138.20L57.95 143.51C57.95 143.82 58.21 144.08 58.52 144.08C58.84 144.08 59.10 143.82 59.10 143.51L59.10 140.49C59.10 139.42 59.67 138.59 60.68 138.59C61.61 138.59 62.18 139.32 62.18 140.36L62.18 143.51C62.18 143.82 62.44 144.08 62.76 144.08C63.08 144.08 63.34 143.82 63.34 143.51ZM70.84 138.20C70.84 137.90 70.58 137.64 70.28 137.64C69.95 137.64 69.69 137.90 69.69 138.20L69.69 138.63C69.18 137.96 68.45 137.56 67.62 137.56C65.99 137.56 64.84 138.79 64.84 140.81C64.84 142.86 66.01 144.05 67.62 144.05C68.48 144.05 69.22 143.60 69.69 142.96L69.69 143.79C69.69 145.13 68.72 145.60 67.75 145.60C67.06 145.60 66.51 145.46 66.03 145.05C65.94 144.99 65.85 144.96 65.73 144.96C65.47 144.96 65.24 145.18 65.24 145.46C65.24 145.59 65.29 145.70 65.37 145.78C65.98 146.37 66.86 146.55 67.75 146.55C69.28 146.55 70.84 145.91 70.84 143.75ZM69.69 140.83C69.69 142.12 68.84 143.03 67.80 143.03C66.63 143.03 66.03 142.10 66.03 140.81C66.03 139.50 66.63 138.59 67.80 138.59C68.84 138.59 69.69 139.49 69.69 140.78ZM78.51 140.65C78.51 140.40 78.45 140.13 78.40 139.92C78.03 138.51 76.99 137.56 75.47 137.56C73.65 137.56 72.34 139.03 72.34 140.85C72.34 142.83 73.70 144.16 75.57 144.16C76.50 144.16 78.11 143.68 78.11 142.97C78.11 142.53 77.67 142.43 77.38 142.57C76.93 142.91 76.22 143.22 75.69 143.22C74.42 143.22 73.64 142.35 73.55 141.27L77.91 141.27C78.24 141.27 78.51 140.96 78.51 140.65ZM73.55 140.41C73.60 139.54 74.21 138.50 75.46 138.50C76.80 138.50 77.37 139.57 77.39 140.41ZM85.64 135.81C85.64 135.51 85.38 135.25 85.08 135.25C84.74 135.25 84.48 135.51 84.48 135.81L84.48 138.63C83.97 137.96 83.36 137.56 82.41 137.56C80.77 137.56 79.62 138.85 79.62 140.87C79.62 142.92 80.79 144.16 82.41 144.16C83.39 144.16 84.00 143.73 84.48 143.10L84.48 143.51C84.48 143.82 84.74 144.08 85.05 144.08C85.38 144.08 85.64 143.82 85.64 143.51ZM84.48 140.91C84.48 142.21 83.83 143.13 82.71 143.13C81.54 143.13 80.81 142.18 80.81 140.87C80.81 139.55 81.54 138.59 82.71 138.59C83.83 138.59 84.48 139.54 84.48 140.83ZM96.76 135.91C96.76 135.58 96.52 135.33 96.20 135.33L91.73 135.33C91.27 135.33 90.89 135.71 90.89 136.17L90.89 143.44C90.89 143.79 91.17 144.08 91.52 144.08C91.89 144.08 92.17 143.79 92.17 143.44L92.17 140.15L96.11 140.15C96.43 140.15 96.67 139.89 96.67 139.59C96.67 139.25 96.43 139.01 96.11 139.01L92.17 139.01L92.17 136.47L96.20 136.47C96.52 136.47 96.76 136.21 96.76 135.91ZM98.65 135.39C98.25 135.39 97.91 135.73 97.91 136.15C97.91 136.55 98.25 136.89 98.65 136.89C99.06 136.89 99.39 136.55 99.39 136.15C99.39 135.73 99.06 135.39 98.65 135.39ZM99.23 138.20C99.23 137.90 98.97 137.64 98.67 137.64C98.34 137.64 98.08 137.90 98.08 138.20L98.08 143.51C98.08 143.82 98.34 144.08 98.65 144.08C98.97 144.08 99.23 143.82 99.23 143.51ZM102.26 135.81C102.26 135.51 102.00 135.25 101.70 135.25C101.37 135.25 101.11 135.51 101.11 135.81L101.11 143.51C101.11 143.82 101.37 144.08 101.68 144.08C102.00 144.08 102.26 143.82 102.26 143.51ZM109.93 140.65C109.93 140.40 109.87 140.13 109.82 139.92C109.45 138.51 108.41 137.56 106.89 137.56C105.07 137.56 103.76 139.03 103.76 140.85C103.76 142.83 105.12 144.16 106.99 144.16C107.92 144.16 109.53 143.68 109.53 142.97C109.53 142.53 109.09 142.43 108.80 142.57C108.35 142.91 107.64 143.22 107.11 143.22C105.84 143.22 105.06 142.35 104.97 141.27L109.33 141.27C109.66 141.27 109.93 140.96 109.93 140.65ZM104.97 140.41C105.02 139.54 105.63 138.50 106.88 138.50C108.22 138.50 108.79 139.57 108.81 140.41ZM116.02 142.10C115.90 139.89 112.30 140.50 112.17 139.37C112.12 138.87 112.66 138.49 113.46 138.49C114.05 138.49 114.61 138.68 115.02 138.97C115.09 139.03 115.18 139.06 115.29 139.06C115.52 139.06 115.74 138.87 115.74 138.60C115.74 138.50 115.70 138.40 115.63 138.32C115.13 137.84 114.34 137.56 113.44 137.56C111.91 137.56 110.99 138.29 111.05 139.41C111.17 141.52 114.76 140.87 114.89 142.26C114.94 142.83 114.42 143.23 113.52 143.23C112.87 143.23 112.22 142.97 111.75 142.63C111.66 142.57 111.57 142.54 111.45 142.54C111.18 142.54 110.95 142.75 110.95 143.03C110.95 143.16 111.00 143.26 111.09 143.34C111.66 143.91 112.61 144.16 113.47 144.16C115.13 144.16 116.08 143.30 116.02 142.10Z" fill="#22272e" /><path d="M180.03 141.15C180.03 139.40 178.71 138.34 177.25 138.34C176.45 138.34 175.75 138.66 175.33 139.07L175.33 136.95L178.73 136.95C179.16 136.95 179.52 136.59 179.52 136.15C179.52 135.69 179.16 135.33 178.73 135.33L174.53 135.33C173.96 135.33 173.49 135.80 173.49 136.37L173.49 139.70C173.49 140.20 173.85 140.58 174.42 140.58C174.68 140.58 174.93 140.50 175.14 140.36C175.61 140.05 176.06 139.94 176.59 139.94C177.58 139.94 178.16 140.46 178.16 141.23C178.16 141.93 177.57 142.52 176.54 142.52C175.92 142.52 175.32 142.35 174.81 142.04C174.66 141.95 174.49 141.89 174.33 141.89C173.88 141.89 173.45 142.25 173.45 142.73C173.45 142.86 173.49 142.99 173.55 143.10C173.96 143.78 175.43 144.16 176.56 144.16C178.65 144.16 180.03 143.00 180.03 141.15ZM184.97 136.32C184.97 135.73 184.47 135.26 183.89 135.26C183.59 135.26 183.30 135.38 183.11 135.58L181.11 137.60C180.95 137.76 180.87 137.96 180.87 138.15C180.87 138.58 181.24 138.92 181.64 138.92C181.82 138.92 182.00 138.85 182.15 138.71L183.12 137.71L183.12 143.17C183.12 143.66 183.54 144.08 184.03 144.08C184.55 144.08 184.97 143.66 184.97 143.17ZM190.31 136.32C190.31 135.73 189.82 135.26 189.23 135.26C188.93 135.26 188.65 135.38 188.45 135.58L186.45 137.60C186.29 137.76 186.21 137.96 186.21 138.15C186.21 138.58 186.58 138.92 186.98 138.92C187.16 138.92 187.35 138.85 187.49 138.71L188.46 137.71L188.46 143.17C188.46 143.66 188.88 144.08 189.37 144.08C189.89 144.08 190.31 143.66 190.31 143.17ZM193.96 143.36C193.96 142.52 193.40 142.04 192.79 142.04C192.25 142.04 191.78 142.50 191.78 143.08C191.78 143.64 192.17 144.01 192.66 144.01C192.75 144.01 192.87 143.99 192.91 143.97C192.83 144.31 192.55 144.72 192.21 144.99C192.12 145.07 192.08 145.17 192.08 145.27C192.08 145.53 192.35 145.69 192.57 145.69C192.70 145.69 192.82 145.65 192.91 145.56C193.56 144.97 193.96 144.19 193.96 143.36ZM201.71 143.17C201.71 142.74 201.35 142.38 200.92 142.38L198.10 142.38C200.35 140.74 201.57 139.45 201.57 137.97C201.57 136.24 200.10 135.20 198.25 135.20C197.16 135.20 195.70 135.67 195.29 136.33C195.21 136.45 195.17 136.58 195.17 136.71C195.17 137.18 195.55 137.54 195.98 137.54C196.17 137.54 196.34 137.49 196.51 137.37C197.00 137.03 197.60 136.84 198.29 136.84C199.01 136.84 199.70 137.21 199.70 137.97C199.70 138.98 198.66 139.93 195.42 142.32C195.17 142.50 195.03 142.80 195.03 143.10C195.03 143.62 195.44 144 195.90 144L200.92 144C201.35 144 201.71 143.64 201.71 143.17ZM209.51 143.17C209.51 142.74 209.15 142.38 208.72 142.38L205.90 142.38C208.15 140.74 209.37 139.45 209.37 137.97C209.37 136.24 207.90 135.20 206.05 135.20C204.96 135.20 203.50 135.67 203.09 136.33C203.01 136.45 202.97 136.58 202.97 136.71C202.97 137.18 203.35 137.54 203.78 137.54C203.97 137.54 204.14 137.49 204.31 137.37C204.81 137.03 205.40 136.84 206.09 136.84C206.81 136.84 207.50 137.21 207.50 137.97C207.50 138.98 206.46 139.93 203.22 142.32C202.97 142.50 202.83 142.80 202.83 143.10C202.83 143.62 203.25 144 203.70 144L208.72 144C209.15 144 209.51 143.64 209.51 143.17ZM210.49 138.16C210.49 140.01 211.88 140.98 213.44 140.98C214.52 140.98 215.32 140.45 215.66 139.87C215.67 139.93 215.67 139.98 215.67 140.05C215.67 141.43 214.78 142.50 213.50 142.50C213.06 142.50 212.70 142.43 212.37 142.26C212.25 142.19 212.12 142.17 211.99 142.17C211.59 142.17 211.15 142.48 211.15 142.97C211.15 143.10 211.19 143.22 211.24 143.32C211.56 143.90 212.66 144.14 213.50 144.14C216.06 144.14 217.55 142.28 217.55 139.66C217.55 137.21 216.44 135.19 213.80 135.19C211.83 135.19 210.49 136.47 210.49 138.16ZM212.36 138.10C212.36 137.45 212.84 136.82 213.84 136.82C214.66 136.82 215.27 137.38 215.27 138.19C215.27 138.97 214.65 139.53 213.84 139.53C213.01 139.53 212.36 138.97 212.36 138.10Z" fill="#627386" /></g><rect x="18" y="166" width="384" height="8" rx="4" fill="#f4faff" /><rect x="18.00" y="166" width="264.16" height="8" rx="4" fill="#00d559" /><rect x="282.16" y="166" width="119.84" height="8" rx="4" fill="#00a5fe" /></svg>