<svg xmlns="http://www.w3.org/2000/svg" width="420" height="184" viewBox="0 0 420 184" role="img"><rect x="0.5" y="0.5" width="419" height="183" rx="10" fill="#161b22" stroke="#30363d" /><path d="M30.72 33.60C30.72 32.83 30.10 32.21 29.37 32.21L28.69 32.21L28.69 24.95C28.69 23.59 27.37 22.97 26.03 23.19C25.08 23.19 24.14 23.70 23.63 24.49L18.73 32.24C18.53 32.54 18.44 32.90 18.44 33.25C18.44 34.24 19.17 34.96 20.05 34.96L25.57 34.96L25.57 36.59C25.57 37.43 26.27 38.13 27.11 38.13C27.99 38.13 28.69 37.43 28.69 36.59L28.69 34.96L29.37 34.96C30.10 34.96 30.72 34.35 30.72 33.60ZM21.61 32.21L25.57 26.10L25.57 32.21ZM43.83 33.23C43.83 30.10 41.47 28.45 38.83 28.45C37.01 28.45 35.64 29.35 35.07 30.34C35.05 30.23 35.05 30.15 35.05 30.04C35.05 27.70 36.57 25.88 38.72 25.88C39.47 25.88 40.09 26.01 40.64 26.30C40.84 26.41 41.06 26.45 41.28 26.45C41.96 26.45 42.71 25.92 42.71 25.09C42.71 24.87 42.64 24.67 42.55 24.49C42.00 23.52 40.15 23.11 38.72 23.11C34.39 23.11 31.88 26.25 31.88 30.70C31.88 34.83 33.75 38.26 38.22 38.26C41.56 38.26 43.83 36.09 43.83 33.23ZM40.66 33.34C40.66 34.44 39.85 35.49 38.15 35.49C36.77 35.49 35.73 34.55 35.73 33.18C35.73 31.86 36.79 30.92 38.15 30.92C39.56 30.92 40.66 31.86 40.66 33.34ZM49.24 36.92C49.24 35.49 48.29 34.68 47.26 34.68C46.34 34.68 45.54 35.47 45.54 36.44C45.54 37.38 46.20 38.02 47.04 38.02C47.19 38.02 47.39 37.98 47.46 37.96C47.33 38.53 46.84 39.21 46.27 39.67C46.12 39.80 46.05 39.98 46.05 40.16C46.05 40.60 46.51 40.86 46.89 40.86C47.11 40.86 47.30 40.79 47.46 40.64C48.56 39.65 49.24 38.33 49.24 36.92ZM50.80 28.12C50.80 31.25 53.16 32.90 55.80 32.90C57.62 32.90 58.99 31.99 59.56 31.00C59.58 31.11 59.58 31.20 59.58 31.31C59.58 33.64 58.06 35.47 55.91 35.47C55.16 35.47 54.54 35.34 53.99 35.05C53.79 34.94 53.57 34.90 53.35 34.90C52.67 34.90 51.92 35.43 51.92 36.26C51.92 36.48 51.99 36.68 52.08 36.86C52.63 37.82 54.48 38.24 55.91 38.24C60.24 38.24 62.75 35.10 62.75 30.65C62.75 26.52 60.88 23.08 56.41 23.08C53.07 23.08 50.80 25.26 50.80 28.12ZM53.97 28.01C53.97 26.91 54.78 25.86 56.48 25.86C57.86 25.86 58.90 26.80 58.90 28.17C58.90 29.49 57.84 30.43 56.48 30.43C55.07 30.43 53.97 29.49 53.97 28.01ZM76.23 33.60C76.23 32.83 75.62 32.21 74.89 32.21L74.21 32.21L74.21 24.95C74.21 23.59 72.89 22.97 71.55 23.19C70.60 23.19 69.66 23.70 69.15 24.49L64.24 32.24C64.05 32.54 63.96 32.90 63.96 33.25C63.96 34.24 64.68 34.96 65.56 34.96L71.09 34.96L71.09 36.59C71.09 37.43 71.79 38.13 72.63 38.13C73.51 38.13 74.21 37.43 74.21 36.59L74.21 34.96L74.89 34.96C75.62 34.96 76.23 34.35 76.23 33.60ZM67.13 32.21L71.09 26.10L71.09 32.21ZM84.24 25.00C84.24 24.01 83.41 23.22 82.42 23.22C81.91 23.22 81.43 23.41 81.10 23.74L77.71 27.18C77.44 27.44 77.31 27.77 77.31 28.10C77.31 28.83 77.93 29.40 78.61 29.40C78.92 29.40 79.23 29.29 79.47 29.05L81.12 27.35L81.12 36.59C81.12 37.43 81.82 38.13 82.66 38.13C83.54 38.13 84.24 37.43 84.24 36.59ZM99.88 23.08C95.48 23.08 92.07 26.16 92.07 30.67C92.07 35.18 95.48 38.26 99.88 38.26C102.41 38.26 104.11 37.16 105.21 35.82C105.43 35.58 105.52 35.27 105.52 34.96C105.52 34.22 104.88 33.60 104.09 33.60C103.65 33.60 103.21 33.78 102.90 34.11C102.08 35.01 100.98 35.49 99.88 35.49C97.22 35.49 95.29 33.45 95.29 30.67C95.29 27.90 97.22 25.86 99.88 25.86C100.98 25.86 102.06 26.38 102.90 27.26C103.21 27.59 103.62 27.77 104.04 27.77C104.86 27.77 105.54 27.15 105.54 26.36C105.54 26.08 105.43 25.75 105.23 25.50C104.11 24.16 102.41 23.08 99.88 23.08ZM118.39 32.68C118.39 29.66 116.27 27.11 112.75 27.11C109.26 27.11 107.14 29.66 107.14 32.68C107.14 35.71 109.26 38.26 112.75 38.26C116.27 38.26 118.39 35.71 118.39 32.68ZM115.48 32.68C115.48 34.35 114.49 35.78 112.75 35.78C111.02 35.78 110.05 34.35 110.05 32.68C110.05 31.03 111.02 29.60 112.75 29.60C114.49 29.60 115.48 31.03 115.48 32.68ZM136.45 31.20C136.45 29.02 134.93 27.11 132.53 27.11C130.68 27.11 129.63 28.19 129.23 28.94C128.84 28.17 127.85 27.11 126.06 27.11C124.44 27.11 123.69 27.70 123.25 28.28L123.25 28.25C123.25 27.95 122.85 27.24 121.88 27.24C121.07 27.24 120.45 27.86 120.45 28.61L120.45 36.75C120.45 37.52 121.07 38.13 121.84 38.13C122.63 38.13 123.25 37.52 123.25 36.75L123.25 31.73C123.25 30.70 124.04 29.60 125.23 29.60C126.37 29.60 127.03 30.74 127.03 31.73L127.03 36.75C127.03 37.52 127.65 38.13 128.42 38.13C129.23 38.13 129.85 37.52 129.85 36.75L129.85 31.93C129.85 30.70 130.62 29.60 131.83 29.60C132.97 29.60 133.63 30.74 133.63 31.73L133.63 36.75C133.63 37.52 134.25 38.13 135.02 38.13C135.83 38.13 136.45 37.52 136.45 36.75ZM155.19 31.20C155.19 29.02 153.67 27.11 151.28 27.11C149.43 27.11 148.37 28.19 147.98 28.94C147.58 28.17 146.59 27.11 144.81 27.11C143.18 27.11 142.43 27.70 141.99 28.28L141.99 28.25C141.99 27.95 141.60 27.24 140.63 27.24C139.81 27.24 139.20 27.86 139.20 28.61L139.20 36.75C139.20 37.52 139.81 38.13 140.58 38.13C141.38 38.13 141.99 37.52 141.99 36.75L141.99 31.73C141.99 30.70 142.78 29.60 143.97 29.60C145.12 29.60 145.78 30.74 145.78 31.73L145.78 36.75C145.78 37.52 146.39 38.13 147.16 38.13C147.98 38.13 148.59 37.52 148.59 36.75L148.59 31.93C148.59 30.70 149.36 29.60 150.57 29.60C151.72 29.60 152.38 30.74 152.38 31.73L152.38 36.75C152.38 37.52 152.99 38.13 153.76 38.13C154.58 38.13 155.19 37.52 155.19 36.75ZM159.33 22.91C158.43 22.91 157.66 23.63 157.66 24.56C157.66 25.48 158.43 26.23 159.33 26.23C160.25 26.23 161 25.48 161 24.56C161 23.63 160.25 22.91 159.33 22.91ZM160.74 28.61C160.74 27.86 160.12 27.24 159.37 27.24C158.56 27.24 157.94 27.86 157.94 28.61L157.94 36.75C157.94 37.52 158.56 38.13 159.33 38.13C160.12 38.13 160.74 37.52 160.74 36.75ZM169.32 36.99C169.32 36.31 168.88 35.78 168.08 35.78L167.84 35.78C167.40 35.78 166.87 35.45 166.87 34.61L166.87 29.82L167.97 29.82C168.61 29.82 169.16 29.27 169.16 28.61C169.16 27.92 168.61 27.37 167.97 27.37L166.87 27.37L166.87 25.72C166.87 24.95 166.26 24.34 165.49 24.34C164.67 24.34 164.06 24.95 164.06 25.72L164.06 27.37L163.38 27.37C162.72 27.37 162.17 27.92 162.17 28.56C162.17 29.27 162.72 29.82 163.38 29.82L164.06 29.82L164.06 35.36C164.06 37.25 165.11 38.26 167.07 38.26C168.90 38.26 169.32 37.69 169.32 36.99ZM179.37 34.85C179.37 30.56 173.08 31.88 173.08 30.30C173.08 29.71 173.74 29.24 174.75 29.24C175.61 29.24 176.47 29.49 177.15 29.88C177.30 29.97 177.50 30.01 177.68 30.01C178.25 30.01 178.78 29.55 178.78 28.96C178.78 28.76 178.71 28.56 178.60 28.41C178.01 27.55 176.11 27.11 174.73 27.11C171.93 27.11 170.37 28.67 170.37 30.45C170.37 34.63 176.69 33.20 176.69 34.96C176.69 35.62 176.11 36.11 174.90 36.11C173.98 36.11 172.88 35.73 172.04 35.25C171.87 35.14 171.67 35.10 171.47 35.10C170.88 35.10 170.31 35.60 170.31 36.26C170.31 36.48 170.37 36.68 170.50 36.86C171.16 37.80 173.39 38.26 174.77 38.26C177.72 38.26 179.37 36.79 179.37 34.85Z" fill="#e6edf3" /><path d="M20.26 49.88C20.26 49.54 19.98 49.25 19.64 49.25C19.26 49.25 18.98 49.54 18.98 49.88L18.98 57.44C18.98 57.79 19.26 58.08 19.61 58.08C19.98 58.08 20.26 57.79 20.26 57.44ZM27.55 53.97C27.55 52.64 26.59 51.56 25.27 51.56C24.18 51.56 23.62 52.10 23.32 52.60L23.32 52.20C23.32 51.90 23.06 51.64 22.76 51.64C22.42 51.64 22.16 51.90 22.16 52.20L22.16 57.51C22.16 57.82 22.42 58.08 22.73 58.08C23.06 58.08 23.32 57.82 23.32 57.51L23.32 54.49C23.32 53.42 23.89 52.59 24.89 52.59C25.83 52.59 26.40 53.32 26.40 54.36L26.40 57.51C26.40 57.82 26.66 58.08 26.97 58.08C27.30 58.08 27.55 57.82 27.55 57.51ZM38.97 49.91C38.97 49.58 38.72 49.33 38.41 49.33L32.70 49.33C32.39 49.33 32.14 49.58 32.14 49.89C32.14 50.21 32.39 50.47 32.70 50.47L34.91 50.47L34.91 57.44C34.91 57.79 35.20 58.08 35.55 58.08C35.91 58.08 36.20 57.79 36.20 57.44L36.20 50.47L38.41 50.47C38.72 50.47 38.97 50.21 38.97 49.91ZM44.74 54.85C44.74 53.05 43.53 51.56 41.57 51.56C39.62 51.56 38.41 53.05 38.41 54.85C38.41 56.66 39.62 58.16 41.57 58.16C43.53 58.16 44.74 56.66 44.74 54.85ZM43.53 54.85C43.53 56.06 42.83 57.13 41.57 57.13C40.32 57.13 39.61 56.06 39.61 54.85C39.61 53.66 40.32 52.59 41.57 52.59C42.83 52.59 43.53 53.66 43.53 54.85ZM49.16 57.55C49.16 57.27 48.95 57.06 48.67 57.06C48.54 57.06 48.38 57.13 48.24 57.13C47.86 57.13 47.63 56.83 47.63 56.35L47.63 52.73L48.48 52.73C48.76 52.73 48.98 52.51 48.98 52.24C48.98 51.94 48.76 51.72 48.48 51.72L47.63 51.72L47.63 50.49C47.63 50.19 47.37 49.93 47.05 49.93C46.72 49.93 46.46 50.19 46.46 50.49L46.46 51.72L45.85 51.72C45.56 51.72 45.34 51.94 45.34 52.22C45.34 52.51 45.56 52.73 45.85 52.73L46.46 52.73L46.46 56.62C46.46 57.61 46.98 58.16 47.96 58.16C48.65 58.16 49.16 57.96 49.16 57.55ZM55.26 53.75C55.26 52.15 54.09 51.56 52.74 51.56C51.89 51.56 50.94 51.84 50.34 52.44C50.27 52.53 50.23 52.63 50.23 52.73C50.23 53.01 50.47 53.19 50.71 53.19C50.80 53.19 50.90 53.15 50.99 53.09C51.46 52.72 51.98 52.54 52.57 52.54C53.45 52.54 54.10 53.01 54.10 53.80L54.10 54.15L52.29 54.15C50.99 54.15 49.85 54.66 49.85 56.08C49.85 57.45 50.99 58.16 52.03 58.16C53.01 58.16 53.59 57.86 54.10 57.30L54.10 57.51C54.10 57.88 54.40 58.08 54.63 58.08L54.67 58.08C55.00 58.08 55.26 57.82 55.26 57.51ZM54.10 54.96L54.10 55.84C54.10 56.58 53.26 57.34 52.35 57.34C51.50 57.34 51.02 56.83 51.02 56.10C51.02 55.35 51.62 54.96 52.61 54.96ZM58.27 49.81C58.27 49.51 58.01 49.25 57.71 49.25C57.38 49.25 57.12 49.51 57.12 49.81L57.12 57.51C57.12 57.82 57.38 58.08 57.69 58.08C58.01 58.08 58.27 57.82 58.27 57.51Z" fill="#9aa7b4" /><line x1="18" y1="76" x2="48" y2="76" stroke="#9aa7b4" stroke-opacity="0.4" /><g aria-label="Additions: 27,982,699"><circle cx="22" cy="96" r="4" fill="#00d559" /><path d="M42.28 99.39C42.28 99.31 42.27 99.23 42.23 99.14L39.36 91.94C39.19 91.51 38.76 91.24 38.30 91.25C37.85 91.25 37.43 91.52 37.28 91.94L34.40 99.14C34.38 99.23 34.36 99.31 34.36 99.39C34.36 99.74 34.65 100.08 35.05 100.08C35.33 100.08 35.57 99.92 35.68 99.66L36.25 98.19L40.40 98.19L40.97 99.66C41.07 99.92 41.32 100.08 41.59 100.08C42.01 100.08 42.28 99.71 42.28 99.39ZM38.32 92.64L40.03 97.06L36.61 97.06ZM49.22 91.81C49.22 91.51 48.96 91.25 48.66 91.25C48.33 91.25 48.07 91.51 48.07 91.81L48.07 94.63C47.56 93.95 46.95 93.56 46.00 93.56C44.36 93.56 43.20 94.85 43.20 96.87C43.20 98.92 44.37 100.16 46.00 100.16C46.97 100.16 47.59 99.73 48.07 99.10L48.07 99.51C48.07 99.82 48.33 100.08 48.64 100.08C48.96 100.08 49.22 99.82 49.22 99.51ZM48.07 96.91C48.07 98.21 47.42 99.13 46.30 99.13C45.13 99.13 44.40 98.18 44.40 96.87C44.40 95.55 45.13 94.59 46.30 94.59C47.42 94.59 48.07 95.54 48.07 96.83ZM56.74 91.81C56.74 91.51 56.48 91.25 56.18 91.25C55.84 91.25 55.58 91.51 55.58 91.81L55.58 94.63C55.07 93.95 54.46 93.56 53.51 93.56C51.88 93.56 50.72 94.85 50.72 96.87C50.72 98.92 51.89 100.16 53.51 100.16C54.49 100.16 55.10 99.73 55.58 99.10L55.58 99.51C55.58 99.82 55.84 100.08 56.15 100.08C56.48 100.08 56.74 99.82 56.74 99.51ZM55.58 96.91C55.58 98.21 54.93 99.13 53.81 99.13C52.64 99.13 51.91 98.18 51.91 96.87C51.91 95.55 52.64 94.59 53.81 94.59C54.93 94.59 55.58 95.54 55.58 96.83ZM59.18 91.39C58.78 91.39 58.44 91.73 58.44 92.15C58.44 92.55 58.78 92.89 59.18 92.89C59.60 92.89 59.92 92.55 59.92 92.15C59.92 91.73 59.60 91.39 59.18 91.39ZM59.77 94.20C59.77 93.90 59.51 93.64 59.21 93.64C58.87 93.64 58.61 93.90 58.61 94.20L58.61 99.51C58.61 99.82 58.87 100.08 59.18 100.08C59.51 100.08 59.77 99.82 59.77 99.51ZM64.56 99.55C64.56 99.27 64.36 99.06 64.07 99.06C63.94 99.06 63.78 99.13 63.64 99.13C63.26 99.13 63.03 98.83 63.03 98.35L63.03 94.73L63.89 94.73C64.16 94.73 64.38 94.51 64.38 94.24C64.38 93.94 64.16 93.72 63.89 93.72L63.03 93.72L63.03 92.49C63.03 92.19 62.77 91.93 62.46 91.93C62.12 91.93 61.86 92.19 61.86 92.49L61.86 93.72L61.25 93.72C60.96 93.72 60.74 93.94 60.74 94.22C60.74 94.51 60.96 94.73 61.25 94.73L61.86 94.73L61.86 98.62C61.86 99.61 62.38 100.16 63.37 100.16C64.06 100.16 64.56 99.96 64.56 99.55ZM66.19 91.39C65.79 91.39 65.45 91.73 65.45 92.15C65.45 92.55 65.79 92.89 66.19 92.89C66.60 92.89 66.93 92.55 66.93 92.15C66.93 91.73 66.60 91.39 66.19 91.39ZM66.77 94.20C66.77 93.90 66.51 93.64 66.21 93.64C65.88 93.64 65.62 93.90 65.62 94.20L65.62 99.51C65.62 99.82 65.88 100.08 66.19 100.08C66.51 100.08 66.77 99.82 66.77 99.51ZM74.60 96.85C74.60 95.05 73.39 93.56 71.43 93.56C69.48 93.56 68.27 95.05 68.27 96.85C68.27 98.66 69.48 100.16 71.43 100.16C73.39 100.16 74.60 98.66 74.60 96.85ZM73.39 96.85C73.39 98.06 72.69 99.13 71.43 99.13C70.18 99.13 69.46 98.06 69.46 96.85C69.46 95.66 70.18 94.59 71.43 94.59C72.69 94.59 73.39 95.66 73.39 96.85ZM81.49 95.97C81.49 94.64 80.53 93.56 79.20 93.56C78.11 93.56 77.55 94.10 77.25 94.61L77.25 94.20C77.25 93.90 76.99 93.64 76.69 93.64C76.35 93.64 76.09 93.90 76.09 94.20L76.09 99.51C76.09 99.82 76.35 100.08 76.67 100.08C76.99 100.08 77.25 99.82 77.25 99.51L77.25 96.49C77.25 95.42 77.82 94.59 78.82 94.59C79.76 94.59 80.33 95.32 80.33 96.36L80.33 99.51C80.33 99.82 80.59 100.08 80.90 100.08C81.23 100.08 81.49 99.82 81.49 99.51ZM87.96 98.10C87.85 95.89 84.24 96.50 84.11 95.37C84.06 94.86 84.61 94.49 85.40 94.49C86 94.49 86.56 94.68 86.96 94.97C87.04 95.03 87.13 95.06 87.23 95.06C87.47 95.06 87.69 94.86 87.69 94.61C87.69 94.50 87.65 94.40 87.57 94.32C87.08 93.84 86.29 93.56 85.39 93.56C83.86 93.56 82.93 94.29 83.00 95.41C83.11 97.52 86.70 96.87 86.83 98.26C86.88 98.83 86.36 99.23 85.47 99.23C84.82 99.23 84.17 98.97 83.70 98.64C83.61 98.57 83.52 98.54 83.40 98.54C83.13 98.54 82.89 98.75 82.89 99.03C82.89 99.16 82.94 99.26 83.04 99.34C83.61 99.91 84.56 100.16 85.41 100.16C87.08 100.16 88.03 99.30 87.96 98.10Z" fill="#e6edf3" /><path d="M157.87 99.17C157.87 98.74 157.51 98.38 157.08 98.38L154.26 98.38C156.51 96.74 157.73 95.45 157.73 93.97C157.73 92.24 156.26 91.20 154.42 91.20C153.32 91.20 151.87 91.67 151.45 92.33C151.37 92.45 151.34 92.58 151.34 92.71C151.34 93.17 151.71 93.54 152.14 93.54C152.34 93.54 152.51 93.49 152.67 93.37C153.17 93.03 153.77 92.84 154.46 92.84C155.17 92.84 155.86 93.21 155.86 93.97C155.86 94.98 154.82 95.93 151.58 98.32C151.34 98.50 151.19 98.80 151.19 99.10C151.19 99.62 151.61 100 152.06 100L157.08 100C157.51 100 157.87 99.64 157.87 99.17ZM165.36 92.27C165.36 91.72 164.92 91.33 164.47 91.33L159.50 91.33C159.06 91.33 158.69 91.69 158.69 92.12C158.69 92.59 159.06 92.95 159.50 92.95L163.14 92.95L160.55 98.82C160.50 98.93 160.47 99.05 160.47 99.17C160.47 99.64 160.85 100.08 161.40 100.08C161.77 100.08 162.13 99.86 162.27 99.52L165.28 92.63C165.34 92.53 165.36 92.39 165.36 92.27ZM167.12 99.36C167.12 98.52 166.56 98.04 165.95 98.04C165.40 98.04 164.93 98.50 164.93 99.08C164.93 99.64 165.32 100.01 165.82 100.01C165.91 100.01 166.03 99.99 166.06 99.97C165.99 100.31 165.70 100.72 165.36 100.99C165.27 101.07 165.23 101.17 165.23 101.27C165.23 101.53 165.51 101.69 165.73 101.69C165.86 101.69 165.97 101.65 166.06 101.56C166.71 100.97 167.12 100.19 167.12 99.36ZM168.04 94.16C168.04 96.01 169.43 96.98 170.99 96.98C172.07 96.98 172.88 96.45 173.21 95.87C173.23 95.93 173.23 95.98 173.23 96.05C173.23 97.43 172.33 98.50 171.06 98.50C170.61 98.50 170.25 98.43 169.93 98.26C169.81 98.19 169.68 98.17 169.55 98.17C169.15 98.17 168.70 98.48 168.70 98.97C168.70 99.10 168.74 99.22 168.79 99.32C169.12 99.90 170.21 100.14 171.06 100.14C173.62 100.14 175.10 98.28 175.10 95.66C175.10 93.21 173.99 91.19 171.36 91.19C169.38 91.19 168.04 92.47 168.04 94.16ZM169.91 94.10C169.91 93.45 170.39 92.82 171.39 92.82C172.21 92.82 172.82 93.38 172.82 94.19C172.82 94.97 172.20 95.53 171.39 95.53C170.56 95.53 169.91 94.97 169.91 94.10ZM182.98 97.62C182.98 96.44 182.28 95.76 181.76 95.53C182.20 95.32 182.83 94.83 182.83 93.49C182.83 91.99 181.22 91.20 179.49 91.20C177.75 91.20 176.15 91.99 176.15 93.49C176.15 94.83 176.78 95.32 177.22 95.53C176.70 95.76 176.01 96.44 176.01 97.62C176.01 99.25 177.67 100.16 179.49 100.16C181.31 100.16 182.98 99.23 182.98 97.62ZM180.95 93.77C180.95 94.42 180.29 94.80 179.49 94.80C178.70 94.80 178.02 94.42 178.02 93.77C178.02 93.15 178.64 92.78 179.49 92.78C180.34 92.78 180.95 93.15 180.95 93.77ZM181.11 97.52C181.11 98.15 180.38 98.57 179.49 98.57C178.58 98.57 177.88 98.15 177.88 97.52C177.88 96.79 178.69 96.36 179.49 96.36C180.29 96.36 181.11 96.79 181.11 97.52ZM190.65 99.17C190.65 98.74 190.28 98.38 189.85 98.38L187.03 98.38C189.28 96.74 190.50 95.45 190.50 93.97C190.50 92.24 189.04 91.20 187.19 91.20C186.10 91.20 184.64 91.67 184.23 92.33C184.15 92.45 184.11 92.58 184.11 92.71C184.11 93.17 184.49 93.54 184.91 93.54C185.11 93.54 185.28 93.49 185.45 93.37C185.94 93.03 186.54 92.84 187.23 92.84C187.94 92.84 188.63 93.21 188.63 93.97C188.63 94.98 187.59 95.93 184.36 98.32C184.11 98.50 183.97 98.80 183.97 99.10C183.97 99.62 184.38 100 184.84 100L189.85 100C190.28 100 190.65 99.64 190.65 99.17ZM194.03 99.36C194.03 98.52 193.47 98.04 192.86 98.04C192.31 98.04 191.84 98.50 191.84 99.08C191.84 99.64 192.23 100.01 192.73 100.01C192.82 100.01 192.94 99.99 192.97 99.97C192.90 100.31 192.61 100.72 192.27 100.99C192.18 101.07 192.14 101.17 192.14 101.27C192.14 101.53 192.42 101.69 192.64 101.69C192.77 101.69 192.88 101.65 192.97 101.56C193.63 100.97 194.03 100.19 194.03 99.36ZM201.79 97.18C201.79 95.33 200.40 94.36 198.84 94.36C197.76 94.36 196.95 94.89 196.62 95.48C196.60 95.41 196.60 95.36 196.60 95.29C196.60 93.92 197.50 92.84 198.77 92.84C199.22 92.84 199.58 92.91 199.90 93.08C200.02 93.15 200.15 93.17 200.28 93.17C200.68 93.17 201.13 92.86 201.13 92.37C201.13 92.24 201.09 92.12 201.04 92.02C200.71 91.45 199.62 91.20 198.77 91.20C196.21 91.20 194.73 93.06 194.73 95.68C194.73 98.13 195.84 100.16 198.47 100.16C200.45 100.16 201.79 98.87 201.79 97.18ZM199.92 97.24C199.92 97.89 199.44 98.52 198.44 98.52C197.62 98.52 197.01 97.96 197.01 97.15C197.01 96.37 197.63 95.81 198.44 95.81C199.27 95.81 199.92 96.37 199.92 97.24ZM202.58 94.16C202.58 96.01 203.97 96.98 205.53 96.98C206.61 96.98 207.42 96.45 207.76 95.87C207.77 95.93 207.77 95.98 207.77 96.05C207.77 97.43 206.87 98.50 205.60 98.50C205.16 98.50 204.79 98.43 204.47 98.26C204.35 98.19 204.22 98.17 204.09 98.17C203.69 98.17 203.25 98.48 203.25 98.97C203.25 99.10 203.28 99.22 203.34 99.32C203.66 99.90 204.75 100.14 205.60 100.14C208.16 100.14 209.64 98.28 209.64 95.66C209.64 93.21 208.54 91.19 205.90 91.19C203.92 91.19 202.58 92.47 202.58 94.16ZM204.45 94.10C204.45 93.45 204.94 92.82 205.94 92.82C206.75 92.82 207.37 93.38 207.37 94.19C207.37 94.97 206.74 95.53 205.94 95.53C205.10 95.53 204.45 94.97 204.45 94.10ZM210.49 94.16C210.49 96.01 211.88 96.98 213.44 96.98C214.52 96.98 215.32 96.45 215.66 95.87C215.67 95.93 215.67 95.98 215.67 96.05C215.67 97.43 214.78 98.50 213.50 98.50C213.06 98.50 212.70 98.43 212.37 98.26C212.25 98.19 212.12 98.17 211.99 98.17C211.59 98.17 211.15 98.48 211.15 98.97C211.15 99.10 211.19 99.22 211.24 99.32C211.56 99.90 212.66 100.14 213.50 100.14C216.06 100.14 217.55 98.28 217.55 95.66C217.55 93.21 216.44 91.19 213.80 91.19C211.83 91.19 210.49 92.47 210.49 94.16ZM212.36 94.10C212.36 93.45 212.84 92.82 213.84 92.82C214.66 92.82 215.27 93.38 215.27 94.19C215.27 94.97 214.65 95.53 213.84 95.53C213.01 95.53 212.36 94.97 212.36 94.10Z" fill="#9aa7b4" /></g><g aria-label="Deletions: 12,868,755"><circle cx="22" cy="118" r="4" fill="#00a5fe" /><path d="M42.54 117.67C42.54 115.17 40.76 113.33 38.06 113.33L35.82 113.33C35.35 113.33 34.98 113.71 34.98 114.17L34.98 121.16C34.98 121.62 35.35 122 35.82 122L38.06 122C40.76 122 42.54 120.18 42.54 117.67ZM41.23 117.67C41.23 119.43 40.06 120.86 38.06 120.86L36.26 120.86L36.26 114.47L38.06 114.47C40.11 114.47 41.23 115.89 41.23 117.67ZM49.90 118.65C49.90 118.40 49.83 118.13 49.78 117.92C49.42 116.51 48.38 115.56 46.86 115.56C45.04 115.56 43.72 117.03 43.72 118.85C43.72 120.83 45.09 122.16 46.96 122.16C47.88 122.16 49.50 121.67 49.50 120.97C49.50 120.53 49.05 120.43 48.77 120.57C48.31 120.91 47.61 121.22 47.08 121.22C45.80 121.22 45.02 120.35 44.93 119.27L49.30 119.27C49.63 119.27 49.90 118.96 49.90 118.65ZM44.93 118.41C44.98 117.54 45.60 116.50 46.84 116.50C48.18 116.50 48.76 117.57 48.78 118.41ZM52.54 113.81C52.54 113.51 52.28 113.25 51.98 113.25C51.64 113.25 51.38 113.51 51.38 113.81L51.38 121.51C51.38 121.82 51.64 122.08 51.95 122.08C52.28 122.08 52.54 121.82 52.54 121.51ZM60.21 118.65C60.21 118.40 60.14 118.13 60.09 117.92C59.73 116.51 58.69 115.56 57.17 115.56C55.35 115.56 54.03 117.03 54.03 118.85C54.03 120.83 55.40 122.16 57.27 122.16C58.19 122.16 59.81 121.67 59.81 120.97C59.81 120.53 59.36 120.43 59.08 120.57C58.62 120.91 57.92 121.22 57.39 121.22C56.11 121.22 55.33 120.35 55.24 119.27L59.61 119.27C59.94 119.27 60.21 118.96 60.21 118.65ZM55.24 118.41C55.29 117.54 55.91 116.50 57.15 116.50C58.49 116.50 59.06 117.57 59.09 118.41ZM64.62 121.55C64.62 121.27 64.41 121.06 64.12 121.06C63.99 121.06 63.84 121.13 63.69 121.13C63.32 121.13 63.08 120.83 63.08 120.35L63.08 116.73L63.94 116.73C64.21 116.73 64.43 116.51 64.43 116.24C64.43 115.94 64.21 115.72 63.94 115.72L63.08 115.72L63.08 114.49C63.08 114.19 62.82 113.93 62.51 113.93C62.17 113.93 61.91 114.19 61.91 114.49L61.91 115.72L61.30 115.72C61.01 115.72 60.79 115.94 60.79 116.22C60.79 116.51 61.01 116.73 61.30 116.73L61.91 116.73L61.91 120.62C61.91 121.61 62.43 122.16 63.42 122.16C64.11 122.16 64.62 121.96 64.62 121.55ZM66.24 113.39C65.84 113.39 65.50 113.73 65.50 114.15C65.50 114.55 65.84 114.89 66.24 114.89C66.66 114.89 66.98 114.55 66.98 114.15C66.98 113.73 66.66 113.39 66.24 113.39ZM66.83 116.20C66.83 115.90 66.56 115.64 66.27 115.64C65.93 115.64 65.67 115.90 65.67 116.20L65.67 121.51C65.67 121.82 65.93 122.08 66.24 122.08C66.56 122.08 66.83 121.82 66.83 121.51ZM74.65 118.85C74.65 117.05 73.44 115.56 71.48 115.56C69.53 115.56 68.32 117.05 68.32 118.85C68.32 120.66 69.53 122.16 71.48 122.16C73.44 122.16 74.65 120.66 74.65 118.85ZM73.44 118.85C73.44 120.06 72.74 121.13 71.48 121.13C70.23 121.13 69.52 120.06 69.52 118.85C69.52 117.66 70.23 116.59 71.48 116.59C72.74 116.59 73.44 117.66 73.44 118.85ZM81.54 117.97C81.54 116.64 80.58 115.56 79.25 115.56C78.16 115.56 77.60 116.10 77.30 116.61L77.30 116.20C77.30 115.90 77.04 115.64 76.74 115.64C76.41 115.64 76.15 115.90 76.15 116.20L76.15 121.51C76.15 121.82 76.41 122.08 76.72 122.08C77.04 122.08 77.30 121.82 77.30 121.51L77.30 118.49C77.30 117.42 77.88 116.59 78.88 116.59C79.81 116.59 80.38 117.32 80.38 118.36L80.38 121.51C80.38 121.82 80.64 122.08 80.96 122.08C81.28 122.08 81.54 121.82 81.54 121.51ZM88.01 120.10C87.90 117.89 84.30 118.50 84.17 117.37C84.11 116.86 84.66 116.49 85.45 116.49C86.05 116.49 86.61 116.68 87.01 116.97C87.09 117.03 87.18 117.06 87.29 117.06C87.52 117.06 87.74 116.86 87.74 116.61C87.74 116.50 87.70 116.40 87.62 116.32C87.13 115.84 86.34 115.56 85.44 115.56C83.91 115.56 82.98 116.29 83.05 117.41C83.17 119.52 86.75 118.87 86.88 120.26C86.94 120.83 86.42 121.23 85.52 121.23C84.87 121.23 84.22 120.97 83.75 120.64C83.66 120.57 83.57 120.54 83.45 120.54C83.18 120.54 82.94 120.75 82.94 121.03C82.94 121.16 83.00 121.26 83.09 121.34C83.66 121.91 84.61 122.16 85.47 122.16C87.13 122.16 88.08 121.30 88.01 120.10Z" fill="#e6edf3" /><path d="M157.08 114.32C157.08 113.73 156.59 113.26 156.00 113.26C155.70 113.26 155.42 113.38 155.22 113.58L153.22 115.60C153.06 115.76 152.99 115.95 152.99 116.15C152.99 116.58 153.35 116.92 153.75 116.92C153.94 116.92 154.12 116.85 154.26 116.71L155.24 115.71L155.24 121.17C155.24 121.66 155.65 122.08 156.15 122.08C156.67 122.08 157.08 121.66 157.08 121.17ZM165.15 121.17C165.15 120.74 164.79 120.38 164.36 120.38L161.54 120.38C163.79 118.74 165.01 117.45 165.01 115.97C165.01 114.24 163.54 113.20 161.70 113.20C160.60 113.20 159.15 113.67 158.73 114.33C158.65 114.45 158.62 114.58 158.62 114.71C158.62 115.17 158.99 115.54 159.42 115.54C159.62 115.54 159.79 115.49 159.95 115.37C160.45 115.03 161.05 114.84 161.74 114.84C162.45 114.84 163.14 115.21 163.14 115.97C163.14 116.98 162.10 117.93 158.86 120.32C158.62 120.50 158.47 120.80 158.47 121.10C158.47 121.62 158.89 122 159.34 122L164.36 122C164.79 122 165.15 121.64 165.15 121.17ZM168.53 121.36C168.53 120.52 167.98 120.04 167.36 120.04C166.82 120.04 166.35 120.50 166.35 121.08C166.35 121.64 166.74 122.01 167.23 122.01C167.33 122.01 167.44 121.99 167.48 121.97C167.40 122.31 167.12 122.72 166.78 122.99C166.69 123.07 166.65 123.17 166.65 123.27C166.65 123.53 166.92 123.69 167.14 123.69C167.27 123.69 167.39 123.65 167.48 123.56C168.13 122.97 168.53 122.19 168.53 121.36ZM176.49 119.62C176.49 118.44 175.79 117.76 175.27 117.53C175.71 117.32 176.35 116.83 176.35 115.49C176.35 113.99 174.74 113.20 173.01 113.20C171.26 113.20 169.67 113.99 169.67 115.49C169.67 116.83 170.29 117.32 170.73 117.53C170.21 117.76 169.52 118.44 169.52 119.62C169.52 121.25 171.19 122.16 173.01 122.16C174.83 122.16 176.49 121.23 176.49 119.62ZM174.46 115.77C174.46 116.42 173.80 116.80 173.01 116.80C172.21 116.80 171.54 116.42 171.54 115.77C171.54 115.15 172.15 114.78 173.01 114.78C173.85 114.78 174.46 115.15 174.46 115.77ZM174.62 119.52C174.62 120.15 173.89 120.57 173.01 120.57C172.10 120.57 171.39 120.15 171.39 119.52C171.39 118.79 172.20 118.36 173.01 118.36C173.80 118.36 174.62 118.79 174.62 119.52ZM184.45 119.18C184.45 117.33 183.06 116.36 181.50 116.36C180.42 116.36 179.61 116.89 179.27 117.48C179.26 117.41 179.26 117.36 179.26 117.29C179.26 115.92 180.16 114.84 181.43 114.84C181.87 114.84 182.24 114.91 182.56 115.08C182.68 115.15 182.81 115.17 182.94 115.17C183.34 115.17 183.78 114.86 183.78 114.37C183.78 114.24 183.75 114.12 183.69 114.02C183.37 113.45 182.28 113.20 181.43 113.20C178.87 113.20 177.39 115.06 177.39 117.68C177.39 120.13 178.49 122.16 181.13 122.16C183.11 122.16 184.45 120.87 184.45 119.18ZM182.57 119.24C182.57 119.89 182.09 120.52 181.09 120.52C180.27 120.52 179.66 119.96 179.66 119.15C179.66 118.37 180.29 117.81 181.09 117.81C181.93 117.81 182.57 118.37 182.57 119.24ZM192.27 119.62C192.27 118.44 191.57 117.76 191.05 117.53C191.49 117.32 192.13 116.83 192.13 115.49C192.13 113.99 190.52 113.20 188.79 113.20C187.05 113.20 185.45 113.99 185.45 115.49C185.45 116.83 186.07 117.32 186.51 117.53C185.99 117.76 185.31 118.44 185.31 119.62C185.31 121.25 186.97 122.16 188.79 122.16C190.61 122.16 192.27 121.23 192.27 119.62ZM190.25 115.77C190.25 116.42 189.58 116.80 188.79 116.80C188.00 116.80 187.32 116.42 187.32 115.77C187.32 115.15 187.93 114.78 188.79 114.78C189.63 114.78 190.25 115.15 190.25 115.77ZM190.40 119.52C190.40 120.15 189.67 120.57 188.79 120.57C187.88 120.57 187.18 120.15 187.18 119.52C187.18 118.79 187.98 118.36 188.79 118.36C189.58 118.36 190.40 118.79 190.40 119.52ZM195.52 121.36C195.52 120.52 194.96 120.04 194.35 120.04C193.81 120.04 193.34 120.50 193.34 121.08C193.34 121.64 193.73 122.01 194.22 122.01C194.31 122.01 194.43 121.99 194.47 121.97C194.39 122.31 194.11 122.72 193.77 122.99C193.68 123.07 193.64 123.17 193.64 123.27C193.64 123.53 193.91 123.69 194.13 123.69C194.26 123.69 194.38 123.65 194.47 123.56C195.12 122.97 195.52 122.19 195.52 121.36ZM202.01 114.27C202.01 113.72 201.57 113.33 201.11 113.33L196.15 113.33C195.71 113.33 195.34 113.69 195.34 114.12C195.34 114.59 195.71 114.95 196.15 114.95L199.79 114.95L197.20 120.82C197.15 120.93 197.12 121.05 197.12 121.17C197.12 121.64 197.50 122.08 198.04 122.08C198.42 122.08 198.77 121.86 198.92 121.52L201.93 114.63C201.98 114.53 202.01 114.39 202.01 114.27ZM209.64 119.15C209.64 117.40 208.33 116.34 206.86 116.34C206.07 116.34 205.36 116.66 204.95 117.07L204.95 114.95L208.34 114.95C208.77 114.95 209.13 114.59 209.13 114.15C209.13 113.69 208.77 113.33 208.34 113.33L204.14 113.33C203.57 113.33 203.10 113.80 203.10 114.37L203.10 117.70C203.10 118.20 203.47 118.58 204.04 118.58C204.30 118.58 204.55 118.50 204.75 118.36C205.22 118.05 205.68 117.94 206.21 117.94C207.20 117.94 207.77 118.46 207.77 119.23C207.77 119.93 207.18 120.52 206.16 120.52C205.53 120.52 204.94 120.35 204.43 120.04C204.27 119.95 204.10 119.89 203.95 119.89C203.49 119.89 203.06 120.25 203.06 120.73C203.06 120.86 203.10 120.99 203.17 121.10C203.57 121.78 205.04 122.16 206.17 122.16C208.26 122.16 209.64 121.00 209.64 119.15ZM217.55 119.15C217.55 117.40 216.23 116.34 214.76 116.34C213.97 116.34 213.27 116.66 212.85 117.07L212.85 114.95L216.25 114.95C216.67 114.95 217.04 114.59 217.04 114.15C217.04 113.69 216.67 113.33 216.25 113.33L212.05 113.33C211.47 113.33 211.01 113.80 211.01 114.37L211.01 117.70C211.01 118.20 211.37 118.58 211.94 118.58C212.20 118.58 212.45 118.50 212.66 118.36C213.13 118.05 213.58 117.94 214.11 117.94C215.10 117.94 215.67 118.46 215.67 119.23C215.67 119.93 215.09 120.52 214.06 120.52C213.44 120.52 212.84 120.35 212.33 120.04C212.18 119.95 212.01 119.89 211.85 119.89C211.40 119.89 210.97 120.25 210.97 120.73C210.97 120.86 211.01 120.99 211.07 121.10C211.47 121.78 212.94 122.16 214.07 122.16C216.17 122.16 217.55 121.00 217.55 119.15Z" fill="#9aa7b4" /></g><g aria-label="Changed Files: 500,628"><circle cx="22" cy="140" r="4" fill="#673bd6" /><path d="M39.11 135.19C36.59 135.19 34.60 137.01 34.60 139.67C34.60 142.34 36.59 144.16 39.11 144.16C40.46 144.16 41.40 143.60 42.07 142.87C42.18 142.76 42.23 142.62 42.23 142.47C42.23 142.15 41.97 141.87 41.63 141.87C41.46 141.87 41.28 141.95 41.18 142.08C40.64 142.67 39.88 143.01 39.11 143.01C37.29 143.01 35.94 141.61 35.94 139.67C35.94 137.72 37.29 136.33 39.11 136.33C39.86 136.33 40.67 136.69 41.18 137.28C41.28 137.42 41.46 137.49 41.62 137.49C41.96 137.49 42.23 137.21 42.23 136.89C42.23 136.73 42.18 136.59 42.07 136.47C41.41 135.73 40.46 135.19 39.11 135.19ZM49.17 139.94C49.17 138.62 48.22 137.56 46.90 137.56C45.79 137.56 45.22 138.10 44.92 138.60L44.92 135.81C44.92 135.51 44.66 135.25 44.36 135.25C44.02 135.25 43.76 135.51 43.76 135.81L43.76 143.51C43.76 143.82 44.02 144.08 44.34 144.08C44.66 144.08 44.92 143.82 44.92 143.51L44.92 140.56C44.92 139.38 45.54 138.59 46.53 138.59C47.47 138.59 48.01 139.29 48.01 140.33L48.01 143.51C48.01 143.82 48.27 144.08 48.59 144.08C48.91 144.08 49.17 143.82 49.17 143.51ZM56.09 139.75C56.09 138.15 54.92 137.56 53.56 137.56C52.72 137.56 51.77 137.84 51.17 138.44C51.09 138.53 51.06 138.63 51.06 138.74C51.06 139.01 51.30 139.19 51.54 139.19C51.63 139.19 51.73 139.15 51.82 139.09C52.29 138.72 52.81 138.54 53.40 138.54C54.28 138.54 54.93 139.01 54.93 139.80L54.93 140.15L53.12 140.15C51.82 140.15 50.68 140.66 50.68 142.08C50.68 143.45 51.82 144.16 52.86 144.16C53.84 144.16 54.42 143.86 54.93 143.30L54.93 143.51C54.93 143.88 55.23 144.08 55.46 144.08L55.50 144.08C55.83 144.08 56.09 143.82 56.09 143.51ZM54.93 140.96L54.93 141.84C54.93 142.58 54.09 143.34 53.17 143.34C52.33 143.34 51.85 142.83 51.85 142.10C51.85 141.35 52.45 140.96 53.44 140.96ZM63.34 139.97C63.34 138.64 62.38 137.56 61.05 137.56C59.96 137.56 59.40 138.10 59.10 138.60L59.10 138.20C59.10 137.90 58.84 137.64 58.54 137.64C58.21 137.64 57.95 137.90 57.95 138.20L57.95 143.51C57.95 143.82 58.21 144.08 58.52 144.08C58.84 144.08 59.10 143.82 59.10 143.51L59.10 140.49C59.10 139.42 59.67 138.59 60.68 138.59C61.61 138.59 62.18 139.32 62.18 140.36L62.18 143.51C62.18 143.82 62.44 144.08 62.76 144.08C63.08 144.08 63.34 143.82 63.34 143.51ZM70.84 138.20C70.84 137.90 70.58 137.64 70.28 137.64C69.95 137.64 69.69 137.90 69.69 138.20L69.69 138.63C69.18 137.96 68.45 137.56 67.62 137.56C65.99 137.56 64.84 138.79 64.84 140.81C64.84 142.86 66.01 144.05 67.62 144.05C68.48 144.05 69.22 143.60 69.69 142.96L69.69 143.79C69.69 145.13 68.72 145.60 67.75 145.60C67.06 145.60 66.51 145.46 66.03 145.05C65.94 144.99 65.85 144.96 65.73 144.96C65.47 144.96 65.24 145.18 65.24 145.46C65.24 145.59 65.29 145.70 65.37 145.78C65.98 146.37 66.86 146.55 67.75 146.55C69.28 146.55 70.84 145.91 70.84 143.75ZM69.69 140.83C69.69 142.12 68.84 143.03 67.80 143.03C66.63 143.03 66.03 142.10 66.03 140.81C66.03 139.50 66.63 138.59 67.80 138.59C68.84 138.59 69.69 139.49 69.69 140.78ZM78.51 140.65C78.51 140.40 78.45 140.13 78.40 139.92C78.03 138.51 76.99 137.56 75.47 137.56C73.65 137.56 72.34 139.03 72.34 140.85C72.34 142.83 73.70 144.16 75.57 144.16C76.50 144.16 78.11 143.68 78.11 142.97C78.11 142.53 77.67 142.43 77.38 142.57C76.93 142.91 76.22 143.22 75.69 143.22C74.42 143.22 73.64 142.35 73.55 141.27L77.91 141.27C78.24 141.27 78.51 140.96 78.51 140.65ZM73.55 140.41C73.60 139.54 74.21 138.50 75.46 138.50C76.80 138.50 77.37 139.57 77.39 140.41ZM85.64 135.81C85.64 135.51 85.38 135.25 85.08 135.25C84.74 135.25 84.48 135.51 84.48 135.81L84.48 138.63C83.97 137.96 83.36 137.56 82.41 137.56C80.77 137.56 79.62 138.85 79.62 140.87C79.62 142.92 80.79 144.16 82.41 144.16C83.39 144.16 84.00 143.73 84.48 143.10L84.48 143.51C84.48 143.82 84.74 144.08 85.05 144.08C85.38 144.08 85.64 143.82 85.64 143.51ZM84.48 140.91C84.48 142.21 83.83 143.13 82.71 143.13C81.54 143.13 80.81 142.18 80.81 140.87C80.81 139.55 81.54 138.59 82.71 138.59C83.83 138.59 84.48 139.54 84.48 140.83ZM96.76 135.91C96.76 135.58 96.52 135.33 96.20 135.33L91.73 135.33C91.27 135.33 90.89 135.71 90.89 136.17L90.89 143.44C90.89 143.79 91.17 144.08 91.52 144.08C91.89 144.08 92.17 143.79 92.17 143.44L92.17 140.15L96.11 140.15C96.43 140.15 96.67 139.89 96.67 139.59C96.67 139.25 96.43 139.01 96.11 139.01L92.17 139.01L92.17 136.47L96.20 136.47C96.52 136.47 96.76 136.21 96.76 135.91ZM98.65 135.39C98.25 135.39 97.91 135.73 97.91 136.15C97.91 136.55 98.25 136.89 98.65 136.89C99.06 136.89 99.39 136.55 99.39 136.15C99.39 135.73 99.06 135.39 98.65 135.39ZM99.23 138.20C99.23 137.90 98.97 137.64 98.67 137.64C98.34 137.64 98.08 137.90 98.08 138.20L98.08 143.51C98.08 143.82 98.34 144.08 98.65 144.08C98.97 144.08 99.23 143.82 99.23 143.51ZM102.26 135.81C102.26 135.51 102.00 135.25 101.70 135.25C101.37 135.25 101.11 135.51 101.11 135.81L101.11 143.51C101.11 143.82 101.37 144.08 101.68 144.08C102.00 144.08 102.26 143.82 102.26 143.51ZM109.93 140.65C109.93 140.40 109.87 140.13 109.82 139.92C109.45 138.51 108.41 137.56 106.89 137.56C105.07 137.56 103.76 139.03 103.76 140.85C103.76 142.83 105.12 144.16 106.99 144.16C107.92 144.16 109.53 143.68 109.53 142.97C109.53 142.53 109.09 142.43 108.80 142.57C108.35 142.91 107.64 143.22 107.11 143.22C105.84 143.22 105.06 142.35 104.97 141.27L109.33 141.27C109.66 141.27 109.93 140.96 109.93 140.65ZM104.97 140.41C105.02 139.54 105.63 138.50 106.88 138.50C108.22 138.50 108.79 139.57 108.81 140.41ZM116.02 142.10C115.90 139.89 112.30 140.50 112.17 139.37C112.12 138.87 112.66 138.49 113.46 138.49C114.05 138.49 114.61 138.68 115.02 138.97C115.09 139.03 115.18 139.06 115.29 139.06C115.52 139.06 115.74 138.87 115.74 138.60C115.74 138.50 115.70 138.40 115.63 138.32C115.13 137.84 114.34 137.56 113.44 137.56C111.91 137.56 110.99 138.29 111.05 139.41C111.17 141.52 114.76 140.87 114.89 142.26C114.94 142.83 114.42 143.23 113.52 143.23C112.87 143.23 112.22 142.97 111.75 142.63C111.66 142.57 111.57 142.54 111.45 142.54C111.18 142.54 110.95 142.75 110.95 143.03C110.95 143.16 111.00 143.26 111.09 143.34C111.66 143.91 112.61 144.16 113.47 144.16C115.13 144.16 116.08 143.30 116.02 142.10Z" fill="#e6edf3" /><path d="M175.06 141.15C175.06 139.40 173.75 138.34 172.28 138.34C171.49 138.34 170.78 138.66 170.37 139.07L170.37 136.95L173.76 136.95C174.19 136.95 174.55 136.59 174.55 136.15C174.55 135.69 174.19 135.33 173.76 135.33L169.56 135.33C168.99 135.33 168.52 135.80 168.52 136.37L168.52 139.70C168.52 140.20 168.89 140.58 169.46 140.58C169.72 140.58 169.97 140.50 170.17 140.36C170.64 140.05 171.10 139.94 171.63 139.94C172.62 139.94 173.19 140.46 173.19 141.23C173.19 141.93 172.60 142.52 171.58 142.52C170.95 142.52 170.35 142.35 169.85 142.04C169.69 141.95 169.52 141.89 169.37 141.89C168.91 141.89 168.48 142.25 168.48 142.73C168.48 142.86 168.52 142.99 168.59 143.10C168.99 143.78 170.46 144.16 171.59 144.16C173.68 144.16 175.06 143.00 175.06 141.15ZM183.13 139.67C183.13 137.44 182.02 135.20 179.55 135.20C177.06 135.20 175.96 137.44 175.96 139.67C175.96 141.91 177.06 144.16 179.55 144.16C182.02 144.16 183.13 141.91 183.13 139.67ZM181.25 139.67C181.25 141.27 180.78 142.52 179.55 142.52C178.30 142.52 177.83 141.27 177.83 139.67C177.83 138.07 178.30 136.84 179.55 136.84C180.78 136.84 181.25 138.07 181.25 139.67ZM191.19 139.67C191.19 137.44 190.08 135.20 187.61 135.20C185.12 135.20 184.02 137.44 184.02 139.67C184.02 141.91 185.12 144.16 187.61 144.16C190.08 144.16 191.19 141.91 191.19 139.67ZM189.31 139.67C189.31 141.27 188.84 142.52 187.61 142.52C186.36 142.52 185.89 141.27 185.89 139.67C185.89 138.07 186.36 136.84 187.61 136.84C188.84 136.84 189.31 138.07 189.31 139.67ZM194.16 143.36C194.16 142.52 193.60 142.04 192.99 142.04C192.44 142.04 191.97 142.50 191.97 143.08C191.97 143.64 192.36 144.01 192.86 144.01C192.95 144.01 193.07 143.99 193.10 143.97C193.03 144.31 192.74 144.72 192.40 144.99C192.31 145.07 192.27 145.17 192.27 145.27C192.27 145.53 192.55 145.69 192.77 145.69C192.90 145.69 193.01 145.65 193.10 145.56C193.75 144.97 194.16 144.19 194.16 143.36ZM201.92 141.18C201.92 139.33 200.53 138.36 198.97 138.36C197.89 138.36 197.08 138.89 196.75 139.48C196.73 139.41 196.73 139.36 196.73 139.29C196.73 137.92 197.63 136.84 198.90 136.84C199.34 136.84 199.71 136.91 200.03 137.08C200.15 137.15 200.28 137.18 200.41 137.18C200.81 137.18 201.26 136.86 201.26 136.37C201.26 136.24 201.22 136.12 201.17 136.02C200.84 135.45 199.75 135.20 198.90 135.20C196.34 135.20 194.86 137.06 194.86 139.68C194.86 142.13 195.97 144.16 198.60 144.16C200.58 144.16 201.92 142.87 201.92 141.18ZM200.05 141.24C200.05 141.89 199.57 142.52 198.56 142.52C197.75 142.52 197.14 141.96 197.14 141.15C197.14 140.37 197.76 139.81 198.56 139.81C199.40 139.81 200.05 140.37 200.05 141.24ZM209.54 143.17C209.54 142.74 209.17 142.38 208.74 142.38L205.92 142.38C208.17 140.74 209.39 139.45 209.39 137.97C209.39 136.24 207.93 135.20 206.08 135.20C204.99 135.20 203.53 135.67 203.12 136.33C203.04 136.45 203.00 136.58 203.00 136.71C203.00 137.18 203.38 137.54 203.80 137.54C204.00 137.54 204.17 137.49 204.34 137.37C204.83 137.03 205.43 136.84 206.12 136.84C206.83 136.84 207.52 137.21 207.52 137.97C207.52 138.98 206.48 139.93 203.25 142.32C203.00 142.50 202.85 142.80 202.85 143.10C202.85 143.62 203.27 144 203.73 144L208.74 144C209.17 144 209.54 143.64 209.54 143.17ZM217.55 141.62C217.55 140.44 216.84 139.76 216.32 139.53C216.77 139.32 217.40 138.83 217.40 137.49C217.40 135.99 215.79 135.20 214.06 135.20C212.32 135.20 210.72 135.99 210.72 137.49C210.72 138.83 211.34 139.32 211.79 139.53C211.27 139.76 210.58 140.44 210.58 141.62C210.58 143.25 212.24 144.16 214.06 144.16C215.88 144.16 217.55 143.23 217.55 141.62ZM215.52 137.77C215.52 138.42 214.85 138.80 214.06 138.80C213.27 138.80 212.59 138.42 212.59 137.77C212.59 137.15 213.20 136.78 214.06 136.78C214.91 136.78 215.52 137.15 215.52 137.77ZM215.67 141.52C215.67 142.15 214.95 142.57 214.06 142.57C213.15 142.57 212.45 142.15 212.45 141.52C212.45 140.79 213.26 140.36 214.06 140.36C214.85 140.36 215.67 140.79 215.67 141.52Z" fill="#9aa7b4" /></g><rect x="18" y="166" width="384" height="8" rx="4" fill="#21262d" /><rect x="18.00" y="166" width="263.03" height="8" rx="4" fill="#00d559" /><rect x="281.03" y="166" width="120.97" height="8" rx="4" fill="#00a5fe" /></svg>