<svg xmlns="http://www.w3.org/2000/svg" width="420" height="184" viewBox="0 0 420 184" role="img"><rect x="0.5" y="0.5" width="419" height="183" rx="10" fill="#161b22" stroke="#30363d" /><path d="M30.72 33.60C30.72 32.83 30.10 32.21 29.37 32.21L28.69 32.21L28.69 24.95C28.69 23.59 27.37 22.97 26.03 23.19C25.08 23.19 24.14 23.70 23.63 24.49L18.73 32.24C18.53 32.54 18.44 32.90 18.44 33.25C18.44 34.24 19.17 34.96 20.05 34.96L25.57 34.96L25.57 36.59C25.57 37.43 26.27 38.13 27.11 38.13C27.99 38.13 28.69 37.43 28.69 36.59L28.69 34.96L29.37 34.96C30.10 34.96 30.72 34.35 30.72 33.60ZM21.61 32.21L25.57 26.10L25.57 32.21ZM42.82 24.91C42.82 23.99 42.07 23.33 41.30 23.33L32.89 23.33C32.15 23.33 31.53 23.94 31.53 24.67C31.53 25.46 32.15 26.08 32.89 26.08L39.05 26.08L34.68 36.00C34.59 36.20 34.54 36.39 34.54 36.59C34.54 37.38 35.18 38.13 36.11 38.13C36.74 38.13 37.34 37.76 37.58 37.19L42.68 25.53C42.77 25.35 42.82 25.13 42.82 24.91ZM45.79 36.92C45.79 35.49 44.84 34.68 43.81 34.68C42.88 34.68 42.09 35.47 42.09 36.44C42.09 37.38 42.75 38.02 43.59 38.02C43.74 38.02 43.94 37.98 44.00 37.96C43.87 38.53 43.39 39.21 42.82 39.67C42.66 39.80 42.60 39.98 42.60 40.16C42.60 40.60 43.06 40.86 43.43 40.86C43.65 40.86 43.85 40.79 44.00 40.64C45.10 39.65 45.79 38.33 45.79 36.92ZM52.10 25.00C52.10 24.01 51.26 23.22 50.27 23.22C49.77 23.22 49.28 23.41 48.95 23.74L45.57 27.18C45.30 27.44 45.17 27.77 45.17 28.10C45.17 28.83 45.79 29.40 46.47 29.40C46.78 29.40 47.08 29.29 47.33 29.05L48.98 27.35L48.98 36.59C48.98 37.43 49.68 38.13 50.52 38.13C51.40 38.13 52.10 37.43 52.10 36.59ZM65.50 34.00C65.67 31.36 63.89 30.43 63.89 30.43C63.89 30.43 65.52 29.60 65.34 27.09C65.17 24.65 63.23 23.11 59.80 23.11C57.78 23.11 56.19 23.70 54.98 24.67C54.67 24.91 54.52 25.26 54.52 25.61C54.52 26.38 55.20 26.93 55.88 26.93C56.15 26.93 56.41 26.87 56.63 26.71C57.49 26.16 58.46 25.88 59.47 25.88C61.01 25.88 62.20 26.23 62.20 27.40C62.20 28.61 61.47 29.18 60.00 29.18C58.94 29.18 58.48 29.77 58.48 30.54C58.48 31.31 58.94 31.93 60.09 31.93C61.58 31.93 62.44 32.46 62.44 33.62C62.44 34.72 61.45 35.49 59.67 35.49C58.66 35.49 57.49 35.14 56.52 34.57C56.28 34.41 56.02 34.35 55.75 34.35C55.03 34.35 54.32 34.94 54.32 35.73C54.32 35.95 54.39 36.15 54.50 36.33C55.18 37.47 57.67 38.26 59.78 38.26C63.30 38.26 65.32 36.75 65.50 34.00ZM78.68 36.59C78.68 35.87 78.06 35.25 77.33 35.25L72.56 35.25C76.37 32.48 78.43 30.30 78.43 27.79C78.43 24.87 75.95 23.11 72.82 23.11C70.98 23.11 68.51 23.90 67.81 25.02C67.68 25.22 67.61 25.44 67.61 25.66C67.61 26.45 68.25 27.07 68.97 27.07C69.30 27.07 69.59 26.98 69.88 26.78C70.71 26.21 71.72 25.88 72.89 25.88C74.10 25.88 75.27 26.52 75.27 27.79C75.27 29.51 73.51 31.11 68.03 35.16C67.61 35.47 67.37 35.98 67.37 36.48C67.37 37.36 68.07 38 68.84 38L77.33 38C78.06 38 78.68 37.38 78.68 36.59ZM93.86 23.08C89.46 23.08 86.05 26.16 86.05 30.67C86.05 35.18 89.46 38.26 93.86 38.26C96.39 38.26 98.08 37.16 99.18 35.82C99.40 35.58 99.49 35.27 99.49 34.96C99.49 34.22 98.85 33.60 98.06 33.60C97.62 33.60 97.18 33.78 96.87 34.11C96.06 35.01 94.96 35.49 93.86 35.49C91.19 35.49 89.26 33.45 89.26 30.67C89.26 27.90 91.19 25.86 93.86 25.86C94.96 25.86 96.03 26.38 96.87 27.26C97.18 27.59 97.60 27.77 98.01 27.77C98.83 27.77 99.51 27.15 99.51 26.36C99.51 26.08 99.40 25.75 99.20 25.50C98.08 24.16 96.39 23.08 93.86 23.08ZM112.36 32.68C112.36 29.66 110.25 27.11 106.73 27.11C103.23 27.11 101.12 29.66 101.12 32.68C101.12 35.71 103.23 38.26 106.73 38.26C110.25 38.26 112.36 35.71 112.36 32.68ZM109.45 32.68C109.45 34.35 108.46 35.78 106.73 35.78C104.99 35.78 104.02 34.35 104.02 32.68C104.02 31.03 104.99 29.60 106.73 29.60C108.46 29.60 109.45 31.03 109.45 32.68ZM130.42 31.20C130.42 29.02 128.90 27.11 126.50 27.11C124.66 27.11 123.60 28.19 123.20 28.94C122.81 28.17 121.82 27.11 120.04 27.11C118.41 27.11 117.66 27.70 117.22 28.28L117.22 28.25C117.22 27.95 116.82 27.24 115.86 27.24C115.04 27.24 114.43 27.86 114.43 28.61L114.43 36.75C114.43 37.52 115.04 38.13 115.81 38.13C116.60 38.13 117.22 37.52 117.22 36.75L117.22 31.73C117.22 30.70 118.01 29.60 119.20 29.60C120.34 29.60 121.00 30.74 121.00 31.73L121.00 36.75C121.00 37.52 121.62 38.13 122.39 38.13C123.20 38.13 123.82 37.52 123.82 36.75L123.82 31.93C123.82 30.70 124.59 29.60 125.80 29.60C126.94 29.60 127.60 30.74 127.60 31.73L127.60 36.75C127.60 37.52 128.22 38.13 128.99 38.13C129.80 38.13 130.42 37.52 130.42 36.75ZM149.16 31.20C149.16 29.02 147.65 27.11 145.25 27.11C143.40 27.11 142.34 28.19 141.95 28.94C141.55 28.17 140.56 27.11 138.78 27.11C137.15 27.11 136.40 27.70 135.96 28.28L135.96 28.25C135.96 27.95 135.57 27.24 134.60 27.24C133.79 27.24 133.17 27.86 133.17 28.61L133.17 36.75C133.17 37.52 133.79 38.13 134.56 38.13C135.35 38.13 135.96 37.52 135.96 36.75L135.96 31.73C135.96 30.70 136.76 29.60 137.94 29.60C139.09 29.60 139.75 30.74 139.75 31.73L139.75 36.75C139.75 37.52 140.36 38.13 141.13 38.13C141.95 38.13 142.56 37.52 142.56 36.75L142.56 31.93C142.56 30.70 143.33 29.60 144.54 29.60C145.69 29.60 146.35 30.74 146.35 31.73L146.35 36.75C146.35 37.52 146.96 38.13 147.73 38.13C148.55 38.13 149.16 37.52 149.16 36.75ZM153.30 22.91C152.40 22.91 151.63 23.63 151.63 24.56C151.63 25.48 152.40 26.23 153.30 26.23C154.22 26.23 154.97 25.48 154.97 24.56C154.97 23.63 154.22 22.91 153.30 22.91ZM154.71 28.61C154.71 27.86 154.09 27.24 153.34 27.24C152.53 27.24 151.91 27.86 151.91 28.61L151.91 36.75C151.91 37.52 152.53 38.13 153.30 38.13C154.09 38.13 154.71 37.52 154.71 36.75ZM163.29 36.99C163.29 36.31 162.85 35.78 162.06 35.78L161.81 35.78C161.37 35.78 160.85 35.45 160.85 34.61L160.85 29.82L161.95 29.82C162.58 29.82 163.13 29.27 163.13 28.61C163.13 27.92 162.58 27.37 161.95 27.37L160.85 27.37L160.85 25.72C160.85 24.95 160.23 24.34 159.46 24.34C158.65 24.34 158.03 24.95 158.03 25.72L158.03 27.37L157.35 27.37C156.69 27.37 156.14 27.92 156.14 28.56C156.14 29.27 156.69 29.82 157.35 29.82L158.03 29.82L158.03 35.36C158.03 37.25 159.09 38.26 161.04 38.26C162.87 38.26 163.29 37.69 163.29 36.99ZM173.34 34.85C173.34 30.56 167.05 31.88 167.05 30.30C167.05 29.71 167.71 29.24 168.72 29.24C169.58 29.24 170.44 29.49 171.12 29.88C171.27 29.97 171.47 30.01 171.65 30.01C172.22 30.01 172.75 29.55 172.75 28.96C172.75 28.76 172.68 28.56 172.57 28.41C171.98 27.55 170.09 27.11 168.70 27.11C165.91 27.11 164.34 28.67 164.34 30.45C164.34 34.63 170.66 33.20 170.66 34.96C170.66 35.62 170.09 36.11 168.88 36.11C167.95 36.11 166.85 35.73 166.02 35.25C165.84 35.14 165.64 35.10 165.44 35.10C164.85 35.10 164.28 35.60 164.28 36.26C164.28 36.48 164.34 36.68 164.48 36.86C165.14 37.80 167.36 38.26 168.74 38.26C171.69 38.26 173.34 36.79 173.34 34.85Z" fill="#e6edf3" /><path d="M20.26 49.88C20.26 49.54 19.98 49.25 19.64 49.25C19.26 49.25 18.98 49.54 18.98 49.88L18.98 57.44C18.98 57.79 19.26 58.08 19.61 58.08C19.98 58.08 20.26 57.79 20.26 57.44ZM27.55 53.97C27.55 52.64 26.59 51.56 25.27 51.56C24.18 51.56 23.62 52.10 23.32 52.60L23.32 52.20C23.32 51.90 23.06 51.64 22.76 51.64C22.42 51.64 22.16 51.90 22.16 52.20L22.16 57.51C22.16 57.82 22.42 58.08 22.73 58.08C23.06 58.08 23.32 57.82 23.32 57.51L23.32 54.49C23.32 53.42 23.89 52.59 24.89 52.59C25.83 52.59 26.40 53.32 26.40 54.36L26.40 57.51C26.40 57.82 26.66 58.08 26.97 58.08C27.30 58.08 27.55 57.82 27.55 57.51ZM38.97 49.91C38.97 49.58 38.72 49.33 38.41 49.33L32.70 49.33C32.39 49.33 32.14 49.58 32.14 49.89C32.14 50.21 32.39 50.47 32.70 50.47L34.91 50.47L34.91 57.44C34.91 57.79 35.20 58.08 35.55 58.08C35.91 58.08 36.20 57.79 36.20 57.44L36.20 50.47L38.41 50.47C38.72 50.47 38.97 50.21 38.97 49.91ZM44.74 54.85C44.74 53.05 43.53 51.56 41.57 51.56C39.62 51.56 38.41 53.05 38.41 54.85C38.41 56.66 39.62 58.16 41.57 58.16C43.53 58.16 44.74 56.66 44.74 54.85ZM43.53 54.85C43.53 56.06 42.83 57.13 41.57 57.13C40.32 57.13 39.61 56.06 39.61 54.85C39.61 53.66 40.32 52.59 41.57 52.59C42.83 52.59 43.53 53.66 43.53 54.85ZM49.16 57.55C49.16 57.27 48.95 57.06 48.67 57.06C48.54 57.06 48.38 57.13 48.24 57.13C47.86 57.13 47.63 56.83 47.63 56.35L47.63 52.73L48.48 52.73C48.76 52.73 48.98 52.51 48.98 52.24C48.98 51.94 48.76 51.72 48.48 51.72L47.63 51.72L47.63 50.49C47.63 50.19 47.37 49.93 47.05 49.93C46.72 49.93 46.46 50.19 46.46 50.49L46.46 51.72L45.85 51.72C45.56 51.72 45.34 51.94 45.34 52.22C45.34 52.51 45.56 52.73 45.85 52.73L46.46 52.73L46.46 56.62C46.46 57.61 46.98 58.16 47.96 58.16C48.65 58.16 49.16 57.96 49.16 57.55ZM55.26 53.75C55.26 52.15 54.09 51.56 52.74 51.56C51.89 51.56 50.94 51.84 50.34 52.44C50.27 52.53 50.23 52.63 50.23 52.73C50.23 53.01 50.47 53.19 50.71 53.19C50.80 53.19 50.90 53.15 50.99 53.09C51.46 52.72 51.98 52.54 52.57 52.54C53.45 52.54 54.10 53.01 54.10 53.80L54.10 54.15L52.29 54.15C50.99 54.15 49.85 54.66 49.85 56.08C49.85 57.45 50.99 58.16 52.03 58.16C53.01 58.16 53.59 57.86 54.10 57.30L54.10 57.51C54.10 57.88 54.40 58.08 54.63 58.08L54.67 58.08C55.00 58.08 55.26 57.82 55.26 57.51ZM54.10 54.96L54.10 55.84C54.10 56.58 53.26 57.34 52.35 57.34C51.50 57.34 51.02 56.83 51.02 56.10C51.02 55.35 51.62 54.96 52.61 54.96ZM58.27 49.81C58.27 49.51 58.01 49.25 57.71 49.25C57.38 49.25 57.12 49.51 57.12 49.81L57.12 57.51C57.12 57.82 57.38 58.08 57.69 58.08C58.01 58.08 58.27 57.82 58.27 57.51Z" fill="#9aa7b4" /><line x1="18" y1="76" x2="48" y2="76" stroke="#9aa7b4" stroke-opacity="0.4" /><g aria-label="Additions: 29,669,953"><circle cx="22" cy="96" r="4" fill="#00d559" /><path d="M42.28 99.39C42.28 99.31 42.27 99.23 42.23 99.14L39.36 91.94C39.19 91.51 38.76 91.24 38.30 91.25C37.85 91.25 37.43 91.52 37.28 91.94L34.40 99.14C34.38 99.23 34.36 99.31 34.36 99.39C34.36 99.74 34.65 100.08 35.05 100.08C35.33 100.08 35.57 99.92 35.68 99.66L36.25 98.19L40.40 98.19L40.97 99.66C41.07 99.92 41.32 100.08 41.59 100.08C42.01 100.08 42.28 99.71 42.28 99.39ZM38.32 92.64L40.03 97.06L36.61 97.06ZM49.22 91.81C49.22 91.51 48.96 91.25 48.66 91.25C48.33 91.25 48.07 91.51 48.07 91.81L48.07 94.63C47.56 93.95 46.95 93.56 46.00 93.56C44.36 93.56 43.20 94.85 43.20 96.87C43.20 98.92 44.37 100.16 46.00 100.16C46.97 100.16 47.59 99.73 48.07 99.10L48.07 99.51C48.07 99.82 48.33 100.08 48.64 100.08C48.96 100.08 49.22 99.82 49.22 99.51ZM48.07 96.91C48.07 98.21 47.42 99.13 46.30 99.13C45.13 99.13 44.40 98.18 44.40 96.87C44.40 95.55 45.13 94.59 46.30 94.59C47.42 94.59 48.07 95.54 48.07 96.83ZM56.74 91.81C56.74 91.51 56.48 91.25 56.18 91.25C55.84 91.25 55.58 91.51 55.58 91.81L55.58 94.63C55.07 93.95 54.46 93.56 53.51 93.56C51.88 93.56 50.72 94.85 50.72 96.87C50.72 98.92 51.89 100.16 53.51 100.16C54.49 100.16 55.10 99.73 55.58 99.10L55.58 99.51C55.58 99.82 55.84 100.08 56.15 100.08C56.48 100.08 56.74 99.82 56.74 99.51ZM55.58 96.91C55.58 98.21 54.93 99.13 53.81 99.13C52.64 99.13 51.91 98.18 51.91 96.87C51.91 95.55 52.64 94.59 53.81 94.59C54.93 94.59 55.58 95.54 55.58 96.83ZM59.18 91.39C58.78 91.39 58.44 91.73 58.44 92.15C58.44 92.55 58.78 92.89 59.18 92.89C59.60 92.89 59.92 92.55 59.92 92.15C59.92 91.73 59.60 91.39 59.18 91.39ZM59.77 94.20C59.77 93.90 59.51 93.64 59.21 93.64C58.87 93.64 58.61 93.90 58.61 94.20L58.61 99.51C58.61 99.82 58.87 100.08 59.18 100.08C59.51 100.08 59.77 99.82 59.77 99.51ZM64.56 99.55C64.56 99.27 64.36 99.06 64.07 99.06C63.94 99.06 63.78 99.13 63.64 99.13C63.26 99.13 63.03 98.83 63.03 98.35L63.03 94.73L63.89 94.73C64.16 94.73 64.38 94.51 64.38 94.24C64.38 93.94 64.16 93.72 63.89 93.72L63.03 93.72L63.03 92.49C63.03 92.19 62.77 91.93 62.46 91.93C62.12 91.93 61.86 92.19 61.86 92.49L61.86 93.72L61.25 93.72C60.96 93.72 60.74 93.94 60.74 94.22C60.74 94.51 60.96 94.73 61.25 94.73L61.86 94.73L61.86 98.62C61.86 99.61 62.38 100.16 63.37 100.16C64.06 100.16 64.56 99.96 64.56 99.55ZM66.19 91.39C65.79 91.39 65.45 91.73 65.45 92.15C65.45 92.55 65.79 92.89 66.19 92.89C66.60 92.89 66.93 92.55 66.93 92.15C66.93 91.73 66.60 91.39 66.19 91.39ZM66.77 94.20C66.77 93.90 66.51 93.64 66.21 93.64C65.88 93.64 65.62 93.90 65.62 94.20L65.62 99.51C65.62 99.82 65.88 100.08 66.19 100.08C66.51 100.08 66.77 99.82 66.77 99.51ZM74.60 96.85C74.60 95.05 73.39 93.56 71.43 93.56C69.48 93.56 68.27 95.05 68.27 96.85C68.27 98.66 69.48 100.16 71.43 100.16C73.39 100.16 74.60 98.66 74.60 96.85ZM73.39 96.85C73.39 98.06 72.69 99.13 71.43 99.13C70.18 99.13 69.46 98.06 69.46 96.85C69.46 95.66 70.18 94.59 71.43 94.59C72.69 94.59 73.39 95.66 73.39 96.85ZM81.49 95.97C81.49 94.64 80.53 93.56 79.20 93.56C78.11 93.56 77.55 94.10 77.25 94.61L77.25 94.20C77.25 93.90 76.99 93.64 76.69 93.64C76.35 93.64 76.09 93.90 76.09 94.20L76.09 99.51C76.09 99.82 76.35 100.08 76.67 100.08C76.99 100.08 77.25 99.82 77.25 99.51L77.25 96.49C77.25 95.42 77.82 94.59 78.82 94.59C79.76 94.59 80.33 95.32 80.33 96.36L80.33 99.51C80.33 99.82 80.59 100.08 80.90 100.08C81.23 100.08 81.49 99.82 81.49 99.51ZM87.96 98.10C87.85 95.89 84.24 96.50 84.11 95.37C84.06 94.86 84.61 94.49 85.40 94.49C86 94.49 86.56 94.68 86.96 94.97C87.04 95.03 87.13 95.06 87.23 95.06C87.47 95.06 87.69 94.86 87.69 94.61C87.69 94.50 87.65 94.40 87.57 94.32C87.08 93.84 86.29 93.56 85.39 93.56C83.86 93.56 82.93 94.29 83.00 95.41C83.11 97.52 86.70 96.87 86.83 98.26C86.88 98.83 86.36 99.23 85.47 99.23C84.82 99.23 84.17 98.97 83.70 98.64C83.61 98.57 83.52 98.54 83.40 98.54C83.13 98.54 82.89 98.75 82.89 99.03C82.89 99.16 82.94 99.26 83.04 99.34C83.61 99.91 84.56 100.16 85.41 100.16C87.08 100.16 88.03 99.30 87.96 98.10Z" fill="#e6edf3" /><path d="M156.52 99.17C156.52 98.74 156.16 98.38 155.73 98.38L152.91 98.38C155.16 96.74 156.38 95.45 156.38 93.97C156.38 92.24 154.91 91.20 153.06 91.20C151.97 91.20 150.52 91.67 150.10 92.33C150.02 92.45 149.98 92.58 149.98 92.71C149.98 93.17 150.36 93.54 150.79 93.54C150.98 93.54 151.15 93.49 151.32 93.37C151.82 93.03 152.41 92.84 153.10 92.84C153.82 92.84 154.51 93.21 154.51 93.97C154.51 94.98 153.47 95.93 150.23 98.32C149.98 98.50 149.84 98.80 149.84 99.10C149.84 99.62 150.26 100 150.71 100L155.73 100C156.16 100 156.52 99.64 156.52 99.17ZM157.50 94.16C157.50 96.01 158.89 96.98 160.45 96.98C161.53 96.98 162.33 96.45 162.67 95.87C162.69 95.93 162.69 95.98 162.69 96.05C162.69 97.43 161.79 98.50 160.51 98.50C160.07 98.50 159.71 98.43 159.38 98.26C159.27 98.19 159.14 98.17 159.01 98.17C158.60 98.17 158.16 98.48 158.16 98.97C158.16 99.10 158.20 99.22 158.25 99.32C158.58 99.90 159.67 100.14 160.51 100.14C163.08 100.14 164.56 98.28 164.56 95.66C164.56 93.21 163.45 91.19 160.81 91.19C158.84 91.19 157.50 92.47 157.50 94.16ZM159.37 94.10C159.37 93.45 159.85 92.82 160.85 92.82C161.67 92.82 162.28 93.38 162.28 94.19C162.28 94.97 161.66 95.53 160.85 95.53C160.02 95.53 159.37 94.97 159.37 94.10ZM167.53 99.36C167.53 98.52 166.97 98.04 166.36 98.04C165.82 98.04 165.35 98.50 165.35 99.08C165.35 99.64 165.74 100.01 166.23 100.01C166.33 100.01 166.44 99.99 166.48 99.97C166.40 100.31 166.12 100.72 165.78 100.99C165.69 101.07 165.65 101.17 165.65 101.27C165.65 101.53 165.92 101.69 166.14 101.69C166.27 101.69 166.39 101.65 166.48 101.56C167.13 100.97 167.53 100.19 167.53 99.36ZM175.30 97.18C175.30 95.33 173.90 94.36 172.34 94.36C171.27 94.36 170.46 94.89 170.12 95.48C170.11 95.41 170.11 95.36 170.11 95.29C170.11 93.92 171.01 92.84 172.28 92.84C172.72 92.84 173.09 92.91 173.41 93.08C173.53 93.15 173.66 93.17 173.79 93.17C174.19 93.17 174.63 92.86 174.63 92.37C174.63 92.24 174.59 92.12 174.54 92.02C174.22 91.45 173.12 91.20 172.28 91.20C169.72 91.20 168.24 93.06 168.24 95.68C168.24 98.13 169.34 100.16 171.98 100.16C173.96 100.16 175.30 98.87 175.30 97.18ZM173.42 97.24C173.42 97.89 172.94 98.52 171.94 98.52C171.12 98.52 170.51 97.96 170.51 97.15C170.51 96.37 171.14 95.81 171.94 95.81C172.77 95.81 173.42 96.37 173.42 97.24ZM183.20 97.18C183.20 95.33 181.81 94.36 180.25 94.36C179.17 94.36 178.36 94.89 178.03 95.48C178.01 95.41 178.01 95.36 178.01 95.29C178.01 93.92 178.91 92.84 180.18 92.84C180.63 92.84 180.99 92.91 181.31 93.08C181.43 93.15 181.56 93.17 181.69 93.17C182.09 93.17 182.54 92.86 182.54 92.37C182.54 92.24 182.50 92.12 182.45 92.02C182.12 91.45 181.03 91.20 180.18 91.20C177.62 91.20 176.14 93.06 176.14 95.68C176.14 98.13 177.25 100.16 179.88 100.16C181.86 100.16 183.20 98.87 183.20 97.18ZM181.33 97.24C181.33 97.89 180.85 98.52 179.84 98.52C179.03 98.52 178.42 97.96 178.42 97.15C178.42 96.37 179.04 95.81 179.84 95.81C180.68 95.81 181.33 96.37 181.33 97.24ZM183.99 94.16C183.99 96.01 185.38 96.98 186.94 96.98C188.02 96.98 188.83 96.45 189.17 95.87C189.18 95.93 189.18 95.98 189.18 96.05C189.18 97.43 188.28 98.50 187.01 98.50C186.57 98.50 186.20 98.43 185.88 98.26C185.76 98.19 185.63 98.17 185.50 98.17C185.10 98.17 184.66 98.48 184.66 98.97C184.66 99.10 184.69 99.22 184.75 99.32C185.07 99.90 186.16 100.14 187.01 100.14C189.57 100.14 191.05 98.28 191.05 95.66C191.05 93.21 189.95 91.19 187.31 91.19C185.33 91.19 183.99 92.47 183.99 94.16ZM185.86 94.10C185.86 93.45 186.34 92.82 187.35 92.82C188.16 92.82 188.78 93.38 188.78 94.19C188.78 94.97 188.15 95.53 187.35 95.53C186.51 95.53 185.86 94.97 185.86 94.10ZM194.03 99.36C194.03 98.52 193.47 98.04 192.86 98.04C192.31 98.04 191.84 98.50 191.84 99.08C191.84 99.64 192.23 100.01 192.73 100.01C192.82 100.01 192.94 99.99 192.97 99.97C192.90 100.31 192.61 100.72 192.27 100.99C192.18 101.07 192.14 101.17 192.14 101.27C192.14 101.53 192.42 101.69 192.64 101.69C192.77 101.69 192.88 101.65 192.97 101.56C193.63 100.97 194.03 100.19 194.03 99.36ZM194.95 94.16C194.95 96.01 196.34 96.98 197.90 96.98C198.98 96.98 199.79 96.45 200.13 95.87C200.14 95.93 200.14 95.98 200.14 96.05C200.14 97.43 199.24 98.50 197.97 98.50C197.53 98.50 197.16 98.43 196.84 98.26C196.72 98.19 196.59 98.17 196.46 98.17C196.06 98.17 195.61 98.48 195.61 98.97C195.61 99.10 195.65 99.22 195.71 99.32C196.03 99.90 197.12 100.14 197.97 100.14C200.53 100.14 202.01 98.28 202.01 95.66C202.01 93.21 200.91 91.19 198.27 91.19C196.29 91.19 194.95 92.47 194.95 94.16ZM196.82 94.10C196.82 93.45 197.30 92.82 198.31 92.82C199.12 92.82 199.74 93.38 199.74 94.19C199.74 94.97 199.11 95.53 198.31 95.53C197.47 95.53 196.82 94.97 196.82 94.10ZM209.91 97.15C209.91 95.40 208.60 94.34 207.13 94.34C206.34 94.34 205.64 94.66 205.22 95.07L205.22 92.95L208.61 92.95C209.04 92.95 209.41 92.59 209.41 92.15C209.41 91.69 209.04 91.33 208.61 91.33L204.41 91.33C203.84 91.33 203.38 91.80 203.38 92.37L203.38 95.70C203.38 96.20 203.74 96.58 204.31 96.58C204.57 96.58 204.82 96.50 205.03 96.36C205.49 96.05 205.95 95.94 206.48 95.94C207.47 95.94 208.04 96.46 208.04 97.23C208.04 97.93 207.46 98.52 206.43 98.52C205.81 98.52 205.21 98.35 204.70 98.04C204.55 97.95 204.38 97.89 204.22 97.89C203.77 97.89 203.34 98.25 203.34 98.73C203.34 98.86 203.38 98.99 203.44 99.10C203.84 99.78 205.31 100.16 206.44 100.16C208.54 100.16 209.91 99.00 209.91 97.15ZM217.43 97.63C217.53 96.07 216.48 95.53 216.48 95.53C216.48 95.53 217.44 95.03 217.34 93.55C217.23 92.11 216.09 91.20 214.06 91.20C212.87 91.20 211.93 91.55 211.21 92.12C211.03 92.27 210.94 92.47 210.94 92.68C210.94 93.14 211.34 93.46 211.75 93.46C211.90 93.46 212.06 93.42 212.19 93.33C212.70 93.01 213.27 92.84 213.87 92.84C214.78 92.84 215.48 93.05 215.48 93.73C215.48 94.45 215.05 94.79 214.18 94.79C213.55 94.79 213.28 95.14 213.28 95.59C213.28 96.05 213.55 96.41 214.23 96.41C215.11 96.41 215.62 96.72 215.62 97.41C215.62 98.06 215.04 98.52 213.98 98.52C213.38 98.52 212.70 98.31 212.12 97.97C211.98 97.88 211.82 97.84 211.67 97.84C211.24 97.84 210.82 98.19 210.82 98.66C210.82 98.79 210.86 98.91 210.93 99.01C211.33 99.69 212.80 100.16 214.05 100.16C216.13 100.16 217.32 99.26 217.43 97.63Z" fill="#9aa7b4" /></g><g aria-label="Deletions: 12,890,356"><circle cx="22" cy="118" r="4" fill="#00a5fe" /><path d="M42.54 117.67C42.54 115.17 40.76 113.33 38.06 113.33L35.82 113.33C35.35 113.33 34.98 113.71 34.98 114.17L34.98 121.16C34.98 121.62 35.35 122 35.82 122L38.06 122C40.76 122 42.54 120.18 42.54 117.67ZM41.23 117.67C41.23 119.43 40.06 120.86 38.06 120.86L36.26 120.86L36.26 114.47L38.06 114.47C40.11 114.47 41.23 115.89 41.23 117.67ZM49.90 118.65C49.90 118.40 49.83 118.13 49.78 117.92C49.42 116.51 48.38 115.56 46.86 115.56C45.04 115.56 43.72 117.03 43.72 118.85C43.72 120.83 45.09 122.16 46.96 122.16C47.88 122.16 49.50 121.67 49.50 120.97C49.50 120.53 49.05 120.43 48.77 120.57C48.31 120.91 47.61 121.22 47.08 121.22C45.80 121.22 45.02 120.35 44.93 119.27L49.30 119.27C49.63 119.27 49.90 118.96 49.90 118.65ZM44.93 118.41C44.98 117.54 45.60 116.50 46.84 116.50C48.18 116.50 48.76 117.57 48.78 118.41ZM52.54 113.81C52.54 113.51 52.28 113.25 51.98 113.25C51.64 113.25 51.38 113.51 51.38 113.81L51.38 121.51C51.38 121.82 51.64 122.08 51.95 122.08C52.28 122.08 52.54 121.82 52.54 121.51ZM60.21 118.65C60.21 118.40 60.14 118.13 60.09 117.92C59.73 116.51 58.69 115.56 57.17 115.56C55.35 115.56 54.03 117.03 54.03 118.85C54.03 120.83 55.40 122.16 57.27 122.16C58.19 122.16 59.81 121.67 59.81 120.97C59.81 120.53 59.36 120.43 59.08 120.57C58.62 120.91 57.92 121.22 57.39 121.22C56.11 121.22 55.33 120.35 55.24 119.27L59.61 119.27C59.94 119.27 60.21 118.96 60.21 118.65ZM55.24 118.41C55.29 117.54 55.91 116.50 57.15 116.50C58.49 116.50 59.06 117.57 59.09 118.41ZM64.62 121.55C64.62 121.27 64.41 121.06 64.12 121.06C63.99 121.06 63.84 121.13 63.69 121.13C63.32 121.13 63.08 120.83 63.08 120.35L63.08 116.73L63.94 116.73C64.21 116.73 64.43 116.51 64.43 116.24C64.43 115.94 64.21 115.72 63.94 115.72L63.08 115.72L63.08 114.49C63.08 114.19 62.82 113.93 62.51 113.93C62.17 113.93 61.91 114.19 61.91 114.49L61.91 115.72L61.30 115.72C61.01 115.72 60.79 115.94 60.79 116.22C60.79 116.51 61.01 116.73 61.30 116.73L61.91 116.73L61.91 120.62C61.91 121.61 62.43 122.16 63.42 122.16C64.11 122.16 64.62 121.96 64.62 121.55ZM66.24 113.39C65.84 113.39 65.50 113.73 65.50 114.15C65.50 114.55 65.84 114.89 66.24 114.89C66.66 114.89 66.98 114.55 66.98 114.15C66.98 113.73 66.66 113.39 66.24 113.39ZM66.83 116.20C66.83 115.90 66.56 115.64 66.27 115.64C65.93 115.64 65.67 115.90 65.67 116.20L65.67 121.51C65.67 121.82 65.93 122.08 66.24 122.08C66.56 122.08 66.83 121.82 66.83 121.51ZM74.65 118.85C74.65 117.05 73.44 115.56 71.48 115.56C69.53 115.56 68.32 117.05 68.32 118.85C68.32 120.66 69.53 122.16 71.48 122.16C73.44 122.16 74.65 120.66 74.65 118.85ZM73.44 118.85C73.44 120.06 72.74 121.13 71.48 121.13C70.23 121.13 69.52 120.06 69.52 118.85C69.52 117.66 70.23 116.59 71.48 116.59C72.74 116.59 73.44 117.66 73.44 118.85ZM81.54 117.97C81.54 116.64 80.58 115.56 79.25 115.56C78.16 115.56 77.60 116.10 77.30 116.61L77.30 116.20C77.30 115.90 77.04 115.64 76.74 115.64C76.41 115.64 76.15 115.90 76.15 116.20L76.15 121.51C76.15 121.82 76.41 122.08 76.72 122.08C77.04 122.08 77.30 121.82 77.30 121.51L77.30 118.49C77.30 117.42 77.88 116.59 78.88 116.59C79.81 116.59 80.38 117.32 80.38 118.36L80.38 121.51C80.38 121.82 80.64 122.08 80.96 122.08C81.28 122.08 81.54 121.82 81.54 121.51ZM88.01 120.10C87.90 117.89 84.30 118.50 84.17 117.37C84.11 116.86 84.66 116.49 85.45 116.49C86.05 116.49 86.61 116.68 87.01 116.97C87.09 117.03 87.18 117.06 87.29 117.06C87.52 117.06 87.74 116.86 87.74 116.61C87.74 116.50 87.70 116.40 87.62 116.32C87.13 115.84 86.34 115.56 85.44 115.56C83.91 115.56 82.98 116.29 83.05 117.41C83.17 119.52 86.75 118.87 86.88 120.26C86.94 120.83 86.42 121.23 85.52 121.23C84.87 121.23 84.22 120.97 83.75 120.64C83.66 120.57 83.57 120.54 83.45 120.54C83.18 120.54 82.94 120.75 82.94 121.03C82.94 121.16 83.00 121.26 83.09 121.34C83.66 121.91 84.61 122.16 85.47 122.16C87.13 122.16 88.08 121.30 88.01 120.10Z" fill="#e6edf3" /><path d="M155.68 114.32C155.68 113.73 155.18 113.26 154.60 113.26C154.30 113.26 154.01 113.38 153.82 113.58L151.82 115.60C151.66 115.76 151.58 115.95 151.58 116.15C151.58 116.58 151.95 116.92 152.35 116.92C152.53 116.92 152.71 116.85 152.86 116.71L153.83 115.71L153.83 121.17C153.83 121.66 154.25 122.08 154.74 122.08C155.26 122.08 155.68 121.66 155.68 121.17ZM163.75 121.17C163.75 120.74 163.39 120.38 162.96 120.38L160.14 120.38C162.39 118.74 163.61 117.45 163.61 115.97C163.61 114.24 162.14 113.20 160.29 113.20C159.20 113.20 157.74 113.67 157.33 114.33C157.25 114.45 157.21 114.58 157.21 114.71C157.21 115.17 157.59 115.54 158.02 115.54C158.21 115.54 158.38 115.49 158.55 115.37C159.04 115.03 159.64 114.84 160.33 114.84C161.05 114.84 161.74 115.21 161.74 115.97C161.74 116.98 160.70 117.93 157.46 120.32C157.21 120.50 157.07 120.80 157.07 121.10C157.07 121.62 157.48 122 157.94 122L162.96 122C163.39 122 163.75 121.64 163.75 121.17ZM167.13 121.36C167.13 120.52 166.57 120.04 165.96 120.04C165.41 120.04 164.95 120.50 164.95 121.08C164.95 121.64 165.34 122.01 165.83 122.01C165.92 122.01 166.04 121.99 166.08 121.97C166.00 122.31 165.71 122.72 165.38 122.99C165.28 123.07 165.25 123.17 165.25 123.27C165.25 123.53 165.52 123.69 165.74 123.69C165.87 123.69 165.99 123.65 166.08 123.56C166.73 122.97 167.13 122.19 167.13 121.36ZM175.09 119.62C175.09 118.44 174.38 117.76 173.86 117.53C174.31 117.32 174.94 116.83 174.94 115.49C174.94 113.99 173.33 113.20 171.60 113.20C169.86 113.20 168.26 113.99 168.26 115.49C168.26 116.83 168.89 117.32 169.33 117.53C168.81 117.76 168.12 118.44 168.12 119.62C168.12 121.25 169.78 122.16 171.60 122.16C173.42 122.16 175.09 121.23 175.09 119.62ZM173.06 115.77C173.06 116.42 172.40 116.80 171.60 116.80C170.81 116.80 170.13 116.42 170.13 115.77C170.13 115.15 170.74 114.78 171.60 114.78C172.45 114.78 173.06 115.15 173.06 115.77ZM173.21 119.52C173.21 120.15 172.49 120.57 171.60 120.57C170.69 120.57 169.99 120.15 169.99 119.52C169.99 118.79 170.80 118.36 171.60 118.36C172.40 118.36 173.21 118.79 173.21 119.52ZM175.93 116.16C175.93 118.01 177.32 118.98 178.88 118.98C179.96 118.98 180.77 118.45 181.11 117.87C181.12 117.93 181.12 117.98 181.12 118.05C181.12 119.43 180.22 120.50 178.95 120.50C178.51 120.50 178.14 120.43 177.82 120.26C177.70 120.19 177.57 120.17 177.44 120.17C177.04 120.17 176.59 120.48 176.59 120.97C176.59 121.10 176.63 121.22 176.69 121.32C177.01 121.90 178.10 122.14 178.95 122.14C181.51 122.14 182.99 120.28 182.99 117.66C182.99 115.21 181.89 113.19 179.25 113.19C177.27 113.19 175.93 114.47 175.93 116.16ZM177.80 116.10C177.80 115.45 178.28 114.82 179.29 114.82C180.10 114.82 180.72 115.38 180.72 116.19C180.72 116.97 180.09 117.53 179.29 117.53C178.45 117.53 177.80 116.97 177.80 116.10ZM191.06 117.67C191.06 115.44 189.95 113.20 187.48 113.20C184.99 113.20 183.89 115.44 183.89 117.67C183.89 119.91 184.99 122.16 187.48 122.16C189.95 122.16 191.06 119.91 191.06 117.67ZM189.18 117.67C189.18 119.27 188.71 120.52 187.48 120.52C186.23 120.52 185.76 119.27 185.76 117.67C185.76 116.07 186.23 114.84 187.48 114.84C188.71 114.84 189.18 116.07 189.18 117.67ZM194.03 121.36C194.03 120.52 193.47 120.04 192.86 120.04C192.31 120.04 191.84 120.50 191.84 121.08C191.84 121.64 192.23 122.01 192.73 122.01C192.82 122.01 192.94 121.99 192.97 121.97C192.90 122.31 192.61 122.72 192.27 122.99C192.18 123.07 192.14 123.17 192.14 123.27C192.14 123.53 192.42 123.69 192.64 123.69C192.77 123.69 192.88 123.65 192.97 123.56C193.63 122.97 194.03 122.19 194.03 121.36ZM201.62 119.63C201.72 118.07 200.67 117.53 200.67 117.53C200.67 117.53 201.63 117.03 201.53 115.55C201.43 114.11 200.28 113.20 198.25 113.20C197.06 113.20 196.12 113.55 195.41 114.12C195.22 114.27 195.13 114.47 195.13 114.68C195.13 115.14 195.54 115.46 195.94 115.46C196.09 115.46 196.25 115.42 196.38 115.33C196.89 115.01 197.46 114.84 198.06 114.84C198.97 114.84 199.67 115.05 199.67 115.73C199.67 116.45 199.24 116.79 198.37 116.79C197.75 116.79 197.47 117.14 197.47 117.59C197.47 118.05 197.75 118.41 198.42 118.41C199.31 118.41 199.81 118.72 199.81 119.41C199.81 120.06 199.23 120.52 198.18 120.52C197.58 120.52 196.89 120.31 196.32 119.97C196.17 119.88 196.02 119.84 195.86 119.84C195.43 119.84 195.02 120.19 195.02 120.66C195.02 120.79 195.06 120.91 195.12 121.01C195.52 121.69 196.99 122.16 198.24 122.16C200.32 122.16 201.52 121.26 201.62 119.63ZM209.64 119.15C209.64 117.40 208.33 116.34 206.86 116.34C206.07 116.34 205.36 116.66 204.95 117.07L204.95 114.95L208.34 114.95C208.77 114.95 209.13 114.59 209.13 114.15C209.13 113.69 208.77 113.33 208.34 113.33L204.14 113.33C203.57 113.33 203.10 113.80 203.10 114.37L203.10 117.70C203.10 118.20 203.47 118.58 204.04 118.58C204.30 118.58 204.55 118.50 204.75 118.36C205.22 118.05 205.68 117.94 206.21 117.94C207.20 117.94 207.77 118.46 207.77 119.23C207.77 119.93 207.18 120.52 206.16 120.52C205.53 120.52 204.94 120.35 204.43 120.04C204.27 119.95 204.10 119.89 203.95 119.89C203.49 119.89 203.06 120.25 203.06 120.73C203.06 120.86 203.10 120.99 203.17 121.10C203.57 121.78 205.04 122.16 206.17 122.16C208.26 122.16 209.64 121.00 209.64 119.15ZM217.60 119.18C217.60 117.33 216.21 116.36 214.65 116.36C213.57 116.36 212.76 116.89 212.42 117.48C212.41 117.41 212.41 117.36 212.41 117.29C212.41 115.92 213.31 114.84 214.58 114.84C215.02 114.84 215.39 114.91 215.71 115.08C215.83 115.15 215.96 115.17 216.09 115.17C216.49 115.17 216.93 114.86 216.93 114.37C216.93 114.24 216.90 114.12 216.84 114.02C216.52 113.45 215.43 113.20 214.58 113.20C212.02 113.20 210.54 115.06 210.54 117.68C210.54 120.13 211.64 122.16 214.28 122.16C216.26 122.16 217.60 120.87 217.60 119.18ZM215.72 119.24C215.72 119.89 215.24 120.52 214.24 120.52C213.42 120.52 212.81 119.96 212.81 119.15C212.81 118.37 213.44 117.81 214.24 117.81C215.08 117.81 215.72 118.37 215.72 119.24Z" fill="#9aa7b4" /></g><g aria-label="Changed Files: 501,950"><circle cx="22" cy="140" r="4" fill="#673bd6" /><path d="M39.11 135.19C36.59 135.19 34.60 137.01 34.60 139.67C34.60 142.34 36.59 144.16 39.11 144.16C40.46 144.16 41.40 143.60 42.07 142.87C42.18 142.76 42.23 142.62 42.23 142.47C42.23 142.15 41.97 141.87 41.63 141.87C41.46 141.87 41.28 141.95 41.18 142.08C40.64 142.67 39.88 143.01 39.11 143.01C37.29 143.01 35.94 141.61 35.94 139.67C35.94 137.72 37.29 136.33 39.11 136.33C39.86 136.33 40.67 136.69 41.18 137.28C41.28 137.42 41.46 137.49 41.62 137.49C41.96 137.49 42.23 137.21 42.23 136.89C42.23 136.73 42.18 136.59 42.07 136.47C41.41 135.73 40.46 135.19 39.11 135.19ZM49.17 139.94C49.17 138.62 48.22 137.56 46.90 137.56C45.79 137.56 45.22 138.10 44.92 138.60L44.92 135.81C44.92 135.51 44.66 135.25 44.36 135.25C44.02 135.25 43.76 135.51 43.76 135.81L43.76 143.51C43.76 143.82 44.02 144.08 44.34 144.08C44.66 144.08 44.92 143.82 44.92 143.51L44.92 140.56C44.92 139.38 45.54 138.59 46.53 138.59C47.47 138.59 48.01 139.29 48.01 140.33L48.01 143.51C48.01 143.82 48.27 144.08 48.59 144.08C48.91 144.08 49.17 143.82 49.17 143.51ZM56.09 139.75C56.09 138.15 54.92 137.56 53.56 137.56C52.72 137.56 51.77 137.84 51.17 138.44C51.09 138.53 51.06 138.63 51.06 138.74C51.06 139.01 51.30 139.19 51.54 139.19C51.63 139.19 51.73 139.15 51.82 139.09C52.29 138.72 52.81 138.54 53.40 138.54C54.28 138.54 54.93 139.01 54.93 139.80L54.93 140.15L53.12 140.15C51.82 140.15 50.68 140.66 50.68 142.08C50.68 143.45 51.82 144.16 52.86 144.16C53.84 144.16 54.42 143.86 54.93 143.30L54.93 143.51C54.93 143.88 55.23 144.08 55.46 144.08L55.50 144.08C55.83 144.08 56.09 143.82 56.09 143.51ZM54.93 140.96L54.93 141.84C54.93 142.58 54.09 143.34 53.17 143.34C52.33 143.34 51.85 142.83 51.85 142.10C51.85 141.35 52.45 140.96 53.44 140.96ZM63.34 139.97C63.34 138.64 62.38 137.56 61.05 137.56C59.96 137.56 59.40 138.10 59.10 138.60L59.10 138.20C59.10 137.90 58.84 137.64 58.54 137.64C58.21 137.64 57.95 137.90 57.95 138.20L57.95 143.51C57.95 143.82 58.21 144.08 58.52 144.08C58.84 144.08 59.10 143.82 59.10 143.51L59.10 140.49C59.10 139.42 59.67 138.59 60.68 138.59C61.61 138.59 62.18 139.32 62.18 140.36L62.18 143.51C62.18 143.82 62.44 144.08 62.76 144.08C63.08 144.08 63.34 143.82 63.34 143.51ZM70.84 138.20C70.84 137.90 70.58 137.64 70.28 137.64C69.95 137.64 69.69 137.90 69.69 138.20L69.69 138.63C69.18 137.96 68.45 137.56 67.62 137.56C65.99 137.56 64.84 138.79 64.84 140.81C64.84 142.86 66.01 144.05 67.62 144.05C68.48 144.05 69.22 143.60 69.69 142.96L69.69 143.79C69.69 145.13 68.72 145.60 67.75 145.60C67.06 145.60 66.51 145.46 66.03 145.05C65.94 144.99 65.85 144.96 65.73 144.96C65.47 144.96 65.24 145.18 65.24 145.46C65.24 145.59 65.29 145.70 65.37 145.78C65.98 146.37 66.86 146.55 67.75 146.55C69.28 146.55 70.84 145.91 70.84 143.75ZM69.69 140.83C69.69 142.12 68.84 143.03 67.80 143.03C66.63 143.03 66.03 142.10 66.03 140.81C66.03 139.50 66.63 138.59 67.80 138.59C68.84 138.59 69.69 139.49 69.69 140.78ZM78.51 140.65C78.51 140.40 78.45 140.13 78.40 139.92C78.03 138.51 76.99 137.56 75.47 137.56C73.65 137.56 72.34 139.03 72.34 140.85C72.34 142.83 73.70 144.16 75.57 144.16C76.50 144.16 78.11 143.68 78.11 142.97C78.11 142.53 77.67 142.43 77.38 142.57C76.93 142.91 76.22 143.22 75.69 143.22C74.42 143.22 73.64 142.35 73.55 141.27L77.91 141.27C78.24 141.27 78.51 140.96 78.51 140.65ZM73.55 140.41C73.60 139.54 74.21 138.50 75.46 138.50C76.80 138.50 77.37 139.57 77.39 140.41ZM85.64 135.81C85.64 135.51 85.38 135.25 85.08 135.25C84.74 135.25 84.48 135.51 84.48 135.81L84.48 138.63C83.97 137.96 83.36 137.56 82.41 137.56C80.77 137.56 79.62 138.85 79.62 140.87C79.62 142.92 80.79 144.16 82.41 144.16C83.39 144.16 84.00 143.73 84.48 143.10L84.48 143.51C84.48 143.82 84.74 144.08 85.05 144.08C85.38 144.08 85.64 143.82 85.64 143.51ZM84.48 140.91C84.48 142.21 83.83 143.13 82.71 143.13C81.54 143.13 80.81 142.18 80.81 140.87C80.81 139.55 81.54 138.59 82.71 138.59C83.83 138.59 84.48 139.54 84.48 140.83ZM96.76 135.91C96.76 135.58 96.52 135.33 96.20 135.33L91.73 135.33C91.27 135.33 90.89 135.71 90.89 136.17L90.89 143.44C90.89 143.79 91.17 144.08 91.52 144.08C91.89 144.08 92.17 143.79 92.17 143.44L92.17 140.15L96.11 140.15C96.43 140.15 96.67 139.89 96.67 139.59C96.67 139.25 96.43 139.01 96.11 139.01L92.17 139.01L92.17 136.47L96.20 136.47C96.52 136.47 96.76 136.21 96.76 135.91ZM98.65 135.39C98.25 135.39 97.91 135.73 97.91 136.15C97.91 136.55 98.25 136.89 98.65 136.89C99.06 136.89 99.39 136.55 99.39 136.15C99.39 135.73 99.06 135.39 98.65 135.39ZM99.23 138.20C99.23 137.90 98.97 137.64 98.67 137.64C98.34 137.64 98.08 137.90 98.08 138.20L98.08 143.51C98.08 143.82 98.34 144.08 98.65 144.08C98.97 144.08 99.23 143.82 99.23 143.51ZM102.26 135.81C102.26 135.51 102.00 135.25 101.70 135.25C101.37 135.25 101.11 135.51 101.11 135.81L101.11 143.51C101.11 143.82 101.37 144.08 101.68 144.08C102.00 144.08 102.26 143.82 102.26 143.51ZM109.93 140.65C109.93 140.40 109.87 140.13 109.82 139.92C109.45 138.51 108.41 137.56 106.89 137.56C105.07 137.56 103.76 139.03 103.76 140.85C103.76 142.83 105.12 144.16 106.99 144.16C107.92 144.16 109.53 143.68 109.53 142.97C109.53 142.53 109.09 142.43 108.80 142.57C108.35 142.91 107.64 143.22 107.11 143.22C105.84 143.22 105.06 142.35 104.97 141.27L109.33 141.27C109.66 141.27 109.93 140.96 109.93 140.65ZM104.97 140.41C105.02 139.54 105.63 138.50 106.88 138.50C108.22 138.50 108.79 139.57 108.81 140.41ZM116.02 142.10C115.90 139.89 112.30 140.50 112.17 139.37C112.12 138.87 112.66 138.49 113.46 138.49C114.05 138.49 114.61 138.68 115.02 138.97C115.09 139.03 115.18 139.06 115.29 139.06C115.52 139.06 115.74 138.87 115.74 138.60C115.74 138.50 115.70 138.40 115.63 138.32C115.13 137.84 114.34 137.56 113.44 137.56C111.91 137.56 110.99 138.29 111.05 139.41C111.17 141.52 114.76 140.87 114.89 142.26C114.94 142.83 114.42 143.23 113.52 143.23C112.87 143.23 112.22 142.97 111.75 142.63C111.66 142.57 111.57 142.54 111.45 142.54C111.18 142.54 110.95 142.75 110.95 143.03C110.95 143.16 111.00 143.26 111.09 143.34C111.66 143.91 112.61 144.16 113.47 144.16C115.13 144.16 116.08 143.30 116.02 142.10Z" fill="#e6edf3" /><path d="M176.95 141.15C176.95 139.40 175.63 138.34 174.16 138.34C173.37 138.34 172.67 138.66 172.25 139.07L172.25 136.95L175.65 136.95C176.07 136.95 176.44 136.59 176.44 136.15C176.44 135.69 176.07 135.33 175.65 135.33L171.45 135.33C170.88 135.33 170.41 135.80 170.41 136.37L170.41 139.70C170.41 140.20 170.77 140.58 171.34 140.58C171.60 140.58 171.85 140.50 172.06 140.36C172.53 140.05 172.98 139.94 173.51 139.94C174.50 139.94 175.07 140.46 175.07 141.23C175.07 141.93 174.49 142.52 173.46 142.52C172.84 142.52 172.24 142.35 171.73 142.04C171.58 141.95 171.41 141.89 171.25 141.89C170.80 141.89 170.37 142.25 170.37 142.73C170.37 142.86 170.41 142.99 170.47 143.10C170.88 143.78 172.34 144.16 173.47 144.16C175.57 144.16 176.95 143.00 176.95 141.15ZM185.02 139.67C185.02 137.44 183.90 135.20 181.43 135.20C178.95 135.20 177.84 137.44 177.84 139.67C177.84 141.91 178.95 144.16 181.43 144.16C183.90 144.16 185.02 141.91 185.02 139.67ZM183.13 139.67C183.13 141.27 182.67 142.52 181.43 142.52C180.18 142.52 179.71 141.27 179.71 139.67C179.71 138.07 180.18 136.84 181.43 136.84C182.67 136.84 183.13 138.07 183.13 139.67ZM189.95 136.32C189.95 135.73 189.45 135.26 188.87 135.26C188.57 135.26 188.28 135.38 188.09 135.58L186.08 137.60C185.93 137.76 185.85 137.96 185.85 138.15C185.85 138.58 186.21 138.92 186.62 138.92C186.80 138.92 186.98 138.85 187.12 138.71L188.10 137.71L188.10 143.17C188.10 143.66 188.52 144.08 189.01 144.08C189.53 144.08 189.95 143.66 189.95 143.17ZM193.60 143.36C193.60 142.52 193.04 142.04 192.43 142.04C191.88 142.04 191.41 142.50 191.41 143.08C191.41 143.64 191.80 144.01 192.30 144.01C192.39 144.01 192.51 143.99 192.55 143.97C192.47 144.31 192.18 144.72 191.84 144.99C191.75 145.07 191.71 145.17 191.71 145.27C191.71 145.53 191.99 145.69 192.21 145.69C192.34 145.69 192.45 145.65 192.55 145.56C193.20 144.97 193.60 144.19 193.60 143.36ZM194.52 138.16C194.52 140.01 195.91 140.98 197.47 140.98C198.55 140.98 199.36 140.45 199.70 139.87C199.71 139.93 199.71 139.98 199.71 140.05C199.71 141.43 198.81 142.50 197.54 142.50C197.10 142.50 196.73 142.43 196.41 142.26C196.29 142.19 196.16 142.17 196.03 142.17C195.63 142.17 195.18 142.48 195.18 142.97C195.18 143.10 195.22 143.22 195.28 143.32C195.60 143.90 196.69 144.14 197.54 144.14C200.10 144.14 201.58 142.28 201.58 139.66C201.58 137.21 200.48 135.19 197.84 135.19C195.86 135.19 194.52 136.47 194.52 138.16ZM196.39 138.10C196.39 137.45 196.87 136.82 197.88 136.82C198.69 136.82 199.31 137.38 199.31 138.19C199.31 138.97 198.68 139.53 197.88 139.53C197.04 139.53 196.39 138.97 196.39 138.10ZM209.48 141.15C209.48 139.40 208.17 138.34 206.70 138.34C205.91 138.34 205.21 138.66 204.79 139.07L204.79 136.95L208.18 136.95C208.61 136.95 208.98 136.59 208.98 136.15C208.98 135.69 208.61 135.33 208.18 135.33L203.99 135.33C203.41 135.33 202.95 135.80 202.95 136.37L202.95 139.70C202.95 140.20 203.31 140.58 203.88 140.58C204.14 140.58 204.39 140.50 204.60 140.36C205.06 140.05 205.52 139.94 206.05 139.94C207.04 139.94 207.61 140.46 207.61 141.23C207.61 141.93 207.03 142.52 206.00 142.52C205.38 142.52 204.78 142.35 204.27 142.04C204.12 141.95 203.95 141.89 203.79 141.89C203.34 141.89 202.91 142.25 202.91 142.73C202.91 142.86 202.95 142.99 203.01 143.10C203.41 143.78 204.88 144.16 206.01 144.16C208.11 144.16 209.48 143.00 209.48 141.15ZM217.56 139.67C217.56 137.44 216.44 135.20 213.97 135.20C211.49 135.20 210.38 137.44 210.38 139.67C210.38 141.91 211.49 144.16 213.97 144.16C216.44 144.16 217.56 141.91 217.56 139.67ZM215.67 139.67C215.67 141.27 215.20 142.52 213.97 142.52C212.72 142.52 212.25 141.27 212.25 139.67C212.25 138.07 212.72 136.84 213.97 136.84C215.20 136.84 215.67 138.07 215.67 139.67Z" fill="#9aa7b4" /></g><rect x="18" y="166" width="384" height="8" rx="4" fill="#21262d" /><rect x="18.00" y="166" width="267.70" height="8" rx="4" fill="#00d559" /><rect x="285.70" y="166" width="116.30" height="8" rx="4" fill="#00a5fe" /></svg>