<svg xmlns="http://www.w3.org/2000/svg" width="420" height="184" viewBox="0 0 420 184" role="img"><rect x="0.5" y="0.5" width="419" height="183" rx="10" fill="#161b22" stroke="#30363d" /><path d="M30.72 33.60C30.72 32.83 30.10 32.21 29.37 32.21L28.69 32.21L28.69 24.95C28.69 23.59 27.37 22.97 26.03 23.19C25.08 23.19 24.14 23.70 23.63 24.49L18.73 32.24C18.53 32.54 18.44 32.90 18.44 33.25C18.44 34.24 19.17 34.96 20.05 34.96L25.57 34.96L25.57 36.59C25.57 37.43 26.27 38.13 27.11 38.13C27.99 38.13 28.69 37.43 28.69 36.59L28.69 34.96L29.37 34.96C30.10 34.96 30.72 34.35 30.72 33.60ZM21.61 32.21L25.57 26.10L25.57 32.21ZM42.82 24.91C42.82 23.99 42.07 23.33 41.30 23.33L32.89 23.33C32.15 23.33 31.53 23.94 31.53 24.67C31.53 25.46 32.15 26.08 32.89 26.08L39.05 26.08L34.68 36.00C34.59 36.20 34.54 36.39 34.54 36.59C34.54 37.38 35.18 38.13 36.11 38.13C36.74 38.13 37.34 37.76 37.58 37.19L42.68 25.53C42.77 25.35 42.82 25.13 42.82 24.91ZM45.79 36.92C45.79 35.49 44.84 34.68 43.81 34.68C42.88 34.68 42.09 35.47 42.09 36.44C42.09 37.38 42.75 38.02 43.59 38.02C43.74 38.02 43.94 37.98 44.00 37.96C43.87 38.53 43.39 39.21 42.82 39.67C42.66 39.80 42.60 39.98 42.60 40.16C42.60 40.60 43.06 40.86 43.43 40.86C43.65 40.86 43.85 40.79 44.00 40.64C45.10 39.65 45.79 38.33 45.79 36.92ZM56.76 24.91C56.76 23.99 56.02 23.33 55.25 23.33L46.84 23.33C46.09 23.33 45.48 23.94 45.48 24.67C45.48 25.46 46.09 26.08 46.84 26.08L53.00 26.08L48.62 36.00C48.54 36.20 48.49 36.39 48.49 36.59C48.49 37.38 49.13 38.13 50.05 38.13C50.69 38.13 51.29 37.76 51.53 37.19L56.63 25.53C56.72 25.35 56.76 25.13 56.76 24.91ZM69.79 33.60C69.79 32.83 69.17 32.21 68.45 32.21L67.76 32.21L67.76 24.95C67.76 23.59 66.44 22.97 65.10 23.19C64.16 23.19 63.21 23.70 62.70 24.49L57.80 32.24C57.60 32.54 57.51 32.90 57.51 33.25C57.51 34.24 58.24 34.96 59.12 34.96L64.64 34.96L64.64 36.59C64.64 37.43 65.34 38.13 66.18 38.13C67.06 38.13 67.76 37.43 67.76 36.59L67.76 34.96L68.45 34.96C69.17 34.96 69.79 34.35 69.79 33.60ZM60.68 32.21L64.64 26.10L64.64 32.21ZM82.77 33.97C82.77 31.97 81.58 30.83 80.70 30.43C81.45 30.08 82.53 29.24 82.53 26.98C82.53 24.45 79.80 23.11 76.87 23.11C73.92 23.11 71.22 24.45 71.22 26.98C71.22 29.24 72.27 30.08 73.02 30.43C72.14 30.83 70.98 31.97 70.98 33.97C70.98 36.72 73.79 38.26 76.87 38.26C79.95 38.26 82.77 36.70 82.77 33.97ZM79.34 27.46C79.34 28.56 78.21 29.20 76.87 29.20C75.53 29.20 74.39 28.56 74.39 27.46C74.39 26.41 75.42 25.79 76.87 25.79C78.30 25.79 79.34 26.41 79.34 27.46ZM79.60 33.80C79.60 34.88 78.37 35.58 76.87 35.58C75.33 35.58 74.14 34.88 74.14 33.80C74.14 32.57 75.51 31.84 76.87 31.84C78.21 31.84 79.60 32.57 79.60 33.80ZM97.73 23.08C93.33 23.08 89.92 26.16 89.92 30.67C89.92 35.18 93.33 38.26 97.73 38.26C100.26 38.26 101.95 37.16 103.05 35.82C103.27 35.58 103.36 35.27 103.36 34.96C103.36 34.22 102.72 33.60 101.93 33.60C101.49 33.60 101.05 33.78 100.74 34.11C99.93 35.01 98.83 35.49 97.73 35.49C95.07 35.49 93.13 33.45 93.13 30.67C93.13 27.90 95.07 25.86 97.73 25.86C98.83 25.86 99.91 26.38 100.74 27.26C101.05 27.59 101.47 27.77 101.89 27.77C102.70 27.77 103.38 27.15 103.38 26.36C103.38 26.08 103.27 25.75 103.07 25.50C101.95 24.16 100.26 23.08 97.73 23.08ZM116.23 32.68C116.23 29.66 114.12 27.11 110.60 27.11C107.10 27.11 104.99 29.66 104.99 32.68C104.99 35.71 107.10 38.26 110.60 38.26C114.12 38.26 116.23 35.71 116.23 32.68ZM113.33 32.68C113.33 34.35 112.34 35.78 110.60 35.78C108.86 35.78 107.89 34.35 107.89 32.68C107.89 31.03 108.86 29.60 110.60 29.60C112.34 29.60 113.33 31.03 113.33 32.68ZM134.29 31.20C134.29 29.02 132.77 27.11 130.38 27.11C128.53 27.11 127.47 28.19 127.08 28.94C126.68 28.17 125.69 27.11 123.91 27.11C122.28 27.11 121.53 27.70 121.09 28.28L121.09 28.25C121.09 27.95 120.70 27.24 119.73 27.24C118.91 27.24 118.30 27.86 118.30 28.61L118.30 36.75C118.30 37.52 118.91 38.13 119.68 38.13C120.48 38.13 121.09 37.52 121.09 36.75L121.09 31.73C121.09 30.70 121.88 29.60 123.07 29.60C124.22 29.60 124.88 30.74 124.88 31.73L124.88 36.75C124.88 37.52 125.49 38.13 126.26 38.13C127.08 38.13 127.69 37.52 127.69 36.75L127.69 31.93C127.69 30.70 128.46 29.60 129.67 29.60C130.82 29.60 131.48 30.74 131.48 31.73L131.48 36.75C131.48 37.52 132.09 38.13 132.86 38.13C133.68 38.13 134.29 37.52 134.29 36.75ZM153.04 31.20C153.04 29.02 151.52 27.11 149.12 27.11C147.27 27.11 146.22 28.19 145.82 28.94C145.42 28.17 144.43 27.11 142.65 27.11C141.02 27.11 140.28 27.70 139.84 28.28L139.84 28.25C139.84 27.95 139.44 27.24 138.47 27.24C137.66 27.24 137.04 27.86 137.04 28.61L137.04 36.75C137.04 37.52 137.66 38.13 138.43 38.13C139.22 38.13 139.84 37.52 139.84 36.75L139.84 31.73C139.84 30.70 140.63 29.60 141.82 29.60C142.96 29.60 143.62 30.74 143.62 31.73L143.62 36.75C143.62 37.52 144.24 38.13 145.01 38.13C145.82 38.13 146.44 37.52 146.44 36.75L146.44 31.93C146.44 30.70 147.21 29.60 148.42 29.60C149.56 29.60 150.22 30.74 150.22 31.73L150.22 36.75C150.22 37.52 150.84 38.13 151.61 38.13C152.42 38.13 153.04 37.52 153.04 36.75ZM157.17 22.91C156.27 22.91 155.50 23.63 155.50 24.56C155.50 25.48 156.27 26.23 157.17 26.23C158.10 26.23 158.84 25.48 158.84 24.56C158.84 23.63 158.10 22.91 157.17 22.91ZM158.58 28.61C158.58 27.86 157.96 27.24 157.22 27.24C156.40 27.24 155.79 27.86 155.79 28.61L155.79 36.75C155.79 37.52 156.40 38.13 157.17 38.13C157.96 38.13 158.58 37.52 158.58 36.75ZM167.16 36.99C167.16 36.31 166.72 35.78 165.93 35.78L165.69 35.78C165.25 35.78 164.72 35.45 164.72 34.61L164.72 29.82L165.82 29.82C166.46 29.82 167.01 29.27 167.01 28.61C167.01 27.92 166.46 27.37 165.82 27.37L164.72 27.37L164.72 25.72C164.72 24.95 164.10 24.34 163.33 24.34C162.52 24.34 161.90 24.95 161.90 25.72L161.90 27.37L161.22 27.37C160.56 27.37 160.01 27.92 160.01 28.56C160.01 29.27 160.56 29.82 161.22 29.82L161.90 29.82L161.90 35.36C161.90 37.25 162.96 38.26 164.92 38.26C166.74 38.26 167.16 37.69 167.16 36.99ZM177.21 34.85C177.21 30.56 170.92 31.88 170.92 30.30C170.92 29.71 171.58 29.24 172.59 29.24C173.45 29.24 174.31 29.49 174.99 29.88C175.15 29.97 175.34 30.01 175.52 30.01C176.09 30.01 176.62 29.55 176.62 28.96C176.62 28.76 176.55 28.56 176.44 28.41C175.85 27.55 173.96 27.11 172.57 27.11C169.78 27.11 168.22 28.67 168.22 30.45C168.22 34.63 174.53 33.20 174.53 34.96C174.53 35.62 173.96 36.11 172.75 36.11C171.82 36.11 170.72 35.73 169.89 35.25C169.71 35.14 169.51 35.10 169.32 35.10C168.72 35.10 168.15 35.60 168.15 36.26C168.15 36.48 168.22 36.68 168.35 36.86C169.01 37.80 171.23 38.26 172.62 38.26C175.56 38.26 177.21 36.79 177.21 34.85Z" fill="#e6edf3" /><path d="M20.26 49.88C20.26 49.54 19.98 49.25 19.64 49.25C19.26 49.25 18.98 49.54 18.98 49.88L18.98 57.44C18.98 57.79 19.26 58.08 19.61 58.08C19.98 58.08 20.26 57.79 20.26 57.44ZM27.55 53.97C27.55 52.64 26.59 51.56 25.27 51.56C24.18 51.56 23.62 52.10 23.32 52.60L23.32 52.20C23.32 51.90 23.06 51.64 22.76 51.64C22.42 51.64 22.16 51.90 22.16 52.20L22.16 57.51C22.16 57.82 22.42 58.08 22.73 58.08C23.06 58.08 23.32 57.82 23.32 57.51L23.32 54.49C23.32 53.42 23.89 52.59 24.89 52.59C25.83 52.59 26.40 53.32 26.40 54.36L26.40 57.51C26.40 57.82 26.66 58.08 26.97 58.08C27.30 58.08 27.55 57.82 27.55 57.51ZM38.97 49.91C38.97 49.58 38.72 49.33 38.41 49.33L32.70 49.33C32.39 49.33 32.14 49.58 32.14 49.89C32.14 50.21 32.39 50.47 32.70 50.47L34.91 50.47L34.91 57.44C34.91 57.79 35.20 58.08 35.55 58.08C35.91 58.08 36.20 57.79 36.20 57.44L36.20 50.47L38.41 50.47C38.72 50.47 38.97 50.21 38.97 49.91ZM44.74 54.85C44.74 53.05 43.53 51.56 41.57 51.56C39.62 51.56 38.41 53.05 38.41 54.85C38.41 56.66 39.62 58.16 41.57 58.16C43.53 58.16 44.74 56.66 44.74 54.85ZM43.53 54.85C43.53 56.06 42.83 57.13 41.57 57.13C40.32 57.13 39.61 56.06 39.61 54.85C39.61 53.66 40.32 52.59 41.57 52.59C42.83 52.59 43.53 53.66 43.53 54.85ZM49.16 57.55C49.16 57.27 48.95 57.06 48.67 57.06C48.54 57.06 48.38 57.13 48.24 57.13C47.86 57.13 47.63 56.83 47.63 56.35L47.63 52.73L48.48 52.73C48.76 52.73 48.98 52.51 48.98 52.24C48.98 51.94 48.76 51.72 48.48 51.72L47.63 51.72L47.63 50.49C47.63 50.19 47.37 49.93 47.05 49.93C46.72 49.93 46.46 50.19 46.46 50.49L46.46 51.72L45.85 51.72C45.56 51.72 45.34 51.94 45.34 52.22C45.34 52.51 45.56 52.73 45.85 52.73L46.46 52.73L46.46 56.62C46.46 57.61 46.98 58.16 47.96 58.16C48.65 58.16 49.16 57.96 49.16 57.55ZM55.26 53.75C55.26 52.15 54.09 51.56 52.74 51.56C51.89 51.56 50.94 51.84 50.34 52.44C50.27 52.53 50.23 52.63 50.23 52.73C50.23 53.01 50.47 53.19 50.71 53.19C50.80 53.19 50.90 53.15 50.99 53.09C51.46 52.72 51.98 52.54 52.57 52.54C53.45 52.54 54.10 53.01 54.10 53.80L54.10 54.15L52.29 54.15C50.99 54.15 49.85 54.66 49.85 56.08C49.85 57.45 50.99 58.16 52.03 58.16C53.01 58.16 53.59 57.86 54.10 57.30L54.10 57.51C54.10 57.88 54.40 58.08 54.63 58.08L54.67 58.08C55.00 58.08 55.26 57.82 55.26 57.51ZM54.10 54.96L54.10 55.84C54.10 56.58 53.26 57.34 52.35 57.34C51.50 57.34 51.02 56.83 51.02 56.10C51.02 55.35 51.62 54.96 52.61 54.96ZM58.27 49.81C58.27 49.51 58.01 49.25 57.71 49.25C57.38 49.25 57.12 49.51 57.12 49.81L57.12 57.51C57.12 57.82 57.38 58.08 57.69 58.08C58.01 58.08 58.27 57.82 58.27 57.51Z" fill="#9aa7b4" /><line x1="18" y1="76" x2="48" y2="76" stroke="#9aa7b4" stroke-opacity="0.4" /><g aria-label="Additions: 32,432,871"><circle cx="22" cy="96" r="4" fill="#00d559" /><path d="M42.28 99.39C42.28 99.31 42.27 99.23 42.23 99.14L39.36 91.94C39.19 91.51 38.76 91.24 38.30 91.25C37.85 91.25 37.43 91.52 37.28 91.94L34.40 99.14C34.38 99.23 34.36 99.31 34.36 99.39C34.36 99.74 34.65 100.08 35.05 100.08C35.33 100.08 35.57 99.92 35.68 99.66L36.25 98.19L40.40 98.19L40.97 99.66C41.07 99.92 41.32 100.08 41.59 100.08C42.01 100.08 42.28 99.71 42.28 99.39ZM38.32 92.64L40.03 97.06L36.61 97.06ZM49.22 91.81C49.22 91.51 48.96 91.25 48.66 91.25C48.33 91.25 48.07 91.51 48.07 91.81L48.07 94.63C47.56 93.95 46.95 93.56 46.00 93.56C44.36 93.56 43.20 94.85 43.20 96.87C43.20 98.92 44.37 100.16 46.00 100.16C46.97 100.16 47.59 99.73 48.07 99.10L48.07 99.51C48.07 99.82 48.33 100.08 48.64 100.08C48.96 100.08 49.22 99.82 49.22 99.51ZM48.07 96.91C48.07 98.21 47.42 99.13 46.30 99.13C45.13 99.13 44.40 98.18 44.40 96.87C44.40 95.55 45.13 94.59 46.30 94.59C47.42 94.59 48.07 95.54 48.07 96.83ZM56.74 91.81C56.74 91.51 56.48 91.25 56.18 91.25C55.84 91.25 55.58 91.51 55.58 91.81L55.58 94.63C55.07 93.95 54.46 93.56 53.51 93.56C51.88 93.56 50.72 94.85 50.72 96.87C50.72 98.92 51.89 100.16 53.51 100.16C54.49 100.16 55.10 99.73 55.58 99.10L55.58 99.51C55.58 99.82 55.84 100.08 56.15 100.08C56.48 100.08 56.74 99.82 56.74 99.51ZM55.58 96.91C55.58 98.21 54.93 99.13 53.81 99.13C52.64 99.13 51.91 98.18 51.91 96.87C51.91 95.55 52.64 94.59 53.81 94.59C54.93 94.59 55.58 95.54 55.58 96.83ZM59.18 91.39C58.78 91.39 58.44 91.73 58.44 92.15C58.44 92.55 58.78 92.89 59.18 92.89C59.60 92.89 59.92 92.55 59.92 92.15C59.92 91.73 59.60 91.39 59.18 91.39ZM59.77 94.20C59.77 93.90 59.51 93.64 59.21 93.64C58.87 93.64 58.61 93.90 58.61 94.20L58.61 99.51C58.61 99.82 58.87 100.08 59.18 100.08C59.51 100.08 59.77 99.82 59.77 99.51ZM64.56 99.55C64.56 99.27 64.36 99.06 64.07 99.06C63.94 99.06 63.78 99.13 63.64 99.13C63.26 99.13 63.03 98.83 63.03 98.35L63.03 94.73L63.89 94.73C64.16 94.73 64.38 94.51 64.38 94.24C64.38 93.94 64.16 93.72 63.89 93.72L63.03 93.72L63.03 92.49C63.03 92.19 62.77 91.93 62.46 91.93C62.12 91.93 61.86 92.19 61.86 92.49L61.86 93.72L61.25 93.72C60.96 93.72 60.74 93.94 60.74 94.22C60.74 94.51 60.96 94.73 61.25 94.73L61.86 94.73L61.86 98.62C61.86 99.61 62.38 100.16 63.37 100.16C64.06 100.16 64.56 99.96 64.56 99.55ZM66.19 91.39C65.79 91.39 65.45 91.73 65.45 92.15C65.45 92.55 65.79 92.89 66.19 92.89C66.60 92.89 66.93 92.55 66.93 92.15C66.93 91.73 66.60 91.39 66.19 91.39ZM66.77 94.20C66.77 93.90 66.51 93.64 66.21 93.64C65.88 93.64 65.62 93.90 65.62 94.20L65.62 99.51C65.62 99.82 65.88 100.08 66.19 100.08C66.51 100.08 66.77 99.82 66.77 99.51ZM74.60 96.85C74.60 95.05 73.39 93.56 71.43 93.56C69.48 93.56 68.27 95.05 68.27 96.85C68.27 98.66 69.48 100.16 71.43 100.16C73.39 100.16 74.60 98.66 74.60 96.85ZM73.39 96.85C73.39 98.06 72.69 99.13 71.43 99.13C70.18 99.13 69.46 98.06 69.46 96.85C69.46 95.66 70.18 94.59 71.43 94.59C72.69 94.59 73.39 95.66 73.39 96.85ZM81.49 95.97C81.49 94.64 80.53 93.56 79.20 93.56C78.11 93.56 77.55 94.10 77.25 94.61L77.25 94.20C77.25 93.90 76.99 93.64 76.69 93.64C76.35 93.64 76.09 93.90 76.09 94.20L76.09 99.51C76.09 99.82 76.35 100.08 76.67 100.08C76.99 100.08 77.25 99.82 77.25 99.51L77.25 96.49C77.25 95.42 77.82 94.59 78.82 94.59C79.76 94.59 80.33 95.32 80.33 96.36L80.33 99.51C80.33 99.82 80.59 100.08 80.90 100.08C81.23 100.08 81.49 99.82 81.49 99.51ZM87.96 98.10C87.85 95.89 84.24 96.50 84.11 95.37C84.06 94.86 84.61 94.49 85.40 94.49C86 94.49 86.56 94.68 86.96 94.97C87.04 95.03 87.13 95.06 87.23 95.06C87.47 95.06 87.69 94.86 87.69 94.61C87.69 94.50 87.65 94.40 87.57 94.32C87.08 93.84 86.29 93.56 85.39 93.56C83.86 93.56 82.93 94.29 83.00 95.41C83.11 97.52 86.70 96.87 86.83 98.26C86.88 98.83 86.36 99.23 85.47 99.23C84.82 99.23 84.17 98.97 83.70 98.64C83.61 98.57 83.52 98.54 83.40 98.54C83.13 98.54 82.89 98.75 82.89 99.03C82.89 99.16 82.94 99.26 83.04 99.34C83.61 99.91 84.56 100.16 85.41 100.16C87.08 100.16 88.03 99.30 87.96 98.10Z" fill="#e6edf3" /><path d="M159.47 97.63C159.58 96.07 158.53 95.53 158.53 95.53C158.53 95.53 159.49 95.03 159.38 93.55C159.28 92.11 158.13 91.20 156.11 91.20C154.91 91.20 153.97 91.55 153.26 92.12C153.08 92.27 152.99 92.47 152.99 92.68C152.99 93.14 153.39 93.46 153.79 93.46C153.95 93.46 154.10 93.42 154.23 93.33C154.74 93.01 155.31 92.84 155.91 92.84C156.82 92.84 157.52 93.05 157.52 93.73C157.52 94.45 157.09 94.79 156.22 94.79C155.60 94.79 155.33 95.14 155.33 95.59C155.33 96.05 155.60 96.41 156.28 96.41C157.16 96.41 157.67 96.72 157.67 97.41C157.67 98.06 157.08 98.52 156.03 98.52C155.43 98.52 154.74 98.31 154.17 97.97C154.03 97.88 153.87 97.84 153.72 97.84C153.29 97.84 152.87 98.19 152.87 98.66C152.87 98.79 152.91 98.91 152.97 99.01C153.38 99.69 154.85 100.16 156.09 100.16C158.17 100.16 159.37 99.26 159.47 97.63ZM167.26 99.17C167.26 98.74 166.90 98.38 166.47 98.38L163.65 98.38C165.90 96.74 167.12 95.45 167.12 93.97C167.12 92.24 165.65 91.20 163.80 91.20C162.71 91.20 161.25 91.67 160.84 92.33C160.76 92.45 160.72 92.58 160.72 92.71C160.72 93.17 161.10 93.54 161.53 93.54C161.72 93.54 161.89 93.49 162.06 93.37C162.56 93.03 163.15 92.84 163.84 92.84C164.56 92.84 165.25 93.21 165.25 93.97C165.25 94.98 164.21 95.93 160.97 98.32C160.72 98.50 160.58 98.80 160.58 99.10C160.58 99.62 161.00 100 161.45 100L166.47 100C166.90 100 167.26 99.64 167.26 99.17ZM170.64 99.36C170.64 98.52 170.08 98.04 169.47 98.04C168.93 98.04 168.46 98.50 168.46 99.08C168.46 99.64 168.85 100.01 169.34 100.01C169.43 100.01 169.55 99.99 169.59 99.97C169.51 100.31 169.22 100.72 168.89 100.99C168.80 101.07 168.76 101.17 168.76 101.27C168.76 101.53 169.03 101.69 169.25 101.69C169.38 101.69 169.50 101.65 169.59 101.56C170.24 100.97 170.64 100.19 170.64 99.36ZM178.69 97.40C178.69 96.94 178.32 96.58 177.90 96.58L177.49 96.58L177.49 92.29C177.49 91.48 176.71 91.12 175.92 91.25C175.36 91.25 174.80 91.55 174.50 92.02L171.60 96.59C171.49 96.78 171.43 96.98 171.43 97.19C171.43 97.78 171.86 98.21 172.38 98.21L175.65 98.21L175.65 99.17C175.65 99.66 176.06 100.08 176.56 100.08C177.08 100.08 177.49 99.66 177.49 99.17L177.49 98.21L177.90 98.21C178.32 98.21 178.69 97.84 178.69 97.40ZM173.31 96.58L175.65 92.97L175.65 96.58ZM185.99 97.63C186.10 96.07 185.05 95.53 185.05 95.53C185.05 95.53 186.01 95.03 185.90 93.55C185.80 92.11 184.66 91.20 182.63 91.20C181.43 91.20 180.50 91.55 179.78 92.12C179.60 92.27 179.51 92.47 179.51 92.68C179.51 93.14 179.91 93.46 180.31 93.46C180.47 93.46 180.63 93.42 180.75 93.33C181.26 93.01 181.83 92.84 182.43 92.84C183.34 92.84 184.04 93.05 184.04 93.73C184.04 94.45 183.62 94.79 182.74 94.79C182.12 94.79 181.85 95.14 181.85 95.59C181.85 96.05 182.12 96.41 182.80 96.41C183.68 96.41 184.19 96.72 184.19 97.41C184.19 98.06 183.60 98.52 182.55 98.52C181.95 98.52 181.26 98.31 180.69 97.97C180.55 97.88 180.39 97.84 180.24 97.84C179.81 97.84 179.39 98.19 179.39 98.66C179.39 98.79 179.43 98.91 179.49 99.01C179.90 99.69 181.37 100.16 182.61 100.16C184.69 100.16 185.89 99.26 185.99 97.63ZM193.78 99.17C193.78 98.74 193.42 98.38 192.99 98.38L190.17 98.38C192.42 96.74 193.64 95.45 193.64 93.97C193.64 92.24 192.17 91.20 190.32 91.20C189.23 91.20 187.78 91.67 187.36 92.33C187.28 92.45 187.24 92.58 187.24 92.71C187.24 93.17 187.62 93.54 188.05 93.54C188.24 93.54 188.41 93.49 188.58 93.37C189.07 93.03 189.67 92.84 190.36 92.84C191.08 92.84 191.77 93.21 191.77 93.97C191.77 94.98 190.73 95.93 187.49 98.32C187.24 98.50 187.10 98.80 187.10 99.10C187.10 99.62 187.52 100 187.97 100L192.99 100C193.42 100 193.78 99.64 193.78 99.17ZM197.16 99.36C197.16 98.52 196.60 98.04 195.99 98.04C195.45 98.04 194.98 98.50 194.98 99.08C194.98 99.64 195.37 100.01 195.86 100.01C195.95 100.01 196.07 99.99 196.11 99.97C196.03 100.31 195.74 100.72 195.41 100.99C195.32 101.07 195.28 101.17 195.28 101.27C195.28 101.53 195.55 101.69 195.77 101.69C195.90 101.69 196.02 101.65 196.11 101.56C196.76 100.97 197.16 100.19 197.16 99.36ZM205.12 97.62C205.12 96.44 204.42 95.76 203.90 95.53C204.34 95.32 204.97 94.83 204.97 93.49C204.97 91.99 203.36 91.20 201.63 91.20C199.89 91.20 198.29 91.99 198.29 93.49C198.29 94.83 198.92 95.32 199.36 95.53C198.84 95.76 198.15 96.44 198.15 97.62C198.15 99.25 199.81 100.16 201.63 100.16C203.45 100.16 205.12 99.23 205.12 97.62ZM203.09 93.77C203.09 94.42 202.43 94.80 201.63 94.80C200.84 94.80 200.16 94.42 200.16 93.77C200.16 93.15 200.78 92.78 201.63 92.78C202.48 92.78 203.09 93.15 203.09 93.77ZM203.25 97.52C203.25 98.15 202.52 98.57 201.63 98.57C200.72 98.57 200.02 98.15 200.02 97.52C200.02 96.79 200.83 96.36 201.63 96.36C202.43 96.36 203.25 96.79 203.25 97.52ZM212.48 92.27C212.48 91.72 212.03 91.33 211.58 91.33L206.61 91.33C206.17 91.33 205.81 91.69 205.81 92.12C205.81 92.59 206.17 92.95 206.61 92.95L210.25 92.95L207.67 98.82C207.61 98.93 207.59 99.05 207.59 99.17C207.59 99.64 207.96 100.08 208.51 100.08C208.89 100.08 209.24 99.86 209.38 99.52L212.40 92.63C212.45 92.53 212.48 92.39 212.48 92.27ZM217.14 92.32C217.14 91.73 216.65 91.26 216.06 91.26C215.76 91.26 215.48 91.38 215.28 91.58L213.28 93.60C213.13 93.76 213.05 93.95 213.05 94.15C213.05 94.58 213.41 94.92 213.81 94.92C214.00 94.92 214.18 94.85 214.32 94.71L215.30 93.71L215.30 99.17C215.30 99.66 215.71 100.08 216.21 100.08C216.73 100.08 217.14 99.66 217.14 99.17Z" fill="#9aa7b4" /></g><g aria-label="Deletions: 14,585,526"><circle cx="22" cy="118" r="4" fill="#00a5fe" /><path d="M42.54 117.67C42.54 115.17 40.76 113.33 38.06 113.33L35.82 113.33C35.35 113.33 34.98 113.71 34.98 114.17L34.98 121.16C34.98 121.62 35.35 122 35.82 122L38.06 122C40.76 122 42.54 120.18 42.54 117.67ZM41.23 117.67C41.23 119.43 40.06 120.86 38.06 120.86L36.26 120.86L36.26 114.47L38.06 114.47C40.11 114.47 41.23 115.89 41.23 117.67ZM49.90 118.65C49.90 118.40 49.83 118.13 49.78 117.92C49.42 116.51 48.38 115.56 46.86 115.56C45.04 115.56 43.72 117.03 43.72 118.85C43.72 120.83 45.09 122.16 46.96 122.16C47.88 122.16 49.50 121.67 49.50 120.97C49.50 120.53 49.05 120.43 48.77 120.57C48.31 120.91 47.61 121.22 47.08 121.22C45.80 121.22 45.02 120.35 44.93 119.27L49.30 119.27C49.63 119.27 49.90 118.96 49.90 118.65ZM44.93 118.41C44.98 117.54 45.60 116.50 46.84 116.50C48.18 116.50 48.76 117.57 48.78 118.41ZM52.54 113.81C52.54 113.51 52.28 113.25 51.98 113.25C51.64 113.25 51.38 113.51 51.38 113.81L51.38 121.51C51.38 121.82 51.64 122.08 51.95 122.08C52.28 122.08 52.54 121.82 52.54 121.51ZM60.21 118.65C60.21 118.40 60.14 118.13 60.09 117.92C59.73 116.51 58.69 115.56 57.17 115.56C55.35 115.56 54.03 117.03 54.03 118.85C54.03 120.83 55.40 122.16 57.27 122.16C58.19 122.16 59.81 121.67 59.81 120.97C59.81 120.53 59.36 120.43 59.08 120.57C58.62 120.91 57.92 121.22 57.39 121.22C56.11 121.22 55.33 120.35 55.24 119.27L59.61 119.27C59.94 119.27 60.21 118.96 60.21 118.65ZM55.24 118.41C55.29 117.54 55.91 116.50 57.15 116.50C58.49 116.50 59.06 117.57 59.09 118.41ZM64.62 121.55C64.62 121.27 64.41 121.06 64.12 121.06C63.99 121.06 63.84 121.13 63.69 121.13C63.32 121.13 63.08 120.83 63.08 120.35L63.08 116.73L63.94 116.73C64.21 116.73 64.43 116.51 64.43 116.24C64.43 115.94 64.21 115.72 63.94 115.72L63.08 115.72L63.08 114.49C63.08 114.19 62.82 113.93 62.51 113.93C62.17 113.93 61.91 114.19 61.91 114.49L61.91 115.72L61.30 115.72C61.01 115.72 60.79 115.94 60.79 116.22C60.79 116.51 61.01 116.73 61.30 116.73L61.91 116.73L61.91 120.62C61.91 121.61 62.43 122.16 63.42 122.16C64.11 122.16 64.62 121.96 64.62 121.55ZM66.24 113.39C65.84 113.39 65.50 113.73 65.50 114.15C65.50 114.55 65.84 114.89 66.24 114.89C66.66 114.89 66.98 114.55 66.98 114.15C66.98 113.73 66.66 113.39 66.24 113.39ZM66.83 116.20C66.83 115.90 66.56 115.64 66.27 115.64C65.93 115.64 65.67 115.90 65.67 116.20L65.67 121.51C65.67 121.82 65.93 122.08 66.24 122.08C66.56 122.08 66.83 121.82 66.83 121.51ZM74.65 118.85C74.65 117.05 73.44 115.56 71.48 115.56C69.53 115.56 68.32 117.05 68.32 118.85C68.32 120.66 69.53 122.16 71.48 122.16C73.44 122.16 74.65 120.66 74.65 118.85ZM73.44 118.85C73.44 120.06 72.74 121.13 71.48 121.13C70.23 121.13 69.52 120.06 69.52 118.85C69.52 117.66 70.23 116.59 71.48 116.59C72.74 116.59 73.44 117.66 73.44 118.85ZM81.54 117.97C81.54 116.64 80.58 115.56 79.25 115.56C78.16 115.56 77.60 116.10 77.30 116.61L77.30 116.20C77.30 115.90 77.04 115.64 76.74 115.64C76.41 115.64 76.15 115.90 76.15 116.20L76.15 121.51C76.15 121.82 76.41 122.08 76.72 122.08C77.04 122.08 77.30 121.82 77.30 121.51L77.30 118.49C77.30 117.42 77.88 116.59 78.88 116.59C79.81 116.59 80.38 117.32 80.38 118.36L80.38 121.51C80.38 121.82 80.64 122.08 80.96 122.08C81.28 122.08 81.54 121.82 81.54 121.51ZM88.01 120.10C87.90 117.89 84.30 118.50 84.17 117.37C84.11 116.86 84.66 116.49 85.45 116.49C86.05 116.49 86.61 116.68 87.01 116.97C87.09 117.03 87.18 117.06 87.29 117.06C87.52 117.06 87.74 116.86 87.74 116.61C87.74 116.50 87.70 116.40 87.62 116.32C87.13 115.84 86.34 115.56 85.44 115.56C83.91 115.56 82.98 116.29 83.05 117.41C83.17 119.52 86.75 118.87 86.88 120.26C86.94 120.83 86.42 121.23 85.52 121.23C84.87 121.23 84.22 120.97 83.75 120.64C83.66 120.57 83.57 120.54 83.45 120.54C83.18 120.54 82.94 120.75 82.94 121.03C82.94 121.16 83.00 121.26 83.09 121.34C83.66 121.91 84.61 122.16 85.47 122.16C87.13 122.16 88.08 121.30 88.01 120.10Z" fill="#e6edf3" /><path d="M155.43 114.32C155.43 113.73 154.94 113.26 154.35 113.26C154.05 113.26 153.77 113.38 153.57 113.58L151.57 115.60C151.41 115.76 151.34 115.95 151.34 116.15C151.34 116.58 151.70 116.92 152.10 116.92C152.28 116.92 152.47 116.85 152.61 116.71L153.58 115.71L153.58 121.17C153.58 121.66 154.00 122.08 154.49 122.08C155.01 122.08 155.43 121.66 155.43 121.17ZM163.80 119.40C163.80 118.94 163.44 118.58 163.01 118.58L162.61 118.58L162.61 114.29C162.61 113.48 161.83 113.12 161.03 113.25C160.47 113.25 159.92 113.55 159.62 114.02L156.72 118.59C156.60 118.78 156.55 118.98 156.55 119.19C156.55 119.78 156.98 120.21 157.50 120.21L160.76 120.21L160.76 121.17C160.76 121.66 161.18 122.08 161.67 122.08C162.19 122.08 162.61 121.66 162.61 121.17L162.61 120.21L163.01 120.21C163.44 120.21 163.80 119.84 163.80 119.40ZM158.42 118.58L160.76 114.97L160.76 118.58ZM166.84 121.36C166.84 120.52 166.29 120.04 165.67 120.04C165.13 120.04 164.66 120.50 164.66 121.08C164.66 121.64 165.05 122.01 165.54 122.01C165.64 122.01 165.75 121.99 165.79 121.97C165.71 122.31 165.43 122.72 165.09 122.99C165.00 123.07 164.96 123.17 164.96 123.27C164.96 123.53 165.23 123.69 165.45 123.69C165.58 123.69 165.70 123.65 165.79 123.56C166.44 122.97 166.84 122.19 166.84 121.36ZM174.83 119.15C174.83 117.40 173.51 116.34 172.04 116.34C171.25 116.34 170.55 116.66 170.13 117.07L170.13 114.95L173.53 114.95C173.96 114.95 174.32 114.59 174.32 114.15C174.32 113.69 173.96 113.33 173.53 113.33L169.33 113.33C168.76 113.33 168.29 113.80 168.29 114.37L168.29 117.70C168.29 118.20 168.65 118.58 169.22 118.58C169.48 118.58 169.73 118.50 169.94 118.36C170.41 118.05 170.86 117.94 171.39 117.94C172.38 117.94 172.95 118.46 172.95 119.23C172.95 119.93 172.37 120.52 171.34 120.52C170.72 120.52 170.12 120.35 169.61 120.04C169.46 119.95 169.29 119.89 169.13 119.89C168.68 119.89 168.25 120.25 168.25 120.73C168.25 120.86 168.29 120.99 168.35 121.10C168.76 121.78 170.22 122.16 171.36 122.16C173.45 122.16 174.83 121.00 174.83 119.15ZM182.70 119.62C182.70 118.44 182.00 117.76 181.48 117.53C181.92 117.32 182.56 116.83 182.56 115.49C182.56 113.99 180.95 113.20 179.22 113.20C177.48 113.20 175.88 113.99 175.88 115.49C175.88 116.83 176.50 117.32 176.95 117.53C176.43 117.76 175.74 118.44 175.74 119.62C175.74 121.25 177.40 122.16 179.22 122.16C181.04 122.16 182.70 121.23 182.70 119.62ZM180.68 115.77C180.68 116.42 180.01 116.80 179.22 116.80C178.43 116.80 177.75 116.42 177.75 115.77C177.75 115.15 178.36 114.78 179.22 114.78C180.07 114.78 180.68 115.15 180.68 115.77ZM180.83 119.52C180.83 120.15 180.10 120.57 179.22 120.57C178.31 120.57 177.61 120.15 177.61 119.52C177.61 118.79 178.41 118.36 179.22 118.36C180.01 118.36 180.83 118.79 180.83 119.52ZM190.61 119.15C190.61 117.40 189.30 116.34 187.83 116.34C187.03 116.34 186.33 116.66 185.92 117.07L185.92 114.95L189.31 114.95C189.74 114.95 190.10 114.59 190.10 114.15C190.10 113.69 189.74 113.33 189.31 113.33L185.11 113.33C184.54 113.33 184.07 113.80 184.07 114.37L184.07 117.70C184.07 118.20 184.43 118.58 185.01 118.58C185.27 118.58 185.51 118.50 185.72 118.36C186.19 118.05 186.64 117.94 187.18 117.94C188.16 117.94 188.74 118.46 188.74 119.23C188.74 119.93 188.15 120.52 187.12 120.52C186.50 120.52 185.90 120.35 185.40 120.04C185.24 119.95 185.07 119.89 184.91 119.89C184.46 119.89 184.03 120.25 184.03 120.73C184.03 120.86 184.07 120.99 184.13 121.10C184.54 121.78 186.01 122.16 187.14 122.16C189.23 122.16 190.61 121.00 190.61 119.15ZM193.86 121.36C193.86 120.52 193.30 120.04 192.69 120.04C192.14 120.04 191.67 120.50 191.67 121.08C191.67 121.64 192.06 122.01 192.56 122.01C192.65 122.01 192.77 121.99 192.81 121.97C192.73 122.31 192.44 122.72 192.10 122.99C192.01 123.07 191.97 123.17 191.97 123.27C191.97 123.53 192.25 123.69 192.47 123.69C192.60 123.69 192.71 123.65 192.81 123.56C193.46 122.97 193.86 122.19 193.86 121.36ZM201.84 119.15C201.84 117.40 200.53 116.34 199.06 116.34C198.27 116.34 197.56 116.66 197.15 117.07L197.15 114.95L200.54 114.95C200.97 114.95 201.33 114.59 201.33 114.15C201.33 113.69 200.97 113.33 200.54 113.33L196.34 113.33C195.77 113.33 195.30 113.80 195.30 114.37L195.30 117.70C195.30 118.20 195.67 118.58 196.24 118.58C196.50 118.58 196.74 118.50 196.95 118.36C197.42 118.05 197.88 117.94 198.41 117.94C199.40 117.94 199.97 118.46 199.97 119.23C199.97 119.93 199.38 120.52 198.36 120.52C197.73 120.52 197.13 120.35 196.63 120.04C196.47 119.95 196.30 119.89 196.15 119.89C195.69 119.89 195.26 120.25 195.26 120.73C195.26 120.86 195.30 120.99 195.37 121.10C195.77 121.78 197.24 122.16 198.37 122.16C200.46 122.16 201.84 121.00 201.84 119.15ZM209.51 121.17C209.51 120.74 209.15 120.38 208.72 120.38L205.90 120.38C208.15 118.74 209.37 117.45 209.37 115.97C209.37 114.24 207.90 113.20 206.05 113.20C204.96 113.20 203.50 113.67 203.09 114.33C203.01 114.45 202.97 114.58 202.97 114.71C202.97 115.17 203.35 115.54 203.78 115.54C203.97 115.54 204.14 115.49 204.31 115.37C204.80 115.03 205.40 114.84 206.09 114.84C206.81 114.84 207.50 115.21 207.50 115.97C207.50 116.98 206.46 117.93 203.22 120.32C202.97 120.50 202.83 120.80 202.83 121.10C202.83 121.62 203.24 122 203.70 122L208.72 122C209.15 122 209.51 121.64 209.51 121.17ZM217.60 119.18C217.60 117.33 216.21 116.36 214.65 116.36C213.57 116.36 212.76 116.89 212.42 117.48C212.41 117.41 212.41 117.36 212.41 117.29C212.41 115.92 213.31 114.84 214.58 114.84C215.02 114.84 215.39 114.91 215.71 115.08C215.83 115.15 215.96 115.17 216.09 115.17C216.49 115.17 216.93 114.86 216.93 114.37C216.93 114.24 216.89 114.12 216.84 114.02C216.52 113.45 215.43 113.20 214.58 113.20C212.02 113.20 210.54 115.06 210.54 117.68C210.54 120.13 211.64 122.16 214.28 122.16C216.26 122.16 217.60 120.87 217.60 119.18ZM215.72 119.24C215.72 119.89 215.24 120.52 214.24 120.52C213.42 120.52 212.81 119.96 212.81 119.15C212.81 118.37 213.44 117.81 214.24 117.81C215.07 117.81 215.72 118.37 215.72 119.24Z" fill="#9aa7b4" /></g><g aria-label="Changed Files: 509,695"><circle cx="22" cy="140" r="4" fill="#673bd6" /><path d="M39.11 135.19C36.59 135.19 34.60 137.01 34.60 139.67C34.60 142.34 36.59 144.16 39.11 144.16C40.46 144.16 41.40 143.60 42.07 142.87C42.18 142.76 42.23 142.62 42.23 142.47C42.23 142.15 41.97 141.87 41.63 141.87C41.46 141.87 41.28 141.95 41.18 142.08C40.64 142.67 39.88 143.01 39.11 143.01C37.29 143.01 35.94 141.61 35.94 139.67C35.94 137.72 37.29 136.33 39.11 136.33C39.86 136.33 40.67 136.69 41.18 137.28C41.28 137.42 41.46 137.49 41.62 137.49C41.96 137.49 42.23 137.21 42.23 136.89C42.23 136.73 42.18 136.59 42.07 136.47C41.41 135.73 40.46 135.19 39.11 135.19ZM49.17 139.94C49.17 138.62 48.22 137.56 46.90 137.56C45.79 137.56 45.22 138.10 44.92 138.60L44.92 135.81C44.92 135.51 44.66 135.25 44.36 135.25C44.02 135.25 43.76 135.51 43.76 135.81L43.76 143.51C43.76 143.82 44.02 144.08 44.34 144.08C44.66 144.08 44.92 143.82 44.92 143.51L44.92 140.56C44.92 139.38 45.54 138.59 46.53 138.59C47.47 138.59 48.01 139.29 48.01 140.33L48.01 143.51C48.01 143.82 48.27 144.08 48.59 144.08C48.91 144.08 49.17 143.82 49.17 143.51ZM56.09 139.75C56.09 138.15 54.92 137.56 53.56 137.56C52.72 137.56 51.77 137.84 51.17 138.44C51.09 138.53 51.06 138.63 51.06 138.74C51.06 139.01 51.30 139.19 51.54 139.19C51.63 139.19 51.73 139.15 51.82 139.09C52.29 138.72 52.81 138.54 53.40 138.54C54.28 138.54 54.93 139.01 54.93 139.80L54.93 140.15L53.12 140.15C51.82 140.15 50.68 140.66 50.68 142.08C50.68 143.45 51.82 144.16 52.86 144.16C53.84 144.16 54.42 143.86 54.93 143.30L54.93 143.51C54.93 143.88 55.23 144.08 55.46 144.08L55.50 144.08C55.83 144.08 56.09 143.82 56.09 143.51ZM54.93 140.96L54.93 141.84C54.93 142.58 54.09 143.34 53.17 143.34C52.33 143.34 51.85 142.83 51.85 142.10C51.85 141.35 52.45 140.96 53.44 140.96ZM63.34 139.97C63.34 138.64 62.38 137.56 61.05 137.56C59.96 137.56 59.40 138.10 59.10 138.60L59.10 138.20C59.10 137.90 58.84 137.64 58.54 137.64C58.21 137.64 57.95 137.90 57.95 138.20L57.95 143.51C57.95 143.82 58.21 144.08 58.52 144.08C58.84 144.08 59.10 143.82 59.10 143.51L59.10 140.49C59.10 139.42 59.67 138.59 60.68 138.59C61.61 138.59 62.18 139.32 62.18 140.36L62.18 143.51C62.18 143.82 62.44 144.08 62.76 144.08C63.08 144.08 63.34 143.82 63.34 143.51ZM70.84 138.20C70.84 137.90 70.58 137.64 70.28 137.64C69.95 137.64 69.69 137.90 69.69 138.20L69.69 138.63C69.18 137.96 68.45 137.56 67.62 137.56C65.99 137.56 64.84 138.79 64.84 140.81C64.84 142.86 66.01 144.05 67.62 144.05C68.48 144.05 69.22 143.60 69.69 142.96L69.69 143.79C69.69 145.13 68.72 145.60 67.75 145.60C67.06 145.60 66.51 145.46 66.03 145.05C65.94 144.99 65.85 144.96 65.73 144.96C65.47 144.96 65.24 145.18 65.24 145.46C65.24 145.59 65.29 145.70 65.37 145.78C65.98 146.37 66.86 146.55 67.75 146.55C69.28 146.55 70.84 145.91 70.84 143.75ZM69.69 140.83C69.69 142.12 68.84 143.03 67.80 143.03C66.63 143.03 66.03 142.10 66.03 140.81C66.03 139.50 66.63 138.59 67.80 138.59C68.84 138.59 69.69 139.49 69.69 140.78ZM78.51 140.65C78.51 140.40 78.45 140.13 78.40 139.92C78.03 138.51 76.99 137.56 75.47 137.56C73.65 137.56 72.34 139.03 72.34 140.85C72.34 142.83 73.70 144.16 75.57 144.16C76.50 144.16 78.11 143.68 78.11 142.97C78.11 142.53 77.67 142.43 77.38 142.57C76.93 142.91 76.22 143.22 75.69 143.22C74.42 143.22 73.64 142.35 73.55 141.27L77.91 141.27C78.24 141.27 78.51 140.96 78.51 140.65ZM73.55 140.41C73.60 139.54 74.21 138.50 75.46 138.50C76.80 138.50 77.37 139.57 77.39 140.41ZM85.64 135.81C85.64 135.51 85.38 135.25 85.08 135.25C84.74 135.25 84.48 135.51 84.48 135.81L84.48 138.63C83.97 137.96 83.36 137.56 82.41 137.56C80.77 137.56 79.62 138.85 79.62 140.87C79.62 142.92 80.79 144.16 82.41 144.16C83.39 144.16 84.00 143.73 84.48 143.10L84.48 143.51C84.48 143.82 84.74 144.08 85.05 144.08C85.38 144.08 85.64 143.82 85.64 143.51ZM84.48 140.91C84.48 142.21 83.83 143.13 82.71 143.13C81.54 143.13 80.81 142.18 80.81 140.87C80.81 139.55 81.54 138.59 82.71 138.59C83.83 138.59 84.48 139.54 84.48 140.83ZM96.76 135.91C96.76 135.58 96.52 135.33 96.20 135.33L91.73 135.33C91.27 135.33 90.89 135.71 90.89 136.17L90.89 143.44C90.89 143.79 91.17 144.08 91.52 144.08C91.89 144.08 92.17 143.79 92.17 143.44L92.17 140.15L96.11 140.15C96.43 140.15 96.67 139.89 96.67 139.59C96.67 139.25 96.43 139.01 96.11 139.01L92.17 139.01L92.17 136.47L96.20 136.47C96.52 136.47 96.76 136.21 96.76 135.91ZM98.65 135.39C98.25 135.39 97.91 135.73 97.91 136.15C97.91 136.55 98.25 136.89 98.65 136.89C99.06 136.89 99.39 136.55 99.39 136.15C99.39 135.73 99.06 135.39 98.65 135.39ZM99.23 138.20C99.23 137.90 98.97 137.64 98.67 137.64C98.34 137.64 98.08 137.90 98.08 138.20L98.08 143.51C98.08 143.82 98.34 144.08 98.65 144.08C98.97 144.08 99.23 143.82 99.23 143.51ZM102.26 135.81C102.26 135.51 102.00 135.25 101.70 135.25C101.37 135.25 101.11 135.51 101.11 135.81L101.11 143.51C101.11 143.82 101.37 144.08 101.68 144.08C102.00 144.08 102.26 143.82 102.26 143.51ZM109.93 140.65C109.93 140.40 109.87 140.13 109.82 139.92C109.45 138.51 108.41 137.56 106.89 137.56C105.07 137.56 103.76 139.03 103.76 140.85C103.76 142.83 105.12 144.16 106.99 144.16C107.92 144.16 109.53 143.68 109.53 142.97C109.53 142.53 109.09 142.43 108.80 142.57C108.35 142.91 107.64 143.22 107.11 143.22C105.84 143.22 105.06 142.35 104.97 141.27L109.33 141.27C109.66 141.27 109.93 140.96 109.93 140.65ZM104.97 140.41C105.02 139.54 105.63 138.50 106.88 138.50C108.22 138.50 108.79 139.57 108.81 140.41ZM116.02 142.10C115.90 139.89 112.30 140.50 112.17 139.37C112.12 138.87 112.66 138.49 113.46 138.49C114.05 138.49 114.61 138.68 115.02 138.97C115.09 139.03 115.18 139.06 115.29 139.06C115.52 139.06 115.74 138.87 115.74 138.60C115.74 138.50 115.70 138.40 115.63 138.32C115.13 137.84 114.34 137.56 113.44 137.56C111.91 137.56 110.99 138.29 111.05 139.41C111.17 141.52 114.76 140.87 114.89 142.26C114.94 142.83 114.42 143.23 113.52 143.23C112.87 143.23 112.22 142.97 111.75 142.63C111.66 142.57 111.57 142.54 111.45 142.54C111.18 142.54 110.95 142.75 110.95 143.03C110.95 143.16 111.00 143.26 111.09 143.34C111.66 143.91 112.61 144.16 113.47 144.16C115.13 144.16 116.08 143.30 116.02 142.10Z" fill="#e6edf3" /><path d="M175.09 141.15C175.09 139.40 173.77 138.34 172.30 138.34C171.51 138.34 170.81 138.66 170.39 139.07L170.39 136.95L173.79 136.95C174.22 136.95 174.58 136.59 174.58 136.15C174.58 135.69 174.22 135.33 173.79 135.33L169.59 135.33C169.02 135.33 168.55 135.80 168.55 136.37L168.55 139.70C168.55 140.20 168.91 140.58 169.48 140.58C169.74 140.58 169.99 140.50 170.20 140.36C170.67 140.05 171.12 139.94 171.65 139.94C172.64 139.94 173.21 140.46 173.21 141.23C173.21 141.93 172.63 142.52 171.60 142.52C170.98 142.52 170.38 142.35 169.87 142.04C169.72 141.95 169.55 141.89 169.39 141.89C168.94 141.89 168.51 142.25 168.51 142.73C168.51 142.86 168.55 142.99 168.61 143.10C169.02 143.78 170.48 144.16 171.62 144.16C173.71 144.16 175.09 143.00 175.09 141.15ZM183.16 139.67C183.16 137.44 182.04 135.20 179.57 135.20C177.09 135.20 175.98 137.44 175.98 139.67C175.98 141.91 177.09 144.16 179.57 144.16C182.04 144.16 183.16 141.91 183.16 139.67ZM181.27 139.67C181.27 141.27 180.81 142.52 179.57 142.52C178.32 142.52 177.86 141.27 177.86 139.67C177.86 138.07 178.32 136.84 179.57 136.84C180.81 136.84 181.27 138.07 181.27 139.67ZM183.99 138.16C183.99 140.01 185.38 140.98 186.94 140.98C188.02 140.98 188.83 140.45 189.17 139.87C189.18 139.93 189.18 139.98 189.18 140.05C189.18 141.43 188.28 142.50 187.01 142.50C186.57 142.50 186.20 142.43 185.88 142.26C185.76 142.19 185.63 142.17 185.50 142.17C185.10 142.17 184.65 142.48 184.65 142.97C184.65 143.10 184.69 143.22 184.75 143.32C185.07 143.90 186.16 144.14 187.01 144.14C189.57 144.14 191.05 142.28 191.05 139.66C191.05 137.21 189.95 135.19 187.31 135.19C185.33 135.19 183.99 136.47 183.99 138.16ZM185.86 138.10C185.86 137.45 186.34 136.82 187.35 136.82C188.16 136.82 188.78 137.38 188.78 138.19C188.78 138.97 188.15 139.53 187.35 139.53C186.51 139.53 185.86 138.97 185.86 138.10ZM194.03 143.36C194.03 142.52 193.47 142.04 192.86 142.04C192.31 142.04 191.84 142.50 191.84 143.08C191.84 143.64 192.23 144.01 192.73 144.01C192.82 144.01 192.94 143.99 192.97 143.97C192.90 144.31 192.61 144.72 192.27 144.99C192.18 145.07 192.14 145.17 192.14 145.27C192.14 145.53 192.42 145.69 192.64 145.69C192.77 145.69 192.88 145.65 192.97 145.56C193.62 144.97 194.03 144.19 194.03 143.36ZM201.79 141.18C201.79 139.33 200.40 138.36 198.84 138.36C197.76 138.36 196.95 138.89 196.61 139.48C196.60 139.41 196.60 139.36 196.60 139.29C196.60 137.92 197.50 136.84 198.77 136.84C199.21 136.84 199.58 136.91 199.90 137.08C200.02 137.15 200.15 137.18 200.28 137.18C200.68 137.18 201.13 136.86 201.13 136.37C201.13 136.24 201.09 136.12 201.03 136.02C200.71 135.45 199.62 135.20 198.77 135.20C196.21 135.20 194.73 137.06 194.73 139.68C194.73 142.13 195.83 144.16 198.47 144.16C200.45 144.16 201.79 142.87 201.79 141.18ZM199.92 141.24C199.92 141.89 199.44 142.52 198.43 142.52C197.62 142.52 197.00 141.96 197.00 141.15C197.00 140.37 197.63 139.81 198.43 139.81C199.27 139.81 199.92 140.37 199.92 141.24ZM202.58 138.16C202.58 140.01 203.97 140.98 205.53 140.98C206.61 140.98 207.42 140.45 207.76 139.87C207.77 139.93 207.77 139.98 207.77 140.05C207.77 141.43 206.87 142.50 205.60 142.50C205.16 142.50 204.79 142.43 204.47 142.26C204.35 142.19 204.22 142.17 204.09 142.17C203.69 142.17 203.24 142.48 203.24 142.97C203.24 143.10 203.28 143.22 203.34 143.32C203.66 143.90 204.75 144.14 205.60 144.14C208.16 144.14 209.64 142.28 209.64 139.66C209.64 137.21 208.54 135.19 205.90 135.19C203.92 135.19 202.58 136.47 202.58 138.16ZM204.45 138.10C204.45 137.45 204.93 136.82 205.94 136.82C206.75 136.82 207.37 137.38 207.37 138.19C207.37 138.97 206.74 139.53 205.94 139.53C205.10 139.53 204.45 138.97 204.45 138.10ZM217.54 141.15C217.54 139.40 216.23 138.34 214.76 138.34C213.97 138.34 213.27 138.66 212.85 139.07L212.85 136.95L216.24 136.95C216.67 136.95 217.04 136.59 217.04 136.15C217.04 135.69 216.67 135.33 216.24 135.33L212.05 135.33C211.47 135.33 211.01 135.80 211.01 136.37L211.01 139.70C211.01 140.20 211.37 140.58 211.94 140.58C212.20 140.58 212.45 140.50 212.66 140.36C213.12 140.05 213.58 139.94 214.11 139.94C215.10 139.94 215.67 140.46 215.67 141.23C215.67 141.93 215.09 142.52 214.06 142.52C213.44 142.52 212.84 142.35 212.33 142.04C212.18 141.95 212.01 141.89 211.85 141.89C211.40 141.89 210.97 142.25 210.97 142.73C210.97 142.86 211.01 142.99 211.07 143.10C211.47 143.78 212.94 144.16 214.07 144.16C216.17 144.16 217.54 143.00 217.54 141.15Z" fill="#9aa7b4" /></g><rect x="18" y="166" width="384" height="8" rx="4" fill="#21262d" /><rect x="18.00" y="166" width="264.88" height="8" rx="4" fill="#00d559" /><rect x="282.88" y="166" width="119.12" height="8" rx="4" fill="#00a5fe" /></svg>