<svg xmlns="http://www.w3.org/2000/svg" width="420" height="184" viewBox="0 0 420 184" role="img"><rect x="0.5" y="0.5" width="419" height="183" rx="10" fill="#ffffff" stroke="#f2f4f6" /><path d="M30.72 33.60C30.72 32.83 30.10 32.21 29.37 32.21L28.69 32.21L28.69 24.95C28.69 23.59 27.37 22.97 26.03 23.19C25.08 23.19 24.14 23.70 23.63 24.49L18.73 32.24C18.53 32.54 18.44 32.90 18.44 33.25C18.44 34.24 19.17 34.96 20.05 34.96L25.57 34.96L25.57 36.59C25.57 37.43 26.27 38.13 27.11 38.13C27.99 38.13 28.69 37.43 28.69 36.59L28.69 34.96L29.37 34.96C30.10 34.96 30.72 34.35 30.72 33.60ZM21.61 32.21L25.57 26.10L25.57 32.21ZM42.82 24.91C42.82 23.99 42.07 23.33 41.30 23.33L32.89 23.33C32.15 23.33 31.53 23.94 31.53 24.67C31.53 25.46 32.15 26.08 32.89 26.08L39.05 26.08L34.68 36.00C34.59 36.20 34.54 36.39 34.54 36.59C34.54 37.38 35.18 38.13 36.11 38.13C36.74 38.13 37.34 37.76 37.58 37.19L42.68 25.53C42.77 25.35 42.82 25.13 42.82 24.91ZM45.79 36.92C45.79 35.49 44.84 34.68 43.81 34.68C42.88 34.68 42.09 35.47 42.09 36.44C42.09 37.38 42.75 38.02 43.59 38.02C43.74 38.02 43.94 37.98 44.00 37.96C43.87 38.53 43.39 39.21 42.82 39.67C42.66 39.80 42.60 39.98 42.60 40.16C42.60 40.60 43.06 40.86 43.43 40.86C43.65 40.86 43.85 40.79 44.00 40.64C45.10 39.65 45.79 38.33 45.79 36.92ZM56.76 24.91C56.76 23.99 56.02 23.33 55.25 23.33L46.84 23.33C46.09 23.33 45.48 23.94 45.48 24.67C45.48 25.46 46.09 26.08 46.84 26.08L53.00 26.08L48.62 36.00C48.54 36.20 48.49 36.39 48.49 36.59C48.49 37.38 49.13 38.13 50.05 38.13C50.69 38.13 51.29 37.76 51.53 37.19L56.63 25.53C56.72 25.35 56.76 25.13 56.76 24.91ZM69.68 33.18C69.68 30.21 67.46 28.43 64.97 28.43C63.63 28.43 62.44 28.96 61.74 29.66L61.74 26.08L67.48 26.08C68.20 26.08 68.82 25.46 68.82 24.71C68.82 23.94 68.20 23.33 67.48 23.33L60.37 23.33C59.40 23.33 58.61 24.12 58.61 25.09L58.61 30.72C58.61 31.58 59.23 32.21 60.20 32.21C60.64 32.21 61.05 32.08 61.41 31.84C62.20 31.31 62.97 31.14 63.87 31.14C65.54 31.14 66.51 32.02 66.51 33.31C66.51 34.50 65.52 35.49 63.78 35.49C62.73 35.49 61.71 35.21 60.86 34.68C60.59 34.52 60.31 34.44 60.04 34.44C59.27 34.44 58.55 35.03 58.55 35.84C58.55 36.06 58.61 36.28 58.72 36.48C59.40 37.63 61.89 38.26 63.80 38.26C67.35 38.26 69.68 36.31 69.68 33.18ZM83.14 33.23C83.14 30.10 80.79 28.45 78.15 28.45C76.32 28.45 74.96 29.35 74.39 30.34C74.36 30.23 74.36 30.15 74.36 30.04C74.36 27.70 75.88 25.88 78.04 25.88C78.79 25.88 79.40 26.01 79.95 26.30C80.15 26.41 80.37 26.45 80.59 26.45C81.27 26.45 82.02 25.92 82.02 25.09C82.02 24.87 81.95 24.67 81.87 24.49C81.32 23.52 79.47 23.11 78.04 23.11C73.70 23.11 71.20 26.25 71.20 30.70C71.20 34.83 73.07 38.26 77.53 38.26C80.88 38.26 83.14 36.09 83.14 33.23ZM79.97 33.34C79.97 34.44 79.16 35.49 77.47 35.49C76.08 35.49 75.05 34.55 75.05 33.18C75.05 31.86 76.10 30.92 77.47 30.92C78.87 30.92 79.97 31.86 79.97 33.34ZM98.01 23.08C93.61 23.08 90.20 26.16 90.20 30.67C90.20 35.18 93.61 38.26 98.01 38.26C100.54 38.26 102.24 37.16 103.34 35.82C103.56 35.58 103.65 35.27 103.65 34.96C103.65 34.22 103.01 33.60 102.22 33.60C101.78 33.60 101.34 33.78 101.03 34.11C100.21 35.01 99.11 35.49 98.01 35.49C95.35 35.49 93.42 33.45 93.42 30.67C93.42 27.90 95.35 25.86 98.01 25.86C99.11 25.86 100.19 26.38 101.03 27.26C101.34 27.59 101.75 27.77 102.17 27.77C102.99 27.77 103.67 27.15 103.67 26.36C103.67 26.08 103.56 25.75 103.36 25.50C102.24 24.16 100.54 23.08 98.01 23.08ZM116.52 32.68C116.52 29.66 114.40 27.11 110.88 27.11C107.39 27.11 105.27 29.66 105.27 32.68C105.27 35.71 107.39 38.26 110.88 38.26C114.40 38.26 116.52 35.71 116.52 32.68ZM113.61 32.68C113.61 34.35 112.62 35.78 110.88 35.78C109.15 35.78 108.18 34.35 108.18 32.68C108.18 31.03 109.15 29.60 110.88 29.60C112.62 29.60 113.61 31.03 113.61 32.68ZM134.58 31.20C134.58 29.02 133.06 27.11 130.66 27.11C128.81 27.11 127.76 28.19 127.36 28.94C126.97 28.17 125.98 27.11 124.19 27.11C122.57 27.11 121.82 27.70 121.38 28.28L121.38 28.25C121.38 27.95 120.98 27.24 120.01 27.24C119.20 27.24 118.58 27.86 118.58 28.61L118.58 36.75C118.58 37.52 119.20 38.13 119.97 38.13C120.76 38.13 121.38 37.52 121.38 36.75L121.38 31.73C121.38 30.70 122.17 29.60 123.36 29.60C124.50 29.60 125.16 30.74 125.16 31.73L125.16 36.75C125.16 37.52 125.78 38.13 126.55 38.13C127.36 38.13 127.98 37.52 127.98 36.75L127.98 31.93C127.98 30.70 128.75 29.60 129.96 29.60C131.10 29.60 131.76 30.74 131.76 31.73L131.76 36.75C131.76 37.52 132.38 38.13 133.15 38.13C133.96 38.13 134.58 37.52 134.58 36.75ZM153.32 31.20C153.32 29.02 151.80 27.11 149.41 27.11C147.56 27.11 146.50 28.19 146.11 28.94C145.71 28.17 144.72 27.11 142.94 27.11C141.31 27.11 140.56 27.70 140.12 28.28L140.12 28.25C140.12 27.95 139.73 27.24 138.76 27.24C137.94 27.24 137.33 27.86 137.33 28.61L137.33 36.75C137.33 37.52 137.94 38.13 138.71 38.13C139.51 38.13 140.12 37.52 140.12 36.75L140.12 31.73C140.12 30.70 140.91 29.60 142.10 29.60C143.25 29.60 143.91 30.74 143.91 31.73L143.91 36.75C143.91 37.52 144.52 38.13 145.29 38.13C146.11 38.13 146.72 37.52 146.72 36.75L146.72 31.93C146.72 30.70 147.49 29.60 148.70 29.60C149.85 29.60 150.51 30.74 150.51 31.73L150.51 36.75C150.51 37.52 151.12 38.13 151.89 38.13C152.71 38.13 153.32 37.52 153.32 36.75ZM157.46 22.91C156.56 22.91 155.79 23.63 155.79 24.56C155.79 25.48 156.56 26.23 157.46 26.23C158.38 26.23 159.13 25.48 159.13 24.56C159.13 23.63 158.38 22.91 157.46 22.91ZM158.87 28.61C158.87 27.86 158.25 27.24 157.50 27.24C156.69 27.24 156.07 27.86 156.07 28.61L156.07 36.75C156.07 37.52 156.69 38.13 157.46 38.13C158.25 38.13 158.87 37.52 158.87 36.75ZM167.45 36.99C167.45 36.31 167.01 35.78 166.21 35.78L165.97 35.78C165.53 35.78 165.00 35.45 165.00 34.61L165.00 29.82L166.10 29.82C166.74 29.82 167.29 29.27 167.29 28.61C167.29 27.92 166.74 27.37 166.10 27.37L165.00 27.37L165.00 25.72C165.00 24.95 164.39 24.34 163.62 24.34C162.80 24.34 162.19 24.95 162.19 25.72L162.19 27.37L161.51 27.37C160.85 27.37 160.30 27.92 160.30 28.56C160.30 29.27 160.85 29.82 161.51 29.82L162.19 29.82L162.19 35.36C162.19 37.25 163.24 38.26 165.20 38.26C167.03 38.26 167.45 37.69 167.45 36.99ZM177.50 34.85C177.50 30.56 171.21 31.88 171.21 30.30C171.21 29.71 171.87 29.24 172.88 29.24C173.74 29.24 174.60 29.49 175.28 29.88C175.43 29.97 175.63 30.01 175.81 30.01C176.38 30.01 176.91 29.55 176.91 28.96C176.91 28.76 176.84 28.56 176.73 28.41C176.14 27.55 174.24 27.11 172.86 27.11C170.06 27.11 168.50 28.67 168.50 30.45C168.50 34.63 174.82 33.20 174.82 34.96C174.82 35.62 174.24 36.11 173.03 36.11C172.11 36.11 171.01 35.73 170.17 35.25C170.00 35.14 169.80 35.10 169.60 35.10C169.01 35.10 168.44 35.60 168.44 36.26C168.44 36.48 168.50 36.68 168.63 36.86C169.29 37.80 171.52 38.26 172.90 38.26C175.85 38.26 177.50 36.79 177.50 34.85Z" fill="#22272e" /><path d="M20.26 49.88C20.26 49.54 19.98 49.25 19.64 49.25C19.26 49.25 18.98 49.54 18.98 49.88L18.98 57.44C18.98 57.79 19.26 58.08 19.61 58.08C19.98 58.08 20.26 57.79 20.26 57.44ZM27.55 53.97C27.55 52.64 26.59 51.56 25.27 51.56C24.18 51.56 23.62 52.10 23.32 52.60L23.32 52.20C23.32 51.90 23.06 51.64 22.76 51.64C22.42 51.64 22.16 51.90 22.16 52.20L22.16 57.51C22.16 57.82 22.42 58.08 22.73 58.08C23.06 58.08 23.32 57.82 23.32 57.51L23.32 54.49C23.32 53.42 23.89 52.59 24.89 52.59C25.83 52.59 26.40 53.32 26.40 54.36L26.40 57.51C26.40 57.82 26.66 58.08 26.97 58.08C27.30 58.08 27.55 57.82 27.55 57.51ZM38.97 49.91C38.97 49.58 38.72 49.33 38.41 49.33L32.70 49.33C32.39 49.33 32.14 49.58 32.14 49.89C32.14 50.21 32.39 50.47 32.70 50.47L34.91 50.47L34.91 57.44C34.91 57.79 35.20 58.08 35.55 58.08C35.91 58.08 36.20 57.79 36.20 57.44L36.20 50.47L38.41 50.47C38.72 50.47 38.97 50.21 38.97 49.91ZM44.74 54.85C44.74 53.05 43.53 51.56 41.57 51.56C39.62 51.56 38.41 53.05 38.41 54.85C38.41 56.66 39.62 58.16 41.57 58.16C43.53 58.16 44.74 56.66 44.74 54.85ZM43.53 54.85C43.53 56.06 42.83 57.13 41.57 57.13C40.32 57.13 39.61 56.06 39.61 54.85C39.61 53.66 40.32 52.59 41.57 52.59C42.83 52.59 43.53 53.66 43.53 54.85ZM49.16 57.55C49.16 57.27 48.95 57.06 48.67 57.06C48.54 57.06 48.38 57.13 48.24 57.13C47.86 57.13 47.63 56.83 47.63 56.35L47.63 52.73L48.48 52.73C48.76 52.73 48.98 52.51 48.98 52.24C48.98 51.94 48.76 51.72 48.48 51.72L47.63 51.72L47.63 50.49C47.63 50.19 47.37 49.93 47.05 49.93C46.72 49.93 46.46 50.19 46.46 50.49L46.46 51.72L45.85 51.72C45.56 51.72 45.34 51.94 45.34 52.22C45.34 52.51 45.56 52.73 45.85 52.73L46.46 52.73L46.46 56.62C46.46 57.61 46.98 58.16 47.96 58.16C48.65 58.16 49.16 57.96 49.16 57.55ZM55.26 53.75C55.26 52.15 54.09 51.56 52.74 51.56C51.89 51.56 50.94 51.84 50.34 52.44C50.27 52.53 50.23 52.63 50.23 52.73C50.23 53.01 50.47 53.19 50.71 53.19C50.80 53.19 50.90 53.15 50.99 53.09C51.46 52.72 51.98 52.54 52.57 52.54C53.45 52.54 54.10 53.01 54.10 53.80L54.10 54.15L52.29 54.15C50.99 54.15 49.85 54.66 49.85 56.08C49.85 57.45 50.99 58.16 52.03 58.16C53.01 58.16 53.59 57.86 54.10 57.30L54.10 57.51C54.10 57.88 54.40 58.08 54.63 58.08L54.67 58.08C55.00 58.08 55.26 57.82 55.26 57.51ZM54.10 54.96L54.10 55.84C54.10 56.58 53.26 57.34 52.35 57.34C51.50 57.34 51.02 56.83 51.02 56.10C51.02 55.35 51.62 54.96 52.61 54.96ZM58.27 49.81C58.27 49.51 58.01 49.25 57.71 49.25C57.38 49.25 57.12 49.51 57.12 49.81L57.12 57.51C57.12 57.82 57.38 58.08 57.69 58.08C58.01 58.08 58.27 57.82 58.27 57.51Z" fill="#627386" /><line x1="18" y1="76" x2="48" y2="76" stroke="#627386" stroke-opacity="0.4" /><g aria-label="Additions: 32,435,766"><circle cx="22" cy="96" r="4" fill="#00d559" /><path d="M42.28 99.39C42.28 99.31 42.27 99.23 42.23 99.14L39.36 91.94C39.19 91.51 38.76 91.24 38.30 91.25C37.85 91.25 37.43 91.52 37.28 91.94L34.40 99.14C34.38 99.23 34.36 99.31 34.36 99.39C34.36 99.74 34.65 100.08 35.05 100.08C35.33 100.08 35.57 99.92 35.68 99.66L36.25 98.19L40.40 98.19L40.97 99.66C41.07 99.92 41.32 100.08 41.59 100.08C42.01 100.08 42.28 99.71 42.28 99.39ZM38.32 92.64L40.03 97.06L36.61 97.06ZM49.22 91.81C49.22 91.51 48.96 91.25 48.66 91.25C48.33 91.25 48.07 91.51 48.07 91.81L48.07 94.63C47.56 93.95 46.95 93.56 46.00 93.56C44.36 93.56 43.20 94.85 43.20 96.87C43.20 98.92 44.37 100.16 46.00 100.16C46.97 100.16 47.59 99.73 48.07 99.10L48.07 99.51C48.07 99.82 48.33 100.08 48.64 100.08C48.96 100.08 49.22 99.82 49.22 99.51ZM48.07 96.91C48.07 98.21 47.42 99.13 46.30 99.13C45.13 99.13 44.40 98.18 44.40 96.87C44.40 95.55 45.13 94.59 46.30 94.59C47.42 94.59 48.07 95.54 48.07 96.83ZM56.74 91.81C56.74 91.51 56.48 91.25 56.18 91.25C55.84 91.25 55.58 91.51 55.58 91.81L55.58 94.63C55.07 93.95 54.46 93.56 53.51 93.56C51.88 93.56 50.72 94.85 50.72 96.87C50.72 98.92 51.89 100.16 53.51 100.16C54.49 100.16 55.10 99.73 55.58 99.10L55.58 99.51C55.58 99.82 55.84 100.08 56.15 100.08C56.48 100.08 56.74 99.82 56.74 99.51ZM55.58 96.91C55.58 98.21 54.93 99.13 53.81 99.13C52.64 99.13 51.91 98.18 51.91 96.87C51.91 95.55 52.64 94.59 53.81 94.59C54.93 94.59 55.58 95.54 55.58 96.83ZM59.18 91.39C58.78 91.39 58.44 91.73 58.44 92.15C58.44 92.55 58.78 92.89 59.18 92.89C59.60 92.89 59.92 92.55 59.92 92.15C59.92 91.73 59.60 91.39 59.18 91.39ZM59.77 94.20C59.77 93.90 59.51 93.64 59.21 93.64C58.87 93.64 58.61 93.90 58.61 94.20L58.61 99.51C58.61 99.82 58.87 100.08 59.18 100.08C59.51 100.08 59.77 99.82 59.77 99.51ZM64.56 99.55C64.56 99.27 64.36 99.06 64.07 99.06C63.94 99.06 63.78 99.13 63.64 99.13C63.26 99.13 63.03 98.83 63.03 98.35L63.03 94.73L63.89 94.73C64.16 94.73 64.38 94.51 64.38 94.24C64.38 93.94 64.16 93.72 63.89 93.72L63.03 93.72L63.03 92.49C63.03 92.19 62.77 91.93 62.46 91.93C62.12 91.93 61.86 92.19 61.86 92.49L61.86 93.72L61.25 93.72C60.96 93.72 60.74 93.94 60.74 94.22C60.74 94.51 60.96 94.73 61.25 94.73L61.86 94.73L61.86 98.62C61.86 99.61 62.38 100.16 63.37 100.16C64.06 100.16 64.56 99.96 64.56 99.55ZM66.19 91.39C65.79 91.39 65.45 91.73 65.45 92.15C65.45 92.55 65.79 92.89 66.19 92.89C66.60 92.89 66.93 92.55 66.93 92.15C66.93 91.73 66.60 91.39 66.19 91.39ZM66.77 94.20C66.77 93.90 66.51 93.64 66.21 93.64C65.88 93.64 65.62 93.90 65.62 94.20L65.62 99.51C65.62 99.82 65.88 100.08 66.19 100.08C66.51 100.08 66.77 99.82 66.77 99.51ZM74.60 96.85C74.60 95.05 73.39 93.56 71.43 93.56C69.48 93.56 68.27 95.05 68.27 96.85C68.27 98.66 69.48 100.16 71.43 100.16C73.39 100.16 74.60 98.66 74.60 96.85ZM73.39 96.85C73.39 98.06 72.69 99.13 71.43 99.13C70.18 99.13 69.46 98.06 69.46 96.85C69.46 95.66 70.18 94.59 71.43 94.59C72.69 94.59 73.39 95.66 73.39 96.85ZM81.49 95.97C81.49 94.64 80.53 93.56 79.20 93.56C78.11 93.56 77.55 94.10 77.25 94.61L77.25 94.20C77.25 93.90 76.99 93.64 76.69 93.64C76.35 93.64 76.09 93.90 76.09 94.20L76.09 99.51C76.09 99.82 76.35 100.08 76.67 100.08C76.99 100.08 77.25 99.82 77.25 99.51L77.25 96.49C77.25 95.42 77.82 94.59 78.82 94.59C79.76 94.59 80.33 95.32 80.33 96.36L80.33 99.51C80.33 99.82 80.59 100.08 80.90 100.08C81.23 100.08 81.49 99.82 81.49 99.51ZM87.96 98.10C87.85 95.89 84.24 96.50 84.11 95.37C84.06 94.86 84.61 94.49 85.40 94.49C86 94.49 86.56 94.68 86.96 94.97C87.04 95.03 87.13 95.06 87.23 95.06C87.47 95.06 87.69 94.86 87.69 94.61C87.69 94.50 87.65 94.40 87.57 94.32C87.08 93.84 86.29 93.56 85.39 93.56C83.86 93.56 82.93 94.29 83.00 95.41C83.11 97.52 86.70 96.87 86.83 98.26C86.88 98.83 86.36 99.23 85.47 99.23C84.82 99.23 84.17 98.97 83.70 98.64C83.61 98.57 83.52 98.54 83.40 98.54C83.13 98.54 82.89 98.75 82.89 99.03C82.89 99.16 82.94 99.26 83.04 99.34C83.61 99.91 84.56 100.16 85.41 100.16C87.08 100.16 88.03 99.30 87.96 98.10Z" fill="#22272e" /><path d="M157.73 97.63C157.84 96.07 156.78 95.53 156.78 95.53C156.78 95.53 157.75 95.03 157.64 93.55C157.54 92.11 156.39 91.20 154.37 91.20C153.17 91.20 152.23 91.55 151.52 92.12C151.34 92.27 151.25 92.47 151.25 92.68C151.25 93.14 151.65 93.46 152.05 93.46C152.21 93.46 152.36 93.42 152.49 93.33C153 93.01 153.57 92.84 154.17 92.84C155.08 92.84 155.78 93.05 155.78 93.73C155.78 94.45 155.35 94.79 154.48 94.79C153.86 94.79 153.59 95.14 153.59 95.59C153.59 96.05 153.86 96.41 154.53 96.41C155.42 96.41 155.93 96.72 155.93 97.41C155.93 98.06 155.34 98.52 154.29 98.52C153.69 98.52 153 98.31 152.43 97.97C152.28 97.88 152.13 97.84 151.97 97.84C151.54 97.84 151.13 98.19 151.13 98.66C151.13 98.79 151.17 98.91 151.23 99.01C151.63 99.69 153.10 100.16 154.35 100.16C156.43 100.16 157.63 99.26 157.73 97.63ZM165.52 99.17C165.52 98.74 165.16 98.38 164.73 98.38L161.91 98.38C164.15 96.74 165.38 95.45 165.38 93.97C165.38 92.24 163.91 91.20 162.06 91.20C160.97 91.20 159.51 91.67 159.10 92.33C159.02 92.45 158.98 92.58 158.98 92.71C158.98 93.17 159.36 93.54 159.79 93.54C159.98 93.54 160.15 93.49 160.32 93.37C160.81 93.03 161.41 92.84 162.10 92.84C162.81 92.84 163.50 93.21 163.50 93.97C163.50 94.98 162.46 95.93 159.23 98.32C158.98 98.50 158.84 98.80 158.84 99.10C158.84 99.62 159.25 100 159.71 100L164.73 100C165.16 100 165.52 99.64 165.52 99.17ZM168.90 99.36C168.90 98.52 168.34 98.04 167.73 98.04C167.18 98.04 166.72 98.50 166.72 99.08C166.72 99.64 167.11 100.01 167.60 100.01C167.69 100.01 167.81 99.99 167.85 99.97C167.77 100.31 167.48 100.72 167.14 100.99C167.05 101.07 167.01 101.17 167.01 101.27C167.01 101.53 167.29 101.69 167.51 101.69C167.64 101.69 167.76 101.65 167.85 101.56C168.50 100.97 168.90 100.19 168.90 99.36ZM176.95 97.40C176.95 96.94 176.58 96.58 176.15 96.58L175.75 96.58L175.75 92.29C175.75 91.48 174.97 91.12 174.18 91.25C173.62 91.25 173.06 91.55 172.76 92.02L169.86 96.59C169.74 96.78 169.69 96.98 169.69 97.19C169.69 97.78 170.12 98.21 170.64 98.21L173.90 98.21L173.90 99.17C173.90 99.66 174.32 100.08 174.81 100.08C175.33 100.08 175.75 99.66 175.75 99.17L175.75 98.21L176.15 98.21C176.58 98.21 176.95 97.84 176.95 97.40ZM171.56 96.58L173.90 92.97L173.90 96.58ZM184.25 97.63C184.36 96.07 183.30 95.53 183.30 95.53C183.30 95.53 184.27 95.03 184.16 93.55C184.06 92.11 182.91 91.20 180.89 91.20C179.69 91.20 178.75 91.55 178.04 92.12C177.86 92.27 177.77 92.47 177.77 92.68C177.77 93.14 178.17 93.46 178.57 93.46C178.73 93.46 178.88 93.42 179.01 93.33C179.52 93.01 180.09 92.84 180.69 92.84C181.60 92.84 182.30 93.05 182.30 93.73C182.30 94.45 181.87 94.79 181.00 94.79C180.38 94.79 180.11 95.14 180.11 95.59C180.11 96.05 180.38 96.41 181.05 96.41C181.94 96.41 182.45 96.72 182.45 97.41C182.45 98.06 181.86 98.52 180.81 98.52C180.21 98.52 179.52 98.31 178.95 97.97C178.81 97.88 178.65 97.84 178.49 97.84C178.06 97.84 177.65 98.19 177.65 98.66C177.65 98.79 177.69 98.91 177.75 99.01C178.16 99.69 179.62 100.16 180.87 100.16C182.95 100.16 184.15 99.26 184.25 97.63ZM192.27 97.15C192.27 95.40 190.96 94.34 189.49 94.34C188.70 94.34 188.00 94.66 187.58 95.07L187.58 92.95L190.97 92.95C191.40 92.95 191.77 92.59 191.77 92.15C191.77 91.69 191.40 91.33 190.97 91.33L186.77 91.33C186.20 91.33 185.73 91.80 185.73 92.37L185.73 95.70C185.73 96.20 186.10 96.58 186.67 96.58C186.93 96.58 187.18 96.50 187.39 96.36C187.85 96.05 188.31 95.94 188.84 95.94C189.83 95.94 190.40 96.46 190.40 97.23C190.40 97.93 189.82 98.52 188.79 98.52C188.17 98.52 187.57 98.35 187.06 98.04C186.90 97.95 186.74 97.89 186.58 97.89C186.12 97.89 185.70 98.25 185.70 98.73C185.70 98.86 185.73 98.99 185.80 99.10C186.20 99.78 187.67 100.16 188.80 100.16C190.90 100.16 192.27 99.00 192.27 97.15ZM195.52 99.36C195.52 98.52 194.96 98.04 194.35 98.04C193.81 98.04 193.34 98.50 193.34 99.08C193.34 99.64 193.73 100.01 194.22 100.01C194.31 100.01 194.43 99.99 194.47 99.97C194.39 100.31 194.11 100.72 193.77 100.99C193.68 101.07 193.64 101.17 193.64 101.27C193.64 101.53 193.91 101.69 194.13 101.69C194.26 101.69 194.38 101.65 194.47 101.56C195.12 100.97 195.52 100.19 195.52 99.36ZM202.01 92.27C202.01 91.72 201.57 91.33 201.11 91.33L196.15 91.33C195.71 91.33 195.34 91.69 195.34 92.12C195.34 92.59 195.71 92.95 196.15 92.95L199.79 92.95L197.20 98.82C197.15 98.93 197.12 99.05 197.12 99.17C197.12 99.64 197.50 100.08 198.04 100.08C198.42 100.08 198.77 99.86 198.92 99.52L201.93 92.63C201.98 92.53 202.01 92.39 202.01 92.27ZM209.69 97.18C209.69 95.33 208.30 94.36 206.74 94.36C205.66 94.36 204.86 94.89 204.52 95.48C204.51 95.41 204.51 95.36 204.51 95.29C204.51 93.92 205.40 92.84 206.68 92.84C207.12 92.84 207.48 92.91 207.81 93.08C207.93 93.15 208.06 93.17 208.19 93.17C208.59 93.17 209.03 92.86 209.03 92.37C209.03 92.24 208.99 92.12 208.94 92.02C208.61 91.45 207.52 91.20 206.68 91.20C204.12 91.20 202.63 93.06 202.63 95.68C202.63 98.13 203.74 100.16 206.38 100.16C208.35 100.16 209.69 98.87 209.69 97.18ZM207.82 97.24C207.82 97.89 207.34 98.52 206.34 98.52C205.52 98.52 204.91 97.96 204.91 97.15C204.91 96.37 205.53 95.81 206.34 95.81C207.17 95.81 207.82 96.37 207.82 97.24ZM217.60 97.18C217.60 95.33 216.21 94.36 214.65 94.36C213.57 94.36 212.76 94.89 212.42 95.48C212.41 95.41 212.41 95.36 212.41 95.29C212.41 93.92 213.31 92.84 214.58 92.84C215.02 92.84 215.39 92.91 215.71 93.08C215.83 93.15 215.96 93.17 216.09 93.17C216.49 93.17 216.93 92.86 216.93 92.37C216.93 92.24 216.90 92.12 216.84 92.02C216.52 91.45 215.43 91.20 214.58 91.20C212.02 91.20 210.54 93.06 210.54 95.68C210.54 98.13 211.64 100.16 214.28 100.16C216.26 100.16 217.60 98.87 217.60 97.18ZM215.72 97.24C215.72 97.89 215.24 98.52 214.24 98.52C213.42 98.52 212.81 97.96 212.81 97.15C212.81 96.37 213.44 95.81 214.24 95.81C215.08 95.81 215.72 96.37 215.72 97.24Z" fill="#627386" /></g><g aria-label="Deletions: 14,677,004"><circle cx="22" cy="118" r="4" fill="#00a5fe" /><path d="M42.54 117.67C42.54 115.17 40.76 113.33 38.06 113.33L35.82 113.33C35.35 113.33 34.98 113.71 34.98 114.17L34.98 121.16C34.98 121.62 35.35 122 35.82 122L38.06 122C40.76 122 42.54 120.18 42.54 117.67ZM41.23 117.67C41.23 119.43 40.06 120.86 38.06 120.86L36.26 120.86L36.26 114.47L38.06 114.47C40.11 114.47 41.23 115.89 41.23 117.67ZM49.90 118.65C49.90 118.40 49.83 118.13 49.78 117.92C49.42 116.51 48.38 115.56 46.86 115.56C45.04 115.56 43.72 117.03 43.72 118.85C43.72 120.83 45.09 122.16 46.96 122.16C47.88 122.16 49.50 121.67 49.50 120.97C49.50 120.53 49.05 120.43 48.77 120.57C48.31 120.91 47.61 121.22 47.08 121.22C45.80 121.22 45.02 120.35 44.93 119.27L49.30 119.27C49.63 119.27 49.90 118.96 49.90 118.65ZM44.93 118.41C44.98 117.54 45.60 116.50 46.84 116.50C48.18 116.50 48.76 117.57 48.78 118.41ZM52.54 113.81C52.54 113.51 52.28 113.25 51.98 113.25C51.64 113.25 51.38 113.51 51.38 113.81L51.38 121.51C51.38 121.82 51.64 122.08 51.95 122.08C52.28 122.08 52.54 121.82 52.54 121.51ZM60.21 118.65C60.21 118.40 60.14 118.13 60.09 117.92C59.73 116.51 58.69 115.56 57.17 115.56C55.35 115.56 54.03 117.03 54.03 118.85C54.03 120.83 55.40 122.16 57.27 122.16C58.19 122.16 59.81 121.67 59.81 120.97C59.81 120.53 59.36 120.43 59.08 120.57C58.62 120.91 57.92 121.22 57.39 121.22C56.11 121.22 55.33 120.35 55.24 119.27L59.61 119.27C59.94 119.27 60.21 118.96 60.21 118.65ZM55.24 118.41C55.29 117.54 55.91 116.50 57.15 116.50C58.49 116.50 59.06 117.57 59.09 118.41ZM64.62 121.55C64.62 121.27 64.41 121.06 64.12 121.06C63.99 121.06 63.84 121.13 63.69 121.13C63.32 121.13 63.08 120.83 63.08 120.35L63.08 116.73L63.94 116.73C64.21 116.73 64.43 116.51 64.43 116.24C64.43 115.94 64.21 115.72 63.94 115.72L63.08 115.72L63.08 114.49C63.08 114.19 62.82 113.93 62.51 113.93C62.17 113.93 61.91 114.19 61.91 114.49L61.91 115.72L61.30 115.72C61.01 115.72 60.79 115.94 60.79 116.22C60.79 116.51 61.01 116.73 61.30 116.73L61.91 116.73L61.91 120.62C61.91 121.61 62.43 122.16 63.42 122.16C64.11 122.16 64.62 121.96 64.62 121.55ZM66.24 113.39C65.84 113.39 65.50 113.73 65.50 114.15C65.50 114.55 65.84 114.89 66.24 114.89C66.66 114.89 66.98 114.55 66.98 114.15C66.98 113.73 66.66 113.39 66.24 113.39ZM66.83 116.20C66.83 115.90 66.56 115.64 66.27 115.64C65.93 115.64 65.67 115.90 65.67 116.20L65.67 121.51C65.67 121.82 65.93 122.08 66.24 122.08C66.56 122.08 66.83 121.82 66.83 121.51ZM74.65 118.85C74.65 117.05 73.44 115.56 71.48 115.56C69.53 115.56 68.32 117.05 68.32 118.85C68.32 120.66 69.53 122.16 71.48 122.16C73.44 122.16 74.65 120.66 74.65 118.85ZM73.44 118.85C73.44 120.06 72.74 121.13 71.48 121.13C70.23 121.13 69.52 120.06 69.52 118.85C69.52 117.66 70.23 116.59 71.48 116.59C72.74 116.59 73.44 117.66 73.44 118.85ZM81.54 117.97C81.54 116.64 80.58 115.56 79.25 115.56C78.16 115.56 77.60 116.10 77.30 116.61L77.30 116.20C77.30 115.90 77.04 115.64 76.74 115.64C76.41 115.64 76.15 115.90 76.15 116.20L76.15 121.51C76.15 121.82 76.41 122.08 76.72 122.08C77.04 122.08 77.30 121.82 77.30 121.51L77.30 118.49C77.30 117.42 77.88 116.59 78.88 116.59C79.81 116.59 80.38 117.32 80.38 118.36L80.38 121.51C80.38 121.82 80.64 122.08 80.96 122.08C81.28 122.08 81.54 121.82 81.54 121.51ZM88.01 120.10C87.90 117.89 84.30 118.50 84.17 117.37C84.11 116.86 84.66 116.49 85.45 116.49C86.05 116.49 86.61 116.68 87.01 116.97C87.09 117.03 87.18 117.06 87.29 117.06C87.52 117.06 87.74 116.86 87.74 116.61C87.74 116.50 87.70 116.40 87.62 116.32C87.13 115.84 86.34 115.56 85.44 115.56C83.91 115.56 82.98 116.29 83.05 117.41C83.17 119.52 86.75 118.87 86.88 120.26C86.94 120.83 86.42 121.23 85.52 121.23C84.87 121.23 84.22 120.97 83.75 120.64C83.66 120.57 83.57 120.54 83.45 120.54C83.18 120.54 82.94 120.75 82.94 121.03C82.94 121.16 83.00 121.26 83.09 121.34C83.66 121.91 84.61 122.16 85.47 122.16C87.13 122.16 88.08 121.30 88.01 120.10Z" fill="#22272e" /><path d="M158.54 114.32C158.54 113.73 158.04 113.26 157.46 113.26C157.16 113.26 156.87 113.38 156.68 113.58L154.68 115.60C154.52 115.76 154.44 115.95 154.44 116.15C154.44 116.58 154.81 116.92 155.21 116.92C155.39 116.92 155.57 116.85 155.72 116.71L156.69 115.71L156.69 121.17C156.69 121.66 157.11 122.08 157.60 122.08C158.12 122.08 158.54 121.66 158.54 121.17ZM166.91 119.40C166.91 118.94 166.55 118.58 166.12 118.58L165.71 118.58L165.71 114.29C165.71 113.48 164.93 113.12 164.14 113.25C163.58 113.25 163.02 113.55 162.72 114.02L159.82 118.59C159.71 118.78 159.66 118.98 159.66 119.19C159.66 119.78 160.08 120.21 160.60 120.21L163.87 120.21L163.87 121.17C163.87 121.66 164.28 122.08 164.78 122.08C165.30 122.08 165.71 121.66 165.71 121.17L165.71 120.21L166.12 120.21C166.55 120.21 166.91 119.84 166.91 119.40ZM161.53 118.58L163.87 114.97L163.87 118.58ZM169.95 121.36C169.95 120.52 169.39 120.04 168.78 120.04C168.24 120.04 167.77 120.50 167.77 121.08C167.77 121.64 168.16 122.01 168.65 122.01C168.74 122.01 168.86 121.99 168.90 121.97C168.82 122.31 168.53 122.72 168.20 122.99C168.11 123.07 168.07 123.17 168.07 123.27C168.07 123.53 168.34 123.69 168.56 123.69C168.69 123.69 168.81 123.65 168.90 123.56C169.55 122.97 169.95 122.19 169.95 121.36ZM177.71 119.18C177.71 117.33 176.32 116.36 174.76 116.36C173.68 116.36 172.88 116.89 172.54 117.48C172.53 117.41 172.53 117.36 172.53 117.29C172.53 115.92 173.42 114.84 174.70 114.84C175.14 114.84 175.50 114.91 175.83 115.08C175.94 115.15 176.07 115.17 176.20 115.17C176.61 115.17 177.05 114.86 177.05 114.37C177.05 114.24 177.01 114.12 176.96 114.02C176.63 113.45 175.54 113.20 174.70 113.20C172.14 113.20 170.65 115.06 170.65 117.68C170.65 120.13 171.76 122.16 174.40 122.16C176.37 122.16 177.71 120.87 177.71 119.18ZM175.84 119.24C175.84 119.89 175.36 120.52 174.36 120.52C173.54 120.52 172.93 119.96 172.93 119.15C172.93 118.37 173.55 117.81 174.36 117.81C175.19 117.81 175.84 118.37 175.84 119.24ZM185.02 114.27C185.02 113.72 184.58 113.33 184.12 113.33L179.16 113.33C178.71 113.33 178.35 113.69 178.35 114.12C178.35 114.59 178.71 114.95 179.16 114.95L182.80 114.95L180.21 120.82C180.16 120.93 180.13 121.05 180.13 121.17C180.13 121.64 180.51 122.08 181.05 122.08C181.43 122.08 181.78 121.86 181.92 121.52L184.94 114.63C184.99 114.53 185.02 114.39 185.02 114.27ZM192.10 114.27C192.10 113.72 191.66 113.33 191.21 113.33L186.24 113.33C185.80 113.33 185.44 113.69 185.44 114.12C185.44 114.59 185.80 114.95 186.24 114.95L189.88 114.95L187.29 120.82C187.24 120.93 187.22 121.05 187.22 121.17C187.22 121.64 187.59 122.08 188.14 122.08C188.52 122.08 188.87 121.86 189.01 121.52L192.03 114.63C192.08 114.53 192.10 114.39 192.10 114.27ZM193.86 121.36C193.86 120.52 193.30 120.04 192.69 120.04C192.14 120.04 191.67 120.50 191.67 121.08C191.67 121.64 192.06 122.01 192.56 122.01C192.65 122.01 192.77 121.99 192.81 121.97C192.73 122.31 192.44 122.72 192.10 122.99C192.01 123.07 191.97 123.17 191.97 123.27C191.97 123.53 192.25 123.69 192.47 123.69C192.60 123.69 192.72 123.65 192.81 123.56C193.46 122.97 193.86 122.19 193.86 121.36ZM201.74 117.67C201.74 115.44 200.62 113.20 198.15 113.20C195.67 113.20 194.56 115.44 194.56 117.67C194.56 119.91 195.67 122.16 198.15 122.16C200.62 122.16 201.74 119.91 201.74 117.67ZM199.85 117.67C199.85 119.27 199.38 120.52 198.15 120.52C196.90 120.52 196.43 119.27 196.43 117.67C196.43 116.07 196.90 114.84 198.15 114.84C199.38 114.84 199.85 116.07 199.85 117.67ZM209.80 117.67C209.80 115.44 208.68 113.20 206.21 113.20C203.73 113.20 202.62 115.44 202.62 117.67C202.62 119.91 203.73 122.16 206.21 122.16C208.68 122.16 209.80 119.91 209.80 117.67ZM207.91 117.67C207.91 119.27 207.44 120.52 206.21 120.52C204.96 120.52 204.49 119.27 204.49 117.67C204.49 116.07 204.96 114.84 206.21 114.84C207.44 114.84 207.91 116.07 207.91 117.67ZM217.75 119.40C217.75 118.94 217.39 118.58 216.96 118.58L216.56 118.58L216.56 114.29C216.56 113.48 215.78 113.12 214.98 113.25C214.43 113.25 213.87 113.55 213.57 114.02L210.67 118.59C210.55 118.78 210.50 118.98 210.50 119.19C210.50 119.78 210.93 120.21 211.45 120.21L214.71 120.21L214.71 121.17C214.71 121.66 215.13 122.08 215.62 122.08C216.14 122.08 216.56 121.66 216.56 121.17L216.56 120.21L216.96 120.21C217.39 120.21 217.75 119.84 217.75 119.40ZM212.37 118.58L214.71 114.97L214.71 118.58Z" fill="#627386" /></g><g aria-label="Changed Files: 510,208"><circle cx="22" cy="140" r="4" fill="#673bd6" /><path d="M39.11 135.19C36.59 135.19 34.60 137.01 34.60 139.67C34.60 142.34 36.59 144.16 39.11 144.16C40.46 144.16 41.40 143.60 42.07 142.87C42.18 142.76 42.23 142.62 42.23 142.47C42.23 142.15 41.97 141.87 41.63 141.87C41.46 141.87 41.28 141.95 41.18 142.08C40.64 142.67 39.88 143.01 39.11 143.01C37.29 143.01 35.94 141.61 35.94 139.67C35.94 137.72 37.29 136.33 39.11 136.33C39.86 136.33 40.67 136.69 41.18 137.28C41.28 137.42 41.46 137.49 41.62 137.49C41.96 137.49 42.23 137.21 42.23 136.89C42.23 136.73 42.18 136.59 42.07 136.47C41.41 135.73 40.46 135.19 39.11 135.19ZM49.17 139.94C49.17 138.62 48.22 137.56 46.90 137.56C45.79 137.56 45.22 138.10 44.92 138.60L44.92 135.81C44.92 135.51 44.66 135.25 44.36 135.25C44.02 135.25 43.76 135.51 43.76 135.81L43.76 143.51C43.76 143.82 44.02 144.08 44.34 144.08C44.66 144.08 44.92 143.82 44.92 143.51L44.92 140.56C44.92 139.38 45.54 138.59 46.53 138.59C47.47 138.59 48.01 139.29 48.01 140.33L48.01 143.51C48.01 143.82 48.27 144.08 48.59 144.08C48.91 144.08 49.17 143.82 49.17 143.51ZM56.09 139.75C56.09 138.15 54.92 137.56 53.56 137.56C52.72 137.56 51.77 137.84 51.17 138.44C51.09 138.53 51.06 138.63 51.06 138.74C51.06 139.01 51.30 139.19 51.54 139.19C51.63 139.19 51.73 139.15 51.82 139.09C52.29 138.72 52.81 138.54 53.40 138.54C54.28 138.54 54.93 139.01 54.93 139.80L54.93 140.15L53.12 140.15C51.82 140.15 50.68 140.66 50.68 142.08C50.68 143.45 51.82 144.16 52.86 144.16C53.84 144.16 54.42 143.86 54.93 143.30L54.93 143.51C54.93 143.88 55.23 144.08 55.46 144.08L55.50 144.08C55.83 144.08 56.09 143.82 56.09 143.51ZM54.93 140.96L54.93 141.84C54.93 142.58 54.09 143.34 53.17 143.34C52.33 143.34 51.85 142.83 51.85 142.10C51.85 141.35 52.45 140.96 53.44 140.96ZM63.34 139.97C63.34 138.64 62.38 137.56 61.05 137.56C59.96 137.56 59.40 138.10 59.10 138.60L59.10 138.20C59.10 137.90 58.84 137.64 58.54 137.64C58.21 137.64 57.95 137.90 57.95 138.20L57.95 143.51C57.95 143.82 58.21 144.08 58.52 144.08C58.84 144.08 59.10 143.82 59.10 143.51L59.10 140.49C59.10 139.42 59.67 138.59 60.68 138.59C61.61 138.59 62.18 139.32 62.18 140.36L62.18 143.51C62.18 143.82 62.44 144.08 62.76 144.08C63.08 144.08 63.34 143.82 63.34 143.51ZM70.84 138.20C70.84 137.90 70.58 137.64 70.28 137.64C69.95 137.64 69.69 137.90 69.69 138.20L69.69 138.63C69.18 137.96 68.45 137.56 67.62 137.56C65.99 137.56 64.84 138.79 64.84 140.81C64.84 142.86 66.01 144.05 67.62 144.05C68.48 144.05 69.22 143.60 69.69 142.96L69.69 143.79C69.69 145.13 68.72 145.60 67.75 145.60C67.06 145.60 66.51 145.46 66.03 145.05C65.94 144.99 65.85 144.96 65.73 144.96C65.47 144.96 65.24 145.18 65.24 145.46C65.24 145.59 65.29 145.70 65.37 145.78C65.98 146.37 66.86 146.55 67.75 146.55C69.28 146.55 70.84 145.91 70.84 143.75ZM69.69 140.83C69.69 142.12 68.84 143.03 67.80 143.03C66.63 143.03 66.03 142.10 66.03 140.81C66.03 139.50 66.63 138.59 67.80 138.59C68.84 138.59 69.69 139.49 69.69 140.78ZM78.51 140.65C78.51 140.40 78.45 140.13 78.40 139.92C78.03 138.51 76.99 137.56 75.47 137.56C73.65 137.56 72.34 139.03 72.34 140.85C72.34 142.83 73.70 144.16 75.57 144.16C76.50 144.16 78.11 143.68 78.11 142.97C78.11 142.53 77.67 142.43 77.38 142.57C76.93 142.91 76.22 143.22 75.69 143.22C74.42 143.22 73.64 142.35 73.55 141.27L77.91 141.27C78.24 141.27 78.51 140.96 78.51 140.65ZM73.55 140.41C73.60 139.54 74.21 138.50 75.46 138.50C76.80 138.50 77.37 139.57 77.39 140.41ZM85.64 135.81C85.64 135.51 85.38 135.25 85.08 135.25C84.74 135.25 84.48 135.51 84.48 135.81L84.48 138.63C83.97 137.96 83.36 137.56 82.41 137.56C80.77 137.56 79.62 138.85 79.62 140.87C79.62 142.92 80.79 144.16 82.41 144.16C83.39 144.16 84.00 143.73 84.48 143.10L84.48 143.51C84.48 143.82 84.74 144.08 85.05 144.08C85.38 144.08 85.64 143.82 85.64 143.51ZM84.48 140.91C84.48 142.21 83.83 143.13 82.71 143.13C81.54 143.13 80.81 142.18 80.81 140.87C80.81 139.55 81.54 138.59 82.71 138.59C83.83 138.59 84.48 139.54 84.48 140.83ZM96.76 135.91C96.76 135.58 96.52 135.33 96.20 135.33L91.73 135.33C91.27 135.33 90.89 135.71 90.89 136.17L90.89 143.44C90.89 143.79 91.17 144.08 91.52 144.08C91.89 144.08 92.17 143.79 92.17 143.44L92.17 140.15L96.11 140.15C96.43 140.15 96.67 139.89 96.67 139.59C96.67 139.25 96.43 139.01 96.11 139.01L92.17 139.01L92.17 136.47L96.20 136.47C96.52 136.47 96.76 136.21 96.76 135.91ZM98.65 135.39C98.25 135.39 97.91 135.73 97.91 136.15C97.91 136.55 98.25 136.89 98.65 136.89C99.06 136.89 99.39 136.55 99.39 136.15C99.39 135.73 99.06 135.39 98.65 135.39ZM99.23 138.20C99.23 137.90 98.97 137.64 98.67 137.64C98.34 137.64 98.08 137.90 98.08 138.20L98.08 143.51C98.08 143.82 98.34 144.08 98.65 144.08C98.97 144.08 99.23 143.82 99.23 143.51ZM102.26 135.81C102.26 135.51 102.00 135.25 101.70 135.25C101.37 135.25 101.11 135.51 101.11 135.81L101.11 143.51C101.11 143.82 101.37 144.08 101.68 144.08C102.00 144.08 102.26 143.82 102.26 143.51ZM109.93 140.65C109.93 140.40 109.87 140.13 109.82 139.92C109.45 138.51 108.41 137.56 106.89 137.56C105.07 137.56 103.76 139.03 103.76 140.85C103.76 142.83 105.12 144.16 106.99 144.16C107.92 144.16 109.53 143.68 109.53 142.97C109.53 142.53 109.09 142.43 108.80 142.57C108.35 142.91 107.64 143.22 107.11 143.22C105.84 143.22 105.06 142.35 104.97 141.27L109.33 141.27C109.66 141.27 109.93 140.96 109.93 140.65ZM104.97 140.41C105.02 139.54 105.63 138.50 106.88 138.50C108.22 138.50 108.79 139.57 108.81 140.41ZM116.02 142.10C115.90 139.89 112.30 140.50 112.17 139.37C112.12 138.87 112.66 138.49 113.46 138.49C114.05 138.49 114.61 138.68 115.02 138.97C115.09 139.03 115.18 139.06 115.29 139.06C115.52 139.06 115.74 138.87 115.74 138.60C115.74 138.50 115.70 138.40 115.63 138.32C115.13 137.84 114.34 137.56 113.44 137.56C111.91 137.56 110.99 138.29 111.05 139.41C111.17 141.52 114.76 140.87 114.89 142.26C114.94 142.83 114.42 143.23 113.52 143.23C112.87 143.23 112.22 142.97 111.75 142.63C111.66 142.57 111.57 142.54 111.45 142.54C111.18 142.54 110.95 142.75 110.95 143.03C110.95 143.16 111.00 143.26 111.09 143.34C111.66 143.91 112.61 144.16 113.47 144.16C115.13 144.16 116.08 143.30 116.02 142.10Z" fill="#22272e" /><path d="M177.35 141.15C177.35 139.40 176.04 138.34 174.57 138.34C173.77 138.34 173.07 138.66 172.66 139.07L172.66 136.95L176.05 136.95C176.48 136.95 176.84 136.59 176.84 136.15C176.84 135.69 176.48 135.33 176.05 135.33L171.85 135.33C171.28 135.33 170.81 135.80 170.81 136.37L170.81 139.70C170.81 140.20 171.17 140.58 171.75 140.58C172.01 140.58 172.25 140.50 172.46 140.36C172.93 140.05 173.38 139.94 173.92 139.94C174.90 139.94 175.48 140.46 175.48 141.23C175.48 141.93 174.89 142.52 173.86 142.52C173.24 142.52 172.64 142.35 172.14 142.04C171.98 141.95 171.81 141.89 171.65 141.89C171.20 141.89 170.77 142.25 170.77 142.73C170.77 142.86 170.81 142.99 170.87 143.10C171.28 143.78 172.75 144.16 173.88 144.16C175.97 144.16 177.35 143.00 177.35 141.15ZM182.29 136.32C182.29 135.73 181.79 135.26 181.21 135.26C180.91 135.26 180.62 135.38 180.43 135.58L178.43 137.60C178.27 137.76 178.19 137.96 178.19 138.15C178.19 138.58 178.56 138.92 178.96 138.92C179.14 138.92 179.32 138.85 179.47 138.71L180.44 137.71L180.44 143.17C180.44 143.66 180.86 144.08 181.35 144.08C181.87 144.08 182.29 143.66 182.29 143.17ZM190.76 139.67C190.76 137.44 189.65 135.20 187.18 135.20C184.69 135.20 183.59 137.44 183.59 139.67C183.59 141.91 184.69 144.16 187.18 144.16C189.65 144.16 190.76 141.91 190.76 139.67ZM188.88 139.67C188.88 141.27 188.41 142.52 187.18 142.52C185.93 142.52 185.46 141.27 185.46 139.67C185.46 138.07 185.93 136.84 187.18 136.84C188.41 136.84 188.88 138.07 188.88 139.67ZM193.73 143.36C193.73 142.52 193.17 142.04 192.56 142.04C192.01 142.04 191.54 142.50 191.54 143.08C191.54 143.64 191.93 144.01 192.43 144.01C192.52 144.01 192.64 143.99 192.68 143.97C192.60 144.31 192.31 144.72 191.97 144.99C191.88 145.07 191.84 145.17 191.84 145.27C191.84 145.53 192.12 145.69 192.34 145.69C192.47 145.69 192.58 145.65 192.68 145.56C193.33 144.97 193.73 144.19 193.73 143.36ZM201.48 143.17C201.48 142.74 201.11 142.38 200.68 142.38L197.86 142.38C200.11 140.74 201.33 139.45 201.33 137.97C201.33 136.24 199.86 135.20 198.02 135.20C196.93 135.20 195.47 135.67 195.05 136.33C194.98 136.45 194.94 136.58 194.94 136.71C194.94 137.18 195.31 137.54 195.74 137.54C195.94 137.54 196.11 137.49 196.28 137.37C196.77 137.03 197.37 136.84 198.06 136.84C198.77 136.84 199.46 137.21 199.46 137.97C199.46 138.98 198.42 139.93 195.18 142.32C194.94 142.50 194.79 142.80 194.79 143.10C194.79 143.62 195.21 144 195.67 144L200.68 144C201.11 144 201.48 143.64 201.48 143.17ZM209.68 139.67C209.68 137.44 208.56 135.20 206.09 135.20C203.61 135.20 202.50 137.44 202.50 139.67C202.50 141.91 203.61 144.16 206.09 144.16C208.56 144.16 209.68 141.91 209.68 139.67ZM207.79 139.67C207.79 141.27 207.33 142.52 206.09 142.52C204.84 142.52 204.38 141.27 204.38 139.67C204.38 138.07 204.84 136.84 206.09 136.84C207.33 136.84 207.79 138.07 207.79 139.67ZM217.54 141.62C217.54 140.44 216.84 139.76 216.32 139.53C216.76 139.32 217.40 138.83 217.40 137.49C217.40 135.99 215.79 135.20 214.06 135.20C212.32 135.20 210.72 135.99 210.72 137.49C210.72 138.83 211.34 139.32 211.79 139.53C211.27 139.76 210.58 140.44 210.58 141.62C210.58 143.25 212.24 144.16 214.06 144.16C215.88 144.16 217.54 143.23 217.54 141.62ZM215.52 137.77C215.52 138.42 214.85 138.80 214.06 138.80C213.27 138.80 212.59 138.42 212.59 137.77C212.59 137.15 213.20 136.78 214.06 136.78C214.91 136.78 215.52 137.15 215.52 137.77ZM215.67 141.52C215.67 142.15 214.94 142.57 214.06 142.57C213.15 142.57 212.45 142.15 212.45 141.52C212.45 140.79 213.25 140.36 214.06 140.36C214.85 140.36 215.67 140.79 215.67 141.52Z" fill="#627386" /></g><rect x="18" y="166" width="384" height="8" rx="4" fill="#f4faff" /><rect x="18.00" y="166" width="264.37" height="8" rx="4" fill="#00d559" /><rect x="282.37" y="166" width="119.63" height="8" rx="4" fill="#00a5fe" /></svg>