<svg xmlns="http://www.w3.org/2000/svg" width="420" height="184" viewBox="0 0 420 184" role="img"><rect x="0.5" y="0.5" width="419" height="183" rx="10" fill="#161b22" stroke="#30363d" /><path d="M30.72 33.60C30.72 32.83 30.10 32.21 29.37 32.21L28.69 32.21L28.69 24.95C28.69 23.59 27.37 22.97 26.03 23.19C25.08 23.19 24.14 23.70 23.63 24.49L18.73 32.24C18.53 32.54 18.44 32.90 18.44 33.25C18.44 34.24 19.17 34.96 20.05 34.96L25.57 34.96L25.57 36.59C25.57 37.43 26.27 38.13 27.11 38.13C27.99 38.13 28.69 37.43 28.69 36.59L28.69 34.96L29.37 34.96C30.10 34.96 30.72 34.35 30.72 33.60ZM21.61 32.21L25.57 26.10L25.57 32.21ZM43.70 33.97C43.70 31.97 42.51 30.83 41.63 30.43C42.38 30.08 43.45 29.24 43.45 26.98C43.45 24.45 40.73 23.11 37.80 23.11C34.85 23.11 32.15 24.45 32.15 26.98C32.15 29.24 33.20 30.08 33.95 30.43C33.07 30.83 31.90 31.97 31.90 33.97C31.90 36.72 34.72 38.26 37.80 38.26C40.88 38.26 43.70 36.70 43.70 33.97ZM40.26 27.46C40.26 28.56 39.14 29.20 37.80 29.20C36.46 29.20 35.31 28.56 35.31 27.46C35.31 26.41 36.35 25.79 37.80 25.79C39.23 25.79 40.26 26.41 40.26 27.46ZM40.53 33.80C40.53 34.88 39.30 35.58 37.80 35.58C36.26 35.58 35.07 34.88 35.07 33.80C35.07 32.57 36.44 31.84 37.80 31.84C39.14 31.84 40.53 32.57 40.53 33.80ZM49.20 36.92C49.20 35.49 48.25 34.68 47.22 34.68C46.29 34.68 45.50 35.47 45.50 36.44C45.50 37.38 46.16 38.02 47.00 38.02C47.15 38.02 47.35 37.98 47.41 37.96C47.28 38.53 46.80 39.21 46.23 39.67C46.07 39.80 46.01 39.98 46.01 40.16C46.01 40.60 46.47 40.86 46.84 40.86C47.06 40.86 47.26 40.79 47.41 40.64C48.51 39.65 49.20 38.33 49.20 36.92ZM62.04 34.00C62.22 31.36 60.44 30.43 60.44 30.43C60.44 30.43 62.07 29.60 61.89 27.09C61.71 24.65 59.78 23.11 56.35 23.11C54.32 23.11 52.74 23.70 51.53 24.67C51.22 24.91 51.07 25.26 51.07 25.61C51.07 26.38 51.75 26.93 52.43 26.93C52.69 26.93 52.96 26.87 53.18 26.71C54.04 26.16 55.00 25.88 56.02 25.88C57.56 25.88 58.74 26.23 58.74 27.40C58.74 28.61 58.02 29.18 56.54 29.18C55.49 29.18 55.03 29.77 55.03 30.54C55.03 31.31 55.49 31.93 56.63 31.93C58.13 31.93 58.99 32.46 58.99 33.62C58.99 34.72 58.00 35.49 56.21 35.49C55.20 35.49 54.04 35.14 53.07 34.57C52.83 34.41 52.56 34.35 52.30 34.35C51.57 34.35 50.87 34.94 50.87 35.73C50.87 35.95 50.93 36.15 51.04 36.33C51.73 37.47 54.21 38.26 56.32 38.26C59.84 38.26 61.87 36.75 62.04 34.00ZM74.69 24.91C74.69 23.99 73.95 23.33 73.18 23.33L64.77 23.33C64.02 23.33 63.41 23.94 63.41 24.67C63.41 25.46 64.02 26.08 64.77 26.08L70.93 26.08L66.55 36.00C66.47 36.20 66.42 36.39 66.42 36.59C66.42 37.38 67.06 38.13 67.98 38.13C68.62 38.13 69.22 37.76 69.46 37.19L74.56 25.53C74.65 25.35 74.69 25.13 74.69 24.91ZM87.61 33.18C87.61 30.21 85.39 28.43 82.90 28.43C81.56 28.43 80.37 28.96 79.67 29.66L79.67 26.08L85.41 26.08C86.13 26.08 86.75 25.46 86.75 24.71C86.75 23.94 86.13 23.33 85.41 23.33L78.30 23.33C77.33 23.33 76.54 24.12 76.54 25.09L76.54 30.72C76.54 31.58 77.16 32.21 78.13 32.21C78.57 32.21 78.98 32.08 79.34 31.84C80.13 31.31 80.90 31.14 81.80 31.14C83.47 31.14 84.44 32.02 84.44 33.31C84.44 34.50 83.45 35.49 81.71 35.49C80.66 35.49 79.64 35.21 78.79 34.68C78.52 34.52 78.24 34.44 77.97 34.44C77.20 34.44 76.48 35.03 76.48 35.84C76.48 36.06 76.54 36.28 76.65 36.48C77.33 37.63 79.82 38.26 81.73 38.26C85.28 38.26 87.61 36.31 87.61 33.18ZM102.57 23.08C98.17 23.08 94.76 26.16 94.76 30.67C94.76 35.18 98.17 38.26 102.57 38.26C105.10 38.26 106.79 37.16 107.89 35.82C108.11 35.58 108.20 35.27 108.20 34.96C108.20 34.22 107.56 33.60 106.77 33.60C106.33 33.60 105.89 33.78 105.58 34.11C104.77 35.01 103.67 35.49 102.57 35.49C99.91 35.49 97.97 33.45 97.97 30.67C97.97 27.90 99.91 25.86 102.57 25.86C103.67 25.86 104.75 26.38 105.58 27.26C105.89 27.59 106.31 27.77 106.73 27.77C107.54 27.77 108.22 27.15 108.22 26.36C108.22 26.08 108.11 25.75 107.91 25.50C106.79 24.16 105.10 23.08 102.57 23.08ZM121.07 32.68C121.07 29.66 118.96 27.11 115.44 27.11C111.94 27.11 109.83 29.66 109.83 32.68C109.83 35.71 111.94 38.26 115.44 38.26C118.96 38.26 121.07 35.71 121.07 32.68ZM118.17 32.68C118.17 34.35 117.18 35.78 115.44 35.78C113.70 35.78 112.73 34.35 112.73 32.68C112.73 31.03 113.70 29.60 115.44 29.60C117.18 29.60 118.17 31.03 118.17 32.68ZM139.13 31.20C139.13 29.02 137.61 27.11 135.22 27.11C133.37 27.11 132.31 28.19 131.92 28.94C131.52 28.17 130.53 27.11 128.75 27.11C127.12 27.11 126.37 27.70 125.93 28.28L125.93 28.25C125.93 27.95 125.54 27.24 124.57 27.24C123.75 27.24 123.14 27.86 123.14 28.61L123.14 36.75C123.14 37.52 123.75 38.13 124.52 38.13C125.32 38.13 125.93 37.52 125.93 36.75L125.93 31.73C125.93 30.70 126.72 29.60 127.91 29.60C129.06 29.60 129.72 30.74 129.72 31.73L129.72 36.75C129.72 37.52 130.33 38.13 131.10 38.13C131.92 38.13 132.53 37.52 132.53 36.75L132.53 31.93C132.53 30.70 133.30 29.60 134.51 29.60C135.66 29.60 136.32 30.74 136.32 31.73L136.32 36.75C136.32 37.52 136.93 38.13 137.70 38.13C138.52 38.13 139.13 37.52 139.13 36.75ZM157.88 31.20C157.88 29.02 156.36 27.11 153.96 27.11C152.11 27.11 151.06 28.19 150.66 28.94C150.26 28.17 149.27 27.11 147.49 27.11C145.86 27.11 145.12 27.70 144.68 28.28L144.68 28.25C144.68 27.95 144.28 27.24 143.31 27.24C142.50 27.24 141.88 27.86 141.88 28.61L141.88 36.75C141.88 37.52 142.50 38.13 143.27 38.13C144.06 38.13 144.68 37.52 144.68 36.75L144.68 31.73C144.68 30.70 145.47 29.60 146.66 29.60C147.80 29.60 148.46 30.74 148.46 31.73L148.46 36.75C148.46 37.52 149.08 38.13 149.85 38.13C150.66 38.13 151.28 37.52 151.28 36.75L151.28 31.93C151.28 30.70 152.05 29.60 153.26 29.60C154.40 29.60 155.06 30.74 155.06 31.73L155.06 36.75C155.06 37.52 155.68 38.13 156.45 38.13C157.26 38.13 157.88 37.52 157.88 36.75ZM162.01 22.91C161.11 22.91 160.34 23.63 160.34 24.56C160.34 25.48 161.11 26.23 162.01 26.23C162.94 26.23 163.68 25.48 163.68 24.56C163.68 23.63 162.94 22.91 162.01 22.91ZM163.42 28.61C163.42 27.86 162.80 27.24 162.06 27.24C161.24 27.24 160.63 27.86 160.63 28.61L160.63 36.75C160.63 37.52 161.24 38.13 162.01 38.13C162.80 38.13 163.42 37.52 163.42 36.75ZM172 36.99C172 36.31 171.56 35.78 170.77 35.78L170.53 35.78C170.09 35.78 169.56 35.45 169.56 34.61L169.56 29.82L170.66 29.82C171.30 29.82 171.85 29.27 171.85 28.61C171.85 27.92 171.30 27.37 170.66 27.37L169.56 27.37L169.56 25.72C169.56 24.95 168.94 24.34 168.17 24.34C167.36 24.34 166.74 24.95 166.74 25.72L166.74 27.37L166.06 27.37C165.40 27.37 164.85 27.92 164.85 28.56C164.85 29.27 165.40 29.82 166.06 29.82L166.74 29.82L166.74 35.36C166.74 37.25 167.80 38.26 169.76 38.26C171.58 38.26 172 37.69 172 36.99ZM182.05 34.85C182.05 30.56 175.76 31.88 175.76 30.30C175.76 29.71 176.42 29.24 177.43 29.24C178.29 29.24 179.15 29.49 179.83 29.88C179.99 29.97 180.18 30.01 180.36 30.01C180.93 30.01 181.46 29.55 181.46 28.96C181.46 28.76 181.39 28.56 181.28 28.41C180.69 27.55 178.80 27.11 177.41 27.11C174.62 27.11 173.06 28.67 173.06 30.45C173.06 34.63 179.37 33.20 179.37 34.96C179.37 35.62 178.80 36.11 177.59 36.11C176.66 36.11 175.56 35.73 174.73 35.25C174.55 35.14 174.35 35.10 174.16 35.10C173.56 35.10 172.99 35.60 172.99 36.26C172.99 36.48 173.06 36.68 173.19 36.86C173.85 37.80 176.07 38.26 177.46 38.26C180.40 38.26 182.05 36.79 182.05 34.85Z" fill="#e6edf3" /><path d="M20.26 49.88C20.26 49.54 19.98 49.25 19.64 49.25C19.26 49.25 18.98 49.54 18.98 49.88L18.98 57.44C18.98 57.79 19.26 58.08 19.61 58.08C19.98 58.08 20.26 57.79 20.26 57.44ZM27.55 53.97C27.55 52.64 26.59 51.56 25.27 51.56C24.18 51.56 23.62 52.10 23.32 52.60L23.32 52.20C23.32 51.90 23.06 51.64 22.76 51.64C22.42 51.64 22.16 51.90 22.16 52.20L22.16 57.51C22.16 57.82 22.42 58.08 22.73 58.08C23.06 58.08 23.32 57.82 23.32 57.51L23.32 54.49C23.32 53.42 23.89 52.59 24.89 52.59C25.83 52.59 26.40 53.32 26.40 54.36L26.40 57.51C26.40 57.82 26.66 58.08 26.97 58.08C27.30 58.08 27.55 57.82 27.55 57.51ZM38.97 49.91C38.97 49.58 38.72 49.33 38.41 49.33L32.70 49.33C32.39 49.33 32.14 49.58 32.14 49.89C32.14 50.21 32.39 50.47 32.70 50.47L34.91 50.47L34.91 57.44C34.91 57.79 35.20 58.08 35.55 58.08C35.91 58.08 36.20 57.79 36.20 57.44L36.20 50.47L38.41 50.47C38.72 50.47 38.97 50.21 38.97 49.91ZM44.74 54.85C44.74 53.05 43.53 51.56 41.57 51.56C39.62 51.56 38.41 53.05 38.41 54.85C38.41 56.66 39.62 58.16 41.57 58.16C43.53 58.16 44.74 56.66 44.74 54.85ZM43.53 54.85C43.53 56.06 42.83 57.13 41.57 57.13C40.32 57.13 39.61 56.06 39.61 54.85C39.61 53.66 40.32 52.59 41.57 52.59C42.83 52.59 43.53 53.66 43.53 54.85ZM49.16 57.55C49.16 57.27 48.95 57.06 48.67 57.06C48.54 57.06 48.38 57.13 48.24 57.13C47.86 57.13 47.63 56.83 47.63 56.35L47.63 52.73L48.48 52.73C48.76 52.73 48.98 52.51 48.98 52.24C48.98 51.94 48.76 51.72 48.48 51.72L47.63 51.72L47.63 50.49C47.63 50.19 47.37 49.93 47.05 49.93C46.72 49.93 46.46 50.19 46.46 50.49L46.46 51.72L45.85 51.72C45.56 51.72 45.34 51.94 45.34 52.22C45.34 52.51 45.56 52.73 45.85 52.73L46.46 52.73L46.46 56.62C46.46 57.61 46.98 58.16 47.96 58.16C48.65 58.16 49.16 57.96 49.16 57.55ZM55.26 53.75C55.26 52.15 54.09 51.56 52.74 51.56C51.89 51.56 50.94 51.84 50.34 52.44C50.27 52.53 50.23 52.63 50.23 52.73C50.23 53.01 50.47 53.19 50.71 53.19C50.80 53.19 50.90 53.15 50.99 53.09C51.46 52.72 51.98 52.54 52.57 52.54C53.45 52.54 54.10 53.01 54.10 53.80L54.10 54.15L52.29 54.15C50.99 54.15 49.85 54.66 49.85 56.08C49.85 57.45 50.99 58.16 52.03 58.16C53.01 58.16 53.59 57.86 54.10 57.30L54.10 57.51C54.10 57.88 54.40 58.08 54.63 58.08L54.67 58.08C55.00 58.08 55.26 57.82 55.26 57.51ZM54.10 54.96L54.10 55.84C54.10 56.58 53.26 57.34 52.35 57.34C51.50 57.34 51.02 56.83 51.02 56.10C51.02 55.35 51.62 54.96 52.61 54.96ZM58.27 49.81C58.27 49.51 58.01 49.25 57.71 49.25C57.38 49.25 57.12 49.51 57.12 49.81L57.12 57.51C57.12 57.82 57.38 58.08 57.69 58.08C58.01 58.08 58.27 57.82 58.27 57.51Z" fill="#9aa7b4" /><line x1="18" y1="76" x2="48" y2="76" stroke="#9aa7b4" stroke-opacity="0.4" /><g aria-label="Additions: 34,347,999"><circle cx="22" cy="96" r="4" fill="#00d559" /><path d="M42.28 99.39C42.28 99.31 42.27 99.23 42.23 99.14L39.36 91.94C39.19 91.51 38.76 91.24 38.30 91.25C37.85 91.25 37.43 91.52 37.28 91.94L34.40 99.14C34.38 99.23 34.36 99.31 34.36 99.39C34.36 99.74 34.65 100.08 35.05 100.08C35.33 100.08 35.57 99.92 35.68 99.66L36.25 98.19L40.40 98.19L40.97 99.66C41.07 99.92 41.32 100.08 41.59 100.08C42.01 100.08 42.28 99.71 42.28 99.39ZM38.32 92.64L40.03 97.06L36.61 97.06ZM49.22 91.81C49.22 91.51 48.96 91.25 48.66 91.25C48.33 91.25 48.07 91.51 48.07 91.81L48.07 94.63C47.56 93.95 46.95 93.56 46.00 93.56C44.36 93.56 43.20 94.85 43.20 96.87C43.20 98.92 44.37 100.16 46.00 100.16C46.97 100.16 47.59 99.73 48.07 99.10L48.07 99.51C48.07 99.82 48.33 100.08 48.64 100.08C48.96 100.08 49.22 99.82 49.22 99.51ZM48.07 96.91C48.07 98.21 47.42 99.13 46.30 99.13C45.13 99.13 44.40 98.18 44.40 96.87C44.40 95.55 45.13 94.59 46.30 94.59C47.42 94.59 48.07 95.54 48.07 96.83ZM56.74 91.81C56.74 91.51 56.48 91.25 56.18 91.25C55.84 91.25 55.58 91.51 55.58 91.81L55.58 94.63C55.07 93.95 54.46 93.56 53.51 93.56C51.88 93.56 50.72 94.85 50.72 96.87C50.72 98.92 51.89 100.16 53.51 100.16C54.49 100.16 55.10 99.73 55.58 99.10L55.58 99.51C55.58 99.82 55.84 100.08 56.15 100.08C56.48 100.08 56.74 99.82 56.74 99.51ZM55.58 96.91C55.58 98.21 54.93 99.13 53.81 99.13C52.64 99.13 51.91 98.18 51.91 96.87C51.91 95.55 52.64 94.59 53.81 94.59C54.93 94.59 55.58 95.54 55.58 96.83ZM59.18 91.39C58.78 91.39 58.44 91.73 58.44 92.15C58.44 92.55 58.78 92.89 59.18 92.89C59.60 92.89 59.92 92.55 59.92 92.15C59.92 91.73 59.60 91.39 59.18 91.39ZM59.77 94.20C59.77 93.90 59.51 93.64 59.21 93.64C58.87 93.64 58.61 93.90 58.61 94.20L58.61 99.51C58.61 99.82 58.87 100.08 59.18 100.08C59.51 100.08 59.77 99.82 59.77 99.51ZM64.56 99.55C64.56 99.27 64.36 99.06 64.07 99.06C63.94 99.06 63.78 99.13 63.64 99.13C63.26 99.13 63.03 98.83 63.03 98.35L63.03 94.73L63.89 94.73C64.16 94.73 64.38 94.51 64.38 94.24C64.38 93.94 64.16 93.72 63.89 93.72L63.03 93.72L63.03 92.49C63.03 92.19 62.77 91.93 62.46 91.93C62.12 91.93 61.86 92.19 61.86 92.49L61.86 93.72L61.25 93.72C60.96 93.72 60.74 93.94 60.74 94.22C60.74 94.51 60.96 94.73 61.25 94.73L61.86 94.73L61.86 98.62C61.86 99.61 62.38 100.16 63.37 100.16C64.06 100.16 64.56 99.96 64.56 99.55ZM66.19 91.39C65.79 91.39 65.45 91.73 65.45 92.15C65.45 92.55 65.79 92.89 66.19 92.89C66.60 92.89 66.93 92.55 66.93 92.15C66.93 91.73 66.60 91.39 66.19 91.39ZM66.77 94.20C66.77 93.90 66.51 93.64 66.21 93.64C65.88 93.64 65.62 93.90 65.62 94.20L65.62 99.51C65.62 99.82 65.88 100.08 66.19 100.08C66.51 100.08 66.77 99.82 66.77 99.51ZM74.60 96.85C74.60 95.05 73.39 93.56 71.43 93.56C69.48 93.56 68.27 95.05 68.27 96.85C68.27 98.66 69.48 100.16 71.43 100.16C73.39 100.16 74.60 98.66 74.60 96.85ZM73.39 96.85C73.39 98.06 72.69 99.13 71.43 99.13C70.18 99.13 69.46 98.06 69.46 96.85C69.46 95.66 70.18 94.59 71.43 94.59C72.69 94.59 73.39 95.66 73.39 96.85ZM81.49 95.97C81.49 94.64 80.53 93.56 79.20 93.56C78.11 93.56 77.55 94.10 77.25 94.61L77.25 94.20C77.25 93.90 76.99 93.64 76.69 93.64C76.35 93.64 76.09 93.90 76.09 94.20L76.09 99.51C76.09 99.82 76.35 100.08 76.67 100.08C76.99 100.08 77.25 99.82 77.25 99.51L77.25 96.49C77.25 95.42 77.82 94.59 78.82 94.59C79.76 94.59 80.33 95.32 80.33 96.36L80.33 99.51C80.33 99.82 80.59 100.08 80.90 100.08C81.23 100.08 81.49 99.82 81.49 99.51ZM87.96 98.10C87.85 95.89 84.24 96.50 84.11 95.37C84.06 94.86 84.61 94.49 85.40 94.49C86 94.49 86.56 94.68 86.96 94.97C87.04 95.03 87.13 95.06 87.23 95.06C87.47 95.06 87.69 94.86 87.69 94.61C87.69 94.50 87.65 94.40 87.57 94.32C87.08 93.84 86.29 93.56 85.39 93.56C83.86 93.56 82.93 94.29 83.00 95.41C83.11 97.52 86.70 96.87 86.83 98.26C86.88 98.83 86.36 99.23 85.47 99.23C84.82 99.23 84.17 98.97 83.70 98.64C83.61 98.57 83.52 98.54 83.40 98.54C83.13 98.54 82.89 98.75 82.89 99.03C82.89 99.16 82.94 99.26 83.04 99.34C83.61 99.91 84.56 100.16 85.41 100.16C87.08 100.16 88.03 99.30 87.96 98.10Z" fill="#e6edf3" /><path d="M158.04 97.63C158.15 96.07 157.09 95.53 157.09 95.53C157.09 95.53 158.06 95.03 157.95 93.55C157.85 92.11 156.70 91.20 154.68 91.20C153.48 91.20 152.54 91.55 151.83 92.12C151.65 92.27 151.56 92.47 151.56 92.68C151.56 93.14 151.96 93.46 152.36 93.46C152.52 93.46 152.67 93.42 152.80 93.33C153.31 93.01 153.88 92.84 154.48 92.84C155.39 92.84 156.09 93.05 156.09 93.73C156.09 94.45 155.66 94.79 154.79 94.79C154.17 94.79 153.90 95.14 153.90 95.59C153.90 96.05 154.17 96.41 154.85 96.41C155.73 96.41 156.24 96.72 156.24 97.41C156.24 98.06 155.65 98.52 154.60 98.52C154.00 98.52 153.31 98.31 152.74 97.97C152.60 97.88 152.44 97.84 152.28 97.84C151.86 97.84 151.44 98.19 151.44 98.66C151.44 98.79 151.48 98.91 151.54 99.01C151.95 99.69 153.42 100.16 154.66 100.16C156.74 100.16 157.94 99.26 158.04 97.63ZM166.13 97.40C166.13 96.94 165.77 96.58 165.34 96.58L164.93 96.58L164.93 92.29C164.93 91.48 164.15 91.12 163.36 91.25C162.80 91.25 162.24 91.55 161.94 92.02L159.04 96.59C158.93 96.78 158.88 96.98 158.88 97.19C158.88 97.78 159.30 98.21 159.82 98.21L163.09 98.21L163.09 99.17C163.09 99.66 163.50 100.08 164.00 100.08C164.52 100.08 164.93 99.66 164.93 99.17L164.93 98.21L165.34 98.21C165.77 98.21 166.13 97.84 166.13 97.40ZM160.75 96.58L163.09 92.97L163.09 96.58ZM169.17 99.36C169.17 98.52 168.61 98.04 168.00 98.04C167.46 98.04 166.99 98.50 166.99 99.08C166.99 99.64 167.38 100.01 167.87 100.01C167.96 100.01 168.08 99.99 168.12 99.97C168.04 100.31 167.75 100.72 167.42 100.99C167.33 101.07 167.29 101.17 167.29 101.27C167.29 101.53 167.56 101.69 167.78 101.69C167.91 101.69 168.03 101.65 168.12 101.56C168.77 100.97 169.17 100.19 169.17 99.36ZM176.76 97.63C176.87 96.07 175.81 95.53 175.81 95.53C175.81 95.53 176.78 95.03 176.67 93.55C176.57 92.11 175.42 91.20 173.40 91.20C172.20 91.20 171.26 91.55 170.55 92.12C170.37 92.27 170.28 92.47 170.28 92.68C170.28 93.14 170.68 93.46 171.08 93.46C171.24 93.46 171.39 93.42 171.52 93.33C172.03 93.01 172.60 92.84 173.20 92.84C174.11 92.84 174.81 93.05 174.81 93.73C174.81 94.45 174.38 94.79 173.51 94.79C172.89 94.79 172.62 95.14 172.62 95.59C172.62 96.05 172.89 96.41 173.57 96.41C174.45 96.41 174.96 96.72 174.96 97.41C174.96 98.06 174.37 98.52 173.32 98.52C172.72 98.52 172.03 98.31 171.46 97.97C171.32 97.88 171.16 97.84 171.00 97.84C170.58 97.84 170.16 98.19 170.16 98.66C170.16 98.79 170.20 98.91 170.26 99.01C170.67 99.69 172.14 100.16 173.38 100.16C175.46 100.16 176.66 99.26 176.76 97.63ZM184.85 97.40C184.85 96.94 184.49 96.58 184.06 96.58L183.65 96.58L183.65 92.29C183.65 91.48 182.87 91.12 182.08 91.25C181.52 91.25 180.96 91.55 180.66 92.02L177.76 96.59C177.65 96.78 177.60 96.98 177.60 97.19C177.60 97.78 178.02 98.21 178.54 98.21L181.81 98.21L181.81 99.17C181.81 99.66 182.22 100.08 182.72 100.08C183.24 100.08 183.65 99.66 183.65 99.17L183.65 98.21L184.06 98.21C184.49 98.21 184.85 97.84 184.85 97.40ZM179.47 96.58L181.81 92.97L181.81 96.58ZM192.00 92.27C192.00 91.72 191.56 91.33 191.10 91.33L186.14 91.33C185.69 91.33 185.33 91.69 185.33 92.12C185.33 92.59 185.69 92.95 186.14 92.95L189.78 92.95L187.19 98.82C187.14 98.93 187.11 99.05 187.11 99.17C187.11 99.64 187.49 100.08 188.03 100.08C188.41 100.08 188.76 99.86 188.91 99.52L191.92 92.63C191.97 92.53 192.00 92.39 192.00 92.27ZM193.75 99.36C193.75 98.52 193.20 98.04 192.58 98.04C192.04 98.04 191.57 98.50 191.57 99.08C191.57 99.64 191.96 100.01 192.45 100.01C192.55 100.01 192.66 99.99 192.70 99.97C192.62 100.31 192.34 100.72 192.00 100.99C191.91 101.07 191.87 101.17 191.87 101.27C191.87 101.53 192.14 101.69 192.36 101.69C192.49 101.69 192.61 101.65 192.70 101.56C193.35 100.97 193.75 100.19 193.75 99.36ZM194.68 94.16C194.68 96.01 196.07 96.98 197.63 96.98C198.71 96.98 199.51 96.45 199.85 95.87C199.86 95.93 199.86 95.98 199.86 96.05C199.86 97.43 198.97 98.50 197.69 98.50C197.25 98.50 196.89 98.43 196.56 98.26C196.45 98.19 196.32 98.17 196.19 98.17C195.78 98.17 195.34 98.48 195.34 98.97C195.34 99.10 195.38 99.22 195.43 99.32C195.76 99.90 196.85 100.14 197.69 100.14C200.25 100.14 201.74 98.28 201.74 95.66C201.74 93.21 200.63 91.19 197.99 91.19C196.02 91.19 194.68 92.47 194.68 94.16ZM196.55 94.10C196.55 93.45 197.03 92.82 198.03 92.82C198.85 92.82 199.46 93.38 199.46 94.19C199.46 94.97 198.84 95.53 198.03 95.53C197.20 95.53 196.55 94.97 196.55 94.10ZM202.58 94.16C202.58 96.01 203.97 96.98 205.53 96.98C206.61 96.98 207.42 96.45 207.76 95.87C207.77 95.93 207.77 95.98 207.77 96.05C207.77 97.43 206.87 98.50 205.60 98.50C205.16 98.50 204.79 98.43 204.47 98.26C204.35 98.19 204.22 98.17 204.09 98.17C203.69 98.17 203.24 98.48 203.24 98.97C203.24 99.10 203.28 99.22 203.34 99.32C203.66 99.90 204.75 100.14 205.60 100.14C208.16 100.14 209.64 98.28 209.64 95.66C209.64 93.21 208.54 91.19 205.90 91.19C203.92 91.19 202.58 92.47 202.58 94.16ZM204.45 94.10C204.45 93.45 204.93 92.82 205.94 92.82C206.75 92.82 207.37 93.38 207.37 94.19C207.37 94.97 206.74 95.53 205.94 95.53C205.10 95.53 204.45 94.97 204.45 94.10ZM210.49 94.16C210.49 96.01 211.88 96.98 213.44 96.98C214.52 96.98 215.32 96.45 215.66 95.87C215.67 95.93 215.67 95.98 215.67 96.05C215.67 97.43 214.78 98.50 213.50 98.50C213.06 98.50 212.70 98.43 212.37 98.26C212.25 98.19 212.12 98.17 211.99 98.17C211.59 98.17 211.15 98.48 211.15 98.97C211.15 99.10 211.19 99.22 211.24 99.32C211.56 99.90 212.66 100.14 213.50 100.14C216.06 100.14 217.54 98.28 217.54 95.66C217.54 93.21 216.44 91.19 213.80 91.19C211.82 91.19 210.49 92.47 210.49 94.16ZM212.36 94.10C212.36 93.45 212.84 92.82 213.84 92.82C214.66 92.82 215.27 93.38 215.27 94.19C215.27 94.97 214.65 95.53 213.84 95.53C213.01 95.53 212.36 94.97 212.36 94.10Z" fill="#9aa7b4" /></g><g aria-label="Deletions: 17,197,739"><circle cx="22" cy="118" r="4" fill="#00a5fe" /><path d="M42.54 117.67C42.54 115.17 40.76 113.33 38.06 113.33L35.82 113.33C35.35 113.33 34.98 113.71 34.98 114.17L34.98 121.16C34.98 121.62 35.35 122 35.82 122L38.06 122C40.76 122 42.54 120.18 42.54 117.67ZM41.23 117.67C41.23 119.43 40.06 120.86 38.06 120.86L36.26 120.86L36.26 114.47L38.06 114.47C40.11 114.47 41.23 115.89 41.23 117.67ZM49.90 118.65C49.90 118.40 49.83 118.13 49.78 117.92C49.42 116.51 48.38 115.56 46.86 115.56C45.04 115.56 43.72 117.03 43.72 118.85C43.72 120.83 45.09 122.16 46.96 122.16C47.88 122.16 49.50 121.67 49.50 120.97C49.50 120.53 49.05 120.43 48.77 120.57C48.31 120.91 47.61 121.22 47.08 121.22C45.80 121.22 45.02 120.35 44.93 119.27L49.30 119.27C49.63 119.27 49.90 118.96 49.90 118.65ZM44.93 118.41C44.98 117.54 45.60 116.50 46.84 116.50C48.18 116.50 48.76 117.57 48.78 118.41ZM52.54 113.81C52.54 113.51 52.28 113.25 51.98 113.25C51.64 113.25 51.38 113.51 51.38 113.81L51.38 121.51C51.38 121.82 51.64 122.08 51.95 122.08C52.28 122.08 52.54 121.82 52.54 121.51ZM60.21 118.65C60.21 118.40 60.14 118.13 60.09 117.92C59.73 116.51 58.69 115.56 57.17 115.56C55.35 115.56 54.03 117.03 54.03 118.85C54.03 120.83 55.40 122.16 57.27 122.16C58.19 122.16 59.81 121.67 59.81 120.97C59.81 120.53 59.36 120.43 59.08 120.57C58.62 120.91 57.92 121.22 57.39 121.22C56.11 121.22 55.33 120.35 55.24 119.27L59.61 119.27C59.94 119.27 60.21 118.96 60.21 118.65ZM55.24 118.41C55.29 117.54 55.91 116.50 57.15 116.50C58.49 116.50 59.06 117.57 59.09 118.41ZM64.62 121.55C64.62 121.27 64.41 121.06 64.12 121.06C63.99 121.06 63.84 121.13 63.69 121.13C63.32 121.13 63.08 120.83 63.08 120.35L63.08 116.73L63.94 116.73C64.21 116.73 64.43 116.51 64.43 116.24C64.43 115.94 64.21 115.72 63.94 115.72L63.08 115.72L63.08 114.49C63.08 114.19 62.82 113.93 62.51 113.93C62.17 113.93 61.91 114.19 61.91 114.49L61.91 115.72L61.30 115.72C61.01 115.72 60.79 115.94 60.79 116.22C60.79 116.51 61.01 116.73 61.30 116.73L61.91 116.73L61.91 120.62C61.91 121.61 62.43 122.16 63.42 122.16C64.11 122.16 64.62 121.96 64.62 121.55ZM66.24 113.39C65.84 113.39 65.50 113.73 65.50 114.15C65.50 114.55 65.84 114.89 66.24 114.89C66.66 114.89 66.98 114.55 66.98 114.15C66.98 113.73 66.66 113.39 66.24 113.39ZM66.83 116.20C66.83 115.90 66.56 115.64 66.27 115.64C65.93 115.64 65.67 115.90 65.67 116.20L65.67 121.51C65.67 121.82 65.93 122.08 66.24 122.08C66.56 122.08 66.83 121.82 66.83 121.51ZM74.65 118.85C74.65 117.05 73.44 115.56 71.48 115.56C69.53 115.56 68.32 117.05 68.32 118.85C68.32 120.66 69.53 122.16 71.48 122.16C73.44 122.16 74.65 120.66 74.65 118.85ZM73.44 118.85C73.44 120.06 72.74 121.13 71.48 121.13C70.23 121.13 69.52 120.06 69.52 118.85C69.52 117.66 70.23 116.59 71.48 116.59C72.74 116.59 73.44 117.66 73.44 118.85ZM81.54 117.97C81.54 116.64 80.58 115.56 79.25 115.56C78.16 115.56 77.60 116.10 77.30 116.61L77.30 116.20C77.30 115.90 77.04 115.64 76.74 115.64C76.41 115.64 76.15 115.90 76.15 116.20L76.15 121.51C76.15 121.82 76.41 122.08 76.72 122.08C77.04 122.08 77.30 121.82 77.30 121.51L77.30 118.49C77.30 117.42 77.88 116.59 78.88 116.59C79.81 116.59 80.38 117.32 80.38 118.36L80.38 121.51C80.38 121.82 80.64 122.08 80.96 122.08C81.28 122.08 81.54 121.82 81.54 121.51ZM88.01 120.10C87.90 117.89 84.30 118.50 84.17 117.37C84.11 116.86 84.66 116.49 85.45 116.49C86.05 116.49 86.61 116.68 87.01 116.97C87.09 117.03 87.18 117.06 87.29 117.06C87.52 117.06 87.74 116.86 87.74 116.61C87.74 116.50 87.70 116.40 87.62 116.32C87.13 115.84 86.34 115.56 85.44 115.56C83.91 115.56 82.98 116.29 83.05 117.41C83.17 119.52 86.75 118.87 86.88 120.26C86.94 120.83 86.42 121.23 85.52 121.23C84.87 121.23 84.22 120.97 83.75 120.64C83.66 120.57 83.57 120.54 83.45 120.54C83.18 120.54 82.94 120.75 82.94 121.03C82.94 121.16 83.00 121.26 83.09 121.34C83.66 121.91 84.61 122.16 85.47 122.16C87.13 122.16 88.08 121.30 88.01 120.10Z" fill="#e6edf3" /><path d="M165.13 114.32C165.13 113.73 164.63 113.26 164.05 113.26C163.75 113.26 163.46 113.38 163.27 113.58L161.27 115.60C161.11 115.76 161.03 115.95 161.03 116.15C161.03 116.58 161.40 116.92 161.80 116.92C161.98 116.92 162.16 116.85 162.31 116.71L163.28 115.71L163.28 121.17C163.28 121.66 163.70 122.08 164.19 122.08C164.71 122.08 165.13 121.66 165.13 121.17ZM172.89 114.27C172.89 113.72 172.45 113.33 171.99 113.33L167.03 113.33C166.58 113.33 166.22 113.69 166.22 114.12C166.22 114.59 166.58 114.95 167.03 114.95L170.67 114.95L168.08 120.82C168.03 120.93 168.00 121.05 168.00 121.17C168.00 121.64 168.38 122.08 168.92 122.08C169.30 122.08 169.65 121.86 169.80 121.52L172.81 114.63C172.86 114.53 172.89 114.39 172.89 114.27ZM174.64 121.36C174.64 120.52 174.09 120.04 173.47 120.04C172.93 120.04 172.46 120.50 172.46 121.08C172.46 121.64 172.85 122.01 173.34 122.01C173.44 122.01 173.55 121.99 173.59 121.97C173.51 122.31 173.23 122.72 172.89 122.99C172.80 123.07 172.76 123.17 172.76 123.27C172.76 123.53 173.03 123.69 173.25 123.69C173.38 123.69 173.50 123.65 173.59 123.56C174.24 122.97 174.64 122.19 174.64 121.36ZM178.38 114.32C178.38 113.73 177.88 113.26 177.30 113.26C177.00 113.26 176.71 113.38 176.52 113.58L174.51 115.60C174.36 115.76 174.28 115.95 174.28 116.15C174.28 116.58 174.64 116.92 175.05 116.92C175.23 116.92 175.41 116.85 175.55 116.71L176.53 115.71L176.53 121.17C176.53 121.66 176.95 122.08 177.44 122.08C177.96 122.08 178.38 121.66 178.38 121.17ZM179.62 116.16C179.62 118.01 181.01 118.98 182.57 118.98C183.65 118.98 184.46 118.45 184.80 117.87C184.81 117.93 184.81 117.98 184.81 118.05C184.81 119.43 183.91 120.50 182.64 120.50C182.20 120.50 181.83 120.43 181.51 120.26C181.39 120.19 181.26 120.17 181.13 120.17C180.73 120.17 180.29 120.48 180.29 120.97C180.29 121.10 180.33 121.22 180.38 121.32C180.70 121.90 181.79 122.14 182.64 122.14C185.20 122.14 186.68 120.28 186.68 117.66C186.68 115.21 185.58 113.19 182.94 113.19C180.96 113.19 179.62 114.47 179.62 116.16ZM181.50 116.10C181.50 115.45 181.98 114.82 182.98 114.82C183.80 114.82 184.41 115.38 184.41 116.19C184.41 116.97 183.78 117.53 182.98 117.53C182.15 117.53 181.50 116.97 181.50 116.10ZM194.04 114.27C194.04 113.72 193.60 113.33 193.14 113.33L188.18 113.33C187.74 113.33 187.37 113.69 187.37 114.12C187.37 114.59 187.74 114.95 188.18 114.95L191.82 114.95L189.23 120.82C189.18 120.93 189.15 121.05 189.15 121.17C189.15 121.64 189.53 122.08 190.08 122.08C190.45 122.08 190.80 121.86 190.95 121.52L193.96 114.63C194.01 114.53 194.04 114.39 194.04 114.27ZM195.80 121.36C195.80 120.52 195.24 120.04 194.63 120.04C194.08 120.04 193.61 120.50 193.61 121.08C193.61 121.64 194.00 122.01 194.50 122.01C194.59 122.01 194.70 121.99 194.74 121.97C194.66 122.31 194.38 122.72 194.04 122.99C193.95 123.07 193.91 123.17 193.91 123.27C193.91 123.53 194.18 123.69 194.40 123.69C194.53 123.69 194.65 123.65 194.74 123.56C195.39 122.97 195.80 122.19 195.80 121.36ZM202.28 114.27C202.28 113.72 201.84 113.33 201.39 113.33L196.42 113.33C195.98 113.33 195.61 113.69 195.61 114.12C195.61 114.59 195.98 114.95 196.42 114.95L200.06 114.95L197.47 120.82C197.42 120.93 197.39 121.05 197.39 121.17C197.39 121.64 197.77 122.08 198.32 122.08C198.69 122.08 199.05 121.86 199.19 121.52L202.20 114.63C202.26 114.53 202.28 114.39 202.28 114.27ZM209.52 119.63C209.63 118.07 208.57 117.53 208.57 117.53C208.57 117.53 209.54 117.03 209.43 115.55C209.33 114.11 208.18 113.20 206.16 113.20C204.96 113.20 204.02 113.55 203.31 114.12C203.13 114.27 203.04 114.47 203.04 114.68C203.04 115.14 203.44 115.46 203.84 115.46C204.00 115.46 204.15 115.42 204.28 115.33C204.79 115.01 205.36 114.84 205.96 114.84C206.87 114.84 207.57 115.05 207.57 115.73C207.57 116.45 207.14 116.79 206.27 116.79C205.65 116.79 205.38 117.14 205.38 117.59C205.38 118.05 205.65 118.41 206.33 118.41C207.21 118.41 207.72 118.72 207.72 119.41C207.72 120.06 207.13 120.52 206.08 120.52C205.48 120.52 204.79 120.31 204.22 119.97C204.08 119.88 203.92 119.84 203.76 119.84C203.34 119.84 202.92 120.19 202.92 120.66C202.92 120.79 202.96 120.91 203.02 121.01C203.43 121.69 204.90 122.16 206.14 122.16C208.22 122.16 209.42 121.26 209.52 119.63ZM210.49 116.16C210.49 118.01 211.88 118.98 213.44 118.98C214.52 118.98 215.32 118.45 215.66 117.87C215.67 117.93 215.67 117.98 215.67 118.05C215.67 119.43 214.78 120.50 213.50 120.50C213.06 120.50 212.70 120.43 212.37 120.26C212.25 120.19 212.12 120.17 211.99 120.17C211.59 120.17 211.15 120.48 211.15 120.97C211.15 121.10 211.19 121.22 211.24 121.32C211.56 121.90 212.66 122.14 213.50 122.14C216.06 122.14 217.54 120.28 217.54 117.66C217.54 115.21 216.44 113.19 213.80 113.19C211.82 113.19 210.49 114.47 210.49 116.16ZM212.36 116.10C212.36 115.45 212.84 114.82 213.84 114.82C214.66 114.82 215.27 115.38 215.27 116.19C215.27 116.97 214.65 117.53 213.84 117.53C213.01 117.53 212.36 116.97 212.36 116.10Z" fill="#9aa7b4" /></g><g aria-label="Changed Files: 527,194"><circle cx="22" cy="140" r="4" fill="#673bd6" /><path d="M39.11 135.19C36.59 135.19 34.60 137.01 34.60 139.67C34.60 142.34 36.59 144.16 39.11 144.16C40.46 144.16 41.40 143.60 42.07 142.87C42.18 142.76 42.23 142.62 42.23 142.47C42.23 142.15 41.97 141.87 41.63 141.87C41.46 141.87 41.28 141.95 41.18 142.08C40.64 142.67 39.88 143.01 39.11 143.01C37.29 143.01 35.94 141.61 35.94 139.67C35.94 137.72 37.29 136.33 39.11 136.33C39.86 136.33 40.67 136.69 41.18 137.28C41.28 137.42 41.46 137.49 41.62 137.49C41.96 137.49 42.23 137.21 42.23 136.89C42.23 136.73 42.18 136.59 42.07 136.47C41.41 135.73 40.46 135.19 39.11 135.19ZM49.17 139.94C49.17 138.62 48.22 137.56 46.90 137.56C45.79 137.56 45.22 138.10 44.92 138.60L44.92 135.81C44.92 135.51 44.66 135.25 44.36 135.25C44.02 135.25 43.76 135.51 43.76 135.81L43.76 143.51C43.76 143.82 44.02 144.08 44.34 144.08C44.66 144.08 44.92 143.82 44.92 143.51L44.92 140.56C44.92 139.38 45.54 138.59 46.53 138.59C47.47 138.59 48.01 139.29 48.01 140.33L48.01 143.51C48.01 143.82 48.27 144.08 48.59 144.08C48.91 144.08 49.17 143.82 49.17 143.51ZM56.09 139.75C56.09 138.15 54.92 137.56 53.56 137.56C52.72 137.56 51.77 137.84 51.17 138.44C51.09 138.53 51.06 138.63 51.06 138.74C51.06 139.01 51.30 139.19 51.54 139.19C51.63 139.19 51.73 139.15 51.82 139.09C52.29 138.72 52.81 138.54 53.40 138.54C54.28 138.54 54.93 139.01 54.93 139.80L54.93 140.15L53.12 140.15C51.82 140.15 50.68 140.66 50.68 142.08C50.68 143.45 51.82 144.16 52.86 144.16C53.84 144.16 54.42 143.86 54.93 143.30L54.93 143.51C54.93 143.88 55.23 144.08 55.46 144.08L55.50 144.08C55.83 144.08 56.09 143.82 56.09 143.51ZM54.93 140.96L54.93 141.84C54.93 142.58 54.09 143.34 53.17 143.34C52.33 143.34 51.85 142.83 51.85 142.10C51.85 141.35 52.45 140.96 53.44 140.96ZM63.34 139.97C63.34 138.64 62.38 137.56 61.05 137.56C59.96 137.56 59.40 138.10 59.10 138.60L59.10 138.20C59.10 137.90 58.84 137.64 58.54 137.64C58.21 137.64 57.95 137.90 57.95 138.20L57.95 143.51C57.95 143.82 58.21 144.08 58.52 144.08C58.84 144.08 59.10 143.82 59.10 143.51L59.10 140.49C59.10 139.42 59.67 138.59 60.68 138.59C61.61 138.59 62.18 139.32 62.18 140.36L62.18 143.51C62.18 143.82 62.44 144.08 62.76 144.08C63.08 144.08 63.34 143.82 63.34 143.51ZM70.84 138.20C70.84 137.90 70.58 137.64 70.28 137.64C69.95 137.64 69.69 137.90 69.69 138.20L69.69 138.63C69.18 137.96 68.45 137.56 67.62 137.56C65.99 137.56 64.84 138.79 64.84 140.81C64.84 142.86 66.01 144.05 67.62 144.05C68.48 144.05 69.22 143.60 69.69 142.96L69.69 143.79C69.69 145.13 68.72 145.60 67.75 145.60C67.06 145.60 66.51 145.46 66.03 145.05C65.94 144.99 65.85 144.96 65.73 144.96C65.47 144.96 65.24 145.18 65.24 145.46C65.24 145.59 65.29 145.70 65.37 145.78C65.98 146.37 66.86 146.55 67.75 146.55C69.28 146.55 70.84 145.91 70.84 143.75ZM69.69 140.83C69.69 142.12 68.84 143.03 67.80 143.03C66.63 143.03 66.03 142.10 66.03 140.81C66.03 139.50 66.63 138.59 67.80 138.59C68.84 138.59 69.69 139.49 69.69 140.78ZM78.51 140.65C78.51 140.40 78.45 140.13 78.40 139.92C78.03 138.51 76.99 137.56 75.47 137.56C73.65 137.56 72.34 139.03 72.34 140.85C72.34 142.83 73.70 144.16 75.57 144.16C76.50 144.16 78.11 143.68 78.11 142.97C78.11 142.53 77.67 142.43 77.38 142.57C76.93 142.91 76.22 143.22 75.69 143.22C74.42 143.22 73.64 142.35 73.55 141.27L77.91 141.27C78.24 141.27 78.51 140.96 78.51 140.65ZM73.55 140.41C73.60 139.54 74.21 138.50 75.46 138.50C76.80 138.50 77.37 139.57 77.39 140.41ZM85.64 135.81C85.64 135.51 85.38 135.25 85.08 135.25C84.74 135.25 84.48 135.51 84.48 135.81L84.48 138.63C83.97 137.96 83.36 137.56 82.41 137.56C80.77 137.56 79.62 138.85 79.62 140.87C79.62 142.92 80.79 144.16 82.41 144.16C83.39 144.16 84.00 143.73 84.48 143.10L84.48 143.51C84.48 143.82 84.74 144.08 85.05 144.08C85.38 144.08 85.64 143.82 85.64 143.51ZM84.48 140.91C84.48 142.21 83.83 143.13 82.71 143.13C81.54 143.13 80.81 142.18 80.81 140.87C80.81 139.55 81.54 138.59 82.71 138.59C83.83 138.59 84.48 139.54 84.48 140.83ZM96.76 135.91C96.76 135.58 96.52 135.33 96.20 135.33L91.73 135.33C91.27 135.33 90.89 135.71 90.89 136.17L90.89 143.44C90.89 143.79 91.17 144.08 91.52 144.08C91.89 144.08 92.17 143.79 92.17 143.44L92.17 140.15L96.11 140.15C96.43 140.15 96.67 139.89 96.67 139.59C96.67 139.25 96.43 139.01 96.11 139.01L92.17 139.01L92.17 136.47L96.20 136.47C96.52 136.47 96.76 136.21 96.76 135.91ZM98.65 135.39C98.25 135.39 97.91 135.73 97.91 136.15C97.91 136.55 98.25 136.89 98.65 136.89C99.06 136.89 99.39 136.55 99.39 136.15C99.39 135.73 99.06 135.39 98.65 135.39ZM99.23 138.20C99.23 137.90 98.97 137.64 98.67 137.64C98.34 137.64 98.08 137.90 98.08 138.20L98.08 143.51C98.08 143.82 98.34 144.08 98.65 144.08C98.97 144.08 99.23 143.82 99.23 143.51ZM102.26 135.81C102.26 135.51 102.00 135.25 101.70 135.25C101.37 135.25 101.11 135.51 101.11 135.81L101.11 143.51C101.11 143.82 101.37 144.08 101.68 144.08C102.00 144.08 102.26 143.82 102.26 143.51ZM109.93 140.65C109.93 140.40 109.87 140.13 109.82 139.92C109.45 138.51 108.41 137.56 106.89 137.56C105.07 137.56 103.76 139.03 103.76 140.85C103.76 142.83 105.12 144.16 106.99 144.16C107.92 144.16 109.53 143.68 109.53 142.97C109.53 142.53 109.09 142.43 108.80 142.57C108.35 142.91 107.64 143.22 107.11 143.22C105.84 143.22 105.06 142.35 104.97 141.27L109.33 141.27C109.66 141.27 109.93 140.96 109.93 140.65ZM104.97 140.41C105.02 139.54 105.63 138.50 106.88 138.50C108.22 138.50 108.79 139.57 108.81 140.41ZM116.02 142.10C115.90 139.89 112.30 140.50 112.17 139.37C112.12 138.87 112.66 138.49 113.46 138.49C114.05 138.49 114.61 138.68 115.02 138.97C115.09 139.03 115.18 139.06 115.29 139.06C115.52 139.06 115.74 138.87 115.74 138.60C115.74 138.50 115.70 138.40 115.63 138.32C115.13 137.84 114.34 137.56 113.44 137.56C111.91 137.56 110.99 138.29 111.05 139.41C111.17 141.52 114.76 140.87 114.89 142.26C114.94 142.83 114.42 143.23 113.52 143.23C112.87 143.23 112.22 142.97 111.75 142.63C111.66 142.57 111.57 142.54 111.45 142.54C111.18 142.54 110.95 142.75 110.95 143.03C110.95 143.16 111.00 143.26 111.09 143.34C111.66 143.91 112.61 144.16 113.47 144.16C115.13 144.16 116.08 143.30 116.02 142.10Z" fill="#e6edf3" /><path d="M180.83 141.15C180.83 139.40 179.52 138.34 178.05 138.34C177.26 138.34 176.56 138.66 176.14 139.07L176.14 136.95L179.53 136.95C179.96 136.95 180.33 136.59 180.33 136.15C180.33 135.69 179.96 135.33 179.53 135.33L175.33 135.33C174.76 135.33 174.29 135.80 174.29 136.37L174.29 139.70C174.29 140.20 174.66 140.58 175.23 140.58C175.49 140.58 175.74 140.50 175.94 140.36C176.41 140.05 176.87 139.94 177.40 139.94C178.39 139.94 178.96 140.46 178.96 141.23C178.96 141.93 178.38 142.52 177.35 142.52C176.72 142.52 176.13 142.35 175.62 142.04C175.46 141.95 175.29 141.89 175.14 141.89C174.68 141.89 174.25 142.25 174.25 142.73C174.25 142.86 174.29 142.99 174.36 143.10C174.76 143.78 176.23 144.16 177.36 144.16C179.45 144.16 180.83 143.00 180.83 141.15ZM188.50 143.17C188.50 142.74 188.14 142.38 187.71 142.38L184.89 142.38C187.14 140.74 188.36 139.45 188.36 137.97C188.36 136.24 186.89 135.20 185.04 135.20C183.95 135.20 182.50 135.67 182.08 136.33C182.00 136.45 181.96 136.58 181.96 136.71C181.96 137.18 182.34 137.54 182.77 137.54C182.96 137.54 183.13 137.49 183.30 137.37C183.80 137.03 184.39 136.84 185.08 136.84C185.80 136.84 186.49 137.21 186.49 137.97C186.49 138.98 185.45 139.93 182.21 142.32C181.96 142.50 181.82 142.80 181.82 143.10C181.82 143.62 182.24 144 182.69 144L187.71 144C188.14 144 188.50 143.64 188.50 143.17ZM195.99 136.26C195.99 135.72 195.55 135.33 195.09 135.33L190.13 135.33C189.69 135.33 189.32 135.69 189.32 136.12C189.32 136.59 189.69 136.95 190.13 136.95L193.77 136.95L191.18 142.82C191.13 142.93 191.10 143.05 191.10 143.17C191.10 143.64 191.48 144.08 192.03 144.08C192.40 144.08 192.75 143.86 192.90 143.52L195.91 136.63C195.97 136.53 195.99 136.40 195.99 136.26ZM197.75 143.36C197.75 142.52 197.19 142.04 196.58 142.04C196.03 142.04 195.56 142.50 195.56 143.08C195.56 143.64 195.95 144.01 196.45 144.01C196.54 144.01 196.65 143.99 196.69 143.97C196.61 144.31 196.33 144.72 195.99 144.99C195.90 145.07 195.86 145.17 195.86 145.27C195.86 145.53 196.13 145.69 196.35 145.69C196.48 145.69 196.60 145.65 196.69 145.56C197.34 144.97 197.75 144.19 197.75 143.36ZM201.48 136.32C201.48 135.73 200.98 135.26 200.40 135.26C200.10 135.26 199.81 135.38 199.62 135.58L197.62 137.60C197.46 137.76 197.38 137.96 197.38 138.15C197.38 138.58 197.75 138.92 198.15 138.92C198.33 138.92 198.51 138.85 198.66 138.71L199.63 137.71L199.63 143.17C199.63 143.66 200.05 144.08 200.54 144.08C201.06 144.08 201.48 143.66 201.48 143.17ZM202.72 138.16C202.72 140.01 204.12 140.98 205.68 140.98C206.75 140.98 207.56 140.45 207.90 139.87C207.91 139.93 207.91 139.98 207.91 140.05C207.91 141.43 207.01 142.50 205.74 142.50C205.30 142.50 204.93 142.43 204.61 142.26C204.49 142.19 204.36 142.17 204.23 142.17C203.83 142.17 203.39 142.48 203.39 142.97C203.39 143.10 203.43 143.22 203.48 143.32C203.80 143.90 204.90 144.14 205.74 144.14C208.30 144.14 209.78 142.28 209.78 139.66C209.78 137.21 208.68 135.19 206.04 135.19C204.06 135.19 202.72 136.47 202.72 138.16ZM204.60 138.10C204.60 137.45 205.08 136.82 206.08 136.82C206.90 136.82 207.51 137.38 207.51 138.19C207.51 138.97 206.88 139.53 206.08 139.53C205.25 139.53 204.60 138.97 204.60 138.10ZM217.75 141.40C217.75 140.94 217.39 140.58 216.96 140.58L216.56 140.58L216.56 136.29C216.56 135.49 215.78 135.12 214.98 135.25C214.42 135.25 213.87 135.55 213.57 136.02L210.67 140.59C210.55 140.78 210.50 140.98 210.50 141.19C210.50 141.78 210.93 142.21 211.45 142.21L214.71 142.21L214.71 143.17C214.71 143.66 215.13 144.08 215.62 144.08C216.14 144.08 216.56 143.66 216.56 143.17L216.56 142.21L216.96 142.21C217.39 142.21 217.75 141.84 217.75 141.40ZM212.37 140.58L214.71 136.97L214.71 140.58Z" fill="#9aa7b4" /></g><rect x="18" y="166" width="384" height="8" rx="4" fill="#21262d" /><rect x="18.00" y="166" width="255.88" height="8" rx="4" fill="#00d559" /><rect x="273.88" y="166" width="128.12" height="8" rx="4" fill="#00a5fe" /></svg>