<svg xmlns="http://www.w3.org/2000/svg" width="420" height="184" viewBox="0 0 420 184" role="img"><rect x="0.5" y="0.5" width="419" height="183" rx="10" fill="#ffffff" stroke="#f2f4f6" /><path d="M30.72 33.60C30.72 32.83 30.10 32.21 29.37 32.21L28.69 32.21L28.69 24.95C28.69 23.59 27.37 22.97 26.03 23.19C25.08 23.19 24.14 23.70 23.63 24.49L18.73 32.24C18.53 32.54 18.44 32.90 18.44 33.25C18.44 34.24 19.17 34.96 20.05 34.96L25.57 34.96L25.57 36.59C25.57 37.43 26.27 38.13 27.11 38.13C27.99 38.13 28.69 37.43 28.69 36.59L28.69 34.96L29.37 34.96C30.10 34.96 30.72 34.35 30.72 33.60ZM21.61 32.21L25.57 26.10L25.57 32.21ZM42.82 24.91C42.82 23.99 42.07 23.33 41.30 23.33L32.89 23.33C32.15 23.33 31.53 23.94 31.53 24.67C31.53 25.46 32.15 26.08 32.89 26.08L39.05 26.08L34.68 36.00C34.59 36.20 34.54 36.39 34.54 36.59C34.54 37.38 35.18 38.13 36.11 38.13C36.74 38.13 37.34 37.76 37.58 37.19L42.68 25.53C42.77 25.35 42.82 25.13 42.82 24.91ZM45.79 36.92C45.79 35.49 44.84 34.68 43.81 34.68C42.88 34.68 42.09 35.47 42.09 36.44C42.09 37.38 42.75 38.02 43.59 38.02C43.74 38.02 43.94 37.98 44.00 37.96C43.87 38.53 43.39 39.21 42.82 39.67C42.66 39.80 42.60 39.98 42.60 40.16C42.60 40.60 43.06 40.86 43.43 40.86C43.65 40.86 43.85 40.79 44.00 40.64C45.10 39.65 45.79 38.33 45.79 36.92ZM59.25 33.97C59.25 31.97 58.06 30.83 57.18 30.43C57.93 30.08 59.01 29.24 59.01 26.98C59.01 24.45 56.28 23.11 53.35 23.11C50.41 23.11 47.70 24.45 47.70 26.98C47.70 29.24 48.76 30.08 49.50 30.43C48.62 30.83 47.46 31.97 47.46 33.97C47.46 36.72 50.27 38.26 53.35 38.26C56.43 38.26 59.25 36.70 59.25 33.97ZM55.82 27.46C55.82 28.56 54.70 29.20 53.35 29.20C52.01 29.20 50.87 28.56 50.87 27.46C50.87 26.41 51.90 25.79 53.35 25.79C54.78 25.79 55.82 26.41 55.82 27.46ZM56.08 33.80C56.08 34.88 54.85 35.58 53.35 35.58C51.81 35.58 50.63 34.88 50.63 33.80C50.63 32.57 51.99 31.84 53.35 31.84C54.70 31.84 56.08 32.57 56.08 33.80ZM72.91 30.67C72.91 26.89 71.02 23.11 66.84 23.11C62.64 23.11 60.77 26.89 60.77 30.67C60.77 34.46 62.64 38.26 66.84 38.26C71.02 38.26 72.91 34.46 72.91 30.67ZM69.72 30.67C69.72 33.38 68.93 35.49 66.84 35.49C64.73 35.49 63.94 33.38 63.94 30.67C63.94 27.97 64.73 25.88 66.84 25.88C68.93 25.88 69.72 27.97 69.72 30.67ZM85.61 34.00C85.78 31.36 84 30.43 84 30.43C84 30.43 85.63 29.60 85.45 27.09C85.28 24.65 83.34 23.11 79.91 23.11C77.88 23.11 76.30 23.70 75.09 24.67C74.78 24.91 74.63 25.26 74.63 25.61C74.63 26.38 75.31 26.93 75.99 26.93C76.26 26.93 76.52 26.87 76.74 26.71C77.60 26.16 78.57 25.88 79.58 25.88C81.12 25.88 82.31 26.23 82.31 27.40C82.31 28.61 81.58 29.18 80.11 29.18C79.05 29.18 78.59 29.77 78.59 30.54C78.59 31.31 79.05 31.93 80.19 31.93C81.69 31.93 82.55 32.46 82.55 33.62C82.55 34.72 81.56 35.49 79.78 35.49C78.76 35.49 77.60 35.14 76.63 34.57C76.39 34.41 76.12 34.35 75.86 34.35C75.13 34.35 74.43 34.94 74.43 35.73C74.43 35.95 74.50 36.15 74.61 36.33C75.29 37.47 77.77 38.26 79.89 38.26C83.41 38.26 85.43 36.75 85.61 34.00ZM100.76 23.08C96.36 23.08 92.95 26.16 92.95 30.67C92.95 35.18 96.36 38.26 100.76 38.26C103.29 38.26 104.99 37.16 106.09 35.82C106.31 35.58 106.40 35.27 106.40 34.96C106.40 34.22 105.76 33.60 104.97 33.60C104.53 33.60 104.09 33.78 103.78 34.11C102.96 35.01 101.86 35.49 100.76 35.49C98.10 35.49 96.17 33.45 96.17 30.67C96.17 27.90 98.10 25.86 100.76 25.86C101.86 25.86 102.94 26.38 103.78 27.26C104.09 27.59 104.50 27.77 104.92 27.77C105.74 27.77 106.42 27.15 106.42 26.36C106.42 26.08 106.31 25.75 106.11 25.50C104.99 24.16 103.29 23.08 100.76 23.08ZM119.27 32.68C119.27 29.66 117.15 27.11 113.63 27.11C110.14 27.11 108.02 29.66 108.02 32.68C108.02 35.71 110.14 38.26 113.63 38.26C117.15 38.26 119.27 35.71 119.27 32.68ZM116.36 32.68C116.36 34.35 115.37 35.78 113.63 35.78C111.90 35.78 110.93 34.35 110.93 32.68C110.93 31.03 111.90 29.60 113.63 29.60C115.37 29.60 116.36 31.03 116.36 32.68ZM137.33 31.20C137.33 29.02 135.81 27.11 133.41 27.11C131.56 27.11 130.51 28.19 130.11 28.94C129.72 28.17 128.73 27.11 126.94 27.11C125.32 27.11 124.57 27.70 124.13 28.28L124.13 28.25C124.13 27.95 123.73 27.24 122.76 27.24C121.95 27.24 121.33 27.86 121.33 28.61L121.33 36.75C121.33 37.52 121.95 38.13 122.72 38.13C123.51 38.13 124.13 37.52 124.13 36.75L124.13 31.73C124.13 30.70 124.92 29.60 126.11 29.60C127.25 29.60 127.91 30.74 127.91 31.73L127.91 36.75C127.91 37.52 128.53 38.13 129.30 38.13C130.11 38.13 130.73 37.52 130.73 36.75L130.73 31.93C130.73 30.70 131.50 29.60 132.71 29.60C133.85 29.60 134.51 30.74 134.51 31.73L134.51 36.75C134.51 37.52 135.13 38.13 135.90 38.13C136.71 38.13 137.33 37.52 137.33 36.75ZM156.07 31.20C156.07 29.02 154.55 27.11 152.16 27.11C150.31 27.11 149.25 28.19 148.86 28.94C148.46 28.17 147.47 27.11 145.69 27.11C144.06 27.11 143.31 27.70 142.87 28.28L142.87 28.25C142.87 27.95 142.48 27.24 141.51 27.24C140.69 27.24 140.08 27.86 140.08 28.61L140.08 36.75C140.08 37.52 140.69 38.13 141.46 38.13C142.26 38.13 142.87 37.52 142.87 36.75L142.87 31.73C142.87 30.70 143.66 29.60 144.85 29.60C146.00 29.60 146.66 30.74 146.66 31.73L146.66 36.75C146.66 37.52 147.27 38.13 148.04 38.13C148.86 38.13 149.47 37.52 149.47 36.75L149.47 31.93C149.47 30.70 150.24 29.60 151.45 29.60C152.60 29.60 153.26 30.74 153.26 31.73L153.26 36.75C153.26 37.52 153.87 38.13 154.64 38.13C155.46 38.13 156.07 37.52 156.07 36.75ZM160.21 22.91C159.31 22.91 158.54 23.63 158.54 24.56C158.54 25.48 159.31 26.23 160.21 26.23C161.13 26.23 161.88 25.48 161.88 24.56C161.88 23.63 161.13 22.91 160.21 22.91ZM161.62 28.61C161.62 27.86 161 27.24 160.25 27.24C159.44 27.24 158.82 27.86 158.82 28.61L158.82 36.75C158.82 37.52 159.44 38.13 160.21 38.13C161 38.13 161.62 37.52 161.62 36.75ZM170.20 36.99C170.20 36.31 169.76 35.78 168.96 35.78L168.72 35.78C168.28 35.78 167.75 35.45 167.75 34.61L167.75 29.82L168.85 29.82C169.49 29.82 170.04 29.27 170.04 28.61C170.04 27.92 169.49 27.37 168.85 27.37L167.75 27.37L167.75 25.72C167.75 24.95 167.14 24.34 166.37 24.34C165.55 24.34 164.94 24.95 164.94 25.72L164.94 27.37L164.26 27.37C163.60 27.37 163.05 27.92 163.05 28.56C163.05 29.27 163.60 29.82 164.26 29.82L164.94 29.82L164.94 35.36C164.94 37.25 165.99 38.26 167.95 38.26C169.78 38.26 170.20 37.69 170.20 36.99ZM180.25 34.85C180.25 30.56 173.96 31.88 173.96 30.30C173.96 29.71 174.62 29.24 175.63 29.24C176.49 29.24 177.35 29.49 178.03 29.88C178.18 29.97 178.38 30.01 178.56 30.01C179.13 30.01 179.66 29.55 179.66 28.96C179.66 28.76 179.59 28.56 179.48 28.41C178.89 27.55 176.99 27.11 175.61 27.11C172.81 27.11 171.25 28.67 171.25 30.45C171.25 34.63 177.57 33.20 177.57 34.96C177.57 35.62 176.99 36.11 175.78 36.11C174.86 36.11 173.76 35.73 172.92 35.25C172.75 35.14 172.55 35.10 172.35 35.10C171.76 35.10 171.19 35.60 171.19 36.26C171.19 36.48 171.25 36.68 171.38 36.86C172.04 37.80 174.27 38.26 175.65 38.26C178.60 38.26 180.25 36.79 180.25 34.85Z" fill="#22272e" /><path d="M20.26 49.88C20.26 49.54 19.98 49.25 19.64 49.25C19.26 49.25 18.98 49.54 18.98 49.88L18.98 57.44C18.98 57.79 19.26 58.08 19.61 58.08C19.98 58.08 20.26 57.79 20.26 57.44ZM27.55 53.97C27.55 52.64 26.59 51.56 25.27 51.56C24.18 51.56 23.62 52.10 23.32 52.60L23.32 52.20C23.32 51.90 23.06 51.64 22.76 51.64C22.42 51.64 22.16 51.90 22.16 52.20L22.16 57.51C22.16 57.82 22.42 58.08 22.73 58.08C23.06 58.08 23.32 57.82 23.32 57.51L23.32 54.49C23.32 53.42 23.89 52.59 24.89 52.59C25.83 52.59 26.40 53.32 26.40 54.36L26.40 57.51C26.40 57.82 26.66 58.08 26.97 58.08C27.30 58.08 27.55 57.82 27.55 57.51ZM38.97 49.91C38.97 49.58 38.72 49.33 38.41 49.33L32.70 49.33C32.39 49.33 32.14 49.58 32.14 49.89C32.14 50.21 32.39 50.47 32.70 50.47L34.91 50.47L34.91 57.44C34.91 57.79 35.20 58.08 35.55 58.08C35.91 58.08 36.20 57.79 36.20 57.44L36.20 50.47L38.41 50.47C38.72 50.47 38.97 50.21 38.97 49.91ZM44.74 54.85C44.74 53.05 43.53 51.56 41.57 51.56C39.62 51.56 38.41 53.05 38.41 54.85C38.41 56.66 39.62 58.16 41.57 58.16C43.53 58.16 44.74 56.66 44.74 54.85ZM43.53 54.85C43.53 56.06 42.83 57.13 41.57 57.13C40.32 57.13 39.61 56.06 39.61 54.85C39.61 53.66 40.32 52.59 41.57 52.59C42.83 52.59 43.53 53.66 43.53 54.85ZM49.16 57.55C49.16 57.27 48.95 57.06 48.67 57.06C48.54 57.06 48.38 57.13 48.24 57.13C47.86 57.13 47.63 56.83 47.63 56.35L47.63 52.73L48.48 52.73C48.76 52.73 48.98 52.51 48.98 52.24C48.98 51.94 48.76 51.72 48.48 51.72L47.63 51.72L47.63 50.49C47.63 50.19 47.37 49.93 47.05 49.93C46.72 49.93 46.46 50.19 46.46 50.49L46.46 51.72L45.85 51.72C45.56 51.72 45.34 51.94 45.34 52.22C45.34 52.51 45.56 52.73 45.85 52.73L46.46 52.73L46.46 56.62C46.46 57.61 46.98 58.16 47.96 58.16C48.65 58.16 49.16 57.96 49.16 57.55ZM55.26 53.75C55.26 52.15 54.09 51.56 52.74 51.56C51.89 51.56 50.94 51.84 50.34 52.44C50.27 52.53 50.23 52.63 50.23 52.73C50.23 53.01 50.47 53.19 50.71 53.19C50.80 53.19 50.90 53.15 50.99 53.09C51.46 52.72 51.98 52.54 52.57 52.54C53.45 52.54 54.10 53.01 54.10 53.80L54.10 54.15L52.29 54.15C50.99 54.15 49.85 54.66 49.85 56.08C49.85 57.45 50.99 58.16 52.03 58.16C53.01 58.16 53.59 57.86 54.10 57.30L54.10 57.51C54.10 57.88 54.40 58.08 54.63 58.08L54.67 58.08C55.00 58.08 55.26 57.82 55.26 57.51ZM54.10 54.96L54.10 55.84C54.10 56.58 53.26 57.34 52.35 57.34C51.50 57.34 51.02 56.83 51.02 56.10C51.02 55.35 51.62 54.96 52.61 54.96ZM58.27 49.81C58.27 49.51 58.01 49.25 57.71 49.25C57.38 49.25 57.12 49.51 57.12 49.81L57.12 57.51C57.12 57.82 57.38 58.08 57.69 58.08C58.01 58.08 58.27 57.82 58.27 57.51Z" fill="#627386" /><line x1="18" y1="76" x2="48" y2="76" stroke="#627386" stroke-opacity="0.4" /><g aria-label="Additions: 32,453,136"><circle cx="22" cy="96" r="4" fill="#00d559" /><path d="M42.28 99.39C42.28 99.31 42.27 99.23 42.23 99.14L39.36 91.94C39.19 91.51 38.76 91.24 38.30 91.25C37.85 91.25 37.43 91.52 37.28 91.94L34.40 99.14C34.38 99.23 34.36 99.31 34.36 99.39C34.36 99.74 34.65 100.08 35.05 100.08C35.33 100.08 35.57 99.92 35.68 99.66L36.25 98.19L40.40 98.19L40.97 99.66C41.07 99.92 41.32 100.08 41.59 100.08C42.01 100.08 42.28 99.71 42.28 99.39ZM38.32 92.64L40.03 97.06L36.61 97.06ZM49.22 91.81C49.22 91.51 48.96 91.25 48.66 91.25C48.33 91.25 48.07 91.51 48.07 91.81L48.07 94.63C47.56 93.95 46.95 93.56 46.00 93.56C44.36 93.56 43.20 94.85 43.20 96.87C43.20 98.92 44.37 100.16 46.00 100.16C46.97 100.16 47.59 99.73 48.07 99.10L48.07 99.51C48.07 99.82 48.33 100.08 48.64 100.08C48.96 100.08 49.22 99.82 49.22 99.51ZM48.07 96.91C48.07 98.21 47.42 99.13 46.30 99.13C45.13 99.13 44.40 98.18 44.40 96.87C44.40 95.55 45.13 94.59 46.30 94.59C47.42 94.59 48.07 95.54 48.07 96.83ZM56.74 91.81C56.74 91.51 56.48 91.25 56.18 91.25C55.84 91.25 55.58 91.51 55.58 91.81L55.58 94.63C55.07 93.95 54.46 93.56 53.51 93.56C51.88 93.56 50.72 94.85 50.72 96.87C50.72 98.92 51.89 100.16 53.51 100.16C54.49 100.16 55.10 99.73 55.58 99.10L55.58 99.51C55.58 99.82 55.84 100.08 56.15 100.08C56.48 100.08 56.74 99.82 56.74 99.51ZM55.58 96.91C55.58 98.21 54.93 99.13 53.81 99.13C52.64 99.13 51.91 98.18 51.91 96.87C51.91 95.55 52.64 94.59 53.81 94.59C54.93 94.59 55.58 95.54 55.58 96.83ZM59.18 91.39C58.78 91.39 58.44 91.73 58.44 92.15C58.44 92.55 58.78 92.89 59.18 92.89C59.60 92.89 59.92 92.55 59.92 92.15C59.92 91.73 59.60 91.39 59.18 91.39ZM59.77 94.20C59.77 93.90 59.51 93.64 59.21 93.64C58.87 93.64 58.61 93.90 58.61 94.20L58.61 99.51C58.61 99.82 58.87 100.08 59.18 100.08C59.51 100.08 59.77 99.82 59.77 99.51ZM64.56 99.55C64.56 99.27 64.36 99.06 64.07 99.06C63.94 99.06 63.78 99.13 63.64 99.13C63.26 99.13 63.03 98.83 63.03 98.35L63.03 94.73L63.89 94.73C64.16 94.73 64.38 94.51 64.38 94.24C64.38 93.94 64.16 93.72 63.89 93.72L63.03 93.72L63.03 92.49C63.03 92.19 62.77 91.93 62.46 91.93C62.12 91.93 61.86 92.19 61.86 92.49L61.86 93.72L61.25 93.72C60.96 93.72 60.74 93.94 60.74 94.22C60.74 94.51 60.96 94.73 61.25 94.73L61.86 94.73L61.86 98.62C61.86 99.61 62.38 100.16 63.37 100.16C64.06 100.16 64.56 99.96 64.56 99.55ZM66.19 91.39C65.79 91.39 65.45 91.73 65.45 92.15C65.45 92.55 65.79 92.89 66.19 92.89C66.60 92.89 66.93 92.55 66.93 92.15C66.93 91.73 66.60 91.39 66.19 91.39ZM66.77 94.20C66.77 93.90 66.51 93.64 66.21 93.64C65.88 93.64 65.62 93.90 65.62 94.20L65.62 99.51C65.62 99.82 65.88 100.08 66.19 100.08C66.51 100.08 66.77 99.82 66.77 99.51ZM74.60 96.85C74.60 95.05 73.39 93.56 71.43 93.56C69.48 93.56 68.27 95.05 68.27 96.85C68.27 98.66 69.48 100.16 71.43 100.16C73.39 100.16 74.60 98.66 74.60 96.85ZM73.39 96.85C73.39 98.06 72.69 99.13 71.43 99.13C70.18 99.13 69.46 98.06 69.46 96.85C69.46 95.66 70.18 94.59 71.43 94.59C72.69 94.59 73.39 95.66 73.39 96.85ZM81.49 95.97C81.49 94.64 80.53 93.56 79.20 93.56C78.11 93.56 77.55 94.10 77.25 94.61L77.25 94.20C77.25 93.90 76.99 93.64 76.69 93.64C76.35 93.64 76.09 93.90 76.09 94.20L76.09 99.51C76.09 99.82 76.35 100.08 76.67 100.08C76.99 100.08 77.25 99.82 77.25 99.51L77.25 96.49C77.25 95.42 77.82 94.59 78.82 94.59C79.76 94.59 80.33 95.32 80.33 96.36L80.33 99.51C80.33 99.82 80.59 100.08 80.90 100.08C81.23 100.08 81.49 99.82 81.49 99.51ZM87.96 98.10C87.85 95.89 84.24 96.50 84.11 95.37C84.06 94.86 84.61 94.49 85.40 94.49C86 94.49 86.56 94.68 86.96 94.97C87.04 95.03 87.13 95.06 87.23 95.06C87.47 95.06 87.69 94.86 87.69 94.61C87.69 94.50 87.65 94.40 87.57 94.32C87.08 93.84 86.29 93.56 85.39 93.56C83.86 93.56 82.93 94.29 83.00 95.41C83.11 97.52 86.70 96.87 86.83 98.26C86.88 98.83 86.36 99.23 85.47 99.23C84.82 99.23 84.17 98.97 83.70 98.64C83.61 98.57 83.52 98.54 83.40 98.54C83.13 98.54 82.89 98.75 82.89 99.03C82.89 99.16 82.94 99.26 83.04 99.34C83.61 99.91 84.56 100.16 85.41 100.16C87.08 100.16 88.03 99.30 87.96 98.10Z" fill="#22272e" /><path d="M160.08 97.63C160.19 96.07 159.14 95.53 159.14 95.53C159.14 95.53 160.10 95.03 159.99 93.55C159.89 92.11 158.75 91.20 156.72 91.20C155.52 91.20 154.59 91.55 153.87 92.12C153.69 92.27 153.60 92.47 153.60 92.68C153.60 93.14 154.00 93.46 154.40 93.46C154.56 93.46 154.72 93.42 154.85 93.33C155.35 93.01 155.92 92.84 156.52 92.84C157.43 92.84 158.13 93.05 158.13 93.73C158.13 94.45 157.71 94.79 156.83 94.79C156.21 94.79 155.94 95.14 155.94 95.59C155.94 96.05 156.21 96.41 156.89 96.41C157.77 96.41 158.28 96.72 158.28 97.41C158.28 98.06 157.69 98.52 156.64 98.52C156.04 98.52 155.35 98.31 154.78 97.97C154.64 97.88 154.48 97.84 154.33 97.84C153.90 97.84 153.48 98.19 153.48 98.66C153.48 98.79 153.52 98.91 153.58 99.01C153.99 99.69 155.46 100.16 156.70 100.16C158.78 100.16 159.98 99.26 160.08 97.63ZM167.87 99.17C167.87 98.74 167.51 98.38 167.08 98.38L164.26 98.38C166.51 96.74 167.73 95.45 167.73 93.97C167.73 92.24 166.26 91.20 164.41 91.20C163.32 91.20 161.87 91.67 161.45 92.33C161.37 92.45 161.33 92.58 161.33 92.71C161.33 93.17 161.71 93.54 162.14 93.54C162.33 93.54 162.50 93.49 162.67 93.37C163.17 93.03 163.76 92.84 164.45 92.84C165.17 92.84 165.86 93.21 165.86 93.97C165.86 94.98 164.82 95.93 161.58 98.32C161.33 98.50 161.19 98.80 161.19 99.10C161.19 99.62 161.61 100 162.06 100L167.08 100C167.51 100 167.87 99.64 167.87 99.17ZM171.25 99.36C171.25 98.52 170.69 98.04 170.08 98.04C169.54 98.04 169.07 98.50 169.07 99.08C169.07 99.64 169.46 100.01 169.95 100.01C170.04 100.01 170.16 99.99 170.20 99.97C170.12 100.31 169.83 100.72 169.50 100.99C169.41 101.07 169.37 101.17 169.37 101.27C169.37 101.53 169.64 101.69 169.86 101.69C169.99 101.69 170.11 101.65 170.20 101.56C170.85 100.97 171.25 100.19 171.25 99.36ZM179.30 97.40C179.30 96.94 178.94 96.58 178.51 96.58L178.10 96.58L178.10 92.29C178.10 91.48 177.32 91.12 176.53 91.25C175.97 91.25 175.41 91.55 175.11 92.02L172.21 96.59C172.10 96.78 172.04 96.98 172.04 97.19C172.04 97.78 172.47 98.21 172.99 98.21L176.26 98.21L176.26 99.17C176.26 99.66 176.67 100.08 177.17 100.08C177.69 100.08 178.10 99.66 178.10 99.17L178.10 98.21L178.51 98.21C178.94 98.21 179.30 97.84 179.30 97.40ZM173.92 96.58L176.26 92.97L176.26 96.58ZM187.00 97.15C187.00 95.40 185.68 94.34 184.21 94.34C183.42 94.34 182.72 94.66 182.30 95.07L182.30 92.95L185.69 92.95C186.12 92.95 186.49 92.59 186.49 92.15C186.49 91.69 186.12 91.33 185.69 91.33L181.50 91.33C180.92 91.33 180.46 91.80 180.46 92.37L180.46 95.70C180.46 96.20 180.82 96.58 181.39 96.58C181.65 96.58 181.90 96.50 182.11 96.36C182.57 96.05 183.03 95.94 183.56 95.94C184.55 95.94 185.12 96.46 185.12 97.23C185.12 97.93 184.54 98.52 183.51 98.52C182.89 98.52 182.29 98.35 181.78 98.04C181.63 97.95 181.46 97.89 181.30 97.89C180.85 97.89 180.42 98.25 180.42 98.73C180.42 98.86 180.46 98.99 180.52 99.10C180.92 99.78 182.39 100.16 183.52 100.16C185.62 100.16 187.00 99.00 187.00 97.15ZM194.51 97.63C194.61 96.07 193.56 95.53 193.56 95.53C193.56 95.53 194.52 95.03 194.42 93.55C194.31 92.11 193.17 91.20 191.14 91.20C189.95 91.20 189.01 91.55 188.29 92.12C188.11 92.27 188.02 92.47 188.02 92.68C188.02 93.14 188.42 93.46 188.83 93.46C188.98 93.46 189.14 93.42 189.27 93.33C189.78 93.01 190.35 92.84 190.95 92.84C191.86 92.84 192.56 93.05 192.56 93.73C192.56 94.45 192.13 94.79 191.26 94.79C190.63 94.79 190.36 95.14 190.36 95.59C190.36 96.05 190.63 96.41 191.31 96.41C192.19 96.41 192.70 96.72 192.70 97.41C192.70 98.06 192.12 98.52 191.06 98.52C190.47 98.52 189.78 98.31 189.20 97.97C189.06 97.88 188.91 97.84 188.75 97.84C188.32 97.84 187.91 98.19 187.91 98.66C187.91 98.79 187.94 98.91 188.01 99.01C188.41 99.69 189.88 100.16 191.13 100.16C193.21 100.16 194.41 99.26 194.51 97.63ZM197.88 99.36C197.88 98.52 197.32 98.04 196.71 98.04C196.16 98.04 195.69 98.50 195.69 99.08C195.69 99.64 196.08 100.01 196.58 100.01C196.67 100.01 196.78 99.99 196.82 99.97C196.74 100.31 196.46 100.72 196.12 100.99C196.03 101.07 195.99 101.17 195.99 101.27C195.99 101.53 196.26 101.69 196.48 101.69C196.61 101.69 196.73 101.65 196.82 101.56C197.47 100.97 197.88 100.19 197.88 99.36ZM201.61 92.32C201.61 91.73 201.11 91.26 200.53 91.26C200.23 91.26 199.94 91.38 199.75 91.58L197.75 93.60C197.59 93.76 197.51 93.95 197.51 94.15C197.51 94.58 197.88 94.92 198.28 94.92C198.46 94.92 198.64 94.85 198.79 94.71L199.76 93.71L199.76 99.17C199.76 99.66 200.18 100.08 200.67 100.08C201.19 100.08 201.61 99.66 201.61 99.17ZM209.52 97.63C209.63 96.07 208.57 95.53 208.57 95.53C208.57 95.53 209.54 95.03 209.43 93.55C209.33 92.11 208.18 91.20 206.16 91.20C204.96 91.20 204.02 91.55 203.31 92.12C203.13 92.27 203.04 92.47 203.04 92.68C203.04 93.14 203.44 93.46 203.84 93.46C204.00 93.46 204.15 93.42 204.28 93.33C204.79 93.01 205.36 92.84 205.96 92.84C206.87 92.84 207.57 93.05 207.57 93.73C207.57 94.45 207.14 94.79 206.27 94.79C205.65 94.79 205.38 95.14 205.38 95.59C205.38 96.05 205.65 96.41 206.33 96.41C207.21 96.41 207.72 96.72 207.72 97.41C207.72 98.06 207.13 98.52 206.08 98.52C205.48 98.52 204.79 98.31 204.22 97.97C204.08 97.88 203.92 97.84 203.76 97.84C203.34 97.84 202.92 98.19 202.92 98.66C202.92 98.79 202.96 98.91 203.02 99.01C203.43 99.69 204.90 100.16 206.14 100.16C208.22 100.16 209.42 99.26 209.52 97.63ZM217.60 97.18C217.60 95.33 216.21 94.36 214.65 94.36C213.57 94.36 212.76 94.89 212.42 95.48C212.41 95.41 212.41 95.36 212.41 95.29C212.41 93.92 213.31 92.84 214.58 92.84C215.02 92.84 215.39 92.91 215.71 93.08C215.83 93.15 215.96 93.17 216.09 93.17C216.49 93.17 216.93 92.86 216.93 92.37C216.93 92.24 216.89 92.12 216.84 92.02C216.52 91.45 215.43 91.20 214.58 91.20C212.02 91.20 210.54 93.06 210.54 95.68C210.54 98.13 211.64 100.16 214.28 100.16C216.26 100.16 217.60 98.87 217.60 97.18ZM215.72 97.24C215.72 97.89 215.24 98.52 214.24 98.52C213.42 98.52 212.81 97.96 212.81 97.15C212.81 96.37 213.44 95.81 214.24 95.81C215.07 95.81 215.72 96.37 215.72 97.24Z" fill="#627386" /></g><g aria-label="Deletions: 14,678,120"><circle cx="22" cy="118" r="4" fill="#00a5fe" /><path d="M42.54 117.67C42.54 115.17 40.76 113.33 38.06 113.33L35.82 113.33C35.35 113.33 34.98 113.71 34.98 114.17L34.98 121.16C34.98 121.62 35.35 122 35.82 122L38.06 122C40.76 122 42.54 120.18 42.54 117.67ZM41.23 117.67C41.23 119.43 40.06 120.86 38.06 120.86L36.26 120.86L36.26 114.47L38.06 114.47C40.11 114.47 41.23 115.89 41.23 117.67ZM49.90 118.65C49.90 118.40 49.83 118.13 49.78 117.92C49.42 116.51 48.38 115.56 46.86 115.56C45.04 115.56 43.72 117.03 43.72 118.85C43.72 120.83 45.09 122.16 46.96 122.16C47.88 122.16 49.50 121.67 49.50 120.97C49.50 120.53 49.05 120.43 48.77 120.57C48.31 120.91 47.61 121.22 47.08 121.22C45.80 121.22 45.02 120.35 44.93 119.27L49.30 119.27C49.63 119.27 49.90 118.96 49.90 118.65ZM44.93 118.41C44.98 117.54 45.60 116.50 46.84 116.50C48.18 116.50 48.76 117.57 48.78 118.41ZM52.54 113.81C52.54 113.51 52.28 113.25 51.98 113.25C51.64 113.25 51.38 113.51 51.38 113.81L51.38 121.51C51.38 121.82 51.64 122.08 51.95 122.08C52.28 122.08 52.54 121.82 52.54 121.51ZM60.21 118.65C60.21 118.40 60.14 118.13 60.09 117.92C59.73 116.51 58.69 115.56 57.17 115.56C55.35 115.56 54.03 117.03 54.03 118.85C54.03 120.83 55.40 122.16 57.27 122.16C58.19 122.16 59.81 121.67 59.81 120.97C59.81 120.53 59.36 120.43 59.08 120.57C58.62 120.91 57.92 121.22 57.39 121.22C56.11 121.22 55.33 120.35 55.24 119.27L59.61 119.27C59.94 119.27 60.21 118.96 60.21 118.65ZM55.24 118.41C55.29 117.54 55.91 116.50 57.15 116.50C58.49 116.50 59.06 117.57 59.09 118.41ZM64.62 121.55C64.62 121.27 64.41 121.06 64.12 121.06C63.99 121.06 63.84 121.13 63.69 121.13C63.32 121.13 63.08 120.83 63.08 120.35L63.08 116.73L63.94 116.73C64.21 116.73 64.43 116.51 64.43 116.24C64.43 115.94 64.21 115.72 63.94 115.72L63.08 115.72L63.08 114.49C63.08 114.19 62.82 113.93 62.51 113.93C62.17 113.93 61.91 114.19 61.91 114.49L61.91 115.72L61.30 115.72C61.01 115.72 60.79 115.94 60.79 116.22C60.79 116.51 61.01 116.73 61.30 116.73L61.91 116.73L61.91 120.62C61.91 121.61 62.43 122.16 63.42 122.16C64.11 122.16 64.62 121.96 64.62 121.55ZM66.24 113.39C65.84 113.39 65.50 113.73 65.50 114.15C65.50 114.55 65.84 114.89 66.24 114.89C66.66 114.89 66.98 114.55 66.98 114.15C66.98 113.73 66.66 113.39 66.24 113.39ZM66.83 116.20C66.83 115.90 66.56 115.64 66.27 115.64C65.93 115.64 65.67 115.90 65.67 116.20L65.67 121.51C65.67 121.82 65.93 122.08 66.24 122.08C66.56 122.08 66.83 121.82 66.83 121.51ZM74.65 118.85C74.65 117.05 73.44 115.56 71.48 115.56C69.53 115.56 68.32 117.05 68.32 118.85C68.32 120.66 69.53 122.16 71.48 122.16C73.44 122.16 74.65 120.66 74.65 118.85ZM73.44 118.85C73.44 120.06 72.74 121.13 71.48 121.13C70.23 121.13 69.52 120.06 69.52 118.85C69.52 117.66 70.23 116.59 71.48 116.59C72.74 116.59 73.44 117.66 73.44 118.85ZM81.54 117.97C81.54 116.64 80.58 115.56 79.25 115.56C78.16 115.56 77.60 116.10 77.30 116.61L77.30 116.20C77.30 115.90 77.04 115.64 76.74 115.64C76.41 115.64 76.15 115.90 76.15 116.20L76.15 121.51C76.15 121.82 76.41 122.08 76.72 122.08C77.04 122.08 77.30 121.82 77.30 121.51L77.30 118.49C77.30 117.42 77.88 116.59 78.88 116.59C79.81 116.59 80.38 117.32 80.38 118.36L80.38 121.51C80.38 121.82 80.64 122.08 80.96 122.08C81.28 122.08 81.54 121.82 81.54 121.51ZM88.01 120.10C87.90 117.89 84.30 118.50 84.17 117.37C84.11 116.86 84.66 116.49 85.45 116.49C86.05 116.49 86.61 116.68 87.01 116.97C87.09 117.03 87.18 117.06 87.29 117.06C87.52 117.06 87.74 116.86 87.74 116.61C87.74 116.50 87.70 116.40 87.62 116.32C87.13 115.84 86.34 115.56 85.44 115.56C83.91 115.56 82.98 116.29 83.05 117.41C83.17 119.52 86.75 118.87 86.88 120.26C86.94 120.83 86.42 121.23 85.52 121.23C84.87 121.23 84.22 120.97 83.75 120.64C83.66 120.57 83.57 120.54 83.45 120.54C83.18 120.54 82.94 120.75 82.94 121.03C82.94 121.16 83.00 121.26 83.09 121.34C83.66 121.91 84.61 122.16 85.47 122.16C87.13 122.16 88.08 121.30 88.01 120.10Z" fill="#22272e" /><path d="M160.22 114.32C160.22 113.73 159.72 113.26 159.14 113.26C158.84 113.26 158.55 113.38 158.36 113.58L156.35 115.60C156.20 115.76 156.12 115.95 156.12 116.15C156.12 116.58 156.48 116.92 156.89 116.92C157.07 116.92 157.25 116.85 157.39 116.71L158.37 115.71L158.37 121.17C158.37 121.66 158.78 122.08 159.28 122.08C159.80 122.08 160.22 121.66 160.22 121.17ZM168.59 119.40C168.59 118.94 168.22 118.58 167.79 118.58L167.39 118.58L167.39 114.29C167.39 113.48 166.61 113.12 165.82 113.25C165.26 113.25 164.70 113.55 164.40 114.02L161.50 118.59C161.38 118.78 161.33 118.98 161.33 119.19C161.33 119.78 161.76 120.21 162.28 120.21L165.54 120.21L165.54 121.17C165.54 121.66 165.96 122.08 166.45 122.08C166.97 122.08 167.39 121.66 167.39 121.17L167.39 120.21L167.79 120.21C168.22 120.21 168.59 119.84 168.59 119.40ZM163.20 118.58L165.54 114.97L165.54 118.58ZM171.63 121.36C171.63 120.52 171.07 120.04 170.46 120.04C169.91 120.04 169.44 120.50 169.44 121.08C169.44 121.64 169.83 122.01 170.33 122.01C170.42 122.01 170.54 121.99 170.58 121.97C170.50 122.31 170.21 122.72 169.87 122.99C169.78 123.07 169.74 123.17 169.74 123.27C169.74 123.53 170.02 123.69 170.24 123.69C170.37 123.69 170.48 123.65 170.58 123.56C171.23 122.97 171.63 122.19 171.63 121.36ZM179.39 119.18C179.39 117.33 178.00 116.36 176.44 116.36C175.36 116.36 174.55 116.89 174.22 117.48C174.20 117.41 174.20 117.36 174.20 117.29C174.20 115.92 175.10 114.84 176.37 114.84C176.82 114.84 177.18 114.91 177.50 115.08C177.62 115.15 177.75 115.17 177.88 115.17C178.28 115.17 178.73 114.86 178.73 114.37C178.73 114.24 178.69 114.12 178.64 114.02C178.31 113.45 177.22 113.20 176.37 113.20C173.81 113.20 172.33 115.06 172.33 117.68C172.33 120.13 173.44 122.16 176.07 122.16C178.05 122.16 179.39 120.87 179.39 119.18ZM177.52 119.24C177.52 119.89 177.04 120.52 176.04 120.52C175.22 120.52 174.61 119.96 174.61 119.15C174.61 118.37 175.23 117.81 176.04 117.81C176.87 117.81 177.52 118.37 177.52 119.24ZM186.70 114.27C186.70 113.72 186.25 113.33 185.80 113.33L180.83 113.33C180.39 113.33 180.03 113.69 180.03 114.12C180.03 114.59 180.39 114.95 180.83 114.95L184.47 114.95L181.89 120.82C181.83 120.93 181.81 121.05 181.81 121.17C181.81 121.64 182.18 122.08 182.73 122.08C183.11 122.08 183.46 121.86 183.60 121.52L186.62 114.63C186.67 114.53 186.70 114.39 186.70 114.27ZM194.30 119.62C194.30 118.44 193.60 117.76 193.08 117.53C193.52 117.32 194.16 116.83 194.16 115.49C194.16 113.99 192.55 113.20 190.82 113.20C189.07 113.20 187.48 113.99 187.48 115.49C187.48 116.83 188.10 117.32 188.54 117.53C188.02 117.76 187.33 118.44 187.33 119.62C187.33 121.25 189.00 122.16 190.82 122.16C192.64 122.16 194.30 121.23 194.30 119.62ZM192.27 115.77C192.27 116.42 191.61 116.80 190.82 116.80C190.02 116.80 189.35 116.42 189.35 115.77C189.35 115.15 189.96 114.78 190.82 114.78C191.66 114.78 192.27 115.15 192.27 115.77ZM192.43 119.52C192.43 120.15 191.70 120.57 190.82 120.57C189.91 120.57 189.20 120.15 189.20 119.52C189.20 118.79 190.01 118.36 190.82 118.36C191.61 118.36 192.43 118.79 192.43 119.52ZM197.55 121.36C197.55 120.52 196.99 120.04 196.38 120.04C195.84 120.04 195.37 120.50 195.37 121.08C195.37 121.64 195.76 122.01 196.25 122.01C196.34 122.01 196.46 121.99 196.50 121.97C196.42 122.31 196.13 122.72 195.80 122.99C195.71 123.07 195.67 123.17 195.67 123.27C195.67 123.53 195.94 123.69 196.16 123.69C196.29 123.69 196.41 123.65 196.50 123.56C197.15 122.97 197.55 122.19 197.55 121.36ZM201.28 114.32C201.28 113.73 200.79 113.26 200.20 113.26C199.90 113.26 199.62 113.38 199.42 113.58L197.42 115.60C197.26 115.76 197.19 115.95 197.19 116.15C197.19 116.58 197.55 116.92 197.95 116.92C198.14 116.92 198.32 116.85 198.46 116.71L199.44 115.71L199.44 121.17C199.44 121.66 199.85 122.08 200.35 122.08C200.87 122.08 201.28 121.66 201.28 121.17ZM209.35 121.17C209.35 120.74 208.99 120.38 208.56 120.38L205.74 120.38C207.99 118.74 209.21 117.45 209.21 115.97C209.21 114.24 207.74 113.20 205.90 113.20C204.80 113.20 203.35 113.67 202.93 114.33C202.85 114.45 202.82 114.58 202.82 114.71C202.82 115.17 203.19 115.54 203.62 115.54C203.82 115.54 203.99 115.49 204.15 115.37C204.65 115.03 205.25 114.84 205.94 114.84C206.65 114.84 207.34 115.21 207.34 115.97C207.34 116.98 206.30 117.93 203.06 120.32C202.82 120.50 202.67 120.80 202.67 121.10C202.67 121.62 203.09 122 203.54 122L208.56 122C208.99 122 209.35 121.64 209.35 121.17ZM217.56 117.67C217.56 115.44 216.44 113.20 213.97 113.20C211.49 113.20 210.38 115.44 210.38 117.67C210.38 119.91 211.49 122.16 213.97 122.16C216.44 122.16 217.56 119.91 217.56 117.67ZM215.67 117.67C215.67 119.27 215.20 120.52 213.97 120.52C212.72 120.52 212.25 119.27 212.25 117.67C212.25 116.07 212.72 114.84 213.97 114.84C215.20 114.84 215.67 116.07 215.67 117.67Z" fill="#627386" /></g><g aria-label="Changed Files: 510,425"><circle cx="22" cy="140" r="4" fill="#673bd6" /><path d="M39.11 135.19C36.59 135.19 34.60 137.01 34.60 139.67C34.60 142.34 36.59 144.16 39.11 144.16C40.46 144.16 41.40 143.60 42.07 142.87C42.18 142.76 42.23 142.62 42.23 142.47C42.23 142.15 41.97 141.87 41.63 141.87C41.46 141.87 41.28 141.95 41.18 142.08C40.64 142.67 39.88 143.01 39.11 143.01C37.29 143.01 35.94 141.61 35.94 139.67C35.94 137.72 37.29 136.33 39.11 136.33C39.86 136.33 40.67 136.69 41.18 137.28C41.28 137.42 41.46 137.49 41.62 137.49C41.96 137.49 42.23 137.21 42.23 136.89C42.23 136.73 42.18 136.59 42.07 136.47C41.41 135.73 40.46 135.19 39.11 135.19ZM49.17 139.94C49.17 138.62 48.22 137.56 46.90 137.56C45.79 137.56 45.22 138.10 44.92 138.60L44.92 135.81C44.92 135.51 44.66 135.25 44.36 135.25C44.02 135.25 43.76 135.51 43.76 135.81L43.76 143.51C43.76 143.82 44.02 144.08 44.34 144.08C44.66 144.08 44.92 143.82 44.92 143.51L44.92 140.56C44.92 139.38 45.54 138.59 46.53 138.59C47.47 138.59 48.01 139.29 48.01 140.33L48.01 143.51C48.01 143.82 48.27 144.08 48.59 144.08C48.91 144.08 49.17 143.82 49.17 143.51ZM56.09 139.75C56.09 138.15 54.92 137.56 53.56 137.56C52.72 137.56 51.77 137.84 51.17 138.44C51.09 138.53 51.06 138.63 51.06 138.74C51.06 139.01 51.30 139.19 51.54 139.19C51.63 139.19 51.73 139.15 51.82 139.09C52.29 138.72 52.81 138.54 53.40 138.54C54.28 138.54 54.93 139.01 54.93 139.80L54.93 140.15L53.12 140.15C51.82 140.15 50.68 140.66 50.68 142.08C50.68 143.45 51.82 144.16 52.86 144.16C53.84 144.16 54.42 143.86 54.93 143.30L54.93 143.51C54.93 143.88 55.23 144.08 55.46 144.08L55.50 144.08C55.83 144.08 56.09 143.82 56.09 143.51ZM54.93 140.96L54.93 141.84C54.93 142.58 54.09 143.34 53.17 143.34C52.33 143.34 51.85 142.83 51.85 142.10C51.85 141.35 52.45 140.96 53.44 140.96ZM63.34 139.97C63.34 138.64 62.38 137.56 61.05 137.56C59.96 137.56 59.40 138.10 59.10 138.60L59.10 138.20C59.10 137.90 58.84 137.64 58.54 137.64C58.21 137.64 57.95 137.90 57.95 138.20L57.95 143.51C57.95 143.82 58.21 144.08 58.52 144.08C58.84 144.08 59.10 143.82 59.10 143.51L59.10 140.49C59.10 139.42 59.67 138.59 60.68 138.59C61.61 138.59 62.18 139.32 62.18 140.36L62.18 143.51C62.18 143.82 62.44 144.08 62.76 144.08C63.08 144.08 63.34 143.82 63.34 143.51ZM70.84 138.20C70.84 137.90 70.58 137.64 70.28 137.64C69.95 137.64 69.69 137.90 69.69 138.20L69.69 138.63C69.18 137.96 68.45 137.56 67.62 137.56C65.99 137.56 64.84 138.79 64.84 140.81C64.84 142.86 66.01 144.05 67.62 144.05C68.48 144.05 69.22 143.60 69.69 142.96L69.69 143.79C69.69 145.13 68.72 145.60 67.75 145.60C67.06 145.60 66.51 145.46 66.03 145.05C65.94 144.99 65.85 144.96 65.73 144.96C65.47 144.96 65.24 145.18 65.24 145.46C65.24 145.59 65.29 145.70 65.37 145.78C65.98 146.37 66.86 146.55 67.75 146.55C69.28 146.55 70.84 145.91 70.84 143.75ZM69.69 140.83C69.69 142.12 68.84 143.03 67.80 143.03C66.63 143.03 66.03 142.10 66.03 140.81C66.03 139.50 66.63 138.59 67.80 138.59C68.84 138.59 69.69 139.49 69.69 140.78ZM78.51 140.65C78.51 140.40 78.45 140.13 78.40 139.92C78.03 138.51 76.99 137.56 75.47 137.56C73.65 137.56 72.34 139.03 72.34 140.85C72.34 142.83 73.70 144.16 75.57 144.16C76.50 144.16 78.11 143.68 78.11 142.97C78.11 142.53 77.67 142.43 77.38 142.57C76.93 142.91 76.22 143.22 75.69 143.22C74.42 143.22 73.64 142.35 73.55 141.27L77.91 141.27C78.24 141.27 78.51 140.96 78.51 140.65ZM73.55 140.41C73.60 139.54 74.21 138.50 75.46 138.50C76.80 138.50 77.37 139.57 77.39 140.41ZM85.64 135.81C85.64 135.51 85.38 135.25 85.08 135.25C84.74 135.25 84.48 135.51 84.48 135.81L84.48 138.63C83.97 137.96 83.36 137.56 82.41 137.56C80.77 137.56 79.62 138.85 79.62 140.87C79.62 142.92 80.79 144.16 82.41 144.16C83.39 144.16 84.00 143.73 84.48 143.10L84.48 143.51C84.48 143.82 84.74 144.08 85.05 144.08C85.38 144.08 85.64 143.82 85.64 143.51ZM84.48 140.91C84.48 142.21 83.83 143.13 82.71 143.13C81.54 143.13 80.81 142.18 80.81 140.87C80.81 139.55 81.54 138.59 82.71 138.59C83.83 138.59 84.48 139.54 84.48 140.83ZM96.76 135.91C96.76 135.58 96.52 135.33 96.20 135.33L91.73 135.33C91.27 135.33 90.89 135.71 90.89 136.17L90.89 143.44C90.89 143.79 91.17 144.08 91.52 144.08C91.89 144.08 92.17 143.79 92.17 143.44L92.17 140.15L96.11 140.15C96.43 140.15 96.67 139.89 96.67 139.59C96.67 139.25 96.43 139.01 96.11 139.01L92.17 139.01L92.17 136.47L96.20 136.47C96.52 136.47 96.76 136.21 96.76 135.91ZM98.65 135.39C98.25 135.39 97.91 135.73 97.91 136.15C97.91 136.55 98.25 136.89 98.65 136.89C99.06 136.89 99.39 136.55 99.39 136.15C99.39 135.73 99.06 135.39 98.65 135.39ZM99.23 138.20C99.23 137.90 98.97 137.64 98.67 137.64C98.34 137.64 98.08 137.90 98.08 138.20L98.08 143.51C98.08 143.82 98.34 144.08 98.65 144.08C98.97 144.08 99.23 143.82 99.23 143.51ZM102.26 135.81C102.26 135.51 102.00 135.25 101.70 135.25C101.37 135.25 101.11 135.51 101.11 135.81L101.11 143.51C101.11 143.82 101.37 144.08 101.68 144.08C102.00 144.08 102.26 143.82 102.26 143.51ZM109.93 140.65C109.93 140.40 109.87 140.13 109.82 139.92C109.45 138.51 108.41 137.56 106.89 137.56C105.07 137.56 103.76 139.03 103.76 140.85C103.76 142.83 105.12 144.16 106.99 144.16C107.92 144.16 109.53 143.68 109.53 142.97C109.53 142.53 109.09 142.43 108.80 142.57C108.35 142.91 107.64 143.22 107.11 143.22C105.84 143.22 105.06 142.35 104.97 141.27L109.33 141.27C109.66 141.27 109.93 140.96 109.93 140.65ZM104.97 140.41C105.02 139.54 105.63 138.50 106.88 138.50C108.22 138.50 108.79 139.57 108.81 140.41ZM116.02 142.10C115.90 139.89 112.30 140.50 112.17 139.37C112.12 138.87 112.66 138.49 113.46 138.49C114.05 138.49 114.61 138.68 115.02 138.97C115.09 139.03 115.18 139.06 115.29 139.06C115.52 139.06 115.74 138.87 115.74 138.60C115.74 138.50 115.70 138.40 115.63 138.32C115.13 137.84 114.34 137.56 113.44 137.56C111.91 137.56 110.99 138.29 111.05 139.41C111.17 141.52 114.76 140.87 114.89 142.26C114.94 142.83 114.42 143.23 113.52 143.23C112.87 143.23 112.22 142.97 111.75 142.63C111.66 142.57 111.57 142.54 111.45 142.54C111.18 142.54 110.95 142.75 110.95 143.03C110.95 143.16 111.00 143.26 111.09 143.34C111.66 143.91 112.61 144.16 113.47 144.16C115.13 144.16 116.08 143.30 116.02 142.10Z" fill="#22272e" /><path d="M177.62 141.15C177.62 139.40 176.31 138.34 174.84 138.34C174.05 138.34 173.34 138.66 172.93 139.07L172.93 136.95L176.32 136.95C176.75 136.95 177.12 136.59 177.12 136.15C177.12 135.69 176.75 135.33 176.32 135.33L172.12 135.33C171.55 135.33 171.08 135.80 171.08 136.37L171.08 139.70C171.08 140.20 171.45 140.58 172.02 140.58C172.28 140.58 172.53 140.50 172.73 140.36C173.20 140.05 173.66 139.94 174.19 139.94C175.18 139.94 175.75 140.46 175.75 141.23C175.75 141.93 175.16 142.52 174.14 142.52C173.51 142.52 172.92 142.35 172.41 142.04C172.25 141.95 172.08 141.89 171.93 141.89C171.47 141.89 171.04 142.25 171.04 142.73C171.04 142.86 171.08 142.99 171.15 143.10C171.55 143.78 173.02 144.16 174.15 144.16C176.24 144.16 177.62 143.00 177.62 141.15ZM182.56 136.32C182.56 135.73 182.07 135.26 181.48 135.26C181.18 135.26 180.90 135.38 180.70 135.58L178.70 137.60C178.54 137.76 178.47 137.96 178.47 138.15C178.47 138.58 178.83 138.92 179.23 138.92C179.42 138.92 179.60 138.85 179.74 138.71L180.72 137.71L180.72 143.17C180.72 143.66 181.13 144.08 181.63 144.08C182.15 144.08 182.56 143.66 182.56 143.17ZM191.04 139.67C191.04 137.44 189.92 135.20 187.45 135.20C184.97 135.20 183.86 137.44 183.86 139.67C183.86 141.91 184.97 144.16 187.45 144.16C189.92 144.16 191.04 141.91 191.04 139.67ZM189.15 139.67C189.15 141.27 188.69 142.52 187.45 142.52C186.20 142.52 185.73 141.27 185.73 139.67C185.73 138.07 186.20 136.84 187.45 136.84C188.69 136.84 189.15 138.07 189.15 139.67ZM194.00 143.36C194.00 142.52 193.44 142.04 192.83 142.04C192.29 142.04 191.82 142.50 191.82 143.08C191.82 143.64 192.21 144.01 192.70 144.01C192.79 144.01 192.91 143.99 192.95 143.97C192.87 144.31 192.58 144.72 192.25 144.99C192.16 145.07 192.12 145.17 192.12 145.27C192.12 145.53 192.39 145.69 192.61 145.69C192.74 145.69 192.86 145.65 192.95 145.56C193.60 144.97 194.00 144.19 194.00 143.36ZM202.05 141.40C202.05 140.94 201.69 140.58 201.26 140.58L200.85 140.58L200.85 136.29C200.85 135.49 200.07 135.12 199.28 135.25C198.72 135.25 198.16 135.55 197.86 136.02L194.96 140.59C194.85 140.78 194.79 140.98 194.79 141.19C194.79 141.78 195.22 142.21 195.74 142.21L199.01 142.21L199.01 143.17C199.01 143.66 199.42 144.08 199.92 144.08C200.44 144.08 200.85 143.66 200.85 143.17L200.85 142.21L201.26 142.21C201.69 142.21 202.05 141.84 202.05 141.40ZM196.67 140.58L199.01 136.97L199.01 140.58ZM209.51 143.17C209.51 142.74 209.15 142.38 208.72 142.38L205.90 142.38C208.15 140.74 209.37 139.45 209.37 137.97C209.37 136.24 207.90 135.20 206.05 135.20C204.96 135.20 203.50 135.67 203.09 136.33C203.01 136.45 202.97 136.58 202.97 136.71C202.97 137.18 203.35 137.54 203.78 137.54C203.97 137.54 204.14 137.49 204.31 137.37C204.81 137.03 205.40 136.84 206.09 136.84C206.81 136.84 207.50 137.21 207.50 137.97C207.50 138.98 206.46 139.93 203.22 142.32C202.97 142.50 202.83 142.80 202.83 143.10C202.83 143.62 203.25 144 203.70 144L208.72 144C209.15 144 209.51 143.64 209.51 143.17ZM217.55 141.15C217.55 139.40 216.23 138.34 214.76 138.34C213.97 138.34 213.27 138.66 212.85 139.07L212.85 136.95L216.25 136.95C216.67 136.95 217.04 136.59 217.04 136.15C217.04 135.69 216.67 135.33 216.25 135.33L212.05 135.33C211.47 135.33 211.01 135.80 211.01 136.37L211.01 139.70C211.01 140.20 211.37 140.58 211.94 140.58C212.20 140.58 212.45 140.50 212.66 140.36C213.13 140.05 213.58 139.94 214.11 139.94C215.10 139.94 215.67 140.46 215.67 141.23C215.67 141.93 215.09 142.52 214.06 142.52C213.44 142.52 212.84 142.35 212.33 142.04C212.18 141.95 212.01 141.89 211.85 141.89C211.40 141.89 210.97 142.25 210.97 142.73C210.97 142.86 211.01 142.99 211.07 143.10C211.47 143.78 212.94 144.16 214.07 144.16C216.17 144.16 217.55 143.00 217.55 141.15Z" fill="#627386" /></g><rect x="18" y="166" width="384" height="8" rx="4" fill="#f4faff" /><rect x="18.00" y="166" width="264.41" height="8" rx="4" fill="#00d559" /><rect x="282.41" y="166" width="119.59" height="8" rx="4" fill="#00a5fe" /></svg>