<svg xmlns="http://www.w3.org/2000/svg" width="420" height="170" viewBox="0 0 420 170" role="img"><rect x="0.5" y="0.5" width="419" height="169" rx="10" fill="#ffffff" stroke="#f2f4f6" /><path d="M30.72 33.60C30.72 32.83 30.10 32.21 29.37 32.21L28.69 32.21L28.69 24.95C28.69 23.59 27.37 22.97 26.03 23.19C25.08 23.19 24.14 23.70 23.63 24.49L18.73 32.24C18.53 32.54 18.44 32.90 18.44 33.25C18.44 34.24 19.17 34.96 20.05 34.96L25.57 34.96L25.57 36.59C25.57 37.43 26.27 38.13 27.11 38.13C27.99 38.13 28.69 37.43 28.69 36.59L28.69 34.96L29.37 34.96C30.10 34.96 30.72 34.35 30.72 33.60ZM21.61 32.21L25.57 26.10L25.57 32.21ZM43.83 33.23C43.83 30.10 41.47 28.45 38.83 28.45C37.01 28.45 35.64 29.35 35.07 30.34C35.05 30.23 35.05 30.15 35.05 30.04C35.05 27.70 36.57 25.88 38.72 25.88C39.47 25.88 40.09 26.01 40.64 26.30C40.84 26.41 41.06 26.45 41.28 26.45C41.96 26.45 42.71 25.92 42.71 25.09C42.71 24.87 42.64 24.67 42.55 24.49C42.00 23.52 40.15 23.11 38.72 23.11C34.39 23.11 31.88 26.25 31.88 30.70C31.88 34.83 33.75 38.26 38.22 38.26C41.56 38.26 43.83 36.09 43.83 33.23ZM40.66 33.34C40.66 34.44 39.85 35.49 38.15 35.49C36.77 35.49 35.73 34.55 35.73 33.18C35.73 31.86 36.79 30.92 38.15 30.92C39.56 30.92 40.66 31.86 40.66 33.34ZM49.24 36.92C49.24 35.49 48.29 34.68 47.26 34.68C46.34 34.68 45.54 35.47 45.54 36.44C45.54 37.38 46.20 38.02 47.04 38.02C47.19 38.02 47.39 37.98 47.46 37.96C47.33 38.53 46.84 39.21 46.27 39.67C46.12 39.80 46.05 39.98 46.05 40.16C46.05 40.60 46.51 40.86 46.89 40.86C47.11 40.86 47.30 40.79 47.46 40.64C48.56 39.65 49.24 38.33 49.24 36.92ZM62.35 36.59C62.35 35.87 61.74 35.25 61.01 35.25L56.24 35.25C60.04 32.48 62.11 30.30 62.11 27.79C62.11 24.87 59.62 23.11 56.50 23.11C54.65 23.11 52.19 23.90 51.48 25.02C51.35 25.22 51.29 25.44 51.29 25.66C51.29 26.45 51.92 27.07 52.65 27.07C52.98 27.07 53.27 26.98 53.55 26.78C54.39 26.21 55.40 25.88 56.57 25.88C57.78 25.88 58.94 26.52 58.94 27.79C58.94 29.51 57.18 31.11 51.70 35.16C51.29 35.47 51.04 35.98 51.04 36.48C51.04 37.36 51.75 38 52.52 38L61.01 38C61.74 38 62.35 37.38 62.35 36.59ZM76.04 33.23C76.04 30.10 73.68 28.45 71.04 28.45C69.22 28.45 67.85 29.35 67.28 30.34C67.26 30.23 67.26 30.15 67.26 30.04C67.26 27.70 68.78 25.88 70.93 25.88C71.68 25.88 72.30 26.01 72.85 26.30C73.04 26.41 73.26 26.45 73.48 26.45C74.17 26.45 74.91 25.92 74.91 25.09C74.91 24.87 74.85 24.67 74.76 24.49C74.21 23.52 72.36 23.11 70.93 23.11C66.60 23.11 64.09 26.25 64.09 30.70C64.09 34.83 65.96 38.26 70.43 38.26C73.77 38.26 76.04 36.09 76.04 33.23ZM72.87 33.34C72.87 34.44 72.05 35.49 70.36 35.49C68.97 35.49 67.94 34.55 67.94 33.18C67.94 31.86 69.00 30.92 70.36 30.92C71.77 30.92 72.87 31.86 72.87 33.34ZM89.43 33.60C89.43 32.83 88.82 32.21 88.09 32.21L87.41 32.21L87.41 24.95C87.41 23.59 86.09 22.97 84.75 23.19C83.80 23.19 82.86 23.70 82.35 24.49L77.44 32.24C77.25 32.54 77.16 32.90 77.16 33.25C77.16 34.24 77.88 34.96 78.76 34.96L84.29 34.96L84.29 36.59C84.29 37.43 84.99 38.13 85.83 38.13C86.71 38.13 87.41 37.43 87.41 36.59L87.41 34.96L88.09 34.96C88.82 34.96 89.43 34.35 89.43 33.60ZM80.33 32.21L84.29 26.10L84.29 32.21ZM104.04 23.08C99.64 23.08 96.23 26.16 96.23 30.67C96.23 35.18 99.64 38.26 104.04 38.26C106.57 38.26 108.27 37.16 109.37 35.82C109.59 35.58 109.67 35.27 109.67 34.96C109.67 34.22 109.04 33.60 108.24 33.60C107.80 33.60 107.36 33.78 107.06 34.11C106.24 35.01 105.14 35.49 104.04 35.49C101.38 35.49 99.44 33.45 99.44 30.67C99.44 27.90 101.38 25.86 104.04 25.86C105.14 25.86 106.22 26.38 107.06 27.26C107.36 27.59 107.78 27.77 108.20 27.77C109.01 27.77 109.70 27.15 109.70 26.36C109.70 26.08 109.59 25.75 109.39 25.50C108.27 24.16 106.57 23.08 104.04 23.08ZM122.54 32.68C122.54 29.66 120.43 27.11 116.91 27.11C113.41 27.11 111.30 29.66 111.30 32.68C111.30 35.71 113.41 38.26 116.91 38.26C120.43 38.26 122.54 35.71 122.54 32.68ZM119.64 32.68C119.64 34.35 118.65 35.78 116.91 35.78C115.17 35.78 114.21 34.35 114.21 32.68C114.21 31.03 115.17 29.60 116.91 29.60C118.65 29.60 119.64 31.03 119.64 32.68ZM140.61 31.20C140.61 29.02 139.09 27.11 136.69 27.11C134.84 27.11 133.79 28.19 133.39 28.94C132.99 28.17 132.00 27.11 130.22 27.11C128.59 27.11 127.85 27.70 127.41 28.28L127.41 28.25C127.41 27.95 127.01 27.24 126.04 27.24C125.23 27.24 124.61 27.86 124.61 28.61L124.61 36.75C124.61 37.52 125.23 38.13 126.00 38.13C126.79 38.13 127.41 37.52 127.41 36.75L127.41 31.73C127.41 30.70 128.20 29.60 129.39 29.60C130.53 29.60 131.19 30.74 131.19 31.73L131.19 36.75C131.19 37.52 131.81 38.13 132.58 38.13C133.39 38.13 134.01 37.52 134.01 36.75L134.01 31.93C134.01 30.70 134.78 29.60 135.99 29.60C137.13 29.60 137.79 30.74 137.79 31.73L137.79 36.75C137.79 37.52 138.41 38.13 139.18 38.13C139.99 38.13 140.61 37.52 140.61 36.75ZM159.35 31.20C159.35 29.02 157.83 27.11 155.43 27.11C153.59 27.11 152.53 28.19 152.13 28.94C151.74 28.17 150.75 27.11 148.97 27.11C147.34 27.11 146.59 27.70 146.15 28.28L146.15 28.25C146.15 27.95 145.75 27.24 144.79 27.24C143.97 27.24 143.36 27.86 143.36 28.61L143.36 36.75C143.36 37.52 143.97 38.13 144.74 38.13C145.53 38.13 146.15 37.52 146.15 36.75L146.15 31.73C146.15 30.70 146.94 29.60 148.13 29.60C149.27 29.60 149.93 30.74 149.93 31.73L149.93 36.75C149.93 37.52 150.55 38.13 151.32 38.13C152.13 38.13 152.75 37.52 152.75 36.75L152.75 31.93C152.75 30.70 153.52 29.60 154.73 29.60C155.87 29.60 156.53 30.74 156.53 31.73L156.53 36.75C156.53 37.52 157.15 38.13 157.92 38.13C158.73 38.13 159.35 37.52 159.35 36.75ZM163.49 22.91C162.58 22.91 161.81 23.63 161.81 24.56C161.81 25.48 162.58 26.23 163.49 26.23C164.41 26.23 165.16 25.48 165.16 24.56C165.16 23.63 164.41 22.91 163.49 22.91ZM164.89 28.61C164.89 27.86 164.28 27.24 163.53 27.24C162.72 27.24 162.10 27.86 162.10 28.61L162.10 36.75C162.10 37.52 162.72 38.13 163.49 38.13C164.28 38.13 164.89 37.52 164.89 36.75ZM173.47 36.99C173.47 36.31 173.03 35.78 172.24 35.78L172.00 35.78C171.56 35.78 171.03 35.45 171.03 34.61L171.03 29.82L172.13 29.82C172.77 29.82 173.32 29.27 173.32 28.61C173.32 27.92 172.77 27.37 172.13 27.37L171.03 27.37L171.03 25.72C171.03 24.95 170.42 24.34 169.65 24.34C168.83 24.34 168.22 24.95 168.22 25.72L168.22 27.37L167.53 27.37C166.87 27.37 166.32 27.92 166.32 28.56C166.32 29.27 166.87 29.82 167.53 29.82L168.22 29.82L168.22 35.36C168.22 37.25 169.27 38.26 171.23 38.26C173.06 38.26 173.47 37.69 173.47 36.99ZM183.53 34.85C183.53 30.56 177.24 31.88 177.24 30.30C177.24 29.71 177.90 29.24 178.91 29.24C179.77 29.24 180.62 29.49 181.31 29.88C181.46 29.97 181.66 30.01 181.83 30.01C182.41 30.01 182.93 29.55 182.93 28.96C182.93 28.76 182.87 28.56 182.76 28.41C182.16 27.55 180.27 27.11 178.89 27.11C176.09 27.11 174.53 28.67 174.53 30.45C174.53 34.63 180.84 33.20 180.84 34.96C180.84 35.62 180.27 36.11 179.06 36.11C178.14 36.11 177.04 35.73 176.20 35.25C176.03 35.14 175.83 35.10 175.63 35.10C175.04 35.10 174.46 35.60 174.46 36.26C174.46 36.48 174.53 36.68 174.66 36.86C175.32 37.80 177.54 38.26 178.93 38.26C181.88 38.26 183.53 36.79 183.53 34.85Z" fill="#22272e" /><path d="M20.26 49.88C20.26 49.54 19.98 49.25 19.64 49.25C19.26 49.25 18.98 49.54 18.98 49.88L18.98 57.44C18.98 57.79 19.26 58.08 19.61 58.08C19.98 58.08 20.26 57.79 20.26 57.44ZM27.55 53.97C27.55 52.64 26.59 51.56 25.27 51.56C24.18 51.56 23.62 52.10 23.32 52.60L23.32 52.20C23.32 51.90 23.06 51.64 22.76 51.64C22.42 51.64 22.16 51.90 22.16 52.20L22.16 57.51C22.16 57.82 22.42 58.08 22.73 58.08C23.06 58.08 23.32 57.82 23.32 57.51L23.32 54.49C23.32 53.42 23.89 52.59 24.89 52.59C25.83 52.59 26.40 53.32 26.40 54.36L26.40 57.51C26.40 57.82 26.66 58.08 26.97 58.08C27.30 58.08 27.55 57.82 27.55 57.51ZM38.97 49.91C38.97 49.58 38.72 49.33 38.41 49.33L32.70 49.33C32.39 49.33 32.14 49.58 32.14 49.89C32.14 50.21 32.39 50.47 32.70 50.47L34.91 50.47L34.91 57.44C34.91 57.79 35.20 58.08 35.55 58.08C35.91 58.08 36.20 57.79 36.20 57.44L36.20 50.47L38.41 50.47C38.72 50.47 38.97 50.21 38.97 49.91ZM44.74 54.85C44.74 53.05 43.53 51.56 41.57 51.56C39.62 51.56 38.41 53.05 38.41 54.85C38.41 56.66 39.62 58.16 41.57 58.16C43.53 58.16 44.74 56.66 44.74 54.85ZM43.53 54.85C43.53 56.06 42.83 57.13 41.57 57.13C40.32 57.13 39.61 56.06 39.61 54.85C39.61 53.66 40.32 52.59 41.57 52.59C42.83 52.59 43.53 53.66 43.53 54.85ZM49.16 57.55C49.16 57.27 48.95 57.06 48.67 57.06C48.54 57.06 48.38 57.13 48.24 57.13C47.86 57.13 47.63 56.83 47.63 56.35L47.63 52.73L48.48 52.73C48.76 52.73 48.98 52.51 48.98 52.24C48.98 51.94 48.76 51.72 48.48 51.72L47.63 51.72L47.63 50.49C47.63 50.19 47.37 49.93 47.05 49.93C46.72 49.93 46.46 50.19 46.46 50.49L46.46 51.72L45.85 51.72C45.56 51.72 45.34 51.94 45.34 52.22C45.34 52.51 45.56 52.73 45.85 52.73L46.46 52.73L46.46 56.62C46.46 57.61 46.98 58.16 47.96 58.16C48.65 58.16 49.16 57.96 49.16 57.55ZM55.26 53.75C55.26 52.15 54.09 51.56 52.74 51.56C51.89 51.56 50.94 51.84 50.34 52.44C50.27 52.53 50.23 52.63 50.23 52.73C50.23 53.01 50.47 53.19 50.71 53.19C50.80 53.19 50.90 53.15 50.99 53.09C51.46 52.72 51.98 52.54 52.57 52.54C53.45 52.54 54.10 53.01 54.10 53.80L54.10 54.15L52.29 54.15C50.99 54.15 49.85 54.66 49.85 56.08C49.85 57.45 50.99 58.16 52.03 58.16C53.01 58.16 53.59 57.86 54.10 57.30L54.10 57.51C54.10 57.88 54.40 58.08 54.63 58.08L54.67 58.08C55.00 58.08 55.26 57.82 55.26 57.51ZM54.10 54.96L54.10 55.84C54.10 56.58 53.26 57.34 52.35 57.34C51.50 57.34 51.02 56.83 51.02 56.10C51.02 55.35 51.62 54.96 52.61 54.96ZM58.27 49.81C58.27 49.51 58.01 49.25 57.71 49.25C57.38 49.25 57.12 49.51 57.12 49.81L57.12 57.51C57.12 57.82 57.38 58.08 57.69 58.08C58.01 58.08 58.27 57.82 58.27 57.51Z" fill="#627386" /><line x1="18" y1="76" x2="48" y2="76" stroke="#627386" stroke-opacity="0.4" /><g aria-label="Additions: 27,670,408"><circle cx="22" cy="96" r="4" fill="#00d559" /><path d="M42.28 99.39C42.28 99.31 42.27 99.23 42.23 99.14L39.36 91.94C39.19 91.51 38.76 91.24 38.30 91.25C37.85 91.25 37.43 91.52 37.28 91.94L34.40 99.14C34.38 99.23 34.36 99.31 34.36 99.39C34.36 99.74 34.65 100.08 35.05 100.08C35.33 100.08 35.57 99.92 35.68 99.66L36.25 98.19L40.40 98.19L40.97 99.66C41.07 99.92 41.32 100.08 41.59 100.08C42.01 100.08 42.28 99.71 42.28 99.39ZM38.32 92.64L40.03 97.06L36.61 97.06ZM49.22 91.81C49.22 91.51 48.96 91.25 48.66 91.25C48.33 91.25 48.07 91.51 48.07 91.81L48.07 94.63C47.56 93.95 46.95 93.56 46.00 93.56C44.36 93.56 43.20 94.85 43.20 96.87C43.20 98.92 44.37 100.16 46.00 100.16C46.97 100.16 47.59 99.73 48.07 99.10L48.07 99.51C48.07 99.82 48.33 100.08 48.64 100.08C48.96 100.08 49.22 99.82 49.22 99.51ZM48.07 96.91C48.07 98.21 47.42 99.13 46.30 99.13C45.13 99.13 44.40 98.18 44.40 96.87C44.40 95.55 45.13 94.59 46.30 94.59C47.42 94.59 48.07 95.54 48.07 96.83ZM56.74 91.81C56.74 91.51 56.48 91.25 56.18 91.25C55.84 91.25 55.58 91.51 55.58 91.81L55.58 94.63C55.07 93.95 54.46 93.56 53.51 93.56C51.88 93.56 50.72 94.85 50.72 96.87C50.72 98.92 51.89 100.16 53.51 100.16C54.49 100.16 55.10 99.73 55.58 99.10L55.58 99.51C55.58 99.82 55.84 100.08 56.15 100.08C56.48 100.08 56.74 99.82 56.74 99.51ZM55.58 96.91C55.58 98.21 54.93 99.13 53.81 99.13C52.64 99.13 51.91 98.18 51.91 96.87C51.91 95.55 52.64 94.59 53.81 94.59C54.93 94.59 55.58 95.54 55.58 96.83ZM59.18 91.39C58.78 91.39 58.44 91.73 58.44 92.15C58.44 92.55 58.78 92.89 59.18 92.89C59.60 92.89 59.92 92.55 59.92 92.15C59.92 91.73 59.60 91.39 59.18 91.39ZM59.77 94.20C59.77 93.90 59.51 93.64 59.21 93.64C58.87 93.64 58.61 93.90 58.61 94.20L58.61 99.51C58.61 99.82 58.87 100.08 59.18 100.08C59.51 100.08 59.77 99.82 59.77 99.51ZM64.56 99.55C64.56 99.27 64.36 99.06 64.07 99.06C63.94 99.06 63.78 99.13 63.64 99.13C63.26 99.13 63.03 98.83 63.03 98.35L63.03 94.73L63.89 94.73C64.16 94.73 64.38 94.51 64.38 94.24C64.38 93.94 64.16 93.72 63.89 93.72L63.03 93.72L63.03 92.49C63.03 92.19 62.77 91.93 62.46 91.93C62.12 91.93 61.86 92.19 61.86 92.49L61.86 93.72L61.25 93.72C60.96 93.72 60.74 93.94 60.74 94.22C60.74 94.51 60.96 94.73 61.25 94.73L61.86 94.73L61.86 98.62C61.86 99.61 62.38 100.16 63.37 100.16C64.06 100.16 64.56 99.96 64.56 99.55ZM66.19 91.39C65.79 91.39 65.45 91.73 65.45 92.15C65.45 92.55 65.79 92.89 66.19 92.89C66.60 92.89 66.93 92.55 66.93 92.15C66.93 91.73 66.60 91.39 66.19 91.39ZM66.77 94.20C66.77 93.90 66.51 93.64 66.21 93.64C65.88 93.64 65.62 93.90 65.62 94.20L65.62 99.51C65.62 99.82 65.88 100.08 66.19 100.08C66.51 100.08 66.77 99.82 66.77 99.51ZM74.60 96.85C74.60 95.05 73.39 93.56 71.43 93.56C69.48 93.56 68.27 95.05 68.27 96.85C68.27 98.66 69.48 100.16 71.43 100.16C73.39 100.16 74.60 98.66 74.60 96.85ZM73.39 96.85C73.39 98.06 72.69 99.13 71.43 99.13C70.18 99.13 69.46 98.06 69.46 96.85C69.46 95.66 70.18 94.59 71.43 94.59C72.69 94.59 73.39 95.66 73.39 96.85ZM81.49 95.97C81.49 94.64 80.53 93.56 79.20 93.56C78.11 93.56 77.55 94.10 77.25 94.61L77.25 94.20C77.25 93.90 76.99 93.64 76.69 93.64C76.35 93.64 76.09 93.90 76.09 94.20L76.09 99.51C76.09 99.82 76.35 100.08 76.67 100.08C76.99 100.08 77.25 99.82 77.25 99.51L77.25 96.49C77.25 95.42 77.82 94.59 78.82 94.59C79.76 94.59 80.33 95.32 80.33 96.36L80.33 99.51C80.33 99.82 80.59 100.08 80.90 100.08C81.23 100.08 81.49 99.82 81.49 99.51ZM87.96 98.10C87.85 95.89 84.24 96.50 84.11 95.37C84.06 94.86 84.61 94.49 85.40 94.49C86 94.49 86.56 94.68 86.96 94.97C87.04 95.03 87.13 95.06 87.23 95.06C87.47 95.06 87.69 94.86 87.69 94.61C87.69 94.50 87.65 94.40 87.57 94.32C87.08 93.84 86.29 93.56 85.39 93.56C83.86 93.56 82.93 94.29 83.00 95.41C83.11 97.52 86.70 96.87 86.83 98.26C86.88 98.83 86.36 99.23 85.47 99.23C84.82 99.23 84.17 98.97 83.70 98.64C83.61 98.57 83.52 98.54 83.40 98.54C83.13 98.54 82.89 98.75 82.89 99.03C82.89 99.16 82.94 99.26 83.04 99.34C83.61 99.91 84.56 100.16 85.41 100.16C87.08 100.16 88.03 99.30 87.96 98.10Z" fill="#22272e" /><path d="M158.69 99.17C158.69 98.74 158.33 98.38 157.90 98.38L155.08 98.38C157.33 96.74 158.55 95.45 158.55 93.97C158.55 92.24 157.08 91.20 155.24 91.20C154.14 91.20 152.69 91.67 152.27 92.33C152.19 92.45 152.15 92.58 152.15 92.71C152.15 93.17 152.53 93.54 152.96 93.54C153.16 93.54 153.32 93.49 153.49 93.37C153.99 93.03 154.59 92.84 155.27 92.84C155.99 92.84 156.68 93.21 156.68 93.97C156.68 94.98 155.64 95.93 152.40 98.32C152.15 98.50 152.01 98.80 152.01 99.10C152.01 99.62 152.43 100 152.88 100L157.90 100C158.33 100 158.69 99.64 158.69 99.17ZM166.18 92.27C166.18 91.72 165.74 91.33 165.28 91.33L160.32 91.33C159.88 91.33 159.51 91.69 159.51 92.12C159.51 92.59 159.88 92.95 160.32 92.95L163.96 92.95L161.37 98.82C161.32 98.93 161.29 99.05 161.29 99.17C161.29 99.64 161.67 100.08 162.22 100.08C162.59 100.08 162.94 99.86 163.09 99.52L166.10 92.63C166.16 92.53 166.18 92.39 166.18 92.27ZM167.94 99.36C167.94 98.52 167.38 98.04 166.77 98.04C166.22 98.04 165.75 98.50 165.75 99.08C165.75 99.64 166.14 100.01 166.64 100.01C166.73 100.01 166.84 99.99 166.88 99.97C166.81 100.31 166.52 100.72 166.18 100.99C166.09 101.07 166.05 101.17 166.05 101.27C166.05 101.53 166.32 101.69 166.55 101.69C166.68 101.69 166.79 101.65 166.88 101.56C167.53 100.97 167.94 100.19 167.94 99.36ZM175.70 97.18C175.70 95.33 174.31 94.36 172.75 94.36C171.67 94.36 170.86 94.89 170.52 95.48C170.51 95.41 170.51 95.36 170.51 95.29C170.51 93.92 171.41 92.84 172.68 92.84C173.12 92.84 173.49 92.91 173.81 93.08C173.93 93.15 174.06 93.17 174.19 93.17C174.59 93.17 175.03 92.86 175.03 92.37C175.03 92.24 175.00 92.12 174.94 92.02C174.62 91.45 173.53 91.20 172.68 91.20C170.12 91.20 168.64 93.06 168.64 95.68C168.64 98.13 169.74 100.16 172.38 100.16C174.36 100.16 175.70 98.87 175.70 97.18ZM173.83 97.24C173.83 97.89 173.34 98.52 172.34 98.52C171.53 98.52 170.91 97.96 170.91 97.15C170.91 96.37 171.54 95.81 172.34 95.81C173.18 95.81 173.83 96.37 173.83 97.24ZM183.00 92.27C183.00 91.72 182.56 91.33 182.11 91.33L177.14 91.33C176.70 91.33 176.34 91.69 176.34 92.12C176.34 92.59 176.70 92.95 177.14 92.95L180.78 92.95L178.19 98.82C178.14 98.93 178.12 99.05 178.12 99.17C178.12 99.64 178.49 100.08 179.04 100.08C179.42 100.08 179.77 99.86 179.91 99.52L182.93 92.63C182.98 92.53 183.00 92.39 183.00 92.27ZM190.80 95.67C190.80 93.44 189.69 91.20 187.22 91.20C184.73 91.20 183.63 93.44 183.63 95.67C183.63 97.91 184.73 100.16 187.22 100.16C189.69 100.16 190.80 97.91 190.80 95.67ZM188.92 95.67C188.92 97.27 188.45 98.52 187.22 98.52C185.97 98.52 185.50 97.27 185.50 95.67C185.50 94.07 185.97 92.84 187.22 92.84C188.45 92.84 188.92 94.07 188.92 95.67ZM193.77 99.36C193.77 98.52 193.21 98.04 192.60 98.04C192.05 98.04 191.58 98.50 191.58 99.08C191.58 99.64 191.97 100.01 192.47 100.01C192.56 100.01 192.68 99.99 192.72 99.97C192.64 100.31 192.35 100.72 192.01 100.99C191.92 101.07 191.88 101.17 191.88 101.27C191.88 101.53 192.16 101.69 192.38 101.69C192.51 101.69 192.62 101.65 192.72 101.56C193.37 100.97 193.77 100.19 193.77 99.36ZM201.82 97.40C201.82 96.94 201.45 96.58 201.02 96.58L200.62 96.58L200.62 92.29C200.62 91.48 199.84 91.12 199.05 91.25C198.49 91.25 197.93 91.55 197.63 92.02L194.73 96.59C194.61 96.78 194.56 96.98 194.56 97.19C194.56 97.78 194.99 98.21 195.51 98.21L198.77 98.21L198.77 99.17C198.77 99.66 199.19 100.08 199.68 100.08C200.20 100.08 200.62 99.66 200.62 99.17L200.62 98.21L201.02 98.21C201.45 98.21 201.82 97.84 201.82 97.40ZM196.43 96.58L198.77 92.97L198.77 96.58ZM209.68 95.67C209.68 93.44 208.56 91.20 206.09 91.20C203.61 91.20 202.50 93.44 202.50 95.67C202.50 97.91 203.61 100.16 206.09 100.16C208.56 100.16 209.68 97.91 209.68 95.67ZM207.80 95.67C207.80 97.27 207.33 98.52 206.09 98.52C204.84 98.52 204.38 97.27 204.38 95.67C204.38 94.07 204.84 92.84 206.09 92.84C207.33 92.84 207.80 94.07 207.80 95.67ZM217.55 97.62C217.55 96.44 216.84 95.76 216.32 95.53C216.77 95.32 217.40 94.83 217.40 93.49C217.40 91.99 215.79 91.20 214.06 91.20C212.32 91.20 210.72 91.99 210.72 93.49C210.72 94.83 211.34 95.32 211.79 95.53C211.27 95.76 210.58 96.44 210.58 97.62C210.58 99.25 212.24 100.16 214.06 100.16C215.88 100.16 217.55 99.23 217.55 97.62ZM215.52 93.77C215.52 94.42 214.85 94.80 214.06 94.80C213.27 94.80 212.59 94.42 212.59 93.77C212.59 93.15 213.20 92.78 214.06 92.78C214.91 92.78 215.52 93.15 215.52 93.77ZM215.67 97.52C215.67 98.15 214.95 98.57 214.06 98.57C213.15 98.57 212.45 98.15 212.45 97.52C212.45 96.79 213.26 96.36 214.06 96.36C214.85 96.36 215.67 96.79 215.67 97.52Z" fill="#627386" /></g><g aria-label="Deletions: 12,801,949"><circle cx="22" cy="118" r="4" fill="#00a5fe" /><path d="M42.54 117.67C42.54 115.17 40.76 113.33 38.06 113.33L35.82 113.33C35.35 113.33 34.98 113.71 34.98 114.17L34.98 121.16C34.98 121.62 35.35 122 35.82 122L38.06 122C40.76 122 42.54 120.18 42.54 117.67ZM41.23 117.67C41.23 119.43 40.06 120.86 38.06 120.86L36.26 120.86L36.26 114.47L38.06 114.47C40.11 114.47 41.23 115.89 41.23 117.67ZM49.90 118.65C49.90 118.40 49.83 118.13 49.78 117.92C49.42 116.51 48.38 115.56 46.86 115.56C45.04 115.56 43.72 117.03 43.72 118.85C43.72 120.83 45.09 122.16 46.96 122.16C47.88 122.16 49.50 121.67 49.50 120.97C49.50 120.53 49.05 120.43 48.77 120.57C48.31 120.91 47.61 121.22 47.08 121.22C45.80 121.22 45.02 120.35 44.93 119.27L49.30 119.27C49.63 119.27 49.90 118.96 49.90 118.65ZM44.93 118.41C44.98 117.54 45.60 116.50 46.84 116.50C48.18 116.50 48.76 117.57 48.78 118.41ZM52.54 113.81C52.54 113.51 52.28 113.25 51.98 113.25C51.64 113.25 51.38 113.51 51.38 113.81L51.38 121.51C51.38 121.82 51.64 122.08 51.95 122.08C52.28 122.08 52.54 121.82 52.54 121.51ZM60.21 118.65C60.21 118.40 60.14 118.13 60.09 117.92C59.73 116.51 58.69 115.56 57.17 115.56C55.35 115.56 54.03 117.03 54.03 118.85C54.03 120.83 55.40 122.16 57.27 122.16C58.19 122.16 59.81 121.67 59.81 120.97C59.81 120.53 59.36 120.43 59.08 120.57C58.62 120.91 57.92 121.22 57.39 121.22C56.11 121.22 55.33 120.35 55.24 119.27L59.61 119.27C59.94 119.27 60.21 118.96 60.21 118.65ZM55.24 118.41C55.29 117.54 55.91 116.50 57.15 116.50C58.49 116.50 59.06 117.57 59.09 118.41ZM64.62 121.55C64.62 121.27 64.41 121.06 64.12 121.06C63.99 121.06 63.84 121.13 63.69 121.13C63.32 121.13 63.08 120.83 63.08 120.35L63.08 116.73L63.94 116.73C64.21 116.73 64.43 116.51 64.43 116.24C64.43 115.94 64.21 115.72 63.94 115.72L63.08 115.72L63.08 114.49C63.08 114.19 62.82 113.93 62.51 113.93C62.17 113.93 61.91 114.19 61.91 114.49L61.91 115.72L61.30 115.72C61.01 115.72 60.79 115.94 60.79 116.22C60.79 116.51 61.01 116.73 61.30 116.73L61.91 116.73L61.91 120.62C61.91 121.61 62.43 122.16 63.42 122.16C64.11 122.16 64.62 121.96 64.62 121.55ZM66.24 113.39C65.84 113.39 65.50 113.73 65.50 114.15C65.50 114.55 65.84 114.89 66.24 114.89C66.66 114.89 66.98 114.55 66.98 114.15C66.98 113.73 66.66 113.39 66.24 113.39ZM66.83 116.20C66.83 115.90 66.56 115.64 66.27 115.64C65.93 115.64 65.67 115.90 65.67 116.20L65.67 121.51C65.67 121.82 65.93 122.08 66.24 122.08C66.56 122.08 66.83 121.82 66.83 121.51ZM74.65 118.85C74.65 117.05 73.44 115.56 71.48 115.56C69.53 115.56 68.32 117.05 68.32 118.85C68.32 120.66 69.53 122.16 71.48 122.16C73.44 122.16 74.65 120.66 74.65 118.85ZM73.44 118.85C73.44 120.06 72.74 121.13 71.48 121.13C70.23 121.13 69.52 120.06 69.52 118.85C69.52 117.66 70.23 116.59 71.48 116.59C72.74 116.59 73.44 117.66 73.44 118.85ZM81.54 117.97C81.54 116.64 80.58 115.56 79.25 115.56C78.16 115.56 77.60 116.10 77.30 116.61L77.30 116.20C77.30 115.90 77.04 115.64 76.74 115.64C76.41 115.64 76.15 115.90 76.15 116.20L76.15 121.51C76.15 121.82 76.41 122.08 76.72 122.08C77.04 122.08 77.30 121.82 77.30 121.51L77.30 118.49C77.30 117.42 77.88 116.59 78.88 116.59C79.81 116.59 80.38 117.32 80.38 118.36L80.38 121.51C80.38 121.82 80.64 122.08 80.96 122.08C81.28 122.08 81.54 121.82 81.54 121.51ZM88.01 120.10C87.90 117.89 84.30 118.50 84.17 117.37C84.11 116.86 84.66 116.49 85.45 116.49C86.05 116.49 86.61 116.68 87.01 116.97C87.09 117.03 87.18 117.06 87.29 117.06C87.52 117.06 87.74 116.86 87.74 116.61C87.74 116.50 87.70 116.40 87.62 116.32C87.13 115.84 86.34 115.56 85.44 115.56C83.91 115.56 82.98 116.29 83.05 117.41C83.17 119.52 86.75 118.87 86.88 120.26C86.94 120.83 86.42 121.23 85.52 121.23C84.87 121.23 84.22 120.97 83.75 120.64C83.66 120.57 83.57 120.54 83.45 120.54C83.18 120.54 82.94 120.75 82.94 121.03C82.94 121.16 83.00 121.26 83.09 121.34C83.66 121.91 84.61 122.16 85.47 122.16C87.13 122.16 88.08 121.30 88.01 120.10Z" fill="#22272e" /><path d="M157.84 114.32C157.84 113.73 157.34 113.26 156.76 113.26C156.46 113.26 156.17 113.38 155.98 113.58L153.97 115.60C153.82 115.76 153.74 115.95 153.74 116.15C153.74 116.58 154.10 116.92 154.51 116.92C154.69 116.92 154.87 116.85 155.01 116.71L155.99 115.71L155.99 121.17C155.99 121.66 156.41 122.08 156.90 122.08C157.42 122.08 157.84 121.66 157.84 121.17ZM165.91 121.17C165.91 120.74 165.54 120.38 165.12 120.38L162.29 120.38C164.54 118.74 165.77 117.45 165.77 115.97C165.77 114.24 164.30 113.20 162.45 113.20C161.36 113.20 159.90 113.67 159.49 114.33C159.41 114.45 159.37 114.58 159.37 114.71C159.37 115.17 159.75 115.54 160.18 115.54C160.37 115.54 160.54 115.49 160.71 115.37C161.20 115.03 161.80 114.84 162.49 114.84C163.20 114.84 163.89 115.21 163.89 115.97C163.89 116.98 162.85 117.93 159.62 120.32C159.37 120.50 159.23 120.80 159.23 121.10C159.23 121.62 159.64 122 160.10 122L165.12 122C165.54 122 165.91 121.64 165.91 121.17ZM169.29 121.36C169.29 120.52 168.73 120.04 168.12 120.04C167.57 120.04 167.10 120.50 167.10 121.08C167.10 121.64 167.50 122.01 167.99 122.01C168.08 122.01 168.20 121.99 168.24 121.97C168.16 122.31 167.87 122.72 167.53 122.99C167.44 123.07 167.40 123.17 167.40 123.27C167.40 123.53 167.68 123.69 167.90 123.69C168.03 123.69 168.15 123.65 168.24 123.56C168.89 122.97 169.29 122.19 169.29 121.36ZM177.25 119.62C177.25 118.44 176.54 117.76 176.02 117.53C176.47 117.32 177.10 116.83 177.10 115.49C177.10 113.99 175.49 113.20 173.76 113.20C172.02 113.20 170.42 113.99 170.42 115.49C170.42 116.83 171.04 117.32 171.49 117.53C170.97 117.76 170.28 118.44 170.28 119.62C170.28 121.25 171.94 122.16 173.76 122.16C175.58 122.16 177.25 121.23 177.25 119.62ZM175.22 115.77C175.22 116.42 174.55 116.80 173.76 116.80C172.97 116.80 172.29 116.42 172.29 115.77C172.29 115.15 172.90 114.78 173.76 114.78C174.61 114.78 175.22 115.15 175.22 115.77ZM175.37 119.52C175.37 120.15 174.65 120.57 173.76 120.57C172.85 120.57 172.15 120.15 172.15 119.52C172.15 118.79 172.96 118.36 173.76 118.36C174.55 118.36 175.37 118.79 175.37 119.52ZM185.32 117.67C185.32 115.44 184.20 113.20 181.73 113.20C179.25 113.20 178.14 115.44 178.14 117.67C178.14 119.91 179.25 122.16 181.73 122.16C184.20 122.16 185.32 119.91 185.32 117.67ZM183.43 117.67C183.43 119.27 182.97 120.52 181.73 120.52C180.48 120.52 180.01 119.27 180.01 117.67C180.01 116.07 180.48 114.84 181.73 114.84C182.97 114.84 183.43 116.07 183.43 117.67ZM190.25 114.32C190.25 113.73 189.75 113.26 189.17 113.26C188.87 113.26 188.58 113.38 188.39 113.58L186.38 115.60C186.23 115.76 186.15 115.95 186.15 116.15C186.15 116.58 186.51 116.92 186.92 116.92C187.10 116.92 187.28 116.85 187.42 116.71L188.40 115.71L188.40 121.17C188.40 121.66 188.82 122.08 189.31 122.08C189.83 122.08 190.25 121.66 190.25 121.17ZM193.90 121.36C193.90 120.52 193.34 120.04 192.73 120.04C192.18 120.04 191.71 120.50 191.71 121.08C191.71 121.64 192.10 122.01 192.60 122.01C192.69 122.01 192.81 121.99 192.84 121.97C192.77 122.31 192.48 122.72 192.14 122.99C192.05 123.07 192.01 123.17 192.01 123.27C192.01 123.53 192.29 123.69 192.51 123.69C192.64 123.69 192.75 123.65 192.84 123.56C193.50 122.97 193.90 122.19 193.90 121.36ZM194.82 116.16C194.82 118.01 196.21 118.98 197.77 118.98C198.85 118.98 199.66 118.45 200.00 117.87C200.01 117.93 200.01 117.98 200.01 118.05C200.01 119.43 199.11 120.50 197.84 120.50C197.40 120.50 197.03 120.43 196.71 120.26C196.59 120.19 196.46 120.17 196.33 120.17C195.93 120.17 195.48 120.48 195.48 120.97C195.48 121.10 195.52 121.22 195.58 121.32C195.90 121.90 196.99 122.14 197.84 122.14C200.40 122.14 201.88 120.28 201.88 117.66C201.88 115.21 200.78 113.19 198.14 113.19C196.16 113.19 194.82 114.47 194.82 116.16ZM196.69 116.10C196.69 115.45 197.17 114.82 198.18 114.82C198.99 114.82 199.61 115.38 199.61 116.19C199.61 116.97 198.98 117.53 198.18 117.53C197.34 117.53 196.69 116.97 196.69 116.10ZM209.85 119.40C209.85 118.94 209.49 118.58 209.06 118.58L208.65 118.58L208.65 114.29C208.65 113.48 207.87 113.12 207.08 113.25C206.52 113.25 205.96 113.55 205.66 114.02L202.76 118.59C202.65 118.78 202.59 118.98 202.59 119.19C202.59 119.78 203.02 120.21 203.54 120.21L206.81 120.21L206.81 121.17C206.81 121.66 207.22 122.08 207.72 122.08C208.24 122.08 208.65 121.66 208.65 121.17L208.65 120.21L209.06 120.21C209.49 120.21 209.85 119.84 209.85 119.40ZM204.47 118.58L206.81 114.97L206.81 118.58ZM210.49 116.16C210.49 118.01 211.88 118.98 213.44 118.98C214.52 118.98 215.32 118.45 215.66 117.87C215.67 117.93 215.67 117.98 215.67 118.05C215.67 119.43 214.78 120.50 213.50 120.50C213.06 120.50 212.70 120.43 212.37 120.26C212.25 120.19 212.12 120.17 211.99 120.17C211.59 120.17 211.15 120.48 211.15 120.97C211.15 121.10 211.19 121.22 211.24 121.32C211.56 121.90 212.66 122.14 213.50 122.14C216.06 122.14 217.55 120.28 217.55 117.66C217.55 115.21 216.44 113.19 213.80 113.19C211.83 113.19 210.49 114.47 210.49 116.16ZM212.36 116.10C212.36 115.45 212.84 114.82 213.84 114.82C214.66 114.82 215.27 115.38 215.27 116.19C215.27 116.97 214.65 117.53 213.84 117.53C213.01 117.53 212.36 116.97 212.36 116.10Z" fill="#627386" /></g><g aria-label="Changed Files: 495,211"><circle cx="22" cy="140" r="4" fill="#673bd6" /><path d="M39.11 135.19C36.59 135.19 34.60 137.01 34.60 139.67C34.60 142.34 36.59 144.16 39.11 144.16C40.46 144.16 41.40 143.60 42.07 142.87C42.18 142.76 42.23 142.62 42.23 142.47C42.23 142.15 41.97 141.87 41.63 141.87C41.46 141.87 41.28 141.95 41.18 142.08C40.64 142.67 39.88 143.01 39.11 143.01C37.29 143.01 35.94 141.61 35.94 139.67C35.94 137.72 37.29 136.33 39.11 136.33C39.86 136.33 40.67 136.69 41.18 137.28C41.28 137.42 41.46 137.49 41.62 137.49C41.96 137.49 42.23 137.21 42.23 136.89C42.23 136.73 42.18 136.59 42.07 136.47C41.41 135.73 40.46 135.19 39.11 135.19ZM49.17 139.94C49.17 138.62 48.22 137.56 46.90 137.56C45.79 137.56 45.22 138.10 44.92 138.60L44.92 135.81C44.92 135.51 44.66 135.25 44.36 135.25C44.02 135.25 43.76 135.51 43.76 135.81L43.76 143.51C43.76 143.82 44.02 144.08 44.34 144.08C44.66 144.08 44.92 143.82 44.92 143.51L44.92 140.56C44.92 139.38 45.54 138.59 46.53 138.59C47.47 138.59 48.01 139.29 48.01 140.33L48.01 143.51C48.01 143.82 48.27 144.08 48.59 144.08C48.91 144.08 49.17 143.82 49.17 143.51ZM56.09 139.75C56.09 138.15 54.92 137.56 53.56 137.56C52.72 137.56 51.77 137.84 51.17 138.44C51.09 138.53 51.06 138.63 51.06 138.74C51.06 139.01 51.30 139.19 51.54 139.19C51.63 139.19 51.73 139.15 51.82 139.09C52.29 138.72 52.81 138.54 53.40 138.54C54.28 138.54 54.93 139.01 54.93 139.80L54.93 140.15L53.12 140.15C51.82 140.15 50.68 140.66 50.68 142.08C50.68 143.45 51.82 144.16 52.86 144.16C53.84 144.16 54.42 143.86 54.93 143.30L54.93 143.51C54.93 143.88 55.23 144.08 55.46 144.08L55.50 144.08C55.83 144.08 56.09 143.82 56.09 143.51ZM54.93 140.96L54.93 141.84C54.93 142.58 54.09 143.34 53.17 143.34C52.33 143.34 51.85 142.83 51.85 142.10C51.85 141.35 52.45 140.96 53.44 140.96ZM63.34 139.97C63.34 138.64 62.38 137.56 61.05 137.56C59.96 137.56 59.40 138.10 59.10 138.60L59.10 138.20C59.10 137.90 58.84 137.64 58.54 137.64C58.21 137.64 57.95 137.90 57.95 138.20L57.95 143.51C57.95 143.82 58.21 144.08 58.52 144.08C58.84 144.08 59.10 143.82 59.10 143.51L59.10 140.49C59.10 139.42 59.67 138.59 60.68 138.59C61.61 138.59 62.18 139.32 62.18 140.36L62.18 143.51C62.18 143.82 62.44 144.08 62.76 144.08C63.08 144.08 63.34 143.82 63.34 143.51ZM70.84 138.20C70.84 137.90 70.58 137.64 70.28 137.64C69.95 137.64 69.69 137.90 69.69 138.20L69.69 138.63C69.18 137.96 68.45 137.56 67.62 137.56C65.99 137.56 64.84 138.79 64.84 140.81C64.84 142.86 66.01 144.05 67.62 144.05C68.48 144.05 69.22 143.60 69.69 142.96L69.69 143.79C69.69 145.13 68.72 145.60 67.75 145.60C67.06 145.60 66.51 145.46 66.03 145.05C65.94 144.99 65.85 144.96 65.73 144.96C65.47 144.96 65.24 145.18 65.24 145.46C65.24 145.59 65.29 145.70 65.37 145.78C65.98 146.37 66.86 146.55 67.75 146.55C69.28 146.55 70.84 145.91 70.84 143.75ZM69.69 140.83C69.69 142.12 68.84 143.03 67.80 143.03C66.63 143.03 66.03 142.10 66.03 140.81C66.03 139.50 66.63 138.59 67.80 138.59C68.84 138.59 69.69 139.49 69.69 140.78ZM78.51 140.65C78.51 140.40 78.45 140.13 78.40 139.92C78.03 138.51 76.99 137.56 75.47 137.56C73.65 137.56 72.34 139.03 72.34 140.85C72.34 142.83 73.70 144.16 75.57 144.16C76.50 144.16 78.11 143.68 78.11 142.97C78.11 142.53 77.67 142.43 77.38 142.57C76.93 142.91 76.22 143.22 75.69 143.22C74.42 143.22 73.64 142.35 73.55 141.27L77.91 141.27C78.24 141.27 78.51 140.96 78.51 140.65ZM73.55 140.41C73.60 139.54 74.21 138.50 75.46 138.50C76.80 138.50 77.37 139.57 77.39 140.41ZM85.64 135.81C85.64 135.51 85.38 135.25 85.08 135.25C84.74 135.25 84.48 135.51 84.48 135.81L84.48 138.63C83.97 137.96 83.36 137.56 82.41 137.56C80.77 137.56 79.62 138.85 79.62 140.87C79.62 142.92 80.79 144.16 82.41 144.16C83.39 144.16 84.00 143.73 84.48 143.10L84.48 143.51C84.48 143.82 84.74 144.08 85.05 144.08C85.38 144.08 85.64 143.82 85.64 143.51ZM84.48 140.91C84.48 142.21 83.83 143.13 82.71 143.13C81.54 143.13 80.81 142.18 80.81 140.87C80.81 139.55 81.54 138.59 82.71 138.59C83.83 138.59 84.48 139.54 84.48 140.83ZM96.76 135.91C96.76 135.58 96.52 135.33 96.20 135.33L91.73 135.33C91.27 135.33 90.89 135.71 90.89 136.17L90.89 143.44C90.89 143.79 91.17 144.08 91.52 144.08C91.89 144.08 92.17 143.79 92.17 143.44L92.17 140.15L96.11 140.15C96.43 140.15 96.67 139.89 96.67 139.59C96.67 139.25 96.43 139.01 96.11 139.01L92.17 139.01L92.17 136.47L96.20 136.47C96.52 136.47 96.76 136.21 96.76 135.91ZM98.65 135.39C98.25 135.39 97.91 135.73 97.91 136.15C97.91 136.55 98.25 136.89 98.65 136.89C99.06 136.89 99.39 136.55 99.39 136.15C99.39 135.73 99.06 135.39 98.65 135.39ZM99.23 138.20C99.23 137.90 98.97 137.64 98.67 137.64C98.34 137.64 98.08 137.90 98.08 138.20L98.08 143.51C98.08 143.82 98.34 144.08 98.65 144.08C98.97 144.08 99.23 143.82 99.23 143.51ZM102.26 135.81C102.26 135.51 102.00 135.25 101.70 135.25C101.37 135.25 101.11 135.51 101.11 135.81L101.11 143.51C101.11 143.82 101.37 144.08 101.68 144.08C102.00 144.08 102.26 143.82 102.26 143.51ZM109.93 140.65C109.93 140.40 109.87 140.13 109.82 139.92C109.45 138.51 108.41 137.56 106.89 137.56C105.07 137.56 103.76 139.03 103.76 140.85C103.76 142.83 105.12 144.16 106.99 144.16C107.92 144.16 109.53 143.68 109.53 142.97C109.53 142.53 109.09 142.43 108.80 142.57C108.35 142.91 107.64 143.22 107.11 143.22C105.84 143.22 105.06 142.35 104.97 141.27L109.33 141.27C109.66 141.27 109.93 140.96 109.93 140.65ZM104.97 140.41C105.02 139.54 105.63 138.50 106.88 138.50C108.22 138.50 108.79 139.57 108.81 140.41ZM116.02 142.10C115.90 139.89 112.30 140.50 112.17 139.37C112.12 138.87 112.66 138.49 113.46 138.49C114.05 138.49 114.61 138.68 115.02 138.97C115.09 139.03 115.18 139.06 115.29 139.06C115.52 139.06 115.74 138.87 115.74 138.60C115.74 138.50 115.70 138.40 115.63 138.32C115.13 137.84 114.34 137.56 113.44 137.56C111.91 137.56 110.99 138.29 111.05 139.41C111.17 141.52 114.76 140.87 114.89 142.26C114.94 142.83 114.42 143.23 113.52 143.23C112.87 143.23 112.22 142.97 111.75 142.63C111.66 142.57 111.57 142.54 111.45 142.54C111.18 142.54 110.95 142.75 110.95 143.03C110.95 143.16 111.00 143.26 111.09 143.34C111.66 143.91 112.61 144.16 113.47 144.16C115.13 144.16 116.08 143.30 116.02 142.10Z" fill="#22272e" /><path d="M180.13 141.40C180.13 140.94 179.77 140.58 179.34 140.58L178.94 140.58L178.94 136.29C178.94 135.49 178.16 135.12 177.36 135.25C176.80 135.25 176.24 135.55 175.94 136.02L173.05 140.59C172.93 140.78 172.88 140.98 172.88 141.19C172.88 141.78 173.31 142.21 173.83 142.21L177.09 142.21L177.09 143.17C177.09 143.66 177.50 144.08 178.00 144.08C178.52 144.08 178.94 143.66 178.94 143.17L178.94 142.21L179.34 142.21C179.77 142.21 180.13 141.84 180.13 141.40ZM174.75 140.58L177.09 136.97L177.09 140.58ZM180.77 138.16C180.77 140.01 182.16 140.98 183.72 140.98C184.80 140.98 185.60 140.45 185.94 139.87C185.95 139.93 185.95 139.98 185.95 140.05C185.95 141.43 185.06 142.50 183.78 142.50C183.34 142.50 182.98 142.43 182.65 142.26C182.54 142.19 182.41 142.17 182.28 142.17C181.87 142.17 181.43 142.48 181.43 142.97C181.43 143.10 181.47 143.22 181.52 143.32C181.85 143.90 182.94 144.14 183.78 144.14C186.34 144.14 187.83 142.28 187.83 139.66C187.83 137.21 186.72 135.19 184.08 135.19C182.11 135.19 180.77 136.47 180.77 138.16ZM182.64 138.10C182.64 137.45 183.12 136.82 184.12 136.82C184.94 136.82 185.55 137.38 185.55 138.19C185.55 138.97 184.93 139.53 184.12 139.53C183.29 139.53 182.64 138.97 182.64 138.10ZM195.73 141.15C195.73 139.40 194.42 138.34 192.95 138.34C192.16 138.34 191.45 138.66 191.04 139.07L191.04 136.95L194.43 136.95C194.86 136.95 195.22 136.59 195.22 136.15C195.22 135.69 194.86 135.33 194.43 135.33L190.23 135.33C189.66 135.33 189.19 135.80 189.19 136.37L189.19 139.70C189.19 140.20 189.56 140.58 190.13 140.58C190.39 140.58 190.63 140.50 190.84 140.36C191.31 140.05 191.77 139.94 192.30 139.94C193.29 139.94 193.86 140.46 193.86 141.23C193.86 141.93 193.27 142.52 192.25 142.52C191.62 142.52 191.02 142.35 190.52 142.04C190.36 141.95 190.19 141.89 190.04 141.89C189.58 141.89 189.15 142.25 189.15 142.73C189.15 142.86 189.19 142.99 189.26 143.10C189.66 143.78 191.13 144.16 192.26 144.16C194.35 144.16 195.73 143.00 195.73 141.15ZM198.98 143.36C198.98 142.52 198.42 142.04 197.81 142.04C197.26 142.04 196.80 142.50 196.80 143.08C196.80 143.64 197.19 144.01 197.68 144.01C197.77 144.01 197.89 143.99 197.93 143.97C197.85 144.31 197.56 144.72 197.23 144.99C197.13 145.07 197.10 145.17 197.10 145.27C197.10 145.53 197.37 145.69 197.59 145.69C197.72 145.69 197.84 145.65 197.93 145.56C198.58 144.97 198.98 144.19 198.98 143.36ZM206.73 143.17C206.73 142.74 206.36 142.38 205.94 142.38L203.11 142.38C205.36 140.74 206.59 139.45 206.59 137.97C206.59 136.24 205.12 135.20 203.27 135.20C202.18 135.20 200.72 135.67 200.31 136.33C200.23 136.45 200.19 136.58 200.19 136.71C200.19 137.18 200.57 137.54 201.00 137.54C201.19 137.54 201.36 137.49 201.53 137.37C202.02 137.03 202.62 136.84 203.31 136.84C204.02 136.84 204.71 137.21 204.71 137.97C204.71 138.98 203.67 139.93 200.44 142.32C200.19 142.50 200.05 142.80 200.05 143.10C200.05 143.62 200.46 144 200.92 144L205.94 144C206.36 144 206.73 143.64 206.73 143.17ZM211.80 136.32C211.80 135.73 211.31 135.26 210.72 135.26C210.42 135.26 210.13 135.38 209.94 135.58L207.94 137.60C207.78 137.76 207.70 137.96 207.70 138.15C207.70 138.58 208.07 138.92 208.47 138.92C208.65 138.92 208.83 138.85 208.98 138.71L209.95 137.71L209.95 143.17C209.95 143.66 210.37 144.08 210.86 144.08C211.38 144.08 211.80 143.66 211.80 143.17ZM217.14 136.32C217.14 135.73 216.65 135.26 216.06 135.26C215.76 135.26 215.48 135.38 215.28 135.58L213.28 137.60C213.12 137.76 213.05 137.96 213.05 138.15C213.05 138.58 213.41 138.92 213.81 138.92C214.00 138.92 214.18 138.85 214.32 138.71L215.30 137.71L215.30 143.17C215.30 143.66 215.71 144.08 216.21 144.08C216.73 144.08 217.14 143.66 217.14 143.17Z" fill="#627386" /></g><rect x="18" y="150" width="384" height="8" rx="4" fill="#f4faff" /><rect x="18.00" y="150" width="262.54" height="8" rx="4" fill="#00d559" /><rect x="280.54" y="150" width="121.46" height="8" rx="4" fill="#00a5fe" /></svg>