<svg xmlns="http://www.w3.org/2000/svg" width="420" height="184" viewBox="0 0 420 184" role="img"><rect x="0.5" y="0.5" width="419" height="183" rx="10" fill="#161b22" stroke="#30363d" /><path d="M30.72 33.60C30.72 32.83 30.10 32.21 29.37 32.21L28.69 32.21L28.69 24.95C28.69 23.59 27.37 22.97 26.03 23.19C25.08 23.19 24.14 23.70 23.63 24.49L18.73 32.24C18.53 32.54 18.44 32.90 18.44 33.25C18.44 34.24 19.17 34.96 20.05 34.96L25.57 34.96L25.57 36.59C25.57 37.43 26.27 38.13 27.11 38.13C27.99 38.13 28.69 37.43 28.69 36.59L28.69 34.96L29.37 34.96C30.10 34.96 30.72 34.35 30.72 33.60ZM21.61 32.21L25.57 26.10L25.57 32.21ZM42.82 24.91C42.82 23.99 42.07 23.33 41.30 23.33L32.89 23.33C32.15 23.33 31.53 23.94 31.53 24.67C31.53 25.46 32.15 26.08 32.89 26.08L39.05 26.08L34.68 36.00C34.59 36.20 34.54 36.39 34.54 36.59C34.54 37.38 35.18 38.13 36.11 38.13C36.74 38.13 37.34 37.76 37.58 37.19L42.68 25.53C42.77 25.35 42.82 25.13 42.82 24.91ZM45.79 36.92C45.79 35.49 44.84 34.68 43.81 34.68C42.88 34.68 42.09 35.47 42.09 36.44C42.09 37.38 42.75 38.02 43.59 38.02C43.74 38.02 43.94 37.98 44.00 37.96C43.87 38.53 43.39 39.21 42.82 39.67C42.66 39.80 42.60 39.98 42.60 40.16C42.60 40.60 43.06 40.86 43.43 40.86C43.65 40.86 43.85 40.79 44.00 40.64C45.10 39.65 45.79 38.33 45.79 36.92ZM59.40 33.60C59.40 32.83 58.79 32.21 58.06 32.21L57.38 32.21L57.38 24.95C57.38 23.59 56.06 22.97 54.72 23.19C53.77 23.19 52.83 23.70 52.32 24.49L47.41 32.24C47.22 32.54 47.13 32.90 47.13 33.25C47.13 34.24 47.85 34.96 48.73 34.96L54.26 34.96L54.26 36.59C54.26 37.43 54.96 38.13 55.80 38.13C56.68 38.13 57.38 37.43 57.38 36.59L57.38 34.96L58.06 34.96C58.79 34.96 59.40 34.35 59.40 33.60ZM50.30 32.21L54.26 26.10L54.26 32.21ZM72.71 30.67C72.71 26.89 70.82 23.11 66.64 23.11C62.44 23.11 60.57 26.89 60.57 30.67C60.57 34.46 62.44 38.26 66.64 38.26C70.82 38.26 72.71 34.46 72.71 30.67ZM69.52 30.67C69.52 33.38 68.73 35.49 66.64 35.49C64.53 35.49 63.74 33.38 63.74 30.67C63.74 27.97 64.53 25.88 66.64 25.88C68.73 25.88 69.52 27.97 69.52 30.67ZM86.02 33.97C86.02 31.97 84.84 30.83 83.96 30.43C84.70 30.08 85.78 29.24 85.78 26.98C85.78 24.45 83.05 23.11 80.13 23.11C77.18 23.11 74.47 24.45 74.47 26.98C74.47 29.24 75.53 30.08 76.28 30.43C75.40 30.83 74.23 31.97 74.23 33.97C74.23 36.72 77.05 38.26 80.13 38.26C83.21 38.26 86.02 36.70 86.02 33.97ZM82.59 27.46C82.59 28.56 81.47 29.20 80.13 29.20C78.79 29.20 77.64 28.56 77.64 27.46C77.64 26.41 78.68 25.79 80.13 25.79C81.56 25.79 82.59 26.41 82.59 27.46ZM82.86 33.80C82.86 34.88 81.62 35.58 80.13 35.58C78.59 35.58 77.40 34.88 77.40 33.80C77.40 32.57 78.76 31.84 80.13 31.84C81.47 31.84 82.86 32.57 82.86 33.80ZM100.98 23.08C96.58 23.08 93.17 26.16 93.17 30.67C93.17 35.18 96.58 38.26 100.98 38.26C103.51 38.26 105.21 37.16 106.31 35.82C106.53 35.58 106.62 35.27 106.62 34.96C106.62 34.22 105.98 33.60 105.19 33.60C104.75 33.60 104.31 33.78 104.00 34.11C103.18 35.01 102.08 35.49 100.98 35.49C98.32 35.49 96.39 33.45 96.39 30.67C96.39 27.90 98.32 25.86 100.98 25.86C102.08 25.86 103.16 26.38 104.00 27.26C104.31 27.59 104.72 27.77 105.14 27.77C105.96 27.77 106.64 27.15 106.64 26.36C106.64 26.08 106.53 25.75 106.33 25.50C105.21 24.16 103.51 23.08 100.98 23.08ZM119.49 32.68C119.49 29.66 117.37 27.11 113.85 27.11C110.36 27.11 108.24 29.66 108.24 32.68C108.24 35.71 110.36 38.26 113.85 38.26C117.37 38.26 119.49 35.71 119.49 32.68ZM116.58 32.68C116.58 34.35 115.59 35.78 113.85 35.78C112.12 35.78 111.15 34.35 111.15 32.68C111.15 31.03 112.12 29.60 113.85 29.60C115.59 29.60 116.58 31.03 116.58 32.68ZM137.55 31.20C137.55 29.02 136.03 27.11 133.63 27.11C131.78 27.11 130.73 28.19 130.33 28.94C129.94 28.17 128.95 27.11 127.16 27.11C125.54 27.11 124.79 27.70 124.35 28.28L124.35 28.25C124.35 27.95 123.95 27.24 122.98 27.24C122.17 27.24 121.55 27.86 121.55 28.61L121.55 36.75C121.55 37.52 122.17 38.13 122.94 38.13C123.73 38.13 124.35 37.52 124.35 36.75L124.35 31.73C124.35 30.70 125.14 29.60 126.33 29.60C127.47 29.60 128.13 30.74 128.13 31.73L128.13 36.75C128.13 37.52 128.75 38.13 129.52 38.13C130.33 38.13 130.95 37.52 130.95 36.75L130.95 31.93C130.95 30.70 131.72 29.60 132.93 29.60C134.07 29.60 134.73 30.74 134.73 31.73L134.73 36.75C134.73 37.52 135.35 38.13 136.12 38.13C136.93 38.13 137.55 37.52 137.55 36.75ZM156.29 31.20C156.29 29.02 154.77 27.11 152.38 27.11C150.53 27.11 149.47 28.19 149.08 28.94C148.68 28.17 147.69 27.11 145.91 27.11C144.28 27.11 143.53 27.70 143.09 28.28L143.09 28.25C143.09 27.95 142.70 27.24 141.73 27.24C140.91 27.24 140.30 27.86 140.30 28.61L140.30 36.75C140.30 37.52 140.91 38.13 141.68 38.13C142.48 38.13 143.09 37.52 143.09 36.75L143.09 31.73C143.09 30.70 143.88 29.60 145.07 29.60C146.22 29.60 146.88 30.74 146.88 31.73L146.88 36.75C146.88 37.52 147.49 38.13 148.26 38.13C149.08 38.13 149.69 37.52 149.69 36.75L149.69 31.93C149.69 30.70 150.46 29.60 151.67 29.60C152.82 29.60 153.48 30.74 153.48 31.73L153.48 36.75C153.48 37.52 154.09 38.13 154.86 38.13C155.68 38.13 156.29 37.52 156.29 36.75ZM160.43 22.91C159.53 22.91 158.76 23.63 158.76 24.56C158.76 25.48 159.53 26.23 160.43 26.23C161.35 26.23 162.10 25.48 162.10 24.56C162.10 23.63 161.35 22.91 160.43 22.91ZM161.84 28.61C161.84 27.86 161.22 27.24 160.47 27.24C159.66 27.24 159.04 27.86 159.04 28.61L159.04 36.75C159.04 37.52 159.66 38.13 160.43 38.13C161.22 38.13 161.84 37.52 161.84 36.75ZM170.42 36.99C170.42 36.31 169.98 35.78 169.18 35.78L168.94 35.78C168.50 35.78 167.97 35.45 167.97 34.61L167.97 29.82L169.07 29.82C169.71 29.82 170.26 29.27 170.26 28.61C170.26 27.92 169.71 27.37 169.07 27.37L167.97 27.37L167.97 25.72C167.97 24.95 167.36 24.34 166.59 24.34C165.77 24.34 165.16 24.95 165.16 25.72L165.16 27.37L164.48 27.37C163.82 27.37 163.27 27.92 163.27 28.56C163.27 29.27 163.82 29.82 164.48 29.82L165.16 29.82L165.16 35.36C165.16 37.25 166.21 38.26 168.17 38.26C170.00 38.26 170.42 37.69 170.42 36.99ZM180.47 34.85C180.47 30.56 174.18 31.88 174.18 30.30C174.18 29.71 174.84 29.24 175.85 29.24C176.71 29.24 177.57 29.49 178.25 29.88C178.40 29.97 178.60 30.01 178.78 30.01C179.35 30.01 179.88 29.55 179.88 28.96C179.88 28.76 179.81 28.56 179.70 28.41C179.11 27.55 177.21 27.11 175.83 27.11C173.03 27.11 171.47 28.67 171.47 30.45C171.47 34.63 177.79 33.20 177.79 34.96C177.79 35.62 177.21 36.11 176.00 36.11C175.08 36.11 173.98 35.73 173.14 35.25C172.97 35.14 172.77 35.10 172.57 35.10C171.98 35.10 171.41 35.60 171.41 36.26C171.41 36.48 171.47 36.68 171.60 36.86C172.26 37.80 174.49 38.26 175.87 38.26C178.82 38.26 180.47 36.79 180.47 34.85Z" fill="#e6edf3" /><path d="M20.26 49.88C20.26 49.54 19.98 49.25 19.64 49.25C19.26 49.25 18.98 49.54 18.98 49.88L18.98 57.44C18.98 57.79 19.26 58.08 19.61 58.08C19.98 58.08 20.26 57.79 20.26 57.44ZM27.55 53.97C27.55 52.64 26.59 51.56 25.27 51.56C24.18 51.56 23.62 52.10 23.32 52.60L23.32 52.20C23.32 51.90 23.06 51.64 22.76 51.64C22.42 51.64 22.16 51.90 22.16 52.20L22.16 57.51C22.16 57.82 22.42 58.08 22.73 58.08C23.06 58.08 23.32 57.82 23.32 57.51L23.32 54.49C23.32 53.42 23.89 52.59 24.89 52.59C25.83 52.59 26.40 53.32 26.40 54.36L26.40 57.51C26.40 57.82 26.66 58.08 26.97 58.08C27.30 58.08 27.55 57.82 27.55 57.51ZM38.97 49.91C38.97 49.58 38.72 49.33 38.41 49.33L32.70 49.33C32.39 49.33 32.14 49.58 32.14 49.89C32.14 50.21 32.39 50.47 32.70 50.47L34.91 50.47L34.91 57.44C34.91 57.79 35.20 58.08 35.55 58.08C35.91 58.08 36.20 57.79 36.20 57.44L36.20 50.47L38.41 50.47C38.72 50.47 38.97 50.21 38.97 49.91ZM44.74 54.85C44.74 53.05 43.53 51.56 41.57 51.56C39.62 51.56 38.41 53.05 38.41 54.85C38.41 56.66 39.62 58.16 41.57 58.16C43.53 58.16 44.74 56.66 44.74 54.85ZM43.53 54.85C43.53 56.06 42.83 57.13 41.57 57.13C40.32 57.13 39.61 56.06 39.61 54.85C39.61 53.66 40.32 52.59 41.57 52.59C42.83 52.59 43.53 53.66 43.53 54.85ZM49.16 57.55C49.16 57.27 48.95 57.06 48.67 57.06C48.54 57.06 48.38 57.13 48.24 57.13C47.86 57.13 47.63 56.83 47.63 56.35L47.63 52.73L48.48 52.73C48.76 52.73 48.98 52.51 48.98 52.24C48.98 51.94 48.76 51.72 48.48 51.72L47.63 51.72L47.63 50.49C47.63 50.19 47.37 49.93 47.05 49.93C46.72 49.93 46.46 50.19 46.46 50.49L46.46 51.72L45.85 51.72C45.56 51.72 45.34 51.94 45.34 52.22C45.34 52.51 45.56 52.73 45.85 52.73L46.46 52.73L46.46 56.62C46.46 57.61 46.98 58.16 47.96 58.16C48.65 58.16 49.16 57.96 49.16 57.55ZM55.26 53.75C55.26 52.15 54.09 51.56 52.74 51.56C51.89 51.56 50.94 51.84 50.34 52.44C50.27 52.53 50.23 52.63 50.23 52.73C50.23 53.01 50.47 53.19 50.71 53.19C50.80 53.19 50.90 53.15 50.99 53.09C51.46 52.72 51.98 52.54 52.57 52.54C53.45 52.54 54.10 53.01 54.10 53.80L54.10 54.15L52.29 54.15C50.99 54.15 49.85 54.66 49.85 56.08C49.85 57.45 50.99 58.16 52.03 58.16C53.01 58.16 53.59 57.86 54.10 57.30L54.10 57.51C54.10 57.88 54.40 58.08 54.63 58.08L54.67 58.08C55.00 58.08 55.26 57.82 55.26 57.51ZM54.10 54.96L54.10 55.84C54.10 56.58 53.26 57.34 52.35 57.34C51.50 57.34 51.02 56.83 51.02 56.10C51.02 55.35 51.62 54.96 52.61 54.96ZM58.27 49.81C58.27 49.51 58.01 49.25 57.71 49.25C57.38 49.25 57.12 49.51 57.12 49.81L57.12 57.51C57.12 57.82 57.38 58.08 57.69 58.08C58.01 58.08 58.27 57.82 58.27 57.51Z" fill="#9aa7b4" /><line x1="18" y1="76" x2="48" y2="76" stroke="#9aa7b4" stroke-opacity="0.4" /><g aria-label="Additions: 31,280,483"><circle cx="22" cy="96" r="4" fill="#00d559" /><path d="M42.28 99.39C42.28 99.31 42.27 99.23 42.23 99.14L39.36 91.94C39.19 91.51 38.76 91.24 38.30 91.25C37.85 91.25 37.43 91.52 37.28 91.94L34.40 99.14C34.38 99.23 34.36 99.31 34.36 99.39C34.36 99.74 34.65 100.08 35.05 100.08C35.33 100.08 35.57 99.92 35.68 99.66L36.25 98.19L40.40 98.19L40.97 99.66C41.07 99.92 41.32 100.08 41.59 100.08C42.01 100.08 42.28 99.71 42.28 99.39ZM38.32 92.64L40.03 97.06L36.61 97.06ZM49.22 91.81C49.22 91.51 48.96 91.25 48.66 91.25C48.33 91.25 48.07 91.51 48.07 91.81L48.07 94.63C47.56 93.95 46.95 93.56 46.00 93.56C44.36 93.56 43.20 94.85 43.20 96.87C43.20 98.92 44.37 100.16 46.00 100.16C46.97 100.16 47.59 99.73 48.07 99.10L48.07 99.51C48.07 99.82 48.33 100.08 48.64 100.08C48.96 100.08 49.22 99.82 49.22 99.51ZM48.07 96.91C48.07 98.21 47.42 99.13 46.30 99.13C45.13 99.13 44.40 98.18 44.40 96.87C44.40 95.55 45.13 94.59 46.30 94.59C47.42 94.59 48.07 95.54 48.07 96.83ZM56.74 91.81C56.74 91.51 56.48 91.25 56.18 91.25C55.84 91.25 55.58 91.51 55.58 91.81L55.58 94.63C55.07 93.95 54.46 93.56 53.51 93.56C51.88 93.56 50.72 94.85 50.72 96.87C50.72 98.92 51.89 100.16 53.51 100.16C54.49 100.16 55.10 99.73 55.58 99.10L55.58 99.51C55.58 99.82 55.84 100.08 56.15 100.08C56.48 100.08 56.74 99.82 56.74 99.51ZM55.58 96.91C55.58 98.21 54.93 99.13 53.81 99.13C52.64 99.13 51.91 98.18 51.91 96.87C51.91 95.55 52.64 94.59 53.81 94.59C54.93 94.59 55.58 95.54 55.58 96.83ZM59.18 91.39C58.78 91.39 58.44 91.73 58.44 92.15C58.44 92.55 58.78 92.89 59.18 92.89C59.60 92.89 59.92 92.55 59.92 92.15C59.92 91.73 59.60 91.39 59.18 91.39ZM59.77 94.20C59.77 93.90 59.51 93.64 59.21 93.64C58.87 93.64 58.61 93.90 58.61 94.20L58.61 99.51C58.61 99.82 58.87 100.08 59.18 100.08C59.51 100.08 59.77 99.82 59.77 99.51ZM64.56 99.55C64.56 99.27 64.36 99.06 64.07 99.06C63.94 99.06 63.78 99.13 63.64 99.13C63.26 99.13 63.03 98.83 63.03 98.35L63.03 94.73L63.89 94.73C64.16 94.73 64.38 94.51 64.38 94.24C64.38 93.94 64.16 93.72 63.89 93.72L63.03 93.72L63.03 92.49C63.03 92.19 62.77 91.93 62.46 91.93C62.12 91.93 61.86 92.19 61.86 92.49L61.86 93.72L61.25 93.72C60.96 93.72 60.74 93.94 60.74 94.22C60.74 94.51 60.96 94.73 61.25 94.73L61.86 94.73L61.86 98.62C61.86 99.61 62.38 100.16 63.37 100.16C64.06 100.16 64.56 99.96 64.56 99.55ZM66.19 91.39C65.79 91.39 65.45 91.73 65.45 92.15C65.45 92.55 65.79 92.89 66.19 92.89C66.60 92.89 66.93 92.55 66.93 92.15C66.93 91.73 66.60 91.39 66.19 91.39ZM66.77 94.20C66.77 93.90 66.51 93.64 66.21 93.64C65.88 93.64 65.62 93.90 65.62 94.20L65.62 99.51C65.62 99.82 65.88 100.08 66.19 100.08C66.51 100.08 66.77 99.82 66.77 99.51ZM74.60 96.85C74.60 95.05 73.39 93.56 71.43 93.56C69.48 93.56 68.27 95.05 68.27 96.85C68.27 98.66 69.48 100.16 71.43 100.16C73.39 100.16 74.60 98.66 74.60 96.85ZM73.39 96.85C73.39 98.06 72.69 99.13 71.43 99.13C70.18 99.13 69.46 98.06 69.46 96.85C69.46 95.66 70.18 94.59 71.43 94.59C72.69 94.59 73.39 95.66 73.39 96.85ZM81.49 95.97C81.49 94.64 80.53 93.56 79.20 93.56C78.11 93.56 77.55 94.10 77.25 94.61L77.25 94.20C77.25 93.90 76.99 93.64 76.69 93.64C76.35 93.64 76.09 93.90 76.09 94.20L76.09 99.51C76.09 99.82 76.35 100.08 76.67 100.08C76.99 100.08 77.25 99.82 77.25 99.51L77.25 96.49C77.25 95.42 77.82 94.59 78.82 94.59C79.76 94.59 80.33 95.32 80.33 96.36L80.33 99.51C80.33 99.82 80.59 100.08 80.90 100.08C81.23 100.08 81.49 99.82 81.49 99.51ZM87.96 98.10C87.85 95.89 84.24 96.50 84.11 95.37C84.06 94.86 84.61 94.49 85.40 94.49C86 94.49 86.56 94.68 86.96 94.97C87.04 95.03 87.13 95.06 87.23 95.06C87.47 95.06 87.69 94.86 87.69 94.61C87.69 94.50 87.65 94.40 87.57 94.32C87.08 93.84 86.29 93.56 85.39 93.56C83.86 93.56 82.93 94.29 83.00 95.41C83.11 97.52 86.70 96.87 86.83 98.26C86.88 98.83 86.36 99.23 85.47 99.23C84.82 99.23 84.17 98.97 83.70 98.64C83.61 98.57 83.52 98.54 83.40 98.54C83.13 98.54 82.89 98.75 82.89 99.03C82.89 99.16 82.94 99.26 83.04 99.34C83.61 99.91 84.56 100.16 85.41 100.16C87.08 100.16 88.03 99.30 87.96 98.10Z" fill="#e6edf3" /><path d="M158.69 97.63C158.80 96.07 157.75 95.53 157.75 95.53C157.75 95.53 158.71 95.03 158.60 93.55C158.50 92.11 157.35 91.20 155.33 91.20C154.13 91.20 153.19 91.55 152.48 92.12C152.30 92.27 152.21 92.47 152.21 92.68C152.21 93.14 152.61 93.46 153.01 93.46C153.17 93.46 153.32 93.42 153.45 93.33C153.96 93.01 154.53 92.84 155.13 92.84C156.04 92.84 156.74 93.05 156.74 93.73C156.74 94.45 156.31 94.79 155.44 94.79C154.82 94.79 154.55 95.14 154.55 95.59C154.55 96.05 154.82 96.41 155.50 96.41C156.38 96.41 156.89 96.72 156.89 97.41C156.89 98.06 156.30 98.52 155.25 98.52C154.65 98.52 153.96 98.31 153.39 97.97C153.25 97.88 153.09 97.84 152.94 97.84C152.51 97.84 152.09 98.19 152.09 98.66C152.09 98.79 152.13 98.91 152.19 99.01C152.60 99.69 154.07 100.16 155.31 100.16C157.39 100.16 158.59 99.26 158.69 97.63ZM163.75 92.32C163.75 91.73 163.26 91.26 162.67 91.26C162.37 91.26 162.09 91.38 161.89 91.58L159.89 93.60C159.73 93.76 159.66 93.95 159.66 94.15C159.66 94.58 160.02 94.92 160.42 94.92C160.60 94.92 160.79 94.85 160.93 94.71L161.91 93.71L161.91 99.17C161.91 99.66 162.32 100.08 162.81 100.08C163.33 100.08 163.75 99.66 163.75 99.17ZM167.40 99.36C167.40 98.52 166.84 98.04 166.23 98.04C165.69 98.04 165.22 98.50 165.22 99.08C165.22 99.64 165.61 100.01 166.10 100.01C166.19 100.01 166.31 99.99 166.35 99.97C166.27 100.31 165.99 100.72 165.65 100.99C165.56 101.07 165.52 101.17 165.52 101.27C165.52 101.53 165.79 101.69 166.01 101.69C166.14 101.69 166.26 101.65 166.35 101.56C167.00 100.97 167.40 100.19 167.40 99.36ZM175.15 99.17C175.15 98.74 174.79 98.38 174.36 98.38L171.54 98.38C173.79 96.74 175.01 95.45 175.01 93.97C175.01 92.24 173.54 91.20 171.69 91.20C170.60 91.20 169.15 91.67 168.73 92.33C168.65 92.45 168.61 92.58 168.61 92.71C168.61 93.17 168.99 93.54 169.42 93.54C169.61 93.54 169.78 93.49 169.95 93.37C170.45 93.03 171.04 92.84 171.73 92.84C172.45 92.84 173.14 93.21 173.14 93.97C173.14 94.98 172.10 95.93 168.86 98.32C168.61 98.50 168.47 98.80 168.47 99.10C168.47 99.62 168.89 100 169.34 100L174.36 100C174.79 100 175.15 99.64 175.15 99.17ZM183.16 97.62C183.16 96.44 182.46 95.76 181.94 95.53C182.38 95.32 183.02 94.83 183.02 93.49C183.02 91.99 181.41 91.20 179.68 91.20C177.93 91.20 176.34 91.99 176.34 93.49C176.34 94.83 176.96 95.32 177.40 95.53C176.88 95.76 176.19 96.44 176.19 97.62C176.19 99.25 177.86 100.16 179.68 100.16C181.50 100.16 183.16 99.23 183.16 97.62ZM181.13 93.77C181.13 94.42 180.47 94.80 179.68 94.80C178.88 94.80 178.21 94.42 178.21 93.77C178.21 93.15 178.82 92.78 179.68 92.78C180.52 92.78 181.13 93.15 181.13 93.77ZM181.29 97.52C181.29 98.15 180.56 98.57 179.68 98.57C178.77 98.57 178.06 98.15 178.06 97.52C178.06 96.79 178.87 96.36 179.68 96.36C180.47 96.36 181.29 96.79 181.29 97.52ZM191.23 95.67C191.23 93.44 190.12 91.20 187.65 91.20C185.16 91.20 184.06 93.44 184.06 95.67C184.06 97.91 185.16 100.16 187.65 100.16C190.12 100.16 191.23 97.91 191.23 95.67ZM189.35 95.67C189.35 97.27 188.88 98.52 187.65 98.52C186.40 98.52 185.93 97.27 185.93 95.67C185.93 94.07 186.40 92.84 187.65 92.84C188.88 92.84 189.35 94.07 189.35 95.67ZM194.20 99.36C194.20 98.52 193.64 98.04 193.03 98.04C192.48 98.04 192.01 98.50 192.01 99.08C192.01 99.64 192.40 100.01 192.90 100.01C192.99 100.01 193.11 99.99 193.14 99.97C193.07 100.31 192.78 100.72 192.44 100.99C192.35 101.07 192.31 101.17 192.31 101.27C192.31 101.53 192.59 101.69 192.81 101.69C192.94 101.69 193.05 101.65 193.14 101.56C193.79 100.97 194.20 100.19 194.20 99.36ZM202.24 97.40C202.24 96.94 201.88 96.58 201.45 96.58L201.05 96.58L201.05 92.29C201.05 91.48 200.27 91.12 199.48 91.25C198.92 91.25 198.36 91.55 198.06 92.02L195.16 96.59C195.04 96.78 194.99 96.98 194.99 97.19C194.99 97.78 195.42 98.21 195.94 98.21L199.20 98.21L199.20 99.17C199.20 99.66 199.62 100.08 200.11 100.08C200.63 100.08 201.05 99.66 201.05 99.17L201.05 98.21L201.45 98.21C201.88 98.21 202.24 97.84 202.24 97.40ZM196.86 96.58L199.20 92.97L199.20 96.58ZM209.91 97.62C209.91 96.44 209.21 95.76 208.69 95.53C209.13 95.32 209.77 94.83 209.77 93.49C209.77 91.99 208.16 91.20 206.43 91.20C204.69 91.20 203.09 91.99 203.09 93.49C203.09 94.83 203.71 95.32 204.16 95.53C203.64 95.76 202.95 96.44 202.95 97.62C202.95 99.25 204.61 100.16 206.43 100.16C208.25 100.16 209.91 99.23 209.91 97.62ZM207.89 93.77C207.89 94.42 207.22 94.80 206.43 94.80C205.64 94.80 204.96 94.42 204.96 93.77C204.96 93.15 205.57 92.78 206.43 92.78C207.28 92.78 207.89 93.15 207.89 93.77ZM208.04 97.52C208.04 98.15 207.31 98.57 206.43 98.57C205.52 98.57 204.82 98.15 204.82 97.52C204.82 96.79 205.62 96.36 206.43 96.36C207.22 96.36 208.04 96.79 208.04 97.52ZM217.43 97.63C217.53 96.07 216.48 95.53 216.48 95.53C216.48 95.53 217.44 95.03 217.34 93.55C217.23 92.11 216.09 91.20 214.06 91.20C212.87 91.20 211.93 91.55 211.21 92.12C211.03 92.27 210.94 92.47 210.94 92.68C210.94 93.14 211.34 93.46 211.75 93.46C211.90 93.46 212.06 93.42 212.19 93.33C212.70 93.01 213.27 92.84 213.87 92.84C214.78 92.84 215.48 93.05 215.48 93.73C215.48 94.45 215.05 94.79 214.18 94.79C213.55 94.79 213.28 95.14 213.28 95.59C213.28 96.05 213.55 96.41 214.23 96.41C215.11 96.41 215.62 96.72 215.62 97.41C215.62 98.06 215.04 98.52 213.98 98.52C213.39 98.52 212.70 98.31 212.12 97.97C211.98 97.88 211.83 97.84 211.67 97.84C211.24 97.84 210.82 98.19 210.82 98.66C210.82 98.79 210.86 98.91 210.93 99.01C211.33 99.69 212.80 100.16 214.05 100.16C216.13 100.16 217.32 99.26 217.43 97.63Z" fill="#9aa7b4" /></g><g aria-label="Deletions: 13,094,130"><circle cx="22" cy="118" r="4" fill="#00a5fe" /><path d="M42.54 117.67C42.54 115.17 40.76 113.33 38.06 113.33L35.82 113.33C35.35 113.33 34.98 113.71 34.98 114.17L34.98 121.16C34.98 121.62 35.35 122 35.82 122L38.06 122C40.76 122 42.54 120.18 42.54 117.67ZM41.23 117.67C41.23 119.43 40.06 120.86 38.06 120.86L36.26 120.86L36.26 114.47L38.06 114.47C40.11 114.47 41.23 115.89 41.23 117.67ZM49.90 118.65C49.90 118.40 49.83 118.13 49.78 117.92C49.42 116.51 48.38 115.56 46.86 115.56C45.04 115.56 43.72 117.03 43.72 118.85C43.72 120.83 45.09 122.16 46.96 122.16C47.88 122.16 49.50 121.67 49.50 120.97C49.50 120.53 49.05 120.43 48.77 120.57C48.31 120.91 47.61 121.22 47.08 121.22C45.80 121.22 45.02 120.35 44.93 119.27L49.30 119.27C49.63 119.27 49.90 118.96 49.90 118.65ZM44.93 118.41C44.98 117.54 45.60 116.50 46.84 116.50C48.18 116.50 48.76 117.57 48.78 118.41ZM52.54 113.81C52.54 113.51 52.28 113.25 51.98 113.25C51.64 113.25 51.38 113.51 51.38 113.81L51.38 121.51C51.38 121.82 51.64 122.08 51.95 122.08C52.28 122.08 52.54 121.82 52.54 121.51ZM60.21 118.65C60.21 118.40 60.14 118.13 60.09 117.92C59.73 116.51 58.69 115.56 57.17 115.56C55.35 115.56 54.03 117.03 54.03 118.85C54.03 120.83 55.40 122.16 57.27 122.16C58.19 122.16 59.81 121.67 59.81 120.97C59.81 120.53 59.36 120.43 59.08 120.57C58.62 120.91 57.92 121.22 57.39 121.22C56.11 121.22 55.33 120.35 55.24 119.27L59.61 119.27C59.94 119.27 60.21 118.96 60.21 118.65ZM55.24 118.41C55.29 117.54 55.91 116.50 57.15 116.50C58.49 116.50 59.06 117.57 59.09 118.41ZM64.62 121.55C64.62 121.27 64.41 121.06 64.12 121.06C63.99 121.06 63.84 121.13 63.69 121.13C63.32 121.13 63.08 120.83 63.08 120.35L63.08 116.73L63.94 116.73C64.21 116.73 64.43 116.51 64.43 116.24C64.43 115.94 64.21 115.72 63.94 115.72L63.08 115.72L63.08 114.49C63.08 114.19 62.82 113.93 62.51 113.93C62.17 113.93 61.91 114.19 61.91 114.49L61.91 115.72L61.30 115.72C61.01 115.72 60.79 115.94 60.79 116.22C60.79 116.51 61.01 116.73 61.30 116.73L61.91 116.73L61.91 120.62C61.91 121.61 62.43 122.16 63.42 122.16C64.11 122.16 64.62 121.96 64.62 121.55ZM66.24 113.39C65.84 113.39 65.50 113.73 65.50 114.15C65.50 114.55 65.84 114.89 66.24 114.89C66.66 114.89 66.98 114.55 66.98 114.15C66.98 113.73 66.66 113.39 66.24 113.39ZM66.83 116.20C66.83 115.90 66.56 115.64 66.27 115.64C65.93 115.64 65.67 115.90 65.67 116.20L65.67 121.51C65.67 121.82 65.93 122.08 66.24 122.08C66.56 122.08 66.83 121.82 66.83 121.51ZM74.65 118.85C74.65 117.05 73.44 115.56 71.48 115.56C69.53 115.56 68.32 117.05 68.32 118.85C68.32 120.66 69.53 122.16 71.48 122.16C73.44 122.16 74.65 120.66 74.65 118.85ZM73.44 118.85C73.44 120.06 72.74 121.13 71.48 121.13C70.23 121.13 69.52 120.06 69.52 118.85C69.52 117.66 70.23 116.59 71.48 116.59C72.74 116.59 73.44 117.66 73.44 118.85ZM81.54 117.97C81.54 116.64 80.58 115.56 79.25 115.56C78.16 115.56 77.60 116.10 77.30 116.61L77.30 116.20C77.30 115.90 77.04 115.64 76.74 115.64C76.41 115.64 76.15 115.90 76.15 116.20L76.15 121.51C76.15 121.82 76.41 122.08 76.72 122.08C77.04 122.08 77.30 121.82 77.30 121.51L77.30 118.49C77.30 117.42 77.88 116.59 78.88 116.59C79.81 116.59 80.38 117.32 80.38 118.36L80.38 121.51C80.38 121.82 80.64 122.08 80.96 122.08C81.28 122.08 81.54 121.82 81.54 121.51ZM88.01 120.10C87.90 117.89 84.30 118.50 84.17 117.37C84.11 116.86 84.66 116.49 85.45 116.49C86.05 116.49 86.61 116.68 87.01 116.97C87.09 117.03 87.18 117.06 87.29 117.06C87.52 117.06 87.74 116.86 87.74 116.61C87.74 116.50 87.70 116.40 87.62 116.32C87.13 115.84 86.34 115.56 85.44 115.56C83.91 115.56 82.98 116.29 83.05 117.41C83.17 119.52 86.75 118.87 86.88 120.26C86.94 120.83 86.42 121.23 85.52 121.23C84.87 121.23 84.22 120.97 83.75 120.64C83.66 120.57 83.57 120.54 83.45 120.54C83.18 120.54 82.94 120.75 82.94 121.03C82.94 121.16 83.00 121.26 83.09 121.34C83.66 121.91 84.61 122.16 85.47 122.16C87.13 122.16 88.08 121.30 88.01 120.10Z" fill="#e6edf3" /><path d="M159.66 114.32C159.66 113.73 159.16 113.26 158.58 113.26C158.28 113.26 157.99 113.38 157.80 113.58L155.79 115.60C155.64 115.76 155.56 115.95 155.56 116.15C155.56 116.58 155.92 116.92 156.33 116.92C156.51 116.92 156.69 116.85 156.83 116.71L157.81 115.71L157.81 121.17C157.81 121.66 158.23 122.08 158.72 122.08C159.24 122.08 159.66 121.66 159.66 121.17ZM167.57 119.63C167.68 118.07 166.62 117.53 166.62 117.53C166.62 117.53 167.59 117.03 167.48 115.55C167.38 114.11 166.23 113.20 164.21 113.20C163.01 113.20 162.07 113.55 161.36 114.12C161.18 114.27 161.09 114.47 161.09 114.68C161.09 115.14 161.49 115.46 161.89 115.46C162.05 115.46 162.20 115.42 162.33 115.33C162.84 115.01 163.41 114.84 164.01 114.84C164.92 114.84 165.62 115.05 165.62 115.73C165.62 116.45 165.19 116.79 164.32 116.79C163.70 116.79 163.43 117.14 163.43 117.59C163.43 118.05 163.70 118.41 164.37 118.41C165.26 118.41 165.77 118.72 165.77 119.41C165.77 120.06 165.18 120.52 164.13 120.52C163.53 120.52 162.84 120.31 162.27 119.97C162.13 119.88 161.97 119.84 161.81 119.84C161.38 119.84 160.97 120.19 160.97 120.66C160.97 120.79 161.01 120.91 161.07 121.01C161.48 121.69 162.94 122.16 164.19 122.16C166.27 122.16 167.47 121.26 167.57 119.63ZM170.94 121.36C170.94 120.52 170.38 120.04 169.77 120.04C169.22 120.04 168.76 120.50 168.76 121.08C168.76 121.64 169.15 122.01 169.64 122.01C169.73 122.01 169.85 121.99 169.89 121.97C169.81 122.31 169.52 122.72 169.18 122.99C169.09 123.07 169.05 123.17 169.05 123.27C169.05 123.53 169.33 123.69 169.55 123.69C169.68 123.69 169.80 123.65 169.89 123.56C170.54 122.97 170.94 122.19 170.94 121.36ZM178.82 117.67C178.82 115.44 177.70 113.20 175.23 113.20C172.75 113.20 171.64 115.44 171.64 117.67C171.64 119.91 172.75 122.16 175.23 122.16C177.70 122.16 178.82 119.91 178.82 117.67ZM176.93 117.67C176.93 119.27 176.46 120.52 175.23 120.52C173.98 120.52 173.51 119.27 173.51 117.67C173.51 116.07 173.98 114.84 175.23 114.84C176.46 114.84 176.93 116.07 176.93 117.67ZM179.65 116.16C179.65 118.01 181.04 118.98 182.60 118.98C183.68 118.98 184.49 118.45 184.82 117.87C184.84 117.93 184.84 117.98 184.84 118.05C184.84 119.43 183.94 120.50 182.67 120.50C182.22 120.50 181.86 120.43 181.53 120.26C181.42 120.19 181.29 120.17 181.16 120.17C180.75 120.17 180.31 120.48 180.31 120.97C180.31 121.10 180.35 121.22 180.40 121.32C180.73 121.90 181.82 122.14 182.67 122.14C185.23 122.14 186.71 120.28 186.71 117.66C186.71 115.21 185.60 113.19 182.97 113.19C180.99 113.19 179.65 114.47 179.65 116.16ZM181.52 116.10C181.52 115.45 182.00 114.82 183.00 114.82C183.82 114.82 184.43 115.38 184.43 116.19C184.43 116.97 183.81 117.53 183.00 117.53C182.17 117.53 181.52 116.97 181.52 116.10ZM194.68 119.40C194.68 118.94 194.31 118.58 193.88 118.58L193.48 118.58L193.48 114.29C193.48 113.48 192.70 113.12 191.91 113.25C191.35 113.25 190.79 113.55 190.49 114.02L187.59 118.59C187.48 118.78 187.42 118.98 187.42 119.19C187.42 119.78 187.85 120.21 188.37 120.21L191.64 120.21L191.64 121.17C191.64 121.66 192.05 122.08 192.55 122.08C193.07 122.08 193.48 121.66 193.48 121.17L193.48 120.21L193.88 120.21C194.31 120.21 194.68 119.84 194.68 119.40ZM189.30 118.58L191.64 114.97L191.64 118.58ZM197.72 121.36C197.72 120.52 197.16 120.04 196.55 120.04C196.00 120.04 195.54 120.50 195.54 121.08C195.54 121.64 195.93 122.01 196.42 122.01C196.51 122.01 196.63 121.99 196.67 121.97C196.59 122.31 196.30 122.72 195.96 122.99C195.87 123.07 195.83 123.17 195.83 123.27C195.83 123.53 196.11 123.69 196.33 123.69C196.46 123.69 196.58 123.65 196.67 123.56C197.32 122.97 197.72 122.19 197.72 121.36ZM201.45 114.32C201.45 113.73 200.96 113.26 200.37 113.26C200.07 113.26 199.79 113.38 199.59 113.58L197.59 115.60C197.43 115.76 197.36 115.95 197.36 116.15C197.36 116.58 197.72 116.92 198.12 116.92C198.30 116.92 198.49 116.85 198.63 116.71L199.60 115.71L199.60 121.17C199.60 121.66 200.02 122.08 200.51 122.08C201.03 122.08 201.45 121.66 201.45 121.17ZM209.37 119.63C209.47 118.07 208.42 117.53 208.42 117.53C208.42 117.53 209.38 117.03 209.28 115.55C209.17 114.11 208.03 113.20 206.00 113.20C204.80 113.20 203.87 113.55 203.15 114.12C202.97 114.27 202.88 114.47 202.88 114.68C202.88 115.14 203.28 115.46 203.69 115.46C203.84 115.46 204.00 115.42 204.13 115.33C204.64 115.01 205.21 114.84 205.81 114.84C206.72 114.84 207.42 115.05 207.42 115.73C207.42 116.45 206.99 116.79 206.12 116.79C205.49 116.79 205.22 117.14 205.22 117.59C205.22 118.05 205.49 118.41 206.17 118.41C207.05 118.41 207.56 118.72 207.56 119.41C207.56 120.06 206.98 120.52 205.92 120.52C205.32 120.52 204.64 120.31 204.06 119.97C203.92 119.88 203.76 119.84 203.61 119.84C203.18 119.84 202.76 120.19 202.76 120.66C202.76 120.79 202.80 120.91 202.87 121.01C203.27 121.69 204.74 122.16 205.99 122.16C208.07 122.16 209.26 121.26 209.37 119.63ZM217.56 117.67C217.56 115.44 216.44 113.20 213.97 113.20C211.49 113.20 210.38 115.44 210.38 117.67C210.38 119.91 211.49 122.16 213.97 122.16C216.44 122.16 217.56 119.91 217.56 117.67ZM215.67 117.67C215.67 119.27 215.20 120.52 213.97 120.52C212.72 120.52 212.25 119.27 212.25 117.67C212.25 116.07 212.72 114.84 213.97 114.84C215.20 114.84 215.67 116.07 215.67 117.67Z" fill="#9aa7b4" /></g><g aria-label="Changed Files: 504,469"><circle cx="22" cy="140" r="4" fill="#673bd6" /><path d="M39.11 135.19C36.59 135.19 34.60 137.01 34.60 139.67C34.60 142.34 36.59 144.16 39.11 144.16C40.46 144.16 41.40 143.60 42.07 142.87C42.18 142.76 42.23 142.62 42.23 142.47C42.23 142.15 41.97 141.87 41.63 141.87C41.46 141.87 41.28 141.95 41.18 142.08C40.64 142.67 39.88 143.01 39.11 143.01C37.29 143.01 35.94 141.61 35.94 139.67C35.94 137.72 37.29 136.33 39.11 136.33C39.86 136.33 40.67 136.69 41.18 137.28C41.28 137.42 41.46 137.49 41.62 137.49C41.96 137.49 42.23 137.21 42.23 136.89C42.23 136.73 42.18 136.59 42.07 136.47C41.41 135.73 40.46 135.19 39.11 135.19ZM49.17 139.94C49.17 138.62 48.22 137.56 46.90 137.56C45.79 137.56 45.22 138.10 44.92 138.60L44.92 135.81C44.92 135.51 44.66 135.25 44.36 135.25C44.02 135.25 43.76 135.51 43.76 135.81L43.76 143.51C43.76 143.82 44.02 144.08 44.34 144.08C44.66 144.08 44.92 143.82 44.92 143.51L44.92 140.56C44.92 139.38 45.54 138.59 46.53 138.59C47.47 138.59 48.01 139.29 48.01 140.33L48.01 143.51C48.01 143.82 48.27 144.08 48.59 144.08C48.91 144.08 49.17 143.82 49.17 143.51ZM56.09 139.75C56.09 138.15 54.92 137.56 53.56 137.56C52.72 137.56 51.77 137.84 51.17 138.44C51.09 138.53 51.06 138.63 51.06 138.74C51.06 139.01 51.30 139.19 51.54 139.19C51.63 139.19 51.73 139.15 51.82 139.09C52.29 138.72 52.81 138.54 53.40 138.54C54.28 138.54 54.93 139.01 54.93 139.80L54.93 140.15L53.12 140.15C51.82 140.15 50.68 140.66 50.68 142.08C50.68 143.45 51.82 144.16 52.86 144.16C53.84 144.16 54.42 143.86 54.93 143.30L54.93 143.51C54.93 143.88 55.23 144.08 55.46 144.08L55.50 144.08C55.83 144.08 56.09 143.82 56.09 143.51ZM54.93 140.96L54.93 141.84C54.93 142.58 54.09 143.34 53.17 143.34C52.33 143.34 51.85 142.83 51.85 142.10C51.85 141.35 52.45 140.96 53.44 140.96ZM63.34 139.97C63.34 138.64 62.38 137.56 61.05 137.56C59.96 137.56 59.40 138.10 59.10 138.60L59.10 138.20C59.10 137.90 58.84 137.64 58.54 137.64C58.21 137.64 57.95 137.90 57.95 138.20L57.95 143.51C57.95 143.82 58.21 144.08 58.52 144.08C58.84 144.08 59.10 143.82 59.10 143.51L59.10 140.49C59.10 139.42 59.67 138.59 60.68 138.59C61.61 138.59 62.18 139.32 62.18 140.36L62.18 143.51C62.18 143.82 62.44 144.08 62.76 144.08C63.08 144.08 63.34 143.82 63.34 143.51ZM70.84 138.20C70.84 137.90 70.58 137.64 70.28 137.64C69.95 137.64 69.69 137.90 69.69 138.20L69.69 138.63C69.18 137.96 68.45 137.56 67.62 137.56C65.99 137.56 64.84 138.79 64.84 140.81C64.84 142.86 66.01 144.05 67.62 144.05C68.48 144.05 69.22 143.60 69.69 142.96L69.69 143.79C69.69 145.13 68.72 145.60 67.75 145.60C67.06 145.60 66.51 145.46 66.03 145.05C65.94 144.99 65.85 144.96 65.73 144.96C65.47 144.96 65.24 145.18 65.24 145.46C65.24 145.59 65.29 145.70 65.37 145.78C65.98 146.37 66.86 146.55 67.75 146.55C69.28 146.55 70.84 145.91 70.84 143.75ZM69.69 140.83C69.69 142.12 68.84 143.03 67.80 143.03C66.63 143.03 66.03 142.10 66.03 140.81C66.03 139.50 66.63 138.59 67.80 138.59C68.84 138.59 69.69 139.49 69.69 140.78ZM78.51 140.65C78.51 140.40 78.45 140.13 78.40 139.92C78.03 138.51 76.99 137.56 75.47 137.56C73.65 137.56 72.34 139.03 72.34 140.85C72.34 142.83 73.70 144.16 75.57 144.16C76.50 144.16 78.11 143.68 78.11 142.97C78.11 142.53 77.67 142.43 77.38 142.57C76.93 142.91 76.22 143.22 75.69 143.22C74.42 143.22 73.64 142.35 73.55 141.27L77.91 141.27C78.24 141.27 78.51 140.96 78.51 140.65ZM73.55 140.41C73.60 139.54 74.21 138.50 75.46 138.50C76.80 138.50 77.37 139.57 77.39 140.41ZM85.64 135.81C85.64 135.51 85.38 135.25 85.08 135.25C84.74 135.25 84.48 135.51 84.48 135.81L84.48 138.63C83.97 137.96 83.36 137.56 82.41 137.56C80.77 137.56 79.62 138.85 79.62 140.87C79.62 142.92 80.79 144.16 82.41 144.16C83.39 144.16 84.00 143.73 84.48 143.10L84.48 143.51C84.48 143.82 84.74 144.08 85.05 144.08C85.38 144.08 85.64 143.82 85.64 143.51ZM84.48 140.91C84.48 142.21 83.83 143.13 82.71 143.13C81.54 143.13 80.81 142.18 80.81 140.87C80.81 139.55 81.54 138.59 82.71 138.59C83.83 138.59 84.48 139.54 84.48 140.83ZM96.76 135.91C96.76 135.58 96.52 135.33 96.20 135.33L91.73 135.33C91.27 135.33 90.89 135.71 90.89 136.17L90.89 143.44C90.89 143.79 91.17 144.08 91.52 144.08C91.89 144.08 92.17 143.79 92.17 143.44L92.17 140.15L96.11 140.15C96.43 140.15 96.67 139.89 96.67 139.59C96.67 139.25 96.43 139.01 96.11 139.01L92.17 139.01L92.17 136.47L96.20 136.47C96.52 136.47 96.76 136.21 96.76 135.91ZM98.65 135.39C98.25 135.39 97.91 135.73 97.91 136.15C97.91 136.55 98.25 136.89 98.65 136.89C99.06 136.89 99.39 136.55 99.39 136.15C99.39 135.73 99.06 135.39 98.65 135.39ZM99.23 138.20C99.23 137.90 98.97 137.64 98.67 137.64C98.34 137.64 98.08 137.90 98.08 138.20L98.08 143.51C98.08 143.82 98.34 144.08 98.65 144.08C98.97 144.08 99.23 143.82 99.23 143.51ZM102.26 135.81C102.26 135.51 102.00 135.25 101.70 135.25C101.37 135.25 101.11 135.51 101.11 135.81L101.11 143.51C101.11 143.82 101.37 144.08 101.68 144.08C102.00 144.08 102.26 143.82 102.26 143.51ZM109.93 140.65C109.93 140.40 109.87 140.13 109.82 139.92C109.45 138.51 108.41 137.56 106.89 137.56C105.07 137.56 103.76 139.03 103.76 140.85C103.76 142.83 105.12 144.16 106.99 144.16C107.92 144.16 109.53 143.68 109.53 142.97C109.53 142.53 109.09 142.43 108.80 142.57C108.35 142.91 107.64 143.22 107.11 143.22C105.84 143.22 105.06 142.35 104.97 141.27L109.33 141.27C109.66 141.27 109.93 140.96 109.93 140.65ZM104.97 140.41C105.02 139.54 105.63 138.50 106.88 138.50C108.22 138.50 108.79 139.57 108.81 140.41ZM116.02 142.10C115.90 139.89 112.30 140.50 112.17 139.37C112.12 138.87 112.66 138.49 113.46 138.49C114.05 138.49 114.61 138.68 115.02 138.97C115.09 139.03 115.18 139.06 115.29 139.06C115.52 139.06 115.74 138.87 115.74 138.60C115.74 138.50 115.70 138.40 115.63 138.32C115.13 137.84 114.34 137.56 113.44 137.56C111.91 137.56 110.99 138.29 111.05 139.41C111.17 141.52 114.76 140.87 114.89 142.26C114.94 142.83 114.42 143.23 113.52 143.23C112.87 143.23 112.22 142.97 111.75 142.63C111.66 142.57 111.57 142.54 111.45 142.54C111.18 142.54 110.95 142.75 110.95 143.03C110.95 143.16 111.00 143.26 111.09 143.34C111.66 143.91 112.61 144.16 113.47 144.16C115.13 144.16 116.08 143.30 116.02 142.10Z" fill="#e6edf3" /><path d="M174.83 141.15C174.83 139.40 173.51 138.34 172.04 138.34C171.25 138.34 170.55 138.66 170.13 139.07L170.13 136.95L173.53 136.95C173.96 136.95 174.32 136.59 174.32 136.15C174.32 135.69 173.96 135.33 173.53 135.33L169.33 135.33C168.76 135.33 168.29 135.80 168.29 136.37L168.29 139.70C168.29 140.20 168.65 140.58 169.22 140.58C169.48 140.58 169.73 140.50 169.94 140.36C170.41 140.05 170.86 139.94 171.39 139.94C172.38 139.94 172.95 140.46 172.95 141.23C172.95 141.93 172.37 142.52 171.34 142.52C170.72 142.52 170.12 142.35 169.61 142.04C169.46 141.95 169.29 141.89 169.13 141.89C168.68 141.89 168.25 142.25 168.25 142.73C168.25 142.86 168.29 142.99 168.35 143.10C168.76 143.78 170.22 144.16 171.36 144.16C173.45 144.16 174.83 143.00 174.83 141.15ZM182.90 139.67C182.90 137.44 181.78 135.20 179.31 135.20C176.83 135.20 175.72 137.44 175.72 139.67C175.72 141.91 176.83 144.16 179.31 144.16C181.78 144.16 182.90 141.91 182.90 139.67ZM181.01 139.67C181.01 141.27 180.55 142.52 179.31 142.52C178.06 142.52 177.60 141.27 177.60 139.67C177.60 138.07 178.06 136.84 179.31 136.84C180.55 136.84 181.01 138.07 181.01 139.67ZM190.86 141.40C190.86 140.94 190.49 140.58 190.06 140.58L189.66 140.58L189.66 136.29C189.66 135.49 188.88 135.12 188.09 135.25C187.53 135.25 186.97 135.55 186.67 136.02L183.77 140.59C183.65 140.78 183.60 140.98 183.60 141.19C183.60 141.78 184.03 142.21 184.55 142.21L187.81 142.21L187.81 143.17C187.81 143.66 188.23 144.08 188.72 144.08C189.24 144.08 189.66 143.66 189.66 143.17L189.66 142.21L190.06 142.21C190.49 142.21 190.86 141.84 190.86 141.40ZM185.47 140.58L187.81 136.97L187.81 140.58ZM193.90 143.36C193.90 142.52 193.34 142.04 192.73 142.04C192.18 142.04 191.71 142.50 191.71 143.08C191.71 143.64 192.10 144.01 192.60 144.01C192.69 144.01 192.81 143.99 192.84 143.97C192.77 144.31 192.48 144.72 192.14 144.99C192.05 145.07 192.01 145.17 192.01 145.27C192.01 145.53 192.29 145.69 192.51 145.69C192.64 145.69 192.75 145.65 192.84 145.56C193.49 144.97 193.90 144.19 193.90 143.36ZM201.94 141.40C201.94 140.94 201.58 140.58 201.15 140.58L200.75 140.58L200.75 136.29C200.75 135.49 199.97 135.12 199.18 135.25C198.62 135.25 198.06 135.55 197.76 136.02L194.86 140.59C194.74 140.78 194.69 140.98 194.69 141.19C194.69 141.78 195.12 142.21 195.64 142.21L198.90 142.21L198.90 143.17C198.90 143.66 199.32 144.08 199.81 144.08C200.33 144.08 200.75 143.66 200.75 143.17L200.75 142.21L201.15 142.21C201.58 142.21 201.94 141.84 201.94 141.40ZM196.56 140.58L198.90 136.97L198.90 140.58ZM209.69 141.18C209.69 139.33 208.30 138.36 206.74 138.36C205.66 138.36 204.86 138.89 204.52 139.48C204.51 139.41 204.51 139.36 204.51 139.29C204.51 137.92 205.40 136.84 206.68 136.84C207.12 136.84 207.48 136.91 207.81 137.08C207.92 137.15 208.05 137.18 208.18 137.18C208.59 137.18 209.03 136.86 209.03 136.37C209.03 136.24 208.99 136.12 208.94 136.02C208.61 135.45 207.52 135.20 206.68 135.20C204.12 135.20 202.63 137.06 202.63 139.68C202.63 142.13 203.74 144.16 206.38 144.16C208.35 144.16 209.69 142.87 209.69 141.18ZM207.82 141.24C207.82 141.89 207.34 142.52 206.34 142.52C205.52 142.52 204.91 141.96 204.91 141.15C204.91 140.37 205.53 139.81 206.34 139.81C207.17 139.81 207.82 140.37 207.82 141.24ZM210.49 138.16C210.49 140.01 211.88 140.98 213.44 140.98C214.52 140.98 215.32 140.45 215.66 139.87C215.67 139.93 215.67 139.98 215.67 140.05C215.67 141.43 214.78 142.50 213.50 142.50C213.06 142.50 212.70 142.43 212.37 142.26C212.25 142.19 212.12 142.17 211.99 142.17C211.59 142.17 211.15 142.48 211.15 142.97C211.15 143.10 211.19 143.22 211.24 143.32C211.56 143.90 212.66 144.14 213.50 144.14C216.06 144.14 217.54 142.28 217.54 139.66C217.54 137.21 216.44 135.19 213.80 135.19C211.82 135.19 210.49 136.47 210.49 138.16ZM212.36 138.10C212.36 137.45 212.84 136.82 213.84 136.82C214.66 136.82 215.27 137.38 215.27 138.19C215.27 138.97 214.65 139.53 213.84 139.53C213.01 139.53 212.36 138.97 212.36 138.10Z" fill="#9aa7b4" /></g><rect x="18" y="166" width="384" height="8" rx="4" fill="#21262d" /><rect x="18.00" y="166" width="270.69" height="8" rx="4" fill="#00d559" /><rect x="288.69" y="166" width="113.31" height="8" rx="4" fill="#00a5fe" /></svg>