<svg xmlns="http://www.w3.org/2000/svg" width="420" height="184" viewBox="0 0 420 184" role="img"><rect x="0.5" y="0.5" width="419" height="183" rx="10" fill="#ffffff" stroke="#f2f4f6" /><path d="M30.72 33.60C30.72 32.83 30.10 32.21 29.37 32.21L28.69 32.21L28.69 24.95C28.69 23.59 27.37 22.97 26.03 23.19C25.08 23.19 24.14 23.70 23.63 24.49L18.73 32.24C18.53 32.54 18.44 32.90 18.44 33.25C18.44 34.24 19.17 34.96 20.05 34.96L25.57 34.96L25.57 36.59C25.57 37.43 26.27 38.13 27.11 38.13C27.99 38.13 28.69 37.43 28.69 36.59L28.69 34.96L29.37 34.96C30.10 34.96 30.72 34.35 30.72 33.60ZM21.61 32.21L25.57 26.10L25.57 32.21ZM42.82 24.91C42.82 23.99 42.07 23.33 41.30 23.33L32.89 23.33C32.15 23.33 31.53 23.94 31.53 24.67C31.53 25.46 32.15 26.08 32.89 26.08L39.05 26.08L34.68 36.00C34.59 36.20 34.54 36.39 34.54 36.59C34.54 37.38 35.18 38.13 36.11 38.13C36.74 38.13 37.34 37.76 37.58 37.19L42.68 25.53C42.77 25.35 42.82 25.13 42.82 24.91ZM45.79 36.92C45.79 35.49 44.84 34.68 43.81 34.68C42.88 34.68 42.09 35.47 42.09 36.44C42.09 37.38 42.75 38.02 43.59 38.02C43.74 38.02 43.94 37.98 44.00 37.96C43.87 38.53 43.39 39.21 42.82 39.67C42.66 39.80 42.60 39.98 42.60 40.16C42.60 40.60 43.06 40.86 43.43 40.86C43.65 40.86 43.85 40.79 44.00 40.64C45.10 39.65 45.79 38.33 45.79 36.92ZM58.90 36.59C58.90 35.87 58.28 35.25 57.56 35.25L52.78 35.25C56.59 32.48 58.66 30.30 58.66 27.79C58.66 24.87 56.17 23.11 53.05 23.11C51.20 23.11 48.73 23.90 48.03 25.02C47.90 25.22 47.83 25.44 47.83 25.66C47.83 26.45 48.47 27.07 49.20 27.07C49.53 27.07 49.81 26.98 50.10 26.78C50.93 26.21 51.95 25.88 53.11 25.88C54.32 25.88 55.49 26.52 55.49 27.79C55.49 29.51 53.73 31.11 48.25 35.16C47.83 35.47 47.59 35.98 47.59 36.48C47.59 37.36 48.29 38 49.06 38L57.56 38C58.28 38 58.90 37.38 58.90 36.59ZM72.10 36.59C72.10 35.87 71.48 35.25 70.76 35.25L65.98 35.25C69.79 32.48 71.86 30.30 71.86 27.79C71.86 24.87 69.37 23.11 66.25 23.11C64.40 23.11 61.93 23.90 61.23 25.02C61.10 25.22 61.03 25.44 61.03 25.66C61.03 26.45 61.67 27.07 62.40 27.07C62.73 27.07 63.01 26.98 63.30 26.78C64.13 26.21 65.15 25.88 66.31 25.88C67.52 25.88 68.69 26.52 68.69 27.79C68.69 29.51 66.93 31.11 61.45 35.16C61.03 35.47 60.79 35.98 60.79 36.48C60.79 37.36 61.49 38 62.26 38L70.76 38C71.48 38 72.10 37.38 72.10 36.59ZM85.98 30.67C85.98 26.89 84.09 23.11 79.91 23.11C75.71 23.11 73.84 26.89 73.84 30.67C73.84 34.46 75.71 38.26 79.91 38.26C84.09 38.26 85.98 34.46 85.98 30.67ZM82.79 30.67C82.79 33.38 82.00 35.49 79.91 35.49C77.80 35.49 77.00 33.38 77.00 30.67C77.00 27.97 77.80 25.88 79.91 25.88C82.00 25.88 82.79 27.97 82.79 30.67ZM100.92 23.08C96.52 23.08 93.11 26.16 93.11 30.67C93.11 35.18 96.52 38.26 100.92 38.26C103.45 38.26 105.14 37.16 106.24 35.82C106.46 35.58 106.55 35.27 106.55 34.96C106.55 34.22 105.91 33.60 105.12 33.60C104.68 33.60 104.24 33.78 103.93 34.11C103.12 35.01 102.02 35.49 100.92 35.49C98.26 35.49 96.32 33.45 96.32 30.67C96.32 27.90 98.26 25.86 100.92 25.86C102.02 25.86 103.10 26.38 103.93 27.26C104.24 27.59 104.66 27.77 105.08 27.77C105.89 27.77 106.57 27.15 106.57 26.36C106.57 26.08 106.46 25.75 106.26 25.50C105.14 24.16 103.45 23.08 100.92 23.08ZM119.42 32.68C119.42 29.66 117.31 27.11 113.79 27.11C110.29 27.11 108.18 29.66 108.18 32.68C108.18 35.71 110.29 38.26 113.79 38.26C117.31 38.26 119.42 35.71 119.42 32.68ZM116.52 32.68C116.52 34.35 115.53 35.78 113.79 35.78C112.05 35.78 111.08 34.35 111.08 32.68C111.08 31.03 112.05 29.60 113.79 29.60C115.53 29.60 116.52 31.03 116.52 32.68ZM137.48 31.20C137.48 29.02 135.96 27.11 133.57 27.11C131.72 27.11 130.66 28.19 130.27 28.94C129.87 28.17 128.88 27.11 127.10 27.11C125.47 27.11 124.72 27.70 124.28 28.28L124.28 28.25C124.28 27.95 123.89 27.24 122.92 27.24C122.10 27.24 121.49 27.86 121.49 28.61L121.49 36.75C121.49 37.52 122.10 38.13 122.87 38.13C123.67 38.13 124.28 37.52 124.28 36.75L124.28 31.73C124.28 30.70 125.07 29.60 126.26 29.60C127.41 29.60 128.07 30.74 128.07 31.73L128.07 36.75C128.07 37.52 128.68 38.13 129.45 38.13C130.27 38.13 130.88 37.52 130.88 36.75L130.88 31.93C130.88 30.70 131.65 29.60 132.86 29.60C134.01 29.60 134.67 30.74 134.67 31.73L134.67 36.75C134.67 37.52 135.28 38.13 136.05 38.13C136.87 38.13 137.48 37.52 137.48 36.75ZM156.23 31.20C156.23 29.02 154.71 27.11 152.31 27.11C150.46 27.11 149.41 28.19 149.01 28.94C148.61 28.17 147.62 27.11 145.84 27.11C144.21 27.11 143.47 27.70 143.03 28.28L143.03 28.25C143.03 27.95 142.63 27.24 141.66 27.24C140.85 27.24 140.23 27.86 140.23 28.61L140.23 36.75C140.23 37.52 140.85 38.13 141.62 38.13C142.41 38.13 143.03 37.52 143.03 36.75L143.03 31.73C143.03 30.70 143.82 29.60 145.01 29.60C146.15 29.60 146.81 30.74 146.81 31.73L146.81 36.75C146.81 37.52 147.43 38.13 148.20 38.13C149.01 38.13 149.63 37.52 149.63 36.75L149.63 31.93C149.63 30.70 150.40 29.60 151.61 29.60C152.75 29.60 153.41 30.74 153.41 31.73L153.41 36.75C153.41 37.52 154.03 38.13 154.80 38.13C155.61 38.13 156.23 37.52 156.23 36.75ZM160.36 22.91C159.46 22.91 158.69 23.63 158.69 24.56C158.69 25.48 159.46 26.23 160.36 26.23C161.29 26.23 162.03 25.48 162.03 24.56C162.03 23.63 161.29 22.91 160.36 22.91ZM161.77 28.61C161.77 27.86 161.15 27.24 160.41 27.24C159.59 27.24 158.98 27.86 158.98 28.61L158.98 36.75C158.98 37.52 159.59 38.13 160.36 38.13C161.15 38.13 161.77 37.52 161.77 36.75ZM170.35 36.99C170.35 36.31 169.91 35.78 169.12 35.78L168.88 35.78C168.44 35.78 167.91 35.45 167.91 34.61L167.91 29.82L169.01 29.82C169.65 29.82 170.20 29.27 170.20 28.61C170.20 27.92 169.65 27.37 169.01 27.37L167.91 27.37L167.91 25.72C167.91 24.95 167.29 24.34 166.52 24.34C165.71 24.34 165.09 24.95 165.09 25.72L165.09 27.37L164.41 27.37C163.75 27.37 163.20 27.92 163.20 28.56C163.20 29.27 163.75 29.82 164.41 29.82L165.09 29.82L165.09 35.36C165.09 37.25 166.15 38.26 168.11 38.26C169.93 38.26 170.35 37.69 170.35 36.99ZM180.40 34.85C180.40 30.56 174.11 31.88 174.11 30.30C174.11 29.71 174.77 29.24 175.78 29.24C176.64 29.24 177.50 29.49 178.18 29.88C178.34 29.97 178.53 30.01 178.71 30.01C179.28 30.01 179.81 29.55 179.81 28.96C179.81 28.76 179.74 28.56 179.63 28.41C179.04 27.55 177.15 27.11 175.76 27.11C172.97 27.11 171.41 28.67 171.41 30.45C171.41 34.63 177.72 33.20 177.72 34.96C177.72 35.62 177.15 36.11 175.94 36.11C175.01 36.11 173.91 35.73 173.08 35.25C172.90 35.14 172.70 35.10 172.51 35.10C171.91 35.10 171.34 35.60 171.34 36.26C171.34 36.48 171.41 36.68 171.54 36.86C172.20 37.80 174.42 38.26 175.81 38.26C178.75 38.26 180.40 36.79 180.40 34.85Z" fill="#22272e" /><path d="M20.26 49.88C20.26 49.54 19.98 49.25 19.64 49.25C19.26 49.25 18.98 49.54 18.98 49.88L18.98 57.44C18.98 57.79 19.26 58.08 19.61 58.08C19.98 58.08 20.26 57.79 20.26 57.44ZM27.55 53.97C27.55 52.64 26.59 51.56 25.27 51.56C24.18 51.56 23.62 52.10 23.32 52.60L23.32 52.20C23.32 51.90 23.06 51.64 22.76 51.64C22.42 51.64 22.16 51.90 22.16 52.20L22.16 57.51C22.16 57.82 22.42 58.08 22.73 58.08C23.06 58.08 23.32 57.82 23.32 57.51L23.32 54.49C23.32 53.42 23.89 52.59 24.89 52.59C25.83 52.59 26.40 53.32 26.40 54.36L26.40 57.51C26.40 57.82 26.66 58.08 26.97 58.08C27.30 58.08 27.55 57.82 27.55 57.51ZM38.97 49.91C38.97 49.58 38.72 49.33 38.41 49.33L32.70 49.33C32.39 49.33 32.14 49.58 32.14 49.89C32.14 50.21 32.39 50.47 32.70 50.47L34.91 50.47L34.91 57.44C34.91 57.79 35.20 58.08 35.55 58.08C35.91 58.08 36.20 57.79 36.20 57.44L36.20 50.47L38.41 50.47C38.72 50.47 38.97 50.21 38.97 49.91ZM44.74 54.85C44.74 53.05 43.53 51.56 41.57 51.56C39.62 51.56 38.41 53.05 38.41 54.85C38.41 56.66 39.62 58.16 41.57 58.16C43.53 58.16 44.74 56.66 44.74 54.85ZM43.53 54.85C43.53 56.06 42.83 57.13 41.57 57.13C40.32 57.13 39.61 56.06 39.61 54.85C39.61 53.66 40.32 52.59 41.57 52.59C42.83 52.59 43.53 53.66 43.53 54.85ZM49.16 57.55C49.16 57.27 48.95 57.06 48.67 57.06C48.54 57.06 48.38 57.13 48.24 57.13C47.86 57.13 47.63 56.83 47.63 56.35L47.63 52.73L48.48 52.73C48.76 52.73 48.98 52.51 48.98 52.24C48.98 51.94 48.76 51.72 48.48 51.72L47.63 51.72L47.63 50.49C47.63 50.19 47.37 49.93 47.05 49.93C46.72 49.93 46.46 50.19 46.46 50.49L46.46 51.72L45.85 51.72C45.56 51.72 45.34 51.94 45.34 52.22C45.34 52.51 45.56 52.73 45.85 52.73L46.46 52.73L46.46 56.62C46.46 57.61 46.98 58.16 47.96 58.16C48.65 58.16 49.16 57.96 49.16 57.55ZM55.26 53.75C55.26 52.15 54.09 51.56 52.74 51.56C51.89 51.56 50.94 51.84 50.34 52.44C50.27 52.53 50.23 52.63 50.23 52.73C50.23 53.01 50.47 53.19 50.71 53.19C50.80 53.19 50.90 53.15 50.99 53.09C51.46 52.72 51.98 52.54 52.57 52.54C53.45 52.54 54.10 53.01 54.10 53.80L54.10 54.15L52.29 54.15C50.99 54.15 49.85 54.66 49.85 56.08C49.85 57.45 50.99 58.16 52.03 58.16C53.01 58.16 53.59 57.86 54.10 57.30L54.10 57.51C54.10 57.88 54.40 58.08 54.63 58.08L54.67 58.08C55.00 58.08 55.26 57.82 55.26 57.51ZM54.10 54.96L54.10 55.84C54.10 56.58 53.26 57.34 52.35 57.34C51.50 57.34 51.02 56.83 51.02 56.10C51.02 55.35 51.62 54.96 52.61 54.96ZM58.27 49.81C58.27 49.51 58.01 49.25 57.71 49.25C57.38 49.25 57.12 49.51 57.12 49.81L57.12 57.51C57.12 57.82 57.38 58.08 57.69 58.08C58.01 58.08 58.27 57.82 58.27 57.51Z" fill="#627386" /><line x1="18" y1="76" x2="48" y2="76" stroke="#627386" stroke-opacity="0.4" /><g aria-label="Additions: 29,810,743"><circle cx="22" cy="96" r="4" fill="#00d559" /><path d="M42.28 99.39C42.28 99.31 42.27 99.23 42.23 99.14L39.36 91.94C39.19 91.51 38.76 91.24 38.30 91.25C37.85 91.25 37.43 91.52 37.28 91.94L34.40 99.14C34.38 99.23 34.36 99.31 34.36 99.39C34.36 99.74 34.65 100.08 35.05 100.08C35.33 100.08 35.57 99.92 35.68 99.66L36.25 98.19L40.40 98.19L40.97 99.66C41.07 99.92 41.32 100.08 41.59 100.08C42.01 100.08 42.28 99.71 42.28 99.39ZM38.32 92.64L40.03 97.06L36.61 97.06ZM49.22 91.81C49.22 91.51 48.96 91.25 48.66 91.25C48.33 91.25 48.07 91.51 48.07 91.81L48.07 94.63C47.56 93.95 46.95 93.56 46.00 93.56C44.36 93.56 43.20 94.85 43.20 96.87C43.20 98.92 44.37 100.16 46.00 100.16C46.97 100.16 47.59 99.73 48.07 99.10L48.07 99.51C48.07 99.82 48.33 100.08 48.64 100.08C48.96 100.08 49.22 99.82 49.22 99.51ZM48.07 96.91C48.07 98.21 47.42 99.13 46.30 99.13C45.13 99.13 44.40 98.18 44.40 96.87C44.40 95.55 45.13 94.59 46.30 94.59C47.42 94.59 48.07 95.54 48.07 96.83ZM56.74 91.81C56.74 91.51 56.48 91.25 56.18 91.25C55.84 91.25 55.58 91.51 55.58 91.81L55.58 94.63C55.07 93.95 54.46 93.56 53.51 93.56C51.88 93.56 50.72 94.85 50.72 96.87C50.72 98.92 51.89 100.16 53.51 100.16C54.49 100.16 55.10 99.73 55.58 99.10L55.58 99.51C55.58 99.82 55.84 100.08 56.15 100.08C56.48 100.08 56.74 99.82 56.74 99.51ZM55.58 96.91C55.58 98.21 54.93 99.13 53.81 99.13C52.64 99.13 51.91 98.18 51.91 96.87C51.91 95.55 52.64 94.59 53.81 94.59C54.93 94.59 55.58 95.54 55.58 96.83ZM59.18 91.39C58.78 91.39 58.44 91.73 58.44 92.15C58.44 92.55 58.78 92.89 59.18 92.89C59.60 92.89 59.92 92.55 59.92 92.15C59.92 91.73 59.60 91.39 59.18 91.39ZM59.77 94.20C59.77 93.90 59.51 93.64 59.21 93.64C58.87 93.64 58.61 93.90 58.61 94.20L58.61 99.51C58.61 99.82 58.87 100.08 59.18 100.08C59.51 100.08 59.77 99.82 59.77 99.51ZM64.56 99.55C64.56 99.27 64.36 99.06 64.07 99.06C63.94 99.06 63.78 99.13 63.64 99.13C63.26 99.13 63.03 98.83 63.03 98.35L63.03 94.73L63.89 94.73C64.16 94.73 64.38 94.51 64.38 94.24C64.38 93.94 64.16 93.72 63.89 93.72L63.03 93.72L63.03 92.49C63.03 92.19 62.77 91.93 62.46 91.93C62.12 91.93 61.86 92.19 61.86 92.49L61.86 93.72L61.25 93.72C60.96 93.72 60.74 93.94 60.74 94.22C60.74 94.51 60.96 94.73 61.25 94.73L61.86 94.73L61.86 98.62C61.86 99.61 62.38 100.16 63.37 100.16C64.06 100.16 64.56 99.96 64.56 99.55ZM66.19 91.39C65.79 91.39 65.45 91.73 65.45 92.15C65.45 92.55 65.79 92.89 66.19 92.89C66.60 92.89 66.93 92.55 66.93 92.15C66.93 91.73 66.60 91.39 66.19 91.39ZM66.77 94.20C66.77 93.90 66.51 93.64 66.21 93.64C65.88 93.64 65.62 93.90 65.62 94.20L65.62 99.51C65.62 99.82 65.88 100.08 66.19 100.08C66.51 100.08 66.77 99.82 66.77 99.51ZM74.60 96.85C74.60 95.05 73.39 93.56 71.43 93.56C69.48 93.56 68.27 95.05 68.27 96.85C68.27 98.66 69.48 100.16 71.43 100.16C73.39 100.16 74.60 98.66 74.60 96.85ZM73.39 96.85C73.39 98.06 72.69 99.13 71.43 99.13C70.18 99.13 69.46 98.06 69.46 96.85C69.46 95.66 70.18 94.59 71.43 94.59C72.69 94.59 73.39 95.66 73.39 96.85ZM81.49 95.97C81.49 94.64 80.53 93.56 79.20 93.56C78.11 93.56 77.55 94.10 77.25 94.61L77.25 94.20C77.25 93.90 76.99 93.64 76.69 93.64C76.35 93.64 76.09 93.90 76.09 94.20L76.09 99.51C76.09 99.82 76.35 100.08 76.67 100.08C76.99 100.08 77.25 99.82 77.25 99.51L77.25 96.49C77.25 95.42 77.82 94.59 78.82 94.59C79.76 94.59 80.33 95.32 80.33 96.36L80.33 99.51C80.33 99.82 80.59 100.08 80.90 100.08C81.23 100.08 81.49 99.82 81.49 99.51ZM87.96 98.10C87.85 95.89 84.24 96.50 84.11 95.37C84.06 94.86 84.61 94.49 85.40 94.49C86 94.49 86.56 94.68 86.96 94.97C87.04 95.03 87.13 95.06 87.23 95.06C87.47 95.06 87.69 94.86 87.69 94.61C87.69 94.50 87.65 94.40 87.57 94.32C87.08 93.84 86.29 93.56 85.39 93.56C83.86 93.56 82.93 94.29 83.00 95.41C83.11 97.52 86.70 96.87 86.83 98.26C86.88 98.83 86.36 99.23 85.47 99.23C84.82 99.23 84.17 98.97 83.70 98.64C83.61 98.57 83.52 98.54 83.40 98.54C83.13 98.54 82.89 98.75 82.89 99.03C82.89 99.16 82.94 99.26 83.04 99.34C83.61 99.91 84.56 100.16 85.41 100.16C87.08 100.16 88.03 99.30 87.96 98.10Z" fill="#22272e" /><path d="M160.59 99.17C160.59 98.74 160.23 98.38 159.80 98.38L156.98 98.38C159.23 96.74 160.45 95.45 160.45 93.97C160.45 92.24 158.98 91.20 157.13 91.20C156.04 91.20 154.59 91.67 154.17 92.33C154.09 92.45 154.05 92.58 154.05 92.71C154.05 93.17 154.43 93.54 154.86 93.54C155.05 93.54 155.22 93.49 155.39 93.37C155.89 93.03 156.48 92.84 157.17 92.84C157.89 92.84 158.58 93.21 158.58 93.97C158.58 94.98 157.54 95.93 154.30 98.32C154.05 98.50 153.91 98.80 153.91 99.10C153.91 99.62 154.33 100 154.78 100L159.80 100C160.23 100 160.59 99.64 160.59 99.17ZM161.57 94.16C161.57 96.01 162.96 96.98 164.52 96.98C165.60 96.98 166.40 96.45 166.74 95.87C166.75 95.93 166.75 95.98 166.75 96.05C166.75 97.43 165.86 98.50 164.58 98.50C164.14 98.50 163.78 98.43 163.45 98.26C163.34 98.19 163.21 98.17 163.08 98.17C162.67 98.17 162.23 98.48 162.23 98.97C162.23 99.10 162.27 99.22 162.32 99.32C162.65 99.90 163.74 100.14 164.58 100.14C167.14 100.14 168.63 98.28 168.63 95.66C168.63 93.21 167.52 91.19 164.88 91.19C162.91 91.19 161.57 92.47 161.57 94.16ZM163.44 94.10C163.44 93.45 163.92 92.82 164.92 92.82C165.74 92.82 166.35 93.38 166.35 94.19C166.35 94.97 165.73 95.53 164.92 95.53C164.09 95.53 163.44 94.97 163.44 94.10ZM171.60 99.36C171.60 98.52 171.04 98.04 170.43 98.04C169.89 98.04 169.42 98.50 169.42 99.08C169.42 99.64 169.81 100.01 170.30 100.01C170.39 100.01 170.51 99.99 170.55 99.97C170.47 100.31 170.19 100.72 169.85 100.99C169.76 101.07 169.72 101.17 169.72 101.27C169.72 101.53 169.99 101.69 170.21 101.69C170.34 101.69 170.46 101.65 170.55 101.56C171.20 100.97 171.60 100.19 171.60 99.36ZM179.56 97.62C179.56 96.44 178.86 95.76 178.34 95.53C178.78 95.32 179.42 94.83 179.42 93.49C179.42 91.99 177.80 91.20 176.08 91.20C174.33 91.20 172.73 91.99 172.73 93.49C172.73 94.83 173.36 95.32 173.80 95.53C173.28 95.76 172.59 96.44 172.59 97.62C172.59 99.25 174.26 100.16 176.08 100.16C177.90 100.16 179.56 99.23 179.56 97.62ZM177.53 93.77C177.53 94.42 176.87 94.80 176.08 94.80C175.28 94.80 174.61 94.42 174.61 93.77C174.61 93.15 175.22 92.78 176.08 92.78C176.92 92.78 177.53 93.15 177.53 93.77ZM177.69 97.52C177.69 98.15 176.96 98.57 176.08 98.57C175.17 98.57 174.46 98.15 174.46 97.52C174.46 96.79 175.27 96.36 176.08 96.36C176.87 96.36 177.69 96.79 177.69 97.52ZM184.50 92.32C184.50 91.73 184.01 91.26 183.42 91.26C183.12 91.26 182.84 91.38 182.64 91.58L180.64 93.60C180.48 93.76 180.40 93.95 180.40 94.15C180.40 94.58 180.77 94.92 181.17 94.92C181.35 94.92 181.54 94.85 181.68 94.71L182.65 93.71L182.65 99.17C182.65 99.66 183.07 100.08 183.56 100.08C184.08 100.08 184.50 99.66 184.50 99.17ZM192.98 95.67C192.98 93.44 191.86 91.20 189.39 91.20C186.90 91.20 185.80 93.44 185.80 95.67C185.80 97.91 186.90 100.16 189.39 100.16C191.86 100.16 192.98 97.91 192.98 95.67ZM191.09 95.67C191.09 97.27 190.62 98.52 189.39 98.52C188.14 98.52 187.67 97.27 187.67 95.67C187.67 94.07 188.14 92.84 189.39 92.84C190.62 92.84 191.09 94.07 191.09 95.67ZM195.94 99.36C195.94 98.52 195.38 98.04 194.77 98.04C194.22 98.04 193.76 98.50 193.76 99.08C193.76 99.64 194.15 100.01 194.64 100.01C194.73 100.01 194.85 99.99 194.89 99.97C194.81 100.31 194.52 100.72 194.18 100.99C194.09 101.07 194.05 101.17 194.05 101.27C194.05 101.53 194.33 101.69 194.55 101.69C194.68 101.69 194.80 101.65 194.89 101.56C195.54 100.97 195.94 100.19 195.94 99.36ZM202.43 92.27C202.43 91.72 201.98 91.33 201.53 91.33L196.56 91.33C196.12 91.33 195.76 91.69 195.76 92.12C195.76 92.59 196.12 92.95 196.56 92.95L200.20 92.95L197.62 98.82C197.56 98.93 197.54 99.05 197.54 99.17C197.54 99.64 197.92 100.08 198.46 100.08C198.84 100.08 199.19 99.86 199.33 99.52L202.35 92.63C202.40 92.53 202.43 92.39 202.43 92.27ZM210.12 97.40C210.12 96.94 209.76 96.58 209.33 96.58L208.93 96.58L208.93 92.29C208.93 91.48 208.15 91.12 207.35 91.25C206.79 91.25 206.24 91.55 205.94 92.02L203.04 96.59C202.92 96.78 202.87 96.98 202.87 97.19C202.87 97.78 203.30 98.21 203.82 98.21L207.08 98.21L207.08 99.17C207.08 99.66 207.50 100.08 207.99 100.08C208.51 100.08 208.93 99.66 208.93 99.17L208.93 98.21L209.33 98.21C209.76 98.21 210.12 97.84 210.12 97.40ZM204.74 96.58L207.08 92.97L207.08 96.58ZM217.43 97.63C217.53 96.07 216.48 95.53 216.48 95.53C216.48 95.53 217.44 95.03 217.34 93.55C217.23 92.11 216.09 91.20 214.06 91.20C212.87 91.20 211.93 91.55 211.21 92.12C211.03 92.27 210.94 92.47 210.94 92.68C210.94 93.14 211.34 93.46 211.75 93.46C211.90 93.46 212.06 93.42 212.19 93.33C212.70 93.01 213.27 92.84 213.87 92.84C214.78 92.84 215.48 93.05 215.48 93.73C215.48 94.45 215.05 94.79 214.18 94.79C213.55 94.79 213.28 95.14 213.28 95.59C213.28 96.05 213.55 96.41 214.23 96.41C215.11 96.41 215.62 96.72 215.62 97.41C215.62 98.06 215.04 98.52 213.98 98.52C213.39 98.52 212.70 98.31 212.12 97.97C211.98 97.88 211.83 97.84 211.67 97.84C211.24 97.84 210.82 98.19 210.82 98.66C210.82 98.79 210.86 98.91 210.93 99.01C211.33 99.69 212.80 100.16 214.05 100.16C216.13 100.16 217.32 99.26 217.43 97.63Z" fill="#627386" /></g><g aria-label="Deletions: 12,891,790"><circle cx="22" cy="118" r="4" fill="#00a5fe" /><path d="M42.54 117.67C42.54 115.17 40.76 113.33 38.06 113.33L35.82 113.33C35.35 113.33 34.98 113.71 34.98 114.17L34.98 121.16C34.98 121.62 35.35 122 35.82 122L38.06 122C40.76 122 42.54 120.18 42.54 117.67ZM41.23 117.67C41.23 119.43 40.06 120.86 38.06 120.86L36.26 120.86L36.26 114.47L38.06 114.47C40.11 114.47 41.23 115.89 41.23 117.67ZM49.90 118.65C49.90 118.40 49.83 118.13 49.78 117.92C49.42 116.51 48.38 115.56 46.86 115.56C45.04 115.56 43.72 117.03 43.72 118.85C43.72 120.83 45.09 122.16 46.96 122.16C47.88 122.16 49.50 121.67 49.50 120.97C49.50 120.53 49.05 120.43 48.77 120.57C48.31 120.91 47.61 121.22 47.08 121.22C45.80 121.22 45.02 120.35 44.93 119.27L49.30 119.27C49.63 119.27 49.90 118.96 49.90 118.65ZM44.93 118.41C44.98 117.54 45.60 116.50 46.84 116.50C48.18 116.50 48.76 117.57 48.78 118.41ZM52.54 113.81C52.54 113.51 52.28 113.25 51.98 113.25C51.64 113.25 51.38 113.51 51.38 113.81L51.38 121.51C51.38 121.82 51.64 122.08 51.95 122.08C52.28 122.08 52.54 121.82 52.54 121.51ZM60.21 118.65C60.21 118.40 60.14 118.13 60.09 117.92C59.73 116.51 58.69 115.56 57.17 115.56C55.35 115.56 54.03 117.03 54.03 118.85C54.03 120.83 55.40 122.16 57.27 122.16C58.19 122.16 59.81 121.67 59.81 120.97C59.81 120.53 59.36 120.43 59.08 120.57C58.62 120.91 57.92 121.22 57.39 121.22C56.11 121.22 55.33 120.35 55.24 119.27L59.61 119.27C59.94 119.27 60.21 118.96 60.21 118.65ZM55.24 118.41C55.29 117.54 55.91 116.50 57.15 116.50C58.49 116.50 59.06 117.57 59.09 118.41ZM64.62 121.55C64.62 121.27 64.41 121.06 64.12 121.06C63.99 121.06 63.84 121.13 63.69 121.13C63.32 121.13 63.08 120.83 63.08 120.35L63.08 116.73L63.94 116.73C64.21 116.73 64.43 116.51 64.43 116.24C64.43 115.94 64.21 115.72 63.94 115.72L63.08 115.72L63.08 114.49C63.08 114.19 62.82 113.93 62.51 113.93C62.17 113.93 61.91 114.19 61.91 114.49L61.91 115.72L61.30 115.72C61.01 115.72 60.79 115.94 60.79 116.22C60.79 116.51 61.01 116.73 61.30 116.73L61.91 116.73L61.91 120.62C61.91 121.61 62.43 122.16 63.42 122.16C64.11 122.16 64.62 121.96 64.62 121.55ZM66.24 113.39C65.84 113.39 65.50 113.73 65.50 114.15C65.50 114.55 65.84 114.89 66.24 114.89C66.66 114.89 66.98 114.55 66.98 114.15C66.98 113.73 66.66 113.39 66.24 113.39ZM66.83 116.20C66.83 115.90 66.56 115.64 66.27 115.64C65.93 115.64 65.67 115.90 65.67 116.20L65.67 121.51C65.67 121.82 65.93 122.08 66.24 122.08C66.56 122.08 66.83 121.82 66.83 121.51ZM74.65 118.85C74.65 117.05 73.44 115.56 71.48 115.56C69.53 115.56 68.32 117.05 68.32 118.85C68.32 120.66 69.53 122.16 71.48 122.16C73.44 122.16 74.65 120.66 74.65 118.85ZM73.44 118.85C73.44 120.06 72.74 121.13 71.48 121.13C70.23 121.13 69.52 120.06 69.52 118.85C69.52 117.66 70.23 116.59 71.48 116.59C72.74 116.59 73.44 117.66 73.44 118.85ZM81.54 117.97C81.54 116.64 80.58 115.56 79.25 115.56C78.16 115.56 77.60 116.10 77.30 116.61L77.30 116.20C77.30 115.90 77.04 115.64 76.74 115.64C76.41 115.64 76.15 115.90 76.15 116.20L76.15 121.51C76.15 121.82 76.41 122.08 76.72 122.08C77.04 122.08 77.30 121.82 77.30 121.51L77.30 118.49C77.30 117.42 77.88 116.59 78.88 116.59C79.81 116.59 80.38 117.32 80.38 118.36L80.38 121.51C80.38 121.82 80.64 122.08 80.96 122.08C81.28 122.08 81.54 121.82 81.54 121.51ZM88.01 120.10C87.90 117.89 84.30 118.50 84.17 117.37C84.11 116.86 84.66 116.49 85.45 116.49C86.05 116.49 86.61 116.68 87.01 116.97C87.09 117.03 87.18 117.06 87.29 117.06C87.52 117.06 87.74 116.86 87.74 116.61C87.74 116.50 87.70 116.40 87.62 116.32C87.13 115.84 86.34 115.56 85.44 115.56C83.91 115.56 82.98 116.29 83.05 117.41C83.17 119.52 86.75 118.87 86.88 120.26C86.94 120.83 86.42 121.23 85.52 121.23C84.87 121.23 84.22 120.97 83.75 120.64C83.66 120.57 83.57 120.54 83.45 120.54C83.18 120.54 82.94 120.75 82.94 121.03C82.94 121.16 83.00 121.26 83.09 121.34C83.66 121.91 84.61 122.16 85.47 122.16C87.13 122.16 88.08 121.30 88.01 120.10Z" fill="#22272e" /><path d="M159.46 114.32C159.46 113.73 158.97 113.26 158.38 113.26C158.08 113.26 157.80 113.38 157.60 113.58L155.60 115.60C155.44 115.76 155.37 115.95 155.37 116.15C155.37 116.58 155.73 116.92 156.13 116.92C156.31 116.92 156.50 116.85 156.64 116.71L157.62 115.71L157.62 121.17C157.62 121.66 158.03 122.08 158.53 122.08C159.04 122.08 159.46 121.66 159.46 121.17ZM167.53 121.17C167.53 120.74 167.17 120.38 166.74 120.38L163.92 120.38C166.17 118.74 167.39 117.45 167.39 115.97C167.39 114.24 165.92 113.20 164.08 113.20C162.98 113.20 161.53 113.67 161.11 114.33C161.03 114.45 160.99 114.58 160.99 114.71C160.99 115.17 161.37 115.54 161.80 115.54C162.00 115.54 162.16 115.49 162.33 115.37C162.83 115.03 163.43 114.84 164.11 114.84C164.83 114.84 165.52 115.21 165.52 115.97C165.52 116.98 164.48 117.93 161.24 120.32C160.99 120.50 160.85 120.80 160.85 121.10C160.85 121.62 161.27 122 161.72 122L166.74 122C167.17 122 167.53 121.64 167.53 121.17ZM170.91 121.36C170.91 120.52 170.35 120.04 169.74 120.04C169.20 120.04 168.73 120.50 168.73 121.08C168.73 121.64 169.12 122.01 169.61 122.01C169.71 122.01 169.82 121.99 169.86 121.97C169.78 122.31 169.50 122.72 169.16 122.99C169.07 123.07 169.03 123.17 169.03 123.27C169.03 123.53 169.30 123.69 169.52 123.69C169.65 123.69 169.77 123.65 169.86 123.56C170.51 122.97 170.91 122.19 170.91 121.36ZM178.87 119.62C178.87 118.44 178.17 117.76 177.65 117.53C178.09 117.32 178.73 116.83 178.73 115.49C178.73 113.99 177.12 113.20 175.39 113.20C173.64 113.20 172.05 113.99 172.05 115.49C172.05 116.83 172.67 117.32 173.11 117.53C172.59 117.76 171.90 118.44 171.90 119.62C171.90 121.25 173.57 122.16 175.39 122.16C177.21 122.16 178.87 121.23 178.87 119.62ZM176.84 115.77C176.84 116.42 176.18 116.80 175.39 116.80C174.59 116.80 173.92 116.42 173.92 115.77C173.92 115.15 174.53 114.78 175.39 114.78C176.23 114.78 176.84 115.15 176.84 115.77ZM177.00 119.52C177.00 120.15 176.27 120.57 175.39 120.57C174.48 120.57 173.77 120.15 173.77 119.52C173.77 118.79 174.58 118.36 175.39 118.36C176.18 118.36 177.00 118.79 177.00 119.52ZM179.72 116.16C179.72 118.01 181.11 118.98 182.67 118.98C183.75 118.98 184.55 118.45 184.89 117.87C184.90 117.93 184.90 117.98 184.90 118.05C184.90 119.43 184.01 120.50 182.73 120.50C182.29 120.50 181.93 120.43 181.60 120.26C181.48 120.19 181.35 120.17 181.22 120.17C180.82 120.17 180.38 120.48 180.38 120.97C180.38 121.10 180.42 121.22 180.47 121.32C180.79 121.90 181.89 122.14 182.73 122.14C185.29 122.14 186.77 120.28 186.77 117.66C186.77 115.21 185.67 113.19 183.03 113.19C181.05 113.19 179.72 114.47 179.72 116.16ZM181.59 116.10C181.59 115.45 182.07 114.82 183.07 114.82C183.89 114.82 184.50 115.38 184.50 116.19C184.50 116.97 183.88 117.53 183.07 117.53C182.24 117.53 181.59 116.97 181.59 116.10ZM191.71 114.32C191.71 113.73 191.22 113.26 190.64 113.26C190.34 113.26 190.05 113.38 189.86 113.58L187.85 115.60C187.70 115.76 187.62 115.95 187.62 116.15C187.62 116.58 187.98 116.92 188.39 116.92C188.57 116.92 188.75 116.85 188.89 116.71L189.87 115.71L189.87 121.17C189.87 121.66 190.28 122.08 190.78 122.08C191.30 122.08 191.71 121.66 191.71 121.17ZM195.37 121.36C195.37 120.52 194.81 120.04 194.20 120.04C193.65 120.04 193.18 120.50 193.18 121.08C193.18 121.64 193.57 122.01 194.07 122.01C194.16 122.01 194.28 121.99 194.31 121.97C194.24 122.31 193.95 122.72 193.61 122.99C193.52 123.07 193.48 123.17 193.48 123.27C193.48 123.53 193.75 123.69 193.98 123.69C194.11 123.69 194.22 123.65 194.31 123.56C194.96 122.97 195.37 122.19 195.37 121.36ZM201.85 114.27C201.85 113.72 201.41 113.33 200.96 113.33L195.99 113.33C195.55 113.33 195.19 113.69 195.19 114.12C195.19 114.59 195.55 114.95 195.99 114.95L199.63 114.95L197.04 120.82C196.99 120.93 196.97 121.05 196.97 121.17C196.97 121.64 197.34 122.08 197.89 122.08C198.27 122.08 198.62 121.86 198.76 121.52L201.78 114.63C201.83 114.53 201.85 114.39 201.85 114.27ZM202.43 116.16C202.43 118.01 203.82 118.98 205.38 118.98C206.46 118.98 207.26 118.45 207.60 117.87C207.61 117.93 207.61 117.98 207.61 118.05C207.61 119.43 206.72 120.50 205.44 120.50C205 120.50 204.64 120.43 204.31 120.26C204.19 120.19 204.06 120.17 203.93 120.17C203.53 120.17 203.09 120.48 203.09 120.97C203.09 121.10 203.13 121.22 203.18 121.32C203.50 121.90 204.60 122.14 205.44 122.14C208.00 122.14 209.49 120.28 209.49 117.66C209.49 115.21 208.38 113.19 205.74 113.19C203.77 113.19 202.43 114.47 202.43 116.16ZM204.30 116.10C204.30 115.45 204.78 114.82 205.78 114.82C206.60 114.82 207.21 115.38 207.21 116.19C207.21 116.97 206.59 117.53 205.78 117.53C204.95 117.53 204.30 116.97 204.30 116.10ZM217.56 117.67C217.56 115.44 216.44 113.20 213.97 113.20C211.49 113.20 210.38 115.44 210.38 117.67C210.38 119.91 211.49 122.16 213.97 122.16C216.44 122.16 217.56 119.91 217.56 117.67ZM215.67 117.67C215.67 119.27 215.20 120.52 213.97 120.52C212.72 120.52 212.25 119.27 212.25 117.67C212.25 116.07 212.72 114.84 213.97 114.84C215.20 114.84 215.67 116.07 215.67 117.67Z" fill="#627386" /></g><g aria-label="Changed Files: 502,723"><circle cx="22" cy="140" r="4" fill="#673bd6" /><path d="M39.11 135.19C36.59 135.19 34.60 137.01 34.60 139.67C34.60 142.34 36.59 144.16 39.11 144.16C40.46 144.16 41.40 143.60 42.07 142.87C42.18 142.76 42.23 142.62 42.23 142.47C42.23 142.15 41.97 141.87 41.63 141.87C41.46 141.87 41.28 141.95 41.18 142.08C40.64 142.67 39.88 143.01 39.11 143.01C37.29 143.01 35.94 141.61 35.94 139.67C35.94 137.72 37.29 136.33 39.11 136.33C39.86 136.33 40.67 136.69 41.18 137.28C41.28 137.42 41.46 137.49 41.62 137.49C41.96 137.49 42.23 137.21 42.23 136.89C42.23 136.73 42.18 136.59 42.07 136.47C41.41 135.73 40.46 135.19 39.11 135.19ZM49.17 139.94C49.17 138.62 48.22 137.56 46.90 137.56C45.79 137.56 45.22 138.10 44.92 138.60L44.92 135.81C44.92 135.51 44.66 135.25 44.36 135.25C44.02 135.25 43.76 135.51 43.76 135.81L43.76 143.51C43.76 143.82 44.02 144.08 44.34 144.08C44.66 144.08 44.92 143.82 44.92 143.51L44.92 140.56C44.92 139.38 45.54 138.59 46.53 138.59C47.47 138.59 48.01 139.29 48.01 140.33L48.01 143.51C48.01 143.82 48.27 144.08 48.59 144.08C48.91 144.08 49.17 143.82 49.17 143.51ZM56.09 139.75C56.09 138.15 54.92 137.56 53.56 137.56C52.72 137.56 51.77 137.84 51.17 138.44C51.09 138.53 51.06 138.63 51.06 138.74C51.06 139.01 51.30 139.19 51.54 139.19C51.63 139.19 51.73 139.15 51.82 139.09C52.29 138.72 52.81 138.54 53.40 138.54C54.28 138.54 54.93 139.01 54.93 139.80L54.93 140.15L53.12 140.15C51.82 140.15 50.68 140.66 50.68 142.08C50.68 143.45 51.82 144.16 52.86 144.16C53.84 144.16 54.42 143.86 54.93 143.30L54.93 143.51C54.93 143.88 55.23 144.08 55.46 144.08L55.50 144.08C55.83 144.08 56.09 143.82 56.09 143.51ZM54.93 140.96L54.93 141.84C54.93 142.58 54.09 143.34 53.17 143.34C52.33 143.34 51.85 142.83 51.85 142.10C51.85 141.35 52.45 140.96 53.44 140.96ZM63.34 139.97C63.34 138.64 62.38 137.56 61.05 137.56C59.96 137.56 59.40 138.10 59.10 138.60L59.10 138.20C59.10 137.90 58.84 137.64 58.54 137.64C58.21 137.64 57.95 137.90 57.95 138.20L57.95 143.51C57.95 143.82 58.21 144.08 58.52 144.08C58.84 144.08 59.10 143.82 59.10 143.51L59.10 140.49C59.10 139.42 59.67 138.59 60.68 138.59C61.61 138.59 62.18 139.32 62.18 140.36L62.18 143.51C62.18 143.82 62.44 144.08 62.76 144.08C63.08 144.08 63.34 143.82 63.34 143.51ZM70.84 138.20C70.84 137.90 70.58 137.64 70.28 137.64C69.95 137.64 69.69 137.90 69.69 138.20L69.69 138.63C69.18 137.96 68.45 137.56 67.62 137.56C65.99 137.56 64.84 138.79 64.84 140.81C64.84 142.86 66.01 144.05 67.62 144.05C68.48 144.05 69.22 143.60 69.69 142.96L69.69 143.79C69.69 145.13 68.72 145.60 67.75 145.60C67.06 145.60 66.51 145.46 66.03 145.05C65.94 144.99 65.85 144.96 65.73 144.96C65.47 144.96 65.24 145.18 65.24 145.46C65.24 145.59 65.29 145.70 65.37 145.78C65.98 146.37 66.86 146.55 67.75 146.55C69.28 146.55 70.84 145.91 70.84 143.75ZM69.69 140.83C69.69 142.12 68.84 143.03 67.80 143.03C66.63 143.03 66.03 142.10 66.03 140.81C66.03 139.50 66.63 138.59 67.80 138.59C68.84 138.59 69.69 139.49 69.69 140.78ZM78.51 140.65C78.51 140.40 78.45 140.13 78.40 139.92C78.03 138.51 76.99 137.56 75.47 137.56C73.65 137.56 72.34 139.03 72.34 140.85C72.34 142.83 73.70 144.16 75.57 144.16C76.50 144.16 78.11 143.68 78.11 142.97C78.11 142.53 77.67 142.43 77.38 142.57C76.93 142.91 76.22 143.22 75.69 143.22C74.42 143.22 73.64 142.35 73.55 141.27L77.91 141.27C78.24 141.27 78.51 140.96 78.51 140.65ZM73.55 140.41C73.60 139.54 74.21 138.50 75.46 138.50C76.80 138.50 77.37 139.57 77.39 140.41ZM85.64 135.81C85.64 135.51 85.38 135.25 85.08 135.25C84.74 135.25 84.48 135.51 84.48 135.81L84.48 138.63C83.97 137.96 83.36 137.56 82.41 137.56C80.77 137.56 79.62 138.85 79.62 140.87C79.62 142.92 80.79 144.16 82.41 144.16C83.39 144.16 84.00 143.73 84.48 143.10L84.48 143.51C84.48 143.82 84.74 144.08 85.05 144.08C85.38 144.08 85.64 143.82 85.64 143.51ZM84.48 140.91C84.48 142.21 83.83 143.13 82.71 143.13C81.54 143.13 80.81 142.18 80.81 140.87C80.81 139.55 81.54 138.59 82.71 138.59C83.83 138.59 84.48 139.54 84.48 140.83ZM96.76 135.91C96.76 135.58 96.52 135.33 96.20 135.33L91.73 135.33C91.27 135.33 90.89 135.71 90.89 136.17L90.89 143.44C90.89 143.79 91.17 144.08 91.52 144.08C91.89 144.08 92.17 143.79 92.17 143.44L92.17 140.15L96.11 140.15C96.43 140.15 96.67 139.89 96.67 139.59C96.67 139.25 96.43 139.01 96.11 139.01L92.17 139.01L92.17 136.47L96.20 136.47C96.52 136.47 96.76 136.21 96.76 135.91ZM98.65 135.39C98.25 135.39 97.91 135.73 97.91 136.15C97.91 136.55 98.25 136.89 98.65 136.89C99.06 136.89 99.39 136.55 99.39 136.15C99.39 135.73 99.06 135.39 98.65 135.39ZM99.23 138.20C99.23 137.90 98.97 137.64 98.67 137.64C98.34 137.64 98.08 137.90 98.08 138.20L98.08 143.51C98.08 143.82 98.34 144.08 98.65 144.08C98.97 144.08 99.23 143.82 99.23 143.51ZM102.26 135.81C102.26 135.51 102.00 135.25 101.70 135.25C101.37 135.25 101.11 135.51 101.11 135.81L101.11 143.51C101.11 143.82 101.37 144.08 101.68 144.08C102.00 144.08 102.26 143.82 102.26 143.51ZM109.93 140.65C109.93 140.40 109.87 140.13 109.82 139.92C109.45 138.51 108.41 137.56 106.89 137.56C105.07 137.56 103.76 139.03 103.76 140.85C103.76 142.83 105.12 144.16 106.99 144.16C107.92 144.16 109.53 143.68 109.53 142.97C109.53 142.53 109.09 142.43 108.80 142.57C108.35 142.91 107.64 143.22 107.11 143.22C105.84 143.22 105.06 142.35 104.97 141.27L109.33 141.27C109.66 141.27 109.93 140.96 109.93 140.65ZM104.97 140.41C105.02 139.54 105.63 138.50 106.88 138.50C108.22 138.50 108.79 139.57 108.81 140.41ZM116.02 142.10C115.90 139.89 112.30 140.50 112.17 139.37C112.12 138.87 112.66 138.49 113.46 138.49C114.05 138.49 114.61 138.68 115.02 138.97C115.09 139.03 115.18 139.06 115.29 139.06C115.52 139.06 115.74 138.87 115.74 138.60C115.74 138.50 115.70 138.40 115.63 138.32C115.13 137.84 114.34 137.56 113.44 137.56C111.91 137.56 110.99 138.29 111.05 139.41C111.17 141.52 114.76 140.87 114.89 142.26C114.94 142.83 114.42 143.23 113.52 143.23C112.87 143.23 112.22 142.97 111.75 142.63C111.66 142.57 111.57 142.54 111.45 142.54C111.18 142.54 110.95 142.75 110.95 143.03C110.95 143.16 111.00 143.26 111.09 143.34C111.66 143.91 112.61 144.16 113.47 144.16C115.13 144.16 116.08 143.30 116.02 142.10Z" fill="#22272e" /><path d="M176.79 141.15C176.79 139.40 175.48 138.34 174.01 138.34C173.22 138.34 172.51 138.66 172.10 139.07L172.10 136.95L175.49 136.95C175.92 136.95 176.28 136.59 176.28 136.15C176.28 135.69 175.92 135.33 175.49 135.33L171.29 135.33C170.72 135.33 170.25 135.80 170.25 136.37L170.25 139.70C170.25 140.20 170.62 140.58 171.19 140.58C171.45 140.58 171.69 140.50 171.90 140.36C172.37 140.05 172.83 139.94 173.36 139.94C174.35 139.94 174.92 140.46 174.92 141.23C174.92 141.93 174.33 142.52 173.31 142.52C172.68 142.52 172.08 142.35 171.58 142.04C171.42 141.95 171.25 141.89 171.10 141.89C170.64 141.89 170.21 142.25 170.21 142.73C170.21 142.86 170.25 142.99 170.32 143.10C170.72 143.78 172.19 144.16 173.32 144.16C175.41 144.16 176.79 143.00 176.79 141.15ZM184.86 139.67C184.86 137.44 183.75 135.20 181.28 135.20C178.79 135.20 177.69 137.44 177.69 139.67C177.69 141.91 178.79 144.16 181.28 144.16C183.75 144.16 184.86 141.91 184.86 139.67ZM182.98 139.67C182.98 141.27 182.51 142.52 181.28 142.52C180.03 142.52 179.56 141.27 179.56 139.67C179.56 138.07 180.03 136.84 181.28 136.84C182.51 136.84 182.98 138.07 182.98 139.67ZM192.52 143.17C192.52 142.74 192.16 142.38 191.73 142.38L188.91 142.38C191.16 140.74 192.38 139.45 192.38 137.97C192.38 136.24 190.91 135.20 189.06 135.20C187.97 135.20 186.51 135.67 186.10 136.33C186.02 136.45 185.98 136.58 185.98 136.71C185.98 137.18 186.36 137.54 186.79 137.54C186.98 137.54 187.15 137.49 187.32 137.37C187.81 137.03 188.41 136.84 189.10 136.84C189.82 136.84 190.50 137.21 190.50 137.97C190.50 138.98 189.47 139.93 186.23 142.32C185.98 142.50 185.84 142.80 185.84 143.10C185.84 143.62 186.25 144 186.71 144L191.73 144C192.16 144 192.52 143.64 192.52 143.17ZM195.90 143.36C195.90 142.52 195.34 142.04 194.73 142.04C194.18 142.04 193.72 142.50 193.72 143.08C193.72 143.64 194.11 144.01 194.60 144.01C194.69 144.01 194.81 143.99 194.85 143.97C194.77 144.31 194.48 144.72 194.15 144.99C194.05 145.07 194.02 145.17 194.02 145.27C194.02 145.53 194.29 145.69 194.51 145.69C194.64 145.69 194.76 145.65 194.85 145.56C195.50 144.97 195.90 144.19 195.90 143.36ZM202.39 136.26C202.39 135.72 201.95 135.33 201.49 135.33L196.52 135.33C196.08 135.33 195.72 135.69 195.72 136.12C195.72 136.59 196.08 136.95 196.52 136.95L200.16 136.95L197.58 142.82C197.53 142.93 197.50 143.05 197.50 143.17C197.50 143.64 197.88 144.08 198.42 144.08C198.80 144.08 199.15 143.86 199.29 143.52L202.31 136.63C202.36 136.53 202.39 136.40 202.39 136.26ZM209.78 143.17C209.78 142.74 209.42 142.38 208.99 142.38L206.17 142.38C208.42 140.74 209.64 139.45 209.64 137.97C209.64 136.24 208.17 135.20 206.33 135.20C205.23 135.20 203.78 135.67 203.36 136.33C203.28 136.45 203.25 136.58 203.25 136.71C203.25 137.18 203.62 137.54 204.05 137.54C204.25 137.54 204.42 137.49 204.58 137.37C205.08 137.03 205.68 136.84 206.37 136.84C207.08 136.84 207.77 137.21 207.77 137.97C207.77 138.98 206.73 139.93 203.49 142.32C203.25 142.50 203.10 142.80 203.10 143.10C203.10 143.62 203.52 144 203.97 144L208.99 144C209.42 144 209.78 143.64 209.78 143.17ZM217.43 141.63C217.53 140.07 216.48 139.53 216.48 139.53C216.48 139.53 217.44 139.03 217.34 137.55C217.23 136.11 216.09 135.20 214.06 135.20C212.87 135.20 211.93 135.55 211.21 136.12C211.03 136.26 210.94 136.47 210.94 136.68C210.94 137.14 211.34 137.46 211.75 137.46C211.90 137.46 212.06 137.42 212.19 137.33C212.70 137.01 213.27 136.84 213.87 136.84C214.78 136.84 215.48 137.04 215.48 137.73C215.48 138.45 215.05 138.79 214.18 138.79C213.55 138.79 213.28 139.14 213.28 139.59C213.28 140.05 213.55 140.41 214.23 140.41C215.11 140.41 215.62 140.72 215.62 141.41C215.62 142.06 215.04 142.52 213.98 142.52C213.39 142.52 212.70 142.31 212.12 141.97C211.98 141.88 211.83 141.84 211.67 141.84C211.24 141.84 210.82 142.19 210.82 142.66C210.82 142.79 210.86 142.91 210.93 143.01C211.33 143.69 212.80 144.16 214.05 144.16C216.13 144.16 217.32 143.26 217.43 141.63Z" fill="#627386" /></g><rect x="18" y="166" width="384" height="8" rx="4" fill="#f4faff" /><rect x="18.00" y="166" width="268.07" height="8" rx="4" fill="#00d559" /><rect x="286.07" y="166" width="115.93" height="8" rx="4" fill="#00a5fe" /></svg>