<svg xmlns="http://www.w3.org/2000/svg" width="420" height="184" viewBox="0 0 420 184" role="img"><rect x="0.5" y="0.5" width="419" height="183" rx="10" fill="#161b22" stroke="#30363d" /><path d="M30.72 33.60C30.72 32.83 30.10 32.21 29.37 32.21L28.69 32.21L28.69 24.95C28.69 23.59 27.37 22.97 26.03 23.19C25.08 23.19 24.14 23.70 23.63 24.49L18.73 32.24C18.53 32.54 18.44 32.90 18.44 33.25C18.44 34.24 19.17 34.96 20.05 34.96L25.57 34.96L25.57 36.59C25.57 37.43 26.27 38.13 27.11 38.13C27.99 38.13 28.69 37.43 28.69 36.59L28.69 34.96L29.37 34.96C30.10 34.96 30.72 34.35 30.72 33.60ZM21.61 32.21L25.57 26.10L25.57 32.21ZM42.82 24.91C42.82 23.99 42.07 23.33 41.30 23.33L32.89 23.33C32.15 23.33 31.53 23.94 31.53 24.67C31.53 25.46 32.15 26.08 32.89 26.08L39.05 26.08L34.68 36.00C34.59 36.20 34.54 36.39 34.54 36.59C34.54 37.38 35.18 38.13 36.11 38.13C36.74 38.13 37.34 37.76 37.58 37.19L42.68 25.53C42.77 25.35 42.82 25.13 42.82 24.91ZM45.79 36.92C45.79 35.49 44.84 34.68 43.81 34.68C42.88 34.68 42.09 35.47 42.09 36.44C42.09 37.38 42.75 38.02 43.59 38.02C43.74 38.02 43.94 37.98 44.00 37.96C43.87 38.53 43.39 39.21 42.82 39.67C42.66 39.80 42.60 39.98 42.60 40.16C42.60 40.60 43.06 40.86 43.43 40.86C43.65 40.86 43.85 40.79 44.00 40.64C45.10 39.65 45.79 38.33 45.79 36.92ZM56.76 24.91C56.76 23.99 56.02 23.33 55.25 23.33L46.84 23.33C46.09 23.33 45.48 23.94 45.48 24.67C45.48 25.46 46.09 26.08 46.84 26.08L53.00 26.08L48.62 36.00C48.54 36.20 48.49 36.39 48.49 36.59C48.49 37.38 49.13 38.13 50.05 38.13C50.69 38.13 51.29 37.76 51.53 37.19L56.63 25.53C56.72 25.35 56.76 25.13 56.76 24.91ZM64.66 25.00C64.66 24.01 63.83 23.22 62.84 23.22C62.33 23.22 61.85 23.41 61.52 23.74L58.13 27.18C57.86 27.44 57.73 27.77 57.73 28.10C57.73 28.83 58.35 29.40 59.03 29.40C59.34 29.40 59.65 29.29 59.89 29.05L61.54 27.35L61.54 36.59C61.54 37.43 62.24 38.13 63.08 38.13C63.96 38.13 64.66 37.43 64.66 36.59ZM66.77 28.12C66.77 31.25 69.13 32.90 71.77 32.90C73.59 32.90 74.96 31.99 75.53 31.00C75.55 31.11 75.55 31.20 75.55 31.31C75.55 33.64 74.03 35.47 71.88 35.47C71.13 35.47 70.51 35.34 69.96 35.05C69.77 34.94 69.55 34.90 69.33 34.90C68.64 34.90 67.90 35.43 67.90 36.26C67.90 36.48 67.96 36.68 68.05 36.86C68.60 37.82 70.45 38.24 71.88 38.24C76.21 38.24 78.72 35.10 78.72 30.65C78.72 26.52 76.85 23.08 72.38 23.08C69.04 23.08 66.77 25.26 66.77 28.12ZM69.94 28.01C69.94 26.91 70.76 25.86 72.45 25.86C73.84 25.86 74.87 26.80 74.87 28.17C74.87 29.49 73.81 30.43 72.45 30.43C71.04 30.43 69.94 29.49 69.94 28.01ZM93.68 23.08C89.28 23.08 85.87 26.16 85.87 30.67C85.87 35.18 89.28 38.26 93.68 38.26C96.21 38.26 97.90 37.16 99.00 35.82C99.22 35.58 99.31 35.27 99.31 34.96C99.31 34.22 98.67 33.60 97.88 33.60C97.44 33.60 97.00 33.78 96.69 34.11C95.88 35.01 94.78 35.49 93.68 35.49C91.02 35.49 89.08 33.45 89.08 30.67C89.08 27.90 91.02 25.86 93.68 25.86C94.78 25.86 95.86 26.38 96.69 27.26C97.00 27.59 97.42 27.77 97.84 27.77C98.65 27.77 99.33 27.15 99.33 26.36C99.33 26.08 99.22 25.75 99.03 25.50C97.90 24.16 96.21 23.08 93.68 23.08ZM112.18 32.68C112.18 29.66 110.07 27.11 106.55 27.11C103.05 27.11 100.94 29.66 100.94 32.68C100.94 35.71 103.05 38.26 106.55 38.26C110.07 38.26 112.18 35.71 112.18 32.68ZM109.28 32.68C109.28 34.35 108.29 35.78 106.55 35.78C104.81 35.78 103.84 34.35 103.84 32.68C103.84 31.03 104.81 29.60 106.55 29.60C108.29 29.60 109.28 31.03 109.28 32.68ZM130.24 31.20C130.24 29.02 128.73 27.11 126.33 27.11C124.48 27.11 123.42 28.19 123.03 28.94C122.63 28.17 121.64 27.11 119.86 27.11C118.23 27.11 117.48 27.70 117.04 28.28L117.04 28.25C117.04 27.95 116.65 27.24 115.68 27.24C114.87 27.24 114.25 27.86 114.25 28.61L114.25 36.75C114.25 37.52 114.87 38.13 115.64 38.13C116.43 38.13 117.04 37.52 117.04 36.75L117.04 31.73C117.04 30.70 117.84 29.60 119.02 29.60C120.17 29.60 120.83 30.74 120.83 31.73L120.83 36.75C120.83 37.52 121.44 38.13 122.21 38.13C123.03 38.13 123.64 37.52 123.64 36.75L123.64 31.93C123.64 30.70 124.41 29.60 125.62 29.60C126.77 29.60 127.43 30.74 127.43 31.73L127.43 36.75C127.43 37.52 128.04 38.13 128.81 38.13C129.63 38.13 130.24 37.52 130.24 36.75ZM148.99 31.20C148.99 29.02 147.47 27.11 145.07 27.11C143.22 27.11 142.17 28.19 141.77 28.94C141.38 28.17 140.39 27.11 138.60 27.11C136.98 27.11 136.23 27.70 135.79 28.28L135.79 28.25C135.79 27.95 135.39 27.24 134.42 27.24C133.61 27.24 132.99 27.86 132.99 28.61L132.99 36.75C132.99 37.52 133.61 38.13 134.38 38.13C135.17 38.13 135.79 37.52 135.79 36.75L135.79 31.73C135.79 30.70 136.58 29.60 137.77 29.60C138.91 29.60 139.57 30.74 139.57 31.73L139.57 36.75C139.57 37.52 140.19 38.13 140.96 38.13C141.77 38.13 142.39 37.52 142.39 36.75L142.39 31.93C142.39 30.70 143.16 29.60 144.37 29.60C145.51 29.60 146.17 30.74 146.17 31.73L146.17 36.75C146.17 37.52 146.79 38.13 147.56 38.13C148.37 38.13 148.99 37.52 148.99 36.75ZM153.12 22.91C152.22 22.91 151.45 23.63 151.45 24.56C151.45 25.48 152.22 26.23 153.12 26.23C154.05 26.23 154.80 25.48 154.80 24.56C154.80 23.63 154.05 22.91 153.12 22.91ZM154.53 28.61C154.53 27.86 153.92 27.24 153.17 27.24C152.35 27.24 151.74 27.86 151.74 28.61L151.74 36.75C151.74 37.52 152.35 38.13 153.12 38.13C153.92 38.13 154.53 37.52 154.53 36.75ZM163.11 36.99C163.11 36.31 162.67 35.78 161.88 35.78L161.64 35.78C161.20 35.78 160.67 35.45 160.67 34.61L160.67 29.82L161.77 29.82C162.41 29.82 162.96 29.27 162.96 28.61C162.96 27.92 162.41 27.37 161.77 27.37L160.67 27.37L160.67 25.72C160.67 24.95 160.05 24.34 159.28 24.34C158.47 24.34 157.85 24.95 157.85 25.72L157.85 27.37L157.17 27.37C156.51 27.37 155.96 27.92 155.96 28.56C155.96 29.27 156.51 29.82 157.17 29.82L157.85 29.82L157.85 35.36C157.85 37.25 158.91 38.26 160.87 38.26C162.69 38.26 163.11 37.69 163.11 36.99ZM173.17 34.85C173.17 30.56 166.87 31.88 166.87 30.30C166.87 29.71 167.53 29.24 168.55 29.24C169.40 29.24 170.26 29.49 170.94 29.88C171.10 29.97 171.30 30.01 171.47 30.01C172.04 30.01 172.57 29.55 172.57 28.96C172.57 28.76 172.51 28.56 172.40 28.41C171.80 27.55 169.91 27.11 168.52 27.11C165.73 27.11 164.17 28.67 164.17 30.45C164.17 34.63 170.48 33.20 170.48 34.96C170.48 35.62 169.91 36.11 168.70 36.11C167.78 36.11 166.68 35.73 165.84 35.25C165.66 35.14 165.47 35.10 165.27 35.10C164.67 35.10 164.10 35.60 164.10 36.26C164.10 36.48 164.17 36.68 164.30 36.86C164.96 37.80 167.18 38.26 168.57 38.26C171.52 38.26 173.17 36.79 173.17 34.85Z" fill="#e6edf3" /><path d="M20.26 49.88C20.26 49.54 19.98 49.25 19.64 49.25C19.26 49.25 18.98 49.54 18.98 49.88L18.98 57.44C18.98 57.79 19.26 58.08 19.61 58.08C19.98 58.08 20.26 57.79 20.26 57.44ZM27.55 53.97C27.55 52.64 26.59 51.56 25.27 51.56C24.18 51.56 23.62 52.10 23.32 52.60L23.32 52.20C23.32 51.90 23.06 51.64 22.76 51.64C22.42 51.64 22.16 51.90 22.16 52.20L22.16 57.51C22.16 57.82 22.42 58.08 22.73 58.08C23.06 58.08 23.32 57.82 23.32 57.51L23.32 54.49C23.32 53.42 23.89 52.59 24.89 52.59C25.83 52.59 26.40 53.32 26.40 54.36L26.40 57.51C26.40 57.82 26.66 58.08 26.97 58.08C27.30 58.08 27.55 57.82 27.55 57.51ZM38.97 49.91C38.97 49.58 38.72 49.33 38.41 49.33L32.70 49.33C32.39 49.33 32.14 49.58 32.14 49.89C32.14 50.21 32.39 50.47 32.70 50.47L34.91 50.47L34.91 57.44C34.91 57.79 35.20 58.08 35.55 58.08C35.91 58.08 36.20 57.79 36.20 57.44L36.20 50.47L38.41 50.47C38.72 50.47 38.97 50.21 38.97 49.91ZM44.74 54.85C44.74 53.05 43.53 51.56 41.57 51.56C39.62 51.56 38.41 53.05 38.41 54.85C38.41 56.66 39.62 58.16 41.57 58.16C43.53 58.16 44.74 56.66 44.74 54.85ZM43.53 54.85C43.53 56.06 42.83 57.13 41.57 57.13C40.32 57.13 39.61 56.06 39.61 54.85C39.61 53.66 40.32 52.59 41.57 52.59C42.83 52.59 43.53 53.66 43.53 54.85ZM49.16 57.55C49.16 57.27 48.95 57.06 48.67 57.06C48.54 57.06 48.38 57.13 48.24 57.13C47.86 57.13 47.63 56.83 47.63 56.35L47.63 52.73L48.48 52.73C48.76 52.73 48.98 52.51 48.98 52.24C48.98 51.94 48.76 51.72 48.48 51.72L47.63 51.72L47.63 50.49C47.63 50.19 47.37 49.93 47.05 49.93C46.72 49.93 46.46 50.19 46.46 50.49L46.46 51.72L45.85 51.72C45.56 51.72 45.34 51.94 45.34 52.22C45.34 52.51 45.56 52.73 45.85 52.73L46.46 52.73L46.46 56.62C46.46 57.61 46.98 58.16 47.96 58.16C48.65 58.16 49.16 57.96 49.16 57.55ZM55.26 53.75C55.26 52.15 54.09 51.56 52.74 51.56C51.89 51.56 50.94 51.84 50.34 52.44C50.27 52.53 50.23 52.63 50.23 52.73C50.23 53.01 50.47 53.19 50.71 53.19C50.80 53.19 50.90 53.15 50.99 53.09C51.46 52.72 51.98 52.54 52.57 52.54C53.45 52.54 54.10 53.01 54.10 53.80L54.10 54.15L52.29 54.15C50.99 54.15 49.85 54.66 49.85 56.08C49.85 57.45 50.99 58.16 52.03 58.16C53.01 58.16 53.59 57.86 54.10 57.30L54.10 57.51C54.10 57.88 54.40 58.08 54.63 58.08L54.67 58.08C55.00 58.08 55.26 57.82 55.26 57.51ZM54.10 54.96L54.10 55.84C54.10 56.58 53.26 57.34 52.35 57.34C51.50 57.34 51.02 56.83 51.02 56.10C51.02 55.35 51.62 54.96 52.61 54.96ZM58.27 49.81C58.27 49.51 58.01 49.25 57.71 49.25C57.38 49.25 57.12 49.51 57.12 49.81L57.12 57.51C57.12 57.82 57.38 58.08 57.69 58.08C58.01 58.08 58.27 57.82 58.27 57.51Z" fill="#9aa7b4" /><line x1="18" y1="76" x2="48" y2="76" stroke="#9aa7b4" stroke-opacity="0.4" /><g aria-label="Additions: 32,390,781"><circle cx="22" cy="96" r="4" fill="#00d559" /><path d="M42.28 99.39C42.28 99.31 42.27 99.23 42.23 99.14L39.36 91.94C39.19 91.51 38.76 91.24 38.30 91.25C37.85 91.25 37.43 91.52 37.28 91.94L34.40 99.14C34.38 99.23 34.36 99.31 34.36 99.39C34.36 99.74 34.65 100.08 35.05 100.08C35.33 100.08 35.57 99.92 35.68 99.66L36.25 98.19L40.40 98.19L40.97 99.66C41.07 99.92 41.32 100.08 41.59 100.08C42.01 100.08 42.28 99.71 42.28 99.39ZM38.32 92.64L40.03 97.06L36.61 97.06ZM49.22 91.81C49.22 91.51 48.96 91.25 48.66 91.25C48.33 91.25 48.07 91.51 48.07 91.81L48.07 94.63C47.56 93.95 46.95 93.56 46.00 93.56C44.36 93.56 43.20 94.85 43.20 96.87C43.20 98.92 44.37 100.16 46.00 100.16C46.97 100.16 47.59 99.73 48.07 99.10L48.07 99.51C48.07 99.82 48.33 100.08 48.64 100.08C48.96 100.08 49.22 99.82 49.22 99.51ZM48.07 96.91C48.07 98.21 47.42 99.13 46.30 99.13C45.13 99.13 44.40 98.18 44.40 96.87C44.40 95.55 45.13 94.59 46.30 94.59C47.42 94.59 48.07 95.54 48.07 96.83ZM56.74 91.81C56.74 91.51 56.48 91.25 56.18 91.25C55.84 91.25 55.58 91.51 55.58 91.81L55.58 94.63C55.07 93.95 54.46 93.56 53.51 93.56C51.88 93.56 50.72 94.85 50.72 96.87C50.72 98.92 51.89 100.16 53.51 100.16C54.49 100.16 55.10 99.73 55.58 99.10L55.58 99.51C55.58 99.82 55.84 100.08 56.15 100.08C56.48 100.08 56.74 99.82 56.74 99.51ZM55.58 96.91C55.58 98.21 54.93 99.13 53.81 99.13C52.64 99.13 51.91 98.18 51.91 96.87C51.91 95.55 52.64 94.59 53.81 94.59C54.93 94.59 55.58 95.54 55.58 96.83ZM59.18 91.39C58.78 91.39 58.44 91.73 58.44 92.15C58.44 92.55 58.78 92.89 59.18 92.89C59.60 92.89 59.92 92.55 59.92 92.15C59.92 91.73 59.60 91.39 59.18 91.39ZM59.77 94.20C59.77 93.90 59.51 93.64 59.21 93.64C58.87 93.64 58.61 93.90 58.61 94.20L58.61 99.51C58.61 99.82 58.87 100.08 59.18 100.08C59.51 100.08 59.77 99.82 59.77 99.51ZM64.56 99.55C64.56 99.27 64.36 99.06 64.07 99.06C63.94 99.06 63.78 99.13 63.64 99.13C63.26 99.13 63.03 98.83 63.03 98.35L63.03 94.73L63.89 94.73C64.16 94.73 64.38 94.51 64.38 94.24C64.38 93.94 64.16 93.72 63.89 93.72L63.03 93.72L63.03 92.49C63.03 92.19 62.77 91.93 62.46 91.93C62.12 91.93 61.86 92.19 61.86 92.49L61.86 93.72L61.25 93.72C60.96 93.72 60.74 93.94 60.74 94.22C60.74 94.51 60.96 94.73 61.25 94.73L61.86 94.73L61.86 98.62C61.86 99.61 62.38 100.16 63.37 100.16C64.06 100.16 64.56 99.96 64.56 99.55ZM66.19 91.39C65.79 91.39 65.45 91.73 65.45 92.15C65.45 92.55 65.79 92.89 66.19 92.89C66.60 92.89 66.93 92.55 66.93 92.15C66.93 91.73 66.60 91.39 66.19 91.39ZM66.77 94.20C66.77 93.90 66.51 93.64 66.21 93.64C65.88 93.64 65.62 93.90 65.62 94.20L65.62 99.51C65.62 99.82 65.88 100.08 66.19 100.08C66.51 100.08 66.77 99.82 66.77 99.51ZM74.60 96.85C74.60 95.05 73.39 93.56 71.43 93.56C69.48 93.56 68.27 95.05 68.27 96.85C68.27 98.66 69.48 100.16 71.43 100.16C73.39 100.16 74.60 98.66 74.60 96.85ZM73.39 96.85C73.39 98.06 72.69 99.13 71.43 99.13C70.18 99.13 69.46 98.06 69.46 96.85C69.46 95.66 70.18 94.59 71.43 94.59C72.69 94.59 73.39 95.66 73.39 96.85ZM81.49 95.97C81.49 94.64 80.53 93.56 79.20 93.56C78.11 93.56 77.55 94.10 77.25 94.61L77.25 94.20C77.25 93.90 76.99 93.64 76.69 93.64C76.35 93.64 76.09 93.90 76.09 94.20L76.09 99.51C76.09 99.82 76.35 100.08 76.67 100.08C76.99 100.08 77.25 99.82 77.25 99.51L77.25 96.49C77.25 95.42 77.82 94.59 78.82 94.59C79.76 94.59 80.33 95.32 80.33 96.36L80.33 99.51C80.33 99.82 80.59 100.08 80.90 100.08C81.23 100.08 81.49 99.82 81.49 99.51ZM87.96 98.10C87.85 95.89 84.24 96.50 84.11 95.37C84.06 94.86 84.61 94.49 85.40 94.49C86 94.49 86.56 94.68 86.96 94.97C87.04 95.03 87.13 95.06 87.23 95.06C87.47 95.06 87.69 94.86 87.69 94.61C87.69 94.50 87.65 94.40 87.57 94.32C87.08 93.84 86.29 93.56 85.39 93.56C83.86 93.56 82.93 94.29 83.00 95.41C83.11 97.52 86.70 96.87 86.83 98.26C86.88 98.83 86.36 99.23 85.47 99.23C84.82 99.23 84.17 98.97 83.70 98.64C83.61 98.57 83.52 98.54 83.40 98.54C83.13 98.54 82.89 98.75 82.89 99.03C82.89 99.16 82.94 99.26 83.04 99.34C83.61 99.91 84.56 100.16 85.41 100.16C87.08 100.16 88.03 99.30 87.96 98.10Z" fill="#e6edf3" /><path d="M160.29 97.63C160.40 96.07 159.34 95.53 159.34 95.53C159.34 95.53 160.31 95.03 160.20 93.55C160.10 92.11 158.95 91.20 156.93 91.20C155.73 91.20 154.79 91.55 154.08 92.12C153.90 92.27 153.81 92.47 153.81 92.68C153.81 93.14 154.21 93.46 154.61 93.46C154.77 93.46 154.92 93.42 155.05 93.33C155.56 93.01 156.13 92.84 156.73 92.84C157.64 92.84 158.34 93.05 158.34 93.73C158.34 94.45 157.91 94.79 157.04 94.79C156.42 94.79 156.15 95.14 156.15 95.59C156.15 96.05 156.42 96.41 157.09 96.41C157.98 96.41 158.49 96.72 158.49 97.41C158.49 98.06 157.90 98.52 156.85 98.52C156.25 98.52 155.56 98.31 154.99 97.97C154.85 97.88 154.69 97.84 154.53 97.84C154.10 97.84 153.69 98.19 153.69 98.66C153.69 98.79 153.73 98.91 153.79 99.01C154.20 99.69 155.66 100.16 156.91 100.16C158.99 100.16 160.19 99.26 160.29 97.63ZM168.08 99.17C168.08 98.74 167.72 98.38 167.29 98.38L164.47 98.38C166.71 96.74 167.94 95.45 167.94 93.97C167.94 92.24 166.47 91.20 164.62 91.20C163.53 91.20 162.07 91.67 161.66 92.33C161.58 92.45 161.54 92.58 161.54 92.71C161.54 93.17 161.92 93.54 162.35 93.54C162.54 93.54 162.71 93.49 162.88 93.37C163.37 93.03 163.97 92.84 164.66 92.84C165.38 92.84 166.06 93.21 166.06 93.97C166.06 94.98 165.02 95.93 161.79 98.32C161.54 98.50 161.40 98.80 161.40 99.10C161.40 99.62 161.81 100 162.27 100L167.29 100C167.72 100 168.08 99.64 168.08 99.17ZM171.46 99.36C171.46 98.52 170.90 98.04 170.29 98.04C169.74 98.04 169.28 98.50 169.28 99.08C169.28 99.64 169.67 100.01 170.16 100.01C170.25 100.01 170.37 99.99 170.41 99.97C170.33 100.31 170.04 100.72 169.70 100.99C169.61 101.07 169.57 101.17 169.57 101.27C169.57 101.53 169.85 101.69 170.07 101.69C170.20 101.69 170.32 101.65 170.41 101.56C171.06 100.97 171.46 100.19 171.46 99.36ZM179.05 97.63C179.16 96.07 178.10 95.53 178.10 95.53C178.10 95.53 179.06 95.03 178.96 93.55C178.86 92.11 177.71 91.20 175.69 91.20C174.49 91.20 173.55 91.55 172.84 92.12C172.66 92.27 172.56 92.47 172.56 92.68C172.56 93.14 172.97 93.46 173.37 93.46C173.53 93.46 173.68 93.42 173.81 93.33C174.32 93.01 174.89 92.84 175.49 92.84C176.40 92.84 177.10 93.05 177.10 93.73C177.10 94.45 176.67 94.79 175.80 94.79C175.18 94.79 174.91 95.14 174.91 95.59C174.91 96.05 175.18 96.41 175.85 96.41C176.74 96.41 177.25 96.72 177.25 97.41C177.25 98.06 176.66 98.52 175.61 98.52C175.01 98.52 174.32 98.31 173.75 97.97C173.60 97.88 173.45 97.84 173.29 97.84C172.86 97.84 172.45 98.19 172.45 98.66C172.45 98.79 172.49 98.91 172.55 99.01C172.95 99.69 174.42 100.16 175.67 100.16C177.75 100.16 178.95 99.26 179.05 97.63ZM180.01 94.16C180.01 96.01 181.41 96.98 182.97 96.98C184.04 96.98 184.85 96.45 185.19 95.87C185.20 95.93 185.20 95.98 185.20 96.05C185.20 97.43 184.30 98.50 183.03 98.50C182.59 98.50 182.22 98.43 181.90 98.26C181.78 98.19 181.65 98.17 181.52 98.17C181.12 98.17 180.68 98.48 180.68 98.97C180.68 99.10 180.72 99.22 180.77 99.32C181.09 99.90 182.19 100.14 183.03 100.14C185.59 100.14 187.07 98.28 187.07 95.66C187.07 93.21 185.97 91.19 183.33 91.19C181.35 91.19 180.01 92.47 180.01 94.16ZM181.89 94.10C181.89 93.45 182.37 92.82 183.37 92.82C184.19 92.82 184.80 93.38 184.80 94.19C184.80 94.97 184.17 95.53 183.37 95.53C182.54 95.53 181.89 94.97 181.89 94.10ZM195.15 95.67C195.15 93.44 194.03 91.20 191.56 91.20C189.07 91.20 187.97 93.44 187.97 95.67C187.97 97.91 189.07 100.16 191.56 100.16C194.03 100.16 195.15 97.91 195.15 95.67ZM193.26 95.67C193.26 97.27 192.79 98.52 191.56 98.52C190.31 98.52 189.84 97.27 189.84 95.67C189.84 94.07 190.31 92.84 191.56 92.84C192.79 92.84 193.26 94.07 193.26 95.67ZM198.11 99.36C198.11 98.52 197.55 98.04 196.94 98.04C196.39 98.04 195.93 98.50 195.93 99.08C195.93 99.64 196.32 100.01 196.81 100.01C196.90 100.01 197.02 99.99 197.06 99.97C196.98 100.31 196.69 100.72 196.35 100.99C196.26 101.07 196.22 101.17 196.22 101.27C196.22 101.53 196.50 101.69 196.72 101.69C196.85 101.69 196.97 101.65 197.06 101.56C197.71 100.97 198.11 100.19 198.11 99.36ZM204.60 92.27C204.60 91.72 204.16 91.33 203.70 91.33L198.73 91.33C198.29 91.33 197.93 91.69 197.93 92.12C197.93 92.59 198.29 92.95 198.73 92.95L202.37 92.95L199.79 98.82C199.73 98.93 199.71 99.05 199.71 99.17C199.71 99.64 200.09 100.08 200.63 100.08C201.01 100.08 201.36 99.86 201.50 99.52L204.52 92.63C204.57 92.53 204.60 92.39 204.60 92.27ZM212.20 97.62C212.20 96.44 211.50 95.76 210.98 95.53C211.42 95.32 212.06 94.83 212.06 93.49C212.06 91.99 210.45 91.20 208.72 91.20C206.98 91.20 205.38 91.99 205.38 93.49C205.38 94.83 206.00 95.32 206.44 95.53C205.92 95.76 205.23 96.44 205.23 97.62C205.23 99.25 206.90 100.16 208.72 100.16C210.54 100.16 212.20 99.23 212.20 97.62ZM210.17 93.77C210.17 94.42 209.51 94.80 208.72 94.80C207.92 94.80 207.25 94.42 207.25 93.77C207.25 93.15 207.86 92.78 208.72 92.78C209.56 92.78 210.17 93.15 210.17 93.77ZM210.33 97.52C210.33 98.15 209.60 98.57 208.72 98.57C207.81 98.57 207.11 98.15 207.11 97.52C207.11 96.79 207.91 96.36 208.72 96.36C209.51 96.36 210.33 96.79 210.33 97.52ZM217.14 92.32C217.14 91.73 216.65 91.26 216.06 91.26C215.76 91.26 215.48 91.38 215.28 91.58L213.28 93.60C213.13 93.76 213.05 93.95 213.05 94.15C213.05 94.58 213.41 94.92 213.81 94.92C214.00 94.92 214.18 94.85 214.32 94.71L215.30 93.71L215.30 99.17C215.30 99.66 215.71 100.08 216.21 100.08C216.73 100.08 217.14 99.66 217.14 99.17Z" fill="#9aa7b4" /></g><g aria-label="Deletions: 14,291,440"><circle cx="22" cy="118" r="4" fill="#00a5fe" /><path d="M42.54 117.67C42.54 115.17 40.76 113.33 38.06 113.33L35.82 113.33C35.35 113.33 34.98 113.71 34.98 114.17L34.98 121.16C34.98 121.62 35.35 122 35.82 122L38.06 122C40.76 122 42.54 120.18 42.54 117.67ZM41.23 117.67C41.23 119.43 40.06 120.86 38.06 120.86L36.26 120.86L36.26 114.47L38.06 114.47C40.11 114.47 41.23 115.89 41.23 117.67ZM49.90 118.65C49.90 118.40 49.83 118.13 49.78 117.92C49.42 116.51 48.38 115.56 46.86 115.56C45.04 115.56 43.72 117.03 43.72 118.85C43.72 120.83 45.09 122.16 46.96 122.16C47.88 122.16 49.50 121.67 49.50 120.97C49.50 120.53 49.05 120.43 48.77 120.57C48.31 120.91 47.61 121.22 47.08 121.22C45.80 121.22 45.02 120.35 44.93 119.27L49.30 119.27C49.63 119.27 49.90 118.96 49.90 118.65ZM44.93 118.41C44.98 117.54 45.60 116.50 46.84 116.50C48.18 116.50 48.76 117.57 48.78 118.41ZM52.54 113.81C52.54 113.51 52.28 113.25 51.98 113.25C51.64 113.25 51.38 113.51 51.38 113.81L51.38 121.51C51.38 121.82 51.64 122.08 51.95 122.08C52.28 122.08 52.54 121.82 52.54 121.51ZM60.21 118.65C60.21 118.40 60.14 118.13 60.09 117.92C59.73 116.51 58.69 115.56 57.17 115.56C55.35 115.56 54.03 117.03 54.03 118.85C54.03 120.83 55.40 122.16 57.27 122.16C58.19 122.16 59.81 121.67 59.81 120.97C59.81 120.53 59.36 120.43 59.08 120.57C58.62 120.91 57.92 121.22 57.39 121.22C56.11 121.22 55.33 120.35 55.24 119.27L59.61 119.27C59.94 119.27 60.21 118.96 60.21 118.65ZM55.24 118.41C55.29 117.54 55.91 116.50 57.15 116.50C58.49 116.50 59.06 117.57 59.09 118.41ZM64.62 121.55C64.62 121.27 64.41 121.06 64.12 121.06C63.99 121.06 63.84 121.13 63.69 121.13C63.32 121.13 63.08 120.83 63.08 120.35L63.08 116.73L63.94 116.73C64.21 116.73 64.43 116.51 64.43 116.24C64.43 115.94 64.21 115.72 63.94 115.72L63.08 115.72L63.08 114.49C63.08 114.19 62.82 113.93 62.51 113.93C62.17 113.93 61.91 114.19 61.91 114.49L61.91 115.72L61.30 115.72C61.01 115.72 60.79 115.94 60.79 116.22C60.79 116.51 61.01 116.73 61.30 116.73L61.91 116.73L61.91 120.62C61.91 121.61 62.43 122.16 63.42 122.16C64.11 122.16 64.62 121.96 64.62 121.55ZM66.24 113.39C65.84 113.39 65.50 113.73 65.50 114.15C65.50 114.55 65.84 114.89 66.24 114.89C66.66 114.89 66.98 114.55 66.98 114.15C66.98 113.73 66.66 113.39 66.24 113.39ZM66.83 116.20C66.83 115.90 66.56 115.64 66.27 115.64C65.93 115.64 65.67 115.90 65.67 116.20L65.67 121.51C65.67 121.82 65.93 122.08 66.24 122.08C66.56 122.08 66.83 121.82 66.83 121.51ZM74.65 118.85C74.65 117.05 73.44 115.56 71.48 115.56C69.53 115.56 68.32 117.05 68.32 118.85C68.32 120.66 69.53 122.16 71.48 122.16C73.44 122.16 74.65 120.66 74.65 118.85ZM73.44 118.85C73.44 120.06 72.74 121.13 71.48 121.13C70.23 121.13 69.52 120.06 69.52 118.85C69.52 117.66 70.23 116.59 71.48 116.59C72.74 116.59 73.44 117.66 73.44 118.85ZM81.54 117.97C81.54 116.64 80.58 115.56 79.25 115.56C78.16 115.56 77.60 116.10 77.30 116.61L77.30 116.20C77.30 115.90 77.04 115.64 76.74 115.64C76.41 115.64 76.15 115.90 76.15 116.20L76.15 121.51C76.15 121.82 76.41 122.08 76.72 122.08C77.04 122.08 77.30 121.82 77.30 121.51L77.30 118.49C77.30 117.42 77.88 116.59 78.88 116.59C79.81 116.59 80.38 117.32 80.38 118.36L80.38 121.51C80.38 121.82 80.64 122.08 80.96 122.08C81.28 122.08 81.54 121.82 81.54 121.51ZM88.01 120.10C87.90 117.89 84.30 118.50 84.17 117.37C84.11 116.86 84.66 116.49 85.45 116.49C86.05 116.49 86.61 116.68 87.01 116.97C87.09 117.03 87.18 117.06 87.29 117.06C87.52 117.06 87.74 116.86 87.74 116.61C87.74 116.50 87.70 116.40 87.62 116.32C87.13 115.84 86.34 115.56 85.44 115.56C83.91 115.56 82.98 116.29 83.05 117.41C83.17 119.52 86.75 118.87 86.88 120.26C86.94 120.83 86.42 121.23 85.52 121.23C84.87 121.23 84.22 120.97 83.75 120.64C83.66 120.57 83.57 120.54 83.45 120.54C83.18 120.54 82.94 120.75 82.94 121.03C82.94 121.16 83.00 121.26 83.09 121.34C83.66 121.91 84.61 122.16 85.47 122.16C87.13 122.16 88.08 121.30 88.01 120.10Z" fill="#e6edf3" /><path d="M158.10 114.32C158.10 113.73 157.60 113.26 157.02 113.26C156.72 113.26 156.43 113.38 156.24 113.58L154.23 115.60C154.08 115.76 154.00 115.95 154.00 116.15C154.00 116.58 154.36 116.92 154.77 116.92C154.95 116.92 155.13 116.85 155.27 116.71L156.25 115.71L156.25 121.17C156.25 121.66 156.67 122.08 157.16 122.08C157.68 122.08 158.10 121.66 158.10 121.17ZM166.47 119.40C166.47 118.94 166.10 118.58 165.67 118.58L165.27 118.58L165.27 114.29C165.27 113.48 164.49 113.12 163.70 113.25C163.14 113.25 162.58 113.55 162.28 114.02L159.38 118.59C159.27 118.78 159.21 118.98 159.21 119.19C159.21 119.78 159.64 120.21 160.16 120.21L163.43 120.21L163.43 121.17C163.43 121.66 163.84 122.08 164.34 122.08C164.86 122.08 165.27 121.66 165.27 121.17L165.27 120.21L165.67 120.21C166.10 120.21 166.47 119.84 166.47 119.40ZM161.09 118.58L163.43 114.97L163.43 118.58ZM169.51 121.36C169.51 120.52 168.95 120.04 168.34 120.04C167.79 120.04 167.33 120.50 167.33 121.08C167.33 121.64 167.72 122.01 168.21 122.01C168.30 122.01 168.42 121.99 168.46 121.97C168.38 122.31 168.09 122.72 167.75 122.99C167.66 123.07 167.62 123.17 167.62 123.27C167.62 123.53 167.90 123.69 168.12 123.69C168.25 123.69 168.37 123.65 168.46 123.56C169.11 122.97 169.51 122.19 169.51 121.36ZM177.26 121.17C177.26 120.74 176.89 120.38 176.46 120.38L173.64 120.38C175.89 118.74 177.11 117.45 177.11 115.97C177.11 114.24 175.65 113.20 173.80 113.20C172.71 113.20 171.25 113.67 170.84 114.33C170.76 114.45 170.72 114.58 170.72 114.71C170.72 115.17 171.10 115.54 171.52 115.54C171.72 115.54 171.89 115.49 172.06 115.37C172.55 115.03 173.15 114.84 173.84 114.84C174.55 114.84 175.24 115.21 175.24 115.97C175.24 116.98 174.20 117.93 170.97 120.32C170.72 120.50 170.58 120.80 170.58 121.10C170.58 121.62 170.99 122 171.45 122L176.46 122C176.89 122 177.26 121.64 177.26 121.17ZM178.23 116.16C178.23 118.01 179.62 118.98 181.18 118.98C182.26 118.98 183.07 118.45 183.41 117.87C183.42 117.93 183.42 117.98 183.42 118.05C183.42 119.43 182.52 120.50 181.25 120.50C180.81 120.50 180.44 120.43 180.12 120.26C180.00 120.19 179.87 120.17 179.74 120.17C179.34 120.17 178.90 120.48 178.90 120.97C178.90 121.10 178.94 121.22 178.99 121.32C179.31 121.90 180.40 122.14 181.25 122.14C183.81 122.14 185.29 120.28 185.29 117.66C185.29 115.21 184.19 113.19 181.55 113.19C179.57 113.19 178.23 114.47 178.23 116.16ZM180.10 116.10C180.10 115.45 180.59 114.82 181.59 114.82C182.41 114.82 183.02 115.38 183.02 116.19C183.02 116.97 182.39 117.53 181.59 117.53C180.75 117.53 180.10 116.97 180.10 116.10ZM190.23 114.32C190.23 113.73 189.74 113.26 189.15 113.26C188.85 113.26 188.57 113.38 188.37 113.58L186.37 115.60C186.21 115.76 186.14 115.95 186.14 116.15C186.14 116.58 186.50 116.92 186.90 116.92C187.09 116.92 187.27 116.85 187.41 116.71L188.39 115.71L188.39 121.17C188.39 121.66 188.80 122.08 189.30 122.08C189.82 122.08 190.23 121.66 190.23 121.17ZM193.88 121.36C193.88 120.52 193.33 120.04 192.71 120.04C192.17 120.04 191.70 120.50 191.70 121.08C191.70 121.64 192.09 122.01 192.58 122.01C192.68 122.01 192.79 121.99 192.83 121.97C192.75 122.31 192.47 122.72 192.13 122.99C192.04 123.07 192.00 123.17 192.00 123.27C192.00 123.53 192.27 123.69 192.49 123.69C192.62 123.69 192.74 123.65 192.83 123.56C193.48 122.97 193.88 122.19 193.88 121.36ZM201.93 119.40C201.93 118.94 201.57 118.58 201.14 118.58L200.74 118.58L200.74 114.29C200.74 113.48 199.96 113.12 199.16 113.25C198.60 113.25 198.04 113.55 197.75 114.02L194.85 118.59C194.73 118.78 194.68 118.98 194.68 119.19C194.68 119.78 195.11 120.21 195.63 120.21L198.89 120.21L198.89 121.17C198.89 121.66 199.31 122.08 199.80 122.08C200.32 122.08 200.74 121.66 200.74 121.17L200.74 120.21L201.14 120.21C201.57 120.21 201.93 119.84 201.93 119.40ZM196.55 118.58L198.89 114.97L198.89 118.58ZM209.69 119.40C209.69 118.94 209.33 118.58 208.90 118.58L208.50 118.58L208.50 114.29C208.50 113.48 207.72 113.12 206.92 113.25C206.36 113.25 205.81 113.55 205.51 114.02L202.61 118.59C202.49 118.78 202.44 118.98 202.44 119.19C202.44 119.78 202.87 120.21 203.39 120.21L206.65 120.21L206.65 121.17C206.65 121.66 207.07 122.08 207.56 122.08C208.08 122.08 208.50 121.66 208.50 121.17L208.50 120.21L208.90 120.21C209.33 120.21 209.69 119.84 209.69 119.40ZM204.31 118.58L206.65 114.97L206.65 118.58ZM217.56 117.67C217.56 115.44 216.44 113.20 213.97 113.20C211.49 113.20 210.38 115.44 210.38 117.67C210.38 119.91 211.49 122.16 213.97 122.16C216.44 122.16 217.56 119.91 217.56 117.67ZM215.67 117.67C215.67 119.27 215.20 120.52 213.97 120.52C212.72 120.52 212.25 119.27 212.25 117.67C212.25 116.07 212.72 114.84 213.97 114.84C215.20 114.84 215.67 116.07 215.67 117.67Z" fill="#9aa7b4" /></g><g aria-label="Changed Files: 507,560"><circle cx="22" cy="140" r="4" fill="#673bd6" /><path d="M39.11 135.19C36.59 135.19 34.60 137.01 34.60 139.67C34.60 142.34 36.59 144.16 39.11 144.16C40.46 144.16 41.40 143.60 42.07 142.87C42.18 142.76 42.23 142.62 42.23 142.47C42.23 142.15 41.97 141.87 41.63 141.87C41.46 141.87 41.28 141.95 41.18 142.08C40.64 142.67 39.88 143.01 39.11 143.01C37.29 143.01 35.94 141.61 35.94 139.67C35.94 137.72 37.29 136.33 39.11 136.33C39.86 136.33 40.67 136.69 41.18 137.28C41.28 137.42 41.46 137.49 41.62 137.49C41.96 137.49 42.23 137.21 42.23 136.89C42.23 136.73 42.18 136.59 42.07 136.47C41.41 135.73 40.46 135.19 39.11 135.19ZM49.17 139.94C49.17 138.62 48.22 137.56 46.90 137.56C45.79 137.56 45.22 138.10 44.92 138.60L44.92 135.81C44.92 135.51 44.66 135.25 44.36 135.25C44.02 135.25 43.76 135.51 43.76 135.81L43.76 143.51C43.76 143.82 44.02 144.08 44.34 144.08C44.66 144.08 44.92 143.82 44.92 143.51L44.92 140.56C44.92 139.38 45.54 138.59 46.53 138.59C47.47 138.59 48.01 139.29 48.01 140.33L48.01 143.51C48.01 143.82 48.27 144.08 48.59 144.08C48.91 144.08 49.17 143.82 49.17 143.51ZM56.09 139.75C56.09 138.15 54.92 137.56 53.56 137.56C52.72 137.56 51.77 137.84 51.17 138.44C51.09 138.53 51.06 138.63 51.06 138.74C51.06 139.01 51.30 139.19 51.54 139.19C51.63 139.19 51.73 139.15 51.82 139.09C52.29 138.72 52.81 138.54 53.40 138.54C54.28 138.54 54.93 139.01 54.93 139.80L54.93 140.15L53.12 140.15C51.82 140.15 50.68 140.66 50.68 142.08C50.68 143.45 51.82 144.16 52.86 144.16C53.84 144.16 54.42 143.86 54.93 143.30L54.93 143.51C54.93 143.88 55.23 144.08 55.46 144.08L55.50 144.08C55.83 144.08 56.09 143.82 56.09 143.51ZM54.93 140.96L54.93 141.84C54.93 142.58 54.09 143.34 53.17 143.34C52.33 143.34 51.85 142.83 51.85 142.10C51.85 141.35 52.45 140.96 53.44 140.96ZM63.34 139.97C63.34 138.64 62.38 137.56 61.05 137.56C59.96 137.56 59.40 138.10 59.10 138.60L59.10 138.20C59.10 137.90 58.84 137.64 58.54 137.64C58.21 137.64 57.95 137.90 57.95 138.20L57.95 143.51C57.95 143.82 58.21 144.08 58.52 144.08C58.84 144.08 59.10 143.82 59.10 143.51L59.10 140.49C59.10 139.42 59.67 138.59 60.68 138.59C61.61 138.59 62.18 139.32 62.18 140.36L62.18 143.51C62.18 143.82 62.44 144.08 62.76 144.08C63.08 144.08 63.34 143.82 63.34 143.51ZM70.84 138.20C70.84 137.90 70.58 137.64 70.28 137.64C69.95 137.64 69.69 137.90 69.69 138.20L69.69 138.63C69.18 137.96 68.45 137.56 67.62 137.56C65.99 137.56 64.84 138.79 64.84 140.81C64.84 142.86 66.01 144.05 67.62 144.05C68.48 144.05 69.22 143.60 69.69 142.96L69.69 143.79C69.69 145.13 68.72 145.60 67.75 145.60C67.06 145.60 66.51 145.46 66.03 145.05C65.94 144.99 65.85 144.96 65.73 144.96C65.47 144.96 65.24 145.18 65.24 145.46C65.24 145.59 65.29 145.70 65.37 145.78C65.98 146.37 66.86 146.55 67.75 146.55C69.28 146.55 70.84 145.91 70.84 143.75ZM69.69 140.83C69.69 142.12 68.84 143.03 67.80 143.03C66.63 143.03 66.03 142.10 66.03 140.81C66.03 139.50 66.63 138.59 67.80 138.59C68.84 138.59 69.69 139.49 69.69 140.78ZM78.51 140.65C78.51 140.40 78.45 140.13 78.40 139.92C78.03 138.51 76.99 137.56 75.47 137.56C73.65 137.56 72.34 139.03 72.34 140.85C72.34 142.83 73.70 144.16 75.57 144.16C76.50 144.16 78.11 143.68 78.11 142.97C78.11 142.53 77.67 142.43 77.38 142.57C76.93 142.91 76.22 143.22 75.69 143.22C74.42 143.22 73.64 142.35 73.55 141.27L77.91 141.27C78.24 141.27 78.51 140.96 78.51 140.65ZM73.55 140.41C73.60 139.54 74.21 138.50 75.46 138.50C76.80 138.50 77.37 139.57 77.39 140.41ZM85.64 135.81C85.64 135.51 85.38 135.25 85.08 135.25C84.74 135.25 84.48 135.51 84.48 135.81L84.48 138.63C83.97 137.96 83.36 137.56 82.41 137.56C80.77 137.56 79.62 138.85 79.62 140.87C79.62 142.92 80.79 144.16 82.41 144.16C83.39 144.16 84.00 143.73 84.48 143.10L84.48 143.51C84.48 143.82 84.74 144.08 85.05 144.08C85.38 144.08 85.64 143.82 85.64 143.51ZM84.48 140.91C84.48 142.21 83.83 143.13 82.71 143.13C81.54 143.13 80.81 142.18 80.81 140.87C80.81 139.55 81.54 138.59 82.71 138.59C83.83 138.59 84.48 139.54 84.48 140.83ZM96.76 135.91C96.76 135.58 96.52 135.33 96.20 135.33L91.73 135.33C91.27 135.33 90.89 135.71 90.89 136.17L90.89 143.44C90.89 143.79 91.17 144.08 91.52 144.08C91.89 144.08 92.17 143.79 92.17 143.44L92.17 140.15L96.11 140.15C96.43 140.15 96.67 139.89 96.67 139.59C96.67 139.25 96.43 139.01 96.11 139.01L92.17 139.01L92.17 136.47L96.20 136.47C96.52 136.47 96.76 136.21 96.76 135.91ZM98.65 135.39C98.25 135.39 97.91 135.73 97.91 136.15C97.91 136.55 98.25 136.89 98.65 136.89C99.06 136.89 99.39 136.55 99.39 136.15C99.39 135.73 99.06 135.39 98.65 135.39ZM99.23 138.20C99.23 137.90 98.97 137.64 98.67 137.64C98.34 137.64 98.08 137.90 98.08 138.20L98.08 143.51C98.08 143.82 98.34 144.08 98.65 144.08C98.97 144.08 99.23 143.82 99.23 143.51ZM102.26 135.81C102.26 135.51 102.00 135.25 101.70 135.25C101.37 135.25 101.11 135.51 101.11 135.81L101.11 143.51C101.11 143.82 101.37 144.08 101.68 144.08C102.00 144.08 102.26 143.82 102.26 143.51ZM109.93 140.65C109.93 140.40 109.87 140.13 109.82 139.92C109.45 138.51 108.41 137.56 106.89 137.56C105.07 137.56 103.76 139.03 103.76 140.85C103.76 142.83 105.12 144.16 106.99 144.16C107.92 144.16 109.53 143.68 109.53 142.97C109.53 142.53 109.09 142.43 108.80 142.57C108.35 142.91 107.64 143.22 107.11 143.22C105.84 143.22 105.06 142.35 104.97 141.27L109.33 141.27C109.66 141.27 109.93 140.96 109.93 140.65ZM104.97 140.41C105.02 139.54 105.63 138.50 106.88 138.50C108.22 138.50 108.79 139.57 108.81 140.41ZM116.02 142.10C115.90 139.89 112.30 140.50 112.17 139.37C112.12 138.87 112.66 138.49 113.46 138.49C114.05 138.49 114.61 138.68 115.02 138.97C115.09 139.03 115.18 139.06 115.29 139.06C115.52 139.06 115.74 138.87 115.74 138.60C115.74 138.50 115.70 138.40 115.63 138.32C115.13 137.84 114.34 137.56 113.44 137.56C111.91 137.56 110.99 138.29 111.05 139.41C111.17 141.52 114.76 140.87 114.89 142.26C114.94 142.83 114.42 143.23 113.52 143.23C112.87 143.23 112.22 142.97 111.75 142.63C111.66 142.57 111.57 142.54 111.45 142.54C111.18 142.54 110.95 142.75 110.95 143.03C110.95 143.16 111.00 143.26 111.09 143.34C111.66 143.91 112.61 144.16 113.47 144.16C115.13 144.16 116.08 143.30 116.02 142.10Z" fill="#e6edf3" /><path d="M176.43 141.15C176.43 139.40 175.11 138.34 173.64 138.34C172.85 138.34 172.15 138.66 171.73 139.07L171.73 136.95L175.13 136.95C175.55 136.95 175.92 136.59 175.92 136.15C175.92 135.69 175.55 135.33 175.13 135.33L170.93 135.33C170.35 135.33 169.89 135.80 169.89 136.37L169.89 139.70C169.89 140.20 170.25 140.58 170.82 140.58C171.08 140.58 171.33 140.50 171.54 140.36C172.01 140.05 172.46 139.94 172.99 139.94C173.98 139.94 174.55 140.46 174.55 141.23C174.55 141.93 173.97 142.52 172.94 142.52C172.32 142.52 171.72 142.35 171.21 142.04C171.06 141.95 170.89 141.89 170.73 141.89C170.28 141.89 169.85 142.25 169.85 142.73C169.85 142.86 169.89 142.99 169.95 143.10C170.35 143.78 171.82 144.16 172.95 144.16C175.05 144.16 176.43 143.00 176.43 141.15ZM184.50 139.67C184.50 137.44 183.38 135.20 180.91 135.20C178.43 135.20 177.32 137.44 177.32 139.67C177.32 141.91 178.43 144.16 180.91 144.16C183.38 144.16 184.50 141.91 184.50 139.67ZM182.61 139.67C182.61 141.27 182.15 142.52 180.91 142.52C179.66 142.52 179.19 141.27 179.19 139.67C179.19 138.07 179.66 136.84 180.91 136.84C182.15 136.84 182.61 138.07 182.61 139.67ZM191.84 136.26C191.84 135.72 191.40 135.33 190.95 135.33L185.98 135.33C185.54 135.33 185.17 135.69 185.17 136.12C185.17 136.59 185.54 136.95 185.98 136.95L189.62 136.95L187.03 142.82C186.98 142.93 186.96 143.05 186.96 143.17C186.96 143.64 187.33 144.08 187.88 144.08C188.26 144.08 188.61 143.86 188.75 143.52L191.77 136.63C191.82 136.53 191.84 136.40 191.84 136.26ZM193.60 143.36C193.60 142.52 193.04 142.04 192.43 142.04C191.88 142.04 191.41 142.50 191.41 143.08C191.41 143.64 191.80 144.01 192.30 144.01C192.39 144.01 192.51 143.99 192.55 143.97C192.47 144.31 192.18 144.72 191.84 144.99C191.75 145.07 191.71 145.17 191.71 145.27C191.71 145.53 191.99 145.69 192.21 145.69C192.34 145.69 192.45 145.65 192.55 145.56C193.20 144.97 193.60 144.19 193.60 143.36ZM201.58 141.15C201.58 139.40 200.27 138.34 198.80 138.34C198.01 138.34 197.30 138.66 196.89 139.07L196.89 136.95L200.28 136.95C200.71 136.95 201.07 136.59 201.07 136.15C201.07 135.69 200.71 135.33 200.28 135.33L196.08 135.33C195.51 135.33 195.04 135.80 195.04 136.37L195.04 139.70C195.04 140.20 195.41 140.58 195.98 140.58C196.24 140.58 196.48 140.50 196.69 140.36C197.16 140.05 197.62 139.94 198.15 139.94C199.14 139.94 199.71 140.46 199.71 141.23C199.71 141.93 199.12 142.52 198.10 142.52C197.47 142.52 196.87 142.35 196.37 142.04C196.21 141.95 196.04 141.89 195.89 141.89C195.43 141.89 195.00 142.25 195.00 142.73C195.00 142.86 195.04 142.99 195.11 143.10C195.51 143.78 196.98 144.16 198.11 144.16C200.20 144.16 201.58 143.00 201.58 141.15ZM209.54 141.18C209.54 139.33 208.15 138.36 206.59 138.36C205.51 138.36 204.70 138.89 204.36 139.48C204.35 139.41 204.35 139.36 204.35 139.29C204.35 137.92 205.25 136.84 206.52 136.84C206.96 136.84 207.33 136.91 207.65 137.08C207.77 137.15 207.90 137.18 208.03 137.18C208.43 137.18 208.87 136.86 208.87 136.37C208.87 136.24 208.83 136.12 208.78 136.02C208.46 135.45 207.37 135.20 206.52 135.20C203.96 135.20 202.48 137.06 202.48 139.68C202.48 142.13 203.58 144.16 206.22 144.16C208.20 144.16 209.54 142.87 209.54 141.18ZM207.66 141.24C207.66 141.89 207.18 142.52 206.18 142.52C205.36 142.52 204.75 141.96 204.75 141.15C204.75 140.37 205.38 139.81 206.18 139.81C207.01 139.81 207.66 140.37 207.66 141.24ZM217.56 139.67C217.56 137.44 216.44 135.20 213.97 135.20C211.49 135.20 210.38 137.44 210.38 139.67C210.38 141.91 211.49 144.16 213.97 144.16C216.44 144.16 217.56 141.91 217.56 139.67ZM215.67 139.67C215.67 141.27 215.20 142.52 213.97 142.52C212.72 142.52 212.25 141.27 212.25 139.67C212.25 138.07 212.72 136.84 213.97 136.84C215.20 136.84 215.67 138.07 215.67 139.67Z" fill="#9aa7b4" /></g><rect x="18" y="166" width="384" height="8" rx="4" fill="#21262d" /><rect x="18.00" y="166" width="266.44" height="8" rx="4" fill="#00d559" /><rect x="284.44" y="166" width="117.56" height="8" rx="4" fill="#00a5fe" /></svg>