<svg xmlns="http://www.w3.org/2000/svg" width="420" height="184" viewBox="0 0 420 184" role="img"><rect x="0.5" y="0.5" width="419" height="183" rx="10" fill="#161b22" stroke="#30363d" /><path d="M30.72 33.60C30.72 32.83 30.10 32.21 29.37 32.21L28.69 32.21L28.69 24.95C28.69 23.59 27.37 22.97 26.03 23.19C25.08 23.19 24.14 23.70 23.63 24.49L18.73 32.24C18.53 32.54 18.44 32.90 18.44 33.25C18.44 34.24 19.17 34.96 20.05 34.96L25.57 34.96L25.57 36.59C25.57 37.43 26.27 38.13 27.11 38.13C27.99 38.13 28.69 37.43 28.69 36.59L28.69 34.96L29.37 34.96C30.10 34.96 30.72 34.35 30.72 33.60ZM21.61 32.21L25.57 26.10L25.57 32.21ZM43.70 33.97C43.70 31.97 42.51 30.83 41.63 30.43C42.38 30.08 43.45 29.24 43.45 26.98C43.45 24.45 40.73 23.11 37.80 23.11C34.85 23.11 32.15 24.45 32.15 26.98C32.15 29.24 33.20 30.08 33.95 30.43C33.07 30.83 31.90 31.97 31.90 33.97C31.90 36.72 34.72 38.26 37.80 38.26C40.88 38.26 43.70 36.70 43.70 33.97ZM40.26 27.46C40.26 28.56 39.14 29.20 37.80 29.20C36.46 29.20 35.31 28.56 35.31 27.46C35.31 26.41 36.35 25.79 37.80 25.79C39.23 25.79 40.26 26.41 40.26 27.46ZM40.53 33.80C40.53 34.88 39.30 35.58 37.80 35.58C36.26 35.58 35.07 34.88 35.07 33.80C35.07 32.57 36.44 31.84 37.80 31.84C39.14 31.84 40.53 32.57 40.53 33.80ZM49.20 36.92C49.20 35.49 48.25 34.68 47.22 34.68C46.29 34.68 45.50 35.47 45.50 36.44C45.50 37.38 46.16 38.02 47.00 38.02C47.15 38.02 47.35 37.98 47.41 37.96C47.28 38.53 46.80 39.21 46.23 39.67C46.07 39.80 46.01 39.98 46.01 40.16C46.01 40.60 46.47 40.86 46.84 40.86C47.06 40.86 47.26 40.79 47.41 40.64C48.51 39.65 49.20 38.33 49.20 36.92ZM62.81 33.60C62.81 32.83 62.20 32.21 61.47 32.21L60.79 32.21L60.79 24.95C60.79 23.59 59.47 22.97 58.13 23.19C57.18 23.19 56.24 23.70 55.73 24.49L50.82 32.24C50.63 32.54 50.54 32.90 50.54 33.25C50.54 34.24 51.26 34.96 52.14 34.96L57.67 34.96L57.67 36.59C57.67 37.43 58.37 38.13 59.21 38.13C60.09 38.13 60.79 37.43 60.79 36.59L60.79 34.96L61.47 34.96C62.20 34.96 62.81 34.35 62.81 33.60ZM53.71 32.21L57.67 26.10L57.67 32.21ZM75.44 36.59C75.44 35.87 74.83 35.25 74.10 35.25L69.33 35.25C73.13 32.48 75.20 30.30 75.20 27.79C75.20 24.87 72.71 23.11 69.59 23.11C67.74 23.11 65.28 23.90 64.57 25.02C64.44 25.22 64.38 25.44 64.38 25.66C64.38 26.45 65.01 27.07 65.74 27.07C66.07 27.07 66.36 26.98 66.64 26.78C67.48 26.21 68.49 25.88 69.66 25.88C70.87 25.88 72.03 26.52 72.03 27.79C72.03 29.51 70.27 31.11 64.79 35.16C64.38 35.47 64.13 35.98 64.13 36.48C64.13 37.36 64.84 38 65.61 38L74.10 38C74.83 38 75.44 37.38 75.44 36.59ZM89.15 33.60C89.15 32.83 88.53 32.21 87.81 32.21L87.12 32.21L87.12 24.95C87.12 23.59 85.80 22.97 84.46 23.19C83.52 23.19 82.57 23.70 82.06 24.49L77.16 32.24C76.96 32.54 76.87 32.90 76.87 33.25C76.87 34.24 77.60 34.96 78.48 34.96L84 34.96L84 36.59C84 37.43 84.70 38.13 85.54 38.13C86.42 38.13 87.12 37.43 87.12 36.59L87.12 34.96L87.81 34.96C88.53 34.96 89.15 34.35 89.15 33.60ZM80.04 32.21L84 26.10L84 32.21ZM103.76 23.08C99.36 23.08 95.95 26.16 95.95 30.67C95.95 35.18 99.36 38.26 103.76 38.26C106.29 38.26 107.98 37.16 109.08 35.82C109.30 35.58 109.39 35.27 109.39 34.96C109.39 34.22 108.75 33.60 107.96 33.60C107.52 33.60 107.08 33.78 106.77 34.11C105.96 35.01 104.86 35.49 103.76 35.49C101.09 35.49 99.16 33.45 99.16 30.67C99.16 27.90 101.09 25.86 103.76 25.86C104.86 25.86 105.93 26.38 106.77 27.26C107.08 27.59 107.50 27.77 107.91 27.77C108.73 27.77 109.41 27.15 109.41 26.36C109.41 26.08 109.30 25.75 109.10 25.50C107.98 24.16 106.29 23.08 103.76 23.08ZM122.26 32.68C122.26 29.66 120.15 27.11 116.63 27.11C113.13 27.11 111.02 29.66 111.02 32.68C111.02 35.71 113.13 38.26 116.63 38.26C120.15 38.26 122.26 35.71 122.26 32.68ZM119.35 32.68C119.35 34.35 118.36 35.78 116.63 35.78C114.89 35.78 113.92 34.35 113.92 32.68C113.92 31.03 114.89 29.60 116.63 29.60C118.36 29.60 119.35 31.03 119.35 32.68ZM140.32 31.20C140.32 29.02 138.80 27.11 136.40 27.11C134.56 27.11 133.50 28.19 133.10 28.94C132.71 28.17 131.72 27.11 129.94 27.11C128.31 27.11 127.56 27.70 127.12 28.28L127.12 28.25C127.12 27.95 126.72 27.24 125.76 27.24C124.94 27.24 124.33 27.86 124.33 28.61L124.33 36.75C124.33 37.52 124.94 38.13 125.71 38.13C126.50 38.13 127.12 37.52 127.12 36.75L127.12 31.73C127.12 30.70 127.91 29.60 129.10 29.60C130.24 29.60 130.90 30.74 130.90 31.73L130.90 36.75C130.90 37.52 131.52 38.13 132.29 38.13C133.10 38.13 133.72 37.52 133.72 36.75L133.72 31.93C133.72 30.70 134.49 29.60 135.70 29.60C136.84 29.60 137.50 30.74 137.50 31.73L137.50 36.75C137.50 37.52 138.12 38.13 138.89 38.13C139.70 38.13 140.32 37.52 140.32 36.75ZM159.06 31.20C159.06 29.02 157.55 27.11 155.15 27.11C153.30 27.11 152.24 28.19 151.85 28.94C151.45 28.17 150.46 27.11 148.68 27.11C147.05 27.11 146.30 27.70 145.86 28.28L145.86 28.25C145.86 27.95 145.47 27.24 144.50 27.24C143.69 27.24 143.07 27.86 143.07 28.61L143.07 36.75C143.07 37.52 143.69 38.13 144.46 38.13C145.25 38.13 145.86 37.52 145.86 36.75L145.86 31.73C145.86 30.70 146.66 29.60 147.84 29.60C148.99 29.60 149.65 30.74 149.65 31.73L149.65 36.75C149.65 37.52 150.26 38.13 151.03 38.13C151.85 38.13 152.46 37.52 152.46 36.75L152.46 31.93C152.46 30.70 153.23 29.60 154.44 29.60C155.59 29.60 156.25 30.74 156.25 31.73L156.25 36.75C156.25 37.52 156.86 38.13 157.63 38.13C158.45 38.13 159.06 37.52 159.06 36.75ZM163.20 22.91C162.30 22.91 161.53 23.63 161.53 24.56C161.53 25.48 162.30 26.23 163.20 26.23C164.12 26.23 164.87 25.48 164.87 24.56C164.87 23.63 164.12 22.91 163.20 22.91ZM164.61 28.61C164.61 27.86 163.99 27.24 163.24 27.24C162.43 27.24 161.81 27.86 161.81 28.61L161.81 36.75C161.81 37.52 162.43 38.13 163.20 38.13C163.99 38.13 164.61 37.52 164.61 36.75ZM173.19 36.99C173.19 36.31 172.75 35.78 171.96 35.78L171.71 35.78C171.27 35.78 170.75 35.45 170.75 34.61L170.75 29.82L171.85 29.82C172.48 29.82 173.03 29.27 173.03 28.61C173.03 27.92 172.48 27.37 171.85 27.37L170.75 27.37L170.75 25.72C170.75 24.95 170.13 24.34 169.36 24.34C168.55 24.34 167.93 24.95 167.93 25.72L167.93 27.37L167.25 27.37C166.59 27.37 166.04 27.92 166.04 28.56C166.04 29.27 166.59 29.82 167.25 29.82L167.93 29.82L167.93 35.36C167.93 37.25 168.99 38.26 170.94 38.26C172.77 38.26 173.19 37.69 173.19 36.99ZM183.24 34.85C183.24 30.56 176.95 31.88 176.95 30.30C176.95 29.71 177.61 29.24 178.62 29.24C179.48 29.24 180.34 29.49 181.02 29.88C181.17 29.97 181.37 30.01 181.55 30.01C182.12 30.01 182.65 29.55 182.65 28.96C182.65 28.76 182.58 28.56 182.47 28.41C181.88 27.55 179.99 27.11 178.60 27.11C175.81 27.11 174.24 28.67 174.24 30.45C174.24 34.63 180.56 33.20 180.56 34.96C180.56 35.62 179.99 36.11 178.78 36.11C177.85 36.11 176.75 35.73 175.92 35.25C175.74 35.14 175.54 35.10 175.34 35.10C174.75 35.10 174.18 35.60 174.18 36.26C174.18 36.48 174.24 36.68 174.38 36.86C175.04 37.80 177.26 38.26 178.64 38.26C181.59 38.26 183.24 36.79 183.24 34.85Z" fill="#e6edf3" /><path d="M20.26 49.88C20.26 49.54 19.98 49.25 19.64 49.25C19.26 49.25 18.98 49.54 18.98 49.88L18.98 57.44C18.98 57.79 19.26 58.08 19.61 58.08C19.98 58.08 20.26 57.79 20.26 57.44ZM27.55 53.97C27.55 52.64 26.59 51.56 25.27 51.56C24.18 51.56 23.62 52.10 23.32 52.60L23.32 52.20C23.32 51.90 23.06 51.64 22.76 51.64C22.42 51.64 22.16 51.90 22.16 52.20L22.16 57.51C22.16 57.82 22.42 58.08 22.73 58.08C23.06 58.08 23.32 57.82 23.32 57.51L23.32 54.49C23.32 53.42 23.89 52.59 24.89 52.59C25.83 52.59 26.40 53.32 26.40 54.36L26.40 57.51C26.40 57.82 26.66 58.08 26.97 58.08C27.30 58.08 27.55 57.82 27.55 57.51ZM38.97 49.91C38.97 49.58 38.72 49.33 38.41 49.33L32.70 49.33C32.39 49.33 32.14 49.58 32.14 49.89C32.14 50.21 32.39 50.47 32.70 50.47L34.91 50.47L34.91 57.44C34.91 57.79 35.20 58.08 35.55 58.08C35.91 58.08 36.20 57.79 36.20 57.44L36.20 50.47L38.41 50.47C38.72 50.47 38.97 50.21 38.97 49.91ZM44.74 54.85C44.74 53.05 43.53 51.56 41.57 51.56C39.62 51.56 38.41 53.05 38.41 54.85C38.41 56.66 39.62 58.16 41.57 58.16C43.53 58.16 44.74 56.66 44.74 54.85ZM43.53 54.85C43.53 56.06 42.83 57.13 41.57 57.13C40.32 57.13 39.61 56.06 39.61 54.85C39.61 53.66 40.32 52.59 41.57 52.59C42.83 52.59 43.53 53.66 43.53 54.85ZM49.16 57.55C49.16 57.27 48.95 57.06 48.67 57.06C48.54 57.06 48.38 57.13 48.24 57.13C47.86 57.13 47.63 56.83 47.63 56.35L47.63 52.73L48.48 52.73C48.76 52.73 48.98 52.51 48.98 52.24C48.98 51.94 48.76 51.72 48.48 51.72L47.63 51.72L47.63 50.49C47.63 50.19 47.37 49.93 47.05 49.93C46.72 49.93 46.46 50.19 46.46 50.49L46.46 51.72L45.85 51.72C45.56 51.72 45.34 51.94 45.34 52.22C45.34 52.51 45.56 52.73 45.85 52.73L46.46 52.73L46.46 56.62C46.46 57.61 46.98 58.16 47.96 58.16C48.65 58.16 49.16 57.96 49.16 57.55ZM55.26 53.75C55.26 52.15 54.09 51.56 52.74 51.56C51.89 51.56 50.94 51.84 50.34 52.44C50.27 52.53 50.23 52.63 50.23 52.73C50.23 53.01 50.47 53.19 50.71 53.19C50.80 53.19 50.90 53.15 50.99 53.09C51.46 52.72 51.98 52.54 52.57 52.54C53.45 52.54 54.10 53.01 54.10 53.80L54.10 54.15L52.29 54.15C50.99 54.15 49.85 54.66 49.85 56.08C49.85 57.45 50.99 58.16 52.03 58.16C53.01 58.16 53.59 57.86 54.10 57.30L54.10 57.51C54.10 57.88 54.40 58.08 54.63 58.08L54.67 58.08C55.00 58.08 55.26 57.82 55.26 57.51ZM54.10 54.96L54.10 55.84C54.10 56.58 53.26 57.34 52.35 57.34C51.50 57.34 51.02 56.83 51.02 56.10C51.02 55.35 51.62 54.96 52.61 54.96ZM58.27 49.81C58.27 49.51 58.01 49.25 57.71 49.25C57.38 49.25 57.12 49.51 57.12 49.81L57.12 57.51C57.12 57.82 57.38 58.08 57.69 58.08C58.01 58.08 58.27 57.82 58.27 57.51Z" fill="#9aa7b4" /><line x1="18" y1="76" x2="48" y2="76" stroke="#9aa7b4" stroke-opacity="0.4" /><g aria-label="Additions: 34,618,002"><circle cx="22" cy="96" r="4" fill="#00d559" /><path d="M42.28 99.39C42.28 99.31 42.27 99.23 42.23 99.14L39.36 91.94C39.19 91.51 38.76 91.24 38.30 91.25C37.85 91.25 37.43 91.52 37.28 91.94L34.40 99.14C34.38 99.23 34.36 99.31 34.36 99.39C34.36 99.74 34.65 100.08 35.05 100.08C35.33 100.08 35.57 99.92 35.68 99.66L36.25 98.19L40.40 98.19L40.97 99.66C41.07 99.92 41.32 100.08 41.59 100.08C42.01 100.08 42.28 99.71 42.28 99.39ZM38.32 92.64L40.03 97.06L36.61 97.06ZM49.22 91.81C49.22 91.51 48.96 91.25 48.66 91.25C48.33 91.25 48.07 91.51 48.07 91.81L48.07 94.63C47.56 93.95 46.95 93.56 46.00 93.56C44.36 93.56 43.20 94.85 43.20 96.87C43.20 98.92 44.37 100.16 46.00 100.16C46.97 100.16 47.59 99.73 48.07 99.10L48.07 99.51C48.07 99.82 48.33 100.08 48.64 100.08C48.96 100.08 49.22 99.82 49.22 99.51ZM48.07 96.91C48.07 98.21 47.42 99.13 46.30 99.13C45.13 99.13 44.40 98.18 44.40 96.87C44.40 95.55 45.13 94.59 46.30 94.59C47.42 94.59 48.07 95.54 48.07 96.83ZM56.74 91.81C56.74 91.51 56.48 91.25 56.18 91.25C55.84 91.25 55.58 91.51 55.58 91.81L55.58 94.63C55.07 93.95 54.46 93.56 53.51 93.56C51.88 93.56 50.72 94.85 50.72 96.87C50.72 98.92 51.89 100.16 53.51 100.16C54.49 100.16 55.10 99.73 55.58 99.10L55.58 99.51C55.58 99.82 55.84 100.08 56.15 100.08C56.48 100.08 56.74 99.82 56.74 99.51ZM55.58 96.91C55.58 98.21 54.93 99.13 53.81 99.13C52.64 99.13 51.91 98.18 51.91 96.87C51.91 95.55 52.64 94.59 53.81 94.59C54.93 94.59 55.58 95.54 55.58 96.83ZM59.18 91.39C58.78 91.39 58.44 91.73 58.44 92.15C58.44 92.55 58.78 92.89 59.18 92.89C59.60 92.89 59.92 92.55 59.92 92.15C59.92 91.73 59.60 91.39 59.18 91.39ZM59.77 94.20C59.77 93.90 59.51 93.64 59.21 93.64C58.87 93.64 58.61 93.90 58.61 94.20L58.61 99.51C58.61 99.82 58.87 100.08 59.18 100.08C59.51 100.08 59.77 99.82 59.77 99.51ZM64.56 99.55C64.56 99.27 64.36 99.06 64.07 99.06C63.94 99.06 63.78 99.13 63.64 99.13C63.26 99.13 63.03 98.83 63.03 98.35L63.03 94.73L63.89 94.73C64.16 94.73 64.38 94.51 64.38 94.24C64.38 93.94 64.16 93.72 63.89 93.72L63.03 93.72L63.03 92.49C63.03 92.19 62.77 91.93 62.46 91.93C62.12 91.93 61.86 92.19 61.86 92.49L61.86 93.72L61.25 93.72C60.96 93.72 60.74 93.94 60.74 94.22C60.74 94.51 60.96 94.73 61.25 94.73L61.86 94.73L61.86 98.62C61.86 99.61 62.38 100.16 63.37 100.16C64.06 100.16 64.56 99.96 64.56 99.55ZM66.19 91.39C65.79 91.39 65.45 91.73 65.45 92.15C65.45 92.55 65.79 92.89 66.19 92.89C66.60 92.89 66.93 92.55 66.93 92.15C66.93 91.73 66.60 91.39 66.19 91.39ZM66.77 94.20C66.77 93.90 66.51 93.64 66.21 93.64C65.88 93.64 65.62 93.90 65.62 94.20L65.62 99.51C65.62 99.82 65.88 100.08 66.19 100.08C66.51 100.08 66.77 99.82 66.77 99.51ZM74.60 96.85C74.60 95.05 73.39 93.56 71.43 93.56C69.48 93.56 68.27 95.05 68.27 96.85C68.27 98.66 69.48 100.16 71.43 100.16C73.39 100.16 74.60 98.66 74.60 96.85ZM73.39 96.85C73.39 98.06 72.69 99.13 71.43 99.13C70.18 99.13 69.46 98.06 69.46 96.85C69.46 95.66 70.18 94.59 71.43 94.59C72.69 94.59 73.39 95.66 73.39 96.85ZM81.49 95.97C81.49 94.64 80.53 93.56 79.20 93.56C78.11 93.56 77.55 94.10 77.25 94.61L77.25 94.20C77.25 93.90 76.99 93.64 76.69 93.64C76.35 93.64 76.09 93.90 76.09 94.20L76.09 99.51C76.09 99.82 76.35 100.08 76.67 100.08C76.99 100.08 77.25 99.82 77.25 99.51L77.25 96.49C77.25 95.42 77.82 94.59 78.82 94.59C79.76 94.59 80.33 95.32 80.33 96.36L80.33 99.51C80.33 99.82 80.59 100.08 80.90 100.08C81.23 100.08 81.49 99.82 81.49 99.51ZM87.96 98.10C87.85 95.89 84.24 96.50 84.11 95.37C84.06 94.86 84.61 94.49 85.40 94.49C86 94.49 86.56 94.68 86.96 94.97C87.04 95.03 87.13 95.06 87.23 95.06C87.47 95.06 87.69 94.86 87.69 94.61C87.69 94.50 87.65 94.40 87.57 94.32C87.08 93.84 86.29 93.56 85.39 93.56C83.86 93.56 82.93 94.29 83.00 95.41C83.11 97.52 86.70 96.87 86.83 98.26C86.88 98.83 86.36 99.23 85.47 99.23C84.82 99.23 84.17 98.97 83.70 98.64C83.61 98.57 83.52 98.54 83.40 98.54C83.13 98.54 82.89 98.75 82.89 99.03C82.89 99.16 82.94 99.26 83.04 99.34C83.61 99.91 84.56 100.16 85.41 100.16C87.08 100.16 88.03 99.30 87.96 98.10Z" fill="#e6edf3" /><path d="M158.51 97.63C158.62 96.07 157.56 95.53 157.56 95.53C157.56 95.53 158.52 95.03 158.42 93.55C158.32 92.11 157.17 91.20 155.14 91.20C153.95 91.20 153.01 91.55 152.30 92.12C152.12 92.27 152.02 92.47 152.02 92.68C152.02 93.14 152.43 93.46 152.83 93.46C152.99 93.46 153.14 93.42 153.27 93.33C153.78 93.01 154.35 92.84 154.95 92.84C155.86 92.84 156.56 93.05 156.56 93.73C156.56 94.45 156.13 94.79 155.26 94.79C154.64 94.79 154.36 95.14 154.36 95.59C154.36 96.05 154.64 96.41 155.31 96.41C156.20 96.41 156.70 96.72 156.70 97.41C156.70 98.06 156.12 98.52 155.07 98.52C154.47 98.52 153.78 98.31 153.21 97.97C153.06 97.88 152.91 97.84 152.75 97.84C152.32 97.84 151.91 98.19 151.91 98.66C151.91 98.79 151.95 98.91 152.01 99.01C152.41 99.69 153.88 100.16 155.13 100.16C157.21 100.16 158.41 99.26 158.51 97.63ZM166.60 97.40C166.60 96.94 166.23 96.58 165.80 96.58L165.40 96.58L165.40 92.29C165.40 91.48 164.62 91.12 163.83 91.25C163.27 91.25 162.71 91.55 162.41 92.02L159.51 96.59C159.40 96.78 159.34 96.98 159.34 97.19C159.34 97.78 159.77 98.21 160.29 98.21L163.56 98.21L163.56 99.17C163.56 99.66 163.97 100.08 164.47 100.08C164.99 100.08 165.40 99.66 165.40 99.17L165.40 98.21L165.80 98.21C166.23 98.21 166.60 97.84 166.60 97.40ZM161.22 96.58L163.56 92.97L163.56 96.58ZM169.64 99.36C169.64 98.52 169.08 98.04 168.47 98.04C167.92 98.04 167.46 98.50 167.46 99.08C167.46 99.64 167.85 100.01 168.34 100.01C168.43 100.01 168.55 99.99 168.59 99.97C168.51 100.31 168.22 100.72 167.88 100.99C167.79 101.07 167.75 101.17 167.75 101.27C167.75 101.53 168.03 101.69 168.25 101.69C168.38 101.69 168.50 101.65 168.59 101.56C169.24 100.97 169.64 100.19 169.64 99.36ZM177.40 97.18C177.40 95.33 176.01 94.36 174.45 94.36C173.37 94.36 172.56 94.89 172.23 95.48C172.21 95.41 172.21 95.36 172.21 95.29C172.21 93.92 173.11 92.84 174.38 92.84C174.83 92.84 175.19 92.91 175.52 93.08C175.63 93.15 175.76 93.17 175.89 93.17C176.30 93.17 176.74 92.86 176.74 92.37C176.74 92.24 176.70 92.12 176.65 92.02C176.32 91.45 175.23 91.20 174.38 91.20C171.82 91.20 170.34 93.06 170.34 95.68C170.34 98.13 171.45 100.16 174.09 100.16C176.06 100.16 177.40 98.87 177.40 97.18ZM175.53 97.24C175.53 97.89 175.05 98.52 174.05 98.52C173.23 98.52 172.62 97.96 172.62 97.15C172.62 96.37 173.24 95.81 174.05 95.81C174.88 95.81 175.53 96.37 175.53 97.24ZM182.29 92.32C182.29 91.73 181.79 91.26 181.21 91.26C180.91 91.26 180.62 91.38 180.43 91.58L178.43 93.60C178.27 93.76 178.19 93.95 178.19 94.15C178.19 94.58 178.56 94.92 178.96 94.92C179.14 94.92 179.32 94.85 179.47 94.71L180.44 93.71L180.44 99.17C180.44 99.66 180.86 100.08 181.35 100.08C181.87 100.08 182.29 99.66 182.29 99.17ZM190.57 97.62C190.57 96.44 189.87 95.76 189.35 95.53C189.79 95.32 190.43 94.83 190.43 93.49C190.43 91.99 188.81 91.20 187.09 91.20C185.34 91.20 183.74 91.99 183.74 93.49C183.74 94.83 184.37 95.32 184.81 95.53C184.29 95.76 183.60 96.44 183.60 97.62C183.60 99.25 185.27 100.16 187.09 100.16C188.91 100.16 190.57 99.23 190.57 97.62ZM188.54 93.77C188.54 94.42 187.88 94.80 187.09 94.80C186.29 94.80 185.62 94.42 185.62 93.77C185.62 93.15 186.23 92.78 187.09 92.78C187.93 92.78 188.54 93.15 188.54 93.77ZM188.70 97.52C188.70 98.15 187.97 98.57 187.09 98.57C186.18 98.57 185.47 98.15 185.47 97.52C185.47 96.79 186.28 96.36 187.09 96.36C187.88 96.36 188.70 96.79 188.70 97.52ZM193.82 99.36C193.82 98.52 193.26 98.04 192.65 98.04C192.10 98.04 191.64 98.50 191.64 99.08C191.64 99.64 192.03 100.01 192.52 100.01C192.61 100.01 192.73 99.99 192.77 99.97C192.69 100.31 192.40 100.72 192.06 100.99C191.97 101.07 191.93 101.17 191.93 101.27C191.93 101.53 192.21 101.69 192.43 101.69C192.56 101.69 192.68 101.65 192.77 101.56C193.42 100.97 193.82 100.19 193.82 99.36ZM201.70 95.67C201.70 93.44 200.58 91.20 198.11 91.20C195.63 91.20 194.52 93.44 194.52 95.67C194.52 97.91 195.63 100.16 198.11 100.16C200.58 100.16 201.70 97.91 201.70 95.67ZM199.81 95.67C199.81 97.27 199.34 98.52 198.11 98.52C196.86 98.52 196.39 97.27 196.39 95.67C196.39 94.07 196.86 92.84 198.11 92.84C199.34 92.84 199.81 94.07 199.81 95.67ZM209.76 95.67C209.76 93.44 208.64 91.20 206.17 91.20C203.69 91.20 202.58 93.44 202.58 95.67C202.58 97.91 203.69 100.16 206.17 100.16C208.64 100.16 209.76 97.91 209.76 95.67ZM207.87 95.67C207.87 97.27 207.40 98.52 206.17 98.52C204.92 98.52 204.45 97.27 204.45 95.67C204.45 94.07 204.92 92.84 206.17 92.84C207.40 92.84 207.87 94.07 207.87 95.67ZM217.41 99.17C217.41 98.74 217.05 98.38 216.62 98.38L213.80 98.38C216.05 96.74 217.27 95.45 217.27 93.97C217.27 92.24 215.80 91.20 213.96 91.20C212.86 91.20 211.41 91.67 210.99 92.33C210.91 92.45 210.88 92.58 210.88 92.71C210.88 93.17 211.25 93.54 211.68 93.54C211.88 93.54 212.05 93.49 212.21 93.37C212.71 93.03 213.31 92.84 214.00 92.84C214.71 92.84 215.40 93.21 215.40 93.97C215.40 94.98 214.36 95.93 211.12 98.32C210.88 98.50 210.73 98.80 210.73 99.10C210.73 99.62 211.15 100 211.60 100L216.62 100C217.05 100 217.41 99.64 217.41 99.17Z" fill="#9aa7b4" /></g><g aria-label="Deletions: 17,233,813"><circle cx="22" cy="118" r="4" fill="#00a5fe" /><path d="M42.54 117.67C42.54 115.17 40.76 113.33 38.06 113.33L35.82 113.33C35.35 113.33 34.98 113.71 34.98 114.17L34.98 121.16C34.98 121.62 35.35 122 35.82 122L38.06 122C40.76 122 42.54 120.18 42.54 117.67ZM41.23 117.67C41.23 119.43 40.06 120.86 38.06 120.86L36.26 120.86L36.26 114.47L38.06 114.47C40.11 114.47 41.23 115.89 41.23 117.67ZM49.90 118.65C49.90 118.40 49.83 118.13 49.78 117.92C49.42 116.51 48.38 115.56 46.86 115.56C45.04 115.56 43.72 117.03 43.72 118.85C43.72 120.83 45.09 122.16 46.96 122.16C47.88 122.16 49.50 121.67 49.50 120.97C49.50 120.53 49.05 120.43 48.77 120.57C48.31 120.91 47.61 121.22 47.08 121.22C45.80 121.22 45.02 120.35 44.93 119.27L49.30 119.27C49.63 119.27 49.90 118.96 49.90 118.65ZM44.93 118.41C44.98 117.54 45.60 116.50 46.84 116.50C48.18 116.50 48.76 117.57 48.78 118.41ZM52.54 113.81C52.54 113.51 52.28 113.25 51.98 113.25C51.64 113.25 51.38 113.51 51.38 113.81L51.38 121.51C51.38 121.82 51.64 122.08 51.95 122.08C52.28 122.08 52.54 121.82 52.54 121.51ZM60.21 118.65C60.21 118.40 60.14 118.13 60.09 117.92C59.73 116.51 58.69 115.56 57.17 115.56C55.35 115.56 54.03 117.03 54.03 118.85C54.03 120.83 55.40 122.16 57.27 122.16C58.19 122.16 59.81 121.67 59.81 120.97C59.81 120.53 59.36 120.43 59.08 120.57C58.62 120.91 57.92 121.22 57.39 121.22C56.11 121.22 55.33 120.35 55.24 119.27L59.61 119.27C59.94 119.27 60.21 118.96 60.21 118.65ZM55.24 118.41C55.29 117.54 55.91 116.50 57.15 116.50C58.49 116.50 59.06 117.57 59.09 118.41ZM64.62 121.55C64.62 121.27 64.41 121.06 64.12 121.06C63.99 121.06 63.84 121.13 63.69 121.13C63.32 121.13 63.08 120.83 63.08 120.35L63.08 116.73L63.94 116.73C64.21 116.73 64.43 116.51 64.43 116.24C64.43 115.94 64.21 115.72 63.94 115.72L63.08 115.72L63.08 114.49C63.08 114.19 62.82 113.93 62.51 113.93C62.17 113.93 61.91 114.19 61.91 114.49L61.91 115.72L61.30 115.72C61.01 115.72 60.79 115.94 60.79 116.22C60.79 116.51 61.01 116.73 61.30 116.73L61.91 116.73L61.91 120.62C61.91 121.61 62.43 122.16 63.42 122.16C64.11 122.16 64.62 121.96 64.62 121.55ZM66.24 113.39C65.84 113.39 65.50 113.73 65.50 114.15C65.50 114.55 65.84 114.89 66.24 114.89C66.66 114.89 66.98 114.55 66.98 114.15C66.98 113.73 66.66 113.39 66.24 113.39ZM66.83 116.20C66.83 115.90 66.56 115.64 66.27 115.64C65.93 115.64 65.67 115.90 65.67 116.20L65.67 121.51C65.67 121.82 65.93 122.08 66.24 122.08C66.56 122.08 66.83 121.82 66.83 121.51ZM74.65 118.85C74.65 117.05 73.44 115.56 71.48 115.56C69.53 115.56 68.32 117.05 68.32 118.85C68.32 120.66 69.53 122.16 71.48 122.16C73.44 122.16 74.65 120.66 74.65 118.85ZM73.44 118.85C73.44 120.06 72.74 121.13 71.48 121.13C70.23 121.13 69.52 120.06 69.52 118.85C69.52 117.66 70.23 116.59 71.48 116.59C72.74 116.59 73.44 117.66 73.44 118.85ZM81.54 117.97C81.54 116.64 80.58 115.56 79.25 115.56C78.16 115.56 77.60 116.10 77.30 116.61L77.30 116.20C77.30 115.90 77.04 115.64 76.74 115.64C76.41 115.64 76.15 115.90 76.15 116.20L76.15 121.51C76.15 121.82 76.41 122.08 76.72 122.08C77.04 122.08 77.30 121.82 77.30 121.51L77.30 118.49C77.30 117.42 77.88 116.59 78.88 116.59C79.81 116.59 80.38 117.32 80.38 118.36L80.38 121.51C80.38 121.82 80.64 122.08 80.96 122.08C81.28 122.08 81.54 121.82 81.54 121.51ZM88.01 120.10C87.90 117.89 84.30 118.50 84.17 117.37C84.11 116.86 84.66 116.49 85.45 116.49C86.05 116.49 86.61 116.68 87.01 116.97C87.09 117.03 87.18 117.06 87.29 117.06C87.52 117.06 87.74 116.86 87.74 116.61C87.74 116.50 87.70 116.40 87.62 116.32C87.13 115.84 86.34 115.56 85.44 115.56C83.91 115.56 82.98 116.29 83.05 117.41C83.17 119.52 86.75 118.87 86.88 120.26C86.94 120.83 86.42 121.23 85.52 121.23C84.87 121.23 84.22 120.97 83.75 120.64C83.66 120.57 83.57 120.54 83.45 120.54C83.18 120.54 82.94 120.75 82.94 121.03C82.94 121.16 83.00 121.26 83.09 121.34C83.66 121.91 84.61 122.16 85.47 122.16C87.13 122.16 88.08 121.30 88.01 120.10Z" fill="#e6edf3" /><path d="M160.71 114.32C160.71 113.73 160.22 113.26 159.63 113.26C159.33 113.26 159.04 113.38 158.85 113.58L156.85 115.60C156.69 115.76 156.61 115.95 156.61 116.15C156.61 116.58 156.98 116.92 157.38 116.92C157.56 116.92 157.74 116.85 157.89 116.71L158.86 115.71L158.86 121.17C158.86 121.66 159.28 122.08 159.77 122.08C160.29 122.08 160.71 121.66 160.71 121.17ZM168.47 114.27C168.47 113.72 168.03 113.33 167.57 113.33L162.61 113.33C162.16 113.33 161.80 113.69 161.80 114.12C161.80 114.59 162.16 114.95 162.61 114.95L166.25 114.95L163.66 120.82C163.61 120.93 163.58 121.05 163.58 121.17C163.58 121.64 163.96 122.08 164.50 122.08C164.88 122.08 165.23 121.86 165.38 121.52L168.39 114.63C168.44 114.53 168.47 114.39 168.47 114.27ZM170.22 121.36C170.22 120.52 169.67 120.04 169.05 120.04C168.51 120.04 168.04 120.50 168.04 121.08C168.04 121.64 168.43 122.01 168.92 122.01C169.02 122.01 169.13 121.99 169.17 121.97C169.09 122.31 168.81 122.72 168.47 122.99C168.38 123.07 168.34 123.17 168.34 123.27C168.34 123.53 168.61 123.69 168.83 123.69C168.96 123.69 169.08 123.65 169.17 123.56C169.82 122.97 170.22 122.19 170.22 121.36ZM177.97 121.17C177.97 120.74 177.61 120.38 177.18 120.38L174.36 120.38C176.61 118.74 177.83 117.45 177.83 115.97C177.83 114.24 176.36 113.20 174.51 113.20C173.42 113.20 171.97 113.67 171.55 114.33C171.47 114.45 171.43 114.58 171.43 114.71C171.43 115.17 171.81 115.54 172.24 115.54C172.43 115.54 172.60 115.49 172.77 115.37C173.27 115.03 173.86 114.84 174.55 114.84C175.27 114.84 175.96 115.21 175.96 115.97C175.96 116.98 174.92 117.93 171.68 120.32C171.43 120.50 171.29 120.80 171.29 121.10C171.29 121.62 171.71 122 172.16 122L177.18 122C177.61 122 177.97 121.64 177.97 121.17ZM185.62 119.63C185.72 118.07 184.67 117.53 184.67 117.53C184.67 117.53 185.63 117.03 185.53 115.55C185.42 114.11 184.28 113.20 182.25 113.20C181.05 113.20 180.12 113.55 179.40 114.12C179.22 114.27 179.13 114.47 179.13 114.68C179.13 115.14 179.53 115.46 179.94 115.46C180.09 115.46 180.25 115.42 180.38 115.33C180.88 115.01 181.46 114.84 182.06 114.84C182.97 114.84 183.67 115.05 183.67 115.73C183.67 116.45 183.24 116.79 182.37 116.79C181.74 116.79 181.47 117.14 181.47 117.59C181.47 118.05 181.74 118.41 182.42 118.41C183.30 118.41 183.81 118.72 183.81 119.41C183.81 120.06 183.22 120.52 182.17 120.52C181.57 120.52 180.88 120.31 180.31 119.97C180.17 119.88 180.01 119.84 179.86 119.84C179.43 119.84 179.01 120.19 179.01 120.66C179.01 120.79 179.05 120.91 179.12 121.01C179.52 121.69 180.99 122.16 182.24 122.16C184.32 122.16 185.51 121.26 185.62 119.63ZM193.25 119.63C193.35 118.07 192.30 117.53 192.30 117.53C192.30 117.53 193.26 117.03 193.16 115.55C193.05 114.11 191.91 113.20 189.88 113.20C188.69 113.20 187.75 113.55 187.03 114.12C186.85 114.27 186.76 114.47 186.76 114.68C186.76 115.14 187.16 115.46 187.57 115.46C187.72 115.46 187.88 115.42 188.01 115.33C188.52 115.01 189.09 114.84 189.69 114.84C190.60 114.84 191.30 115.05 191.30 115.73C191.30 116.45 190.87 116.79 190.00 116.79C189.37 116.79 189.10 117.14 189.10 117.59C189.10 118.05 189.37 118.41 190.05 118.41C190.93 118.41 191.44 118.72 191.44 119.41C191.44 120.06 190.86 120.52 189.80 120.52C189.20 120.52 188.52 120.31 187.94 119.97C187.80 119.88 187.64 119.84 187.49 119.84C187.06 119.84 186.64 120.19 186.64 120.66C186.64 120.79 186.68 120.91 186.75 121.01C187.15 121.69 188.62 122.16 189.87 122.16C191.95 122.16 193.14 121.26 193.25 119.63ZM196.61 121.36C196.61 120.52 196.06 120.04 195.44 120.04C194.90 120.04 194.43 120.50 194.43 121.08C194.43 121.64 194.82 122.01 195.31 122.01C195.41 122.01 195.52 121.99 195.56 121.97C195.48 122.31 195.20 122.72 194.86 122.99C194.77 123.07 194.73 123.17 194.73 123.27C194.73 123.53 195.00 123.69 195.22 123.69C195.35 123.69 195.47 123.65 195.56 123.56C196.21 122.97 196.61 122.19 196.61 121.36ZM204.57 119.62C204.57 118.44 203.87 117.76 203.35 117.53C203.79 117.32 204.43 116.83 204.43 115.49C204.43 113.99 202.82 113.20 201.09 113.20C199.34 113.20 197.75 113.99 197.75 115.49C197.75 116.83 198.37 117.32 198.81 117.53C198.29 117.76 197.60 118.44 197.60 119.62C197.60 121.25 199.27 122.16 201.09 122.16C202.91 122.16 204.57 121.23 204.57 119.62ZM202.54 115.77C202.54 116.42 201.88 116.80 201.09 116.80C200.29 116.80 199.62 116.42 199.62 115.77C199.62 115.15 200.23 114.78 201.09 114.78C201.93 114.78 202.54 115.15 202.54 115.77ZM202.70 119.52C202.70 120.15 201.97 120.57 201.09 120.57C200.18 120.57 199.47 120.15 199.47 119.52C199.47 118.79 200.28 118.36 201.09 118.36C201.88 118.36 202.70 118.79 202.70 119.52ZM209.51 114.32C209.51 113.73 209.02 113.26 208.43 113.26C208.13 113.26 207.85 113.38 207.65 113.58L205.65 115.60C205.49 115.76 205.42 115.95 205.42 116.15C205.42 116.58 205.78 116.92 206.18 116.92C206.37 116.92 206.55 116.85 206.69 116.71L207.67 115.71L207.67 121.17C207.67 121.66 208.08 122.08 208.58 122.08C209.09 122.08 209.51 121.66 209.51 121.17ZM217.43 119.63C217.53 118.07 216.48 117.53 216.48 117.53C216.48 117.53 217.44 117.03 217.34 115.55C217.23 114.11 216.09 113.20 214.06 113.20C212.87 113.20 211.93 113.55 211.21 114.12C211.03 114.27 210.94 114.47 210.94 114.68C210.94 115.14 211.34 115.46 211.75 115.46C211.90 115.46 212.06 115.42 212.19 115.33C212.70 115.01 213.27 114.84 213.87 114.84C214.78 114.84 215.48 115.05 215.48 115.73C215.48 116.45 215.05 116.79 214.18 116.79C213.55 116.79 213.28 117.14 213.28 117.59C213.28 118.05 213.55 118.41 214.23 118.41C215.11 118.41 215.62 118.72 215.62 119.41C215.62 120.06 215.04 120.52 213.98 120.52C213.38 120.52 212.70 120.31 212.12 119.97C211.98 119.88 211.82 119.84 211.67 119.84C211.24 119.84 210.82 120.19 210.82 120.66C210.82 120.79 210.86 120.91 210.93 121.01C211.33 121.69 212.80 122.16 214.05 122.16C216.13 122.16 217.32 121.26 217.43 119.63Z" fill="#9aa7b4" /></g><g aria-label="Changed Files: 528,335"><circle cx="22" cy="140" r="4" fill="#673bd6" /><path d="M39.11 135.19C36.59 135.19 34.60 137.01 34.60 139.67C34.60 142.34 36.59 144.16 39.11 144.16C40.46 144.16 41.40 143.60 42.07 142.87C42.18 142.76 42.23 142.62 42.23 142.47C42.23 142.15 41.97 141.87 41.63 141.87C41.46 141.87 41.28 141.95 41.18 142.08C40.64 142.67 39.88 143.01 39.11 143.01C37.29 143.01 35.94 141.61 35.94 139.67C35.94 137.72 37.29 136.33 39.11 136.33C39.86 136.33 40.67 136.69 41.18 137.28C41.28 137.42 41.46 137.49 41.62 137.49C41.96 137.49 42.23 137.21 42.23 136.89C42.23 136.73 42.18 136.59 42.07 136.47C41.41 135.73 40.46 135.19 39.11 135.19ZM49.17 139.94C49.17 138.62 48.22 137.56 46.90 137.56C45.79 137.56 45.22 138.10 44.92 138.60L44.92 135.81C44.92 135.51 44.66 135.25 44.36 135.25C44.02 135.25 43.76 135.51 43.76 135.81L43.76 143.51C43.76 143.82 44.02 144.08 44.34 144.08C44.66 144.08 44.92 143.82 44.92 143.51L44.92 140.56C44.92 139.38 45.54 138.59 46.53 138.59C47.47 138.59 48.01 139.29 48.01 140.33L48.01 143.51C48.01 143.82 48.27 144.08 48.59 144.08C48.91 144.08 49.17 143.82 49.17 143.51ZM56.09 139.75C56.09 138.15 54.92 137.56 53.56 137.56C52.72 137.56 51.77 137.84 51.17 138.44C51.09 138.53 51.06 138.63 51.06 138.74C51.06 139.01 51.30 139.19 51.54 139.19C51.63 139.19 51.73 139.15 51.82 139.09C52.29 138.72 52.81 138.54 53.40 138.54C54.28 138.54 54.93 139.01 54.93 139.80L54.93 140.15L53.12 140.15C51.82 140.15 50.68 140.66 50.68 142.08C50.68 143.45 51.82 144.16 52.86 144.16C53.84 144.16 54.42 143.86 54.93 143.30L54.93 143.51C54.93 143.88 55.23 144.08 55.46 144.08L55.50 144.08C55.83 144.08 56.09 143.82 56.09 143.51ZM54.93 140.96L54.93 141.84C54.93 142.58 54.09 143.34 53.17 143.34C52.33 143.34 51.85 142.83 51.85 142.10C51.85 141.35 52.45 140.96 53.44 140.96ZM63.34 139.97C63.34 138.64 62.38 137.56 61.05 137.56C59.96 137.56 59.40 138.10 59.10 138.60L59.10 138.20C59.10 137.90 58.84 137.64 58.54 137.64C58.21 137.64 57.95 137.90 57.95 138.20L57.95 143.51C57.95 143.82 58.21 144.08 58.52 144.08C58.84 144.08 59.10 143.82 59.10 143.51L59.10 140.49C59.10 139.42 59.67 138.59 60.68 138.59C61.61 138.59 62.18 139.32 62.18 140.36L62.18 143.51C62.18 143.82 62.44 144.08 62.76 144.08C63.08 144.08 63.34 143.82 63.34 143.51ZM70.84 138.20C70.84 137.90 70.58 137.64 70.28 137.64C69.95 137.64 69.69 137.90 69.69 138.20L69.69 138.63C69.18 137.96 68.45 137.56 67.62 137.56C65.99 137.56 64.84 138.79 64.84 140.81C64.84 142.86 66.01 144.05 67.62 144.05C68.48 144.05 69.22 143.60 69.69 142.96L69.69 143.79C69.69 145.13 68.72 145.60 67.75 145.60C67.06 145.60 66.51 145.46 66.03 145.05C65.94 144.99 65.85 144.96 65.73 144.96C65.47 144.96 65.24 145.18 65.24 145.46C65.24 145.59 65.29 145.70 65.37 145.78C65.98 146.37 66.86 146.55 67.75 146.55C69.28 146.55 70.84 145.91 70.84 143.75ZM69.69 140.83C69.69 142.12 68.84 143.03 67.80 143.03C66.63 143.03 66.03 142.10 66.03 140.81C66.03 139.50 66.63 138.59 67.80 138.59C68.84 138.59 69.69 139.49 69.69 140.78ZM78.51 140.65C78.51 140.40 78.45 140.13 78.40 139.92C78.03 138.51 76.99 137.56 75.47 137.56C73.65 137.56 72.34 139.03 72.34 140.85C72.34 142.83 73.70 144.16 75.57 144.16C76.50 144.16 78.11 143.68 78.11 142.97C78.11 142.53 77.67 142.43 77.38 142.57C76.93 142.91 76.22 143.22 75.69 143.22C74.42 143.22 73.64 142.35 73.55 141.27L77.91 141.27C78.24 141.27 78.51 140.96 78.51 140.65ZM73.55 140.41C73.60 139.54 74.21 138.50 75.46 138.50C76.80 138.50 77.37 139.57 77.39 140.41ZM85.64 135.81C85.64 135.51 85.38 135.25 85.08 135.25C84.74 135.25 84.48 135.51 84.48 135.81L84.48 138.63C83.97 137.96 83.36 137.56 82.41 137.56C80.77 137.56 79.62 138.85 79.62 140.87C79.62 142.92 80.79 144.16 82.41 144.16C83.39 144.16 84.00 143.73 84.48 143.10L84.48 143.51C84.48 143.82 84.74 144.08 85.05 144.08C85.38 144.08 85.64 143.82 85.64 143.51ZM84.48 140.91C84.48 142.21 83.83 143.13 82.71 143.13C81.54 143.13 80.81 142.18 80.81 140.87C80.81 139.55 81.54 138.59 82.71 138.59C83.83 138.59 84.48 139.54 84.48 140.83ZM96.76 135.91C96.76 135.58 96.52 135.33 96.20 135.33L91.73 135.33C91.27 135.33 90.89 135.71 90.89 136.17L90.89 143.44C90.89 143.79 91.17 144.08 91.52 144.08C91.89 144.08 92.17 143.79 92.17 143.44L92.17 140.15L96.11 140.15C96.43 140.15 96.67 139.89 96.67 139.59C96.67 139.25 96.43 139.01 96.11 139.01L92.17 139.01L92.17 136.47L96.20 136.47C96.52 136.47 96.76 136.21 96.76 135.91ZM98.65 135.39C98.25 135.39 97.91 135.73 97.91 136.15C97.91 136.55 98.25 136.89 98.65 136.89C99.06 136.89 99.39 136.55 99.39 136.15C99.39 135.73 99.06 135.39 98.65 135.39ZM99.23 138.20C99.23 137.90 98.97 137.64 98.67 137.64C98.34 137.64 98.08 137.90 98.08 138.20L98.08 143.51C98.08 143.82 98.34 144.08 98.65 144.08C98.97 144.08 99.23 143.82 99.23 143.51ZM102.26 135.81C102.26 135.51 102.00 135.25 101.70 135.25C101.37 135.25 101.11 135.51 101.11 135.81L101.11 143.51C101.11 143.82 101.37 144.08 101.68 144.08C102.00 144.08 102.26 143.82 102.26 143.51ZM109.93 140.65C109.93 140.40 109.87 140.13 109.82 139.92C109.45 138.51 108.41 137.56 106.89 137.56C105.07 137.56 103.76 139.03 103.76 140.85C103.76 142.83 105.12 144.16 106.99 144.16C107.92 144.16 109.53 143.68 109.53 142.97C109.53 142.53 109.09 142.43 108.80 142.57C108.35 142.91 107.64 143.22 107.11 143.22C105.84 143.22 105.06 142.35 104.97 141.27L109.33 141.27C109.66 141.27 109.93 140.96 109.93 140.65ZM104.97 140.41C105.02 139.54 105.63 138.50 106.88 138.50C108.22 138.50 108.79 139.57 108.81 140.41ZM116.02 142.10C115.90 139.89 112.30 140.50 112.17 139.37C112.12 138.87 112.66 138.49 113.46 138.49C114.05 138.49 114.61 138.68 115.02 138.97C115.09 139.03 115.18 139.06 115.29 139.06C115.52 139.06 115.74 138.87 115.74 138.60C115.74 138.50 115.70 138.40 115.63 138.32C115.13 137.84 114.34 137.56 113.44 137.56C111.91 137.56 110.99 138.29 111.05 139.41C111.17 141.52 114.76 140.87 114.89 142.26C114.94 142.83 114.42 143.23 113.52 143.23C112.87 143.23 112.22 142.97 111.75 142.63C111.66 142.57 111.57 142.54 111.45 142.54C111.18 142.54 110.95 142.75 110.95 143.03C110.95 143.16 111.00 143.26 111.09 143.34C111.66 143.91 112.61 144.16 113.47 144.16C115.13 144.16 116.08 143.30 116.02 142.10Z" fill="#e6edf3" /><path d="M175.37 141.15C175.37 139.40 174.06 138.34 172.59 138.34C171.80 138.34 171.10 138.66 170.68 139.07L170.68 136.95L174.07 136.95C174.50 136.95 174.87 136.59 174.87 136.15C174.87 135.69 174.50 135.33 174.07 135.33L169.87 135.33C169.30 135.33 168.83 135.80 168.83 136.37L168.83 139.70C168.83 140.20 169.20 140.58 169.77 140.58C170.03 140.58 170.28 140.50 170.49 140.36C170.95 140.05 171.41 139.94 171.94 139.94C172.93 139.94 173.50 140.46 173.50 141.23C173.50 141.93 172.92 142.52 171.89 142.52C171.27 142.52 170.67 142.35 170.16 142.04C170.00 141.95 169.84 141.89 169.68 141.89C169.22 141.89 168.80 142.25 168.80 142.73C168.80 142.86 168.83 142.99 168.90 143.10C169.30 143.78 170.77 144.16 171.90 144.16C174.00 144.16 175.37 143.00 175.37 141.15ZM183.04 143.17C183.04 142.74 182.68 142.38 182.25 142.38L179.43 142.38C181.68 140.74 182.90 139.45 182.90 137.97C182.90 136.24 181.43 135.20 179.59 135.20C178.49 135.20 177.04 135.67 176.62 136.33C176.54 136.45 176.50 136.58 176.50 136.71C176.50 137.18 176.88 137.54 177.31 137.54C177.50 137.54 177.67 137.49 177.84 137.37C178.34 137.03 178.94 136.84 179.62 136.84C180.34 136.84 181.03 137.21 181.03 137.97C181.03 138.98 179.99 139.93 176.75 142.32C176.50 142.50 176.36 142.80 176.36 143.10C176.36 143.62 176.78 144 177.23 144L182.25 144C182.68 144 183.04 143.64 183.04 143.17ZM191.05 141.62C191.05 140.44 190.35 139.76 189.83 139.53C190.27 139.32 190.91 138.83 190.91 137.49C190.91 135.99 189.30 135.20 187.57 135.20C185.83 135.20 184.23 135.99 184.23 137.49C184.23 138.83 184.85 139.32 185.29 139.53C184.77 139.76 184.08 140.44 184.08 141.62C184.08 143.25 185.75 144.16 187.57 144.16C189.39 144.16 191.05 143.23 191.05 141.62ZM189.02 137.77C189.02 138.42 188.36 138.80 187.57 138.80C186.77 138.80 186.10 138.42 186.10 137.77C186.10 137.15 186.71 136.78 187.57 136.78C188.41 136.78 189.02 137.15 189.02 137.77ZM189.18 141.52C189.18 142.15 188.45 142.57 187.57 142.57C186.66 142.57 185.96 142.15 185.96 141.52C185.96 140.79 186.76 140.36 187.57 140.36C188.36 140.36 189.18 140.79 189.18 141.52ZM194.30 143.36C194.30 142.52 193.74 142.04 193.13 142.04C192.59 142.04 192.12 142.50 192.12 143.08C192.12 143.64 192.51 144.01 193.00 144.01C193.09 144.01 193.21 143.99 193.25 143.97C193.17 144.31 192.88 144.72 192.55 144.99C192.46 145.07 192.42 145.17 192.42 145.27C192.42 145.53 192.69 145.69 192.91 145.69C193.04 145.69 193.16 145.65 193.25 145.56C193.90 144.97 194.30 144.19 194.30 143.36ZM201.89 141.63C202.00 140.07 200.94 139.53 200.94 139.53C200.94 139.53 201.91 139.03 201.80 137.55C201.70 136.11 200.55 135.20 198.53 135.20C197.33 135.20 196.39 135.55 195.68 136.12C195.50 136.26 195.41 136.47 195.41 136.68C195.41 137.14 195.81 137.46 196.21 137.46C196.37 137.46 196.52 137.42 196.65 137.33C197.16 137.01 197.73 136.84 198.33 136.84C199.24 136.84 199.94 137.04 199.94 137.73C199.94 138.45 199.51 138.79 198.64 138.79C198.02 138.79 197.75 139.14 197.75 139.59C197.75 140.05 198.02 140.41 198.70 140.41C199.58 140.41 200.09 140.72 200.09 141.41C200.09 142.06 199.50 142.52 198.45 142.52C197.85 142.52 197.16 142.31 196.59 141.97C196.45 141.88 196.29 141.84 196.13 141.84C195.71 141.84 195.29 142.19 195.29 142.66C195.29 142.79 195.33 142.91 195.39 143.01C195.80 143.69 197.27 144.16 198.51 144.16C200.59 144.16 201.79 143.26 201.89 141.63ZM209.52 141.63C209.63 140.07 208.58 139.53 208.58 139.53C208.58 139.53 209.54 139.03 209.43 137.55C209.33 136.11 208.19 135.20 206.16 135.20C204.96 135.20 204.03 135.55 203.31 136.12C203.13 136.26 203.04 136.47 203.04 136.68C203.04 137.14 203.44 137.46 203.84 137.46C204.00 137.46 204.16 137.42 204.29 137.33C204.79 137.01 205.36 136.84 205.96 136.84C206.87 136.84 207.57 137.04 207.57 137.73C207.57 138.45 207.15 138.79 206.27 138.79C205.65 138.79 205.38 139.14 205.38 139.59C205.38 140.05 205.65 140.41 206.33 140.41C207.21 140.41 207.72 140.72 207.72 141.41C207.72 142.06 207.13 142.52 206.08 142.52C205.48 142.52 204.79 142.31 204.22 141.97C204.08 141.88 203.92 141.84 203.77 141.84C203.34 141.84 202.92 142.19 202.92 142.66C202.92 142.79 202.96 142.91 203.02 143.01C203.43 143.69 204.90 144.16 206.14 144.16C208.22 144.16 209.42 143.26 209.52 141.63ZM217.55 141.15C217.55 139.40 216.23 138.34 214.76 138.34C213.97 138.34 213.27 138.66 212.85 139.07L212.85 136.95L216.25 136.95C216.67 136.95 217.04 136.59 217.04 136.15C217.04 135.69 216.67 135.33 216.25 135.33L212.05 135.33C211.47 135.33 211.01 135.80 211.01 136.37L211.01 139.70C211.01 140.20 211.37 140.58 211.94 140.58C212.20 140.58 212.45 140.50 212.66 140.36C213.13 140.05 213.58 139.94 214.11 139.94C215.10 139.94 215.67 140.46 215.67 141.23C215.67 141.93 215.09 142.52 214.06 142.52C213.44 142.52 212.84 142.35 212.33 142.04C212.18 141.95 212.01 141.89 211.85 141.89C211.40 141.89 210.97 142.25 210.97 142.73C210.97 142.86 211.01 142.99 211.07 143.10C211.47 143.78 212.94 144.16 214.07 144.16C216.17 144.16 217.55 143.00 217.55 141.15Z" fill="#9aa7b4" /></g><rect x="18" y="166" width="384" height="8" rx="4" fill="#21262d" /><rect x="18.00" y="166" width="256.37" height="8" rx="4" fill="#00d559" /><rect x="274.37" y="166" width="127.63" height="8" rx="4" fill="#00a5fe" /></svg>