<svg xmlns="http://www.w3.org/2000/svg" width="420" height="184" viewBox="0 0 420 184" role="img"><rect x="0.5" y="0.5" width="419" height="183" rx="10" fill="#ffffff" stroke="#f2f4f6" /><path d="M30.72 33.60C30.72 32.83 30.10 32.21 29.37 32.21L28.69 32.21L28.69 24.95C28.69 23.59 27.37 22.97 26.03 23.19C25.08 23.19 24.14 23.70 23.63 24.49L18.73 32.24C18.53 32.54 18.44 32.90 18.44 33.25C18.44 34.24 19.17 34.96 20.05 34.96L25.57 34.96L25.57 36.59C25.57 37.43 26.27 38.13 27.11 38.13C27.99 38.13 28.69 37.43 28.69 36.59L28.69 34.96L29.37 34.96C30.10 34.96 30.72 34.35 30.72 33.60ZM21.61 32.21L25.57 26.10L25.57 32.21ZM43.70 33.97C43.70 31.97 42.51 30.83 41.63 30.43C42.38 30.08 43.45 29.24 43.45 26.98C43.45 24.45 40.73 23.11 37.80 23.11C34.85 23.11 32.15 24.45 32.15 26.98C32.15 29.24 33.20 30.08 33.95 30.43C33.07 30.83 31.90 31.97 31.90 33.97C31.90 36.72 34.72 38.26 37.80 38.26C40.88 38.26 43.70 36.70 43.70 33.97ZM40.26 27.46C40.26 28.56 39.14 29.20 37.80 29.20C36.46 29.20 35.31 28.56 35.31 27.46C35.31 26.41 36.35 25.79 37.80 25.79C39.23 25.79 40.26 26.41 40.26 27.46ZM40.53 33.80C40.53 34.88 39.30 35.58 37.80 35.58C36.26 35.58 35.07 34.88 35.07 33.80C35.07 32.57 36.44 31.84 37.80 31.84C39.14 31.84 40.53 32.57 40.53 33.80ZM49.20 36.92C49.20 35.49 48.25 34.68 47.22 34.68C46.29 34.68 45.50 35.47 45.50 36.44C45.50 37.38 46.16 38.02 47.00 38.02C47.15 38.02 47.35 37.98 47.41 37.96C47.28 38.53 46.80 39.21 46.23 39.67C46.07 39.80 46.01 39.98 46.01 40.16C46.01 40.60 46.47 40.86 46.84 40.86C47.06 40.86 47.26 40.79 47.41 40.64C48.51 39.65 49.20 38.33 49.20 36.92ZM55.51 25.00C55.51 24.01 54.67 23.22 53.68 23.22C53.18 23.22 52.69 23.41 52.36 23.74L48.98 27.18C48.71 27.44 48.58 27.77 48.58 28.10C48.58 28.83 49.20 29.40 49.88 29.40C50.19 29.40 50.49 29.29 50.74 29.05L52.39 27.35L52.39 36.59C52.39 37.43 53.09 38.13 53.93 38.13C54.81 38.13 55.51 37.43 55.51 36.59ZM64.55 25.00C64.55 24.01 63.72 23.22 62.73 23.22C62.22 23.22 61.74 23.41 61.41 23.74L58.02 27.18C57.75 27.44 57.62 27.77 57.62 28.10C57.62 28.83 58.24 29.40 58.92 29.40C59.23 29.40 59.54 29.29 59.78 29.05L61.43 27.35L61.43 36.59C61.43 37.43 62.13 38.13 62.97 38.13C63.85 38.13 64.55 37.43 64.55 36.59ZM78.70 33.23C78.70 30.10 76.34 28.45 73.70 28.45C71.88 28.45 70.51 29.35 69.94 30.34C69.92 30.23 69.92 30.15 69.92 30.04C69.92 27.70 71.44 25.88 73.59 25.88C74.34 25.88 74.96 26.01 75.51 26.30C75.71 26.41 75.93 26.45 76.15 26.45C76.83 26.45 77.58 25.92 77.58 25.09C77.58 24.87 77.51 24.67 77.42 24.49C76.87 23.52 75.02 23.11 73.59 23.11C69.26 23.11 66.75 26.25 66.75 30.70C66.75 34.83 68.62 38.26 73.09 38.26C76.43 38.26 78.70 36.09 78.70 33.23ZM75.53 33.34C75.53 34.44 74.72 35.49 73.02 35.49C71.64 35.49 70.60 34.55 70.60 33.18C70.60 31.86 71.66 30.92 73.02 30.92C74.43 30.92 75.53 31.86 75.53 33.34ZM93.57 23.08C89.17 23.08 85.76 26.16 85.76 30.67C85.76 35.18 89.17 38.26 93.57 38.26C96.10 38.26 97.79 37.16 98.89 35.82C99.11 35.58 99.20 35.27 99.20 34.96C99.20 34.22 98.56 33.60 97.77 33.60C97.33 33.60 96.89 33.78 96.58 34.11C95.77 35.01 94.67 35.49 93.57 35.49C90.91 35.49 88.97 33.45 88.97 30.67C88.97 27.90 90.91 25.86 93.57 25.86C94.67 25.86 95.75 26.38 96.58 27.26C96.89 27.59 97.31 27.77 97.73 27.77C98.54 27.77 99.22 27.15 99.22 26.36C99.22 26.08 99.11 25.75 98.92 25.50C97.79 24.16 96.10 23.08 93.57 23.08ZM112.07 32.68C112.07 29.66 109.96 27.11 106.44 27.11C102.94 27.11 100.83 29.66 100.83 32.68C100.83 35.71 102.94 38.26 106.44 38.26C109.96 38.26 112.07 35.71 112.07 32.68ZM109.17 32.68C109.17 34.35 108.18 35.78 106.44 35.78C104.70 35.78 103.73 34.35 103.73 32.68C103.73 31.03 104.70 29.60 106.44 29.60C108.18 29.60 109.17 31.03 109.17 32.68ZM130.13 31.20C130.13 29.02 128.62 27.11 126.22 27.11C124.37 27.11 123.31 28.19 122.92 28.94C122.52 28.17 121.53 27.11 119.75 27.11C118.12 27.11 117.37 27.70 116.93 28.28L116.93 28.25C116.93 27.95 116.54 27.24 115.57 27.24C114.76 27.24 114.14 27.86 114.14 28.61L114.14 36.75C114.14 37.52 114.76 38.13 115.53 38.13C116.32 38.13 116.93 37.52 116.93 36.75L116.93 31.73C116.93 30.70 117.73 29.60 118.91 29.60C120.06 29.60 120.72 30.74 120.72 31.73L120.72 36.75C120.72 37.52 121.33 38.13 122.10 38.13C122.92 38.13 123.53 37.52 123.53 36.75L123.53 31.93C123.53 30.70 124.30 29.60 125.51 29.60C126.66 29.60 127.32 30.74 127.32 31.73L127.32 36.75C127.32 37.52 127.93 38.13 128.70 38.13C129.52 38.13 130.13 37.52 130.13 36.75ZM148.88 31.20C148.88 29.02 147.36 27.11 144.96 27.11C143.11 27.11 142.06 28.19 141.66 28.94C141.27 28.17 140.28 27.11 138.49 27.11C136.87 27.11 136.12 27.70 135.68 28.28L135.68 28.25C135.68 27.95 135.28 27.24 134.31 27.24C133.50 27.24 132.88 27.86 132.88 28.61L132.88 36.75C132.88 37.52 133.50 38.13 134.27 38.13C135.06 38.13 135.68 37.52 135.68 36.75L135.68 31.73C135.68 30.70 136.47 29.60 137.66 29.60C138.80 29.60 139.46 30.74 139.46 31.73L139.46 36.75C139.46 37.52 140.08 38.13 140.85 38.13C141.66 38.13 142.28 37.52 142.28 36.75L142.28 31.93C142.28 30.70 143.05 29.60 144.26 29.60C145.40 29.60 146.06 30.74 146.06 31.73L146.06 36.75C146.06 37.52 146.68 38.13 147.45 38.13C148.26 38.13 148.88 37.52 148.88 36.75ZM153.01 22.91C152.11 22.91 151.34 23.63 151.34 24.56C151.34 25.48 152.11 26.23 153.01 26.23C153.94 26.23 154.69 25.48 154.69 24.56C154.69 23.63 153.94 22.91 153.01 22.91ZM154.42 28.61C154.42 27.86 153.81 27.24 153.06 27.24C152.24 27.24 151.63 27.86 151.63 28.61L151.63 36.75C151.63 37.52 152.24 38.13 153.01 38.13C153.81 38.13 154.42 37.52 154.42 36.75ZM163.00 36.99C163.00 36.31 162.56 35.78 161.77 35.78L161.53 35.78C161.09 35.78 160.56 35.45 160.56 34.61L160.56 29.82L161.66 29.82C162.30 29.82 162.85 29.27 162.85 28.61C162.85 27.92 162.30 27.37 161.66 27.37L160.56 27.37L160.56 25.72C160.56 24.95 159.94 24.34 159.17 24.34C158.36 24.34 157.74 24.95 157.74 25.72L157.74 27.37L157.06 27.37C156.40 27.37 155.85 27.92 155.85 28.56C155.85 29.27 156.40 29.82 157.06 29.82L157.74 29.82L157.74 35.36C157.74 37.25 158.80 38.26 160.76 38.26C162.58 38.26 163.00 37.69 163.00 36.99ZM173.06 34.85C173.06 30.56 166.76 31.88 166.76 30.30C166.76 29.71 167.42 29.24 168.44 29.24C169.29 29.24 170.15 29.49 170.83 29.88C170.99 29.97 171.19 30.01 171.36 30.01C171.93 30.01 172.46 29.55 172.46 28.96C172.46 28.76 172.40 28.56 172.29 28.41C171.69 27.55 169.80 27.11 168.41 27.11C165.62 27.11 164.06 28.67 164.06 30.45C164.06 34.63 170.37 33.20 170.37 34.96C170.37 35.62 169.80 36.11 168.59 36.11C167.67 36.11 166.57 35.73 165.73 35.25C165.55 35.14 165.36 35.10 165.16 35.10C164.56 35.10 163.99 35.60 163.99 36.26C163.99 36.48 164.06 36.68 164.19 36.86C164.85 37.80 167.07 38.26 168.46 38.26C171.41 38.26 173.06 36.79 173.06 34.85Z" fill="#22272e" /><path d="M20.26 49.88C20.26 49.54 19.98 49.25 19.64 49.25C19.26 49.25 18.98 49.54 18.98 49.88L18.98 57.44C18.98 57.79 19.26 58.08 19.61 58.08C19.98 58.08 20.26 57.79 20.26 57.44ZM27.55 53.97C27.55 52.64 26.59 51.56 25.27 51.56C24.18 51.56 23.62 52.10 23.32 52.60L23.32 52.20C23.32 51.90 23.06 51.64 22.76 51.64C22.42 51.64 22.16 51.90 22.16 52.20L22.16 57.51C22.16 57.82 22.42 58.08 22.73 58.08C23.06 58.08 23.32 57.82 23.32 57.51L23.32 54.49C23.32 53.42 23.89 52.59 24.89 52.59C25.83 52.59 26.40 53.32 26.40 54.36L26.40 57.51C26.40 57.82 26.66 58.08 26.97 58.08C27.30 58.08 27.55 57.82 27.55 57.51ZM38.97 49.91C38.97 49.58 38.72 49.33 38.41 49.33L32.70 49.33C32.39 49.33 32.14 49.58 32.14 49.89C32.14 50.21 32.39 50.47 32.70 50.47L34.91 50.47L34.91 57.44C34.91 57.79 35.20 58.08 35.55 58.08C35.91 58.08 36.20 57.79 36.20 57.44L36.20 50.47L38.41 50.47C38.72 50.47 38.97 50.21 38.97 49.91ZM44.74 54.85C44.74 53.05 43.53 51.56 41.57 51.56C39.62 51.56 38.41 53.05 38.41 54.85C38.41 56.66 39.62 58.16 41.57 58.16C43.53 58.16 44.74 56.66 44.74 54.85ZM43.53 54.85C43.53 56.06 42.83 57.13 41.57 57.13C40.32 57.13 39.61 56.06 39.61 54.85C39.61 53.66 40.32 52.59 41.57 52.59C42.83 52.59 43.53 53.66 43.53 54.85ZM49.16 57.55C49.16 57.27 48.95 57.06 48.67 57.06C48.54 57.06 48.38 57.13 48.24 57.13C47.86 57.13 47.63 56.83 47.63 56.35L47.63 52.73L48.48 52.73C48.76 52.73 48.98 52.51 48.98 52.24C48.98 51.94 48.76 51.72 48.48 51.72L47.63 51.72L47.63 50.49C47.63 50.19 47.37 49.93 47.05 49.93C46.72 49.93 46.46 50.19 46.46 50.49L46.46 51.72L45.85 51.72C45.56 51.72 45.34 51.94 45.34 52.22C45.34 52.51 45.56 52.73 45.85 52.73L46.46 52.73L46.46 56.62C46.46 57.61 46.98 58.16 47.96 58.16C48.65 58.16 49.16 57.96 49.16 57.55ZM55.26 53.75C55.26 52.15 54.09 51.56 52.74 51.56C51.89 51.56 50.94 51.84 50.34 52.44C50.27 52.53 50.23 52.63 50.23 52.73C50.23 53.01 50.47 53.19 50.71 53.19C50.80 53.19 50.90 53.15 50.99 53.09C51.46 52.72 51.98 52.54 52.57 52.54C53.45 52.54 54.10 53.01 54.10 53.80L54.10 54.15L52.29 54.15C50.99 54.15 49.85 54.66 49.85 56.08C49.85 57.45 50.99 58.16 52.03 58.16C53.01 58.16 53.59 57.86 54.10 57.30L54.10 57.51C54.10 57.88 54.40 58.08 54.63 58.08L54.67 58.08C55.00 58.08 55.26 57.82 55.26 57.51ZM54.10 54.96L54.10 55.84C54.10 56.58 53.26 57.34 52.35 57.34C51.50 57.34 51.02 56.83 51.02 56.10C51.02 55.35 51.62 54.96 52.61 54.96ZM58.27 49.81C58.27 49.51 58.01 49.25 57.71 49.25C57.38 49.25 57.12 49.51 57.12 49.81L57.12 57.51C57.12 57.82 57.38 58.08 57.69 58.08C58.01 58.08 58.27 57.82 58.27 57.51Z" fill="#627386" /><line x1="18" y1="76" x2="48" y2="76" stroke="#627386" stroke-opacity="0.4" /><g aria-label="Additions: 34,078,612"><circle cx="22" cy="96" r="4" fill="#00d559" /><path d="M42.28 99.39C42.28 99.31 42.27 99.23 42.23 99.14L39.36 91.94C39.19 91.51 38.76 91.24 38.30 91.25C37.85 91.25 37.43 91.52 37.28 91.94L34.40 99.14C34.38 99.23 34.36 99.31 34.36 99.39C34.36 99.74 34.65 100.08 35.05 100.08C35.33 100.08 35.57 99.92 35.68 99.66L36.25 98.19L40.40 98.19L40.97 99.66C41.07 99.92 41.32 100.08 41.59 100.08C42.01 100.08 42.28 99.71 42.28 99.39ZM38.32 92.64L40.03 97.06L36.61 97.06ZM49.22 91.81C49.22 91.51 48.96 91.25 48.66 91.25C48.33 91.25 48.07 91.51 48.07 91.81L48.07 94.63C47.56 93.95 46.95 93.56 46.00 93.56C44.36 93.56 43.20 94.85 43.20 96.87C43.20 98.92 44.37 100.16 46.00 100.16C46.97 100.16 47.59 99.73 48.07 99.10L48.07 99.51C48.07 99.82 48.33 100.08 48.64 100.08C48.96 100.08 49.22 99.82 49.22 99.51ZM48.07 96.91C48.07 98.21 47.42 99.13 46.30 99.13C45.13 99.13 44.40 98.18 44.40 96.87C44.40 95.55 45.13 94.59 46.30 94.59C47.42 94.59 48.07 95.54 48.07 96.83ZM56.74 91.81C56.74 91.51 56.48 91.25 56.18 91.25C55.84 91.25 55.58 91.51 55.58 91.81L55.58 94.63C55.07 93.95 54.46 93.56 53.51 93.56C51.88 93.56 50.72 94.85 50.72 96.87C50.72 98.92 51.89 100.16 53.51 100.16C54.49 100.16 55.10 99.73 55.58 99.10L55.58 99.51C55.58 99.82 55.84 100.08 56.15 100.08C56.48 100.08 56.74 99.82 56.74 99.51ZM55.58 96.91C55.58 98.21 54.93 99.13 53.81 99.13C52.64 99.13 51.91 98.18 51.91 96.87C51.91 95.55 52.64 94.59 53.81 94.59C54.93 94.59 55.58 95.54 55.58 96.83ZM59.18 91.39C58.78 91.39 58.44 91.73 58.44 92.15C58.44 92.55 58.78 92.89 59.18 92.89C59.60 92.89 59.92 92.55 59.92 92.15C59.92 91.73 59.60 91.39 59.18 91.39ZM59.77 94.20C59.77 93.90 59.51 93.64 59.21 93.64C58.87 93.64 58.61 93.90 58.61 94.20L58.61 99.51C58.61 99.82 58.87 100.08 59.18 100.08C59.51 100.08 59.77 99.82 59.77 99.51ZM64.56 99.55C64.56 99.27 64.36 99.06 64.07 99.06C63.94 99.06 63.78 99.13 63.64 99.13C63.26 99.13 63.03 98.83 63.03 98.35L63.03 94.73L63.89 94.73C64.16 94.73 64.38 94.51 64.38 94.24C64.38 93.94 64.16 93.72 63.89 93.72L63.03 93.72L63.03 92.49C63.03 92.19 62.77 91.93 62.46 91.93C62.12 91.93 61.86 92.19 61.86 92.49L61.86 93.72L61.25 93.72C60.96 93.72 60.74 93.94 60.74 94.22C60.74 94.51 60.96 94.73 61.25 94.73L61.86 94.73L61.86 98.62C61.86 99.61 62.38 100.16 63.37 100.16C64.06 100.16 64.56 99.96 64.56 99.55ZM66.19 91.39C65.79 91.39 65.45 91.73 65.45 92.15C65.45 92.55 65.79 92.89 66.19 92.89C66.60 92.89 66.93 92.55 66.93 92.15C66.93 91.73 66.60 91.39 66.19 91.39ZM66.77 94.20C66.77 93.90 66.51 93.64 66.21 93.64C65.88 93.64 65.62 93.90 65.62 94.20L65.62 99.51C65.62 99.82 65.88 100.08 66.19 100.08C66.51 100.08 66.77 99.82 66.77 99.51ZM74.60 96.85C74.60 95.05 73.39 93.56 71.43 93.56C69.48 93.56 68.27 95.05 68.27 96.85C68.27 98.66 69.48 100.16 71.43 100.16C73.39 100.16 74.60 98.66 74.60 96.85ZM73.39 96.85C73.39 98.06 72.69 99.13 71.43 99.13C70.18 99.13 69.46 98.06 69.46 96.85C69.46 95.66 70.18 94.59 71.43 94.59C72.69 94.59 73.39 95.66 73.39 96.85ZM81.49 95.97C81.49 94.64 80.53 93.56 79.20 93.56C78.11 93.56 77.55 94.10 77.25 94.61L77.25 94.20C77.25 93.90 76.99 93.64 76.69 93.64C76.35 93.64 76.09 93.90 76.09 94.20L76.09 99.51C76.09 99.82 76.35 100.08 76.67 100.08C76.99 100.08 77.25 99.82 77.25 99.51L77.25 96.49C77.25 95.42 77.82 94.59 78.82 94.59C79.76 94.59 80.33 95.32 80.33 96.36L80.33 99.51C80.33 99.82 80.59 100.08 80.90 100.08C81.23 100.08 81.49 99.82 81.49 99.51ZM87.96 98.10C87.85 95.89 84.24 96.50 84.11 95.37C84.06 94.86 84.61 94.49 85.40 94.49C86 94.49 86.56 94.68 86.96 94.97C87.04 95.03 87.13 95.06 87.23 95.06C87.47 95.06 87.69 94.86 87.69 94.61C87.69 94.50 87.65 94.40 87.57 94.32C87.08 93.84 86.29 93.56 85.39 93.56C83.86 93.56 82.93 94.29 83.00 95.41C83.11 97.52 86.70 96.87 86.83 98.26C86.88 98.83 86.36 99.23 85.47 99.23C84.82 99.23 84.17 98.97 83.70 98.64C83.61 98.57 83.52 98.54 83.40 98.54C83.13 98.54 82.89 98.75 82.89 99.03C82.89 99.16 82.94 99.26 83.04 99.34C83.61 99.91 84.56 100.16 85.41 100.16C87.08 100.16 88.03 99.30 87.96 98.10Z" fill="#22272e" /><path d="M159.49 97.63C159.59 96.07 158.54 95.53 158.54 95.53C158.54 95.53 159.50 95.03 159.40 93.55C159.29 92.11 158.15 91.20 156.12 91.20C154.92 91.20 153.99 91.55 153.27 92.12C153.09 92.27 153 92.47 153 92.68C153 93.14 153.40 93.46 153.81 93.46C153.96 93.46 154.12 93.42 154.25 93.33C154.75 93.01 155.33 92.84 155.93 92.84C156.84 92.84 157.54 93.05 157.54 93.73C157.54 94.45 157.11 94.79 156.24 94.79C155.61 94.79 155.34 95.14 155.34 95.59C155.34 96.05 155.61 96.41 156.29 96.41C157.17 96.41 157.68 96.72 157.68 97.41C157.68 98.06 157.09 98.52 156.04 98.52C155.44 98.52 154.75 98.31 154.18 97.97C154.04 97.88 153.88 97.84 153.73 97.84C153.30 97.84 152.88 98.19 152.88 98.66C152.88 98.79 152.92 98.91 152.99 99.01C153.39 99.69 154.86 100.16 156.11 100.16C158.19 100.16 159.38 99.26 159.49 97.63ZM167.57 97.40C167.57 96.94 167.21 96.58 166.78 96.58L166.38 96.58L166.38 92.29C166.38 91.48 165.60 91.12 164.80 91.25C164.25 91.25 163.69 91.55 163.39 92.02L160.49 96.59C160.37 96.78 160.32 96.98 160.32 97.19C160.32 97.78 160.75 98.21 161.27 98.21L164.53 98.21L164.53 99.17C164.53 99.66 164.95 100.08 165.44 100.08C165.96 100.08 166.38 99.66 166.38 99.17L166.38 98.21L166.78 98.21C167.21 98.21 167.57 97.84 167.57 97.40ZM162.19 96.58L164.53 92.97L164.53 96.58ZM170.61 99.36C170.61 98.52 170.06 98.04 169.44 98.04C168.90 98.04 168.43 98.50 168.43 99.08C168.43 99.64 168.82 100.01 169.31 100.01C169.41 100.01 169.52 99.99 169.56 99.97C169.48 100.31 169.20 100.72 168.86 100.99C168.77 101.07 168.73 101.17 168.73 101.27C168.73 101.53 169.00 101.69 169.22 101.69C169.35 101.69 169.47 101.65 169.56 101.56C170.21 100.97 170.61 100.19 170.61 99.36ZM178.49 95.67C178.49 93.44 177.38 91.20 174.91 91.20C172.42 91.20 171.32 93.44 171.32 95.67C171.32 97.91 172.42 100.16 174.91 100.16C177.38 100.16 178.49 97.91 178.49 95.67ZM176.61 95.67C176.61 97.27 176.14 98.52 174.91 98.52C173.66 98.52 173.19 97.27 173.19 95.67C173.19 94.07 173.66 92.84 174.91 92.84C176.14 92.84 176.61 94.07 176.61 95.67ZM185.84 92.27C185.84 91.72 185.40 91.33 184.94 91.33L179.97 91.33C179.53 91.33 179.17 91.69 179.17 92.12C179.17 92.59 179.53 92.95 179.97 92.95L183.62 92.95L181.03 98.82C180.98 98.93 180.95 99.05 180.95 99.17C180.95 99.64 181.33 100.08 181.87 100.08C182.25 100.08 182.60 99.86 182.74 99.52L185.76 92.63C185.81 92.53 185.84 92.39 185.84 92.27ZM193.44 97.62C193.44 96.44 192.74 95.76 192.22 95.53C192.66 95.32 193.30 94.83 193.30 93.49C193.30 91.99 191.69 91.20 189.96 91.20C188.22 91.20 186.62 91.99 186.62 93.49C186.62 94.83 187.24 95.32 187.68 95.53C187.16 95.76 186.48 96.44 186.48 97.62C186.48 99.25 188.14 100.16 189.96 100.16C191.78 100.16 193.44 99.23 193.44 97.62ZM191.42 93.77C191.42 94.42 190.75 94.80 189.96 94.80C189.17 94.80 188.49 94.42 188.49 93.77C188.49 93.15 189.10 92.78 189.96 92.78C190.80 92.78 191.42 93.15 191.42 93.77ZM191.57 97.52C191.57 98.15 190.84 98.57 189.96 98.57C189.05 98.57 188.35 98.15 188.35 97.52C188.35 96.79 189.15 96.36 189.96 96.36C190.75 96.36 191.57 96.79 191.57 97.52ZM196.69 99.36C196.69 98.52 196.13 98.04 195.52 98.04C194.98 98.04 194.51 98.50 194.51 99.08C194.51 99.64 194.90 100.01 195.39 100.01C195.48 100.01 195.60 99.99 195.64 99.97C195.56 100.31 195.28 100.72 194.94 100.99C194.85 101.07 194.81 101.17 194.81 101.27C194.81 101.53 195.08 101.69 195.30 101.69C195.43 101.69 195.55 101.65 195.64 101.56C196.29 100.97 196.69 100.19 196.69 99.36ZM204.45 97.18C204.45 95.33 203.06 94.36 201.50 94.36C200.42 94.36 199.62 94.89 199.28 95.48C199.27 95.41 199.27 95.36 199.27 95.29C199.27 93.92 200.16 92.84 201.44 92.84C201.88 92.84 202.24 92.91 202.57 93.08C202.69 93.15 202.82 93.17 202.95 93.17C203.35 93.17 203.79 92.86 203.79 92.37C203.79 92.24 203.75 92.12 203.70 92.02C203.38 91.45 202.28 91.20 201.44 91.20C198.88 91.20 197.40 93.06 197.40 95.68C197.40 98.13 198.50 100.16 201.14 100.16C203.12 100.16 204.45 98.87 204.45 97.18ZM202.58 97.24C202.58 97.89 202.10 98.52 201.10 98.52C200.28 98.52 199.67 97.96 199.67 97.15C199.67 96.37 200.29 95.81 201.10 95.81C201.93 95.81 202.58 96.37 202.58 97.24ZM209.34 92.32C209.34 91.73 208.85 91.26 208.26 91.26C207.96 91.26 207.68 91.38 207.48 91.58L205.48 93.60C205.33 93.76 205.25 93.95 205.25 94.15C205.25 94.58 205.61 94.92 206.01 94.92C206.20 94.92 206.38 94.85 206.52 94.71L207.50 93.71L207.50 99.17C207.50 99.66 207.91 100.08 208.41 100.08C208.93 100.08 209.34 99.66 209.34 99.17ZM217.42 99.17C217.42 98.74 217.05 98.38 216.62 98.38L213.80 98.38C216.05 96.74 217.27 95.45 217.27 93.97C217.27 92.24 215.80 91.20 213.96 91.20C212.87 91.20 211.41 91.67 210.99 92.33C210.92 92.45 210.88 92.58 210.88 92.71C210.88 93.17 211.25 93.54 211.68 93.54C211.88 93.54 212.05 93.49 212.22 93.37C212.71 93.03 213.31 92.84 214.00 92.84C214.71 92.84 215.40 93.21 215.40 93.97C215.40 94.98 214.36 95.93 211.12 98.32C210.88 98.50 210.73 98.80 210.73 99.10C210.73 99.62 211.15 100 211.60 100L216.62 100C217.05 100 217.42 99.64 217.42 99.17Z" fill="#627386" /></g><g aria-label="Deletions: 17,151,536"><circle cx="22" cy="118" r="4" fill="#00a5fe" /><path d="M42.54 117.67C42.54 115.17 40.76 113.33 38.06 113.33L35.82 113.33C35.35 113.33 34.98 113.71 34.98 114.17L34.98 121.16C34.98 121.62 35.35 122 35.82 122L38.06 122C40.76 122 42.54 120.18 42.54 117.67ZM41.23 117.67C41.23 119.43 40.06 120.86 38.06 120.86L36.26 120.86L36.26 114.47L38.06 114.47C40.11 114.47 41.23 115.89 41.23 117.67ZM49.90 118.65C49.90 118.40 49.83 118.13 49.78 117.92C49.42 116.51 48.38 115.56 46.86 115.56C45.04 115.56 43.72 117.03 43.72 118.85C43.72 120.83 45.09 122.16 46.96 122.16C47.88 122.16 49.50 121.67 49.50 120.97C49.50 120.53 49.05 120.43 48.77 120.57C48.31 120.91 47.61 121.22 47.08 121.22C45.80 121.22 45.02 120.35 44.93 119.27L49.30 119.27C49.63 119.27 49.90 118.96 49.90 118.65ZM44.93 118.41C44.98 117.54 45.60 116.50 46.84 116.50C48.18 116.50 48.76 117.57 48.78 118.41ZM52.54 113.81C52.54 113.51 52.28 113.25 51.98 113.25C51.64 113.25 51.38 113.51 51.38 113.81L51.38 121.51C51.38 121.82 51.64 122.08 51.95 122.08C52.28 122.08 52.54 121.82 52.54 121.51ZM60.21 118.65C60.21 118.40 60.14 118.13 60.09 117.92C59.73 116.51 58.69 115.56 57.17 115.56C55.35 115.56 54.03 117.03 54.03 118.85C54.03 120.83 55.40 122.16 57.27 122.16C58.19 122.16 59.81 121.67 59.81 120.97C59.81 120.53 59.36 120.43 59.08 120.57C58.62 120.91 57.92 121.22 57.39 121.22C56.11 121.22 55.33 120.35 55.24 119.27L59.61 119.27C59.94 119.27 60.21 118.96 60.21 118.65ZM55.24 118.41C55.29 117.54 55.91 116.50 57.15 116.50C58.49 116.50 59.06 117.57 59.09 118.41ZM64.62 121.55C64.62 121.27 64.41 121.06 64.12 121.06C63.99 121.06 63.84 121.13 63.69 121.13C63.32 121.13 63.08 120.83 63.08 120.35L63.08 116.73L63.94 116.73C64.21 116.73 64.43 116.51 64.43 116.24C64.43 115.94 64.21 115.72 63.94 115.72L63.08 115.72L63.08 114.49C63.08 114.19 62.82 113.93 62.51 113.93C62.17 113.93 61.91 114.19 61.91 114.49L61.91 115.72L61.30 115.72C61.01 115.72 60.79 115.94 60.79 116.22C60.79 116.51 61.01 116.73 61.30 116.73L61.91 116.73L61.91 120.62C61.91 121.61 62.43 122.16 63.42 122.16C64.11 122.16 64.62 121.96 64.62 121.55ZM66.24 113.39C65.84 113.39 65.50 113.73 65.50 114.15C65.50 114.55 65.84 114.89 66.24 114.89C66.66 114.89 66.98 114.55 66.98 114.15C66.98 113.73 66.66 113.39 66.24 113.39ZM66.83 116.20C66.83 115.90 66.56 115.64 66.27 115.64C65.93 115.64 65.67 115.90 65.67 116.20L65.67 121.51C65.67 121.82 65.93 122.08 66.24 122.08C66.56 122.08 66.83 121.82 66.83 121.51ZM74.65 118.85C74.65 117.05 73.44 115.56 71.48 115.56C69.53 115.56 68.32 117.05 68.32 118.85C68.32 120.66 69.53 122.16 71.48 122.16C73.44 122.16 74.65 120.66 74.65 118.85ZM73.44 118.85C73.44 120.06 72.74 121.13 71.48 121.13C70.23 121.13 69.52 120.06 69.52 118.85C69.52 117.66 70.23 116.59 71.48 116.59C72.74 116.59 73.44 117.66 73.44 118.85ZM81.54 117.97C81.54 116.64 80.58 115.56 79.25 115.56C78.16 115.56 77.60 116.10 77.30 116.61L77.30 116.20C77.30 115.90 77.04 115.64 76.74 115.64C76.41 115.64 76.15 115.90 76.15 116.20L76.15 121.51C76.15 121.82 76.41 122.08 76.72 122.08C77.04 122.08 77.30 121.82 77.30 121.51L77.30 118.49C77.30 117.42 77.88 116.59 78.88 116.59C79.81 116.59 80.38 117.32 80.38 118.36L80.38 121.51C80.38 121.82 80.64 122.08 80.96 122.08C81.28 122.08 81.54 121.82 81.54 121.51ZM88.01 120.10C87.90 117.89 84.30 118.50 84.17 117.37C84.11 116.86 84.66 116.49 85.45 116.49C86.05 116.49 86.61 116.68 87.01 116.97C87.09 117.03 87.18 117.06 87.29 117.06C87.52 117.06 87.74 116.86 87.74 116.61C87.74 116.50 87.70 116.40 87.62 116.32C87.13 115.84 86.34 115.56 85.44 115.56C83.91 115.56 82.98 116.29 83.05 117.41C83.17 119.52 86.75 118.87 86.88 120.26C86.94 120.83 86.42 121.23 85.52 121.23C84.87 121.23 84.22 120.97 83.75 120.64C83.66 120.57 83.57 120.54 83.45 120.54C83.18 120.54 82.94 120.75 82.94 121.03C82.94 121.16 83.00 121.26 83.09 121.34C83.66 121.91 84.61 122.16 85.47 122.16C87.13 122.16 88.08 121.30 88.01 120.10Z" fill="#22272e" /><path d="M163.88 114.32C163.88 113.73 163.39 113.26 162.80 113.26C162.50 113.26 162.22 113.38 162.02 113.58L160.02 115.60C159.86 115.76 159.79 115.95 159.79 116.15C159.79 116.58 160.15 116.92 160.55 116.92C160.73 116.92 160.92 116.85 161.06 116.71L162.03 115.71L162.03 121.17C162.03 121.66 162.45 122.08 162.94 122.08C163.46 122.08 163.88 121.66 163.88 121.17ZM171.64 114.27C171.64 113.72 171.20 113.33 170.74 113.33L165.78 113.33C165.34 113.33 164.97 113.69 164.97 114.12C164.97 114.59 165.34 114.95 165.78 114.95L169.42 114.95L166.83 120.82C166.78 120.93 166.75 121.05 166.75 121.17C166.75 121.64 167.13 122.08 167.68 122.08C168.05 122.08 168.40 121.86 168.55 121.52L171.56 114.63C171.62 114.53 171.64 114.39 171.64 114.27ZM173.40 121.36C173.40 120.52 172.84 120.04 172.23 120.04C171.68 120.04 171.21 120.50 171.21 121.08C171.21 121.64 171.60 122.01 172.10 122.01C172.19 122.01 172.30 121.99 172.34 121.97C172.27 122.31 171.98 122.72 171.64 122.99C171.55 123.07 171.51 123.17 171.51 123.27C171.51 123.53 171.78 123.69 172.01 123.69C172.14 123.69 172.25 123.65 172.34 123.56C172.99 122.97 173.40 122.19 173.40 121.36ZM177.13 114.32C177.13 113.73 176.63 113.26 176.05 113.26C175.75 113.26 175.46 113.38 175.27 113.58L173.27 115.60C173.11 115.76 173.03 115.95 173.03 116.15C173.03 116.58 173.40 116.92 173.80 116.92C173.98 116.92 174.16 116.85 174.31 116.71L175.28 115.71L175.28 121.17C175.28 121.66 175.70 122.08 176.19 122.08C176.71 122.08 177.13 121.66 177.13 121.17ZM185.43 119.15C185.43 117.40 184.12 116.34 182.65 116.34C181.86 116.34 181.16 116.66 180.74 117.07L180.74 114.95L184.13 114.95C184.56 114.95 184.93 114.59 184.93 114.15C184.93 113.69 184.56 113.33 184.13 113.33L179.94 113.33C179.36 113.33 178.90 113.80 178.90 114.37L178.90 117.70C178.90 118.20 179.26 118.58 179.83 118.58C180.09 118.58 180.34 118.50 180.55 118.36C181.01 118.05 181.47 117.94 182.00 117.94C182.99 117.94 183.56 118.46 183.56 119.23C183.56 119.93 182.98 120.52 181.95 120.52C181.33 120.52 180.73 120.35 180.22 120.04C180.07 119.95 179.90 119.89 179.74 119.89C179.29 119.89 178.86 120.25 178.86 120.73C178.86 120.86 178.90 120.99 178.96 121.10C179.36 121.78 180.83 122.16 181.96 122.16C184.06 122.16 185.43 121.00 185.43 119.15ZM190.37 114.32C190.37 113.73 189.88 113.26 189.30 113.26C189.00 113.26 188.71 113.38 188.52 113.58L186.51 115.60C186.36 115.76 186.28 115.95 186.28 116.15C186.28 116.58 186.64 116.92 187.05 116.92C187.23 116.92 187.41 116.85 187.55 116.71L188.53 115.71L188.53 121.17C188.53 121.66 188.94 122.08 189.44 122.08C189.96 122.08 190.37 121.66 190.37 121.17ZM194.03 121.36C194.03 120.52 193.47 120.04 192.86 120.04C192.31 120.04 191.84 120.50 191.84 121.08C191.84 121.64 192.23 122.01 192.73 122.01C192.82 122.01 192.94 121.99 192.97 121.97C192.90 122.31 192.61 122.72 192.27 122.99C192.18 123.07 192.14 123.17 192.14 123.27C192.14 123.53 192.42 123.69 192.64 123.69C192.77 123.69 192.88 123.65 192.97 123.56C193.62 122.97 194.03 122.19 194.03 121.36ZM202.01 119.15C202.01 117.40 200.70 116.34 199.23 116.34C198.43 116.34 197.73 116.66 197.32 117.07L197.32 114.95L200.71 114.95C201.14 114.95 201.50 114.59 201.50 114.15C201.50 113.69 201.14 113.33 200.71 113.33L196.51 113.33C195.94 113.33 195.47 113.80 195.47 114.37L195.47 117.70C195.47 118.20 195.83 118.58 196.41 118.58C196.67 118.58 196.91 118.50 197.12 118.36C197.59 118.05 198.04 117.94 198.58 117.94C199.57 117.94 200.14 118.46 200.14 119.23C200.14 119.93 199.55 120.52 198.53 120.52C197.90 120.52 197.30 120.35 196.80 120.04C196.64 119.95 196.47 119.89 196.32 119.89C195.86 119.89 195.43 120.25 195.43 120.73C195.43 120.86 195.47 120.99 195.54 121.10C195.94 121.78 197.41 122.16 198.54 122.16C200.63 122.16 202.01 121.00 202.01 119.15ZM209.52 119.63C209.63 118.07 208.57 117.53 208.57 117.53C208.57 117.53 209.54 117.03 209.43 115.55C209.33 114.11 208.18 113.20 206.16 113.20C204.96 113.20 204.02 113.55 203.31 114.12C203.13 114.27 203.04 114.47 203.04 114.68C203.04 115.14 203.44 115.46 203.84 115.46C204.00 115.46 204.15 115.42 204.28 115.33C204.79 115.01 205.36 114.84 205.96 114.84C206.87 114.84 207.57 115.05 207.57 115.73C207.57 116.45 207.14 116.79 206.27 116.79C205.65 116.79 205.38 117.14 205.38 117.59C205.38 118.05 205.65 118.41 206.33 118.41C207.21 118.41 207.72 118.72 207.72 119.41C207.72 120.06 207.13 120.52 206.08 120.52C205.48 120.52 204.79 120.31 204.22 119.97C204.08 119.88 203.92 119.84 203.76 119.84C203.34 119.84 202.92 120.19 202.92 120.66C202.92 120.79 202.96 120.91 203.02 121.01C203.43 121.69 204.90 122.16 206.14 122.16C208.22 122.16 209.42 121.26 209.52 119.63ZM217.60 119.18C217.60 117.33 216.21 116.36 214.65 116.36C213.57 116.36 212.76 116.89 212.42 117.48C212.41 117.41 212.41 117.36 212.41 117.29C212.41 115.92 213.31 114.84 214.58 114.84C215.02 114.84 215.39 114.91 215.71 115.08C215.83 115.15 215.96 115.17 216.09 115.17C216.49 115.17 216.93 114.86 216.93 114.37C216.93 114.24 216.89 114.12 216.84 114.02C216.52 113.45 215.43 113.20 214.58 113.20C212.02 113.20 210.54 115.06 210.54 117.68C210.54 120.13 211.64 122.16 214.28 122.16C216.26 122.16 217.60 120.87 217.60 119.18ZM215.72 119.24C215.72 119.89 215.24 120.52 214.24 120.52C213.42 120.52 212.81 119.96 212.81 119.15C212.81 118.37 213.44 117.81 214.24 117.81C215.07 117.81 215.72 118.37 215.72 119.24Z" fill="#627386" /></g><g aria-label="Changed Files: 523,914"><circle cx="22" cy="140" r="4" fill="#673bd6" /><path d="M39.11 135.19C36.59 135.19 34.60 137.01 34.60 139.67C34.60 142.34 36.59 144.16 39.11 144.16C40.46 144.16 41.40 143.60 42.07 142.87C42.18 142.76 42.23 142.62 42.23 142.47C42.23 142.15 41.97 141.87 41.63 141.87C41.46 141.87 41.28 141.95 41.18 142.08C40.64 142.67 39.88 143.01 39.11 143.01C37.29 143.01 35.94 141.61 35.94 139.67C35.94 137.72 37.29 136.33 39.11 136.33C39.86 136.33 40.67 136.69 41.18 137.28C41.28 137.42 41.46 137.49 41.62 137.49C41.96 137.49 42.23 137.21 42.23 136.89C42.23 136.73 42.18 136.59 42.07 136.47C41.41 135.73 40.46 135.19 39.11 135.19ZM49.17 139.94C49.17 138.62 48.22 137.56 46.90 137.56C45.79 137.56 45.22 138.10 44.92 138.60L44.92 135.81C44.92 135.51 44.66 135.25 44.36 135.25C44.02 135.25 43.76 135.51 43.76 135.81L43.76 143.51C43.76 143.82 44.02 144.08 44.34 144.08C44.66 144.08 44.92 143.82 44.92 143.51L44.92 140.56C44.92 139.38 45.54 138.59 46.53 138.59C47.47 138.59 48.01 139.29 48.01 140.33L48.01 143.51C48.01 143.82 48.27 144.08 48.59 144.08C48.91 144.08 49.17 143.82 49.17 143.51ZM56.09 139.75C56.09 138.15 54.92 137.56 53.56 137.56C52.72 137.56 51.77 137.84 51.17 138.44C51.09 138.53 51.06 138.63 51.06 138.74C51.06 139.01 51.30 139.19 51.54 139.19C51.63 139.19 51.73 139.15 51.82 139.09C52.29 138.72 52.81 138.54 53.40 138.54C54.28 138.54 54.93 139.01 54.93 139.80L54.93 140.15L53.12 140.15C51.82 140.15 50.68 140.66 50.68 142.08C50.68 143.45 51.82 144.16 52.86 144.16C53.84 144.16 54.42 143.86 54.93 143.30L54.93 143.51C54.93 143.88 55.23 144.08 55.46 144.08L55.50 144.08C55.83 144.08 56.09 143.82 56.09 143.51ZM54.93 140.96L54.93 141.84C54.93 142.58 54.09 143.34 53.17 143.34C52.33 143.34 51.85 142.83 51.85 142.10C51.85 141.35 52.45 140.96 53.44 140.96ZM63.34 139.97C63.34 138.64 62.38 137.56 61.05 137.56C59.96 137.56 59.40 138.10 59.10 138.60L59.10 138.20C59.10 137.90 58.84 137.64 58.54 137.64C58.21 137.64 57.95 137.90 57.95 138.20L57.95 143.51C57.95 143.82 58.21 144.08 58.52 144.08C58.84 144.08 59.10 143.82 59.10 143.51L59.10 140.49C59.10 139.42 59.67 138.59 60.68 138.59C61.61 138.59 62.18 139.32 62.18 140.36L62.18 143.51C62.18 143.82 62.44 144.08 62.76 144.08C63.08 144.08 63.34 143.82 63.34 143.51ZM70.84 138.20C70.84 137.90 70.58 137.64 70.28 137.64C69.95 137.64 69.69 137.90 69.69 138.20L69.69 138.63C69.18 137.96 68.45 137.56 67.62 137.56C65.99 137.56 64.84 138.79 64.84 140.81C64.84 142.86 66.01 144.05 67.62 144.05C68.48 144.05 69.22 143.60 69.69 142.96L69.69 143.79C69.69 145.13 68.72 145.60 67.75 145.60C67.06 145.60 66.51 145.46 66.03 145.05C65.94 144.99 65.85 144.96 65.73 144.96C65.47 144.96 65.24 145.18 65.24 145.46C65.24 145.59 65.29 145.70 65.37 145.78C65.98 146.37 66.86 146.55 67.75 146.55C69.28 146.55 70.84 145.91 70.84 143.75ZM69.69 140.83C69.69 142.12 68.84 143.03 67.80 143.03C66.63 143.03 66.03 142.10 66.03 140.81C66.03 139.50 66.63 138.59 67.80 138.59C68.84 138.59 69.69 139.49 69.69 140.78ZM78.51 140.65C78.51 140.40 78.45 140.13 78.40 139.92C78.03 138.51 76.99 137.56 75.47 137.56C73.65 137.56 72.34 139.03 72.34 140.85C72.34 142.83 73.70 144.16 75.57 144.16C76.50 144.16 78.11 143.68 78.11 142.97C78.11 142.53 77.67 142.43 77.38 142.57C76.93 142.91 76.22 143.22 75.69 143.22C74.42 143.22 73.64 142.35 73.55 141.27L77.91 141.27C78.24 141.27 78.51 140.96 78.51 140.65ZM73.55 140.41C73.60 139.54 74.21 138.50 75.46 138.50C76.80 138.50 77.37 139.57 77.39 140.41ZM85.64 135.81C85.64 135.51 85.38 135.25 85.08 135.25C84.74 135.25 84.48 135.51 84.48 135.81L84.48 138.63C83.97 137.96 83.36 137.56 82.41 137.56C80.77 137.56 79.62 138.85 79.62 140.87C79.62 142.92 80.79 144.16 82.41 144.16C83.39 144.16 84.00 143.73 84.48 143.10L84.48 143.51C84.48 143.82 84.74 144.08 85.05 144.08C85.38 144.08 85.64 143.82 85.64 143.51ZM84.48 140.91C84.48 142.21 83.83 143.13 82.71 143.13C81.54 143.13 80.81 142.18 80.81 140.87C80.81 139.55 81.54 138.59 82.71 138.59C83.83 138.59 84.48 139.54 84.48 140.83ZM96.76 135.91C96.76 135.58 96.52 135.33 96.20 135.33L91.73 135.33C91.27 135.33 90.89 135.71 90.89 136.17L90.89 143.44C90.89 143.79 91.17 144.08 91.52 144.08C91.89 144.08 92.17 143.79 92.17 143.44L92.17 140.15L96.11 140.15C96.43 140.15 96.67 139.89 96.67 139.59C96.67 139.25 96.43 139.01 96.11 139.01L92.17 139.01L92.17 136.47L96.20 136.47C96.52 136.47 96.76 136.21 96.76 135.91ZM98.65 135.39C98.25 135.39 97.91 135.73 97.91 136.15C97.91 136.55 98.25 136.89 98.65 136.89C99.06 136.89 99.39 136.55 99.39 136.15C99.39 135.73 99.06 135.39 98.65 135.39ZM99.23 138.20C99.23 137.90 98.97 137.64 98.67 137.64C98.34 137.64 98.08 137.90 98.08 138.20L98.08 143.51C98.08 143.82 98.34 144.08 98.65 144.08C98.97 144.08 99.23 143.82 99.23 143.51ZM102.26 135.81C102.26 135.51 102.00 135.25 101.70 135.25C101.37 135.25 101.11 135.51 101.11 135.81L101.11 143.51C101.11 143.82 101.37 144.08 101.68 144.08C102.00 144.08 102.26 143.82 102.26 143.51ZM109.93 140.65C109.93 140.40 109.87 140.13 109.82 139.92C109.45 138.51 108.41 137.56 106.89 137.56C105.07 137.56 103.76 139.03 103.76 140.85C103.76 142.83 105.12 144.16 106.99 144.16C107.92 144.16 109.53 143.68 109.53 142.97C109.53 142.53 109.09 142.43 108.80 142.57C108.35 142.91 107.64 143.22 107.11 143.22C105.84 143.22 105.06 142.35 104.97 141.27L109.33 141.27C109.66 141.27 109.93 140.96 109.93 140.65ZM104.97 140.41C105.02 139.54 105.63 138.50 106.88 138.50C108.22 138.50 108.79 139.57 108.81 140.41ZM116.02 142.10C115.90 139.89 112.30 140.50 112.17 139.37C112.12 138.87 112.66 138.49 113.46 138.49C114.05 138.49 114.61 138.68 115.02 138.97C115.09 139.03 115.18 139.06 115.29 139.06C115.52 139.06 115.74 138.87 115.74 138.60C115.74 138.50 115.70 138.40 115.63 138.32C115.13 137.84 114.34 137.56 113.44 137.56C111.91 137.56 110.99 138.29 111.05 139.41C111.17 141.52 114.76 140.87 114.89 142.26C114.94 142.83 114.42 143.23 113.52 143.23C112.87 143.23 112.22 142.97 111.75 142.63C111.66 142.57 111.57 142.54 111.45 142.54C111.18 142.54 110.95 142.75 110.95 143.03C110.95 143.16 111.00 143.26 111.09 143.34C111.66 143.91 112.61 144.16 113.47 144.16C115.13 144.16 116.08 143.30 116.02 142.10Z" fill="#22272e" /><path d="M177.78 141.15C177.78 139.40 176.47 138.34 175.00 138.34C174.20 138.34 173.50 138.66 173.09 139.07L173.09 136.95L176.48 136.95C176.91 136.95 177.27 136.59 177.27 136.15C177.27 135.69 176.91 135.33 176.48 135.33L172.28 135.33C171.71 135.33 171.24 135.80 171.24 136.37L171.24 139.70C171.24 140.20 171.60 140.58 172.18 140.58C172.44 140.58 172.68 140.50 172.89 140.36C173.36 140.05 173.81 139.94 174.35 139.94C175.33 139.94 175.91 140.46 175.91 141.23C175.91 141.93 175.32 142.52 174.29 142.52C173.67 142.52 173.07 142.35 172.56 142.04C172.41 141.95 172.24 141.89 172.08 141.89C171.63 141.89 171.20 142.25 171.20 142.73C171.20 142.86 171.24 142.99 171.30 143.10C171.71 143.78 173.18 144.16 174.31 144.16C176.40 144.16 177.78 143.00 177.78 141.15ZM185.45 143.17C185.45 142.74 185.08 142.38 184.66 142.38L181.83 142.38C184.08 140.74 185.31 139.45 185.31 137.97C185.31 136.24 183.84 135.20 181.99 135.20C180.90 135.20 179.44 135.67 179.03 136.33C178.95 136.45 178.91 136.58 178.91 136.71C178.91 137.18 179.29 137.54 179.72 137.54C179.91 137.54 180.08 137.49 180.25 137.37C180.74 137.03 181.34 136.84 182.03 136.84C182.74 136.84 183.43 137.21 183.43 137.97C183.43 138.98 182.39 139.93 179.16 142.32C178.91 142.50 178.77 142.80 178.77 143.10C178.77 143.62 179.18 144 179.64 144L184.66 144C185.08 144 185.45 143.64 185.45 143.17ZM193.09 141.63C193.20 140.07 192.14 139.53 192.14 139.53C192.14 139.53 193.11 139.03 193.00 137.55C192.90 136.11 191.75 135.20 189.73 135.20C188.53 135.20 187.59 135.55 186.88 136.12C186.70 136.26 186.61 136.47 186.61 136.68C186.61 137.14 187.01 137.46 187.41 137.46C187.57 137.46 187.72 137.42 187.85 137.33C188.36 137.01 188.93 136.84 189.53 136.84C190.44 136.84 191.14 137.04 191.14 137.73C191.14 138.45 190.71 138.79 189.84 138.79C189.22 138.79 188.95 139.14 188.95 139.59C188.95 140.05 189.22 140.41 189.89 140.41C190.78 140.41 191.29 140.72 191.29 141.41C191.29 142.06 190.70 142.52 189.65 142.52C189.05 142.52 188.36 142.31 187.79 141.97C187.65 141.88 187.49 141.84 187.33 141.84C186.90 141.84 186.49 142.19 186.49 142.66C186.49 142.79 186.53 142.91 186.59 143.01C187.00 143.69 188.46 144.16 189.71 144.16C191.79 144.16 192.99 143.26 193.09 141.63ZM196.46 143.36C196.46 142.52 195.90 142.04 195.29 142.04C194.74 142.04 194.28 142.50 194.28 143.08C194.28 143.64 194.67 144.01 195.16 144.01C195.25 144.01 195.37 143.99 195.41 143.97C195.33 144.31 195.04 144.72 194.70 144.99C194.61 145.07 194.57 145.17 194.57 145.27C194.57 145.53 194.85 145.69 195.07 145.69C195.20 145.69 195.32 145.65 195.41 145.56C196.06 144.97 196.46 144.19 196.46 143.36ZM197.38 138.16C197.38 140.01 198.77 140.98 200.33 140.98C201.41 140.98 202.22 140.45 202.56 139.87C202.57 139.93 202.57 139.98 202.57 140.05C202.57 141.43 201.67 142.50 200.40 142.50C199.96 142.50 199.59 142.43 199.27 142.26C199.15 142.19 199.02 142.17 198.89 142.17C198.49 142.17 198.05 142.48 198.05 142.97C198.05 143.10 198.08 143.22 198.14 143.32C198.46 143.90 199.55 144.14 200.40 144.14C202.96 144.14 204.44 142.28 204.44 139.66C204.44 137.21 203.34 135.19 200.70 135.19C198.72 135.19 197.38 136.47 197.38 138.16ZM199.25 138.10C199.25 137.45 199.74 136.82 200.74 136.82C201.56 136.82 202.17 137.38 202.17 138.19C202.17 138.97 201.54 139.53 200.74 139.53C199.90 139.53 199.25 138.97 199.25 138.10ZM209.38 136.32C209.38 135.73 208.89 135.26 208.30 135.26C208.00 135.26 207.72 135.38 207.52 135.58L205.52 137.60C205.36 137.76 205.29 137.96 205.29 138.15C205.29 138.58 205.65 138.92 206.05 138.92C206.24 138.92 206.42 138.85 206.56 138.71L207.54 137.71L207.54 143.17C207.54 143.66 207.95 144.08 208.45 144.08C208.97 144.08 209.38 143.66 209.38 143.17ZM217.75 141.40C217.75 140.94 217.39 140.58 216.96 140.58L216.56 140.58L216.56 136.29C216.56 135.49 215.78 135.12 214.98 135.25C214.43 135.25 213.87 135.55 213.57 136.02L210.67 140.59C210.55 140.78 210.50 140.98 210.50 141.19C210.50 141.78 210.93 142.21 211.45 142.21L214.71 142.21L214.71 143.17C214.71 143.66 215.13 144.08 215.62 144.08C216.14 144.08 216.56 143.66 216.56 143.17L216.56 142.21L216.96 142.21C217.39 142.21 217.75 141.84 217.75 141.40ZM212.37 140.58L214.71 136.97L214.71 140.58Z" fill="#627386" /></g><rect x="18" y="166" width="384" height="8" rx="4" fill="#f4faff" /><rect x="18.00" y="166" width="255.44" height="8" rx="4" fill="#00d559" /><rect x="273.44" y="166" width="128.56" height="8" rx="4" fill="#00a5fe" /></svg>