<svg xmlns="http://www.w3.org/2000/svg" width="420" height="184" viewBox="0 0 420 184" role="img"><rect x="0.5" y="0.5" width="419" height="183" rx="10" fill="#ffffff" stroke="#f2f4f6" /><path d="M30.72 33.60C30.72 32.83 30.10 32.21 29.37 32.21L28.69 32.21L28.69 24.95C28.69 23.59 27.37 22.97 26.03 23.19C25.08 23.19 24.14 23.70 23.63 24.49L18.73 32.24C18.53 32.54 18.44 32.90 18.44 33.25C18.44 34.24 19.17 34.96 20.05 34.96L25.57 34.96L25.57 36.59C25.57 37.43 26.27 38.13 27.11 38.13C27.99 38.13 28.69 37.43 28.69 36.59L28.69 34.96L29.37 34.96C30.10 34.96 30.72 34.35 30.72 33.60ZM21.61 32.21L25.57 26.10L25.57 32.21ZM42.82 24.91C42.82 23.99 42.07 23.33 41.30 23.33L32.89 23.33C32.15 23.33 31.53 23.94 31.53 24.67C31.53 25.46 32.15 26.08 32.89 26.08L39.05 26.08L34.68 36.00C34.59 36.20 34.54 36.39 34.54 36.59C34.54 37.38 35.18 38.13 36.11 38.13C36.74 38.13 37.34 37.76 37.58 37.19L42.68 25.53C42.77 25.35 42.82 25.13 42.82 24.91ZM45.79 36.92C45.79 35.49 44.84 34.68 43.81 34.68C42.88 34.68 42.09 35.47 42.09 36.44C42.09 37.38 42.75 38.02 43.59 38.02C43.74 38.02 43.94 37.98 44.00 37.96C43.87 38.53 43.39 39.21 42.82 39.67C42.66 39.80 42.60 39.98 42.60 40.16C42.60 40.60 43.06 40.86 43.43 40.86C43.65 40.86 43.85 40.79 44.00 40.64C45.10 39.65 45.79 38.33 45.79 36.92ZM59.25 33.97C59.25 31.97 58.06 30.83 57.18 30.43C57.93 30.08 59.01 29.24 59.01 26.98C59.01 24.45 56.28 23.11 53.35 23.11C50.41 23.11 47.70 24.45 47.70 26.98C47.70 29.24 48.76 30.08 49.50 30.43C48.62 30.83 47.46 31.97 47.46 33.97C47.46 36.72 50.27 38.26 53.35 38.26C56.43 38.26 59.25 36.70 59.25 33.97ZM55.82 27.46C55.82 28.56 54.70 29.20 53.35 29.20C52.01 29.20 50.87 28.56 50.87 27.46C50.87 26.41 51.90 25.79 53.35 25.79C54.78 25.79 55.82 26.41 55.82 27.46ZM56.08 33.80C56.08 34.88 54.85 35.58 53.35 35.58C51.81 35.58 50.63 34.88 50.63 33.80C50.63 32.57 51.99 31.84 53.35 31.84C54.70 31.84 56.08 32.57 56.08 33.80ZM72.58 33.97C72.58 31.97 71.39 30.83 70.51 30.43C71.26 30.08 72.34 29.24 72.34 26.98C72.34 24.45 69.61 23.11 66.69 23.11C63.74 23.11 61.03 24.45 61.03 26.98C61.03 29.24 62.09 30.08 62.84 30.43C61.96 30.83 60.79 31.97 60.79 33.97C60.79 36.72 63.61 38.26 66.69 38.26C69.77 38.26 72.58 36.70 72.58 33.97ZM69.15 27.46C69.15 28.56 68.03 29.20 66.69 29.20C65.34 29.20 64.20 28.56 64.20 27.46C64.20 26.41 65.23 25.79 66.69 25.79C68.12 25.79 69.15 26.41 69.15 27.46ZM69.41 33.80C69.41 34.88 68.18 35.58 66.69 35.58C65.15 35.58 63.96 34.88 63.96 33.80C63.96 32.57 65.32 31.84 66.69 31.84C68.03 31.84 69.41 32.57 69.41 33.80ZM86.24 30.67C86.24 26.89 84.35 23.11 80.17 23.11C75.97 23.11 74.10 26.89 74.10 30.67C74.10 34.46 75.97 38.26 80.17 38.26C84.35 38.26 86.24 34.46 86.24 30.67ZM83.05 30.67C83.05 33.38 82.26 35.49 80.17 35.49C78.06 35.49 77.27 33.38 77.27 30.67C77.27 27.97 78.06 25.88 80.17 25.88C82.26 25.88 83.05 27.97 83.05 30.67ZM101.18 23.08C96.78 23.08 93.37 26.16 93.37 30.67C93.37 35.18 96.78 38.26 101.18 38.26C103.71 38.26 105.41 37.16 106.51 35.82C106.73 35.58 106.81 35.27 106.81 34.96C106.81 34.22 106.18 33.60 105.38 33.60C104.94 33.60 104.50 33.78 104.20 34.11C103.38 35.01 102.28 35.49 101.18 35.49C98.52 35.49 96.58 33.45 96.58 30.67C96.58 27.90 98.52 25.86 101.18 25.86C102.28 25.86 103.36 26.38 104.20 27.26C104.50 27.59 104.92 27.77 105.34 27.77C106.15 27.77 106.84 27.15 106.84 26.36C106.84 26.08 106.73 25.75 106.53 25.50C105.41 24.16 103.71 23.08 101.18 23.08ZM119.68 32.68C119.68 29.66 117.57 27.11 114.05 27.11C110.55 27.11 108.44 29.66 108.44 32.68C108.44 35.71 110.55 38.26 114.05 38.26C117.57 38.26 119.68 35.71 119.68 32.68ZM116.78 32.68C116.78 34.35 115.79 35.78 114.05 35.78C112.31 35.78 111.35 34.35 111.35 32.68C111.35 31.03 112.31 29.60 114.05 29.60C115.79 29.60 116.78 31.03 116.78 32.68ZM137.75 31.20C137.75 29.02 136.23 27.11 133.83 27.11C131.98 27.11 130.93 28.19 130.53 28.94C130.13 28.17 129.14 27.11 127.36 27.11C125.73 27.11 124.99 27.70 124.55 28.28L124.55 28.25C124.55 27.95 124.15 27.24 123.18 27.24C122.37 27.24 121.75 27.86 121.75 28.61L121.75 36.75C121.75 37.52 122.37 38.13 123.14 38.13C123.93 38.13 124.55 37.52 124.55 36.75L124.55 31.73C124.55 30.70 125.34 29.60 126.53 29.60C127.67 29.60 128.33 30.74 128.33 31.73L128.33 36.75C128.33 37.52 128.95 38.13 129.72 38.13C130.53 38.13 131.15 37.52 131.15 36.75L131.15 31.93C131.15 30.70 131.92 29.60 133.13 29.60C134.27 29.60 134.93 30.74 134.93 31.73L134.93 36.75C134.93 37.52 135.55 38.13 136.32 38.13C137.13 38.13 137.75 37.52 137.75 36.75ZM156.49 31.20C156.49 29.02 154.97 27.11 152.57 27.11C150.73 27.11 149.67 28.19 149.27 28.94C148.88 28.17 147.89 27.11 146.11 27.11C144.48 27.11 143.73 27.70 143.29 28.28L143.29 28.25C143.29 27.95 142.89 27.24 141.93 27.24C141.11 27.24 140.50 27.86 140.50 28.61L140.50 36.75C140.50 37.52 141.11 38.13 141.88 38.13C142.67 38.13 143.29 37.52 143.29 36.75L143.29 31.73C143.29 30.70 144.08 29.60 145.27 29.60C146.41 29.60 147.07 30.74 147.07 31.73L147.07 36.75C147.07 37.52 147.69 38.13 148.46 38.13C149.27 38.13 149.89 37.52 149.89 36.75L149.89 31.93C149.89 30.70 150.66 29.60 151.87 29.60C153.01 29.60 153.67 30.74 153.67 31.73L153.67 36.75C153.67 37.52 154.29 38.13 155.06 38.13C155.87 38.13 156.49 37.52 156.49 36.75ZM160.63 22.91C159.72 22.91 158.95 23.63 158.95 24.56C158.95 25.48 159.72 26.23 160.63 26.23C161.55 26.23 162.30 25.48 162.30 24.56C162.30 23.63 161.55 22.91 160.63 22.91ZM162.03 28.61C162.03 27.86 161.42 27.24 160.67 27.24C159.86 27.24 159.24 27.86 159.24 28.61L159.24 36.75C159.24 37.52 159.86 38.13 160.63 38.13C161.42 38.13 162.03 37.52 162.03 36.75ZM170.61 36.99C170.61 36.31 170.17 35.78 169.38 35.78L169.14 35.78C168.70 35.78 168.17 35.45 168.17 34.61L168.17 29.82L169.27 29.82C169.91 29.82 170.46 29.27 170.46 28.61C170.46 27.92 169.91 27.37 169.27 27.37L168.17 27.37L168.17 25.72C168.17 24.95 167.56 24.34 166.79 24.34C165.97 24.34 165.36 24.95 165.36 25.72L165.36 27.37L164.67 27.37C164.01 27.37 163.46 27.92 163.46 28.56C163.46 29.27 164.01 29.82 164.67 29.82L165.36 29.82L165.36 35.36C165.36 37.25 166.41 38.26 168.37 38.26C170.20 38.26 170.61 37.69 170.61 36.99ZM180.67 34.85C180.67 30.56 174.38 31.88 174.38 30.30C174.38 29.71 175.04 29.24 176.05 29.24C176.91 29.24 177.76 29.49 178.45 29.88C178.60 29.97 178.80 30.01 178.97 30.01C179.55 30.01 180.07 29.55 180.07 28.96C180.07 28.76 180.01 28.56 179.90 28.41C179.30 27.55 177.41 27.11 176.03 27.11C173.23 27.11 171.67 28.67 171.67 30.45C171.67 34.63 177.98 33.20 177.98 34.96C177.98 35.62 177.41 36.11 176.20 36.11C175.28 36.11 174.18 35.73 173.34 35.25C173.17 35.14 172.97 35.10 172.77 35.10C172.18 35.10 171.60 35.60 171.60 36.26C171.60 36.48 171.67 36.68 171.80 36.86C172.46 37.80 174.68 38.26 176.07 38.26C179.02 38.26 180.67 36.79 180.67 34.85Z" fill="#22272e" /><path d="M20.26 49.88C20.26 49.54 19.98 49.25 19.64 49.25C19.26 49.25 18.98 49.54 18.98 49.88L18.98 57.44C18.98 57.79 19.26 58.08 19.61 58.08C19.98 58.08 20.26 57.79 20.26 57.44ZM27.55 53.97C27.55 52.64 26.59 51.56 25.27 51.56C24.18 51.56 23.62 52.10 23.32 52.60L23.32 52.20C23.32 51.90 23.06 51.64 22.76 51.64C22.42 51.64 22.16 51.90 22.16 52.20L22.16 57.51C22.16 57.82 22.42 58.08 22.73 58.08C23.06 58.08 23.32 57.82 23.32 57.51L23.32 54.49C23.32 53.42 23.89 52.59 24.89 52.59C25.83 52.59 26.40 53.32 26.40 54.36L26.40 57.51C26.40 57.82 26.66 58.08 26.97 58.08C27.30 58.08 27.55 57.82 27.55 57.51ZM38.97 49.91C38.97 49.58 38.72 49.33 38.41 49.33L32.70 49.33C32.39 49.33 32.14 49.58 32.14 49.89C32.14 50.21 32.39 50.47 32.70 50.47L34.91 50.47L34.91 57.44C34.91 57.79 35.20 58.08 35.55 58.08C35.91 58.08 36.20 57.79 36.20 57.44L36.20 50.47L38.41 50.47C38.72 50.47 38.97 50.21 38.97 49.91ZM44.74 54.85C44.74 53.05 43.53 51.56 41.57 51.56C39.62 51.56 38.41 53.05 38.41 54.85C38.41 56.66 39.62 58.16 41.57 58.16C43.53 58.16 44.74 56.66 44.74 54.85ZM43.53 54.85C43.53 56.06 42.83 57.13 41.57 57.13C40.32 57.13 39.61 56.06 39.61 54.85C39.61 53.66 40.32 52.59 41.57 52.59C42.83 52.59 43.53 53.66 43.53 54.85ZM49.16 57.55C49.16 57.27 48.95 57.06 48.67 57.06C48.54 57.06 48.38 57.13 48.24 57.13C47.86 57.13 47.63 56.83 47.63 56.35L47.63 52.73L48.48 52.73C48.76 52.73 48.98 52.51 48.98 52.24C48.98 51.94 48.76 51.72 48.48 51.72L47.63 51.72L47.63 50.49C47.63 50.19 47.37 49.93 47.05 49.93C46.72 49.93 46.46 50.19 46.46 50.49L46.46 51.72L45.85 51.72C45.56 51.72 45.34 51.94 45.34 52.22C45.34 52.51 45.56 52.73 45.85 52.73L46.46 52.73L46.46 56.62C46.46 57.61 46.98 58.16 47.96 58.16C48.65 58.16 49.16 57.96 49.16 57.55ZM55.26 53.75C55.26 52.15 54.09 51.56 52.74 51.56C51.89 51.56 50.94 51.84 50.34 52.44C50.27 52.53 50.23 52.63 50.23 52.73C50.23 53.01 50.47 53.19 50.71 53.19C50.80 53.19 50.90 53.15 50.99 53.09C51.46 52.72 51.98 52.54 52.57 52.54C53.45 52.54 54.10 53.01 54.10 53.80L54.10 54.15L52.29 54.15C50.99 54.15 49.85 54.66 49.85 56.08C49.85 57.45 50.99 58.16 52.03 58.16C53.01 58.16 53.59 57.86 54.10 57.30L54.10 57.51C54.10 57.88 54.40 58.08 54.63 58.08L54.67 58.08C55.00 58.08 55.26 57.82 55.26 57.51ZM54.10 54.96L54.10 55.84C54.10 56.58 53.26 57.34 52.35 57.34C51.50 57.34 51.02 56.83 51.02 56.10C51.02 55.35 51.62 54.96 52.61 54.96ZM58.27 49.81C58.27 49.51 58.01 49.25 57.71 49.25C57.38 49.25 57.12 49.51 57.12 49.81L57.12 57.51C57.12 57.82 57.38 58.08 57.69 58.08C58.01 58.08 58.27 57.82 58.27 57.51Z" fill="#627386" /><line x1="18" y1="76" x2="48" y2="76" stroke="#627386" stroke-opacity="0.4" /><g aria-label="Additions: 32,617,900"><circle cx="22" cy="96" r="4" fill="#00d559" /><path d="M42.28 99.39C42.28 99.31 42.27 99.23 42.23 99.14L39.36 91.94C39.19 91.51 38.76 91.24 38.30 91.25C37.85 91.25 37.43 91.52 37.28 91.94L34.40 99.14C34.38 99.23 34.36 99.31 34.36 99.39C34.36 99.74 34.65 100.08 35.05 100.08C35.33 100.08 35.57 99.92 35.68 99.66L36.25 98.19L40.40 98.19L40.97 99.66C41.07 99.92 41.32 100.08 41.59 100.08C42.01 100.08 42.28 99.71 42.28 99.39ZM38.32 92.64L40.03 97.06L36.61 97.06ZM49.22 91.81C49.22 91.51 48.96 91.25 48.66 91.25C48.33 91.25 48.07 91.51 48.07 91.81L48.07 94.63C47.56 93.95 46.95 93.56 46.00 93.56C44.36 93.56 43.20 94.85 43.20 96.87C43.20 98.92 44.37 100.16 46.00 100.16C46.97 100.16 47.59 99.73 48.07 99.10L48.07 99.51C48.07 99.82 48.33 100.08 48.64 100.08C48.96 100.08 49.22 99.82 49.22 99.51ZM48.07 96.91C48.07 98.21 47.42 99.13 46.30 99.13C45.13 99.13 44.40 98.18 44.40 96.87C44.40 95.55 45.13 94.59 46.30 94.59C47.42 94.59 48.07 95.54 48.07 96.83ZM56.74 91.81C56.74 91.51 56.48 91.25 56.18 91.25C55.84 91.25 55.58 91.51 55.58 91.81L55.58 94.63C55.07 93.95 54.46 93.56 53.51 93.56C51.88 93.56 50.72 94.85 50.72 96.87C50.72 98.92 51.89 100.16 53.51 100.16C54.49 100.16 55.10 99.73 55.58 99.10L55.58 99.51C55.58 99.82 55.84 100.08 56.15 100.08C56.48 100.08 56.74 99.82 56.74 99.51ZM55.58 96.91C55.58 98.21 54.93 99.13 53.81 99.13C52.64 99.13 51.91 98.18 51.91 96.87C51.91 95.55 52.64 94.59 53.81 94.59C54.93 94.59 55.58 95.54 55.58 96.83ZM59.18 91.39C58.78 91.39 58.44 91.73 58.44 92.15C58.44 92.55 58.78 92.89 59.18 92.89C59.60 92.89 59.92 92.55 59.92 92.15C59.92 91.73 59.60 91.39 59.18 91.39ZM59.77 94.20C59.77 93.90 59.51 93.64 59.21 93.64C58.87 93.64 58.61 93.90 58.61 94.20L58.61 99.51C58.61 99.82 58.87 100.08 59.18 100.08C59.51 100.08 59.77 99.82 59.77 99.51ZM64.56 99.55C64.56 99.27 64.36 99.06 64.07 99.06C63.94 99.06 63.78 99.13 63.64 99.13C63.26 99.13 63.03 98.83 63.03 98.35L63.03 94.73L63.89 94.73C64.16 94.73 64.38 94.51 64.38 94.24C64.38 93.94 64.16 93.72 63.89 93.72L63.03 93.72L63.03 92.49C63.03 92.19 62.77 91.93 62.46 91.93C62.12 91.93 61.86 92.19 61.86 92.49L61.86 93.72L61.25 93.72C60.96 93.72 60.74 93.94 60.74 94.22C60.74 94.51 60.96 94.73 61.25 94.73L61.86 94.73L61.86 98.62C61.86 99.61 62.38 100.16 63.37 100.16C64.06 100.16 64.56 99.96 64.56 99.55ZM66.19 91.39C65.79 91.39 65.45 91.73 65.45 92.15C65.45 92.55 65.79 92.89 66.19 92.89C66.60 92.89 66.93 92.55 66.93 92.15C66.93 91.73 66.60 91.39 66.19 91.39ZM66.77 94.20C66.77 93.90 66.51 93.64 66.21 93.64C65.88 93.64 65.62 93.90 65.62 94.20L65.62 99.51C65.62 99.82 65.88 100.08 66.19 100.08C66.51 100.08 66.77 99.82 66.77 99.51ZM74.60 96.85C74.60 95.05 73.39 93.56 71.43 93.56C69.48 93.56 68.27 95.05 68.27 96.85C68.27 98.66 69.48 100.16 71.43 100.16C73.39 100.16 74.60 98.66 74.60 96.85ZM73.39 96.85C73.39 98.06 72.69 99.13 71.43 99.13C70.18 99.13 69.46 98.06 69.46 96.85C69.46 95.66 70.18 94.59 71.43 94.59C72.69 94.59 73.39 95.66 73.39 96.85ZM81.49 95.97C81.49 94.64 80.53 93.56 79.20 93.56C78.11 93.56 77.55 94.10 77.25 94.61L77.25 94.20C77.25 93.90 76.99 93.64 76.69 93.64C76.35 93.64 76.09 93.90 76.09 94.20L76.09 99.51C76.09 99.82 76.35 100.08 76.67 100.08C76.99 100.08 77.25 99.82 77.25 99.51L77.25 96.49C77.25 95.42 77.82 94.59 78.82 94.59C79.76 94.59 80.33 95.32 80.33 96.36L80.33 99.51C80.33 99.82 80.59 100.08 80.90 100.08C81.23 100.08 81.49 99.82 81.49 99.51ZM87.96 98.10C87.85 95.89 84.24 96.50 84.11 95.37C84.06 94.86 84.61 94.49 85.40 94.49C86 94.49 86.56 94.68 86.96 94.97C87.04 95.03 87.13 95.06 87.23 95.06C87.47 95.06 87.69 94.86 87.69 94.61C87.69 94.50 87.65 94.40 87.57 94.32C87.08 93.84 86.29 93.56 85.39 93.56C83.86 93.56 82.93 94.29 83.00 95.41C83.11 97.52 86.70 96.87 86.83 98.26C86.88 98.83 86.36 99.23 85.47 99.23C84.82 99.23 84.17 98.97 83.70 98.64C83.61 98.57 83.52 98.54 83.40 98.54C83.13 98.54 82.89 98.75 82.89 99.03C82.89 99.16 82.94 99.26 83.04 99.34C83.61 99.91 84.56 100.16 85.41 100.16C87.08 100.16 88.03 99.30 87.96 98.10Z" fill="#22272e" /><path d="M160.11 97.63C160.22 96.07 159.16 95.53 159.16 95.53C159.16 95.53 160.12 95.03 160.02 93.55C159.92 92.11 158.77 91.20 156.74 91.20C155.55 91.20 154.61 91.55 153.90 92.12C153.72 92.27 153.62 92.47 153.62 92.68C153.62 93.14 154.03 93.46 154.43 93.46C154.59 93.46 154.74 93.42 154.87 93.33C155.38 93.01 155.95 92.84 156.55 92.84C157.46 92.84 158.16 93.05 158.16 93.73C158.16 94.45 157.73 94.79 156.86 94.79C156.24 94.79 155.96 95.14 155.96 95.59C155.96 96.05 156.24 96.41 156.91 96.41C157.80 96.41 158.30 96.72 158.30 97.41C158.30 98.06 157.72 98.52 156.67 98.52C156.07 98.52 155.38 98.31 154.81 97.97C154.66 97.88 154.51 97.84 154.35 97.84C153.92 97.84 153.51 98.19 153.51 98.66C153.51 98.79 153.55 98.91 153.61 99.01C154.01 99.69 155.48 100.16 156.73 100.16C158.81 100.16 160.01 99.26 160.11 97.63ZM167.90 99.17C167.90 98.74 167.53 98.38 167.10 98.38L164.28 98.38C166.53 96.74 167.75 95.45 167.75 93.97C167.75 92.24 166.29 91.20 164.44 91.20C163.35 91.20 161.89 91.67 161.48 92.33C161.40 92.45 161.36 92.58 161.36 92.71C161.36 93.17 161.74 93.54 162.16 93.54C162.36 93.54 162.53 93.49 162.70 93.37C163.19 93.03 163.79 92.84 164.48 92.84C165.19 92.84 165.88 93.21 165.88 93.97C165.88 94.98 164.84 95.93 161.61 98.32C161.36 98.50 161.22 98.80 161.22 99.10C161.22 99.62 161.63 100 162.09 100L167.10 100C167.53 100 167.90 99.64 167.90 99.17ZM171.28 99.36C171.28 98.52 170.72 98.04 170.11 98.04C169.56 98.04 169.09 98.50 169.09 99.08C169.09 99.64 169.48 100.01 169.98 100.01C170.07 100.01 170.19 99.99 170.22 99.97C170.15 100.31 169.86 100.72 169.52 100.99C169.43 101.07 169.39 101.17 169.39 101.27C169.39 101.53 169.67 101.69 169.89 101.69C170.02 101.69 170.13 101.65 170.22 101.56C170.88 100.97 171.28 100.19 171.28 99.36ZM179.04 97.18C179.04 95.33 177.65 94.36 176.09 94.36C175.01 94.36 174.20 94.89 173.87 95.48C173.85 95.41 173.85 95.36 173.85 95.29C173.85 93.92 174.75 92.84 176.02 92.84C176.47 92.84 176.83 92.91 177.15 93.08C177.27 93.15 177.40 93.17 177.53 93.17C177.93 93.17 178.38 92.86 178.38 92.37C178.38 92.24 178.34 92.12 178.29 92.02C177.96 91.45 176.87 91.20 176.02 91.20C173.46 91.20 171.98 93.06 171.98 95.68C171.98 98.13 173.09 100.16 175.72 100.16C177.70 100.16 179.04 98.87 179.04 97.18ZM177.17 97.24C177.17 97.89 176.69 98.52 175.69 98.52C174.87 98.52 174.26 97.96 174.26 97.15C174.26 96.37 174.88 95.81 175.69 95.81C176.52 95.81 177.17 96.37 177.17 97.24ZM183.93 92.32C183.93 91.73 183.43 91.26 182.85 91.26C182.55 91.26 182.26 91.38 182.07 91.58L180.07 93.60C179.91 93.76 179.83 93.95 179.83 94.15C179.83 94.58 180.20 94.92 180.60 94.92C180.78 94.92 180.96 94.85 181.11 94.71L182.08 93.71L182.08 99.17C182.08 99.66 182.50 100.08 182.99 100.08C183.51 100.08 183.93 99.66 183.93 99.17ZM191.69 92.27C191.69 91.72 191.25 91.33 190.79 91.33L185.82 91.33C185.38 91.33 185.02 91.69 185.02 92.12C185.02 92.59 185.38 92.95 185.82 92.95L189.47 92.95L186.88 98.82C186.83 98.93 186.80 99.05 186.80 99.17C186.80 99.64 187.18 100.08 187.72 100.08C188.10 100.08 188.45 99.86 188.59 99.52L191.61 92.63C191.66 92.53 191.69 92.39 191.69 92.27ZM193.44 99.36C193.44 98.52 192.88 98.04 192.27 98.04C191.73 98.04 191.26 98.50 191.26 99.08C191.26 99.64 191.65 100.01 192.14 100.01C192.23 100.01 192.35 99.99 192.39 99.97C192.31 100.31 192.03 100.72 191.69 100.99C191.60 101.07 191.56 101.17 191.56 101.27C191.56 101.53 191.83 101.69 192.05 101.69C192.18 101.69 192.30 101.65 192.39 101.56C193.04 100.97 193.44 100.19 193.44 99.36ZM194.37 94.16C194.37 96.01 195.76 96.98 197.32 96.98C198.40 96.98 199.20 96.45 199.54 95.87C199.55 95.93 199.55 95.98 199.55 96.05C199.55 97.43 198.66 98.50 197.38 98.50C196.94 98.50 196.58 98.43 196.25 98.26C196.13 98.19 196.00 98.17 195.87 98.17C195.47 98.17 195.03 98.48 195.03 98.97C195.03 99.10 195.07 99.22 195.12 99.32C195.44 99.90 196.54 100.14 197.38 100.14C199.94 100.14 201.43 98.28 201.43 95.66C201.43 93.21 200.32 91.19 197.68 91.19C195.71 91.19 194.37 92.47 194.37 94.16ZM196.24 94.10C196.24 93.45 196.72 92.82 197.72 92.82C198.54 92.82 199.15 93.38 199.15 94.19C199.15 94.97 198.53 95.53 197.72 95.53C196.89 95.53 196.24 94.97 196.24 94.10ZM209.50 95.67C209.50 93.44 208.38 91.20 205.91 91.20C203.43 91.20 202.32 93.44 202.32 95.67C202.32 97.91 203.43 100.16 205.91 100.16C208.38 100.16 209.50 97.91 209.50 95.67ZM207.61 95.67C207.61 97.27 207.14 98.52 205.91 98.52C204.66 98.52 204.19 97.27 204.19 95.67C204.19 94.07 204.66 92.84 205.91 92.84C207.14 92.84 207.61 94.07 207.61 95.67ZM217.56 95.67C217.56 93.44 216.44 91.20 213.97 91.20C211.49 91.20 210.38 93.44 210.38 95.67C210.38 97.91 211.49 100.16 213.97 100.16C216.44 100.16 217.56 97.91 217.56 95.67ZM215.67 95.67C215.67 97.27 215.20 98.52 213.97 98.52C212.72 98.52 212.25 97.27 212.25 95.67C212.25 94.07 212.72 92.84 213.97 92.84C215.20 92.84 215.67 94.07 215.67 95.67Z" fill="#627386" /></g><g aria-label="Deletions: 15,469,103"><circle cx="22" cy="118" r="4" fill="#00a5fe" /><path d="M42.54 117.67C42.54 115.17 40.76 113.33 38.06 113.33L35.82 113.33C35.35 113.33 34.98 113.71 34.98 114.17L34.98 121.16C34.98 121.62 35.35 122 35.82 122L38.06 122C40.76 122 42.54 120.18 42.54 117.67ZM41.23 117.67C41.23 119.43 40.06 120.86 38.06 120.86L36.26 120.86L36.26 114.47L38.06 114.47C40.11 114.47 41.23 115.89 41.23 117.67ZM49.90 118.65C49.90 118.40 49.83 118.13 49.78 117.92C49.42 116.51 48.38 115.56 46.86 115.56C45.04 115.56 43.72 117.03 43.72 118.85C43.72 120.83 45.09 122.16 46.96 122.16C47.88 122.16 49.50 121.67 49.50 120.97C49.50 120.53 49.05 120.43 48.77 120.57C48.31 120.91 47.61 121.22 47.08 121.22C45.80 121.22 45.02 120.35 44.93 119.27L49.30 119.27C49.63 119.27 49.90 118.96 49.90 118.65ZM44.93 118.41C44.98 117.54 45.60 116.50 46.84 116.50C48.18 116.50 48.76 117.57 48.78 118.41ZM52.54 113.81C52.54 113.51 52.28 113.25 51.98 113.25C51.64 113.25 51.38 113.51 51.38 113.81L51.38 121.51C51.38 121.82 51.64 122.08 51.95 122.08C52.28 122.08 52.54 121.82 52.54 121.51ZM60.21 118.65C60.21 118.40 60.14 118.13 60.09 117.92C59.73 116.51 58.69 115.56 57.17 115.56C55.35 115.56 54.03 117.03 54.03 118.85C54.03 120.83 55.40 122.16 57.27 122.16C58.19 122.16 59.81 121.67 59.81 120.97C59.81 120.53 59.36 120.43 59.08 120.57C58.62 120.91 57.92 121.22 57.39 121.22C56.11 121.22 55.33 120.35 55.24 119.27L59.61 119.27C59.94 119.27 60.21 118.96 60.21 118.65ZM55.24 118.41C55.29 117.54 55.91 116.50 57.15 116.50C58.49 116.50 59.06 117.57 59.09 118.41ZM64.62 121.55C64.62 121.27 64.41 121.06 64.12 121.06C63.99 121.06 63.84 121.13 63.69 121.13C63.32 121.13 63.08 120.83 63.08 120.35L63.08 116.73L63.94 116.73C64.21 116.73 64.43 116.51 64.43 116.24C64.43 115.94 64.21 115.72 63.94 115.72L63.08 115.72L63.08 114.49C63.08 114.19 62.82 113.93 62.51 113.93C62.17 113.93 61.91 114.19 61.91 114.49L61.91 115.72L61.30 115.72C61.01 115.72 60.79 115.94 60.79 116.22C60.79 116.51 61.01 116.73 61.30 116.73L61.91 116.73L61.91 120.62C61.91 121.61 62.43 122.16 63.42 122.16C64.11 122.16 64.62 121.96 64.62 121.55ZM66.24 113.39C65.84 113.39 65.50 113.73 65.50 114.15C65.50 114.55 65.84 114.89 66.24 114.89C66.66 114.89 66.98 114.55 66.98 114.15C66.98 113.73 66.66 113.39 66.24 113.39ZM66.83 116.20C66.83 115.90 66.56 115.64 66.27 115.64C65.93 115.64 65.67 115.90 65.67 116.20L65.67 121.51C65.67 121.82 65.93 122.08 66.24 122.08C66.56 122.08 66.83 121.82 66.83 121.51ZM74.65 118.85C74.65 117.05 73.44 115.56 71.48 115.56C69.53 115.56 68.32 117.05 68.32 118.85C68.32 120.66 69.53 122.16 71.48 122.16C73.44 122.16 74.65 120.66 74.65 118.85ZM73.44 118.85C73.44 120.06 72.74 121.13 71.48 121.13C70.23 121.13 69.52 120.06 69.52 118.85C69.52 117.66 70.23 116.59 71.48 116.59C72.74 116.59 73.44 117.66 73.44 118.85ZM81.54 117.97C81.54 116.64 80.58 115.56 79.25 115.56C78.16 115.56 77.60 116.10 77.30 116.61L77.30 116.20C77.30 115.90 77.04 115.64 76.74 115.64C76.41 115.64 76.15 115.90 76.15 116.20L76.15 121.51C76.15 121.82 76.41 122.08 76.72 122.08C77.04 122.08 77.30 121.82 77.30 121.51L77.30 118.49C77.30 117.42 77.88 116.59 78.88 116.59C79.81 116.59 80.38 117.32 80.38 118.36L80.38 121.51C80.38 121.82 80.64 122.08 80.96 122.08C81.28 122.08 81.54 121.82 81.54 121.51ZM88.01 120.10C87.90 117.89 84.30 118.50 84.17 117.37C84.11 116.86 84.66 116.49 85.45 116.49C86.05 116.49 86.61 116.68 87.01 116.97C87.09 117.03 87.18 117.06 87.29 117.06C87.52 117.06 87.74 116.86 87.74 116.61C87.74 116.50 87.70 116.40 87.62 116.32C87.13 115.84 86.34 115.56 85.44 115.56C83.91 115.56 82.98 116.29 83.05 117.41C83.17 119.52 86.75 118.87 86.88 120.26C86.94 120.83 86.42 121.23 85.52 121.23C84.87 121.23 84.22 120.97 83.75 120.64C83.66 120.57 83.57 120.54 83.45 120.54C83.18 120.54 82.94 120.75 82.94 121.03C82.94 121.16 83.00 121.26 83.09 121.34C83.66 121.91 84.61 122.16 85.47 122.16C87.13 122.16 88.08 121.30 88.01 120.10Z" fill="#22272e" /><path d="M159.54 114.32C159.54 113.73 159.04 113.26 158.46 113.26C158.16 113.26 157.87 113.38 157.68 113.58L155.68 115.60C155.52 115.76 155.44 115.95 155.44 116.15C155.44 116.58 155.81 116.92 156.21 116.92C156.39 116.92 156.57 116.85 156.72 116.71L157.69 115.71L157.69 121.17C157.69 121.66 158.11 122.08 158.60 122.08C159.12 122.08 159.54 121.66 159.54 121.17ZM167.85 119.15C167.85 117.40 166.53 116.34 165.06 116.34C164.27 116.34 163.57 116.66 163.15 117.07L163.15 114.95L166.55 114.95C166.97 114.95 167.34 114.59 167.34 114.15C167.34 113.69 166.97 113.33 166.55 113.33L162.35 113.33C161.77 113.33 161.31 113.80 161.31 114.37L161.31 117.70C161.31 118.20 161.67 118.58 162.24 118.58C162.50 118.58 162.75 118.50 162.96 118.36C163.43 118.05 163.88 117.94 164.41 117.94C165.40 117.94 165.97 118.46 165.97 119.23C165.97 119.93 165.39 120.52 164.36 120.52C163.74 120.52 163.14 120.35 162.63 120.04C162.48 119.95 162.31 119.89 162.15 119.89C161.70 119.89 161.27 120.25 161.27 120.73C161.27 120.86 161.31 120.99 161.37 121.10C161.77 121.78 163.24 122.16 164.37 122.16C166.47 122.16 167.85 121.00 167.85 119.15ZM171.10 121.36C171.10 120.52 170.54 120.04 169.93 120.04C169.38 120.04 168.91 120.50 168.91 121.08C168.91 121.64 169.30 122.01 169.80 122.01C169.89 122.01 170.00 121.99 170.04 121.97C169.96 122.31 169.68 122.72 169.34 122.99C169.25 123.07 169.21 123.17 169.21 123.27C169.21 123.53 169.48 123.69 169.70 123.69C169.83 123.69 169.95 123.65 170.04 123.56C170.69 122.97 171.10 122.19 171.10 121.36ZM179.14 119.40C179.14 118.94 178.78 118.58 178.35 118.58L177.95 118.58L177.95 114.29C177.95 113.48 177.17 113.12 176.37 113.25C175.81 113.25 175.26 113.55 174.96 114.02L172.06 118.59C171.94 118.78 171.89 118.98 171.89 119.19C171.89 119.78 172.32 120.21 172.84 120.21L176.10 120.21L176.10 121.17C176.10 121.66 176.52 122.08 177.01 122.08C177.53 122.08 177.95 121.66 177.95 121.17L177.95 120.21L178.35 120.21C178.78 120.21 179.14 119.84 179.14 119.40ZM173.76 118.58L176.10 114.97L176.10 118.58ZM186.89 119.18C186.89 117.33 185.50 116.36 183.94 116.36C182.86 116.36 182.05 116.89 181.72 117.48C181.70 117.41 181.70 117.36 181.70 117.29C181.70 115.92 182.60 114.84 183.87 114.84C184.32 114.84 184.68 114.91 185.01 115.08C185.12 115.15 185.25 115.17 185.38 115.17C185.79 115.17 186.23 114.86 186.23 114.37C186.23 114.24 186.19 114.12 186.14 114.02C185.81 113.45 184.72 113.20 183.87 113.20C181.31 113.20 179.83 115.06 179.83 117.68C179.83 120.13 180.94 122.16 183.58 122.16C185.55 122.16 186.89 120.87 186.89 119.18ZM185.02 119.24C185.02 119.89 184.54 120.52 183.54 120.52C182.72 120.52 182.11 119.96 182.11 119.15C182.11 118.37 182.73 117.81 183.54 117.81C184.37 117.81 185.02 118.37 185.02 119.24ZM187.68 116.16C187.68 118.01 189.07 118.98 190.63 118.98C191.71 118.98 192.52 118.45 192.86 117.87C192.87 117.93 192.87 117.98 192.87 118.05C192.87 119.43 191.97 120.50 190.70 120.50C190.26 120.50 189.89 120.43 189.57 120.26C189.45 120.19 189.32 120.17 189.19 120.17C188.79 120.17 188.35 120.48 188.35 120.97C188.35 121.10 188.39 121.22 188.44 121.32C188.76 121.90 189.85 122.14 190.70 122.14C193.26 122.14 194.74 120.28 194.74 117.66C194.74 115.21 193.64 113.19 191.00 113.19C189.02 113.19 187.68 114.47 187.68 116.16ZM189.56 116.10C189.56 115.45 190.04 114.82 191.04 114.82C191.86 114.82 192.47 115.38 192.47 116.19C192.47 116.97 191.84 117.53 191.04 117.53C190.21 117.53 189.56 116.97 189.56 116.10ZM197.72 121.36C197.72 120.52 197.16 120.04 196.55 120.04C196.00 120.04 195.54 120.50 195.54 121.08C195.54 121.64 195.93 122.01 196.42 122.01C196.51 122.01 196.63 121.99 196.67 121.97C196.59 122.31 196.30 122.72 195.96 122.99C195.87 123.07 195.83 123.17 195.83 123.27C195.83 123.53 196.11 123.69 196.33 123.69C196.46 123.69 196.58 123.65 196.67 123.56C197.32 122.97 197.72 122.19 197.72 121.36ZM201.45 114.32C201.45 113.73 200.96 113.26 200.37 113.26C200.07 113.26 199.79 113.38 199.59 113.58L197.59 115.60C197.43 115.76 197.36 115.95 197.36 116.15C197.36 116.58 197.72 116.92 198.12 116.92C198.30 116.92 198.49 116.85 198.63 116.71L199.60 115.71L199.60 121.17C199.60 121.66 200.02 122.08 200.51 122.08C201.03 122.08 201.45 121.66 201.45 121.17ZM209.93 117.67C209.93 115.44 208.81 113.20 206.34 113.20C203.86 113.20 202.75 115.44 202.75 117.67C202.75 119.91 203.86 122.16 206.34 122.16C208.81 122.16 209.93 119.91 209.93 117.67ZM208.04 117.67C208.04 119.27 207.57 120.52 206.34 120.52C205.09 120.52 204.62 119.27 204.62 117.67C204.62 116.07 205.09 114.84 206.34 114.84C207.57 114.84 208.04 116.07 208.04 117.67ZM217.43 119.63C217.53 118.07 216.48 117.53 216.48 117.53C216.48 117.53 217.44 117.03 217.34 115.55C217.23 114.11 216.09 113.20 214.06 113.20C212.86 113.20 211.93 113.55 211.21 114.12C211.03 114.27 210.94 114.47 210.94 114.68C210.94 115.14 211.34 115.46 211.75 115.46C211.90 115.46 212.06 115.42 212.19 115.33C212.70 115.01 213.27 114.84 213.87 114.84C214.78 114.84 215.48 115.05 215.48 115.73C215.48 116.45 215.05 116.79 214.18 116.79C213.55 116.79 213.28 117.14 213.28 117.59C213.28 118.05 213.55 118.41 214.23 118.41C215.11 118.41 215.62 118.72 215.62 119.41C215.62 120.06 215.04 120.52 213.98 120.52C213.38 120.52 212.70 120.31 212.12 119.97C211.98 119.88 211.82 119.84 211.67 119.84C211.24 119.84 210.82 120.19 210.82 120.66C210.82 120.79 210.86 120.91 210.93 121.01C211.33 121.69 212.80 122.16 214.05 122.16C216.13 122.16 217.32 121.26 217.43 119.63Z" fill="#627386" /></g><g aria-label="Changed Files: 511,385"><circle cx="22" cy="140" r="4" fill="#673bd6" /><path d="M39.11 135.19C36.59 135.19 34.60 137.01 34.60 139.67C34.60 142.34 36.59 144.16 39.11 144.16C40.46 144.16 41.40 143.60 42.07 142.87C42.18 142.76 42.23 142.62 42.23 142.47C42.23 142.15 41.97 141.87 41.63 141.87C41.46 141.87 41.28 141.95 41.18 142.08C40.64 142.67 39.88 143.01 39.11 143.01C37.29 143.01 35.94 141.61 35.94 139.67C35.94 137.72 37.29 136.33 39.11 136.33C39.86 136.33 40.67 136.69 41.18 137.28C41.28 137.42 41.46 137.49 41.62 137.49C41.96 137.49 42.23 137.21 42.23 136.89C42.23 136.73 42.18 136.59 42.07 136.47C41.41 135.73 40.46 135.19 39.11 135.19ZM49.17 139.94C49.17 138.62 48.22 137.56 46.90 137.56C45.79 137.56 45.22 138.10 44.92 138.60L44.92 135.81C44.92 135.51 44.66 135.25 44.36 135.25C44.02 135.25 43.76 135.51 43.76 135.81L43.76 143.51C43.76 143.82 44.02 144.08 44.34 144.08C44.66 144.08 44.92 143.82 44.92 143.51L44.92 140.56C44.92 139.38 45.54 138.59 46.53 138.59C47.47 138.59 48.01 139.29 48.01 140.33L48.01 143.51C48.01 143.82 48.27 144.08 48.59 144.08C48.91 144.08 49.17 143.82 49.17 143.51ZM56.09 139.75C56.09 138.15 54.92 137.56 53.56 137.56C52.72 137.56 51.77 137.84 51.17 138.44C51.09 138.53 51.06 138.63 51.06 138.74C51.06 139.01 51.30 139.19 51.54 139.19C51.63 139.19 51.73 139.15 51.82 139.09C52.29 138.72 52.81 138.54 53.40 138.54C54.28 138.54 54.93 139.01 54.93 139.80L54.93 140.15L53.12 140.15C51.82 140.15 50.68 140.66 50.68 142.08C50.68 143.45 51.82 144.16 52.86 144.16C53.84 144.16 54.42 143.86 54.93 143.30L54.93 143.51C54.93 143.88 55.23 144.08 55.46 144.08L55.50 144.08C55.83 144.08 56.09 143.82 56.09 143.51ZM54.93 140.96L54.93 141.84C54.93 142.58 54.09 143.34 53.17 143.34C52.33 143.34 51.85 142.83 51.85 142.10C51.85 141.35 52.45 140.96 53.44 140.96ZM63.34 139.97C63.34 138.64 62.38 137.56 61.05 137.56C59.96 137.56 59.40 138.10 59.10 138.60L59.10 138.20C59.10 137.90 58.84 137.64 58.54 137.64C58.21 137.64 57.95 137.90 57.95 138.20L57.95 143.51C57.95 143.82 58.21 144.08 58.52 144.08C58.84 144.08 59.10 143.82 59.10 143.51L59.10 140.49C59.10 139.42 59.67 138.59 60.68 138.59C61.61 138.59 62.18 139.32 62.18 140.36L62.18 143.51C62.18 143.82 62.44 144.08 62.76 144.08C63.08 144.08 63.34 143.82 63.34 143.51ZM70.84 138.20C70.84 137.90 70.58 137.64 70.28 137.64C69.95 137.64 69.69 137.90 69.69 138.20L69.69 138.63C69.18 137.96 68.45 137.56 67.62 137.56C65.99 137.56 64.84 138.79 64.84 140.81C64.84 142.86 66.01 144.05 67.62 144.05C68.48 144.05 69.22 143.60 69.69 142.96L69.69 143.79C69.69 145.13 68.72 145.60 67.75 145.60C67.06 145.60 66.51 145.46 66.03 145.05C65.94 144.99 65.85 144.96 65.73 144.96C65.47 144.96 65.24 145.18 65.24 145.46C65.24 145.59 65.29 145.70 65.37 145.78C65.98 146.37 66.86 146.55 67.75 146.55C69.28 146.55 70.84 145.91 70.84 143.75ZM69.69 140.83C69.69 142.12 68.84 143.03 67.80 143.03C66.63 143.03 66.03 142.10 66.03 140.81C66.03 139.50 66.63 138.59 67.80 138.59C68.84 138.59 69.69 139.49 69.69 140.78ZM78.51 140.65C78.51 140.40 78.45 140.13 78.40 139.92C78.03 138.51 76.99 137.56 75.47 137.56C73.65 137.56 72.34 139.03 72.34 140.85C72.34 142.83 73.70 144.16 75.57 144.16C76.50 144.16 78.11 143.68 78.11 142.97C78.11 142.53 77.67 142.43 77.38 142.57C76.93 142.91 76.22 143.22 75.69 143.22C74.42 143.22 73.64 142.35 73.55 141.27L77.91 141.27C78.24 141.27 78.51 140.96 78.51 140.65ZM73.55 140.41C73.60 139.54 74.21 138.50 75.46 138.50C76.80 138.50 77.37 139.57 77.39 140.41ZM85.64 135.81C85.64 135.51 85.38 135.25 85.08 135.25C84.74 135.25 84.48 135.51 84.48 135.81L84.48 138.63C83.97 137.96 83.36 137.56 82.41 137.56C80.77 137.56 79.62 138.85 79.62 140.87C79.62 142.92 80.79 144.16 82.41 144.16C83.39 144.16 84.00 143.73 84.48 143.10L84.48 143.51C84.48 143.82 84.74 144.08 85.05 144.08C85.38 144.08 85.64 143.82 85.64 143.51ZM84.48 140.91C84.48 142.21 83.83 143.13 82.71 143.13C81.54 143.13 80.81 142.18 80.81 140.87C80.81 139.55 81.54 138.59 82.71 138.59C83.83 138.59 84.48 139.54 84.48 140.83ZM96.76 135.91C96.76 135.58 96.52 135.33 96.20 135.33L91.73 135.33C91.27 135.33 90.89 135.71 90.89 136.17L90.89 143.44C90.89 143.79 91.17 144.08 91.52 144.08C91.89 144.08 92.17 143.79 92.17 143.44L92.17 140.15L96.11 140.15C96.43 140.15 96.67 139.89 96.67 139.59C96.67 139.25 96.43 139.01 96.11 139.01L92.17 139.01L92.17 136.47L96.20 136.47C96.52 136.47 96.76 136.21 96.76 135.91ZM98.65 135.39C98.25 135.39 97.91 135.73 97.91 136.15C97.91 136.55 98.25 136.89 98.65 136.89C99.06 136.89 99.39 136.55 99.39 136.15C99.39 135.73 99.06 135.39 98.65 135.39ZM99.23 138.20C99.23 137.90 98.97 137.64 98.67 137.64C98.34 137.64 98.08 137.90 98.08 138.20L98.08 143.51C98.08 143.82 98.34 144.08 98.65 144.08C98.97 144.08 99.23 143.82 99.23 143.51ZM102.26 135.81C102.26 135.51 102.00 135.25 101.70 135.25C101.37 135.25 101.11 135.51 101.11 135.81L101.11 143.51C101.11 143.82 101.37 144.08 101.68 144.08C102.00 144.08 102.26 143.82 102.26 143.51ZM109.93 140.65C109.93 140.40 109.87 140.13 109.82 139.92C109.45 138.51 108.41 137.56 106.89 137.56C105.07 137.56 103.76 139.03 103.76 140.85C103.76 142.83 105.12 144.16 106.99 144.16C107.92 144.16 109.53 143.68 109.53 142.97C109.53 142.53 109.09 142.43 108.80 142.57C108.35 142.91 107.64 143.22 107.11 143.22C105.84 143.22 105.06 142.35 104.97 141.27L109.33 141.27C109.66 141.27 109.93 140.96 109.93 140.65ZM104.97 140.41C105.02 139.54 105.63 138.50 106.88 138.50C108.22 138.50 108.79 139.57 108.81 140.41ZM116.02 142.10C115.90 139.89 112.30 140.50 112.17 139.37C112.12 138.87 112.66 138.49 113.46 138.49C114.05 138.49 114.61 138.68 115.02 138.97C115.09 139.03 115.18 139.06 115.29 139.06C115.52 139.06 115.74 138.87 115.74 138.60C115.74 138.50 115.70 138.40 115.63 138.32C115.13 137.84 114.34 137.56 113.44 137.56C111.91 137.56 110.99 138.29 111.05 139.41C111.17 141.52 114.76 140.87 114.89 142.26C114.94 142.83 114.42 143.23 113.52 143.23C112.87 143.23 112.22 142.97 111.75 142.63C111.66 142.57 111.57 142.54 111.45 142.54C111.18 142.54 110.95 142.75 110.95 143.03C110.95 143.16 111.00 143.26 111.09 143.34C111.66 143.91 112.61 144.16 113.47 144.16C115.13 144.16 116.08 143.30 116.02 142.10Z" fill="#22272e" /><path d="M180.12 141.15C180.12 139.40 178.80 138.34 177.34 138.34C176.54 138.34 175.84 138.66 175.42 139.07L175.42 136.95L178.82 136.95C179.25 136.95 179.61 136.59 179.61 136.15C179.61 135.69 179.25 135.33 178.82 135.33L174.62 135.33C174.05 135.33 173.58 135.80 173.58 136.37L173.58 139.70C173.58 140.20 173.94 140.58 174.51 140.58C174.77 140.58 175.02 140.50 175.23 140.36C175.70 140.05 176.15 139.94 176.69 139.94C177.67 139.94 178.25 140.46 178.25 141.23C178.25 141.93 177.66 142.52 176.63 142.52C176.01 142.52 175.41 142.35 174.90 142.04C174.75 141.95 174.58 141.89 174.42 141.89C173.97 141.89 173.54 142.25 173.54 142.73C173.54 142.86 173.58 142.99 173.64 143.10C174.05 143.78 175.52 144.16 176.65 144.16C178.74 144.16 180.12 143.00 180.12 141.15ZM185.06 136.32C185.06 135.73 184.56 135.26 183.98 135.26C183.68 135.26 183.39 135.38 183.20 135.58L181.20 137.60C181.04 137.76 180.96 137.96 180.96 138.15C180.96 138.58 181.33 138.92 181.73 138.92C181.91 138.92 182.09 138.85 182.24 138.71L183.21 137.71L183.21 143.17C183.21 143.66 183.63 144.08 184.12 144.08C184.64 144.08 185.06 143.66 185.06 143.17ZM190.40 136.32C190.40 135.73 189.91 135.26 189.32 135.26C189.02 135.26 188.74 135.38 188.54 135.58L186.54 137.60C186.38 137.76 186.31 137.96 186.31 138.15C186.31 138.58 186.67 138.92 187.07 138.92C187.25 138.92 187.44 138.85 187.58 138.71L188.55 137.71L188.55 143.17C188.55 143.66 188.97 144.08 189.46 144.08C189.98 144.08 190.40 143.66 190.40 143.17ZM194.05 143.36C194.05 142.52 193.49 142.04 192.88 142.04C192.34 142.04 191.87 142.50 191.87 143.08C191.87 143.64 192.26 144.01 192.75 144.01C192.84 144.01 192.96 143.99 193.00 143.97C192.92 144.31 192.64 144.72 192.30 144.99C192.21 145.07 192.17 145.17 192.17 145.27C192.17 145.53 192.44 145.69 192.66 145.69C192.79 145.69 192.91 145.65 193.00 145.56C193.65 144.97 194.05 144.19 194.05 143.36ZM201.65 141.63C201.75 140.07 200.70 139.53 200.70 139.53C200.70 139.53 201.66 139.03 201.55 137.55C201.45 136.11 200.31 135.20 198.28 135.20C197.08 135.20 196.15 135.55 195.43 136.12C195.25 136.26 195.16 136.47 195.16 136.68C195.16 137.14 195.56 137.46 195.96 137.46C196.12 137.46 196.28 137.42 196.41 137.33C196.91 137.01 197.49 136.84 198.08 136.84C198.99 136.84 199.70 137.04 199.70 137.73C199.70 138.45 199.27 138.79 198.40 138.79C197.77 138.79 197.50 139.14 197.50 139.59C197.50 140.05 197.77 140.41 198.45 140.41C199.33 140.41 199.84 140.72 199.84 141.41C199.84 142.06 199.25 142.52 198.20 142.52C197.60 142.52 196.91 142.31 196.34 141.97C196.20 141.88 196.04 141.84 195.89 141.84C195.46 141.84 195.04 142.19 195.04 142.66C195.04 142.79 195.08 142.91 195.15 143.01C195.55 143.69 197.02 144.16 198.27 144.16C200.35 144.16 201.54 143.26 201.65 141.63ZM209.64 141.62C209.64 140.44 208.94 139.76 208.42 139.53C208.86 139.32 209.50 138.83 209.50 137.49C209.50 135.99 207.89 135.20 206.16 135.20C204.41 135.20 202.82 135.99 202.82 137.49C202.82 138.83 203.44 139.32 203.88 139.53C203.36 139.76 202.67 140.44 202.67 141.62C202.67 143.25 204.34 144.16 206.16 144.16C207.98 144.16 209.64 143.23 209.64 141.62ZM207.61 137.77C207.61 138.42 206.95 138.80 206.16 138.80C205.36 138.80 204.69 138.42 204.69 137.77C204.69 137.15 205.30 136.78 206.16 136.78C207.00 136.78 207.61 137.15 207.61 137.77ZM207.77 141.52C207.77 142.15 207.04 142.57 206.16 142.57C205.25 142.57 204.54 142.15 204.54 141.52C204.54 140.79 205.35 140.36 206.16 140.36C206.95 140.36 207.77 140.79 207.77 141.52ZM217.54 141.15C217.54 139.40 216.23 138.34 214.76 138.34C213.97 138.34 213.27 138.66 212.85 139.07L212.85 136.95L216.24 136.95C216.67 136.95 217.04 136.59 217.04 136.15C217.04 135.69 216.67 135.33 216.24 135.33L212.05 135.33C211.47 135.33 211.01 135.80 211.01 136.37L211.01 139.70C211.01 140.20 211.37 140.58 211.94 140.58C212.20 140.58 212.45 140.50 212.66 140.36C213.12 140.05 213.58 139.94 214.11 139.94C215.10 139.94 215.67 140.46 215.67 141.23C215.67 141.93 215.09 142.52 214.06 142.52C213.44 142.52 212.84 142.35 212.33 142.04C212.18 141.95 212.01 141.89 211.85 141.89C211.40 141.89 210.97 142.25 210.97 142.73C210.97 142.86 211.01 142.99 211.07 143.10C211.47 143.78 212.94 144.16 214.07 144.16C216.17 144.16 217.54 143.00 217.54 141.15Z" fill="#627386" /></g><rect x="18" y="166" width="384" height="8" rx="4" fill="#f4faff" /><rect x="18.00" y="166" width="260.47" height="8" rx="4" fill="#00d559" /><rect x="278.47" y="166" width="123.53" height="8" rx="4" fill="#00a5fe" /></svg>