<svg xmlns="http://www.w3.org/2000/svg" width="420" height="184" viewBox="0 0 420 184" role="img"><rect x="0.5" y="0.5" width="419" height="183" rx="10" fill="#161b22" stroke="#30363d" /><path d="M30.72 33.60C30.72 32.83 30.10 32.21 29.37 32.21L28.69 32.21L28.69 24.95C28.69 23.59 27.37 22.97 26.03 23.19C25.08 23.19 24.14 23.70 23.63 24.49L18.73 32.24C18.53 32.54 18.44 32.90 18.44 33.25C18.44 34.24 19.17 34.96 20.05 34.96L25.57 34.96L25.57 36.59C25.57 37.43 26.27 38.13 27.11 38.13C27.99 38.13 28.69 37.43 28.69 36.59L28.69 34.96L29.37 34.96C30.10 34.96 30.72 34.35 30.72 33.60ZM21.61 32.21L25.57 26.10L25.57 32.21ZM42.82 24.91C42.82 23.99 42.07 23.33 41.30 23.33L32.89 23.33C32.15 23.33 31.53 23.94 31.53 24.67C31.53 25.46 32.15 26.08 32.89 26.08L39.05 26.08L34.68 36.00C34.59 36.20 34.54 36.39 34.54 36.59C34.54 37.38 35.18 38.13 36.11 38.13C36.74 38.13 37.34 37.76 37.58 37.19L42.68 25.53C42.77 25.35 42.82 25.13 42.82 24.91ZM45.79 36.92C45.79 35.49 44.84 34.68 43.81 34.68C42.88 34.68 42.09 35.47 42.09 36.44C42.09 37.38 42.75 38.02 43.59 38.02C43.74 38.02 43.94 37.98 44.00 37.96C43.87 38.53 43.39 39.21 42.82 39.67C42.66 39.80 42.60 39.98 42.60 40.16C42.60 40.60 43.06 40.86 43.43 40.86C43.65 40.86 43.85 40.79 44.00 40.64C45.10 39.65 45.79 38.33 45.79 36.92ZM58.92 33.23C58.92 30.10 56.57 28.45 53.93 28.45C52.10 28.45 50.74 29.35 50.16 30.34C50.14 30.23 50.14 30.15 50.14 30.04C50.14 27.70 51.66 25.88 53.82 25.88C54.56 25.88 55.18 26.01 55.73 26.30C55.93 26.41 56.15 26.45 56.37 26.45C57.05 26.45 57.80 25.92 57.80 25.09C57.80 24.87 57.73 24.67 57.64 24.49C57.09 23.52 55.25 23.11 53.82 23.11C49.48 23.11 46.97 26.25 46.97 30.70C46.97 34.83 48.84 38.26 53.31 38.26C56.65 38.26 58.92 36.09 58.92 33.23ZM55.75 33.34C55.75 34.44 54.94 35.49 53.24 35.49C51.86 35.49 50.82 34.55 50.82 33.18C50.82 31.86 51.88 30.92 53.24 30.92C54.65 30.92 55.75 31.86 55.75 33.34ZM72.16 33.97C72.16 31.97 70.98 30.83 70.10 30.43C70.84 30.08 71.92 29.24 71.92 26.98C71.92 24.45 69.19 23.11 66.27 23.11C63.32 23.11 60.61 24.45 60.61 26.98C60.61 29.24 61.67 30.08 62.42 30.43C61.54 30.83 60.37 31.97 60.37 33.97C60.37 36.72 63.19 38.26 66.27 38.26C69.35 38.26 72.16 36.70 72.16 33.97ZM68.73 27.46C68.73 28.56 67.61 29.20 66.27 29.20C64.93 29.20 63.78 28.56 63.78 27.46C63.78 26.41 64.82 25.79 66.27 25.79C67.70 25.79 68.73 26.41 68.73 27.46ZM69.00 33.80C69.00 34.88 67.76 35.58 66.27 35.58C64.73 35.58 63.54 34.88 63.54 33.80C63.54 32.57 64.90 31.84 66.27 31.84C67.61 31.84 69.00 32.57 69.00 33.80ZM85.14 36.59C85.14 35.87 84.53 35.25 83.80 35.25L79.03 35.25C82.83 32.48 84.90 30.30 84.90 27.79C84.90 24.87 82.42 23.11 79.29 23.11C77.44 23.11 74.98 23.90 74.28 25.02C74.14 25.22 74.08 25.44 74.08 25.66C74.08 26.45 74.72 27.07 75.44 27.07C75.77 27.07 76.06 26.98 76.34 26.78C77.18 26.21 78.19 25.88 79.36 25.88C80.57 25.88 81.73 26.52 81.73 27.79C81.73 29.51 79.97 31.11 74.50 35.16C74.08 35.47 73.84 35.98 73.84 36.48C73.84 37.36 74.54 38 75.31 38L83.80 38C84.53 38 85.14 37.38 85.14 36.59ZM100.32 23.08C95.92 23.08 92.51 26.16 92.51 30.67C92.51 35.18 95.92 38.26 100.32 38.26C102.85 38.26 104.55 37.16 105.65 35.82C105.87 35.58 105.96 35.27 105.96 34.96C105.96 34.22 105.32 33.60 104.53 33.60C104.09 33.60 103.65 33.78 103.34 34.11C102.52 35.01 101.42 35.49 100.32 35.49C97.66 35.49 95.73 33.45 95.73 30.67C95.73 27.90 97.66 25.86 100.32 25.86C101.42 25.86 102.50 26.38 103.34 27.26C103.65 27.59 104.06 27.77 104.48 27.77C105.30 27.77 105.98 27.15 105.98 26.36C105.98 26.08 105.87 25.75 105.67 25.50C104.55 24.16 102.85 23.08 100.32 23.08ZM118.83 32.68C118.83 29.66 116.71 27.11 113.19 27.11C109.70 27.11 107.58 29.66 107.58 32.68C107.58 35.71 109.70 38.26 113.19 38.26C116.71 38.26 118.83 35.71 118.83 32.68ZM115.92 32.68C115.92 34.35 114.93 35.78 113.19 35.78C111.46 35.78 110.49 34.35 110.49 32.68C110.49 31.03 111.46 29.60 113.19 29.60C114.93 29.60 115.92 31.03 115.92 32.68ZM136.89 31.20C136.89 29.02 135.37 27.11 132.97 27.11C131.12 27.11 130.07 28.19 129.67 28.94C129.28 28.17 128.29 27.11 126.50 27.11C124.88 27.11 124.13 27.70 123.69 28.28L123.69 28.25C123.69 27.95 123.29 27.24 122.32 27.24C121.51 27.24 120.89 27.86 120.89 28.61L120.89 36.75C120.89 37.52 121.51 38.13 122.28 38.13C123.07 38.13 123.69 37.52 123.69 36.75L123.69 31.73C123.69 30.70 124.48 29.60 125.67 29.60C126.81 29.60 127.47 30.74 127.47 31.73L127.47 36.75C127.47 37.52 128.09 38.13 128.86 38.13C129.67 38.13 130.29 37.52 130.29 36.75L130.29 31.93C130.29 30.70 131.06 29.60 132.27 29.60C133.41 29.60 134.07 30.74 134.07 31.73L134.07 36.75C134.07 37.52 134.69 38.13 135.46 38.13C136.27 38.13 136.89 37.52 136.89 36.75ZM155.63 31.20C155.63 29.02 154.11 27.11 151.72 27.11C149.87 27.11 148.81 28.19 148.42 28.94C148.02 28.17 147.03 27.11 145.25 27.11C143.62 27.11 142.87 27.70 142.43 28.28L142.43 28.25C142.43 27.95 142.04 27.24 141.07 27.24C140.25 27.24 139.64 27.86 139.64 28.61L139.64 36.75C139.64 37.52 140.25 38.13 141.02 38.13C141.82 38.13 142.43 37.52 142.43 36.75L142.43 31.73C142.43 30.70 143.22 29.60 144.41 29.60C145.56 29.60 146.22 30.74 146.22 31.73L146.22 36.75C146.22 37.52 146.83 38.13 147.60 38.13C148.42 38.13 149.03 37.52 149.03 36.75L149.03 31.93C149.03 30.70 149.80 29.60 151.01 29.60C152.16 29.60 152.82 30.74 152.82 31.73L152.82 36.75C152.82 37.52 153.43 38.13 154.20 38.13C155.02 38.13 155.63 37.52 155.63 36.75ZM159.77 22.91C158.87 22.91 158.10 23.63 158.10 24.56C158.10 25.48 158.87 26.23 159.77 26.23C160.69 26.23 161.44 25.48 161.44 24.56C161.44 23.63 160.69 22.91 159.77 22.91ZM161.18 28.61C161.18 27.86 160.56 27.24 159.81 27.24C159.00 27.24 158.38 27.86 158.38 28.61L158.38 36.75C158.38 37.52 159.00 38.13 159.77 38.13C160.56 38.13 161.18 37.52 161.18 36.75ZM169.76 36.99C169.76 36.31 169.32 35.78 168.52 35.78L168.28 35.78C167.84 35.78 167.31 35.45 167.31 34.61L167.31 29.82L168.41 29.82C169.05 29.82 169.60 29.27 169.60 28.61C169.60 27.92 169.05 27.37 168.41 27.37L167.31 27.37L167.31 25.72C167.31 24.95 166.70 24.34 165.93 24.34C165.11 24.34 164.50 24.95 164.50 25.72L164.50 27.37L163.82 27.37C163.16 27.37 162.61 27.92 162.61 28.56C162.61 29.27 163.16 29.82 163.82 29.82L164.50 29.82L164.50 35.36C164.50 37.25 165.55 38.26 167.51 38.26C169.34 38.26 169.76 37.69 169.76 36.99ZM179.81 34.85C179.81 30.56 173.52 31.88 173.52 30.30C173.52 29.71 174.18 29.24 175.19 29.24C176.05 29.24 176.91 29.49 177.59 29.88C177.74 29.97 177.94 30.01 178.12 30.01C178.69 30.01 179.22 29.55 179.22 28.96C179.22 28.76 179.15 28.56 179.04 28.41C178.45 27.55 176.55 27.11 175.17 27.11C172.37 27.11 170.81 28.67 170.81 30.45C170.81 34.63 177.13 33.20 177.13 34.96C177.13 35.62 176.55 36.11 175.34 36.11C174.42 36.11 173.32 35.73 172.48 35.25C172.31 35.14 172.11 35.10 171.91 35.10C171.32 35.10 170.75 35.60 170.75 36.26C170.75 36.48 170.81 36.68 170.94 36.86C171.60 37.80 173.83 38.26 175.21 38.26C178.16 38.26 179.81 36.79 179.81 34.85Z" fill="#e6edf3" /><path d="M20.26 49.88C20.26 49.54 19.98 49.25 19.64 49.25C19.26 49.25 18.98 49.54 18.98 49.88L18.98 57.44C18.98 57.79 19.26 58.08 19.61 58.08C19.98 58.08 20.26 57.79 20.26 57.44ZM27.55 53.97C27.55 52.64 26.59 51.56 25.27 51.56C24.18 51.56 23.62 52.10 23.32 52.60L23.32 52.20C23.32 51.90 23.06 51.64 22.76 51.64C22.42 51.64 22.16 51.90 22.16 52.20L22.16 57.51C22.16 57.82 22.42 58.08 22.73 58.08C23.06 58.08 23.32 57.82 23.32 57.51L23.32 54.49C23.32 53.42 23.89 52.59 24.89 52.59C25.83 52.59 26.40 53.32 26.40 54.36L26.40 57.51C26.40 57.82 26.66 58.08 26.97 58.08C27.30 58.08 27.55 57.82 27.55 57.51ZM38.97 49.91C38.97 49.58 38.72 49.33 38.41 49.33L32.70 49.33C32.39 49.33 32.14 49.58 32.14 49.89C32.14 50.21 32.39 50.47 32.70 50.47L34.91 50.47L34.91 57.44C34.91 57.79 35.20 58.08 35.55 58.08C35.91 58.08 36.20 57.79 36.20 57.44L36.20 50.47L38.41 50.47C38.72 50.47 38.97 50.21 38.97 49.91ZM44.74 54.85C44.74 53.05 43.53 51.56 41.57 51.56C39.62 51.56 38.41 53.05 38.41 54.85C38.41 56.66 39.62 58.16 41.57 58.16C43.53 58.16 44.74 56.66 44.74 54.85ZM43.53 54.85C43.53 56.06 42.83 57.13 41.57 57.13C40.32 57.13 39.61 56.06 39.61 54.85C39.61 53.66 40.32 52.59 41.57 52.59C42.83 52.59 43.53 53.66 43.53 54.85ZM49.16 57.55C49.16 57.27 48.95 57.06 48.67 57.06C48.54 57.06 48.38 57.13 48.24 57.13C47.86 57.13 47.63 56.83 47.63 56.35L47.63 52.73L48.48 52.73C48.76 52.73 48.98 52.51 48.98 52.24C48.98 51.94 48.76 51.72 48.48 51.72L47.63 51.72L47.63 50.49C47.63 50.19 47.37 49.93 47.05 49.93C46.72 49.93 46.46 50.19 46.46 50.49L46.46 51.72L45.85 51.72C45.56 51.72 45.34 51.94 45.34 52.22C45.34 52.51 45.56 52.73 45.85 52.73L46.46 52.73L46.46 56.62C46.46 57.61 46.98 58.16 47.96 58.16C48.65 58.16 49.16 57.96 49.16 57.55ZM55.26 53.75C55.26 52.15 54.09 51.56 52.74 51.56C51.89 51.56 50.94 51.84 50.34 52.44C50.27 52.53 50.23 52.63 50.23 52.73C50.23 53.01 50.47 53.19 50.71 53.19C50.80 53.19 50.90 53.15 50.99 53.09C51.46 52.72 51.98 52.54 52.57 52.54C53.45 52.54 54.10 53.01 54.10 53.80L54.10 54.15L52.29 54.15C50.99 54.15 49.85 54.66 49.85 56.08C49.85 57.45 50.99 58.16 52.03 58.16C53.01 58.16 53.59 57.86 54.10 57.30L54.10 57.51C54.10 57.88 54.40 58.08 54.63 58.08L54.67 58.08C55.00 58.08 55.26 57.82 55.26 57.51ZM54.10 54.96L54.10 55.84C54.10 56.58 53.26 57.34 52.35 57.34C51.50 57.34 51.02 56.83 51.02 56.10C51.02 55.35 51.62 54.96 52.61 54.96ZM58.27 49.81C58.27 49.51 58.01 49.25 57.71 49.25C57.38 49.25 57.12 49.51 57.12 49.81L57.12 57.51C57.12 57.82 57.38 58.08 57.69 58.08C58.01 58.08 58.27 57.82 58.27 57.51Z" fill="#9aa7b4" /><line x1="18" y1="76" x2="48" y2="76" stroke="#9aa7b4" stroke-opacity="0.4" /><g aria-label="Additions: 32,379,235"><circle cx="22" cy="96" r="4" fill="#00d559" /><path d="M42.28 99.39C42.28 99.31 42.27 99.23 42.23 99.14L39.36 91.94C39.19 91.51 38.76 91.24 38.30 91.25C37.85 91.25 37.43 91.52 37.28 91.94L34.40 99.14C34.38 99.23 34.36 99.31 34.36 99.39C34.36 99.74 34.65 100.08 35.05 100.08C35.33 100.08 35.57 99.92 35.68 99.66L36.25 98.19L40.40 98.19L40.97 99.66C41.07 99.92 41.32 100.08 41.59 100.08C42.01 100.08 42.28 99.71 42.28 99.39ZM38.32 92.64L40.03 97.06L36.61 97.06ZM49.22 91.81C49.22 91.51 48.96 91.25 48.66 91.25C48.33 91.25 48.07 91.51 48.07 91.81L48.07 94.63C47.56 93.95 46.95 93.56 46.00 93.56C44.36 93.56 43.20 94.85 43.20 96.87C43.20 98.92 44.37 100.16 46.00 100.16C46.97 100.16 47.59 99.73 48.07 99.10L48.07 99.51C48.07 99.82 48.33 100.08 48.64 100.08C48.96 100.08 49.22 99.82 49.22 99.51ZM48.07 96.91C48.07 98.21 47.42 99.13 46.30 99.13C45.13 99.13 44.40 98.18 44.40 96.87C44.40 95.55 45.13 94.59 46.30 94.59C47.42 94.59 48.07 95.54 48.07 96.83ZM56.74 91.81C56.74 91.51 56.48 91.25 56.18 91.25C55.84 91.25 55.58 91.51 55.58 91.81L55.58 94.63C55.07 93.95 54.46 93.56 53.51 93.56C51.88 93.56 50.72 94.85 50.72 96.87C50.72 98.92 51.89 100.16 53.51 100.16C54.49 100.16 55.10 99.73 55.58 99.10L55.58 99.51C55.58 99.82 55.84 100.08 56.15 100.08C56.48 100.08 56.74 99.82 56.74 99.51ZM55.58 96.91C55.58 98.21 54.93 99.13 53.81 99.13C52.64 99.13 51.91 98.18 51.91 96.87C51.91 95.55 52.64 94.59 53.81 94.59C54.93 94.59 55.58 95.54 55.58 96.83ZM59.18 91.39C58.78 91.39 58.44 91.73 58.44 92.15C58.44 92.55 58.78 92.89 59.18 92.89C59.60 92.89 59.92 92.55 59.92 92.15C59.92 91.73 59.60 91.39 59.18 91.39ZM59.77 94.20C59.77 93.90 59.51 93.64 59.21 93.64C58.87 93.64 58.61 93.90 58.61 94.20L58.61 99.51C58.61 99.82 58.87 100.08 59.18 100.08C59.51 100.08 59.77 99.82 59.77 99.51ZM64.56 99.55C64.56 99.27 64.36 99.06 64.07 99.06C63.94 99.06 63.78 99.13 63.64 99.13C63.26 99.13 63.03 98.83 63.03 98.35L63.03 94.73L63.89 94.73C64.16 94.73 64.38 94.51 64.38 94.24C64.38 93.94 64.16 93.72 63.89 93.72L63.03 93.72L63.03 92.49C63.03 92.19 62.77 91.93 62.46 91.93C62.12 91.93 61.86 92.19 61.86 92.49L61.86 93.72L61.25 93.72C60.96 93.72 60.74 93.94 60.74 94.22C60.74 94.51 60.96 94.73 61.25 94.73L61.86 94.73L61.86 98.62C61.86 99.61 62.38 100.16 63.37 100.16C64.06 100.16 64.56 99.96 64.56 99.55ZM66.19 91.39C65.79 91.39 65.45 91.73 65.45 92.15C65.45 92.55 65.79 92.89 66.19 92.89C66.60 92.89 66.93 92.55 66.93 92.15C66.93 91.73 66.60 91.39 66.19 91.39ZM66.77 94.20C66.77 93.90 66.51 93.64 66.21 93.64C65.88 93.64 65.62 93.90 65.62 94.20L65.62 99.51C65.62 99.82 65.88 100.08 66.19 100.08C66.51 100.08 66.77 99.82 66.77 99.51ZM74.60 96.85C74.60 95.05 73.39 93.56 71.43 93.56C69.48 93.56 68.27 95.05 68.27 96.85C68.27 98.66 69.48 100.16 71.43 100.16C73.39 100.16 74.60 98.66 74.60 96.85ZM73.39 96.85C73.39 98.06 72.69 99.13 71.43 99.13C70.18 99.13 69.46 98.06 69.46 96.85C69.46 95.66 70.18 94.59 71.43 94.59C72.69 94.59 73.39 95.66 73.39 96.85ZM81.49 95.97C81.49 94.64 80.53 93.56 79.20 93.56C78.11 93.56 77.55 94.10 77.25 94.61L77.25 94.20C77.25 93.90 76.99 93.64 76.69 93.64C76.35 93.64 76.09 93.90 76.09 94.20L76.09 99.51C76.09 99.82 76.35 100.08 76.67 100.08C76.99 100.08 77.25 99.82 77.25 99.51L77.25 96.49C77.25 95.42 77.82 94.59 78.82 94.59C79.76 94.59 80.33 95.32 80.33 96.36L80.33 99.51C80.33 99.82 80.59 100.08 80.90 100.08C81.23 100.08 81.49 99.82 81.49 99.51ZM87.96 98.10C87.85 95.89 84.24 96.50 84.11 95.37C84.06 94.86 84.61 94.49 85.40 94.49C86 94.49 86.56 94.68 86.96 94.97C87.04 95.03 87.13 95.06 87.23 95.06C87.47 95.06 87.69 94.86 87.69 94.61C87.69 94.50 87.65 94.40 87.57 94.32C87.08 93.84 86.29 93.56 85.39 93.56C83.86 93.56 82.93 94.29 83.00 95.41C83.11 97.52 86.70 96.87 86.83 98.26C86.88 98.83 86.36 99.23 85.47 99.23C84.82 99.23 84.17 98.97 83.70 98.64C83.61 98.57 83.52 98.54 83.40 98.54C83.13 98.54 82.89 98.75 82.89 99.03C82.89 99.16 82.94 99.26 83.04 99.34C83.61 99.91 84.56 100.16 85.41 100.16C87.08 100.16 88.03 99.30 87.96 98.10Z" fill="#e6edf3" /><path d="M157.29 97.63C157.39 96.07 156.34 95.53 156.34 95.53C156.34 95.53 157.30 95.03 157.20 93.55C157.09 92.11 155.95 91.20 153.92 91.20C152.73 91.20 151.79 91.55 151.08 92.12C150.89 92.27 150.80 92.47 150.80 92.68C150.80 93.14 151.21 93.46 151.61 93.46C151.76 93.46 151.92 93.42 152.05 93.33C152.56 93.01 153.13 92.84 153.73 92.84C154.64 92.84 155.34 93.05 155.34 93.73C155.34 94.45 154.91 94.79 154.04 94.79C153.42 94.79 153.14 95.14 153.14 95.59C153.14 96.05 153.42 96.41 154.09 96.41C154.98 96.41 155.48 96.72 155.48 97.41C155.48 98.06 154.90 98.52 153.84 98.52C153.25 98.52 152.56 98.31 151.99 97.97C151.84 97.88 151.69 97.84 151.53 97.84C151.10 97.84 150.69 98.19 150.69 98.66C150.69 98.79 150.72 98.91 150.79 99.01C151.19 99.69 152.66 100.16 153.91 100.16C155.99 100.16 157.19 99.26 157.29 97.63ZM165.08 99.17C165.08 98.74 164.71 98.38 164.28 98.38L161.46 98.38C163.71 96.74 164.93 95.45 164.93 93.97C164.93 92.24 163.47 91.20 161.62 91.20C160.53 91.20 159.07 91.67 158.66 92.33C158.58 92.45 158.54 92.58 158.54 92.71C158.54 93.17 158.91 93.54 159.34 93.54C159.54 93.54 159.71 93.49 159.88 93.37C160.37 93.03 160.97 92.84 161.66 92.84C162.37 92.84 163.06 93.21 163.06 93.97C163.06 94.98 162.02 95.93 158.78 98.32C158.54 98.50 158.39 98.80 158.39 99.10C158.39 99.62 158.81 100 159.27 100L164.28 100C164.71 100 165.08 99.64 165.08 99.17ZM168.46 99.36C168.46 98.52 167.90 98.04 167.29 98.04C166.74 98.04 166.27 98.50 166.27 99.08C166.27 99.64 166.66 100.01 167.16 100.01C167.25 100.01 167.37 99.99 167.40 99.97C167.33 100.31 167.04 100.72 166.70 100.99C166.61 101.07 166.57 101.17 166.57 101.27C166.57 101.53 166.84 101.69 167.07 101.69C167.20 101.69 167.31 101.65 167.40 101.56C168.05 100.97 168.46 100.19 168.46 99.36ZM176.05 97.63C176.15 96.07 175.10 95.53 175.10 95.53C175.10 95.53 176.06 95.03 175.96 93.55C175.85 92.11 174.71 91.20 172.68 91.20C171.49 91.20 170.55 91.55 169.84 92.12C169.65 92.27 169.56 92.47 169.56 92.68C169.56 93.14 169.97 93.46 170.37 93.46C170.52 93.46 170.68 93.42 170.81 93.33C171.32 93.01 171.89 92.84 172.49 92.84C173.40 92.84 174.10 93.05 174.10 93.73C174.10 94.45 173.67 94.79 172.80 94.79C172.18 94.79 171.90 95.14 171.90 95.59C171.90 96.05 172.18 96.41 172.85 96.41C173.74 96.41 174.24 96.72 174.24 97.41C174.24 98.06 173.66 98.52 172.60 98.52C172.01 98.52 171.32 98.31 170.75 97.97C170.60 97.88 170.45 97.84 170.29 97.84C169.86 97.84 169.45 98.19 169.45 98.66C169.45 98.79 169.48 98.91 169.55 99.01C169.95 99.69 171.42 100.16 172.67 100.16C174.75 100.16 175.95 99.26 176.05 97.63ZM183.52 92.27C183.52 91.72 183.08 91.33 182.63 91.33L177.66 91.33C177.22 91.33 176.86 91.69 176.86 92.12C176.86 92.59 177.22 92.95 177.66 92.95L181.30 92.95L178.71 98.82C178.66 98.93 178.64 99.05 178.64 99.17C178.64 99.64 179.01 100.08 179.56 100.08C179.94 100.08 180.29 99.86 180.43 99.52L183.45 92.63C183.50 92.53 183.52 92.39 183.52 92.27ZM184.10 94.16C184.10 96.01 185.49 96.98 187.05 96.98C188.13 96.98 188.93 96.45 189.27 95.87C189.28 95.93 189.28 95.98 189.28 96.05C189.28 97.43 188.39 98.50 187.11 98.50C186.67 98.50 186.31 98.43 185.98 98.26C185.86 98.19 185.73 98.17 185.60 98.17C185.20 98.17 184.76 98.48 184.76 98.97C184.76 99.10 184.80 99.22 184.85 99.32C185.18 99.90 186.27 100.14 187.11 100.14C189.67 100.14 191.16 98.28 191.16 95.66C191.16 93.21 190.05 91.19 187.41 91.19C185.44 91.19 184.10 92.47 184.10 94.16ZM185.97 94.10C185.97 93.45 186.45 92.82 187.45 92.82C188.27 92.82 188.88 93.38 188.88 94.19C188.88 94.97 188.26 95.53 187.45 95.53C186.62 95.53 185.97 94.97 185.97 94.10ZM194.13 99.36C194.13 98.52 193.57 98.04 192.96 98.04C192.42 98.04 191.95 98.50 191.95 99.08C191.95 99.64 192.34 100.01 192.83 100.01C192.92 100.01 193.04 99.99 193.08 99.97C193.00 100.31 192.72 100.72 192.38 100.99C192.29 101.07 192.25 101.17 192.25 101.27C192.25 101.53 192.52 101.69 192.74 101.69C192.87 101.69 192.99 101.65 193.08 101.56C193.73 100.97 194.13 100.19 194.13 99.36ZM201.88 99.17C201.88 98.74 201.52 98.38 201.09 98.38L198.27 98.38C200.52 96.74 201.74 95.45 201.74 93.97C201.74 92.24 200.27 91.20 198.42 91.20C197.33 91.20 195.87 91.67 195.46 92.33C195.38 92.45 195.34 92.58 195.34 92.71C195.34 93.17 195.72 93.54 196.15 93.54C196.34 93.54 196.51 93.49 196.68 93.37C197.17 93.03 197.77 92.84 198.46 92.84C199.18 92.84 199.87 93.21 199.87 93.97C199.87 94.98 198.83 95.93 195.59 98.32C195.34 98.50 195.20 98.80 195.20 99.10C195.20 99.62 195.61 100 196.07 100L201.09 100C201.52 100 201.88 99.64 201.88 99.17ZM209.52 97.63C209.63 96.07 208.58 95.53 208.58 95.53C208.58 95.53 209.54 95.03 209.43 93.55C209.33 92.11 208.19 91.20 206.16 91.20C204.96 91.20 204.03 91.55 203.31 92.12C203.13 92.27 203.04 92.47 203.04 92.68C203.04 93.14 203.44 93.46 203.84 93.46C204.00 93.46 204.16 93.42 204.29 93.33C204.79 93.01 205.36 92.84 205.96 92.84C206.87 92.84 207.57 93.05 207.57 93.73C207.57 94.45 207.15 94.79 206.27 94.79C205.65 94.79 205.38 95.14 205.38 95.59C205.38 96.05 205.65 96.41 206.33 96.41C207.21 96.41 207.72 96.72 207.72 97.41C207.72 98.06 207.13 98.52 206.08 98.52C205.48 98.52 204.79 98.31 204.22 97.97C204.08 97.88 203.92 97.84 203.77 97.84C203.34 97.84 202.92 98.19 202.92 98.66C202.92 98.79 202.96 98.91 203.02 99.01C203.43 99.69 204.90 100.16 206.14 100.16C208.22 100.16 209.42 99.26 209.52 97.63ZM217.55 97.15C217.55 95.40 216.23 94.34 214.76 94.34C213.97 94.34 213.27 94.66 212.85 95.07L212.85 92.95L216.25 92.95C216.67 92.95 217.04 92.59 217.04 92.15C217.04 91.69 216.67 91.33 216.25 91.33L212.05 91.33C211.47 91.33 211.01 91.80 211.01 92.37L211.01 95.70C211.01 96.20 211.37 96.58 211.94 96.58C212.20 96.58 212.45 96.50 212.66 96.36C213.13 96.05 213.58 95.94 214.11 95.94C215.10 95.94 215.67 96.46 215.67 97.23C215.67 97.93 215.09 98.52 214.06 98.52C213.44 98.52 212.84 98.35 212.33 98.04C212.18 97.95 212.01 97.89 211.85 97.89C211.40 97.89 210.97 98.25 210.97 98.73C210.97 98.86 211.01 98.99 211.07 99.10C211.47 99.78 212.94 100.16 214.07 100.16C216.17 100.16 217.55 99.00 217.55 97.15Z" fill="#9aa7b4" /></g><g aria-label="Deletions: 14,291,288"><circle cx="22" cy="118" r="4" fill="#00a5fe" /><path d="M42.54 117.67C42.54 115.17 40.76 113.33 38.06 113.33L35.82 113.33C35.35 113.33 34.98 113.71 34.98 114.17L34.98 121.16C34.98 121.62 35.35 122 35.82 122L38.06 122C40.76 122 42.54 120.18 42.54 117.67ZM41.23 117.67C41.23 119.43 40.06 120.86 38.06 120.86L36.26 120.86L36.26 114.47L38.06 114.47C40.11 114.47 41.23 115.89 41.23 117.67ZM49.90 118.65C49.90 118.40 49.83 118.13 49.78 117.92C49.42 116.51 48.38 115.56 46.86 115.56C45.04 115.56 43.72 117.03 43.72 118.85C43.72 120.83 45.09 122.16 46.96 122.16C47.88 122.16 49.50 121.67 49.50 120.97C49.50 120.53 49.05 120.43 48.77 120.57C48.31 120.91 47.61 121.22 47.08 121.22C45.80 121.22 45.02 120.35 44.93 119.27L49.30 119.27C49.63 119.27 49.90 118.96 49.90 118.65ZM44.93 118.41C44.98 117.54 45.60 116.50 46.84 116.50C48.18 116.50 48.76 117.57 48.78 118.41ZM52.54 113.81C52.54 113.51 52.28 113.25 51.98 113.25C51.64 113.25 51.38 113.51 51.38 113.81L51.38 121.51C51.38 121.82 51.64 122.08 51.95 122.08C52.28 122.08 52.54 121.82 52.54 121.51ZM60.21 118.65C60.21 118.40 60.14 118.13 60.09 117.92C59.73 116.51 58.69 115.56 57.17 115.56C55.35 115.56 54.03 117.03 54.03 118.85C54.03 120.83 55.40 122.16 57.27 122.16C58.19 122.16 59.81 121.67 59.81 120.97C59.81 120.53 59.36 120.43 59.08 120.57C58.62 120.91 57.92 121.22 57.39 121.22C56.11 121.22 55.33 120.35 55.24 119.27L59.61 119.27C59.94 119.27 60.21 118.96 60.21 118.65ZM55.24 118.41C55.29 117.54 55.91 116.50 57.15 116.50C58.49 116.50 59.06 117.57 59.09 118.41ZM64.62 121.55C64.62 121.27 64.41 121.06 64.12 121.06C63.99 121.06 63.84 121.13 63.69 121.13C63.32 121.13 63.08 120.83 63.08 120.35L63.08 116.73L63.94 116.73C64.21 116.73 64.43 116.51 64.43 116.24C64.43 115.94 64.21 115.72 63.94 115.72L63.08 115.72L63.08 114.49C63.08 114.19 62.82 113.93 62.51 113.93C62.17 113.93 61.91 114.19 61.91 114.49L61.91 115.72L61.30 115.72C61.01 115.72 60.79 115.94 60.79 116.22C60.79 116.51 61.01 116.73 61.30 116.73L61.91 116.73L61.91 120.62C61.91 121.61 62.43 122.16 63.42 122.16C64.11 122.16 64.62 121.96 64.62 121.55ZM66.24 113.39C65.84 113.39 65.50 113.73 65.50 114.15C65.50 114.55 65.84 114.89 66.24 114.89C66.66 114.89 66.98 114.55 66.98 114.15C66.98 113.73 66.66 113.39 66.24 113.39ZM66.83 116.20C66.83 115.90 66.56 115.64 66.27 115.64C65.93 115.64 65.67 115.90 65.67 116.20L65.67 121.51C65.67 121.82 65.93 122.08 66.24 122.08C66.56 122.08 66.83 121.82 66.83 121.51ZM74.65 118.85C74.65 117.05 73.44 115.56 71.48 115.56C69.53 115.56 68.32 117.05 68.32 118.85C68.32 120.66 69.53 122.16 71.48 122.16C73.44 122.16 74.65 120.66 74.65 118.85ZM73.44 118.85C73.44 120.06 72.74 121.13 71.48 121.13C70.23 121.13 69.52 120.06 69.52 118.85C69.52 117.66 70.23 116.59 71.48 116.59C72.74 116.59 73.44 117.66 73.44 118.85ZM81.54 117.97C81.54 116.64 80.58 115.56 79.25 115.56C78.16 115.56 77.60 116.10 77.30 116.61L77.30 116.20C77.30 115.90 77.04 115.64 76.74 115.64C76.41 115.64 76.15 115.90 76.15 116.20L76.15 121.51C76.15 121.82 76.41 122.08 76.72 122.08C77.04 122.08 77.30 121.82 77.30 121.51L77.30 118.49C77.30 117.42 77.88 116.59 78.88 116.59C79.81 116.59 80.38 117.32 80.38 118.36L80.38 121.51C80.38 121.82 80.64 122.08 80.96 122.08C81.28 122.08 81.54 121.82 81.54 121.51ZM88.01 120.10C87.90 117.89 84.30 118.50 84.17 117.37C84.11 116.86 84.66 116.49 85.45 116.49C86.05 116.49 86.61 116.68 87.01 116.97C87.09 117.03 87.18 117.06 87.29 117.06C87.52 117.06 87.74 116.86 87.74 116.61C87.74 116.50 87.70 116.40 87.62 116.32C87.13 115.84 86.34 115.56 85.44 115.56C83.91 115.56 82.98 116.29 83.05 117.41C83.17 119.52 86.75 118.87 86.88 120.26C86.94 120.83 86.42 121.23 85.52 121.23C84.87 121.23 84.22 120.97 83.75 120.64C83.66 120.57 83.57 120.54 83.45 120.54C83.18 120.54 82.94 120.75 82.94 121.03C82.94 121.16 83.00 121.26 83.09 121.34C83.66 121.91 84.61 122.16 85.47 122.16C87.13 122.16 88.08 121.30 88.01 120.10Z" fill="#e6edf3" /><path d="M158.12 114.32C158.12 113.73 157.63 113.26 157.04 113.26C156.74 113.26 156.46 113.38 156.26 113.58L154.26 115.60C154.10 115.76 154.03 115.95 154.03 116.15C154.03 116.58 154.39 116.92 154.79 116.92C154.98 116.92 155.16 116.85 155.30 116.71L156.28 115.71L156.28 121.17C156.28 121.66 156.69 122.08 157.19 122.08C157.71 122.08 158.12 121.66 158.12 121.17ZM166.49 119.40C166.49 118.94 166.13 118.58 165.70 118.58L165.30 118.58L165.30 114.29C165.30 113.48 164.52 113.12 163.72 113.25C163.17 113.25 162.61 113.55 162.31 114.02L159.41 118.59C159.29 118.78 159.24 118.98 159.24 119.19C159.24 119.78 159.67 120.21 160.19 120.21L163.45 120.21L163.45 121.17C163.45 121.66 163.87 122.08 164.36 122.08C164.88 122.08 165.30 121.66 165.30 121.17L165.30 120.21L165.70 120.21C166.13 120.21 166.49 119.84 166.49 119.40ZM161.11 118.58L163.45 114.97L163.45 118.58ZM169.54 121.36C169.54 120.52 168.98 120.04 168.37 120.04C167.82 120.04 167.35 120.50 167.35 121.08C167.35 121.64 167.74 122.01 168.24 122.01C168.33 122.01 168.44 121.99 168.48 121.97C168.40 122.31 168.12 122.72 167.78 122.99C167.69 123.07 167.65 123.17 167.65 123.27C167.65 123.53 167.92 123.69 168.14 123.69C168.27 123.69 168.39 123.65 168.48 123.56C169.13 122.97 169.54 122.19 169.54 121.36ZM177.28 121.17C177.28 120.74 176.92 120.38 176.49 120.38L173.67 120.38C175.92 118.74 177.14 117.45 177.14 115.97C177.14 114.24 175.67 113.20 173.83 113.20C172.73 113.20 171.28 113.67 170.86 114.33C170.78 114.45 170.74 114.58 170.74 114.71C170.74 115.17 171.12 115.54 171.55 115.54C171.75 115.54 171.91 115.49 172.08 115.37C172.58 115.03 173.18 114.84 173.86 114.84C174.58 114.84 175.27 115.21 175.27 115.97C175.27 116.98 174.23 117.93 170.99 120.32C170.74 120.50 170.60 120.80 170.60 121.10C170.60 121.62 171.02 122 171.47 122L176.49 122C176.92 122 177.28 121.64 177.28 121.17ZM178.26 116.16C178.26 118.01 179.65 118.98 181.21 118.98C182.29 118.98 183.09 118.45 183.43 117.87C183.45 117.93 183.45 117.98 183.45 118.05C183.45 119.43 182.55 120.50 181.28 120.50C180.83 120.50 180.47 120.43 180.14 120.26C180.03 120.19 179.90 120.17 179.77 120.17C179.36 120.17 178.92 120.48 178.92 120.97C178.92 121.10 178.96 121.22 179.01 121.32C179.34 121.90 180.43 122.14 181.28 122.14C183.84 122.14 185.32 120.28 185.32 117.66C185.32 115.21 184.21 113.19 181.57 113.19C179.60 113.19 178.26 114.47 178.26 116.16ZM180.13 116.10C180.13 115.45 180.61 114.82 181.61 114.82C182.43 114.82 183.04 115.38 183.04 116.19C183.04 116.97 182.42 117.53 181.61 117.53C180.78 117.53 180.13 116.97 180.13 116.10ZM190.26 114.32C190.26 113.73 189.76 113.26 189.18 113.26C188.88 113.26 188.59 113.38 188.40 113.58L186.40 115.60C186.24 115.76 186.16 115.95 186.16 116.15C186.16 116.58 186.53 116.92 186.93 116.92C187.11 116.92 187.29 116.85 187.44 116.71L188.41 115.71L188.41 121.17C188.41 121.66 188.83 122.08 189.32 122.08C189.84 122.08 190.26 121.66 190.26 121.17ZM193.91 121.36C193.91 120.52 193.35 120.04 192.74 120.04C192.19 120.04 191.73 120.50 191.73 121.08C191.73 121.64 192.12 122.01 192.61 122.01C192.70 122.01 192.82 121.99 192.86 121.97C192.78 122.31 192.49 122.72 192.16 122.99C192.06 123.07 192.03 123.17 192.03 123.27C192.03 123.53 192.30 123.69 192.52 123.69C192.65 123.69 192.77 123.65 192.86 123.56C193.51 122.97 193.91 122.19 193.91 121.36ZM201.66 121.17C201.66 120.74 201.29 120.38 200.87 120.38L198.04 120.38C200.29 118.74 201.52 117.45 201.52 115.97C201.52 114.24 200.05 113.20 198.20 113.20C197.11 113.20 195.65 113.67 195.24 114.33C195.16 114.45 195.12 114.58 195.12 114.71C195.12 115.17 195.50 115.54 195.93 115.54C196.12 115.54 196.29 115.49 196.46 115.37C196.95 115.03 197.55 114.84 198.24 114.84C198.95 114.84 199.64 115.21 199.64 115.97C199.64 116.98 198.60 117.93 195.37 120.32C195.12 120.50 194.98 120.80 194.98 121.10C194.98 121.62 195.39 122 195.85 122L200.87 122C201.29 122 201.66 121.64 201.66 121.17ZM209.67 119.62C209.67 118.44 208.97 117.76 208.44 117.53C208.89 117.32 209.52 116.83 209.52 115.49C209.52 113.99 207.91 113.20 206.18 113.20C204.44 113.20 202.84 113.99 202.84 115.49C202.84 116.83 203.47 117.32 203.91 117.53C203.39 117.76 202.70 118.44 202.70 119.62C202.70 121.25 204.36 122.16 206.18 122.16C208.00 122.16 209.67 121.23 209.67 119.62ZM207.64 115.77C207.64 116.42 206.98 116.80 206.18 116.80C205.39 116.80 204.71 116.42 204.71 115.77C204.71 115.15 205.32 114.78 206.18 114.78C207.03 114.78 207.64 115.15 207.64 115.77ZM207.79 119.52C207.79 120.15 207.07 120.57 206.18 120.57C205.27 120.57 204.57 120.15 204.57 119.52C204.57 118.79 205.38 118.36 206.18 118.36C206.98 118.36 207.79 118.79 207.79 119.52ZM217.55 119.62C217.55 118.44 216.84 117.76 216.32 117.53C216.77 117.32 217.40 116.83 217.40 115.49C217.40 113.99 215.79 113.20 214.06 113.20C212.32 113.20 210.72 113.99 210.72 115.49C210.72 116.83 211.34 117.32 211.79 117.53C211.27 117.76 210.58 118.44 210.58 119.62C210.58 121.25 212.24 122.16 214.06 122.16C215.88 122.16 217.55 121.23 217.55 119.62ZM215.52 115.77C215.52 116.42 214.85 116.80 214.06 116.80C213.27 116.80 212.59 116.42 212.59 115.77C212.59 115.15 213.20 114.78 214.06 114.78C214.91 114.78 215.52 115.15 215.52 115.77ZM215.67 119.52C215.67 120.15 214.95 120.57 214.06 120.57C213.15 120.57 212.45 120.15 212.45 119.52C212.45 118.79 213.26 118.36 214.06 118.36C214.85 118.36 215.67 118.79 215.67 119.52Z" fill="#9aa7b4" /></g><g aria-label="Changed Files: 507,333"><circle cx="22" cy="140" r="4" fill="#673bd6" /><path d="M39.11 135.19C36.59 135.19 34.60 137.01 34.60 139.67C34.60 142.34 36.59 144.16 39.11 144.16C40.46 144.16 41.40 143.60 42.07 142.87C42.18 142.76 42.23 142.62 42.23 142.47C42.23 142.15 41.97 141.87 41.63 141.87C41.46 141.87 41.28 141.95 41.18 142.08C40.64 142.67 39.88 143.01 39.11 143.01C37.29 143.01 35.94 141.61 35.94 139.67C35.94 137.72 37.29 136.33 39.11 136.33C39.86 136.33 40.67 136.69 41.18 137.28C41.28 137.42 41.46 137.49 41.62 137.49C41.96 137.49 42.23 137.21 42.23 136.89C42.23 136.73 42.18 136.59 42.07 136.47C41.41 135.73 40.46 135.19 39.11 135.19ZM49.17 139.94C49.17 138.62 48.22 137.56 46.90 137.56C45.79 137.56 45.22 138.10 44.92 138.60L44.92 135.81C44.92 135.51 44.66 135.25 44.36 135.25C44.02 135.25 43.76 135.51 43.76 135.81L43.76 143.51C43.76 143.82 44.02 144.08 44.34 144.08C44.66 144.08 44.92 143.82 44.92 143.51L44.92 140.56C44.92 139.38 45.54 138.59 46.53 138.59C47.47 138.59 48.01 139.29 48.01 140.33L48.01 143.51C48.01 143.82 48.27 144.08 48.59 144.08C48.91 144.08 49.17 143.82 49.17 143.51ZM56.09 139.75C56.09 138.15 54.92 137.56 53.56 137.56C52.72 137.56 51.77 137.84 51.17 138.44C51.09 138.53 51.06 138.63 51.06 138.74C51.06 139.01 51.30 139.19 51.54 139.19C51.63 139.19 51.73 139.15 51.82 139.09C52.29 138.72 52.81 138.54 53.40 138.54C54.28 138.54 54.93 139.01 54.93 139.80L54.93 140.15L53.12 140.15C51.82 140.15 50.68 140.66 50.68 142.08C50.68 143.45 51.82 144.16 52.86 144.16C53.84 144.16 54.42 143.86 54.93 143.30L54.93 143.51C54.93 143.88 55.23 144.08 55.46 144.08L55.50 144.08C55.83 144.08 56.09 143.82 56.09 143.51ZM54.93 140.96L54.93 141.84C54.93 142.58 54.09 143.34 53.17 143.34C52.33 143.34 51.85 142.83 51.85 142.10C51.85 141.35 52.45 140.96 53.44 140.96ZM63.34 139.97C63.34 138.64 62.38 137.56 61.05 137.56C59.96 137.56 59.40 138.10 59.10 138.60L59.10 138.20C59.10 137.90 58.84 137.64 58.54 137.64C58.21 137.64 57.95 137.90 57.95 138.20L57.95 143.51C57.95 143.82 58.21 144.08 58.52 144.08C58.84 144.08 59.10 143.82 59.10 143.51L59.10 140.49C59.10 139.42 59.67 138.59 60.68 138.59C61.61 138.59 62.18 139.32 62.18 140.36L62.18 143.51C62.18 143.82 62.44 144.08 62.76 144.08C63.08 144.08 63.34 143.82 63.34 143.51ZM70.84 138.20C70.84 137.90 70.58 137.64 70.28 137.64C69.95 137.64 69.69 137.90 69.69 138.20L69.69 138.63C69.18 137.96 68.45 137.56 67.62 137.56C65.99 137.56 64.84 138.79 64.84 140.81C64.84 142.86 66.01 144.05 67.62 144.05C68.48 144.05 69.22 143.60 69.69 142.96L69.69 143.79C69.69 145.13 68.72 145.60 67.75 145.60C67.06 145.60 66.51 145.46 66.03 145.05C65.94 144.99 65.85 144.96 65.73 144.96C65.47 144.96 65.24 145.18 65.24 145.46C65.24 145.59 65.29 145.70 65.37 145.78C65.98 146.37 66.86 146.55 67.75 146.55C69.28 146.55 70.84 145.91 70.84 143.75ZM69.69 140.83C69.69 142.12 68.84 143.03 67.80 143.03C66.63 143.03 66.03 142.10 66.03 140.81C66.03 139.50 66.63 138.59 67.80 138.59C68.84 138.59 69.69 139.49 69.69 140.78ZM78.51 140.65C78.51 140.40 78.45 140.13 78.40 139.92C78.03 138.51 76.99 137.56 75.47 137.56C73.65 137.56 72.34 139.03 72.34 140.85C72.34 142.83 73.70 144.16 75.57 144.16C76.50 144.16 78.11 143.68 78.11 142.97C78.11 142.53 77.67 142.43 77.38 142.57C76.93 142.91 76.22 143.22 75.69 143.22C74.42 143.22 73.64 142.35 73.55 141.27L77.91 141.27C78.24 141.27 78.51 140.96 78.51 140.65ZM73.55 140.41C73.60 139.54 74.21 138.50 75.46 138.50C76.80 138.50 77.37 139.57 77.39 140.41ZM85.64 135.81C85.64 135.51 85.38 135.25 85.08 135.25C84.74 135.25 84.48 135.51 84.48 135.81L84.48 138.63C83.97 137.96 83.36 137.56 82.41 137.56C80.77 137.56 79.62 138.85 79.62 140.87C79.62 142.92 80.79 144.16 82.41 144.16C83.39 144.16 84.00 143.73 84.48 143.10L84.48 143.51C84.48 143.82 84.74 144.08 85.05 144.08C85.38 144.08 85.64 143.82 85.64 143.51ZM84.48 140.91C84.48 142.21 83.83 143.13 82.71 143.13C81.54 143.13 80.81 142.18 80.81 140.87C80.81 139.55 81.54 138.59 82.71 138.59C83.83 138.59 84.48 139.54 84.48 140.83ZM96.76 135.91C96.76 135.58 96.52 135.33 96.20 135.33L91.73 135.33C91.27 135.33 90.89 135.71 90.89 136.17L90.89 143.44C90.89 143.79 91.17 144.08 91.52 144.08C91.89 144.08 92.17 143.79 92.17 143.44L92.17 140.15L96.11 140.15C96.43 140.15 96.67 139.89 96.67 139.59C96.67 139.25 96.43 139.01 96.11 139.01L92.17 139.01L92.17 136.47L96.20 136.47C96.52 136.47 96.76 136.21 96.76 135.91ZM98.65 135.39C98.25 135.39 97.91 135.73 97.91 136.15C97.91 136.55 98.25 136.89 98.65 136.89C99.06 136.89 99.39 136.55 99.39 136.15C99.39 135.73 99.06 135.39 98.65 135.39ZM99.23 138.20C99.23 137.90 98.97 137.64 98.67 137.64C98.34 137.64 98.08 137.90 98.08 138.20L98.08 143.51C98.08 143.82 98.34 144.08 98.65 144.08C98.97 144.08 99.23 143.82 99.23 143.51ZM102.26 135.81C102.26 135.51 102.00 135.25 101.70 135.25C101.37 135.25 101.11 135.51 101.11 135.81L101.11 143.51C101.11 143.82 101.37 144.08 101.68 144.08C102.00 144.08 102.26 143.82 102.26 143.51ZM109.93 140.65C109.93 140.40 109.87 140.13 109.82 139.92C109.45 138.51 108.41 137.56 106.89 137.56C105.07 137.56 103.76 139.03 103.76 140.85C103.76 142.83 105.12 144.16 106.99 144.16C107.92 144.16 109.53 143.68 109.53 142.97C109.53 142.53 109.09 142.43 108.80 142.57C108.35 142.91 107.64 143.22 107.11 143.22C105.84 143.22 105.06 142.35 104.97 141.27L109.33 141.27C109.66 141.27 109.93 140.96 109.93 140.65ZM104.97 140.41C105.02 139.54 105.63 138.50 106.88 138.50C108.22 138.50 108.79 139.57 108.81 140.41ZM116.02 142.10C115.90 139.89 112.30 140.50 112.17 139.37C112.12 138.87 112.66 138.49 113.46 138.49C114.05 138.49 114.61 138.68 115.02 138.97C115.09 139.03 115.18 139.06 115.29 139.06C115.52 139.06 115.74 138.87 115.74 138.60C115.74 138.50 115.70 138.40 115.63 138.32C115.13 137.84 114.34 137.56 113.44 137.56C111.91 137.56 110.99 138.29 111.05 139.41C111.17 141.52 114.76 140.87 114.89 142.26C114.94 142.83 114.42 143.23 113.52 143.23C112.87 143.23 112.22 142.97 111.75 142.63C111.66 142.57 111.57 142.54 111.45 142.54C111.18 142.54 110.95 142.75 110.95 143.03C110.95 143.16 111.00 143.26 111.09 143.34C111.66 143.91 112.61 144.16 113.47 144.16C115.13 144.16 116.08 143.30 116.02 142.10Z" fill="#e6edf3" /><path d="M177.40 141.15C177.40 139.40 176.09 138.34 174.62 138.34C173.83 138.34 173.12 138.66 172.71 139.07L172.71 136.95L176.10 136.95C176.53 136.95 176.89 136.59 176.89 136.15C176.89 135.69 176.53 135.33 176.10 135.33L171.90 135.33C171.33 135.33 170.86 135.80 170.86 136.37L170.86 139.70C170.86 140.20 171.23 140.58 171.80 140.58C172.06 140.58 172.31 140.50 172.51 140.36C172.98 140.05 173.44 139.94 173.97 139.94C174.96 139.94 175.53 140.46 175.53 141.23C175.53 141.93 174.94 142.52 173.92 142.52C173.29 142.52 172.69 142.35 172.19 142.04C172.03 141.95 171.86 141.89 171.71 141.89C171.25 141.89 170.82 142.25 170.82 142.73C170.82 142.86 170.86 142.99 170.93 143.10C171.33 143.78 172.80 144.16 173.93 144.16C176.02 144.16 177.40 143.00 177.40 141.15ZM185.47 139.67C185.47 137.44 184.36 135.20 181.89 135.20C179.40 135.20 178.30 137.44 178.30 139.67C178.30 141.91 179.40 144.16 181.89 144.16C184.36 144.16 185.47 141.91 185.47 139.67ZM183.59 139.67C183.59 141.27 183.12 142.52 181.89 142.52C180.64 142.52 180.17 141.27 180.17 139.67C180.17 138.07 180.64 136.84 181.89 136.84C183.12 136.84 183.59 138.07 183.59 139.67ZM192.82 136.26C192.82 135.72 192.38 135.33 191.92 135.33L186.96 135.33C186.51 135.33 186.15 135.69 186.15 136.12C186.15 136.59 186.51 136.95 186.96 136.95L190.60 136.95L188.01 142.82C187.96 142.93 187.93 143.05 187.93 143.17C187.93 143.64 188.31 144.08 188.85 144.08C189.23 144.08 189.58 143.86 189.72 143.52L192.74 136.63C192.79 136.53 192.82 136.40 192.82 136.26ZM194.57 143.36C194.57 142.52 194.01 142.04 193.40 142.04C192.86 142.04 192.39 142.50 192.39 143.08C192.39 143.64 192.78 144.01 193.27 144.01C193.37 144.01 193.48 143.99 193.52 143.97C193.44 144.31 193.16 144.72 192.82 144.99C192.73 145.07 192.69 145.17 192.69 145.27C192.69 145.53 192.96 145.69 193.18 145.69C193.31 145.69 193.43 145.65 193.52 145.56C194.17 144.97 194.57 144.19 194.57 143.36ZM202.17 141.63C202.27 140.07 201.22 139.53 201.22 139.53C201.22 139.53 202.18 139.03 202.07 137.55C201.97 136.11 200.83 135.20 198.80 135.20C197.60 135.20 196.67 135.55 195.95 136.12C195.77 136.26 195.68 136.47 195.68 136.68C195.68 137.14 196.08 137.46 196.49 137.46C196.64 137.46 196.80 137.42 196.93 137.33C197.43 137.01 198.01 136.84 198.60 136.84C199.51 136.84 200.22 137.04 200.22 137.73C200.22 138.45 199.79 138.79 198.92 138.79C198.29 138.79 198.02 139.14 198.02 139.59C198.02 140.05 198.29 140.41 198.97 140.41C199.85 140.41 200.36 140.72 200.36 141.41C200.36 142.06 199.77 142.52 198.72 142.52C198.12 142.52 197.43 142.31 196.86 141.97C196.72 141.88 196.56 141.84 196.41 141.84C195.98 141.84 195.56 142.19 195.56 142.66C195.56 142.79 195.60 142.91 195.67 143.01C196.07 143.69 197.54 144.16 198.79 144.16C200.87 144.16 202.06 143.26 202.17 141.63ZM209.80 141.63C209.90 140.07 208.85 139.53 208.85 139.53C208.85 139.53 209.81 139.03 209.71 137.55C209.60 136.11 208.46 135.20 206.43 135.20C205.23 135.20 204.30 135.55 203.58 136.12C203.40 136.26 203.31 136.47 203.31 136.68C203.31 137.14 203.71 137.46 204.12 137.46C204.27 137.46 204.43 137.42 204.56 137.33C205.06 137.01 205.64 136.84 206.24 136.84C207.15 136.84 207.85 137.04 207.85 137.73C207.85 138.45 207.42 138.79 206.55 138.79C205.92 138.79 205.65 139.14 205.65 139.59C205.65 140.05 205.92 140.41 206.60 140.41C207.48 140.41 207.99 140.72 207.99 141.41C207.99 142.06 207.41 142.52 206.35 142.52C205.75 142.52 205.06 142.31 204.49 141.97C204.35 141.88 204.19 141.84 204.04 141.84C203.61 141.84 203.19 142.19 203.19 142.66C203.19 142.79 203.23 142.91 203.30 143.01C203.70 143.69 205.17 144.16 206.42 144.16C208.50 144.16 209.69 143.26 209.80 141.63ZM217.43 141.63C217.53 140.07 216.48 139.53 216.48 139.53C216.48 139.53 217.44 139.03 217.34 137.55C217.23 136.11 216.09 135.20 214.06 135.20C212.87 135.20 211.93 135.55 211.21 136.12C211.03 136.26 210.94 136.47 210.94 136.68C210.94 137.14 211.34 137.46 211.75 137.46C211.90 137.46 212.06 137.42 212.19 137.33C212.70 137.01 213.27 136.84 213.87 136.84C214.78 136.84 215.48 137.04 215.48 137.73C215.48 138.45 215.05 138.79 214.18 138.79C213.55 138.79 213.28 139.14 213.28 139.59C213.28 140.05 213.55 140.41 214.23 140.41C215.11 140.41 215.62 140.72 215.62 141.41C215.62 142.06 215.04 142.52 213.98 142.52C213.38 142.52 212.70 142.31 212.12 141.97C211.98 141.88 211.82 141.84 211.67 141.84C211.24 141.84 210.82 142.19 210.82 142.66C210.82 142.79 210.86 142.91 210.93 143.01C211.33 143.69 212.80 144.16 214.05 144.16C216.13 144.16 217.32 143.26 217.43 141.63Z" fill="#9aa7b4" /></g><rect x="18" y="166" width="384" height="8" rx="4" fill="#21262d" /><rect x="18.00" y="166" width="266.41" height="8" rx="4" fill="#00d559" /><rect x="284.41" y="166" width="117.59" height="8" rx="4" fill="#00a5fe" /></svg>