<svg xmlns="http://www.w3.org/2000/svg" width="420" height="184" viewBox="0 0 420 184" role="img"><rect x="0.5" y="0.5" width="419" height="183" rx="10" fill="#ffffff" stroke="#f2f4f6" /><path d="M30.72 33.60C30.72 32.83 30.10 32.21 29.37 32.21L28.69 32.21L28.69 24.95C28.69 23.59 27.37 22.97 26.03 23.19C25.08 23.19 24.14 23.70 23.63 24.49L18.73 32.24C18.53 32.54 18.44 32.90 18.44 33.25C18.44 34.24 19.17 34.96 20.05 34.96L25.57 34.96L25.57 36.59C25.57 37.43 26.27 38.13 27.11 38.13C27.99 38.13 28.69 37.43 28.69 36.59L28.69 34.96L29.37 34.96C30.10 34.96 30.72 34.35 30.72 33.60ZM21.61 32.21L25.57 26.10L25.57 32.21ZM43.83 33.23C43.83 30.10 41.47 28.45 38.83 28.45C37.01 28.45 35.64 29.35 35.07 30.34C35.05 30.23 35.05 30.15 35.05 30.04C35.05 27.70 36.57 25.88 38.72 25.88C39.47 25.88 40.09 26.01 40.64 26.30C40.84 26.41 41.06 26.45 41.28 26.45C41.96 26.45 42.71 25.92 42.71 25.09C42.71 24.87 42.64 24.67 42.55 24.49C42.00 23.52 40.15 23.11 38.72 23.11C34.39 23.11 31.88 26.25 31.88 30.70C31.88 34.83 33.75 38.26 38.22 38.26C41.56 38.26 43.83 36.09 43.83 33.23ZM40.66 33.34C40.66 34.44 39.85 35.49 38.15 35.49C36.77 35.49 35.73 34.55 35.73 33.18C35.73 31.86 36.79 30.92 38.15 30.92C39.56 30.92 40.66 31.86 40.66 33.34ZM49.24 36.92C49.24 35.49 48.29 34.68 47.26 34.68C46.34 34.68 45.54 35.47 45.54 36.44C45.54 37.38 46.20 38.02 47.04 38.02C47.19 38.02 47.39 37.98 47.46 37.96C47.33 38.53 46.84 39.21 46.27 39.67C46.12 39.80 46.05 39.98 46.05 40.16C46.05 40.60 46.51 40.86 46.89 40.86C47.11 40.86 47.30 40.79 47.46 40.64C48.56 39.65 49.24 38.33 49.24 36.92ZM62.70 33.97C62.70 31.97 61.52 30.83 60.64 30.43C61.38 30.08 62.46 29.24 62.46 26.98C62.46 24.45 59.73 23.11 56.81 23.11C53.86 23.11 51.15 24.45 51.15 26.98C51.15 29.24 52.21 30.08 52.96 30.43C52.08 30.83 50.91 31.97 50.91 33.97C50.91 36.72 53.73 38.26 56.81 38.26C59.89 38.26 62.70 36.70 62.70 33.97ZM59.27 27.46C59.27 28.56 58.15 29.20 56.81 29.20C55.47 29.20 54.32 28.56 54.32 27.46C54.32 26.41 55.36 25.79 56.81 25.79C58.24 25.79 59.27 26.41 59.27 27.46ZM59.54 33.80C59.54 34.88 58.30 35.58 56.81 35.58C55.27 35.58 54.08 34.88 54.08 33.80C54.08 32.57 55.44 31.84 56.81 31.84C58.15 31.84 59.54 32.57 59.54 33.80ZM76.08 33.18C76.08 30.21 73.86 28.43 71.37 28.43C70.03 28.43 68.84 28.96 68.14 29.66L68.14 26.08L73.88 26.08C74.61 26.08 75.22 25.46 75.22 24.71C75.22 23.94 74.61 23.33 73.88 23.33L66.77 23.33C65.81 23.33 65.01 24.12 65.01 25.09L65.01 30.72C65.01 31.58 65.63 32.21 66.60 32.21C67.04 32.21 67.46 32.08 67.81 31.84C68.60 31.31 69.37 31.14 70.27 31.14C71.94 31.14 72.91 32.02 72.91 33.31C72.91 34.50 71.92 35.49 70.18 35.49C69.13 35.49 68.12 35.21 67.26 34.68C66.99 34.52 66.71 34.44 66.44 34.44C65.67 34.44 64.95 35.03 64.95 35.84C64.95 36.06 65.01 36.28 65.12 36.48C65.81 37.63 68.29 38.26 70.21 38.26C73.75 38.26 76.08 36.31 76.08 33.18ZM89.57 33.60C89.57 32.83 88.95 32.21 88.22 32.21L87.54 32.21L87.54 24.95C87.54 23.59 86.22 22.97 84.88 23.19C83.93 23.19 82.99 23.70 82.48 24.49L77.58 32.24C77.38 32.54 77.29 32.90 77.29 33.25C77.29 34.24 78.02 34.96 78.90 34.96L84.42 34.96L84.42 36.59C84.42 37.43 85.12 38.13 85.96 38.13C86.84 38.13 87.54 37.43 87.54 36.59L87.54 34.96L88.22 34.96C88.95 34.96 89.57 34.35 89.57 33.60ZM80.46 32.21L84.42 26.10L84.42 32.21ZM104.17 23.08C99.77 23.08 96.36 26.16 96.36 30.67C96.36 35.18 99.77 38.26 104.17 38.26C106.70 38.26 108.40 37.16 109.50 35.82C109.72 35.58 109.81 35.27 109.81 34.96C109.81 34.22 109.17 33.60 108.38 33.60C107.94 33.60 107.50 33.78 107.19 34.11C106.37 35.01 105.27 35.49 104.17 35.49C101.51 35.49 99.58 33.45 99.58 30.67C99.58 27.90 101.51 25.86 104.17 25.86C105.27 25.86 106.35 26.38 107.19 27.26C107.50 27.59 107.91 27.77 108.33 27.77C109.15 27.77 109.83 27.15 109.83 26.36C109.83 26.08 109.72 25.75 109.52 25.50C108.40 24.16 106.70 23.08 104.17 23.08ZM122.68 32.68C122.68 29.66 120.56 27.11 117.04 27.11C113.55 27.11 111.43 29.66 111.43 32.68C111.43 35.71 113.55 38.26 117.04 38.26C120.56 38.26 122.68 35.71 122.68 32.68ZM119.77 32.68C119.77 34.35 118.78 35.78 117.04 35.78C115.31 35.78 114.34 34.35 114.34 32.68C114.34 31.03 115.31 29.60 117.04 29.60C118.78 29.60 119.77 31.03 119.77 32.68ZM140.74 31.20C140.74 29.02 139.22 27.11 136.82 27.11C134.97 27.11 133.92 28.19 133.52 28.94C133.13 28.17 132.14 27.11 130.35 27.11C128.73 27.11 127.98 27.70 127.54 28.28L127.54 28.25C127.54 27.95 127.14 27.24 126.17 27.24C125.36 27.24 124.74 27.86 124.74 28.61L124.74 36.75C124.74 37.52 125.36 38.13 126.13 38.13C126.92 38.13 127.54 37.52 127.54 36.75L127.54 31.73C127.54 30.70 128.33 29.60 129.52 29.60C130.66 29.60 131.32 30.74 131.32 31.73L131.32 36.75C131.32 37.52 131.94 38.13 132.71 38.13C133.52 38.13 134.14 37.52 134.14 36.75L134.14 31.93C134.14 30.70 134.91 29.60 136.12 29.60C137.26 29.60 137.92 30.74 137.92 31.73L137.92 36.75C137.92 37.52 138.54 38.13 139.31 38.13C140.12 38.13 140.74 37.52 140.74 36.75ZM159.48 31.20C159.48 29.02 157.96 27.11 155.57 27.11C153.72 27.11 152.66 28.19 152.27 28.94C151.87 28.17 150.88 27.11 149.10 27.11C147.47 27.11 146.72 27.70 146.28 28.28L146.28 28.25C146.28 27.95 145.89 27.24 144.92 27.24C144.10 27.24 143.49 27.86 143.49 28.61L143.49 36.75C143.49 37.52 144.10 38.13 144.87 38.13C145.67 38.13 146.28 37.52 146.28 36.75L146.28 31.73C146.28 30.70 147.07 29.60 148.26 29.60C149.41 29.60 150.07 30.74 150.07 31.73L150.07 36.75C150.07 37.52 150.68 38.13 151.45 38.13C152.27 38.13 152.88 37.52 152.88 36.75L152.88 31.93C152.88 30.70 153.65 29.60 154.86 29.60C156.01 29.60 156.67 30.74 156.67 31.73L156.67 36.75C156.67 37.52 157.28 38.13 158.05 38.13C158.87 38.13 159.48 37.52 159.48 36.75ZM163.62 22.91C162.72 22.91 161.95 23.63 161.95 24.56C161.95 25.48 162.72 26.23 163.62 26.23C164.54 26.23 165.29 25.48 165.29 24.56C165.29 23.63 164.54 22.91 163.62 22.91ZM165.03 28.61C165.03 27.86 164.41 27.24 163.66 27.24C162.85 27.24 162.23 27.86 162.23 28.61L162.23 36.75C162.23 37.52 162.85 38.13 163.62 38.13C164.41 38.13 165.03 37.52 165.03 36.75ZM173.61 36.99C173.61 36.31 173.17 35.78 172.37 35.78L172.13 35.78C171.69 35.78 171.16 35.45 171.16 34.61L171.16 29.82L172.26 29.82C172.90 29.82 173.45 29.27 173.45 28.61C173.45 27.92 172.90 27.37 172.26 27.37L171.16 27.37L171.16 25.72C171.16 24.95 170.55 24.34 169.78 24.34C168.96 24.34 168.35 24.95 168.35 25.72L168.35 27.37L167.67 27.37C167.01 27.37 166.46 27.92 166.46 28.56C166.46 29.27 167.01 29.82 167.67 29.82L168.35 29.82L168.35 35.36C168.35 37.25 169.40 38.26 171.36 38.26C173.19 38.26 173.61 37.69 173.61 36.99ZM183.66 34.85C183.66 30.56 177.37 31.88 177.37 30.30C177.37 29.71 178.03 29.24 179.04 29.24C179.90 29.24 180.76 29.49 181.44 29.88C181.59 29.97 181.79 30.01 181.97 30.01C182.54 30.01 183.07 29.55 183.07 28.96C183.07 28.76 183 28.56 182.89 28.41C182.30 27.55 180.40 27.11 179.02 27.11C176.22 27.11 174.66 28.67 174.66 30.45C174.66 34.63 180.98 33.20 180.98 34.96C180.98 35.62 180.40 36.11 179.19 36.11C178.27 36.11 177.17 35.73 176.33 35.25C176.16 35.14 175.96 35.10 175.76 35.10C175.17 35.10 174.60 35.60 174.60 36.26C174.60 36.48 174.66 36.68 174.79 36.86C175.45 37.80 177.68 38.26 179.06 38.26C182.01 38.26 183.66 36.79 183.66 34.85Z" fill="#22272e" /><path d="M20.26 49.88C20.26 49.54 19.98 49.25 19.64 49.25C19.26 49.25 18.98 49.54 18.98 49.88L18.98 57.44C18.98 57.79 19.26 58.08 19.61 58.08C19.98 58.08 20.26 57.79 20.26 57.44ZM27.55 53.97C27.55 52.64 26.59 51.56 25.27 51.56C24.18 51.56 23.62 52.10 23.32 52.60L23.32 52.20C23.32 51.90 23.06 51.64 22.76 51.64C22.42 51.64 22.16 51.90 22.16 52.20L22.16 57.51C22.16 57.82 22.42 58.08 22.73 58.08C23.06 58.08 23.32 57.82 23.32 57.51L23.32 54.49C23.32 53.42 23.89 52.59 24.89 52.59C25.83 52.59 26.40 53.32 26.40 54.36L26.40 57.51C26.40 57.82 26.66 58.08 26.97 58.08C27.30 58.08 27.55 57.82 27.55 57.51ZM38.97 49.91C38.97 49.58 38.72 49.33 38.41 49.33L32.70 49.33C32.39 49.33 32.14 49.58 32.14 49.89C32.14 50.21 32.39 50.47 32.70 50.47L34.91 50.47L34.91 57.44C34.91 57.79 35.20 58.08 35.55 58.08C35.91 58.08 36.20 57.79 36.20 57.44L36.20 50.47L38.41 50.47C38.72 50.47 38.97 50.21 38.97 49.91ZM44.74 54.85C44.74 53.05 43.53 51.56 41.57 51.56C39.62 51.56 38.41 53.05 38.41 54.85C38.41 56.66 39.62 58.16 41.57 58.16C43.53 58.16 44.74 56.66 44.74 54.85ZM43.53 54.85C43.53 56.06 42.83 57.13 41.57 57.13C40.32 57.13 39.61 56.06 39.61 54.85C39.61 53.66 40.32 52.59 41.57 52.59C42.83 52.59 43.53 53.66 43.53 54.85ZM49.16 57.55C49.16 57.27 48.95 57.06 48.67 57.06C48.54 57.06 48.38 57.13 48.24 57.13C47.86 57.13 47.63 56.83 47.63 56.35L47.63 52.73L48.48 52.73C48.76 52.73 48.98 52.51 48.98 52.24C48.98 51.94 48.76 51.72 48.48 51.72L47.63 51.72L47.63 50.49C47.63 50.19 47.37 49.93 47.05 49.93C46.72 49.93 46.46 50.19 46.46 50.49L46.46 51.72L45.85 51.72C45.56 51.72 45.34 51.94 45.34 52.22C45.34 52.51 45.56 52.73 45.85 52.73L46.46 52.73L46.46 56.62C46.46 57.61 46.98 58.16 47.96 58.16C48.65 58.16 49.16 57.96 49.16 57.55ZM55.26 53.75C55.26 52.15 54.09 51.56 52.74 51.56C51.89 51.56 50.94 51.84 50.34 52.44C50.27 52.53 50.23 52.63 50.23 52.73C50.23 53.01 50.47 53.19 50.71 53.19C50.80 53.19 50.90 53.15 50.99 53.09C51.46 52.72 51.98 52.54 52.57 52.54C53.45 52.54 54.10 53.01 54.10 53.80L54.10 54.15L52.29 54.15C50.99 54.15 49.85 54.66 49.85 56.08C49.85 57.45 50.99 58.16 52.03 58.16C53.01 58.16 53.59 57.86 54.10 57.30L54.10 57.51C54.10 57.88 54.40 58.08 54.63 58.08L54.67 58.08C55.00 58.08 55.26 57.82 55.26 57.51ZM54.10 54.96L54.10 55.84C54.10 56.58 53.26 57.34 52.35 57.34C51.50 57.34 51.02 56.83 51.02 56.10C51.02 55.35 51.62 54.96 52.61 54.96ZM58.27 49.81C58.27 49.51 58.01 49.25 57.71 49.25C57.38 49.25 57.12 49.51 57.12 49.81L57.12 57.51C57.12 57.82 57.38 58.08 57.69 58.08C58.01 58.08 58.27 57.82 58.27 57.51Z" fill="#627386" /><line x1="18" y1="76" x2="48" y2="76" stroke="#627386" stroke-opacity="0.4" /><g aria-label="Additions: 27,832,548"><circle cx="22" cy="96" r="4" fill="#00d559" /><path d="M42.28 99.39C42.28 99.31 42.27 99.23 42.23 99.14L39.36 91.94C39.19 91.51 38.76 91.24 38.30 91.25C37.85 91.25 37.43 91.52 37.28 91.94L34.40 99.14C34.38 99.23 34.36 99.31 34.36 99.39C34.36 99.74 34.65 100.08 35.05 100.08C35.33 100.08 35.57 99.92 35.68 99.66L36.25 98.19L40.40 98.19L40.97 99.66C41.07 99.92 41.32 100.08 41.59 100.08C42.01 100.08 42.28 99.71 42.28 99.39ZM38.32 92.64L40.03 97.06L36.61 97.06ZM49.22 91.81C49.22 91.51 48.96 91.25 48.66 91.25C48.33 91.25 48.07 91.51 48.07 91.81L48.07 94.63C47.56 93.95 46.95 93.56 46.00 93.56C44.36 93.56 43.20 94.85 43.20 96.87C43.20 98.92 44.37 100.16 46.00 100.16C46.97 100.16 47.59 99.73 48.07 99.10L48.07 99.51C48.07 99.82 48.33 100.08 48.64 100.08C48.96 100.08 49.22 99.82 49.22 99.51ZM48.07 96.91C48.07 98.21 47.42 99.13 46.30 99.13C45.13 99.13 44.40 98.18 44.40 96.87C44.40 95.55 45.13 94.59 46.30 94.59C47.42 94.59 48.07 95.54 48.07 96.83ZM56.74 91.81C56.74 91.51 56.48 91.25 56.18 91.25C55.84 91.25 55.58 91.51 55.58 91.81L55.58 94.63C55.07 93.95 54.46 93.56 53.51 93.56C51.88 93.56 50.72 94.85 50.72 96.87C50.72 98.92 51.89 100.16 53.51 100.16C54.49 100.16 55.10 99.73 55.58 99.10L55.58 99.51C55.58 99.82 55.84 100.08 56.15 100.08C56.48 100.08 56.74 99.82 56.74 99.51ZM55.58 96.91C55.58 98.21 54.93 99.13 53.81 99.13C52.64 99.13 51.91 98.18 51.91 96.87C51.91 95.55 52.64 94.59 53.81 94.59C54.93 94.59 55.58 95.54 55.58 96.83ZM59.18 91.39C58.78 91.39 58.44 91.73 58.44 92.15C58.44 92.55 58.78 92.89 59.18 92.89C59.60 92.89 59.92 92.55 59.92 92.15C59.92 91.73 59.60 91.39 59.18 91.39ZM59.77 94.20C59.77 93.90 59.51 93.64 59.21 93.64C58.87 93.64 58.61 93.90 58.61 94.20L58.61 99.51C58.61 99.82 58.87 100.08 59.18 100.08C59.51 100.08 59.77 99.82 59.77 99.51ZM64.56 99.55C64.56 99.27 64.36 99.06 64.07 99.06C63.94 99.06 63.78 99.13 63.64 99.13C63.26 99.13 63.03 98.83 63.03 98.35L63.03 94.73L63.89 94.73C64.16 94.73 64.38 94.51 64.38 94.24C64.38 93.94 64.16 93.72 63.89 93.72L63.03 93.72L63.03 92.49C63.03 92.19 62.77 91.93 62.46 91.93C62.12 91.93 61.86 92.19 61.86 92.49L61.86 93.72L61.25 93.72C60.96 93.72 60.74 93.94 60.74 94.22C60.74 94.51 60.96 94.73 61.25 94.73L61.86 94.73L61.86 98.62C61.86 99.61 62.38 100.16 63.37 100.16C64.06 100.16 64.56 99.96 64.56 99.55ZM66.19 91.39C65.79 91.39 65.45 91.73 65.45 92.15C65.45 92.55 65.79 92.89 66.19 92.89C66.60 92.89 66.93 92.55 66.93 92.15C66.93 91.73 66.60 91.39 66.19 91.39ZM66.77 94.20C66.77 93.90 66.51 93.64 66.21 93.64C65.88 93.64 65.62 93.90 65.62 94.20L65.62 99.51C65.62 99.82 65.88 100.08 66.19 100.08C66.51 100.08 66.77 99.82 66.77 99.51ZM74.60 96.85C74.60 95.05 73.39 93.56 71.43 93.56C69.48 93.56 68.27 95.05 68.27 96.85C68.27 98.66 69.48 100.16 71.43 100.16C73.39 100.16 74.60 98.66 74.60 96.85ZM73.39 96.85C73.39 98.06 72.69 99.13 71.43 99.13C70.18 99.13 69.46 98.06 69.46 96.85C69.46 95.66 70.18 94.59 71.43 94.59C72.69 94.59 73.39 95.66 73.39 96.85ZM81.49 95.97C81.49 94.64 80.53 93.56 79.20 93.56C78.11 93.56 77.55 94.10 77.25 94.61L77.25 94.20C77.25 93.90 76.99 93.64 76.69 93.64C76.35 93.64 76.09 93.90 76.09 94.20L76.09 99.51C76.09 99.82 76.35 100.08 76.67 100.08C76.99 100.08 77.25 99.82 77.25 99.51L77.25 96.49C77.25 95.42 77.82 94.59 78.82 94.59C79.76 94.59 80.33 95.32 80.33 96.36L80.33 99.51C80.33 99.82 80.59 100.08 80.90 100.08C81.23 100.08 81.49 99.82 81.49 99.51ZM87.96 98.10C87.85 95.89 84.24 96.50 84.11 95.37C84.06 94.86 84.61 94.49 85.40 94.49C86 94.49 86.56 94.68 86.96 94.97C87.04 95.03 87.13 95.06 87.23 95.06C87.47 95.06 87.69 94.86 87.69 94.61C87.69 94.50 87.65 94.40 87.57 94.32C87.08 93.84 86.29 93.56 85.39 93.56C83.86 93.56 82.93 94.29 83.00 95.41C83.11 97.52 86.70 96.87 86.83 98.26C86.88 98.83 86.36 99.23 85.47 99.23C84.82 99.23 84.17 98.97 83.70 98.64C83.61 98.57 83.52 98.54 83.40 98.54C83.13 98.54 82.89 98.75 82.89 99.03C82.89 99.16 82.94 99.26 83.04 99.34C83.61 99.91 84.56 100.16 85.41 100.16C87.08 100.16 88.03 99.30 87.96 98.10Z" fill="#22272e" /><path d="M158.04 99.17C158.04 98.74 157.68 98.38 157.25 98.38L154.43 98.38C156.68 96.74 157.90 95.45 157.90 93.97C157.90 92.24 156.43 91.20 154.59 91.20C153.49 91.20 152.04 91.67 151.62 92.33C151.54 92.45 151.50 92.58 151.50 92.71C151.50 93.17 151.88 93.54 152.31 93.54C152.51 93.54 152.68 93.49 152.84 93.37C153.34 93.03 153.94 92.84 154.63 92.84C155.34 92.84 156.03 93.21 156.03 93.97C156.03 94.98 154.99 95.93 151.75 98.32C151.50 98.50 151.36 98.80 151.36 99.10C151.36 99.62 151.78 100 152.23 100L157.25 100C157.68 100 158.04 99.64 158.04 99.17ZM165.53 92.27C165.53 91.72 165.09 91.33 164.64 91.33L159.67 91.33C159.23 91.33 158.86 91.69 158.86 92.12C158.86 92.59 159.23 92.95 159.67 92.95L163.31 92.95L160.72 98.82C160.67 98.93 160.64 99.05 160.64 99.17C160.64 99.64 161.02 100.08 161.57 100.08C161.94 100.08 162.30 99.86 162.44 99.52L165.45 92.63C165.51 92.53 165.53 92.39 165.53 92.27ZM167.29 99.36C167.29 98.52 166.73 98.04 166.12 98.04C165.57 98.04 165.10 98.50 165.10 99.08C165.10 99.64 165.49 100.01 165.99 100.01C166.08 100.01 166.20 99.99 166.23 99.97C166.16 100.31 165.87 100.72 165.53 100.99C165.44 101.07 165.40 101.17 165.40 101.27C165.40 101.53 165.68 101.69 165.90 101.69C166.03 101.69 166.14 101.65 166.23 101.56C166.88 100.97 167.29 100.19 167.29 99.36ZM175.24 97.62C175.24 96.44 174.54 95.76 174.02 95.53C174.46 95.32 175.10 94.83 175.10 93.49C175.10 91.99 173.49 91.20 171.76 91.20C170.02 91.20 168.42 91.99 168.42 93.49C168.42 94.83 169.04 95.32 169.48 95.53C168.96 95.76 168.28 96.44 168.28 97.62C168.28 99.25 169.94 100.16 171.76 100.16C173.58 100.16 175.24 99.23 175.24 97.62ZM173.22 93.77C173.22 94.42 172.55 94.80 171.76 94.80C170.97 94.80 170.29 94.42 170.29 93.77C170.29 93.15 170.90 92.78 171.76 92.78C172.60 92.78 173.22 93.15 173.22 93.77ZM173.37 97.52C173.37 98.15 172.64 98.57 171.76 98.57C170.85 98.57 170.15 98.15 170.15 97.52C170.15 96.79 170.95 96.36 171.76 96.36C172.55 96.36 173.37 96.79 173.37 97.52ZM182.76 97.63C182.86 96.07 181.81 95.53 181.81 95.53C181.81 95.53 182.77 95.03 182.67 93.55C182.56 92.11 181.42 91.20 179.39 91.20C178.19 91.20 177.26 91.55 176.54 92.12C176.36 92.27 176.27 92.47 176.27 92.68C176.27 93.14 176.67 93.46 177.08 93.46C177.23 93.46 177.39 93.42 177.52 93.33C178.03 93.01 178.60 92.84 179.20 92.84C180.11 92.84 180.81 93.05 180.81 93.73C180.81 94.45 180.38 94.79 179.51 94.79C178.88 94.79 178.61 95.14 178.61 95.59C178.61 96.05 178.88 96.41 179.56 96.41C180.44 96.41 180.95 96.72 180.95 97.41C180.95 98.06 180.37 98.52 179.31 98.52C178.71 98.52 178.03 98.31 177.45 97.97C177.31 97.88 177.15 97.84 177.00 97.84C176.57 97.84 176.15 98.19 176.15 98.66C176.15 98.79 176.19 98.91 176.26 99.01C176.66 99.69 178.13 100.16 179.38 100.16C181.46 100.16 182.65 99.26 182.76 97.63ZM190.54 99.17C190.54 98.74 190.18 98.38 189.75 98.38L186.93 98.38C189.18 96.74 190.40 95.45 190.40 93.97C190.40 92.24 188.93 91.20 187.09 91.20C185.99 91.20 184.54 91.67 184.12 92.33C184.04 92.45 184.01 92.58 184.01 92.71C184.01 93.17 184.38 93.54 184.81 93.54C185.01 93.54 185.18 93.49 185.34 93.37C185.84 93.03 186.44 92.84 187.13 92.84C187.84 92.84 188.53 93.21 188.53 93.97C188.53 94.98 187.49 95.93 184.25 98.32C184.01 98.50 183.86 98.80 183.86 99.10C183.86 99.62 184.28 100 184.73 100L189.75 100C190.18 100 190.54 99.64 190.54 99.17ZM193.92 99.36C193.92 98.52 193.37 98.04 192.75 98.04C192.21 98.04 191.74 98.50 191.74 99.08C191.74 99.64 192.13 100.01 192.62 100.01C192.72 100.01 192.83 99.99 192.87 99.97C192.79 100.31 192.51 100.72 192.17 100.99C192.08 101.07 192.04 101.17 192.04 101.27C192.04 101.53 192.31 101.69 192.53 101.69C192.66 101.69 192.78 101.65 192.87 101.56C193.52 100.97 193.92 100.19 193.92 99.36ZM201.91 97.15C201.91 95.40 200.59 94.34 199.12 94.34C198.33 94.34 197.63 94.66 197.21 95.07L197.21 92.95L200.61 92.95C201.04 92.95 201.40 92.59 201.40 92.15C201.40 91.69 201.04 91.33 200.61 91.33L196.41 91.33C195.84 91.33 195.37 91.80 195.37 92.37L195.37 95.70C195.37 96.20 195.73 96.58 196.30 96.58C196.56 96.58 196.81 96.50 197.02 96.36C197.49 96.05 197.94 95.94 198.47 95.94C199.46 95.94 200.03 96.46 200.03 97.23C200.03 97.93 199.45 98.52 198.42 98.52C197.80 98.52 197.20 98.35 196.69 98.04C196.54 97.95 196.37 97.89 196.21 97.89C195.76 97.89 195.33 98.25 195.33 98.73C195.33 98.86 195.37 98.99 195.43 99.10C195.84 99.78 197.30 100.16 198.44 100.16C200.53 100.16 201.91 99.00 201.91 97.15ZM209.88 97.40C209.88 96.94 209.51 96.58 209.08 96.58L208.68 96.58L208.68 92.29C208.68 91.48 207.90 91.12 207.11 91.25C206.55 91.25 205.99 91.55 205.69 92.02L202.79 96.59C202.67 96.78 202.62 96.98 202.62 97.19C202.62 97.78 203.05 98.21 203.57 98.21L206.83 98.21L206.83 99.17C206.83 99.66 207.25 100.08 207.74 100.08C208.26 100.08 208.68 99.66 208.68 99.17L208.68 98.21L209.08 98.21C209.51 98.21 209.88 97.84 209.88 97.40ZM204.49 96.58L206.83 92.97L206.83 96.58ZM217.55 97.62C217.55 96.44 216.84 95.76 216.32 95.53C216.77 95.32 217.40 94.83 217.40 93.49C217.40 91.99 215.79 91.20 214.06 91.20C212.32 91.20 210.72 91.99 210.72 93.49C210.72 94.83 211.34 95.32 211.79 95.53C211.27 95.76 210.58 96.44 210.58 97.62C210.58 99.25 212.24 100.16 214.06 100.16C215.88 100.16 217.55 99.23 217.55 97.62ZM215.52 93.77C215.52 94.42 214.85 94.80 214.06 94.80C213.27 94.80 212.59 94.42 212.59 93.77C212.59 93.15 213.20 92.78 214.06 92.78C214.91 92.78 215.52 93.15 215.52 93.77ZM215.67 97.52C215.67 98.15 214.95 98.57 214.06 98.57C213.15 98.57 212.45 98.15 212.45 97.52C212.45 96.79 213.26 96.36 214.06 96.36C214.85 96.36 215.67 96.79 215.67 97.52Z" fill="#627386" /></g><g aria-label="Deletions: 12,839,948"><circle cx="22" cy="118" r="4" fill="#00a5fe" /><path d="M42.54 117.67C42.54 115.17 40.76 113.33 38.06 113.33L35.82 113.33C35.35 113.33 34.98 113.71 34.98 114.17L34.98 121.16C34.98 121.62 35.35 122 35.82 122L38.06 122C40.76 122 42.54 120.18 42.54 117.67ZM41.23 117.67C41.23 119.43 40.06 120.86 38.06 120.86L36.26 120.86L36.26 114.47L38.06 114.47C40.11 114.47 41.23 115.89 41.23 117.67ZM49.90 118.65C49.90 118.40 49.83 118.13 49.78 117.92C49.42 116.51 48.38 115.56 46.86 115.56C45.04 115.56 43.72 117.03 43.72 118.85C43.72 120.83 45.09 122.16 46.96 122.16C47.88 122.16 49.50 121.67 49.50 120.97C49.50 120.53 49.05 120.43 48.77 120.57C48.31 120.91 47.61 121.22 47.08 121.22C45.80 121.22 45.02 120.35 44.93 119.27L49.30 119.27C49.63 119.27 49.90 118.96 49.90 118.65ZM44.93 118.41C44.98 117.54 45.60 116.50 46.84 116.50C48.18 116.50 48.76 117.57 48.78 118.41ZM52.54 113.81C52.54 113.51 52.28 113.25 51.98 113.25C51.64 113.25 51.38 113.51 51.38 113.81L51.38 121.51C51.38 121.82 51.64 122.08 51.95 122.08C52.28 122.08 52.54 121.82 52.54 121.51ZM60.21 118.65C60.21 118.40 60.14 118.13 60.09 117.92C59.73 116.51 58.69 115.56 57.17 115.56C55.35 115.56 54.03 117.03 54.03 118.85C54.03 120.83 55.40 122.16 57.27 122.16C58.19 122.16 59.81 121.67 59.81 120.97C59.81 120.53 59.36 120.43 59.08 120.57C58.62 120.91 57.92 121.22 57.39 121.22C56.11 121.22 55.33 120.35 55.24 119.27L59.61 119.27C59.94 119.27 60.21 118.96 60.21 118.65ZM55.24 118.41C55.29 117.54 55.91 116.50 57.15 116.50C58.49 116.50 59.06 117.57 59.09 118.41ZM64.62 121.55C64.62 121.27 64.41 121.06 64.12 121.06C63.99 121.06 63.84 121.13 63.69 121.13C63.32 121.13 63.08 120.83 63.08 120.35L63.08 116.73L63.94 116.73C64.21 116.73 64.43 116.51 64.43 116.24C64.43 115.94 64.21 115.72 63.94 115.72L63.08 115.72L63.08 114.49C63.08 114.19 62.82 113.93 62.51 113.93C62.17 113.93 61.91 114.19 61.91 114.49L61.91 115.72L61.30 115.72C61.01 115.72 60.79 115.94 60.79 116.22C60.79 116.51 61.01 116.73 61.30 116.73L61.91 116.73L61.91 120.62C61.91 121.61 62.43 122.16 63.42 122.16C64.11 122.16 64.62 121.96 64.62 121.55ZM66.24 113.39C65.84 113.39 65.50 113.73 65.50 114.15C65.50 114.55 65.84 114.89 66.24 114.89C66.66 114.89 66.98 114.55 66.98 114.15C66.98 113.73 66.66 113.39 66.24 113.39ZM66.83 116.20C66.83 115.90 66.56 115.64 66.27 115.64C65.93 115.64 65.67 115.90 65.67 116.20L65.67 121.51C65.67 121.82 65.93 122.08 66.24 122.08C66.56 122.08 66.83 121.82 66.83 121.51ZM74.65 118.85C74.65 117.05 73.44 115.56 71.48 115.56C69.53 115.56 68.32 117.05 68.32 118.85C68.32 120.66 69.53 122.16 71.48 122.16C73.44 122.16 74.65 120.66 74.65 118.85ZM73.44 118.85C73.44 120.06 72.74 121.13 71.48 121.13C70.23 121.13 69.52 120.06 69.52 118.85C69.52 117.66 70.23 116.59 71.48 116.59C72.74 116.59 73.44 117.66 73.44 118.85ZM81.54 117.97C81.54 116.64 80.58 115.56 79.25 115.56C78.16 115.56 77.60 116.10 77.30 116.61L77.30 116.20C77.30 115.90 77.04 115.64 76.74 115.64C76.41 115.64 76.15 115.90 76.15 116.20L76.15 121.51C76.15 121.82 76.41 122.08 76.72 122.08C77.04 122.08 77.30 121.82 77.30 121.51L77.30 118.49C77.30 117.42 77.88 116.59 78.88 116.59C79.81 116.59 80.38 117.32 80.38 118.36L80.38 121.51C80.38 121.82 80.64 122.08 80.96 122.08C81.28 122.08 81.54 121.82 81.54 121.51ZM88.01 120.10C87.90 117.89 84.30 118.50 84.17 117.37C84.11 116.86 84.66 116.49 85.45 116.49C86.05 116.49 86.61 116.68 87.01 116.97C87.09 117.03 87.18 117.06 87.29 117.06C87.52 117.06 87.74 116.86 87.74 116.61C87.74 116.50 87.70 116.40 87.62 116.32C87.13 115.84 86.34 115.56 85.44 115.56C83.91 115.56 82.98 116.29 83.05 117.41C83.17 119.52 86.75 118.87 86.88 120.26C86.94 120.83 86.42 121.23 85.52 121.23C84.87 121.23 84.22 120.97 83.75 120.64C83.66 120.57 83.57 120.54 83.45 120.54C83.18 120.54 82.94 120.75 82.94 121.03C82.94 121.16 83.00 121.26 83.09 121.34C83.66 121.91 84.61 122.16 85.47 122.16C87.13 122.16 88.08 121.30 88.01 120.10Z" fill="#22272e" /><path d="M156.00 114.32C156.00 113.73 155.51 113.26 154.92 113.26C154.62 113.26 154.34 113.38 154.14 113.58L152.14 115.60C151.99 115.76 151.91 115.95 151.91 116.15C151.91 116.58 152.27 116.92 152.67 116.92C152.86 116.92 153.04 116.85 153.18 116.71L154.16 115.71L154.16 121.17C154.16 121.66 154.57 122.08 155.07 122.08C155.59 122.08 156.00 121.66 156.00 121.17ZM164.08 121.17C164.08 120.74 163.71 120.38 163.28 120.38L160.46 120.38C162.71 118.74 163.93 117.45 163.93 115.97C163.93 114.24 162.46 113.20 160.62 113.20C159.53 113.20 158.07 113.67 157.65 114.33C157.58 114.45 157.54 114.58 157.54 114.71C157.54 115.17 157.91 115.54 158.34 115.54C158.54 115.54 158.71 115.49 158.88 115.37C159.37 115.03 159.97 114.84 160.66 114.84C161.37 114.84 162.06 115.21 162.06 115.97C162.06 116.98 161.02 117.93 157.78 120.32C157.54 120.50 157.39 120.80 157.39 121.10C157.39 121.62 157.81 122 158.26 122L163.28 122C163.71 122 164.08 121.64 164.08 121.17ZM167.46 121.36C167.46 120.52 166.90 120.04 166.29 120.04C165.74 120.04 165.27 120.50 165.27 121.08C165.27 121.64 165.66 122.01 166.16 122.01C166.25 122.01 166.36 121.99 166.40 121.97C166.32 122.31 166.04 122.72 165.70 122.99C165.61 123.07 165.57 123.17 165.57 123.27C165.57 123.53 165.84 123.69 166.06 123.69C166.19 123.69 166.31 123.65 166.40 123.56C167.05 122.97 167.46 122.19 167.46 121.36ZM175.41 119.62C175.41 118.44 174.71 117.76 174.19 117.53C174.63 117.32 175.27 116.83 175.27 115.49C175.27 113.99 173.66 113.20 171.93 113.20C170.19 113.20 168.59 113.99 168.59 115.49C168.59 116.83 169.21 117.32 169.65 117.53C169.13 117.76 168.44 118.44 168.44 119.62C168.44 121.25 170.11 122.16 171.93 122.16C173.75 122.16 175.41 121.23 175.41 119.62ZM173.38 115.77C173.38 116.42 172.72 116.80 171.93 116.80C171.13 116.80 170.46 116.42 170.46 115.77C170.46 115.15 171.07 114.78 171.93 114.78C172.77 114.78 173.38 115.15 173.38 115.77ZM173.54 119.52C173.54 120.15 172.81 120.57 171.93 120.57C171.02 120.57 170.32 120.15 170.32 119.52C170.32 118.79 171.12 118.36 171.93 118.36C172.72 118.36 173.54 118.79 173.54 119.52ZM182.93 119.63C183.03 118.07 181.98 117.53 181.98 117.53C181.98 117.53 182.94 117.03 182.83 115.55C182.73 114.11 181.59 113.20 179.56 113.20C178.36 113.20 177.43 113.55 176.71 114.12C176.53 114.27 176.44 114.47 176.44 114.68C176.44 115.14 176.84 115.46 177.25 115.46C177.40 115.46 177.56 115.42 177.69 115.33C178.19 115.01 178.77 114.84 179.36 114.84C180.27 114.84 180.98 115.05 180.98 115.73C180.98 116.45 180.55 116.79 179.68 116.79C179.05 116.79 178.78 117.14 178.78 117.59C178.78 118.05 179.05 118.41 179.73 118.41C180.61 118.41 181.12 118.72 181.12 119.41C181.12 120.06 180.53 120.52 179.48 120.52C178.88 120.52 178.19 120.31 177.62 119.97C177.48 119.88 177.32 119.84 177.17 119.84C176.74 119.84 176.32 120.19 176.32 120.66C176.32 120.79 176.36 120.91 176.43 121.01C176.83 121.69 178.30 122.16 179.55 122.16C181.63 122.16 182.82 121.26 182.93 119.63ZM183.89 116.16C183.89 118.01 185.28 118.98 186.84 118.98C187.92 118.98 188.72 118.45 189.06 117.87C189.07 117.93 189.07 117.98 189.07 118.05C189.07 119.43 188.18 120.50 186.90 120.50C186.46 120.50 186.10 120.43 185.77 120.26C185.66 120.19 185.53 120.17 185.40 120.17C184.99 120.17 184.55 120.48 184.55 120.97C184.55 121.10 184.59 121.22 184.64 121.32C184.97 121.90 186.06 122.14 186.90 122.14C189.47 122.14 190.95 120.28 190.95 117.66C190.95 115.21 189.84 113.19 187.20 113.19C185.23 113.19 183.89 114.47 183.89 116.16ZM185.76 116.10C185.76 115.45 186.24 114.82 187.24 114.82C188.06 114.82 188.67 115.38 188.67 116.19C188.67 116.97 188.05 117.53 187.24 117.53C186.41 117.53 185.76 116.97 185.76 116.10ZM193.92 121.36C193.92 120.52 193.36 120.04 192.75 120.04C192.21 120.04 191.74 120.50 191.74 121.08C191.74 121.64 192.13 122.01 192.62 122.01C192.72 122.01 192.83 121.99 192.87 121.97C192.79 122.31 192.51 122.72 192.17 122.99C192.08 123.07 192.04 123.17 192.04 123.27C192.04 123.53 192.31 123.69 192.53 123.69C192.66 123.69 192.78 123.65 192.87 123.56C193.52 122.97 193.92 122.19 193.92 121.36ZM194.85 116.16C194.85 118.01 196.24 118.98 197.80 118.98C198.88 118.98 199.68 118.45 200.02 117.87C200.03 117.93 200.03 117.98 200.03 118.05C200.03 119.43 199.14 120.50 197.86 120.50C197.42 120.50 197.06 120.43 196.73 120.26C196.61 120.19 196.48 120.17 196.35 120.17C195.95 120.17 195.51 120.48 195.51 120.97C195.51 121.10 195.55 121.22 195.60 121.32C195.93 121.90 197.02 122.14 197.86 122.14C200.42 122.14 201.91 120.28 201.91 117.66C201.91 115.21 200.80 113.19 198.16 113.19C196.19 113.19 194.85 114.47 194.85 116.16ZM196.72 116.10C196.72 115.45 197.20 114.82 198.20 114.82C199.02 114.82 199.63 115.38 199.63 116.19C199.63 116.97 199.01 117.53 198.20 117.53C197.37 117.53 196.72 116.97 196.72 116.10ZM209.88 119.40C209.88 118.94 209.51 118.58 209.08 118.58L208.68 118.58L208.68 114.29C208.68 113.48 207.90 113.12 207.11 113.25C206.55 113.25 205.99 113.55 205.69 114.02L202.79 118.59C202.67 118.78 202.62 118.98 202.62 119.19C202.62 119.78 203.05 120.21 203.57 120.21L206.83 120.21L206.83 121.17C206.83 121.66 207.25 122.08 207.74 122.08C208.26 122.08 208.68 121.66 208.68 121.17L208.68 120.21L209.08 120.21C209.51 120.21 209.88 119.84 209.88 119.40ZM204.49 118.58L206.83 114.97L206.83 118.58ZM217.54 119.62C217.54 118.44 216.84 117.76 216.32 117.53C216.76 117.32 217.40 116.83 217.40 115.49C217.40 113.99 215.79 113.20 214.06 113.20C212.32 113.20 210.72 113.99 210.72 115.49C210.72 116.83 211.34 117.32 211.79 117.53C211.27 117.76 210.58 118.44 210.58 119.62C210.58 121.25 212.24 122.16 214.06 122.16C215.88 122.16 217.54 121.23 217.54 119.62ZM215.52 115.77C215.52 116.42 214.85 116.80 214.06 116.80C213.27 116.80 212.59 116.42 212.59 115.77C212.59 115.15 213.20 114.78 214.06 114.78C214.91 114.78 215.52 115.15 215.52 115.77ZM215.67 119.52C215.67 120.15 214.94 120.57 214.06 120.57C213.15 120.57 212.45 120.15 212.45 119.52C212.45 118.79 213.25 118.36 214.06 118.36C214.85 118.36 215.67 118.79 215.67 119.52Z" fill="#627386" /></g><g aria-label="Changed Files: 499,731"><circle cx="22" cy="140" r="4" fill="#673bd6" /><path d="M39.11 135.19C36.59 135.19 34.60 137.01 34.60 139.67C34.60 142.34 36.59 144.16 39.11 144.16C40.46 144.16 41.40 143.60 42.07 142.87C42.18 142.76 42.23 142.62 42.23 142.47C42.23 142.15 41.97 141.87 41.63 141.87C41.46 141.87 41.28 141.95 41.18 142.08C40.64 142.67 39.88 143.01 39.11 143.01C37.29 143.01 35.94 141.61 35.94 139.67C35.94 137.72 37.29 136.33 39.11 136.33C39.86 136.33 40.67 136.69 41.18 137.28C41.28 137.42 41.46 137.49 41.62 137.49C41.96 137.49 42.23 137.21 42.23 136.89C42.23 136.73 42.18 136.59 42.07 136.47C41.41 135.73 40.46 135.19 39.11 135.19ZM49.17 139.94C49.17 138.62 48.22 137.56 46.90 137.56C45.79 137.56 45.22 138.10 44.92 138.60L44.92 135.81C44.92 135.51 44.66 135.25 44.36 135.25C44.02 135.25 43.76 135.51 43.76 135.81L43.76 143.51C43.76 143.82 44.02 144.08 44.34 144.08C44.66 144.08 44.92 143.82 44.92 143.51L44.92 140.56C44.92 139.38 45.54 138.59 46.53 138.59C47.47 138.59 48.01 139.29 48.01 140.33L48.01 143.51C48.01 143.82 48.27 144.08 48.59 144.08C48.91 144.08 49.17 143.82 49.17 143.51ZM56.09 139.75C56.09 138.15 54.92 137.56 53.56 137.56C52.72 137.56 51.77 137.84 51.17 138.44C51.09 138.53 51.06 138.63 51.06 138.74C51.06 139.01 51.30 139.19 51.54 139.19C51.63 139.19 51.73 139.15 51.82 139.09C52.29 138.72 52.81 138.54 53.40 138.54C54.28 138.54 54.93 139.01 54.93 139.80L54.93 140.15L53.12 140.15C51.82 140.15 50.68 140.66 50.68 142.08C50.68 143.45 51.82 144.16 52.86 144.16C53.84 144.16 54.42 143.86 54.93 143.30L54.93 143.51C54.93 143.88 55.23 144.08 55.46 144.08L55.50 144.08C55.83 144.08 56.09 143.82 56.09 143.51ZM54.93 140.96L54.93 141.84C54.93 142.58 54.09 143.34 53.17 143.34C52.33 143.34 51.85 142.83 51.85 142.10C51.85 141.35 52.45 140.96 53.44 140.96ZM63.34 139.97C63.34 138.64 62.38 137.56 61.05 137.56C59.96 137.56 59.40 138.10 59.10 138.60L59.10 138.20C59.10 137.90 58.84 137.64 58.54 137.64C58.21 137.64 57.95 137.90 57.95 138.20L57.95 143.51C57.95 143.82 58.21 144.08 58.52 144.08C58.84 144.08 59.10 143.82 59.10 143.51L59.10 140.49C59.10 139.42 59.67 138.59 60.68 138.59C61.61 138.59 62.18 139.32 62.18 140.36L62.18 143.51C62.18 143.82 62.44 144.08 62.76 144.08C63.08 144.08 63.34 143.82 63.34 143.51ZM70.84 138.20C70.84 137.90 70.58 137.64 70.28 137.64C69.95 137.64 69.69 137.90 69.69 138.20L69.69 138.63C69.18 137.96 68.45 137.56 67.62 137.56C65.99 137.56 64.84 138.79 64.84 140.81C64.84 142.86 66.01 144.05 67.62 144.05C68.48 144.05 69.22 143.60 69.69 142.96L69.69 143.79C69.69 145.13 68.72 145.60 67.75 145.60C67.06 145.60 66.51 145.46 66.03 145.05C65.94 144.99 65.85 144.96 65.73 144.96C65.47 144.96 65.24 145.18 65.24 145.46C65.24 145.59 65.29 145.70 65.37 145.78C65.98 146.37 66.86 146.55 67.75 146.55C69.28 146.55 70.84 145.91 70.84 143.75ZM69.69 140.83C69.69 142.12 68.84 143.03 67.80 143.03C66.63 143.03 66.03 142.10 66.03 140.81C66.03 139.50 66.63 138.59 67.80 138.59C68.84 138.59 69.69 139.49 69.69 140.78ZM78.51 140.65C78.51 140.40 78.45 140.13 78.40 139.92C78.03 138.51 76.99 137.56 75.47 137.56C73.65 137.56 72.34 139.03 72.34 140.85C72.34 142.83 73.70 144.16 75.57 144.16C76.50 144.16 78.11 143.68 78.11 142.97C78.11 142.53 77.67 142.43 77.38 142.57C76.93 142.91 76.22 143.22 75.69 143.22C74.42 143.22 73.64 142.35 73.55 141.27L77.91 141.27C78.24 141.27 78.51 140.96 78.51 140.65ZM73.55 140.41C73.60 139.54 74.21 138.50 75.46 138.50C76.80 138.50 77.37 139.57 77.39 140.41ZM85.64 135.81C85.64 135.51 85.38 135.25 85.08 135.25C84.74 135.25 84.48 135.51 84.48 135.81L84.48 138.63C83.97 137.96 83.36 137.56 82.41 137.56C80.77 137.56 79.62 138.85 79.62 140.87C79.62 142.92 80.79 144.16 82.41 144.16C83.39 144.16 84.00 143.73 84.48 143.10L84.48 143.51C84.48 143.82 84.74 144.08 85.05 144.08C85.38 144.08 85.64 143.82 85.64 143.51ZM84.48 140.91C84.48 142.21 83.83 143.13 82.71 143.13C81.54 143.13 80.81 142.18 80.81 140.87C80.81 139.55 81.54 138.59 82.71 138.59C83.83 138.59 84.48 139.54 84.48 140.83ZM96.76 135.91C96.76 135.58 96.52 135.33 96.20 135.33L91.73 135.33C91.27 135.33 90.89 135.71 90.89 136.17L90.89 143.44C90.89 143.79 91.17 144.08 91.52 144.08C91.89 144.08 92.17 143.79 92.17 143.44L92.17 140.15L96.11 140.15C96.43 140.15 96.67 139.89 96.67 139.59C96.67 139.25 96.43 139.01 96.11 139.01L92.17 139.01L92.17 136.47L96.20 136.47C96.52 136.47 96.76 136.21 96.76 135.91ZM98.65 135.39C98.25 135.39 97.91 135.73 97.91 136.15C97.91 136.55 98.25 136.89 98.65 136.89C99.06 136.89 99.39 136.55 99.39 136.15C99.39 135.73 99.06 135.39 98.65 135.39ZM99.23 138.20C99.23 137.90 98.97 137.64 98.67 137.64C98.34 137.64 98.08 137.90 98.08 138.20L98.08 143.51C98.08 143.82 98.34 144.08 98.65 144.08C98.97 144.08 99.23 143.82 99.23 143.51ZM102.26 135.81C102.26 135.51 102.00 135.25 101.70 135.25C101.37 135.25 101.11 135.51 101.11 135.81L101.11 143.51C101.11 143.82 101.37 144.08 101.68 144.08C102.00 144.08 102.26 143.82 102.26 143.51ZM109.93 140.65C109.93 140.40 109.87 140.13 109.82 139.92C109.45 138.51 108.41 137.56 106.89 137.56C105.07 137.56 103.76 139.03 103.76 140.85C103.76 142.83 105.12 144.16 106.99 144.16C107.92 144.16 109.53 143.68 109.53 142.97C109.53 142.53 109.09 142.43 108.80 142.57C108.35 142.91 107.64 143.22 107.11 143.22C105.84 143.22 105.06 142.35 104.97 141.27L109.33 141.27C109.66 141.27 109.93 140.96 109.93 140.65ZM104.97 140.41C105.02 139.54 105.63 138.50 106.88 138.50C108.22 138.50 108.79 139.57 108.81 140.41ZM116.02 142.10C115.90 139.89 112.30 140.50 112.17 139.37C112.12 138.87 112.66 138.49 113.46 138.49C114.05 138.49 114.61 138.68 115.02 138.97C115.09 139.03 115.18 139.06 115.29 139.06C115.52 139.06 115.74 138.87 115.74 138.60C115.74 138.50 115.70 138.40 115.63 138.32C115.13 137.84 114.34 137.56 113.44 137.56C111.91 137.56 110.99 138.29 111.05 139.41C111.17 141.52 114.76 140.87 114.89 142.26C114.94 142.83 114.42 143.23 113.52 143.23C112.87 143.23 112.22 142.97 111.75 142.63C111.66 142.57 111.57 142.54 111.45 142.54C111.18 142.54 110.95 142.75 110.95 143.03C110.95 143.16 111.00 143.26 111.09 143.34C111.66 143.91 112.61 144.16 113.47 144.16C115.13 144.16 116.08 143.30 116.02 142.10Z" fill="#22272e" /><path d="M179.78 141.40C179.78 140.94 179.42 140.58 178.99 140.58L178.58 140.58L178.58 136.29C178.58 135.49 177.80 135.12 177.01 135.25C176.45 135.25 175.89 135.55 175.59 136.02L172.69 140.59C172.58 140.78 172.53 140.98 172.53 141.19C172.53 141.78 172.95 142.21 173.47 142.21L176.74 142.21L176.74 143.17C176.74 143.66 177.15 144.08 177.65 144.08C178.17 144.08 178.58 143.66 178.58 143.17L178.58 142.21L178.99 142.21C179.42 142.21 179.78 141.84 179.78 141.40ZM174.40 140.58L176.74 136.97L176.74 140.58ZM180.42 138.16C180.42 140.01 181.81 140.98 183.37 140.98C184.45 140.98 185.25 140.45 185.59 139.87C185.60 139.93 185.60 139.98 185.60 140.05C185.60 141.43 184.71 142.50 183.43 142.50C182.99 142.50 182.63 142.43 182.30 142.26C182.18 142.19 182.05 142.17 181.92 142.17C181.52 142.17 181.08 142.48 181.08 142.97C181.08 143.10 181.12 143.22 181.17 143.32C181.50 143.90 182.59 144.14 183.43 144.14C185.99 144.14 187.48 142.28 187.48 139.66C187.48 137.21 186.37 135.19 183.73 135.19C181.76 135.19 180.42 136.47 180.42 138.16ZM182.29 138.10C182.29 137.45 182.77 136.82 183.77 136.82C184.59 136.82 185.20 137.38 185.20 138.19C185.20 138.97 184.58 139.53 183.77 139.53C182.94 139.53 182.29 138.97 182.29 138.10ZM188.32 138.16C188.32 140.01 189.71 140.98 191.27 140.98C192.35 140.98 193.16 140.45 193.49 139.87C193.51 139.93 193.51 139.98 193.51 140.05C193.51 141.43 192.61 142.50 191.34 142.50C190.89 142.50 190.53 142.43 190.21 142.26C190.09 142.19 189.96 142.17 189.83 142.17C189.43 142.17 188.98 142.48 188.98 142.97C188.98 143.10 189.02 143.22 189.07 143.32C189.40 143.90 190.49 144.14 191.34 144.14C193.90 144.14 195.38 142.28 195.38 139.66C195.38 137.21 194.27 135.19 191.64 135.19C189.66 135.19 188.32 136.47 188.32 138.16ZM190.19 138.10C190.19 137.45 190.67 136.82 191.67 136.82C192.49 136.82 193.10 137.38 193.10 138.19C193.10 138.97 192.48 139.53 191.67 139.53C190.84 139.53 190.19 138.97 190.19 138.10ZM198.36 143.36C198.36 142.52 197.80 142.04 197.19 142.04C196.64 142.04 196.17 142.50 196.17 143.08C196.17 143.64 196.56 144.01 197.06 144.01C197.15 144.01 197.26 143.99 197.30 143.97C197.23 144.31 196.94 144.72 196.60 144.99C196.51 145.07 196.47 145.17 196.47 145.27C196.47 145.53 196.74 145.69 196.97 145.69C197.10 145.69 197.21 145.65 197.30 145.56C197.95 144.97 198.36 144.19 198.36 143.36ZM204.84 136.26C204.84 135.72 204.40 135.33 203.95 135.33L198.98 135.33C198.54 135.33 198.17 135.69 198.17 136.12C198.17 136.59 198.54 136.95 198.98 136.95L202.62 136.95L200.03 142.82C199.98 142.93 199.96 143.05 199.96 143.17C199.96 143.64 200.33 144.08 200.88 144.08C201.26 144.08 201.61 143.86 201.75 143.52L204.77 136.63C204.82 136.53 204.84 136.40 204.84 136.26ZM212.08 141.63C212.19 140.07 211.14 139.53 211.14 139.53C211.14 139.53 212.10 139.03 211.99 137.55C211.89 136.11 210.75 135.20 208.72 135.20C207.52 135.20 206.59 135.55 205.87 136.12C205.69 136.26 205.60 136.47 205.60 136.68C205.60 137.14 206.00 137.46 206.40 137.46C206.56 137.46 206.72 137.42 206.85 137.33C207.35 137.01 207.92 136.84 208.52 136.84C209.43 136.84 210.13 137.04 210.13 137.73C210.13 138.45 209.71 138.79 208.83 138.79C208.21 138.79 207.94 139.14 207.94 139.59C207.94 140.05 208.21 140.41 208.89 140.41C209.77 140.41 210.28 140.72 210.28 141.41C210.28 142.06 209.69 142.52 208.64 142.52C208.04 142.52 207.35 142.31 206.78 141.97C206.64 141.88 206.48 141.84 206.33 141.84C205.90 141.84 205.48 142.19 205.48 142.66C205.48 142.79 205.52 142.91 205.58 143.01C205.99 143.69 207.46 144.16 208.70 144.16C210.78 144.16 211.98 143.26 212.08 141.63ZM217.14 136.32C217.14 135.73 216.65 135.26 216.06 135.26C215.76 135.26 215.48 135.38 215.28 135.58L213.28 137.60C213.12 137.76 213.05 137.96 213.05 138.15C213.05 138.58 213.41 138.92 213.81 138.92C214.00 138.92 214.18 138.85 214.32 138.71L215.30 137.71L215.30 143.17C215.30 143.66 215.71 144.08 216.21 144.08C216.73 144.08 217.14 143.66 217.14 143.17Z" fill="#627386" /></g><rect x="18" y="166" width="384" height="8" rx="4" fill="#f4faff" /><rect x="18.00" y="166" width="262.77" height="8" rx="4" fill="#00d559" /><rect x="280.77" y="166" width="121.23" height="8" rx="4" fill="#00a5fe" /></svg>