<svg xmlns="http://www.w3.org/2000/svg" width="420" height="184" viewBox="0 0 420 184" role="img"><rect x="0.5" y="0.5" width="419" height="183" rx="10" fill="#ffffff" stroke="#f2f4f6" /><path d="M30.72 33.60C30.72 32.83 30.10 32.21 29.37 32.21L28.69 32.21L28.69 24.95C28.69 23.59 27.37 22.97 26.03 23.19C25.08 23.19 24.14 23.70 23.63 24.49L18.73 32.24C18.53 32.54 18.44 32.90 18.44 33.25C18.44 34.24 19.17 34.96 20.05 34.96L25.57 34.96L25.57 36.59C25.57 37.43 26.27 38.13 27.11 38.13C27.99 38.13 28.69 37.43 28.69 36.59L28.69 34.96L29.37 34.96C30.10 34.96 30.72 34.35 30.72 33.60ZM21.61 32.21L25.57 26.10L25.57 32.21ZM43.70 33.97C43.70 31.97 42.51 30.83 41.63 30.43C42.38 30.08 43.45 29.24 43.45 26.98C43.45 24.45 40.73 23.11 37.80 23.11C34.85 23.11 32.15 24.45 32.15 26.98C32.15 29.24 33.20 30.08 33.95 30.43C33.07 30.83 31.90 31.97 31.90 33.97C31.90 36.72 34.72 38.26 37.80 38.26C40.88 38.26 43.70 36.70 43.70 33.97ZM40.26 27.46C40.26 28.56 39.14 29.20 37.80 29.20C36.46 29.20 35.31 28.56 35.31 27.46C35.31 26.41 36.35 25.79 37.80 25.79C39.23 25.79 40.26 26.41 40.26 27.46ZM40.53 33.80C40.53 34.88 39.30 35.58 37.80 35.58C36.26 35.58 35.07 34.88 35.07 33.80C35.07 32.57 36.44 31.84 37.80 31.84C39.14 31.84 40.53 32.57 40.53 33.80ZM49.20 36.92C49.20 35.49 48.25 34.68 47.22 34.68C46.29 34.68 45.50 35.47 45.50 36.44C45.50 37.38 46.16 38.02 47.00 38.02C47.15 38.02 47.35 37.98 47.41 37.96C47.28 38.53 46.80 39.21 46.23 39.67C46.07 39.80 46.01 39.98 46.01 40.16C46.01 40.60 46.47 40.86 46.84 40.86C47.06 40.86 47.26 40.79 47.41 40.64C48.51 39.65 49.20 38.33 49.20 36.92ZM62.31 36.59C62.31 35.87 61.69 35.25 60.97 35.25L56.19 35.25C60.00 32.48 62.07 30.30 62.07 27.79C62.07 24.87 59.58 23.11 56.46 23.11C54.61 23.11 52.14 23.90 51.44 25.02C51.31 25.22 51.24 25.44 51.24 25.66C51.24 26.45 51.88 27.07 52.61 27.07C52.94 27.07 53.22 26.98 53.51 26.78C54.34 26.21 55.36 25.88 56.52 25.88C57.73 25.88 58.90 26.52 58.90 27.79C58.90 29.51 57.14 31.11 51.66 35.16C51.24 35.47 51 35.98 51 36.48C51 37.36 51.70 38 52.47 38L60.97 38C61.69 38 62.31 37.38 62.31 36.59ZM76.19 30.67C76.19 26.89 74.30 23.11 70.12 23.11C65.92 23.11 64.05 26.89 64.05 30.67C64.05 34.46 65.92 38.26 70.12 38.26C74.30 38.26 76.19 34.46 76.19 30.67ZM73 30.67C73 33.38 72.21 35.49 70.12 35.49C68.01 35.49 67.21 33.38 67.21 30.67C67.21 27.97 68.01 25.88 70.12 25.88C72.21 25.88 73 27.97 73 30.67ZM88.62 24.91C88.62 23.99 87.87 23.33 87.10 23.33L78.70 23.33C77.95 23.33 77.33 23.94 77.33 24.67C77.33 25.46 77.95 26.08 78.70 26.08L84.86 26.08L80.48 36.00C80.39 36.20 80.35 36.39 80.35 36.59C80.35 37.38 80.99 38.13 81.91 38.13C82.55 38.13 83.14 37.76 83.38 37.19L88.49 25.53C88.58 25.35 88.62 25.13 88.62 24.91ZM103.12 23.08C98.72 23.08 95.31 26.16 95.31 30.67C95.31 35.18 98.72 38.26 103.12 38.26C105.65 38.26 107.34 37.16 108.44 35.82C108.66 35.58 108.75 35.27 108.75 34.96C108.75 34.22 108.11 33.60 107.32 33.60C106.88 33.60 106.44 33.78 106.13 34.11C105.32 35.01 104.22 35.49 103.12 35.49C100.46 35.49 98.52 33.45 98.52 30.67C98.52 27.90 100.46 25.86 103.12 25.86C104.22 25.86 105.30 26.38 106.13 27.26C106.44 27.59 106.86 27.77 107.28 27.77C108.09 27.77 108.77 27.15 108.77 26.36C108.77 26.08 108.66 25.75 108.46 25.50C107.34 24.16 105.65 23.08 103.12 23.08ZM121.62 32.68C121.62 29.66 119.51 27.11 115.99 27.11C112.49 27.11 110.38 29.66 110.38 32.68C110.38 35.71 112.49 38.26 115.99 38.26C119.51 38.26 121.62 35.71 121.62 32.68ZM118.72 32.68C118.72 34.35 117.73 35.78 115.99 35.78C114.25 35.78 113.28 34.35 113.28 32.68C113.28 31.03 114.25 29.60 115.99 29.60C117.73 29.60 118.72 31.03 118.72 32.68ZM139.68 31.20C139.68 29.02 138.16 27.11 135.77 27.11C133.92 27.11 132.86 28.19 132.47 28.94C132.07 28.17 131.08 27.11 129.30 27.11C127.67 27.11 126.92 27.70 126.48 28.28L126.48 28.25C126.48 27.95 126.09 27.24 125.12 27.24C124.30 27.24 123.69 27.86 123.69 28.61L123.69 36.75C123.69 37.52 124.30 38.13 125.07 38.13C125.87 38.13 126.48 37.52 126.48 36.75L126.48 31.73C126.48 30.70 127.27 29.60 128.46 29.60C129.61 29.60 130.27 30.74 130.27 31.73L130.27 36.75C130.27 37.52 130.88 38.13 131.65 38.13C132.47 38.13 133.08 37.52 133.08 36.75L133.08 31.93C133.08 30.70 133.85 29.60 135.06 29.60C136.21 29.60 136.87 30.74 136.87 31.73L136.87 36.75C136.87 37.52 137.48 38.13 138.25 38.13C139.07 38.13 139.68 37.52 139.68 36.75ZM158.43 31.20C158.43 29.02 156.91 27.11 154.51 27.11C152.66 27.11 151.61 28.19 151.21 28.94C150.81 28.17 149.82 27.11 148.04 27.11C146.41 27.11 145.67 27.70 145.23 28.28L145.23 28.25C145.23 27.95 144.83 27.24 143.86 27.24C143.05 27.24 142.43 27.86 142.43 28.61L142.43 36.75C142.43 37.52 143.05 38.13 143.82 38.13C144.61 38.13 145.23 37.52 145.23 36.75L145.23 31.73C145.23 30.70 146.02 29.60 147.21 29.60C148.35 29.60 149.01 30.74 149.01 31.73L149.01 36.75C149.01 37.52 149.63 38.13 150.40 38.13C151.21 38.13 151.83 37.52 151.83 36.75L151.83 31.93C151.83 30.70 152.60 29.60 153.81 29.60C154.95 29.60 155.61 30.74 155.61 31.73L155.61 36.75C155.61 37.52 156.23 38.13 157.00 38.13C157.81 38.13 158.43 37.52 158.43 36.75ZM162.56 22.91C161.66 22.91 160.89 23.63 160.89 24.56C160.89 25.48 161.66 26.23 162.56 26.23C163.49 26.23 164.23 25.48 164.23 24.56C164.23 23.63 163.49 22.91 162.56 22.91ZM163.97 28.61C163.97 27.86 163.35 27.24 162.61 27.24C161.79 27.24 161.18 27.86 161.18 28.61L161.18 36.75C161.18 37.52 161.79 38.13 162.56 38.13C163.35 38.13 163.97 37.52 163.97 36.75ZM172.55 36.99C172.55 36.31 172.11 35.78 171.32 35.78L171.08 35.78C170.64 35.78 170.11 35.45 170.11 34.61L170.11 29.82L171.21 29.82C171.85 29.82 172.40 29.27 172.40 28.61C172.40 27.92 171.85 27.37 171.21 27.37L170.11 27.37L170.11 25.72C170.11 24.95 169.49 24.34 168.72 24.34C167.91 24.34 167.29 24.95 167.29 25.72L167.29 27.37L166.61 27.37C165.95 27.37 165.40 27.92 165.40 28.56C165.40 29.27 165.95 29.82 166.61 29.82L167.29 29.82L167.29 35.36C167.29 37.25 168.35 38.26 170.31 38.26C172.13 38.26 172.55 37.69 172.55 36.99ZM182.60 34.85C182.60 30.56 176.31 31.88 176.31 30.30C176.31 29.71 176.97 29.24 177.98 29.24C178.84 29.24 179.70 29.49 180.38 29.88C180.54 29.97 180.73 30.01 180.91 30.01C181.48 30.01 182.01 29.55 182.01 28.96C182.01 28.76 181.94 28.56 181.83 28.41C181.24 27.55 179.35 27.11 177.96 27.11C175.17 27.11 173.61 28.67 173.61 30.45C173.61 34.63 179.92 33.20 179.92 34.96C179.92 35.62 179.35 36.11 178.14 36.11C177.21 36.11 176.11 35.73 175.28 35.25C175.10 35.14 174.90 35.10 174.71 35.10C174.11 35.10 173.54 35.60 173.54 36.26C173.54 36.48 173.61 36.68 173.74 36.86C174.40 37.80 176.62 38.26 178.01 38.26C180.95 38.26 182.60 36.79 182.60 34.85Z" fill="#22272e" /><path d="M20.26 49.88C20.26 49.54 19.98 49.25 19.64 49.25C19.26 49.25 18.98 49.54 18.98 49.88L18.98 57.44C18.98 57.79 19.26 58.08 19.61 58.08C19.98 58.08 20.26 57.79 20.26 57.44ZM27.55 53.97C27.55 52.64 26.59 51.56 25.27 51.56C24.18 51.56 23.62 52.10 23.32 52.60L23.32 52.20C23.32 51.90 23.06 51.64 22.76 51.64C22.42 51.64 22.16 51.90 22.16 52.20L22.16 57.51C22.16 57.82 22.42 58.08 22.73 58.08C23.06 58.08 23.32 57.82 23.32 57.51L23.32 54.49C23.32 53.42 23.89 52.59 24.89 52.59C25.83 52.59 26.40 53.32 26.40 54.36L26.40 57.51C26.40 57.82 26.66 58.08 26.97 58.08C27.30 58.08 27.55 57.82 27.55 57.51ZM38.97 49.91C38.97 49.58 38.72 49.33 38.41 49.33L32.70 49.33C32.39 49.33 32.14 49.58 32.14 49.89C32.14 50.21 32.39 50.47 32.70 50.47L34.91 50.47L34.91 57.44C34.91 57.79 35.20 58.08 35.55 58.08C35.91 58.08 36.20 57.79 36.20 57.44L36.20 50.47L38.41 50.47C38.72 50.47 38.97 50.21 38.97 49.91ZM44.74 54.85C44.74 53.05 43.53 51.56 41.57 51.56C39.62 51.56 38.41 53.05 38.41 54.85C38.41 56.66 39.62 58.16 41.57 58.16C43.53 58.16 44.74 56.66 44.74 54.85ZM43.53 54.85C43.53 56.06 42.83 57.13 41.57 57.13C40.32 57.13 39.61 56.06 39.61 54.85C39.61 53.66 40.32 52.59 41.57 52.59C42.83 52.59 43.53 53.66 43.53 54.85ZM49.16 57.55C49.16 57.27 48.95 57.06 48.67 57.06C48.54 57.06 48.38 57.13 48.24 57.13C47.86 57.13 47.63 56.83 47.63 56.35L47.63 52.73L48.48 52.73C48.76 52.73 48.98 52.51 48.98 52.24C48.98 51.94 48.76 51.72 48.48 51.72L47.63 51.72L47.63 50.49C47.63 50.19 47.37 49.93 47.05 49.93C46.72 49.93 46.46 50.19 46.46 50.49L46.46 51.72L45.85 51.72C45.56 51.72 45.34 51.94 45.34 52.22C45.34 52.51 45.56 52.73 45.85 52.73L46.46 52.73L46.46 56.62C46.46 57.61 46.98 58.16 47.96 58.16C48.65 58.16 49.16 57.96 49.16 57.55ZM55.26 53.75C55.26 52.15 54.09 51.56 52.74 51.56C51.89 51.56 50.94 51.84 50.34 52.44C50.27 52.53 50.23 52.63 50.23 52.73C50.23 53.01 50.47 53.19 50.71 53.19C50.80 53.19 50.90 53.15 50.99 53.09C51.46 52.72 51.98 52.54 52.57 52.54C53.45 52.54 54.10 53.01 54.10 53.80L54.10 54.15L52.29 54.15C50.99 54.15 49.85 54.66 49.85 56.08C49.85 57.45 50.99 58.16 52.03 58.16C53.01 58.16 53.59 57.86 54.10 57.30L54.10 57.51C54.10 57.88 54.40 58.08 54.63 58.08L54.67 58.08C55.00 58.08 55.26 57.82 55.26 57.51ZM54.10 54.96L54.10 55.84C54.10 56.58 53.26 57.34 52.35 57.34C51.50 57.34 51.02 56.83 51.02 56.10C51.02 55.35 51.62 54.96 52.61 54.96ZM58.27 49.81C58.27 49.51 58.01 49.25 57.71 49.25C57.38 49.25 57.12 49.51 57.12 49.81L57.12 57.51C57.12 57.82 57.38 58.08 57.69 58.08C58.01 58.08 58.27 57.82 58.27 57.51Z" fill="#627386" /><line x1="18" y1="76" x2="48" y2="76" stroke="#627386" stroke-opacity="0.4" /><g aria-label="Additions: 34,132,928"><circle cx="22" cy="96" r="4" fill="#00d559" /><path d="M42.28 99.39C42.28 99.31 42.27 99.23 42.23 99.14L39.36 91.94C39.19 91.51 38.76 91.24 38.30 91.25C37.85 91.25 37.43 91.52 37.28 91.94L34.40 99.14C34.38 99.23 34.36 99.31 34.36 99.39C34.36 99.74 34.65 100.08 35.05 100.08C35.33 100.08 35.57 99.92 35.68 99.66L36.25 98.19L40.40 98.19L40.97 99.66C41.07 99.92 41.32 100.08 41.59 100.08C42.01 100.08 42.28 99.71 42.28 99.39ZM38.32 92.64L40.03 97.06L36.61 97.06ZM49.22 91.81C49.22 91.51 48.96 91.25 48.66 91.25C48.33 91.25 48.07 91.51 48.07 91.81L48.07 94.63C47.56 93.95 46.95 93.56 46.00 93.56C44.36 93.56 43.20 94.85 43.20 96.87C43.20 98.92 44.37 100.16 46.00 100.16C46.97 100.16 47.59 99.73 48.07 99.10L48.07 99.51C48.07 99.82 48.33 100.08 48.64 100.08C48.96 100.08 49.22 99.82 49.22 99.51ZM48.07 96.91C48.07 98.21 47.42 99.13 46.30 99.13C45.13 99.13 44.40 98.18 44.40 96.87C44.40 95.55 45.13 94.59 46.30 94.59C47.42 94.59 48.07 95.54 48.07 96.83ZM56.74 91.81C56.74 91.51 56.48 91.25 56.18 91.25C55.84 91.25 55.58 91.51 55.58 91.81L55.58 94.63C55.07 93.95 54.46 93.56 53.51 93.56C51.88 93.56 50.72 94.85 50.72 96.87C50.72 98.92 51.89 100.16 53.51 100.16C54.49 100.16 55.10 99.73 55.58 99.10L55.58 99.51C55.58 99.82 55.84 100.08 56.15 100.08C56.48 100.08 56.74 99.82 56.74 99.51ZM55.58 96.91C55.58 98.21 54.93 99.13 53.81 99.13C52.64 99.13 51.91 98.18 51.91 96.87C51.91 95.55 52.64 94.59 53.81 94.59C54.93 94.59 55.58 95.54 55.58 96.83ZM59.18 91.39C58.78 91.39 58.44 91.73 58.44 92.15C58.44 92.55 58.78 92.89 59.18 92.89C59.60 92.89 59.92 92.55 59.92 92.15C59.92 91.73 59.60 91.39 59.18 91.39ZM59.77 94.20C59.77 93.90 59.51 93.64 59.21 93.64C58.87 93.64 58.61 93.90 58.61 94.20L58.61 99.51C58.61 99.82 58.87 100.08 59.18 100.08C59.51 100.08 59.77 99.82 59.77 99.51ZM64.56 99.55C64.56 99.27 64.36 99.06 64.07 99.06C63.94 99.06 63.78 99.13 63.64 99.13C63.26 99.13 63.03 98.83 63.03 98.35L63.03 94.73L63.89 94.73C64.16 94.73 64.38 94.51 64.38 94.24C64.38 93.94 64.16 93.72 63.89 93.72L63.03 93.72L63.03 92.49C63.03 92.19 62.77 91.93 62.46 91.93C62.12 91.93 61.86 92.19 61.86 92.49L61.86 93.72L61.25 93.72C60.96 93.72 60.74 93.94 60.74 94.22C60.74 94.51 60.96 94.73 61.25 94.73L61.86 94.73L61.86 98.62C61.86 99.61 62.38 100.16 63.37 100.16C64.06 100.16 64.56 99.96 64.56 99.55ZM66.19 91.39C65.79 91.39 65.45 91.73 65.45 92.15C65.45 92.55 65.79 92.89 66.19 92.89C66.60 92.89 66.93 92.55 66.93 92.15C66.93 91.73 66.60 91.39 66.19 91.39ZM66.77 94.20C66.77 93.90 66.51 93.64 66.21 93.64C65.88 93.64 65.62 93.90 65.62 94.20L65.62 99.51C65.62 99.82 65.88 100.08 66.19 100.08C66.51 100.08 66.77 99.82 66.77 99.51ZM74.60 96.85C74.60 95.05 73.39 93.56 71.43 93.56C69.48 93.56 68.27 95.05 68.27 96.85C68.27 98.66 69.48 100.16 71.43 100.16C73.39 100.16 74.60 98.66 74.60 96.85ZM73.39 96.85C73.39 98.06 72.69 99.13 71.43 99.13C70.18 99.13 69.46 98.06 69.46 96.85C69.46 95.66 70.18 94.59 71.43 94.59C72.69 94.59 73.39 95.66 73.39 96.85ZM81.49 95.97C81.49 94.64 80.53 93.56 79.20 93.56C78.11 93.56 77.55 94.10 77.25 94.61L77.25 94.20C77.25 93.90 76.99 93.64 76.69 93.64C76.35 93.64 76.09 93.90 76.09 94.20L76.09 99.51C76.09 99.82 76.35 100.08 76.67 100.08C76.99 100.08 77.25 99.82 77.25 99.51L77.25 96.49C77.25 95.42 77.82 94.59 78.82 94.59C79.76 94.59 80.33 95.32 80.33 96.36L80.33 99.51C80.33 99.82 80.59 100.08 80.90 100.08C81.23 100.08 81.49 99.82 81.49 99.51ZM87.96 98.10C87.85 95.89 84.24 96.50 84.11 95.37C84.06 94.86 84.61 94.49 85.40 94.49C86 94.49 86.56 94.68 86.96 94.97C87.04 95.03 87.13 95.06 87.23 95.06C87.47 95.06 87.69 94.86 87.69 94.61C87.69 94.50 87.65 94.40 87.57 94.32C87.08 93.84 86.29 93.56 85.39 93.56C83.86 93.56 82.93 94.29 83.00 95.41C83.11 97.52 86.70 96.87 86.83 98.26C86.88 98.83 86.36 99.23 85.47 99.23C84.82 99.23 84.17 98.97 83.70 98.64C83.61 98.57 83.52 98.54 83.40 98.54C83.13 98.54 82.89 98.75 82.89 99.03C82.89 99.16 82.94 99.26 83.04 99.34C83.61 99.91 84.56 100.16 85.41 100.16C87.08 100.16 88.03 99.30 87.96 98.10Z" fill="#22272e" /><path d="M159.94 97.63C160.05 96.07 158.99 95.53 158.99 95.53C158.99 95.53 159.95 95.03 159.85 93.55C159.75 92.11 158.60 91.20 156.57 91.20C155.38 91.20 154.44 91.55 153.73 92.12C153.55 92.27 153.45 92.47 153.45 92.68C153.45 93.14 153.86 93.46 154.26 93.46C154.42 93.46 154.57 93.42 154.70 93.33C155.21 93.01 155.78 92.84 156.38 92.84C157.29 92.84 157.99 93.05 157.99 93.73C157.99 94.45 157.56 94.79 156.69 94.79C156.07 94.79 155.79 95.14 155.79 95.59C155.79 96.05 156.07 96.41 156.74 96.41C157.63 96.41 158.13 96.72 158.13 97.41C158.13 98.06 157.55 98.52 156.50 98.52C155.90 98.52 155.21 98.31 154.64 97.97C154.49 97.88 154.34 97.84 154.18 97.84C153.75 97.84 153.34 98.19 153.34 98.66C153.34 98.79 153.38 98.91 153.44 99.01C153.84 99.69 155.31 100.16 156.56 100.16C158.64 100.16 159.84 99.26 159.94 97.63ZM168.03 97.40C168.03 96.94 167.66 96.58 167.23 96.58L166.83 96.58L166.83 92.29C166.83 91.48 166.05 91.12 165.26 91.25C164.70 91.25 164.14 91.55 163.84 92.02L160.94 96.59C160.83 96.78 160.77 96.98 160.77 97.19C160.77 97.78 161.20 98.21 161.72 98.21L164.99 98.21L164.99 99.17C164.99 99.66 165.40 100.08 165.90 100.08C166.42 100.08 166.83 99.66 166.83 99.17L166.83 98.21L167.23 98.21C167.66 98.21 168.03 97.84 168.03 97.40ZM162.65 96.58L164.99 92.97L164.99 96.58ZM171.07 99.36C171.07 98.52 170.51 98.04 169.90 98.04C169.35 98.04 168.89 98.50 168.89 99.08C168.89 99.64 169.28 100.01 169.77 100.01C169.86 100.01 169.98 99.99 170.02 99.97C169.94 100.31 169.65 100.72 169.31 100.99C169.22 101.07 169.18 101.17 169.18 101.27C169.18 101.53 169.46 101.69 169.68 101.69C169.81 101.69 169.93 101.65 170.02 101.56C170.67 100.97 171.07 100.19 171.07 99.36ZM174.80 92.32C174.80 91.73 174.31 91.26 173.72 91.26C173.42 91.26 173.14 91.38 172.94 91.58L170.94 93.60C170.78 93.76 170.71 93.95 170.71 94.15C170.71 94.58 171.07 94.92 171.47 94.92C171.65 94.92 171.84 94.85 171.98 94.71L172.95 93.71L172.95 99.17C172.95 99.66 173.37 100.08 173.86 100.08C174.38 100.08 174.80 99.66 174.80 99.17ZM182.72 97.63C182.82 96.07 181.77 95.53 181.77 95.53C181.77 95.53 182.73 95.03 182.63 93.55C182.52 92.11 181.38 91.20 179.35 91.20C178.15 91.20 177.22 91.55 176.50 92.12C176.32 92.27 176.23 92.47 176.23 92.68C176.23 93.14 176.63 93.46 177.04 93.46C177.19 93.46 177.35 93.42 177.48 93.33C177.99 93.01 178.56 92.84 179.16 92.84C180.07 92.84 180.77 93.05 180.77 93.73C180.77 94.45 180.34 94.79 179.47 94.79C178.84 94.79 178.57 95.14 178.57 95.59C178.57 96.05 178.84 96.41 179.52 96.41C180.40 96.41 180.91 96.72 180.91 97.41C180.91 98.06 180.33 98.52 179.27 98.52C178.67 98.52 177.99 98.31 177.41 97.97C177.27 97.88 177.11 97.84 176.96 97.84C176.53 97.84 176.11 98.19 176.11 98.66C176.11 98.79 176.15 98.91 176.22 99.01C176.62 99.69 178.09 100.16 179.34 100.16C181.42 100.16 182.61 99.26 182.72 97.63ZM190.50 99.17C190.50 98.74 190.14 98.38 189.71 98.38L186.89 98.38C189.14 96.74 190.36 95.45 190.36 93.97C190.36 92.24 188.89 91.20 187.05 91.20C185.95 91.20 184.50 91.67 184.08 92.33C184.00 92.45 183.97 92.58 183.97 92.71C183.97 93.17 184.34 93.54 184.77 93.54C184.97 93.54 185.14 93.49 185.30 93.37C185.80 93.03 186.40 92.84 187.09 92.84C187.80 92.84 188.49 93.21 188.49 93.97C188.49 94.98 187.45 95.93 184.21 98.32C183.97 98.50 183.82 98.80 183.82 99.10C183.82 99.62 184.24 100 184.69 100L189.71 100C190.14 100 190.50 99.64 190.50 99.17ZM193.88 99.36C193.88 98.52 193.33 98.04 192.71 98.04C192.17 98.04 191.70 98.50 191.70 99.08C191.70 99.64 192.09 100.01 192.58 100.01C192.68 100.01 192.79 99.99 192.83 99.97C192.75 100.31 192.47 100.72 192.13 100.99C192.04 101.07 192.00 101.17 192.00 101.27C192.00 101.53 192.27 101.69 192.49 101.69C192.62 101.69 192.74 101.65 192.83 101.56C193.48 100.97 193.88 100.19 193.88 99.36ZM194.81 94.16C194.81 96.01 196.20 96.98 197.76 96.98C198.84 96.98 199.64 96.45 199.98 95.87C199.99 95.93 199.99 95.98 199.99 96.05C199.99 97.43 199.10 98.50 197.82 98.50C197.38 98.50 197.02 98.43 196.69 98.26C196.58 98.19 196.45 98.17 196.32 98.17C195.91 98.17 195.47 98.48 195.47 98.97C195.47 99.10 195.51 99.22 195.56 99.32C195.89 99.90 196.98 100.14 197.82 100.14C200.38 100.14 201.87 98.28 201.87 95.66C201.87 93.21 200.76 91.19 198.12 91.19C196.15 91.19 194.81 92.47 194.81 94.16ZM196.68 94.10C196.68 93.45 197.16 92.82 198.16 92.82C198.98 92.82 199.59 93.38 199.59 94.19C199.59 94.97 198.97 95.53 198.16 95.53C197.33 95.53 196.68 94.97 196.68 94.10ZM209.54 99.17C209.54 98.74 209.17 98.38 208.74 98.38L205.92 98.38C208.17 96.74 209.39 95.45 209.39 93.97C209.39 92.24 207.92 91.20 206.08 91.20C204.99 91.20 203.53 91.67 203.11 92.33C203.04 92.45 203.00 92.58 203.00 92.71C203.00 93.17 203.37 93.54 203.80 93.54C204.00 93.54 204.17 93.49 204.34 93.37C204.83 93.03 205.43 92.84 206.12 92.84C206.83 92.84 207.52 93.21 207.52 93.97C207.52 94.98 206.48 95.93 203.24 98.32C203.00 98.50 202.85 98.80 202.85 99.10C202.85 99.62 203.27 100 203.73 100L208.74 100C209.17 100 209.54 99.64 209.54 99.17ZM217.54 97.62C217.54 96.44 216.84 95.76 216.32 95.53C216.76 95.32 217.40 94.83 217.40 93.49C217.40 91.99 215.79 91.20 214.06 91.20C212.32 91.20 210.72 91.99 210.72 93.49C210.72 94.83 211.34 95.32 211.79 95.53C211.27 95.76 210.58 96.44 210.58 97.62C210.58 99.25 212.24 100.16 214.06 100.16C215.88 100.16 217.54 99.23 217.54 97.62ZM215.52 93.77C215.52 94.42 214.85 94.80 214.06 94.80C213.27 94.80 212.59 94.42 212.59 93.77C212.59 93.15 213.20 92.78 214.06 92.78C214.91 92.78 215.52 93.15 215.52 93.77ZM215.67 97.52C215.67 98.15 214.94 98.57 214.06 98.57C213.15 98.57 212.45 98.15 212.45 97.52C212.45 96.79 213.25 96.36 214.06 96.36C214.85 96.36 215.67 96.79 215.67 97.52Z" fill="#627386" /></g><g aria-label="Deletions: 17,161,089"><circle cx="22" cy="118" r="4" fill="#00a5fe" /><path d="M42.54 117.67C42.54 115.17 40.76 113.33 38.06 113.33L35.82 113.33C35.35 113.33 34.98 113.71 34.98 114.17L34.98 121.16C34.98 121.62 35.35 122 35.82 122L38.06 122C40.76 122 42.54 120.18 42.54 117.67ZM41.23 117.67C41.23 119.43 40.06 120.86 38.06 120.86L36.26 120.86L36.26 114.47L38.06 114.47C40.11 114.47 41.23 115.89 41.23 117.67ZM49.90 118.65C49.90 118.40 49.83 118.13 49.78 117.92C49.42 116.51 48.38 115.56 46.86 115.56C45.04 115.56 43.72 117.03 43.72 118.85C43.72 120.83 45.09 122.16 46.96 122.16C47.88 122.16 49.50 121.67 49.50 120.97C49.50 120.53 49.05 120.43 48.77 120.57C48.31 120.91 47.61 121.22 47.08 121.22C45.80 121.22 45.02 120.35 44.93 119.27L49.30 119.27C49.63 119.27 49.90 118.96 49.90 118.65ZM44.93 118.41C44.98 117.54 45.60 116.50 46.84 116.50C48.18 116.50 48.76 117.57 48.78 118.41ZM52.54 113.81C52.54 113.51 52.28 113.25 51.98 113.25C51.64 113.25 51.38 113.51 51.38 113.81L51.38 121.51C51.38 121.82 51.64 122.08 51.95 122.08C52.28 122.08 52.54 121.82 52.54 121.51ZM60.21 118.65C60.21 118.40 60.14 118.13 60.09 117.92C59.73 116.51 58.69 115.56 57.17 115.56C55.35 115.56 54.03 117.03 54.03 118.85C54.03 120.83 55.40 122.16 57.27 122.16C58.19 122.16 59.81 121.67 59.81 120.97C59.81 120.53 59.36 120.43 59.08 120.57C58.62 120.91 57.92 121.22 57.39 121.22C56.11 121.22 55.33 120.35 55.24 119.27L59.61 119.27C59.94 119.27 60.21 118.96 60.21 118.65ZM55.24 118.41C55.29 117.54 55.91 116.50 57.15 116.50C58.49 116.50 59.06 117.57 59.09 118.41ZM64.62 121.55C64.62 121.27 64.41 121.06 64.12 121.06C63.99 121.06 63.84 121.13 63.69 121.13C63.32 121.13 63.08 120.83 63.08 120.35L63.08 116.73L63.94 116.73C64.21 116.73 64.43 116.51 64.43 116.24C64.43 115.94 64.21 115.72 63.94 115.72L63.08 115.72L63.08 114.49C63.08 114.19 62.82 113.93 62.51 113.93C62.17 113.93 61.91 114.19 61.91 114.49L61.91 115.72L61.30 115.72C61.01 115.72 60.79 115.94 60.79 116.22C60.79 116.51 61.01 116.73 61.30 116.73L61.91 116.73L61.91 120.62C61.91 121.61 62.43 122.16 63.42 122.16C64.11 122.16 64.62 121.96 64.62 121.55ZM66.24 113.39C65.84 113.39 65.50 113.73 65.50 114.15C65.50 114.55 65.84 114.89 66.24 114.89C66.66 114.89 66.98 114.55 66.98 114.15C66.98 113.73 66.66 113.39 66.24 113.39ZM66.83 116.20C66.83 115.90 66.56 115.64 66.27 115.64C65.93 115.64 65.67 115.90 65.67 116.20L65.67 121.51C65.67 121.82 65.93 122.08 66.24 122.08C66.56 122.08 66.83 121.82 66.83 121.51ZM74.65 118.85C74.65 117.05 73.44 115.56 71.48 115.56C69.53 115.56 68.32 117.05 68.32 118.85C68.32 120.66 69.53 122.16 71.48 122.16C73.44 122.16 74.65 120.66 74.65 118.85ZM73.44 118.85C73.44 120.06 72.74 121.13 71.48 121.13C70.23 121.13 69.52 120.06 69.52 118.85C69.52 117.66 70.23 116.59 71.48 116.59C72.74 116.59 73.44 117.66 73.44 118.85ZM81.54 117.97C81.54 116.64 80.58 115.56 79.25 115.56C78.16 115.56 77.60 116.10 77.30 116.61L77.30 116.20C77.30 115.90 77.04 115.64 76.74 115.64C76.41 115.64 76.15 115.90 76.15 116.20L76.15 121.51C76.15 121.82 76.41 122.08 76.72 122.08C77.04 122.08 77.30 121.82 77.30 121.51L77.30 118.49C77.30 117.42 77.88 116.59 78.88 116.59C79.81 116.59 80.38 117.32 80.38 118.36L80.38 121.51C80.38 121.82 80.64 122.08 80.96 122.08C81.28 122.08 81.54 121.82 81.54 121.51ZM88.01 120.10C87.90 117.89 84.30 118.50 84.17 117.37C84.11 116.86 84.66 116.49 85.45 116.49C86.05 116.49 86.61 116.68 87.01 116.97C87.09 117.03 87.18 117.06 87.29 117.06C87.52 117.06 87.74 116.86 87.74 116.61C87.74 116.50 87.70 116.40 87.62 116.32C87.13 115.84 86.34 115.56 85.44 115.56C83.91 115.56 82.98 116.29 83.05 117.41C83.17 119.52 86.75 118.87 86.88 120.26C86.94 120.83 86.42 121.23 85.52 121.23C84.87 121.23 84.22 120.97 83.75 120.64C83.66 120.57 83.57 120.54 83.45 120.54C83.18 120.54 82.94 120.75 82.94 121.03C82.94 121.16 83.00 121.26 83.09 121.34C83.66 121.91 84.61 122.16 85.47 122.16C87.13 122.16 88.08 121.30 88.01 120.10Z" fill="#22272e" /><path d="M163.75 114.32C163.75 113.73 163.26 113.26 162.67 113.26C162.37 113.26 162.09 113.38 161.89 113.58L159.89 115.60C159.73 115.76 159.66 115.95 159.66 116.15C159.66 116.58 160.02 116.92 160.42 116.92C160.60 116.92 160.79 116.85 160.93 116.71L161.91 115.71L161.91 121.17C161.91 121.66 162.32 122.08 162.81 122.08C163.33 122.08 163.75 121.66 163.75 121.17ZM171.51 114.27C171.51 113.72 171.07 113.33 170.61 113.33L165.65 113.33C165.21 113.33 164.84 113.69 164.84 114.12C164.84 114.59 165.21 114.95 165.65 114.95L169.29 114.95L166.70 120.82C166.65 120.93 166.62 121.05 166.62 121.17C166.62 121.64 167.00 122.08 167.55 122.08C167.92 122.08 168.27 121.86 168.42 121.52L171.43 114.63C171.49 114.53 171.51 114.39 171.51 114.27ZM173.27 121.36C173.27 120.52 172.71 120.04 172.10 120.04C171.55 120.04 171.08 120.50 171.08 121.08C171.08 121.64 171.47 122.01 171.97 122.01C172.06 122.01 172.17 121.99 172.21 121.97C172.14 122.31 171.85 122.72 171.51 122.99C171.42 123.07 171.38 123.17 171.38 123.27C171.38 123.53 171.65 123.69 171.88 123.69C172.01 123.69 172.12 123.65 172.21 123.56C172.86 122.97 173.27 122.19 173.27 121.36ZM177.00 114.32C177.00 113.73 176.50 113.26 175.92 113.26C175.62 113.26 175.33 113.38 175.14 113.58L173.14 115.60C172.98 115.76 172.90 115.95 172.90 116.15C172.90 116.58 173.27 116.92 173.67 116.92C173.85 116.92 174.03 116.85 174.18 116.71L175.15 115.71L175.15 121.17C175.15 121.66 175.57 122.08 176.06 122.08C176.58 122.08 177.00 121.66 177.00 121.17ZM185.36 119.18C185.36 117.33 183.97 116.36 182.41 116.36C181.33 116.36 180.52 116.89 180.18 117.48C180.17 117.41 180.17 117.36 180.17 117.29C180.17 115.92 181.07 114.84 182.34 114.84C182.78 114.84 183.15 114.91 183.47 115.08C183.59 115.15 183.72 115.17 183.85 115.17C184.25 115.17 184.69 114.86 184.69 114.37C184.69 114.24 184.65 114.12 184.60 114.02C184.28 113.45 183.19 113.20 182.34 113.20C179.78 113.20 178.30 115.06 178.30 117.68C178.30 120.13 179.40 122.16 182.04 122.16C184.02 122.16 185.36 120.87 185.36 119.18ZM183.48 119.24C183.48 119.89 183.00 120.52 182.00 120.52C181.18 120.52 180.57 119.96 180.57 119.15C180.57 118.37 181.20 117.81 182.00 117.81C182.83 117.81 183.48 118.37 183.48 119.24ZM190.24 114.32C190.24 113.73 189.75 113.26 189.17 113.26C188.87 113.26 188.58 113.38 188.39 113.58L186.38 115.60C186.23 115.76 186.15 115.95 186.15 116.15C186.15 116.58 186.51 116.92 186.92 116.92C187.10 116.92 187.28 116.85 187.42 116.71L188.40 115.71L188.40 121.17C188.40 121.66 188.81 122.08 189.31 122.08C189.83 122.08 190.24 121.66 190.24 121.17ZM193.90 121.36C193.90 120.52 193.34 120.04 192.73 120.04C192.18 120.04 191.71 120.50 191.71 121.08C191.71 121.64 192.10 122.01 192.60 122.01C192.69 122.01 192.81 121.99 192.84 121.97C192.77 122.31 192.48 122.72 192.14 122.99C192.05 123.07 192.01 123.17 192.01 123.27C192.01 123.53 192.29 123.69 192.51 123.69C192.64 123.69 192.75 123.65 192.84 123.56C193.49 122.97 193.90 122.19 193.90 121.36ZM201.78 117.67C201.78 115.44 200.66 113.20 198.19 113.20C195.70 113.20 194.60 115.44 194.60 117.67C194.60 119.91 195.70 122.16 198.19 122.16C200.66 122.16 201.78 119.91 201.78 117.67ZM199.89 117.67C199.89 119.27 199.42 120.52 198.19 120.52C196.94 120.52 196.47 119.27 196.47 117.67C196.47 116.07 196.94 114.84 198.19 114.84C199.42 114.84 199.89 116.07 199.89 117.67ZM209.64 119.62C209.64 118.44 208.94 117.76 208.42 117.53C208.86 117.32 209.50 116.83 209.50 115.49C209.50 113.99 207.89 113.20 206.16 113.20C204.41 113.20 202.82 113.99 202.82 115.49C202.82 116.83 203.44 117.32 203.88 117.53C203.36 117.76 202.67 118.44 202.67 119.62C202.67 121.25 204.34 122.16 206.16 122.16C207.98 122.16 209.64 121.23 209.64 119.62ZM207.61 115.77C207.61 116.42 206.95 116.80 206.16 116.80C205.36 116.80 204.69 116.42 204.69 115.77C204.69 115.15 205.30 114.78 206.16 114.78C207.00 114.78 207.61 115.15 207.61 115.77ZM207.77 119.52C207.77 120.15 207.04 120.57 206.16 120.57C205.25 120.57 204.54 120.15 204.54 119.52C204.54 118.79 205.35 118.36 206.16 118.36C206.95 118.36 207.77 118.79 207.77 119.52ZM210.49 116.16C210.49 118.01 211.88 118.98 213.44 118.98C214.52 118.98 215.32 118.45 215.66 117.87C215.67 117.93 215.67 117.98 215.67 118.05C215.67 119.43 214.78 120.50 213.50 120.50C213.06 120.50 212.70 120.43 212.37 120.26C212.25 120.19 212.12 120.17 211.99 120.17C211.59 120.17 211.15 120.48 211.15 120.97C211.15 121.10 211.19 121.22 211.24 121.32C211.56 121.90 212.66 122.14 213.50 122.14C216.06 122.14 217.54 120.28 217.54 117.66C217.54 115.21 216.44 113.19 213.80 113.19C211.82 113.19 210.49 114.47 210.49 116.16ZM212.36 116.10C212.36 115.45 212.84 114.82 213.84 114.82C214.66 114.82 215.27 115.38 215.27 116.19C215.27 116.97 214.65 117.53 213.84 117.53C213.01 117.53 212.36 116.97 212.36 116.10Z" fill="#627386" /></g><g aria-label="Changed Files: 524,476"><circle cx="22" cy="140" r="4" fill="#673bd6" /><path d="M39.11 135.19C36.59 135.19 34.60 137.01 34.60 139.67C34.60 142.34 36.59 144.16 39.11 144.16C40.46 144.16 41.40 143.60 42.07 142.87C42.18 142.76 42.23 142.62 42.23 142.47C42.23 142.15 41.97 141.87 41.63 141.87C41.46 141.87 41.28 141.95 41.18 142.08C40.64 142.67 39.88 143.01 39.11 143.01C37.29 143.01 35.94 141.61 35.94 139.67C35.94 137.72 37.29 136.33 39.11 136.33C39.86 136.33 40.67 136.69 41.18 137.28C41.28 137.42 41.46 137.49 41.62 137.49C41.96 137.49 42.23 137.21 42.23 136.89C42.23 136.73 42.18 136.59 42.07 136.47C41.41 135.73 40.46 135.19 39.11 135.19ZM49.17 139.94C49.17 138.62 48.22 137.56 46.90 137.56C45.79 137.56 45.22 138.10 44.92 138.60L44.92 135.81C44.92 135.51 44.66 135.25 44.36 135.25C44.02 135.25 43.76 135.51 43.76 135.81L43.76 143.51C43.76 143.82 44.02 144.08 44.34 144.08C44.66 144.08 44.92 143.82 44.92 143.51L44.92 140.56C44.92 139.38 45.54 138.59 46.53 138.59C47.47 138.59 48.01 139.29 48.01 140.33L48.01 143.51C48.01 143.82 48.27 144.08 48.59 144.08C48.91 144.08 49.17 143.82 49.17 143.51ZM56.09 139.75C56.09 138.15 54.92 137.56 53.56 137.56C52.72 137.56 51.77 137.84 51.17 138.44C51.09 138.53 51.06 138.63 51.06 138.74C51.06 139.01 51.30 139.19 51.54 139.19C51.63 139.19 51.73 139.15 51.82 139.09C52.29 138.72 52.81 138.54 53.40 138.54C54.28 138.54 54.93 139.01 54.93 139.80L54.93 140.15L53.12 140.15C51.82 140.15 50.68 140.66 50.68 142.08C50.68 143.45 51.82 144.16 52.86 144.16C53.84 144.16 54.42 143.86 54.93 143.30L54.93 143.51C54.93 143.88 55.23 144.08 55.46 144.08L55.50 144.08C55.83 144.08 56.09 143.82 56.09 143.51ZM54.93 140.96L54.93 141.84C54.93 142.58 54.09 143.34 53.17 143.34C52.33 143.34 51.85 142.83 51.85 142.10C51.85 141.35 52.45 140.96 53.44 140.96ZM63.34 139.97C63.34 138.64 62.38 137.56 61.05 137.56C59.96 137.56 59.40 138.10 59.10 138.60L59.10 138.20C59.10 137.90 58.84 137.64 58.54 137.64C58.21 137.64 57.95 137.90 57.95 138.20L57.95 143.51C57.95 143.82 58.21 144.08 58.52 144.08C58.84 144.08 59.10 143.82 59.10 143.51L59.10 140.49C59.10 139.42 59.67 138.59 60.68 138.59C61.61 138.59 62.18 139.32 62.18 140.36L62.18 143.51C62.18 143.82 62.44 144.08 62.76 144.08C63.08 144.08 63.34 143.82 63.34 143.51ZM70.84 138.20C70.84 137.90 70.58 137.64 70.28 137.64C69.95 137.64 69.69 137.90 69.69 138.20L69.69 138.63C69.18 137.96 68.45 137.56 67.62 137.56C65.99 137.56 64.84 138.79 64.84 140.81C64.84 142.86 66.01 144.05 67.62 144.05C68.48 144.05 69.22 143.60 69.69 142.96L69.69 143.79C69.69 145.13 68.72 145.60 67.75 145.60C67.06 145.60 66.51 145.46 66.03 145.05C65.94 144.99 65.85 144.96 65.73 144.96C65.47 144.96 65.24 145.18 65.24 145.46C65.24 145.59 65.29 145.70 65.37 145.78C65.98 146.37 66.86 146.55 67.75 146.55C69.28 146.55 70.84 145.91 70.84 143.75ZM69.69 140.83C69.69 142.12 68.84 143.03 67.80 143.03C66.63 143.03 66.03 142.10 66.03 140.81C66.03 139.50 66.63 138.59 67.80 138.59C68.84 138.59 69.69 139.49 69.69 140.78ZM78.51 140.65C78.51 140.40 78.45 140.13 78.40 139.92C78.03 138.51 76.99 137.56 75.47 137.56C73.65 137.56 72.34 139.03 72.34 140.85C72.34 142.83 73.70 144.16 75.57 144.16C76.50 144.16 78.11 143.68 78.11 142.97C78.11 142.53 77.67 142.43 77.38 142.57C76.93 142.91 76.22 143.22 75.69 143.22C74.42 143.22 73.64 142.35 73.55 141.27L77.91 141.27C78.24 141.27 78.51 140.96 78.51 140.65ZM73.55 140.41C73.60 139.54 74.21 138.50 75.46 138.50C76.80 138.50 77.37 139.57 77.39 140.41ZM85.64 135.81C85.64 135.51 85.38 135.25 85.08 135.25C84.74 135.25 84.48 135.51 84.48 135.81L84.48 138.63C83.97 137.96 83.36 137.56 82.41 137.56C80.77 137.56 79.62 138.85 79.62 140.87C79.62 142.92 80.79 144.16 82.41 144.16C83.39 144.16 84.00 143.73 84.48 143.10L84.48 143.51C84.48 143.82 84.74 144.08 85.05 144.08C85.38 144.08 85.64 143.82 85.64 143.51ZM84.48 140.91C84.48 142.21 83.83 143.13 82.71 143.13C81.54 143.13 80.81 142.18 80.81 140.87C80.81 139.55 81.54 138.59 82.71 138.59C83.83 138.59 84.48 139.54 84.48 140.83ZM96.76 135.91C96.76 135.58 96.52 135.33 96.20 135.33L91.73 135.33C91.27 135.33 90.89 135.71 90.89 136.17L90.89 143.44C90.89 143.79 91.17 144.08 91.52 144.08C91.89 144.08 92.17 143.79 92.17 143.44L92.17 140.15L96.11 140.15C96.43 140.15 96.67 139.89 96.67 139.59C96.67 139.25 96.43 139.01 96.11 139.01L92.17 139.01L92.17 136.47L96.20 136.47C96.52 136.47 96.76 136.21 96.76 135.91ZM98.65 135.39C98.25 135.39 97.91 135.73 97.91 136.15C97.91 136.55 98.25 136.89 98.65 136.89C99.06 136.89 99.39 136.55 99.39 136.15C99.39 135.73 99.06 135.39 98.65 135.39ZM99.23 138.20C99.23 137.90 98.97 137.64 98.67 137.64C98.34 137.64 98.08 137.90 98.08 138.20L98.08 143.51C98.08 143.82 98.34 144.08 98.65 144.08C98.97 144.08 99.23 143.82 99.23 143.51ZM102.26 135.81C102.26 135.51 102.00 135.25 101.70 135.25C101.37 135.25 101.11 135.51 101.11 135.81L101.11 143.51C101.11 143.82 101.37 144.08 101.68 144.08C102.00 144.08 102.26 143.82 102.26 143.51ZM109.93 140.65C109.93 140.40 109.87 140.13 109.82 139.92C109.45 138.51 108.41 137.56 106.89 137.56C105.07 137.56 103.76 139.03 103.76 140.85C103.76 142.83 105.12 144.16 106.99 144.16C107.92 144.16 109.53 143.68 109.53 142.97C109.53 142.53 109.09 142.43 108.80 142.57C108.35 142.91 107.64 143.22 107.11 143.22C105.84 143.22 105.06 142.35 104.97 141.27L109.33 141.27C109.66 141.27 109.93 140.96 109.93 140.65ZM104.97 140.41C105.02 139.54 105.63 138.50 106.88 138.50C108.22 138.50 108.79 139.57 108.81 140.41ZM116.02 142.10C115.90 139.89 112.30 140.50 112.17 139.37C112.12 138.87 112.66 138.49 113.46 138.49C114.05 138.49 114.61 138.68 115.02 138.97C115.09 139.03 115.18 139.06 115.29 139.06C115.52 139.06 115.74 138.87 115.74 138.60C115.74 138.50 115.70 138.40 115.63 138.32C115.13 137.84 114.34 137.56 113.44 137.56C111.91 137.56 110.99 138.29 111.05 139.41C111.17 141.52 114.76 140.87 114.89 142.26C114.94 142.83 114.42 143.23 113.52 143.23C112.87 143.23 112.22 142.97 111.75 142.63C111.66 142.57 111.57 142.54 111.45 142.54C111.18 142.54 110.95 142.75 110.95 143.03C110.95 143.16 111.00 143.26 111.09 143.34C111.66 143.91 112.61 144.16 113.47 144.16C115.13 144.16 116.08 143.30 116.02 142.10Z" fill="#22272e" /><path d="M175.91 141.15C175.91 139.40 174.59 138.34 173.12 138.34C172.33 138.34 171.63 138.66 171.21 139.07L171.21 136.95L174.61 136.95C175.03 136.95 175.40 136.59 175.40 136.15C175.40 135.69 175.03 135.33 174.61 135.33L170.41 135.33C169.83 135.33 169.37 135.80 169.37 136.37L169.37 139.70C169.37 140.20 169.73 140.58 170.30 140.58C170.56 140.58 170.81 140.50 171.02 140.36C171.49 140.05 171.94 139.94 172.47 139.94C173.46 139.94 174.03 140.46 174.03 141.23C174.03 141.93 173.45 142.52 172.42 142.52C171.80 142.52 171.20 142.35 170.69 142.04C170.54 141.95 170.37 141.89 170.21 141.89C169.76 141.89 169.33 142.25 169.33 142.73C169.33 142.86 169.37 142.99 169.43 143.10C169.83 143.78 171.30 144.16 172.44 144.16C174.53 144.16 175.91 143.00 175.91 141.15ZM183.58 143.17C183.58 142.74 183.21 142.38 182.78 142.38L179.96 142.38C182.21 140.74 183.43 139.45 183.43 137.97C183.43 136.24 181.96 135.20 180.12 135.20C179.03 135.20 177.57 135.67 177.15 136.33C177.08 136.45 177.04 136.58 177.04 136.71C177.04 137.18 177.41 137.54 177.84 137.54C178.04 137.54 178.21 137.49 178.38 137.37C178.87 137.03 179.47 136.84 180.16 136.84C180.87 136.84 181.56 137.21 181.56 137.97C181.56 138.98 180.52 139.93 177.28 142.32C177.04 142.50 176.89 142.80 176.89 143.10C176.89 143.62 177.31 144 177.76 144L182.78 144C183.21 144 183.58 143.64 183.58 143.17ZM191.68 141.40C191.68 140.94 191.31 140.58 190.88 140.58L190.48 140.58L190.48 136.29C190.48 135.49 189.70 135.12 188.91 135.25C188.35 135.25 187.79 135.55 187.49 136.02L184.59 140.59C184.47 140.78 184.42 140.98 184.42 141.19C184.42 141.78 184.85 142.21 185.37 142.21L188.63 142.21L188.63 143.17C188.63 143.66 189.05 144.08 189.54 144.08C190.06 144.08 190.48 143.66 190.48 143.17L190.48 142.21L190.88 142.21C191.31 142.21 191.68 141.84 191.68 141.40ZM186.29 140.58L188.63 136.97L188.63 140.58ZM194.72 143.36C194.72 142.52 194.16 142.04 193.55 142.04C193.00 142.04 192.53 142.50 192.53 143.08C192.53 143.64 192.92 144.01 193.42 144.01C193.51 144.01 193.63 143.99 193.66 143.97C193.59 144.31 193.30 144.72 192.96 144.99C192.87 145.07 192.83 145.17 192.83 145.27C192.83 145.53 193.10 145.69 193.33 145.69C193.46 145.69 193.57 145.65 193.66 145.56C194.31 144.97 194.72 144.19 194.72 143.36ZM202.76 141.40C202.76 140.94 202.40 140.58 201.97 140.58L201.57 140.58L201.57 136.29C201.57 135.49 200.79 135.12 200.00 135.25C199.44 135.25 198.88 135.55 198.58 136.02L195.68 140.59C195.56 140.78 195.51 140.98 195.51 141.19C195.51 141.78 195.94 142.21 196.46 142.21L199.72 142.21L199.72 143.17C199.72 143.66 200.14 144.08 200.63 144.08C201.15 144.08 201.57 143.66 201.57 143.17L201.57 142.21L201.97 142.21C202.40 142.21 202.76 141.84 202.76 141.40ZM197.38 140.58L199.72 136.97L199.72 140.58ZM209.91 136.26C209.91 135.72 209.47 135.33 209.02 135.33L204.05 135.33C203.61 135.33 203.25 135.69 203.25 136.12C203.25 136.59 203.61 136.95 204.05 136.95L207.69 136.95L205.10 142.82C205.05 142.93 205.03 143.05 205.03 143.17C205.03 143.64 205.40 144.08 205.95 144.08C206.33 144.08 206.68 143.86 206.82 143.52L209.84 136.63C209.89 136.53 209.91 136.40 209.91 136.26ZM217.60 141.18C217.60 139.33 216.21 138.36 214.65 138.36C213.57 138.36 212.76 138.89 212.42 139.48C212.41 139.41 212.41 139.36 212.41 139.29C212.41 137.92 213.31 136.84 214.58 136.84C215.02 136.84 215.39 136.91 215.71 137.08C215.83 137.15 215.96 137.18 216.09 137.18C216.49 137.18 216.93 136.86 216.93 136.37C216.93 136.24 216.90 136.12 216.84 136.02C216.52 135.45 215.43 135.20 214.58 135.20C212.02 135.20 210.54 137.06 210.54 139.68C210.54 142.13 211.64 144.16 214.28 144.16C216.26 144.16 217.60 142.87 217.60 141.18ZM215.72 141.24C215.72 141.89 215.24 142.52 214.24 142.52C213.42 142.52 212.81 141.96 212.81 141.15C212.81 140.37 213.44 139.81 214.24 139.81C215.08 139.81 215.72 140.37 215.72 141.24Z" fill="#627386" /></g><rect x="18" y="166" width="384" height="8" rx="4" fill="#f4faff" /><rect x="18.00" y="166" width="255.53" height="8" rx="4" fill="#00d559" /><rect x="273.53" y="166" width="128.47" height="8" rx="4" fill="#00a5fe" /></svg>