<svg xmlns="http://www.w3.org/2000/svg" width="420" height="184" viewBox="0 0 420 184" role="img"><rect x="0.5" y="0.5" width="419" height="183" rx="10" fill="#ffffff" stroke="#f2f4f6" /><path d="M30.72 33.60C30.72 32.83 30.10 32.21 29.37 32.21L28.69 32.21L28.69 24.95C28.69 23.59 27.37 22.97 26.03 23.19C25.08 23.19 24.14 23.70 23.63 24.49L18.73 32.24C18.53 32.54 18.44 32.90 18.44 33.25C18.44 34.24 19.17 34.96 20.05 34.96L25.57 34.96L25.57 36.59C25.57 37.43 26.27 38.13 27.11 38.13C27.99 38.13 28.69 37.43 28.69 36.59L28.69 34.96L29.37 34.96C30.10 34.96 30.72 34.35 30.72 33.60ZM21.61 32.21L25.57 26.10L25.57 32.21ZM43.70 33.97C43.70 31.97 42.51 30.83 41.63 30.43C42.38 30.08 43.45 29.24 43.45 26.98C43.45 24.45 40.73 23.11 37.80 23.11C34.85 23.11 32.15 24.45 32.15 26.98C32.15 29.24 33.20 30.08 33.95 30.43C33.07 30.83 31.90 31.97 31.90 33.97C31.90 36.72 34.72 38.26 37.80 38.26C40.88 38.26 43.70 36.70 43.70 33.97ZM40.26 27.46C40.26 28.56 39.14 29.20 37.80 29.20C36.46 29.20 35.31 28.56 35.31 27.46C35.31 26.41 36.35 25.79 37.80 25.79C39.23 25.79 40.26 26.41 40.26 27.46ZM40.53 33.80C40.53 34.88 39.30 35.58 37.80 35.58C36.26 35.58 35.07 34.88 35.07 33.80C35.07 32.57 36.44 31.84 37.80 31.84C39.14 31.84 40.53 32.57 40.53 33.80ZM49.20 36.92C49.20 35.49 48.25 34.68 47.22 34.68C46.29 34.68 45.50 35.47 45.50 36.44C45.50 37.38 46.16 38.02 47.00 38.02C47.15 38.02 47.35 37.98 47.41 37.96C47.28 38.53 46.80 39.21 46.23 39.67C46.07 39.80 46.01 39.98 46.01 40.16C46.01 40.60 46.47 40.86 46.84 40.86C47.06 40.86 47.26 40.79 47.41 40.64C48.51 39.65 49.20 38.33 49.20 36.92ZM62.53 30.67C62.53 26.89 60.64 23.11 56.46 23.11C52.25 23.11 50.38 26.89 50.38 30.67C50.38 34.46 52.25 38.26 56.46 38.26C60.64 38.26 62.53 34.46 62.53 30.67ZM59.34 30.67C59.34 33.38 58.55 35.49 56.46 35.49C54.34 35.49 53.55 33.38 53.55 30.67C53.55 27.97 54.34 25.88 56.46 25.88C58.55 25.88 59.34 27.97 59.34 30.67ZM75.88 33.18C75.88 30.21 73.66 28.43 71.17 28.43C69.83 28.43 68.64 28.96 67.94 29.66L67.94 26.08L73.68 26.08C74.41 26.08 75.02 25.46 75.02 24.71C75.02 23.94 74.41 23.33 73.68 23.33L66.58 23.33C65.61 23.33 64.82 24.12 64.82 25.09L64.82 30.72C64.82 31.58 65.43 32.21 66.40 32.21C66.84 32.21 67.26 32.08 67.61 31.84C68.40 31.31 69.17 31.14 70.07 31.14C71.75 31.14 72.71 32.02 72.71 33.31C72.71 34.50 71.72 35.49 69.99 35.49C68.93 35.49 67.92 35.21 67.06 34.68C66.80 34.52 66.51 34.44 66.25 34.44C65.48 34.44 64.75 35.03 64.75 35.84C64.75 36.06 64.82 36.28 64.93 36.48C65.61 37.63 68.09 38.26 70.01 38.26C73.55 38.26 75.88 36.31 75.88 33.18ZM88.33 24.91C88.33 23.99 87.59 23.33 86.82 23.33L78.41 23.33C77.66 23.33 77.05 23.94 77.05 24.67C77.05 25.46 77.66 26.08 78.41 26.08L84.57 26.08L80.19 36.00C80.11 36.20 80.06 36.39 80.06 36.59C80.06 37.38 80.70 38.13 81.62 38.13C82.26 38.13 82.86 37.76 83.10 37.19L88.20 25.53C88.29 25.35 88.33 25.13 88.33 24.91ZM102.83 23.08C98.43 23.08 95.02 26.16 95.02 30.67C95.02 35.18 98.43 38.26 102.83 38.26C105.36 38.26 107.06 37.16 108.16 35.82C108.38 35.58 108.46 35.27 108.46 34.96C108.46 34.22 107.83 33.60 107.03 33.60C106.59 33.60 106.15 33.78 105.85 34.11C105.03 35.01 103.93 35.49 102.83 35.49C100.17 35.49 98.23 33.45 98.23 30.67C98.23 27.90 100.17 25.86 102.83 25.86C103.93 25.86 105.01 26.38 105.85 27.26C106.15 27.59 106.57 27.77 106.99 27.77C107.80 27.77 108.49 27.15 108.49 26.36C108.49 26.08 108.38 25.75 108.18 25.50C107.06 24.16 105.36 23.08 102.83 23.08ZM121.33 32.68C121.33 29.66 119.22 27.11 115.70 27.11C112.20 27.11 110.09 29.66 110.09 32.68C110.09 35.71 112.20 38.26 115.70 38.26C119.22 38.26 121.33 35.71 121.33 32.68ZM118.43 32.68C118.43 34.35 117.44 35.78 115.70 35.78C113.96 35.78 113.00 34.35 113.00 32.68C113.00 31.03 113.96 29.60 115.70 29.60C117.44 29.60 118.43 31.03 118.43 32.68ZM139.40 31.20C139.40 29.02 137.88 27.11 135.48 27.11C133.63 27.11 132.58 28.19 132.18 28.94C131.78 28.17 130.79 27.11 129.01 27.11C127.38 27.11 126.64 27.70 126.20 28.28L126.20 28.25C126.20 27.95 125.80 27.24 124.83 27.24C124.02 27.24 123.40 27.86 123.40 28.61L123.40 36.75C123.40 37.52 124.02 38.13 124.79 38.13C125.58 38.13 126.20 37.52 126.20 36.75L126.20 31.73C126.20 30.70 126.99 29.60 128.18 29.60C129.32 29.60 129.98 30.74 129.98 31.73L129.98 36.75C129.98 37.52 130.60 38.13 131.37 38.13C132.18 38.13 132.80 37.52 132.80 36.75L132.80 31.93C132.80 30.70 133.57 29.60 134.78 29.60C135.92 29.60 136.58 30.74 136.58 31.73L136.58 36.75C136.58 37.52 137.20 38.13 137.97 38.13C138.78 38.13 139.40 37.52 139.40 36.75ZM158.14 31.20C158.14 29.02 156.62 27.11 154.22 27.11C152.38 27.11 151.32 28.19 150.92 28.94C150.53 28.17 149.54 27.11 147.76 27.11C146.13 27.11 145.38 27.70 144.94 28.28L144.94 28.25C144.94 27.95 144.54 27.24 143.58 27.24C142.76 27.24 142.15 27.86 142.15 28.61L142.15 36.75C142.15 37.52 142.76 38.13 143.53 38.13C144.32 38.13 144.94 37.52 144.94 36.75L144.94 31.73C144.94 30.70 145.73 29.60 146.92 29.60C148.06 29.60 148.72 30.74 148.72 31.73L148.72 36.75C148.72 37.52 149.34 38.13 150.11 38.13C150.92 38.13 151.54 37.52 151.54 36.75L151.54 31.93C151.54 30.70 152.31 29.60 153.52 29.60C154.66 29.60 155.32 30.74 155.32 31.73L155.32 36.75C155.32 37.52 155.94 38.13 156.71 38.13C157.52 38.13 158.14 37.52 158.14 36.75ZM162.28 22.91C161.37 22.91 160.60 23.63 160.60 24.56C160.60 25.48 161.37 26.23 162.28 26.23C163.20 26.23 163.95 25.48 163.95 24.56C163.95 23.63 163.20 22.91 162.28 22.91ZM163.68 28.61C163.68 27.86 163.07 27.24 162.32 27.24C161.51 27.24 160.89 27.86 160.89 28.61L160.89 36.75C160.89 37.52 161.51 38.13 162.28 38.13C163.07 38.13 163.68 37.52 163.68 36.75ZM172.26 36.99C172.26 36.31 171.82 35.78 171.03 35.78L170.79 35.78C170.35 35.78 169.82 35.45 169.82 34.61L169.82 29.82L170.92 29.82C171.56 29.82 172.11 29.27 172.11 28.61C172.11 27.92 171.56 27.37 170.92 27.37L169.82 27.37L169.82 25.72C169.82 24.95 169.21 24.34 168.44 24.34C167.62 24.34 167.01 24.95 167.01 25.72L167.01 27.37L166.32 27.37C165.66 27.37 165.11 27.92 165.11 28.56C165.11 29.27 165.66 29.82 166.32 29.82L167.01 29.82L167.01 35.36C167.01 37.25 168.06 38.26 170.02 38.26C171.85 38.26 172.26 37.69 172.26 36.99ZM182.32 34.85C182.32 30.56 176.03 31.88 176.03 30.30C176.03 29.71 176.69 29.24 177.70 29.24C178.56 29.24 179.41 29.49 180.10 29.88C180.25 29.97 180.45 30.01 180.62 30.01C181.20 30.01 181.72 29.55 181.72 28.96C181.72 28.76 181.66 28.56 181.55 28.41C180.95 27.55 179.06 27.11 177.68 27.11C174.88 27.11 173.32 28.67 173.32 30.45C173.32 34.63 179.63 33.20 179.63 34.96C179.63 35.62 179.06 36.11 177.85 36.11C176.93 36.11 175.83 35.73 174.99 35.25C174.82 35.14 174.62 35.10 174.42 35.10C173.83 35.10 173.25 35.60 173.25 36.26C173.25 36.48 173.32 36.68 173.45 36.86C174.11 37.80 176.33 38.26 177.72 38.26C180.67 38.26 182.32 36.79 182.32 34.85Z" fill="#22272e" /><path d="M20.26 49.88C20.26 49.54 19.98 49.25 19.64 49.25C19.26 49.25 18.98 49.54 18.98 49.88L18.98 57.44C18.98 57.79 19.26 58.08 19.61 58.08C19.98 58.08 20.26 57.79 20.26 57.44ZM27.55 53.97C27.55 52.64 26.59 51.56 25.27 51.56C24.18 51.56 23.62 52.10 23.32 52.60L23.32 52.20C23.32 51.90 23.06 51.64 22.76 51.64C22.42 51.64 22.16 51.90 22.16 52.20L22.16 57.51C22.16 57.82 22.42 58.08 22.73 58.08C23.06 58.08 23.32 57.82 23.32 57.51L23.32 54.49C23.32 53.42 23.89 52.59 24.89 52.59C25.83 52.59 26.40 53.32 26.40 54.36L26.40 57.51C26.40 57.82 26.66 58.08 26.97 58.08C27.30 58.08 27.55 57.82 27.55 57.51ZM38.97 49.91C38.97 49.58 38.72 49.33 38.41 49.33L32.70 49.33C32.39 49.33 32.14 49.58 32.14 49.89C32.14 50.21 32.39 50.47 32.70 50.47L34.91 50.47L34.91 57.44C34.91 57.79 35.20 58.08 35.55 58.08C35.91 58.08 36.20 57.79 36.20 57.44L36.20 50.47L38.41 50.47C38.72 50.47 38.97 50.21 38.97 49.91ZM44.74 54.85C44.74 53.05 43.53 51.56 41.57 51.56C39.62 51.56 38.41 53.05 38.41 54.85C38.41 56.66 39.62 58.16 41.57 58.16C43.53 58.16 44.74 56.66 44.74 54.85ZM43.53 54.85C43.53 56.06 42.83 57.13 41.57 57.13C40.32 57.13 39.61 56.06 39.61 54.85C39.61 53.66 40.32 52.59 41.57 52.59C42.83 52.59 43.53 53.66 43.53 54.85ZM49.16 57.55C49.16 57.27 48.95 57.06 48.67 57.06C48.54 57.06 48.38 57.13 48.24 57.13C47.86 57.13 47.63 56.83 47.63 56.35L47.63 52.73L48.48 52.73C48.76 52.73 48.98 52.51 48.98 52.24C48.98 51.94 48.76 51.72 48.48 51.72L47.63 51.72L47.63 50.49C47.63 50.19 47.37 49.93 47.05 49.93C46.72 49.93 46.46 50.19 46.46 50.49L46.46 51.72L45.85 51.72C45.56 51.72 45.34 51.94 45.34 52.22C45.34 52.51 45.56 52.73 45.85 52.73L46.46 52.73L46.46 56.62C46.46 57.61 46.98 58.16 47.96 58.16C48.65 58.16 49.16 57.96 49.16 57.55ZM55.26 53.75C55.26 52.15 54.09 51.56 52.74 51.56C51.89 51.56 50.94 51.84 50.34 52.44C50.27 52.53 50.23 52.63 50.23 52.73C50.23 53.01 50.47 53.19 50.71 53.19C50.80 53.19 50.90 53.15 50.99 53.09C51.46 52.72 51.98 52.54 52.57 52.54C53.45 52.54 54.10 53.01 54.10 53.80L54.10 54.15L52.29 54.15C50.99 54.15 49.85 54.66 49.85 56.08C49.85 57.45 50.99 58.16 52.03 58.16C53.01 58.16 53.59 57.86 54.10 57.30L54.10 57.51C54.10 57.88 54.40 58.08 54.63 58.08L54.67 58.08C55.00 58.08 55.26 57.82 55.26 57.51ZM54.10 54.96L54.10 55.84C54.10 56.58 53.26 57.34 52.35 57.34C51.50 57.34 51.02 56.83 51.02 56.10C51.02 55.35 51.62 54.96 52.61 54.96ZM58.27 49.81C58.27 49.51 58.01 49.25 57.71 49.25C57.38 49.25 57.12 49.51 57.12 49.81L57.12 57.51C57.12 57.82 57.38 58.08 57.69 58.08C58.01 58.08 58.27 57.82 58.27 57.51Z" fill="#627386" /><line x1="18" y1="76" x2="48" y2="76" stroke="#627386" stroke-opacity="0.4" /><g aria-label="Additions: 34,039,603"><circle cx="22" cy="96" r="4" fill="#00d559" /><path d="M42.28 99.39C42.28 99.31 42.27 99.23 42.23 99.14L39.36 91.94C39.19 91.51 38.76 91.24 38.30 91.25C37.85 91.25 37.43 91.52 37.28 91.94L34.40 99.14C34.38 99.23 34.36 99.31 34.36 99.39C34.36 99.74 34.65 100.08 35.05 100.08C35.33 100.08 35.57 99.92 35.68 99.66L36.25 98.19L40.40 98.19L40.97 99.66C41.07 99.92 41.32 100.08 41.59 100.08C42.01 100.08 42.28 99.71 42.28 99.39ZM38.32 92.64L40.03 97.06L36.61 97.06ZM49.22 91.81C49.22 91.51 48.96 91.25 48.66 91.25C48.33 91.25 48.07 91.51 48.07 91.81L48.07 94.63C47.56 93.95 46.95 93.56 46.00 93.56C44.36 93.56 43.20 94.85 43.20 96.87C43.20 98.92 44.37 100.16 46.00 100.16C46.97 100.16 47.59 99.73 48.07 99.10L48.07 99.51C48.07 99.82 48.33 100.08 48.64 100.08C48.96 100.08 49.22 99.82 49.22 99.51ZM48.07 96.91C48.07 98.21 47.42 99.13 46.30 99.13C45.13 99.13 44.40 98.18 44.40 96.87C44.40 95.55 45.13 94.59 46.30 94.59C47.42 94.59 48.07 95.54 48.07 96.83ZM56.74 91.81C56.74 91.51 56.48 91.25 56.18 91.25C55.84 91.25 55.58 91.51 55.58 91.81L55.58 94.63C55.07 93.95 54.46 93.56 53.51 93.56C51.88 93.56 50.72 94.85 50.72 96.87C50.72 98.92 51.89 100.16 53.51 100.16C54.49 100.16 55.10 99.73 55.58 99.10L55.58 99.51C55.58 99.82 55.84 100.08 56.15 100.08C56.48 100.08 56.74 99.82 56.74 99.51ZM55.58 96.91C55.58 98.21 54.93 99.13 53.81 99.13C52.64 99.13 51.91 98.18 51.91 96.87C51.91 95.55 52.64 94.59 53.81 94.59C54.93 94.59 55.58 95.54 55.58 96.83ZM59.18 91.39C58.78 91.39 58.44 91.73 58.44 92.15C58.44 92.55 58.78 92.89 59.18 92.89C59.60 92.89 59.92 92.55 59.92 92.15C59.92 91.73 59.60 91.39 59.18 91.39ZM59.77 94.20C59.77 93.90 59.51 93.64 59.21 93.64C58.87 93.64 58.61 93.90 58.61 94.20L58.61 99.51C58.61 99.82 58.87 100.08 59.18 100.08C59.51 100.08 59.77 99.82 59.77 99.51ZM64.56 99.55C64.56 99.27 64.36 99.06 64.07 99.06C63.94 99.06 63.78 99.13 63.64 99.13C63.26 99.13 63.03 98.83 63.03 98.35L63.03 94.73L63.89 94.73C64.16 94.73 64.38 94.51 64.38 94.24C64.38 93.94 64.16 93.72 63.89 93.72L63.03 93.72L63.03 92.49C63.03 92.19 62.77 91.93 62.46 91.93C62.12 91.93 61.86 92.19 61.86 92.49L61.86 93.72L61.25 93.72C60.96 93.72 60.74 93.94 60.74 94.22C60.74 94.51 60.96 94.73 61.25 94.73L61.86 94.73L61.86 98.62C61.86 99.61 62.38 100.16 63.37 100.16C64.06 100.16 64.56 99.96 64.56 99.55ZM66.19 91.39C65.79 91.39 65.45 91.73 65.45 92.15C65.45 92.55 65.79 92.89 66.19 92.89C66.60 92.89 66.93 92.55 66.93 92.15C66.93 91.73 66.60 91.39 66.19 91.39ZM66.77 94.20C66.77 93.90 66.51 93.64 66.21 93.64C65.88 93.64 65.62 93.90 65.62 94.20L65.62 99.51C65.62 99.82 65.88 100.08 66.19 100.08C66.51 100.08 66.77 99.82 66.77 99.51ZM74.60 96.85C74.60 95.05 73.39 93.56 71.43 93.56C69.48 93.56 68.27 95.05 68.27 96.85C68.27 98.66 69.48 100.16 71.43 100.16C73.39 100.16 74.60 98.66 74.60 96.85ZM73.39 96.85C73.39 98.06 72.69 99.13 71.43 99.13C70.18 99.13 69.46 98.06 69.46 96.85C69.46 95.66 70.18 94.59 71.43 94.59C72.69 94.59 73.39 95.66 73.39 96.85ZM81.49 95.97C81.49 94.64 80.53 93.56 79.20 93.56C78.11 93.56 77.55 94.10 77.25 94.61L77.25 94.20C77.25 93.90 76.99 93.64 76.69 93.64C76.35 93.64 76.09 93.90 76.09 94.20L76.09 99.51C76.09 99.82 76.35 100.08 76.67 100.08C76.99 100.08 77.25 99.82 77.25 99.51L77.25 96.49C77.25 95.42 77.82 94.59 78.82 94.59C79.76 94.59 80.33 95.32 80.33 96.36L80.33 99.51C80.33 99.82 80.59 100.08 80.90 100.08C81.23 100.08 81.49 99.82 81.49 99.51ZM87.96 98.10C87.85 95.89 84.24 96.50 84.11 95.37C84.06 94.86 84.61 94.49 85.40 94.49C86 94.49 86.56 94.68 86.96 94.97C87.04 95.03 87.13 95.06 87.23 95.06C87.47 95.06 87.69 94.86 87.69 94.61C87.69 94.50 87.65 94.40 87.57 94.32C87.08 93.84 86.29 93.56 85.39 93.56C83.86 93.56 82.93 94.29 83.00 95.41C83.11 97.52 86.70 96.87 86.83 98.26C86.88 98.83 86.36 99.23 85.47 99.23C84.82 99.23 84.17 98.97 83.70 98.64C83.61 98.57 83.52 98.54 83.40 98.54C83.13 98.54 82.89 98.75 82.89 99.03C82.89 99.16 82.94 99.26 83.04 99.34C83.61 99.91 84.56 100.16 85.41 100.16C87.08 100.16 88.03 99.30 87.96 98.10Z" fill="#22272e" /><path d="M156.64 97.63C156.74 96.07 155.69 95.53 155.69 95.53C155.69 95.53 156.65 95.03 156.55 93.55C156.44 92.11 155.30 91.20 153.27 91.20C152.08 91.20 151.14 91.55 150.43 92.12C150.24 92.27 150.15 92.47 150.15 92.68C150.15 93.14 150.56 93.46 150.96 93.46C151.11 93.46 151.27 93.42 151.40 93.33C151.91 93.01 152.48 92.84 153.08 92.84C153.99 92.84 154.69 93.05 154.69 93.73C154.69 94.45 154.26 94.79 153.39 94.79C152.77 94.79 152.49 95.14 152.49 95.59C152.49 96.05 152.77 96.41 153.44 96.41C154.33 96.41 154.83 96.72 154.83 97.41C154.83 98.06 154.25 98.52 153.19 98.52C152.60 98.52 151.91 98.31 151.34 97.97C151.19 97.88 151.04 97.84 150.88 97.84C150.45 97.84 150.04 98.19 150.04 98.66C150.04 98.79 150.07 98.91 150.14 99.01C150.54 99.69 152.01 100.16 153.26 100.16C155.34 100.16 156.54 99.26 156.64 97.63ZM164.73 97.40C164.73 96.94 164.36 96.58 163.93 96.58L163.53 96.58L163.53 92.29C163.53 91.48 162.75 91.12 161.96 91.25C161.40 91.25 160.84 91.55 160.54 92.02L157.64 96.59C157.52 96.78 157.47 96.98 157.47 97.19C157.47 97.78 157.90 98.21 158.42 98.21L161.68 98.21L161.68 99.17C161.68 99.66 162.10 100.08 162.59 100.08C163.11 100.08 163.53 99.66 163.53 99.17L163.53 98.21L163.93 98.21C164.36 98.21 164.73 97.84 164.73 97.40ZM159.34 96.58L161.68 92.97L161.68 96.58ZM167.77 99.36C167.77 98.52 167.21 98.04 166.60 98.04C166.05 98.04 165.58 98.50 165.58 99.08C165.58 99.64 165.97 100.01 166.47 100.01C166.56 100.01 166.68 99.99 166.71 99.97C166.64 100.31 166.35 100.72 166.01 100.99C165.92 101.07 165.88 101.17 165.88 101.27C165.88 101.53 166.16 101.69 166.38 101.69C166.51 101.69 166.62 101.65 166.71 101.56C167.36 100.97 167.77 100.19 167.77 99.36ZM175.65 95.67C175.65 93.44 174.53 91.20 172.06 91.20C169.57 91.20 168.47 93.44 168.47 95.67C168.47 97.91 169.57 100.16 172.06 100.16C174.53 100.16 175.65 97.91 175.65 95.67ZM173.76 95.67C173.76 97.27 173.29 98.52 172.06 98.52C170.81 98.52 170.34 97.27 170.34 95.67C170.34 94.07 170.81 92.84 172.06 92.84C173.29 92.84 173.76 94.07 173.76 95.67ZM183.15 97.63C183.25 96.07 182.20 95.53 182.20 95.53C182.20 95.53 183.16 95.03 183.06 93.55C182.95 92.11 181.81 91.20 179.78 91.20C178.58 91.20 177.65 91.55 176.93 92.12C176.75 92.27 176.66 92.47 176.66 92.68C176.66 93.14 177.06 93.46 177.47 93.46C177.62 93.46 177.78 93.42 177.91 93.33C178.41 93.01 178.99 92.84 179.59 92.84C180.50 92.84 181.20 93.05 181.20 93.73C181.20 94.45 180.77 94.79 179.90 94.79C179.27 94.79 179 95.14 179 95.59C179 96.05 179.27 96.41 179.95 96.41C180.83 96.41 181.34 96.72 181.34 97.41C181.34 98.06 180.75 98.52 179.70 98.52C179.10 98.52 178.41 98.31 177.84 97.97C177.70 97.88 177.54 97.84 177.39 97.84C176.96 97.84 176.54 98.19 176.54 98.66C176.54 98.79 176.58 98.91 176.65 99.01C177.05 99.69 178.52 100.16 179.77 100.16C181.85 100.16 183.04 99.26 183.15 97.63ZM184.11 94.16C184.11 96.01 185.50 96.98 187.06 96.98C188.14 96.98 188.94 96.45 189.28 95.87C189.30 95.93 189.30 95.98 189.30 96.05C189.30 97.43 188.40 98.50 187.13 98.50C186.68 98.50 186.32 98.43 185.99 98.26C185.88 98.19 185.75 98.17 185.62 98.17C185.21 98.17 184.77 98.48 184.77 98.97C184.77 99.10 184.81 99.22 184.86 99.32C185.19 99.90 186.28 100.14 187.13 100.14C189.69 100.14 191.17 98.28 191.17 95.66C191.17 93.21 190.06 91.19 187.42 91.19C185.45 91.19 184.11 92.47 184.11 94.16ZM185.98 94.10C185.98 93.45 186.46 92.82 187.46 92.82C188.28 92.82 188.89 93.38 188.89 94.19C188.89 94.97 188.27 95.53 187.46 95.53C186.63 95.53 185.98 94.97 185.98 94.10ZM194.14 99.36C194.14 98.52 193.59 98.04 192.97 98.04C192.43 98.04 191.96 98.50 191.96 99.08C191.96 99.64 192.35 100.01 192.84 100.01C192.94 100.01 193.05 99.99 193.09 99.97C193.01 100.31 192.73 100.72 192.39 100.99C192.30 101.07 192.26 101.17 192.26 101.27C192.26 101.53 192.53 101.69 192.75 101.69C192.88 101.69 193.00 101.65 193.09 101.56C193.74 100.97 194.14 100.19 194.14 99.36ZM201.91 97.18C201.91 95.33 200.52 94.36 198.96 94.36C197.88 94.36 197.07 94.89 196.73 95.48C196.72 95.41 196.72 95.36 196.72 95.29C196.72 93.92 197.62 92.84 198.89 92.84C199.33 92.84 199.70 92.91 200.02 93.08C200.14 93.15 200.27 93.17 200.40 93.17C200.80 93.17 201.24 92.86 201.24 92.37C201.24 92.24 201.20 92.12 201.15 92.02C200.83 91.45 199.74 91.20 198.89 91.20C196.33 91.20 194.85 93.06 194.85 95.68C194.85 98.13 195.95 100.16 198.59 100.16C200.57 100.16 201.91 98.87 201.91 97.18ZM200.03 97.24C200.03 97.89 199.55 98.52 198.55 98.52C197.73 98.52 197.12 97.96 197.12 97.15C197.12 96.37 197.75 95.81 198.55 95.81C199.38 95.81 200.03 96.37 200.03 97.24ZM209.93 95.67C209.93 93.44 208.81 91.20 206.34 91.20C203.86 91.20 202.75 93.44 202.75 95.67C202.75 97.91 203.86 100.16 206.34 100.16C208.81 100.16 209.93 97.91 209.93 95.67ZM208.04 95.67C208.04 97.27 207.57 98.52 206.34 98.52C205.09 98.52 204.62 97.27 204.62 95.67C204.62 94.07 205.09 92.84 206.34 92.84C207.57 92.84 208.04 94.07 208.04 95.67ZM217.43 97.63C217.53 96.07 216.48 95.53 216.48 95.53C216.48 95.53 217.44 95.03 217.34 93.55C217.23 92.11 216.09 91.20 214.06 91.20C212.87 91.20 211.93 91.55 211.21 92.12C211.03 92.27 210.94 92.47 210.94 92.68C210.94 93.14 211.34 93.46 211.75 93.46C211.90 93.46 212.06 93.42 212.19 93.33C212.70 93.01 213.27 92.84 213.87 92.84C214.78 92.84 215.48 93.05 215.48 93.73C215.48 94.45 215.05 94.79 214.18 94.79C213.55 94.79 213.28 95.14 213.28 95.59C213.28 96.05 213.55 96.41 214.23 96.41C215.11 96.41 215.62 96.72 215.62 97.41C215.62 98.06 215.04 98.52 213.98 98.52C213.38 98.52 212.70 98.31 212.12 97.97C211.98 97.88 211.82 97.84 211.67 97.84C211.24 97.84 210.82 98.19 210.82 98.66C210.82 98.79 210.86 98.91 210.93 99.01C211.33 99.69 212.80 100.16 214.05 100.16C216.13 100.16 217.32 99.26 217.43 97.63Z" fill="#627386" /></g><g aria-label="Deletions: 16,779,494"><circle cx="22" cy="118" r="4" fill="#00a5fe" /><path d="M42.54 117.67C42.54 115.17 40.76 113.33 38.06 113.33L35.82 113.33C35.35 113.33 34.98 113.71 34.98 114.17L34.98 121.16C34.98 121.62 35.35 122 35.82 122L38.06 122C40.76 122 42.54 120.18 42.54 117.67ZM41.23 117.67C41.23 119.43 40.06 120.86 38.06 120.86L36.26 120.86L36.26 114.47L38.06 114.47C40.11 114.47 41.23 115.89 41.23 117.67ZM49.90 118.65C49.90 118.40 49.83 118.13 49.78 117.92C49.42 116.51 48.38 115.56 46.86 115.56C45.04 115.56 43.72 117.03 43.72 118.85C43.72 120.83 45.09 122.16 46.96 122.16C47.88 122.16 49.50 121.67 49.50 120.97C49.50 120.53 49.05 120.43 48.77 120.57C48.31 120.91 47.61 121.22 47.08 121.22C45.80 121.22 45.02 120.35 44.93 119.27L49.30 119.27C49.63 119.27 49.90 118.96 49.90 118.65ZM44.93 118.41C44.98 117.54 45.60 116.50 46.84 116.50C48.18 116.50 48.76 117.57 48.78 118.41ZM52.54 113.81C52.54 113.51 52.28 113.25 51.98 113.25C51.64 113.25 51.38 113.51 51.38 113.81L51.38 121.51C51.38 121.82 51.64 122.08 51.95 122.08C52.28 122.08 52.54 121.82 52.54 121.51ZM60.21 118.65C60.21 118.40 60.14 118.13 60.09 117.92C59.73 116.51 58.69 115.56 57.17 115.56C55.35 115.56 54.03 117.03 54.03 118.85C54.03 120.83 55.40 122.16 57.27 122.16C58.19 122.16 59.81 121.67 59.81 120.97C59.81 120.53 59.36 120.43 59.08 120.57C58.62 120.91 57.92 121.22 57.39 121.22C56.11 121.22 55.33 120.35 55.24 119.27L59.61 119.27C59.94 119.27 60.21 118.96 60.21 118.65ZM55.24 118.41C55.29 117.54 55.91 116.50 57.15 116.50C58.49 116.50 59.06 117.57 59.09 118.41ZM64.62 121.55C64.62 121.27 64.41 121.06 64.12 121.06C63.99 121.06 63.84 121.13 63.69 121.13C63.32 121.13 63.08 120.83 63.08 120.35L63.08 116.73L63.94 116.73C64.21 116.73 64.43 116.51 64.43 116.24C64.43 115.94 64.21 115.72 63.94 115.72L63.08 115.72L63.08 114.49C63.08 114.19 62.82 113.93 62.51 113.93C62.17 113.93 61.91 114.19 61.91 114.49L61.91 115.72L61.30 115.72C61.01 115.72 60.79 115.94 60.79 116.22C60.79 116.51 61.01 116.73 61.30 116.73L61.91 116.73L61.91 120.62C61.91 121.61 62.43 122.16 63.42 122.16C64.11 122.16 64.62 121.96 64.62 121.55ZM66.24 113.39C65.84 113.39 65.50 113.73 65.50 114.15C65.50 114.55 65.84 114.89 66.24 114.89C66.66 114.89 66.98 114.55 66.98 114.15C66.98 113.73 66.66 113.39 66.24 113.39ZM66.83 116.20C66.83 115.90 66.56 115.64 66.27 115.64C65.93 115.64 65.67 115.90 65.67 116.20L65.67 121.51C65.67 121.82 65.93 122.08 66.24 122.08C66.56 122.08 66.83 121.82 66.83 121.51ZM74.65 118.85C74.65 117.05 73.44 115.56 71.48 115.56C69.53 115.56 68.32 117.05 68.32 118.85C68.32 120.66 69.53 122.16 71.48 122.16C73.44 122.16 74.65 120.66 74.65 118.85ZM73.44 118.85C73.44 120.06 72.74 121.13 71.48 121.13C70.23 121.13 69.52 120.06 69.52 118.85C69.52 117.66 70.23 116.59 71.48 116.59C72.74 116.59 73.44 117.66 73.44 118.85ZM81.54 117.97C81.54 116.64 80.58 115.56 79.25 115.56C78.16 115.56 77.60 116.10 77.30 116.61L77.30 116.20C77.30 115.90 77.04 115.64 76.74 115.64C76.41 115.64 76.15 115.90 76.15 116.20L76.15 121.51C76.15 121.82 76.41 122.08 76.72 122.08C77.04 122.08 77.30 121.82 77.30 121.51L77.30 118.49C77.30 117.42 77.88 116.59 78.88 116.59C79.81 116.59 80.38 117.32 80.38 118.36L80.38 121.51C80.38 121.82 80.64 122.08 80.96 122.08C81.28 122.08 81.54 121.82 81.54 121.51ZM88.01 120.10C87.90 117.89 84.30 118.50 84.17 117.37C84.11 116.86 84.66 116.49 85.45 116.49C86.05 116.49 86.61 116.68 87.01 116.97C87.09 117.03 87.18 117.06 87.29 117.06C87.52 117.06 87.74 116.86 87.74 116.61C87.74 116.50 87.70 116.40 87.62 116.32C87.13 115.84 86.34 115.56 85.44 115.56C83.91 115.56 82.98 116.29 83.05 117.41C83.17 119.52 86.75 118.87 86.88 120.26C86.94 120.83 86.42 121.23 85.52 121.23C84.87 121.23 84.22 120.97 83.75 120.64C83.66 120.57 83.57 120.54 83.45 120.54C83.18 120.54 82.94 120.75 82.94 121.03C82.94 121.16 83.00 121.26 83.09 121.34C83.66 121.91 84.61 122.16 85.47 122.16C87.13 122.16 88.08 121.30 88.01 120.10Z" fill="#22272e" /><path d="M158.30 114.32C158.30 113.73 157.81 113.26 157.22 113.26C156.93 113.26 156.64 113.38 156.44 113.58L154.44 115.60C154.29 115.76 154.21 115.95 154.21 116.15C154.21 116.58 154.57 116.92 154.98 116.92C155.16 116.92 155.34 116.85 155.48 116.71L156.46 115.71L156.46 121.17C156.46 121.66 156.87 122.08 157.37 122.08C157.89 122.08 158.30 121.66 158.30 121.17ZM166.66 119.18C166.66 117.33 165.27 116.36 163.71 116.36C162.63 116.36 161.83 116.89 161.49 117.48C161.48 117.41 161.48 117.36 161.48 117.29C161.48 115.92 162.37 114.84 163.65 114.84C164.09 114.84 164.45 114.91 164.78 115.08C164.89 115.15 165.02 115.17 165.15 115.17C165.56 115.17 166.00 114.86 166.00 114.37C166.00 114.24 165.96 114.12 165.91 114.02C165.58 113.45 164.49 113.20 163.65 113.20C161.09 113.20 159.60 115.06 159.60 117.68C159.60 120.13 160.71 122.16 163.35 122.16C165.32 122.16 166.66 120.87 166.66 119.18ZM164.79 119.24C164.79 119.89 164.31 120.52 163.31 120.52C162.49 120.52 161.88 119.96 161.88 119.15C161.88 118.37 162.50 117.81 163.31 117.81C164.14 117.81 164.79 118.37 164.79 119.24ZM169.86 121.36C169.86 120.52 169.30 120.04 168.69 120.04C168.14 120.04 167.68 120.50 167.68 121.08C167.68 121.64 168.07 122.01 168.56 122.01C168.65 122.01 168.77 121.99 168.81 121.97C168.73 122.31 168.44 122.72 168.11 122.99C168.01 123.07 167.98 123.17 167.98 123.27C167.98 123.53 168.25 123.69 168.47 123.69C168.60 123.69 168.72 123.65 168.81 123.56C169.46 122.97 169.86 122.19 169.86 121.36ZM176.35 114.27C176.35 113.72 175.91 113.33 175.45 113.33L170.48 113.33C170.04 113.33 169.68 113.69 169.68 114.12C169.68 114.59 170.04 114.95 170.48 114.95L174.12 114.95L171.54 120.82C171.49 120.93 171.46 121.05 171.46 121.17C171.46 121.64 171.84 122.08 172.38 122.08C172.76 122.08 173.11 121.86 173.25 121.52L176.27 114.63C176.32 114.53 176.35 114.39 176.35 114.27ZM183.43 114.27C183.43 113.72 182.99 113.33 182.54 113.33L177.57 113.33C177.13 113.33 176.76 113.69 176.76 114.12C176.76 114.59 177.13 114.95 177.57 114.95L181.21 114.95L178.62 120.82C178.57 120.93 178.54 121.05 178.54 121.17C178.54 121.64 178.92 122.08 179.47 122.08C179.84 122.08 180.20 121.86 180.34 121.52L183.35 114.63C183.41 114.53 183.43 114.39 183.43 114.27ZM184.00 116.16C184.00 118.01 185.40 118.98 186.96 118.98C188.03 118.98 188.84 118.45 189.18 117.87C189.19 117.93 189.19 117.98 189.19 118.05C189.19 119.43 188.29 120.50 187.02 120.50C186.58 120.50 186.21 120.43 185.89 120.26C185.77 120.19 185.64 120.17 185.51 120.17C185.11 120.17 184.67 120.48 184.67 120.97C184.67 121.10 184.71 121.22 184.76 121.32C185.08 121.90 186.18 122.14 187.02 122.14C189.58 122.14 191.06 120.28 191.06 117.66C191.06 115.21 189.96 113.19 187.32 113.19C185.34 113.19 184.00 114.47 184.00 116.16ZM185.88 116.10C185.88 115.45 186.36 114.82 187.36 114.82C188.18 114.82 188.79 115.38 188.79 116.19C188.79 116.97 188.16 117.53 187.36 117.53C186.53 117.53 185.88 116.97 185.88 116.10ZM194.04 121.36C194.04 120.52 193.48 120.04 192.87 120.04C192.32 120.04 191.86 120.50 191.86 121.08C191.86 121.64 192.25 122.01 192.74 122.01C192.83 122.01 192.95 121.99 192.99 121.97C192.91 122.31 192.62 122.72 192.29 122.99C192.19 123.07 192.16 123.17 192.16 123.27C192.16 123.53 192.43 123.69 192.65 123.69C192.78 123.69 192.90 123.65 192.99 123.56C193.64 122.97 194.04 122.19 194.04 121.36ZM202.09 119.40C202.09 118.94 201.72 118.58 201.29 118.58L200.89 118.58L200.89 114.29C200.89 113.48 200.11 113.12 199.32 113.25C198.76 113.25 198.20 113.55 197.90 114.02L195.00 118.59C194.89 118.78 194.83 118.98 194.83 119.19C194.83 119.78 195.26 120.21 195.78 120.21L199.05 120.21L199.05 121.17C199.05 121.66 199.46 122.08 199.96 122.08C200.48 122.08 200.89 121.66 200.89 121.17L200.89 120.21L201.29 120.21C201.72 120.21 202.09 119.84 202.09 119.40ZM196.71 118.58L199.05 114.97L199.05 118.58ZM202.72 116.16C202.72 118.01 204.12 118.98 205.68 118.98C206.75 118.98 207.56 118.45 207.90 117.87C207.91 117.93 207.91 117.98 207.91 118.05C207.91 119.43 207.01 120.50 205.74 120.50C205.30 120.50 204.93 120.43 204.61 120.26C204.49 120.19 204.36 120.17 204.23 120.17C203.83 120.17 203.39 120.48 203.39 120.97C203.39 121.10 203.43 121.22 203.48 121.32C203.80 121.90 204.90 122.14 205.74 122.14C208.30 122.14 209.78 120.28 209.78 117.66C209.78 115.21 208.68 113.19 206.04 113.19C204.06 113.19 202.72 114.47 202.72 116.16ZM204.60 116.10C204.60 115.45 205.08 114.82 206.08 114.82C206.90 114.82 207.51 115.38 207.51 116.19C207.51 116.97 206.88 117.53 206.08 117.53C205.25 117.53 204.60 116.97 204.60 116.10ZM217.75 119.40C217.75 118.94 217.39 118.58 216.96 118.58L216.56 118.58L216.56 114.29C216.56 113.48 215.78 113.12 214.98 113.25C214.42 113.25 213.87 113.55 213.57 114.02L210.67 118.59C210.55 118.78 210.50 118.98 210.50 119.19C210.50 119.78 210.93 120.21 211.45 120.21L214.71 120.21L214.71 121.17C214.71 121.66 215.13 122.08 215.62 122.08C216.14 122.08 216.56 121.66 216.56 121.17L216.56 120.21L216.96 120.21C217.39 120.21 217.75 119.84 217.75 119.40ZM212.37 118.58L214.71 114.97L214.71 118.58Z" fill="#627386" /></g><g aria-label="Changed Files: 523,330"><circle cx="22" cy="140" r="4" fill="#673bd6" /><path d="M39.11 135.19C36.59 135.19 34.60 137.01 34.60 139.67C34.60 142.34 36.59 144.16 39.11 144.16C40.46 144.16 41.40 143.60 42.07 142.87C42.18 142.76 42.23 142.62 42.23 142.47C42.23 142.15 41.97 141.87 41.63 141.87C41.46 141.87 41.28 141.95 41.18 142.08C40.64 142.67 39.88 143.01 39.11 143.01C37.29 143.01 35.94 141.61 35.94 139.67C35.94 137.72 37.29 136.33 39.11 136.33C39.86 136.33 40.67 136.69 41.18 137.28C41.28 137.42 41.46 137.49 41.62 137.49C41.96 137.49 42.23 137.21 42.23 136.89C42.23 136.73 42.18 136.59 42.07 136.47C41.41 135.73 40.46 135.19 39.11 135.19ZM49.17 139.94C49.17 138.62 48.22 137.56 46.90 137.56C45.79 137.56 45.22 138.10 44.92 138.60L44.92 135.81C44.92 135.51 44.66 135.25 44.36 135.25C44.02 135.25 43.76 135.51 43.76 135.81L43.76 143.51C43.76 143.82 44.02 144.08 44.34 144.08C44.66 144.08 44.92 143.82 44.92 143.51L44.92 140.56C44.92 139.38 45.54 138.59 46.53 138.59C47.47 138.59 48.01 139.29 48.01 140.33L48.01 143.51C48.01 143.82 48.27 144.08 48.59 144.08C48.91 144.08 49.17 143.82 49.17 143.51ZM56.09 139.75C56.09 138.15 54.92 137.56 53.56 137.56C52.72 137.56 51.77 137.84 51.17 138.44C51.09 138.53 51.06 138.63 51.06 138.74C51.06 139.01 51.30 139.19 51.54 139.19C51.63 139.19 51.73 139.15 51.82 139.09C52.29 138.72 52.81 138.54 53.40 138.54C54.28 138.54 54.93 139.01 54.93 139.80L54.93 140.15L53.12 140.15C51.82 140.15 50.68 140.66 50.68 142.08C50.68 143.45 51.82 144.16 52.86 144.16C53.84 144.16 54.42 143.86 54.93 143.30L54.93 143.51C54.93 143.88 55.23 144.08 55.46 144.08L55.50 144.08C55.83 144.08 56.09 143.82 56.09 143.51ZM54.93 140.96L54.93 141.84C54.93 142.58 54.09 143.34 53.17 143.34C52.33 143.34 51.85 142.83 51.85 142.10C51.85 141.35 52.45 140.96 53.44 140.96ZM63.34 139.97C63.34 138.64 62.38 137.56 61.05 137.56C59.96 137.56 59.40 138.10 59.10 138.60L59.10 138.20C59.10 137.90 58.84 137.64 58.54 137.64C58.21 137.64 57.95 137.90 57.95 138.20L57.95 143.51C57.95 143.82 58.21 144.08 58.52 144.08C58.84 144.08 59.10 143.82 59.10 143.51L59.10 140.49C59.10 139.42 59.67 138.59 60.68 138.59C61.61 138.59 62.18 139.32 62.18 140.36L62.18 143.51C62.18 143.82 62.44 144.08 62.76 144.08C63.08 144.08 63.34 143.82 63.34 143.51ZM70.84 138.20C70.84 137.90 70.58 137.64 70.28 137.64C69.95 137.64 69.69 137.90 69.69 138.20L69.69 138.63C69.18 137.96 68.45 137.56 67.62 137.56C65.99 137.56 64.84 138.79 64.84 140.81C64.84 142.86 66.01 144.05 67.62 144.05C68.48 144.05 69.22 143.60 69.69 142.96L69.69 143.79C69.69 145.13 68.72 145.60 67.75 145.60C67.06 145.60 66.51 145.46 66.03 145.05C65.94 144.99 65.85 144.96 65.73 144.96C65.47 144.96 65.24 145.18 65.24 145.46C65.24 145.59 65.29 145.70 65.37 145.78C65.98 146.37 66.86 146.55 67.75 146.55C69.28 146.55 70.84 145.91 70.84 143.75ZM69.69 140.83C69.69 142.12 68.84 143.03 67.80 143.03C66.63 143.03 66.03 142.10 66.03 140.81C66.03 139.50 66.63 138.59 67.80 138.59C68.84 138.59 69.69 139.49 69.69 140.78ZM78.51 140.65C78.51 140.40 78.45 140.13 78.40 139.92C78.03 138.51 76.99 137.56 75.47 137.56C73.65 137.56 72.34 139.03 72.34 140.85C72.34 142.83 73.70 144.16 75.57 144.16C76.50 144.16 78.11 143.68 78.11 142.97C78.11 142.53 77.67 142.43 77.38 142.57C76.93 142.91 76.22 143.22 75.69 143.22C74.42 143.22 73.64 142.35 73.55 141.27L77.91 141.27C78.24 141.27 78.51 140.96 78.51 140.65ZM73.55 140.41C73.60 139.54 74.21 138.50 75.46 138.50C76.80 138.50 77.37 139.57 77.39 140.41ZM85.64 135.81C85.64 135.51 85.38 135.25 85.08 135.25C84.74 135.25 84.48 135.51 84.48 135.81L84.48 138.63C83.97 137.96 83.36 137.56 82.41 137.56C80.77 137.56 79.62 138.85 79.62 140.87C79.62 142.92 80.79 144.16 82.41 144.16C83.39 144.16 84.00 143.73 84.48 143.10L84.48 143.51C84.48 143.82 84.74 144.08 85.05 144.08C85.38 144.08 85.64 143.82 85.64 143.51ZM84.48 140.91C84.48 142.21 83.83 143.13 82.71 143.13C81.54 143.13 80.81 142.18 80.81 140.87C80.81 139.55 81.54 138.59 82.71 138.59C83.83 138.59 84.48 139.54 84.48 140.83ZM96.76 135.91C96.76 135.58 96.52 135.33 96.20 135.33L91.73 135.33C91.27 135.33 90.89 135.71 90.89 136.17L90.89 143.44C90.89 143.79 91.17 144.08 91.52 144.08C91.89 144.08 92.17 143.79 92.17 143.44L92.17 140.15L96.11 140.15C96.43 140.15 96.67 139.89 96.67 139.59C96.67 139.25 96.43 139.01 96.11 139.01L92.17 139.01L92.17 136.47L96.20 136.47C96.52 136.47 96.76 136.21 96.76 135.91ZM98.65 135.39C98.25 135.39 97.91 135.73 97.91 136.15C97.91 136.55 98.25 136.89 98.65 136.89C99.06 136.89 99.39 136.55 99.39 136.15C99.39 135.73 99.06 135.39 98.65 135.39ZM99.23 138.20C99.23 137.90 98.97 137.64 98.67 137.64C98.34 137.64 98.08 137.90 98.08 138.20L98.08 143.51C98.08 143.82 98.34 144.08 98.65 144.08C98.97 144.08 99.23 143.82 99.23 143.51ZM102.26 135.81C102.26 135.51 102.00 135.25 101.70 135.25C101.37 135.25 101.11 135.51 101.11 135.81L101.11 143.51C101.11 143.82 101.37 144.08 101.68 144.08C102.00 144.08 102.26 143.82 102.26 143.51ZM109.93 140.65C109.93 140.40 109.87 140.13 109.82 139.92C109.45 138.51 108.41 137.56 106.89 137.56C105.07 137.56 103.76 139.03 103.76 140.85C103.76 142.83 105.12 144.16 106.99 144.16C107.92 144.16 109.53 143.68 109.53 142.97C109.53 142.53 109.09 142.43 108.80 142.57C108.35 142.91 107.64 143.22 107.11 143.22C105.84 143.22 105.06 142.35 104.97 141.27L109.33 141.27C109.66 141.27 109.93 140.96 109.93 140.65ZM104.97 140.41C105.02 139.54 105.63 138.50 106.88 138.50C108.22 138.50 108.79 139.57 108.81 140.41ZM116.02 142.10C115.90 139.89 112.30 140.50 112.17 139.37C112.12 138.87 112.66 138.49 113.46 138.49C114.05 138.49 114.61 138.68 115.02 138.97C115.09 139.03 115.18 139.06 115.29 139.06C115.52 139.06 115.74 138.87 115.74 138.60C115.74 138.50 115.70 138.40 115.63 138.32C115.13 137.84 114.34 137.56 113.44 137.56C111.91 137.56 110.99 138.29 111.05 139.41C111.17 141.52 114.76 140.87 114.89 142.26C114.94 142.83 114.42 143.23 113.52 143.23C112.87 143.23 112.22 142.97 111.75 142.63C111.66 142.57 111.57 142.54 111.45 142.54C111.18 142.54 110.95 142.75 110.95 143.03C110.95 143.16 111.00 143.26 111.09 143.34C111.66 143.91 112.61 144.16 113.47 144.16C115.13 144.16 116.08 143.30 116.02 142.10Z" fill="#22272e" /><path d="M175.46 141.15C175.46 139.40 174.15 138.34 172.68 138.34C171.89 138.34 171.19 138.66 170.77 139.07L170.77 136.95L174.16 136.95C174.59 136.95 174.96 136.59 174.96 136.15C174.96 135.69 174.59 135.33 174.16 135.33L169.96 135.33C169.39 135.33 168.92 135.80 168.92 136.37L168.92 139.70C168.92 140.20 169.29 140.58 169.86 140.58C170.12 140.58 170.37 140.50 170.58 140.36C171.04 140.05 171.50 139.94 172.03 139.94C173.02 139.94 173.59 140.46 173.59 141.23C173.59 141.93 173.01 142.52 171.98 142.52C171.36 142.52 170.76 142.35 170.25 142.04C170.09 141.95 169.93 141.89 169.77 141.89C169.31 141.89 168.89 142.25 168.89 142.73C168.89 142.86 168.92 142.99 168.99 143.10C169.39 143.78 170.86 144.16 171.99 144.16C174.09 144.16 175.46 143.00 175.46 141.15ZM183.13 143.17C183.13 142.74 182.77 142.38 182.34 142.38L179.52 142.38C181.77 140.74 182.99 139.45 182.99 137.97C182.99 136.24 181.52 135.20 179.68 135.20C178.58 135.20 177.13 135.67 176.71 136.33C176.63 136.45 176.59 136.58 176.59 136.71C176.59 137.18 176.97 137.54 177.40 137.54C177.60 137.54 177.76 137.49 177.93 137.37C178.43 137.03 179.03 136.84 179.71 136.84C180.43 136.84 181.12 137.21 181.12 137.97C181.12 138.98 180.08 139.93 176.84 142.32C176.59 142.50 176.45 142.80 176.45 143.10C176.45 143.62 176.87 144 177.32 144L182.34 144C182.77 144 183.13 143.64 183.13 143.17ZM190.78 141.63C190.88 140.07 189.83 139.53 189.83 139.53C189.83 139.53 190.79 139.03 190.69 137.55C190.58 136.11 189.44 135.20 187.41 135.20C186.22 135.20 185.28 135.55 184.56 136.12C184.38 136.26 184.29 136.47 184.29 136.68C184.29 137.14 184.69 137.46 185.10 137.46C185.25 137.46 185.41 137.42 185.54 137.33C186.05 137.01 186.62 136.84 187.22 136.84C188.13 136.84 188.83 137.04 188.83 137.73C188.83 138.45 188.40 138.79 187.53 138.79C186.90 138.79 186.63 139.14 186.63 139.59C186.63 140.05 186.90 140.41 187.58 140.41C188.46 140.41 188.97 140.72 188.97 141.41C188.97 142.06 188.39 142.52 187.33 142.52C186.73 142.52 186.05 142.31 185.47 141.97C185.33 141.88 185.17 141.84 185.02 141.84C184.59 141.84 184.17 142.19 184.17 142.66C184.17 142.79 184.21 142.91 184.28 143.01C184.68 143.69 186.15 144.16 187.40 144.16C189.48 144.16 190.67 143.26 190.78 141.63ZM194.14 143.36C194.14 142.52 193.59 142.04 192.97 142.04C192.43 142.04 191.96 142.50 191.96 143.08C191.96 143.64 192.35 144.01 192.84 144.01C192.94 144.01 193.05 143.99 193.09 143.97C193.01 144.31 192.73 144.72 192.39 144.99C192.30 145.07 192.26 145.17 192.26 145.27C192.26 145.53 192.53 145.69 192.75 145.69C192.88 145.69 193.00 145.65 193.09 145.56C193.74 144.97 194.14 144.19 194.14 143.36ZM201.74 141.63C201.84 140.07 200.79 139.53 200.79 139.53C200.79 139.53 201.75 139.03 201.65 137.55C201.54 136.11 200.40 135.20 198.37 135.20C197.17 135.20 196.24 135.55 195.52 136.12C195.34 136.26 195.25 136.47 195.25 136.68C195.25 137.14 195.65 137.46 196.06 137.46C196.21 137.46 196.37 137.42 196.50 137.33C197.00 137.01 197.58 136.84 198.18 136.84C199.09 136.84 199.79 137.04 199.79 137.73C199.79 138.45 199.36 138.79 198.49 138.79C197.86 138.79 197.59 139.14 197.59 139.59C197.59 140.05 197.86 140.41 198.54 140.41C199.42 140.41 199.93 140.72 199.93 141.41C199.93 142.06 199.34 142.52 198.29 142.52C197.69 142.52 197.00 142.31 196.43 141.97C196.29 141.88 196.13 141.84 195.98 141.84C195.55 141.84 195.13 142.19 195.13 142.66C195.13 142.79 195.17 142.91 195.24 143.01C195.64 143.69 197.11 144.16 198.36 144.16C200.44 144.16 201.63 143.26 201.74 141.63ZM209.37 141.63C209.47 140.07 208.42 139.53 208.42 139.53C208.42 139.53 209.38 139.03 209.28 137.55C209.17 136.11 208.03 135.20 206.00 135.20C204.81 135.20 203.87 135.55 203.15 136.12C202.97 136.26 202.88 136.47 202.88 136.68C202.88 137.14 203.28 137.46 203.69 137.46C203.84 137.46 204.00 137.42 204.13 137.33C204.64 137.01 205.21 136.84 205.81 136.84C206.72 136.84 207.42 137.04 207.42 137.73C207.42 138.45 206.99 138.79 206.12 138.79C205.49 138.79 205.22 139.14 205.22 139.59C205.22 140.05 205.49 140.41 206.17 140.41C207.05 140.41 207.56 140.72 207.56 141.41C207.56 142.06 206.98 142.52 205.92 142.52C205.32 142.52 204.64 142.31 204.06 141.97C203.92 141.88 203.76 141.84 203.61 141.84C203.18 141.84 202.76 142.19 202.76 142.66C202.76 142.79 202.80 142.91 202.87 143.01C203.27 143.69 204.74 144.16 205.99 144.16C208.07 144.16 209.26 143.26 209.37 141.63ZM217.56 139.67C217.56 137.44 216.44 135.20 213.97 135.20C211.49 135.20 210.38 137.44 210.38 139.67C210.38 141.91 211.49 144.16 213.97 144.16C216.44 144.16 217.56 141.91 217.56 139.67ZM215.67 139.67C215.67 141.27 215.20 142.52 213.97 142.52C212.72 142.52 212.25 141.27 212.25 139.67C212.25 138.07 212.72 136.84 213.97 136.84C215.20 136.84 215.67 138.07 215.67 139.67Z" fill="#627386" /></g><rect x="18" y="166" width="384" height="8" rx="4" fill="#f4faff" /><rect x="18.00" y="166" width="257.21" height="8" rx="4" fill="#00d559" /><rect x="275.21" y="166" width="126.79" height="8" rx="4" fill="#00a5fe" /></svg>