<svg xmlns="http://www.w3.org/2000/svg" width="420" height="184" viewBox="0 0 420 184" role="img"><rect x="0.5" y="0.5" width="419" height="183" rx="10" fill="#ffffff" stroke="#f2f4f6" /><path d="M30.72 33.60C30.72 32.83 30.10 32.21 29.37 32.21L28.69 32.21L28.69 24.95C28.69 23.59 27.37 22.97 26.03 23.19C25.08 23.19 24.14 23.70 23.63 24.49L18.73 32.24C18.53 32.54 18.44 32.90 18.44 33.25C18.44 34.24 19.17 34.96 20.05 34.96L25.57 34.96L25.57 36.59C25.57 37.43 26.27 38.13 27.11 38.13C27.99 38.13 28.69 37.43 28.69 36.59L28.69 34.96L29.37 34.96C30.10 34.96 30.72 34.35 30.72 33.60ZM21.61 32.21L25.57 26.10L25.57 32.21ZM42.82 24.91C42.82 23.99 42.07 23.33 41.30 23.33L32.89 23.33C32.15 23.33 31.53 23.94 31.53 24.67C31.53 25.46 32.15 26.08 32.89 26.08L39.05 26.08L34.68 36.00C34.59 36.20 34.54 36.39 34.54 36.59C34.54 37.38 35.18 38.13 36.11 38.13C36.74 38.13 37.34 37.76 37.58 37.19L42.68 25.53C42.77 25.35 42.82 25.13 42.82 24.91ZM45.79 36.92C45.79 35.49 44.84 34.68 43.81 34.68C42.88 34.68 42.09 35.47 42.09 36.44C42.09 37.38 42.75 38.02 43.59 38.02C43.74 38.02 43.94 37.98 44.00 37.96C43.87 38.53 43.39 39.21 42.82 39.67C42.66 39.80 42.60 39.98 42.60 40.16C42.60 40.60 43.06 40.86 43.43 40.86C43.65 40.86 43.85 40.79 44.00 40.64C45.10 39.65 45.79 38.33 45.79 36.92ZM52.10 25.00C52.10 24.01 51.26 23.22 50.27 23.22C49.77 23.22 49.28 23.41 48.95 23.74L45.57 27.18C45.30 27.44 45.17 27.77 45.17 28.10C45.17 28.83 45.79 29.40 46.47 29.40C46.78 29.40 47.08 29.29 47.33 29.05L48.98 27.35L48.98 36.59C48.98 37.43 49.68 38.13 50.52 38.13C51.40 38.13 52.10 37.43 52.10 36.59ZM65.76 36.59C65.76 35.87 65.15 35.25 64.42 35.25L59.65 35.25C63.45 32.48 65.52 30.30 65.52 27.79C65.52 24.87 63.03 23.11 59.91 23.11C58.06 23.11 55.60 23.90 54.89 25.02C54.76 25.22 54.70 25.44 54.70 25.66C54.70 26.45 55.33 27.07 56.06 27.07C56.39 27.07 56.68 26.98 56.96 26.78C57.80 26.21 58.81 25.88 59.98 25.88C61.19 25.88 62.35 26.52 62.35 27.79C62.35 29.51 60.59 31.11 55.11 35.16C54.70 35.47 54.45 35.98 54.45 36.48C54.45 37.36 55.16 38 55.93 38L64.42 38C65.15 38 65.76 37.38 65.76 36.59ZM79.47 33.60C79.47 32.83 78.85 32.21 78.13 32.21L77.44 32.21L77.44 24.95C77.44 23.59 76.12 22.97 74.78 23.19C73.84 23.19 72.89 23.70 72.38 24.49L67.48 32.24C67.28 32.54 67.19 32.90 67.19 33.25C67.19 34.24 67.92 34.96 68.80 34.96L74.32 34.96L74.32 36.59C74.32 37.43 75.02 38.13 75.86 38.13C76.74 38.13 77.44 37.43 77.44 36.59L77.44 34.96L78.13 34.96C78.85 34.96 79.47 34.35 79.47 33.60ZM70.36 32.21L74.32 26.10L74.32 32.21ZM94.08 23.08C89.68 23.08 86.27 26.16 86.27 30.67C86.27 35.18 89.68 38.26 94.08 38.26C96.61 38.26 98.30 37.16 99.40 35.82C99.62 35.58 99.71 35.27 99.71 34.96C99.71 34.22 99.07 33.60 98.28 33.60C97.84 33.60 97.40 33.78 97.09 34.11C96.28 35.01 95.18 35.49 94.08 35.49C91.41 35.49 89.48 33.45 89.48 30.67C89.48 27.90 91.41 25.86 94.08 25.86C95.18 25.86 96.25 26.38 97.09 27.26C97.40 27.59 97.82 27.77 98.23 27.77C99.05 27.77 99.73 27.15 99.73 26.36C99.73 26.08 99.62 25.75 99.42 25.50C98.30 24.16 96.61 23.08 94.08 23.08ZM112.58 32.68C112.58 29.66 110.47 27.11 106.95 27.11C103.45 27.11 101.34 29.66 101.34 32.68C101.34 35.71 103.45 38.26 106.95 38.26C110.47 38.26 112.58 35.71 112.58 32.68ZM109.67 32.68C109.67 34.35 108.68 35.78 106.95 35.78C105.21 35.78 104.24 34.35 104.24 32.68C104.24 31.03 105.21 29.60 106.95 29.60C108.68 29.60 109.67 31.03 109.67 32.68ZM130.64 31.20C130.64 29.02 129.12 27.11 126.72 27.11C124.88 27.11 123.82 28.19 123.42 28.94C123.03 28.17 122.04 27.11 120.26 27.11C118.63 27.11 117.88 27.70 117.44 28.28L117.44 28.25C117.44 27.95 117.04 27.24 116.08 27.24C115.26 27.24 114.65 27.86 114.65 28.61L114.65 36.75C114.65 37.52 115.26 38.13 116.03 38.13C116.82 38.13 117.44 37.52 117.44 36.75L117.44 31.73C117.44 30.70 118.23 29.60 119.42 29.60C120.56 29.60 121.22 30.74 121.22 31.73L121.22 36.75C121.22 37.52 121.84 38.13 122.61 38.13C123.42 38.13 124.04 37.52 124.04 36.75L124.04 31.93C124.04 30.70 124.81 29.60 126.02 29.60C127.16 29.60 127.82 30.74 127.82 31.73L127.82 36.75C127.82 37.52 128.44 38.13 129.21 38.13C130.02 38.13 130.64 37.52 130.64 36.75ZM149.38 31.20C149.38 29.02 147.87 27.11 145.47 27.11C143.62 27.11 142.56 28.19 142.17 28.94C141.77 28.17 140.78 27.11 139.00 27.11C137.37 27.11 136.62 27.70 136.18 28.28L136.18 28.25C136.18 27.95 135.79 27.24 134.82 27.24C134.01 27.24 133.39 27.86 133.39 28.61L133.39 36.75C133.39 37.52 134.01 38.13 134.78 38.13C135.57 38.13 136.18 37.52 136.18 36.75L136.18 31.73C136.18 30.70 136.98 29.60 138.16 29.60C139.31 29.60 139.97 30.74 139.97 31.73L139.97 36.75C139.97 37.52 140.58 38.13 141.35 38.13C142.17 38.13 142.78 37.52 142.78 36.75L142.78 31.93C142.78 30.70 143.55 29.60 144.76 29.60C145.91 29.60 146.57 30.74 146.57 31.73L146.57 36.75C146.57 37.52 147.18 38.13 147.95 38.13C148.77 38.13 149.38 37.52 149.38 36.75ZM153.52 22.91C152.62 22.91 151.85 23.63 151.85 24.56C151.85 25.48 152.62 26.23 153.52 26.23C154.44 26.23 155.19 25.48 155.19 24.56C155.19 23.63 154.44 22.91 153.52 22.91ZM154.93 28.61C154.93 27.86 154.31 27.24 153.56 27.24C152.75 27.24 152.13 27.86 152.13 28.61L152.13 36.75C152.13 37.52 152.75 38.13 153.52 38.13C154.31 38.13 154.93 37.52 154.93 36.75ZM163.51 36.99C163.51 36.31 163.07 35.78 162.28 35.78L162.03 35.78C161.59 35.78 161.07 35.45 161.07 34.61L161.07 29.82L162.17 29.82C162.80 29.82 163.35 29.27 163.35 28.61C163.35 27.92 162.80 27.37 162.17 27.37L161.07 27.37L161.07 25.72C161.07 24.95 160.45 24.34 159.68 24.34C158.87 24.34 158.25 24.95 158.25 25.72L158.25 27.37L157.57 27.37C156.91 27.37 156.36 27.92 156.36 28.56C156.36 29.27 156.91 29.82 157.57 29.82L158.25 29.82L158.25 35.36C158.25 37.25 159.31 38.26 161.26 38.26C163.09 38.26 163.51 37.69 163.51 36.99ZM173.56 34.85C173.56 30.56 167.27 31.88 167.27 30.30C167.27 29.71 167.93 29.24 168.94 29.24C169.80 29.24 170.66 29.49 171.34 29.88C171.49 29.97 171.69 30.01 171.87 30.01C172.44 30.01 172.97 29.55 172.97 28.96C172.97 28.76 172.90 28.56 172.79 28.41C172.20 27.55 170.31 27.11 168.92 27.11C166.13 27.11 164.56 28.67 164.56 30.45C164.56 34.63 170.88 33.20 170.88 34.96C170.88 35.62 170.31 36.11 169.10 36.11C168.17 36.11 167.07 35.73 166.24 35.25C166.06 35.14 165.86 35.10 165.66 35.10C165.07 35.10 164.50 35.60 164.50 36.26C164.50 36.48 164.56 36.68 164.70 36.86C165.36 37.80 167.58 38.26 168.96 38.26C171.91 38.26 173.56 36.79 173.56 34.85Z" fill="#22272e" /><path d="M20.26 49.88C20.26 49.54 19.98 49.25 19.64 49.25C19.26 49.25 18.98 49.54 18.98 49.88L18.98 57.44C18.98 57.79 19.26 58.08 19.61 58.08C19.98 58.08 20.26 57.79 20.26 57.44ZM27.55 53.97C27.55 52.64 26.59 51.56 25.27 51.56C24.18 51.56 23.62 52.10 23.32 52.60L23.32 52.20C23.32 51.90 23.06 51.64 22.76 51.64C22.42 51.64 22.16 51.90 22.16 52.20L22.16 57.51C22.16 57.82 22.42 58.08 22.73 58.08C23.06 58.08 23.32 57.82 23.32 57.51L23.32 54.49C23.32 53.42 23.89 52.59 24.89 52.59C25.83 52.59 26.40 53.32 26.40 54.36L26.40 57.51C26.40 57.82 26.66 58.08 26.97 58.08C27.30 58.08 27.55 57.82 27.55 57.51ZM38.97 49.91C38.97 49.58 38.72 49.33 38.41 49.33L32.70 49.33C32.39 49.33 32.14 49.58 32.14 49.89C32.14 50.21 32.39 50.47 32.70 50.47L34.91 50.47L34.91 57.44C34.91 57.79 35.20 58.08 35.55 58.08C35.91 58.08 36.20 57.79 36.20 57.44L36.20 50.47L38.41 50.47C38.72 50.47 38.97 50.21 38.97 49.91ZM44.74 54.85C44.74 53.05 43.53 51.56 41.57 51.56C39.62 51.56 38.41 53.05 38.41 54.85C38.41 56.66 39.62 58.16 41.57 58.16C43.53 58.16 44.74 56.66 44.74 54.85ZM43.53 54.85C43.53 56.06 42.83 57.13 41.57 57.13C40.32 57.13 39.61 56.06 39.61 54.85C39.61 53.66 40.32 52.59 41.57 52.59C42.83 52.59 43.53 53.66 43.53 54.85ZM49.16 57.55C49.16 57.27 48.95 57.06 48.67 57.06C48.54 57.06 48.38 57.13 48.24 57.13C47.86 57.13 47.63 56.83 47.63 56.35L47.63 52.73L48.48 52.73C48.76 52.73 48.98 52.51 48.98 52.24C48.98 51.94 48.76 51.72 48.48 51.72L47.63 51.72L47.63 50.49C47.63 50.19 47.37 49.93 47.05 49.93C46.72 49.93 46.46 50.19 46.46 50.49L46.46 51.72L45.85 51.72C45.56 51.72 45.34 51.94 45.34 52.22C45.34 52.51 45.56 52.73 45.85 52.73L46.46 52.73L46.46 56.62C46.46 57.61 46.98 58.16 47.96 58.16C48.65 58.16 49.16 57.96 49.16 57.55ZM55.26 53.75C55.26 52.15 54.09 51.56 52.74 51.56C51.89 51.56 50.94 51.84 50.34 52.44C50.27 52.53 50.23 52.63 50.23 52.73C50.23 53.01 50.47 53.19 50.71 53.19C50.80 53.19 50.90 53.15 50.99 53.09C51.46 52.72 51.98 52.54 52.57 52.54C53.45 52.54 54.10 53.01 54.10 53.80L54.10 54.15L52.29 54.15C50.99 54.15 49.85 54.66 49.85 56.08C49.85 57.45 50.99 58.16 52.03 58.16C53.01 58.16 53.59 57.86 54.10 57.30L54.10 57.51C54.10 57.88 54.40 58.08 54.63 58.08L54.67 58.08C55.00 58.08 55.26 57.82 55.26 57.51ZM54.10 54.96L54.10 55.84C54.10 56.58 53.26 57.34 52.35 57.34C51.50 57.34 51.02 56.83 51.02 56.10C51.02 55.35 51.62 54.96 52.61 54.96ZM58.27 49.81C58.27 49.51 58.01 49.25 57.71 49.25C57.38 49.25 57.12 49.51 57.12 49.81L57.12 57.51C57.12 57.82 57.38 58.08 57.69 58.08C58.01 58.08 58.27 57.82 58.27 57.51Z" fill="#627386" /><line x1="18" y1="76" x2="48" y2="76" stroke="#627386" stroke-opacity="0.4" /><g aria-label="Additions: 29,510,585"><circle cx="22" cy="96" r="4" fill="#00d559" /><path d="M42.28 99.39C42.28 99.31 42.27 99.23 42.23 99.14L39.36 91.94C39.19 91.51 38.76 91.24 38.30 91.25C37.85 91.25 37.43 91.52 37.28 91.94L34.40 99.14C34.38 99.23 34.36 99.31 34.36 99.39C34.36 99.74 34.65 100.08 35.05 100.08C35.33 100.08 35.57 99.92 35.68 99.66L36.25 98.19L40.40 98.19L40.97 99.66C41.07 99.92 41.32 100.08 41.59 100.08C42.01 100.08 42.28 99.71 42.28 99.39ZM38.32 92.64L40.03 97.06L36.61 97.06ZM49.22 91.81C49.22 91.51 48.96 91.25 48.66 91.25C48.33 91.25 48.07 91.51 48.07 91.81L48.07 94.63C47.56 93.95 46.95 93.56 46.00 93.56C44.36 93.56 43.20 94.85 43.20 96.87C43.20 98.92 44.37 100.16 46.00 100.16C46.97 100.16 47.59 99.73 48.07 99.10L48.07 99.51C48.07 99.82 48.33 100.08 48.64 100.08C48.96 100.08 49.22 99.82 49.22 99.51ZM48.07 96.91C48.07 98.21 47.42 99.13 46.30 99.13C45.13 99.13 44.40 98.18 44.40 96.87C44.40 95.55 45.13 94.59 46.30 94.59C47.42 94.59 48.07 95.54 48.07 96.83ZM56.74 91.81C56.74 91.51 56.48 91.25 56.18 91.25C55.84 91.25 55.58 91.51 55.58 91.81L55.58 94.63C55.07 93.95 54.46 93.56 53.51 93.56C51.88 93.56 50.72 94.85 50.72 96.87C50.72 98.92 51.89 100.16 53.51 100.16C54.49 100.16 55.10 99.73 55.58 99.10L55.58 99.51C55.58 99.82 55.84 100.08 56.15 100.08C56.48 100.08 56.74 99.82 56.74 99.51ZM55.58 96.91C55.58 98.21 54.93 99.13 53.81 99.13C52.64 99.13 51.91 98.18 51.91 96.87C51.91 95.55 52.64 94.59 53.81 94.59C54.93 94.59 55.58 95.54 55.58 96.83ZM59.18 91.39C58.78 91.39 58.44 91.73 58.44 92.15C58.44 92.55 58.78 92.89 59.18 92.89C59.60 92.89 59.92 92.55 59.92 92.15C59.92 91.73 59.60 91.39 59.18 91.39ZM59.77 94.20C59.77 93.90 59.51 93.64 59.21 93.64C58.87 93.64 58.61 93.90 58.61 94.20L58.61 99.51C58.61 99.82 58.87 100.08 59.18 100.08C59.51 100.08 59.77 99.82 59.77 99.51ZM64.56 99.55C64.56 99.27 64.36 99.06 64.07 99.06C63.94 99.06 63.78 99.13 63.64 99.13C63.26 99.13 63.03 98.83 63.03 98.35L63.03 94.73L63.89 94.73C64.16 94.73 64.38 94.51 64.38 94.24C64.38 93.94 64.16 93.72 63.89 93.72L63.03 93.72L63.03 92.49C63.03 92.19 62.77 91.93 62.46 91.93C62.12 91.93 61.86 92.19 61.86 92.49L61.86 93.72L61.25 93.72C60.96 93.72 60.74 93.94 60.74 94.22C60.74 94.51 60.96 94.73 61.25 94.73L61.86 94.73L61.86 98.62C61.86 99.61 62.38 100.16 63.37 100.16C64.06 100.16 64.56 99.96 64.56 99.55ZM66.19 91.39C65.79 91.39 65.45 91.73 65.45 92.15C65.45 92.55 65.79 92.89 66.19 92.89C66.60 92.89 66.93 92.55 66.93 92.15C66.93 91.73 66.60 91.39 66.19 91.39ZM66.77 94.20C66.77 93.90 66.51 93.64 66.21 93.64C65.88 93.64 65.62 93.90 65.62 94.20L65.62 99.51C65.62 99.82 65.88 100.08 66.19 100.08C66.51 100.08 66.77 99.82 66.77 99.51ZM74.60 96.85C74.60 95.05 73.39 93.56 71.43 93.56C69.48 93.56 68.27 95.05 68.27 96.85C68.27 98.66 69.48 100.16 71.43 100.16C73.39 100.16 74.60 98.66 74.60 96.85ZM73.39 96.85C73.39 98.06 72.69 99.13 71.43 99.13C70.18 99.13 69.46 98.06 69.46 96.85C69.46 95.66 70.18 94.59 71.43 94.59C72.69 94.59 73.39 95.66 73.39 96.85ZM81.49 95.97C81.49 94.64 80.53 93.56 79.20 93.56C78.11 93.56 77.55 94.10 77.25 94.61L77.25 94.20C77.25 93.90 76.99 93.64 76.69 93.64C76.35 93.64 76.09 93.90 76.09 94.20L76.09 99.51C76.09 99.82 76.35 100.08 76.67 100.08C76.99 100.08 77.25 99.82 77.25 99.51L77.25 96.49C77.25 95.42 77.82 94.59 78.82 94.59C79.76 94.59 80.33 95.32 80.33 96.36L80.33 99.51C80.33 99.82 80.59 100.08 80.90 100.08C81.23 100.08 81.49 99.82 81.49 99.51ZM87.96 98.10C87.85 95.89 84.24 96.50 84.11 95.37C84.06 94.86 84.61 94.49 85.40 94.49C86 94.49 86.56 94.68 86.96 94.97C87.04 95.03 87.13 95.06 87.23 95.06C87.47 95.06 87.69 94.86 87.69 94.61C87.69 94.50 87.65 94.40 87.57 94.32C87.08 93.84 86.29 93.56 85.39 93.56C83.86 93.56 82.93 94.29 83.00 95.41C83.11 97.52 86.70 96.87 86.83 98.26C86.88 98.83 86.36 99.23 85.47 99.23C84.82 99.23 84.17 98.97 83.70 98.64C83.61 98.57 83.52 98.54 83.40 98.54C83.13 98.54 82.89 98.75 82.89 99.03C82.89 99.16 82.94 99.26 83.04 99.34C83.61 99.91 84.56 100.16 85.41 100.16C87.08 100.16 88.03 99.30 87.96 98.10Z" fill="#22272e" /><path d="M158.41 99.17C158.41 98.74 158.04 98.38 157.61 98.38L154.79 98.38C157.04 96.74 158.26 95.45 158.26 93.97C158.26 92.24 156.80 91.20 154.95 91.20C153.86 91.20 152.40 91.67 151.99 92.33C151.91 92.45 151.87 92.58 151.87 92.71C151.87 93.17 152.25 93.54 152.67 93.54C152.87 93.54 153.04 93.49 153.21 93.37C153.70 93.03 154.30 92.84 154.99 92.84C155.70 92.84 156.39 93.21 156.39 93.97C156.39 94.98 155.35 95.93 152.12 98.32C151.87 98.50 151.73 98.80 151.73 99.10C151.73 99.62 152.14 100 152.60 100L157.61 100C158.04 100 158.41 99.64 158.41 99.17ZM159.38 94.16C159.38 96.01 160.77 96.98 162.33 96.98C163.41 96.98 164.22 96.45 164.56 95.87C164.57 95.93 164.57 95.98 164.57 96.05C164.57 97.43 163.67 98.50 162.40 98.50C161.96 98.50 161.59 98.43 161.27 98.26C161.15 98.19 161.02 98.17 160.89 98.17C160.49 98.17 160.05 98.48 160.05 98.97C160.05 99.10 160.09 99.22 160.14 99.32C160.46 99.90 161.55 100.14 162.40 100.14C164.96 100.14 166.44 98.28 166.44 95.66C166.44 93.21 165.34 91.19 162.70 91.19C160.72 91.19 159.38 92.47 159.38 94.16ZM161.25 94.10C161.25 93.45 161.74 92.82 162.74 92.82C163.56 92.82 164.17 93.38 164.17 94.19C164.17 94.97 163.54 95.53 162.74 95.53C161.91 95.53 161.25 94.97 161.25 94.10ZM169.42 99.36C169.42 98.52 168.86 98.04 168.25 98.04C167.70 98.04 167.23 98.50 167.23 99.08C167.23 99.64 167.63 100.01 168.12 100.01C168.21 100.01 168.33 99.99 168.37 99.97C168.29 100.31 168.00 100.72 167.66 100.99C167.57 101.07 167.53 101.17 167.53 101.27C167.53 101.53 167.81 101.69 168.03 101.69C168.16 101.69 168.28 101.65 168.37 101.56C169.02 100.97 169.42 100.19 169.42 99.36ZM177.40 97.15C177.40 95.40 176.09 94.34 174.62 94.34C173.83 94.34 173.12 94.66 172.71 95.07L172.71 92.95L176.10 92.95C176.53 92.95 176.89 92.59 176.89 92.15C176.89 91.69 176.53 91.33 176.10 91.33L171.90 91.33C171.33 91.33 170.86 91.80 170.86 92.37L170.86 95.70C170.86 96.20 171.23 96.58 171.80 96.58C172.06 96.58 172.31 96.50 172.51 96.36C172.98 96.05 173.44 95.94 173.97 95.94C174.96 95.94 175.53 96.46 175.53 97.23C175.53 97.93 174.94 98.52 173.92 98.52C173.29 98.52 172.69 98.35 172.19 98.04C172.03 97.95 171.86 97.89 171.71 97.89C171.25 97.89 170.82 98.25 170.82 98.73C170.82 98.86 170.86 98.99 170.93 99.10C171.33 99.78 172.80 100.16 173.93 100.16C176.02 100.16 177.40 99.00 177.40 97.15ZM182.34 92.32C182.34 91.73 181.85 91.26 181.26 91.26C180.96 91.26 180.68 91.38 180.48 91.58L178.48 93.60C178.32 93.76 178.25 93.95 178.25 94.15C178.25 94.58 178.61 94.92 179.01 94.92C179.19 94.92 179.38 94.85 179.52 94.71L180.50 93.71L180.50 99.17C180.50 99.66 180.91 100.08 181.41 100.08C181.92 100.08 182.34 99.66 182.34 99.17ZM190.82 95.67C190.82 93.44 189.70 91.20 187.23 91.20C184.75 91.20 183.64 93.44 183.64 95.67C183.64 97.91 184.75 100.16 187.23 100.16C189.70 100.16 190.82 97.91 190.82 95.67ZM188.93 95.67C188.93 97.27 188.46 98.52 187.23 98.52C185.98 98.52 185.51 97.27 185.51 95.67C185.51 94.07 185.98 92.84 187.23 92.84C188.46 92.84 188.93 94.07 188.93 95.67ZM193.78 99.36C193.78 98.52 193.22 98.04 192.61 98.04C192.06 98.04 191.60 98.50 191.60 99.08C191.60 99.64 191.99 100.01 192.48 100.01C192.57 100.01 192.69 99.99 192.73 99.97C192.65 100.31 192.36 100.72 192.03 100.99C191.94 101.07 191.90 101.17 191.90 101.27C191.90 101.53 192.17 101.69 192.39 101.69C192.52 101.69 192.64 101.65 192.73 101.56C193.38 100.97 193.78 100.19 193.78 99.36ZM201.76 97.15C201.76 95.40 200.45 94.34 198.98 94.34C198.19 94.34 197.49 94.66 197.07 95.07L197.07 92.95L200.46 92.95C200.89 92.95 201.26 92.59 201.26 92.15C201.26 91.69 200.89 91.33 200.46 91.33L196.26 91.33C195.69 91.33 195.22 91.80 195.22 92.37L195.22 95.70C195.22 96.20 195.59 96.58 196.16 96.58C196.42 96.58 196.67 96.50 196.88 96.36C197.34 96.05 197.80 95.94 198.33 95.94C199.32 95.94 199.89 96.46 199.89 97.23C199.89 97.93 199.31 98.52 198.28 98.52C197.66 98.52 197.06 98.35 196.55 98.04C196.39 97.95 196.22 97.89 196.07 97.89C195.61 97.89 195.19 98.25 195.19 98.73C195.19 98.86 195.22 98.99 195.29 99.10C195.69 99.78 197.16 100.16 198.29 100.16C200.38 100.16 201.76 99.00 201.76 97.15ZM209.64 97.62C209.64 96.44 208.94 95.76 208.42 95.53C208.86 95.32 209.50 94.83 209.50 93.49C209.50 91.99 207.89 91.20 206.16 91.20C204.41 91.20 202.82 91.99 202.82 93.49C202.82 94.83 203.44 95.32 203.88 95.53C203.36 95.76 202.67 96.44 202.67 97.62C202.67 99.25 204.34 100.16 206.16 100.16C207.98 100.16 209.64 99.23 209.64 97.62ZM207.61 93.77C207.61 94.42 206.95 94.80 206.16 94.80C205.36 94.80 204.69 94.42 204.69 93.77C204.69 93.15 205.30 92.78 206.16 92.78C207.00 92.78 207.61 93.15 207.61 93.77ZM207.77 97.52C207.77 98.15 207.04 98.57 206.16 98.57C205.25 98.57 204.54 98.15 204.54 97.52C204.54 96.79 205.35 96.36 206.16 96.36C206.95 96.36 207.77 96.79 207.77 97.52ZM217.55 97.15C217.55 95.40 216.23 94.34 214.76 94.34C213.97 94.34 213.27 94.66 212.85 95.07L212.85 92.95L216.25 92.95C216.67 92.95 217.04 92.59 217.04 92.15C217.04 91.69 216.67 91.33 216.25 91.33L212.05 91.33C211.47 91.33 211.01 91.80 211.01 92.37L211.01 95.70C211.01 96.20 211.37 96.58 211.94 96.58C212.20 96.58 212.45 96.50 212.66 96.36C213.13 96.05 213.58 95.94 214.11 95.94C215.10 95.94 215.67 96.46 215.67 97.23C215.67 97.93 215.09 98.52 214.06 98.52C213.44 98.52 212.84 98.35 212.33 98.04C212.18 97.95 212.01 97.89 211.85 97.89C211.40 97.89 210.97 98.25 210.97 98.73C210.97 98.86 211.01 98.99 211.07 99.10C211.47 99.78 212.94 100.16 214.07 100.16C216.17 100.16 217.55 99.00 217.55 97.15Z" fill="#627386" /></g><g aria-label="Deletions: 12,890,084"><circle cx="22" cy="118" r="4" fill="#00a5fe" /><path d="M42.54 117.67C42.54 115.17 40.76 113.33 38.06 113.33L35.82 113.33C35.35 113.33 34.98 113.71 34.98 114.17L34.98 121.16C34.98 121.62 35.35 122 35.82 122L38.06 122C40.76 122 42.54 120.18 42.54 117.67ZM41.23 117.67C41.23 119.43 40.06 120.86 38.06 120.86L36.26 120.86L36.26 114.47L38.06 114.47C40.11 114.47 41.23 115.89 41.23 117.67ZM49.90 118.65C49.90 118.40 49.83 118.13 49.78 117.92C49.42 116.51 48.38 115.56 46.86 115.56C45.04 115.56 43.72 117.03 43.72 118.85C43.72 120.83 45.09 122.16 46.96 122.16C47.88 122.16 49.50 121.67 49.50 120.97C49.50 120.53 49.05 120.43 48.77 120.57C48.31 120.91 47.61 121.22 47.08 121.22C45.80 121.22 45.02 120.35 44.93 119.27L49.30 119.27C49.63 119.27 49.90 118.96 49.90 118.65ZM44.93 118.41C44.98 117.54 45.60 116.50 46.84 116.50C48.18 116.50 48.76 117.57 48.78 118.41ZM52.54 113.81C52.54 113.51 52.28 113.25 51.98 113.25C51.64 113.25 51.38 113.51 51.38 113.81L51.38 121.51C51.38 121.82 51.64 122.08 51.95 122.08C52.28 122.08 52.54 121.82 52.54 121.51ZM60.21 118.65C60.21 118.40 60.14 118.13 60.09 117.92C59.73 116.51 58.69 115.56 57.17 115.56C55.35 115.56 54.03 117.03 54.03 118.85C54.03 120.83 55.40 122.16 57.27 122.16C58.19 122.16 59.81 121.67 59.81 120.97C59.81 120.53 59.36 120.43 59.08 120.57C58.62 120.91 57.92 121.22 57.39 121.22C56.11 121.22 55.33 120.35 55.24 119.27L59.61 119.27C59.94 119.27 60.21 118.96 60.21 118.65ZM55.24 118.41C55.29 117.54 55.91 116.50 57.15 116.50C58.49 116.50 59.06 117.57 59.09 118.41ZM64.62 121.55C64.62 121.27 64.41 121.06 64.12 121.06C63.99 121.06 63.84 121.13 63.69 121.13C63.32 121.13 63.08 120.83 63.08 120.35L63.08 116.73L63.94 116.73C64.21 116.73 64.43 116.51 64.43 116.24C64.43 115.94 64.21 115.72 63.94 115.72L63.08 115.72L63.08 114.49C63.08 114.19 62.82 113.93 62.51 113.93C62.17 113.93 61.91 114.19 61.91 114.49L61.91 115.72L61.30 115.72C61.01 115.72 60.79 115.94 60.79 116.22C60.79 116.51 61.01 116.73 61.30 116.73L61.91 116.73L61.91 120.62C61.91 121.61 62.43 122.16 63.42 122.16C64.11 122.16 64.62 121.96 64.62 121.55ZM66.24 113.39C65.84 113.39 65.50 113.73 65.50 114.15C65.50 114.55 65.84 114.89 66.24 114.89C66.66 114.89 66.98 114.55 66.98 114.15C66.98 113.73 66.66 113.39 66.24 113.39ZM66.83 116.20C66.83 115.90 66.56 115.64 66.27 115.64C65.93 115.64 65.67 115.90 65.67 116.20L65.67 121.51C65.67 121.82 65.93 122.08 66.24 122.08C66.56 122.08 66.83 121.82 66.83 121.51ZM74.65 118.85C74.65 117.05 73.44 115.56 71.48 115.56C69.53 115.56 68.32 117.05 68.32 118.85C68.32 120.66 69.53 122.16 71.48 122.16C73.44 122.16 74.65 120.66 74.65 118.85ZM73.44 118.85C73.44 120.06 72.74 121.13 71.48 121.13C70.23 121.13 69.52 120.06 69.52 118.85C69.52 117.66 70.23 116.59 71.48 116.59C72.74 116.59 73.44 117.66 73.44 118.85ZM81.54 117.97C81.54 116.64 80.58 115.56 79.25 115.56C78.16 115.56 77.60 116.10 77.30 116.61L77.30 116.20C77.30 115.90 77.04 115.64 76.74 115.64C76.41 115.64 76.15 115.90 76.15 116.20L76.15 121.51C76.15 121.82 76.41 122.08 76.72 122.08C77.04 122.08 77.30 121.82 77.30 121.51L77.30 118.49C77.30 117.42 77.88 116.59 78.88 116.59C79.81 116.59 80.38 117.32 80.38 118.36L80.38 121.51C80.38 121.82 80.64 122.08 80.96 122.08C81.28 122.08 81.54 121.82 81.54 121.51ZM88.01 120.10C87.90 117.89 84.30 118.50 84.17 117.37C84.11 116.86 84.66 116.49 85.45 116.49C86.05 116.49 86.61 116.68 87.01 116.97C87.09 117.03 87.18 117.06 87.29 117.06C87.52 117.06 87.74 116.86 87.74 116.61C87.74 116.50 87.70 116.40 87.62 116.32C87.13 115.84 86.34 115.56 85.44 115.56C83.91 115.56 82.98 116.29 83.05 117.41C83.17 119.52 86.75 118.87 86.88 120.26C86.94 120.83 86.42 121.23 85.52 121.23C84.87 121.23 84.22 120.97 83.75 120.64C83.66 120.57 83.57 120.54 83.45 120.54C83.18 120.54 82.94 120.75 82.94 121.03C82.94 121.16 83.00 121.26 83.09 121.34C83.66 121.91 84.61 122.16 85.47 122.16C87.13 122.16 88.08 121.30 88.01 120.10Z" fill="#22272e" /><path d="M155.69 114.32C155.69 113.73 155.20 113.26 154.61 113.26C154.31 113.26 154.03 113.38 153.83 113.58L151.83 115.60C151.67 115.76 151.60 115.95 151.60 116.15C151.60 116.58 151.96 116.92 152.36 116.92C152.55 116.92 152.73 116.85 152.87 116.71L153.85 115.71L153.85 121.17C153.85 121.66 154.26 122.08 154.76 122.08C155.28 122.08 155.69 121.66 155.69 121.17ZM163.76 121.17C163.76 120.74 163.40 120.38 162.97 120.38L160.15 120.38C162.40 118.74 163.62 117.45 163.62 115.97C163.62 114.24 162.15 113.20 160.31 113.20C159.21 113.20 157.76 113.67 157.34 114.33C157.26 114.45 157.22 114.58 157.22 114.71C157.22 115.17 157.60 115.54 158.03 115.54C158.23 115.54 158.40 115.49 158.56 115.37C159.06 115.03 159.66 114.84 160.34 114.84C161.06 114.84 161.75 115.21 161.75 115.97C161.75 116.98 160.71 117.93 157.47 120.32C157.22 120.50 157.08 120.80 157.08 121.10C157.08 121.62 157.50 122 157.95 122L162.97 122C163.40 122 163.76 121.64 163.76 121.17ZM167.14 121.36C167.14 120.52 166.59 120.04 165.97 120.04C165.43 120.04 164.96 120.50 164.96 121.08C164.96 121.64 165.35 122.01 165.84 122.01C165.94 122.01 166.05 121.99 166.09 121.97C166.01 122.31 165.73 122.72 165.39 122.99C165.30 123.07 165.26 123.17 165.26 123.27C165.26 123.53 165.53 123.69 165.75 123.69C165.88 123.69 166.00 123.65 166.09 123.56C166.74 122.97 167.14 122.19 167.14 121.36ZM175.10 119.62C175.10 118.44 174.40 117.76 173.88 117.53C174.32 117.32 174.96 116.83 174.96 115.49C174.96 113.99 173.35 113.20 171.62 113.20C169.87 113.20 168.28 113.99 168.28 115.49C168.28 116.83 168.90 117.32 169.34 117.53C168.82 117.76 168.13 118.44 168.13 119.62C168.13 121.25 169.80 122.16 171.62 122.16C173.44 122.16 175.10 121.23 175.10 119.62ZM173.07 115.77C173.07 116.42 172.41 116.80 171.62 116.80C170.82 116.80 170.15 116.42 170.15 115.77C170.15 115.15 170.76 114.78 171.62 114.78C172.46 114.78 173.07 115.15 173.07 115.77ZM173.23 119.52C173.23 120.15 172.50 120.57 171.62 120.57C170.71 120.57 170.00 120.15 170.00 119.52C170.00 118.79 170.81 118.36 171.62 118.36C172.41 118.36 173.23 118.79 173.23 119.52ZM175.95 116.16C175.95 118.01 177.34 118.98 178.90 118.98C179.98 118.98 180.78 118.45 181.12 117.87C181.13 117.93 181.13 117.98 181.13 118.05C181.13 119.43 180.24 120.50 178.96 120.50C178.52 120.50 178.16 120.43 177.83 120.26C177.71 120.19 177.58 120.17 177.45 120.17C177.05 120.17 176.61 120.48 176.61 120.97C176.61 121.10 176.65 121.22 176.70 121.32C177.02 121.90 178.12 122.14 178.96 122.14C181.52 122.14 183.00 120.28 183.00 117.66C183.00 115.21 181.90 113.19 179.26 113.19C177.28 113.19 175.95 114.47 175.95 116.16ZM177.82 116.10C177.82 115.45 178.30 114.82 179.30 114.82C180.12 114.82 180.73 115.38 180.73 116.19C180.73 116.97 180.11 117.53 179.30 117.53C178.47 117.53 177.82 116.97 177.82 116.10ZM191.08 117.67C191.08 115.44 189.96 113.20 187.49 113.20C185.01 113.20 183.90 115.44 183.90 117.67C183.90 119.91 185.01 122.16 187.49 122.16C189.96 122.16 191.08 119.91 191.08 117.67ZM189.19 117.67C189.19 119.27 188.72 120.52 187.49 120.52C186.24 120.52 185.77 119.27 185.77 117.67C185.77 116.07 186.24 114.84 187.49 114.84C188.72 114.84 189.19 116.07 189.19 117.67ZM194.04 121.36C194.04 120.52 193.48 120.04 192.87 120.04C192.33 120.04 191.86 120.50 191.86 121.08C191.86 121.64 192.25 122.01 192.74 122.01C192.83 122.01 192.95 121.99 192.99 121.97C192.91 122.31 192.62 122.72 192.29 122.99C192.20 123.07 192.16 123.17 192.16 123.27C192.16 123.53 192.43 123.69 192.65 123.69C192.78 123.69 192.90 123.65 192.99 123.56C193.64 122.97 194.04 122.19 194.04 121.36ZM201.92 117.67C201.92 115.44 200.80 113.20 198.33 113.20C195.85 113.20 194.74 115.44 194.74 117.67C194.74 119.91 195.85 122.16 198.33 122.16C200.80 122.16 201.92 119.91 201.92 117.67ZM200.03 117.67C200.03 119.27 199.57 120.52 198.33 120.52C197.08 120.52 196.62 119.27 196.62 117.67C196.62 116.07 197.08 114.84 198.33 114.84C199.57 114.84 200.03 116.07 200.03 117.67ZM209.78 119.62C209.78 118.44 209.08 117.76 208.56 117.53C209.00 117.32 209.64 116.83 209.64 115.49C209.64 113.99 208.03 113.20 206.30 113.20C204.56 113.20 202.96 113.99 202.96 115.49C202.96 116.83 203.58 117.32 204.03 117.53C203.51 117.76 202.82 118.44 202.82 119.62C202.82 121.25 204.48 122.16 206.30 122.16C208.12 122.16 209.78 121.23 209.78 119.62ZM207.76 115.77C207.76 116.42 207.09 116.80 206.30 116.80C205.51 116.80 204.83 116.42 204.83 115.77C204.83 115.15 205.44 114.78 206.30 114.78C207.15 114.78 207.76 115.15 207.76 115.77ZM207.91 119.52C207.91 120.15 207.18 120.57 206.30 120.57C205.39 120.57 204.69 120.15 204.69 119.52C204.69 118.79 205.49 118.36 206.30 118.36C207.09 118.36 207.91 118.79 207.91 119.52ZM217.75 119.40C217.75 118.94 217.39 118.58 216.96 118.58L216.56 118.58L216.56 114.29C216.56 113.48 215.78 113.12 214.98 113.25C214.43 113.25 213.87 113.55 213.57 114.02L210.67 118.59C210.55 118.78 210.50 118.98 210.50 119.19C210.50 119.78 210.93 120.21 211.45 120.21L214.71 120.21L214.71 121.17C214.71 121.66 215.13 122.08 215.62 122.08C216.14 122.08 216.56 121.66 216.56 121.17L216.56 120.21L216.96 120.21C217.39 120.21 217.75 119.84 217.75 119.40ZM212.37 118.58L214.71 114.97L214.71 118.58Z" fill="#627386" /></g><g aria-label="Changed Files: 501,678"><circle cx="22" cy="140" r="4" fill="#673bd6" /><path d="M39.11 135.19C36.59 135.19 34.60 137.01 34.60 139.67C34.60 142.34 36.59 144.16 39.11 144.16C40.46 144.16 41.40 143.60 42.07 142.87C42.18 142.76 42.23 142.62 42.23 142.47C42.23 142.15 41.97 141.87 41.63 141.87C41.46 141.87 41.28 141.95 41.18 142.08C40.64 142.67 39.88 143.01 39.11 143.01C37.29 143.01 35.94 141.61 35.94 139.67C35.94 137.72 37.29 136.33 39.11 136.33C39.86 136.33 40.67 136.69 41.18 137.28C41.28 137.42 41.46 137.49 41.62 137.49C41.96 137.49 42.23 137.21 42.23 136.89C42.23 136.73 42.18 136.59 42.07 136.47C41.41 135.73 40.46 135.19 39.11 135.19ZM49.17 139.94C49.17 138.62 48.22 137.56 46.90 137.56C45.79 137.56 45.22 138.10 44.92 138.60L44.92 135.81C44.92 135.51 44.66 135.25 44.36 135.25C44.02 135.25 43.76 135.51 43.76 135.81L43.76 143.51C43.76 143.82 44.02 144.08 44.34 144.08C44.66 144.08 44.92 143.82 44.92 143.51L44.92 140.56C44.92 139.38 45.54 138.59 46.53 138.59C47.47 138.59 48.01 139.29 48.01 140.33L48.01 143.51C48.01 143.82 48.27 144.08 48.59 144.08C48.91 144.08 49.17 143.82 49.17 143.51ZM56.09 139.75C56.09 138.15 54.92 137.56 53.56 137.56C52.72 137.56 51.77 137.84 51.17 138.44C51.09 138.53 51.06 138.63 51.06 138.74C51.06 139.01 51.30 139.19 51.54 139.19C51.63 139.19 51.73 139.15 51.82 139.09C52.29 138.72 52.81 138.54 53.40 138.54C54.28 138.54 54.93 139.01 54.93 139.80L54.93 140.15L53.12 140.15C51.82 140.15 50.68 140.66 50.68 142.08C50.68 143.45 51.82 144.16 52.86 144.16C53.84 144.16 54.42 143.86 54.93 143.30L54.93 143.51C54.93 143.88 55.23 144.08 55.46 144.08L55.50 144.08C55.83 144.08 56.09 143.82 56.09 143.51ZM54.93 140.96L54.93 141.84C54.93 142.58 54.09 143.34 53.17 143.34C52.33 143.34 51.85 142.83 51.85 142.10C51.85 141.35 52.45 140.96 53.44 140.96ZM63.34 139.97C63.34 138.64 62.38 137.56 61.05 137.56C59.96 137.56 59.40 138.10 59.10 138.60L59.10 138.20C59.10 137.90 58.84 137.64 58.54 137.64C58.21 137.64 57.95 137.90 57.95 138.20L57.95 143.51C57.95 143.82 58.21 144.08 58.52 144.08C58.84 144.08 59.10 143.82 59.10 143.51L59.10 140.49C59.10 139.42 59.67 138.59 60.68 138.59C61.61 138.59 62.18 139.32 62.18 140.36L62.18 143.51C62.18 143.82 62.44 144.08 62.76 144.08C63.08 144.08 63.34 143.82 63.34 143.51ZM70.84 138.20C70.84 137.90 70.58 137.64 70.28 137.64C69.95 137.64 69.69 137.90 69.69 138.20L69.69 138.63C69.18 137.96 68.45 137.56 67.62 137.56C65.99 137.56 64.84 138.79 64.84 140.81C64.84 142.86 66.01 144.05 67.62 144.05C68.48 144.05 69.22 143.60 69.69 142.96L69.69 143.79C69.69 145.13 68.72 145.60 67.75 145.60C67.06 145.60 66.51 145.46 66.03 145.05C65.94 144.99 65.85 144.96 65.73 144.96C65.47 144.96 65.24 145.18 65.24 145.46C65.24 145.59 65.29 145.70 65.37 145.78C65.98 146.37 66.86 146.55 67.75 146.55C69.28 146.55 70.84 145.91 70.84 143.75ZM69.69 140.83C69.69 142.12 68.84 143.03 67.80 143.03C66.63 143.03 66.03 142.10 66.03 140.81C66.03 139.50 66.63 138.59 67.80 138.59C68.84 138.59 69.69 139.49 69.69 140.78ZM78.51 140.65C78.51 140.40 78.45 140.13 78.40 139.92C78.03 138.51 76.99 137.56 75.47 137.56C73.65 137.56 72.34 139.03 72.34 140.85C72.34 142.83 73.70 144.16 75.57 144.16C76.50 144.16 78.11 143.68 78.11 142.97C78.11 142.53 77.67 142.43 77.38 142.57C76.93 142.91 76.22 143.22 75.69 143.22C74.42 143.22 73.64 142.35 73.55 141.27L77.91 141.27C78.24 141.27 78.51 140.96 78.51 140.65ZM73.55 140.41C73.60 139.54 74.21 138.50 75.46 138.50C76.80 138.50 77.37 139.57 77.39 140.41ZM85.64 135.81C85.64 135.51 85.38 135.25 85.08 135.25C84.74 135.25 84.48 135.51 84.48 135.81L84.48 138.63C83.97 137.96 83.36 137.56 82.41 137.56C80.77 137.56 79.62 138.85 79.62 140.87C79.62 142.92 80.79 144.16 82.41 144.16C83.39 144.16 84.00 143.73 84.48 143.10L84.48 143.51C84.48 143.82 84.74 144.08 85.05 144.08C85.38 144.08 85.64 143.82 85.64 143.51ZM84.48 140.91C84.48 142.21 83.83 143.13 82.71 143.13C81.54 143.13 80.81 142.18 80.81 140.87C80.81 139.55 81.54 138.59 82.71 138.59C83.83 138.59 84.48 139.54 84.48 140.83ZM96.76 135.91C96.76 135.58 96.52 135.33 96.20 135.33L91.73 135.33C91.27 135.33 90.89 135.71 90.89 136.17L90.89 143.44C90.89 143.79 91.17 144.08 91.52 144.08C91.89 144.08 92.17 143.79 92.17 143.44L92.17 140.15L96.11 140.15C96.43 140.15 96.67 139.89 96.67 139.59C96.67 139.25 96.43 139.01 96.11 139.01L92.17 139.01L92.17 136.47L96.20 136.47C96.52 136.47 96.76 136.21 96.76 135.91ZM98.65 135.39C98.25 135.39 97.91 135.73 97.91 136.15C97.91 136.55 98.25 136.89 98.65 136.89C99.06 136.89 99.39 136.55 99.39 136.15C99.39 135.73 99.06 135.39 98.65 135.39ZM99.23 138.20C99.23 137.90 98.97 137.64 98.67 137.64C98.34 137.64 98.08 137.90 98.08 138.20L98.08 143.51C98.08 143.82 98.34 144.08 98.65 144.08C98.97 144.08 99.23 143.82 99.23 143.51ZM102.26 135.81C102.26 135.51 102.00 135.25 101.70 135.25C101.37 135.25 101.11 135.51 101.11 135.81L101.11 143.51C101.11 143.82 101.37 144.08 101.68 144.08C102.00 144.08 102.26 143.82 102.26 143.51ZM109.93 140.65C109.93 140.40 109.87 140.13 109.82 139.92C109.45 138.51 108.41 137.56 106.89 137.56C105.07 137.56 103.76 139.03 103.76 140.85C103.76 142.83 105.12 144.16 106.99 144.16C107.92 144.16 109.53 143.68 109.53 142.97C109.53 142.53 109.09 142.43 108.80 142.57C108.35 142.91 107.64 143.22 107.11 143.22C105.84 143.22 105.06 142.35 104.97 141.27L109.33 141.27C109.66 141.27 109.93 140.96 109.93 140.65ZM104.97 140.41C105.02 139.54 105.63 138.50 106.88 138.50C108.22 138.50 108.79 139.57 108.81 140.41ZM116.02 142.10C115.90 139.89 112.30 140.50 112.17 139.37C112.12 138.87 112.66 138.49 113.46 138.49C114.05 138.49 114.61 138.68 115.02 138.97C115.09 139.03 115.18 139.06 115.29 139.06C115.52 139.06 115.74 138.87 115.74 138.60C115.74 138.50 115.70 138.40 115.63 138.32C115.13 137.84 114.34 137.56 113.44 137.56C111.91 137.56 110.99 138.29 111.05 139.41C111.17 141.52 114.76 140.87 114.89 142.26C114.94 142.83 114.42 143.23 113.52 143.23C112.87 143.23 112.22 142.97 111.75 142.63C111.66 142.57 111.57 142.54 111.45 142.54C111.18 142.54 110.95 142.75 110.95 143.03C110.95 143.16 111.00 143.26 111.09 143.34C111.66 143.91 112.61 144.16 113.47 144.16C115.13 144.16 116.08 143.30 116.02 142.10Z" fill="#22272e" /><path d="M178.22 141.15C178.22 139.40 176.91 138.34 175.44 138.34C174.64 138.34 173.94 138.66 173.53 139.07L173.53 136.95L176.92 136.95C177.35 136.95 177.71 136.59 177.71 136.15C177.71 135.69 177.35 135.33 176.92 135.33L172.72 135.33C172.15 135.33 171.68 135.80 171.68 136.37L171.68 139.70C171.68 140.20 172.04 140.58 172.62 140.58C172.88 140.58 173.12 140.50 173.33 140.36C173.80 140.05 174.25 139.94 174.79 139.94C175.78 139.94 176.35 140.46 176.35 141.23C176.35 141.93 175.76 142.52 174.74 142.52C174.11 142.52 173.51 142.35 173.01 142.04C172.85 141.95 172.68 141.89 172.53 141.89C172.07 141.89 171.64 142.25 171.64 142.73C171.64 142.86 171.68 142.99 171.75 143.10C172.15 143.78 173.62 144.16 174.75 144.16C176.84 144.16 178.22 143.00 178.22 141.15ZM186.29 139.67C186.29 137.44 185.17 135.20 182.70 135.20C180.22 135.20 179.12 137.44 179.12 139.67C179.12 141.91 180.22 144.16 182.70 144.16C185.17 144.16 186.29 141.91 186.29 139.67ZM184.41 139.67C184.41 141.27 183.94 142.52 182.70 142.52C181.46 142.52 180.99 141.27 180.99 139.67C180.99 138.07 181.46 136.84 182.70 136.84C183.94 136.84 184.41 138.07 184.41 139.67ZM191.22 136.32C191.22 135.73 190.73 135.26 190.14 135.26C189.84 135.26 189.56 135.38 189.36 135.58L187.36 137.60C187.20 137.76 187.12 137.96 187.12 138.15C187.12 138.58 187.49 138.92 187.89 138.92C188.07 138.92 188.26 138.85 188.40 138.71L189.37 137.71L189.37 143.17C189.37 143.66 189.79 144.08 190.28 144.08C190.80 144.08 191.22 143.66 191.22 143.17ZM194.87 143.36C194.87 142.52 194.31 142.04 193.70 142.04C193.16 142.04 192.69 142.50 192.69 143.08C192.69 143.64 193.08 144.01 193.57 144.01C193.66 144.01 193.78 143.99 193.82 143.97C193.74 144.31 193.46 144.72 193.12 144.99C193.03 145.07 192.99 145.17 192.99 145.27C192.99 145.53 193.26 145.69 193.48 145.69C193.61 145.69 193.73 145.65 193.82 145.56C194.47 144.97 194.87 144.19 194.87 143.36ZM202.63 141.18C202.63 139.33 201.24 138.36 199.68 138.36C198.60 138.36 197.80 138.89 197.46 139.48C197.45 139.41 197.45 139.36 197.45 139.29C197.45 137.92 198.34 136.84 199.62 136.84C200.06 136.84 200.42 136.91 200.75 137.08C200.87 137.15 201.00 137.18 201.13 137.18C201.53 137.18 201.97 136.86 201.97 136.37C201.97 136.24 201.93 136.12 201.88 136.02C201.55 135.45 200.46 135.20 199.62 135.20C197.06 135.20 195.57 137.06 195.57 139.68C195.57 142.13 196.68 144.16 199.32 144.16C201.29 144.16 202.63 142.87 202.63 141.18ZM200.76 141.24C200.76 141.89 200.28 142.52 199.28 142.52C198.46 142.52 197.85 141.96 197.85 141.15C197.85 140.37 198.47 139.81 199.28 139.81C200.11 139.81 200.76 140.37 200.76 141.24ZM209.94 136.26C209.94 135.72 209.50 135.33 209.04 135.33L204.08 135.33C203.63 135.33 203.27 135.69 203.27 136.12C203.27 136.59 203.63 136.95 204.08 136.95L207.72 136.95L205.13 142.82C205.08 142.93 205.05 143.05 205.05 143.17C205.05 143.64 205.43 144.08 205.97 144.08C206.35 144.08 206.70 143.86 206.85 143.52L209.86 136.63C209.91 136.53 209.94 136.40 209.94 136.26ZM217.54 141.62C217.54 140.44 216.84 139.76 216.32 139.53C216.76 139.32 217.40 138.83 217.40 137.49C217.40 135.99 215.79 135.20 214.06 135.20C212.32 135.20 210.72 135.99 210.72 137.49C210.72 138.83 211.34 139.32 211.79 139.53C211.27 139.76 210.58 140.44 210.58 141.62C210.58 143.25 212.24 144.16 214.06 144.16C215.88 144.16 217.54 143.23 217.54 141.62ZM215.52 137.77C215.52 138.42 214.85 138.80 214.06 138.80C213.27 138.80 212.59 138.42 212.59 137.77C212.59 137.15 213.20 136.78 214.06 136.78C214.91 136.78 215.52 137.15 215.52 137.77ZM215.67 141.52C215.67 142.15 214.94 142.57 214.06 142.57C213.15 142.57 212.45 142.15 212.45 141.52C212.45 140.79 213.25 140.36 214.06 140.36C214.85 140.36 215.67 140.79 215.67 141.52Z" fill="#627386" /></g><rect x="18" y="166" width="384" height="8" rx="4" fill="#f4faff" /><rect x="18.00" y="166" width="267.26" height="8" rx="4" fill="#00d559" /><rect x="285.26" y="166" width="116.74" height="8" rx="4" fill="#00a5fe" /></svg>