<svg xmlns="http://www.w3.org/2000/svg" width="420" height="184" viewBox="0 0 420 184" role="img"><rect x="0.5" y="0.5" width="419" height="183" rx="10" fill="#161b22" stroke="#30363d" /><path d="M30.72 33.60C30.72 32.83 30.10 32.21 29.37 32.21L28.69 32.21L28.69 24.95C28.69 23.59 27.37 22.97 26.03 23.19C25.08 23.19 24.14 23.70 23.63 24.49L18.73 32.24C18.53 32.54 18.44 32.90 18.44 33.25C18.44 34.24 19.17 34.96 20.05 34.96L25.57 34.96L25.57 36.59C25.57 37.43 26.27 38.13 27.11 38.13C27.99 38.13 28.69 37.43 28.69 36.59L28.69 34.96L29.37 34.96C30.10 34.96 30.72 34.35 30.72 33.60ZM21.61 32.21L25.57 26.10L25.57 32.21ZM43.83 33.23C43.83 30.10 41.47 28.45 38.83 28.45C37.01 28.45 35.64 29.35 35.07 30.34C35.05 30.23 35.05 30.15 35.05 30.04C35.05 27.70 36.57 25.88 38.72 25.88C39.47 25.88 40.09 26.01 40.64 26.30C40.84 26.41 41.06 26.45 41.28 26.45C41.96 26.45 42.71 25.92 42.71 25.09C42.71 24.87 42.64 24.67 42.55 24.49C42.00 23.52 40.15 23.11 38.72 23.11C34.39 23.11 31.88 26.25 31.88 30.70C31.88 34.83 33.75 38.26 38.22 38.26C41.56 38.26 43.83 36.09 43.83 33.23ZM40.66 33.34C40.66 34.44 39.85 35.49 38.15 35.49C36.77 35.49 35.73 34.55 35.73 33.18C35.73 31.86 36.79 30.92 38.15 30.92C39.56 30.92 40.66 31.86 40.66 33.34ZM49.24 36.92C49.24 35.49 48.29 34.68 47.26 34.68C46.34 34.68 45.54 35.47 45.54 36.44C45.54 37.38 46.20 38.02 47.04 38.02C47.19 38.02 47.39 37.98 47.46 37.96C47.33 38.53 46.84 39.21 46.27 39.67C46.12 39.80 46.05 39.98 46.05 40.16C46.05 40.60 46.51 40.86 46.89 40.86C47.11 40.86 47.30 40.79 47.46 40.64C48.56 39.65 49.24 38.33 49.24 36.92ZM62.09 34.00C62.26 31.36 60.48 30.43 60.48 30.43C60.48 30.43 62.11 29.60 61.93 27.09C61.76 24.65 59.82 23.11 56.39 23.11C54.37 23.11 52.78 23.70 51.57 24.67C51.26 24.91 51.11 25.26 51.11 25.61C51.11 26.38 51.79 26.93 52.47 26.93C52.74 26.93 53.00 26.87 53.22 26.71C54.08 26.16 55.05 25.88 56.06 25.88C57.60 25.88 58.79 26.23 58.79 27.40C58.79 28.61 58.06 29.18 56.59 29.18C55.53 29.18 55.07 29.77 55.07 30.54C55.07 31.31 55.53 31.93 56.68 31.93C58.17 31.93 59.03 32.46 59.03 33.62C59.03 34.72 58.04 35.49 56.26 35.49C55.25 35.49 54.08 35.14 53.11 34.57C52.87 34.41 52.61 34.35 52.34 34.35C51.62 34.35 50.91 34.94 50.91 35.73C50.91 35.95 50.98 36.15 51.09 36.33C51.77 37.47 54.26 38.26 56.37 38.26C59.89 38.26 61.91 36.75 62.09 34.00ZM75.95 30.67C75.95 26.89 74.06 23.11 69.88 23.11C65.67 23.11 63.80 26.89 63.80 30.67C63.80 34.46 65.67 38.26 69.88 38.26C74.06 38.26 75.95 34.46 75.95 30.67ZM72.76 30.67C72.76 33.38 71.97 35.49 69.88 35.49C67.76 35.49 66.97 33.38 66.97 30.67C66.97 27.97 67.76 25.88 69.88 25.88C71.97 25.88 72.76 27.97 72.76 30.67ZM89.26 33.97C89.26 31.97 88.07 30.83 87.19 30.43C87.94 30.08 89.02 29.24 89.02 26.98C89.02 24.45 86.29 23.11 83.36 23.11C80.41 23.11 77.71 24.45 77.71 26.98C77.71 29.24 78.76 30.08 79.51 30.43C78.63 30.83 77.47 31.97 77.47 33.97C77.47 36.72 80.28 38.26 83.36 38.26C86.44 38.26 89.26 36.70 89.26 33.97ZM85.83 27.46C85.83 28.56 84.70 29.20 83.36 29.20C82.02 29.20 80.88 28.56 80.88 27.46C80.88 26.41 81.91 25.79 83.36 25.79C84.79 25.79 85.83 26.41 85.83 27.46ZM86.09 33.80C86.09 34.88 84.86 35.58 83.36 35.58C81.82 35.58 80.63 34.88 80.63 33.80C80.63 32.57 82.00 31.84 83.36 31.84C84.70 31.84 86.09 32.57 86.09 33.80ZM104.22 23.08C99.82 23.08 96.41 26.16 96.41 30.67C96.41 35.18 99.82 38.26 104.22 38.26C106.75 38.26 108.44 37.16 109.54 35.82C109.76 35.58 109.85 35.27 109.85 34.96C109.85 34.22 109.21 33.60 108.42 33.60C107.98 33.60 107.54 33.78 107.23 34.11C106.42 35.01 105.32 35.49 104.22 35.49C101.56 35.49 99.62 33.45 99.62 30.67C99.62 27.90 101.56 25.86 104.22 25.86C105.32 25.86 106.40 26.38 107.23 27.26C107.54 27.59 107.96 27.77 108.38 27.77C109.19 27.77 109.87 27.15 109.87 26.36C109.87 26.08 109.76 25.75 109.56 25.50C108.44 24.16 106.75 23.08 104.22 23.08ZM122.72 32.68C122.72 29.66 120.61 27.11 117.09 27.11C113.59 27.11 111.48 29.66 111.48 32.68C111.48 35.71 113.59 38.26 117.09 38.26C120.61 38.26 122.72 35.71 122.72 32.68ZM119.82 32.68C119.82 34.35 118.83 35.78 117.09 35.78C115.35 35.78 114.38 34.35 114.38 32.68C114.38 31.03 115.35 29.60 117.09 29.60C118.83 29.60 119.82 31.03 119.82 32.68ZM140.78 31.20C140.78 29.02 139.26 27.11 136.87 27.11C135.02 27.11 133.96 28.19 133.57 28.94C133.17 28.17 132.18 27.11 130.40 27.11C128.77 27.11 128.02 27.70 127.58 28.28L127.58 28.25C127.58 27.95 127.19 27.24 126.22 27.24C125.40 27.24 124.79 27.86 124.79 28.61L124.79 36.75C124.79 37.52 125.40 38.13 126.17 38.13C126.97 38.13 127.58 37.52 127.58 36.75L127.58 31.73C127.58 30.70 128.37 29.60 129.56 29.60C130.71 29.60 131.37 30.74 131.37 31.73L131.37 36.75C131.37 37.52 131.98 38.13 132.75 38.13C133.57 38.13 134.18 37.52 134.18 36.75L134.18 31.93C134.18 30.70 134.95 29.60 136.16 29.60C137.31 29.60 137.97 30.74 137.97 31.73L137.97 36.75C137.97 37.52 138.58 38.13 139.35 38.13C140.17 38.13 140.78 37.52 140.78 36.75ZM159.53 31.20C159.53 29.02 158.01 27.11 155.61 27.11C153.76 27.11 152.71 28.19 152.31 28.94C151.91 28.17 150.92 27.11 149.14 27.11C147.51 27.11 146.77 27.70 146.33 28.28L146.33 28.25C146.33 27.95 145.93 27.24 144.96 27.24C144.15 27.24 143.53 27.86 143.53 28.61L143.53 36.75C143.53 37.52 144.15 38.13 144.92 38.13C145.71 38.13 146.33 37.52 146.33 36.75L146.33 31.73C146.33 30.70 147.12 29.60 148.31 29.60C149.45 29.60 150.11 30.74 150.11 31.73L150.11 36.75C150.11 37.52 150.73 38.13 151.50 38.13C152.31 38.13 152.93 37.52 152.93 36.75L152.93 31.93C152.93 30.70 153.70 29.60 154.91 29.60C156.05 29.60 156.71 30.74 156.71 31.73L156.71 36.75C156.71 37.52 157.33 38.13 158.10 38.13C158.91 38.13 159.53 37.52 159.53 36.75ZM163.66 22.91C162.76 22.91 161.99 23.63 161.99 24.56C161.99 25.48 162.76 26.23 163.66 26.23C164.59 26.23 165.33 25.48 165.33 24.56C165.33 23.63 164.59 22.91 163.66 22.91ZM165.07 28.61C165.07 27.86 164.45 27.24 163.71 27.24C162.89 27.24 162.28 27.86 162.28 28.61L162.28 36.75C162.28 37.52 162.89 38.13 163.66 38.13C164.45 38.13 165.07 37.52 165.07 36.75ZM173.65 36.99C173.65 36.31 173.21 35.78 172.42 35.78L172.18 35.78C171.74 35.78 171.21 35.45 171.21 34.61L171.21 29.82L172.31 29.82C172.95 29.82 173.50 29.27 173.50 28.61C173.50 27.92 172.95 27.37 172.31 27.37L171.21 27.37L171.21 25.72C171.21 24.95 170.59 24.34 169.82 24.34C169.01 24.34 168.39 24.95 168.39 25.72L168.39 27.37L167.71 27.37C167.05 27.37 166.50 27.92 166.50 28.56C166.50 29.27 167.05 29.82 167.71 29.82L168.39 29.82L168.39 35.36C168.39 37.25 169.45 38.26 171.41 38.26C173.23 38.26 173.65 37.69 173.65 36.99ZM183.70 34.85C183.70 30.56 177.41 31.88 177.41 30.30C177.41 29.71 178.07 29.24 179.08 29.24C179.94 29.24 180.80 29.49 181.48 29.88C181.64 29.97 181.83 30.01 182.01 30.01C182.58 30.01 183.11 29.55 183.11 28.96C183.11 28.76 183.04 28.56 182.93 28.41C182.34 27.55 180.45 27.11 179.06 27.11C176.27 27.11 174.71 28.67 174.71 30.45C174.71 34.63 181.02 33.20 181.02 34.96C181.02 35.62 180.45 36.11 179.24 36.11C178.31 36.11 177.21 35.73 176.38 35.25C176.20 35.14 176.00 35.10 175.81 35.10C175.21 35.10 174.64 35.60 174.64 36.26C174.64 36.48 174.71 36.68 174.84 36.86C175.50 37.80 177.72 38.26 179.11 38.26C182.05 38.26 183.70 36.79 183.70 34.85Z" fill="#e6edf3" /><path d="M20.26 49.88C20.26 49.54 19.98 49.25 19.64 49.25C19.26 49.25 18.98 49.54 18.98 49.88L18.98 57.44C18.98 57.79 19.26 58.08 19.61 58.08C19.98 58.08 20.26 57.79 20.26 57.44ZM27.55 53.97C27.55 52.64 26.59 51.56 25.27 51.56C24.18 51.56 23.62 52.10 23.32 52.60L23.32 52.20C23.32 51.90 23.06 51.64 22.76 51.64C22.42 51.64 22.16 51.90 22.16 52.20L22.16 57.51C22.16 57.82 22.42 58.08 22.73 58.08C23.06 58.08 23.32 57.82 23.32 57.51L23.32 54.49C23.32 53.42 23.89 52.59 24.89 52.59C25.83 52.59 26.40 53.32 26.40 54.36L26.40 57.51C26.40 57.82 26.66 58.08 26.97 58.08C27.30 58.08 27.55 57.82 27.55 57.51ZM38.97 49.91C38.97 49.58 38.72 49.33 38.41 49.33L32.70 49.33C32.39 49.33 32.14 49.58 32.14 49.89C32.14 50.21 32.39 50.47 32.70 50.47L34.91 50.47L34.91 57.44C34.91 57.79 35.20 58.08 35.55 58.08C35.91 58.08 36.20 57.79 36.20 57.44L36.20 50.47L38.41 50.47C38.72 50.47 38.97 50.21 38.97 49.91ZM44.74 54.85C44.74 53.05 43.53 51.56 41.57 51.56C39.62 51.56 38.41 53.05 38.41 54.85C38.41 56.66 39.62 58.16 41.57 58.16C43.53 58.16 44.74 56.66 44.74 54.85ZM43.53 54.85C43.53 56.06 42.83 57.13 41.57 57.13C40.32 57.13 39.61 56.06 39.61 54.85C39.61 53.66 40.32 52.59 41.57 52.59C42.83 52.59 43.53 53.66 43.53 54.85ZM49.16 57.55C49.16 57.27 48.95 57.06 48.67 57.06C48.54 57.06 48.38 57.13 48.24 57.13C47.86 57.13 47.63 56.83 47.63 56.35L47.63 52.73L48.48 52.73C48.76 52.73 48.98 52.51 48.98 52.24C48.98 51.94 48.76 51.72 48.48 51.72L47.63 51.72L47.63 50.49C47.63 50.19 47.37 49.93 47.05 49.93C46.72 49.93 46.46 50.19 46.46 50.49L46.46 51.72L45.85 51.72C45.56 51.72 45.34 51.94 45.34 52.22C45.34 52.51 45.56 52.73 45.85 52.73L46.46 52.73L46.46 56.62C46.46 57.61 46.98 58.16 47.96 58.16C48.65 58.16 49.16 57.96 49.16 57.55ZM55.26 53.75C55.26 52.15 54.09 51.56 52.74 51.56C51.89 51.56 50.94 51.84 50.34 52.44C50.27 52.53 50.23 52.63 50.23 52.73C50.23 53.01 50.47 53.19 50.71 53.19C50.80 53.19 50.90 53.15 50.99 53.09C51.46 52.72 51.98 52.54 52.57 52.54C53.45 52.54 54.10 53.01 54.10 53.80L54.10 54.15L52.29 54.15C50.99 54.15 49.85 54.66 49.85 56.08C49.85 57.45 50.99 58.16 52.03 58.16C53.01 58.16 53.59 57.86 54.10 57.30L54.10 57.51C54.10 57.88 54.40 58.08 54.63 58.08L54.67 58.08C55.00 58.08 55.26 57.82 55.26 57.51ZM54.10 54.96L54.10 55.84C54.10 56.58 53.26 57.34 52.35 57.34C51.50 57.34 51.02 56.83 51.02 56.10C51.02 55.35 51.62 54.96 52.61 54.96ZM58.27 49.81C58.27 49.51 58.01 49.25 57.71 49.25C57.38 49.25 57.12 49.51 57.12 49.81L57.12 57.51C57.12 57.82 57.38 58.08 57.69 58.08C58.01 58.08 58.27 57.82 58.27 57.51Z" fill="#9aa7b4" /><line x1="18" y1="76" x2="48" y2="76" stroke="#9aa7b4" stroke-opacity="0.4" /><g aria-label="Additions: 27,679,220"><circle cx="22" cy="96" r="4" fill="#00d559" /><path d="M42.28 99.39C42.28 99.31 42.27 99.23 42.23 99.14L39.36 91.94C39.19 91.51 38.76 91.24 38.30 91.25C37.85 91.25 37.43 91.52 37.28 91.94L34.40 99.14C34.38 99.23 34.36 99.31 34.36 99.39C34.36 99.74 34.65 100.08 35.05 100.08C35.33 100.08 35.57 99.92 35.68 99.66L36.25 98.19L40.40 98.19L40.97 99.66C41.07 99.92 41.32 100.08 41.59 100.08C42.01 100.08 42.28 99.71 42.28 99.39ZM38.32 92.64L40.03 97.06L36.61 97.06ZM49.22 91.81C49.22 91.51 48.96 91.25 48.66 91.25C48.33 91.25 48.07 91.51 48.07 91.81L48.07 94.63C47.56 93.95 46.95 93.56 46.00 93.56C44.36 93.56 43.20 94.85 43.20 96.87C43.20 98.92 44.37 100.16 46.00 100.16C46.97 100.16 47.59 99.73 48.07 99.10L48.07 99.51C48.07 99.82 48.33 100.08 48.64 100.08C48.96 100.08 49.22 99.82 49.22 99.51ZM48.07 96.91C48.07 98.21 47.42 99.13 46.30 99.13C45.13 99.13 44.40 98.18 44.40 96.87C44.40 95.55 45.13 94.59 46.30 94.59C47.42 94.59 48.07 95.54 48.07 96.83ZM56.74 91.81C56.74 91.51 56.48 91.25 56.18 91.25C55.84 91.25 55.58 91.51 55.58 91.81L55.58 94.63C55.07 93.95 54.46 93.56 53.51 93.56C51.88 93.56 50.72 94.85 50.72 96.87C50.72 98.92 51.89 100.16 53.51 100.16C54.49 100.16 55.10 99.73 55.58 99.10L55.58 99.51C55.58 99.82 55.84 100.08 56.15 100.08C56.48 100.08 56.74 99.82 56.74 99.51ZM55.58 96.91C55.58 98.21 54.93 99.13 53.81 99.13C52.64 99.13 51.91 98.18 51.91 96.87C51.91 95.55 52.64 94.59 53.81 94.59C54.93 94.59 55.58 95.54 55.58 96.83ZM59.18 91.39C58.78 91.39 58.44 91.73 58.44 92.15C58.44 92.55 58.78 92.89 59.18 92.89C59.60 92.89 59.92 92.55 59.92 92.15C59.92 91.73 59.60 91.39 59.18 91.39ZM59.77 94.20C59.77 93.90 59.51 93.64 59.21 93.64C58.87 93.64 58.61 93.90 58.61 94.20L58.61 99.51C58.61 99.82 58.87 100.08 59.18 100.08C59.51 100.08 59.77 99.82 59.77 99.51ZM64.56 99.55C64.56 99.27 64.36 99.06 64.07 99.06C63.94 99.06 63.78 99.13 63.64 99.13C63.26 99.13 63.03 98.83 63.03 98.35L63.03 94.73L63.89 94.73C64.16 94.73 64.38 94.51 64.38 94.24C64.38 93.94 64.16 93.72 63.89 93.72L63.03 93.72L63.03 92.49C63.03 92.19 62.77 91.93 62.46 91.93C62.12 91.93 61.86 92.19 61.86 92.49L61.86 93.72L61.25 93.72C60.96 93.72 60.74 93.94 60.74 94.22C60.74 94.51 60.96 94.73 61.25 94.73L61.86 94.73L61.86 98.62C61.86 99.61 62.38 100.16 63.37 100.16C64.06 100.16 64.56 99.96 64.56 99.55ZM66.19 91.39C65.79 91.39 65.45 91.73 65.45 92.15C65.45 92.55 65.79 92.89 66.19 92.89C66.60 92.89 66.93 92.55 66.93 92.15C66.93 91.73 66.60 91.39 66.19 91.39ZM66.77 94.20C66.77 93.90 66.51 93.64 66.21 93.64C65.88 93.64 65.62 93.90 65.62 94.20L65.62 99.51C65.62 99.82 65.88 100.08 66.19 100.08C66.51 100.08 66.77 99.82 66.77 99.51ZM74.60 96.85C74.60 95.05 73.39 93.56 71.43 93.56C69.48 93.56 68.27 95.05 68.27 96.85C68.27 98.66 69.48 100.16 71.43 100.16C73.39 100.16 74.60 98.66 74.60 96.85ZM73.39 96.85C73.39 98.06 72.69 99.13 71.43 99.13C70.18 99.13 69.46 98.06 69.46 96.85C69.46 95.66 70.18 94.59 71.43 94.59C72.69 94.59 73.39 95.66 73.39 96.85ZM81.49 95.97C81.49 94.64 80.53 93.56 79.20 93.56C78.11 93.56 77.55 94.10 77.25 94.61L77.25 94.20C77.25 93.90 76.99 93.64 76.69 93.64C76.35 93.64 76.09 93.90 76.09 94.20L76.09 99.51C76.09 99.82 76.35 100.08 76.67 100.08C76.99 100.08 77.25 99.82 77.25 99.51L77.25 96.49C77.25 95.42 77.82 94.59 78.82 94.59C79.76 94.59 80.33 95.32 80.33 96.36L80.33 99.51C80.33 99.82 80.59 100.08 80.90 100.08C81.23 100.08 81.49 99.82 81.49 99.51ZM87.96 98.10C87.85 95.89 84.24 96.50 84.11 95.37C84.06 94.86 84.61 94.49 85.40 94.49C86 94.49 86.56 94.68 86.96 94.97C87.04 95.03 87.13 95.06 87.23 95.06C87.47 95.06 87.69 94.86 87.69 94.61C87.69 94.50 87.65 94.40 87.57 94.32C87.08 93.84 86.29 93.56 85.39 93.56C83.86 93.56 82.93 94.29 83.00 95.41C83.11 97.52 86.70 96.87 86.83 98.26C86.88 98.83 86.36 99.23 85.47 99.23C84.82 99.23 84.17 98.97 83.70 98.64C83.61 98.57 83.52 98.54 83.40 98.54C83.13 98.54 82.89 98.75 82.89 99.03C82.89 99.16 82.94 99.26 83.04 99.34C83.61 99.91 84.56 100.16 85.41 100.16C87.08 100.16 88.03 99.30 87.96 98.10Z" fill="#e6edf3" /><path d="M158.89 99.17C158.89 98.74 158.52 98.38 158.10 98.38L155.27 98.38C157.52 96.74 158.75 95.45 158.75 93.97C158.75 92.24 157.28 91.20 155.43 91.20C154.34 91.20 152.88 91.67 152.47 92.33C152.39 92.45 152.35 92.58 152.35 92.71C152.35 93.17 152.73 93.54 153.16 93.54C153.35 93.54 153.52 93.49 153.69 93.37C154.18 93.03 154.78 92.84 155.47 92.84C156.18 92.84 156.87 93.21 156.87 93.97C156.87 94.98 155.83 95.93 152.60 98.32C152.35 98.50 152.21 98.80 152.21 99.10C152.21 99.62 152.62 100 153.08 100L158.10 100C158.52 100 158.89 99.64 158.89 99.17ZM166.38 92.27C166.38 91.72 165.94 91.33 165.48 91.33L160.51 91.33C160.07 91.33 159.71 91.69 159.71 92.12C159.71 92.59 160.07 92.95 160.51 92.95L164.15 92.95L161.57 98.82C161.51 98.93 161.49 99.05 161.49 99.17C161.49 99.64 161.87 100.08 162.41 100.08C162.79 100.08 163.14 99.86 163.28 99.52L166.30 92.63C166.35 92.53 166.38 92.39 166.38 92.27ZM168.13 99.36C168.13 98.52 167.57 98.04 166.96 98.04C166.42 98.04 165.95 98.50 165.95 99.08C165.95 99.64 166.34 100.01 166.83 100.01C166.92 100.01 167.04 99.99 167.08 99.97C167.00 100.31 166.71 100.72 166.38 100.99C166.29 101.07 166.25 101.17 166.25 101.27C166.25 101.53 166.52 101.69 166.74 101.69C166.87 101.69 166.99 101.65 167.08 101.56C167.73 100.97 168.13 100.19 168.13 99.36ZM175.89 97.18C175.89 95.33 174.50 94.36 172.94 94.36C171.86 94.36 171.06 94.89 170.72 95.48C170.71 95.41 170.71 95.36 170.71 95.29C170.71 93.92 171.60 92.84 172.88 92.84C173.32 92.84 173.68 92.91 174.01 93.08C174.13 93.15 174.25 93.17 174.38 93.17C174.79 93.17 175.23 92.86 175.23 92.37C175.23 92.24 175.19 92.12 175.14 92.02C174.81 91.45 173.72 91.20 172.88 91.20C170.32 91.20 168.83 93.06 168.83 95.68C168.83 98.13 169.94 100.16 172.58 100.16C174.55 100.16 175.89 98.87 175.89 97.18ZM174.02 97.24C174.02 97.89 173.54 98.52 172.54 98.52C171.72 98.52 171.11 97.96 171.11 97.15C171.11 96.37 171.73 95.81 172.54 95.81C173.37 95.81 174.02 96.37 174.02 97.24ZM183.20 92.27C183.20 91.72 182.76 91.33 182.30 91.33L177.34 91.33C176.89 91.33 176.53 91.69 176.53 92.12C176.53 92.59 176.89 92.95 177.34 92.95L180.98 92.95L178.39 98.82C178.34 98.93 178.31 99.05 178.31 99.17C178.31 99.64 178.69 100.08 179.23 100.08C179.61 100.08 179.96 99.86 180.10 99.52L183.12 92.63C183.17 92.53 183.20 92.39 183.20 92.27ZM183.77 94.16C183.77 96.01 185.16 96.98 186.72 96.98C187.80 96.98 188.61 96.45 188.94 95.87C188.96 95.93 188.96 95.98 188.96 96.05C188.96 97.43 188.06 98.50 186.79 98.50C186.34 98.50 185.98 98.43 185.66 98.26C185.54 98.19 185.41 98.17 185.28 98.17C184.88 98.17 184.43 98.48 184.43 98.97C184.43 99.10 184.47 99.22 184.53 99.32C184.85 99.90 185.94 100.14 186.79 100.14C189.35 100.14 190.83 98.28 190.83 95.66C190.83 93.21 189.72 91.19 187.09 91.19C185.11 91.19 183.77 92.47 183.77 94.16ZM185.64 94.10C185.64 93.45 186.12 92.82 187.13 92.82C187.94 92.82 188.56 93.38 188.56 94.19C188.56 94.97 187.93 95.53 187.13 95.53C186.29 95.53 185.64 94.97 185.64 94.10ZM193.81 99.36C193.81 98.52 193.25 98.04 192.64 98.04C192.09 98.04 191.62 98.50 191.62 99.08C191.62 99.64 192.01 100.01 192.51 100.01C192.60 100.01 192.72 99.99 192.75 99.97C192.68 100.31 192.39 100.72 192.05 100.99C191.96 101.07 191.92 101.17 191.92 101.27C191.92 101.53 192.19 101.69 192.42 101.69C192.55 101.69 192.66 101.65 192.75 101.56C193.40 100.97 193.81 100.19 193.81 99.36ZM201.56 99.17C201.56 98.74 201.19 98.38 200.76 98.38L197.94 98.38C200.19 96.74 201.41 95.45 201.41 93.97C201.41 92.24 199.94 91.20 198.10 91.20C197.00 91.20 195.55 91.67 195.13 92.33C195.06 92.45 195.02 92.58 195.02 92.71C195.02 93.17 195.39 93.54 195.82 93.54C196.02 93.54 196.19 93.49 196.35 93.37C196.85 93.03 197.45 92.84 198.14 92.84C198.85 92.84 199.54 93.21 199.54 93.97C199.54 94.98 198.50 95.93 195.26 98.32C195.02 98.50 194.87 98.80 194.87 99.10C194.87 99.62 195.29 100 195.74 100L200.76 100C201.19 100 201.56 99.64 201.56 99.17ZM209.36 99.17C209.36 98.74 208.99 98.38 208.56 98.38L205.74 98.38C207.99 96.74 209.21 95.45 209.21 93.97C209.21 92.24 207.74 91.20 205.90 91.20C204.81 91.20 203.35 91.67 202.93 92.33C202.86 92.45 202.82 92.58 202.82 92.71C202.82 93.17 203.19 93.54 203.62 93.54C203.82 93.54 203.99 93.49 204.16 93.37C204.65 93.03 205.25 92.84 205.94 92.84C206.65 92.84 207.34 93.21 207.34 93.97C207.34 94.98 206.30 95.93 203.06 98.32C202.82 98.50 202.67 98.80 202.67 99.10C202.67 99.62 203.09 100 203.54 100L208.56 100C208.99 100 209.36 99.64 209.36 99.17ZM217.56 95.67C217.56 93.44 216.44 91.20 213.97 91.20C211.49 91.20 210.38 93.44 210.38 95.67C210.38 97.91 211.49 100.16 213.97 100.16C216.44 100.16 217.56 97.91 217.56 95.67ZM215.67 95.67C215.67 97.27 215.21 98.52 213.97 98.52C212.72 98.52 212.25 97.27 212.25 95.67C212.25 94.07 212.72 92.84 213.97 92.84C215.21 92.84 215.67 94.07 215.67 95.67Z" fill="#9aa7b4" /></g><g aria-label="Deletions: 12,806,607"><circle cx="22" cy="118" r="4" fill="#00a5fe" /><path d="M42.54 117.67C42.54 115.17 40.76 113.33 38.06 113.33L35.82 113.33C35.35 113.33 34.98 113.71 34.98 114.17L34.98 121.16C34.98 121.62 35.35 122 35.82 122L38.06 122C40.76 122 42.54 120.18 42.54 117.67ZM41.23 117.67C41.23 119.43 40.06 120.86 38.06 120.86L36.26 120.86L36.26 114.47L38.06 114.47C40.11 114.47 41.23 115.89 41.23 117.67ZM49.90 118.65C49.90 118.40 49.83 118.13 49.78 117.92C49.42 116.51 48.38 115.56 46.86 115.56C45.04 115.56 43.72 117.03 43.72 118.85C43.72 120.83 45.09 122.16 46.96 122.16C47.88 122.16 49.50 121.67 49.50 120.97C49.50 120.53 49.05 120.43 48.77 120.57C48.31 120.91 47.61 121.22 47.08 121.22C45.80 121.22 45.02 120.35 44.93 119.27L49.30 119.27C49.63 119.27 49.90 118.96 49.90 118.65ZM44.93 118.41C44.98 117.54 45.60 116.50 46.84 116.50C48.18 116.50 48.76 117.57 48.78 118.41ZM52.54 113.81C52.54 113.51 52.28 113.25 51.98 113.25C51.64 113.25 51.38 113.51 51.38 113.81L51.38 121.51C51.38 121.82 51.64 122.08 51.95 122.08C52.28 122.08 52.54 121.82 52.54 121.51ZM60.21 118.65C60.21 118.40 60.14 118.13 60.09 117.92C59.73 116.51 58.69 115.56 57.17 115.56C55.35 115.56 54.03 117.03 54.03 118.85C54.03 120.83 55.40 122.16 57.27 122.16C58.19 122.16 59.81 121.67 59.81 120.97C59.81 120.53 59.36 120.43 59.08 120.57C58.62 120.91 57.92 121.22 57.39 121.22C56.11 121.22 55.33 120.35 55.24 119.27L59.61 119.27C59.94 119.27 60.21 118.96 60.21 118.65ZM55.24 118.41C55.29 117.54 55.91 116.50 57.15 116.50C58.49 116.50 59.06 117.57 59.09 118.41ZM64.62 121.55C64.62 121.27 64.41 121.06 64.12 121.06C63.99 121.06 63.84 121.13 63.69 121.13C63.32 121.13 63.08 120.83 63.08 120.35L63.08 116.73L63.94 116.73C64.21 116.73 64.43 116.51 64.43 116.24C64.43 115.94 64.21 115.72 63.94 115.72L63.08 115.72L63.08 114.49C63.08 114.19 62.82 113.93 62.51 113.93C62.17 113.93 61.91 114.19 61.91 114.49L61.91 115.72L61.30 115.72C61.01 115.72 60.79 115.94 60.79 116.22C60.79 116.51 61.01 116.73 61.30 116.73L61.91 116.73L61.91 120.62C61.91 121.61 62.43 122.16 63.42 122.16C64.11 122.16 64.62 121.96 64.62 121.55ZM66.24 113.39C65.84 113.39 65.50 113.73 65.50 114.15C65.50 114.55 65.84 114.89 66.24 114.89C66.66 114.89 66.98 114.55 66.98 114.15C66.98 113.73 66.66 113.39 66.24 113.39ZM66.83 116.20C66.83 115.90 66.56 115.64 66.27 115.64C65.93 115.64 65.67 115.90 65.67 116.20L65.67 121.51C65.67 121.82 65.93 122.08 66.24 122.08C66.56 122.08 66.83 121.82 66.83 121.51ZM74.65 118.85C74.65 117.05 73.44 115.56 71.48 115.56C69.53 115.56 68.32 117.05 68.32 118.85C68.32 120.66 69.53 122.16 71.48 122.16C73.44 122.16 74.65 120.66 74.65 118.85ZM73.44 118.85C73.44 120.06 72.74 121.13 71.48 121.13C70.23 121.13 69.52 120.06 69.52 118.85C69.52 117.66 70.23 116.59 71.48 116.59C72.74 116.59 73.44 117.66 73.44 118.85ZM81.54 117.97C81.54 116.64 80.58 115.56 79.25 115.56C78.16 115.56 77.60 116.10 77.30 116.61L77.30 116.20C77.30 115.90 77.04 115.64 76.74 115.64C76.41 115.64 76.15 115.90 76.15 116.20L76.15 121.51C76.15 121.82 76.41 122.08 76.72 122.08C77.04 122.08 77.30 121.82 77.30 121.51L77.30 118.49C77.30 117.42 77.88 116.59 78.88 116.59C79.81 116.59 80.38 117.32 80.38 118.36L80.38 121.51C80.38 121.82 80.64 122.08 80.96 122.08C81.28 122.08 81.54 121.82 81.54 121.51ZM88.01 120.10C87.90 117.89 84.30 118.50 84.17 117.37C84.11 116.86 84.66 116.49 85.45 116.49C86.05 116.49 86.61 116.68 87.01 116.97C87.09 117.03 87.18 117.06 87.29 117.06C87.52 117.06 87.74 116.86 87.74 116.61C87.74 116.50 87.70 116.40 87.62 116.32C87.13 115.84 86.34 115.56 85.44 115.56C83.91 115.56 82.98 116.29 83.05 117.41C83.17 119.52 86.75 118.87 86.88 120.26C86.94 120.83 86.42 121.23 85.52 121.23C84.87 121.23 84.22 120.97 83.75 120.64C83.66 120.57 83.57 120.54 83.45 120.54C83.18 120.54 82.94 120.75 82.94 121.03C82.94 121.16 83.00 121.26 83.09 121.34C83.66 121.91 84.61 122.16 85.47 122.16C87.13 122.16 88.08 121.30 88.01 120.10Z" fill="#e6edf3" /><path d="M156.07 114.32C156.07 113.73 155.57 113.26 154.99 113.26C154.69 113.26 154.40 113.38 154.21 113.58L152.21 115.60C152.05 115.76 151.97 115.95 151.97 116.15C151.97 116.58 152.34 116.92 152.74 116.92C152.92 116.92 153.10 116.85 153.25 116.71L154.22 115.71L154.22 121.17C154.22 121.66 154.64 122.08 155.13 122.08C155.65 122.08 156.07 121.66 156.07 121.17ZM164.14 121.17C164.14 120.74 163.78 120.38 163.35 120.38L160.53 120.38C162.78 118.74 164.00 117.45 164.00 115.97C164.00 114.24 162.53 113.20 160.68 113.20C159.59 113.20 158.13 113.67 157.72 114.33C157.64 114.45 157.60 114.58 157.60 114.71C157.60 115.17 157.98 115.54 158.41 115.54C158.60 115.54 158.77 115.49 158.94 115.37C159.44 115.03 160.03 114.84 160.72 114.84C161.44 114.84 162.13 115.21 162.13 115.97C162.13 116.98 161.09 117.93 157.85 120.32C157.60 120.50 157.46 120.80 157.46 121.10C157.46 121.62 157.88 122 158.33 122L163.35 122C163.78 122 164.14 121.64 164.14 121.17ZM167.52 121.36C167.52 120.52 166.96 120.04 166.35 120.04C165.81 120.04 165.34 120.50 165.34 121.08C165.34 121.64 165.73 122.01 166.22 122.01C166.31 122.01 166.43 121.99 166.47 121.97C166.39 122.31 166.10 122.72 165.77 122.99C165.68 123.07 165.64 123.17 165.64 123.27C165.64 123.53 165.91 123.69 166.13 123.69C166.26 123.69 166.38 123.65 166.47 123.56C167.12 122.97 167.52 122.19 167.52 121.36ZM175.48 119.62C175.48 118.44 174.78 117.76 174.25 117.53C174.70 117.32 175.33 116.83 175.33 115.49C175.33 113.99 173.72 113.20 171.99 113.20C170.25 113.20 168.65 113.99 168.65 115.49C168.65 116.83 169.28 117.32 169.72 117.53C169.20 117.76 168.51 118.44 168.51 119.62C168.51 121.25 170.17 122.16 171.99 122.16C173.81 122.16 175.48 121.23 175.48 119.62ZM173.45 115.77C173.45 116.42 172.79 116.80 171.99 116.80C171.20 116.80 170.52 116.42 170.52 115.77C170.52 115.15 171.13 114.78 171.99 114.78C172.84 114.78 173.45 115.15 173.45 115.77ZM173.60 119.52C173.60 120.15 172.88 120.57 171.99 120.57C171.08 120.57 170.38 120.15 170.38 119.52C170.38 118.79 171.19 118.36 171.99 118.36C172.79 118.36 173.60 118.79 173.60 119.52ZM183.55 117.67C183.55 115.44 182.43 113.20 179.96 113.20C177.48 113.20 176.37 115.44 176.37 117.67C176.37 119.91 177.48 122.16 179.96 122.16C182.43 122.16 183.55 119.91 183.55 117.67ZM181.67 117.67C181.67 119.27 181.20 120.52 179.96 120.52C178.71 120.52 178.25 119.27 178.25 117.67C178.25 116.07 178.71 114.84 179.96 114.84C181.20 114.84 181.67 116.07 181.67 117.67ZM191.49 119.18C191.49 117.33 190.10 116.36 188.54 116.36C187.46 116.36 186.66 116.89 186.32 117.48C186.31 117.41 186.31 117.36 186.31 117.29C186.31 115.92 187.20 114.84 188.48 114.84C188.92 114.84 189.28 114.91 189.61 115.08C189.73 115.15 189.86 115.17 189.99 115.17C190.39 115.17 190.83 114.86 190.83 114.37C190.83 114.24 190.79 114.12 190.74 114.02C190.41 113.45 189.32 113.20 188.48 113.20C185.92 113.20 184.43 115.06 184.43 117.68C184.43 120.13 185.54 122.16 188.18 122.16C190.15 122.16 191.49 120.87 191.49 119.18ZM189.62 119.24C189.62 119.89 189.14 120.52 188.14 120.52C187.32 120.52 186.71 119.96 186.71 119.15C186.71 118.37 187.33 117.81 188.14 117.81C188.97 117.81 189.62 118.37 189.62 119.24ZM194.69 121.36C194.69 120.52 194.13 120.04 193.52 120.04C192.98 120.04 192.51 120.50 192.51 121.08C192.51 121.64 192.90 122.01 193.39 122.01C193.48 122.01 193.60 121.99 193.64 121.97C193.56 122.31 193.27 122.72 192.94 122.99C192.85 123.07 192.81 123.17 192.81 123.27C192.81 123.53 193.08 123.69 193.30 123.69C193.43 123.69 193.55 123.65 193.64 123.56C194.29 122.97 194.69 122.19 194.69 121.36ZM202.45 119.18C202.45 117.33 201.06 116.36 199.50 116.36C198.42 116.36 197.62 116.89 197.28 117.48C197.27 117.41 197.27 117.36 197.27 117.29C197.27 115.92 198.16 114.84 199.44 114.84C199.88 114.84 200.24 114.91 200.57 115.08C200.68 115.15 200.81 115.17 200.94 115.17C201.35 115.17 201.79 114.86 201.79 114.37C201.79 114.24 201.75 114.12 201.70 114.02C201.37 113.45 200.28 113.20 199.44 113.20C196.88 113.20 195.39 115.06 195.39 117.68C195.39 120.13 196.50 122.16 199.14 122.16C201.11 122.16 202.45 120.87 202.45 119.18ZM200.58 119.24C200.58 119.89 200.10 120.52 199.10 120.52C198.28 120.52 197.67 119.96 197.67 119.15C197.67 118.37 198.29 117.81 199.10 117.81C199.93 117.81 200.58 118.37 200.58 119.24ZM210.47 117.67C210.47 115.44 209.36 113.20 206.89 113.20C204.40 113.20 203.30 115.44 203.30 117.67C203.30 119.91 204.40 122.16 206.89 122.16C209.36 122.16 210.47 119.91 210.47 117.67ZM208.59 117.67C208.59 119.27 208.12 120.52 206.89 120.52C205.64 120.52 205.17 119.27 205.17 117.67C205.17 116.07 205.64 114.84 206.89 114.84C208.12 114.84 208.59 116.07 208.59 117.67ZM217.82 114.27C217.82 113.72 217.38 113.33 216.92 113.33L211.96 113.33C211.51 113.33 211.15 113.69 211.15 114.12C211.15 114.59 211.51 114.95 211.96 114.95L215.60 114.95L213.01 120.82C212.96 120.93 212.93 121.05 212.93 121.17C212.93 121.64 213.31 122.08 213.85 122.08C214.23 122.08 214.58 121.86 214.72 121.52L217.74 114.63C217.79 114.53 217.82 114.39 217.82 114.27Z" fill="#9aa7b4" /></g><g aria-label="Changed Files: 495,593"><circle cx="22" cy="140" r="4" fill="#673bd6" /><path d="M39.11 135.19C36.59 135.19 34.60 137.01 34.60 139.67C34.60 142.34 36.59 144.16 39.11 144.16C40.46 144.16 41.40 143.60 42.07 142.87C42.18 142.76 42.23 142.62 42.23 142.47C42.23 142.15 41.97 141.87 41.63 141.87C41.46 141.87 41.28 141.95 41.18 142.08C40.64 142.67 39.88 143.01 39.11 143.01C37.29 143.01 35.94 141.61 35.94 139.67C35.94 137.72 37.29 136.33 39.11 136.33C39.86 136.33 40.67 136.69 41.18 137.28C41.28 137.42 41.46 137.49 41.62 137.49C41.96 137.49 42.23 137.21 42.23 136.89C42.23 136.73 42.18 136.59 42.07 136.47C41.41 135.73 40.46 135.19 39.11 135.19ZM49.17 139.94C49.17 138.62 48.22 137.56 46.90 137.56C45.79 137.56 45.22 138.10 44.92 138.60L44.92 135.81C44.92 135.51 44.66 135.25 44.36 135.25C44.02 135.25 43.76 135.51 43.76 135.81L43.76 143.51C43.76 143.82 44.02 144.08 44.34 144.08C44.66 144.08 44.92 143.82 44.92 143.51L44.92 140.56C44.92 139.38 45.54 138.59 46.53 138.59C47.47 138.59 48.01 139.29 48.01 140.33L48.01 143.51C48.01 143.82 48.27 144.08 48.59 144.08C48.91 144.08 49.17 143.82 49.17 143.51ZM56.09 139.75C56.09 138.15 54.92 137.56 53.56 137.56C52.72 137.56 51.77 137.84 51.17 138.44C51.09 138.53 51.06 138.63 51.06 138.74C51.06 139.01 51.30 139.19 51.54 139.19C51.63 139.19 51.73 139.15 51.82 139.09C52.29 138.72 52.81 138.54 53.40 138.54C54.28 138.54 54.93 139.01 54.93 139.80L54.93 140.15L53.12 140.15C51.82 140.15 50.68 140.66 50.68 142.08C50.68 143.45 51.82 144.16 52.86 144.16C53.84 144.16 54.42 143.86 54.93 143.30L54.93 143.51C54.93 143.88 55.23 144.08 55.46 144.08L55.50 144.08C55.83 144.08 56.09 143.82 56.09 143.51ZM54.93 140.96L54.93 141.84C54.93 142.58 54.09 143.34 53.17 143.34C52.33 143.34 51.85 142.83 51.85 142.10C51.85 141.35 52.45 140.96 53.44 140.96ZM63.34 139.97C63.34 138.64 62.38 137.56 61.05 137.56C59.96 137.56 59.40 138.10 59.10 138.60L59.10 138.20C59.10 137.90 58.84 137.64 58.54 137.64C58.21 137.64 57.95 137.90 57.95 138.20L57.95 143.51C57.95 143.82 58.21 144.08 58.52 144.08C58.84 144.08 59.10 143.82 59.10 143.51L59.10 140.49C59.10 139.42 59.67 138.59 60.68 138.59C61.61 138.59 62.18 139.32 62.18 140.36L62.18 143.51C62.18 143.82 62.44 144.08 62.76 144.08C63.08 144.08 63.34 143.82 63.34 143.51ZM70.84 138.20C70.84 137.90 70.58 137.64 70.28 137.64C69.95 137.64 69.69 137.90 69.69 138.20L69.69 138.63C69.18 137.96 68.45 137.56 67.62 137.56C65.99 137.56 64.84 138.79 64.84 140.81C64.84 142.86 66.01 144.05 67.62 144.05C68.48 144.05 69.22 143.60 69.69 142.96L69.69 143.79C69.69 145.13 68.72 145.60 67.75 145.60C67.06 145.60 66.51 145.46 66.03 145.05C65.94 144.99 65.85 144.96 65.73 144.96C65.47 144.96 65.24 145.18 65.24 145.46C65.24 145.59 65.29 145.70 65.37 145.78C65.98 146.37 66.86 146.55 67.75 146.55C69.28 146.55 70.84 145.91 70.84 143.75ZM69.69 140.83C69.69 142.12 68.84 143.03 67.80 143.03C66.63 143.03 66.03 142.10 66.03 140.81C66.03 139.50 66.63 138.59 67.80 138.59C68.84 138.59 69.69 139.49 69.69 140.78ZM78.51 140.65C78.51 140.40 78.45 140.13 78.40 139.92C78.03 138.51 76.99 137.56 75.47 137.56C73.65 137.56 72.34 139.03 72.34 140.85C72.34 142.83 73.70 144.16 75.57 144.16C76.50 144.16 78.11 143.68 78.11 142.97C78.11 142.53 77.67 142.43 77.38 142.57C76.93 142.91 76.22 143.22 75.69 143.22C74.42 143.22 73.64 142.35 73.55 141.27L77.91 141.27C78.24 141.27 78.51 140.96 78.51 140.65ZM73.55 140.41C73.60 139.54 74.21 138.50 75.46 138.50C76.80 138.50 77.37 139.57 77.39 140.41ZM85.64 135.81C85.64 135.51 85.38 135.25 85.08 135.25C84.74 135.25 84.48 135.51 84.48 135.81L84.48 138.63C83.97 137.96 83.36 137.56 82.41 137.56C80.77 137.56 79.62 138.85 79.62 140.87C79.62 142.92 80.79 144.16 82.41 144.16C83.39 144.16 84.00 143.73 84.48 143.10L84.48 143.51C84.48 143.82 84.74 144.08 85.05 144.08C85.38 144.08 85.64 143.82 85.64 143.51ZM84.48 140.91C84.48 142.21 83.83 143.13 82.71 143.13C81.54 143.13 80.81 142.18 80.81 140.87C80.81 139.55 81.54 138.59 82.71 138.59C83.83 138.59 84.48 139.54 84.48 140.83ZM96.76 135.91C96.76 135.58 96.52 135.33 96.20 135.33L91.73 135.33C91.27 135.33 90.89 135.71 90.89 136.17L90.89 143.44C90.89 143.79 91.17 144.08 91.52 144.08C91.89 144.08 92.17 143.79 92.17 143.44L92.17 140.15L96.11 140.15C96.43 140.15 96.67 139.89 96.67 139.59C96.67 139.25 96.43 139.01 96.11 139.01L92.17 139.01L92.17 136.47L96.20 136.47C96.52 136.47 96.76 136.21 96.76 135.91ZM98.65 135.39C98.25 135.39 97.91 135.73 97.91 136.15C97.91 136.55 98.25 136.89 98.65 136.89C99.06 136.89 99.39 136.55 99.39 136.15C99.39 135.73 99.06 135.39 98.65 135.39ZM99.23 138.20C99.23 137.90 98.97 137.64 98.67 137.64C98.34 137.64 98.08 137.90 98.08 138.20L98.08 143.51C98.08 143.82 98.34 144.08 98.65 144.08C98.97 144.08 99.23 143.82 99.23 143.51ZM102.26 135.81C102.26 135.51 102.00 135.25 101.70 135.25C101.37 135.25 101.11 135.51 101.11 135.81L101.11 143.51C101.11 143.82 101.37 144.08 101.68 144.08C102.00 144.08 102.26 143.82 102.26 143.51ZM109.93 140.65C109.93 140.40 109.87 140.13 109.82 139.92C109.45 138.51 108.41 137.56 106.89 137.56C105.07 137.56 103.76 139.03 103.76 140.85C103.76 142.83 105.12 144.16 106.99 144.16C107.92 144.16 109.53 143.68 109.53 142.97C109.53 142.53 109.09 142.43 108.80 142.57C108.35 142.91 107.64 143.22 107.11 143.22C105.84 143.22 105.06 142.35 104.97 141.27L109.33 141.27C109.66 141.27 109.93 140.96 109.93 140.65ZM104.97 140.41C105.02 139.54 105.63 138.50 106.88 138.50C108.22 138.50 108.79 139.57 108.81 140.41ZM116.02 142.10C115.90 139.89 112.30 140.50 112.17 139.37C112.12 138.87 112.66 138.49 113.46 138.49C114.05 138.49 114.61 138.68 115.02 138.97C115.09 139.03 115.18 139.06 115.29 139.06C115.52 139.06 115.74 138.87 115.74 138.60C115.74 138.50 115.70 138.40 115.63 138.32C115.13 137.84 114.34 137.56 113.44 137.56C111.91 137.56 110.99 138.29 111.05 139.41C111.17 141.52 114.76 140.87 114.89 142.26C114.94 142.83 114.42 143.23 113.52 143.23C112.87 143.23 112.22 142.97 111.75 142.63C111.66 142.57 111.57 142.54 111.45 142.54C111.18 142.54 110.95 142.75 110.95 143.03C110.95 143.16 111.00 143.26 111.09 143.34C111.66 143.91 112.61 144.16 113.47 144.16C115.13 144.16 116.08 143.30 116.02 142.10Z" fill="#e6edf3" /><path d="M175.18 141.40C175.18 140.94 174.81 140.58 174.38 140.58L173.98 140.58L173.98 136.29C173.98 135.49 173.20 135.12 172.41 135.25C171.85 135.25 171.29 135.55 170.99 136.02L168.09 140.59C167.98 140.78 167.92 140.98 167.92 141.19C167.92 141.78 168.35 142.21 168.87 142.21L172.14 142.21L172.14 143.17C172.14 143.66 172.55 144.08 173.05 144.08C173.57 144.08 173.98 143.66 173.98 143.17L173.98 142.21L174.38 142.21C174.81 142.21 175.18 141.84 175.18 141.40ZM169.80 140.58L172.14 136.97L172.14 140.58ZM175.81 138.16C175.81 140.01 177.21 140.98 178.77 140.98C179.84 140.98 180.65 140.45 180.99 139.87C181.00 139.93 181.00 139.98 181.00 140.05C181.00 141.43 180.10 142.50 178.83 142.50C178.39 142.50 178.02 142.43 177.70 142.26C177.58 142.19 177.45 142.17 177.32 142.17C176.92 142.17 176.48 142.48 176.48 142.97C176.48 143.10 176.52 143.22 176.57 143.32C176.89 143.90 177.99 144.14 178.83 144.14C181.39 144.14 182.87 142.28 182.87 139.66C182.87 137.21 181.77 135.19 179.13 135.19C177.15 135.19 175.81 136.47 175.81 138.16ZM177.69 138.10C177.69 137.45 178.17 136.82 179.17 136.82C179.99 136.82 180.60 137.38 180.60 138.19C180.60 138.97 179.97 139.53 179.17 139.53C178.34 139.53 177.69 138.97 177.69 138.10ZM190.78 141.15C190.78 139.40 189.46 138.34 188.00 138.34C187.20 138.34 186.50 138.66 186.08 139.07L186.08 136.95L189.48 136.95C189.91 136.95 190.27 136.59 190.27 136.15C190.27 135.69 189.91 135.33 189.48 135.33L185.28 135.33C184.71 135.33 184.24 135.80 184.24 136.37L184.24 139.70C184.24 140.20 184.60 140.58 185.17 140.58C185.43 140.58 185.68 140.50 185.89 140.36C186.36 140.05 186.81 139.94 187.35 139.94C188.33 139.94 188.91 140.46 188.91 141.23C188.91 141.93 188.32 142.52 187.29 142.52C186.67 142.52 186.07 142.35 185.56 142.04C185.41 141.95 185.24 141.89 185.08 141.89C184.63 141.89 184.20 142.25 184.20 142.73C184.20 142.86 184.24 142.99 184.30 143.10C184.71 143.78 186.18 144.16 187.31 144.16C189.40 144.16 190.78 143.00 190.78 141.15ZM194.03 143.36C194.03 142.52 193.47 142.04 192.86 142.04C192.31 142.04 191.84 142.50 191.84 143.08C191.84 143.64 192.23 144.01 192.73 144.01C192.82 144.01 192.94 143.99 192.97 143.97C192.90 144.31 192.61 144.72 192.27 144.99C192.18 145.07 192.14 145.17 192.14 145.27C192.14 145.53 192.42 145.69 192.64 145.69C192.77 145.69 192.88 145.65 192.97 145.56C193.62 144.97 194.03 144.19 194.03 143.36ZM202.01 141.15C202.01 139.40 200.70 138.34 199.23 138.34C198.43 138.34 197.73 138.66 197.32 139.07L197.32 136.95L200.71 136.95C201.14 136.95 201.50 136.59 201.50 136.15C201.50 135.69 201.14 135.33 200.71 135.33L196.51 135.33C195.94 135.33 195.47 135.80 195.47 136.37L195.47 139.70C195.47 140.20 195.83 140.58 196.41 140.58C196.67 140.58 196.91 140.50 197.12 140.36C197.59 140.05 198.04 139.94 198.58 139.94C199.57 139.94 200.14 140.46 200.14 141.23C200.14 141.93 199.55 142.52 198.53 142.52C197.90 142.52 197.30 142.35 196.80 142.04C196.64 141.95 196.47 141.89 196.32 141.89C195.86 141.89 195.43 142.25 195.43 142.73C195.43 142.86 195.47 142.99 195.54 143.10C195.94 143.78 197.41 144.16 198.54 144.16C200.63 144.16 202.01 143.00 202.01 141.15ZM202.85 138.16C202.85 140.01 204.25 140.98 205.81 140.98C206.88 140.98 207.69 140.45 208.03 139.87C208.04 139.93 208.04 139.98 208.04 140.05C208.04 141.43 207.14 142.50 205.87 142.50C205.43 142.50 205.06 142.43 204.74 142.26C204.62 142.19 204.49 142.17 204.36 142.17C203.96 142.17 203.52 142.48 203.52 142.97C203.52 143.10 203.56 143.22 203.61 143.32C203.93 143.90 205.03 144.14 205.87 144.14C208.43 144.14 209.91 142.28 209.91 139.66C209.91 137.21 208.81 135.19 206.17 135.19C204.19 135.19 202.85 136.47 202.85 138.16ZM204.73 138.10C204.73 137.45 205.21 136.82 206.21 136.82C207.03 136.82 207.64 137.38 207.64 138.19C207.64 138.97 207.01 139.53 206.21 139.53C205.38 139.53 204.73 138.97 204.73 138.10ZM217.43 141.63C217.53 140.07 216.48 139.53 216.48 139.53C216.48 139.53 217.44 139.03 217.34 137.55C217.23 136.11 216.09 135.20 214.06 135.20C212.86 135.20 211.93 135.55 211.21 136.12C211.03 136.26 210.94 136.47 210.94 136.68C210.94 137.14 211.34 137.46 211.75 137.46C211.90 137.46 212.06 137.42 212.19 137.33C212.70 137.01 213.27 136.84 213.87 136.84C214.78 136.84 215.48 137.04 215.48 137.73C215.48 138.45 215.05 138.79 214.18 138.79C213.55 138.79 213.28 139.14 213.28 139.59C213.28 140.05 213.55 140.41 214.23 140.41C215.11 140.41 215.62 140.72 215.62 141.41C215.62 142.06 215.04 142.52 213.98 142.52C213.38 142.52 212.70 142.31 212.12 141.97C211.98 141.88 211.82 141.84 211.67 141.84C211.24 141.84 210.82 142.19 210.82 142.66C210.82 142.79 210.86 142.91 210.93 143.01C211.33 143.69 212.80 144.16 214.05 144.16C216.13 144.16 217.32 143.26 217.43 141.63Z" fill="#9aa7b4" /></g><rect x="18" y="166" width="384" height="8" rx="4" fill="#21262d" /><rect x="18.00" y="166" width="262.53" height="8" rx="4" fill="#00d559" /><rect x="280.53" y="166" width="121.47" height="8" rx="4" fill="#00a5fe" /></svg>