<svg xmlns="http://www.w3.org/2000/svg" width="420" height="184" viewBox="0 0 420 184" role="img"><rect x="0.5" y="0.5" width="419" height="183" rx="10" fill="#161b22" stroke="#30363d" /><path d="M30.72 33.60C30.72 32.83 30.10 32.21 29.37 32.21L28.69 32.21L28.69 24.95C28.69 23.59 27.37 22.97 26.03 23.19C25.08 23.19 24.14 23.70 23.63 24.49L18.73 32.24C18.53 32.54 18.44 32.90 18.44 33.25C18.44 34.24 19.17 34.96 20.05 34.96L25.57 34.96L25.57 36.59C25.57 37.43 26.27 38.13 27.11 38.13C27.99 38.13 28.69 37.43 28.69 36.59L28.69 34.96L29.37 34.96C30.10 34.96 30.72 34.35 30.72 33.60ZM21.61 32.21L25.57 26.10L25.57 32.21ZM43.70 33.97C43.70 31.97 42.51 30.83 41.63 30.43C42.38 30.08 43.45 29.24 43.45 26.98C43.45 24.45 40.73 23.11 37.80 23.11C34.85 23.11 32.15 24.45 32.15 26.98C32.15 29.24 33.20 30.08 33.95 30.43C33.07 30.83 31.90 31.97 31.90 33.97C31.90 36.72 34.72 38.26 37.80 38.26C40.88 38.26 43.70 36.70 43.70 33.97ZM40.26 27.46C40.26 28.56 39.14 29.20 37.80 29.20C36.46 29.20 35.31 28.56 35.31 27.46C35.31 26.41 36.35 25.79 37.80 25.79C39.23 25.79 40.26 26.41 40.26 27.46ZM40.53 33.80C40.53 34.88 39.30 35.58 37.80 35.58C36.26 35.58 35.07 34.88 35.07 33.80C35.07 32.57 36.44 31.84 37.80 31.84C39.14 31.84 40.53 32.57 40.53 33.80ZM49.20 36.92C49.20 35.49 48.25 34.68 47.22 34.68C46.29 34.68 45.50 35.47 45.50 36.44C45.50 37.38 46.16 38.02 47.00 38.02C47.15 38.02 47.35 37.98 47.41 37.96C47.28 38.53 46.80 39.21 46.23 39.67C46.07 39.80 46.01 39.98 46.01 40.16C46.01 40.60 46.47 40.86 46.84 40.86C47.06 40.86 47.26 40.79 47.41 40.64C48.51 39.65 49.20 38.33 49.20 36.92ZM62.70 33.18C62.70 30.21 60.48 28.43 58.00 28.43C56.65 28.43 55.47 28.96 54.76 29.66L54.76 26.08L60.50 26.08C61.23 26.08 61.85 25.46 61.85 24.71C61.85 23.94 61.23 23.33 60.50 23.33L53.40 23.33C52.43 23.33 51.64 24.12 51.64 25.09L51.64 30.72C51.64 31.58 52.25 32.21 53.22 32.21C53.66 32.21 54.08 32.08 54.43 31.84C55.22 31.31 55.99 31.14 56.90 31.14C58.57 31.14 59.54 32.02 59.54 33.31C59.54 34.50 58.55 35.49 56.81 35.49C55.75 35.49 54.74 35.21 53.88 34.68C53.62 34.52 53.33 34.44 53.07 34.44C52.30 34.44 51.57 35.03 51.57 35.84C51.57 36.06 51.64 36.28 51.75 36.48C52.43 37.63 54.92 38.26 56.83 38.26C60.37 38.26 62.70 36.31 62.70 33.18ZM75.68 36.59C75.68 35.87 75.07 35.25 74.34 35.25L69.57 35.25C73.37 32.48 75.44 30.30 75.44 27.79C75.44 24.87 72.96 23.11 69.83 23.11C67.98 23.11 65.52 23.90 64.82 25.02C64.68 25.22 64.62 25.44 64.62 25.66C64.62 26.45 65.26 27.07 65.98 27.07C66.31 27.07 66.60 26.98 66.88 26.78C67.72 26.21 68.73 25.88 69.90 25.88C71.11 25.88 72.27 26.52 72.27 27.79C72.27 29.51 70.51 31.11 65.04 35.16C64.62 35.47 64.38 35.98 64.38 36.48C64.38 37.36 65.08 38 65.85 38L74.34 38C75.07 38 75.68 37.38 75.68 36.59ZM88.88 36.59C88.88 35.87 88.27 35.25 87.54 35.25L82.77 35.25C86.57 32.48 88.64 30.30 88.64 27.79C88.64 24.87 86.16 23.11 83.03 23.11C81.18 23.11 78.72 23.90 78.02 25.02C77.88 25.22 77.82 25.44 77.82 25.66C77.82 26.45 78.46 27.07 79.18 27.07C79.51 27.07 79.80 26.98 80.08 26.78C80.92 26.21 81.93 25.88 83.10 25.88C84.31 25.88 85.47 26.52 85.47 27.79C85.47 29.51 83.71 31.11 78.24 35.16C77.82 35.47 77.58 35.98 77.58 36.48C77.58 37.36 78.28 38 79.05 38L87.54 38C88.27 38 88.88 37.38 88.88 36.59ZM104.06 23.08C99.66 23.08 96.25 26.16 96.25 30.67C96.25 35.18 99.66 38.26 104.06 38.26C106.59 38.26 108.29 37.16 109.39 35.82C109.61 35.58 109.70 35.27 109.70 34.96C109.70 34.22 109.06 33.60 108.27 33.60C107.83 33.60 107.39 33.78 107.08 34.11C106.26 35.01 105.16 35.49 104.06 35.49C101.40 35.49 99.47 33.45 99.47 30.67C99.47 27.90 101.40 25.86 104.06 25.86C105.16 25.86 106.24 26.38 107.08 27.26C107.39 27.59 107.80 27.77 108.22 27.77C109.04 27.77 109.72 27.15 109.72 26.36C109.72 26.08 109.61 25.75 109.41 25.50C108.29 24.16 106.59 23.08 104.06 23.08ZM122.57 32.68C122.57 29.66 120.45 27.11 116.93 27.11C113.44 27.11 111.32 29.66 111.32 32.68C111.32 35.71 113.44 38.26 116.93 38.26C120.45 38.26 122.57 35.71 122.57 32.68ZM119.66 32.68C119.66 34.35 118.67 35.78 116.93 35.78C115.20 35.78 114.23 34.35 114.23 32.68C114.23 31.03 115.20 29.60 116.93 29.60C118.67 29.60 119.66 31.03 119.66 32.68ZM140.63 31.20C140.63 29.02 139.11 27.11 136.71 27.11C134.86 27.11 133.81 28.19 133.41 28.94C133.02 28.17 132.03 27.11 130.24 27.11C128.62 27.11 127.87 27.70 127.43 28.28L127.43 28.25C127.43 27.95 127.03 27.24 126.06 27.24C125.25 27.24 124.63 27.86 124.63 28.61L124.63 36.75C124.63 37.52 125.25 38.13 126.02 38.13C126.81 38.13 127.43 37.52 127.43 36.75L127.43 31.73C127.43 30.70 128.22 29.60 129.41 29.60C130.55 29.60 131.21 30.74 131.21 31.73L131.21 36.75C131.21 37.52 131.83 38.13 132.60 38.13C133.41 38.13 134.03 37.52 134.03 36.75L134.03 31.93C134.03 30.70 134.80 29.60 136.01 29.60C137.15 29.60 137.81 30.74 137.81 31.73L137.81 36.75C137.81 37.52 138.43 38.13 139.20 38.13C140.01 38.13 140.63 37.52 140.63 36.75ZM159.37 31.20C159.37 29.02 157.85 27.11 155.46 27.11C153.61 27.11 152.55 28.19 152.16 28.94C151.76 28.17 150.77 27.11 148.99 27.11C147.36 27.11 146.61 27.70 146.17 28.28L146.17 28.25C146.17 27.95 145.78 27.24 144.81 27.24C143.99 27.24 143.38 27.86 143.38 28.61L143.38 36.75C143.38 37.52 143.99 38.13 144.76 38.13C145.56 38.13 146.17 37.52 146.17 36.75L146.17 31.73C146.17 30.70 146.96 29.60 148.15 29.60C149.30 29.60 149.96 30.74 149.96 31.73L149.96 36.75C149.96 37.52 150.57 38.13 151.34 38.13C152.16 38.13 152.77 37.52 152.77 36.75L152.77 31.93C152.77 30.70 153.54 29.60 154.75 29.60C155.90 29.60 156.56 30.74 156.56 31.73L156.56 36.75C156.56 37.52 157.17 38.13 157.94 38.13C158.76 38.13 159.37 37.52 159.37 36.75ZM163.51 22.91C162.61 22.91 161.84 23.63 161.84 24.56C161.84 25.48 162.61 26.23 163.51 26.23C164.43 26.23 165.18 25.48 165.18 24.56C165.18 23.63 164.43 22.91 163.51 22.91ZM164.92 28.61C164.92 27.86 164.30 27.24 163.55 27.24C162.74 27.24 162.12 27.86 162.12 28.61L162.12 36.75C162.12 37.52 162.74 38.13 163.51 38.13C164.30 38.13 164.92 37.52 164.92 36.75ZM173.50 36.99C173.50 36.31 173.06 35.78 172.26 35.78L172.02 35.78C171.58 35.78 171.05 35.45 171.05 34.61L171.05 29.82L172.15 29.82C172.79 29.82 173.34 29.27 173.34 28.61C173.34 27.92 172.79 27.37 172.15 27.37L171.05 27.37L171.05 25.72C171.05 24.95 170.44 24.34 169.67 24.34C168.85 24.34 168.24 24.95 168.24 25.72L168.24 27.37L167.56 27.37C166.90 27.37 166.35 27.92 166.35 28.56C166.35 29.27 166.90 29.82 167.56 29.82L168.24 29.82L168.24 35.36C168.24 37.25 169.29 38.26 171.25 38.26C173.08 38.26 173.50 37.69 173.50 36.99ZM183.55 34.85C183.55 30.56 177.26 31.88 177.26 30.30C177.26 29.71 177.92 29.24 178.93 29.24C179.79 29.24 180.65 29.49 181.33 29.88C181.48 29.97 181.68 30.01 181.86 30.01C182.43 30.01 182.96 29.55 182.96 28.96C182.96 28.76 182.89 28.56 182.78 28.41C182.19 27.55 180.29 27.11 178.91 27.11C176.11 27.11 174.55 28.67 174.55 30.45C174.55 34.63 180.87 33.20 180.87 34.96C180.87 35.62 180.29 36.11 179.08 36.11C178.16 36.11 177.06 35.73 176.22 35.25C176.05 35.14 175.85 35.10 175.65 35.10C175.06 35.10 174.49 35.60 174.49 36.26C174.49 36.48 174.55 36.68 174.68 36.86C175.34 37.80 177.57 38.26 178.95 38.26C181.90 38.26 183.55 36.79 183.55 34.85Z" fill="#e6edf3" /><path d="M20.26 49.88C20.26 49.54 19.98 49.25 19.64 49.25C19.26 49.25 18.98 49.54 18.98 49.88L18.98 57.44C18.98 57.79 19.26 58.08 19.61 58.08C19.98 58.08 20.26 57.79 20.26 57.44ZM27.55 53.97C27.55 52.64 26.59 51.56 25.27 51.56C24.18 51.56 23.62 52.10 23.32 52.60L23.32 52.20C23.32 51.90 23.06 51.64 22.76 51.64C22.42 51.64 22.16 51.90 22.16 52.20L22.16 57.51C22.16 57.82 22.42 58.08 22.73 58.08C23.06 58.08 23.32 57.82 23.32 57.51L23.32 54.49C23.32 53.42 23.89 52.59 24.89 52.59C25.83 52.59 26.40 53.32 26.40 54.36L26.40 57.51C26.40 57.82 26.66 58.08 26.97 58.08C27.30 58.08 27.55 57.82 27.55 57.51ZM38.97 49.91C38.97 49.58 38.72 49.33 38.41 49.33L32.70 49.33C32.39 49.33 32.14 49.58 32.14 49.89C32.14 50.21 32.39 50.47 32.70 50.47L34.91 50.47L34.91 57.44C34.91 57.79 35.20 58.08 35.55 58.08C35.91 58.08 36.20 57.79 36.20 57.44L36.20 50.47L38.41 50.47C38.72 50.47 38.97 50.21 38.97 49.91ZM44.74 54.85C44.74 53.05 43.53 51.56 41.57 51.56C39.62 51.56 38.41 53.05 38.41 54.85C38.41 56.66 39.62 58.16 41.57 58.16C43.53 58.16 44.74 56.66 44.74 54.85ZM43.53 54.85C43.53 56.06 42.83 57.13 41.57 57.13C40.32 57.13 39.61 56.06 39.61 54.85C39.61 53.66 40.32 52.59 41.57 52.59C42.83 52.59 43.53 53.66 43.53 54.85ZM49.16 57.55C49.16 57.27 48.95 57.06 48.67 57.06C48.54 57.06 48.38 57.13 48.24 57.13C47.86 57.13 47.63 56.83 47.63 56.35L47.63 52.73L48.48 52.73C48.76 52.73 48.98 52.51 48.98 52.24C48.98 51.94 48.76 51.72 48.48 51.72L47.63 51.72L47.63 50.49C47.63 50.19 47.37 49.93 47.05 49.93C46.72 49.93 46.46 50.19 46.46 50.49L46.46 51.72L45.85 51.72C45.56 51.72 45.34 51.94 45.34 52.22C45.34 52.51 45.56 52.73 45.85 52.73L46.46 52.73L46.46 56.62C46.46 57.61 46.98 58.16 47.96 58.16C48.65 58.16 49.16 57.96 49.16 57.55ZM55.26 53.75C55.26 52.15 54.09 51.56 52.74 51.56C51.89 51.56 50.94 51.84 50.34 52.44C50.27 52.53 50.23 52.63 50.23 52.73C50.23 53.01 50.47 53.19 50.71 53.19C50.80 53.19 50.90 53.15 50.99 53.09C51.46 52.72 51.98 52.54 52.57 52.54C53.45 52.54 54.10 53.01 54.10 53.80L54.10 54.15L52.29 54.15C50.99 54.15 49.85 54.66 49.85 56.08C49.85 57.45 50.99 58.16 52.03 58.16C53.01 58.16 53.59 57.86 54.10 57.30L54.10 57.51C54.10 57.88 54.40 58.08 54.63 58.08L54.67 58.08C55.00 58.08 55.26 57.82 55.26 57.51ZM54.10 54.96L54.10 55.84C54.10 56.58 53.26 57.34 52.35 57.34C51.50 57.34 51.02 56.83 51.02 56.10C51.02 55.35 51.62 54.96 52.61 54.96ZM58.27 49.81C58.27 49.51 58.01 49.25 57.71 49.25C57.38 49.25 57.12 49.51 57.12 49.81L57.12 57.51C57.12 57.82 57.38 58.08 57.69 58.08C58.01 58.08 58.27 57.82 58.27 57.51Z" fill="#9aa7b4" /><line x1="18" y1="76" x2="48" y2="76" stroke="#9aa7b4" stroke-opacity="0.4" /><g aria-label="Additions: 34,723,504"><circle cx="22" cy="96" r="4" fill="#00d559" /><path d="M42.28 99.39C42.28 99.31 42.27 99.23 42.23 99.14L39.36 91.94C39.19 91.51 38.76 91.24 38.30 91.25C37.85 91.25 37.43 91.52 37.28 91.94L34.40 99.14C34.38 99.23 34.36 99.31 34.36 99.39C34.36 99.74 34.65 100.08 35.05 100.08C35.33 100.08 35.57 99.92 35.68 99.66L36.25 98.19L40.40 98.19L40.97 99.66C41.07 99.92 41.32 100.08 41.59 100.08C42.01 100.08 42.28 99.71 42.28 99.39ZM38.32 92.64L40.03 97.06L36.61 97.06ZM49.22 91.81C49.22 91.51 48.96 91.25 48.66 91.25C48.33 91.25 48.07 91.51 48.07 91.81L48.07 94.63C47.56 93.95 46.95 93.56 46.00 93.56C44.36 93.56 43.20 94.85 43.20 96.87C43.20 98.92 44.37 100.16 46.00 100.16C46.97 100.16 47.59 99.73 48.07 99.10L48.07 99.51C48.07 99.82 48.33 100.08 48.64 100.08C48.96 100.08 49.22 99.82 49.22 99.51ZM48.07 96.91C48.07 98.21 47.42 99.13 46.30 99.13C45.13 99.13 44.40 98.18 44.40 96.87C44.40 95.55 45.13 94.59 46.30 94.59C47.42 94.59 48.07 95.54 48.07 96.83ZM56.74 91.81C56.74 91.51 56.48 91.25 56.18 91.25C55.84 91.25 55.58 91.51 55.58 91.81L55.58 94.63C55.07 93.95 54.46 93.56 53.51 93.56C51.88 93.56 50.72 94.85 50.72 96.87C50.72 98.92 51.89 100.16 53.51 100.16C54.49 100.16 55.10 99.73 55.58 99.10L55.58 99.51C55.58 99.82 55.84 100.08 56.15 100.08C56.48 100.08 56.74 99.82 56.74 99.51ZM55.58 96.91C55.58 98.21 54.93 99.13 53.81 99.13C52.64 99.13 51.91 98.18 51.91 96.87C51.91 95.55 52.64 94.59 53.81 94.59C54.93 94.59 55.58 95.54 55.58 96.83ZM59.18 91.39C58.78 91.39 58.44 91.73 58.44 92.15C58.44 92.55 58.78 92.89 59.18 92.89C59.60 92.89 59.92 92.55 59.92 92.15C59.92 91.73 59.60 91.39 59.18 91.39ZM59.77 94.20C59.77 93.90 59.51 93.64 59.21 93.64C58.87 93.64 58.61 93.90 58.61 94.20L58.61 99.51C58.61 99.82 58.87 100.08 59.18 100.08C59.51 100.08 59.77 99.82 59.77 99.51ZM64.56 99.55C64.56 99.27 64.36 99.06 64.07 99.06C63.94 99.06 63.78 99.13 63.64 99.13C63.26 99.13 63.03 98.83 63.03 98.35L63.03 94.73L63.89 94.73C64.16 94.73 64.38 94.51 64.38 94.24C64.38 93.94 64.16 93.72 63.89 93.72L63.03 93.72L63.03 92.49C63.03 92.19 62.77 91.93 62.46 91.93C62.12 91.93 61.86 92.19 61.86 92.49L61.86 93.72L61.25 93.72C60.96 93.72 60.74 93.94 60.74 94.22C60.74 94.51 60.96 94.73 61.25 94.73L61.86 94.73L61.86 98.62C61.86 99.61 62.38 100.16 63.37 100.16C64.06 100.16 64.56 99.96 64.56 99.55ZM66.19 91.39C65.79 91.39 65.45 91.73 65.45 92.15C65.45 92.55 65.79 92.89 66.19 92.89C66.60 92.89 66.93 92.55 66.93 92.15C66.93 91.73 66.60 91.39 66.19 91.39ZM66.77 94.20C66.77 93.90 66.51 93.64 66.21 93.64C65.88 93.64 65.62 93.90 65.62 94.20L65.62 99.51C65.62 99.82 65.88 100.08 66.19 100.08C66.51 100.08 66.77 99.82 66.77 99.51ZM74.60 96.85C74.60 95.05 73.39 93.56 71.43 93.56C69.48 93.56 68.27 95.05 68.27 96.85C68.27 98.66 69.48 100.16 71.43 100.16C73.39 100.16 74.60 98.66 74.60 96.85ZM73.39 96.85C73.39 98.06 72.69 99.13 71.43 99.13C70.18 99.13 69.46 98.06 69.46 96.85C69.46 95.66 70.18 94.59 71.43 94.59C72.69 94.59 73.39 95.66 73.39 96.85ZM81.49 95.97C81.49 94.64 80.53 93.56 79.20 93.56C78.11 93.56 77.55 94.10 77.25 94.61L77.25 94.20C77.25 93.90 76.99 93.64 76.69 93.64C76.35 93.64 76.09 93.90 76.09 94.20L76.09 99.51C76.09 99.82 76.35 100.08 76.67 100.08C76.99 100.08 77.25 99.82 77.25 99.51L77.25 96.49C77.25 95.42 77.82 94.59 78.82 94.59C79.76 94.59 80.33 95.32 80.33 96.36L80.33 99.51C80.33 99.82 80.59 100.08 80.90 100.08C81.23 100.08 81.49 99.82 81.49 99.51ZM87.96 98.10C87.85 95.89 84.24 96.50 84.11 95.37C84.06 94.86 84.61 94.49 85.40 94.49C86 94.49 86.56 94.68 86.96 94.97C87.04 95.03 87.13 95.06 87.23 95.06C87.47 95.06 87.69 94.86 87.69 94.61C87.69 94.50 87.65 94.40 87.57 94.32C87.08 93.84 86.29 93.56 85.39 93.56C83.86 93.56 82.93 94.29 83.00 95.41C83.11 97.52 86.70 96.87 86.83 98.26C86.88 98.83 86.36 99.23 85.47 99.23C84.82 99.23 84.17 98.97 83.70 98.64C83.61 98.57 83.52 98.54 83.40 98.54C83.13 98.54 82.89 98.75 82.89 99.03C82.89 99.16 82.94 99.26 83.04 99.34C83.61 99.91 84.56 100.16 85.41 100.16C87.08 100.16 88.03 99.30 87.96 98.10Z" fill="#e6edf3" /><path d="M157.72 97.63C157.82 96.07 156.77 95.53 156.77 95.53C156.77 95.53 157.73 95.03 157.63 93.55C157.52 92.11 156.38 91.20 154.35 91.20C153.16 91.20 152.22 91.55 151.50 92.12C151.32 92.27 151.23 92.47 151.23 92.68C151.23 93.14 151.63 93.46 152.04 93.46C152.19 93.46 152.35 93.42 152.48 93.33C152.99 93.01 153.56 92.84 154.16 92.84C155.07 92.84 155.77 93.05 155.77 93.73C155.77 94.45 155.34 94.79 154.47 94.79C153.84 94.79 153.57 95.14 153.57 95.59C153.57 96.05 153.84 96.41 154.52 96.41C155.40 96.41 155.91 96.72 155.91 97.41C155.91 98.06 155.33 98.52 154.27 98.52C153.68 98.52 152.99 98.31 152.41 97.97C152.27 97.88 152.12 97.84 151.96 97.84C151.53 97.84 151.11 98.19 151.11 98.66C151.11 98.79 151.15 98.91 151.22 99.01C151.62 99.69 153.09 100.16 154.34 100.16C156.42 100.16 157.61 99.26 157.72 97.63ZM165.80 97.40C165.80 96.94 165.44 96.58 165.01 96.58L164.61 96.58L164.61 92.29C164.61 91.48 163.83 91.12 163.04 91.25C162.48 91.25 161.92 91.55 161.62 92.02L158.72 96.59C158.60 96.78 158.55 96.98 158.55 97.19C158.55 97.78 158.98 98.21 159.50 98.21L162.76 98.21L162.76 99.17C162.76 99.66 163.18 100.08 163.67 100.08C164.19 100.08 164.61 99.66 164.61 99.17L164.61 98.21L165.01 98.21C165.44 98.21 165.80 97.84 165.80 97.40ZM160.42 96.58L162.76 92.97L162.76 96.58ZM168.85 99.36C168.85 98.52 168.29 98.04 167.68 98.04C167.13 98.04 166.66 98.50 166.66 99.08C166.66 99.64 167.05 100.01 167.55 100.01C167.64 100.01 167.75 99.99 167.79 99.97C167.72 100.31 167.43 100.72 167.09 100.99C167.00 101.07 166.96 101.17 166.96 101.27C166.96 101.53 167.23 101.69 167.46 101.69C167.59 101.69 167.70 101.65 167.79 101.56C168.44 100.97 168.85 100.19 168.85 99.36ZM175.33 92.27C175.33 91.72 174.89 91.33 174.44 91.33L169.47 91.33C169.03 91.33 168.66 91.69 168.66 92.12C168.66 92.59 169.03 92.95 169.47 92.95L173.11 92.95L170.52 98.82C170.47 98.93 170.45 99.05 170.45 99.17C170.45 99.64 170.82 100.08 171.37 100.08C171.75 100.08 172.10 99.86 172.24 99.52L175.26 92.63C175.31 92.53 175.33 92.39 175.33 92.27ZM182.73 99.17C182.73 98.74 182.37 98.38 181.94 98.38L179.12 98.38C181.37 96.74 182.59 95.45 182.59 93.97C182.59 92.24 181.12 91.20 179.27 91.20C178.18 91.20 176.72 91.67 176.31 92.33C176.23 92.45 176.19 92.58 176.19 92.71C176.19 93.17 176.57 93.54 177.00 93.54C177.19 93.54 177.36 93.49 177.53 93.37C178.02 93.03 178.62 92.84 179.31 92.84C180.03 92.84 180.72 93.21 180.72 93.97C180.72 94.98 179.68 95.93 176.44 98.32C176.19 98.50 176.05 98.80 176.05 99.10C176.05 99.62 176.46 100 176.92 100L181.94 100C182.37 100 182.73 99.64 182.73 99.17ZM190.37 97.63C190.48 96.07 189.43 95.53 189.43 95.53C189.43 95.53 190.39 95.03 190.28 93.55C190.18 92.11 189.04 91.20 187.01 91.20C185.81 91.20 184.88 91.55 184.16 92.12C183.98 92.27 183.89 92.47 183.89 92.68C183.89 93.14 184.29 93.46 184.69 93.46C184.85 93.46 185.01 93.42 185.14 93.33C185.64 93.01 186.21 92.84 186.81 92.84C187.72 92.84 188.42 93.05 188.42 93.73C188.42 94.45 188.00 94.79 187.12 94.79C186.50 94.79 186.23 95.14 186.23 95.59C186.23 96.05 186.50 96.41 187.18 96.41C188.06 96.41 188.57 96.72 188.57 97.41C188.57 98.06 187.98 98.52 186.93 98.52C186.33 98.52 185.64 98.31 185.07 97.97C184.93 97.88 184.77 97.84 184.62 97.84C184.19 97.84 183.77 98.19 183.77 98.66C183.77 98.79 183.81 98.91 183.87 99.01C184.28 99.69 185.75 100.16 186.99 100.16C189.07 100.16 190.27 99.26 190.37 97.63ZM193.74 99.36C193.74 98.52 193.18 98.04 192.57 98.04C192.03 98.04 191.56 98.50 191.56 99.08C191.56 99.64 191.95 100.01 192.44 100.01C192.53 100.01 192.65 99.99 192.69 99.97C192.61 100.31 192.32 100.72 191.99 100.99C191.90 101.07 191.86 101.17 191.86 101.27C191.86 101.53 192.13 101.69 192.35 101.69C192.48 101.69 192.60 101.65 192.69 101.56C193.34 100.97 193.74 100.19 193.74 99.36ZM201.72 97.15C201.72 95.40 200.41 94.34 198.94 94.34C198.15 94.34 197.45 94.66 197.03 95.07L197.03 92.95L200.42 92.95C200.85 92.95 201.22 92.59 201.22 92.15C201.22 91.69 200.85 91.33 200.42 91.33L196.22 91.33C195.65 91.33 195.18 91.80 195.18 92.37L195.18 95.70C195.18 96.20 195.55 96.58 196.12 96.58C196.38 96.58 196.63 96.50 196.84 96.36C197.30 96.05 197.76 95.94 198.29 95.94C199.28 95.94 199.85 96.46 199.85 97.23C199.85 97.93 199.27 98.52 198.24 98.52C197.62 98.52 197.02 98.35 196.51 98.04C196.35 97.95 196.19 97.89 196.03 97.89C195.57 97.89 195.15 98.25 195.15 98.73C195.15 98.86 195.18 98.99 195.25 99.10C195.65 99.78 197.12 100.16 198.25 100.16C200.35 100.16 201.72 99.00 201.72 97.15ZM209.80 95.67C209.80 93.44 208.68 91.20 206.21 91.20C203.73 91.20 202.62 93.44 202.62 95.67C202.62 97.91 203.73 100.16 206.21 100.16C208.68 100.16 209.80 97.91 209.80 95.67ZM207.91 95.67C207.91 97.27 207.44 98.52 206.21 98.52C204.96 98.52 204.49 97.27 204.49 95.67C204.49 94.07 204.96 92.84 206.21 92.84C207.44 92.84 207.91 94.07 207.91 95.67ZM217.75 97.40C217.75 96.94 217.39 96.58 216.96 96.58L216.56 96.58L216.56 92.29C216.56 91.48 215.78 91.12 214.98 91.25C214.42 91.25 213.87 91.55 213.57 92.02L210.67 96.59C210.55 96.78 210.50 96.98 210.50 97.19C210.50 97.78 210.93 98.21 211.45 98.21L214.71 98.21L214.71 99.17C214.71 99.66 215.13 100.08 215.62 100.08C216.14 100.08 216.56 99.66 216.56 99.17L216.56 98.21L216.96 98.21C217.39 98.21 217.75 97.84 217.75 97.40ZM212.37 96.58L214.71 92.97L214.71 96.58Z" fill="#9aa7b4" /></g><g aria-label="Deletions: 17,242,892"><circle cx="22" cy="118" r="4" fill="#00a5fe" /><path d="M42.54 117.67C42.54 115.17 40.76 113.33 38.06 113.33L35.82 113.33C35.35 113.33 34.98 113.71 34.98 114.17L34.98 121.16C34.98 121.62 35.35 122 35.82 122L38.06 122C40.76 122 42.54 120.18 42.54 117.67ZM41.23 117.67C41.23 119.43 40.06 120.86 38.06 120.86L36.26 120.86L36.26 114.47L38.06 114.47C40.11 114.47 41.23 115.89 41.23 117.67ZM49.90 118.65C49.90 118.40 49.83 118.13 49.78 117.92C49.42 116.51 48.38 115.56 46.86 115.56C45.04 115.56 43.72 117.03 43.72 118.85C43.72 120.83 45.09 122.16 46.96 122.16C47.88 122.16 49.50 121.67 49.50 120.97C49.50 120.53 49.05 120.43 48.77 120.57C48.31 120.91 47.61 121.22 47.08 121.22C45.80 121.22 45.02 120.35 44.93 119.27L49.30 119.27C49.63 119.27 49.90 118.96 49.90 118.65ZM44.93 118.41C44.98 117.54 45.60 116.50 46.84 116.50C48.18 116.50 48.76 117.57 48.78 118.41ZM52.54 113.81C52.54 113.51 52.28 113.25 51.98 113.25C51.64 113.25 51.38 113.51 51.38 113.81L51.38 121.51C51.38 121.82 51.64 122.08 51.95 122.08C52.28 122.08 52.54 121.82 52.54 121.51ZM60.21 118.65C60.21 118.40 60.14 118.13 60.09 117.92C59.73 116.51 58.69 115.56 57.17 115.56C55.35 115.56 54.03 117.03 54.03 118.85C54.03 120.83 55.40 122.16 57.27 122.16C58.19 122.16 59.81 121.67 59.81 120.97C59.81 120.53 59.36 120.43 59.08 120.57C58.62 120.91 57.92 121.22 57.39 121.22C56.11 121.22 55.33 120.35 55.24 119.27L59.61 119.27C59.94 119.27 60.21 118.96 60.21 118.65ZM55.24 118.41C55.29 117.54 55.91 116.50 57.15 116.50C58.49 116.50 59.06 117.57 59.09 118.41ZM64.62 121.55C64.62 121.27 64.41 121.06 64.12 121.06C63.99 121.06 63.84 121.13 63.69 121.13C63.32 121.13 63.08 120.83 63.08 120.35L63.08 116.73L63.94 116.73C64.21 116.73 64.43 116.51 64.43 116.24C64.43 115.94 64.21 115.72 63.94 115.72L63.08 115.72L63.08 114.49C63.08 114.19 62.82 113.93 62.51 113.93C62.17 113.93 61.91 114.19 61.91 114.49L61.91 115.72L61.30 115.72C61.01 115.72 60.79 115.94 60.79 116.22C60.79 116.51 61.01 116.73 61.30 116.73L61.91 116.73L61.91 120.62C61.91 121.61 62.43 122.16 63.42 122.16C64.11 122.16 64.62 121.96 64.62 121.55ZM66.24 113.39C65.84 113.39 65.50 113.73 65.50 114.15C65.50 114.55 65.84 114.89 66.24 114.89C66.66 114.89 66.98 114.55 66.98 114.15C66.98 113.73 66.66 113.39 66.24 113.39ZM66.83 116.20C66.83 115.90 66.56 115.64 66.27 115.64C65.93 115.64 65.67 115.90 65.67 116.20L65.67 121.51C65.67 121.82 65.93 122.08 66.24 122.08C66.56 122.08 66.83 121.82 66.83 121.51ZM74.65 118.85C74.65 117.05 73.44 115.56 71.48 115.56C69.53 115.56 68.32 117.05 68.32 118.85C68.32 120.66 69.53 122.16 71.48 122.16C73.44 122.16 74.65 120.66 74.65 118.85ZM73.44 118.85C73.44 120.06 72.74 121.13 71.48 121.13C70.23 121.13 69.52 120.06 69.52 118.85C69.52 117.66 70.23 116.59 71.48 116.59C72.74 116.59 73.44 117.66 73.44 118.85ZM81.54 117.97C81.54 116.64 80.58 115.56 79.25 115.56C78.16 115.56 77.60 116.10 77.30 116.61L77.30 116.20C77.30 115.90 77.04 115.64 76.74 115.64C76.41 115.64 76.15 115.90 76.15 116.20L76.15 121.51C76.15 121.82 76.41 122.08 76.72 122.08C77.04 122.08 77.30 121.82 77.30 121.51L77.30 118.49C77.30 117.42 77.88 116.59 78.88 116.59C79.81 116.59 80.38 117.32 80.38 118.36L80.38 121.51C80.38 121.82 80.64 122.08 80.96 122.08C81.28 122.08 81.54 121.82 81.54 121.51ZM88.01 120.10C87.90 117.89 84.30 118.50 84.17 117.37C84.11 116.86 84.66 116.49 85.45 116.49C86.05 116.49 86.61 116.68 87.01 116.97C87.09 117.03 87.18 117.06 87.29 117.06C87.52 117.06 87.74 116.86 87.74 116.61C87.74 116.50 87.70 116.40 87.62 116.32C87.13 115.84 86.34 115.56 85.44 115.56C83.91 115.56 82.98 116.29 83.05 117.41C83.17 119.52 86.75 118.87 86.88 120.26C86.94 120.83 86.42 121.23 85.52 121.23C84.87 121.23 84.22 120.97 83.75 120.64C83.66 120.57 83.57 120.54 83.45 120.54C83.18 120.54 82.94 120.75 82.94 121.03C82.94 121.16 83.00 121.26 83.09 121.34C83.66 121.91 84.61 122.16 85.47 122.16C87.13 122.16 88.08 121.30 88.01 120.10Z" fill="#e6edf3" /><path d="M157.68 114.32C157.68 113.73 157.19 113.26 156.60 113.26C156.30 113.26 156.02 113.38 155.82 113.58L153.82 115.60C153.66 115.76 153.58 115.95 153.58 116.15C153.58 116.58 153.95 116.92 154.35 116.92C154.53 116.92 154.72 116.85 154.86 116.71L155.83 115.71L155.83 121.17C155.83 121.66 156.25 122.08 156.74 122.08C157.26 122.08 157.68 121.66 157.68 121.17ZM165.44 114.27C165.44 113.72 165.00 113.33 164.54 113.33L159.58 113.33C159.14 113.33 158.77 113.69 158.77 114.12C158.77 114.59 159.14 114.95 159.58 114.95L163.22 114.95L160.63 120.82C160.58 120.93 160.55 121.05 160.55 121.17C160.55 121.64 160.93 122.08 161.48 122.08C161.85 122.08 162.20 121.86 162.35 121.52L165.36 114.63C165.41 114.53 165.44 114.39 165.44 114.27ZM167.20 121.36C167.20 120.52 166.64 120.04 166.03 120.04C165.48 120.04 165.01 120.50 165.01 121.08C165.01 121.64 165.40 122.01 165.90 122.01C165.99 122.01 166.10 121.99 166.14 121.97C166.06 122.31 165.78 122.72 165.44 122.99C165.35 123.07 165.31 123.17 165.31 123.27C165.31 123.53 165.58 123.69 165.80 123.69C165.93 123.69 166.05 123.65 166.14 123.56C166.79 122.97 167.20 122.19 167.20 121.36ZM174.94 121.17C174.94 120.74 174.58 120.38 174.15 120.38L171.33 120.38C173.58 118.74 174.80 117.45 174.80 115.97C174.80 114.24 173.33 113.20 171.49 113.20C170.39 113.20 168.94 113.67 168.52 114.33C168.44 114.45 168.40 114.58 168.40 114.71C168.40 115.17 168.78 115.54 169.21 115.54C169.41 115.54 169.57 115.49 169.74 115.37C170.24 115.03 170.84 114.84 171.52 114.84C172.24 114.84 172.93 115.21 172.93 115.97C172.93 116.98 171.89 117.93 168.65 120.32C168.40 120.50 168.26 120.80 168.26 121.10C168.26 121.62 168.68 122 169.13 122L174.15 122C174.58 122 174.94 121.64 174.94 121.17ZM183.04 119.40C183.04 118.94 182.68 118.58 182.25 118.58L181.85 118.58L181.85 114.29C181.85 113.48 181.07 113.12 180.27 113.25C179.72 113.25 179.16 113.55 178.86 114.02L175.96 118.59C175.84 118.78 175.79 118.98 175.79 119.19C175.79 119.78 176.22 120.21 176.74 120.21L180.00 120.21L180.00 121.17C180.00 121.66 180.42 122.08 180.91 122.08C181.43 122.08 181.85 121.66 181.85 121.17L181.85 120.21L182.25 120.21C182.68 120.21 183.04 119.84 183.04 119.40ZM177.66 118.58L180.00 114.97L180.00 118.58ZM190.50 121.17C190.50 120.74 190.14 120.38 189.71 120.38L186.89 120.38C189.14 118.74 190.36 117.45 190.36 115.97C190.36 114.24 188.89 113.20 187.05 113.20C185.95 113.20 184.50 113.67 184.08 114.33C184.00 114.45 183.97 114.58 183.97 114.71C183.97 115.17 184.34 115.54 184.77 115.54C184.97 115.54 185.14 115.49 185.30 115.37C185.80 115.03 186.40 114.84 187.09 114.84C187.80 114.84 188.49 115.21 188.49 115.97C188.49 116.98 187.45 117.93 184.21 120.32C183.97 120.50 183.82 120.80 183.82 121.10C183.82 121.62 184.24 122 184.69 122L189.71 122C190.14 122 190.50 121.64 190.50 121.17ZM193.88 121.36C193.88 120.52 193.33 120.04 192.72 120.04C192.17 120.04 191.70 120.50 191.70 121.08C191.70 121.64 192.09 122.01 192.59 122.01C192.68 122.01 192.79 121.99 192.83 121.97C192.75 122.31 192.47 122.72 192.13 122.99C192.04 123.07 192 123.17 192 123.27C192 123.53 192.27 123.69 192.49 123.69C192.62 123.69 192.74 123.65 192.83 123.56C193.48 122.97 193.88 122.19 193.88 121.36ZM201.84 119.62C201.84 118.44 201.14 117.76 200.62 117.53C201.06 117.32 201.70 116.83 201.70 115.49C201.70 113.99 200.09 113.20 198.36 113.20C196.62 113.20 195.02 113.99 195.02 115.49C195.02 116.83 195.64 117.32 196.08 117.53C195.56 117.76 194.87 118.44 194.87 119.62C194.87 121.25 196.54 122.16 198.36 122.16C200.18 122.16 201.84 121.23 201.84 119.62ZM199.81 115.77C199.81 116.42 199.15 116.80 198.36 116.80C197.56 116.80 196.89 116.42 196.89 115.77C196.89 115.15 197.50 114.78 198.36 114.78C199.20 114.78 199.81 115.15 199.81 115.77ZM199.97 119.52C199.97 120.15 199.24 120.57 198.36 120.57C197.45 120.57 196.75 120.15 196.75 119.52C196.75 118.79 197.55 118.36 198.36 118.36C199.15 118.36 199.97 118.79 199.97 119.52ZM202.69 116.16C202.69 118.01 204.08 118.98 205.64 118.98C206.72 118.98 207.52 118.45 207.86 117.87C207.87 117.93 207.87 117.98 207.87 118.05C207.87 119.43 206.98 120.50 205.70 120.50C205.26 120.50 204.90 120.43 204.57 120.26C204.45 120.19 204.32 120.17 204.19 120.17C203.79 120.17 203.35 120.48 203.35 120.97C203.35 121.10 203.39 121.22 203.44 121.32C203.77 121.90 204.86 122.14 205.70 122.14C208.26 122.14 209.75 120.28 209.75 117.66C209.75 115.21 208.64 113.19 206.00 113.19C204.03 113.19 202.69 114.47 202.69 116.16ZM204.56 116.10C204.56 115.45 205.04 114.82 206.04 114.82C206.86 114.82 207.47 115.38 207.47 116.19C207.47 116.97 206.85 117.53 206.04 117.53C205.21 117.53 204.56 116.97 204.56 116.10ZM217.42 121.17C217.42 120.74 217.05 120.38 216.62 120.38L213.80 120.38C216.05 118.74 217.27 117.45 217.27 115.97C217.27 114.24 215.80 113.20 213.96 113.20C212.87 113.20 211.41 113.67 210.99 114.33C210.92 114.45 210.88 114.58 210.88 114.71C210.88 115.17 211.25 115.54 211.68 115.54C211.88 115.54 212.05 115.49 212.22 115.37C212.71 115.03 213.31 114.84 214.00 114.84C214.71 114.84 215.40 115.21 215.40 115.97C215.40 116.98 214.36 117.93 211.12 120.32C210.88 120.50 210.73 120.80 210.73 121.10C210.73 121.62 211.15 122 211.60 122L216.62 122C217.05 122 217.42 121.64 217.42 121.17Z" fill="#9aa7b4" /></g><g aria-label="Changed Files: 529,064"><circle cx="22" cy="140" r="4" fill="#673bd6" /><path d="M39.11 135.19C36.59 135.19 34.60 137.01 34.60 139.67C34.60 142.34 36.59 144.16 39.11 144.16C40.46 144.16 41.40 143.60 42.07 142.87C42.18 142.76 42.23 142.62 42.23 142.47C42.23 142.15 41.97 141.87 41.63 141.87C41.46 141.87 41.28 141.95 41.18 142.08C40.64 142.67 39.88 143.01 39.11 143.01C37.29 143.01 35.94 141.61 35.94 139.67C35.94 137.72 37.29 136.33 39.11 136.33C39.86 136.33 40.67 136.69 41.18 137.28C41.28 137.42 41.46 137.49 41.62 137.49C41.96 137.49 42.23 137.21 42.23 136.89C42.23 136.73 42.18 136.59 42.07 136.47C41.41 135.73 40.46 135.19 39.11 135.19ZM49.17 139.94C49.17 138.62 48.22 137.56 46.90 137.56C45.79 137.56 45.22 138.10 44.92 138.60L44.92 135.81C44.92 135.51 44.66 135.25 44.36 135.25C44.02 135.25 43.76 135.51 43.76 135.81L43.76 143.51C43.76 143.82 44.02 144.08 44.34 144.08C44.66 144.08 44.92 143.82 44.92 143.51L44.92 140.56C44.92 139.38 45.54 138.59 46.53 138.59C47.47 138.59 48.01 139.29 48.01 140.33L48.01 143.51C48.01 143.82 48.27 144.08 48.59 144.08C48.91 144.08 49.17 143.82 49.17 143.51ZM56.09 139.75C56.09 138.15 54.92 137.56 53.56 137.56C52.72 137.56 51.77 137.84 51.17 138.44C51.09 138.53 51.06 138.63 51.06 138.74C51.06 139.01 51.30 139.19 51.54 139.19C51.63 139.19 51.73 139.15 51.82 139.09C52.29 138.72 52.81 138.54 53.40 138.54C54.28 138.54 54.93 139.01 54.93 139.80L54.93 140.15L53.12 140.15C51.82 140.15 50.68 140.66 50.68 142.08C50.68 143.45 51.82 144.16 52.86 144.16C53.84 144.16 54.42 143.86 54.93 143.30L54.93 143.51C54.93 143.88 55.23 144.08 55.46 144.08L55.50 144.08C55.83 144.08 56.09 143.82 56.09 143.51ZM54.93 140.96L54.93 141.84C54.93 142.58 54.09 143.34 53.17 143.34C52.33 143.34 51.85 142.83 51.85 142.10C51.85 141.35 52.45 140.96 53.44 140.96ZM63.34 139.97C63.34 138.64 62.38 137.56 61.05 137.56C59.96 137.56 59.40 138.10 59.10 138.60L59.10 138.20C59.10 137.90 58.84 137.64 58.54 137.64C58.21 137.64 57.95 137.90 57.95 138.20L57.95 143.51C57.95 143.82 58.21 144.08 58.52 144.08C58.84 144.08 59.10 143.82 59.10 143.51L59.10 140.49C59.10 139.42 59.67 138.59 60.68 138.59C61.61 138.59 62.18 139.32 62.18 140.36L62.18 143.51C62.18 143.82 62.44 144.08 62.76 144.08C63.08 144.08 63.34 143.82 63.34 143.51ZM70.84 138.20C70.84 137.90 70.58 137.64 70.28 137.64C69.95 137.64 69.69 137.90 69.69 138.20L69.69 138.63C69.18 137.96 68.45 137.56 67.62 137.56C65.99 137.56 64.84 138.79 64.84 140.81C64.84 142.86 66.01 144.05 67.62 144.05C68.48 144.05 69.22 143.60 69.69 142.96L69.69 143.79C69.69 145.13 68.72 145.60 67.75 145.60C67.06 145.60 66.51 145.46 66.03 145.05C65.94 144.99 65.85 144.96 65.73 144.96C65.47 144.96 65.24 145.18 65.24 145.46C65.24 145.59 65.29 145.70 65.37 145.78C65.98 146.37 66.86 146.55 67.75 146.55C69.28 146.55 70.84 145.91 70.84 143.75ZM69.69 140.83C69.69 142.12 68.84 143.03 67.80 143.03C66.63 143.03 66.03 142.10 66.03 140.81C66.03 139.50 66.63 138.59 67.80 138.59C68.84 138.59 69.69 139.49 69.69 140.78ZM78.51 140.65C78.51 140.40 78.45 140.13 78.40 139.92C78.03 138.51 76.99 137.56 75.47 137.56C73.65 137.56 72.34 139.03 72.34 140.85C72.34 142.83 73.70 144.16 75.57 144.16C76.50 144.16 78.11 143.68 78.11 142.97C78.11 142.53 77.67 142.43 77.38 142.57C76.93 142.91 76.22 143.22 75.69 143.22C74.42 143.22 73.64 142.35 73.55 141.27L77.91 141.27C78.24 141.27 78.51 140.96 78.51 140.65ZM73.55 140.41C73.60 139.54 74.21 138.50 75.46 138.50C76.80 138.50 77.37 139.57 77.39 140.41ZM85.64 135.81C85.64 135.51 85.38 135.25 85.08 135.25C84.74 135.25 84.48 135.51 84.48 135.81L84.48 138.63C83.97 137.96 83.36 137.56 82.41 137.56C80.77 137.56 79.62 138.85 79.62 140.87C79.62 142.92 80.79 144.16 82.41 144.16C83.39 144.16 84.00 143.73 84.48 143.10L84.48 143.51C84.48 143.82 84.74 144.08 85.05 144.08C85.38 144.08 85.64 143.82 85.64 143.51ZM84.48 140.91C84.48 142.21 83.83 143.13 82.71 143.13C81.54 143.13 80.81 142.18 80.81 140.87C80.81 139.55 81.54 138.59 82.71 138.59C83.83 138.59 84.48 139.54 84.48 140.83ZM96.76 135.91C96.76 135.58 96.52 135.33 96.20 135.33L91.73 135.33C91.27 135.33 90.89 135.71 90.89 136.17L90.89 143.44C90.89 143.79 91.17 144.08 91.52 144.08C91.89 144.08 92.17 143.79 92.17 143.44L92.17 140.15L96.11 140.15C96.43 140.15 96.67 139.89 96.67 139.59C96.67 139.25 96.43 139.01 96.11 139.01L92.17 139.01L92.17 136.47L96.20 136.47C96.52 136.47 96.76 136.21 96.76 135.91ZM98.65 135.39C98.25 135.39 97.91 135.73 97.91 136.15C97.91 136.55 98.25 136.89 98.65 136.89C99.06 136.89 99.39 136.55 99.39 136.15C99.39 135.73 99.06 135.39 98.65 135.39ZM99.23 138.20C99.23 137.90 98.97 137.64 98.67 137.64C98.34 137.64 98.08 137.90 98.08 138.20L98.08 143.51C98.08 143.82 98.34 144.08 98.65 144.08C98.97 144.08 99.23 143.82 99.23 143.51ZM102.26 135.81C102.26 135.51 102.00 135.25 101.70 135.25C101.37 135.25 101.11 135.51 101.11 135.81L101.11 143.51C101.11 143.82 101.37 144.08 101.68 144.08C102.00 144.08 102.26 143.82 102.26 143.51ZM109.93 140.65C109.93 140.40 109.87 140.13 109.82 139.92C109.45 138.51 108.41 137.56 106.89 137.56C105.07 137.56 103.76 139.03 103.76 140.85C103.76 142.83 105.12 144.16 106.99 144.16C107.92 144.16 109.53 143.68 109.53 142.97C109.53 142.53 109.09 142.43 108.80 142.57C108.35 142.91 107.64 143.22 107.11 143.22C105.84 143.22 105.06 142.35 104.97 141.27L109.33 141.27C109.66 141.27 109.93 140.96 109.93 140.65ZM104.97 140.41C105.02 139.54 105.63 138.50 106.88 138.50C108.22 138.50 108.79 139.57 108.81 140.41ZM116.02 142.10C115.90 139.89 112.30 140.50 112.17 139.37C112.12 138.87 112.66 138.49 113.46 138.49C114.05 138.49 114.61 138.68 115.02 138.97C115.09 139.03 115.18 139.06 115.29 139.06C115.52 139.06 115.74 138.87 115.74 138.60C115.74 138.50 115.70 138.40 115.63 138.32C115.13 137.84 114.34 137.56 113.44 137.56C111.91 137.56 110.99 138.29 111.05 139.41C111.17 141.52 114.76 140.87 114.89 142.26C114.94 142.83 114.42 143.23 113.52 143.23C112.87 143.23 112.22 142.97 111.75 142.63C111.66 142.57 111.57 142.54 111.45 142.54C111.18 142.54 110.95 142.75 110.95 143.03C110.95 143.16 111.00 143.26 111.09 143.34C111.66 143.91 112.61 144.16 113.47 144.16C115.13 144.16 116.08 143.30 116.02 142.10Z" fill="#e6edf3" /><path d="M175.33 141.15C175.33 139.40 174.02 138.34 172.55 138.34C171.76 138.34 171.06 138.66 170.64 139.07L170.64 136.95L174.03 136.95C174.46 136.95 174.83 136.59 174.83 136.15C174.83 135.69 174.46 135.33 174.03 135.33L169.83 135.33C169.26 135.33 168.79 135.80 168.79 136.37L168.79 139.70C168.79 140.20 169.16 140.58 169.73 140.58C169.99 140.58 170.24 140.50 170.45 140.36C170.91 140.05 171.37 139.94 171.90 139.94C172.89 139.94 173.46 140.46 173.46 141.23C173.46 141.93 172.88 142.52 171.85 142.52C171.23 142.52 170.63 142.35 170.12 142.04C169.97 141.95 169.80 141.89 169.64 141.89C169.19 141.89 168.76 142.25 168.76 142.73C168.76 142.86 168.79 142.99 168.86 143.10C169.26 143.78 170.73 144.16 171.86 144.16C173.96 144.16 175.33 143.00 175.33 141.15ZM183.00 143.17C183.00 142.74 182.64 142.38 182.21 142.38L179.39 142.38C181.64 140.74 182.86 139.45 182.86 137.97C182.86 136.24 181.39 135.20 179.55 135.20C178.45 135.20 177.00 135.67 176.58 136.33C176.50 136.45 176.46 136.58 176.46 136.71C176.46 137.18 176.84 137.54 177.27 137.54C177.47 137.54 177.63 137.49 177.80 137.37C178.30 137.03 178.90 136.84 179.58 136.84C180.30 136.84 180.99 137.21 180.99 137.97C180.99 138.98 179.95 139.93 176.71 142.32C176.46 142.50 176.32 142.80 176.32 143.10C176.32 143.62 176.74 144 177.19 144L182.21 144C182.64 144 183.00 143.64 183.00 143.17ZM183.98 138.16C183.98 140.01 185.37 140.98 186.93 140.98C188.01 140.98 188.81 140.45 189.15 139.87C189.17 139.93 189.17 139.98 189.17 140.05C189.17 141.43 188.27 142.50 187.00 142.50C186.55 142.50 186.19 142.43 185.86 142.26C185.75 142.19 185.62 142.17 185.49 142.17C185.08 142.17 184.64 142.48 184.64 142.97C184.64 143.10 184.68 143.22 184.73 143.32C185.06 143.90 186.15 144.14 187.00 144.14C189.56 144.14 191.04 142.28 191.04 139.66C191.04 137.21 189.93 135.19 187.29 135.19C185.32 135.19 183.98 136.47 183.98 138.16ZM185.85 138.10C185.85 137.45 186.33 136.82 187.33 136.82C188.15 136.82 188.76 137.38 188.76 138.19C188.76 138.97 188.14 139.53 187.33 139.53C186.50 139.53 185.85 138.97 185.85 138.10ZM194.01 143.36C194.01 142.52 193.46 142.04 192.84 142.04C192.30 142.04 191.83 142.50 191.83 143.08C191.83 143.64 192.22 144.01 192.72 144.01C192.81 144.01 192.92 143.99 192.96 143.97C192.88 144.31 192.60 144.72 192.26 144.99C192.17 145.07 192.13 145.17 192.13 145.27C192.13 145.53 192.40 145.69 192.62 145.69C192.75 145.69 192.87 145.65 192.96 145.56C193.61 144.97 194.01 144.19 194.01 143.36ZM201.89 139.67C201.89 137.44 200.78 135.20 198.31 135.20C195.82 135.20 194.72 137.44 194.72 139.67C194.72 141.91 195.82 144.16 198.31 144.16C200.78 144.16 201.89 141.91 201.89 139.67ZM200.01 139.67C200.01 141.27 199.54 142.52 198.31 142.52C197.06 142.52 196.59 141.27 196.59 139.67C196.59 138.07 197.06 136.84 198.31 136.84C199.54 136.84 200.01 138.07 200.01 139.67ZM209.84 141.18C209.84 139.33 208.45 138.36 206.89 138.36C205.81 138.36 205 138.89 204.66 139.48C204.65 139.41 204.65 139.36 204.65 139.29C204.65 137.92 205.55 136.84 206.82 136.84C207.26 136.84 207.63 136.91 207.95 137.08C208.07 137.15 208.20 137.18 208.33 137.18C208.73 137.18 209.17 136.86 209.17 136.37C209.17 136.24 209.13 136.12 209.08 136.02C208.76 135.45 207.67 135.20 206.82 135.20C204.26 135.20 202.78 137.06 202.78 139.68C202.78 142.13 203.88 144.16 206.52 144.16C208.50 144.16 209.84 142.87 209.84 141.18ZM207.96 141.24C207.96 141.89 207.48 142.52 206.48 142.52C205.66 142.52 205.05 141.96 205.05 141.15C205.05 140.37 205.68 139.81 206.48 139.81C207.31 139.81 207.96 140.37 207.96 141.24ZM217.75 141.40C217.75 140.94 217.39 140.58 216.96 140.58L216.56 140.58L216.56 136.29C216.56 135.49 215.78 135.12 214.98 135.25C214.43 135.25 213.87 135.55 213.57 136.02L210.67 140.59C210.55 140.78 210.50 140.98 210.50 141.19C210.50 141.78 210.93 142.21 211.45 142.21L214.71 142.21L214.71 143.17C214.71 143.66 215.13 144.08 215.62 144.08C216.14 144.08 216.56 143.66 216.56 143.17L216.56 142.21L216.96 142.21C217.39 142.21 217.75 141.84 217.75 141.40ZM212.37 140.58L214.71 136.97L214.71 140.58Z" fill="#9aa7b4" /></g><rect x="18" y="166" width="384" height="8" rx="4" fill="#21262d" /><rect x="18.00" y="166" width="256.59" height="8" rx="4" fill="#00d559" /><rect x="274.59" y="166" width="127.41" height="8" rx="4" fill="#00a5fe" /></svg>