<svg xmlns="http://www.w3.org/2000/svg" width="420" height="184" viewBox="0 0 420 184" role="img"><rect x="0.5" y="0.5" width="419" height="183" rx="10" fill="#ffffff" stroke="#f2f4f6" /><path d="M30.72 33.60C30.72 32.83 30.10 32.21 29.37 32.21L28.69 32.21L28.69 24.95C28.69 23.59 27.37 22.97 26.03 23.19C25.08 23.19 24.14 23.70 23.63 24.49L18.73 32.24C18.53 32.54 18.44 32.90 18.44 33.25C18.44 34.24 19.17 34.96 20.05 34.96L25.57 34.96L25.57 36.59C25.57 37.43 26.27 38.13 27.11 38.13C27.99 38.13 28.69 37.43 28.69 36.59L28.69 34.96L29.37 34.96C30.10 34.96 30.72 34.35 30.72 33.60ZM21.61 32.21L25.57 26.10L25.57 32.21ZM43.70 33.97C43.70 31.97 42.51 30.83 41.63 30.43C42.38 30.08 43.45 29.24 43.45 26.98C43.45 24.45 40.73 23.11 37.80 23.11C34.85 23.11 32.15 24.45 32.15 26.98C32.15 29.24 33.20 30.08 33.95 30.43C33.07 30.83 31.90 31.97 31.90 33.97C31.90 36.72 34.72 38.26 37.80 38.26C40.88 38.26 43.70 36.70 43.70 33.97ZM40.26 27.46C40.26 28.56 39.14 29.20 37.80 29.20C36.46 29.20 35.31 28.56 35.31 27.46C35.31 26.41 36.35 25.79 37.80 25.79C39.23 25.79 40.26 26.41 40.26 27.46ZM40.53 33.80C40.53 34.88 39.30 35.58 37.80 35.58C36.26 35.58 35.07 34.88 35.07 33.80C35.07 32.57 36.44 31.84 37.80 31.84C39.14 31.84 40.53 32.57 40.53 33.80ZM49.20 36.92C49.20 35.49 48.25 34.68 47.22 34.68C46.29 34.68 45.50 35.47 45.50 36.44C45.50 37.38 46.16 38.02 47.00 38.02C47.15 38.02 47.35 37.98 47.41 37.96C47.28 38.53 46.80 39.21 46.23 39.67C46.07 39.80 46.01 39.98 46.01 40.16C46.01 40.60 46.47 40.86 46.84 40.86C47.06 40.86 47.26 40.79 47.41 40.64C48.51 39.65 49.20 38.33 49.20 36.92ZM62.70 33.18C62.70 30.21 60.48 28.43 58.00 28.43C56.65 28.43 55.47 28.96 54.76 29.66L54.76 26.08L60.50 26.08C61.23 26.08 61.85 25.46 61.85 24.71C61.85 23.94 61.23 23.33 60.50 23.33L53.40 23.33C52.43 23.33 51.64 24.12 51.64 25.09L51.64 30.72C51.64 31.58 52.25 32.21 53.22 32.21C53.66 32.21 54.08 32.08 54.43 31.84C55.22 31.31 55.99 31.14 56.90 31.14C58.57 31.14 59.54 32.02 59.54 33.31C59.54 34.50 58.55 35.49 56.81 35.49C55.75 35.49 54.74 35.21 53.88 34.68C53.62 34.52 53.33 34.44 53.07 34.44C52.30 34.44 51.57 35.03 51.57 35.84C51.57 36.06 51.64 36.28 51.75 36.48C52.43 37.63 54.92 38.26 56.83 38.26C60.37 38.26 62.70 36.31 62.70 33.18ZM64.13 28.12C64.13 31.25 66.49 32.90 69.13 32.90C70.95 32.90 72.32 31.99 72.89 31.00C72.91 31.11 72.91 31.20 72.91 31.31C72.91 33.64 71.39 35.47 69.24 35.47C68.49 35.47 67.87 35.34 67.32 35.05C67.13 34.94 66.91 34.90 66.69 34.90C66.00 34.90 65.26 35.43 65.26 36.26C65.26 36.48 65.32 36.68 65.41 36.86C65.96 37.82 67.81 38.24 69.24 38.24C73.57 38.24 76.08 35.10 76.08 30.65C76.08 26.52 74.21 23.08 69.74 23.08C66.40 23.08 64.13 25.26 64.13 28.12ZM67.30 28.01C67.30 26.91 68.12 25.86 69.81 25.86C71.20 25.86 72.23 26.80 72.23 28.17C72.23 29.49 71.17 30.43 69.81 30.43C68.40 30.43 67.30 29.49 67.30 28.01ZM89.74 30.67C89.74 26.89 87.85 23.11 83.67 23.11C79.47 23.11 77.60 26.89 77.60 30.67C77.60 34.46 79.47 38.26 83.67 38.26C87.85 38.26 89.74 34.46 89.74 30.67ZM86.55 30.67C86.55 33.38 85.76 35.49 83.67 35.49C81.56 35.49 80.77 33.38 80.77 30.67C80.77 27.97 81.56 25.88 83.67 25.88C85.76 25.88 86.55 27.97 86.55 30.67ZM104.68 23.08C100.28 23.08 96.87 26.16 96.87 30.67C96.87 35.18 100.28 38.26 104.68 38.26C107.21 38.26 108.90 37.16 110.00 35.82C110.22 35.58 110.31 35.27 110.31 34.96C110.31 34.22 109.67 33.60 108.88 33.60C108.44 33.60 108.00 33.78 107.69 34.11C106.88 35.01 105.78 35.49 104.68 35.49C102.02 35.49 100.08 33.45 100.08 30.67C100.08 27.90 102.02 25.86 104.68 25.86C105.78 25.86 106.86 26.38 107.69 27.26C108.00 27.59 108.42 27.77 108.84 27.77C109.65 27.77 110.33 27.15 110.33 26.36C110.33 26.08 110.22 25.75 110.03 25.50C108.90 24.16 107.21 23.08 104.68 23.08ZM123.18 32.68C123.18 29.66 121.07 27.11 117.55 27.11C114.05 27.11 111.94 29.66 111.94 32.68C111.94 35.71 114.05 38.26 117.55 38.26C121.07 38.26 123.18 35.71 123.18 32.68ZM120.28 32.68C120.28 34.35 119.29 35.78 117.55 35.78C115.81 35.78 114.84 34.35 114.84 32.68C114.84 31.03 115.81 29.60 117.55 29.60C119.29 29.60 120.28 31.03 120.28 32.68ZM141.24 31.20C141.24 29.02 139.73 27.11 137.33 27.11C135.48 27.11 134.42 28.19 134.03 28.94C133.63 28.17 132.64 27.11 130.86 27.11C129.23 27.11 128.48 27.70 128.04 28.28L128.04 28.25C128.04 27.95 127.65 27.24 126.68 27.24C125.87 27.24 125.25 27.86 125.25 28.61L125.25 36.75C125.25 37.52 125.87 38.13 126.64 38.13C127.43 38.13 128.04 37.52 128.04 36.75L128.04 31.73C128.04 30.70 128.84 29.60 130.02 29.60C131.17 29.60 131.83 30.74 131.83 31.73L131.83 36.75C131.83 37.52 132.44 38.13 133.21 38.13C134.03 38.13 134.64 37.52 134.64 36.75L134.64 31.93C134.64 30.70 135.41 29.60 136.62 29.60C137.77 29.60 138.43 30.74 138.43 31.73L138.43 36.75C138.43 37.52 139.04 38.13 139.81 38.13C140.63 38.13 141.24 37.52 141.24 36.75ZM159.99 31.20C159.99 29.02 158.47 27.11 156.07 27.11C154.22 27.11 153.17 28.19 152.77 28.94C152.38 28.17 151.39 27.11 149.60 27.11C147.98 27.11 147.23 27.70 146.79 28.28L146.79 28.25C146.79 27.95 146.39 27.24 145.42 27.24C144.61 27.24 143.99 27.86 143.99 28.61L143.99 36.75C143.99 37.52 144.61 38.13 145.38 38.13C146.17 38.13 146.79 37.52 146.79 36.75L146.79 31.73C146.79 30.70 147.58 29.60 148.77 29.60C149.91 29.60 150.57 30.74 150.57 31.73L150.57 36.75C150.57 37.52 151.19 38.13 151.96 38.13C152.77 38.13 153.39 37.52 153.39 36.75L153.39 31.93C153.39 30.70 154.16 29.60 155.37 29.60C156.51 29.60 157.17 30.74 157.17 31.73L157.17 36.75C157.17 37.52 157.79 38.13 158.56 38.13C159.37 38.13 159.99 37.52 159.99 36.75ZM164.12 22.91C163.22 22.91 162.45 23.63 162.45 24.56C162.45 25.48 163.22 26.23 164.12 26.23C165.05 26.23 165.80 25.48 165.80 24.56C165.80 23.63 165.05 22.91 164.12 22.91ZM165.53 28.61C165.53 27.86 164.92 27.24 164.17 27.24C163.35 27.24 162.74 27.86 162.74 28.61L162.74 36.75C162.74 37.52 163.35 38.13 164.12 38.13C164.92 38.13 165.53 37.52 165.53 36.75ZM174.11 36.99C174.11 36.31 173.67 35.78 172.88 35.78L172.64 35.78C172.20 35.78 171.67 35.45 171.67 34.61L171.67 29.82L172.77 29.82C173.41 29.82 173.96 29.27 173.96 28.61C173.96 27.92 173.41 27.37 172.77 27.37L171.67 27.37L171.67 25.72C171.67 24.95 171.05 24.34 170.28 24.34C169.47 24.34 168.85 24.95 168.85 25.72L168.85 27.37L168.17 27.37C167.51 27.37 166.96 27.92 166.96 28.56C166.96 29.27 167.51 29.82 168.17 29.82L168.85 29.82L168.85 35.36C168.85 37.25 169.91 38.26 171.87 38.26C173.69 38.26 174.11 37.69 174.11 36.99ZM184.17 34.85C184.17 30.56 177.87 31.88 177.87 30.30C177.87 29.71 178.53 29.24 179.55 29.24C180.40 29.24 181.26 29.49 181.94 29.88C182.10 29.97 182.30 30.01 182.47 30.01C183.04 30.01 183.57 29.55 183.57 28.96C183.57 28.76 183.51 28.56 183.40 28.41C182.80 27.55 180.91 27.11 179.52 27.11C176.73 27.11 175.17 28.67 175.17 30.45C175.17 34.63 181.48 33.20 181.48 34.96C181.48 35.62 180.91 36.11 179.70 36.11C178.78 36.11 177.68 35.73 176.84 35.25C176.66 35.14 176.47 35.10 176.27 35.10C175.67 35.10 175.10 35.60 175.10 36.26C175.10 36.48 175.17 36.68 175.30 36.86C175.96 37.80 178.18 38.26 179.57 38.26C182.52 38.26 184.17 36.79 184.17 34.85Z" fill="#22272e" /><path d="M20.26 49.88C20.26 49.54 19.98 49.25 19.64 49.25C19.26 49.25 18.98 49.54 18.98 49.88L18.98 57.44C18.98 57.79 19.26 58.08 19.61 58.08C19.98 58.08 20.26 57.79 20.26 57.44ZM27.55 53.97C27.55 52.64 26.59 51.56 25.27 51.56C24.18 51.56 23.62 52.10 23.32 52.60L23.32 52.20C23.32 51.90 23.06 51.64 22.76 51.64C22.42 51.64 22.16 51.90 22.16 52.20L22.16 57.51C22.16 57.82 22.42 58.08 22.73 58.08C23.06 58.08 23.32 57.82 23.32 57.51L23.32 54.49C23.32 53.42 23.89 52.59 24.89 52.59C25.83 52.59 26.40 53.32 26.40 54.36L26.40 57.51C26.40 57.82 26.66 58.08 26.97 58.08C27.30 58.08 27.55 57.82 27.55 57.51ZM38.97 49.91C38.97 49.58 38.72 49.33 38.41 49.33L32.70 49.33C32.39 49.33 32.14 49.58 32.14 49.89C32.14 50.21 32.39 50.47 32.70 50.47L34.91 50.47L34.91 57.44C34.91 57.79 35.20 58.08 35.55 58.08C35.91 58.08 36.20 57.79 36.20 57.44L36.20 50.47L38.41 50.47C38.72 50.47 38.97 50.21 38.97 49.91ZM44.74 54.85C44.74 53.05 43.53 51.56 41.57 51.56C39.62 51.56 38.41 53.05 38.41 54.85C38.41 56.66 39.62 58.16 41.57 58.16C43.53 58.16 44.74 56.66 44.74 54.85ZM43.53 54.85C43.53 56.06 42.83 57.13 41.57 57.13C40.32 57.13 39.61 56.06 39.61 54.85C39.61 53.66 40.32 52.59 41.57 52.59C42.83 52.59 43.53 53.66 43.53 54.85ZM49.16 57.55C49.16 57.27 48.95 57.06 48.67 57.06C48.54 57.06 48.38 57.13 48.24 57.13C47.86 57.13 47.63 56.83 47.63 56.35L47.63 52.73L48.48 52.73C48.76 52.73 48.98 52.51 48.98 52.24C48.98 51.94 48.76 51.72 48.48 51.72L47.63 51.72L47.63 50.49C47.63 50.19 47.37 49.93 47.05 49.93C46.72 49.93 46.46 50.19 46.46 50.49L46.46 51.72L45.85 51.72C45.56 51.72 45.34 51.94 45.34 52.22C45.34 52.51 45.56 52.73 45.85 52.73L46.46 52.73L46.46 56.62C46.46 57.61 46.98 58.16 47.96 58.16C48.65 58.16 49.16 57.96 49.16 57.55ZM55.26 53.75C55.26 52.15 54.09 51.56 52.74 51.56C51.89 51.56 50.94 51.84 50.34 52.44C50.27 52.53 50.23 52.63 50.23 52.73C50.23 53.01 50.47 53.19 50.71 53.19C50.80 53.19 50.90 53.15 50.99 53.09C51.46 52.72 51.98 52.54 52.57 52.54C53.45 52.54 54.10 53.01 54.10 53.80L54.10 54.15L52.29 54.15C50.99 54.15 49.85 54.66 49.85 56.08C49.85 57.45 50.99 58.16 52.03 58.16C53.01 58.16 53.59 57.86 54.10 57.30L54.10 57.51C54.10 57.88 54.40 58.08 54.63 58.08L54.67 58.08C55.00 58.08 55.26 57.82 55.26 57.51ZM54.10 54.96L54.10 55.84C54.10 56.58 53.26 57.34 52.35 57.34C51.50 57.34 51.02 56.83 51.02 56.10C51.02 55.35 51.62 54.96 52.61 54.96ZM58.27 49.81C58.27 49.51 58.01 49.25 57.71 49.25C57.38 49.25 57.12 49.51 57.12 49.81L57.12 57.51C57.12 57.82 57.38 58.08 57.69 58.08C58.01 58.08 58.27 57.82 58.27 57.51Z" fill="#627386" /><line x1="18" y1="76" x2="48" y2="76" stroke="#627386" stroke-opacity="0.4" /><g aria-label="Additions: 34,808,761"><circle cx="22" cy="96" r="4" fill="#00d559" /><path d="M42.28 99.39C42.28 99.31 42.27 99.23 42.23 99.14L39.36 91.94C39.19 91.51 38.76 91.24 38.30 91.25C37.85 91.25 37.43 91.52 37.28 91.94L34.40 99.14C34.38 99.23 34.36 99.31 34.36 99.39C34.36 99.74 34.65 100.08 35.05 100.08C35.33 100.08 35.57 99.92 35.68 99.66L36.25 98.19L40.40 98.19L40.97 99.66C41.07 99.92 41.32 100.08 41.59 100.08C42.01 100.08 42.28 99.71 42.28 99.39ZM38.32 92.64L40.03 97.06L36.61 97.06ZM49.22 91.81C49.22 91.51 48.96 91.25 48.66 91.25C48.33 91.25 48.07 91.51 48.07 91.81L48.07 94.63C47.56 93.95 46.95 93.56 46.00 93.56C44.36 93.56 43.20 94.85 43.20 96.87C43.20 98.92 44.37 100.16 46.00 100.16C46.97 100.16 47.59 99.73 48.07 99.10L48.07 99.51C48.07 99.82 48.33 100.08 48.64 100.08C48.96 100.08 49.22 99.82 49.22 99.51ZM48.07 96.91C48.07 98.21 47.42 99.13 46.30 99.13C45.13 99.13 44.40 98.18 44.40 96.87C44.40 95.55 45.13 94.59 46.30 94.59C47.42 94.59 48.07 95.54 48.07 96.83ZM56.74 91.81C56.74 91.51 56.48 91.25 56.18 91.25C55.84 91.25 55.58 91.51 55.58 91.81L55.58 94.63C55.07 93.95 54.46 93.56 53.51 93.56C51.88 93.56 50.72 94.85 50.72 96.87C50.72 98.92 51.89 100.16 53.51 100.16C54.49 100.16 55.10 99.73 55.58 99.10L55.58 99.51C55.58 99.82 55.84 100.08 56.15 100.08C56.48 100.08 56.74 99.82 56.74 99.51ZM55.58 96.91C55.58 98.21 54.93 99.13 53.81 99.13C52.64 99.13 51.91 98.18 51.91 96.87C51.91 95.55 52.64 94.59 53.81 94.59C54.93 94.59 55.58 95.54 55.58 96.83ZM59.18 91.39C58.78 91.39 58.44 91.73 58.44 92.15C58.44 92.55 58.78 92.89 59.18 92.89C59.60 92.89 59.92 92.55 59.92 92.15C59.92 91.73 59.60 91.39 59.18 91.39ZM59.77 94.20C59.77 93.90 59.51 93.64 59.21 93.64C58.87 93.64 58.61 93.90 58.61 94.20L58.61 99.51C58.61 99.82 58.87 100.08 59.18 100.08C59.51 100.08 59.77 99.82 59.77 99.51ZM64.56 99.55C64.56 99.27 64.36 99.06 64.07 99.06C63.94 99.06 63.78 99.13 63.64 99.13C63.26 99.13 63.03 98.83 63.03 98.35L63.03 94.73L63.89 94.73C64.16 94.73 64.38 94.51 64.38 94.24C64.38 93.94 64.16 93.72 63.89 93.72L63.03 93.72L63.03 92.49C63.03 92.19 62.77 91.93 62.46 91.93C62.12 91.93 61.86 92.19 61.86 92.49L61.86 93.72L61.25 93.72C60.96 93.72 60.74 93.94 60.74 94.22C60.74 94.51 60.96 94.73 61.25 94.73L61.86 94.73L61.86 98.62C61.86 99.61 62.38 100.16 63.37 100.16C64.06 100.16 64.56 99.96 64.56 99.55ZM66.19 91.39C65.79 91.39 65.45 91.73 65.45 92.15C65.45 92.55 65.79 92.89 66.19 92.89C66.60 92.89 66.93 92.55 66.93 92.15C66.93 91.73 66.60 91.39 66.19 91.39ZM66.77 94.20C66.77 93.90 66.51 93.64 66.21 93.64C65.88 93.64 65.62 93.90 65.62 94.20L65.62 99.51C65.62 99.82 65.88 100.08 66.19 100.08C66.51 100.08 66.77 99.82 66.77 99.51ZM74.60 96.85C74.60 95.05 73.39 93.56 71.43 93.56C69.48 93.56 68.27 95.05 68.27 96.85C68.27 98.66 69.48 100.16 71.43 100.16C73.39 100.16 74.60 98.66 74.60 96.85ZM73.39 96.85C73.39 98.06 72.69 99.13 71.43 99.13C70.18 99.13 69.46 98.06 69.46 96.85C69.46 95.66 70.18 94.59 71.43 94.59C72.69 94.59 73.39 95.66 73.39 96.85ZM81.49 95.97C81.49 94.64 80.53 93.56 79.20 93.56C78.11 93.56 77.55 94.10 77.25 94.61L77.25 94.20C77.25 93.90 76.99 93.64 76.69 93.64C76.35 93.64 76.09 93.90 76.09 94.20L76.09 99.51C76.09 99.82 76.35 100.08 76.67 100.08C76.99 100.08 77.25 99.82 77.25 99.51L77.25 96.49C77.25 95.42 77.82 94.59 78.82 94.59C79.76 94.59 80.33 95.32 80.33 96.36L80.33 99.51C80.33 99.82 80.59 100.08 80.90 100.08C81.23 100.08 81.49 99.82 81.49 99.51ZM87.96 98.10C87.85 95.89 84.24 96.50 84.11 95.37C84.06 94.86 84.61 94.49 85.40 94.49C86 94.49 86.56 94.68 86.96 94.97C87.04 95.03 87.13 95.06 87.23 95.06C87.47 95.06 87.69 94.86 87.69 94.61C87.69 94.50 87.65 94.40 87.57 94.32C87.08 93.84 86.29 93.56 85.39 93.56C83.86 93.56 82.93 94.29 83.00 95.41C83.11 97.52 86.70 96.87 86.83 98.26C86.88 98.83 86.36 99.23 85.47 99.23C84.82 99.23 84.17 98.97 83.70 98.64C83.61 98.57 83.52 98.54 83.40 98.54C83.13 98.54 82.89 98.75 82.89 99.03C82.89 99.16 82.94 99.26 83.04 99.34C83.61 99.91 84.56 100.16 85.41 100.16C87.08 100.16 88.03 99.30 87.96 98.10Z" fill="#22272e" /><path d="M159.81 97.63C159.92 96.07 158.86 95.53 158.86 95.53C158.86 95.53 159.82 95.03 159.72 93.55C159.62 92.11 158.47 91.20 156.44 91.20C155.25 91.20 154.31 91.55 153.60 92.12C153.42 92.27 153.32 92.47 153.32 92.68C153.32 93.14 153.73 93.46 154.13 93.46C154.29 93.46 154.44 93.42 154.57 93.33C155.08 93.01 155.65 92.84 156.25 92.84C157.16 92.84 157.86 93.05 157.86 93.73C157.86 94.45 157.43 94.79 156.56 94.79C155.94 94.79 155.66 95.14 155.66 95.59C155.66 96.05 155.94 96.41 156.61 96.41C157.50 96.41 158.00 96.72 158.00 97.41C158.00 98.06 157.42 98.52 156.37 98.52C155.77 98.52 155.08 98.31 154.51 97.97C154.36 97.88 154.21 97.84 154.05 97.84C153.62 97.84 153.21 98.19 153.21 98.66C153.21 98.79 153.25 98.91 153.31 99.01C153.71 99.69 155.18 100.16 156.43 100.16C158.51 100.16 159.71 99.26 159.81 97.63ZM167.90 97.40C167.90 96.94 167.53 96.58 167.10 96.58L166.70 96.58L166.70 92.29C166.70 91.48 165.92 91.12 165.13 91.25C164.57 91.25 164.01 91.55 163.71 92.02L160.81 96.59C160.70 96.78 160.64 96.98 160.64 97.19C160.64 97.78 161.07 98.21 161.59 98.21L164.86 98.21L164.86 99.17C164.86 99.66 165.27 100.08 165.77 100.08C166.29 100.08 166.70 99.66 166.70 99.17L166.70 98.21L167.10 98.21C167.53 98.21 167.90 97.84 167.90 97.40ZM162.52 96.58L164.86 92.97L164.86 96.58ZM170.94 99.36C170.94 98.52 170.38 98.04 169.77 98.04C169.22 98.04 168.76 98.50 168.76 99.08C168.76 99.64 169.15 100.01 169.64 100.01C169.73 100.01 169.85 99.99 169.89 99.97C169.81 100.31 169.52 100.72 169.18 100.99C169.09 101.07 169.05 101.17 169.05 101.27C169.05 101.53 169.33 101.69 169.55 101.69C169.68 101.69 169.80 101.65 169.89 101.56C170.54 100.97 170.94 100.19 170.94 99.36ZM178.90 97.62C178.90 96.44 178.19 95.76 177.67 95.53C178.12 95.32 178.75 94.83 178.75 93.49C178.75 91.99 177.14 91.20 175.41 91.20C173.67 91.20 172.07 91.99 172.07 93.49C172.07 94.83 172.69 95.32 173.14 95.53C172.62 95.76 171.93 96.44 171.93 97.62C171.93 99.25 173.59 100.16 175.41 100.16C177.23 100.16 178.90 99.23 178.90 97.62ZM176.87 93.77C176.87 94.42 176.20 94.80 175.41 94.80C174.62 94.80 173.94 94.42 173.94 93.77C173.94 93.15 174.55 92.78 175.41 92.78C176.26 92.78 176.87 93.15 176.87 93.77ZM177.02 97.52C177.02 98.15 176.30 98.57 175.41 98.57C174.50 98.57 173.80 98.15 173.80 97.52C173.80 96.79 174.61 96.36 175.41 96.36C176.20 96.36 177.02 96.79 177.02 97.52ZM186.97 95.67C186.97 93.44 185.85 91.20 183.38 91.20C180.90 91.20 179.79 93.44 179.79 95.67C179.79 97.91 180.90 100.16 183.38 100.16C185.85 100.16 186.97 97.91 186.97 95.67ZM185.08 95.67C185.08 97.27 184.62 98.52 183.38 98.52C182.13 98.52 181.66 97.27 181.66 95.67C181.66 94.07 182.13 92.84 183.38 92.84C184.62 92.84 185.08 94.07 185.08 95.67ZM194.83 97.62C194.83 96.44 194.13 95.76 193.61 95.53C194.05 95.32 194.69 94.83 194.69 93.49C194.69 91.99 193.08 91.20 191.35 91.20C189.61 91.20 188.01 91.99 188.01 93.49C188.01 94.83 188.63 95.32 189.07 95.53C188.56 95.76 187.87 96.44 187.87 97.62C187.87 99.25 189.53 100.16 191.35 100.16C193.17 100.16 194.83 99.23 194.83 97.62ZM192.81 93.77C192.81 94.42 192.14 94.80 191.35 94.80C190.56 94.80 189.88 94.42 189.88 93.77C189.88 93.15 190.49 92.78 191.35 92.78C192.19 92.78 192.81 93.15 192.81 93.77ZM192.96 97.52C192.96 98.15 192.23 98.57 191.35 98.57C190.44 98.57 189.74 98.15 189.74 97.52C189.74 96.79 190.54 96.36 191.35 96.36C192.14 96.36 192.96 96.79 192.96 97.52ZM198.08 99.36C198.08 98.52 197.53 98.04 196.91 98.04C196.37 98.04 195.90 98.50 195.90 99.08C195.90 99.64 196.29 100.01 196.78 100.01C196.88 100.01 196.99 99.99 197.03 99.97C196.95 100.31 196.67 100.72 196.33 100.99C196.24 101.07 196.20 101.17 196.20 101.27C196.20 101.53 196.47 101.69 196.69 101.69C196.82 101.69 196.94 101.65 197.03 101.56C197.68 100.97 198.08 100.19 198.08 99.36ZM204.57 92.27C204.57 91.72 204.13 91.33 203.67 91.33L198.71 91.33C198.27 91.33 197.90 91.69 197.90 92.12C197.90 92.59 198.27 92.95 198.71 92.95L202.35 92.95L199.76 98.82C199.71 98.93 199.68 99.05 199.68 99.17C199.68 99.64 200.06 100.08 200.61 100.08C200.98 100.08 201.33 99.86 201.48 99.52L204.49 92.63C204.55 92.53 204.57 92.39 204.57 92.27ZM212.25 97.18C212.25 95.33 210.86 94.36 209.30 94.36C208.22 94.36 207.42 94.89 207.08 95.48C207.07 95.41 207.07 95.36 207.07 95.29C207.07 93.92 207.96 92.84 209.24 92.84C209.68 92.84 210.04 92.91 210.37 93.08C210.49 93.15 210.62 93.17 210.75 93.17C211.15 93.17 211.59 92.86 211.59 92.37C211.59 92.24 211.55 92.12 211.50 92.02C211.18 91.45 210.08 91.20 209.24 91.20C206.68 91.20 205.20 93.06 205.20 95.68C205.20 98.13 206.30 100.16 208.94 100.16C210.92 100.16 212.25 98.87 212.25 97.18ZM210.38 97.24C210.38 97.89 209.90 98.52 208.90 98.52C208.08 98.52 207.47 97.96 207.47 97.15C207.47 96.37 208.09 95.81 208.90 95.81C209.73 95.81 210.38 96.37 210.38 97.24ZM217.14 92.32C217.14 91.73 216.65 91.26 216.06 91.26C215.76 91.26 215.48 91.38 215.28 91.58L213.28 93.60C213.13 93.76 213.05 93.95 213.05 94.15C213.05 94.58 213.41 94.92 213.81 94.92C214.00 94.92 214.18 94.85 214.32 94.71L215.30 93.71L215.30 99.17C215.30 99.66 215.71 100.08 216.21 100.08C216.73 100.08 217.14 99.66 217.14 99.17Z" fill="#627386" /></g><g aria-label="Deletions: 17,255,686"><circle cx="22" cy="118" r="4" fill="#00a5fe" /><path d="M42.54 117.67C42.54 115.17 40.76 113.33 38.06 113.33L35.82 113.33C35.35 113.33 34.98 113.71 34.98 114.17L34.98 121.16C34.98 121.62 35.35 122 35.82 122L38.06 122C40.76 122 42.54 120.18 42.54 117.67ZM41.23 117.67C41.23 119.43 40.06 120.86 38.06 120.86L36.26 120.86L36.26 114.47L38.06 114.47C40.11 114.47 41.23 115.89 41.23 117.67ZM49.90 118.65C49.90 118.40 49.83 118.13 49.78 117.92C49.42 116.51 48.38 115.56 46.86 115.56C45.04 115.56 43.72 117.03 43.72 118.85C43.72 120.83 45.09 122.16 46.96 122.16C47.88 122.16 49.50 121.67 49.50 120.97C49.50 120.53 49.05 120.43 48.77 120.57C48.31 120.91 47.61 121.22 47.08 121.22C45.80 121.22 45.02 120.35 44.93 119.27L49.30 119.27C49.63 119.27 49.90 118.96 49.90 118.65ZM44.93 118.41C44.98 117.54 45.60 116.50 46.84 116.50C48.18 116.50 48.76 117.57 48.78 118.41ZM52.54 113.81C52.54 113.51 52.28 113.25 51.98 113.25C51.64 113.25 51.38 113.51 51.38 113.81L51.38 121.51C51.38 121.82 51.64 122.08 51.95 122.08C52.28 122.08 52.54 121.82 52.54 121.51ZM60.21 118.65C60.21 118.40 60.14 118.13 60.09 117.92C59.73 116.51 58.69 115.56 57.17 115.56C55.35 115.56 54.03 117.03 54.03 118.85C54.03 120.83 55.40 122.16 57.27 122.16C58.19 122.16 59.81 121.67 59.81 120.97C59.81 120.53 59.36 120.43 59.08 120.57C58.62 120.91 57.92 121.22 57.39 121.22C56.11 121.22 55.33 120.35 55.24 119.27L59.61 119.27C59.94 119.27 60.21 118.96 60.21 118.65ZM55.24 118.41C55.29 117.54 55.91 116.50 57.15 116.50C58.49 116.50 59.06 117.57 59.09 118.41ZM64.62 121.55C64.62 121.27 64.41 121.06 64.12 121.06C63.99 121.06 63.84 121.13 63.69 121.13C63.32 121.13 63.08 120.83 63.08 120.35L63.08 116.73L63.94 116.73C64.21 116.73 64.43 116.51 64.43 116.24C64.43 115.94 64.21 115.72 63.94 115.72L63.08 115.72L63.08 114.49C63.08 114.19 62.82 113.93 62.51 113.93C62.17 113.93 61.91 114.19 61.91 114.49L61.91 115.72L61.30 115.72C61.01 115.72 60.79 115.94 60.79 116.22C60.79 116.51 61.01 116.73 61.30 116.73L61.91 116.73L61.91 120.62C61.91 121.61 62.43 122.16 63.42 122.16C64.11 122.16 64.62 121.96 64.62 121.55ZM66.24 113.39C65.84 113.39 65.50 113.73 65.50 114.15C65.50 114.55 65.84 114.89 66.24 114.89C66.66 114.89 66.98 114.55 66.98 114.15C66.98 113.73 66.66 113.39 66.24 113.39ZM66.83 116.20C66.83 115.90 66.56 115.64 66.27 115.64C65.93 115.64 65.67 115.90 65.67 116.20L65.67 121.51C65.67 121.82 65.93 122.08 66.24 122.08C66.56 122.08 66.83 121.82 66.83 121.51ZM74.65 118.85C74.65 117.05 73.44 115.56 71.48 115.56C69.53 115.56 68.32 117.05 68.32 118.85C68.32 120.66 69.53 122.16 71.48 122.16C73.44 122.16 74.65 120.66 74.65 118.85ZM73.44 118.85C73.44 120.06 72.74 121.13 71.48 121.13C70.23 121.13 69.52 120.06 69.52 118.85C69.52 117.66 70.23 116.59 71.48 116.59C72.74 116.59 73.44 117.66 73.44 118.85ZM81.54 117.97C81.54 116.64 80.58 115.56 79.25 115.56C78.16 115.56 77.60 116.10 77.30 116.61L77.30 116.20C77.30 115.90 77.04 115.64 76.74 115.64C76.41 115.64 76.15 115.90 76.15 116.20L76.15 121.51C76.15 121.82 76.41 122.08 76.72 122.08C77.04 122.08 77.30 121.82 77.30 121.51L77.30 118.49C77.30 117.42 77.88 116.59 78.88 116.59C79.81 116.59 80.38 117.32 80.38 118.36L80.38 121.51C80.38 121.82 80.64 122.08 80.96 122.08C81.28 122.08 81.54 121.82 81.54 121.51ZM88.01 120.10C87.90 117.89 84.30 118.50 84.17 117.37C84.11 116.86 84.66 116.49 85.45 116.49C86.05 116.49 86.61 116.68 87.01 116.97C87.09 117.03 87.18 117.06 87.29 117.06C87.52 117.06 87.74 116.86 87.74 116.61C87.74 116.50 87.70 116.40 87.62 116.32C87.13 115.84 86.34 115.56 85.44 115.56C83.91 115.56 82.98 116.29 83.05 117.41C83.17 119.52 86.75 118.87 86.88 120.26C86.94 120.83 86.42 121.23 85.52 121.23C84.87 121.23 84.22 120.97 83.75 120.64C83.66 120.57 83.57 120.54 83.45 120.54C83.18 120.54 82.94 120.75 82.94 121.03C82.94 121.16 83.00 121.26 83.09 121.34C83.66 121.91 84.61 122.16 85.47 122.16C87.13 122.16 88.08 121.30 88.01 120.10Z" fill="#22272e" /><path d="M157.60 114.32C157.60 113.73 157.11 113.26 156.52 113.26C156.22 113.26 155.94 113.38 155.74 113.58L153.74 115.60C153.58 115.76 153.51 115.95 153.51 116.15C153.51 116.58 153.87 116.92 154.27 116.92C154.46 116.92 154.64 116.85 154.78 116.71L155.76 115.71L155.76 121.17C155.76 121.66 156.17 122.08 156.67 122.08C157.19 122.08 157.60 121.66 157.60 121.17ZM165.36 114.27C165.36 113.72 164.92 113.33 164.47 113.33L159.50 113.33C159.06 113.33 158.69 113.69 158.69 114.12C158.69 114.59 159.06 114.95 159.50 114.95L163.14 114.95L160.55 120.82C160.50 120.93 160.47 121.05 160.47 121.17C160.47 121.64 160.85 122.08 161.40 122.08C161.77 122.08 162.13 121.86 162.27 121.52L165.28 114.63C165.34 114.53 165.36 114.39 165.36 114.27ZM167.12 121.36C167.12 120.52 166.56 120.04 165.95 120.04C165.40 120.04 164.93 120.50 164.93 121.08C164.93 121.64 165.32 122.01 165.82 122.01C165.91 122.01 166.03 121.99 166.06 121.97C165.99 122.31 165.70 122.72 165.36 122.99C165.27 123.07 165.23 123.17 165.23 123.27C165.23 123.53 165.51 123.69 165.73 123.69C165.86 123.69 165.97 123.65 166.06 123.56C166.71 122.97 167.12 122.19 167.12 121.36ZM174.87 121.17C174.87 120.74 174.50 120.38 174.07 120.38L171.25 120.38C173.50 118.74 174.72 117.45 174.72 115.97C174.72 114.24 173.25 113.20 171.41 113.20C170.32 113.20 168.86 113.67 168.44 114.33C168.37 114.45 168.33 114.58 168.33 114.71C168.33 115.17 168.70 115.54 169.13 115.54C169.33 115.54 169.50 115.49 169.67 115.37C170.16 115.03 170.76 114.84 171.45 114.84C172.16 114.84 172.85 115.21 172.85 115.97C172.85 116.98 171.81 117.93 168.57 120.32C168.33 120.50 168.18 120.80 168.18 121.10C168.18 121.62 168.60 122 169.05 122L174.07 122C174.50 122 174.87 121.64 174.87 121.17ZM182.90 119.15C182.90 117.40 181.59 116.34 180.12 116.34C179.32 116.34 178.62 116.66 178.21 117.07L178.21 114.95L181.60 114.95C182.03 114.95 182.39 114.59 182.39 114.15C182.39 113.69 182.03 113.33 181.60 113.33L177.40 113.33C176.83 113.33 176.36 113.80 176.36 114.37L176.36 117.70C176.36 118.20 176.72 118.58 177.30 118.58C177.56 118.58 177.80 118.50 178.01 118.36C178.48 118.05 178.94 117.94 179.47 117.94C180.46 117.94 181.03 118.46 181.03 119.23C181.03 119.93 180.44 120.52 179.42 120.52C178.79 120.52 178.19 120.35 177.69 120.04C177.53 119.95 177.36 119.89 177.21 119.89C176.75 119.89 176.32 120.25 176.32 120.73C176.32 120.86 176.36 120.99 176.43 121.10C176.83 121.78 178.30 122.16 179.43 122.16C181.52 122.16 182.90 121.00 182.90 119.15ZM190.80 119.15C190.80 117.40 189.49 116.34 188.02 116.34C187.23 116.34 186.53 116.66 186.11 117.07L186.11 114.95L189.50 114.95C189.93 114.95 190.30 114.59 190.30 114.15C190.30 113.69 189.93 113.33 189.50 113.33L185.30 113.33C184.73 113.33 184.26 113.80 184.26 114.37L184.26 117.70C184.26 118.20 184.63 118.58 185.20 118.58C185.46 118.58 185.71 118.50 185.92 118.36C186.38 118.05 186.84 117.94 187.37 117.94C188.36 117.94 188.93 118.46 188.93 119.23C188.93 119.93 188.35 120.52 187.32 120.52C186.70 120.52 186.10 120.35 185.59 120.04C185.44 119.95 185.27 119.89 185.11 119.89C184.66 119.89 184.23 120.25 184.23 120.73C184.23 120.86 184.26 120.99 184.33 121.10C184.73 121.78 186.20 122.16 187.33 122.16C189.43 122.16 190.80 121.00 190.80 119.15ZM194.05 121.36C194.05 120.52 193.49 120.04 192.88 120.04C192.34 120.04 191.87 120.50 191.87 121.08C191.87 121.64 192.26 122.01 192.75 122.01C192.84 122.01 192.96 121.99 193.00 121.97C192.92 122.31 192.64 122.72 192.30 122.99C192.21 123.07 192.17 123.17 192.17 123.27C192.17 123.53 192.44 123.69 192.66 123.69C192.79 123.69 192.91 123.65 193.00 123.56C193.65 122.97 194.05 122.19 194.05 121.36ZM201.81 119.18C201.81 117.33 200.42 116.36 198.86 116.36C197.78 116.36 196.98 116.89 196.64 117.48C196.63 117.41 196.63 117.36 196.63 117.29C196.63 115.92 197.53 114.84 198.80 114.84C199.24 114.84 199.60 114.91 199.93 115.08C200.05 115.15 200.18 115.17 200.31 115.17C200.71 115.17 201.15 114.86 201.15 114.37C201.15 114.24 201.11 114.12 201.06 114.02C200.74 113.45 199.64 113.20 198.80 113.20C196.24 113.20 194.76 115.06 194.76 117.68C194.76 120.13 195.86 122.16 198.50 122.16C200.48 122.16 201.81 120.87 201.81 119.18ZM199.94 119.24C199.94 119.89 199.46 120.52 198.46 120.52C197.64 120.52 197.03 119.96 197.03 119.15C197.03 118.37 197.66 117.81 198.46 117.81C199.29 117.81 199.94 118.37 199.94 119.24ZM209.64 119.62C209.64 118.44 208.94 117.76 208.42 117.53C208.86 117.32 209.50 116.83 209.50 115.49C209.50 113.99 207.89 113.20 206.16 113.20C204.41 113.20 202.82 113.99 202.82 115.49C202.82 116.83 203.44 117.32 203.88 117.53C203.36 117.76 202.67 118.44 202.67 119.62C202.67 121.25 204.34 122.16 206.16 122.16C207.98 122.16 209.64 121.23 209.64 119.62ZM207.61 115.77C207.61 116.42 206.95 116.80 206.16 116.80C205.36 116.80 204.69 116.42 204.69 115.77C204.69 115.15 205.30 114.78 206.16 114.78C207.00 114.78 207.61 115.15 207.61 115.77ZM207.77 119.52C207.77 120.15 207.04 120.57 206.16 120.57C205.25 120.57 204.54 120.15 204.54 119.52C204.54 118.79 205.35 118.36 206.16 118.36C206.95 118.36 207.77 118.79 207.77 119.52ZM217.60 119.18C217.60 117.33 216.21 116.36 214.65 116.36C213.57 116.36 212.76 116.89 212.42 117.48C212.41 117.41 212.41 117.36 212.41 117.29C212.41 115.92 213.31 114.84 214.58 114.84C215.02 114.84 215.39 114.91 215.71 115.08C215.83 115.15 215.96 115.17 216.09 115.17C216.49 115.17 216.93 114.86 216.93 114.37C216.93 114.24 216.90 114.12 216.84 114.02C216.52 113.45 215.43 113.20 214.58 113.20C212.02 113.20 210.54 115.06 210.54 117.68C210.54 120.13 211.64 122.16 214.28 122.16C216.26 122.16 217.60 120.87 217.60 119.18ZM215.72 119.24C215.72 119.89 215.24 120.52 214.24 120.52C213.42 120.52 212.81 119.96 212.81 119.15C212.81 118.37 213.44 117.81 214.24 117.81C215.08 117.81 215.72 118.37 215.72 119.24Z" fill="#627386" /></g><g aria-label="Changed Files: 529,678"><circle cx="22" cy="140" r="4" fill="#673bd6" /><path d="M39.11 135.19C36.59 135.19 34.60 137.01 34.60 139.67C34.60 142.34 36.59 144.16 39.11 144.16C40.46 144.16 41.40 143.60 42.07 142.87C42.18 142.76 42.23 142.62 42.23 142.47C42.23 142.15 41.97 141.87 41.63 141.87C41.46 141.87 41.28 141.95 41.18 142.08C40.64 142.67 39.88 143.01 39.11 143.01C37.29 143.01 35.94 141.61 35.94 139.67C35.94 137.72 37.29 136.33 39.11 136.33C39.86 136.33 40.67 136.69 41.18 137.28C41.28 137.42 41.46 137.49 41.62 137.49C41.96 137.49 42.23 137.21 42.23 136.89C42.23 136.73 42.18 136.59 42.07 136.47C41.41 135.73 40.46 135.19 39.11 135.19ZM49.17 139.94C49.17 138.62 48.22 137.56 46.90 137.56C45.79 137.56 45.22 138.10 44.92 138.60L44.92 135.81C44.92 135.51 44.66 135.25 44.36 135.25C44.02 135.25 43.76 135.51 43.76 135.81L43.76 143.51C43.76 143.82 44.02 144.08 44.34 144.08C44.66 144.08 44.92 143.82 44.92 143.51L44.92 140.56C44.92 139.38 45.54 138.59 46.53 138.59C47.47 138.59 48.01 139.29 48.01 140.33L48.01 143.51C48.01 143.82 48.27 144.08 48.59 144.08C48.91 144.08 49.17 143.82 49.17 143.51ZM56.09 139.75C56.09 138.15 54.92 137.56 53.56 137.56C52.72 137.56 51.77 137.84 51.17 138.44C51.09 138.53 51.06 138.63 51.06 138.74C51.06 139.01 51.30 139.19 51.54 139.19C51.63 139.19 51.73 139.15 51.82 139.09C52.29 138.72 52.81 138.54 53.40 138.54C54.28 138.54 54.93 139.01 54.93 139.80L54.93 140.15L53.12 140.15C51.82 140.15 50.68 140.66 50.68 142.08C50.68 143.45 51.82 144.16 52.86 144.16C53.84 144.16 54.42 143.86 54.93 143.30L54.93 143.51C54.93 143.88 55.23 144.08 55.46 144.08L55.50 144.08C55.83 144.08 56.09 143.82 56.09 143.51ZM54.93 140.96L54.93 141.84C54.93 142.58 54.09 143.34 53.17 143.34C52.33 143.34 51.85 142.83 51.85 142.10C51.85 141.35 52.45 140.96 53.44 140.96ZM63.34 139.97C63.34 138.64 62.38 137.56 61.05 137.56C59.96 137.56 59.40 138.10 59.10 138.60L59.10 138.20C59.10 137.90 58.84 137.64 58.54 137.64C58.21 137.64 57.95 137.90 57.95 138.20L57.95 143.51C57.95 143.82 58.21 144.08 58.52 144.08C58.84 144.08 59.10 143.82 59.10 143.51L59.10 140.49C59.10 139.42 59.67 138.59 60.68 138.59C61.61 138.59 62.18 139.32 62.18 140.36L62.18 143.51C62.18 143.82 62.44 144.08 62.76 144.08C63.08 144.08 63.34 143.82 63.34 143.51ZM70.84 138.20C70.84 137.90 70.58 137.64 70.28 137.64C69.95 137.64 69.69 137.90 69.69 138.20L69.69 138.63C69.18 137.96 68.45 137.56 67.62 137.56C65.99 137.56 64.84 138.79 64.84 140.81C64.84 142.86 66.01 144.05 67.62 144.05C68.48 144.05 69.22 143.60 69.69 142.96L69.69 143.79C69.69 145.13 68.72 145.60 67.75 145.60C67.06 145.60 66.51 145.46 66.03 145.05C65.94 144.99 65.85 144.96 65.73 144.96C65.47 144.96 65.24 145.18 65.24 145.46C65.24 145.59 65.29 145.70 65.37 145.78C65.98 146.37 66.86 146.55 67.75 146.55C69.28 146.55 70.84 145.91 70.84 143.75ZM69.69 140.83C69.69 142.12 68.84 143.03 67.80 143.03C66.63 143.03 66.03 142.10 66.03 140.81C66.03 139.50 66.63 138.59 67.80 138.59C68.84 138.59 69.69 139.49 69.69 140.78ZM78.51 140.65C78.51 140.40 78.45 140.13 78.40 139.92C78.03 138.51 76.99 137.56 75.47 137.56C73.65 137.56 72.34 139.03 72.34 140.85C72.34 142.83 73.70 144.16 75.57 144.16C76.50 144.16 78.11 143.68 78.11 142.97C78.11 142.53 77.67 142.43 77.38 142.57C76.93 142.91 76.22 143.22 75.69 143.22C74.42 143.22 73.64 142.35 73.55 141.27L77.91 141.27C78.24 141.27 78.51 140.96 78.51 140.65ZM73.55 140.41C73.60 139.54 74.21 138.50 75.46 138.50C76.80 138.50 77.37 139.57 77.39 140.41ZM85.64 135.81C85.64 135.51 85.38 135.25 85.08 135.25C84.74 135.25 84.48 135.51 84.48 135.81L84.48 138.63C83.97 137.96 83.36 137.56 82.41 137.56C80.77 137.56 79.62 138.85 79.62 140.87C79.62 142.92 80.79 144.16 82.41 144.16C83.39 144.16 84.00 143.73 84.48 143.10L84.48 143.51C84.48 143.82 84.74 144.08 85.05 144.08C85.38 144.08 85.64 143.82 85.64 143.51ZM84.48 140.91C84.48 142.21 83.83 143.13 82.71 143.13C81.54 143.13 80.81 142.18 80.81 140.87C80.81 139.55 81.54 138.59 82.71 138.59C83.83 138.59 84.48 139.54 84.48 140.83ZM96.76 135.91C96.76 135.58 96.52 135.33 96.20 135.33L91.73 135.33C91.27 135.33 90.89 135.71 90.89 136.17L90.89 143.44C90.89 143.79 91.17 144.08 91.52 144.08C91.89 144.08 92.17 143.79 92.17 143.44L92.17 140.15L96.11 140.15C96.43 140.15 96.67 139.89 96.67 139.59C96.67 139.25 96.43 139.01 96.11 139.01L92.17 139.01L92.17 136.47L96.20 136.47C96.52 136.47 96.76 136.21 96.76 135.91ZM98.65 135.39C98.25 135.39 97.91 135.73 97.91 136.15C97.91 136.55 98.25 136.89 98.65 136.89C99.06 136.89 99.39 136.55 99.39 136.15C99.39 135.73 99.06 135.39 98.65 135.39ZM99.23 138.20C99.23 137.90 98.97 137.64 98.67 137.64C98.34 137.64 98.08 137.90 98.08 138.20L98.08 143.51C98.08 143.82 98.34 144.08 98.65 144.08C98.97 144.08 99.23 143.82 99.23 143.51ZM102.26 135.81C102.26 135.51 102.00 135.25 101.70 135.25C101.37 135.25 101.11 135.51 101.11 135.81L101.11 143.51C101.11 143.82 101.37 144.08 101.68 144.08C102.00 144.08 102.26 143.82 102.26 143.51ZM109.93 140.65C109.93 140.40 109.87 140.13 109.82 139.92C109.45 138.51 108.41 137.56 106.89 137.56C105.07 137.56 103.76 139.03 103.76 140.85C103.76 142.83 105.12 144.16 106.99 144.16C107.92 144.16 109.53 143.68 109.53 142.97C109.53 142.53 109.09 142.43 108.80 142.57C108.35 142.91 107.64 143.22 107.11 143.22C105.84 143.22 105.06 142.35 104.97 141.27L109.33 141.27C109.66 141.27 109.93 140.96 109.93 140.65ZM104.97 140.41C105.02 139.54 105.63 138.50 106.88 138.50C108.22 138.50 108.79 139.57 108.81 140.41ZM116.02 142.10C115.90 139.89 112.30 140.50 112.17 139.37C112.12 138.87 112.66 138.49 113.46 138.49C114.05 138.49 114.61 138.68 115.02 138.97C115.09 139.03 115.18 139.06 115.29 139.06C115.52 139.06 115.74 138.87 115.74 138.60C115.74 138.50 115.70 138.40 115.63 138.32C115.13 137.84 114.34 137.56 113.44 137.56C111.91 137.56 110.99 138.29 111.05 139.41C111.17 141.52 114.76 140.87 114.89 142.26C114.94 142.83 114.42 143.23 113.52 143.23C112.87 143.23 112.22 142.97 111.75 142.63C111.66 142.57 111.57 142.54 111.45 142.54C111.18 142.54 110.95 142.75 110.95 143.03C110.95 143.16 111.00 143.26 111.09 143.34C111.66 143.91 112.61 144.16 113.47 144.16C115.13 144.16 116.08 143.30 116.02 142.10Z" fill="#22272e" /><path d="M176.19 141.15C176.19 139.40 174.88 138.34 173.41 138.34C172.62 138.34 171.91 138.66 171.50 139.07L171.50 136.95L174.89 136.95C175.32 136.95 175.69 136.59 175.69 136.15C175.69 135.69 175.32 135.33 174.89 135.33L170.69 135.33C170.12 135.33 169.65 135.80 169.65 136.37L169.65 139.70C169.65 140.20 170.02 140.58 170.59 140.58C170.85 140.58 171.10 140.50 171.30 140.36C171.77 140.05 172.23 139.94 172.76 139.94C173.75 139.94 174.32 140.46 174.32 141.23C174.32 141.93 173.73 142.52 172.71 142.52C172.08 142.52 171.49 142.35 170.98 142.04C170.82 141.95 170.65 141.89 170.50 141.89C170.04 141.89 169.61 142.25 169.61 142.73C169.61 142.86 169.65 142.99 169.72 143.10C170.12 143.78 171.59 144.16 172.72 144.16C174.81 144.16 176.19 143.00 176.19 141.15ZM183.86 143.17C183.86 142.74 183.50 142.38 183.07 142.38L180.25 142.38C182.50 140.74 183.72 139.45 183.72 137.97C183.72 136.24 182.25 135.20 180.40 135.20C179.31 135.20 177.86 135.67 177.44 136.33C177.36 136.45 177.32 136.58 177.32 136.71C177.32 137.18 177.70 137.54 178.13 137.54C178.32 137.54 178.49 137.49 178.66 137.37C179.16 137.03 179.75 136.84 180.44 136.84C181.16 136.84 181.85 137.21 181.85 137.97C181.85 138.98 180.81 139.93 177.57 142.32C177.32 142.50 177.18 142.80 177.18 143.10C177.18 143.62 177.60 144 178.05 144L183.07 144C183.50 144 183.86 143.64 183.86 143.17ZM184.84 138.16C184.84 140.01 186.23 140.98 187.79 140.98C188.87 140.98 189.67 140.45 190.01 139.87C190.02 139.93 190.02 139.98 190.02 140.05C190.02 141.43 189.13 142.50 187.85 142.50C187.41 142.50 187.05 142.43 186.72 142.26C186.60 142.19 186.47 142.17 186.34 142.17C185.94 142.17 185.50 142.48 185.50 142.97C185.50 143.10 185.54 143.22 185.59 143.32C185.92 143.90 187.01 144.14 187.85 144.14C190.41 144.14 191.90 142.28 191.90 139.66C191.90 137.21 190.79 135.19 188.15 135.19C186.18 135.19 184.84 136.47 184.84 138.16ZM186.71 138.10C186.71 137.45 187.19 136.82 188.19 136.82C189.01 136.82 189.62 137.38 189.62 138.19C189.62 138.97 189.00 139.53 188.19 139.53C187.36 139.53 186.71 138.97 186.71 138.10ZM194.87 143.36C194.87 142.52 194.31 142.04 193.70 142.04C193.16 142.04 192.69 142.50 192.69 143.08C192.69 143.64 193.08 144.01 193.57 144.01C193.66 144.01 193.78 143.99 193.82 143.97C193.74 144.31 193.46 144.72 193.12 144.99C193.03 145.07 192.99 145.17 192.99 145.27C192.99 145.53 193.26 145.69 193.48 145.69C193.61 145.69 193.73 145.65 193.82 145.56C194.47 144.97 194.87 144.19 194.87 143.36ZM202.63 141.18C202.63 139.33 201.24 138.36 199.68 138.36C198.60 138.36 197.80 138.89 197.46 139.48C197.45 139.41 197.45 139.36 197.45 139.29C197.45 137.92 198.34 136.84 199.62 136.84C200.06 136.84 200.42 136.91 200.75 137.08C200.87 137.15 201.00 137.18 201.13 137.18C201.53 137.18 201.97 136.86 201.97 136.37C201.97 136.24 201.93 136.12 201.88 136.02C201.56 135.45 200.46 135.20 199.62 135.20C197.06 135.20 195.58 137.06 195.58 139.68C195.58 142.13 196.68 144.16 199.32 144.16C201.30 144.16 202.63 142.87 202.63 141.18ZM200.76 141.24C200.76 141.89 200.28 142.52 199.28 142.52C198.46 142.52 197.85 141.96 197.85 141.15C197.85 140.37 198.47 139.81 199.28 139.81C200.11 139.81 200.76 140.37 200.76 141.24ZM209.94 136.26C209.94 135.72 209.50 135.33 209.04 135.33L204.08 135.33C203.64 135.33 203.27 135.69 203.27 136.12C203.27 136.59 203.64 136.95 204.08 136.95L207.72 136.95L205.13 142.82C205.08 142.93 205.05 143.05 205.05 143.17C205.05 143.64 205.43 144.08 205.97 144.08C206.35 144.08 206.70 143.86 206.85 143.52L209.86 136.63C209.91 136.53 209.94 136.40 209.94 136.26ZM217.55 141.62C217.55 140.44 216.84 139.76 216.32 139.53C216.77 139.32 217.40 138.83 217.40 137.49C217.40 135.99 215.79 135.20 214.06 135.20C212.32 135.20 210.72 135.99 210.72 137.49C210.72 138.83 211.34 139.32 211.79 139.53C211.27 139.76 210.58 140.44 210.58 141.62C210.58 143.25 212.24 144.16 214.06 144.16C215.88 144.16 217.55 143.23 217.55 141.62ZM215.52 137.77C215.52 138.42 214.85 138.80 214.06 138.80C213.27 138.80 212.59 138.42 212.59 137.77C212.59 137.15 213.20 136.78 214.06 136.78C214.91 136.78 215.52 137.15 215.52 137.77ZM215.67 141.52C215.67 142.15 214.95 142.57 214.06 142.57C213.15 142.57 212.45 142.15 212.45 141.52C212.45 140.79 213.26 140.36 214.06 140.36C214.85 140.36 215.67 140.79 215.67 141.52Z" fill="#627386" /></g><rect x="18" y="166" width="384" height="8" rx="4" fill="#f4faff" /><rect x="18.00" y="166" width="256.73" height="8" rx="4" fill="#00d559" /><rect x="274.73" y="166" width="127.27" height="8" rx="4" fill="#00a5fe" /></svg>