<svg xmlns="http://www.w3.org/2000/svg" width="420" height="184" viewBox="0 0 420 184" role="img"><rect x="0.5" y="0.5" width="419" height="183" rx="10" fill="#ffffff" stroke="#f2f4f6" /><path d="M30.21 36.59C30.21 35.87 29.59 35.25 28.87 35.25L24.09 35.25C27.90 32.48 29.97 30.30 29.97 27.79C29.97 24.87 27.48 23.11 24.36 23.11C22.51 23.11 20.05 23.90 19.34 25.02C19.21 25.22 19.14 25.44 19.14 25.66C19.14 26.45 19.78 27.07 20.51 27.07C20.84 27.07 21.12 26.98 21.41 26.78C22.25 26.21 23.26 25.88 24.42 25.88C25.63 25.88 26.80 26.52 26.80 27.79C26.80 29.51 25.04 31.11 19.56 35.16C19.14 35.47 18.90 35.98 18.90 36.48C18.90 37.36 19.61 38 20.38 38L28.87 38C29.59 38 30.21 37.38 30.21 36.59ZM35.93 36.92C35.93 35.49 34.98 34.68 33.95 34.68C33.03 34.68 32.23 35.47 32.23 36.44C32.23 37.38 32.89 38.02 33.73 38.02C33.88 38.02 34.08 37.98 34.15 37.96C34.02 38.53 33.53 39.21 32.96 39.67C32.81 39.80 32.74 39.98 32.74 40.16C32.74 40.60 33.20 40.86 33.58 40.86C33.80 40.86 33.99 40.79 34.15 40.64C35.25 39.65 35.93 38.33 35.93 36.92ZM49.26 30.67C49.26 26.89 47.37 23.11 43.19 23.11C38.99 23.11 37.12 26.89 37.12 30.67C37.12 34.46 38.99 38.26 43.19 38.26C47.37 38.26 49.26 34.46 49.26 30.67ZM46.07 30.67C46.07 33.38 45.28 35.49 43.19 35.49C41.08 35.49 40.29 33.38 40.29 30.67C40.29 27.97 41.08 25.88 43.19 25.88C45.28 25.88 46.07 27.97 46.07 30.67ZM62.57 33.97C62.57 31.97 61.38 30.83 60.50 30.43C61.25 30.08 62.33 29.24 62.33 26.98C62.33 24.45 59.60 23.11 56.68 23.11C53.73 23.11 51.02 24.45 51.02 26.98C51.02 29.24 52.08 30.08 52.83 30.43C51.95 30.83 50.78 31.97 50.78 33.97C50.78 36.72 53.60 38.26 56.68 38.26C59.76 38.26 62.57 36.70 62.57 33.97ZM59.14 27.46C59.14 28.56 58.02 29.20 56.68 29.20C55.33 29.20 54.19 28.56 54.19 27.46C54.19 26.41 55.22 25.79 56.68 25.79C58.11 25.79 59.14 26.41 59.14 27.46ZM59.40 33.80C59.40 34.88 58.17 35.58 56.68 35.58C55.14 35.58 53.95 34.88 53.95 33.80C53.95 32.57 55.31 31.84 56.68 31.84C58.02 31.84 59.40 32.57 59.40 33.80ZM76.23 30.67C76.23 26.89 74.34 23.11 70.16 23.11C65.96 23.11 64.09 26.89 64.09 30.67C64.09 34.46 65.96 38.26 70.16 38.26C74.34 38.26 76.23 34.46 76.23 30.67ZM73.04 30.67C73.04 33.38 72.25 35.49 70.16 35.49C68.05 35.49 67.26 33.38 67.26 30.67C67.26 27.97 68.05 25.88 70.16 25.88C72.25 25.88 73.04 27.97 73.04 30.67ZM81.25 36.92C81.25 35.49 80.30 34.68 79.27 34.68C78.35 34.68 77.55 35.47 77.55 36.44C77.55 37.38 78.21 38.02 79.05 38.02C79.20 38.02 79.40 37.98 79.47 37.96C79.34 38.53 78.85 39.21 78.28 39.67C78.13 39.80 78.06 39.98 78.06 40.16C78.06 40.60 78.52 40.86 78.90 40.86C79.12 40.86 79.31 40.79 79.47 40.64C80.57 39.65 81.25 38.33 81.25 36.92ZM94.58 30.67C94.58 26.89 92.69 23.11 88.51 23.11C84.31 23.11 82.44 26.89 82.44 30.67C82.44 34.46 84.31 38.26 88.51 38.26C92.69 38.26 94.58 34.46 94.58 30.67ZM91.39 30.67C91.39 33.38 90.60 35.49 88.51 35.49C86.40 35.49 85.61 33.38 85.61 30.67C85.61 27.97 86.40 25.88 88.51 25.88C90.60 25.88 91.39 27.97 91.39 30.67ZM108.22 30.67C108.22 26.89 106.33 23.11 102.15 23.11C97.95 23.11 96.08 26.89 96.08 30.67C96.08 34.46 97.95 38.26 102.15 38.26C106.33 38.26 108.22 34.46 108.22 30.67ZM105.03 30.67C105.03 33.38 104.24 35.49 102.15 35.49C100.04 35.49 99.25 33.38 99.25 30.67C99.25 27.97 100.04 25.88 102.15 25.88C104.24 25.88 105.03 27.97 105.03 30.67ZM121.86 30.67C121.86 26.89 119.97 23.11 115.79 23.11C111.59 23.11 109.72 26.89 109.72 30.67C109.72 34.46 111.59 38.26 115.79 38.26C119.97 38.26 121.86 34.46 121.86 30.67ZM118.67 30.67C118.67 33.38 117.88 35.49 115.79 35.49C113.68 35.49 112.89 33.38 112.89 30.67C112.89 27.97 113.68 25.88 115.79 25.88C117.88 25.88 118.67 27.97 118.67 30.67ZM126.88 36.92C126.88 35.49 125.93 34.68 124.90 34.68C123.97 34.68 123.18 35.47 123.18 36.44C123.18 37.38 123.84 38.02 124.68 38.02C124.83 38.02 125.03 37.98 125.10 37.96C124.96 38.53 124.48 39.21 123.91 39.67C123.75 39.80 123.69 39.98 123.69 40.16C123.69 40.60 124.15 40.86 124.52 40.86C124.74 40.86 124.94 40.79 125.10 40.64C126.20 39.65 126.88 38.33 126.88 36.92ZM140.21 30.67C140.21 26.89 138.32 23.11 134.14 23.11C129.94 23.11 128.07 26.89 128.07 30.67C128.07 34.46 129.94 38.26 134.14 38.26C138.32 38.26 140.21 34.46 140.21 30.67ZM137.02 30.67C137.02 33.38 136.23 35.49 134.14 35.49C132.03 35.49 131.23 33.38 131.23 30.67C131.23 27.97 132.03 25.88 134.14 25.88C136.23 25.88 137.02 27.97 137.02 30.67ZM153.17 36.59C153.17 35.87 152.55 35.25 151.83 35.25L147.05 35.25C150.86 32.48 152.93 30.30 152.93 27.79C152.93 24.87 150.44 23.11 147.32 23.11C145.47 23.11 143.00 23.90 142.30 25.02C142.17 25.22 142.10 25.44 142.10 25.66C142.10 26.45 142.74 27.07 143.47 27.07C143.80 27.07 144.08 26.98 144.37 26.78C145.20 26.21 146.22 25.88 147.38 25.88C148.59 25.88 149.76 26.52 149.76 27.79C149.76 29.51 148.00 31.11 142.52 35.16C142.10 35.47 141.86 35.98 141.86 36.48C141.86 37.36 142.56 38 143.33 38L151.83 38C152.55 38 153.17 37.38 153.17 36.59ZM166.72 33.97C166.72 31.97 165.53 30.83 164.65 30.43C165.40 30.08 166.48 29.24 166.48 26.98C166.48 24.45 163.75 23.11 160.82 23.11C157.88 23.11 155.17 24.45 155.17 26.98C155.17 29.24 156.23 30.08 156.97 30.43C156.09 30.83 154.93 31.97 154.93 33.97C154.93 36.72 157.74 38.26 160.82 38.26C163.90 38.26 166.72 36.70 166.72 33.97ZM163.29 27.46C163.29 28.56 162.17 29.20 160.82 29.20C159.48 29.20 158.34 28.56 158.34 27.46C158.34 26.41 159.37 25.79 160.82 25.79C162.25 25.79 163.29 26.41 163.29 27.46ZM163.55 33.80C163.55 34.88 162.32 35.58 160.82 35.58C159.28 35.58 158.10 34.88 158.10 33.80C158.10 32.57 159.46 31.84 160.82 31.84C162.17 31.84 163.55 32.57 163.55 33.80ZM188.15 30.67C188.15 26.25 184.96 23.33 180.36 23.33L176.33 23.33C175.37 23.33 174.57 24.12 174.57 25.09L174.57 36.24C174.57 37.21 175.37 38 176.33 38L180.36 38C184.96 38 188.15 35.10 188.15 30.67ZM184.96 30.67C184.96 33.16 183.26 35.25 180.36 35.25L177.70 35.25L177.70 26.08L180.36 26.08C183.37 26.08 184.96 28.08 184.96 30.67ZM200.86 32.68C200.86 29.66 198.75 27.11 195.23 27.11C191.73 27.11 189.62 29.66 189.62 32.68C189.62 35.71 191.73 38.26 195.23 38.26C198.75 38.26 200.86 35.71 200.86 32.68ZM197.96 32.68C197.96 34.35 196.97 35.78 195.23 35.78C193.49 35.78 192.53 34.35 192.53 32.68C192.53 31.03 193.49 29.60 195.23 29.60C196.97 29.60 197.96 31.03 197.96 32.68ZM218.05 28.58C218.05 27.88 217.47 27.24 216.66 27.24C216.04 27.24 215.47 27.64 215.32 28.23L213.58 34.52L211.58 28.36C211.36 27.70 210.72 27.24 210.04 27.24C209.29 27.24 208.65 27.70 208.43 28.36L206.43 34.52L204.69 28.23C204.54 27.64 203.97 27.24 203.37 27.24C202.54 27.24 201.96 27.90 201.96 28.58C201.96 28.72 201.99 28.85 202.03 28.98L204.41 36.77C204.65 37.56 205.42 38.13 206.25 38.13L206.30 38.13C207.13 38.13 207.90 37.56 208.15 36.77L210.02 30.76L211.89 36.77C212.13 37.58 212.88 38.13 213.73 38.13L213.78 38.13C214.59 38.13 215.36 37.56 215.60 36.77L217.98 28.98C218.02 28.85 218.05 28.72 218.05 28.58ZM229.82 31.16C229.82 29.09 228.03 27.11 225.70 27.11C224.07 27.11 223.06 27.97 222.64 28.63L222.64 28.61C222.64 27.86 222.03 27.24 221.28 27.24C220.47 27.24 219.85 27.86 219.85 28.61L219.85 36.75C219.85 37.52 220.47 38.13 221.24 38.13C222.03 38.13 222.64 37.52 222.64 36.75L222.64 32.06C222.64 30.54 223.74 29.60 224.84 29.60C226.03 29.60 227.02 30.54 227.02 32.02L227.02 36.75C227.02 37.52 227.64 38.13 228.41 38.13C229.20 38.13 229.82 37.52 229.82 36.75ZM235.38 24.56C235.38 23.81 234.77 23.19 234.02 23.19C233.20 23.19 232.59 23.81 232.59 24.56L232.59 36.75C232.59 37.52 233.20 38.13 233.97 38.13C234.77 38.13 235.38 37.52 235.38 36.75ZM248.71 32.68C248.71 29.66 246.60 27.11 243.08 27.11C239.58 27.11 237.47 29.66 237.47 32.68C237.47 35.71 239.58 38.26 243.08 38.26C246.60 38.26 248.71 35.71 248.71 32.68ZM245.81 32.68C245.81 34.35 244.82 35.78 243.08 35.78C241.34 35.78 240.38 34.35 240.38 32.68C240.38 31.03 241.34 29.60 243.08 29.60C244.82 29.60 245.81 31.03 245.81 32.68ZM259.96 31.14C259.96 28.08 257.73 27.11 255.31 27.11C254.08 27.11 251.71 27.55 251.05 28.61C250.96 28.76 250.89 28.96 250.89 29.16C250.89 29.82 251.44 30.23 251.95 30.23C252.12 30.23 252.30 30.17 252.45 30.08C253.18 29.60 253.99 29.40 254.83 29.40C256.24 29.40 257.16 30.10 257.16 31.18L257.16 31.53L253.80 31.53C252.10 31.53 250.10 32.26 250.10 34.74C250.10 37.12 252.10 38.26 253.80 38.26C255.40 38.26 256.44 37.87 257.16 37.01C257.16 37.49 257.62 38.13 258.37 38.13L258.59 38.13C259.34 38.13 259.96 37.52 259.96 36.75ZM257.16 33.42L257.16 33.91C257.16 35.62 255.82 36.37 254.92 36.37C253.82 36.37 252.92 35.80 252.92 34.81C252.92 33.78 253.82 33.42 254.92 33.42ZM262.07 32.70C262.07 36.24 264.31 38.26 267.00 38.26C268.27 38.26 269.44 37.69 270.05 36.64L270.05 36.75C270.05 37.52 270.67 38.13 271.46 38.13C272.23 38.13 272.85 37.52 272.85 36.75L272.85 24.56C272.85 23.81 272.23 23.19 271.42 23.19C270.67 23.19 270.05 23.81 270.05 24.56L270.05 28.74C269.44 27.66 268.25 27.11 267.00 27.11C264.29 27.11 262.07 29.22 262.07 32.70ZM264.95 32.70C264.95 30.85 266.03 29.60 267.66 29.60C268.78 29.60 270.05 30.78 270.05 32.59L270.05 32.83C270.05 34.61 268.78 35.78 267.66 35.78C266.03 35.78 264.95 34.55 264.95 32.70ZM284.05 34.85C284.05 30.56 277.75 31.88 277.75 30.30C277.75 29.71 278.41 29.24 279.43 29.24C280.28 29.24 281.14 29.49 281.82 29.88C281.98 29.97 282.18 30.01 282.35 30.01C282.92 30.01 283.45 29.55 283.45 28.96C283.45 28.76 283.39 28.56 283.28 28.41C282.68 27.55 280.79 27.11 279.40 27.11C276.61 27.11 275.05 28.67 275.05 30.45C275.05 34.63 281.36 33.20 281.36 34.96C281.36 35.62 280.79 36.11 279.58 36.11C278.66 36.11 277.56 35.73 276.72 35.25C276.54 35.14 276.35 35.10 276.15 35.10C275.55 35.10 274.98 35.60 274.98 36.26C274.98 36.48 275.05 36.68 275.18 36.86C275.84 37.80 278.06 38.26 279.45 38.26C282.40 38.26 284.05 36.79 284.05 34.85Z" fill="#22272e" /><path d="M20.26 49.88C20.26 49.54 19.98 49.25 19.64 49.25C19.26 49.25 18.98 49.54 18.98 49.88L18.98 57.44C18.98 57.79 19.26 58.08 19.61 58.08C19.98 58.08 20.26 57.79 20.26 57.44ZM27.55 53.97C27.55 52.64 26.59 51.56 25.27 51.56C24.18 51.56 23.62 52.10 23.32 52.60L23.32 52.20C23.32 51.90 23.06 51.64 22.76 51.64C22.42 51.64 22.16 51.90 22.16 52.20L22.16 57.51C22.16 57.82 22.42 58.08 22.73 58.08C23.06 58.08 23.32 57.82 23.32 57.51L23.32 54.49C23.32 53.42 23.89 52.59 24.89 52.59C25.83 52.59 26.40 53.32 26.40 54.36L26.40 57.51C26.40 57.82 26.66 58.08 26.97 58.08C27.30 58.08 27.55 57.82 27.55 57.51ZM38.97 49.91C38.97 49.58 38.72 49.33 38.41 49.33L32.70 49.33C32.39 49.33 32.14 49.58 32.14 49.89C32.14 50.21 32.39 50.47 32.70 50.47L34.91 50.47L34.91 57.44C34.91 57.79 35.20 58.08 35.55 58.08C35.91 58.08 36.20 57.79 36.20 57.44L36.20 50.47L38.41 50.47C38.72 50.47 38.97 50.21 38.97 49.91ZM44.74 54.85C44.74 53.05 43.53 51.56 41.57 51.56C39.62 51.56 38.41 53.05 38.41 54.85C38.41 56.66 39.62 58.16 41.57 58.16C43.53 58.16 44.74 56.66 44.74 54.85ZM43.53 54.85C43.53 56.06 42.83 57.13 41.57 57.13C40.32 57.13 39.61 56.06 39.61 54.85C39.61 53.66 40.32 52.59 41.57 52.59C42.83 52.59 43.53 53.66 43.53 54.85ZM49.16 57.55C49.16 57.27 48.95 57.06 48.67 57.06C48.54 57.06 48.38 57.13 48.24 57.13C47.86 57.13 47.63 56.83 47.63 56.35L47.63 52.73L48.48 52.73C48.76 52.73 48.98 52.51 48.98 52.24C48.98 51.94 48.76 51.72 48.48 51.72L47.63 51.72L47.63 50.49C47.63 50.19 47.37 49.93 47.05 49.93C46.72 49.93 46.46 50.19 46.46 50.49L46.46 51.72L45.85 51.72C45.56 51.72 45.34 51.94 45.34 52.22C45.34 52.51 45.56 52.73 45.85 52.73L46.46 52.73L46.46 56.62C46.46 57.61 46.98 58.16 47.96 58.16C48.65 58.16 49.16 57.96 49.16 57.55ZM55.26 53.75C55.26 52.15 54.09 51.56 52.74 51.56C51.89 51.56 50.94 51.84 50.34 52.44C50.27 52.53 50.23 52.63 50.23 52.73C50.23 53.01 50.47 53.19 50.71 53.19C50.80 53.19 50.90 53.15 50.99 53.09C51.46 52.72 51.98 52.54 52.57 52.54C53.45 52.54 54.10 53.01 54.10 53.80L54.10 54.15L52.29 54.15C50.99 54.15 49.85 54.66 49.85 56.08C49.85 57.45 50.99 58.16 52.03 58.16C53.01 58.16 53.59 57.86 54.10 57.30L54.10 57.51C54.10 57.88 54.40 58.08 54.63 58.08L54.67 58.08C55.00 58.08 55.26 57.82 55.26 57.51ZM54.10 54.96L54.10 55.84C54.10 56.58 53.26 57.34 52.35 57.34C51.50 57.34 51.02 56.83 51.02 56.10C51.02 55.35 51.62 54.96 52.61 54.96ZM58.27 49.81C58.27 49.51 58.01 49.25 57.71 49.25C57.38 49.25 57.12 49.51 57.12 49.81L57.12 57.51C57.12 57.82 57.38 58.08 57.69 58.08C58.01 58.08 58.27 57.82 58.27 57.51Z" fill="#627386" /><line x1="18" y1="76" x2="48" y2="76" stroke="#627386" stroke-opacity="0.4" /><g aria-label="Packages: 103"><circle cx="22" cy="96" r="4" fill="#673bd6" /><path d="M41.38 93.99C41.38 92.55 40.40 91.33 38.62 91.33L35.82 91.33C35.35 91.33 34.98 91.71 34.98 92.17L34.98 99.44C34.98 99.79 35.26 100.08 35.61 100.08C35.98 100.08 36.26 99.79 36.26 99.44L36.26 96.66L38.62 96.66C40.37 96.66 41.38 95.44 41.38 93.99ZM40.06 93.99C40.06 94.89 39.40 95.52 38.45 95.52L36.26 95.52L36.26 92.47L38.45 92.47C39.40 92.47 40.06 93.08 40.06 93.99ZM47.48 95.75C47.48 94.15 46.31 93.56 44.96 93.56C44.11 93.56 43.17 93.84 42.57 94.44C42.49 94.53 42.45 94.63 42.45 94.73C42.45 95.01 42.70 95.19 42.93 95.19C43.02 95.19 43.13 95.15 43.22 95.09C43.69 94.72 44.21 94.54 44.79 94.54C45.67 94.54 46.32 95.01 46.32 95.80L46.32 96.15L44.52 96.15C43.22 96.15 42.07 96.66 42.07 98.08C42.07 99.45 43.22 100.16 44.26 100.16C45.23 100.16 45.82 99.86 46.32 99.30L46.32 99.51C46.32 99.88 46.62 100.08 46.86 100.08L46.90 100.08C47.22 100.08 47.48 99.82 47.48 99.51ZM46.32 96.96L46.32 97.84C46.32 98.58 45.48 99.34 44.57 99.34C43.72 99.34 43.24 98.83 43.24 98.10C43.24 97.35 43.84 96.96 44.83 96.96ZM54.35 99.05C54.35 98.75 54.07 98.54 53.80 98.54C53.67 98.54 53.54 98.58 53.44 98.66C53.08 98.97 52.68 99.13 52.21 99.13C50.97 99.13 50.16 98.17 50.16 96.85C50.16 95.54 50.97 94.59 52.21 94.59C52.67 94.59 53.08 94.73 53.44 95.05C53.54 95.14 53.67 95.19 53.80 95.19C54.09 95.19 54.33 94.96 54.33 94.67C54.33 94.57 54.31 94.47 54.24 94.40C53.81 93.90 53.11 93.56 52.15 93.56C50.26 93.56 48.96 94.98 48.96 96.85C48.96 98.74 50.26 100.16 52.15 100.16C53.08 100.16 53.72 99.84 54.19 99.39C54.29 99.30 54.35 99.17 54.35 99.05ZM60.92 99.51C60.92 99.39 60.88 99.26 60.81 99.17L58.74 96.57L60.69 94.53C60.78 94.42 60.83 94.31 60.83 94.18C60.83 93.89 60.57 93.63 60.29 93.63C60.16 93.63 60.01 93.69 59.91 93.80L56.95 96.92L56.95 91.81C56.95 91.51 56.69 91.25 56.39 91.25C56.05 91.25 55.79 91.51 55.79 91.81L55.79 99.51C55.79 99.82 56.05 100.08 56.36 100.08C56.69 100.08 56.95 99.82 56.95 99.51L56.95 98.26L57.91 97.28L59.90 99.86C60.00 100.01 60.18 100.09 60.35 100.09C60.70 100.09 60.92 99.78 60.92 99.51ZM67.59 95.75C67.59 94.15 66.42 93.56 65.07 93.56C64.23 93.56 63.28 93.84 62.68 94.44C62.60 94.53 62.56 94.63 62.56 94.73C62.56 95.01 62.81 95.19 63.04 95.19C63.13 95.19 63.24 95.15 63.33 95.09C63.80 94.72 64.32 94.54 64.90 94.54C65.78 94.54 66.44 95.01 66.44 95.80L66.44 96.15L64.63 96.15C63.33 96.15 62.18 96.66 62.18 98.08C62.18 99.45 63.33 100.16 64.37 100.16C65.34 100.16 65.93 99.86 66.44 99.30L66.44 99.51C66.44 99.88 66.73 100.08 66.97 100.08L67.01 100.08C67.33 100.08 67.59 99.82 67.59 99.51ZM66.44 96.96L66.44 97.84C66.44 98.58 65.59 99.34 64.68 99.34C63.84 99.34 63.35 98.83 63.35 98.10C63.35 97.35 63.95 96.96 64.94 96.96ZM75.08 94.20C75.08 93.90 74.82 93.64 74.52 93.64C74.18 93.64 73.92 93.90 73.92 94.20L73.92 94.63C73.42 93.95 72.69 93.56 71.86 93.56C70.23 93.56 69.07 94.79 69.07 96.81C69.07 98.86 70.24 100.05 71.86 100.05C72.71 100.05 73.45 99.60 73.92 98.96L73.92 99.79C73.92 101.13 72.96 101.60 71.99 101.60C71.30 101.60 70.75 101.46 70.27 101.05C70.18 100.99 70.09 100.96 69.97 100.96C69.71 100.96 69.48 101.18 69.48 101.46C69.48 101.59 69.53 101.70 69.61 101.78C70.22 102.37 71.10 102.55 71.99 102.55C73.52 102.55 75.08 101.91 75.08 99.75ZM73.92 96.83C73.92 98.11 73.08 99.03 72.04 99.03C70.87 99.03 70.27 98.10 70.27 96.81C70.27 95.50 70.87 94.59 72.04 94.59C73.08 94.59 73.92 95.49 73.92 96.78ZM82.75 96.65C82.75 96.40 82.69 96.13 82.63 95.92C82.27 94.51 81.23 93.56 79.71 93.56C77.89 93.56 76.58 95.03 76.58 96.85C76.58 98.83 77.94 100.16 79.81 100.16C80.73 100.16 82.35 99.67 82.35 98.97C82.35 98.53 81.91 98.43 81.62 98.57C81.16 98.91 80.46 99.22 79.93 99.22C78.66 99.22 77.88 98.35 77.78 97.27L82.15 97.27C82.48 97.27 82.75 96.96 82.75 96.65ZM77.78 96.41C77.84 95.54 78.45 94.50 79.70 94.50C81.03 94.50 81.61 95.57 81.63 96.41ZM88.83 98.10C88.72 95.89 85.12 96.50 84.99 95.37C84.93 94.86 85.48 94.49 86.27 94.49C86.87 94.49 87.43 94.68 87.83 94.97C87.91 95.03 88.00 95.06 88.11 95.06C88.34 95.06 88.56 94.86 88.56 94.61C88.56 94.50 88.52 94.40 88.44 94.32C87.95 93.84 87.16 93.56 86.26 93.56C84.73 93.56 83.80 94.29 83.87 95.41C83.99 97.52 87.57 96.87 87.70 98.26C87.76 98.83 87.24 99.23 86.34 99.23C85.69 99.23 85.04 98.97 84.57 98.64C84.48 98.57 84.39 98.54 84.27 98.54C84.00 98.54 83.76 98.75 83.76 99.03C83.76 99.16 83.82 99.26 83.91 99.34C84.48 99.91 85.43 100.16 86.29 100.16C87.95 100.16 88.90 99.30 88.83 98.10Z" fill="#22272e" /><path d="M201.45 92.32C201.45 91.73 200.96 91.26 200.37 91.26C200.07 91.26 199.79 91.38 199.59 91.58L197.59 93.60C197.43 93.76 197.36 93.95 197.36 94.15C197.36 94.58 197.72 94.92 198.12 94.92C198.31 94.92 198.49 94.85 198.63 94.71L199.61 93.71L199.61 99.17C199.61 99.66 200.02 100.08 200.52 100.08C201.03 100.08 201.45 99.66 201.45 99.17ZM209.93 95.67C209.93 93.44 208.81 91.20 206.34 91.20C203.86 91.20 202.75 93.44 202.75 95.67C202.75 97.91 203.86 100.16 206.34 100.16C208.81 100.16 209.93 97.91 209.93 95.67ZM208.04 95.67C208.04 97.27 207.57 98.52 206.34 98.52C205.09 98.52 204.62 97.27 204.62 95.67C204.62 94.07 205.09 92.84 206.34 92.84C207.57 92.84 208.04 94.07 208.04 95.67ZM217.43 97.63C217.53 96.07 216.48 95.53 216.48 95.53C216.48 95.53 217.44 95.03 217.34 93.55C217.23 92.11 216.09 91.20 214.06 91.20C212.87 91.20 211.93 91.55 211.21 92.12C211.03 92.27 210.94 92.47 210.94 92.68C210.94 93.14 211.34 93.46 211.75 93.46C211.90 93.46 212.06 93.42 212.19 93.33C212.70 93.01 213.27 92.84 213.87 92.84C214.78 92.84 215.48 93.05 215.48 93.73C215.48 94.45 215.05 94.79 214.18 94.79C213.55 94.79 213.28 95.14 213.28 95.59C213.28 96.05 213.55 96.41 214.23 96.41C215.11 96.41 215.62 96.72 215.62 97.41C215.62 98.06 215.04 98.52 213.98 98.52C213.38 98.52 212.70 98.31 212.12 97.97C211.98 97.88 211.82 97.84 211.67 97.84C211.24 97.84 210.82 98.19 210.82 98.66C210.82 98.79 210.86 98.91 210.93 99.01C211.33 99.69 212.80 100.16 214.05 100.16C216.13 100.16 217.32 99.26 217.43 97.63Z" fill="#627386" /></g><g aria-label="Organizations: 7"><circle cx="22" cy="118" r="4" fill="#2c96f2" /><path d="M43.33 117.67C43.33 115.10 41.54 113.19 38.97 113.19C36.38 113.19 34.60 115.10 34.60 117.67C34.60 120.25 36.38 122.16 38.97 122.16C41.54 122.16 43.33 120.25 43.33 117.67ZM42.01 117.67C42.01 119.58 40.81 121.01 38.97 121.01C37.11 121.01 35.94 119.58 35.94 117.67C35.94 115.75 37.11 114.33 38.97 114.33C40.81 114.33 42.01 115.75 42.01 117.67ZM48.18 116.15C48.18 115.85 47.96 115.63 47.66 115.63C46.96 115.63 46.39 116.22 46.04 116.70L46.04 116.20C46.04 115.90 45.78 115.64 45.48 115.64C45.14 115.64 44.88 115.90 44.88 116.20L44.88 121.51C44.88 121.82 45.13 122.06 45.44 122.08L45.45 122.08C45.78 122.08 46.04 121.82 46.04 121.51L46.04 118.28C46.04 117.46 46.61 116.81 47.60 116.76C47.92 116.75 48.18 116.49 48.18 116.15ZM54.90 116.20C54.90 115.90 54.64 115.64 54.34 115.64C54.01 115.64 53.75 115.90 53.75 116.20L53.75 116.63C53.24 115.95 52.51 115.56 51.68 115.56C50.05 115.56 48.90 116.79 48.90 118.81C48.90 120.86 50.07 122.05 51.68 122.05C52.54 122.05 53.28 121.60 53.75 120.96L53.75 121.79C53.75 123.13 52.78 123.60 51.81 123.60C51.12 123.60 50.57 123.46 50.09 123.05C50.00 122.99 49.91 122.96 49.80 122.96C49.53 122.96 49.30 123.18 49.30 123.46C49.30 123.59 49.35 123.70 49.43 123.78C50.04 124.37 50.93 124.55 51.81 124.55C53.34 124.55 54.90 123.91 54.90 121.75ZM53.75 118.83C53.75 120.11 52.90 121.03 51.86 121.03C50.69 121.03 50.09 120.10 50.09 118.81C50.09 117.50 50.69 116.59 51.86 116.59C52.90 116.59 53.75 117.49 53.75 118.78ZM61.82 117.75C61.82 116.15 60.65 115.56 59.30 115.56C58.45 115.56 57.50 115.84 56.91 116.44C56.83 116.53 56.79 116.63 56.79 116.73C56.79 117.01 57.04 117.19 57.27 117.19C57.36 117.19 57.46 117.15 57.56 117.09C58.02 116.72 58.54 116.54 59.13 116.54C60.01 116.54 60.66 117.01 60.66 117.80L60.66 118.15L58.86 118.15C57.56 118.15 56.41 118.66 56.41 120.08C56.41 121.45 57.56 122.16 58.60 122.16C59.57 122.16 60.16 121.86 60.66 121.30L60.66 121.51C60.66 121.88 60.96 122.08 61.20 122.08L61.23 122.08C61.56 122.08 61.82 121.82 61.82 121.51ZM60.66 118.96L60.66 119.84C60.66 120.58 59.82 121.34 58.91 121.34C58.06 121.34 57.58 120.83 57.58 120.10C57.58 119.35 58.18 118.96 59.17 118.96ZM69.07 117.97C69.07 116.64 68.11 115.56 66.79 115.56C65.69 115.56 65.13 116.10 64.84 116.61L64.84 116.20C64.84 115.90 64.58 115.64 64.28 115.64C63.94 115.64 63.68 115.90 63.68 116.20L63.68 121.51C63.68 121.82 63.94 122.08 64.25 122.08C64.58 122.08 64.84 121.82 64.84 121.51L64.84 118.49C64.84 117.42 65.41 116.59 66.41 116.59C67.34 116.59 67.92 117.32 67.92 118.36L67.92 121.51C67.92 121.82 68.18 122.08 68.49 122.08C68.81 122.08 69.07 121.82 69.07 121.51ZM71.52 113.39C71.11 113.39 70.78 113.73 70.78 114.15C70.78 114.55 71.11 114.89 71.52 114.89C71.93 114.89 72.26 114.55 72.26 114.15C72.26 113.73 71.93 113.39 71.52 113.39ZM72.10 116.20C72.10 115.90 71.84 115.64 71.54 115.64C71.21 115.64 70.95 115.90 70.95 116.20L70.95 121.51C70.95 121.82 71.21 122.08 71.52 122.08C71.84 122.08 72.10 121.82 72.10 121.51ZM78.63 121.48C78.63 121.22 78.41 121.00 78.15 121.00L75.18 121.00L78.45 116.66C78.52 116.55 78.56 116.42 78.56 116.29C78.56 115.95 78.30 115.72 78.04 115.72L74.09 115.72C73.82 115.72 73.60 115.94 73.60 116.22C73.60 116.51 73.82 116.73 74.09 116.73L76.96 116.73L73.74 121.04C73.66 121.14 73.61 121.27 73.61 121.42C73.61 121.75 73.86 122 74.16 122L78.15 122C78.41 122 78.63 121.78 78.63 121.48ZM85.18 117.75C85.18 116.15 84.01 115.56 82.66 115.56C81.81 115.56 80.86 115.84 80.27 116.44C80.19 116.53 80.15 116.63 80.15 116.73C80.15 117.01 80.40 117.19 80.63 117.19C80.72 117.19 80.83 117.15 80.92 117.09C81.38 116.72 81.90 116.54 82.49 116.54C83.37 116.54 84.02 117.01 84.02 117.80L84.02 118.15L82.22 118.15C80.92 118.15 79.77 118.66 79.77 120.08C79.77 121.45 80.92 122.16 81.96 122.16C82.93 122.16 83.52 121.86 84.02 121.30L84.02 121.51C84.02 121.88 84.32 122.08 84.56 122.08L84.60 122.08C84.92 122.08 85.18 121.82 85.18 121.51ZM84.02 118.96L84.02 119.84C84.02 120.58 83.18 121.34 82.27 121.34C81.42 121.34 80.94 120.83 80.94 120.10C80.94 119.35 81.54 118.96 82.53 118.96ZM89.97 121.55C89.97 121.27 89.76 121.06 89.47 121.06C89.34 121.06 89.19 121.13 89.04 121.13C88.67 121.13 88.43 120.83 88.43 120.35L88.43 116.73L89.29 116.73C89.56 116.73 89.78 116.51 89.78 116.24C89.78 115.94 89.56 115.72 89.29 115.72L88.43 115.72L88.43 114.49C88.43 114.19 88.17 113.93 87.86 113.93C87.52 113.93 87.26 114.19 87.26 114.49L87.26 115.72L86.65 115.72C86.36 115.72 86.14 115.94 86.14 116.22C86.14 116.51 86.36 116.73 86.65 116.73L87.26 116.73L87.26 120.62C87.26 121.61 87.78 122.16 88.77 122.16C89.46 122.16 89.97 121.96 89.97 121.55ZM91.59 113.39C91.19 113.39 90.85 113.73 90.85 114.15C90.85 114.55 91.19 114.89 91.59 114.89C92.01 114.89 92.33 114.55 92.33 114.15C92.33 113.73 92.01 113.39 91.59 113.39ZM92.17 116.20C92.17 115.90 91.91 115.64 91.62 115.64C91.28 115.64 91.02 115.90 91.02 116.20L91.02 121.51C91.02 121.82 91.28 122.08 91.59 122.08C91.91 122.08 92.17 121.82 92.17 121.51ZM100.00 118.85C100.00 117.05 98.79 115.56 96.83 115.56C94.88 115.56 93.67 117.05 93.67 118.85C93.67 120.66 94.88 122.16 96.83 122.16C98.79 122.16 100.00 120.66 100.00 118.85ZM98.79 118.85C98.79 120.06 98.09 121.13 96.83 121.13C95.58 121.13 94.87 120.06 94.87 118.85C94.87 117.66 95.58 116.59 96.83 116.59C98.09 116.59 98.79 117.66 98.79 118.85ZM106.89 117.97C106.89 116.64 105.93 115.56 104.60 115.56C103.51 115.56 102.95 116.10 102.65 116.61L102.65 116.20C102.65 115.90 102.39 115.64 102.09 115.64C101.76 115.64 101.50 115.90 101.50 116.20L101.50 121.51C101.50 121.82 101.76 122.08 102.07 122.08C102.39 122.08 102.65 121.82 102.65 121.51L102.65 118.49C102.65 117.42 103.22 116.59 104.23 116.59C105.16 116.59 105.73 117.32 105.73 118.36L105.73 121.51C105.73 121.82 105.99 122.08 106.31 122.08C106.63 122.08 106.89 121.82 106.89 121.51ZM113.36 120.10C113.25 117.89 109.65 118.50 109.52 117.37C109.46 116.86 110.01 116.49 110.80 116.49C111.40 116.49 111.96 116.68 112.36 116.97C112.44 117.03 112.53 117.06 112.64 117.06C112.87 117.06 113.09 116.86 113.09 116.61C113.09 116.50 113.05 116.40 112.97 116.32C112.48 115.84 111.69 115.56 110.79 115.56C109.26 115.56 108.33 116.29 108.40 117.41C108.52 119.52 112.10 118.87 112.23 120.26C112.29 120.83 111.77 121.23 110.87 121.23C110.22 121.23 109.57 120.97 109.10 120.64C109.01 120.57 108.92 120.54 108.80 120.54C108.53 120.54 108.29 120.75 108.29 121.03C108.29 121.16 108.35 121.26 108.44 121.34C109.01 121.91 109.96 122.16 110.82 122.16C112.48 122.16 113.43 121.30 113.36 120.10Z" fill="#22272e" /><path d="M217.82 114.27C217.82 113.72 217.38 113.33 216.92 113.33L211.95 113.33C211.51 113.33 211.15 113.69 211.15 114.12C211.15 114.59 211.51 114.95 211.95 114.95L215.59 114.95L213.01 120.82C212.96 120.93 212.93 121.05 212.93 121.17C212.93 121.64 213.31 122.08 213.85 122.08C214.23 122.08 214.58 121.86 214.72 121.52L217.74 114.63C217.79 114.53 217.82 114.39 217.82 114.27Z" fill="#627386" /></g><g aria-label="Versions Published: 14,650"><circle cx="22" cy="140" r="4" fill="#00a5fe" /><path d="M42.28 135.93C42.28 135.58 42.00 135.25 41.59 135.25C41.31 135.25 41.06 135.42 40.97 135.68L38.32 142.60L35.68 135.68C35.57 135.41 35.31 135.25 35.05 135.25C34.64 135.25 34.35 135.62 34.35 135.93C34.35 136.02 34.36 136.10 34.40 136.17L37.28 143.39C37.43 143.81 37.85 144.08 38.29 144.08L38.36 144.08C38.78 144.08 39.20 143.81 39.37 143.39L42.24 136.17C42.27 136.10 42.28 136.00 42.28 135.93ZM48.60 140.65C48.60 140.40 48.53 140.13 48.48 139.92C48.12 138.51 47.08 137.56 45.56 137.56C43.74 137.56 42.42 139.03 42.42 140.85C42.42 142.83 43.79 144.16 45.66 144.16C46.58 144.16 48.20 143.68 48.20 142.97C48.20 142.53 47.75 142.43 47.47 142.57C47.01 142.91 46.31 143.22 45.78 143.22C44.50 143.22 43.72 142.35 43.63 141.27L48.00 141.27C48.33 141.27 48.60 140.96 48.60 140.65ZM43.63 140.41C43.69 139.54 44.30 138.50 45.54 138.50C46.88 138.50 47.46 139.57 47.48 140.41ZM53.38 138.15C53.38 137.85 53.16 137.63 52.86 137.63C52.16 137.63 51.59 138.22 51.24 138.70L51.24 138.20C51.24 137.90 50.98 137.64 50.68 137.64C50.34 137.64 50.08 137.90 50.08 138.20L50.08 143.51C50.08 143.82 50.33 144.06 50.64 144.08L50.65 144.08C50.98 144.08 51.24 143.82 51.24 143.51L51.24 140.28C51.24 139.46 51.81 138.81 52.80 138.76C53.12 138.75 53.38 138.49 53.38 138.15ZM59.08 142.10C58.96 139.89 55.36 140.50 55.23 139.37C55.18 138.87 55.72 138.49 56.52 138.49C57.11 138.49 57.67 138.68 58.08 138.97C58.15 139.03 58.25 139.06 58.35 139.06C58.58 139.06 58.80 138.87 58.80 138.60C58.80 138.50 58.77 138.40 58.69 138.32C58.19 137.84 57.40 137.56 56.50 137.56C54.97 137.56 54.05 138.29 54.11 139.41C54.23 141.52 57.82 140.87 57.95 142.26C58.00 142.83 57.48 143.23 56.58 143.23C55.93 143.23 55.28 142.97 54.81 142.63C54.72 142.57 54.63 142.54 54.51 142.54C54.24 142.54 54.01 142.75 54.01 143.03C54.01 143.16 54.06 143.26 54.15 143.34C54.72 143.91 55.67 144.16 56.53 144.16C58.19 144.16 59.14 143.30 59.08 142.10ZM61.13 135.39C60.73 135.39 60.39 135.73 60.39 136.15C60.39 136.55 60.73 136.89 61.13 136.89C61.55 136.89 61.87 136.55 61.87 136.15C61.87 135.73 61.55 135.39 61.13 135.39ZM61.72 138.20C61.72 137.90 61.46 137.64 61.16 137.64C60.82 137.64 60.56 137.90 60.56 138.20L60.56 143.51C60.56 143.82 60.82 144.08 61.13 144.08C61.46 144.08 61.72 143.82 61.72 143.51ZM69.54 140.85C69.54 139.05 68.33 137.56 66.37 137.56C64.42 137.56 63.21 139.05 63.21 140.85C63.21 142.66 64.42 144.16 66.37 144.16C68.33 144.16 69.54 142.66 69.54 140.85ZM68.33 140.85C68.33 142.06 67.63 143.13 66.37 143.13C65.12 143.13 64.41 142.06 64.41 140.85C64.41 139.66 65.12 138.59 66.37 138.59C67.63 138.59 68.33 139.66 68.33 140.85ZM76.43 139.97C76.43 138.64 75.47 137.56 74.14 137.56C73.05 137.56 72.49 138.10 72.19 138.60L72.19 138.20C72.19 137.90 71.93 137.64 71.64 137.64C71.30 137.64 71.04 137.90 71.04 138.20L71.04 143.51C71.04 143.82 71.30 144.08 71.61 144.08C71.93 144.08 72.19 143.82 72.19 143.51L72.19 140.49C72.19 139.42 72.77 138.59 73.77 138.59C74.70 138.59 75.28 139.32 75.28 140.36L75.28 143.51C75.28 143.82 75.54 144.08 75.85 144.08C76.17 144.08 76.43 143.82 76.43 143.51ZM82.91 142.10C82.79 139.89 79.19 140.50 79.06 139.37C79.01 138.87 79.55 138.49 80.35 138.49C80.94 138.49 81.50 138.68 81.91 138.97C81.98 139.03 82.07 139.06 82.18 139.06C82.41 139.06 82.63 138.87 82.63 138.60C82.63 138.50 82.59 138.40 82.52 138.32C82.02 137.84 81.23 137.56 80.33 137.56C78.80 137.56 77.88 138.29 77.94 139.41C78.06 141.52 81.65 140.87 81.78 142.26C81.83 142.83 81.31 143.23 80.41 143.23C79.76 143.23 79.11 142.97 78.64 142.63C78.55 142.57 78.46 142.54 78.34 142.54C78.07 142.54 77.84 142.75 77.84 143.03C77.84 143.16 77.89 143.26 77.98 143.34C78.55 143.91 79.50 144.16 80.36 144.16C82.02 144.16 82.97 143.30 82.91 142.10ZM94.18 137.99C94.18 136.55 93.19 135.33 91.41 135.33L88.61 135.33C88.15 135.33 87.77 135.71 87.77 136.17L87.77 143.44C87.77 143.79 88.05 144.08 88.41 144.08C88.77 144.08 89.06 143.79 89.06 143.44L89.06 140.66L91.41 140.66C93.16 140.66 94.18 139.44 94.18 137.99ZM92.85 137.99C92.85 138.89 92.19 139.51 91.24 139.51L89.06 139.51L89.06 136.47L91.24 136.47C92.19 136.47 92.85 137.08 92.85 137.99ZM100.90 138.20C100.90 137.90 100.64 137.64 100.34 137.64C100.00 137.64 99.74 137.90 99.74 138.20L99.74 141.19C99.74 142.26 99.06 143.13 98.13 143.13C97.19 143.13 96.66 142.41 96.66 141.37L96.66 138.20C96.66 137.90 96.40 137.64 96.10 137.64C95.76 137.64 95.50 137.90 95.50 138.20L95.50 141.78C95.50 143.10 96.44 144.16 97.77 144.16C98.86 144.16 99.40 143.68 99.74 143.14L99.74 143.51C99.74 143.82 100.00 144.08 100.31 144.08C100.64 144.08 100.90 143.82 100.90 143.51ZM108.78 140.87C108.78 138.85 107.74 137.56 106.11 137.56C105.15 137.56 104.42 137.96 103.91 138.63L103.91 135.81C103.91 135.51 103.65 135.25 103.36 135.25C103.02 135.25 102.76 135.51 102.76 135.81L102.76 143.51C102.76 143.82 103.02 144.08 103.33 144.08C103.65 144.08 103.91 143.82 103.91 143.51L103.91 143.10C104.38 143.73 105.14 144.16 105.98 144.16C107.61 144.16 108.78 142.92 108.78 140.87ZM107.57 140.87C107.57 142.18 106.98 143.13 105.79 143.13C104.95 143.13 103.91 142.22 103.91 140.92L103.91 140.83C103.91 139.54 104.69 138.59 105.79 138.59C106.98 138.59 107.57 139.55 107.57 140.87ZM111.43 135.81C111.43 135.51 111.17 135.25 110.87 135.25C110.53 135.25 110.27 135.51 110.27 135.81L110.27 143.51C110.27 143.82 110.53 144.08 110.84 144.08C111.17 144.08 111.43 143.82 111.43 143.51ZM113.87 135.39C113.47 135.39 113.13 135.73 113.13 136.15C113.13 136.55 113.47 136.89 113.87 136.89C114.29 136.89 114.61 136.55 114.61 136.15C114.61 135.73 114.29 135.39 113.87 135.39ZM114.46 138.20C114.46 137.90 114.20 137.64 113.90 137.64C113.56 137.64 113.30 137.90 113.30 138.20L113.30 143.51C113.30 143.82 113.56 144.08 113.87 144.08C114.20 144.08 114.46 143.82 114.46 143.51ZM120.93 142.10C120.81 139.89 117.21 140.50 117.08 139.37C117.03 138.87 117.58 138.49 118.37 138.49C118.97 138.49 119.53 138.68 119.93 138.97C120.01 139.03 120.10 139.06 120.20 139.06C120.44 139.06 120.66 138.87 120.66 138.60C120.66 138.50 120.62 138.40 120.54 138.32C120.05 137.84 119.25 137.56 118.36 137.56C116.82 137.56 115.90 138.29 115.96 139.41C116.08 141.52 119.67 140.87 119.80 142.26C119.85 142.83 119.33 143.23 118.43 143.23C117.78 143.23 117.13 142.97 116.67 142.63C116.58 142.57 116.48 142.54 116.37 142.54C116.09 142.54 115.86 142.75 115.86 143.03C115.86 143.16 115.91 143.26 116.00 143.34C116.58 143.91 117.52 144.16 118.38 144.16C120.05 144.16 121.00 143.30 120.93 142.10ZM127.82 139.94C127.82 138.62 126.87 137.56 125.55 137.56C124.44 137.56 123.87 138.10 123.57 138.60L123.57 135.81C123.57 135.51 123.31 135.25 123.01 135.25C122.67 135.25 122.41 135.51 122.41 135.81L122.41 143.51C122.41 143.82 122.67 144.08 122.98 144.08C123.31 144.08 123.57 143.82 123.57 143.51L123.57 140.56C123.57 139.38 124.19 138.59 125.18 138.59C126.12 138.59 126.66 139.29 126.66 140.33L126.66 143.51C126.66 143.82 126.92 144.08 127.24 144.08C127.56 144.08 127.82 143.82 127.82 143.51ZM135.49 140.65C135.49 140.40 135.43 140.13 135.37 139.92C135.01 138.51 133.97 137.56 132.45 137.56C130.63 137.56 129.32 139.03 129.32 140.85C129.32 142.83 130.68 144.16 132.55 144.16C133.48 144.16 135.09 143.68 135.09 142.97C135.09 142.53 134.65 142.43 134.36 142.57C133.90 142.91 133.20 143.22 132.67 143.22C131.40 143.22 130.62 142.35 130.52 141.27L134.89 141.27C135.22 141.27 135.49 140.96 135.49 140.65ZM130.52 140.41C130.58 139.54 131.19 138.50 132.44 138.50C133.77 138.50 134.35 139.57 134.37 140.41ZM142.61 135.81C142.61 135.51 142.35 135.25 142.06 135.25C141.72 135.25 141.46 135.51 141.46 135.81L141.46 138.63C140.95 137.96 140.34 137.56 139.39 137.56C137.75 137.56 136.60 138.85 136.60 140.87C136.60 142.92 137.77 144.16 139.39 144.16C140.37 144.16 140.98 143.73 141.46 143.10L141.46 143.51C141.46 143.82 141.72 144.08 142.03 144.08C142.35 144.08 142.61 143.82 142.61 143.51ZM141.46 140.91C141.46 142.21 140.81 143.13 139.69 143.13C138.52 143.13 137.79 142.18 137.79 140.87C137.79 139.55 138.52 138.59 139.69 138.59C140.81 138.59 141.46 139.54 141.46 140.83Z" fill="#22272e" /><path d="M182.46 136.32C182.46 135.73 181.96 135.26 181.38 135.26C181.08 135.26 180.79 135.38 180.60 135.58L178.60 137.60C178.44 137.76 178.36 137.96 178.36 138.15C178.36 138.58 178.73 138.92 179.13 138.92C179.31 138.92 179.49 138.85 179.64 138.71L180.61 137.71L180.61 143.17C180.61 143.66 181.03 144.08 181.52 144.08C182.04 144.08 182.46 143.66 182.46 143.17ZM190.83 141.40C190.83 140.94 190.47 140.58 190.04 140.58L189.63 140.58L189.63 136.29C189.63 135.49 188.85 135.12 188.06 135.25C187.50 135.25 186.94 135.55 186.64 136.02L183.75 140.59C183.63 140.78 183.58 140.98 183.58 141.19C183.58 141.78 184.00 142.21 184.53 142.21L187.79 142.21L187.79 143.17C187.79 143.66 188.20 144.08 188.70 144.08C189.22 144.08 189.63 143.66 189.63 143.17L189.63 142.21L190.04 142.21C190.47 142.21 190.83 141.84 190.83 141.40ZM185.45 140.58L187.79 136.97L187.79 140.58ZM193.87 143.36C193.87 142.52 193.31 142.04 192.70 142.04C192.16 142.04 191.69 142.50 191.69 143.08C191.69 143.64 192.08 144.01 192.57 144.01C192.66 144.01 192.78 143.99 192.82 143.97C192.74 144.31 192.45 144.72 192.12 144.99C192.03 145.07 191.99 145.17 191.99 145.27C191.99 145.53 192.26 145.69 192.48 145.69C192.61 145.69 192.73 145.65 192.82 145.56C193.47 144.97 193.87 144.19 193.87 143.36ZM201.63 141.18C201.63 139.33 200.24 138.36 198.68 138.36C197.60 138.36 196.80 138.89 196.46 139.48C196.45 139.41 196.45 139.36 196.45 139.29C196.45 137.92 197.34 136.84 198.62 136.84C199.06 136.84 199.42 136.91 199.75 137.08C199.87 137.15 200.00 137.18 200.13 137.18C200.53 137.18 200.97 136.86 200.97 136.37C200.97 136.24 200.93 136.12 200.88 136.02C200.55 135.45 199.46 135.20 198.62 135.20C196.06 135.20 194.57 137.06 194.57 139.68C194.57 142.13 195.68 144.16 198.32 144.16C200.29 144.16 201.63 142.87 201.63 141.18ZM199.76 141.24C199.76 141.89 199.28 142.52 198.28 142.52C197.46 142.52 196.85 141.96 196.85 141.15C196.85 140.37 197.47 139.81 198.28 139.81C199.11 139.81 199.76 140.37 199.76 141.24ZM209.49 141.15C209.49 139.40 208.17 138.34 206.70 138.34C205.91 138.34 205.21 138.66 204.79 139.07L204.79 136.95L208.19 136.95C208.61 136.95 208.98 136.59 208.98 136.15C208.98 135.69 208.61 135.33 208.19 135.33L203.99 135.33C203.41 135.33 202.95 135.80 202.95 136.37L202.95 139.70C202.95 140.20 203.31 140.58 203.88 140.58C204.14 140.58 204.39 140.50 204.60 140.36C205.06 140.05 205.52 139.94 206.05 139.94C207.04 139.94 207.61 140.46 207.61 141.23C207.61 141.93 207.03 142.52 206.00 142.52C205.38 142.52 204.78 142.35 204.27 142.04C204.12 141.95 203.95 141.89 203.79 141.89C203.34 141.89 202.91 142.25 202.91 142.73C202.91 142.86 202.95 142.99 203.01 143.10C203.41 143.78 204.88 144.16 206.01 144.16C208.11 144.16 209.49 143.00 209.49 141.15ZM217.56 139.67C217.56 137.44 216.44 135.20 213.97 135.20C211.49 135.20 210.38 137.44 210.38 139.67C210.38 141.91 211.49 144.16 213.97 144.16C216.44 144.16 217.56 141.91 217.56 139.67ZM215.67 139.67C215.67 141.27 215.20 142.52 213.97 142.52C212.72 142.52 212.25 141.27 212.25 139.67C212.25 138.07 212.72 136.84 213.97 136.84C215.20 136.84 215.67 138.07 215.67 139.67Z" fill="#627386" /></g><g aria-label="This Week: 22,050,920"><circle cx="22" cy="162" r="4" fill="#00d559" /><path d="M41.14 157.91C41.14 157.58 40.89 157.33 40.58 157.33L34.87 157.33C34.56 157.33 34.31 157.58 34.31 157.89C34.31 158.21 34.56 158.47 34.87 158.47L37.08 158.47L37.08 165.44C37.08 165.79 37.37 166.08 37.72 166.08C38.08 166.08 38.37 165.79 38.37 165.44L38.37 158.47L40.58 158.47C40.89 158.47 41.14 158.21 41.14 157.91ZM47.79 161.94C47.79 160.62 46.84 159.56 45.52 159.56C44.41 159.56 43.84 160.10 43.54 160.60L43.54 157.81C43.54 157.51 43.28 157.25 42.98 157.25C42.64 157.25 42.38 157.51 42.38 157.81L42.38 165.51C42.38 165.82 42.64 166.08 42.96 166.08C43.28 166.08 43.54 165.82 43.54 165.51L43.54 162.56C43.54 161.38 44.17 160.59 45.15 160.59C46.09 160.59 46.64 161.29 46.64 162.33L46.64 165.51C46.64 165.82 46.90 166.08 47.21 166.08C47.53 166.08 47.79 165.82 47.79 165.51ZM50.24 157.39C49.83 157.39 49.50 157.73 49.50 158.15C49.50 158.55 49.83 158.89 50.24 158.89C50.65 158.89 50.98 158.55 50.98 158.15C50.98 157.73 50.65 157.39 50.24 157.39ZM50.82 160.20C50.82 159.90 50.56 159.64 50.26 159.64C49.92 159.64 49.66 159.90 49.66 160.20L49.66 165.51C49.66 165.82 49.92 166.08 50.24 166.08C50.56 166.08 50.82 165.82 50.82 165.51ZM57.30 164.10C57.18 161.89 53.58 162.50 53.45 161.37C53.40 160.87 53.94 160.49 54.73 160.49C55.33 160.49 55.89 160.68 56.30 160.97C56.37 161.03 56.46 161.06 56.57 161.06C56.80 161.06 57.02 160.87 57.02 160.60C57.02 160.50 56.98 160.40 56.91 160.32C56.41 159.84 55.62 159.56 54.72 159.56C53.19 159.56 52.27 160.29 52.33 161.41C52.45 163.52 56.04 162.87 56.17 164.26C56.22 164.83 55.70 165.23 54.80 165.23C54.15 165.23 53.50 164.97 53.03 164.63C52.94 164.57 52.85 164.54 52.73 164.54C52.46 164.54 52.23 164.75 52.23 165.03C52.23 165.16 52.28 165.26 52.37 165.34C52.94 165.91 53.89 166.16 54.75 166.16C56.41 166.16 57.36 165.30 57.30 164.10ZM72.45 157.89C72.45 157.54 72.17 157.24 71.77 157.24C71.45 157.24 71.17 157.45 71.10 157.75L69.40 164.30L67.62 157.73C67.54 157.45 67.28 157.25 66.99 157.25C66.68 157.25 66.42 157.45 66.36 157.73L64.56 164.30L62.86 157.75C62.78 157.43 62.48 157.22 62.18 157.22C61.77 157.22 61.51 157.55 61.51 157.89C61.51 157.95 61.52 158.00 61.53 158.07L63.64 165.45C63.73 165.82 64.06 166.08 64.46 166.08L64.49 166.08C64.88 166.08 65.21 165.82 65.32 165.44L66.98 159.29L68.63 165.44C68.72 165.81 69.06 166.08 69.45 166.08L69.48 166.08C69.87 166.08 70.22 165.82 70.32 165.44L72.43 158.07C72.44 158.02 72.45 157.95 72.45 157.89ZM78.99 162.65C78.99 162.40 78.93 162.13 78.88 161.92C78.51 160.51 77.47 159.56 75.95 159.56C74.13 159.56 72.82 161.03 72.82 162.85C72.82 164.83 74.18 166.16 76.06 166.16C76.98 166.16 78.59 165.68 78.59 164.97C78.59 164.53 78.15 164.43 77.86 164.57C77.41 164.91 76.71 165.22 76.17 165.22C74.90 165.22 74.12 164.35 74.03 163.27L78.40 163.27C78.72 163.27 78.99 162.96 78.99 162.65ZM74.03 162.41C74.08 161.54 74.69 160.50 75.94 160.50C77.28 160.50 77.85 161.57 77.88 162.41ZM86.27 162.65C86.27 162.40 86.21 162.13 86.16 161.92C85.79 160.51 84.75 159.56 83.23 159.56C81.41 159.56 80.10 161.03 80.10 162.85C80.10 164.83 81.46 166.16 83.34 166.16C84.26 166.16 85.87 165.68 85.87 164.97C85.87 164.53 85.43 164.43 85.14 164.57C84.69 164.91 83.99 165.22 83.45 165.22C82.18 165.22 81.40 164.35 81.31 163.27L85.68 163.27C86.00 163.27 86.27 162.96 86.27 162.65ZM81.31 162.41C81.36 161.54 81.97 160.50 83.22 160.50C84.56 160.50 85.13 161.57 85.16 162.41ZM92.89 165.51C92.89 165.39 92.85 165.26 92.77 165.17L90.71 162.57L92.66 160.53C92.75 160.42 92.80 160.31 92.80 160.18C92.80 159.89 92.54 159.63 92.25 159.63C92.12 159.63 91.98 159.69 91.88 159.80L88.91 162.92L88.91 157.81C88.91 157.51 88.65 157.25 88.35 157.25C88.02 157.25 87.76 157.51 87.76 157.81L87.76 165.51C87.76 165.82 88.02 166.08 88.33 166.08C88.65 166.08 88.91 165.82 88.91 165.51L88.91 164.26L89.87 163.28L91.86 165.86C91.97 166.01 92.15 166.09 92.32 166.09C92.67 166.09 92.89 165.78 92.89 165.51Z" fill="#22272e" /><path d="M155.72 165.17C155.72 164.74 155.35 164.38 154.92 164.38L152.10 164.38C154.35 162.74 155.57 161.45 155.57 159.97C155.57 158.24 154.10 157.20 152.26 157.20C151.17 157.20 149.71 157.67 149.29 158.33C149.22 158.45 149.18 158.58 149.18 158.71C149.18 159.18 149.55 159.54 149.98 159.54C150.18 159.54 150.35 159.49 150.52 159.37C151.01 159.03 151.61 158.84 152.30 158.84C153.01 158.84 153.70 159.21 153.70 159.97C153.70 160.98 152.66 161.93 149.42 164.32C149.18 164.50 149.03 164.80 149.03 165.10C149.03 165.62 149.45 166 149.91 166L154.92 166C155.35 166 155.72 165.64 155.72 165.17ZM163.52 165.17C163.52 164.74 163.15 164.38 162.72 164.38L159.90 164.38C162.15 162.74 163.37 161.45 163.37 159.97C163.37 158.24 161.91 157.20 160.06 157.20C158.97 157.20 157.51 157.67 157.09 158.33C157.02 158.45 156.98 158.58 156.98 158.71C156.98 159.18 157.35 159.54 157.78 159.54C157.98 159.54 158.15 159.49 158.32 159.37C158.81 159.03 159.41 158.84 160.10 158.84C160.81 158.84 161.50 159.21 161.50 159.97C161.50 160.98 160.46 161.93 157.22 164.32C156.98 164.50 156.83 164.80 156.83 165.10C156.83 165.62 157.25 166 157.71 166L162.72 166C163.15 166 163.52 165.64 163.52 165.17ZM166.90 165.36C166.90 164.52 166.34 164.04 165.73 164.04C165.18 164.04 164.71 164.50 164.71 165.08C164.71 165.64 165.10 166.01 165.60 166.01C165.69 166.01 165.81 165.99 165.84 165.97C165.77 166.31 165.48 166.72 165.14 166.99C165.05 167.07 165.01 167.17 165.01 167.27C165.01 167.53 165.28 167.69 165.51 167.69C165.64 167.69 165.75 167.65 165.84 167.56C166.49 166.97 166.90 166.19 166.90 165.36ZM174.78 161.67C174.78 159.44 173.66 157.20 171.19 157.20C168.70 157.20 167.60 159.44 167.60 161.67C167.60 163.91 168.70 166.16 171.19 166.16C173.66 166.16 174.78 163.91 174.78 161.67ZM172.89 161.67C172.89 163.27 172.42 164.52 171.19 164.52C169.94 164.52 169.47 163.27 169.47 161.67C169.47 160.07 169.94 158.84 171.19 158.84C172.42 158.84 172.89 160.07 172.89 161.67ZM182.67 163.15C182.67 161.40 181.35 160.34 179.88 160.34C179.09 160.34 178.39 160.66 177.97 161.07L177.97 158.95L181.37 158.95C181.80 158.95 182.16 158.59 182.16 158.15C182.16 157.69 181.80 157.33 181.37 157.33L177.17 157.33C176.60 157.33 176.13 157.80 176.13 158.37L176.13 161.70C176.13 162.20 176.49 162.58 177.06 162.58C177.32 162.58 177.57 162.50 177.78 162.36C178.25 162.05 178.70 161.94 179.23 161.94C180.22 161.94 180.79 162.46 180.79 163.23C180.79 163.93 180.21 164.52 179.18 164.52C178.56 164.52 177.96 164.35 177.45 164.04C177.30 163.95 177.13 163.89 176.97 163.89C176.52 163.89 176.09 164.25 176.09 164.73C176.09 164.86 176.13 164.99 176.19 165.10C176.60 165.78 178.06 166.16 179.20 166.16C181.29 166.16 182.67 165.00 182.67 163.15ZM190.74 161.67C190.74 159.44 189.62 157.20 187.15 157.20C184.67 157.20 183.56 159.44 183.56 161.67C183.56 163.91 184.67 166.16 187.15 166.16C189.62 166.16 190.74 163.91 190.74 161.67ZM188.85 161.67C188.85 163.27 188.39 164.52 187.15 164.52C185.90 164.52 185.44 163.27 185.44 161.67C185.44 160.07 185.90 158.84 187.15 158.84C188.39 158.84 188.85 160.07 188.85 161.67ZM193.70 165.36C193.70 164.52 193.14 164.04 192.53 164.04C191.99 164.04 191.52 164.50 191.52 165.08C191.52 165.64 191.91 166.01 192.40 166.01C192.49 166.01 192.61 165.99 192.65 165.97C192.57 166.31 192.29 166.72 191.95 166.99C191.86 167.07 191.82 167.17 191.82 167.27C191.82 167.53 192.09 167.69 192.31 167.69C192.44 167.69 192.56 167.65 192.65 167.56C193.30 166.97 193.70 166.19 193.70 165.36ZM194.63 160.16C194.63 162.01 196.02 162.98 197.58 162.98C198.66 162.98 199.46 162.45 199.80 161.87C199.81 161.93 199.81 161.98 199.81 162.05C199.81 163.43 198.92 164.50 197.64 164.50C197.20 164.50 196.84 164.43 196.51 164.26C196.39 164.19 196.26 164.17 196.13 164.17C195.73 164.17 195.29 164.48 195.29 164.97C195.29 165.10 195.33 165.22 195.38 165.32C195.71 165.90 196.80 166.14 197.64 166.14C200.20 166.14 201.69 164.28 201.69 161.66C201.69 159.21 200.58 157.19 197.94 157.19C195.97 157.19 194.63 158.47 194.63 160.16ZM196.50 160.10C196.50 159.45 196.98 158.82 197.98 158.82C198.80 158.82 199.41 159.38 199.41 160.19C199.41 160.97 198.79 161.53 197.98 161.53C197.15 161.53 196.50 160.97 196.50 160.10ZM209.36 165.17C209.36 164.74 208.99 164.38 208.56 164.38L205.74 164.38C207.99 162.74 209.21 161.45 209.21 159.97C209.21 158.24 207.74 157.20 205.90 157.20C204.81 157.20 203.35 157.67 202.93 158.33C202.86 158.45 202.82 158.58 202.82 158.71C202.82 159.18 203.19 159.54 203.62 159.54C203.82 159.54 203.99 159.49 204.16 159.37C204.65 159.03 205.25 158.84 205.94 158.84C206.65 158.84 207.34 159.21 207.34 159.97C207.34 160.98 206.30 161.93 203.06 164.32C202.82 164.50 202.67 164.80 202.67 165.10C202.67 165.62 203.09 166 203.54 166L208.56 166C208.99 166 209.36 165.64 209.36 165.17ZM217.56 161.67C217.56 159.44 216.44 157.20 213.97 157.20C211.49 157.20 210.38 159.44 210.38 161.67C210.38 163.91 211.49 166.16 213.97 166.16C216.44 166.16 217.56 163.91 217.56 161.67ZM215.67 161.67C215.67 163.27 215.21 164.52 213.97 164.52C212.72 164.52 212.25 163.27 212.25 161.67C212.25 160.07 212.72 158.84 213.97 158.84C215.21 158.84 215.67 160.07 215.67 161.67Z" fill="#627386" /></g></svg>