<svg xmlns="http://www.w3.org/2000/svg" width="420" height="184" viewBox="0 0 420 184" role="img"><rect x="0.5" y="0.5" width="419" height="183" rx="10" fill="#161b22" stroke="#30363d" /><path d="M30.21 36.59C30.21 35.87 29.59 35.25 28.87 35.25L24.09 35.25C27.90 32.48 29.97 30.30 29.97 27.79C29.97 24.87 27.48 23.11 24.36 23.11C22.51 23.11 20.05 23.90 19.34 25.02C19.21 25.22 19.14 25.44 19.14 25.66C19.14 26.45 19.78 27.07 20.51 27.07C20.84 27.07 21.12 26.98 21.41 26.78C22.25 26.21 23.26 25.88 24.42 25.88C25.63 25.88 26.80 26.52 26.80 27.79C26.80 29.51 25.04 31.11 19.56 35.16C19.14 35.47 18.90 35.98 18.90 36.48C18.90 37.36 19.61 38 20.38 38L28.87 38C29.59 38 30.21 37.38 30.21 36.59ZM35.93 36.92C35.93 35.49 34.98 34.68 33.95 34.68C33.03 34.68 32.23 35.47 32.23 36.44C32.23 37.38 32.89 38.02 33.73 38.02C33.88 38.02 34.08 37.98 34.15 37.96C34.02 38.53 33.53 39.21 32.96 39.67C32.81 39.80 32.74 39.98 32.74 40.16C32.74 40.60 33.20 40.86 33.58 40.86C33.80 40.86 33.99 40.79 34.15 40.64C35.25 39.65 35.93 38.33 35.93 36.92ZM42.24 25.00C42.24 24.01 41.41 23.22 40.42 23.22C39.91 23.22 39.43 23.41 39.10 23.74L35.71 27.18C35.45 27.44 35.31 27.77 35.31 28.10C35.31 28.83 35.93 29.40 36.61 29.40C36.92 29.40 37.23 29.29 37.47 29.05L39.12 27.35L39.12 36.59C39.12 37.43 39.82 38.13 40.66 38.13C41.54 38.13 42.24 37.43 42.24 36.59ZM44.36 28.12C44.36 31.25 46.71 32.90 49.35 32.90C51.18 32.90 52.54 31.99 53.11 31.00C53.13 31.11 53.13 31.20 53.13 31.31C53.13 33.64 51.62 35.47 49.46 35.47C48.71 35.47 48.10 35.34 47.55 35.05C47.35 34.94 47.13 34.90 46.91 34.90C46.23 34.90 45.48 35.43 45.48 36.26C45.48 36.48 45.54 36.68 45.63 36.86C46.18 37.82 48.03 38.24 49.46 38.24C53.79 38.24 56.30 35.10 56.30 30.65C56.30 26.52 54.43 23.08 49.97 23.08C46.62 23.08 44.36 25.26 44.36 28.12ZM47.52 28.01C47.52 26.91 48.34 25.86 50.03 25.86C51.42 25.86 52.45 26.80 52.45 28.17C52.45 29.49 51.40 30.43 50.03 30.43C48.62 30.43 47.52 29.49 47.52 28.01ZM69.96 30.67C69.96 26.89 68.07 23.11 63.89 23.11C59.69 23.11 57.82 26.89 57.82 30.67C57.82 34.46 59.69 38.26 63.89 38.26C68.07 38.26 69.96 34.46 69.96 30.67ZM66.77 30.67C66.77 33.38 65.98 35.49 63.89 35.49C61.78 35.49 60.99 33.38 60.99 30.67C60.99 27.97 61.78 25.88 63.89 25.88C65.98 25.88 66.77 27.97 66.77 30.67ZM74.98 36.92C74.98 35.49 74.03 34.68 73 34.68C72.08 34.68 71.28 35.47 71.28 36.44C71.28 37.38 71.94 38.02 72.78 38.02C72.93 38.02 73.13 37.98 73.20 37.96C73.07 38.53 72.58 39.21 72.01 39.67C71.86 39.80 71.79 39.98 71.79 40.16C71.79 40.60 72.25 40.86 72.63 40.86C72.85 40.86 73.04 40.79 73.20 40.64C74.30 39.65 74.98 38.33 74.98 36.92ZM88.09 36.59C88.09 35.87 87.48 35.25 86.75 35.25L81.98 35.25C85.78 32.48 87.85 30.30 87.85 27.79C87.85 24.87 85.36 23.11 82.24 23.11C80.39 23.11 77.93 23.90 77.22 25.02C77.09 25.22 77.03 25.44 77.03 25.66C77.03 26.45 77.66 27.07 78.39 27.07C78.72 27.07 79.01 26.98 79.29 26.78C80.13 26.21 81.14 25.88 82.31 25.88C83.52 25.88 84.68 26.52 84.68 27.79C84.68 29.51 82.92 31.11 77.44 35.16C77.03 35.47 76.78 35.98 76.78 36.48C76.78 37.36 77.49 38 78.26 38L86.75 38C87.48 38 88.09 37.38 88.09 36.59ZM101.29 36.59C101.29 35.87 100.68 35.25 99.95 35.25L95.18 35.25C98.98 32.48 101.05 30.30 101.05 27.79C101.05 24.87 98.56 23.11 95.44 23.11C93.59 23.11 91.13 23.90 90.42 25.02C90.29 25.22 90.23 25.44 90.23 25.66C90.23 26.45 90.86 27.07 91.59 27.07C91.92 27.07 92.21 26.98 92.49 26.78C93.33 26.21 94.34 25.88 95.51 25.88C96.72 25.88 97.88 26.52 97.88 27.79C97.88 29.51 96.12 31.11 90.64 35.16C90.23 35.47 89.98 35.98 89.98 36.48C89.98 37.36 90.69 38 91.46 38L99.95 38C100.68 38 101.29 37.38 101.29 36.59ZM114.84 33.97C114.84 31.97 113.66 30.83 112.78 30.43C113.52 30.08 114.60 29.24 114.60 26.98C114.60 24.45 111.87 23.11 108.95 23.11C106.00 23.11 103.29 24.45 103.29 26.98C103.29 29.24 104.35 30.08 105.10 30.43C104.22 30.83 103.05 31.97 103.05 33.97C103.05 36.72 105.87 38.26 108.95 38.26C112.03 38.26 114.84 36.70 114.84 33.97ZM111.41 27.46C111.41 28.56 110.29 29.20 108.95 29.20C107.61 29.20 106.46 28.56 106.46 27.46C106.46 26.41 107.50 25.79 108.95 25.79C110.38 25.79 111.41 26.41 111.41 27.46ZM111.68 33.80C111.68 34.88 110.44 35.58 108.95 35.58C107.41 35.58 106.22 34.88 106.22 33.80C106.22 32.57 107.58 31.84 108.95 31.84C110.29 31.84 111.68 32.57 111.68 33.80ZM120.34 36.92C120.34 35.49 119.40 34.68 118.36 34.68C117.44 34.68 116.65 35.47 116.65 36.44C116.65 37.38 117.31 38.02 118.14 38.02C118.30 38.02 118.50 37.98 118.56 37.96C118.43 38.53 117.95 39.21 117.37 39.67C117.22 39.80 117.15 39.98 117.15 40.16C117.15 40.60 117.62 40.86 117.99 40.86C118.21 40.86 118.41 40.79 118.56 40.64C119.66 39.65 120.34 38.33 120.34 36.92ZM121.91 28.12C121.91 31.25 124.26 32.90 126.90 32.90C128.73 32.90 130.09 31.99 130.66 31.00C130.68 31.11 130.68 31.20 130.68 31.31C130.68 33.64 129.17 35.47 127.01 35.47C126.26 35.47 125.65 35.34 125.10 35.05C124.90 34.94 124.68 34.90 124.46 34.90C123.78 34.90 123.03 35.43 123.03 36.26C123.03 36.48 123.09 36.68 123.18 36.86C123.73 37.82 125.58 38.24 127.01 38.24C131.34 38.24 133.85 35.10 133.85 30.65C133.85 26.52 131.98 23.08 127.52 23.08C124.17 23.08 121.91 25.26 121.91 28.12ZM125.07 28.01C125.07 26.91 125.89 25.86 127.58 25.86C128.97 25.86 130.00 26.80 130.00 28.17C130.00 29.49 128.95 30.43 127.58 30.43C126.17 30.43 125.07 29.49 125.07 28.01ZM147.34 33.60C147.34 32.83 146.72 32.21 146.00 32.21L145.31 32.21L145.31 24.95C145.31 23.59 143.99 22.97 142.65 23.19C141.71 23.19 140.76 23.70 140.25 24.49L135.35 32.24C135.15 32.54 135.06 32.90 135.06 33.25C135.06 34.24 135.79 34.96 136.67 34.96L142.19 34.96L142.19 36.59C142.19 37.43 142.89 38.13 143.73 38.13C144.61 38.13 145.31 37.43 145.31 36.59L145.31 34.96L146.00 34.96C146.72 34.96 147.34 34.35 147.34 33.60ZM138.23 32.21L142.19 26.10L142.19 32.21ZM160.32 33.97C160.32 31.97 159.13 30.83 158.25 30.43C159.00 30.08 160.08 29.24 160.08 26.98C160.08 24.45 157.35 23.11 154.42 23.11C151.47 23.11 148.77 24.45 148.77 26.98C148.77 29.24 149.82 30.08 150.57 30.43C149.69 30.83 148.53 31.97 148.53 33.97C148.53 36.72 151.34 38.26 154.42 38.26C157.50 38.26 160.32 36.70 160.32 33.97ZM156.89 27.46C156.89 28.56 155.76 29.20 154.42 29.20C153.08 29.20 151.94 28.56 151.94 27.46C151.94 26.41 152.97 25.79 154.42 25.79C155.85 25.79 156.89 26.41 156.89 27.46ZM157.15 33.80C157.15 34.88 155.92 35.58 154.42 35.58C152.88 35.58 151.69 34.88 151.69 33.80C151.69 32.57 153.06 31.84 154.42 31.84C155.76 31.84 157.15 32.57 157.15 33.80ZM181.75 30.67C181.75 26.25 178.56 23.33 173.96 23.33L169.93 23.33C168.96 23.33 168.17 24.12 168.17 25.09L168.17 36.24C168.17 37.21 168.96 38 169.93 38L173.96 38C178.56 38 181.75 35.10 181.75 30.67ZM178.56 30.67C178.56 33.16 176.86 35.25 173.96 35.25L171.30 35.25L171.30 26.08L173.96 26.08C176.97 26.08 178.56 28.08 178.56 30.67ZM194.46 32.68C194.46 29.66 192.35 27.11 188.83 27.11C185.33 27.11 183.22 29.66 183.22 32.68C183.22 35.71 185.33 38.26 188.83 38.26C192.35 38.26 194.46 35.71 194.46 32.68ZM191.56 32.68C191.56 34.35 190.57 35.78 188.83 35.78C187.09 35.78 186.12 34.35 186.12 32.68C186.12 31.03 187.09 29.60 188.83 29.60C190.57 29.60 191.56 31.03 191.56 32.68ZM211.64 28.58C211.64 27.88 211.07 27.24 210.26 27.24C209.64 27.24 209.07 27.64 208.92 28.23L207.18 34.52L205.18 28.36C204.96 27.70 204.32 27.24 203.64 27.24C202.89 27.24 202.25 27.70 202.03 28.36L200.03 34.52L198.29 28.23C198.14 27.64 197.56 27.24 196.97 27.24C196.13 27.24 195.56 27.90 195.56 28.58C195.56 28.72 195.58 28.85 195.63 28.98L198.00 36.77C198.25 37.56 199.02 38.13 199.85 38.13L199.90 38.13C200.73 38.13 201.50 37.56 201.74 36.77L203.61 30.76L205.48 36.77C205.73 37.58 206.47 38.13 207.33 38.13L207.38 38.13C208.19 38.13 208.96 37.56 209.20 36.77L211.58 28.98C211.62 28.85 211.64 28.72 211.64 28.58ZM223.41 31.16C223.41 29.09 221.63 27.11 219.30 27.11C217.67 27.11 216.66 27.97 216.24 28.63L216.24 28.61C216.24 27.86 215.63 27.24 214.88 27.24C214.06 27.24 213.45 27.86 213.45 28.61L213.45 36.75C213.45 37.52 214.06 38.13 214.83 38.13C215.63 38.13 216.24 37.52 216.24 36.75L216.24 32.06C216.24 30.54 217.34 29.60 218.44 29.60C219.63 29.60 220.62 30.54 220.62 32.02L220.62 36.75C220.62 37.52 221.24 38.13 222.01 38.13C222.80 38.13 223.41 37.52 223.41 36.75ZM228.98 24.56C228.98 23.81 228.36 23.19 227.62 23.19C226.80 23.19 226.19 23.81 226.19 24.56L226.19 36.75C226.19 37.52 226.80 38.13 227.57 38.13C228.36 38.13 228.98 37.52 228.98 36.75ZM242.31 32.68C242.31 29.66 240.20 27.11 236.68 27.11C233.18 27.11 231.07 29.66 231.07 32.68C231.07 35.71 233.18 38.26 236.68 38.26C240.20 38.26 242.31 35.71 242.31 32.68ZM239.41 32.68C239.41 34.35 238.42 35.78 236.68 35.78C234.94 35.78 233.97 34.35 233.97 32.68C233.97 31.03 234.94 29.60 236.68 29.60C238.42 29.60 239.41 31.03 239.41 32.68ZM253.55 31.14C253.55 28.08 251.33 27.11 248.91 27.11C247.68 27.11 245.30 27.55 244.64 28.61C244.56 28.76 244.49 28.96 244.49 29.16C244.49 29.82 245.04 30.23 245.55 30.23C245.72 30.23 245.90 30.17 246.05 30.08C246.78 29.60 247.59 29.40 248.43 29.40C249.84 29.40 250.76 30.10 250.76 31.18L250.76 31.53L247.39 31.53C245.70 31.53 243.70 32.26 243.70 34.74C243.70 37.12 245.70 38.26 247.39 38.26C249.00 38.26 250.03 37.87 250.76 37.01C250.76 37.49 251.22 38.13 251.97 38.13L252.19 38.13C252.94 38.13 253.55 37.52 253.55 36.75ZM250.76 33.42L250.76 33.91C250.76 35.62 249.42 36.37 248.52 36.37C247.42 36.37 246.51 35.80 246.51 34.81C246.51 33.78 247.42 33.42 248.52 33.42ZM255.67 32.70C255.67 36.24 257.91 38.26 260.59 38.26C261.87 38.26 263.04 37.69 263.65 36.64L263.65 36.75C263.65 37.52 264.27 38.13 265.06 38.13C265.83 38.13 266.45 37.52 266.45 36.75L266.45 24.56C266.45 23.81 265.83 23.19 265.02 23.19C264.27 23.19 263.65 23.81 263.65 24.56L263.65 28.74C263.04 27.66 261.85 27.11 260.59 27.11C257.89 27.11 255.67 29.22 255.67 32.70ZM258.55 32.70C258.55 30.85 259.63 29.60 261.25 29.60C262.38 29.60 263.65 30.78 263.65 32.59L263.65 32.83C263.65 34.61 262.38 35.78 261.25 35.78C259.63 35.78 258.55 34.55 258.55 32.70ZM277.64 34.85C277.64 30.56 271.35 31.88 271.35 30.30C271.35 29.71 272.01 29.24 273.02 29.24C273.88 29.24 274.74 29.49 275.42 29.88C275.58 29.97 275.77 30.01 275.95 30.01C276.52 30.01 277.05 29.55 277.05 28.96C277.05 28.76 276.98 28.56 276.87 28.41C276.28 27.55 274.39 27.11 273.00 27.11C270.21 27.11 268.65 28.67 268.65 30.45C268.65 34.63 274.96 33.20 274.96 34.96C274.96 35.62 274.39 36.11 273.18 36.11C272.25 36.11 271.15 35.73 270.32 35.25C270.14 35.14 269.94 35.10 269.75 35.10C269.15 35.10 268.58 35.60 268.58 36.26C268.58 36.48 268.65 36.68 268.78 36.86C269.44 37.80 271.66 38.26 273.05 38.26C275.99 38.26 277.64 36.79 277.64 34.85Z" fill="#e6edf3" /><path d="M20.26 49.88C20.26 49.54 19.98 49.25 19.64 49.25C19.26 49.25 18.98 49.54 18.98 49.88L18.98 57.44C18.98 57.79 19.26 58.08 19.61 58.08C19.98 58.08 20.26 57.79 20.26 57.44ZM27.55 53.97C27.55 52.64 26.59 51.56 25.27 51.56C24.18 51.56 23.62 52.10 23.32 52.60L23.32 52.20C23.32 51.90 23.06 51.64 22.76 51.64C22.42 51.64 22.16 51.90 22.16 52.20L22.16 57.51C22.16 57.82 22.42 58.08 22.73 58.08C23.06 58.08 23.32 57.82 23.32 57.51L23.32 54.49C23.32 53.42 23.89 52.59 24.89 52.59C25.83 52.59 26.40 53.32 26.40 54.36L26.40 57.51C26.40 57.82 26.66 58.08 26.97 58.08C27.30 58.08 27.55 57.82 27.55 57.51ZM38.97 49.91C38.97 49.58 38.72 49.33 38.41 49.33L32.70 49.33C32.39 49.33 32.14 49.58 32.14 49.89C32.14 50.21 32.39 50.47 32.70 50.47L34.91 50.47L34.91 57.44C34.91 57.79 35.20 58.08 35.55 58.08C35.91 58.08 36.20 57.79 36.20 57.44L36.20 50.47L38.41 50.47C38.72 50.47 38.97 50.21 38.97 49.91ZM44.74 54.85C44.74 53.05 43.53 51.56 41.57 51.56C39.62 51.56 38.41 53.05 38.41 54.85C38.41 56.66 39.62 58.16 41.57 58.16C43.53 58.16 44.74 56.66 44.74 54.85ZM43.53 54.85C43.53 56.06 42.83 57.13 41.57 57.13C40.32 57.13 39.61 56.06 39.61 54.85C39.61 53.66 40.32 52.59 41.57 52.59C42.83 52.59 43.53 53.66 43.53 54.85ZM49.16 57.55C49.16 57.27 48.95 57.06 48.67 57.06C48.54 57.06 48.38 57.13 48.24 57.13C47.86 57.13 47.63 56.83 47.63 56.35L47.63 52.73L48.48 52.73C48.76 52.73 48.98 52.51 48.98 52.24C48.98 51.94 48.76 51.72 48.48 51.72L47.63 51.72L47.63 50.49C47.63 50.19 47.37 49.93 47.05 49.93C46.72 49.93 46.46 50.19 46.46 50.49L46.46 51.72L45.85 51.72C45.56 51.72 45.34 51.94 45.34 52.22C45.34 52.51 45.56 52.73 45.85 52.73L46.46 52.73L46.46 56.62C46.46 57.61 46.98 58.16 47.96 58.16C48.65 58.16 49.16 57.96 49.16 57.55ZM55.26 53.75C55.26 52.15 54.09 51.56 52.74 51.56C51.89 51.56 50.94 51.84 50.34 52.44C50.27 52.53 50.23 52.63 50.23 52.73C50.23 53.01 50.47 53.19 50.71 53.19C50.80 53.19 50.90 53.15 50.99 53.09C51.46 52.72 51.98 52.54 52.57 52.54C53.45 52.54 54.10 53.01 54.10 53.80L54.10 54.15L52.29 54.15C50.99 54.15 49.85 54.66 49.85 56.08C49.85 57.45 50.99 58.16 52.03 58.16C53.01 58.16 53.59 57.86 54.10 57.30L54.10 57.51C54.10 57.88 54.40 58.08 54.63 58.08L54.67 58.08C55.00 58.08 55.26 57.82 55.26 57.51ZM54.10 54.96L54.10 55.84C54.10 56.58 53.26 57.34 52.35 57.34C51.50 57.34 51.02 56.83 51.02 56.10C51.02 55.35 51.62 54.96 52.61 54.96ZM58.27 49.81C58.27 49.51 58.01 49.25 57.71 49.25C57.38 49.25 57.12 49.51 57.12 49.81L57.12 57.51C57.12 57.82 57.38 58.08 57.69 58.08C58.01 58.08 58.27 57.82 58.27 57.51Z" fill="#9aa7b4" /><line x1="18" y1="76" x2="48" y2="76" stroke="#9aa7b4" stroke-opacity="0.4" /><g aria-label="Packages: 109"><circle cx="22" cy="96" r="4" fill="#673bd6" /><path d="M41.38 93.99C41.38 92.55 40.40 91.33 38.62 91.33L35.82 91.33C35.35 91.33 34.98 91.71 34.98 92.17L34.98 99.44C34.98 99.79 35.26 100.08 35.61 100.08C35.98 100.08 36.26 99.79 36.26 99.44L36.26 96.66L38.62 96.66C40.37 96.66 41.38 95.44 41.38 93.99ZM40.06 93.99C40.06 94.89 39.40 95.52 38.45 95.52L36.26 95.52L36.26 92.47L38.45 92.47C39.40 92.47 40.06 93.08 40.06 93.99ZM47.48 95.75C47.48 94.15 46.31 93.56 44.96 93.56C44.11 93.56 43.17 93.84 42.57 94.44C42.49 94.53 42.45 94.63 42.45 94.73C42.45 95.01 42.70 95.19 42.93 95.19C43.02 95.19 43.13 95.15 43.22 95.09C43.69 94.72 44.21 94.54 44.79 94.54C45.67 94.54 46.32 95.01 46.32 95.80L46.32 96.15L44.52 96.15C43.22 96.15 42.07 96.66 42.07 98.08C42.07 99.45 43.22 100.16 44.26 100.16C45.23 100.16 45.82 99.86 46.32 99.30L46.32 99.51C46.32 99.88 46.62 100.08 46.86 100.08L46.90 100.08C47.22 100.08 47.48 99.82 47.48 99.51ZM46.32 96.96L46.32 97.84C46.32 98.58 45.48 99.34 44.57 99.34C43.72 99.34 43.24 98.83 43.24 98.10C43.24 97.35 43.84 96.96 44.83 96.96ZM54.35 99.05C54.35 98.75 54.07 98.54 53.80 98.54C53.67 98.54 53.54 98.58 53.44 98.66C53.08 98.97 52.68 99.13 52.21 99.13C50.97 99.13 50.16 98.17 50.16 96.85C50.16 95.54 50.97 94.59 52.21 94.59C52.67 94.59 53.08 94.73 53.44 95.05C53.54 95.14 53.67 95.19 53.80 95.19C54.09 95.19 54.33 94.96 54.33 94.67C54.33 94.57 54.31 94.47 54.24 94.40C53.81 93.90 53.11 93.56 52.15 93.56C50.26 93.56 48.96 94.98 48.96 96.85C48.96 98.74 50.26 100.16 52.15 100.16C53.08 100.16 53.72 99.84 54.19 99.39C54.29 99.30 54.35 99.17 54.35 99.05ZM60.92 99.51C60.92 99.39 60.88 99.26 60.81 99.17L58.74 96.57L60.69 94.53C60.78 94.42 60.83 94.31 60.83 94.18C60.83 93.89 60.57 93.63 60.29 93.63C60.16 93.63 60.01 93.69 59.91 93.80L56.95 96.92L56.95 91.81C56.95 91.51 56.69 91.25 56.39 91.25C56.05 91.25 55.79 91.51 55.79 91.81L55.79 99.51C55.79 99.82 56.05 100.08 56.36 100.08C56.69 100.08 56.95 99.82 56.95 99.51L56.95 98.26L57.91 97.28L59.90 99.86C60.00 100.01 60.18 100.09 60.35 100.09C60.70 100.09 60.92 99.78 60.92 99.51ZM67.59 95.75C67.59 94.15 66.42 93.56 65.07 93.56C64.23 93.56 63.28 93.84 62.68 94.44C62.60 94.53 62.56 94.63 62.56 94.73C62.56 95.01 62.81 95.19 63.04 95.19C63.13 95.19 63.24 95.15 63.33 95.09C63.80 94.72 64.32 94.54 64.90 94.54C65.78 94.54 66.44 95.01 66.44 95.80L66.44 96.15L64.63 96.15C63.33 96.15 62.18 96.66 62.18 98.08C62.18 99.45 63.33 100.16 64.37 100.16C65.34 100.16 65.93 99.86 66.44 99.30L66.44 99.51C66.44 99.88 66.73 100.08 66.97 100.08L67.01 100.08C67.33 100.08 67.59 99.82 67.59 99.51ZM66.44 96.96L66.44 97.84C66.44 98.58 65.59 99.34 64.68 99.34C63.84 99.34 63.35 98.83 63.35 98.10C63.35 97.35 63.95 96.96 64.94 96.96ZM75.08 94.20C75.08 93.90 74.82 93.64 74.52 93.64C74.18 93.64 73.92 93.90 73.92 94.20L73.92 94.63C73.42 93.95 72.69 93.56 71.86 93.56C70.23 93.56 69.07 94.79 69.07 96.81C69.07 98.86 70.24 100.05 71.86 100.05C72.71 100.05 73.45 99.60 73.92 98.96L73.92 99.79C73.92 101.13 72.96 101.60 71.99 101.60C71.30 101.60 70.75 101.46 70.27 101.05C70.18 100.99 70.09 100.96 69.97 100.96C69.71 100.96 69.48 101.18 69.48 101.46C69.48 101.59 69.53 101.70 69.61 101.78C70.22 102.37 71.10 102.55 71.99 102.55C73.52 102.55 75.08 101.91 75.08 99.75ZM73.92 96.83C73.92 98.11 73.08 99.03 72.04 99.03C70.87 99.03 70.27 98.10 70.27 96.81C70.27 95.50 70.87 94.59 72.04 94.59C73.08 94.59 73.92 95.49 73.92 96.78ZM82.75 96.65C82.75 96.40 82.69 96.13 82.63 95.92C82.27 94.51 81.23 93.56 79.71 93.56C77.89 93.56 76.58 95.03 76.58 96.85C76.58 98.83 77.94 100.16 79.81 100.16C80.73 100.16 82.35 99.67 82.35 98.97C82.35 98.53 81.91 98.43 81.62 98.57C81.16 98.91 80.46 99.22 79.93 99.22C78.66 99.22 77.88 98.35 77.78 97.27L82.15 97.27C82.48 97.27 82.75 96.96 82.75 96.65ZM77.78 96.41C77.84 95.54 78.45 94.50 79.70 94.50C81.03 94.50 81.61 95.57 81.63 96.41ZM88.83 98.10C88.72 95.89 85.12 96.50 84.99 95.37C84.93 94.86 85.48 94.49 86.27 94.49C86.87 94.49 87.43 94.68 87.83 94.97C87.91 95.03 88.00 95.06 88.11 95.06C88.34 95.06 88.56 94.86 88.56 94.61C88.56 94.50 88.52 94.40 88.44 94.32C87.95 93.84 87.16 93.56 86.26 93.56C84.73 93.56 83.80 94.29 83.87 95.41C83.99 97.52 87.57 96.87 87.70 98.26C87.76 98.83 87.24 99.23 86.34 99.23C85.69 99.23 85.04 98.97 84.57 98.64C84.48 98.57 84.39 98.54 84.27 98.54C84.00 98.54 83.76 98.75 83.76 99.03C83.76 99.16 83.82 99.26 83.91 99.34C84.48 99.91 85.43 100.16 86.29 100.16C87.95 100.16 88.90 99.30 88.83 98.10Z" fill="#e6edf3" /><path d="M201.18 92.32C201.18 91.73 200.68 91.26 200.10 91.26C199.80 91.26 199.51 91.38 199.32 91.58L197.32 93.60C197.16 93.76 197.08 93.95 197.08 94.15C197.08 94.58 197.45 94.92 197.85 94.92C198.03 94.92 198.21 94.85 198.36 94.71L199.33 93.71L199.33 99.17C199.33 99.66 199.75 100.08 200.24 100.08C200.76 100.08 201.18 99.66 201.18 99.17ZM209.65 95.67C209.65 93.44 208.54 91.20 206.07 91.20C203.58 91.20 202.48 93.44 202.48 95.67C202.48 97.91 203.58 100.16 206.07 100.16C208.54 100.16 209.65 97.91 209.65 95.67ZM207.77 95.67C207.77 97.27 207.30 98.52 206.07 98.52C204.82 98.52 204.35 97.27 204.35 95.67C204.35 94.07 204.82 92.84 206.07 92.84C207.30 92.84 207.77 94.07 207.77 95.67ZM210.49 94.16C210.49 96.01 211.88 96.98 213.44 96.98C214.52 96.98 215.32 96.45 215.66 95.87C215.67 95.93 215.67 95.98 215.67 96.05C215.67 97.43 214.78 98.50 213.50 98.50C213.06 98.50 212.70 98.43 212.37 98.26C212.25 98.19 212.12 98.17 211.99 98.17C211.59 98.17 211.15 98.48 211.15 98.97C211.15 99.10 211.19 99.22 211.24 99.32C211.56 99.90 212.66 100.14 213.50 100.14C216.06 100.14 217.54 98.28 217.54 95.66C217.54 93.21 216.44 91.19 213.80 91.19C211.82 91.19 210.49 92.47 210.49 94.16ZM212.36 94.10C212.36 93.45 212.84 92.82 213.84 92.82C214.66 92.82 215.27 93.38 215.27 94.19C215.27 94.97 214.65 95.53 213.84 95.53C213.01 95.53 212.36 94.97 212.36 94.10Z" fill="#9aa7b4" /></g><g aria-label="Organizations: 8"><circle cx="22" cy="118" r="4" fill="#2c96f2" /><path d="M43.33 117.67C43.33 115.10 41.54 113.19 38.97 113.19C36.38 113.19 34.60 115.10 34.60 117.67C34.60 120.25 36.38 122.16 38.97 122.16C41.54 122.16 43.33 120.25 43.33 117.67ZM42.01 117.67C42.01 119.58 40.81 121.01 38.97 121.01C37.11 121.01 35.94 119.58 35.94 117.67C35.94 115.75 37.11 114.33 38.97 114.33C40.81 114.33 42.01 115.75 42.01 117.67ZM48.18 116.15C48.18 115.85 47.96 115.63 47.66 115.63C46.96 115.63 46.39 116.22 46.04 116.70L46.04 116.20C46.04 115.90 45.78 115.64 45.48 115.64C45.14 115.64 44.88 115.90 44.88 116.20L44.88 121.51C44.88 121.82 45.13 122.06 45.44 122.08L45.45 122.08C45.78 122.08 46.04 121.82 46.04 121.51L46.04 118.28C46.04 117.46 46.61 116.81 47.60 116.76C47.92 116.75 48.18 116.49 48.18 116.15ZM54.90 116.20C54.90 115.90 54.64 115.64 54.34 115.64C54.01 115.64 53.75 115.90 53.75 116.20L53.75 116.63C53.24 115.95 52.51 115.56 51.68 115.56C50.05 115.56 48.90 116.79 48.90 118.81C48.90 120.86 50.07 122.05 51.68 122.05C52.54 122.05 53.28 121.60 53.75 120.96L53.75 121.79C53.75 123.13 52.78 123.60 51.81 123.60C51.12 123.60 50.57 123.46 50.09 123.05C50.00 122.99 49.91 122.96 49.80 122.96C49.53 122.96 49.30 123.18 49.30 123.46C49.30 123.59 49.35 123.70 49.43 123.78C50.04 124.37 50.93 124.55 51.81 124.55C53.34 124.55 54.90 123.91 54.90 121.75ZM53.75 118.83C53.75 120.11 52.90 121.03 51.86 121.03C50.69 121.03 50.09 120.10 50.09 118.81C50.09 117.50 50.69 116.59 51.86 116.59C52.90 116.59 53.75 117.49 53.75 118.78ZM61.82 117.75C61.82 116.15 60.65 115.56 59.30 115.56C58.45 115.56 57.50 115.84 56.91 116.44C56.83 116.53 56.79 116.63 56.79 116.73C56.79 117.01 57.04 117.19 57.27 117.19C57.36 117.19 57.46 117.15 57.56 117.09C58.02 116.72 58.54 116.54 59.13 116.54C60.01 116.54 60.66 117.01 60.66 117.80L60.66 118.15L58.86 118.15C57.56 118.15 56.41 118.66 56.41 120.08C56.41 121.45 57.56 122.16 58.60 122.16C59.57 122.16 60.16 121.86 60.66 121.30L60.66 121.51C60.66 121.88 60.96 122.08 61.20 122.08L61.23 122.08C61.56 122.08 61.82 121.82 61.82 121.51ZM60.66 118.96L60.66 119.84C60.66 120.58 59.82 121.34 58.91 121.34C58.06 121.34 57.58 120.83 57.58 120.10C57.58 119.35 58.18 118.96 59.17 118.96ZM69.07 117.97C69.07 116.64 68.11 115.56 66.79 115.56C65.69 115.56 65.13 116.10 64.84 116.61L64.84 116.20C64.84 115.90 64.58 115.64 64.28 115.64C63.94 115.64 63.68 115.90 63.68 116.20L63.68 121.51C63.68 121.82 63.94 122.08 64.25 122.08C64.58 122.08 64.84 121.82 64.84 121.51L64.84 118.49C64.84 117.42 65.41 116.59 66.41 116.59C67.34 116.59 67.92 117.32 67.92 118.36L67.92 121.51C67.92 121.82 68.18 122.08 68.49 122.08C68.81 122.08 69.07 121.82 69.07 121.51ZM71.52 113.39C71.11 113.39 70.78 113.73 70.78 114.15C70.78 114.55 71.11 114.89 71.52 114.89C71.93 114.89 72.26 114.55 72.26 114.15C72.26 113.73 71.93 113.39 71.52 113.39ZM72.10 116.20C72.10 115.90 71.84 115.64 71.54 115.64C71.21 115.64 70.95 115.90 70.95 116.20L70.95 121.51C70.95 121.82 71.21 122.08 71.52 122.08C71.84 122.08 72.10 121.82 72.10 121.51ZM78.63 121.48C78.63 121.22 78.41 121.00 78.15 121.00L75.18 121.00L78.45 116.66C78.52 116.55 78.56 116.42 78.56 116.29C78.56 115.95 78.30 115.72 78.04 115.72L74.09 115.72C73.82 115.72 73.60 115.94 73.60 116.22C73.60 116.51 73.82 116.73 74.09 116.73L76.96 116.73L73.74 121.04C73.66 121.14 73.61 121.27 73.61 121.42C73.61 121.75 73.86 122 74.16 122L78.15 122C78.41 122 78.63 121.78 78.63 121.48ZM85.18 117.75C85.18 116.15 84.01 115.56 82.66 115.56C81.81 115.56 80.86 115.84 80.27 116.44C80.19 116.53 80.15 116.63 80.15 116.73C80.15 117.01 80.40 117.19 80.63 117.19C80.72 117.19 80.83 117.15 80.92 117.09C81.38 116.72 81.90 116.54 82.49 116.54C83.37 116.54 84.02 117.01 84.02 117.80L84.02 118.15L82.22 118.15C80.92 118.15 79.77 118.66 79.77 120.08C79.77 121.45 80.92 122.16 81.96 122.16C82.93 122.16 83.52 121.86 84.02 121.30L84.02 121.51C84.02 121.88 84.32 122.08 84.56 122.08L84.60 122.08C84.92 122.08 85.18 121.82 85.18 121.51ZM84.02 118.96L84.02 119.84C84.02 120.58 83.18 121.34 82.27 121.34C81.42 121.34 80.94 120.83 80.94 120.10C80.94 119.35 81.54 118.96 82.53 118.96ZM89.97 121.55C89.97 121.27 89.76 121.06 89.47 121.06C89.34 121.06 89.19 121.13 89.04 121.13C88.67 121.13 88.43 120.83 88.43 120.35L88.43 116.73L89.29 116.73C89.56 116.73 89.78 116.51 89.78 116.24C89.78 115.94 89.56 115.72 89.29 115.72L88.43 115.72L88.43 114.49C88.43 114.19 88.17 113.93 87.86 113.93C87.52 113.93 87.26 114.19 87.26 114.49L87.26 115.72L86.65 115.72C86.36 115.72 86.14 115.94 86.14 116.22C86.14 116.51 86.36 116.73 86.65 116.73L87.26 116.73L87.26 120.62C87.26 121.61 87.78 122.16 88.77 122.16C89.46 122.16 89.97 121.96 89.97 121.55ZM91.59 113.39C91.19 113.39 90.85 113.73 90.85 114.15C90.85 114.55 91.19 114.89 91.59 114.89C92.01 114.89 92.33 114.55 92.33 114.15C92.33 113.73 92.01 113.39 91.59 113.39ZM92.17 116.20C92.17 115.90 91.91 115.64 91.62 115.64C91.28 115.64 91.02 115.90 91.02 116.20L91.02 121.51C91.02 121.82 91.28 122.08 91.59 122.08C91.91 122.08 92.17 121.82 92.17 121.51ZM100.00 118.85C100.00 117.05 98.79 115.56 96.83 115.56C94.88 115.56 93.67 117.05 93.67 118.85C93.67 120.66 94.88 122.16 96.83 122.16C98.79 122.16 100.00 120.66 100.00 118.85ZM98.79 118.85C98.79 120.06 98.09 121.13 96.83 121.13C95.58 121.13 94.87 120.06 94.87 118.85C94.87 117.66 95.58 116.59 96.83 116.59C98.09 116.59 98.79 117.66 98.79 118.85ZM106.89 117.97C106.89 116.64 105.93 115.56 104.60 115.56C103.51 115.56 102.95 116.10 102.65 116.61L102.65 116.20C102.65 115.90 102.39 115.64 102.09 115.64C101.76 115.64 101.50 115.90 101.50 116.20L101.50 121.51C101.50 121.82 101.76 122.08 102.07 122.08C102.39 122.08 102.65 121.82 102.65 121.51L102.65 118.49C102.65 117.42 103.22 116.59 104.23 116.59C105.16 116.59 105.73 117.32 105.73 118.36L105.73 121.51C105.73 121.82 105.99 122.08 106.31 122.08C106.63 122.08 106.89 121.82 106.89 121.51ZM113.36 120.10C113.25 117.89 109.65 118.50 109.52 117.37C109.46 116.86 110.01 116.49 110.80 116.49C111.40 116.49 111.96 116.68 112.36 116.97C112.44 117.03 112.53 117.06 112.64 117.06C112.87 117.06 113.09 116.86 113.09 116.61C113.09 116.50 113.05 116.40 112.97 116.32C112.48 115.84 111.69 115.56 110.79 115.56C109.26 115.56 108.33 116.29 108.40 117.41C108.52 119.52 112.10 118.87 112.23 120.26C112.29 120.83 111.77 121.23 110.87 121.23C110.22 121.23 109.57 120.97 109.10 120.64C109.01 120.57 108.92 120.54 108.80 120.54C108.53 120.54 108.29 120.75 108.29 121.03C108.29 121.16 108.35 121.26 108.44 121.34C109.01 121.91 109.96 122.16 110.82 122.16C112.48 122.16 113.43 121.30 113.36 120.10Z" fill="#e6edf3" /><path d="M217.54 119.62C217.54 118.44 216.84 117.76 216.32 117.53C216.76 117.32 217.40 116.83 217.40 115.49C217.40 113.99 215.79 113.20 214.06 113.20C212.32 113.20 210.72 113.99 210.72 115.49C210.72 116.83 211.34 117.32 211.79 117.53C211.27 117.76 210.58 118.44 210.58 119.62C210.58 121.25 212.24 122.16 214.06 122.16C215.88 122.16 217.54 121.23 217.54 119.62ZM215.52 115.77C215.52 116.42 214.85 116.80 214.06 116.80C213.27 116.80 212.59 116.42 212.59 115.77C212.59 115.15 213.20 114.78 214.06 114.78C214.91 114.78 215.52 115.15 215.52 115.77ZM215.67 119.52C215.67 120.15 214.94 120.57 214.06 120.57C213.15 120.57 212.45 120.15 212.45 119.52C212.45 118.79 213.25 118.36 214.06 118.36C214.85 118.36 215.67 118.79 215.67 119.52Z" fill="#9aa7b4" /></g><g aria-label="Versions Published: 14,689"><circle cx="22" cy="140" r="4" fill="#00a5fe" /><path d="M42.28 135.93C42.28 135.58 42.00 135.25 41.59 135.25C41.31 135.25 41.06 135.42 40.97 135.68L38.32 142.60L35.68 135.68C35.57 135.41 35.31 135.25 35.05 135.25C34.64 135.25 34.35 135.62 34.35 135.93C34.35 136.02 34.36 136.10 34.40 136.17L37.28 143.39C37.43 143.81 37.85 144.08 38.29 144.08L38.36 144.08C38.78 144.08 39.20 143.81 39.37 143.39L42.24 136.17C42.27 136.10 42.28 136.00 42.28 135.93ZM48.60 140.65C48.60 140.40 48.53 140.13 48.48 139.92C48.12 138.51 47.08 137.56 45.56 137.56C43.74 137.56 42.42 139.03 42.42 140.85C42.42 142.83 43.79 144.16 45.66 144.16C46.58 144.16 48.20 143.68 48.20 142.97C48.20 142.53 47.75 142.43 47.47 142.57C47.01 142.91 46.31 143.22 45.78 143.22C44.50 143.22 43.72 142.35 43.63 141.27L48.00 141.27C48.33 141.27 48.60 140.96 48.60 140.65ZM43.63 140.41C43.69 139.54 44.30 138.50 45.54 138.50C46.88 138.50 47.46 139.57 47.48 140.41ZM53.38 138.15C53.38 137.85 53.16 137.63 52.86 137.63C52.16 137.63 51.59 138.22 51.24 138.70L51.24 138.20C51.24 137.90 50.98 137.64 50.68 137.64C50.34 137.64 50.08 137.90 50.08 138.20L50.08 143.51C50.08 143.82 50.33 144.06 50.64 144.08L50.65 144.08C50.98 144.08 51.24 143.82 51.24 143.51L51.24 140.28C51.24 139.46 51.81 138.81 52.80 138.76C53.12 138.75 53.38 138.49 53.38 138.15ZM59.08 142.10C58.96 139.89 55.36 140.50 55.23 139.37C55.18 138.87 55.72 138.49 56.52 138.49C57.11 138.49 57.67 138.68 58.08 138.97C58.15 139.03 58.25 139.06 58.35 139.06C58.58 139.06 58.80 138.87 58.80 138.60C58.80 138.50 58.77 138.40 58.69 138.32C58.19 137.84 57.40 137.56 56.50 137.56C54.97 137.56 54.05 138.29 54.11 139.41C54.23 141.52 57.82 140.87 57.95 142.26C58.00 142.83 57.48 143.23 56.58 143.23C55.93 143.23 55.28 142.97 54.81 142.63C54.72 142.57 54.63 142.54 54.51 142.54C54.24 142.54 54.01 142.75 54.01 143.03C54.01 143.16 54.06 143.26 54.15 143.34C54.72 143.91 55.67 144.16 56.53 144.16C58.19 144.16 59.14 143.30 59.08 142.10ZM61.13 135.39C60.73 135.39 60.39 135.73 60.39 136.15C60.39 136.55 60.73 136.89 61.13 136.89C61.55 136.89 61.87 136.55 61.87 136.15C61.87 135.73 61.55 135.39 61.13 135.39ZM61.72 138.20C61.72 137.90 61.46 137.64 61.16 137.64C60.82 137.64 60.56 137.90 60.56 138.20L60.56 143.51C60.56 143.82 60.82 144.08 61.13 144.08C61.46 144.08 61.72 143.82 61.72 143.51ZM69.54 140.85C69.54 139.05 68.33 137.56 66.37 137.56C64.42 137.56 63.21 139.05 63.21 140.85C63.21 142.66 64.42 144.16 66.37 144.16C68.33 144.16 69.54 142.66 69.54 140.85ZM68.33 140.85C68.33 142.06 67.63 143.13 66.37 143.13C65.12 143.13 64.41 142.06 64.41 140.85C64.41 139.66 65.12 138.59 66.37 138.59C67.63 138.59 68.33 139.66 68.33 140.85ZM76.43 139.97C76.43 138.64 75.47 137.56 74.14 137.56C73.05 137.56 72.49 138.10 72.19 138.60L72.19 138.20C72.19 137.90 71.93 137.64 71.64 137.64C71.30 137.64 71.04 137.90 71.04 138.20L71.04 143.51C71.04 143.82 71.30 144.08 71.61 144.08C71.93 144.08 72.19 143.82 72.19 143.51L72.19 140.49C72.19 139.42 72.77 138.59 73.77 138.59C74.70 138.59 75.28 139.32 75.28 140.36L75.28 143.51C75.28 143.82 75.54 144.08 75.85 144.08C76.17 144.08 76.43 143.82 76.43 143.51ZM82.91 142.10C82.79 139.89 79.19 140.50 79.06 139.37C79.01 138.87 79.55 138.49 80.35 138.49C80.94 138.49 81.50 138.68 81.91 138.97C81.98 139.03 82.07 139.06 82.18 139.06C82.41 139.06 82.63 138.87 82.63 138.60C82.63 138.50 82.59 138.40 82.52 138.32C82.02 137.84 81.23 137.56 80.33 137.56C78.80 137.56 77.88 138.29 77.94 139.41C78.06 141.52 81.65 140.87 81.78 142.26C81.83 142.83 81.31 143.23 80.41 143.23C79.76 143.23 79.11 142.97 78.64 142.63C78.55 142.57 78.46 142.54 78.34 142.54C78.07 142.54 77.84 142.75 77.84 143.03C77.84 143.16 77.89 143.26 77.98 143.34C78.55 143.91 79.50 144.16 80.36 144.16C82.02 144.16 82.97 143.30 82.91 142.10ZM94.18 137.99C94.18 136.55 93.19 135.33 91.41 135.33L88.61 135.33C88.15 135.33 87.77 135.71 87.77 136.17L87.77 143.44C87.77 143.79 88.05 144.08 88.41 144.08C88.77 144.08 89.06 143.79 89.06 143.44L89.06 140.66L91.41 140.66C93.16 140.66 94.18 139.44 94.18 137.99ZM92.85 137.99C92.85 138.89 92.19 139.51 91.24 139.51L89.06 139.51L89.06 136.47L91.24 136.47C92.19 136.47 92.85 137.08 92.85 137.99ZM100.90 138.20C100.90 137.90 100.64 137.64 100.34 137.64C100.00 137.64 99.74 137.90 99.74 138.20L99.74 141.19C99.74 142.26 99.06 143.13 98.13 143.13C97.19 143.13 96.66 142.41 96.66 141.37L96.66 138.20C96.66 137.90 96.40 137.64 96.10 137.64C95.76 137.64 95.50 137.90 95.50 138.20L95.50 141.78C95.50 143.10 96.44 144.16 97.77 144.16C98.86 144.16 99.40 143.68 99.74 143.14L99.74 143.51C99.74 143.82 100.00 144.08 100.31 144.08C100.64 144.08 100.90 143.82 100.90 143.51ZM108.78 140.87C108.78 138.85 107.74 137.56 106.11 137.56C105.15 137.56 104.42 137.96 103.91 138.63L103.91 135.81C103.91 135.51 103.65 135.25 103.36 135.25C103.02 135.25 102.76 135.51 102.76 135.81L102.76 143.51C102.76 143.82 103.02 144.08 103.33 144.08C103.65 144.08 103.91 143.82 103.91 143.51L103.91 143.10C104.38 143.73 105.14 144.16 105.98 144.16C107.61 144.16 108.78 142.92 108.78 140.87ZM107.57 140.87C107.57 142.18 106.98 143.13 105.79 143.13C104.95 143.13 103.91 142.22 103.91 140.92L103.91 140.83C103.91 139.54 104.69 138.59 105.79 138.59C106.98 138.59 107.57 139.55 107.57 140.87ZM111.43 135.81C111.43 135.51 111.17 135.25 110.87 135.25C110.53 135.25 110.27 135.51 110.27 135.81L110.27 143.51C110.27 143.82 110.53 144.08 110.84 144.08C111.17 144.08 111.43 143.82 111.43 143.51ZM113.87 135.39C113.47 135.39 113.13 135.73 113.13 136.15C113.13 136.55 113.47 136.89 113.87 136.89C114.29 136.89 114.61 136.55 114.61 136.15C114.61 135.73 114.29 135.39 113.87 135.39ZM114.46 138.20C114.46 137.90 114.20 137.64 113.90 137.64C113.56 137.64 113.30 137.90 113.30 138.20L113.30 143.51C113.30 143.82 113.56 144.08 113.87 144.08C114.20 144.08 114.46 143.82 114.46 143.51ZM120.93 142.10C120.81 139.89 117.21 140.50 117.08 139.37C117.03 138.87 117.58 138.49 118.37 138.49C118.97 138.49 119.53 138.68 119.93 138.97C120.01 139.03 120.10 139.06 120.20 139.06C120.44 139.06 120.66 138.87 120.66 138.60C120.66 138.50 120.62 138.40 120.54 138.32C120.05 137.84 119.25 137.56 118.36 137.56C116.82 137.56 115.90 138.29 115.96 139.41C116.08 141.52 119.67 140.87 119.80 142.26C119.85 142.83 119.33 143.23 118.43 143.23C117.78 143.23 117.13 142.97 116.67 142.63C116.58 142.57 116.48 142.54 116.37 142.54C116.09 142.54 115.86 142.75 115.86 143.03C115.86 143.16 115.91 143.26 116.00 143.34C116.58 143.91 117.52 144.16 118.38 144.16C120.05 144.16 121.00 143.30 120.93 142.10ZM127.82 139.94C127.82 138.62 126.87 137.56 125.55 137.56C124.44 137.56 123.87 138.10 123.57 138.60L123.57 135.81C123.57 135.51 123.31 135.25 123.01 135.25C122.67 135.25 122.41 135.51 122.41 135.81L122.41 143.51C122.41 143.82 122.67 144.08 122.98 144.08C123.31 144.08 123.57 143.82 123.57 143.51L123.57 140.56C123.57 139.38 124.19 138.59 125.18 138.59C126.12 138.59 126.66 139.29 126.66 140.33L126.66 143.51C126.66 143.82 126.92 144.08 127.24 144.08C127.56 144.08 127.82 143.82 127.82 143.51ZM135.49 140.65C135.49 140.40 135.43 140.13 135.37 139.92C135.01 138.51 133.97 137.56 132.45 137.56C130.63 137.56 129.32 139.03 129.32 140.85C129.32 142.83 130.68 144.16 132.55 144.16C133.48 144.16 135.09 143.68 135.09 142.97C135.09 142.53 134.65 142.43 134.36 142.57C133.90 142.91 133.20 143.22 132.67 143.22C131.40 143.22 130.62 142.35 130.52 141.27L134.89 141.27C135.22 141.27 135.49 140.96 135.49 140.65ZM130.52 140.41C130.58 139.54 131.19 138.50 132.44 138.50C133.77 138.50 134.35 139.57 134.37 140.41ZM142.61 135.81C142.61 135.51 142.35 135.25 142.06 135.25C141.72 135.25 141.46 135.51 141.46 135.81L141.46 138.63C140.95 137.96 140.34 137.56 139.39 137.56C137.75 137.56 136.60 138.85 136.60 140.87C136.60 142.92 137.77 144.16 139.39 144.16C140.37 144.16 140.98 143.73 141.46 143.10L141.46 143.51C141.46 143.82 141.72 144.08 142.03 144.08C142.35 144.08 142.61 143.82 142.61 143.51ZM141.46 140.91C141.46 142.21 140.81 143.13 139.69 143.13C138.52 143.13 137.79 142.18 137.79 140.87C137.79 139.55 138.52 138.59 139.69 138.59C140.81 138.59 141.46 139.54 141.46 140.83Z" fill="#e6edf3" /><path d="M182.64 136.32C182.64 135.73 182.15 135.26 181.56 135.26C181.26 135.26 180.98 135.38 180.78 135.58L178.78 137.60C178.62 137.76 178.54 137.96 178.54 138.15C178.54 138.58 178.91 138.92 179.31 138.92C179.49 138.92 179.68 138.85 179.82 138.71L180.79 137.71L180.79 143.17C180.79 143.66 181.21 144.08 181.70 144.08C182.22 144.08 182.64 143.66 182.64 143.17ZM191.01 141.40C191.01 140.94 190.65 140.58 190.22 140.58L189.82 140.58L189.82 136.29C189.82 135.49 189.04 135.12 188.24 135.25C187.68 135.25 187.13 135.55 186.83 136.02L183.93 140.59C183.81 140.78 183.76 140.98 183.76 141.19C183.76 141.78 184.19 142.21 184.71 142.21L187.97 142.21L187.97 143.17C187.97 143.66 188.39 144.08 188.88 144.08C189.40 144.08 189.82 143.66 189.82 143.17L189.82 142.21L190.22 142.21C190.65 142.21 191.01 141.84 191.01 141.40ZM185.63 140.58L187.97 136.97L187.97 140.58ZM194.05 143.36C194.05 142.52 193.49 142.04 192.88 142.04C192.34 142.04 191.87 142.50 191.87 143.08C191.87 143.64 192.26 144.01 192.75 144.01C192.84 144.01 192.96 143.99 193.00 143.97C192.92 144.31 192.64 144.72 192.30 144.99C192.21 145.07 192.17 145.17 192.17 145.27C192.17 145.53 192.44 145.69 192.66 145.69C192.79 145.69 192.91 145.65 193.00 145.56C193.65 144.97 194.05 144.19 194.05 143.36ZM201.81 141.18C201.81 139.33 200.42 138.36 198.86 138.36C197.78 138.36 196.98 138.89 196.64 139.48C196.63 139.41 196.63 139.36 196.63 139.29C196.63 137.92 197.53 136.84 198.80 136.84C199.24 136.84 199.60 136.91 199.93 137.08C200.05 137.15 200.18 137.18 200.31 137.18C200.71 137.18 201.15 136.86 201.15 136.37C201.15 136.24 201.11 136.12 201.06 136.02C200.74 135.45 199.64 135.20 198.80 135.20C196.24 135.20 194.76 137.06 194.76 139.68C194.76 142.13 195.86 144.16 198.50 144.16C200.48 144.16 201.81 142.87 201.81 141.18ZM199.94 141.24C199.94 141.89 199.46 142.52 198.46 142.52C197.64 142.52 197.03 141.96 197.03 141.15C197.03 140.37 197.66 139.81 198.46 139.81C199.29 139.81 199.94 140.37 199.94 141.24ZM209.64 141.62C209.64 140.44 208.94 139.76 208.42 139.53C208.86 139.32 209.50 138.83 209.50 137.49C209.50 135.99 207.89 135.20 206.16 135.20C204.41 135.20 202.82 135.99 202.82 137.49C202.82 138.83 203.44 139.32 203.88 139.53C203.36 139.76 202.67 140.44 202.67 141.62C202.67 143.25 204.34 144.16 206.16 144.16C207.98 144.16 209.64 143.23 209.64 141.62ZM207.61 137.77C207.61 138.42 206.95 138.80 206.16 138.80C205.36 138.80 204.69 138.42 204.69 137.77C204.69 137.15 205.30 136.78 206.16 136.78C207.00 136.78 207.61 137.15 207.61 137.77ZM207.77 141.52C207.77 142.15 207.04 142.57 206.16 142.57C205.25 142.57 204.54 142.15 204.54 141.52C204.54 140.79 205.35 140.36 206.16 140.36C206.95 140.36 207.77 140.79 207.77 141.52ZM210.49 138.16C210.49 140.01 211.88 140.98 213.44 140.98C214.52 140.98 215.32 140.45 215.66 139.87C215.67 139.93 215.67 139.98 215.67 140.05C215.67 141.43 214.78 142.50 213.50 142.50C213.06 142.50 212.70 142.43 212.37 142.26C212.25 142.19 212.12 142.17 211.99 142.17C211.59 142.17 211.15 142.48 211.15 142.97C211.15 143.10 211.19 143.22 211.24 143.32C211.56 143.90 212.66 144.14 213.50 144.14C216.06 144.14 217.55 142.28 217.55 139.66C217.55 137.21 216.44 135.19 213.80 135.19C211.83 135.19 210.49 136.47 210.49 138.16ZM212.36 138.10C212.36 137.45 212.84 136.82 213.84 136.82C214.66 136.82 215.27 137.38 215.27 138.19C215.27 138.97 214.65 139.53 213.84 139.53C213.01 139.53 212.36 138.97 212.36 138.10Z" fill="#9aa7b4" /></g><g aria-label="This Week: 26,319,990"><circle cx="22" cy="162" r="4" fill="#00d559" /><path d="M41.14 157.91C41.14 157.58 40.89 157.33 40.58 157.33L34.87 157.33C34.56 157.33 34.31 157.58 34.31 157.89C34.31 158.21 34.56 158.47 34.87 158.47L37.08 158.47L37.08 165.44C37.08 165.79 37.37 166.08 37.72 166.08C38.08 166.08 38.37 165.79 38.37 165.44L38.37 158.47L40.58 158.47C40.89 158.47 41.14 158.21 41.14 157.91ZM47.79 161.94C47.79 160.62 46.84 159.56 45.52 159.56C44.41 159.56 43.84 160.10 43.54 160.60L43.54 157.81C43.54 157.51 43.28 157.25 42.98 157.25C42.64 157.25 42.38 157.51 42.38 157.81L42.38 165.51C42.38 165.82 42.64 166.08 42.96 166.08C43.28 166.08 43.54 165.82 43.54 165.51L43.54 162.56C43.54 161.38 44.17 160.59 45.15 160.59C46.09 160.59 46.64 161.29 46.64 162.33L46.64 165.51C46.64 165.82 46.90 166.08 47.21 166.08C47.53 166.08 47.79 165.82 47.79 165.51ZM50.24 157.39C49.83 157.39 49.50 157.73 49.50 158.15C49.50 158.55 49.83 158.89 50.24 158.89C50.65 158.89 50.98 158.55 50.98 158.15C50.98 157.73 50.65 157.39 50.24 157.39ZM50.82 160.20C50.82 159.90 50.56 159.64 50.26 159.64C49.92 159.64 49.66 159.90 49.66 160.20L49.66 165.51C49.66 165.82 49.92 166.08 50.24 166.08C50.56 166.08 50.82 165.82 50.82 165.51ZM57.30 164.10C57.18 161.89 53.58 162.50 53.45 161.37C53.40 160.87 53.94 160.49 54.73 160.49C55.33 160.49 55.89 160.68 56.30 160.97C56.37 161.03 56.46 161.06 56.57 161.06C56.80 161.06 57.02 160.87 57.02 160.60C57.02 160.50 56.98 160.40 56.91 160.32C56.41 159.84 55.62 159.56 54.72 159.56C53.19 159.56 52.27 160.29 52.33 161.41C52.45 163.52 56.04 162.87 56.17 164.26C56.22 164.83 55.70 165.23 54.80 165.23C54.15 165.23 53.50 164.97 53.03 164.63C52.94 164.57 52.85 164.54 52.73 164.54C52.46 164.54 52.23 164.75 52.23 165.03C52.23 165.16 52.28 165.26 52.37 165.34C52.94 165.91 53.89 166.16 54.75 166.16C56.41 166.16 57.36 165.30 57.30 164.10ZM72.45 157.89C72.45 157.54 72.17 157.24 71.77 157.24C71.45 157.24 71.17 157.45 71.10 157.75L69.40 164.30L67.62 157.73C67.54 157.45 67.28 157.25 66.99 157.25C66.68 157.25 66.42 157.45 66.36 157.73L64.56 164.30L62.86 157.75C62.78 157.43 62.48 157.22 62.18 157.22C61.77 157.22 61.51 157.55 61.51 157.89C61.51 157.95 61.52 158.00 61.53 158.07L63.64 165.45C63.73 165.82 64.06 166.08 64.46 166.08L64.49 166.08C64.88 166.08 65.21 165.82 65.32 165.44L66.98 159.29L68.63 165.44C68.72 165.81 69.06 166.08 69.45 166.08L69.48 166.08C69.87 166.08 70.22 165.82 70.32 165.44L72.43 158.07C72.44 158.02 72.45 157.95 72.45 157.89ZM78.99 162.65C78.99 162.40 78.93 162.13 78.88 161.92C78.51 160.51 77.47 159.56 75.95 159.56C74.13 159.56 72.82 161.03 72.82 162.85C72.82 164.83 74.18 166.16 76.06 166.16C76.98 166.16 78.59 165.68 78.59 164.97C78.59 164.53 78.15 164.43 77.86 164.57C77.41 164.91 76.71 165.22 76.17 165.22C74.90 165.22 74.12 164.35 74.03 163.27L78.40 163.27C78.72 163.27 78.99 162.96 78.99 162.65ZM74.03 162.41C74.08 161.54 74.69 160.50 75.94 160.50C77.28 160.50 77.85 161.57 77.88 162.41ZM86.27 162.65C86.27 162.40 86.21 162.13 86.16 161.92C85.79 160.51 84.75 159.56 83.23 159.56C81.41 159.56 80.10 161.03 80.10 162.85C80.10 164.83 81.46 166.16 83.34 166.16C84.26 166.16 85.87 165.68 85.87 164.97C85.87 164.53 85.43 164.43 85.14 164.57C84.69 164.91 83.99 165.22 83.45 165.22C82.18 165.22 81.40 164.35 81.31 163.27L85.68 163.27C86.00 163.27 86.27 162.96 86.27 162.65ZM81.31 162.41C81.36 161.54 81.97 160.50 83.22 160.50C84.56 160.50 85.13 161.57 85.16 162.41ZM92.89 165.51C92.89 165.39 92.85 165.26 92.77 165.17L90.71 162.57L92.66 160.53C92.75 160.42 92.80 160.31 92.80 160.18C92.80 159.89 92.54 159.63 92.25 159.63C92.12 159.63 91.98 159.69 91.88 159.80L88.91 162.92L88.91 157.81C88.91 157.51 88.65 157.25 88.35 157.25C88.02 157.25 87.76 157.51 87.76 157.81L87.76 165.51C87.76 165.82 88.02 166.08 88.33 166.08C88.65 166.08 88.91 165.82 88.91 165.51L88.91 164.26L89.87 163.28L91.86 165.86C91.97 166.01 92.15 166.09 92.32 166.09C92.67 166.09 92.89 165.78 92.89 165.51Z" fill="#e6edf3" /><path d="M158.38 165.17C158.38 164.74 158.02 164.38 157.59 164.38L154.77 164.38C157.02 162.74 158.24 161.45 158.24 159.97C158.24 158.24 156.77 157.20 154.92 157.20C153.83 157.20 152.38 157.67 151.96 158.33C151.88 158.45 151.84 158.58 151.84 158.71C151.84 159.18 152.22 159.54 152.65 159.54C152.84 159.54 153.01 159.49 153.18 159.37C153.68 159.03 154.27 158.84 154.96 158.84C155.68 158.84 156.37 159.21 156.37 159.97C156.37 160.98 155.33 161.93 152.09 164.32C151.84 164.50 151.70 164.80 151.70 165.10C151.70 165.62 152.12 166 152.57 166L157.59 166C158.02 166 158.38 165.64 158.38 165.17ZM166.47 163.18C166.47 161.33 165.08 160.36 163.52 160.36C162.44 160.36 161.63 160.89 161.29 161.48C161.28 161.41 161.28 161.36 161.28 161.29C161.28 159.92 162.18 158.84 163.45 158.84C163.89 158.84 164.26 158.91 164.58 159.08C164.70 159.15 164.83 159.18 164.96 159.18C165.36 159.18 165.80 158.86 165.80 158.37C165.80 158.24 165.77 158.12 165.71 158.02C165.39 157.45 164.30 157.20 163.45 157.20C160.89 157.20 159.41 159.06 159.41 161.68C159.41 164.13 160.51 166.16 163.15 166.16C165.13 166.16 166.47 164.87 166.47 163.18ZM164.60 163.24C164.60 163.89 164.11 164.52 163.11 164.52C162.29 164.52 161.68 163.96 161.68 163.15C161.68 162.37 162.31 161.81 163.11 161.81C163.95 161.81 164.60 162.37 164.60 163.24ZM169.67 165.36C169.67 164.52 169.11 164.04 168.50 164.04C167.95 164.04 167.48 164.50 167.48 165.08C167.48 165.64 167.87 166.01 168.37 166.01C168.46 166.01 168.57 165.99 168.61 165.97C168.53 166.31 168.25 166.72 167.91 166.99C167.82 167.07 167.78 167.17 167.78 167.27C167.78 167.53 168.05 167.69 168.27 167.69C168.40 167.69 168.52 167.65 168.61 167.56C169.26 166.97 169.67 166.19 169.67 165.36ZM177.26 163.63C177.36 162.07 176.31 161.53 176.31 161.53C176.31 161.53 177.27 161.03 177.17 159.55C177.06 158.11 175.92 157.20 173.89 157.20C172.69 157.20 171.76 157.55 171.04 158.12C170.86 158.26 170.77 158.47 170.77 158.68C170.77 159.14 171.17 159.46 171.58 159.46C171.73 159.46 171.89 159.42 172.02 159.33C172.53 159.01 173.10 158.84 173.70 158.84C174.61 158.84 175.31 159.04 175.31 159.73C175.31 160.45 174.88 160.79 174.01 160.79C173.38 160.79 173.11 161.14 173.11 161.59C173.11 162.05 173.38 162.41 174.06 162.41C174.94 162.41 175.45 162.72 175.45 163.41C175.45 164.06 174.87 164.52 173.81 164.52C173.21 164.52 172.53 164.31 171.95 163.97C171.81 163.88 171.65 163.84 171.50 163.84C171.07 163.84 170.65 164.19 170.65 164.66C170.65 164.79 170.69 164.91 170.76 165.01C171.16 165.69 172.63 166.16 173.88 166.16C175.96 166.16 177.15 165.26 177.26 163.63ZM182.31 158.32C182.31 157.73 181.82 157.26 181.24 157.26C180.94 157.26 180.65 157.38 180.46 157.58L178.45 159.60C178.30 159.76 178.22 159.96 178.22 160.15C178.22 160.58 178.58 160.92 178.99 160.92C179.17 160.92 179.35 160.85 179.49 160.71L180.47 159.71L180.47 165.17C180.47 165.66 180.88 166.08 181.38 166.08C181.90 166.08 182.31 165.66 182.31 165.17ZM183.56 160.16C183.56 162.01 184.95 162.98 186.51 162.98C187.59 162.98 188.40 162.45 188.74 161.87C188.75 161.93 188.75 161.98 188.75 162.05C188.75 163.43 187.85 164.50 186.58 164.50C186.14 164.50 185.77 164.43 185.45 164.26C185.33 164.19 185.20 164.17 185.07 164.17C184.67 164.17 184.23 164.48 184.23 164.97C184.23 165.10 184.26 165.22 184.32 165.32C184.64 165.90 185.73 166.14 186.58 166.14C189.14 166.14 190.62 164.28 190.62 161.66C190.62 159.21 189.52 157.19 186.88 157.19C184.90 157.19 183.56 158.47 183.56 160.16ZM185.43 160.10C185.43 159.45 185.92 158.82 186.92 158.82C187.74 158.82 188.35 159.38 188.35 160.19C188.35 160.97 187.72 161.53 186.92 161.53C186.08 161.53 185.43 160.97 185.43 160.10ZM193.60 165.36C193.60 164.52 193.04 164.04 192.43 164.04C191.88 164.04 191.41 164.50 191.41 165.08C191.41 165.64 191.80 166.01 192.30 166.01C192.39 166.01 192.51 165.99 192.55 165.97C192.47 166.31 192.18 166.72 191.84 166.99C191.75 167.07 191.71 167.17 191.71 167.27C191.71 167.53 191.99 167.69 192.21 167.69C192.34 167.69 192.45 167.65 192.55 167.56C193.20 166.97 193.60 166.19 193.60 165.36ZM194.52 160.16C194.52 162.01 195.91 162.98 197.47 162.98C198.55 162.98 199.36 162.45 199.70 161.87C199.71 161.93 199.71 161.98 199.71 162.05C199.71 163.43 198.81 164.50 197.54 164.50C197.10 164.50 196.73 164.43 196.41 164.26C196.29 164.19 196.16 164.17 196.03 164.17C195.63 164.17 195.18 164.48 195.18 164.97C195.18 165.10 195.22 165.22 195.28 165.32C195.60 165.90 196.69 166.14 197.54 166.14C200.10 166.14 201.58 164.28 201.58 161.66C201.58 159.21 200.48 157.19 197.84 157.19C195.86 157.19 194.52 158.47 194.52 160.16ZM196.39 160.10C196.39 159.45 196.87 158.82 197.88 158.82C198.69 158.82 199.31 159.38 199.31 160.19C199.31 160.97 198.68 161.53 197.88 161.53C197.04 161.53 196.39 160.97 196.39 160.10ZM202.43 160.16C202.43 162.01 203.82 162.98 205.38 162.98C206.46 162.98 207.26 162.45 207.60 161.87C207.61 161.93 207.61 161.98 207.61 162.05C207.61 163.43 206.72 164.50 205.44 164.50C205.00 164.50 204.64 164.43 204.31 164.26C204.19 164.19 204.06 164.17 203.93 164.17C203.53 164.17 203.09 164.48 203.09 164.97C203.09 165.10 203.13 165.22 203.18 165.32C203.50 165.90 204.60 166.14 205.44 166.14C208.00 166.14 209.48 164.28 209.48 161.66C209.48 159.21 208.38 157.19 205.74 157.19C203.76 157.19 202.43 158.47 202.43 160.16ZM204.30 160.10C204.30 159.45 204.78 158.82 205.78 158.82C206.60 158.82 207.21 159.38 207.21 160.19C207.21 160.97 206.59 161.53 205.78 161.53C204.95 161.53 204.30 160.97 204.30 160.10ZM217.56 161.67C217.56 159.44 216.44 157.20 213.97 157.20C211.49 157.20 210.38 159.44 210.38 161.67C210.38 163.91 211.49 166.16 213.97 166.16C216.44 166.16 217.56 163.91 217.56 161.67ZM215.67 161.67C215.67 163.27 215.20 164.52 213.97 164.52C212.72 164.52 212.25 163.27 212.25 161.67C212.25 160.07 212.72 158.84 213.97 158.84C215.20 158.84 215.67 160.07 215.67 161.67Z" fill="#9aa7b4" /></g></svg>