<svg xmlns="http://www.w3.org/2000/svg" width="420" height="184" viewBox="0 0 420 184" role="img"><rect x="0.5" y="0.5" width="419" height="183" rx="10" fill="#161b22" stroke="#30363d" /><path d="M30.21 36.59C30.21 35.87 29.59 35.25 28.87 35.25L24.09 35.25C27.90 32.48 29.97 30.30 29.97 27.79C29.97 24.87 27.48 23.11 24.36 23.11C22.51 23.11 20.05 23.90 19.34 25.02C19.21 25.22 19.14 25.44 19.14 25.66C19.14 26.45 19.78 27.07 20.51 27.07C20.84 27.07 21.12 26.98 21.41 26.78C22.25 26.21 23.26 25.88 24.42 25.88C25.63 25.88 26.80 26.52 26.80 27.79C26.80 29.51 25.04 31.11 19.56 35.16C19.14 35.47 18.90 35.98 18.90 36.48C18.90 37.36 19.61 38 20.38 38L28.87 38C29.59 38 30.21 37.38 30.21 36.59ZM35.93 36.92C35.93 35.49 34.98 34.68 33.95 34.68C33.03 34.68 32.23 35.47 32.23 36.44C32.23 37.38 32.89 38.02 33.73 38.02C33.88 38.02 34.08 37.98 34.15 37.96C34.02 38.53 33.53 39.21 32.96 39.67C32.81 39.80 32.74 39.98 32.74 40.16C32.74 40.60 33.20 40.86 33.58 40.86C33.80 40.86 33.99 40.79 34.15 40.64C35.25 39.65 35.93 38.33 35.93 36.92ZM42.24 25.00C42.24 24.01 41.41 23.22 40.42 23.22C39.91 23.22 39.43 23.41 39.10 23.74L35.71 27.18C35.45 27.44 35.31 27.77 35.31 28.10C35.31 28.83 35.93 29.40 36.61 29.40C36.92 29.40 37.23 29.29 37.47 29.05L39.12 27.35L39.12 36.59C39.12 37.43 39.82 38.13 40.66 38.13C41.54 38.13 42.24 37.43 42.24 36.59ZM55.64 34.00C55.82 31.36 54.04 30.43 54.04 30.43C54.04 30.43 55.66 29.60 55.49 27.09C55.31 24.65 53.38 23.11 49.94 23.11C47.92 23.11 46.34 23.70 45.13 24.67C44.82 24.91 44.66 25.26 44.66 25.61C44.66 26.38 45.35 26.93 46.03 26.93C46.29 26.93 46.56 26.87 46.78 26.71C47.63 26.16 48.60 25.88 49.61 25.88C51.15 25.88 52.34 26.23 52.34 27.40C52.34 28.61 51.62 29.18 50.14 29.18C49.09 29.18 48.62 29.77 48.62 30.54C48.62 31.31 49.09 31.93 50.23 31.93C51.73 31.93 52.58 32.46 52.58 33.62C52.58 34.72 51.59 35.49 49.81 35.49C48.80 35.49 47.63 35.14 46.67 34.57C46.42 34.41 46.16 34.35 45.90 34.35C45.17 34.35 44.47 34.94 44.47 35.73C44.47 35.95 44.53 36.15 44.64 36.33C45.32 37.47 47.81 38.26 49.92 38.26C53.44 38.26 55.47 36.75 55.64 34.00ZM69.22 33.18C69.22 30.21 66.99 28.43 64.51 28.43C63.17 28.43 61.98 28.96 61.27 29.66L61.27 26.08L67.02 26.08C67.74 26.08 68.36 25.46 68.36 24.71C68.36 23.94 67.74 23.33 67.02 23.33L59.91 23.33C58.94 23.33 58.15 24.12 58.15 25.09L58.15 30.72C58.15 31.58 58.77 32.21 59.73 32.21C60.17 32.21 60.59 32.08 60.94 31.84C61.74 31.31 62.51 31.14 63.41 31.14C65.08 31.14 66.05 32.02 66.05 33.31C66.05 34.50 65.06 35.49 63.32 35.49C62.26 35.49 61.25 35.21 60.39 34.68C60.13 34.52 59.84 34.44 59.58 34.44C58.81 34.44 58.08 35.03 58.08 35.84C58.08 36.06 58.15 36.28 58.26 36.48C58.94 37.63 61.43 38.26 63.34 38.26C66.88 38.26 69.22 36.31 69.22 33.18ZM74.72 36.92C74.72 35.49 73.77 34.68 72.74 34.68C71.81 34.68 71.02 35.47 71.02 36.44C71.02 37.38 71.68 38.02 72.52 38.02C72.67 38.02 72.87 37.98 72.93 37.96C72.80 38.53 72.32 39.21 71.75 39.67C71.59 39.80 71.53 39.98 71.53 40.16C71.53 40.60 71.99 40.86 72.36 40.86C72.58 40.86 72.78 40.79 72.93 40.64C74.03 39.65 74.72 38.33 74.72 36.92ZM88.05 30.67C88.05 26.89 86.16 23.11 81.98 23.11C77.77 23.11 75.90 26.89 75.90 30.67C75.90 34.46 77.77 38.26 81.98 38.26C86.16 38.26 88.05 34.46 88.05 30.67ZM84.86 30.67C84.86 33.38 84.07 35.49 81.98 35.49C79.86 35.49 79.07 33.38 79.07 30.67C79.07 27.97 79.86 25.88 81.98 25.88C84.07 25.88 84.86 27.97 84.86 30.67ZM101.40 33.18C101.40 30.21 99.18 28.43 96.69 28.43C95.35 28.43 94.16 28.96 93.46 29.66L93.46 26.08L99.20 26.08C99.93 26.08 100.54 25.46 100.54 24.71C100.54 23.94 99.93 23.33 99.20 23.33L92.10 23.33C91.13 23.33 90.34 24.12 90.34 25.09L90.34 30.72C90.34 31.58 90.95 32.21 91.92 32.21C92.36 32.21 92.78 32.08 93.13 31.84C93.92 31.31 94.69 31.14 95.59 31.14C97.27 31.14 98.23 32.02 98.23 33.31C98.23 34.50 97.24 35.49 95.51 35.49C94.45 35.49 93.44 35.21 92.58 34.68C92.32 34.52 92.03 34.44 91.77 34.44C91.00 34.44 90.27 35.03 90.27 35.84C90.27 36.06 90.34 36.28 90.45 36.48C91.13 37.63 93.61 38.26 95.53 38.26C99.07 38.26 101.40 36.31 101.40 33.18ZM114.73 33.97C114.73 31.97 113.55 30.83 112.67 30.43C113.41 30.08 114.49 29.24 114.49 26.98C114.49 24.45 111.76 23.11 108.84 23.11C105.89 23.11 103.18 24.45 103.18 26.98C103.18 29.24 104.24 30.08 104.99 30.43C104.11 30.83 102.94 31.97 102.94 33.97C102.94 36.72 105.76 38.26 108.84 38.26C111.92 38.26 114.73 36.70 114.73 33.97ZM111.30 27.46C111.30 28.56 110.18 29.20 108.84 29.20C107.50 29.20 106.35 28.56 106.35 27.46C106.35 26.41 107.39 25.79 108.84 25.79C110.27 25.79 111.30 26.41 111.30 27.46ZM111.57 33.80C111.57 34.88 110.33 35.58 108.84 35.58C107.30 35.58 106.11 34.88 106.11 33.80C106.11 32.57 107.47 31.84 108.84 31.84C110.18 31.84 111.57 32.57 111.57 33.80ZM120.23 36.92C120.23 35.49 119.29 34.68 118.25 34.68C117.33 34.68 116.54 35.47 116.54 36.44C116.54 37.38 117.20 38.02 118.03 38.02C118.19 38.02 118.39 37.98 118.45 37.96C118.32 38.53 117.84 39.21 117.26 39.67C117.11 39.80 117.04 39.98 117.04 40.16C117.04 40.60 117.51 40.86 117.88 40.86C118.10 40.86 118.30 40.79 118.45 40.64C119.55 39.65 120.23 38.33 120.23 36.92ZM133.85 33.60C133.85 32.83 133.24 32.21 132.51 32.21L131.83 32.21L131.83 24.95C131.83 23.59 130.51 22.97 129.17 23.19C128.22 23.19 127.27 23.70 126.77 24.49L121.86 32.24C121.66 32.54 121.58 32.90 121.58 33.25C121.58 34.24 122.30 34.96 123.18 34.96L128.70 34.96L128.70 36.59C128.70 37.43 129.41 38.13 130.24 38.13C131.12 38.13 131.83 37.43 131.83 36.59L131.83 34.96L132.51 34.96C133.24 34.96 133.85 34.35 133.85 33.60ZM124.74 32.21L128.70 26.10L128.70 32.21ZM146.99 33.60C146.99 32.83 146.37 32.21 145.64 32.21L144.96 32.21L144.96 24.95C144.96 23.59 143.64 22.97 142.30 23.19C141.35 23.19 140.41 23.70 139.90 24.49L135.00 32.24C134.80 32.54 134.71 32.90 134.71 33.25C134.71 34.24 135.44 34.96 136.32 34.96L141.84 34.96L141.84 36.59C141.84 37.43 142.54 38.13 143.38 38.13C144.26 38.13 144.96 37.43 144.96 36.59L144.96 34.96L145.64 34.96C146.37 34.96 146.99 34.35 146.99 33.60ZM137.88 32.21L141.84 26.10L141.84 32.21ZM154.99 25.00C154.99 24.01 154.16 23.22 153.17 23.22C152.66 23.22 152.18 23.41 151.85 23.74L148.46 27.18C148.20 27.44 148.06 27.77 148.06 28.10C148.06 28.83 148.68 29.40 149.36 29.40C149.67 29.40 149.98 29.29 150.22 29.05L151.87 27.35L151.87 36.59C151.87 37.43 152.57 38.13 153.41 38.13C154.29 38.13 154.99 37.43 154.99 36.59ZM177.10 30.67C177.10 26.25 173.91 23.33 169.32 23.33L165.29 23.33C164.32 23.33 163.53 24.12 163.53 25.09L163.53 36.24C163.53 37.21 164.32 38 165.29 38L169.32 38C173.91 38 177.10 35.10 177.10 30.67ZM173.91 30.67C173.91 33.16 172.22 35.25 169.32 35.25L166.65 35.25L166.65 26.08L169.32 26.08C172.33 26.08 173.91 28.08 173.91 30.67ZM189.82 32.68C189.82 29.66 187.71 27.11 184.19 27.11C180.69 27.11 178.58 29.66 178.58 32.68C178.58 35.71 180.69 38.26 184.19 38.26C187.71 38.26 189.82 35.71 189.82 32.68ZM186.92 32.68C186.92 34.35 185.93 35.78 184.19 35.78C182.45 35.78 181.48 34.35 181.48 32.68C181.48 31.03 182.45 29.60 184.19 29.60C185.93 29.60 186.92 31.03 186.92 32.68ZM207.00 28.58C207.00 27.88 206.43 27.24 205.62 27.24C205 27.24 204.43 27.64 204.27 28.23L202.54 34.52L200.53 28.36C200.31 27.70 199.68 27.24 198.99 27.24C198.25 27.24 197.61 27.70 197.39 28.36L195.39 34.52L193.65 28.23C193.49 27.64 192.92 27.24 192.33 27.24C191.49 27.24 190.92 27.90 190.92 28.58C190.92 28.72 190.94 28.85 190.99 28.98L193.36 36.77C193.60 37.56 194.37 38.13 195.21 38.13L195.25 38.13C196.09 38.13 196.86 37.56 197.10 36.77L198.97 30.76L200.84 36.77C201.08 37.58 201.83 38.13 202.69 38.13L202.73 38.13C203.55 38.13 204.32 37.56 204.56 36.77L206.94 28.98C206.98 28.85 207.00 28.72 207.00 28.58ZM218.77 31.16C218.77 29.09 216.99 27.11 214.66 27.11C213.03 27.11 212.02 27.97 211.60 28.63L211.60 28.61C211.60 27.86 210.98 27.24 210.24 27.24C209.42 27.24 208.81 27.86 208.81 28.61L208.81 36.75C208.81 37.52 209.42 38.13 210.19 38.13C210.98 38.13 211.60 37.52 211.60 36.75L211.60 32.06C211.60 30.54 212.70 29.60 213.80 29.60C214.99 29.60 215.98 30.54 215.98 32.02L215.98 36.75C215.98 37.52 216.59 38.13 217.36 38.13C218.16 38.13 218.77 37.52 218.77 36.75ZM224.34 24.56C224.34 23.81 223.72 23.19 222.97 23.19C222.16 23.19 221.54 23.81 221.54 24.56L221.54 36.75C221.54 37.52 222.16 38.13 222.93 38.13C223.72 38.13 224.34 37.52 224.34 36.75ZM237.67 32.68C237.67 29.66 235.56 27.11 232.04 27.11C228.54 27.11 226.43 29.66 226.43 32.68C226.43 35.71 228.54 38.26 232.04 38.26C235.56 38.26 237.67 35.71 237.67 32.68ZM234.77 32.68C234.77 34.35 233.78 35.78 232.04 35.78C230.30 35.78 229.33 34.35 229.33 32.68C229.33 31.03 230.30 29.60 232.04 29.60C233.78 29.60 234.77 31.03 234.77 32.68ZM248.91 31.14C248.91 28.08 246.69 27.11 244.27 27.11C243.04 27.11 240.66 27.55 240.00 28.61C239.91 28.76 239.85 28.96 239.85 29.16C239.85 29.82 240.40 30.23 240.90 30.23C241.08 30.23 241.26 30.17 241.41 30.08C242.14 29.60 242.95 29.40 243.79 29.40C245.19 29.40 246.12 30.10 246.12 31.18L246.12 31.53L242.75 31.53C241.06 31.53 239.06 32.26 239.06 34.74C239.06 37.12 241.06 38.26 242.75 38.26C244.36 38.26 245.39 37.87 246.12 37.01C246.12 37.49 246.58 38.13 247.33 38.13L247.55 38.13C248.30 38.13 248.91 37.52 248.91 36.75ZM246.12 33.42L246.12 33.91C246.12 35.62 244.78 36.37 243.87 36.37C242.77 36.37 241.87 35.80 241.87 34.81C241.87 33.78 242.77 33.42 243.87 33.42ZM251.02 32.70C251.02 36.24 253.27 38.26 255.95 38.26C257.23 38.26 258.39 37.69 259.01 36.64L259.01 36.75C259.01 37.52 259.63 38.13 260.42 38.13C261.19 38.13 261.80 37.52 261.80 36.75L261.80 24.56C261.80 23.81 261.19 23.19 260.37 23.19C259.63 23.19 259.01 23.81 259.01 24.56L259.01 28.74C258.39 27.66 257.21 27.11 255.95 27.11C253.25 27.11 251.02 29.22 251.02 32.70ZM253.91 32.70C253.91 30.85 254.98 29.60 256.61 29.60C257.73 29.60 259.01 30.78 259.01 32.59L259.01 32.83C259.01 34.61 257.73 35.78 256.61 35.78C254.98 35.78 253.91 34.55 253.91 32.70ZM273.00 34.85C273.00 30.56 266.71 31.88 266.71 30.30C266.71 29.71 267.37 29.24 268.38 29.24C269.24 29.24 270.10 29.49 270.78 29.88C270.93 29.97 271.13 30.01 271.31 30.01C271.88 30.01 272.41 29.55 272.41 28.96C272.41 28.76 272.34 28.56 272.23 28.41C271.64 27.55 269.75 27.11 268.36 27.11C265.57 27.11 264.00 28.67 264.00 30.45C264.00 34.63 270.32 33.20 270.32 34.96C270.32 35.62 269.75 36.11 268.54 36.11C267.61 36.11 266.51 35.73 265.68 35.25C265.50 35.14 265.30 35.10 265.10 35.10C264.51 35.10 263.94 35.60 263.94 36.26C263.94 36.48 264.00 36.68 264.14 36.86C264.80 37.80 267.02 38.26 268.40 38.26C271.35 38.26 273.00 36.79 273.00 34.85Z" fill="#e6edf3" /><path d="M20.26 49.88C20.26 49.54 19.98 49.25 19.64 49.25C19.26 49.25 18.98 49.54 18.98 49.88L18.98 57.44C18.98 57.79 19.26 58.08 19.61 58.08C19.98 58.08 20.26 57.79 20.26 57.44ZM27.55 53.97C27.55 52.64 26.59 51.56 25.27 51.56C24.18 51.56 23.62 52.10 23.32 52.60L23.32 52.20C23.32 51.90 23.06 51.64 22.76 51.64C22.42 51.64 22.16 51.90 22.16 52.20L22.16 57.51C22.16 57.82 22.42 58.08 22.73 58.08C23.06 58.08 23.32 57.82 23.32 57.51L23.32 54.49C23.32 53.42 23.89 52.59 24.89 52.59C25.83 52.59 26.40 53.32 26.40 54.36L26.40 57.51C26.40 57.82 26.66 58.08 26.97 58.08C27.30 58.08 27.55 57.82 27.55 57.51ZM38.97 49.91C38.97 49.58 38.72 49.33 38.41 49.33L32.70 49.33C32.39 49.33 32.14 49.58 32.14 49.89C32.14 50.21 32.39 50.47 32.70 50.47L34.91 50.47L34.91 57.44C34.91 57.79 35.20 58.08 35.55 58.08C35.91 58.08 36.20 57.79 36.20 57.44L36.20 50.47L38.41 50.47C38.72 50.47 38.97 50.21 38.97 49.91ZM44.74 54.85C44.74 53.05 43.53 51.56 41.57 51.56C39.62 51.56 38.41 53.05 38.41 54.85C38.41 56.66 39.62 58.16 41.57 58.16C43.53 58.16 44.74 56.66 44.74 54.85ZM43.53 54.85C43.53 56.06 42.83 57.13 41.57 57.13C40.32 57.13 39.61 56.06 39.61 54.85C39.61 53.66 40.32 52.59 41.57 52.59C42.83 52.59 43.53 53.66 43.53 54.85ZM49.16 57.55C49.16 57.27 48.95 57.06 48.67 57.06C48.54 57.06 48.38 57.13 48.24 57.13C47.86 57.13 47.63 56.83 47.63 56.35L47.63 52.73L48.48 52.73C48.76 52.73 48.98 52.51 48.98 52.24C48.98 51.94 48.76 51.72 48.48 51.72L47.63 51.72L47.63 50.49C47.63 50.19 47.37 49.93 47.05 49.93C46.72 49.93 46.46 50.19 46.46 50.49L46.46 51.72L45.85 51.72C45.56 51.72 45.34 51.94 45.34 52.22C45.34 52.51 45.56 52.73 45.85 52.73L46.46 52.73L46.46 56.62C46.46 57.61 46.98 58.16 47.96 58.16C48.65 58.16 49.16 57.96 49.16 57.55ZM55.26 53.75C55.26 52.15 54.09 51.56 52.74 51.56C51.89 51.56 50.94 51.84 50.34 52.44C50.27 52.53 50.23 52.63 50.23 52.73C50.23 53.01 50.47 53.19 50.71 53.19C50.80 53.19 50.90 53.15 50.99 53.09C51.46 52.72 51.98 52.54 52.57 52.54C53.45 52.54 54.10 53.01 54.10 53.80L54.10 54.15L52.29 54.15C50.99 54.15 49.85 54.66 49.85 56.08C49.85 57.45 50.99 58.16 52.03 58.16C53.01 58.16 53.59 57.86 54.10 57.30L54.10 57.51C54.10 57.88 54.40 58.08 54.63 58.08L54.67 58.08C55.00 58.08 55.26 57.82 55.26 57.51ZM54.10 54.96L54.10 55.84C54.10 56.58 53.26 57.34 52.35 57.34C51.50 57.34 51.02 56.83 51.02 56.10C51.02 55.35 51.62 54.96 52.61 54.96ZM58.27 49.81C58.27 49.51 58.01 49.25 57.71 49.25C57.38 49.25 57.12 49.51 57.12 49.81L57.12 57.51C57.12 57.82 57.38 58.08 57.69 58.08C58.01 58.08 58.27 57.82 58.27 57.51Z" fill="#9aa7b4" /><line x1="18" y1="76" x2="48" y2="76" stroke="#9aa7b4" stroke-opacity="0.4" /><g aria-label="Packages: 106"><circle cx="22" cy="96" r="4" fill="#673bd6" /><path d="M41.38 93.99C41.38 92.55 40.40 91.33 38.62 91.33L35.82 91.33C35.35 91.33 34.98 91.71 34.98 92.17L34.98 99.44C34.98 99.79 35.26 100.08 35.61 100.08C35.98 100.08 36.26 99.79 36.26 99.44L36.26 96.66L38.62 96.66C40.37 96.66 41.38 95.44 41.38 93.99ZM40.06 93.99C40.06 94.89 39.40 95.52 38.45 95.52L36.26 95.52L36.26 92.47L38.45 92.47C39.40 92.47 40.06 93.08 40.06 93.99ZM47.48 95.75C47.48 94.15 46.31 93.56 44.96 93.56C44.11 93.56 43.17 93.84 42.57 94.44C42.49 94.53 42.45 94.63 42.45 94.73C42.45 95.01 42.70 95.19 42.93 95.19C43.02 95.19 43.13 95.15 43.22 95.09C43.69 94.72 44.21 94.54 44.79 94.54C45.67 94.54 46.32 95.01 46.32 95.80L46.32 96.15L44.52 96.15C43.22 96.15 42.07 96.66 42.07 98.08C42.07 99.45 43.22 100.16 44.26 100.16C45.23 100.16 45.82 99.86 46.32 99.30L46.32 99.51C46.32 99.88 46.62 100.08 46.86 100.08L46.90 100.08C47.22 100.08 47.48 99.82 47.48 99.51ZM46.32 96.96L46.32 97.84C46.32 98.58 45.48 99.34 44.57 99.34C43.72 99.34 43.24 98.83 43.24 98.10C43.24 97.35 43.84 96.96 44.83 96.96ZM54.35 99.05C54.35 98.75 54.07 98.54 53.80 98.54C53.67 98.54 53.54 98.58 53.44 98.66C53.08 98.97 52.68 99.13 52.21 99.13C50.97 99.13 50.16 98.17 50.16 96.85C50.16 95.54 50.97 94.59 52.21 94.59C52.67 94.59 53.08 94.73 53.44 95.05C53.54 95.14 53.67 95.19 53.80 95.19C54.09 95.19 54.33 94.96 54.33 94.67C54.33 94.57 54.31 94.47 54.24 94.40C53.81 93.90 53.11 93.56 52.15 93.56C50.26 93.56 48.96 94.98 48.96 96.85C48.96 98.74 50.26 100.16 52.15 100.16C53.08 100.16 53.72 99.84 54.19 99.39C54.29 99.30 54.35 99.17 54.35 99.05ZM60.92 99.51C60.92 99.39 60.88 99.26 60.81 99.17L58.74 96.57L60.69 94.53C60.78 94.42 60.83 94.31 60.83 94.18C60.83 93.89 60.57 93.63 60.29 93.63C60.16 93.63 60.01 93.69 59.91 93.80L56.95 96.92L56.95 91.81C56.95 91.51 56.69 91.25 56.39 91.25C56.05 91.25 55.79 91.51 55.79 91.81L55.79 99.51C55.79 99.82 56.05 100.08 56.36 100.08C56.69 100.08 56.95 99.82 56.95 99.51L56.95 98.26L57.91 97.28L59.90 99.86C60.00 100.01 60.18 100.09 60.35 100.09C60.70 100.09 60.92 99.78 60.92 99.51ZM67.59 95.75C67.59 94.15 66.42 93.56 65.07 93.56C64.23 93.56 63.28 93.84 62.68 94.44C62.60 94.53 62.56 94.63 62.56 94.73C62.56 95.01 62.81 95.19 63.04 95.19C63.13 95.19 63.24 95.15 63.33 95.09C63.80 94.72 64.32 94.54 64.90 94.54C65.78 94.54 66.44 95.01 66.44 95.80L66.44 96.15L64.63 96.15C63.33 96.15 62.18 96.66 62.18 98.08C62.18 99.45 63.33 100.16 64.37 100.16C65.34 100.16 65.93 99.86 66.44 99.30L66.44 99.51C66.44 99.88 66.73 100.08 66.97 100.08L67.01 100.08C67.33 100.08 67.59 99.82 67.59 99.51ZM66.44 96.96L66.44 97.84C66.44 98.58 65.59 99.34 64.68 99.34C63.84 99.34 63.35 98.83 63.35 98.10C63.35 97.35 63.95 96.96 64.94 96.96ZM75.08 94.20C75.08 93.90 74.82 93.64 74.52 93.64C74.18 93.64 73.92 93.90 73.92 94.20L73.92 94.63C73.42 93.95 72.69 93.56 71.86 93.56C70.23 93.56 69.07 94.79 69.07 96.81C69.07 98.86 70.24 100.05 71.86 100.05C72.71 100.05 73.45 99.60 73.92 98.96L73.92 99.79C73.92 101.13 72.96 101.60 71.99 101.60C71.30 101.60 70.75 101.46 70.27 101.05C70.18 100.99 70.09 100.96 69.97 100.96C69.71 100.96 69.48 101.18 69.48 101.46C69.48 101.59 69.53 101.70 69.61 101.78C70.22 102.37 71.10 102.55 71.99 102.55C73.52 102.55 75.08 101.91 75.08 99.75ZM73.92 96.83C73.92 98.11 73.08 99.03 72.04 99.03C70.87 99.03 70.27 98.10 70.27 96.81C70.27 95.50 70.87 94.59 72.04 94.59C73.08 94.59 73.92 95.49 73.92 96.78ZM82.75 96.65C82.75 96.40 82.69 96.13 82.63 95.92C82.27 94.51 81.23 93.56 79.71 93.56C77.89 93.56 76.58 95.03 76.58 96.85C76.58 98.83 77.94 100.16 79.81 100.16C80.73 100.16 82.35 99.67 82.35 98.97C82.35 98.53 81.91 98.43 81.62 98.57C81.16 98.91 80.46 99.22 79.93 99.22C78.66 99.22 77.88 98.35 77.78 97.27L82.15 97.27C82.48 97.27 82.75 96.96 82.75 96.65ZM77.78 96.41C77.84 95.54 78.45 94.50 79.70 94.50C81.03 94.50 81.61 95.57 81.63 96.41ZM88.83 98.10C88.72 95.89 85.12 96.50 84.99 95.37C84.93 94.86 85.48 94.49 86.27 94.49C86.87 94.49 87.43 94.68 87.83 94.97C87.91 95.03 88.00 95.06 88.11 95.06C88.34 95.06 88.56 94.86 88.56 94.61C88.56 94.50 88.52 94.40 88.44 94.32C87.95 93.84 87.16 93.56 86.26 93.56C84.73 93.56 83.80 94.29 83.87 95.41C83.99 97.52 87.57 96.87 87.70 98.26C87.76 98.83 87.24 99.23 86.34 99.23C85.69 99.23 85.04 98.97 84.57 98.64C84.48 98.57 84.39 98.54 84.27 98.54C84.00 98.54 83.76 98.75 83.76 99.03C83.76 99.16 83.82 99.26 83.91 99.34C84.48 99.91 85.43 100.16 86.29 100.16C87.95 100.16 88.90 99.30 88.83 98.10Z" fill="#e6edf3" /><path d="M201.18 92.32C201.18 91.73 200.68 91.26 200.10 91.26C199.80 91.26 199.51 91.38 199.32 91.58L197.32 93.60C197.16 93.76 197.08 93.95 197.08 94.15C197.08 94.58 197.45 94.92 197.85 94.92C198.03 94.92 198.21 94.85 198.36 94.71L199.33 93.71L199.33 99.17C199.33 99.66 199.75 100.08 200.24 100.08C200.76 100.08 201.18 99.66 201.18 99.17ZM209.65 95.67C209.65 93.44 208.54 91.20 206.07 91.20C203.58 91.20 202.48 93.44 202.48 95.67C202.48 97.91 203.58 100.16 206.07 100.16C208.54 100.16 209.65 97.91 209.65 95.67ZM207.77 95.67C207.77 97.27 207.30 98.52 206.07 98.52C204.82 98.52 204.35 97.27 204.35 95.67C204.35 94.07 204.82 92.84 206.07 92.84C207.30 92.84 207.77 94.07 207.77 95.67ZM217.60 97.18C217.60 95.33 216.21 94.36 214.65 94.36C213.57 94.36 212.76 94.89 212.42 95.48C212.41 95.41 212.41 95.36 212.41 95.29C212.41 93.92 213.31 92.84 214.58 92.84C215.02 92.84 215.39 92.91 215.71 93.08C215.83 93.15 215.96 93.17 216.09 93.17C216.49 93.17 216.93 92.86 216.93 92.37C216.93 92.24 216.89 92.12 216.84 92.02C216.52 91.45 215.43 91.20 214.58 91.20C212.02 91.20 210.54 93.06 210.54 95.68C210.54 98.13 211.64 100.16 214.28 100.16C216.26 100.16 217.60 98.87 217.60 97.18ZM215.72 97.24C215.72 97.89 215.24 98.52 214.24 98.52C213.42 98.52 212.81 97.96 212.81 97.15C212.81 96.37 213.44 95.81 214.24 95.81C215.07 95.81 215.72 96.37 215.72 97.24Z" fill="#9aa7b4" /></g><g aria-label="Organizations: 8"><circle cx="22" cy="118" r="4" fill="#2c96f2" /><path d="M43.33 117.67C43.33 115.10 41.54 113.19 38.97 113.19C36.38 113.19 34.60 115.10 34.60 117.67C34.60 120.25 36.38 122.16 38.97 122.16C41.54 122.16 43.33 120.25 43.33 117.67ZM42.01 117.67C42.01 119.58 40.81 121.01 38.97 121.01C37.11 121.01 35.94 119.58 35.94 117.67C35.94 115.75 37.11 114.33 38.97 114.33C40.81 114.33 42.01 115.75 42.01 117.67ZM48.18 116.15C48.18 115.85 47.96 115.63 47.66 115.63C46.96 115.63 46.39 116.22 46.04 116.70L46.04 116.20C46.04 115.90 45.78 115.64 45.48 115.64C45.14 115.64 44.88 115.90 44.88 116.20L44.88 121.51C44.88 121.82 45.13 122.06 45.44 122.08L45.45 122.08C45.78 122.08 46.04 121.82 46.04 121.51L46.04 118.28C46.04 117.46 46.61 116.81 47.60 116.76C47.92 116.75 48.18 116.49 48.18 116.15ZM54.90 116.20C54.90 115.90 54.64 115.64 54.34 115.64C54.01 115.64 53.75 115.90 53.75 116.20L53.75 116.63C53.24 115.95 52.51 115.56 51.68 115.56C50.05 115.56 48.90 116.79 48.90 118.81C48.90 120.86 50.07 122.05 51.68 122.05C52.54 122.05 53.28 121.60 53.75 120.96L53.75 121.79C53.75 123.13 52.78 123.60 51.81 123.60C51.12 123.60 50.57 123.46 50.09 123.05C50.00 122.99 49.91 122.96 49.80 122.96C49.53 122.96 49.30 123.18 49.30 123.46C49.30 123.59 49.35 123.70 49.43 123.78C50.04 124.37 50.93 124.55 51.81 124.55C53.34 124.55 54.90 123.91 54.90 121.75ZM53.75 118.83C53.75 120.11 52.90 121.03 51.86 121.03C50.69 121.03 50.09 120.10 50.09 118.81C50.09 117.50 50.69 116.59 51.86 116.59C52.90 116.59 53.75 117.49 53.75 118.78ZM61.82 117.75C61.82 116.15 60.65 115.56 59.30 115.56C58.45 115.56 57.50 115.84 56.91 116.44C56.83 116.53 56.79 116.63 56.79 116.73C56.79 117.01 57.04 117.19 57.27 117.19C57.36 117.19 57.46 117.15 57.56 117.09C58.02 116.72 58.54 116.54 59.13 116.54C60.01 116.54 60.66 117.01 60.66 117.80L60.66 118.15L58.86 118.15C57.56 118.15 56.41 118.66 56.41 120.08C56.41 121.45 57.56 122.16 58.60 122.16C59.57 122.16 60.16 121.86 60.66 121.30L60.66 121.51C60.66 121.88 60.96 122.08 61.20 122.08L61.23 122.08C61.56 122.08 61.82 121.82 61.82 121.51ZM60.66 118.96L60.66 119.84C60.66 120.58 59.82 121.34 58.91 121.34C58.06 121.34 57.58 120.83 57.58 120.10C57.58 119.35 58.18 118.96 59.17 118.96ZM69.07 117.97C69.07 116.64 68.11 115.56 66.79 115.56C65.69 115.56 65.13 116.10 64.84 116.61L64.84 116.20C64.84 115.90 64.58 115.64 64.28 115.64C63.94 115.64 63.68 115.90 63.68 116.20L63.68 121.51C63.68 121.82 63.94 122.08 64.25 122.08C64.58 122.08 64.84 121.82 64.84 121.51L64.84 118.49C64.84 117.42 65.41 116.59 66.41 116.59C67.34 116.59 67.92 117.32 67.92 118.36L67.92 121.51C67.92 121.82 68.18 122.08 68.49 122.08C68.81 122.08 69.07 121.82 69.07 121.51ZM71.52 113.39C71.11 113.39 70.78 113.73 70.78 114.15C70.78 114.55 71.11 114.89 71.52 114.89C71.93 114.89 72.26 114.55 72.26 114.15C72.26 113.73 71.93 113.39 71.52 113.39ZM72.10 116.20C72.10 115.90 71.84 115.64 71.54 115.64C71.21 115.64 70.95 115.90 70.95 116.20L70.95 121.51C70.95 121.82 71.21 122.08 71.52 122.08C71.84 122.08 72.10 121.82 72.10 121.51ZM78.63 121.48C78.63 121.22 78.41 121.00 78.15 121.00L75.18 121.00L78.45 116.66C78.52 116.55 78.56 116.42 78.56 116.29C78.56 115.95 78.30 115.72 78.04 115.72L74.09 115.72C73.82 115.72 73.60 115.94 73.60 116.22C73.60 116.51 73.82 116.73 74.09 116.73L76.96 116.73L73.74 121.04C73.66 121.14 73.61 121.27 73.61 121.42C73.61 121.75 73.86 122 74.16 122L78.15 122C78.41 122 78.63 121.78 78.63 121.48ZM85.18 117.75C85.18 116.15 84.01 115.56 82.66 115.56C81.81 115.56 80.86 115.84 80.27 116.44C80.19 116.53 80.15 116.63 80.15 116.73C80.15 117.01 80.40 117.19 80.63 117.19C80.72 117.19 80.83 117.15 80.92 117.09C81.38 116.72 81.90 116.54 82.49 116.54C83.37 116.54 84.02 117.01 84.02 117.80L84.02 118.15L82.22 118.15C80.92 118.15 79.77 118.66 79.77 120.08C79.77 121.45 80.92 122.16 81.96 122.16C82.93 122.16 83.52 121.86 84.02 121.30L84.02 121.51C84.02 121.88 84.32 122.08 84.56 122.08L84.60 122.08C84.92 122.08 85.18 121.82 85.18 121.51ZM84.02 118.96L84.02 119.84C84.02 120.58 83.18 121.34 82.27 121.34C81.42 121.34 80.94 120.83 80.94 120.10C80.94 119.35 81.54 118.96 82.53 118.96ZM89.97 121.55C89.97 121.27 89.76 121.06 89.47 121.06C89.34 121.06 89.19 121.13 89.04 121.13C88.67 121.13 88.43 120.83 88.43 120.35L88.43 116.73L89.29 116.73C89.56 116.73 89.78 116.51 89.78 116.24C89.78 115.94 89.56 115.72 89.29 115.72L88.43 115.72L88.43 114.49C88.43 114.19 88.17 113.93 87.86 113.93C87.52 113.93 87.26 114.19 87.26 114.49L87.26 115.72L86.65 115.72C86.36 115.72 86.14 115.94 86.14 116.22C86.14 116.51 86.36 116.73 86.65 116.73L87.26 116.73L87.26 120.62C87.26 121.61 87.78 122.16 88.77 122.16C89.46 122.16 89.97 121.96 89.97 121.55ZM91.59 113.39C91.19 113.39 90.85 113.73 90.85 114.15C90.85 114.55 91.19 114.89 91.59 114.89C92.01 114.89 92.33 114.55 92.33 114.15C92.33 113.73 92.01 113.39 91.59 113.39ZM92.17 116.20C92.17 115.90 91.91 115.64 91.62 115.64C91.28 115.64 91.02 115.90 91.02 116.20L91.02 121.51C91.02 121.82 91.28 122.08 91.59 122.08C91.91 122.08 92.17 121.82 92.17 121.51ZM100.00 118.85C100.00 117.05 98.79 115.56 96.83 115.56C94.88 115.56 93.67 117.05 93.67 118.85C93.67 120.66 94.88 122.16 96.83 122.16C98.79 122.16 100.00 120.66 100.00 118.85ZM98.79 118.85C98.79 120.06 98.09 121.13 96.83 121.13C95.58 121.13 94.87 120.06 94.87 118.85C94.87 117.66 95.58 116.59 96.83 116.59C98.09 116.59 98.79 117.66 98.79 118.85ZM106.89 117.97C106.89 116.64 105.93 115.56 104.60 115.56C103.51 115.56 102.95 116.10 102.65 116.61L102.65 116.20C102.65 115.90 102.39 115.64 102.09 115.64C101.76 115.64 101.50 115.90 101.50 116.20L101.50 121.51C101.50 121.82 101.76 122.08 102.07 122.08C102.39 122.08 102.65 121.82 102.65 121.51L102.65 118.49C102.65 117.42 103.22 116.59 104.23 116.59C105.16 116.59 105.73 117.32 105.73 118.36L105.73 121.51C105.73 121.82 105.99 122.08 106.31 122.08C106.63 122.08 106.89 121.82 106.89 121.51ZM113.36 120.10C113.25 117.89 109.65 118.50 109.52 117.37C109.46 116.86 110.01 116.49 110.80 116.49C111.40 116.49 111.96 116.68 112.36 116.97C112.44 117.03 112.53 117.06 112.64 117.06C112.87 117.06 113.09 116.86 113.09 116.61C113.09 116.50 113.05 116.40 112.97 116.32C112.48 115.84 111.69 115.56 110.79 115.56C109.26 115.56 108.33 116.29 108.40 117.41C108.52 119.52 112.10 118.87 112.23 120.26C112.29 120.83 111.77 121.23 110.87 121.23C110.22 121.23 109.57 120.97 109.10 120.64C109.01 120.57 108.92 120.54 108.80 120.54C108.53 120.54 108.29 120.75 108.29 121.03C108.29 121.16 108.35 121.26 108.44 121.34C109.01 121.91 109.96 122.16 110.82 122.16C112.48 122.16 113.43 121.30 113.36 120.10Z" fill="#e6edf3" /><path d="M217.54 119.62C217.54 118.44 216.84 117.76 216.32 117.53C216.76 117.32 217.40 116.83 217.40 115.49C217.40 113.99 215.79 113.20 214.06 113.20C212.32 113.20 210.72 113.99 210.72 115.49C210.72 116.83 211.34 117.32 211.79 117.53C211.27 117.76 210.58 118.44 210.58 119.62C210.58 121.25 212.24 122.16 214.06 122.16C215.88 122.16 217.54 121.23 217.54 119.62ZM215.52 115.77C215.52 116.42 214.85 116.80 214.06 116.80C213.27 116.80 212.59 116.42 212.59 115.77C212.59 115.15 213.20 114.78 214.06 114.78C214.91 114.78 215.52 115.15 215.52 115.77ZM215.67 119.52C215.67 120.15 214.94 120.57 214.06 120.57C213.15 120.57 212.45 120.15 212.45 119.52C212.45 118.79 213.25 118.36 214.06 118.36C214.85 118.36 215.67 118.79 215.67 119.52Z" fill="#9aa7b4" /></g><g aria-label="Versions Published: 14,653"><circle cx="22" cy="140" r="4" fill="#00a5fe" /><path d="M42.28 135.93C42.28 135.58 42.00 135.25 41.59 135.25C41.31 135.25 41.06 135.42 40.97 135.68L38.32 142.60L35.68 135.68C35.57 135.41 35.31 135.25 35.05 135.25C34.64 135.25 34.35 135.62 34.35 135.93C34.35 136.02 34.36 136.10 34.40 136.17L37.28 143.39C37.43 143.81 37.85 144.08 38.29 144.08L38.36 144.08C38.78 144.08 39.20 143.81 39.37 143.39L42.24 136.17C42.27 136.10 42.28 136.00 42.28 135.93ZM48.60 140.65C48.60 140.40 48.53 140.13 48.48 139.92C48.12 138.51 47.08 137.56 45.56 137.56C43.74 137.56 42.42 139.03 42.42 140.85C42.42 142.83 43.79 144.16 45.66 144.16C46.58 144.16 48.20 143.68 48.20 142.97C48.20 142.53 47.75 142.43 47.47 142.57C47.01 142.91 46.31 143.22 45.78 143.22C44.50 143.22 43.72 142.35 43.63 141.27L48.00 141.27C48.33 141.27 48.60 140.96 48.60 140.65ZM43.63 140.41C43.69 139.54 44.30 138.50 45.54 138.50C46.88 138.50 47.46 139.57 47.48 140.41ZM53.38 138.15C53.38 137.85 53.16 137.63 52.86 137.63C52.16 137.63 51.59 138.22 51.24 138.70L51.24 138.20C51.24 137.90 50.98 137.64 50.68 137.64C50.34 137.64 50.08 137.90 50.08 138.20L50.08 143.51C50.08 143.82 50.33 144.06 50.64 144.08L50.65 144.08C50.98 144.08 51.24 143.82 51.24 143.51L51.24 140.28C51.24 139.46 51.81 138.81 52.80 138.76C53.12 138.75 53.38 138.49 53.38 138.15ZM59.08 142.10C58.96 139.89 55.36 140.50 55.23 139.37C55.18 138.87 55.72 138.49 56.52 138.49C57.11 138.49 57.67 138.68 58.08 138.97C58.15 139.03 58.25 139.06 58.35 139.06C58.58 139.06 58.80 138.87 58.80 138.60C58.80 138.50 58.77 138.40 58.69 138.32C58.19 137.84 57.40 137.56 56.50 137.56C54.97 137.56 54.05 138.29 54.11 139.41C54.23 141.52 57.82 140.87 57.95 142.26C58.00 142.83 57.48 143.23 56.58 143.23C55.93 143.23 55.28 142.97 54.81 142.63C54.72 142.57 54.63 142.54 54.51 142.54C54.24 142.54 54.01 142.75 54.01 143.03C54.01 143.16 54.06 143.26 54.15 143.34C54.72 143.91 55.67 144.16 56.53 144.16C58.19 144.16 59.14 143.30 59.08 142.10ZM61.13 135.39C60.73 135.39 60.39 135.73 60.39 136.15C60.39 136.55 60.73 136.89 61.13 136.89C61.55 136.89 61.87 136.55 61.87 136.15C61.87 135.73 61.55 135.39 61.13 135.39ZM61.72 138.20C61.72 137.90 61.46 137.64 61.16 137.64C60.82 137.64 60.56 137.90 60.56 138.20L60.56 143.51C60.56 143.82 60.82 144.08 61.13 144.08C61.46 144.08 61.72 143.82 61.72 143.51ZM69.54 140.85C69.54 139.05 68.33 137.56 66.37 137.56C64.42 137.56 63.21 139.05 63.21 140.85C63.21 142.66 64.42 144.16 66.37 144.16C68.33 144.16 69.54 142.66 69.54 140.85ZM68.33 140.85C68.33 142.06 67.63 143.13 66.37 143.13C65.12 143.13 64.41 142.06 64.41 140.85C64.41 139.66 65.12 138.59 66.37 138.59C67.63 138.59 68.33 139.66 68.33 140.85ZM76.43 139.97C76.43 138.64 75.47 137.56 74.14 137.56C73.05 137.56 72.49 138.10 72.19 138.60L72.19 138.20C72.19 137.90 71.93 137.64 71.64 137.64C71.30 137.64 71.04 137.90 71.04 138.20L71.04 143.51C71.04 143.82 71.30 144.08 71.61 144.08C71.93 144.08 72.19 143.82 72.19 143.51L72.19 140.49C72.19 139.42 72.77 138.59 73.77 138.59C74.70 138.59 75.28 139.32 75.28 140.36L75.28 143.51C75.28 143.82 75.54 144.08 75.85 144.08C76.17 144.08 76.43 143.82 76.43 143.51ZM82.91 142.10C82.79 139.89 79.19 140.50 79.06 139.37C79.01 138.87 79.55 138.49 80.35 138.49C80.94 138.49 81.50 138.68 81.91 138.97C81.98 139.03 82.07 139.06 82.18 139.06C82.41 139.06 82.63 138.87 82.63 138.60C82.63 138.50 82.59 138.40 82.52 138.32C82.02 137.84 81.23 137.56 80.33 137.56C78.80 137.56 77.88 138.29 77.94 139.41C78.06 141.52 81.65 140.87 81.78 142.26C81.83 142.83 81.31 143.23 80.41 143.23C79.76 143.23 79.11 142.97 78.64 142.63C78.55 142.57 78.46 142.54 78.34 142.54C78.07 142.54 77.84 142.75 77.84 143.03C77.84 143.16 77.89 143.26 77.98 143.34C78.55 143.91 79.50 144.16 80.36 144.16C82.02 144.16 82.97 143.30 82.91 142.10ZM94.18 137.99C94.18 136.55 93.19 135.33 91.41 135.33L88.61 135.33C88.15 135.33 87.77 135.71 87.77 136.17L87.77 143.44C87.77 143.79 88.05 144.08 88.41 144.08C88.77 144.08 89.06 143.79 89.06 143.44L89.06 140.66L91.41 140.66C93.16 140.66 94.18 139.44 94.18 137.99ZM92.85 137.99C92.85 138.89 92.19 139.51 91.24 139.51L89.06 139.51L89.06 136.47L91.24 136.47C92.19 136.47 92.85 137.08 92.85 137.99ZM100.90 138.20C100.90 137.90 100.64 137.64 100.34 137.64C100.00 137.64 99.74 137.90 99.74 138.20L99.74 141.19C99.74 142.26 99.06 143.13 98.13 143.13C97.19 143.13 96.66 142.41 96.66 141.37L96.66 138.20C96.66 137.90 96.40 137.64 96.10 137.64C95.76 137.64 95.50 137.90 95.50 138.20L95.50 141.78C95.50 143.10 96.44 144.16 97.77 144.16C98.86 144.16 99.40 143.68 99.74 143.14L99.74 143.51C99.74 143.82 100.00 144.08 100.31 144.08C100.64 144.08 100.90 143.82 100.90 143.51ZM108.78 140.87C108.78 138.85 107.74 137.56 106.11 137.56C105.15 137.56 104.42 137.96 103.91 138.63L103.91 135.81C103.91 135.51 103.65 135.25 103.36 135.25C103.02 135.25 102.76 135.51 102.76 135.81L102.76 143.51C102.76 143.82 103.02 144.08 103.33 144.08C103.65 144.08 103.91 143.82 103.91 143.51L103.91 143.10C104.38 143.73 105.14 144.16 105.98 144.16C107.61 144.16 108.78 142.92 108.78 140.87ZM107.57 140.87C107.57 142.18 106.98 143.13 105.79 143.13C104.95 143.13 103.91 142.22 103.91 140.92L103.91 140.83C103.91 139.54 104.69 138.59 105.79 138.59C106.98 138.59 107.57 139.55 107.57 140.87ZM111.43 135.81C111.43 135.51 111.17 135.25 110.87 135.25C110.53 135.25 110.27 135.51 110.27 135.81L110.27 143.51C110.27 143.82 110.53 144.08 110.84 144.08C111.17 144.08 111.43 143.82 111.43 143.51ZM113.87 135.39C113.47 135.39 113.13 135.73 113.13 136.15C113.13 136.55 113.47 136.89 113.87 136.89C114.29 136.89 114.61 136.55 114.61 136.15C114.61 135.73 114.29 135.39 113.87 135.39ZM114.46 138.20C114.46 137.90 114.20 137.64 113.90 137.64C113.56 137.64 113.30 137.90 113.30 138.20L113.30 143.51C113.30 143.82 113.56 144.08 113.87 144.08C114.20 144.08 114.46 143.82 114.46 143.51ZM120.93 142.10C120.81 139.89 117.21 140.50 117.08 139.37C117.03 138.87 117.58 138.49 118.37 138.49C118.97 138.49 119.53 138.68 119.93 138.97C120.01 139.03 120.10 139.06 120.20 139.06C120.44 139.06 120.66 138.87 120.66 138.60C120.66 138.50 120.62 138.40 120.54 138.32C120.05 137.84 119.25 137.56 118.36 137.56C116.82 137.56 115.90 138.29 115.96 139.41C116.08 141.52 119.67 140.87 119.80 142.26C119.85 142.83 119.33 143.23 118.43 143.23C117.78 143.23 117.13 142.97 116.67 142.63C116.58 142.57 116.48 142.54 116.37 142.54C116.09 142.54 115.86 142.75 115.86 143.03C115.86 143.16 115.91 143.26 116.00 143.34C116.58 143.91 117.52 144.16 118.38 144.16C120.05 144.16 121.00 143.30 120.93 142.10ZM127.82 139.94C127.82 138.62 126.87 137.56 125.55 137.56C124.44 137.56 123.87 138.10 123.57 138.60L123.57 135.81C123.57 135.51 123.31 135.25 123.01 135.25C122.67 135.25 122.41 135.51 122.41 135.81L122.41 143.51C122.41 143.82 122.67 144.08 122.98 144.08C123.31 144.08 123.57 143.82 123.57 143.51L123.57 140.56C123.57 139.38 124.19 138.59 125.18 138.59C126.12 138.59 126.66 139.29 126.66 140.33L126.66 143.51C126.66 143.82 126.92 144.08 127.24 144.08C127.56 144.08 127.82 143.82 127.82 143.51ZM135.49 140.65C135.49 140.40 135.43 140.13 135.37 139.92C135.01 138.51 133.97 137.56 132.45 137.56C130.63 137.56 129.32 139.03 129.32 140.85C129.32 142.83 130.68 144.16 132.55 144.16C133.48 144.16 135.09 143.68 135.09 142.97C135.09 142.53 134.65 142.43 134.36 142.57C133.90 142.91 133.20 143.22 132.67 143.22C131.40 143.22 130.62 142.35 130.52 141.27L134.89 141.27C135.22 141.27 135.49 140.96 135.49 140.65ZM130.52 140.41C130.58 139.54 131.19 138.50 132.44 138.50C133.77 138.50 134.35 139.57 134.37 140.41ZM142.61 135.81C142.61 135.51 142.35 135.25 142.06 135.25C141.72 135.25 141.46 135.51 141.46 135.81L141.46 138.63C140.95 137.96 140.34 137.56 139.39 137.56C137.75 137.56 136.60 138.85 136.60 140.87C136.60 142.92 137.77 144.16 139.39 144.16C140.37 144.16 140.98 143.73 141.46 143.10L141.46 143.51C141.46 143.82 141.72 144.08 142.03 144.08C142.35 144.08 142.61 143.82 142.61 143.51ZM141.46 140.91C141.46 142.21 140.81 143.13 139.69 143.13C138.52 143.13 137.79 142.18 137.79 140.87C137.79 139.55 138.52 138.59 139.69 138.59C140.81 138.59 141.46 139.54 141.46 140.83Z" fill="#e6edf3" /><path d="M182.89 136.32C182.89 135.73 182.39 135.26 181.81 135.26C181.51 135.26 181.22 135.38 181.03 135.58L179.03 137.60C178.87 137.76 178.79 137.96 178.79 138.15C178.79 138.58 179.16 138.92 179.56 138.92C179.74 138.92 179.92 138.85 180.07 138.71L181.04 137.71L181.04 143.17C181.04 143.66 181.46 144.08 181.95 144.08C182.47 144.08 182.89 143.66 182.89 143.17ZM191.26 141.40C191.26 140.94 190.89 140.58 190.47 140.58L190.06 140.58L190.06 136.29C190.06 135.49 189.28 135.12 188.49 135.25C187.93 135.25 187.37 135.55 187.07 136.02L184.17 140.59C184.06 140.78 184.00 140.98 184.00 141.19C184.00 141.78 184.43 142.21 184.95 142.21L188.22 142.21L188.22 143.17C188.22 143.66 188.63 144.08 189.13 144.08C189.65 144.08 190.06 143.66 190.06 143.17L190.06 142.21L190.47 142.21C190.89 142.21 191.26 141.84 191.26 141.40ZM185.88 140.58L188.22 136.97L188.22 140.58ZM194.30 143.36C194.30 142.52 193.74 142.04 193.13 142.04C192.58 142.04 192.12 142.50 192.12 143.08C192.12 143.64 192.51 144.01 193.00 144.01C193.09 144.01 193.21 143.99 193.25 143.97C193.17 144.31 192.88 144.72 192.55 144.99C192.45 145.07 192.42 145.17 192.42 145.27C192.42 145.53 192.69 145.69 192.91 145.69C193.04 145.69 193.16 145.65 193.25 145.56C193.90 144.97 194.30 144.19 194.30 143.36ZM202.06 141.18C202.06 139.33 200.67 138.36 199.11 138.36C198.03 138.36 197.23 138.89 196.89 139.48C196.87 139.41 196.87 139.36 196.87 139.29C196.87 137.92 197.77 136.84 199.05 136.84C199.49 136.84 199.85 136.91 200.18 137.08C200.29 137.15 200.42 137.18 200.55 137.18C200.96 137.18 201.40 136.86 201.40 136.37C201.40 136.24 201.36 136.12 201.31 136.02C200.98 135.45 199.89 135.20 199.05 135.20C196.48 135.20 195.00 137.06 195.00 139.68C195.00 142.13 196.11 144.16 198.75 144.16C200.72 144.16 202.06 142.87 202.06 141.18ZM200.19 141.24C200.19 141.89 199.71 142.52 198.71 142.52C197.89 142.52 197.28 141.96 197.28 141.15C197.28 140.37 197.90 139.81 198.71 139.81C199.54 139.81 200.19 140.37 200.19 141.24ZM209.91 141.15C209.91 139.40 208.60 138.34 207.13 138.34C206.34 138.34 205.64 138.66 205.22 139.07L205.22 136.95L208.61 136.95C209.04 136.95 209.41 136.59 209.41 136.15C209.41 135.69 209.04 135.33 208.61 135.33L204.41 135.33C203.84 135.33 203.37 135.80 203.37 136.37L203.37 139.70C203.37 140.20 203.74 140.58 204.31 140.58C204.57 140.58 204.82 140.50 205.03 140.36C205.49 140.05 205.95 139.94 206.48 139.94C207.47 139.94 208.04 140.46 208.04 141.23C208.04 141.93 207.46 142.52 206.43 142.52C205.81 142.52 205.21 142.35 204.70 142.04C204.54 141.95 204.38 141.89 204.22 141.89C203.76 141.89 203.34 142.25 203.34 142.73C203.34 142.86 203.37 142.99 203.44 143.10C203.84 143.78 205.31 144.16 206.44 144.16C208.54 144.16 209.91 143.00 209.91 141.15ZM217.43 141.63C217.53 140.07 216.48 139.53 216.48 139.53C216.48 139.53 217.44 139.03 217.34 137.55C217.23 136.11 216.09 135.20 214.06 135.20C212.86 135.20 211.93 135.55 211.21 136.12C211.03 136.26 210.94 136.47 210.94 136.68C210.94 137.14 211.34 137.46 211.75 137.46C211.90 137.46 212.06 137.42 212.19 137.33C212.70 137.01 213.27 136.84 213.87 136.84C214.78 136.84 215.48 137.04 215.48 137.73C215.48 138.45 215.05 138.79 214.18 138.79C213.55 138.79 213.28 139.14 213.28 139.59C213.28 140.05 213.55 140.41 214.23 140.41C215.11 140.41 215.62 140.72 215.62 141.41C215.62 142.06 215.04 142.52 213.98 142.52C213.38 142.52 212.70 142.31 212.12 141.97C211.98 141.88 211.82 141.84 211.67 141.84C211.24 141.84 210.82 142.19 210.82 142.66C210.82 142.79 210.86 142.91 210.93 143.01C211.33 143.69 212.80 144.16 214.05 144.16C216.13 144.16 217.32 143.26 217.43 141.63Z" fill="#9aa7b4" /></g><g aria-label="This Week: 23,528,728"><circle cx="22" cy="162" r="4" fill="#00d559" /><path d="M41.14 157.91C41.14 157.58 40.89 157.33 40.58 157.33L34.87 157.33C34.56 157.33 34.31 157.58 34.31 157.89C34.31 158.21 34.56 158.47 34.87 158.47L37.08 158.47L37.08 165.44C37.08 165.79 37.37 166.08 37.72 166.08C38.08 166.08 38.37 165.79 38.37 165.44L38.37 158.47L40.58 158.47C40.89 158.47 41.14 158.21 41.14 157.91ZM47.79 161.94C47.79 160.62 46.84 159.56 45.52 159.56C44.41 159.56 43.84 160.10 43.54 160.60L43.54 157.81C43.54 157.51 43.28 157.25 42.98 157.25C42.64 157.25 42.38 157.51 42.38 157.81L42.38 165.51C42.38 165.82 42.64 166.08 42.96 166.08C43.28 166.08 43.54 165.82 43.54 165.51L43.54 162.56C43.54 161.38 44.17 160.59 45.15 160.59C46.09 160.59 46.64 161.29 46.64 162.33L46.64 165.51C46.64 165.82 46.90 166.08 47.21 166.08C47.53 166.08 47.79 165.82 47.79 165.51ZM50.24 157.39C49.83 157.39 49.50 157.73 49.50 158.15C49.50 158.55 49.83 158.89 50.24 158.89C50.65 158.89 50.98 158.55 50.98 158.15C50.98 157.73 50.65 157.39 50.24 157.39ZM50.82 160.20C50.82 159.90 50.56 159.64 50.26 159.64C49.92 159.64 49.66 159.90 49.66 160.20L49.66 165.51C49.66 165.82 49.92 166.08 50.24 166.08C50.56 166.08 50.82 165.82 50.82 165.51ZM57.30 164.10C57.18 161.89 53.58 162.50 53.45 161.37C53.40 160.87 53.94 160.49 54.73 160.49C55.33 160.49 55.89 160.68 56.30 160.97C56.37 161.03 56.46 161.06 56.57 161.06C56.80 161.06 57.02 160.87 57.02 160.60C57.02 160.50 56.98 160.40 56.91 160.32C56.41 159.84 55.62 159.56 54.72 159.56C53.19 159.56 52.27 160.29 52.33 161.41C52.45 163.52 56.04 162.87 56.17 164.26C56.22 164.83 55.70 165.23 54.80 165.23C54.15 165.23 53.50 164.97 53.03 164.63C52.94 164.57 52.85 164.54 52.73 164.54C52.46 164.54 52.23 164.75 52.23 165.03C52.23 165.16 52.28 165.26 52.37 165.34C52.94 165.91 53.89 166.16 54.75 166.16C56.41 166.16 57.36 165.30 57.30 164.10ZM72.45 157.89C72.45 157.54 72.17 157.24 71.77 157.24C71.45 157.24 71.17 157.45 71.10 157.75L69.40 164.30L67.62 157.73C67.54 157.45 67.28 157.25 66.99 157.25C66.68 157.25 66.42 157.45 66.36 157.73L64.56 164.30L62.86 157.75C62.78 157.43 62.48 157.22 62.18 157.22C61.77 157.22 61.51 157.55 61.51 157.89C61.51 157.95 61.52 158.00 61.53 158.07L63.64 165.45C63.73 165.82 64.06 166.08 64.46 166.08L64.49 166.08C64.88 166.08 65.21 165.82 65.32 165.44L66.98 159.29L68.63 165.44C68.72 165.81 69.06 166.08 69.45 166.08L69.48 166.08C69.87 166.08 70.22 165.82 70.32 165.44L72.43 158.07C72.44 158.02 72.45 157.95 72.45 157.89ZM78.99 162.65C78.99 162.40 78.93 162.13 78.88 161.92C78.51 160.51 77.47 159.56 75.95 159.56C74.13 159.56 72.82 161.03 72.82 162.85C72.82 164.83 74.18 166.16 76.06 166.16C76.98 166.16 78.59 165.68 78.59 164.97C78.59 164.53 78.15 164.43 77.86 164.57C77.41 164.91 76.71 165.22 76.17 165.22C74.90 165.22 74.12 164.35 74.03 163.27L78.40 163.27C78.72 163.27 78.99 162.96 78.99 162.65ZM74.03 162.41C74.08 161.54 74.69 160.50 75.94 160.50C77.28 160.50 77.85 161.57 77.88 162.41ZM86.27 162.65C86.27 162.40 86.21 162.13 86.16 161.92C85.79 160.51 84.75 159.56 83.23 159.56C81.41 159.56 80.10 161.03 80.10 162.85C80.10 164.83 81.46 166.16 83.34 166.16C84.26 166.16 85.87 165.68 85.87 164.97C85.87 164.53 85.43 164.43 85.14 164.57C84.69 164.91 83.99 165.22 83.45 165.22C82.18 165.22 81.40 164.35 81.31 163.27L85.68 163.27C86.00 163.27 86.27 162.96 86.27 162.65ZM81.31 162.41C81.36 161.54 81.97 160.50 83.22 160.50C84.56 160.50 85.13 161.57 85.16 162.41ZM92.89 165.51C92.89 165.39 92.85 165.26 92.77 165.17L90.71 162.57L92.66 160.53C92.75 160.42 92.80 160.31 92.80 160.18C92.80 159.89 92.54 159.63 92.25 159.63C92.12 159.63 91.98 159.69 91.88 159.80L88.91 162.92L88.91 157.81C88.91 157.51 88.65 157.25 88.35 157.25C88.02 157.25 87.76 157.51 87.76 157.81L87.76 165.51C87.76 165.82 88.02 166.08 88.33 166.08C88.65 166.08 88.91 165.82 88.91 165.51L88.91 164.26L89.87 163.28L91.86 165.86C91.97 166.01 92.15 166.09 92.32 166.09C92.67 166.09 92.89 165.78 92.89 165.51Z" fill="#e6edf3" /><path d="M157.73 165.17C157.73 164.74 157.37 164.38 156.94 164.38L154.12 164.38C156.37 162.74 157.59 161.45 157.59 159.97C157.59 158.24 156.12 157.20 154.27 157.20C153.18 157.20 151.73 157.67 151.31 158.33C151.23 158.45 151.19 158.58 151.19 158.71C151.19 159.18 151.57 159.54 152.00 159.54C152.19 159.54 152.36 159.49 152.53 159.37C153.03 159.03 153.62 158.84 154.31 158.84C155.03 158.84 155.72 159.21 155.72 159.97C155.72 160.98 154.68 161.93 151.44 164.32C151.19 164.50 151.05 164.80 151.05 165.10C151.05 165.62 151.47 166 151.92 166L156.94 166C157.37 166 157.73 165.64 157.73 165.17ZM165.38 163.63C165.48 162.07 164.43 161.53 164.43 161.53C164.43 161.53 165.39 161.03 165.28 159.55C165.18 158.11 164.04 157.20 162.01 157.20C160.81 157.20 159.88 157.55 159.16 158.12C158.98 158.26 158.89 158.47 158.89 158.68C158.89 159.14 159.29 159.46 159.69 159.46C159.85 159.46 160.01 159.42 160.14 159.33C160.64 159.01 161.22 158.84 161.81 158.84C162.72 158.84 163.43 159.04 163.43 159.73C163.43 160.45 163.00 160.79 162.13 160.79C161.50 160.79 161.23 161.14 161.23 161.59C161.23 162.05 161.50 162.41 162.18 162.41C163.06 162.41 163.57 162.72 163.57 163.41C163.57 164.06 162.98 164.52 161.93 164.52C161.33 164.52 160.64 164.31 160.07 163.97C159.93 163.88 159.77 163.84 159.62 163.84C159.19 163.84 158.77 164.19 158.77 164.66C158.77 164.79 158.81 164.91 158.88 165.01C159.28 165.69 160.75 166.16 162.00 166.16C164.08 166.16 165.27 165.26 165.38 163.63ZM168.74 165.36C168.74 164.52 168.18 164.04 167.57 164.04C167.03 164.04 166.56 164.50 166.56 165.08C166.56 165.64 166.95 166.01 167.44 166.01C167.53 166.01 167.65 165.99 167.69 165.97C167.61 166.31 167.33 166.72 166.99 166.99C166.90 167.07 166.86 167.17 166.86 167.27C166.86 167.53 167.13 167.69 167.35 167.69C167.48 167.69 167.60 167.65 167.69 167.56C168.34 166.97 168.74 166.19 168.74 165.36ZM176.73 163.15C176.73 161.40 175.41 160.34 173.94 160.34C173.15 160.34 172.45 160.66 172.03 161.07L172.03 158.95L175.43 158.95C175.85 158.95 176.22 158.59 176.22 158.15C176.22 157.69 175.85 157.33 175.43 157.33L171.23 157.33C170.65 157.33 170.19 157.80 170.19 158.37L170.19 161.70C170.19 162.20 170.55 162.58 171.12 162.58C171.38 162.58 171.63 162.50 171.84 162.36C172.31 162.05 172.76 161.94 173.29 161.94C174.28 161.94 174.85 162.46 174.85 163.23C174.85 163.93 174.27 164.52 173.24 164.52C172.62 164.52 172.02 164.35 171.51 164.04C171.36 163.95 171.19 163.89 171.03 163.89C170.58 163.89 170.15 164.25 170.15 164.73C170.15 164.86 170.19 164.99 170.25 165.10C170.65 165.78 172.12 166.16 173.25 166.16C175.35 166.16 176.73 165.00 176.73 163.15ZM184.40 165.17C184.40 164.74 184.03 164.38 183.60 164.38L180.78 164.38C183.03 162.74 184.25 161.45 184.25 159.97C184.25 158.24 182.78 157.20 180.94 157.20C179.84 157.20 178.39 157.67 177.97 158.33C177.90 158.45 177.86 158.58 177.86 158.71C177.86 159.18 178.23 159.54 178.66 159.54C178.86 159.54 179.03 159.49 179.19 159.37C179.69 159.03 180.29 158.84 180.98 158.84C181.69 158.84 182.38 159.21 182.38 159.97C182.38 160.98 181.34 161.93 178.10 164.32C177.86 164.50 177.71 164.80 177.71 165.10C177.71 165.62 178.13 166 178.58 166L183.60 166C184.03 166 184.40 165.64 184.40 165.17ZM192.40 163.62C192.40 162.44 191.70 161.76 191.18 161.53C191.62 161.32 192.26 160.83 192.26 159.49C192.26 157.99 190.65 157.20 188.92 157.20C187.18 157.20 185.58 157.99 185.58 159.49C185.58 160.83 186.20 161.32 186.64 161.53C186.12 161.76 185.44 162.44 185.44 163.62C185.44 165.25 187.10 166.16 188.92 166.16C190.74 166.16 192.40 165.23 192.40 163.62ZM190.38 159.77C190.38 160.42 189.71 160.80 188.92 160.80C188.13 160.80 187.45 160.42 187.45 159.77C187.45 159.15 188.06 158.78 188.92 158.78C189.76 158.78 190.38 159.15 190.38 159.77ZM190.53 163.52C190.53 164.15 189.80 164.57 188.92 164.57C188.01 164.57 187.31 164.15 187.31 163.52C187.31 162.79 188.11 162.36 188.92 162.36C189.71 162.36 190.53 162.79 190.53 163.52ZM195.65 165.36C195.65 164.52 195.09 164.04 194.48 164.04C193.94 164.04 193.47 164.50 193.47 165.08C193.47 165.64 193.86 166.01 194.35 166.01C194.44 166.01 194.56 165.99 194.60 165.97C194.52 166.31 194.24 166.72 193.90 166.99C193.81 167.07 193.77 167.17 193.77 167.27C193.77 167.53 194.04 167.69 194.26 167.69C194.39 167.69 194.51 167.65 194.60 167.56C195.25 166.97 195.65 166.19 195.65 165.36ZM202.14 158.26C202.14 157.72 201.70 157.33 201.24 157.33L196.28 157.33C195.84 157.33 195.47 157.69 195.47 158.12C195.47 158.59 195.84 158.95 196.28 158.95L199.92 158.95L197.33 164.82C197.28 164.93 197.25 165.05 197.25 165.17C197.25 165.64 197.63 166.08 198.18 166.08C198.55 166.08 198.90 165.86 199.05 165.52L202.06 158.63C202.11 158.53 202.14 158.40 202.14 158.26ZM209.54 165.17C209.54 164.74 209.17 164.38 208.74 164.38L205.92 164.38C208.17 162.74 209.39 161.45 209.39 159.97C209.39 158.24 207.93 157.20 206.08 157.20C204.99 157.20 203.53 157.67 203.12 158.33C203.04 158.45 203.00 158.58 203.00 158.71C203.00 159.18 203.38 159.54 203.80 159.54C204.00 159.54 204.17 159.49 204.34 159.37C204.83 159.03 205.43 158.84 206.12 158.84C206.83 158.84 207.52 159.21 207.52 159.97C207.52 160.98 206.48 161.93 203.25 164.32C203.00 164.50 202.86 164.80 202.86 165.10C202.86 165.62 203.27 166 203.73 166L208.74 166C209.17 166 209.54 165.64 209.54 165.17ZM217.55 163.62C217.55 162.44 216.84 161.76 216.32 161.53C216.77 161.32 217.40 160.83 217.40 159.49C217.40 157.99 215.79 157.20 214.06 157.20C212.32 157.20 210.72 157.99 210.72 159.49C210.72 160.83 211.34 161.32 211.79 161.53C211.27 161.76 210.58 162.44 210.58 163.62C210.58 165.25 212.24 166.16 214.06 166.16C215.88 166.16 217.55 165.23 217.55 163.62ZM215.52 159.77C215.52 160.42 214.85 160.80 214.06 160.80C213.27 160.80 212.59 160.42 212.59 159.77C212.59 159.15 213.20 158.78 214.06 158.78C214.91 158.78 215.52 159.15 215.52 159.77ZM215.67 163.52C215.67 164.15 214.95 164.57 214.06 164.57C213.15 164.57 212.45 164.15 212.45 163.52C212.45 162.79 213.26 162.36 214.06 162.36C214.85 162.36 215.67 162.79 215.67 163.52Z" fill="#9aa7b4" /></g></svg>