<svg xmlns="http://www.w3.org/2000/svg" width="420" height="184" viewBox="0 0 420 184" role="img"><rect x="0.5" y="0.5" width="419" height="183" rx="10" fill="#ffffff" stroke="#f2f4f6" /><path d="M30.21 36.59C30.21 35.87 29.59 35.25 28.87 35.25L24.09 35.25C27.90 32.48 29.97 30.30 29.97 27.79C29.97 24.87 27.48 23.11 24.36 23.11C22.51 23.11 20.05 23.90 19.34 25.02C19.21 25.22 19.14 25.44 19.14 25.66C19.14 26.45 19.78 27.07 20.51 27.07C20.84 27.07 21.12 26.98 21.41 26.78C22.25 26.21 23.26 25.88 24.42 25.88C25.63 25.88 26.80 26.52 26.80 27.79C26.80 29.51 25.04 31.11 19.56 35.16C19.14 35.47 18.90 35.98 18.90 36.48C18.90 37.36 19.61 38 20.38 38L28.87 38C29.59 38 30.21 37.38 30.21 36.59ZM35.93 36.92C35.93 35.49 34.98 34.68 33.95 34.68C33.03 34.68 32.23 35.47 32.23 36.44C32.23 37.38 32.89 38.02 33.73 38.02C33.88 38.02 34.08 37.98 34.15 37.96C34.02 38.53 33.53 39.21 32.96 39.67C32.81 39.80 32.74 39.98 32.74 40.16C32.74 40.60 33.20 40.86 33.58 40.86C33.80 40.86 33.99 40.79 34.15 40.64C35.25 39.65 35.93 38.33 35.93 36.92ZM42.24 25.00C42.24 24.01 41.41 23.22 40.42 23.22C39.91 23.22 39.43 23.41 39.10 23.74L35.71 27.18C35.45 27.44 35.31 27.77 35.31 28.10C35.31 28.83 35.93 29.40 36.61 29.40C36.92 29.40 37.23 29.29 37.47 29.05L39.12 27.35L39.12 36.59C39.12 37.43 39.82 38.13 40.66 38.13C41.54 38.13 42.24 37.43 42.24 36.59ZM56.30 33.18C56.30 30.21 54.08 28.43 51.59 28.43C50.25 28.43 49.06 28.96 48.36 29.66L48.36 26.08L54.10 26.08C54.83 26.08 55.44 25.46 55.44 24.71C55.44 23.94 54.83 23.33 54.10 23.33L47.00 23.33C46.03 23.33 45.24 24.12 45.24 25.09L45.24 30.72C45.24 31.58 45.85 32.21 46.82 32.21C47.26 32.21 47.68 32.08 48.03 31.84C48.82 31.31 49.59 31.14 50.49 31.14C52.17 31.14 53.13 32.02 53.13 33.31C53.13 34.50 52.14 35.49 50.41 35.49C49.35 35.49 48.34 35.21 47.48 34.68C47.22 34.52 46.93 34.44 46.67 34.44C45.90 34.44 45.17 35.03 45.17 35.84C45.17 36.06 45.24 36.28 45.35 36.48C46.03 37.63 48.51 38.26 50.43 38.26C53.97 38.26 56.30 36.31 56.30 33.18ZM68.75 24.91C68.75 23.99 68.01 23.33 67.24 23.33L58.83 23.33C58.08 23.33 57.47 23.94 57.47 24.67C57.47 25.46 58.08 26.08 58.83 26.08L64.99 26.08L60.61 36.00C60.53 36.20 60.48 36.39 60.48 36.59C60.48 37.38 61.12 38.13 62.04 38.13C62.68 38.13 63.28 37.76 63.52 37.19L68.62 25.53C68.71 25.35 68.75 25.13 68.75 24.91ZM71.72 36.92C71.72 35.49 70.78 34.68 69.74 34.68C68.82 34.68 68.03 35.47 68.03 36.44C68.03 37.38 68.69 38.02 69.52 38.02C69.68 38.02 69.88 37.98 69.94 37.96C69.81 38.53 69.33 39.21 68.75 39.67C68.60 39.80 68.53 39.98 68.53 40.16C68.53 40.60 69.00 40.86 69.37 40.86C69.59 40.86 69.79 40.79 69.94 40.64C71.04 39.65 71.72 38.33 71.72 36.92ZM82.70 24.91C82.70 23.99 81.95 23.33 81.18 23.33L72.78 23.33C72.03 23.33 71.42 23.94 71.42 24.67C71.42 25.46 72.03 26.08 72.78 26.08L78.94 26.08L74.56 36.00C74.47 36.20 74.43 36.39 74.43 36.59C74.43 37.38 75.07 38.13 75.99 38.13C76.63 38.13 77.22 37.76 77.47 37.19L82.57 25.53C82.66 25.35 82.70 25.13 82.70 24.91ZM90.60 25.00C90.60 24.01 89.76 23.22 88.77 23.22C88.27 23.22 87.78 23.41 87.45 23.74L84.07 27.18C83.80 27.44 83.67 27.77 83.67 28.10C83.67 28.83 84.29 29.40 84.97 29.40C85.28 29.40 85.58 29.29 85.83 29.05L87.48 27.35L87.48 36.59C87.48 37.43 88.18 38.13 89.02 38.13C89.90 38.13 90.60 37.43 90.60 36.59ZM92.71 28.12C92.71 31.25 95.07 32.90 97.71 32.90C99.53 32.90 100.90 31.99 101.47 31.00C101.49 31.11 101.49 31.20 101.49 31.31C101.49 33.64 99.97 35.47 97.82 35.47C97.07 35.47 96.45 35.34 95.90 35.05C95.70 34.94 95.48 34.90 95.26 34.90C94.58 34.90 93.83 35.43 93.83 36.26C93.83 36.48 93.90 36.68 93.99 36.86C94.54 37.82 96.39 38.24 97.82 38.24C102.15 38.24 104.66 35.10 104.66 30.65C104.66 26.52 102.79 23.08 98.32 23.08C94.98 23.08 92.71 25.26 92.71 28.12ZM95.88 28.01C95.88 26.91 96.69 25.86 98.39 25.86C99.77 25.86 100.81 26.80 100.81 28.17C100.81 29.49 99.75 30.43 98.39 30.43C96.98 30.43 95.88 29.49 95.88 28.01ZM109.70 36.92C109.70 35.49 108.75 34.68 107.72 34.68C106.79 34.68 106.00 35.47 106.00 36.44C106.00 37.38 106.66 38.02 107.50 38.02C107.65 38.02 107.85 37.98 107.91 37.96C107.78 38.53 107.30 39.21 106.73 39.67C106.57 39.80 106.51 39.98 106.51 40.16C106.51 40.60 106.97 40.86 107.34 40.86C107.56 40.86 107.76 40.79 107.91 40.64C109.01 39.65 109.70 38.33 109.70 36.92ZM122.83 33.23C122.83 30.10 120.48 28.45 117.84 28.45C116.01 28.45 114.65 29.35 114.07 30.34C114.05 30.23 114.05 30.15 114.05 30.04C114.05 27.70 115.57 25.88 117.73 25.88C118.47 25.88 119.09 26.01 119.64 26.30C119.84 26.41 120.06 26.45 120.28 26.45C120.96 26.45 121.71 25.92 121.71 25.09C121.71 24.87 121.64 24.67 121.55 24.49C121.00 23.52 119.16 23.11 117.73 23.11C113.39 23.11 110.88 26.25 110.88 30.70C110.88 34.83 112.75 38.26 117.22 38.26C120.56 38.26 122.83 36.09 122.83 33.23ZM119.66 33.34C119.66 34.44 118.85 35.49 117.15 35.49C115.77 35.49 114.73 34.55 114.73 33.18C114.73 31.86 115.79 30.92 117.15 30.92C118.56 30.92 119.66 31.86 119.66 33.34ZM136.07 33.97C136.07 31.97 134.89 30.83 134.01 30.43C134.75 30.08 135.83 29.24 135.83 26.98C135.83 24.45 133.10 23.11 130.18 23.11C127.23 23.11 124.52 24.45 124.52 26.98C124.52 29.24 125.58 30.08 126.33 30.43C125.45 30.83 124.28 31.97 124.28 33.97C124.28 36.72 127.10 38.26 130.18 38.26C133.26 38.26 136.07 36.70 136.07 33.97ZM132.64 27.46C132.64 28.56 131.52 29.20 130.18 29.20C128.84 29.20 127.69 28.56 127.69 27.46C127.69 26.41 128.73 25.79 130.18 25.79C131.61 25.79 132.64 26.41 132.64 27.46ZM132.91 33.80C132.91 34.88 131.67 35.58 130.18 35.58C128.64 35.58 127.45 34.88 127.45 33.80C127.45 32.57 128.81 31.84 130.18 31.84C131.52 31.84 132.91 32.57 132.91 33.80ZM149.05 36.59C149.05 35.87 148.44 35.25 147.71 35.25L142.94 35.25C146.74 32.48 148.81 30.30 148.81 27.79C148.81 24.87 146.33 23.11 143.20 23.11C141.35 23.11 138.89 23.90 138.19 25.02C138.05 25.22 137.99 25.44 137.99 25.66C137.99 26.45 138.63 27.07 139.35 27.07C139.68 27.07 139.97 26.98 140.25 26.78C141.09 26.21 142.10 25.88 143.27 25.88C144.48 25.88 145.64 26.52 145.64 27.79C145.64 29.51 143.88 31.11 138.41 35.16C137.99 35.47 137.75 35.98 137.75 36.48C137.75 37.36 138.45 38 139.22 38L147.71 38C148.44 38 149.05 37.38 149.05 36.59ZM170.70 30.67C170.70 26.25 167.51 23.33 162.91 23.33L158.89 23.33C157.92 23.33 157.13 24.12 157.13 25.09L157.13 36.24C157.13 37.21 157.92 38 158.89 38L162.91 38C167.51 38 170.70 35.10 170.70 30.67ZM167.51 30.67C167.51 33.16 165.82 35.25 162.91 35.25L160.25 35.25L160.25 26.08L162.91 26.08C165.93 26.08 167.51 28.08 167.51 30.67ZM183.42 32.68C183.42 29.66 181.31 27.11 177.79 27.11C174.29 27.11 172.18 29.66 172.18 32.68C172.18 35.71 174.29 38.26 177.79 38.26C181.31 38.26 183.42 35.71 183.42 32.68ZM180.51 32.68C180.51 34.35 179.52 35.78 177.79 35.78C176.05 35.78 175.08 34.35 175.08 32.68C175.08 31.03 176.05 29.60 177.79 29.60C179.52 29.60 180.51 31.03 180.51 32.68ZM200.60 28.58C200.60 27.88 200.03 27.24 199.21 27.24C198.60 27.24 198.03 27.64 197.87 28.23L196.13 34.52L194.13 28.36C193.91 27.70 193.27 27.24 192.59 27.24C191.84 27.24 191.21 27.70 190.99 28.36L188.98 34.52L187.25 28.23C187.09 27.64 186.52 27.24 185.93 27.24C185.09 27.24 184.52 27.90 184.52 28.58C184.52 28.72 184.54 28.85 184.58 28.98L186.96 36.77C187.20 37.56 187.97 38.13 188.81 38.13L188.85 38.13C189.69 38.13 190.46 37.56 190.70 36.77L192.57 30.76L194.44 36.77C194.68 37.58 195.43 38.13 196.29 38.13L196.33 38.13C197.15 38.13 197.92 37.56 198.16 36.77L200.53 28.98C200.58 28.85 200.60 28.72 200.60 28.58ZM212.37 31.16C212.37 29.09 210.59 27.11 208.26 27.11C206.63 27.11 205.62 27.97 205.20 28.63L205.20 28.61C205.20 27.86 204.58 27.24 203.83 27.24C203.02 27.24 202.40 27.86 202.40 28.61L202.40 36.75C202.40 37.52 203.02 38.13 203.79 38.13C204.58 38.13 205.20 37.52 205.20 36.75L205.20 32.06C205.20 30.54 206.30 29.60 207.40 29.60C208.59 29.60 209.58 30.54 209.58 32.02L209.58 36.75C209.58 37.52 210.19 38.13 210.96 38.13C211.75 38.13 212.37 37.52 212.37 36.75ZM217.94 24.56C217.94 23.81 217.32 23.19 216.57 23.19C215.76 23.19 215.14 23.81 215.14 24.56L215.14 36.75C215.14 37.52 215.76 38.13 216.53 38.13C217.32 38.13 217.94 37.52 217.94 36.75ZM231.27 32.68C231.27 29.66 229.16 27.11 225.64 27.11C222.14 27.11 220.03 29.66 220.03 32.68C220.03 35.71 222.14 38.26 225.64 38.26C229.16 38.26 231.27 35.71 231.27 32.68ZM228.36 32.68C228.36 34.35 227.37 35.78 225.64 35.78C223.90 35.78 222.93 34.35 222.93 32.68C222.93 31.03 223.90 29.60 225.64 29.60C227.37 29.60 228.36 31.03 228.36 32.68ZM242.51 31.14C242.51 28.08 240.29 27.11 237.87 27.11C236.64 27.11 234.26 27.55 233.60 28.61C233.51 28.76 233.45 28.96 233.45 29.16C233.45 29.82 234.00 30.23 234.50 30.23C234.68 30.23 234.85 30.17 235.01 30.08C235.73 29.60 236.55 29.40 237.38 29.40C238.79 29.40 239.72 30.10 239.72 31.18L239.72 31.53L236.35 31.53C234.66 31.53 232.65 32.26 232.65 34.74C232.65 37.12 234.66 38.26 236.35 38.26C237.96 38.26 238.99 37.87 239.72 37.01C239.72 37.49 240.18 38.13 240.93 38.13L241.15 38.13C241.89 38.13 242.51 37.52 242.51 36.75ZM239.72 33.42L239.72 33.91C239.72 35.62 238.37 36.37 237.47 36.37C236.37 36.37 235.47 35.80 235.47 34.81C235.47 33.78 236.37 33.42 237.47 33.42ZM244.62 32.70C244.62 36.24 246.87 38.26 249.55 38.26C250.83 38.26 251.99 37.69 252.61 36.64L252.61 36.75C252.61 37.52 253.22 38.13 254.02 38.13C254.79 38.13 255.40 37.52 255.40 36.75L255.40 24.56C255.40 23.81 254.79 23.19 253.97 23.19C253.22 23.19 252.61 23.81 252.61 24.56L252.61 28.74C251.99 27.66 250.80 27.11 249.55 27.11C246.84 27.11 244.62 29.22 244.62 32.70ZM247.50 32.70C247.50 30.85 248.58 29.60 250.21 29.60C251.33 29.60 252.61 30.78 252.61 32.59L252.61 32.83C252.61 34.61 251.33 35.78 250.21 35.78C248.58 35.78 247.50 34.55 247.50 32.70ZM266.60 34.85C266.60 30.56 260.31 31.88 260.31 30.30C260.31 29.71 260.97 29.24 261.98 29.24C262.84 29.24 263.70 29.49 264.38 29.88C264.53 29.97 264.73 30.01 264.91 30.01C265.48 30.01 266.01 29.55 266.01 28.96C266.01 28.76 265.94 28.56 265.83 28.41C265.24 27.55 263.34 27.11 261.96 27.11C259.16 27.11 257.60 28.67 257.60 30.45C257.60 34.63 263.92 33.20 263.92 34.96C263.92 35.62 263.34 36.11 262.13 36.11C261.21 36.11 260.11 35.73 259.27 35.25C259.10 35.14 258.90 35.10 258.70 35.10C258.11 35.10 257.54 35.60 257.54 36.26C257.54 36.48 257.60 36.68 257.73 36.86C258.39 37.80 260.62 38.26 262.00 38.26C264.95 38.26 266.60 36.79 266.60 34.85Z" fill="#22272e" /><path d="M20.26 49.88C20.26 49.54 19.98 49.25 19.64 49.25C19.26 49.25 18.98 49.54 18.98 49.88L18.98 57.44C18.98 57.79 19.26 58.08 19.61 58.08C19.98 58.08 20.26 57.79 20.26 57.44ZM27.55 53.97C27.55 52.64 26.59 51.56 25.27 51.56C24.18 51.56 23.62 52.10 23.32 52.60L23.32 52.20C23.32 51.90 23.06 51.64 22.76 51.64C22.42 51.64 22.16 51.90 22.16 52.20L22.16 57.51C22.16 57.82 22.42 58.08 22.73 58.08C23.06 58.08 23.32 57.82 23.32 57.51L23.32 54.49C23.32 53.42 23.89 52.59 24.89 52.59C25.83 52.59 26.40 53.32 26.40 54.36L26.40 57.51C26.40 57.82 26.66 58.08 26.97 58.08C27.30 58.08 27.55 57.82 27.55 57.51ZM38.97 49.91C38.97 49.58 38.72 49.33 38.41 49.33L32.70 49.33C32.39 49.33 32.14 49.58 32.14 49.89C32.14 50.21 32.39 50.47 32.70 50.47L34.91 50.47L34.91 57.44C34.91 57.79 35.20 58.08 35.55 58.08C35.91 58.08 36.20 57.79 36.20 57.44L36.20 50.47L38.41 50.47C38.72 50.47 38.97 50.21 38.97 49.91ZM44.74 54.85C44.74 53.05 43.53 51.56 41.57 51.56C39.62 51.56 38.41 53.05 38.41 54.85C38.41 56.66 39.62 58.16 41.57 58.16C43.53 58.16 44.74 56.66 44.74 54.85ZM43.53 54.85C43.53 56.06 42.83 57.13 41.57 57.13C40.32 57.13 39.61 56.06 39.61 54.85C39.61 53.66 40.32 52.59 41.57 52.59C42.83 52.59 43.53 53.66 43.53 54.85ZM49.16 57.55C49.16 57.27 48.95 57.06 48.67 57.06C48.54 57.06 48.38 57.13 48.24 57.13C47.86 57.13 47.63 56.83 47.63 56.35L47.63 52.73L48.48 52.73C48.76 52.73 48.98 52.51 48.98 52.24C48.98 51.94 48.76 51.72 48.48 51.72L47.63 51.72L47.63 50.49C47.63 50.19 47.37 49.93 47.05 49.93C46.72 49.93 46.46 50.19 46.46 50.49L46.46 51.72L45.85 51.72C45.56 51.72 45.34 51.94 45.34 52.22C45.34 52.51 45.56 52.73 45.85 52.73L46.46 52.73L46.46 56.62C46.46 57.61 46.98 58.16 47.96 58.16C48.65 58.16 49.16 57.96 49.16 57.55ZM55.26 53.75C55.26 52.15 54.09 51.56 52.74 51.56C51.89 51.56 50.94 51.84 50.34 52.44C50.27 52.53 50.23 52.63 50.23 52.73C50.23 53.01 50.47 53.19 50.71 53.19C50.80 53.19 50.90 53.15 50.99 53.09C51.46 52.72 51.98 52.54 52.57 52.54C53.45 52.54 54.10 53.01 54.10 53.80L54.10 54.15L52.29 54.15C50.99 54.15 49.85 54.66 49.85 56.08C49.85 57.45 50.99 58.16 52.03 58.16C53.01 58.16 53.59 57.86 54.10 57.30L54.10 57.51C54.10 57.88 54.40 58.08 54.63 58.08L54.67 58.08C55.00 58.08 55.26 57.82 55.26 57.51ZM54.10 54.96L54.10 55.84C54.10 56.58 53.26 57.34 52.35 57.34C51.50 57.34 51.02 56.83 51.02 56.10C51.02 55.35 51.62 54.96 52.61 54.96ZM58.27 49.81C58.27 49.51 58.01 49.25 57.71 49.25C57.38 49.25 57.12 49.51 57.12 49.81L57.12 57.51C57.12 57.82 57.38 58.08 57.69 58.08C58.01 58.08 58.27 57.82 58.27 57.51Z" fill="#627386" /><line x1="18" y1="76" x2="48" y2="76" stroke="#627386" stroke-opacity="0.4" /><g aria-label="Packages: 108"><circle cx="22" cy="96" r="4" fill="#673bd6" /><path d="M41.38 93.99C41.38 92.55 40.40 91.33 38.62 91.33L35.82 91.33C35.35 91.33 34.98 91.71 34.98 92.17L34.98 99.44C34.98 99.79 35.26 100.08 35.61 100.08C35.98 100.08 36.26 99.79 36.26 99.44L36.26 96.66L38.62 96.66C40.37 96.66 41.38 95.44 41.38 93.99ZM40.06 93.99C40.06 94.89 39.40 95.52 38.45 95.52L36.26 95.52L36.26 92.47L38.45 92.47C39.40 92.47 40.06 93.08 40.06 93.99ZM47.48 95.75C47.48 94.15 46.31 93.56 44.96 93.56C44.11 93.56 43.17 93.84 42.57 94.44C42.49 94.53 42.45 94.63 42.45 94.73C42.45 95.01 42.70 95.19 42.93 95.19C43.02 95.19 43.13 95.15 43.22 95.09C43.69 94.72 44.21 94.54 44.79 94.54C45.67 94.54 46.32 95.01 46.32 95.80L46.32 96.15L44.52 96.15C43.22 96.15 42.07 96.66 42.07 98.08C42.07 99.45 43.22 100.16 44.26 100.16C45.23 100.16 45.82 99.86 46.32 99.30L46.32 99.51C46.32 99.88 46.62 100.08 46.86 100.08L46.90 100.08C47.22 100.08 47.48 99.82 47.48 99.51ZM46.32 96.96L46.32 97.84C46.32 98.58 45.48 99.34 44.57 99.34C43.72 99.34 43.24 98.83 43.24 98.10C43.24 97.35 43.84 96.96 44.83 96.96ZM54.35 99.05C54.35 98.75 54.07 98.54 53.80 98.54C53.67 98.54 53.54 98.58 53.44 98.66C53.08 98.97 52.68 99.13 52.21 99.13C50.97 99.13 50.16 98.17 50.16 96.85C50.16 95.54 50.97 94.59 52.21 94.59C52.67 94.59 53.08 94.73 53.44 95.05C53.54 95.14 53.67 95.19 53.80 95.19C54.09 95.19 54.33 94.96 54.33 94.67C54.33 94.57 54.31 94.47 54.24 94.40C53.81 93.90 53.11 93.56 52.15 93.56C50.26 93.56 48.96 94.98 48.96 96.85C48.96 98.74 50.26 100.16 52.15 100.16C53.08 100.16 53.72 99.84 54.19 99.39C54.29 99.30 54.35 99.17 54.35 99.05ZM60.92 99.51C60.92 99.39 60.88 99.26 60.81 99.17L58.74 96.57L60.69 94.53C60.78 94.42 60.83 94.31 60.83 94.18C60.83 93.89 60.57 93.63 60.29 93.63C60.16 93.63 60.01 93.69 59.91 93.80L56.95 96.92L56.95 91.81C56.95 91.51 56.69 91.25 56.39 91.25C56.05 91.25 55.79 91.51 55.79 91.81L55.79 99.51C55.79 99.82 56.05 100.08 56.36 100.08C56.69 100.08 56.95 99.82 56.95 99.51L56.95 98.26L57.91 97.28L59.90 99.86C60.00 100.01 60.18 100.09 60.35 100.09C60.70 100.09 60.92 99.78 60.92 99.51ZM67.59 95.75C67.59 94.15 66.42 93.56 65.07 93.56C64.23 93.56 63.28 93.84 62.68 94.44C62.60 94.53 62.56 94.63 62.56 94.73C62.56 95.01 62.81 95.19 63.04 95.19C63.13 95.19 63.24 95.15 63.33 95.09C63.80 94.72 64.32 94.54 64.90 94.54C65.78 94.54 66.44 95.01 66.44 95.80L66.44 96.15L64.63 96.15C63.33 96.15 62.18 96.66 62.18 98.08C62.18 99.45 63.33 100.16 64.37 100.16C65.34 100.16 65.93 99.86 66.44 99.30L66.44 99.51C66.44 99.88 66.73 100.08 66.97 100.08L67.01 100.08C67.33 100.08 67.59 99.82 67.59 99.51ZM66.44 96.96L66.44 97.84C66.44 98.58 65.59 99.34 64.68 99.34C63.84 99.34 63.35 98.83 63.35 98.10C63.35 97.35 63.95 96.96 64.94 96.96ZM75.08 94.20C75.08 93.90 74.82 93.64 74.52 93.64C74.18 93.64 73.92 93.90 73.92 94.20L73.92 94.63C73.42 93.95 72.69 93.56 71.86 93.56C70.23 93.56 69.07 94.79 69.07 96.81C69.07 98.86 70.24 100.05 71.86 100.05C72.71 100.05 73.45 99.60 73.92 98.96L73.92 99.79C73.92 101.13 72.96 101.60 71.99 101.60C71.30 101.60 70.75 101.46 70.27 101.05C70.18 100.99 70.09 100.96 69.97 100.96C69.71 100.96 69.48 101.18 69.48 101.46C69.48 101.59 69.53 101.70 69.61 101.78C70.22 102.37 71.10 102.55 71.99 102.55C73.52 102.55 75.08 101.91 75.08 99.75ZM73.92 96.83C73.92 98.11 73.08 99.03 72.04 99.03C70.87 99.03 70.27 98.10 70.27 96.81C70.27 95.50 70.87 94.59 72.04 94.59C73.08 94.59 73.92 95.49 73.92 96.78ZM82.75 96.65C82.75 96.40 82.69 96.13 82.63 95.92C82.27 94.51 81.23 93.56 79.71 93.56C77.89 93.56 76.58 95.03 76.58 96.85C76.58 98.83 77.94 100.16 79.81 100.16C80.73 100.16 82.35 99.67 82.35 98.97C82.35 98.53 81.91 98.43 81.62 98.57C81.16 98.91 80.46 99.22 79.93 99.22C78.66 99.22 77.88 98.35 77.78 97.27L82.15 97.27C82.48 97.27 82.75 96.96 82.75 96.65ZM77.78 96.41C77.84 95.54 78.45 94.50 79.70 94.50C81.03 94.50 81.61 95.57 81.63 96.41ZM88.83 98.10C88.72 95.89 85.12 96.50 84.99 95.37C84.93 94.86 85.48 94.49 86.27 94.49C86.87 94.49 87.43 94.68 87.83 94.97C87.91 95.03 88.00 95.06 88.11 95.06C88.34 95.06 88.56 94.86 88.56 94.61C88.56 94.50 88.52 94.40 88.44 94.32C87.95 93.84 87.16 93.56 86.26 93.56C84.73 93.56 83.80 94.29 83.87 95.41C83.99 97.52 87.57 96.87 87.70 98.26C87.76 98.83 87.24 99.23 86.34 99.23C85.69 99.23 85.04 98.97 84.57 98.64C84.48 98.57 84.39 98.54 84.27 98.54C84.00 98.54 83.76 98.75 83.76 99.03C83.76 99.16 83.82 99.26 83.91 99.34C84.48 99.91 85.43 100.16 86.29 100.16C87.95 100.16 88.90 99.30 88.83 98.10Z" fill="#22272e" /><path d="M201.20 92.32C201.20 91.73 200.71 91.26 200.13 91.26C199.83 91.26 199.54 91.38 199.34 91.58L197.34 93.60C197.19 93.76 197.11 93.95 197.11 94.15C197.11 94.58 197.47 94.92 197.88 94.92C198.06 94.92 198.24 94.85 198.38 94.71L199.36 93.71L199.36 99.17C199.36 99.66 199.77 100.08 200.27 100.08C200.79 100.08 201.20 99.66 201.20 99.17ZM209.68 95.67C209.68 93.44 208.56 91.20 206.09 91.20C203.61 91.20 202.50 93.44 202.50 95.67C202.50 97.91 203.61 100.16 206.09 100.16C208.56 100.16 209.68 97.91 209.68 95.67ZM207.79 95.67C207.79 97.27 207.33 98.52 206.09 98.52C204.84 98.52 204.38 97.27 204.38 95.67C204.38 94.07 204.84 92.84 206.09 92.84C207.33 92.84 207.79 94.07 207.79 95.67ZM217.54 97.62C217.54 96.44 216.84 95.76 216.32 95.53C216.76 95.32 217.40 94.83 217.40 93.49C217.40 91.99 215.79 91.20 214.06 91.20C212.32 91.20 210.72 91.99 210.72 93.49C210.72 94.83 211.34 95.32 211.79 95.53C211.27 95.76 210.58 96.44 210.58 97.62C210.58 99.25 212.24 100.16 214.06 100.16C215.88 100.16 217.54 99.23 217.54 97.62ZM215.52 93.77C215.52 94.42 214.85 94.80 214.06 94.80C213.27 94.80 212.59 94.42 212.59 93.77C212.59 93.15 213.20 92.78 214.06 92.78C214.91 92.78 215.52 93.15 215.52 93.77ZM215.67 97.52C215.67 98.15 214.94 98.57 214.06 98.57C213.15 98.57 212.45 98.15 212.45 97.52C212.45 96.79 213.25 96.36 214.06 96.36C214.85 96.36 215.67 96.79 215.67 97.52Z" fill="#627386" /></g><g aria-label="Organizations: 8"><circle cx="22" cy="118" r="4" fill="#2c96f2" /><path d="M43.33 117.67C43.33 115.10 41.54 113.19 38.97 113.19C36.38 113.19 34.60 115.10 34.60 117.67C34.60 120.25 36.38 122.16 38.97 122.16C41.54 122.16 43.33 120.25 43.33 117.67ZM42.01 117.67C42.01 119.58 40.81 121.01 38.97 121.01C37.11 121.01 35.94 119.58 35.94 117.67C35.94 115.75 37.11 114.33 38.97 114.33C40.81 114.33 42.01 115.75 42.01 117.67ZM48.18 116.15C48.18 115.85 47.96 115.63 47.66 115.63C46.96 115.63 46.39 116.22 46.04 116.70L46.04 116.20C46.04 115.90 45.78 115.64 45.48 115.64C45.14 115.64 44.88 115.90 44.88 116.20L44.88 121.51C44.88 121.82 45.13 122.06 45.44 122.08L45.45 122.08C45.78 122.08 46.04 121.82 46.04 121.51L46.04 118.28C46.04 117.46 46.61 116.81 47.60 116.76C47.92 116.75 48.18 116.49 48.18 116.15ZM54.90 116.20C54.90 115.90 54.64 115.64 54.34 115.64C54.01 115.64 53.75 115.90 53.75 116.20L53.75 116.63C53.24 115.95 52.51 115.56 51.68 115.56C50.05 115.56 48.90 116.79 48.90 118.81C48.90 120.86 50.07 122.05 51.68 122.05C52.54 122.05 53.28 121.60 53.75 120.96L53.75 121.79C53.75 123.13 52.78 123.60 51.81 123.60C51.12 123.60 50.57 123.46 50.09 123.05C50.00 122.99 49.91 122.96 49.80 122.96C49.53 122.96 49.30 123.18 49.30 123.46C49.30 123.59 49.35 123.70 49.43 123.78C50.04 124.37 50.93 124.55 51.81 124.55C53.34 124.55 54.90 123.91 54.90 121.75ZM53.75 118.83C53.75 120.11 52.90 121.03 51.86 121.03C50.69 121.03 50.09 120.10 50.09 118.81C50.09 117.50 50.69 116.59 51.86 116.59C52.90 116.59 53.75 117.49 53.75 118.78ZM61.82 117.75C61.82 116.15 60.65 115.56 59.30 115.56C58.45 115.56 57.50 115.84 56.91 116.44C56.83 116.53 56.79 116.63 56.79 116.73C56.79 117.01 57.04 117.19 57.27 117.19C57.36 117.19 57.46 117.15 57.56 117.09C58.02 116.72 58.54 116.54 59.13 116.54C60.01 116.54 60.66 117.01 60.66 117.80L60.66 118.15L58.86 118.15C57.56 118.15 56.41 118.66 56.41 120.08C56.41 121.45 57.56 122.16 58.60 122.16C59.57 122.16 60.16 121.86 60.66 121.30L60.66 121.51C60.66 121.88 60.96 122.08 61.20 122.08L61.23 122.08C61.56 122.08 61.82 121.82 61.82 121.51ZM60.66 118.96L60.66 119.84C60.66 120.58 59.82 121.34 58.91 121.34C58.06 121.34 57.58 120.83 57.58 120.10C57.58 119.35 58.18 118.96 59.17 118.96ZM69.07 117.97C69.07 116.64 68.11 115.56 66.79 115.56C65.69 115.56 65.13 116.10 64.84 116.61L64.84 116.20C64.84 115.90 64.58 115.64 64.28 115.64C63.94 115.64 63.68 115.90 63.68 116.20L63.68 121.51C63.68 121.82 63.94 122.08 64.25 122.08C64.58 122.08 64.84 121.82 64.84 121.51L64.84 118.49C64.84 117.42 65.41 116.59 66.41 116.59C67.34 116.59 67.92 117.32 67.92 118.36L67.92 121.51C67.92 121.82 68.18 122.08 68.49 122.08C68.81 122.08 69.07 121.82 69.07 121.51ZM71.52 113.39C71.11 113.39 70.78 113.73 70.78 114.15C70.78 114.55 71.11 114.89 71.52 114.89C71.93 114.89 72.26 114.55 72.26 114.15C72.26 113.73 71.93 113.39 71.52 113.39ZM72.10 116.20C72.10 115.90 71.84 115.64 71.54 115.64C71.21 115.64 70.95 115.90 70.95 116.20L70.95 121.51C70.95 121.82 71.21 122.08 71.52 122.08C71.84 122.08 72.10 121.82 72.10 121.51ZM78.63 121.48C78.63 121.22 78.41 121.00 78.15 121.00L75.18 121.00L78.45 116.66C78.52 116.55 78.56 116.42 78.56 116.29C78.56 115.95 78.30 115.72 78.04 115.72L74.09 115.72C73.82 115.72 73.60 115.94 73.60 116.22C73.60 116.51 73.82 116.73 74.09 116.73L76.96 116.73L73.74 121.04C73.66 121.14 73.61 121.27 73.61 121.42C73.61 121.75 73.86 122 74.16 122L78.15 122C78.41 122 78.63 121.78 78.63 121.48ZM85.18 117.75C85.18 116.15 84.01 115.56 82.66 115.56C81.81 115.56 80.86 115.84 80.27 116.44C80.19 116.53 80.15 116.63 80.15 116.73C80.15 117.01 80.40 117.19 80.63 117.19C80.72 117.19 80.83 117.15 80.92 117.09C81.38 116.72 81.90 116.54 82.49 116.54C83.37 116.54 84.02 117.01 84.02 117.80L84.02 118.15L82.22 118.15C80.92 118.15 79.77 118.66 79.77 120.08C79.77 121.45 80.92 122.16 81.96 122.16C82.93 122.16 83.52 121.86 84.02 121.30L84.02 121.51C84.02 121.88 84.32 122.08 84.56 122.08L84.60 122.08C84.92 122.08 85.18 121.82 85.18 121.51ZM84.02 118.96L84.02 119.84C84.02 120.58 83.18 121.34 82.27 121.34C81.42 121.34 80.94 120.83 80.94 120.10C80.94 119.35 81.54 118.96 82.53 118.96ZM89.97 121.55C89.97 121.27 89.76 121.06 89.47 121.06C89.34 121.06 89.19 121.13 89.04 121.13C88.67 121.13 88.43 120.83 88.43 120.35L88.43 116.73L89.29 116.73C89.56 116.73 89.78 116.51 89.78 116.24C89.78 115.94 89.56 115.72 89.29 115.72L88.43 115.72L88.43 114.49C88.43 114.19 88.17 113.93 87.86 113.93C87.52 113.93 87.26 114.19 87.26 114.49L87.26 115.72L86.65 115.72C86.36 115.72 86.14 115.94 86.14 116.22C86.14 116.51 86.36 116.73 86.65 116.73L87.26 116.73L87.26 120.62C87.26 121.61 87.78 122.16 88.77 122.16C89.46 122.16 89.97 121.96 89.97 121.55ZM91.59 113.39C91.19 113.39 90.85 113.73 90.85 114.15C90.85 114.55 91.19 114.89 91.59 114.89C92.01 114.89 92.33 114.55 92.33 114.15C92.33 113.73 92.01 113.39 91.59 113.39ZM92.17 116.20C92.17 115.90 91.91 115.64 91.62 115.64C91.28 115.64 91.02 115.90 91.02 116.20L91.02 121.51C91.02 121.82 91.28 122.08 91.59 122.08C91.91 122.08 92.17 121.82 92.17 121.51ZM100.00 118.85C100.00 117.05 98.79 115.56 96.83 115.56C94.88 115.56 93.67 117.05 93.67 118.85C93.67 120.66 94.88 122.16 96.83 122.16C98.79 122.16 100.00 120.66 100.00 118.85ZM98.79 118.85C98.79 120.06 98.09 121.13 96.83 121.13C95.58 121.13 94.87 120.06 94.87 118.85C94.87 117.66 95.58 116.59 96.83 116.59C98.09 116.59 98.79 117.66 98.79 118.85ZM106.89 117.97C106.89 116.64 105.93 115.56 104.60 115.56C103.51 115.56 102.95 116.10 102.65 116.61L102.65 116.20C102.65 115.90 102.39 115.64 102.09 115.64C101.76 115.64 101.50 115.90 101.50 116.20L101.50 121.51C101.50 121.82 101.76 122.08 102.07 122.08C102.39 122.08 102.65 121.82 102.65 121.51L102.65 118.49C102.65 117.42 103.22 116.59 104.23 116.59C105.16 116.59 105.73 117.32 105.73 118.36L105.73 121.51C105.73 121.82 105.99 122.08 106.31 122.08C106.63 122.08 106.89 121.82 106.89 121.51ZM113.36 120.10C113.25 117.89 109.65 118.50 109.52 117.37C109.46 116.86 110.01 116.49 110.80 116.49C111.40 116.49 111.96 116.68 112.36 116.97C112.44 117.03 112.53 117.06 112.64 117.06C112.87 117.06 113.09 116.86 113.09 116.61C113.09 116.50 113.05 116.40 112.97 116.32C112.48 115.84 111.69 115.56 110.79 115.56C109.26 115.56 108.33 116.29 108.40 117.41C108.52 119.52 112.10 118.87 112.23 120.26C112.29 120.83 111.77 121.23 110.87 121.23C110.22 121.23 109.57 120.97 109.10 120.64C109.01 120.57 108.92 120.54 108.80 120.54C108.53 120.54 108.29 120.75 108.29 121.03C108.29 121.16 108.35 121.26 108.44 121.34C109.01 121.91 109.96 122.16 110.82 122.16C112.48 122.16 113.43 121.30 113.36 120.10Z" fill="#22272e" /><path d="M217.54 119.62C217.54 118.44 216.84 117.76 216.32 117.53C216.76 117.32 217.40 116.83 217.40 115.49C217.40 113.99 215.79 113.20 214.06 113.20C212.32 113.20 210.72 113.99 210.72 115.49C210.72 116.83 211.34 117.32 211.79 117.53C211.27 117.76 210.58 118.44 210.58 119.62C210.58 121.25 212.24 122.16 214.06 122.16C215.88 122.16 217.54 121.23 217.54 119.62ZM215.52 115.77C215.52 116.42 214.85 116.80 214.06 116.80C213.27 116.80 212.59 116.42 212.59 115.77C212.59 115.15 213.20 114.78 214.06 114.78C214.91 114.78 215.52 115.15 215.52 115.77ZM215.67 119.52C215.67 120.15 214.94 120.57 214.06 120.57C213.15 120.57 212.45 120.15 212.45 119.52C212.45 118.79 213.25 118.36 214.06 118.36C214.85 118.36 215.67 118.79 215.67 119.52Z" fill="#627386" /></g><g aria-label="Versions Published: 14,655"><circle cx="22" cy="140" r="4" fill="#00a5fe" /><path d="M42.28 135.93C42.28 135.58 42.00 135.25 41.59 135.25C41.31 135.25 41.06 135.42 40.97 135.68L38.32 142.60L35.68 135.68C35.57 135.41 35.31 135.25 35.05 135.25C34.64 135.25 34.35 135.62 34.35 135.93C34.35 136.02 34.36 136.10 34.40 136.17L37.28 143.39C37.43 143.81 37.85 144.08 38.29 144.08L38.36 144.08C38.78 144.08 39.20 143.81 39.37 143.39L42.24 136.17C42.27 136.10 42.28 136.00 42.28 135.93ZM48.60 140.65C48.60 140.40 48.53 140.13 48.48 139.92C48.12 138.51 47.08 137.56 45.56 137.56C43.74 137.56 42.42 139.03 42.42 140.85C42.42 142.83 43.79 144.16 45.66 144.16C46.58 144.16 48.20 143.68 48.20 142.97C48.20 142.53 47.75 142.43 47.47 142.57C47.01 142.91 46.31 143.22 45.78 143.22C44.50 143.22 43.72 142.35 43.63 141.27L48.00 141.27C48.33 141.27 48.60 140.96 48.60 140.65ZM43.63 140.41C43.69 139.54 44.30 138.50 45.54 138.50C46.88 138.50 47.46 139.57 47.48 140.41ZM53.38 138.15C53.38 137.85 53.16 137.63 52.86 137.63C52.16 137.63 51.59 138.22 51.24 138.70L51.24 138.20C51.24 137.90 50.98 137.64 50.68 137.64C50.34 137.64 50.08 137.90 50.08 138.20L50.08 143.51C50.08 143.82 50.33 144.06 50.64 144.08L50.65 144.08C50.98 144.08 51.24 143.82 51.24 143.51L51.24 140.28C51.24 139.46 51.81 138.81 52.80 138.76C53.12 138.75 53.38 138.49 53.38 138.15ZM59.08 142.10C58.96 139.89 55.36 140.50 55.23 139.37C55.18 138.87 55.72 138.49 56.52 138.49C57.11 138.49 57.67 138.68 58.08 138.97C58.15 139.03 58.25 139.06 58.35 139.06C58.58 139.06 58.80 138.87 58.80 138.60C58.80 138.50 58.77 138.40 58.69 138.32C58.19 137.84 57.40 137.56 56.50 137.56C54.97 137.56 54.05 138.29 54.11 139.41C54.23 141.52 57.82 140.87 57.95 142.26C58.00 142.83 57.48 143.23 56.58 143.23C55.93 143.23 55.28 142.97 54.81 142.63C54.72 142.57 54.63 142.54 54.51 142.54C54.24 142.54 54.01 142.75 54.01 143.03C54.01 143.16 54.06 143.26 54.15 143.34C54.72 143.91 55.67 144.16 56.53 144.16C58.19 144.16 59.14 143.30 59.08 142.10ZM61.13 135.39C60.73 135.39 60.39 135.73 60.39 136.15C60.39 136.55 60.73 136.89 61.13 136.89C61.55 136.89 61.87 136.55 61.87 136.15C61.87 135.73 61.55 135.39 61.13 135.39ZM61.72 138.20C61.72 137.90 61.46 137.64 61.16 137.64C60.82 137.64 60.56 137.90 60.56 138.20L60.56 143.51C60.56 143.82 60.82 144.08 61.13 144.08C61.46 144.08 61.72 143.82 61.72 143.51ZM69.54 140.85C69.54 139.05 68.33 137.56 66.37 137.56C64.42 137.56 63.21 139.05 63.21 140.85C63.21 142.66 64.42 144.16 66.37 144.16C68.33 144.16 69.54 142.66 69.54 140.85ZM68.33 140.85C68.33 142.06 67.63 143.13 66.37 143.13C65.12 143.13 64.41 142.06 64.41 140.85C64.41 139.66 65.12 138.59 66.37 138.59C67.63 138.59 68.33 139.66 68.33 140.85ZM76.43 139.97C76.43 138.64 75.47 137.56 74.14 137.56C73.05 137.56 72.49 138.10 72.19 138.60L72.19 138.20C72.19 137.90 71.93 137.64 71.64 137.64C71.30 137.64 71.04 137.90 71.04 138.20L71.04 143.51C71.04 143.82 71.30 144.08 71.61 144.08C71.93 144.08 72.19 143.82 72.19 143.51L72.19 140.49C72.19 139.42 72.77 138.59 73.77 138.59C74.70 138.59 75.28 139.32 75.28 140.36L75.28 143.51C75.28 143.82 75.54 144.08 75.85 144.08C76.17 144.08 76.43 143.82 76.43 143.51ZM82.91 142.10C82.79 139.89 79.19 140.50 79.06 139.37C79.01 138.87 79.55 138.49 80.35 138.49C80.94 138.49 81.50 138.68 81.91 138.97C81.98 139.03 82.07 139.06 82.18 139.06C82.41 139.06 82.63 138.87 82.63 138.60C82.63 138.50 82.59 138.40 82.52 138.32C82.02 137.84 81.23 137.56 80.33 137.56C78.80 137.56 77.88 138.29 77.94 139.41C78.06 141.52 81.65 140.87 81.78 142.26C81.83 142.83 81.31 143.23 80.41 143.23C79.76 143.23 79.11 142.97 78.64 142.63C78.55 142.57 78.46 142.54 78.34 142.54C78.07 142.54 77.84 142.75 77.84 143.03C77.84 143.16 77.89 143.26 77.98 143.34C78.55 143.91 79.50 144.16 80.36 144.16C82.02 144.16 82.97 143.30 82.91 142.10ZM94.18 137.99C94.18 136.55 93.19 135.33 91.41 135.33L88.61 135.33C88.15 135.33 87.77 135.71 87.77 136.17L87.77 143.44C87.77 143.79 88.05 144.08 88.41 144.08C88.77 144.08 89.06 143.79 89.06 143.44L89.06 140.66L91.41 140.66C93.16 140.66 94.18 139.44 94.18 137.99ZM92.85 137.99C92.85 138.89 92.19 139.51 91.24 139.51L89.06 139.51L89.06 136.47L91.24 136.47C92.19 136.47 92.85 137.08 92.85 137.99ZM100.90 138.20C100.90 137.90 100.64 137.64 100.34 137.64C100.00 137.64 99.74 137.90 99.74 138.20L99.74 141.19C99.74 142.26 99.06 143.13 98.13 143.13C97.19 143.13 96.66 142.41 96.66 141.37L96.66 138.20C96.66 137.90 96.40 137.64 96.10 137.64C95.76 137.64 95.50 137.90 95.50 138.20L95.50 141.78C95.50 143.10 96.44 144.16 97.77 144.16C98.86 144.16 99.40 143.68 99.74 143.14L99.74 143.51C99.74 143.82 100.00 144.08 100.31 144.08C100.64 144.08 100.90 143.82 100.90 143.51ZM108.78 140.87C108.78 138.85 107.74 137.56 106.11 137.56C105.15 137.56 104.42 137.96 103.91 138.63L103.91 135.81C103.91 135.51 103.65 135.25 103.36 135.25C103.02 135.25 102.76 135.51 102.76 135.81L102.76 143.51C102.76 143.82 103.02 144.08 103.33 144.08C103.65 144.08 103.91 143.82 103.91 143.51L103.91 143.10C104.38 143.73 105.14 144.16 105.98 144.16C107.61 144.16 108.78 142.92 108.78 140.87ZM107.57 140.87C107.57 142.18 106.98 143.13 105.79 143.13C104.95 143.13 103.91 142.22 103.91 140.92L103.91 140.83C103.91 139.54 104.69 138.59 105.79 138.59C106.98 138.59 107.57 139.55 107.57 140.87ZM111.43 135.81C111.43 135.51 111.17 135.25 110.87 135.25C110.53 135.25 110.27 135.51 110.27 135.81L110.27 143.51C110.27 143.82 110.53 144.08 110.84 144.08C111.17 144.08 111.43 143.82 111.43 143.51ZM113.87 135.39C113.47 135.39 113.13 135.73 113.13 136.15C113.13 136.55 113.47 136.89 113.87 136.89C114.29 136.89 114.61 136.55 114.61 136.15C114.61 135.73 114.29 135.39 113.87 135.39ZM114.46 138.20C114.46 137.90 114.20 137.64 113.90 137.64C113.56 137.64 113.30 137.90 113.30 138.20L113.30 143.51C113.30 143.82 113.56 144.08 113.87 144.08C114.20 144.08 114.46 143.82 114.46 143.51ZM120.93 142.10C120.81 139.89 117.21 140.50 117.08 139.37C117.03 138.87 117.58 138.49 118.37 138.49C118.97 138.49 119.53 138.68 119.93 138.97C120.01 139.03 120.10 139.06 120.20 139.06C120.44 139.06 120.66 138.87 120.66 138.60C120.66 138.50 120.62 138.40 120.54 138.32C120.05 137.84 119.25 137.56 118.36 137.56C116.82 137.56 115.90 138.29 115.96 139.41C116.08 141.52 119.67 140.87 119.80 142.26C119.85 142.83 119.33 143.23 118.43 143.23C117.78 143.23 117.13 142.97 116.67 142.63C116.58 142.57 116.48 142.54 116.37 142.54C116.09 142.54 115.86 142.75 115.86 143.03C115.86 143.16 115.91 143.26 116.00 143.34C116.58 143.91 117.52 144.16 118.38 144.16C120.05 144.16 121.00 143.30 120.93 142.10ZM127.82 139.94C127.82 138.62 126.87 137.56 125.55 137.56C124.44 137.56 123.87 138.10 123.57 138.60L123.57 135.81C123.57 135.51 123.31 135.25 123.01 135.25C122.67 135.25 122.41 135.51 122.41 135.81L122.41 143.51C122.41 143.82 122.67 144.08 122.98 144.08C123.31 144.08 123.57 143.82 123.57 143.51L123.57 140.56C123.57 139.38 124.19 138.59 125.18 138.59C126.12 138.59 126.66 139.29 126.66 140.33L126.66 143.51C126.66 143.82 126.92 144.08 127.24 144.08C127.56 144.08 127.82 143.82 127.82 143.51ZM135.49 140.65C135.49 140.40 135.43 140.13 135.37 139.92C135.01 138.51 133.97 137.56 132.45 137.56C130.63 137.56 129.32 139.03 129.32 140.85C129.32 142.83 130.68 144.16 132.55 144.16C133.48 144.16 135.09 143.68 135.09 142.97C135.09 142.53 134.65 142.43 134.36 142.57C133.90 142.91 133.20 143.22 132.67 143.22C131.40 143.22 130.62 142.35 130.52 141.27L134.89 141.27C135.22 141.27 135.49 140.96 135.49 140.65ZM130.52 140.41C130.58 139.54 131.19 138.50 132.44 138.50C133.77 138.50 134.35 139.57 134.37 140.41ZM142.61 135.81C142.61 135.51 142.35 135.25 142.06 135.25C141.72 135.25 141.46 135.51 141.46 135.81L141.46 138.63C140.95 137.96 140.34 137.56 139.39 137.56C137.75 137.56 136.60 138.85 136.60 140.87C136.60 142.92 137.77 144.16 139.39 144.16C140.37 144.16 140.98 143.73 141.46 143.10L141.46 143.51C141.46 143.82 141.72 144.08 142.03 144.08C142.35 144.08 142.61 143.82 142.61 143.51ZM141.46 140.91C141.46 142.21 140.81 143.13 139.69 143.13C138.52 143.13 137.79 142.18 137.79 140.87C137.79 139.55 138.52 138.59 139.69 138.59C140.81 138.59 141.46 139.54 141.46 140.83Z" fill="#22272e" /><path d="M182.61 136.32C182.61 135.73 182.12 135.26 181.53 135.26C181.24 135.26 180.95 135.38 180.75 135.58L178.75 137.60C178.60 137.76 178.52 137.96 178.52 138.15C178.52 138.58 178.88 138.92 179.29 138.92C179.47 138.92 179.65 138.85 179.79 138.71L180.77 137.71L180.77 143.17C180.77 143.66 181.18 144.08 181.68 144.08C182.20 144.08 182.61 143.66 182.61 143.17ZM190.99 141.40C190.99 140.94 190.62 140.58 190.19 140.58L189.79 140.58L189.79 136.29C189.79 135.49 189.01 135.12 188.22 135.25C187.66 135.25 187.10 135.55 186.80 136.02L183.90 140.59C183.78 140.78 183.73 140.98 183.73 141.19C183.73 141.78 184.16 142.21 184.68 142.21L187.94 142.21L187.94 143.17C187.94 143.66 188.36 144.08 188.85 144.08C189.37 144.08 189.79 143.66 189.79 143.17L189.79 142.21L190.19 142.21C190.62 142.21 190.99 141.84 190.99 141.40ZM185.60 140.58L187.94 136.97L187.94 140.58ZM194.03 143.36C194.03 142.52 193.47 142.04 192.86 142.04C192.31 142.04 191.84 142.50 191.84 143.08C191.84 143.64 192.23 144.01 192.73 144.01C192.82 144.01 192.94 143.99 192.97 143.97C192.90 144.31 192.61 144.72 192.27 144.99C192.18 145.07 192.14 145.17 192.14 145.27C192.14 145.53 192.42 145.69 192.64 145.69C192.77 145.69 192.88 145.65 192.97 145.56C193.62 144.97 194.03 144.19 194.03 143.36ZM201.79 141.18C201.79 139.33 200.40 138.36 198.84 138.36C197.76 138.36 196.95 138.89 196.61 139.48C196.60 139.41 196.60 139.36 196.60 139.29C196.60 137.92 197.50 136.84 198.77 136.84C199.21 136.84 199.58 136.91 199.90 137.08C200.02 137.15 200.15 137.18 200.28 137.18C200.68 137.18 201.13 136.86 201.13 136.37C201.13 136.24 201.09 136.12 201.03 136.02C200.71 135.45 199.62 135.20 198.77 135.20C196.21 135.20 194.73 137.06 194.73 139.68C194.73 142.13 195.83 144.16 198.47 144.16C200.45 144.16 201.79 142.87 201.79 141.18ZM199.92 141.24C199.92 141.89 199.44 142.52 198.43 142.52C197.62 142.52 197.00 141.96 197.00 141.15C197.00 140.37 197.63 139.81 198.43 139.81C199.27 139.81 199.92 140.37 199.92 141.24ZM209.64 141.15C209.64 139.40 208.33 138.34 206.86 138.34C206.07 138.34 205.36 138.66 204.95 139.07L204.95 136.95L208.34 136.95C208.77 136.95 209.13 136.59 209.13 136.15C209.13 135.69 208.77 135.33 208.34 135.33L204.14 135.33C203.57 135.33 203.10 135.80 203.10 136.37L203.10 139.70C203.10 140.20 203.47 140.58 204.04 140.58C204.30 140.58 204.54 140.50 204.75 140.36C205.22 140.05 205.68 139.94 206.21 139.94C207.20 139.94 207.77 140.46 207.77 141.23C207.77 141.93 207.18 142.52 206.16 142.52C205.53 142.52 204.93 142.35 204.43 142.04C204.27 141.95 204.10 141.89 203.95 141.89C203.49 141.89 203.06 142.25 203.06 142.73C203.06 142.86 203.10 142.99 203.17 143.10C203.57 143.78 205.04 144.16 206.17 144.16C208.26 144.16 209.64 143.00 209.64 141.15ZM217.54 141.15C217.54 139.40 216.23 138.34 214.76 138.34C213.97 138.34 213.27 138.66 212.85 139.07L212.85 136.95L216.24 136.95C216.67 136.95 217.04 136.59 217.04 136.15C217.04 135.69 216.67 135.33 216.24 135.33L212.05 135.33C211.47 135.33 211.01 135.80 211.01 136.37L211.01 139.70C211.01 140.20 211.37 140.58 211.94 140.58C212.20 140.58 212.45 140.50 212.66 140.36C213.12 140.05 213.58 139.94 214.11 139.94C215.10 139.94 215.67 140.46 215.67 141.23C215.67 141.93 215.09 142.52 214.06 142.52C213.44 142.52 212.84 142.35 212.33 142.04C212.18 141.95 212.01 141.89 211.85 141.89C211.40 141.89 210.97 142.25 210.97 142.73C210.97 142.86 211.01 142.99 211.07 143.10C211.47 143.78 212.94 144.16 214.07 144.16C216.17 144.16 217.54 143.00 217.54 141.15Z" fill="#627386" /></g><g aria-label="This Week: 22,661,241"><circle cx="22" cy="162" r="4" fill="#00d559" /><path d="M41.14 157.91C41.14 157.58 40.89 157.33 40.58 157.33L34.87 157.33C34.56 157.33 34.31 157.58 34.31 157.89C34.31 158.21 34.56 158.47 34.87 158.47L37.08 158.47L37.08 165.44C37.08 165.79 37.37 166.08 37.72 166.08C38.08 166.08 38.37 165.79 38.37 165.44L38.37 158.47L40.58 158.47C40.89 158.47 41.14 158.21 41.14 157.91ZM47.79 161.94C47.79 160.62 46.84 159.56 45.52 159.56C44.41 159.56 43.84 160.10 43.54 160.60L43.54 157.81C43.54 157.51 43.28 157.25 42.98 157.25C42.64 157.25 42.38 157.51 42.38 157.81L42.38 165.51C42.38 165.82 42.64 166.08 42.96 166.08C43.28 166.08 43.54 165.82 43.54 165.51L43.54 162.56C43.54 161.38 44.17 160.59 45.15 160.59C46.09 160.59 46.64 161.29 46.64 162.33L46.64 165.51C46.64 165.82 46.90 166.08 47.21 166.08C47.53 166.08 47.79 165.82 47.79 165.51ZM50.24 157.39C49.83 157.39 49.50 157.73 49.50 158.15C49.50 158.55 49.83 158.89 50.24 158.89C50.65 158.89 50.98 158.55 50.98 158.15C50.98 157.73 50.65 157.39 50.24 157.39ZM50.82 160.20C50.82 159.90 50.56 159.64 50.26 159.64C49.92 159.64 49.66 159.90 49.66 160.20L49.66 165.51C49.66 165.82 49.92 166.08 50.24 166.08C50.56 166.08 50.82 165.82 50.82 165.51ZM57.30 164.10C57.18 161.89 53.58 162.50 53.45 161.37C53.40 160.87 53.94 160.49 54.73 160.49C55.33 160.49 55.89 160.68 56.30 160.97C56.37 161.03 56.46 161.06 56.57 161.06C56.80 161.06 57.02 160.87 57.02 160.60C57.02 160.50 56.98 160.40 56.91 160.32C56.41 159.84 55.62 159.56 54.72 159.56C53.19 159.56 52.27 160.29 52.33 161.41C52.45 163.52 56.04 162.87 56.17 164.26C56.22 164.83 55.70 165.23 54.80 165.23C54.15 165.23 53.50 164.97 53.03 164.63C52.94 164.57 52.85 164.54 52.73 164.54C52.46 164.54 52.23 164.75 52.23 165.03C52.23 165.16 52.28 165.26 52.37 165.34C52.94 165.91 53.89 166.16 54.75 166.16C56.41 166.16 57.36 165.30 57.30 164.10ZM72.45 157.89C72.45 157.54 72.17 157.24 71.77 157.24C71.45 157.24 71.17 157.45 71.10 157.75L69.40 164.30L67.62 157.73C67.54 157.45 67.28 157.25 66.99 157.25C66.68 157.25 66.42 157.45 66.36 157.73L64.56 164.30L62.86 157.75C62.78 157.43 62.48 157.22 62.18 157.22C61.77 157.22 61.51 157.55 61.51 157.89C61.51 157.95 61.52 158.00 61.53 158.07L63.64 165.45C63.73 165.82 64.06 166.08 64.46 166.08L64.49 166.08C64.88 166.08 65.21 165.82 65.32 165.44L66.98 159.29L68.63 165.44C68.72 165.81 69.06 166.08 69.45 166.08L69.48 166.08C69.87 166.08 70.22 165.82 70.32 165.44L72.43 158.07C72.44 158.02 72.45 157.95 72.45 157.89ZM78.99 162.65C78.99 162.40 78.93 162.13 78.88 161.92C78.51 160.51 77.47 159.56 75.95 159.56C74.13 159.56 72.82 161.03 72.82 162.85C72.82 164.83 74.18 166.16 76.06 166.16C76.98 166.16 78.59 165.68 78.59 164.97C78.59 164.53 78.15 164.43 77.86 164.57C77.41 164.91 76.71 165.22 76.17 165.22C74.90 165.22 74.12 164.35 74.03 163.27L78.40 163.27C78.72 163.27 78.99 162.96 78.99 162.65ZM74.03 162.41C74.08 161.54 74.69 160.50 75.94 160.50C77.28 160.50 77.85 161.57 77.88 162.41ZM86.27 162.65C86.27 162.40 86.21 162.13 86.16 161.92C85.79 160.51 84.75 159.56 83.23 159.56C81.41 159.56 80.10 161.03 80.10 162.85C80.10 164.83 81.46 166.16 83.34 166.16C84.26 166.16 85.87 165.68 85.87 164.97C85.87 164.53 85.43 164.43 85.14 164.57C84.69 164.91 83.99 165.22 83.45 165.22C82.18 165.22 81.40 164.35 81.31 163.27L85.68 163.27C86.00 163.27 86.27 162.96 86.27 162.65ZM81.31 162.41C81.36 161.54 81.97 160.50 83.22 160.50C84.56 160.50 85.13 161.57 85.16 162.41ZM92.89 165.51C92.89 165.39 92.85 165.26 92.77 165.17L90.71 162.57L92.66 160.53C92.75 160.42 92.80 160.31 92.80 160.18C92.80 159.89 92.54 159.63 92.25 159.63C92.12 159.63 91.98 159.69 91.88 159.80L88.91 162.92L88.91 157.81C88.91 157.51 88.65 157.25 88.35 157.25C88.02 157.25 87.76 157.51 87.76 157.81L87.76 165.51C87.76 165.82 88.02 166.08 88.33 166.08C88.65 166.08 88.91 165.82 88.91 165.51L88.91 164.26L89.87 163.28L91.86 165.86C91.97 166.01 92.15 166.09 92.32 166.09C92.67 166.09 92.89 165.78 92.89 165.51Z" fill="#22272e" /><path d="M161.18 165.17C161.18 164.74 160.81 164.38 160.38 164.38L157.56 164.38C159.81 162.74 161.03 161.45 161.03 159.97C161.03 158.24 159.56 157.20 157.72 157.20C156.63 157.20 155.17 157.67 154.75 158.33C154.68 158.45 154.64 158.58 154.64 158.71C154.64 159.18 155.01 159.54 155.44 159.54C155.64 159.54 155.81 159.49 155.98 159.37C156.47 159.03 157.07 158.84 157.76 158.84C158.47 158.84 159.16 159.21 159.16 159.97C159.16 160.98 158.12 161.93 154.88 164.32C154.64 164.50 154.49 164.80 154.49 165.10C154.49 165.62 154.91 166 155.37 166L160.38 166C160.81 166 161.18 165.64 161.18 165.17ZM168.98 165.17C168.98 164.74 168.61 164.38 168.18 164.38L165.36 164.38C167.61 162.74 168.83 161.45 168.83 159.97C168.83 158.24 167.37 157.20 165.52 157.20C164.43 157.20 162.97 157.67 162.56 158.33C162.48 158.45 162.44 158.58 162.44 158.71C162.44 159.18 162.81 159.54 163.24 159.54C163.44 159.54 163.61 159.49 163.78 159.37C164.27 159.03 164.87 158.84 165.56 158.84C166.27 158.84 166.96 159.21 166.96 159.97C166.96 160.98 165.92 161.93 162.69 164.32C162.44 164.50 162.29 164.80 162.29 165.10C162.29 165.62 162.71 166 163.17 166L168.18 166C168.61 166 168.98 165.64 168.98 165.17ZM172.36 165.36C172.36 164.52 171.80 164.04 171.19 164.04C170.64 164.04 170.17 164.50 170.17 165.08C170.17 165.64 170.56 166.01 171.06 166.01C171.15 166.01 171.27 165.99 171.30 165.97C171.23 166.31 170.94 166.72 170.60 166.99C170.51 167.07 170.47 167.17 170.47 167.27C170.47 167.53 170.75 167.69 170.97 167.69C171.10 167.69 171.21 167.65 171.30 167.56C171.95 166.97 172.36 166.19 172.36 165.36ZM180.12 163.18C180.12 161.33 178.73 160.36 177.17 160.36C176.09 160.36 175.28 160.89 174.94 161.48C174.93 161.41 174.93 161.36 174.93 161.29C174.93 159.92 175.83 158.84 177.10 158.84C177.54 158.84 177.91 158.91 178.23 159.08C178.35 159.15 178.48 159.18 178.61 159.18C179.01 159.18 179.46 158.86 179.46 158.37C179.46 158.24 179.42 158.12 179.36 158.02C179.04 157.45 177.95 157.20 177.10 157.20C174.54 157.20 173.06 159.06 173.06 161.68C173.06 164.13 174.16 166.16 176.80 166.16C178.78 166.16 180.12 164.87 180.12 163.18ZM178.25 163.24C178.25 163.89 177.77 164.52 176.76 164.52C175.95 164.52 175.33 163.96 175.33 163.15C175.33 162.37 175.96 161.81 176.76 161.81C177.60 161.81 178.25 162.37 178.25 163.24ZM188.02 163.18C188.02 161.33 186.63 160.36 185.07 160.36C183.99 160.36 183.19 160.89 182.85 161.48C182.84 161.41 182.84 161.36 182.84 161.29C182.84 159.92 183.73 158.84 185.01 158.84C185.45 158.84 185.81 158.91 186.14 159.08C186.25 159.15 186.38 159.18 186.51 159.18C186.92 159.18 187.36 158.86 187.36 158.37C187.36 158.24 187.32 158.12 187.27 158.02C186.94 157.45 185.85 157.20 185.01 157.20C182.45 157.20 180.96 159.06 180.96 161.68C180.96 164.13 182.07 166.16 184.71 166.16C186.68 166.16 188.02 164.87 188.02 163.18ZM186.15 163.24C186.15 163.89 185.67 164.52 184.67 164.52C183.85 164.52 183.24 163.96 183.24 163.15C183.24 162.37 183.86 161.81 184.67 161.81C185.50 161.81 186.15 162.37 186.15 163.24ZM192.91 158.32C192.91 157.73 192.42 157.26 191.83 157.26C191.53 157.26 191.25 157.38 191.05 157.58L189.05 159.60C188.89 159.76 188.81 159.96 188.81 160.15C188.81 160.58 189.18 160.92 189.58 160.92C189.76 160.92 189.95 160.85 190.09 160.71L191.06 159.71L191.06 165.17C191.06 165.66 191.48 166.08 191.97 166.08C192.49 166.08 192.91 165.66 192.91 165.17ZM196.56 165.36C196.56 164.52 196.00 164.04 195.39 164.04C194.85 164.04 194.38 164.50 194.38 165.08C194.38 165.64 194.77 166.01 195.26 166.01C195.35 166.01 195.47 165.99 195.51 165.97C195.43 166.31 195.15 166.72 194.81 166.99C194.72 167.07 194.68 167.17 194.68 167.27C194.68 167.53 194.95 167.69 195.17 167.69C195.30 167.69 195.42 167.65 195.51 167.56C196.16 166.97 196.56 166.19 196.56 165.36ZM204.31 165.17C204.31 164.74 203.95 164.38 203.52 164.38L200.70 164.38C202.95 162.74 204.17 161.45 204.17 159.97C204.17 158.24 202.70 157.20 200.85 157.20C199.76 157.20 198.31 157.67 197.89 158.33C197.81 158.45 197.77 158.58 197.77 158.71C197.77 159.18 198.15 159.54 198.58 159.54C198.77 159.54 198.94 159.49 199.11 159.37C199.61 159.03 200.20 158.84 200.89 158.84C201.61 158.84 202.30 159.21 202.30 159.97C202.30 160.98 201.26 161.93 198.02 164.32C197.77 164.50 197.63 164.80 197.63 165.10C197.63 165.62 198.05 166 198.50 166L203.52 166C203.95 166 204.31 165.64 204.31 165.17ZM212.41 163.40C212.41 162.94 212.05 162.58 211.62 162.58L211.21 162.58L211.21 158.29C211.21 157.49 210.43 157.12 209.64 157.25C209.08 157.25 208.52 157.55 208.22 158.02L205.33 162.59C205.21 162.78 205.16 162.98 205.16 163.19C205.16 163.78 205.59 164.21 206.11 164.21L209.37 164.21L209.37 165.17C209.37 165.66 209.78 166.08 210.28 166.08C210.80 166.08 211.21 165.66 211.21 165.17L211.21 164.21L211.62 164.21C212.05 164.21 212.41 163.84 212.41 163.40ZM207.03 162.58L209.37 158.97L209.37 162.58ZM217.14 158.32C217.14 157.73 216.65 157.26 216.06 157.26C215.76 157.26 215.48 157.38 215.28 157.58L213.28 159.60C213.13 159.76 213.05 159.96 213.05 160.15C213.05 160.58 213.41 160.92 213.81 160.92C214.00 160.92 214.18 160.85 214.32 160.71L215.30 159.71L215.30 165.17C215.30 165.66 215.71 166.08 216.21 166.08C216.73 166.08 217.14 165.66 217.14 165.17Z" fill="#627386" /></g></svg>