<svg xmlns="http://www.w3.org/2000/svg" width="420" height="184" viewBox="0 0 420 184" role="img"><rect x="0.5" y="0.5" width="419" height="183" rx="10" fill="#ffffff" stroke="#f2f4f6" /><path d="M30.21 36.59C30.21 35.87 29.59 35.25 28.87 35.25L24.09 35.25C27.90 32.48 29.97 30.30 29.97 27.79C29.97 24.87 27.48 23.11 24.36 23.11C22.51 23.11 20.05 23.90 19.34 25.02C19.21 25.22 19.14 25.44 19.14 25.66C19.14 26.45 19.78 27.07 20.51 27.07C20.84 27.07 21.12 26.98 21.41 26.78C22.25 26.21 23.26 25.88 24.42 25.88C25.63 25.88 26.80 26.52 26.80 27.79C26.80 29.51 25.04 31.11 19.56 35.16C19.14 35.47 18.90 35.98 18.90 36.48C18.90 37.36 19.61 38 20.38 38L28.87 38C29.59 38 30.21 37.38 30.21 36.59ZM35.93 36.92C35.93 35.49 34.98 34.68 33.95 34.68C33.03 34.68 32.23 35.47 32.23 36.44C32.23 37.38 32.89 38.02 33.73 38.02C33.88 38.02 34.08 37.98 34.15 37.96C34.02 38.53 33.53 39.21 32.96 39.67C32.81 39.80 32.74 39.98 32.74 40.16C32.74 40.60 33.20 40.86 33.58 40.86C33.80 40.86 33.99 40.79 34.15 40.64C35.25 39.65 35.93 38.33 35.93 36.92ZM49.04 36.59C49.04 35.87 48.43 35.25 47.70 35.25L42.93 35.25C46.73 32.48 48.80 30.30 48.80 27.79C48.80 24.87 46.31 23.11 43.19 23.11C41.34 23.11 38.88 23.90 38.17 25.02C38.04 25.22 37.98 25.44 37.98 25.66C37.98 26.45 38.61 27.07 39.34 27.07C39.67 27.07 39.96 26.98 40.24 26.78C41.08 26.21 42.09 25.88 43.26 25.88C44.47 25.88 45.63 26.52 45.63 27.79C45.63 29.51 43.87 31.11 38.39 35.16C37.98 35.47 37.73 35.98 37.73 36.48C37.73 37.36 38.44 38 39.21 38L47.70 38C48.43 38 49.04 37.38 49.04 36.59ZM61.98 34.00C62.15 31.36 60.37 30.43 60.37 30.43C60.37 30.43 62 29.60 61.82 27.09C61.65 24.65 59.71 23.11 56.28 23.11C54.26 23.11 52.67 23.70 51.46 24.67C51.15 24.91 51 25.26 51 25.61C51 26.38 51.68 26.93 52.36 26.93C52.63 26.93 52.89 26.87 53.11 26.71C53.97 26.16 54.94 25.88 55.95 25.88C57.49 25.88 58.68 26.23 58.68 27.40C58.68 28.61 57.95 29.18 56.48 29.18C55.42 29.18 54.96 29.77 54.96 30.54C54.96 31.31 55.42 31.93 56.57 31.93C58.06 31.93 58.92 32.46 58.92 33.62C58.92 34.72 57.93 35.49 56.15 35.49C55.14 35.49 53.97 35.14 53.00 34.57C52.76 34.41 52.50 34.35 52.23 34.35C51.51 34.35 50.80 34.94 50.80 35.73C50.80 35.95 50.87 36.15 50.98 36.33C51.66 37.47 54.15 38.26 56.26 38.26C59.78 38.26 61.80 36.75 61.98 34.00ZM74.63 24.91C74.63 23.99 73.88 23.33 73.11 23.33L64.71 23.33C63.96 23.33 63.34 23.94 63.34 24.67C63.34 25.46 63.96 26.08 64.71 26.08L70.87 26.08L66.49 36.00C66.40 36.20 66.36 36.39 66.36 36.59C66.36 37.38 66.99 38.13 67.92 38.13C68.56 38.13 69.15 37.76 69.39 37.19L74.50 25.53C74.58 25.35 74.63 25.13 74.63 24.91ZM77.60 36.92C77.60 35.49 76.65 34.68 75.62 34.68C74.69 34.68 73.90 35.47 73.90 36.44C73.90 37.38 74.56 38.02 75.40 38.02C75.55 38.02 75.75 37.98 75.82 37.96C75.68 38.53 75.20 39.21 74.63 39.67C74.47 39.80 74.41 39.98 74.41 40.16C74.41 40.60 74.87 40.86 75.24 40.86C75.46 40.86 75.66 40.79 75.82 40.64C76.92 39.65 77.60 38.33 77.60 36.92ZM91.11 33.18C91.11 30.21 88.88 28.43 86.40 28.43C85.06 28.43 83.87 28.96 83.16 29.66L83.16 26.08L88.91 26.08C89.63 26.08 90.25 25.46 90.25 24.71C90.25 23.94 89.63 23.33 88.91 23.33L81.80 23.33C80.83 23.33 80.04 24.12 80.04 25.09L80.04 30.72C80.04 31.58 80.66 32.21 81.62 32.21C82.06 32.21 82.48 32.08 82.83 31.84C83.63 31.31 84.40 31.14 85.30 31.14C86.97 31.14 87.94 32.02 87.94 33.31C87.94 34.50 86.95 35.49 85.21 35.49C84.15 35.49 83.14 35.21 82.28 34.68C82.02 34.52 81.73 34.44 81.47 34.44C80.70 34.44 79.97 35.03 79.97 35.84C79.97 36.06 80.04 36.28 80.15 36.48C80.83 37.63 83.32 38.26 85.23 38.26C88.77 38.26 91.11 36.31 91.11 33.18ZM103.82 34.00C104.00 31.36 102.22 30.43 102.22 30.43C102.22 30.43 103.84 29.60 103.67 27.09C103.49 24.65 101.56 23.11 98.12 23.11C96.10 23.11 94.52 23.70 93.31 24.67C93.00 24.91 92.84 25.26 92.84 25.61C92.84 26.38 93.53 26.93 94.21 26.93C94.47 26.93 94.74 26.87 94.96 26.71C95.81 26.16 96.78 25.88 97.79 25.88C99.33 25.88 100.52 26.23 100.52 27.40C100.52 28.61 99.80 29.18 98.32 29.18C97.27 29.18 96.80 29.77 96.80 30.54C96.80 31.31 97.27 31.93 98.41 31.93C99.91 31.93 100.76 32.46 100.76 33.62C100.76 34.72 99.77 35.49 97.99 35.49C96.98 35.49 95.81 35.14 94.85 34.57C94.60 34.41 94.34 34.35 94.08 34.35C93.35 34.35 92.65 34.94 92.65 35.73C92.65 35.95 92.71 36.15 92.82 36.33C93.50 37.47 95.99 38.26 98.10 38.26C101.62 38.26 103.65 36.75 103.82 34.00ZM117.48 33.23C117.48 30.10 115.13 28.45 112.49 28.45C110.66 28.45 109.30 29.35 108.73 30.34C108.71 30.23 108.71 30.15 108.71 30.04C108.71 27.70 110.22 25.88 112.38 25.88C113.13 25.88 113.74 26.01 114.29 26.30C114.49 26.41 114.71 26.45 114.93 26.45C115.61 26.45 116.36 25.92 116.36 25.09C116.36 24.87 116.30 24.67 116.21 24.49C115.66 23.52 113.81 23.11 112.38 23.11C108.05 23.11 105.54 26.25 105.54 30.70C105.54 34.83 107.41 38.26 111.87 38.26C115.22 38.26 117.48 36.09 117.48 33.23ZM114.32 33.34C114.32 34.44 113.50 35.49 111.81 35.49C110.42 35.49 109.39 34.55 109.39 33.18C109.39 31.86 110.44 30.92 111.81 30.92C113.22 30.92 114.32 31.86 114.32 33.34ZM122.90 36.92C122.90 35.49 121.95 34.68 120.92 34.68C119.99 34.68 119.20 35.47 119.20 36.44C119.20 37.38 119.86 38.02 120.70 38.02C120.85 38.02 121.05 37.98 121.11 37.96C120.98 38.53 120.50 39.21 119.93 39.67C119.77 39.80 119.71 39.98 119.71 40.16C119.71 40.60 120.17 40.86 120.54 40.86C120.76 40.86 120.96 40.79 121.11 40.64C122.21 39.65 122.90 38.33 122.90 36.92ZM124.46 28.12C124.46 31.25 126.81 32.90 129.45 32.90C131.28 32.90 132.64 31.99 133.21 31.00C133.24 31.11 133.24 31.20 133.24 31.31C133.24 33.64 131.72 35.47 129.56 35.47C128.81 35.47 128.20 35.34 127.65 35.05C127.45 34.94 127.23 34.90 127.01 34.90C126.33 34.90 125.58 35.43 125.58 36.26C125.58 36.48 125.65 36.68 125.73 36.86C126.28 37.82 128.13 38.24 129.56 38.24C133.90 38.24 136.40 35.10 136.40 30.65C136.40 26.52 134.53 23.08 130.07 23.08C126.72 23.08 124.46 25.26 124.46 28.12ZM127.63 28.01C127.63 26.91 128.44 25.86 130.13 25.86C131.52 25.86 132.55 26.80 132.55 28.17C132.55 29.49 131.50 30.43 130.13 30.43C128.73 30.43 127.63 29.49 127.63 28.01ZM149.89 33.60C149.89 32.83 149.27 32.21 148.55 32.21L147.87 32.21L147.87 24.95C147.87 23.59 146.55 22.97 145.20 23.19C144.26 23.19 143.31 23.70 142.81 24.49L137.90 32.24C137.70 32.54 137.61 32.90 137.61 33.25C137.61 34.24 138.34 34.96 139.22 34.96L144.74 34.96L144.74 36.59C144.74 37.43 145.45 38.13 146.28 38.13C147.16 38.13 147.87 37.43 147.87 36.59L147.87 34.96L148.55 34.96C149.27 34.96 149.89 34.35 149.89 33.60ZM140.78 32.21L144.74 26.10L144.74 32.21ZM163.00 33.23C163.00 30.10 160.65 28.45 158.01 28.45C156.18 28.45 154.82 29.35 154.25 30.34C154.22 30.23 154.22 30.15 154.22 30.04C154.22 27.70 155.74 25.88 157.90 25.88C158.65 25.88 159.26 26.01 159.81 26.30C160.01 26.41 160.23 26.45 160.45 26.45C161.13 26.45 161.88 25.92 161.88 25.09C161.88 24.87 161.81 24.67 161.73 24.49C161.18 23.52 159.33 23.11 157.90 23.11C153.56 23.11 151.06 26.25 151.06 30.70C151.06 34.83 152.93 38.26 157.39 38.26C160.74 38.26 163.00 36.09 163.00 33.23ZM159.83 33.34C159.83 34.44 159.02 35.49 157.33 35.49C155.94 35.49 154.91 34.55 154.91 33.18C154.91 31.86 155.96 30.92 157.33 30.92C158.73 30.92 159.83 31.86 159.83 33.34ZM184.34 30.67C184.34 26.25 181.15 23.33 176.55 23.33L172.53 23.33C171.56 23.33 170.77 24.12 170.77 25.09L170.77 36.24C170.77 37.21 171.56 38 172.53 38L176.55 38C181.15 38 184.34 35.10 184.34 30.67ZM181.15 30.67C181.15 33.16 179.46 35.25 176.55 35.25L173.89 35.25L173.89 26.08L176.55 26.08C179.57 26.08 181.15 28.08 181.15 30.67ZM197.06 32.68C197.06 29.66 194.95 27.11 191.43 27.11C187.93 27.11 185.82 29.66 185.82 32.68C185.82 35.71 187.93 38.26 191.43 38.26C194.95 38.26 197.06 35.71 197.06 32.68ZM194.15 32.68C194.15 34.35 193.16 35.78 191.43 35.78C189.69 35.78 188.72 34.35 188.72 32.68C188.72 31.03 189.69 29.60 191.43 29.60C193.16 29.60 194.15 31.03 194.15 32.68ZM214.24 28.58C214.24 27.88 213.67 27.24 212.85 27.24C212.24 27.24 211.67 27.64 211.51 28.23L209.77 34.52L207.77 28.36C207.55 27.70 206.91 27.24 206.23 27.24C205.48 27.24 204.85 27.70 204.63 28.36L202.62 34.52L200.89 28.23C200.73 27.64 200.16 27.24 199.57 27.24C198.73 27.24 198.16 27.90 198.16 28.58C198.16 28.72 198.18 28.85 198.22 28.98L200.60 36.77C200.84 37.56 201.61 38.13 202.45 38.13L202.49 38.13C203.33 38.13 204.10 37.56 204.34 36.77L206.21 30.76L208.08 36.77C208.32 37.58 209.07 38.13 209.93 38.13L209.97 38.13C210.79 38.13 211.56 37.56 211.80 36.77L214.17 28.98C214.22 28.85 214.24 28.72 214.24 28.58ZM226.01 31.16C226.01 29.09 224.23 27.11 221.90 27.11C220.27 27.11 219.26 27.97 218.84 28.63L218.84 28.61C218.84 27.86 218.22 27.24 217.47 27.24C216.66 27.24 216.04 27.86 216.04 28.61L216.04 36.75C216.04 37.52 216.66 38.13 217.43 38.13C218.22 38.13 218.84 37.52 218.84 36.75L218.84 32.06C218.84 30.54 219.94 29.60 221.04 29.60C222.23 29.60 223.22 30.54 223.22 32.02L223.22 36.75C223.22 37.52 223.83 38.13 224.60 38.13C225.39 38.13 226.01 37.52 226.01 36.75ZM231.58 24.56C231.58 23.81 230.96 23.19 230.21 23.19C229.40 23.19 228.78 23.81 228.78 24.56L228.78 36.75C228.78 37.52 229.40 38.13 230.17 38.13C230.96 38.13 231.58 37.52 231.58 36.75ZM244.91 32.68C244.91 29.66 242.80 27.11 239.28 27.11C235.78 27.11 233.67 29.66 233.67 32.68C233.67 35.71 235.78 38.26 239.28 38.26C242.80 38.26 244.91 35.71 244.91 32.68ZM242.00 32.68C242.00 34.35 241.01 35.78 239.28 35.78C237.54 35.78 236.57 34.35 236.57 32.68C236.57 31.03 237.54 29.60 239.28 29.60C241.01 29.60 242.00 31.03 242.00 32.68ZM256.15 31.14C256.15 28.08 253.93 27.11 251.51 27.11C250.28 27.11 247.90 27.55 247.24 28.61C247.15 28.76 247.09 28.96 247.09 29.16C247.09 29.82 247.64 30.23 248.14 30.23C248.32 30.23 248.49 30.17 248.65 30.08C249.37 29.60 250.19 29.40 251.02 29.40C252.43 29.40 253.36 30.10 253.36 31.18L253.36 31.53L249.99 31.53C248.30 31.53 246.29 32.26 246.29 34.74C246.29 37.12 248.30 38.26 249.99 38.26C251.60 38.26 252.63 37.87 253.36 37.01C253.36 37.49 253.82 38.13 254.57 38.13L254.79 38.13C255.53 38.13 256.15 37.52 256.15 36.75ZM253.36 33.42L253.36 33.91C253.36 35.62 252.01 36.37 251.11 36.37C250.01 36.37 249.11 35.80 249.11 34.81C249.11 33.78 250.01 33.42 251.11 33.42ZM258.26 32.70C258.26 36.24 260.51 38.26 263.19 38.26C264.47 38.26 265.63 37.69 266.25 36.64L266.25 36.75C266.25 37.52 266.86 38.13 267.66 38.13C268.43 38.13 269.04 37.52 269.04 36.75L269.04 24.56C269.04 23.81 268.43 23.19 267.61 23.19C266.86 23.19 266.25 23.81 266.25 24.56L266.25 28.74C265.63 27.66 264.44 27.11 263.19 27.11C260.48 27.11 258.26 29.22 258.26 32.70ZM261.14 32.70C261.14 30.85 262.22 29.60 263.85 29.60C264.97 29.60 266.25 30.78 266.25 32.59L266.25 32.83C266.25 34.61 264.97 35.78 263.85 35.78C262.22 35.78 261.14 34.55 261.14 32.70ZM280.24 34.85C280.24 30.56 273.95 31.88 273.95 30.30C273.95 29.71 274.61 29.24 275.62 29.24C276.48 29.24 277.34 29.49 278.02 29.88C278.17 29.97 278.37 30.01 278.55 30.01C279.12 30.01 279.65 29.55 279.65 28.96C279.65 28.76 279.58 28.56 279.47 28.41C278.88 27.55 276.98 27.11 275.60 27.11C272.80 27.11 271.24 28.67 271.24 30.45C271.24 34.63 277.56 33.20 277.56 34.96C277.56 35.62 276.98 36.11 275.77 36.11C274.85 36.11 273.75 35.73 272.91 35.25C272.74 35.14 272.54 35.10 272.34 35.10C271.75 35.10 271.18 35.60 271.18 36.26C271.18 36.48 271.24 36.68 271.37 36.86C272.03 37.80 274.26 38.26 275.64 38.26C278.59 38.26 280.24 36.79 280.24 34.85Z" fill="#22272e" /><path d="M20.26 49.88C20.26 49.54 19.98 49.25 19.64 49.25C19.26 49.25 18.98 49.54 18.98 49.88L18.98 57.44C18.98 57.79 19.26 58.08 19.61 58.08C19.98 58.08 20.26 57.79 20.26 57.44ZM27.55 53.97C27.55 52.64 26.59 51.56 25.27 51.56C24.18 51.56 23.62 52.10 23.32 52.60L23.32 52.20C23.32 51.90 23.06 51.64 22.76 51.64C22.42 51.64 22.16 51.90 22.16 52.20L22.16 57.51C22.16 57.82 22.42 58.08 22.73 58.08C23.06 58.08 23.32 57.82 23.32 57.51L23.32 54.49C23.32 53.42 23.89 52.59 24.89 52.59C25.83 52.59 26.40 53.32 26.40 54.36L26.40 57.51C26.40 57.82 26.66 58.08 26.97 58.08C27.30 58.08 27.55 57.82 27.55 57.51ZM38.97 49.91C38.97 49.58 38.72 49.33 38.41 49.33L32.70 49.33C32.39 49.33 32.14 49.58 32.14 49.89C32.14 50.21 32.39 50.47 32.70 50.47L34.91 50.47L34.91 57.44C34.91 57.79 35.20 58.08 35.55 58.08C35.91 58.08 36.20 57.79 36.20 57.44L36.20 50.47L38.41 50.47C38.72 50.47 38.97 50.21 38.97 49.91ZM44.74 54.85C44.74 53.05 43.53 51.56 41.57 51.56C39.62 51.56 38.41 53.05 38.41 54.85C38.41 56.66 39.62 58.16 41.57 58.16C43.53 58.16 44.74 56.66 44.74 54.85ZM43.53 54.85C43.53 56.06 42.83 57.13 41.57 57.13C40.32 57.13 39.61 56.06 39.61 54.85C39.61 53.66 40.32 52.59 41.57 52.59C42.83 52.59 43.53 53.66 43.53 54.85ZM49.16 57.55C49.16 57.27 48.95 57.06 48.67 57.06C48.54 57.06 48.38 57.13 48.24 57.13C47.86 57.13 47.63 56.83 47.63 56.35L47.63 52.73L48.48 52.73C48.76 52.73 48.98 52.51 48.98 52.24C48.98 51.94 48.76 51.72 48.48 51.72L47.63 51.72L47.63 50.49C47.63 50.19 47.37 49.93 47.05 49.93C46.72 49.93 46.46 50.19 46.46 50.49L46.46 51.72L45.85 51.72C45.56 51.72 45.34 51.94 45.34 52.22C45.34 52.51 45.56 52.73 45.85 52.73L46.46 52.73L46.46 56.62C46.46 57.61 46.98 58.16 47.96 58.16C48.65 58.16 49.16 57.96 49.16 57.55ZM55.26 53.75C55.26 52.15 54.09 51.56 52.74 51.56C51.89 51.56 50.94 51.84 50.34 52.44C50.27 52.53 50.23 52.63 50.23 52.73C50.23 53.01 50.47 53.19 50.71 53.19C50.80 53.19 50.90 53.15 50.99 53.09C51.46 52.72 51.98 52.54 52.57 52.54C53.45 52.54 54.10 53.01 54.10 53.80L54.10 54.15L52.29 54.15C50.99 54.15 49.85 54.66 49.85 56.08C49.85 57.45 50.99 58.16 52.03 58.16C53.01 58.16 53.59 57.86 54.10 57.30L54.10 57.51C54.10 57.88 54.40 58.08 54.63 58.08L54.67 58.08C55.00 58.08 55.26 57.82 55.26 57.51ZM54.10 54.96L54.10 55.84C54.10 56.58 53.26 57.34 52.35 57.34C51.50 57.34 51.02 56.83 51.02 56.10C51.02 55.35 51.62 54.96 52.61 54.96ZM58.27 49.81C58.27 49.51 58.01 49.25 57.71 49.25C57.38 49.25 57.12 49.51 57.12 49.81L57.12 57.51C57.12 57.82 57.38 58.08 57.69 58.08C58.01 58.08 58.27 57.82 58.27 57.51Z" fill="#627386" /><line x1="18" y1="76" x2="48" y2="76" stroke="#627386" stroke-opacity="0.4" /><g aria-label="Packages: 109"><circle cx="22" cy="96" r="4" fill="#673bd6" /><path d="M41.38 93.99C41.38 92.55 40.40 91.33 38.62 91.33L35.82 91.33C35.35 91.33 34.98 91.71 34.98 92.17L34.98 99.44C34.98 99.79 35.26 100.08 35.61 100.08C35.98 100.08 36.26 99.79 36.26 99.44L36.26 96.66L38.62 96.66C40.37 96.66 41.38 95.44 41.38 93.99ZM40.06 93.99C40.06 94.89 39.40 95.52 38.45 95.52L36.26 95.52L36.26 92.47L38.45 92.47C39.40 92.47 40.06 93.08 40.06 93.99ZM47.48 95.75C47.48 94.15 46.31 93.56 44.96 93.56C44.11 93.56 43.17 93.84 42.57 94.44C42.49 94.53 42.45 94.63 42.45 94.73C42.45 95.01 42.70 95.19 42.93 95.19C43.02 95.19 43.13 95.15 43.22 95.09C43.69 94.72 44.21 94.54 44.79 94.54C45.67 94.54 46.32 95.01 46.32 95.80L46.32 96.15L44.52 96.15C43.22 96.15 42.07 96.66 42.07 98.08C42.07 99.45 43.22 100.16 44.26 100.16C45.23 100.16 45.82 99.86 46.32 99.30L46.32 99.51C46.32 99.88 46.62 100.08 46.86 100.08L46.90 100.08C47.22 100.08 47.48 99.82 47.48 99.51ZM46.32 96.96L46.32 97.84C46.32 98.58 45.48 99.34 44.57 99.34C43.72 99.34 43.24 98.83 43.24 98.10C43.24 97.35 43.84 96.96 44.83 96.96ZM54.35 99.05C54.35 98.75 54.07 98.54 53.80 98.54C53.67 98.54 53.54 98.58 53.44 98.66C53.08 98.97 52.68 99.13 52.21 99.13C50.97 99.13 50.16 98.17 50.16 96.85C50.16 95.54 50.97 94.59 52.21 94.59C52.67 94.59 53.08 94.73 53.44 95.05C53.54 95.14 53.67 95.19 53.80 95.19C54.09 95.19 54.33 94.96 54.33 94.67C54.33 94.57 54.31 94.47 54.24 94.40C53.81 93.90 53.11 93.56 52.15 93.56C50.26 93.56 48.96 94.98 48.96 96.85C48.96 98.74 50.26 100.16 52.15 100.16C53.08 100.16 53.72 99.84 54.19 99.39C54.29 99.30 54.35 99.17 54.35 99.05ZM60.92 99.51C60.92 99.39 60.88 99.26 60.81 99.17L58.74 96.57L60.69 94.53C60.78 94.42 60.83 94.31 60.83 94.18C60.83 93.89 60.57 93.63 60.29 93.63C60.16 93.63 60.01 93.69 59.91 93.80L56.95 96.92L56.95 91.81C56.95 91.51 56.69 91.25 56.39 91.25C56.05 91.25 55.79 91.51 55.79 91.81L55.79 99.51C55.79 99.82 56.05 100.08 56.36 100.08C56.69 100.08 56.95 99.82 56.95 99.51L56.95 98.26L57.91 97.28L59.90 99.86C60.00 100.01 60.18 100.09 60.35 100.09C60.70 100.09 60.92 99.78 60.92 99.51ZM67.59 95.75C67.59 94.15 66.42 93.56 65.07 93.56C64.23 93.56 63.28 93.84 62.68 94.44C62.60 94.53 62.56 94.63 62.56 94.73C62.56 95.01 62.81 95.19 63.04 95.19C63.13 95.19 63.24 95.15 63.33 95.09C63.80 94.72 64.32 94.54 64.90 94.54C65.78 94.54 66.44 95.01 66.44 95.80L66.44 96.15L64.63 96.15C63.33 96.15 62.18 96.66 62.18 98.08C62.18 99.45 63.33 100.16 64.37 100.16C65.34 100.16 65.93 99.86 66.44 99.30L66.44 99.51C66.44 99.88 66.73 100.08 66.97 100.08L67.01 100.08C67.33 100.08 67.59 99.82 67.59 99.51ZM66.44 96.96L66.44 97.84C66.44 98.58 65.59 99.34 64.68 99.34C63.84 99.34 63.35 98.83 63.35 98.10C63.35 97.35 63.95 96.96 64.94 96.96ZM75.08 94.20C75.08 93.90 74.82 93.64 74.52 93.64C74.18 93.64 73.92 93.90 73.92 94.20L73.92 94.63C73.42 93.95 72.69 93.56 71.86 93.56C70.23 93.56 69.07 94.79 69.07 96.81C69.07 98.86 70.24 100.05 71.86 100.05C72.71 100.05 73.45 99.60 73.92 98.96L73.92 99.79C73.92 101.13 72.96 101.60 71.99 101.60C71.30 101.60 70.75 101.46 70.27 101.05C70.18 100.99 70.09 100.96 69.97 100.96C69.71 100.96 69.48 101.18 69.48 101.46C69.48 101.59 69.53 101.70 69.61 101.78C70.22 102.37 71.10 102.55 71.99 102.55C73.52 102.55 75.08 101.91 75.08 99.75ZM73.92 96.83C73.92 98.11 73.08 99.03 72.04 99.03C70.87 99.03 70.27 98.10 70.27 96.81C70.27 95.50 70.87 94.59 72.04 94.59C73.08 94.59 73.92 95.49 73.92 96.78ZM82.75 96.65C82.75 96.40 82.69 96.13 82.63 95.92C82.27 94.51 81.23 93.56 79.71 93.56C77.89 93.56 76.58 95.03 76.58 96.85C76.58 98.83 77.94 100.16 79.81 100.16C80.73 100.16 82.35 99.67 82.35 98.97C82.35 98.53 81.91 98.43 81.62 98.57C81.16 98.91 80.46 99.22 79.93 99.22C78.66 99.22 77.88 98.35 77.78 97.27L82.15 97.27C82.48 97.27 82.75 96.96 82.75 96.65ZM77.78 96.41C77.84 95.54 78.45 94.50 79.70 94.50C81.03 94.50 81.61 95.57 81.63 96.41ZM88.83 98.10C88.72 95.89 85.12 96.50 84.99 95.37C84.93 94.86 85.48 94.49 86.27 94.49C86.87 94.49 87.43 94.68 87.83 94.97C87.91 95.03 88.00 95.06 88.11 95.06C88.34 95.06 88.56 94.86 88.56 94.61C88.56 94.50 88.52 94.40 88.44 94.32C87.95 93.84 87.16 93.56 86.26 93.56C84.73 93.56 83.80 94.29 83.87 95.41C83.99 97.52 87.57 96.87 87.70 98.26C87.76 98.83 87.24 99.23 86.34 99.23C85.69 99.23 85.04 98.97 84.57 98.64C84.48 98.57 84.39 98.54 84.27 98.54C84.00 98.54 83.76 98.75 83.76 99.03C83.76 99.16 83.82 99.26 83.91 99.34C84.48 99.91 85.43 100.16 86.29 100.16C87.95 100.16 88.90 99.30 88.83 98.10Z" fill="#22272e" /><path d="M201.18 92.32C201.18 91.73 200.68 91.26 200.10 91.26C199.80 91.26 199.51 91.38 199.32 91.58L197.32 93.60C197.16 93.76 197.08 93.95 197.08 94.15C197.08 94.58 197.45 94.92 197.85 94.92C198.03 94.92 198.21 94.85 198.36 94.71L199.33 93.71L199.33 99.17C199.33 99.66 199.75 100.08 200.24 100.08C200.76 100.08 201.18 99.66 201.18 99.17ZM209.65 95.67C209.65 93.44 208.54 91.20 206.07 91.20C203.58 91.20 202.48 93.44 202.48 95.67C202.48 97.91 203.58 100.16 206.07 100.16C208.54 100.16 209.65 97.91 209.65 95.67ZM207.77 95.67C207.77 97.27 207.30 98.52 206.07 98.52C204.82 98.52 204.35 97.27 204.35 95.67C204.35 94.07 204.82 92.84 206.07 92.84C207.30 92.84 207.77 94.07 207.77 95.67ZM210.49 94.16C210.49 96.01 211.88 96.98 213.44 96.98C214.52 96.98 215.32 96.45 215.66 95.87C215.67 95.93 215.67 95.98 215.67 96.05C215.67 97.43 214.78 98.50 213.50 98.50C213.06 98.50 212.70 98.43 212.37 98.26C212.25 98.19 212.12 98.17 211.99 98.17C211.59 98.17 211.15 98.48 211.15 98.97C211.15 99.10 211.19 99.22 211.24 99.32C211.56 99.90 212.66 100.14 213.50 100.14C216.06 100.14 217.54 98.28 217.54 95.66C217.54 93.21 216.44 91.19 213.80 91.19C211.82 91.19 210.49 92.47 210.49 94.16ZM212.36 94.10C212.36 93.45 212.84 92.82 213.84 92.82C214.66 92.82 215.27 93.38 215.27 94.19C215.27 94.97 214.65 95.53 213.84 95.53C213.01 95.53 212.36 94.97 212.36 94.10Z" fill="#627386" /></g><g aria-label="Organizations: 8"><circle cx="22" cy="118" r="4" fill="#2c96f2" /><path d="M43.33 117.67C43.33 115.10 41.54 113.19 38.97 113.19C36.38 113.19 34.60 115.10 34.60 117.67C34.60 120.25 36.38 122.16 38.97 122.16C41.54 122.16 43.33 120.25 43.33 117.67ZM42.01 117.67C42.01 119.58 40.81 121.01 38.97 121.01C37.11 121.01 35.94 119.58 35.94 117.67C35.94 115.75 37.11 114.33 38.97 114.33C40.81 114.33 42.01 115.75 42.01 117.67ZM48.18 116.15C48.18 115.85 47.96 115.63 47.66 115.63C46.96 115.63 46.39 116.22 46.04 116.70L46.04 116.20C46.04 115.90 45.78 115.64 45.48 115.64C45.14 115.64 44.88 115.90 44.88 116.20L44.88 121.51C44.88 121.82 45.13 122.06 45.44 122.08L45.45 122.08C45.78 122.08 46.04 121.82 46.04 121.51L46.04 118.28C46.04 117.46 46.61 116.81 47.60 116.76C47.92 116.75 48.18 116.49 48.18 116.15ZM54.90 116.20C54.90 115.90 54.64 115.64 54.34 115.64C54.01 115.64 53.75 115.90 53.75 116.20L53.75 116.63C53.24 115.95 52.51 115.56 51.68 115.56C50.05 115.56 48.90 116.79 48.90 118.81C48.90 120.86 50.07 122.05 51.68 122.05C52.54 122.05 53.28 121.60 53.75 120.96L53.75 121.79C53.75 123.13 52.78 123.60 51.81 123.60C51.12 123.60 50.57 123.46 50.09 123.05C50.00 122.99 49.91 122.96 49.80 122.96C49.53 122.96 49.30 123.18 49.30 123.46C49.30 123.59 49.35 123.70 49.43 123.78C50.04 124.37 50.93 124.55 51.81 124.55C53.34 124.55 54.90 123.91 54.90 121.75ZM53.75 118.83C53.75 120.11 52.90 121.03 51.86 121.03C50.69 121.03 50.09 120.10 50.09 118.81C50.09 117.50 50.69 116.59 51.86 116.59C52.90 116.59 53.75 117.49 53.75 118.78ZM61.82 117.75C61.82 116.15 60.65 115.56 59.30 115.56C58.45 115.56 57.50 115.84 56.91 116.44C56.83 116.53 56.79 116.63 56.79 116.73C56.79 117.01 57.04 117.19 57.27 117.19C57.36 117.19 57.46 117.15 57.56 117.09C58.02 116.72 58.54 116.54 59.13 116.54C60.01 116.54 60.66 117.01 60.66 117.80L60.66 118.15L58.86 118.15C57.56 118.15 56.41 118.66 56.41 120.08C56.41 121.45 57.56 122.16 58.60 122.16C59.57 122.16 60.16 121.86 60.66 121.30L60.66 121.51C60.66 121.88 60.96 122.08 61.20 122.08L61.23 122.08C61.56 122.08 61.82 121.82 61.82 121.51ZM60.66 118.96L60.66 119.84C60.66 120.58 59.82 121.34 58.91 121.34C58.06 121.34 57.58 120.83 57.58 120.10C57.58 119.35 58.18 118.96 59.17 118.96ZM69.07 117.97C69.07 116.64 68.11 115.56 66.79 115.56C65.69 115.56 65.13 116.10 64.84 116.61L64.84 116.20C64.84 115.90 64.58 115.64 64.28 115.64C63.94 115.64 63.68 115.90 63.68 116.20L63.68 121.51C63.68 121.82 63.94 122.08 64.25 122.08C64.58 122.08 64.84 121.82 64.84 121.51L64.84 118.49C64.84 117.42 65.41 116.59 66.41 116.59C67.34 116.59 67.92 117.32 67.92 118.36L67.92 121.51C67.92 121.82 68.18 122.08 68.49 122.08C68.81 122.08 69.07 121.82 69.07 121.51ZM71.52 113.39C71.11 113.39 70.78 113.73 70.78 114.15C70.78 114.55 71.11 114.89 71.52 114.89C71.93 114.89 72.26 114.55 72.26 114.15C72.26 113.73 71.93 113.39 71.52 113.39ZM72.10 116.20C72.10 115.90 71.84 115.64 71.54 115.64C71.21 115.64 70.95 115.90 70.95 116.20L70.95 121.51C70.95 121.82 71.21 122.08 71.52 122.08C71.84 122.08 72.10 121.82 72.10 121.51ZM78.63 121.48C78.63 121.22 78.41 121.00 78.15 121.00L75.18 121.00L78.45 116.66C78.52 116.55 78.56 116.42 78.56 116.29C78.56 115.95 78.30 115.72 78.04 115.72L74.09 115.72C73.82 115.72 73.60 115.94 73.60 116.22C73.60 116.51 73.82 116.73 74.09 116.73L76.96 116.73L73.74 121.04C73.66 121.14 73.61 121.27 73.61 121.42C73.61 121.75 73.86 122 74.16 122L78.15 122C78.41 122 78.63 121.78 78.63 121.48ZM85.18 117.75C85.18 116.15 84.01 115.56 82.66 115.56C81.81 115.56 80.86 115.84 80.27 116.44C80.19 116.53 80.15 116.63 80.15 116.73C80.15 117.01 80.40 117.19 80.63 117.19C80.72 117.19 80.83 117.15 80.92 117.09C81.38 116.72 81.90 116.54 82.49 116.54C83.37 116.54 84.02 117.01 84.02 117.80L84.02 118.15L82.22 118.15C80.92 118.15 79.77 118.66 79.77 120.08C79.77 121.45 80.92 122.16 81.96 122.16C82.93 122.16 83.52 121.86 84.02 121.30L84.02 121.51C84.02 121.88 84.32 122.08 84.56 122.08L84.60 122.08C84.92 122.08 85.18 121.82 85.18 121.51ZM84.02 118.96L84.02 119.84C84.02 120.58 83.18 121.34 82.27 121.34C81.42 121.34 80.94 120.83 80.94 120.10C80.94 119.35 81.54 118.96 82.53 118.96ZM89.97 121.55C89.97 121.27 89.76 121.06 89.47 121.06C89.34 121.06 89.19 121.13 89.04 121.13C88.67 121.13 88.43 120.83 88.43 120.35L88.43 116.73L89.29 116.73C89.56 116.73 89.78 116.51 89.78 116.24C89.78 115.94 89.56 115.72 89.29 115.72L88.43 115.72L88.43 114.49C88.43 114.19 88.17 113.93 87.86 113.93C87.52 113.93 87.26 114.19 87.26 114.49L87.26 115.72L86.65 115.72C86.36 115.72 86.14 115.94 86.14 116.22C86.14 116.51 86.36 116.73 86.65 116.73L87.26 116.73L87.26 120.62C87.26 121.61 87.78 122.16 88.77 122.16C89.46 122.16 89.97 121.96 89.97 121.55ZM91.59 113.39C91.19 113.39 90.85 113.73 90.85 114.15C90.85 114.55 91.19 114.89 91.59 114.89C92.01 114.89 92.33 114.55 92.33 114.15C92.33 113.73 92.01 113.39 91.59 113.39ZM92.17 116.20C92.17 115.90 91.91 115.64 91.62 115.64C91.28 115.64 91.02 115.90 91.02 116.20L91.02 121.51C91.02 121.82 91.28 122.08 91.59 122.08C91.91 122.08 92.17 121.82 92.17 121.51ZM100.00 118.85C100.00 117.05 98.79 115.56 96.83 115.56C94.88 115.56 93.67 117.05 93.67 118.85C93.67 120.66 94.88 122.16 96.83 122.16C98.79 122.16 100.00 120.66 100.00 118.85ZM98.79 118.85C98.79 120.06 98.09 121.13 96.83 121.13C95.58 121.13 94.87 120.06 94.87 118.85C94.87 117.66 95.58 116.59 96.83 116.59C98.09 116.59 98.79 117.66 98.79 118.85ZM106.89 117.97C106.89 116.64 105.93 115.56 104.60 115.56C103.51 115.56 102.95 116.10 102.65 116.61L102.65 116.20C102.65 115.90 102.39 115.64 102.09 115.64C101.76 115.64 101.50 115.90 101.50 116.20L101.50 121.51C101.50 121.82 101.76 122.08 102.07 122.08C102.39 122.08 102.65 121.82 102.65 121.51L102.65 118.49C102.65 117.42 103.22 116.59 104.23 116.59C105.16 116.59 105.73 117.32 105.73 118.36L105.73 121.51C105.73 121.82 105.99 122.08 106.31 122.08C106.63 122.08 106.89 121.82 106.89 121.51ZM113.36 120.10C113.25 117.89 109.65 118.50 109.52 117.37C109.46 116.86 110.01 116.49 110.80 116.49C111.40 116.49 111.96 116.68 112.36 116.97C112.44 117.03 112.53 117.06 112.64 117.06C112.87 117.06 113.09 116.86 113.09 116.61C113.09 116.50 113.05 116.40 112.97 116.32C112.48 115.84 111.69 115.56 110.79 115.56C109.26 115.56 108.33 116.29 108.40 117.41C108.52 119.52 112.10 118.87 112.23 120.26C112.29 120.83 111.77 121.23 110.87 121.23C110.22 121.23 109.57 120.97 109.10 120.64C109.01 120.57 108.92 120.54 108.80 120.54C108.53 120.54 108.29 120.75 108.29 121.03C108.29 121.16 108.35 121.26 108.44 121.34C109.01 121.91 109.96 122.16 110.82 122.16C112.48 122.16 113.43 121.30 113.36 120.10Z" fill="#22272e" /><path d="M217.54 119.62C217.54 118.44 216.84 117.76 216.32 117.53C216.76 117.32 217.40 116.83 217.40 115.49C217.40 113.99 215.79 113.20 214.06 113.20C212.32 113.20 210.72 113.99 210.72 115.49C210.72 116.83 211.34 117.32 211.79 117.53C211.27 117.76 210.58 118.44 210.58 119.62C210.58 121.25 212.24 122.16 214.06 122.16C215.88 122.16 217.54 121.23 217.54 119.62ZM215.52 115.77C215.52 116.42 214.85 116.80 214.06 116.80C213.27 116.80 212.59 116.42 212.59 115.77C212.59 115.15 213.20 114.78 214.06 114.78C214.91 114.78 215.52 115.15 215.52 115.77ZM215.67 119.52C215.67 120.15 214.94 120.57 214.06 120.57C213.15 120.57 212.45 120.15 212.45 119.52C212.45 118.79 213.25 118.36 214.06 118.36C214.85 118.36 215.67 118.79 215.67 119.52Z" fill="#627386" /></g><g aria-label="Versions Published: 14,689"><circle cx="22" cy="140" r="4" fill="#00a5fe" /><path d="M42.28 135.93C42.28 135.58 42.00 135.25 41.59 135.25C41.31 135.25 41.06 135.42 40.97 135.68L38.32 142.60L35.68 135.68C35.57 135.41 35.31 135.25 35.05 135.25C34.64 135.25 34.35 135.62 34.35 135.93C34.35 136.02 34.36 136.10 34.40 136.17L37.28 143.39C37.43 143.81 37.85 144.08 38.29 144.08L38.36 144.08C38.78 144.08 39.20 143.81 39.37 143.39L42.24 136.17C42.27 136.10 42.28 136.00 42.28 135.93ZM48.60 140.65C48.60 140.40 48.53 140.13 48.48 139.92C48.12 138.51 47.08 137.56 45.56 137.56C43.74 137.56 42.42 139.03 42.42 140.85C42.42 142.83 43.79 144.16 45.66 144.16C46.58 144.16 48.20 143.68 48.20 142.97C48.20 142.53 47.75 142.43 47.47 142.57C47.01 142.91 46.31 143.22 45.78 143.22C44.50 143.22 43.72 142.35 43.63 141.27L48.00 141.27C48.33 141.27 48.60 140.96 48.60 140.65ZM43.63 140.41C43.69 139.54 44.30 138.50 45.54 138.50C46.88 138.50 47.46 139.57 47.48 140.41ZM53.38 138.15C53.38 137.85 53.16 137.63 52.86 137.63C52.16 137.63 51.59 138.22 51.24 138.70L51.24 138.20C51.24 137.90 50.98 137.64 50.68 137.64C50.34 137.64 50.08 137.90 50.08 138.20L50.08 143.51C50.08 143.82 50.33 144.06 50.64 144.08L50.65 144.08C50.98 144.08 51.24 143.82 51.24 143.51L51.24 140.28C51.24 139.46 51.81 138.81 52.80 138.76C53.12 138.75 53.38 138.49 53.38 138.15ZM59.08 142.10C58.96 139.89 55.36 140.50 55.23 139.37C55.18 138.87 55.72 138.49 56.52 138.49C57.11 138.49 57.67 138.68 58.08 138.97C58.15 139.03 58.25 139.06 58.35 139.06C58.58 139.06 58.80 138.87 58.80 138.60C58.80 138.50 58.77 138.40 58.69 138.32C58.19 137.84 57.40 137.56 56.50 137.56C54.97 137.56 54.05 138.29 54.11 139.41C54.23 141.52 57.82 140.87 57.95 142.26C58.00 142.83 57.48 143.23 56.58 143.23C55.93 143.23 55.28 142.97 54.81 142.63C54.72 142.57 54.63 142.54 54.51 142.54C54.24 142.54 54.01 142.75 54.01 143.03C54.01 143.16 54.06 143.26 54.15 143.34C54.72 143.91 55.67 144.16 56.53 144.16C58.19 144.16 59.14 143.30 59.08 142.10ZM61.13 135.39C60.73 135.39 60.39 135.73 60.39 136.15C60.39 136.55 60.73 136.89 61.13 136.89C61.55 136.89 61.87 136.55 61.87 136.15C61.87 135.73 61.55 135.39 61.13 135.39ZM61.72 138.20C61.72 137.90 61.46 137.64 61.16 137.64C60.82 137.64 60.56 137.90 60.56 138.20L60.56 143.51C60.56 143.82 60.82 144.08 61.13 144.08C61.46 144.08 61.72 143.82 61.72 143.51ZM69.54 140.85C69.54 139.05 68.33 137.56 66.37 137.56C64.42 137.56 63.21 139.05 63.21 140.85C63.21 142.66 64.42 144.16 66.37 144.16C68.33 144.16 69.54 142.66 69.54 140.85ZM68.33 140.85C68.33 142.06 67.63 143.13 66.37 143.13C65.12 143.13 64.41 142.06 64.41 140.85C64.41 139.66 65.12 138.59 66.37 138.59C67.63 138.59 68.33 139.66 68.33 140.85ZM76.43 139.97C76.43 138.64 75.47 137.56 74.14 137.56C73.05 137.56 72.49 138.10 72.19 138.60L72.19 138.20C72.19 137.90 71.93 137.64 71.64 137.64C71.30 137.64 71.04 137.90 71.04 138.20L71.04 143.51C71.04 143.82 71.30 144.08 71.61 144.08C71.93 144.08 72.19 143.82 72.19 143.51L72.19 140.49C72.19 139.42 72.77 138.59 73.77 138.59C74.70 138.59 75.28 139.32 75.28 140.36L75.28 143.51C75.28 143.82 75.54 144.08 75.85 144.08C76.17 144.08 76.43 143.82 76.43 143.51ZM82.91 142.10C82.79 139.89 79.19 140.50 79.06 139.37C79.01 138.87 79.55 138.49 80.35 138.49C80.94 138.49 81.50 138.68 81.91 138.97C81.98 139.03 82.07 139.06 82.18 139.06C82.41 139.06 82.63 138.87 82.63 138.60C82.63 138.50 82.59 138.40 82.52 138.32C82.02 137.84 81.23 137.56 80.33 137.56C78.80 137.56 77.88 138.29 77.94 139.41C78.06 141.52 81.65 140.87 81.78 142.26C81.83 142.83 81.31 143.23 80.41 143.23C79.76 143.23 79.11 142.97 78.64 142.63C78.55 142.57 78.46 142.54 78.34 142.54C78.07 142.54 77.84 142.75 77.84 143.03C77.84 143.16 77.89 143.26 77.98 143.34C78.55 143.91 79.50 144.16 80.36 144.16C82.02 144.16 82.97 143.30 82.91 142.10ZM94.18 137.99C94.18 136.55 93.19 135.33 91.41 135.33L88.61 135.33C88.15 135.33 87.77 135.71 87.77 136.17L87.77 143.44C87.77 143.79 88.05 144.08 88.41 144.08C88.77 144.08 89.06 143.79 89.06 143.44L89.06 140.66L91.41 140.66C93.16 140.66 94.18 139.44 94.18 137.99ZM92.85 137.99C92.85 138.89 92.19 139.51 91.24 139.51L89.06 139.51L89.06 136.47L91.24 136.47C92.19 136.47 92.85 137.08 92.85 137.99ZM100.90 138.20C100.90 137.90 100.64 137.64 100.34 137.64C100.00 137.64 99.74 137.90 99.74 138.20L99.74 141.19C99.74 142.26 99.06 143.13 98.13 143.13C97.19 143.13 96.66 142.41 96.66 141.37L96.66 138.20C96.66 137.90 96.40 137.64 96.10 137.64C95.76 137.64 95.50 137.90 95.50 138.20L95.50 141.78C95.50 143.10 96.44 144.16 97.77 144.16C98.86 144.16 99.40 143.68 99.74 143.14L99.74 143.51C99.74 143.82 100.00 144.08 100.31 144.08C100.64 144.08 100.90 143.82 100.90 143.51ZM108.78 140.87C108.78 138.85 107.74 137.56 106.11 137.56C105.15 137.56 104.42 137.96 103.91 138.63L103.91 135.81C103.91 135.51 103.65 135.25 103.36 135.25C103.02 135.25 102.76 135.51 102.76 135.81L102.76 143.51C102.76 143.82 103.02 144.08 103.33 144.08C103.65 144.08 103.91 143.82 103.91 143.51L103.91 143.10C104.38 143.73 105.14 144.16 105.98 144.16C107.61 144.16 108.78 142.92 108.78 140.87ZM107.57 140.87C107.57 142.18 106.98 143.13 105.79 143.13C104.95 143.13 103.91 142.22 103.91 140.92L103.91 140.83C103.91 139.54 104.69 138.59 105.79 138.59C106.98 138.59 107.57 139.55 107.57 140.87ZM111.43 135.81C111.43 135.51 111.17 135.25 110.87 135.25C110.53 135.25 110.27 135.51 110.27 135.81L110.27 143.51C110.27 143.82 110.53 144.08 110.84 144.08C111.17 144.08 111.43 143.82 111.43 143.51ZM113.87 135.39C113.47 135.39 113.13 135.73 113.13 136.15C113.13 136.55 113.47 136.89 113.87 136.89C114.29 136.89 114.61 136.55 114.61 136.15C114.61 135.73 114.29 135.39 113.87 135.39ZM114.46 138.20C114.46 137.90 114.20 137.64 113.90 137.64C113.56 137.64 113.30 137.90 113.30 138.20L113.30 143.51C113.30 143.82 113.56 144.08 113.87 144.08C114.20 144.08 114.46 143.82 114.46 143.51ZM120.93 142.10C120.81 139.89 117.21 140.50 117.08 139.37C117.03 138.87 117.58 138.49 118.37 138.49C118.97 138.49 119.53 138.68 119.93 138.97C120.01 139.03 120.10 139.06 120.20 139.06C120.44 139.06 120.66 138.87 120.66 138.60C120.66 138.50 120.62 138.40 120.54 138.32C120.05 137.84 119.25 137.56 118.36 137.56C116.82 137.56 115.90 138.29 115.96 139.41C116.08 141.52 119.67 140.87 119.80 142.26C119.85 142.83 119.33 143.23 118.43 143.23C117.78 143.23 117.13 142.97 116.67 142.63C116.58 142.57 116.48 142.54 116.37 142.54C116.09 142.54 115.86 142.75 115.86 143.03C115.86 143.16 115.91 143.26 116.00 143.34C116.58 143.91 117.52 144.16 118.38 144.16C120.05 144.16 121.00 143.30 120.93 142.10ZM127.82 139.94C127.82 138.62 126.87 137.56 125.55 137.56C124.44 137.56 123.87 138.10 123.57 138.60L123.57 135.81C123.57 135.51 123.31 135.25 123.01 135.25C122.67 135.25 122.41 135.51 122.41 135.81L122.41 143.51C122.41 143.82 122.67 144.08 122.98 144.08C123.31 144.08 123.57 143.82 123.57 143.51L123.57 140.56C123.57 139.38 124.19 138.59 125.18 138.59C126.12 138.59 126.66 139.29 126.66 140.33L126.66 143.51C126.66 143.82 126.92 144.08 127.24 144.08C127.56 144.08 127.82 143.82 127.82 143.51ZM135.49 140.65C135.49 140.40 135.43 140.13 135.37 139.92C135.01 138.51 133.97 137.56 132.45 137.56C130.63 137.56 129.32 139.03 129.32 140.85C129.32 142.83 130.68 144.16 132.55 144.16C133.48 144.16 135.09 143.68 135.09 142.97C135.09 142.53 134.65 142.43 134.36 142.57C133.90 142.91 133.20 143.22 132.67 143.22C131.40 143.22 130.62 142.35 130.52 141.27L134.89 141.27C135.22 141.27 135.49 140.96 135.49 140.65ZM130.52 140.41C130.58 139.54 131.19 138.50 132.44 138.50C133.77 138.50 134.35 139.57 134.37 140.41ZM142.61 135.81C142.61 135.51 142.35 135.25 142.06 135.25C141.72 135.25 141.46 135.51 141.46 135.81L141.46 138.63C140.95 137.96 140.34 137.56 139.39 137.56C137.75 137.56 136.60 138.85 136.60 140.87C136.60 142.92 137.77 144.16 139.39 144.16C140.37 144.16 140.98 143.73 141.46 143.10L141.46 143.51C141.46 143.82 141.72 144.08 142.03 144.08C142.35 144.08 142.61 143.82 142.61 143.51ZM141.46 140.91C141.46 142.21 140.81 143.13 139.69 143.13C138.52 143.13 137.79 142.18 137.79 140.87C137.79 139.55 138.52 138.59 139.69 138.59C140.81 138.59 141.46 139.54 141.46 140.83Z" fill="#22272e" /><path d="M182.64 136.32C182.64 135.73 182.15 135.26 181.56 135.26C181.26 135.26 180.98 135.38 180.78 135.58L178.78 137.60C178.62 137.76 178.54 137.96 178.54 138.15C178.54 138.58 178.91 138.92 179.31 138.92C179.49 138.92 179.68 138.85 179.82 138.71L180.79 137.71L180.79 143.17C180.79 143.66 181.21 144.08 181.70 144.08C182.22 144.08 182.64 143.66 182.64 143.17ZM191.01 141.40C191.01 140.94 190.65 140.58 190.22 140.58L189.82 140.58L189.82 136.29C189.82 135.49 189.04 135.12 188.24 135.25C187.68 135.25 187.13 135.55 186.83 136.02L183.93 140.59C183.81 140.78 183.76 140.98 183.76 141.19C183.76 141.78 184.19 142.21 184.71 142.21L187.97 142.21L187.97 143.17C187.97 143.66 188.39 144.08 188.88 144.08C189.40 144.08 189.82 143.66 189.82 143.17L189.82 142.21L190.22 142.21C190.65 142.21 191.01 141.84 191.01 141.40ZM185.63 140.58L187.97 136.97L187.97 140.58ZM194.05 143.36C194.05 142.52 193.49 142.04 192.88 142.04C192.34 142.04 191.87 142.50 191.87 143.08C191.87 143.64 192.26 144.01 192.75 144.01C192.84 144.01 192.96 143.99 193.00 143.97C192.92 144.31 192.64 144.72 192.30 144.99C192.21 145.07 192.17 145.17 192.17 145.27C192.17 145.53 192.44 145.69 192.66 145.69C192.79 145.69 192.91 145.65 193.00 145.56C193.65 144.97 194.05 144.19 194.05 143.36ZM201.81 141.18C201.81 139.33 200.42 138.36 198.86 138.36C197.78 138.36 196.98 138.89 196.64 139.48C196.63 139.41 196.63 139.36 196.63 139.29C196.63 137.92 197.53 136.84 198.80 136.84C199.24 136.84 199.60 136.91 199.93 137.08C200.05 137.15 200.18 137.18 200.31 137.18C200.71 137.18 201.15 136.86 201.15 136.37C201.15 136.24 201.11 136.12 201.06 136.02C200.74 135.45 199.64 135.20 198.80 135.20C196.24 135.20 194.76 137.06 194.76 139.68C194.76 142.13 195.86 144.16 198.50 144.16C200.48 144.16 201.81 142.87 201.81 141.18ZM199.94 141.24C199.94 141.89 199.46 142.52 198.46 142.52C197.64 142.52 197.03 141.96 197.03 141.15C197.03 140.37 197.66 139.81 198.46 139.81C199.29 139.81 199.94 140.37 199.94 141.24ZM209.64 141.62C209.64 140.44 208.94 139.76 208.42 139.53C208.86 139.32 209.50 138.83 209.50 137.49C209.50 135.99 207.89 135.20 206.16 135.20C204.41 135.20 202.82 135.99 202.82 137.49C202.82 138.83 203.44 139.32 203.88 139.53C203.36 139.76 202.67 140.44 202.67 141.62C202.67 143.25 204.34 144.16 206.16 144.16C207.98 144.16 209.64 143.23 209.64 141.62ZM207.61 137.77C207.61 138.42 206.95 138.80 206.16 138.80C205.36 138.80 204.69 138.42 204.69 137.77C204.69 137.15 205.30 136.78 206.16 136.78C207.00 136.78 207.61 137.15 207.61 137.77ZM207.77 141.52C207.77 142.15 207.04 142.57 206.16 142.57C205.25 142.57 204.54 142.15 204.54 141.52C204.54 140.79 205.35 140.36 206.16 140.36C206.95 140.36 207.77 140.79 207.77 141.52ZM210.49 138.16C210.49 140.01 211.88 140.98 213.44 140.98C214.52 140.98 215.32 140.45 215.66 139.87C215.67 139.93 215.67 139.98 215.67 140.05C215.67 141.43 214.78 142.50 213.50 142.50C213.06 142.50 212.70 142.43 212.37 142.26C212.25 142.19 212.12 142.17 211.99 142.17C211.59 142.17 211.15 142.48 211.15 142.97C211.15 143.10 211.19 143.22 211.24 143.32C211.56 143.90 212.66 144.14 213.50 144.14C216.06 144.14 217.55 142.28 217.55 139.66C217.55 137.21 216.44 135.19 213.80 135.19C211.83 135.19 210.49 136.47 210.49 138.16ZM212.36 138.10C212.36 137.45 212.84 136.82 213.84 136.82C214.66 136.82 215.27 137.38 215.27 138.19C215.27 138.97 214.65 139.53 213.84 139.53C213.01 139.53 212.36 138.97 212.36 138.10Z" fill="#627386" /></g><g aria-label="This Week: 24,786,880"><circle cx="22" cy="162" r="4" fill="#00d559" /><path d="M41.14 157.91C41.14 157.58 40.89 157.33 40.58 157.33L34.87 157.33C34.56 157.33 34.31 157.58 34.31 157.89C34.31 158.21 34.56 158.47 34.87 158.47L37.08 158.47L37.08 165.44C37.08 165.79 37.37 166.08 37.72 166.08C38.08 166.08 38.37 165.79 38.37 165.44L38.37 158.47L40.58 158.47C40.89 158.47 41.14 158.21 41.14 157.91ZM47.79 161.94C47.79 160.62 46.84 159.56 45.52 159.56C44.41 159.56 43.84 160.10 43.54 160.60L43.54 157.81C43.54 157.51 43.28 157.25 42.98 157.25C42.64 157.25 42.38 157.51 42.38 157.81L42.38 165.51C42.38 165.82 42.64 166.08 42.96 166.08C43.28 166.08 43.54 165.82 43.54 165.51L43.54 162.56C43.54 161.38 44.17 160.59 45.15 160.59C46.09 160.59 46.64 161.29 46.64 162.33L46.64 165.51C46.64 165.82 46.90 166.08 47.21 166.08C47.53 166.08 47.79 165.82 47.79 165.51ZM50.24 157.39C49.83 157.39 49.50 157.73 49.50 158.15C49.50 158.55 49.83 158.89 50.24 158.89C50.65 158.89 50.98 158.55 50.98 158.15C50.98 157.73 50.65 157.39 50.24 157.39ZM50.82 160.20C50.82 159.90 50.56 159.64 50.26 159.64C49.92 159.64 49.66 159.90 49.66 160.20L49.66 165.51C49.66 165.82 49.92 166.08 50.24 166.08C50.56 166.08 50.82 165.82 50.82 165.51ZM57.30 164.10C57.18 161.89 53.58 162.50 53.45 161.37C53.40 160.87 53.94 160.49 54.73 160.49C55.33 160.49 55.89 160.68 56.30 160.97C56.37 161.03 56.46 161.06 56.57 161.06C56.80 161.06 57.02 160.87 57.02 160.60C57.02 160.50 56.98 160.40 56.91 160.32C56.41 159.84 55.62 159.56 54.72 159.56C53.19 159.56 52.27 160.29 52.33 161.41C52.45 163.52 56.04 162.87 56.17 164.26C56.22 164.83 55.70 165.23 54.80 165.23C54.15 165.23 53.50 164.97 53.03 164.63C52.94 164.57 52.85 164.54 52.73 164.54C52.46 164.54 52.23 164.75 52.23 165.03C52.23 165.16 52.28 165.26 52.37 165.34C52.94 165.91 53.89 166.16 54.75 166.16C56.41 166.16 57.36 165.30 57.30 164.10ZM72.45 157.89C72.45 157.54 72.17 157.24 71.77 157.24C71.45 157.24 71.17 157.45 71.10 157.75L69.40 164.30L67.62 157.73C67.54 157.45 67.28 157.25 66.99 157.25C66.68 157.25 66.42 157.45 66.36 157.73L64.56 164.30L62.86 157.75C62.78 157.43 62.48 157.22 62.18 157.22C61.77 157.22 61.51 157.55 61.51 157.89C61.51 157.95 61.52 158.00 61.53 158.07L63.64 165.45C63.73 165.82 64.06 166.08 64.46 166.08L64.49 166.08C64.88 166.08 65.21 165.82 65.32 165.44L66.98 159.29L68.63 165.44C68.72 165.81 69.06 166.08 69.45 166.08L69.48 166.08C69.87 166.08 70.22 165.82 70.32 165.44L72.43 158.07C72.44 158.02 72.45 157.95 72.45 157.89ZM78.99 162.65C78.99 162.40 78.93 162.13 78.88 161.92C78.51 160.51 77.47 159.56 75.95 159.56C74.13 159.56 72.82 161.03 72.82 162.85C72.82 164.83 74.18 166.16 76.06 166.16C76.98 166.16 78.59 165.68 78.59 164.97C78.59 164.53 78.15 164.43 77.86 164.57C77.41 164.91 76.71 165.22 76.17 165.22C74.90 165.22 74.12 164.35 74.03 163.27L78.40 163.27C78.72 163.27 78.99 162.96 78.99 162.65ZM74.03 162.41C74.08 161.54 74.69 160.50 75.94 160.50C77.28 160.50 77.85 161.57 77.88 162.41ZM86.27 162.65C86.27 162.40 86.21 162.13 86.16 161.92C85.79 160.51 84.75 159.56 83.23 159.56C81.41 159.56 80.10 161.03 80.10 162.85C80.10 164.83 81.46 166.16 83.34 166.16C84.26 166.16 85.87 165.68 85.87 164.97C85.87 164.53 85.43 164.43 85.14 164.57C84.69 164.91 83.99 165.22 83.45 165.22C82.18 165.22 81.40 164.35 81.31 163.27L85.68 163.27C86.00 163.27 86.27 162.96 86.27 162.65ZM81.31 162.41C81.36 161.54 81.97 160.50 83.22 160.50C84.56 160.50 85.13 161.57 85.16 162.41ZM92.89 165.51C92.89 165.39 92.85 165.26 92.77 165.17L90.71 162.57L92.66 160.53C92.75 160.42 92.80 160.31 92.80 160.18C92.80 159.89 92.54 159.63 92.25 159.63C92.12 159.63 91.98 159.69 91.88 159.80L88.91 162.92L88.91 157.81C88.91 157.51 88.65 157.25 88.35 157.25C88.02 157.25 87.76 157.51 87.76 157.81L87.76 165.51C87.76 165.82 88.02 166.08 88.33 166.08C88.65 166.08 88.91 165.82 88.91 165.51L88.91 164.26L89.87 163.28L91.86 165.86C91.97 166.01 92.15 166.09 92.32 166.09C92.67 166.09 92.89 165.78 92.89 165.51Z" fill="#22272e" /><path d="M157.26 165.17C157.26 164.74 156.90 164.38 156.47 164.38L153.65 164.38C155.90 162.74 157.12 161.45 157.12 159.97C157.12 158.24 155.65 157.20 153.81 157.20C152.71 157.20 151.26 157.67 150.84 158.33C150.76 158.45 150.72 158.58 150.72 158.71C150.72 159.18 151.10 159.54 151.53 159.54C151.73 159.54 151.89 159.49 152.06 159.37C152.56 159.03 153.16 158.84 153.84 158.84C154.56 158.84 155.25 159.21 155.25 159.97C155.25 160.98 154.21 161.93 150.97 164.32C150.72 164.50 150.58 164.80 150.58 165.10C150.58 165.62 151.00 166 151.45 166L156.47 166C156.90 166 157.26 165.64 157.26 165.17ZM165.36 163.40C165.36 162.94 165.00 162.58 164.57 162.58L164.17 162.58L164.17 158.29C164.17 157.49 163.39 157.12 162.59 157.25C162.03 157.25 161.48 157.55 161.18 158.02L158.28 162.59C158.16 162.78 158.11 162.98 158.11 163.19C158.11 163.78 158.54 164.21 159.06 164.21L162.32 164.21L162.32 165.17C162.32 165.66 162.74 166.08 163.23 166.08C163.75 166.08 164.17 165.66 164.17 165.17L164.17 164.21L164.57 164.21C165.00 164.21 165.36 163.84 165.36 163.40ZM159.98 162.58L162.32 158.97L162.32 162.58ZM168.40 165.36C168.40 164.52 167.85 164.04 167.23 164.04C166.69 164.04 166.22 164.50 166.22 165.08C166.22 165.64 166.61 166.01 167.10 166.01C167.20 166.01 167.31 165.99 167.35 165.97C167.27 166.31 166.99 166.72 166.65 166.99C166.56 167.07 166.52 167.17 166.52 167.27C166.52 167.53 166.79 167.69 167.01 167.69C167.14 167.69 167.26 167.65 167.35 167.56C168.00 166.97 168.40 166.19 168.40 165.36ZM174.89 158.26C174.89 157.72 174.45 157.33 173.99 157.33L169.03 157.33C168.59 157.33 168.22 157.69 168.22 158.12C168.22 158.59 168.59 158.95 169.03 158.95L172.67 158.95L170.08 164.82C170.03 164.93 170.00 165.05 170.00 165.17C170.00 165.64 170.38 166.08 170.93 166.08C171.30 166.08 171.65 165.86 171.80 165.52L174.81 158.63C174.87 158.53 174.89 158.40 174.89 158.26ZM182.50 163.62C182.50 162.44 181.79 161.76 181.27 161.53C181.72 161.32 182.35 160.83 182.35 159.49C182.35 157.99 180.74 157.20 179.01 157.20C177.27 157.20 175.67 157.99 175.67 159.49C175.67 160.83 176.30 161.32 176.74 161.53C176.22 161.76 175.53 162.44 175.53 163.62C175.53 165.25 177.19 166.16 179.01 166.16C180.83 166.16 182.50 165.23 182.50 163.62ZM180.47 159.77C180.47 160.42 179.81 160.80 179.01 160.80C178.22 160.80 177.54 160.42 177.54 159.77C177.54 159.15 178.15 158.78 179.01 158.78C179.86 158.78 180.47 159.15 180.47 159.77ZM180.62 163.52C180.62 164.15 179.90 164.57 179.01 164.57C178.10 164.57 177.40 164.15 177.40 163.52C177.40 162.79 178.21 162.36 179.01 162.36C179.81 162.36 180.62 162.79 180.62 163.52ZM190.45 163.18C190.45 161.33 189.06 160.36 187.50 160.36C186.42 160.36 185.62 160.89 185.28 161.48C185.27 161.41 185.27 161.36 185.27 161.29C185.27 159.92 186.16 158.84 187.44 158.84C187.88 158.84 188.24 158.91 188.57 159.08C188.69 159.15 188.81 159.18 188.94 159.18C189.35 159.18 189.79 158.86 189.79 158.37C189.79 158.24 189.75 158.12 189.70 158.02C189.37 157.45 188.28 157.20 187.44 157.20C184.88 157.20 183.39 159.06 183.39 161.68C183.39 164.13 184.50 166.16 187.14 166.16C189.11 166.16 190.45 164.87 190.45 163.18ZM188.58 163.24C188.58 163.89 188.10 164.52 187.10 164.52C186.28 164.52 185.67 163.96 185.67 163.15C185.67 162.37 186.29 161.81 187.10 161.81C187.93 161.81 188.58 162.37 188.58 163.24ZM193.65 165.36C193.65 164.52 193.09 164.04 192.48 164.04C191.94 164.04 191.47 164.50 191.47 165.08C191.47 165.64 191.86 166.01 192.35 166.01C192.44 166.01 192.56 165.99 192.60 165.97C192.52 166.31 192.23 166.72 191.90 166.99C191.81 167.07 191.77 167.17 191.77 167.27C191.77 167.53 192.04 167.69 192.26 167.69C192.39 167.69 192.51 167.65 192.60 167.56C193.25 166.97 193.65 166.19 193.65 165.36ZM201.61 163.62C201.61 162.44 200.91 161.76 200.38 161.53C200.83 161.32 201.46 160.83 201.46 159.49C201.46 157.99 199.85 157.20 198.12 157.20C196.38 157.20 194.78 157.99 194.78 159.49C194.78 160.83 195.41 161.32 195.85 161.53C195.33 161.76 194.64 162.44 194.64 163.62C194.64 165.25 196.30 166.16 198.12 166.16C199.94 166.16 201.61 165.23 201.61 163.62ZM199.58 159.77C199.58 160.42 198.92 160.80 198.12 160.80C197.33 160.80 196.65 160.42 196.65 159.77C196.65 159.15 197.26 158.78 198.12 158.78C198.97 158.78 199.58 159.15 199.58 159.77ZM199.73 163.52C199.73 164.15 199.01 164.57 198.12 164.57C197.21 164.57 196.51 164.15 196.51 163.52C196.51 162.79 197.32 162.36 198.12 162.36C198.92 162.36 199.73 162.79 199.73 163.52ZM209.49 163.62C209.49 162.44 208.78 161.76 208.26 161.53C208.71 161.32 209.34 160.83 209.34 159.49C209.34 157.99 207.73 157.20 206.00 157.20C204.26 157.20 202.66 157.99 202.66 159.49C202.66 160.83 203.28 161.32 203.73 161.53C203.21 161.76 202.52 162.44 202.52 163.62C202.52 165.25 204.18 166.16 206.00 166.16C207.82 166.16 209.49 165.23 209.49 163.62ZM207.46 159.77C207.46 160.42 206.79 160.80 206.00 160.80C205.21 160.80 204.53 160.42 204.53 159.77C204.53 159.15 205.14 158.78 206.00 158.78C206.85 158.78 207.46 159.15 207.46 159.77ZM207.61 163.52C207.61 164.15 206.89 164.57 206.00 164.57C205.09 164.57 204.39 164.15 204.39 163.52C204.39 162.79 205.20 162.36 206.00 162.36C206.79 162.36 207.61 162.79 207.61 163.52ZM217.56 161.67C217.56 159.44 216.44 157.20 213.97 157.20C211.49 157.20 210.38 159.44 210.38 161.67C210.38 163.91 211.49 166.16 213.97 166.16C216.44 166.16 217.56 163.91 217.56 161.67ZM215.67 161.67C215.67 163.27 215.21 164.52 213.97 164.52C212.72 164.52 212.25 163.27 212.25 161.67C212.25 160.07 212.72 158.84 213.97 158.84C215.21 158.84 215.67 160.07 215.67 161.67Z" fill="#627386" /></g></svg>