<svg xmlns="http://www.w3.org/2000/svg" width="420" height="184" viewBox="0 0 420 184" role="img"><rect x="0.5" y="0.5" width="419" height="183" rx="10" fill="#161b22" stroke="#30363d" /><path d="M30.21 36.59C30.21 35.87 29.59 35.25 28.87 35.25L24.09 35.25C27.90 32.48 29.97 30.30 29.97 27.79C29.97 24.87 27.48 23.11 24.36 23.11C22.51 23.11 20.05 23.90 19.34 25.02C19.21 25.22 19.14 25.44 19.14 25.66C19.14 26.45 19.78 27.07 20.51 27.07C20.84 27.07 21.12 26.98 21.41 26.78C22.25 26.21 23.26 25.88 24.42 25.88C25.63 25.88 26.80 26.52 26.80 27.79C26.80 29.51 25.04 31.11 19.56 35.16C19.14 35.47 18.90 35.98 18.90 36.48C18.90 37.36 19.61 38 20.38 38L28.87 38C29.59 38 30.21 37.38 30.21 36.59ZM35.93 36.92C35.93 35.49 34.98 34.68 33.95 34.68C33.03 34.68 32.23 35.47 32.23 36.44C32.23 37.38 32.89 38.02 33.73 38.02C33.88 38.02 34.08 37.98 34.15 37.96C34.02 38.53 33.53 39.21 32.96 39.67C32.81 39.80 32.74 39.98 32.74 40.16C32.74 40.60 33.20 40.86 33.58 40.86C33.80 40.86 33.99 40.79 34.15 40.64C35.25 39.65 35.93 38.33 35.93 36.92ZM42.24 25.00C42.24 24.01 41.41 23.22 40.42 23.22C39.91 23.22 39.43 23.41 39.10 23.74L35.71 27.18C35.45 27.44 35.31 27.77 35.31 28.10C35.31 28.83 35.93 29.40 36.61 29.40C36.92 29.40 37.23 29.29 37.47 29.05L39.12 27.35L39.12 36.59C39.12 37.43 39.82 38.13 40.66 38.13C41.54 38.13 42.24 37.43 42.24 36.59ZM55.38 24.91C55.38 23.99 54.63 23.33 53.86 23.33L45.46 23.33C44.71 23.33 44.09 23.94 44.09 24.67C44.09 25.46 44.71 26.08 45.46 26.08L51.62 26.08L47.24 36.00C47.15 36.20 47.11 36.39 47.11 36.59C47.11 37.38 47.74 38.13 48.67 38.13C49.31 38.13 49.90 37.76 50.14 37.19L55.25 25.53C55.33 25.35 55.38 25.13 55.38 24.91ZM67.63 34.00C67.81 31.36 66.03 30.43 66.03 30.43C66.03 30.43 67.65 29.60 67.48 27.09C67.30 24.65 65.37 23.11 61.93 23.11C59.91 23.11 58.33 23.70 57.12 24.67C56.81 24.91 56.65 25.26 56.65 25.61C56.65 26.38 57.34 26.93 58.02 26.93C58.28 26.93 58.55 26.87 58.77 26.71C59.62 26.16 60.59 25.88 61.60 25.88C63.14 25.88 64.33 26.23 64.33 27.40C64.33 28.61 63.61 29.18 62.13 29.18C61.08 29.18 60.61 29.77 60.61 30.54C60.61 31.31 61.08 31.93 62.22 31.93C63.72 31.93 64.57 32.46 64.57 33.62C64.57 34.72 63.58 35.49 61.80 35.49C60.79 35.49 59.62 35.14 58.66 34.57C58.41 34.41 58.15 34.35 57.89 34.35C57.16 34.35 56.46 34.94 56.46 35.73C56.46 35.95 56.52 36.15 56.63 36.33C57.31 37.47 59.80 38.26 61.91 38.26C65.43 38.26 67.46 36.75 67.63 34.00ZM73.33 36.92C73.33 35.49 72.38 34.68 71.35 34.68C70.43 34.68 69.63 35.47 69.63 36.44C69.63 37.38 70.29 38.02 71.13 38.02C71.28 38.02 71.48 37.98 71.55 37.96C71.42 38.53 70.93 39.21 70.36 39.67C70.21 39.80 70.14 39.98 70.14 40.16C70.14 40.60 70.60 40.86 70.98 40.86C71.20 40.86 71.39 40.79 71.55 40.64C72.65 39.65 73.33 38.33 73.33 36.92ZM74.89 28.12C74.89 31.25 77.25 32.90 79.89 32.90C81.71 32.90 83.08 31.99 83.65 31.00C83.67 31.11 83.67 31.20 83.67 31.31C83.67 33.64 82.15 35.47 80.00 35.47C79.25 35.47 78.63 35.34 78.08 35.05C77.88 34.94 77.66 34.90 77.44 34.90C76.76 34.90 76.01 35.43 76.01 36.26C76.01 36.48 76.08 36.68 76.17 36.86C76.72 37.82 78.57 38.24 80.00 38.24C84.33 38.24 86.84 35.10 86.84 30.65C86.84 26.52 84.97 23.08 80.50 23.08C77.16 23.08 74.89 25.26 74.89 28.12ZM78.06 28.01C78.06 26.91 78.87 25.86 80.57 25.86C81.95 25.86 82.99 26.80 82.99 28.17C82.99 29.49 81.93 30.43 80.57 30.43C79.16 30.43 78.06 29.49 78.06 28.01ZM100.30 33.23C100.30 30.10 97.95 28.45 95.31 28.45C93.48 28.45 92.12 29.35 91.55 30.34C91.52 30.23 91.52 30.15 91.52 30.04C91.52 27.70 93.04 25.88 95.20 25.88C95.95 25.88 96.56 26.01 97.11 26.30C97.31 26.41 97.53 26.45 97.75 26.45C98.43 26.45 99.18 25.92 99.18 25.09C99.18 24.87 99.11 24.67 99.03 24.49C98.48 23.52 96.63 23.11 95.20 23.11C90.86 23.11 88.36 26.25 88.36 30.70C88.36 34.83 90.23 38.26 94.69 38.26C98.04 38.26 100.30 36.09 100.30 33.23ZM97.13 33.34C97.13 34.44 96.32 35.49 94.63 35.49C93.24 35.49 92.21 34.55 92.21 33.18C92.21 31.86 93.26 30.92 94.63 30.92C96.03 30.92 97.13 31.86 97.13 33.34ZM101.64 28.12C101.64 31.25 104.00 32.90 106.64 32.90C108.46 32.90 109.83 31.99 110.40 31.00C110.42 31.11 110.42 31.20 110.42 31.31C110.42 33.64 108.90 35.47 106.75 35.47C106.00 35.47 105.38 35.34 104.83 35.05C104.64 34.94 104.42 34.90 104.20 34.90C103.51 34.90 102.77 35.43 102.77 36.26C102.77 36.48 102.83 36.68 102.92 36.86C103.47 37.82 105.32 38.24 106.75 38.24C111.08 38.24 113.59 35.10 113.59 30.65C113.59 26.52 111.72 23.08 107.25 23.08C103.91 23.08 101.64 25.26 101.64 28.12ZM104.81 28.01C104.81 26.91 105.63 25.86 107.32 25.86C108.71 25.86 109.74 26.80 109.74 28.17C109.74 29.49 108.68 30.43 107.32 30.43C105.91 30.43 104.81 29.49 104.81 28.01ZM118.63 36.92C118.63 35.49 117.68 34.68 116.65 34.68C115.72 34.68 114.93 35.47 114.93 36.44C114.93 37.38 115.59 38.02 116.43 38.02C116.58 38.02 116.78 37.98 116.85 37.96C116.71 38.53 116.23 39.21 115.66 39.67C115.50 39.80 115.44 39.98 115.44 40.16C115.44 40.60 115.90 40.86 116.27 40.86C116.49 40.86 116.69 40.79 116.85 40.64C117.95 39.65 118.63 38.33 118.63 36.92ZM131.74 36.59C131.74 35.87 131.12 35.25 130.40 35.25L125.62 35.25C129.43 32.48 131.50 30.30 131.50 27.79C131.50 24.87 129.01 23.11 125.89 23.11C124.04 23.11 121.58 23.90 120.87 25.02C120.74 25.22 120.67 25.44 120.67 25.66C120.67 26.45 121.31 27.07 122.04 27.07C122.37 27.07 122.65 26.98 122.94 26.78C123.78 26.21 124.79 25.88 125.95 25.88C127.16 25.88 128.33 26.52 128.33 27.79C128.33 29.51 126.57 31.11 121.09 35.16C120.67 35.47 120.43 35.98 120.43 36.48C120.43 37.36 121.14 38 121.91 38L130.40 38C131.12 38 131.74 37.38 131.74 36.59ZM145.42 33.23C145.42 30.10 143.07 28.45 140.43 28.45C138.60 28.45 137.24 29.35 136.67 30.34C136.65 30.23 136.65 30.15 136.65 30.04C136.65 27.70 138.16 25.88 140.32 25.88C141.07 25.88 141.68 26.01 142.23 26.30C142.43 26.41 142.65 26.45 142.87 26.45C143.55 26.45 144.30 25.92 144.30 25.09C144.30 24.87 144.24 24.67 144.15 24.49C143.60 23.52 141.75 23.11 140.32 23.11C135.99 23.11 133.48 26.25 133.48 30.70C133.48 34.83 135.35 38.26 139.81 38.26C143.16 38.26 145.42 36.09 145.42 33.23ZM142.26 33.34C142.26 34.44 141.44 35.49 139.75 35.49C138.36 35.49 137.33 34.55 137.33 33.18C137.33 31.86 138.38 30.92 139.75 30.92C141.16 30.92 142.26 31.86 142.26 33.34ZM158.05 34.00C158.23 31.36 156.45 30.43 156.45 30.43C156.45 30.43 158.07 29.60 157.90 27.09C157.72 24.65 155.79 23.11 152.35 23.11C150.33 23.11 148.75 23.70 147.54 24.67C147.23 24.91 147.07 25.26 147.07 25.61C147.07 26.38 147.76 26.93 148.44 26.93C148.70 26.93 148.97 26.87 149.19 26.71C150.04 26.16 151.01 25.88 152.02 25.88C153.56 25.88 154.75 26.23 154.75 27.40C154.75 28.61 154.03 29.18 152.55 29.18C151.50 29.18 151.03 29.77 151.03 30.54C151.03 31.31 151.50 31.93 152.64 31.93C154.14 31.93 154.99 32.46 154.99 33.62C154.99 34.72 154.00 35.49 152.22 35.49C151.21 35.49 150.04 35.14 149.08 34.57C148.83 34.41 148.57 34.35 148.31 34.35C147.58 34.35 146.88 34.94 146.88 35.73C146.88 35.95 146.94 36.15 147.05 36.33C147.73 37.47 150.22 38.26 152.33 38.26C155.85 38.26 157.88 36.75 158.05 34.00ZM179.68 30.67C179.68 26.25 176.49 23.33 171.89 23.33L167.86 23.33C166.90 23.33 166.10 24.12 166.10 25.09L166.10 36.24C166.10 37.21 166.90 38 167.86 38L171.89 38C176.49 38 179.68 35.10 179.68 30.67ZM176.49 30.67C176.49 33.16 174.79 35.25 171.89 35.25L169.23 35.25L169.23 26.08L171.89 26.08C174.90 26.08 176.49 28.08 176.49 30.67ZM192.39 32.68C192.39 29.66 190.28 27.11 186.76 27.11C183.26 27.11 181.15 29.66 181.15 32.68C181.15 35.71 183.26 38.26 186.76 38.26C190.28 38.26 192.39 35.71 192.39 32.68ZM189.49 32.68C189.49 34.35 188.50 35.78 186.76 35.78C185.02 35.78 184.06 34.35 184.06 32.68C184.06 31.03 185.02 29.60 186.76 29.60C188.50 29.60 189.49 31.03 189.49 32.68ZM209.58 28.58C209.58 27.88 209.00 27.24 208.19 27.24C207.57 27.24 207.00 27.64 206.85 28.23L205.11 34.52L203.11 28.36C202.89 27.70 202.25 27.24 201.57 27.24C200.82 27.24 200.18 27.70 199.96 28.36L197.96 34.52L196.22 28.23C196.07 27.64 195.50 27.24 194.90 27.24C194.07 27.24 193.49 27.90 193.49 28.58C193.49 28.72 193.52 28.85 193.56 28.98L195.94 36.77C196.18 37.56 196.95 38.13 197.78 38.13L197.83 38.13C198.66 38.13 199.43 37.56 199.68 36.77L201.55 30.76L203.42 36.77C203.66 37.58 204.41 38.13 205.26 38.13L205.31 38.13C206.12 38.13 206.89 37.56 207.13 36.77L209.51 28.98C209.55 28.85 209.58 28.72 209.58 28.58ZM221.35 31.16C221.35 29.09 219.56 27.11 217.23 27.11C215.60 27.11 214.59 27.97 214.17 28.63L214.17 28.61C214.17 27.86 213.56 27.24 212.81 27.24C212.00 27.24 211.38 27.86 211.38 28.61L211.38 36.75C211.38 37.52 212.00 38.13 212.77 38.13C213.56 38.13 214.17 37.52 214.17 36.75L214.17 32.06C214.17 30.54 215.27 29.60 216.37 29.60C217.56 29.60 218.55 30.54 218.55 32.02L218.55 36.75C218.55 37.52 219.17 38.13 219.94 38.13C220.73 38.13 221.35 37.52 221.35 36.75ZM226.91 24.56C226.91 23.81 226.30 23.19 225.55 23.19C224.73 23.19 224.12 23.81 224.12 24.56L224.12 36.75C224.12 37.52 224.73 38.13 225.50 38.13C226.30 38.13 226.91 37.52 226.91 36.75ZM240.24 32.68C240.24 29.66 238.13 27.11 234.61 27.11C231.11 27.11 229.00 29.66 229.00 32.68C229.00 35.71 231.11 38.26 234.61 38.26C238.13 38.26 240.24 35.71 240.24 32.68ZM237.34 32.68C237.34 34.35 236.35 35.78 234.61 35.78C232.87 35.78 231.91 34.35 231.91 32.68C231.91 31.03 232.87 29.60 234.61 29.60C236.35 29.60 237.34 31.03 237.34 32.68ZM251.49 31.14C251.49 28.08 249.26 27.11 246.84 27.11C245.61 27.11 243.24 27.55 242.58 28.61C242.49 28.76 242.42 28.96 242.42 29.16C242.42 29.82 242.97 30.23 243.48 30.23C243.65 30.23 243.83 30.17 243.98 30.08C244.71 29.60 245.52 29.40 246.36 29.40C247.77 29.40 248.69 30.10 248.69 31.18L248.69 31.53L245.33 31.53C243.63 31.53 241.63 32.26 241.63 34.74C241.63 37.12 243.63 38.26 245.33 38.26C246.93 38.26 247.97 37.87 248.69 37.01C248.69 37.49 249.15 38.13 249.90 38.13L250.12 38.13C250.87 38.13 251.49 37.52 251.49 36.75ZM248.69 33.42L248.69 33.91C248.69 35.62 247.35 36.37 246.45 36.37C245.35 36.37 244.45 35.80 244.45 34.81C244.45 33.78 245.35 33.42 246.45 33.42ZM253.60 32.70C253.60 36.24 255.84 38.26 258.53 38.26C259.80 38.26 260.97 37.69 261.58 36.64L261.58 36.75C261.58 37.52 262.20 38.13 262.99 38.13C263.76 38.13 264.38 37.52 264.38 36.75L264.38 24.56C264.38 23.81 263.76 23.19 262.95 23.19C262.20 23.19 261.58 23.81 261.58 24.56L261.58 28.74C260.97 27.66 259.78 27.11 258.53 27.11C255.82 27.11 253.60 29.22 253.60 32.70ZM256.48 32.70C256.48 30.85 257.56 29.60 259.19 29.60C260.31 29.60 261.58 30.78 261.58 32.59L261.58 32.83C261.58 34.61 260.31 35.78 259.19 35.78C257.56 35.78 256.48 34.55 256.48 32.70ZM275.58 34.85C275.58 30.56 269.28 31.88 269.28 30.30C269.28 29.71 269.94 29.24 270.96 29.24C271.81 29.24 272.67 29.49 273.35 29.88C273.51 29.97 273.71 30.01 273.88 30.01C274.45 30.01 274.98 29.55 274.98 28.96C274.98 28.76 274.92 28.56 274.81 28.41C274.21 27.55 272.32 27.11 270.93 27.11C268.14 27.11 266.58 28.67 266.58 30.45C266.58 34.63 272.89 33.20 272.89 34.96C272.89 35.62 272.32 36.11 271.11 36.11C270.19 36.11 269.09 35.73 268.25 35.25C268.07 35.14 267.88 35.10 267.68 35.10C267.08 35.10 266.51 35.60 266.51 36.26C266.51 36.48 266.58 36.68 266.71 36.86C267.37 37.80 269.59 38.26 270.98 38.26C273.93 38.26 275.58 36.79 275.58 34.85Z" fill="#e6edf3" /><path d="M20.26 49.88C20.26 49.54 19.98 49.25 19.64 49.25C19.26 49.25 18.98 49.54 18.98 49.88L18.98 57.44C18.98 57.79 19.26 58.08 19.61 58.08C19.98 58.08 20.26 57.79 20.26 57.44ZM27.55 53.97C27.55 52.64 26.59 51.56 25.27 51.56C24.18 51.56 23.62 52.10 23.32 52.60L23.32 52.20C23.32 51.90 23.06 51.64 22.76 51.64C22.42 51.64 22.16 51.90 22.16 52.20L22.16 57.51C22.16 57.82 22.42 58.08 22.73 58.08C23.06 58.08 23.32 57.82 23.32 57.51L23.32 54.49C23.32 53.42 23.89 52.59 24.89 52.59C25.83 52.59 26.40 53.32 26.40 54.36L26.40 57.51C26.40 57.82 26.66 58.08 26.97 58.08C27.30 58.08 27.55 57.82 27.55 57.51ZM38.97 49.91C38.97 49.58 38.72 49.33 38.41 49.33L32.70 49.33C32.39 49.33 32.14 49.58 32.14 49.89C32.14 50.21 32.39 50.47 32.70 50.47L34.91 50.47L34.91 57.44C34.91 57.79 35.20 58.08 35.55 58.08C35.91 58.08 36.20 57.79 36.20 57.44L36.20 50.47L38.41 50.47C38.72 50.47 38.97 50.21 38.97 49.91ZM44.74 54.85C44.74 53.05 43.53 51.56 41.57 51.56C39.62 51.56 38.41 53.05 38.41 54.85C38.41 56.66 39.62 58.16 41.57 58.16C43.53 58.16 44.74 56.66 44.74 54.85ZM43.53 54.85C43.53 56.06 42.83 57.13 41.57 57.13C40.32 57.13 39.61 56.06 39.61 54.85C39.61 53.66 40.32 52.59 41.57 52.59C42.83 52.59 43.53 53.66 43.53 54.85ZM49.16 57.55C49.16 57.27 48.95 57.06 48.67 57.06C48.54 57.06 48.38 57.13 48.24 57.13C47.86 57.13 47.63 56.83 47.63 56.35L47.63 52.73L48.48 52.73C48.76 52.73 48.98 52.51 48.98 52.24C48.98 51.94 48.76 51.72 48.48 51.72L47.63 51.72L47.63 50.49C47.63 50.19 47.37 49.93 47.05 49.93C46.72 49.93 46.46 50.19 46.46 50.49L46.46 51.72L45.85 51.72C45.56 51.72 45.34 51.94 45.34 52.22C45.34 52.51 45.56 52.73 45.85 52.73L46.46 52.73L46.46 56.62C46.46 57.61 46.98 58.16 47.96 58.16C48.65 58.16 49.16 57.96 49.16 57.55ZM55.26 53.75C55.26 52.15 54.09 51.56 52.74 51.56C51.89 51.56 50.94 51.84 50.34 52.44C50.27 52.53 50.23 52.63 50.23 52.73C50.23 53.01 50.47 53.19 50.71 53.19C50.80 53.19 50.90 53.15 50.99 53.09C51.46 52.72 51.98 52.54 52.57 52.54C53.45 52.54 54.10 53.01 54.10 53.80L54.10 54.15L52.29 54.15C50.99 54.15 49.85 54.66 49.85 56.08C49.85 57.45 50.99 58.16 52.03 58.16C53.01 58.16 53.59 57.86 54.10 57.30L54.10 57.51C54.10 57.88 54.40 58.08 54.63 58.08L54.67 58.08C55.00 58.08 55.26 57.82 55.26 57.51ZM54.10 54.96L54.10 55.84C54.10 56.58 53.26 57.34 52.35 57.34C51.50 57.34 51.02 56.83 51.02 56.10C51.02 55.35 51.62 54.96 52.61 54.96ZM58.27 49.81C58.27 49.51 58.01 49.25 57.71 49.25C57.38 49.25 57.12 49.51 57.12 49.81L57.12 57.51C57.12 57.82 57.38 58.08 57.69 58.08C58.01 58.08 58.27 57.82 58.27 57.51Z" fill="#9aa7b4" /><line x1="18" y1="76" x2="48" y2="76" stroke="#9aa7b4" stroke-opacity="0.4" /><g aria-label="Packages: 108"><circle cx="22" cy="96" r="4" fill="#673bd6" /><path d="M41.38 93.99C41.38 92.55 40.40 91.33 38.62 91.33L35.82 91.33C35.35 91.33 34.98 91.71 34.98 92.17L34.98 99.44C34.98 99.79 35.26 100.08 35.61 100.08C35.98 100.08 36.26 99.79 36.26 99.44L36.26 96.66L38.62 96.66C40.37 96.66 41.38 95.44 41.38 93.99ZM40.06 93.99C40.06 94.89 39.40 95.52 38.45 95.52L36.26 95.52L36.26 92.47L38.45 92.47C39.40 92.47 40.06 93.08 40.06 93.99ZM47.48 95.75C47.48 94.15 46.31 93.56 44.96 93.56C44.11 93.56 43.17 93.84 42.57 94.44C42.49 94.53 42.45 94.63 42.45 94.73C42.45 95.01 42.70 95.19 42.93 95.19C43.02 95.19 43.13 95.15 43.22 95.09C43.69 94.72 44.21 94.54 44.79 94.54C45.67 94.54 46.32 95.01 46.32 95.80L46.32 96.15L44.52 96.15C43.22 96.15 42.07 96.66 42.07 98.08C42.07 99.45 43.22 100.16 44.26 100.16C45.23 100.16 45.82 99.86 46.32 99.30L46.32 99.51C46.32 99.88 46.62 100.08 46.86 100.08L46.90 100.08C47.22 100.08 47.48 99.82 47.48 99.51ZM46.32 96.96L46.32 97.84C46.32 98.58 45.48 99.34 44.57 99.34C43.72 99.34 43.24 98.83 43.24 98.10C43.24 97.35 43.84 96.96 44.83 96.96ZM54.35 99.05C54.35 98.75 54.07 98.54 53.80 98.54C53.67 98.54 53.54 98.58 53.44 98.66C53.08 98.97 52.68 99.13 52.21 99.13C50.97 99.13 50.16 98.17 50.16 96.85C50.16 95.54 50.97 94.59 52.21 94.59C52.67 94.59 53.08 94.73 53.44 95.05C53.54 95.14 53.67 95.19 53.80 95.19C54.09 95.19 54.33 94.96 54.33 94.67C54.33 94.57 54.31 94.47 54.24 94.40C53.81 93.90 53.11 93.56 52.15 93.56C50.26 93.56 48.96 94.98 48.96 96.85C48.96 98.74 50.26 100.16 52.15 100.16C53.08 100.16 53.72 99.84 54.19 99.39C54.29 99.30 54.35 99.17 54.35 99.05ZM60.92 99.51C60.92 99.39 60.88 99.26 60.81 99.17L58.74 96.57L60.69 94.53C60.78 94.42 60.83 94.31 60.83 94.18C60.83 93.89 60.57 93.63 60.29 93.63C60.16 93.63 60.01 93.69 59.91 93.80L56.95 96.92L56.95 91.81C56.95 91.51 56.69 91.25 56.39 91.25C56.05 91.25 55.79 91.51 55.79 91.81L55.79 99.51C55.79 99.82 56.05 100.08 56.36 100.08C56.69 100.08 56.95 99.82 56.95 99.51L56.95 98.26L57.91 97.28L59.90 99.86C60.00 100.01 60.18 100.09 60.35 100.09C60.70 100.09 60.92 99.78 60.92 99.51ZM67.59 95.75C67.59 94.15 66.42 93.56 65.07 93.56C64.23 93.56 63.28 93.84 62.68 94.44C62.60 94.53 62.56 94.63 62.56 94.73C62.56 95.01 62.81 95.19 63.04 95.19C63.13 95.19 63.24 95.15 63.33 95.09C63.80 94.72 64.32 94.54 64.90 94.54C65.78 94.54 66.44 95.01 66.44 95.80L66.44 96.15L64.63 96.15C63.33 96.15 62.18 96.66 62.18 98.08C62.18 99.45 63.33 100.16 64.37 100.16C65.34 100.16 65.93 99.86 66.44 99.30L66.44 99.51C66.44 99.88 66.73 100.08 66.97 100.08L67.01 100.08C67.33 100.08 67.59 99.82 67.59 99.51ZM66.44 96.96L66.44 97.84C66.44 98.58 65.59 99.34 64.68 99.34C63.84 99.34 63.35 98.83 63.35 98.10C63.35 97.35 63.95 96.96 64.94 96.96ZM75.08 94.20C75.08 93.90 74.82 93.64 74.52 93.64C74.18 93.64 73.92 93.90 73.92 94.20L73.92 94.63C73.42 93.95 72.69 93.56 71.86 93.56C70.23 93.56 69.07 94.79 69.07 96.81C69.07 98.86 70.24 100.05 71.86 100.05C72.71 100.05 73.45 99.60 73.92 98.96L73.92 99.79C73.92 101.13 72.96 101.60 71.99 101.60C71.30 101.60 70.75 101.46 70.27 101.05C70.18 100.99 70.09 100.96 69.97 100.96C69.71 100.96 69.48 101.18 69.48 101.46C69.48 101.59 69.53 101.70 69.61 101.78C70.22 102.37 71.10 102.55 71.99 102.55C73.52 102.55 75.08 101.91 75.08 99.75ZM73.92 96.83C73.92 98.11 73.08 99.03 72.04 99.03C70.87 99.03 70.27 98.10 70.27 96.81C70.27 95.50 70.87 94.59 72.04 94.59C73.08 94.59 73.92 95.49 73.92 96.78ZM82.75 96.65C82.75 96.40 82.69 96.13 82.63 95.92C82.27 94.51 81.23 93.56 79.71 93.56C77.89 93.56 76.58 95.03 76.58 96.85C76.58 98.83 77.94 100.16 79.81 100.16C80.73 100.16 82.35 99.67 82.35 98.97C82.35 98.53 81.91 98.43 81.62 98.57C81.16 98.91 80.46 99.22 79.93 99.22C78.66 99.22 77.88 98.35 77.78 97.27L82.15 97.27C82.48 97.27 82.75 96.96 82.75 96.65ZM77.78 96.41C77.84 95.54 78.45 94.50 79.70 94.50C81.03 94.50 81.61 95.57 81.63 96.41ZM88.83 98.10C88.72 95.89 85.12 96.50 84.99 95.37C84.93 94.86 85.48 94.49 86.27 94.49C86.87 94.49 87.43 94.68 87.83 94.97C87.91 95.03 88.00 95.06 88.11 95.06C88.34 95.06 88.56 94.86 88.56 94.61C88.56 94.50 88.52 94.40 88.44 94.32C87.95 93.84 87.16 93.56 86.26 93.56C84.73 93.56 83.80 94.29 83.87 95.41C83.99 97.52 87.57 96.87 87.70 98.26C87.76 98.83 87.24 99.23 86.34 99.23C85.69 99.23 85.04 98.97 84.57 98.64C84.48 98.57 84.39 98.54 84.27 98.54C84.00 98.54 83.76 98.75 83.76 99.03C83.76 99.16 83.82 99.26 83.91 99.34C84.48 99.91 85.43 100.16 86.29 100.16C87.95 100.16 88.90 99.30 88.83 98.10Z" fill="#e6edf3" /><path d="M201.20 92.32C201.20 91.73 200.71 91.26 200.13 91.26C199.83 91.26 199.54 91.38 199.34 91.58L197.34 93.60C197.19 93.76 197.11 93.95 197.11 94.15C197.11 94.58 197.47 94.92 197.88 94.92C198.06 94.92 198.24 94.85 198.38 94.71L199.36 93.71L199.36 99.17C199.36 99.66 199.77 100.08 200.27 100.08C200.79 100.08 201.20 99.66 201.20 99.17ZM209.68 95.67C209.68 93.44 208.56 91.20 206.09 91.20C203.61 91.20 202.50 93.44 202.50 95.67C202.50 97.91 203.61 100.16 206.09 100.16C208.56 100.16 209.68 97.91 209.68 95.67ZM207.79 95.67C207.79 97.27 207.33 98.52 206.09 98.52C204.84 98.52 204.38 97.27 204.38 95.67C204.38 94.07 204.84 92.84 206.09 92.84C207.33 92.84 207.79 94.07 207.79 95.67ZM217.54 97.62C217.54 96.44 216.84 95.76 216.32 95.53C216.76 95.32 217.40 94.83 217.40 93.49C217.40 91.99 215.79 91.20 214.06 91.20C212.32 91.20 210.72 91.99 210.72 93.49C210.72 94.83 211.34 95.32 211.79 95.53C211.27 95.76 210.58 96.44 210.58 97.62C210.58 99.25 212.24 100.16 214.06 100.16C215.88 100.16 217.54 99.23 217.54 97.62ZM215.52 93.77C215.52 94.42 214.85 94.80 214.06 94.80C213.27 94.80 212.59 94.42 212.59 93.77C212.59 93.15 213.20 92.78 214.06 92.78C214.91 92.78 215.52 93.15 215.52 93.77ZM215.67 97.52C215.67 98.15 214.94 98.57 214.06 98.57C213.15 98.57 212.45 98.15 212.45 97.52C212.45 96.79 213.25 96.36 214.06 96.36C214.85 96.36 215.67 96.79 215.67 97.52Z" fill="#9aa7b4" /></g><g aria-label="Organizations: 8"><circle cx="22" cy="118" r="4" fill="#2c96f2" /><path d="M43.33 117.67C43.33 115.10 41.54 113.19 38.97 113.19C36.38 113.19 34.60 115.10 34.60 117.67C34.60 120.25 36.38 122.16 38.97 122.16C41.54 122.16 43.33 120.25 43.33 117.67ZM42.01 117.67C42.01 119.58 40.81 121.01 38.97 121.01C37.11 121.01 35.94 119.58 35.94 117.67C35.94 115.75 37.11 114.33 38.97 114.33C40.81 114.33 42.01 115.75 42.01 117.67ZM48.18 116.15C48.18 115.85 47.96 115.63 47.66 115.63C46.96 115.63 46.39 116.22 46.04 116.70L46.04 116.20C46.04 115.90 45.78 115.64 45.48 115.64C45.14 115.64 44.88 115.90 44.88 116.20L44.88 121.51C44.88 121.82 45.13 122.06 45.44 122.08L45.45 122.08C45.78 122.08 46.04 121.82 46.04 121.51L46.04 118.28C46.04 117.46 46.61 116.81 47.60 116.76C47.92 116.75 48.18 116.49 48.18 116.15ZM54.90 116.20C54.90 115.90 54.64 115.64 54.34 115.64C54.01 115.64 53.75 115.90 53.75 116.20L53.75 116.63C53.24 115.95 52.51 115.56 51.68 115.56C50.05 115.56 48.90 116.79 48.90 118.81C48.90 120.86 50.07 122.05 51.68 122.05C52.54 122.05 53.28 121.60 53.75 120.96L53.75 121.79C53.75 123.13 52.78 123.60 51.81 123.60C51.12 123.60 50.57 123.46 50.09 123.05C50.00 122.99 49.91 122.96 49.80 122.96C49.53 122.96 49.30 123.18 49.30 123.46C49.30 123.59 49.35 123.70 49.43 123.78C50.04 124.37 50.93 124.55 51.81 124.55C53.34 124.55 54.90 123.91 54.90 121.75ZM53.75 118.83C53.75 120.11 52.90 121.03 51.86 121.03C50.69 121.03 50.09 120.10 50.09 118.81C50.09 117.50 50.69 116.59 51.86 116.59C52.90 116.59 53.75 117.49 53.75 118.78ZM61.82 117.75C61.82 116.15 60.65 115.56 59.30 115.56C58.45 115.56 57.50 115.84 56.91 116.44C56.83 116.53 56.79 116.63 56.79 116.73C56.79 117.01 57.04 117.19 57.27 117.19C57.36 117.19 57.46 117.15 57.56 117.09C58.02 116.72 58.54 116.54 59.13 116.54C60.01 116.54 60.66 117.01 60.66 117.80L60.66 118.15L58.86 118.15C57.56 118.15 56.41 118.66 56.41 120.08C56.41 121.45 57.56 122.16 58.60 122.16C59.57 122.16 60.16 121.86 60.66 121.30L60.66 121.51C60.66 121.88 60.96 122.08 61.20 122.08L61.23 122.08C61.56 122.08 61.82 121.82 61.82 121.51ZM60.66 118.96L60.66 119.84C60.66 120.58 59.82 121.34 58.91 121.34C58.06 121.34 57.58 120.83 57.58 120.10C57.58 119.35 58.18 118.96 59.17 118.96ZM69.07 117.97C69.07 116.64 68.11 115.56 66.79 115.56C65.69 115.56 65.13 116.10 64.84 116.61L64.84 116.20C64.84 115.90 64.58 115.64 64.28 115.64C63.94 115.64 63.68 115.90 63.68 116.20L63.68 121.51C63.68 121.82 63.94 122.08 64.25 122.08C64.58 122.08 64.84 121.82 64.84 121.51L64.84 118.49C64.84 117.42 65.41 116.59 66.41 116.59C67.34 116.59 67.92 117.32 67.92 118.36L67.92 121.51C67.92 121.82 68.18 122.08 68.49 122.08C68.81 122.08 69.07 121.82 69.07 121.51ZM71.52 113.39C71.11 113.39 70.78 113.73 70.78 114.15C70.78 114.55 71.11 114.89 71.52 114.89C71.93 114.89 72.26 114.55 72.26 114.15C72.26 113.73 71.93 113.39 71.52 113.39ZM72.10 116.20C72.10 115.90 71.84 115.64 71.54 115.64C71.21 115.64 70.95 115.90 70.95 116.20L70.95 121.51C70.95 121.82 71.21 122.08 71.52 122.08C71.84 122.08 72.10 121.82 72.10 121.51ZM78.63 121.48C78.63 121.22 78.41 121.00 78.15 121.00L75.18 121.00L78.45 116.66C78.52 116.55 78.56 116.42 78.56 116.29C78.56 115.95 78.30 115.72 78.04 115.72L74.09 115.72C73.82 115.72 73.60 115.94 73.60 116.22C73.60 116.51 73.82 116.73 74.09 116.73L76.96 116.73L73.74 121.04C73.66 121.14 73.61 121.27 73.61 121.42C73.61 121.75 73.86 122 74.16 122L78.15 122C78.41 122 78.63 121.78 78.63 121.48ZM85.18 117.75C85.18 116.15 84.01 115.56 82.66 115.56C81.81 115.56 80.86 115.84 80.27 116.44C80.19 116.53 80.15 116.63 80.15 116.73C80.15 117.01 80.40 117.19 80.63 117.19C80.72 117.19 80.83 117.15 80.92 117.09C81.38 116.72 81.90 116.54 82.49 116.54C83.37 116.54 84.02 117.01 84.02 117.80L84.02 118.15L82.22 118.15C80.92 118.15 79.77 118.66 79.77 120.08C79.77 121.45 80.92 122.16 81.96 122.16C82.93 122.16 83.52 121.86 84.02 121.30L84.02 121.51C84.02 121.88 84.32 122.08 84.56 122.08L84.60 122.08C84.92 122.08 85.18 121.82 85.18 121.51ZM84.02 118.96L84.02 119.84C84.02 120.58 83.18 121.34 82.27 121.34C81.42 121.34 80.94 120.83 80.94 120.10C80.94 119.35 81.54 118.96 82.53 118.96ZM89.97 121.55C89.97 121.27 89.76 121.06 89.47 121.06C89.34 121.06 89.19 121.13 89.04 121.13C88.67 121.13 88.43 120.83 88.43 120.35L88.43 116.73L89.29 116.73C89.56 116.73 89.78 116.51 89.78 116.24C89.78 115.94 89.56 115.72 89.29 115.72L88.43 115.72L88.43 114.49C88.43 114.19 88.17 113.93 87.86 113.93C87.52 113.93 87.26 114.19 87.26 114.49L87.26 115.72L86.65 115.72C86.36 115.72 86.14 115.94 86.14 116.22C86.14 116.51 86.36 116.73 86.65 116.73L87.26 116.73L87.26 120.62C87.26 121.61 87.78 122.16 88.77 122.16C89.46 122.16 89.97 121.96 89.97 121.55ZM91.59 113.39C91.19 113.39 90.85 113.73 90.85 114.15C90.85 114.55 91.19 114.89 91.59 114.89C92.01 114.89 92.33 114.55 92.33 114.15C92.33 113.73 92.01 113.39 91.59 113.39ZM92.17 116.20C92.17 115.90 91.91 115.64 91.62 115.64C91.28 115.64 91.02 115.90 91.02 116.20L91.02 121.51C91.02 121.82 91.28 122.08 91.59 122.08C91.91 122.08 92.17 121.82 92.17 121.51ZM100.00 118.85C100.00 117.05 98.79 115.56 96.83 115.56C94.88 115.56 93.67 117.05 93.67 118.85C93.67 120.66 94.88 122.16 96.83 122.16C98.79 122.16 100.00 120.66 100.00 118.85ZM98.79 118.85C98.79 120.06 98.09 121.13 96.83 121.13C95.58 121.13 94.87 120.06 94.87 118.85C94.87 117.66 95.58 116.59 96.83 116.59C98.09 116.59 98.79 117.66 98.79 118.85ZM106.89 117.97C106.89 116.64 105.93 115.56 104.60 115.56C103.51 115.56 102.95 116.10 102.65 116.61L102.65 116.20C102.65 115.90 102.39 115.64 102.09 115.64C101.76 115.64 101.50 115.90 101.50 116.20L101.50 121.51C101.50 121.82 101.76 122.08 102.07 122.08C102.39 122.08 102.65 121.82 102.65 121.51L102.65 118.49C102.65 117.42 103.22 116.59 104.23 116.59C105.16 116.59 105.73 117.32 105.73 118.36L105.73 121.51C105.73 121.82 105.99 122.08 106.31 122.08C106.63 122.08 106.89 121.82 106.89 121.51ZM113.36 120.10C113.25 117.89 109.65 118.50 109.52 117.37C109.46 116.86 110.01 116.49 110.80 116.49C111.40 116.49 111.96 116.68 112.36 116.97C112.44 117.03 112.53 117.06 112.64 117.06C112.87 117.06 113.09 116.86 113.09 116.61C113.09 116.50 113.05 116.40 112.97 116.32C112.48 115.84 111.69 115.56 110.79 115.56C109.26 115.56 108.33 116.29 108.40 117.41C108.52 119.52 112.10 118.87 112.23 120.26C112.29 120.83 111.77 121.23 110.87 121.23C110.22 121.23 109.57 120.97 109.10 120.64C109.01 120.57 108.92 120.54 108.80 120.54C108.53 120.54 108.29 120.75 108.29 121.03C108.29 121.16 108.35 121.26 108.44 121.34C109.01 121.91 109.96 122.16 110.82 122.16C112.48 122.16 113.43 121.30 113.36 120.10Z" fill="#e6edf3" /><path d="M217.54 119.62C217.54 118.44 216.84 117.76 216.32 117.53C216.76 117.32 217.40 116.83 217.40 115.49C217.40 113.99 215.79 113.20 214.06 113.20C212.32 113.20 210.72 113.99 210.72 115.49C210.72 116.83 211.34 117.32 211.79 117.53C211.27 117.76 210.58 118.44 210.58 119.62C210.58 121.25 212.24 122.16 214.06 122.16C215.88 122.16 217.54 121.23 217.54 119.62ZM215.52 115.77C215.52 116.42 214.85 116.80 214.06 116.80C213.27 116.80 212.59 116.42 212.59 115.77C212.59 115.15 213.20 114.78 214.06 114.78C214.91 114.78 215.52 115.15 215.52 115.77ZM215.67 119.52C215.67 120.15 214.94 120.57 214.06 120.57C213.15 120.57 212.45 120.15 212.45 119.52C212.45 118.79 213.25 118.36 214.06 118.36C214.85 118.36 215.67 118.79 215.67 119.52Z" fill="#9aa7b4" /></g><g aria-label="Versions Published: 14,655"><circle cx="22" cy="140" r="4" fill="#00a5fe" /><path d="M42.28 135.93C42.28 135.58 42.00 135.25 41.59 135.25C41.31 135.25 41.06 135.42 40.97 135.68L38.32 142.60L35.68 135.68C35.57 135.41 35.31 135.25 35.05 135.25C34.64 135.25 34.35 135.62 34.35 135.93C34.35 136.02 34.36 136.10 34.40 136.17L37.28 143.39C37.43 143.81 37.85 144.08 38.29 144.08L38.36 144.08C38.78 144.08 39.20 143.81 39.37 143.39L42.24 136.17C42.27 136.10 42.28 136.00 42.28 135.93ZM48.60 140.65C48.60 140.40 48.53 140.13 48.48 139.92C48.12 138.51 47.08 137.56 45.56 137.56C43.74 137.56 42.42 139.03 42.42 140.85C42.42 142.83 43.79 144.16 45.66 144.16C46.58 144.16 48.20 143.68 48.20 142.97C48.20 142.53 47.75 142.43 47.47 142.57C47.01 142.91 46.31 143.22 45.78 143.22C44.50 143.22 43.72 142.35 43.63 141.27L48.00 141.27C48.33 141.27 48.60 140.96 48.60 140.65ZM43.63 140.41C43.69 139.54 44.30 138.50 45.54 138.50C46.88 138.50 47.46 139.57 47.48 140.41ZM53.38 138.15C53.38 137.85 53.16 137.63 52.86 137.63C52.16 137.63 51.59 138.22 51.24 138.70L51.24 138.20C51.24 137.90 50.98 137.64 50.68 137.64C50.34 137.64 50.08 137.90 50.08 138.20L50.08 143.51C50.08 143.82 50.33 144.06 50.64 144.08L50.65 144.08C50.98 144.08 51.24 143.82 51.24 143.51L51.24 140.28C51.24 139.46 51.81 138.81 52.80 138.76C53.12 138.75 53.38 138.49 53.38 138.15ZM59.08 142.10C58.96 139.89 55.36 140.50 55.23 139.37C55.18 138.87 55.72 138.49 56.52 138.49C57.11 138.49 57.67 138.68 58.08 138.97C58.15 139.03 58.25 139.06 58.35 139.06C58.58 139.06 58.80 138.87 58.80 138.60C58.80 138.50 58.77 138.40 58.69 138.32C58.19 137.84 57.40 137.56 56.50 137.56C54.97 137.56 54.05 138.29 54.11 139.41C54.23 141.52 57.82 140.87 57.95 142.26C58.00 142.83 57.48 143.23 56.58 143.23C55.93 143.23 55.28 142.97 54.81 142.63C54.72 142.57 54.63 142.54 54.51 142.54C54.24 142.54 54.01 142.75 54.01 143.03C54.01 143.16 54.06 143.26 54.15 143.34C54.72 143.91 55.67 144.16 56.53 144.16C58.19 144.16 59.14 143.30 59.08 142.10ZM61.13 135.39C60.73 135.39 60.39 135.73 60.39 136.15C60.39 136.55 60.73 136.89 61.13 136.89C61.55 136.89 61.87 136.55 61.87 136.15C61.87 135.73 61.55 135.39 61.13 135.39ZM61.72 138.20C61.72 137.90 61.46 137.64 61.16 137.64C60.82 137.64 60.56 137.90 60.56 138.20L60.56 143.51C60.56 143.82 60.82 144.08 61.13 144.08C61.46 144.08 61.72 143.82 61.72 143.51ZM69.54 140.85C69.54 139.05 68.33 137.56 66.37 137.56C64.42 137.56 63.21 139.05 63.21 140.85C63.21 142.66 64.42 144.16 66.37 144.16C68.33 144.16 69.54 142.66 69.54 140.85ZM68.33 140.85C68.33 142.06 67.63 143.13 66.37 143.13C65.12 143.13 64.41 142.06 64.41 140.85C64.41 139.66 65.12 138.59 66.37 138.59C67.63 138.59 68.33 139.66 68.33 140.85ZM76.43 139.97C76.43 138.64 75.47 137.56 74.14 137.56C73.05 137.56 72.49 138.10 72.19 138.60L72.19 138.20C72.19 137.90 71.93 137.64 71.64 137.64C71.30 137.64 71.04 137.90 71.04 138.20L71.04 143.51C71.04 143.82 71.30 144.08 71.61 144.08C71.93 144.08 72.19 143.82 72.19 143.51L72.19 140.49C72.19 139.42 72.77 138.59 73.77 138.59C74.70 138.59 75.28 139.32 75.28 140.36L75.28 143.51C75.28 143.82 75.54 144.08 75.85 144.08C76.17 144.08 76.43 143.82 76.43 143.51ZM82.91 142.10C82.79 139.89 79.19 140.50 79.06 139.37C79.01 138.87 79.55 138.49 80.35 138.49C80.94 138.49 81.50 138.68 81.91 138.97C81.98 139.03 82.07 139.06 82.18 139.06C82.41 139.06 82.63 138.87 82.63 138.60C82.63 138.50 82.59 138.40 82.52 138.32C82.02 137.84 81.23 137.56 80.33 137.56C78.80 137.56 77.88 138.29 77.94 139.41C78.06 141.52 81.65 140.87 81.78 142.26C81.83 142.83 81.31 143.23 80.41 143.23C79.76 143.23 79.11 142.97 78.64 142.63C78.55 142.57 78.46 142.54 78.34 142.54C78.07 142.54 77.84 142.75 77.84 143.03C77.84 143.16 77.89 143.26 77.98 143.34C78.55 143.91 79.50 144.16 80.36 144.16C82.02 144.16 82.97 143.30 82.91 142.10ZM94.18 137.99C94.18 136.55 93.19 135.33 91.41 135.33L88.61 135.33C88.15 135.33 87.77 135.71 87.77 136.17L87.77 143.44C87.77 143.79 88.05 144.08 88.41 144.08C88.77 144.08 89.06 143.79 89.06 143.44L89.06 140.66L91.41 140.66C93.16 140.66 94.18 139.44 94.18 137.99ZM92.85 137.99C92.85 138.89 92.19 139.51 91.24 139.51L89.06 139.51L89.06 136.47L91.24 136.47C92.19 136.47 92.85 137.08 92.85 137.99ZM100.90 138.20C100.90 137.90 100.64 137.64 100.34 137.64C100.00 137.64 99.74 137.90 99.74 138.20L99.74 141.19C99.74 142.26 99.06 143.13 98.13 143.13C97.19 143.13 96.66 142.41 96.66 141.37L96.66 138.20C96.66 137.90 96.40 137.64 96.10 137.64C95.76 137.64 95.50 137.90 95.50 138.20L95.50 141.78C95.50 143.10 96.44 144.16 97.77 144.16C98.86 144.16 99.40 143.68 99.74 143.14L99.74 143.51C99.74 143.82 100.00 144.08 100.31 144.08C100.64 144.08 100.90 143.82 100.90 143.51ZM108.78 140.87C108.78 138.85 107.74 137.56 106.11 137.56C105.15 137.56 104.42 137.96 103.91 138.63L103.91 135.81C103.91 135.51 103.65 135.25 103.36 135.25C103.02 135.25 102.76 135.51 102.76 135.81L102.76 143.51C102.76 143.82 103.02 144.08 103.33 144.08C103.65 144.08 103.91 143.82 103.91 143.51L103.91 143.10C104.38 143.73 105.14 144.16 105.98 144.16C107.61 144.16 108.78 142.92 108.78 140.87ZM107.57 140.87C107.57 142.18 106.98 143.13 105.79 143.13C104.95 143.13 103.91 142.22 103.91 140.92L103.91 140.83C103.91 139.54 104.69 138.59 105.79 138.59C106.98 138.59 107.57 139.55 107.57 140.87ZM111.43 135.81C111.43 135.51 111.17 135.25 110.87 135.25C110.53 135.25 110.27 135.51 110.27 135.81L110.27 143.51C110.27 143.82 110.53 144.08 110.84 144.08C111.17 144.08 111.43 143.82 111.43 143.51ZM113.87 135.39C113.47 135.39 113.13 135.73 113.13 136.15C113.13 136.55 113.47 136.89 113.87 136.89C114.29 136.89 114.61 136.55 114.61 136.15C114.61 135.73 114.29 135.39 113.87 135.39ZM114.46 138.20C114.46 137.90 114.20 137.64 113.90 137.64C113.56 137.64 113.30 137.90 113.30 138.20L113.30 143.51C113.30 143.82 113.56 144.08 113.87 144.08C114.20 144.08 114.46 143.82 114.46 143.51ZM120.93 142.10C120.81 139.89 117.21 140.50 117.08 139.37C117.03 138.87 117.58 138.49 118.37 138.49C118.97 138.49 119.53 138.68 119.93 138.97C120.01 139.03 120.10 139.06 120.20 139.06C120.44 139.06 120.66 138.87 120.66 138.60C120.66 138.50 120.62 138.40 120.54 138.32C120.05 137.84 119.25 137.56 118.36 137.56C116.82 137.56 115.90 138.29 115.96 139.41C116.08 141.52 119.67 140.87 119.80 142.26C119.85 142.83 119.33 143.23 118.43 143.23C117.78 143.23 117.13 142.97 116.67 142.63C116.58 142.57 116.48 142.54 116.37 142.54C116.09 142.54 115.86 142.75 115.86 143.03C115.86 143.16 115.91 143.26 116.00 143.34C116.58 143.91 117.52 144.16 118.38 144.16C120.05 144.16 121.00 143.30 120.93 142.10ZM127.82 139.94C127.82 138.62 126.87 137.56 125.55 137.56C124.44 137.56 123.87 138.10 123.57 138.60L123.57 135.81C123.57 135.51 123.31 135.25 123.01 135.25C122.67 135.25 122.41 135.51 122.41 135.81L122.41 143.51C122.41 143.82 122.67 144.08 122.98 144.08C123.31 144.08 123.57 143.82 123.57 143.51L123.57 140.56C123.57 139.38 124.19 138.59 125.18 138.59C126.12 138.59 126.66 139.29 126.66 140.33L126.66 143.51C126.66 143.82 126.92 144.08 127.24 144.08C127.56 144.08 127.82 143.82 127.82 143.51ZM135.49 140.65C135.49 140.40 135.43 140.13 135.37 139.92C135.01 138.51 133.97 137.56 132.45 137.56C130.63 137.56 129.32 139.03 129.32 140.85C129.32 142.83 130.68 144.16 132.55 144.16C133.48 144.16 135.09 143.68 135.09 142.97C135.09 142.53 134.65 142.43 134.36 142.57C133.90 142.91 133.20 143.22 132.67 143.22C131.40 143.22 130.62 142.35 130.52 141.27L134.89 141.27C135.22 141.27 135.49 140.96 135.49 140.65ZM130.52 140.41C130.58 139.54 131.19 138.50 132.44 138.50C133.77 138.50 134.35 139.57 134.37 140.41ZM142.61 135.81C142.61 135.51 142.35 135.25 142.06 135.25C141.72 135.25 141.46 135.51 141.46 135.81L141.46 138.63C140.95 137.96 140.34 137.56 139.39 137.56C137.75 137.56 136.60 138.85 136.60 140.87C136.60 142.92 137.77 144.16 139.39 144.16C140.37 144.16 140.98 143.73 141.46 143.10L141.46 143.51C141.46 143.82 141.72 144.08 142.03 144.08C142.35 144.08 142.61 143.82 142.61 143.51ZM141.46 140.91C141.46 142.21 140.81 143.13 139.69 143.13C138.52 143.13 137.79 142.18 137.79 140.87C137.79 139.55 138.52 138.59 139.69 138.59C140.81 138.59 141.46 139.54 141.46 140.83Z" fill="#e6edf3" /><path d="M182.61 136.32C182.61 135.73 182.12 135.26 181.53 135.26C181.24 135.26 180.95 135.38 180.75 135.58L178.75 137.60C178.60 137.76 178.52 137.96 178.52 138.15C178.52 138.58 178.88 138.92 179.29 138.92C179.47 138.92 179.65 138.85 179.79 138.71L180.77 137.71L180.77 143.17C180.77 143.66 181.18 144.08 181.68 144.08C182.20 144.08 182.61 143.66 182.61 143.17ZM190.99 141.40C190.99 140.94 190.62 140.58 190.19 140.58L189.79 140.58L189.79 136.29C189.79 135.49 189.01 135.12 188.22 135.25C187.66 135.25 187.10 135.55 186.80 136.02L183.90 140.59C183.78 140.78 183.73 140.98 183.73 141.19C183.73 141.78 184.16 142.21 184.68 142.21L187.94 142.21L187.94 143.17C187.94 143.66 188.36 144.08 188.85 144.08C189.37 144.08 189.79 143.66 189.79 143.17L189.79 142.21L190.19 142.21C190.62 142.21 190.99 141.84 190.99 141.40ZM185.60 140.58L187.94 136.97L187.94 140.58ZM194.03 143.36C194.03 142.52 193.47 142.04 192.86 142.04C192.31 142.04 191.84 142.50 191.84 143.08C191.84 143.64 192.23 144.01 192.73 144.01C192.82 144.01 192.94 143.99 192.97 143.97C192.90 144.31 192.61 144.72 192.27 144.99C192.18 145.07 192.14 145.17 192.14 145.27C192.14 145.53 192.42 145.69 192.64 145.69C192.77 145.69 192.88 145.65 192.97 145.56C193.62 144.97 194.03 144.19 194.03 143.36ZM201.79 141.18C201.79 139.33 200.40 138.36 198.84 138.36C197.76 138.36 196.95 138.89 196.61 139.48C196.60 139.41 196.60 139.36 196.60 139.29C196.60 137.92 197.50 136.84 198.77 136.84C199.21 136.84 199.58 136.91 199.90 137.08C200.02 137.15 200.15 137.18 200.28 137.18C200.68 137.18 201.13 136.86 201.13 136.37C201.13 136.24 201.09 136.12 201.03 136.02C200.71 135.45 199.62 135.20 198.77 135.20C196.21 135.20 194.73 137.06 194.73 139.68C194.73 142.13 195.83 144.16 198.47 144.16C200.45 144.16 201.79 142.87 201.79 141.18ZM199.92 141.24C199.92 141.89 199.44 142.52 198.43 142.52C197.62 142.52 197.00 141.96 197.00 141.15C197.00 140.37 197.63 139.81 198.43 139.81C199.27 139.81 199.92 140.37 199.92 141.24ZM209.64 141.15C209.64 139.40 208.33 138.34 206.86 138.34C206.07 138.34 205.36 138.66 204.95 139.07L204.95 136.95L208.34 136.95C208.77 136.95 209.13 136.59 209.13 136.15C209.13 135.69 208.77 135.33 208.34 135.33L204.14 135.33C203.57 135.33 203.10 135.80 203.10 136.37L203.10 139.70C203.10 140.20 203.47 140.58 204.04 140.58C204.30 140.58 204.54 140.50 204.75 140.36C205.22 140.05 205.68 139.94 206.21 139.94C207.20 139.94 207.77 140.46 207.77 141.23C207.77 141.93 207.18 142.52 206.16 142.52C205.53 142.52 204.93 142.35 204.43 142.04C204.27 141.95 204.10 141.89 203.95 141.89C203.49 141.89 203.06 142.25 203.06 142.73C203.06 142.86 203.10 142.99 203.17 143.10C203.57 143.78 205.04 144.16 206.17 144.16C208.26 144.16 209.64 143.00 209.64 141.15ZM217.54 141.15C217.54 139.40 216.23 138.34 214.76 138.34C213.97 138.34 213.27 138.66 212.85 139.07L212.85 136.95L216.24 136.95C216.67 136.95 217.04 136.59 217.04 136.15C217.04 135.69 216.67 135.33 216.24 135.33L212.05 135.33C211.47 135.33 211.01 135.80 211.01 136.37L211.01 139.70C211.01 140.20 211.37 140.58 211.94 140.58C212.20 140.58 212.45 140.50 212.66 140.36C213.12 140.05 213.58 139.94 214.11 139.94C215.10 139.94 215.67 140.46 215.67 141.23C215.67 141.93 215.09 142.52 214.06 142.52C213.44 142.52 212.84 142.35 212.33 142.04C212.18 141.95 212.01 141.89 211.85 141.89C211.40 141.89 210.97 142.25 210.97 142.73C210.97 142.86 211.01 142.99 211.07 143.10C211.47 143.78 212.94 144.16 214.07 144.16C216.17 144.16 217.54 143.00 217.54 141.15Z" fill="#9aa7b4" /></g><g aria-label="This Week: 21,132,315"><circle cx="22" cy="162" r="4" fill="#00d559" /><path d="M41.14 157.91C41.14 157.58 40.89 157.33 40.58 157.33L34.87 157.33C34.56 157.33 34.31 157.58 34.31 157.89C34.31 158.21 34.56 158.47 34.87 158.47L37.08 158.47L37.08 165.44C37.08 165.79 37.37 166.08 37.72 166.08C38.08 166.08 38.37 165.79 38.37 165.44L38.37 158.47L40.58 158.47C40.89 158.47 41.14 158.21 41.14 157.91ZM47.79 161.94C47.79 160.62 46.84 159.56 45.52 159.56C44.41 159.56 43.84 160.10 43.54 160.60L43.54 157.81C43.54 157.51 43.28 157.25 42.98 157.25C42.64 157.25 42.38 157.51 42.38 157.81L42.38 165.51C42.38 165.82 42.64 166.08 42.96 166.08C43.28 166.08 43.54 165.82 43.54 165.51L43.54 162.56C43.54 161.38 44.17 160.59 45.15 160.59C46.09 160.59 46.64 161.29 46.64 162.33L46.64 165.51C46.64 165.82 46.90 166.08 47.21 166.08C47.53 166.08 47.79 165.82 47.79 165.51ZM50.24 157.39C49.83 157.39 49.50 157.73 49.50 158.15C49.50 158.55 49.83 158.89 50.24 158.89C50.65 158.89 50.98 158.55 50.98 158.15C50.98 157.73 50.65 157.39 50.24 157.39ZM50.82 160.20C50.82 159.90 50.56 159.64 50.26 159.64C49.92 159.64 49.66 159.90 49.66 160.20L49.66 165.51C49.66 165.82 49.92 166.08 50.24 166.08C50.56 166.08 50.82 165.82 50.82 165.51ZM57.30 164.10C57.18 161.89 53.58 162.50 53.45 161.37C53.40 160.87 53.94 160.49 54.73 160.49C55.33 160.49 55.89 160.68 56.30 160.97C56.37 161.03 56.46 161.06 56.57 161.06C56.80 161.06 57.02 160.87 57.02 160.60C57.02 160.50 56.98 160.40 56.91 160.32C56.41 159.84 55.62 159.56 54.72 159.56C53.19 159.56 52.27 160.29 52.33 161.41C52.45 163.52 56.04 162.87 56.17 164.26C56.22 164.83 55.70 165.23 54.80 165.23C54.15 165.23 53.50 164.97 53.03 164.63C52.94 164.57 52.85 164.54 52.73 164.54C52.46 164.54 52.23 164.75 52.23 165.03C52.23 165.16 52.28 165.26 52.37 165.34C52.94 165.91 53.89 166.16 54.75 166.16C56.41 166.16 57.36 165.30 57.30 164.10ZM72.45 157.89C72.45 157.54 72.17 157.24 71.77 157.24C71.45 157.24 71.17 157.45 71.10 157.75L69.40 164.30L67.62 157.73C67.54 157.45 67.28 157.25 66.99 157.25C66.68 157.25 66.42 157.45 66.36 157.73L64.56 164.30L62.86 157.75C62.78 157.43 62.48 157.22 62.18 157.22C61.77 157.22 61.51 157.55 61.51 157.89C61.51 157.95 61.52 158.00 61.53 158.07L63.64 165.45C63.73 165.82 64.06 166.08 64.46 166.08L64.49 166.08C64.88 166.08 65.21 165.82 65.32 165.44L66.98 159.29L68.63 165.44C68.72 165.81 69.06 166.08 69.45 166.08L69.48 166.08C69.87 166.08 70.22 165.82 70.32 165.44L72.43 158.07C72.44 158.02 72.45 157.95 72.45 157.89ZM78.99 162.65C78.99 162.40 78.93 162.13 78.88 161.92C78.51 160.51 77.47 159.56 75.95 159.56C74.13 159.56 72.82 161.03 72.82 162.85C72.82 164.83 74.18 166.16 76.06 166.16C76.98 166.16 78.59 165.68 78.59 164.97C78.59 164.53 78.15 164.43 77.86 164.57C77.41 164.91 76.71 165.22 76.17 165.22C74.90 165.22 74.12 164.35 74.03 163.27L78.40 163.27C78.72 163.27 78.99 162.96 78.99 162.65ZM74.03 162.41C74.08 161.54 74.69 160.50 75.94 160.50C77.28 160.50 77.85 161.57 77.88 162.41ZM86.27 162.65C86.27 162.40 86.21 162.13 86.16 161.92C85.79 160.51 84.75 159.56 83.23 159.56C81.41 159.56 80.10 161.03 80.10 162.85C80.10 164.83 81.46 166.16 83.34 166.16C84.26 166.16 85.87 165.68 85.87 164.97C85.87 164.53 85.43 164.43 85.14 164.57C84.69 164.91 83.99 165.22 83.45 165.22C82.18 165.22 81.40 164.35 81.31 163.27L85.68 163.27C86.00 163.27 86.27 162.96 86.27 162.65ZM81.31 162.41C81.36 161.54 81.97 160.50 83.22 160.50C84.56 160.50 85.13 161.57 85.16 162.41ZM92.89 165.51C92.89 165.39 92.85 165.26 92.77 165.17L90.71 162.57L92.66 160.53C92.75 160.42 92.80 160.31 92.80 160.18C92.80 159.89 92.54 159.63 92.25 159.63C92.12 159.63 91.98 159.69 91.88 159.80L88.91 162.92L88.91 157.81C88.91 157.51 88.65 157.25 88.35 157.25C88.02 157.25 87.76 157.51 87.76 157.81L87.76 165.51C87.76 165.82 88.02 166.08 88.33 166.08C88.65 166.08 88.91 165.82 88.91 165.51L88.91 164.26L89.87 163.28L91.86 165.86C91.97 166.01 92.15 166.09 92.32 166.09C92.67 166.09 92.89 165.78 92.89 165.51Z" fill="#e6edf3" /><path d="M165.05 165.17C165.05 164.74 164.69 164.38 164.26 164.38L161.44 164.38C163.69 162.74 164.91 161.45 164.91 159.97C164.91 158.24 163.44 157.20 161.59 157.20C160.50 157.20 159.04 157.67 158.63 158.33C158.55 158.45 158.51 158.58 158.51 158.71C158.51 159.18 158.89 159.54 159.32 159.54C159.51 159.54 159.68 159.49 159.85 159.37C160.34 159.03 160.94 158.84 161.63 158.84C162.35 158.84 163.04 159.21 163.04 159.97C163.04 160.98 162.00 161.93 158.76 164.32C158.51 164.50 158.37 164.80 158.37 165.10C158.37 165.62 158.78 166 159.24 166L164.26 166C164.69 166 165.05 165.64 165.05 165.17ZM170.12 158.32C170.12 157.73 169.63 157.26 169.04 157.26C168.74 157.26 168.46 157.38 168.26 157.58L166.26 159.60C166.10 159.76 166.03 159.96 166.03 160.15C166.03 160.58 166.39 160.92 166.79 160.92C166.97 160.92 167.16 160.85 167.30 160.71L168.28 159.71L168.28 165.17C168.28 165.66 168.69 166.08 169.19 166.08C169.70 166.08 170.12 165.66 170.12 165.17ZM173.77 165.36C173.77 164.52 173.21 164.04 172.60 164.04C172.06 164.04 171.59 164.50 171.59 165.08C171.59 165.64 171.98 166.01 172.47 166.01C172.56 166.01 172.68 165.99 172.72 165.97C172.64 166.31 172.36 166.72 172.02 166.99C171.93 167.07 171.89 167.17 171.89 167.27C171.89 167.53 172.16 167.69 172.38 167.69C172.51 167.69 172.63 167.65 172.72 167.56C173.37 166.97 173.77 166.19 173.77 165.36ZM177.50 158.32C177.50 157.73 177.01 157.26 176.43 157.26C176.13 157.26 175.84 157.38 175.65 157.58L173.64 159.60C173.49 159.76 173.41 159.96 173.41 160.15C173.41 160.58 173.77 160.92 174.18 160.92C174.36 160.92 174.54 160.85 174.68 160.71L175.66 159.71L175.66 165.17C175.66 165.66 176.07 166.08 176.57 166.08C177.09 166.08 177.50 165.66 177.50 165.17ZM185.42 163.63C185.53 162.07 184.47 161.53 184.47 161.53C184.47 161.53 185.43 161.03 185.33 159.55C185.23 158.11 184.08 157.20 182.05 157.20C180.86 157.20 179.92 157.55 179.21 158.12C179.03 158.26 178.93 158.47 178.93 158.68C178.93 159.14 179.34 159.46 179.74 159.46C179.90 159.46 180.05 159.42 180.18 159.33C180.69 159.01 181.26 158.84 181.86 158.84C182.77 158.84 183.47 159.04 183.47 159.73C183.47 160.45 183.04 160.79 182.17 160.79C181.55 160.79 181.27 161.14 181.27 161.59C181.27 162.05 181.55 162.41 182.22 162.41C183.11 162.41 183.61 162.72 183.61 163.41C183.61 164.06 183.03 164.52 181.98 164.52C181.38 164.52 180.69 164.31 180.12 163.97C179.97 163.88 179.82 163.84 179.66 163.84C179.23 163.84 178.82 164.19 178.82 164.66C178.82 164.79 178.86 164.91 178.92 165.01C179.32 165.69 180.79 166.16 182.04 166.16C184.12 166.16 185.32 165.26 185.42 163.63ZM193.21 165.17C193.21 164.74 192.84 164.38 192.42 164.38L189.59 164.38C191.84 162.74 193.07 161.45 193.07 159.97C193.07 158.24 191.60 157.20 189.75 157.20C188.66 157.20 187.20 157.67 186.79 158.33C186.71 158.45 186.67 158.58 186.67 158.71C186.67 159.18 187.05 159.54 187.48 159.54C187.67 159.54 187.84 159.49 188.01 159.37C188.50 159.03 189.10 158.84 189.79 158.84C190.50 158.84 191.19 159.21 191.19 159.97C191.19 160.98 190.15 161.93 186.92 164.32C186.67 164.50 186.53 164.80 186.53 165.10C186.53 165.62 186.94 166 187.40 166L192.42 166C192.84 166 193.21 165.64 193.21 165.17ZM196.59 165.36C196.59 164.52 196.03 164.04 195.42 164.04C194.87 164.04 194.40 164.50 194.40 165.08C194.40 165.64 194.79 166.01 195.29 166.01C195.38 166.01 195.50 165.99 195.54 165.97C195.46 166.31 195.17 166.72 194.83 166.99C194.74 167.07 194.70 167.17 194.70 167.27C194.70 167.53 194.98 167.69 195.20 167.69C195.33 167.69 195.44 167.65 195.54 167.56C196.19 166.97 196.59 166.19 196.59 165.36ZM204.18 163.63C204.28 162.07 203.23 161.53 203.23 161.53C203.23 161.53 204.19 161.03 204.09 159.55C203.99 158.11 202.84 157.20 200.81 157.20C199.62 157.20 198.68 157.55 197.97 158.12C197.78 158.26 197.69 158.47 197.69 158.68C197.69 159.14 198.10 159.46 198.50 159.46C198.66 159.46 198.81 159.42 198.94 159.33C199.45 159.01 200.02 158.84 200.62 158.84C201.53 158.84 202.23 159.04 202.23 159.73C202.23 160.45 201.80 160.79 200.93 160.79C200.31 160.79 200.03 161.14 200.03 161.59C200.03 162.05 200.31 162.41 200.98 162.41C201.87 162.41 202.37 162.72 202.37 163.41C202.37 164.06 201.79 164.52 200.74 164.52C200.14 164.52 199.45 164.31 198.88 163.97C198.73 163.88 198.58 163.84 198.42 163.84C197.99 163.84 197.58 164.19 197.58 164.66C197.58 164.79 197.62 164.91 197.68 165.01C198.08 165.69 199.55 166.16 200.80 166.16C202.88 166.16 204.08 165.26 204.18 163.63ZM209.24 158.32C209.24 157.73 208.74 157.26 208.16 157.26C207.86 157.26 207.57 157.38 207.38 157.58L205.38 159.60C205.22 159.76 205.14 159.96 205.14 160.15C205.14 160.58 205.51 160.92 205.91 160.92C206.09 160.92 206.27 160.85 206.42 160.71L207.39 159.71L207.39 165.17C207.39 165.66 207.81 166.08 208.30 166.08C208.82 166.08 209.24 165.66 209.24 165.17ZM217.54 163.15C217.54 161.40 216.23 160.34 214.76 160.34C213.97 160.34 213.27 160.66 212.85 161.07L212.85 158.95L216.24 158.95C216.67 158.95 217.04 158.59 217.04 158.15C217.04 157.69 216.67 157.33 216.24 157.33L212.05 157.33C211.47 157.33 211.01 157.80 211.01 158.37L211.01 161.70C211.01 162.20 211.37 162.58 211.94 162.58C212.20 162.58 212.45 162.50 212.66 162.36C213.12 162.05 213.58 161.94 214.11 161.94C215.10 161.94 215.67 162.46 215.67 163.23C215.67 163.93 215.09 164.52 214.06 164.52C213.44 164.52 212.84 164.35 212.33 164.04C212.18 163.95 212.01 163.89 211.85 163.89C211.40 163.89 210.97 164.25 210.97 164.73C210.97 164.86 211.01 164.99 211.07 165.10C211.47 165.78 212.94 166.16 214.07 166.16C216.17 166.16 217.54 165.00 217.54 163.15Z" fill="#9aa7b4" /></g></svg>