<svg xmlns="http://www.w3.org/2000/svg" width="420" height="170" viewBox="0 0 420 170" role="img"><rect x="0.5" y="0.5" width="419" height="169" rx="10" fill="#ffffff" stroke="#f2f4f6" /><path d="M30.21 36.59C30.21 35.87 29.59 35.25 28.87 35.25L24.09 35.25C27.90 32.48 29.97 30.30 29.97 27.79C29.97 24.87 27.48 23.11 24.36 23.11C22.51 23.11 20.05 23.90 19.34 25.02C19.21 25.22 19.14 25.44 19.14 25.66C19.14 26.45 19.78 27.07 20.51 27.07C20.84 27.07 21.12 26.98 21.41 26.78C22.25 26.21 23.26 25.88 24.42 25.88C25.63 25.88 26.80 26.52 26.80 27.79C26.80 29.51 25.04 31.11 19.56 35.16C19.14 35.47 18.90 35.98 18.90 36.48C18.90 37.36 19.61 38 20.38 38L28.87 38C29.59 38 30.21 37.38 30.21 36.59ZM35.93 36.92C35.93 35.49 34.98 34.68 33.95 34.68C33.03 34.68 32.23 35.47 32.23 36.44C32.23 37.38 32.89 38.02 33.73 38.02C33.88 38.02 34.08 37.98 34.15 37.96C34.02 38.53 33.53 39.21 32.96 39.67C32.81 39.80 32.74 39.98 32.74 40.16C32.74 40.60 33.20 40.86 33.58 40.86C33.80 40.86 33.99 40.79 34.15 40.64C35.25 39.65 35.93 38.33 35.93 36.92ZM49.26 30.67C49.26 26.89 47.37 23.11 43.19 23.11C38.99 23.11 37.12 26.89 37.12 30.67C37.12 34.46 38.99 38.26 43.19 38.26C47.37 38.26 49.26 34.46 49.26 30.67ZM46.07 30.67C46.07 33.38 45.28 35.49 43.19 35.49C41.08 35.49 40.29 33.38 40.29 30.67C40.29 27.97 41.08 25.88 43.19 25.88C45.28 25.88 46.07 27.97 46.07 30.67ZM62.70 33.23C62.70 30.10 60.35 28.45 57.71 28.45C55.88 28.45 54.52 29.35 53.95 30.34C53.93 30.23 53.93 30.15 53.93 30.04C53.93 27.70 55.44 25.88 57.60 25.88C58.35 25.88 58.96 26.01 59.51 26.30C59.71 26.41 59.93 26.45 60.15 26.45C60.83 26.45 61.58 25.92 61.58 25.09C61.58 24.87 61.52 24.67 61.43 24.49C60.88 23.52 59.03 23.11 57.60 23.11C53.27 23.11 50.76 26.25 50.76 30.70C50.76 34.83 52.63 38.26 57.09 38.26C60.44 38.26 62.70 36.09 62.70 33.23ZM59.54 33.34C59.54 34.44 58.72 35.49 57.03 35.49C55.64 35.49 54.61 34.55 54.61 33.18C54.61 31.86 55.66 30.92 57.03 30.92C58.44 30.92 59.54 31.86 59.54 33.34ZM75.99 33.18C75.99 30.21 73.77 28.43 71.28 28.43C69.94 28.43 68.75 28.96 68.05 29.66L68.05 26.08L73.79 26.08C74.52 26.08 75.13 25.46 75.13 24.71C75.13 23.94 74.52 23.33 73.79 23.33L66.69 23.33C65.72 23.33 64.93 24.12 64.93 25.09L64.93 30.72C64.93 31.58 65.54 32.21 66.51 32.21C66.95 32.21 67.37 32.08 67.72 31.84C68.51 31.31 69.28 31.14 70.18 31.14C71.86 31.14 72.82 32.02 72.82 33.31C72.82 34.50 71.83 35.49 70.10 35.49C69.04 35.49 68.03 35.21 67.17 34.68C66.91 34.52 66.62 34.44 66.36 34.44C65.59 34.44 64.86 35.03 64.86 35.84C64.86 36.06 64.93 36.28 65.04 36.48C65.72 37.63 68.20 38.26 70.12 38.26C73.66 38.26 75.99 36.31 75.99 33.18ZM81.49 36.92C81.49 35.49 80.55 34.68 79.51 34.68C78.59 34.68 77.80 35.47 77.80 36.44C77.80 37.38 78.46 38.02 79.29 38.02C79.45 38.02 79.64 37.98 79.71 37.96C79.58 38.53 79.09 39.21 78.52 39.67C78.37 39.80 78.30 39.98 78.30 40.16C78.30 40.60 78.76 40.86 79.14 40.86C79.36 40.86 79.56 40.79 79.71 40.64C80.81 39.65 81.49 38.33 81.49 36.92ZM95.11 33.60C95.11 32.83 94.49 32.21 93.77 32.21L93.09 32.21L93.09 24.95C93.09 23.59 91.77 22.97 90.42 23.19C89.48 23.19 88.53 23.70 88.03 24.49L83.12 32.24C82.92 32.54 82.83 32.90 82.83 33.25C82.83 34.24 83.56 34.96 84.44 34.96L89.96 34.96L89.96 36.59C89.96 37.43 90.67 38.13 91.50 38.13C92.38 38.13 93.09 37.43 93.09 36.59L93.09 34.96L93.77 34.96C94.49 34.96 95.11 34.35 95.11 33.60ZM86.00 32.21L89.96 26.10L89.96 32.21ZM107.47 34.00C107.65 31.36 105.87 30.43 105.87 30.43C105.87 30.43 107.50 29.60 107.32 27.09C107.14 24.65 105.21 23.11 101.78 23.11C99.75 23.11 98.17 23.70 96.96 24.67C96.65 24.91 96.50 25.26 96.50 25.61C96.50 26.38 97.18 26.93 97.86 26.93C98.12 26.93 98.39 26.87 98.61 26.71C99.47 26.16 100.43 25.88 101.45 25.88C102.99 25.88 104.17 26.23 104.17 27.40C104.17 28.61 103.45 29.18 101.97 29.18C100.92 29.18 100.46 29.77 100.46 30.54C100.46 31.31 100.92 31.93 102.06 31.93C103.56 31.93 104.42 32.46 104.42 33.62C104.42 34.72 103.43 35.49 101.64 35.49C100.63 35.49 99.47 35.14 98.50 34.57C98.26 34.41 97.99 34.35 97.73 34.35C97.00 34.35 96.30 34.94 96.30 35.73C96.30 35.95 96.36 36.15 96.47 36.33C97.16 37.47 99.64 38.26 101.75 38.26C105.27 38.26 107.30 36.75 107.47 34.00ZM121.16 33.60C121.16 32.83 120.54 32.21 119.82 32.21L119.13 32.21L119.13 24.95C119.13 23.59 117.81 22.97 116.47 23.19C115.53 23.19 114.58 23.70 114.07 24.49L109.17 32.24C108.97 32.54 108.88 32.90 108.88 33.25C108.88 34.24 109.61 34.96 110.49 34.96L116.01 34.96L116.01 36.59C116.01 37.43 116.71 38.13 117.55 38.13C118.43 38.13 119.13 37.43 119.13 36.59L119.13 34.96L119.82 34.96C120.54 34.96 121.16 34.35 121.16 33.60ZM112.05 32.21L116.01 26.10L116.01 32.21ZM126.31 36.92C126.31 35.49 125.36 34.68 124.33 34.68C123.40 34.68 122.61 35.47 122.61 36.44C122.61 37.38 123.27 38.02 124.11 38.02C124.26 38.02 124.46 37.98 124.52 37.96C124.39 38.53 123.91 39.21 123.34 39.67C123.18 39.80 123.12 39.98 123.12 40.16C123.12 40.60 123.58 40.86 123.95 40.86C124.17 40.86 124.37 40.79 124.52 40.64C125.62 39.65 126.31 38.33 126.31 36.92ZM139.44 33.23C139.44 30.10 137.09 28.45 134.45 28.45C132.62 28.45 131.26 29.35 130.68 30.34C130.66 30.23 130.66 30.15 130.66 30.04C130.66 27.70 132.18 25.88 134.34 25.88C135.08 25.88 135.70 26.01 136.25 26.30C136.45 26.41 136.67 26.45 136.89 26.45C137.57 26.45 138.32 25.92 138.32 25.09C138.32 24.87 138.25 24.67 138.16 24.49C137.61 23.52 135.77 23.11 134.34 23.11C130.00 23.11 127.49 26.25 127.49 30.70C127.49 34.83 129.36 38.26 133.83 38.26C137.17 38.26 139.44 36.09 139.44 33.23ZM136.27 33.34C136.27 34.44 135.46 35.49 133.76 35.49C132.38 35.49 131.34 34.55 131.34 33.18C131.34 31.86 132.40 30.92 133.76 30.92C135.17 30.92 136.27 31.86 136.27 33.34ZM152.73 33.18C152.73 30.21 150.51 28.43 148.02 28.43C146.68 28.43 145.49 28.96 144.79 29.66L144.79 26.08L150.53 26.08C151.25 26.08 151.87 25.46 151.87 24.71C151.87 23.94 151.25 23.33 150.53 23.33L143.42 23.33C142.45 23.33 141.66 24.12 141.66 25.09L141.66 30.72C141.66 31.58 142.28 32.21 143.25 32.21C143.69 32.21 144.10 32.08 144.46 31.84C145.25 31.31 146.02 31.14 146.92 31.14C148.59 31.14 149.56 32.02 149.56 33.31C149.56 34.50 148.57 35.49 146.83 35.49C145.78 35.49 144.76 35.21 143.91 34.68C143.64 34.52 143.36 34.44 143.09 34.44C142.32 34.44 141.60 35.03 141.60 35.84C141.60 36.06 141.66 36.28 141.77 36.48C142.45 37.63 144.94 38.26 146.85 38.26C150.40 38.26 152.73 36.31 152.73 33.18ZM166.10 33.18C166.10 30.21 163.88 28.43 161.40 28.43C160.05 28.43 158.87 28.96 158.16 29.66L158.16 26.08L163.90 26.08C164.63 26.08 165.25 25.46 165.25 24.71C165.25 23.94 164.63 23.33 163.90 23.33L156.80 23.33C155.83 23.33 155.04 24.12 155.04 25.09L155.04 30.72C155.04 31.58 155.65 32.21 156.62 32.21C157.06 32.21 157.48 32.08 157.83 31.84C158.62 31.31 159.39 31.14 160.30 31.14C161.97 31.14 162.94 32.02 162.94 33.31C162.94 34.50 161.95 35.49 160.21 35.49C159.15 35.49 158.14 35.21 157.28 34.68C157.02 34.52 156.73 34.44 156.47 34.44C155.70 34.44 154.97 35.03 154.97 35.84C154.97 36.06 155.04 36.28 155.15 36.48C155.83 37.63 158.32 38.26 160.23 38.26C163.77 38.26 166.10 36.31 166.10 33.18ZM187.53 30.67C187.53 26.25 184.34 23.33 179.74 23.33L175.72 23.33C174.75 23.33 173.96 24.12 173.96 25.09L173.96 36.24C173.96 37.21 174.75 38 175.72 38L179.74 38C184.34 38 187.53 35.10 187.53 30.67ZM184.34 30.67C184.34 33.16 182.65 35.25 179.74 35.25L177.08 35.25L177.08 26.08L179.74 26.08C182.76 26.08 184.34 28.08 184.34 30.67ZM200.25 32.68C200.25 29.66 198.14 27.11 194.62 27.11C191.12 27.11 189.01 29.66 189.01 32.68C189.01 35.71 191.12 38.26 194.62 38.26C198.14 38.26 200.25 35.71 200.25 32.68ZM197.34 32.68C197.34 34.35 196.35 35.78 194.62 35.78C192.88 35.78 191.91 34.35 191.91 32.68C191.91 31.03 192.88 29.60 194.62 29.60C196.35 29.60 197.34 31.03 197.34 32.68ZM217.43 28.58C217.43 27.88 216.86 27.24 216.04 27.24C215.43 27.24 214.86 27.64 214.70 28.23L212.96 34.52L210.96 28.36C210.74 27.70 210.10 27.24 209.42 27.24C208.67 27.24 208.04 27.70 207.82 28.36L205.81 34.52L204.08 28.23C203.92 27.64 203.35 27.24 202.76 27.24C201.92 27.24 201.35 27.90 201.35 28.58C201.35 28.72 201.37 28.85 201.41 28.98L203.79 36.77C204.03 37.56 204.80 38.13 205.64 38.13L205.68 38.13C206.52 38.13 207.29 37.56 207.53 36.77L209.40 30.76L211.27 36.77C211.51 37.58 212.26 38.13 213.12 38.13L213.16 38.13C213.98 38.13 214.75 37.56 214.99 36.77L217.36 28.98C217.41 28.85 217.43 28.72 217.43 28.58ZM229.20 31.16C229.20 29.09 227.42 27.11 225.09 27.11C223.46 27.11 222.45 27.97 222.03 28.63L222.03 28.61C222.03 27.86 221.41 27.24 220.66 27.24C219.85 27.24 219.23 27.86 219.23 28.61L219.23 36.75C219.23 37.52 219.85 38.13 220.62 38.13C221.41 38.13 222.03 37.52 222.03 36.75L222.03 32.06C222.03 30.54 223.13 29.60 224.23 29.60C225.42 29.60 226.41 30.54 226.41 32.02L226.41 36.75C226.41 37.52 227.02 38.13 227.79 38.13C228.58 38.13 229.20 37.52 229.20 36.75ZM234.77 24.56C234.77 23.81 234.15 23.19 233.40 23.19C232.59 23.19 231.97 23.81 231.97 24.56L231.97 36.75C231.97 37.52 232.59 38.13 233.36 38.13C234.15 38.13 234.77 37.52 234.77 36.75ZM248.10 32.68C248.10 29.66 245.99 27.11 242.47 27.11C238.97 27.11 236.86 29.66 236.86 32.68C236.86 35.71 238.97 38.26 242.47 38.26C245.99 38.26 248.10 35.71 248.10 32.68ZM245.19 32.68C245.19 34.35 244.20 35.78 242.47 35.78C240.73 35.78 239.76 34.35 239.76 32.68C239.76 31.03 240.73 29.60 242.47 29.60C244.20 29.60 245.19 31.03 245.19 32.68ZM259.34 31.14C259.34 28.08 257.12 27.11 254.70 27.11C253.47 27.11 251.09 27.55 250.43 28.61C250.34 28.76 250.28 28.96 250.28 29.16C250.28 29.82 250.83 30.23 251.33 30.23C251.51 30.23 251.68 30.17 251.84 30.08C252.56 29.60 253.38 29.40 254.21 29.40C255.62 29.40 256.55 30.10 256.55 31.18L256.55 31.53L253.18 31.53C251.49 31.53 249.48 32.26 249.48 34.74C249.48 37.12 251.49 38.26 253.18 38.26C254.79 38.26 255.82 37.87 256.55 37.01C256.55 37.49 257.01 38.13 257.76 38.13L257.98 38.13C258.72 38.13 259.34 37.52 259.34 36.75ZM256.55 33.42L256.55 33.91C256.55 35.62 255.20 36.37 254.30 36.37C253.20 36.37 252.30 35.80 252.30 34.81C252.30 33.78 253.20 33.42 254.30 33.42ZM261.45 32.70C261.45 36.24 263.70 38.26 266.38 38.26C267.66 38.26 268.82 37.69 269.44 36.64L269.44 36.75C269.44 37.52 270.05 38.13 270.85 38.13C271.62 38.13 272.23 37.52 272.23 36.75L272.23 24.56C272.23 23.81 271.62 23.19 270.80 23.19C270.05 23.19 269.44 23.81 269.44 24.56L269.44 28.74C268.82 27.66 267.63 27.11 266.38 27.11C263.67 27.11 261.45 29.22 261.45 32.70ZM264.33 32.70C264.33 30.85 265.41 29.60 267.04 29.60C268.16 29.60 269.44 30.78 269.44 32.59L269.44 32.83C269.44 34.61 268.16 35.78 267.04 35.78C265.41 35.78 264.33 34.55 264.33 32.70ZM283.43 34.85C283.43 30.56 277.14 31.88 277.14 30.30C277.14 29.71 277.80 29.24 278.81 29.24C279.67 29.24 280.53 29.49 281.21 29.88C281.36 29.97 281.56 30.01 281.74 30.01C282.31 30.01 282.84 29.55 282.84 28.96C282.84 28.76 282.77 28.56 282.66 28.41C282.07 27.55 280.17 27.11 278.79 27.11C275.99 27.11 274.43 28.67 274.43 30.45C274.43 34.63 280.75 33.20 280.75 34.96C280.75 35.62 280.17 36.11 278.96 36.11C278.04 36.11 276.94 35.73 276.10 35.25C275.93 35.14 275.73 35.10 275.53 35.10C274.94 35.10 274.37 35.60 274.37 36.26C274.37 36.48 274.43 36.68 274.56 36.86C275.22 37.80 277.45 38.26 278.83 38.26C281.78 38.26 283.43 36.79 283.43 34.85Z" fill="#22272e" /><path d="M20.26 49.88C20.26 49.54 19.98 49.25 19.64 49.25C19.26 49.25 18.98 49.54 18.98 49.88L18.98 57.44C18.98 57.79 19.26 58.08 19.61 58.08C19.98 58.08 20.26 57.79 20.26 57.44ZM27.55 53.97C27.55 52.64 26.59 51.56 25.27 51.56C24.18 51.56 23.62 52.10 23.32 52.60L23.32 52.20C23.32 51.90 23.06 51.64 22.76 51.64C22.42 51.64 22.16 51.90 22.16 52.20L22.16 57.51C22.16 57.82 22.42 58.08 22.73 58.08C23.06 58.08 23.32 57.82 23.32 57.51L23.32 54.49C23.32 53.42 23.89 52.59 24.89 52.59C25.83 52.59 26.40 53.32 26.40 54.36L26.40 57.51C26.40 57.82 26.66 58.08 26.97 58.08C27.30 58.08 27.55 57.82 27.55 57.51ZM38.97 49.91C38.97 49.58 38.72 49.33 38.41 49.33L32.70 49.33C32.39 49.33 32.14 49.58 32.14 49.89C32.14 50.21 32.39 50.47 32.70 50.47L34.91 50.47L34.91 57.44C34.91 57.79 35.20 58.08 35.55 58.08C35.91 58.08 36.20 57.79 36.20 57.44L36.20 50.47L38.41 50.47C38.72 50.47 38.97 50.21 38.97 49.91ZM44.74 54.85C44.74 53.05 43.53 51.56 41.57 51.56C39.62 51.56 38.41 53.05 38.41 54.85C38.41 56.66 39.62 58.16 41.57 58.16C43.53 58.16 44.74 56.66 44.74 54.85ZM43.53 54.85C43.53 56.06 42.83 57.13 41.57 57.13C40.32 57.13 39.61 56.06 39.61 54.85C39.61 53.66 40.32 52.59 41.57 52.59C42.83 52.59 43.53 53.66 43.53 54.85ZM49.16 57.55C49.16 57.27 48.95 57.06 48.67 57.06C48.54 57.06 48.38 57.13 48.24 57.13C47.86 57.13 47.63 56.83 47.63 56.35L47.63 52.73L48.48 52.73C48.76 52.73 48.98 52.51 48.98 52.24C48.98 51.94 48.76 51.72 48.48 51.72L47.63 51.72L47.63 50.49C47.63 50.19 47.37 49.93 47.05 49.93C46.72 49.93 46.46 50.19 46.46 50.49L46.46 51.72L45.85 51.72C45.56 51.72 45.34 51.94 45.34 52.22C45.34 52.51 45.56 52.73 45.85 52.73L46.46 52.73L46.46 56.62C46.46 57.61 46.98 58.16 47.96 58.16C48.65 58.16 49.16 57.96 49.16 57.55ZM55.26 53.75C55.26 52.15 54.09 51.56 52.74 51.56C51.89 51.56 50.94 51.84 50.34 52.44C50.27 52.53 50.23 52.63 50.23 52.73C50.23 53.01 50.47 53.19 50.71 53.19C50.80 53.19 50.90 53.15 50.99 53.09C51.46 52.72 51.98 52.54 52.57 52.54C53.45 52.54 54.10 53.01 54.10 53.80L54.10 54.15L52.29 54.15C50.99 54.15 49.85 54.66 49.85 56.08C49.85 57.45 50.99 58.16 52.03 58.16C53.01 58.16 53.59 57.86 54.10 57.30L54.10 57.51C54.10 57.88 54.40 58.08 54.63 58.08L54.67 58.08C55.00 58.08 55.26 57.82 55.26 57.51ZM54.10 54.96L54.10 55.84C54.10 56.58 53.26 57.34 52.35 57.34C51.50 57.34 51.02 56.83 51.02 56.10C51.02 55.35 51.62 54.96 52.61 54.96ZM58.27 49.81C58.27 49.51 58.01 49.25 57.71 49.25C57.38 49.25 57.12 49.51 57.12 49.81L57.12 57.51C57.12 57.82 57.38 58.08 57.69 58.08C58.01 58.08 58.27 57.82 58.27 57.51Z" fill="#627386" /><line x1="18" y1="76" x2="48" y2="76" stroke="#627386" stroke-opacity="0.4" /><g aria-label="Packages: 103"><circle cx="22" cy="96" r="4" fill="#673bd6" /><path d="M41.38 93.99C41.38 92.55 40.40 91.33 38.62 91.33L35.82 91.33C35.35 91.33 34.98 91.71 34.98 92.17L34.98 99.44C34.98 99.79 35.26 100.08 35.61 100.08C35.98 100.08 36.26 99.79 36.26 99.44L36.26 96.66L38.62 96.66C40.37 96.66 41.38 95.44 41.38 93.99ZM40.06 93.99C40.06 94.89 39.40 95.52 38.45 95.52L36.26 95.52L36.26 92.47L38.45 92.47C39.40 92.47 40.06 93.08 40.06 93.99ZM47.48 95.75C47.48 94.15 46.31 93.56 44.96 93.56C44.11 93.56 43.17 93.84 42.57 94.44C42.49 94.53 42.45 94.63 42.45 94.73C42.45 95.01 42.70 95.19 42.93 95.19C43.02 95.19 43.13 95.15 43.22 95.09C43.69 94.72 44.21 94.54 44.79 94.54C45.67 94.54 46.32 95.01 46.32 95.80L46.32 96.15L44.52 96.15C43.22 96.15 42.07 96.66 42.07 98.08C42.07 99.45 43.22 100.16 44.26 100.16C45.23 100.16 45.82 99.86 46.32 99.30L46.32 99.51C46.32 99.88 46.62 100.08 46.86 100.08L46.90 100.08C47.22 100.08 47.48 99.82 47.48 99.51ZM46.32 96.96L46.32 97.84C46.32 98.58 45.48 99.34 44.57 99.34C43.72 99.34 43.24 98.83 43.24 98.10C43.24 97.35 43.84 96.96 44.83 96.96ZM54.35 99.05C54.35 98.75 54.07 98.54 53.80 98.54C53.67 98.54 53.54 98.58 53.44 98.66C53.08 98.97 52.68 99.13 52.21 99.13C50.97 99.13 50.16 98.17 50.16 96.85C50.16 95.54 50.97 94.59 52.21 94.59C52.67 94.59 53.08 94.73 53.44 95.05C53.54 95.14 53.67 95.19 53.80 95.19C54.09 95.19 54.33 94.96 54.33 94.67C54.33 94.57 54.31 94.47 54.24 94.40C53.81 93.90 53.11 93.56 52.15 93.56C50.26 93.56 48.96 94.98 48.96 96.85C48.96 98.74 50.26 100.16 52.15 100.16C53.08 100.16 53.72 99.84 54.19 99.39C54.29 99.30 54.35 99.17 54.35 99.05ZM60.92 99.51C60.92 99.39 60.88 99.26 60.81 99.17L58.74 96.57L60.69 94.53C60.78 94.42 60.83 94.31 60.83 94.18C60.83 93.89 60.57 93.63 60.29 93.63C60.16 93.63 60.01 93.69 59.91 93.80L56.95 96.92L56.95 91.81C56.95 91.51 56.69 91.25 56.39 91.25C56.05 91.25 55.79 91.51 55.79 91.81L55.79 99.51C55.79 99.82 56.05 100.08 56.36 100.08C56.69 100.08 56.95 99.82 56.95 99.51L56.95 98.26L57.91 97.28L59.90 99.86C60.00 100.01 60.18 100.09 60.35 100.09C60.70 100.09 60.92 99.78 60.92 99.51ZM67.59 95.75C67.59 94.15 66.42 93.56 65.07 93.56C64.23 93.56 63.28 93.84 62.68 94.44C62.60 94.53 62.56 94.63 62.56 94.73C62.56 95.01 62.81 95.19 63.04 95.19C63.13 95.19 63.24 95.15 63.33 95.09C63.80 94.72 64.32 94.54 64.90 94.54C65.78 94.54 66.44 95.01 66.44 95.80L66.44 96.15L64.63 96.15C63.33 96.15 62.18 96.66 62.18 98.08C62.18 99.45 63.33 100.16 64.37 100.16C65.34 100.16 65.93 99.86 66.44 99.30L66.44 99.51C66.44 99.88 66.73 100.08 66.97 100.08L67.01 100.08C67.33 100.08 67.59 99.82 67.59 99.51ZM66.44 96.96L66.44 97.84C66.44 98.58 65.59 99.34 64.68 99.34C63.84 99.34 63.35 98.83 63.35 98.10C63.35 97.35 63.95 96.96 64.94 96.96ZM75.08 94.20C75.08 93.90 74.82 93.64 74.52 93.64C74.18 93.64 73.92 93.90 73.92 94.20L73.92 94.63C73.42 93.95 72.69 93.56 71.86 93.56C70.23 93.56 69.07 94.79 69.07 96.81C69.07 98.86 70.24 100.05 71.86 100.05C72.71 100.05 73.45 99.60 73.92 98.96L73.92 99.79C73.92 101.13 72.96 101.60 71.99 101.60C71.30 101.60 70.75 101.46 70.27 101.05C70.18 100.99 70.09 100.96 69.97 100.96C69.71 100.96 69.48 101.18 69.48 101.46C69.48 101.59 69.53 101.70 69.61 101.78C70.22 102.37 71.10 102.55 71.99 102.55C73.52 102.55 75.08 101.91 75.08 99.75ZM73.92 96.83C73.92 98.11 73.08 99.03 72.04 99.03C70.87 99.03 70.27 98.10 70.27 96.81C70.27 95.50 70.87 94.59 72.04 94.59C73.08 94.59 73.92 95.49 73.92 96.78ZM82.75 96.65C82.75 96.40 82.69 96.13 82.63 95.92C82.27 94.51 81.23 93.56 79.71 93.56C77.89 93.56 76.58 95.03 76.58 96.85C76.58 98.83 77.94 100.16 79.81 100.16C80.73 100.16 82.35 99.67 82.35 98.97C82.35 98.53 81.91 98.43 81.62 98.57C81.16 98.91 80.46 99.22 79.93 99.22C78.66 99.22 77.88 98.35 77.78 97.27L82.15 97.27C82.48 97.27 82.75 96.96 82.75 96.65ZM77.78 96.41C77.84 95.54 78.45 94.50 79.70 94.50C81.03 94.50 81.61 95.57 81.63 96.41ZM88.83 98.10C88.72 95.89 85.12 96.50 84.99 95.37C84.93 94.86 85.48 94.49 86.27 94.49C86.87 94.49 87.43 94.68 87.83 94.97C87.91 95.03 88.00 95.06 88.11 95.06C88.34 95.06 88.56 94.86 88.56 94.61C88.56 94.50 88.52 94.40 88.44 94.32C87.95 93.84 87.16 93.56 86.26 93.56C84.73 93.56 83.80 94.29 83.87 95.41C83.99 97.52 87.57 96.87 87.70 98.26C87.76 98.83 87.24 99.23 86.34 99.23C85.69 99.23 85.04 98.97 84.57 98.64C84.48 98.57 84.39 98.54 84.27 98.54C84.00 98.54 83.76 98.75 83.76 99.03C83.76 99.16 83.82 99.26 83.91 99.34C84.48 99.91 85.43 100.16 86.29 100.16C87.95 100.16 88.90 99.30 88.83 98.10Z" fill="#22272e" /><path d="M201.45 92.32C201.45 91.73 200.96 91.26 200.37 91.26C200.07 91.26 199.79 91.38 199.59 91.58L197.59 93.60C197.43 93.76 197.36 93.95 197.36 94.15C197.36 94.58 197.72 94.92 198.12 94.92C198.31 94.92 198.49 94.85 198.63 94.71L199.61 93.71L199.61 99.17C199.61 99.66 200.02 100.08 200.52 100.08C201.03 100.08 201.45 99.66 201.45 99.17ZM209.93 95.67C209.93 93.44 208.81 91.20 206.34 91.20C203.86 91.20 202.75 93.44 202.75 95.67C202.75 97.91 203.86 100.16 206.34 100.16C208.81 100.16 209.93 97.91 209.93 95.67ZM208.04 95.67C208.04 97.27 207.57 98.52 206.34 98.52C205.09 98.52 204.62 97.27 204.62 95.67C204.62 94.07 205.09 92.84 206.34 92.84C207.57 92.84 208.04 94.07 208.04 95.67ZM217.43 97.63C217.53 96.07 216.48 95.53 216.48 95.53C216.48 95.53 217.44 95.03 217.34 93.55C217.23 92.11 216.09 91.20 214.06 91.20C212.87 91.20 211.93 91.55 211.21 92.12C211.03 92.27 210.94 92.47 210.94 92.68C210.94 93.14 211.34 93.46 211.75 93.46C211.90 93.46 212.06 93.42 212.19 93.33C212.70 93.01 213.27 92.84 213.87 92.84C214.78 92.84 215.48 93.05 215.48 93.73C215.48 94.45 215.05 94.79 214.18 94.79C213.55 94.79 213.28 95.14 213.28 95.59C213.28 96.05 213.55 96.41 214.23 96.41C215.11 96.41 215.62 96.72 215.62 97.41C215.62 98.06 215.04 98.52 213.98 98.52C213.38 98.52 212.70 98.31 212.12 97.97C211.98 97.88 211.82 97.84 211.67 97.84C211.24 97.84 210.82 98.19 210.82 98.66C210.82 98.79 210.86 98.91 210.93 99.01C211.33 99.69 212.80 100.16 214.05 100.16C216.13 100.16 217.32 99.26 217.43 97.63Z" fill="#627386" /></g><g aria-label="Versions Published: 14,650"><circle cx="22" cy="118" r="4" fill="#00a5fe" /><path d="M42.28 113.93C42.28 113.58 42.00 113.25 41.59 113.25C41.31 113.25 41.06 113.42 40.97 113.68L38.32 120.60L35.68 113.68C35.57 113.41 35.31 113.25 35.05 113.25C34.64 113.25 34.35 113.61 34.35 113.93C34.35 114.02 34.36 114.10 34.40 114.17L37.28 121.39C37.43 121.81 37.85 122.08 38.29 122.08L38.36 122.08C38.78 122.08 39.20 121.81 39.37 121.39L42.24 114.17C42.27 114.10 42.28 114.00 42.28 113.93ZM48.60 118.65C48.60 118.40 48.53 118.13 48.48 117.92C48.12 116.51 47.08 115.56 45.56 115.56C43.74 115.56 42.42 117.03 42.42 118.85C42.42 120.83 43.79 122.16 45.66 122.16C46.58 122.16 48.20 121.67 48.20 120.97C48.20 120.53 47.75 120.43 47.47 120.57C47.01 120.91 46.31 121.22 45.78 121.22C44.50 121.22 43.72 120.35 43.63 119.27L48.00 119.27C48.33 119.27 48.60 118.96 48.60 118.65ZM43.63 118.41C43.69 117.54 44.30 116.50 45.54 116.50C46.88 116.50 47.46 117.57 47.48 118.41ZM53.38 116.15C53.38 115.85 53.16 115.63 52.86 115.63C52.16 115.63 51.59 116.22 51.24 116.70L51.24 116.20C51.24 115.90 50.98 115.64 50.68 115.64C50.34 115.64 50.08 115.90 50.08 116.20L50.08 121.51C50.08 121.82 50.33 122.06 50.64 122.08L50.65 122.08C50.98 122.08 51.24 121.82 51.24 121.51L51.24 118.28C51.24 117.46 51.81 116.81 52.80 116.76C53.12 116.75 53.38 116.49 53.38 116.15ZM59.08 120.10C58.96 117.89 55.36 118.50 55.23 117.37C55.18 116.86 55.72 116.49 56.52 116.49C57.11 116.49 57.67 116.68 58.08 116.97C58.15 117.03 58.25 117.06 58.35 117.06C58.58 117.06 58.80 116.86 58.80 116.61C58.80 116.50 58.77 116.40 58.69 116.32C58.19 115.84 57.40 115.56 56.50 115.56C54.97 115.56 54.05 116.29 54.11 117.41C54.23 119.52 57.82 118.87 57.95 120.26C58.00 120.83 57.48 121.23 56.58 121.23C55.93 121.23 55.28 120.97 54.81 120.64C54.72 120.57 54.63 120.54 54.51 120.54C54.24 120.54 54.01 120.75 54.01 121.03C54.01 121.16 54.06 121.26 54.15 121.34C54.72 121.91 55.67 122.16 56.53 122.16C58.19 122.16 59.14 121.30 59.08 120.10ZM61.13 113.39C60.73 113.39 60.39 113.73 60.39 114.15C60.39 114.55 60.73 114.89 61.13 114.89C61.55 114.89 61.87 114.55 61.87 114.15C61.87 113.73 61.55 113.39 61.13 113.39ZM61.72 116.20C61.72 115.90 61.46 115.64 61.16 115.64C60.82 115.64 60.56 115.90 60.56 116.20L60.56 121.51C60.56 121.82 60.82 122.08 61.13 122.08C61.46 122.08 61.72 121.82 61.72 121.51ZM69.54 118.85C69.54 117.05 68.33 115.56 66.37 115.56C64.42 115.56 63.21 117.05 63.21 118.85C63.21 120.66 64.42 122.16 66.37 122.16C68.33 122.16 69.54 120.66 69.54 118.85ZM68.33 118.85C68.33 120.06 67.63 121.13 66.37 121.13C65.12 121.13 64.41 120.06 64.41 118.85C64.41 117.66 65.12 116.59 66.37 116.59C67.63 116.59 68.33 117.66 68.33 118.85ZM76.43 117.97C76.43 116.64 75.47 115.56 74.14 115.56C73.05 115.56 72.49 116.10 72.19 116.61L72.19 116.20C72.19 115.90 71.93 115.64 71.64 115.64C71.30 115.64 71.04 115.90 71.04 116.20L71.04 121.51C71.04 121.82 71.30 122.08 71.61 122.08C71.93 122.08 72.19 121.82 72.19 121.51L72.19 118.49C72.19 117.42 72.77 116.59 73.77 116.59C74.70 116.59 75.28 117.32 75.28 118.36L75.28 121.51C75.28 121.82 75.54 122.08 75.85 122.08C76.17 122.08 76.43 121.82 76.43 121.51ZM82.91 120.10C82.79 117.89 79.19 118.50 79.06 117.37C79.01 116.86 79.55 116.49 80.35 116.49C80.94 116.49 81.50 116.68 81.91 116.97C81.98 117.03 82.07 117.06 82.18 117.06C82.41 117.06 82.63 116.86 82.63 116.61C82.63 116.50 82.59 116.40 82.52 116.32C82.02 115.84 81.23 115.56 80.33 115.56C78.80 115.56 77.88 116.29 77.94 117.41C78.06 119.52 81.65 118.87 81.78 120.26C81.83 120.83 81.31 121.23 80.41 121.23C79.76 121.23 79.11 120.97 78.64 120.64C78.55 120.57 78.46 120.54 78.34 120.54C78.07 120.54 77.84 120.75 77.84 121.03C77.84 121.16 77.89 121.26 77.98 121.34C78.55 121.91 79.50 122.16 80.36 122.16C82.02 122.16 82.97 121.30 82.91 120.10ZM94.18 115.99C94.18 114.55 93.19 113.33 91.41 113.33L88.61 113.33C88.15 113.33 87.77 113.71 87.77 114.17L87.77 121.44C87.77 121.79 88.05 122.08 88.41 122.08C88.77 122.08 89.06 121.79 89.06 121.44L89.06 118.66L91.41 118.66C93.16 118.66 94.18 117.44 94.18 115.99ZM92.85 115.99C92.85 116.89 92.19 117.52 91.24 117.52L89.06 117.52L89.06 114.47L91.24 114.47C92.19 114.47 92.85 115.08 92.85 115.99ZM100.90 116.20C100.90 115.90 100.64 115.64 100.34 115.64C100.00 115.64 99.74 115.90 99.74 116.20L99.74 119.19C99.74 120.26 99.06 121.13 98.13 121.13C97.19 121.13 96.66 120.41 96.66 119.37L96.66 116.20C96.66 115.90 96.40 115.64 96.10 115.64C95.76 115.64 95.50 115.90 95.50 116.20L95.50 119.78C95.50 121.10 96.44 122.16 97.77 122.16C98.86 122.16 99.40 121.67 99.74 121.14L99.74 121.51C99.74 121.82 100.00 122.08 100.31 122.08C100.64 122.08 100.90 121.82 100.90 121.51ZM108.78 118.87C108.78 116.85 107.74 115.56 106.11 115.56C105.15 115.56 104.42 115.95 103.91 116.63L103.91 113.81C103.91 113.51 103.65 113.25 103.36 113.25C103.02 113.25 102.76 113.51 102.76 113.81L102.76 121.51C102.76 121.82 103.02 122.08 103.33 122.08C103.65 122.08 103.91 121.82 103.91 121.51L103.91 121.10C104.38 121.73 105.14 122.16 105.98 122.16C107.61 122.16 108.78 120.92 108.78 118.87ZM107.57 118.87C107.57 120.18 106.98 121.13 105.79 121.13C104.95 121.13 103.91 120.22 103.91 118.92L103.91 118.83C103.91 117.54 104.69 116.59 105.79 116.59C106.98 116.59 107.57 117.55 107.57 118.87ZM111.43 113.81C111.43 113.51 111.17 113.25 110.87 113.25C110.53 113.25 110.27 113.51 110.27 113.81L110.27 121.51C110.27 121.82 110.53 122.08 110.84 122.08C111.17 122.08 111.43 121.82 111.43 121.51ZM113.87 113.39C113.47 113.39 113.13 113.73 113.13 114.15C113.13 114.55 113.47 114.89 113.87 114.89C114.29 114.89 114.61 114.55 114.61 114.15C114.61 113.73 114.29 113.39 113.87 113.39ZM114.46 116.20C114.46 115.90 114.20 115.64 113.90 115.64C113.56 115.64 113.30 115.90 113.30 116.20L113.30 121.51C113.30 121.82 113.56 122.08 113.87 122.08C114.20 122.08 114.46 121.82 114.46 121.51ZM120.93 120.10C120.81 117.89 117.21 118.50 117.08 117.37C117.03 116.86 117.58 116.49 118.37 116.49C118.97 116.49 119.53 116.68 119.93 116.97C120.01 117.03 120.10 117.06 120.20 117.06C120.44 117.06 120.66 116.86 120.66 116.61C120.66 116.50 120.62 116.40 120.54 116.32C120.05 115.84 119.25 115.56 118.36 115.56C116.82 115.56 115.90 116.29 115.96 117.41C116.08 119.52 119.67 118.87 119.80 120.26C119.85 120.83 119.33 121.23 118.43 121.23C117.78 121.23 117.13 120.97 116.67 120.64C116.58 120.57 116.48 120.54 116.37 120.54C116.09 120.54 115.86 120.75 115.86 121.03C115.86 121.16 115.91 121.26 116.00 121.34C116.58 121.91 117.52 122.16 118.38 122.16C120.05 122.16 121.00 121.30 120.93 120.10ZM127.82 117.94C127.82 116.62 126.87 115.56 125.55 115.56C124.44 115.56 123.87 116.10 123.57 116.61L123.57 113.81C123.57 113.51 123.31 113.25 123.01 113.25C122.67 113.25 122.41 113.51 122.41 113.81L122.41 121.51C122.41 121.82 122.67 122.08 122.98 122.08C123.31 122.08 123.57 121.82 123.57 121.51L123.57 118.56C123.57 117.39 124.19 116.59 125.18 116.59C126.12 116.59 126.66 117.29 126.66 118.33L126.66 121.51C126.66 121.82 126.92 122.08 127.24 122.08C127.56 122.08 127.82 121.82 127.82 121.51ZM135.49 118.65C135.49 118.40 135.43 118.13 135.37 117.92C135.01 116.51 133.97 115.56 132.45 115.56C130.63 115.56 129.32 117.03 129.32 118.85C129.32 120.83 130.68 122.16 132.55 122.16C133.48 122.16 135.09 121.67 135.09 120.97C135.09 120.53 134.65 120.43 134.36 120.57C133.90 120.91 133.20 121.22 132.67 121.22C131.40 121.22 130.62 120.35 130.52 119.27L134.89 119.27C135.22 119.27 135.49 118.96 135.49 118.65ZM130.52 118.41C130.58 117.54 131.19 116.50 132.44 116.50C133.77 116.50 134.35 117.57 134.37 118.41ZM142.61 113.81C142.61 113.51 142.35 113.25 142.06 113.25C141.72 113.25 141.46 113.51 141.46 113.81L141.46 116.63C140.95 115.95 140.34 115.56 139.39 115.56C137.75 115.56 136.60 116.85 136.60 118.87C136.60 120.92 137.77 122.16 139.39 122.16C140.37 122.16 140.98 121.73 141.46 121.10L141.46 121.51C141.46 121.82 141.72 122.08 142.03 122.08C142.35 122.08 142.61 121.82 142.61 121.51ZM141.46 118.91C141.46 120.21 140.81 121.13 139.69 121.13C138.52 121.13 137.79 120.18 137.79 118.87C137.79 117.55 138.52 116.59 139.69 116.59C140.81 116.59 141.46 117.54 141.46 118.83Z" fill="#22272e" /><path d="M182.46 114.32C182.46 113.73 181.96 113.26 181.38 113.26C181.08 113.26 180.79 113.38 180.60 113.58L178.60 115.60C178.44 115.76 178.36 115.95 178.36 116.15C178.36 116.58 178.73 116.92 179.13 116.92C179.31 116.92 179.49 116.85 179.64 116.71L180.61 115.71L180.61 121.17C180.61 121.66 181.03 122.08 181.52 122.08C182.04 122.08 182.46 121.66 182.46 121.17ZM190.83 119.40C190.83 118.94 190.47 118.58 190.04 118.58L189.63 118.58L189.63 114.29C189.63 113.48 188.85 113.12 188.06 113.25C187.50 113.25 186.94 113.55 186.64 114.02L183.75 118.59C183.63 118.78 183.58 118.98 183.58 119.19C183.58 119.78 184.00 120.21 184.53 120.21L187.79 120.21L187.79 121.17C187.79 121.66 188.20 122.08 188.70 122.08C189.22 122.08 189.63 121.66 189.63 121.17L189.63 120.21L190.04 120.21C190.47 120.21 190.83 119.84 190.83 119.40ZM185.45 118.58L187.79 114.97L187.79 118.58ZM193.87 121.36C193.87 120.52 193.31 120.04 192.70 120.04C192.16 120.04 191.69 120.50 191.69 121.08C191.69 121.64 192.08 122.01 192.57 122.01C192.66 122.01 192.78 121.99 192.82 121.97C192.74 122.31 192.45 122.72 192.12 122.99C192.03 123.07 191.99 123.17 191.99 123.27C191.99 123.53 192.26 123.69 192.48 123.69C192.61 123.69 192.73 123.65 192.82 123.56C193.47 122.97 193.87 122.19 193.87 121.36ZM201.63 119.18C201.63 117.33 200.24 116.36 198.68 116.36C197.60 116.36 196.80 116.89 196.46 117.48C196.45 117.41 196.45 117.36 196.45 117.29C196.45 115.92 197.34 114.84 198.62 114.84C199.06 114.84 199.42 114.91 199.75 115.08C199.87 115.15 200.00 115.17 200.13 115.17C200.53 115.17 200.97 114.86 200.97 114.37C200.97 114.24 200.93 114.12 200.88 114.02C200.55 113.45 199.46 113.20 198.62 113.20C196.06 113.20 194.57 115.06 194.57 117.68C194.57 120.13 195.68 122.16 198.32 122.16C200.29 122.16 201.63 120.87 201.63 119.18ZM199.76 119.24C199.76 119.89 199.28 120.52 198.28 120.52C197.46 120.52 196.85 119.96 196.85 119.15C196.85 118.37 197.47 117.81 198.28 117.81C199.11 117.81 199.76 118.37 199.76 119.24ZM209.49 119.15C209.49 117.40 208.17 116.34 206.70 116.34C205.91 116.34 205.21 116.66 204.79 117.07L204.79 114.95L208.19 114.95C208.61 114.95 208.98 114.59 208.98 114.15C208.98 113.69 208.61 113.33 208.19 113.33L203.99 113.33C203.41 113.33 202.95 113.80 202.95 114.37L202.95 117.70C202.95 118.20 203.31 118.58 203.88 118.58C204.14 118.58 204.39 118.50 204.60 118.36C205.06 118.05 205.52 117.94 206.05 117.94C207.04 117.94 207.61 118.46 207.61 119.23C207.61 119.93 207.03 120.52 206.00 120.52C205.38 120.52 204.78 120.35 204.27 120.04C204.12 119.95 203.95 119.89 203.79 119.89C203.34 119.89 202.91 120.25 202.91 120.73C202.91 120.86 202.95 120.99 203.01 121.10C203.41 121.78 204.88 122.16 206.01 122.16C208.11 122.16 209.49 121.00 209.49 119.15ZM217.56 117.67C217.56 115.44 216.44 113.20 213.97 113.20C211.49 113.20 210.38 115.44 210.38 117.67C210.38 119.91 211.49 122.16 213.97 122.16C216.44 122.16 217.56 119.91 217.56 117.67ZM215.67 117.67C215.67 119.27 215.20 120.52 213.97 120.52C212.72 120.52 212.25 119.27 212.25 117.67C212.25 116.07 212.72 114.84 213.97 114.84C215.20 114.84 215.67 116.07 215.67 117.67Z" fill="#627386" /></g></svg>