<svg xmlns="http://www.w3.org/2000/svg" width="420" height="184" viewBox="0 0 420 184" role="img"><rect x="0.5" y="0.5" width="419" height="183" rx="10" fill="#ffffff" stroke="#f2f4f6" /><path d="M30.21 36.59C30.21 35.87 29.59 35.25 28.87 35.25L24.09 35.25C27.90 32.48 29.97 30.30 29.97 27.79C29.97 24.87 27.48 23.11 24.36 23.11C22.51 23.11 20.05 23.90 19.34 25.02C19.21 25.22 19.14 25.44 19.14 25.66C19.14 26.45 19.78 27.07 20.51 27.07C20.84 27.07 21.12 26.98 21.41 26.78C22.25 26.21 23.26 25.88 24.42 25.88C25.63 25.88 26.80 26.52 26.80 27.79C26.80 29.51 25.04 31.11 19.56 35.16C19.14 35.47 18.90 35.98 18.90 36.48C18.90 37.36 19.61 38 20.38 38L28.87 38C29.59 38 30.21 37.38 30.21 36.59ZM35.93 36.92C35.93 35.49 34.98 34.68 33.95 34.68C33.03 34.68 32.23 35.47 32.23 36.44C32.23 37.38 32.89 38.02 33.73 38.02C33.88 38.02 34.08 37.98 34.15 37.96C34.02 38.53 33.53 39.21 32.96 39.67C32.81 39.80 32.74 39.98 32.74 40.16C32.74 40.60 33.20 40.86 33.58 40.86C33.80 40.86 33.99 40.79 34.15 40.64C35.25 39.65 35.93 38.33 35.93 36.92ZM42.24 25.00C42.24 24.01 41.41 23.22 40.42 23.22C39.91 23.22 39.43 23.41 39.10 23.74L35.71 27.18C35.45 27.44 35.31 27.77 35.31 28.10C35.31 28.83 35.93 29.40 36.61 29.40C36.92 29.40 37.23 29.29 37.47 29.05L39.12 27.35L39.12 36.59C39.12 37.43 39.82 38.13 40.66 38.13C41.54 38.13 42.24 37.43 42.24 36.59ZM55.64 34.00C55.82 31.36 54.04 30.43 54.04 30.43C54.04 30.43 55.66 29.60 55.49 27.09C55.31 24.65 53.38 23.11 49.94 23.11C47.92 23.11 46.34 23.70 45.13 24.67C44.82 24.91 44.66 25.26 44.66 25.61C44.66 26.38 45.35 26.93 46.03 26.93C46.29 26.93 46.56 26.87 46.78 26.71C47.63 26.16 48.60 25.88 49.61 25.88C51.15 25.88 52.34 26.23 52.34 27.40C52.34 28.61 51.62 29.18 50.14 29.18C49.09 29.18 48.62 29.77 48.62 30.54C48.62 31.31 49.09 31.93 50.23 31.93C51.73 31.93 52.58 32.46 52.58 33.62C52.58 34.72 51.59 35.49 49.81 35.49C48.80 35.49 47.63 35.14 46.67 34.57C46.42 34.41 46.16 34.35 45.90 34.35C45.17 34.35 44.47 34.94 44.47 35.73C44.47 35.95 44.53 36.15 44.64 36.33C45.32 37.47 47.81 38.26 49.92 38.26C53.44 38.26 55.47 36.75 55.64 34.00ZM69.30 33.23C69.30 30.10 66.95 28.45 64.31 28.45C62.48 28.45 61.12 29.35 60.55 30.34C60.53 30.23 60.53 30.15 60.53 30.04C60.53 27.70 62.04 25.88 64.20 25.88C64.95 25.88 65.56 26.01 66.11 26.30C66.31 26.41 66.53 26.45 66.75 26.45C67.43 26.45 68.18 25.92 68.18 25.09C68.18 24.87 68.12 24.67 68.03 24.49C67.48 23.52 65.63 23.11 64.20 23.11C59.87 23.11 57.36 26.25 57.36 30.70C57.36 34.83 59.23 38.26 63.69 38.26C67.04 38.26 69.30 36.09 69.30 33.23ZM66.14 33.34C66.14 34.44 65.32 35.49 63.63 35.49C62.24 35.49 61.21 34.55 61.21 33.18C61.21 31.86 62.26 30.92 63.63 30.92C65.04 30.92 66.14 31.86 66.14 33.34ZM74.72 36.92C74.72 35.49 73.77 34.68 72.74 34.68C71.81 34.68 71.02 35.47 71.02 36.44C71.02 37.38 71.68 38.02 72.52 38.02C72.67 38.02 72.87 37.98 72.93 37.96C72.80 38.53 72.32 39.21 71.75 39.67C71.59 39.80 71.53 39.98 71.53 40.16C71.53 40.60 71.99 40.86 72.36 40.86C72.58 40.86 72.78 40.79 72.93 40.64C74.03 39.65 74.72 38.33 74.72 36.92ZM88.22 33.18C88.22 30.21 86.00 28.43 83.52 28.43C82.17 28.43 80.99 28.96 80.28 29.66L80.28 26.08L86.02 26.08C86.75 26.08 87.37 25.46 87.37 24.71C87.37 23.94 86.75 23.33 86.02 23.33L78.92 23.33C77.95 23.33 77.16 24.12 77.16 25.09L77.16 30.72C77.16 31.58 77.77 32.21 78.74 32.21C79.18 32.21 79.60 32.08 79.95 31.84C80.74 31.31 81.51 31.14 82.42 31.14C84.09 31.14 85.06 32.02 85.06 33.31C85.06 34.50 84.07 35.49 82.33 35.49C81.27 35.49 80.26 35.21 79.40 34.68C79.14 34.52 78.85 34.44 78.59 34.44C77.82 34.44 77.09 35.03 77.09 35.84C77.09 36.06 77.16 36.28 77.27 36.48C77.95 37.63 80.44 38.26 82.35 38.26C85.89 38.26 88.22 36.31 88.22 33.18ZM101.69 33.23C101.69 30.10 99.33 28.45 96.69 28.45C94.87 28.45 93.50 29.35 92.93 30.34C92.91 30.23 92.91 30.15 92.91 30.04C92.91 27.70 94.43 25.88 96.58 25.88C97.33 25.88 97.95 26.01 98.50 26.30C98.70 26.41 98.92 26.45 99.14 26.45C99.82 26.45 100.57 25.92 100.57 25.09C100.57 24.87 100.50 24.67 100.41 24.49C99.86 23.52 98.01 23.11 96.58 23.11C92.25 23.11 89.74 26.25 89.74 30.70C89.74 34.83 91.61 38.26 96.08 38.26C99.42 38.26 101.69 36.09 101.69 33.23ZM98.52 33.34C98.52 34.44 97.71 35.49 96.01 35.49C94.63 35.49 93.59 34.55 93.59 33.18C93.59 31.86 94.65 30.92 96.01 30.92C97.42 30.92 98.52 31.86 98.52 33.34ZM114.58 36.59C114.58 35.87 113.96 35.25 113.24 35.25L108.46 35.25C112.27 32.48 114.34 30.30 114.34 27.79C114.34 24.87 111.85 23.11 108.73 23.11C106.88 23.11 104.42 23.90 103.71 25.02C103.58 25.22 103.51 25.44 103.51 25.66C103.51 26.45 104.15 27.07 104.88 27.07C105.21 27.07 105.49 26.98 105.78 26.78C106.62 26.21 107.63 25.88 108.79 25.88C110.00 25.88 111.17 26.52 111.17 27.79C111.17 29.51 109.41 31.11 103.93 35.16C103.51 35.47 103.27 35.98 103.27 36.48C103.27 37.36 103.98 38 104.75 38L113.24 38C113.96 38 114.58 37.38 114.58 36.59ZM120.30 36.92C120.30 35.49 119.35 34.68 118.32 34.68C117.40 34.68 116.60 35.47 116.60 36.44C116.60 37.38 117.26 38.02 118.10 38.02C118.25 38.02 118.45 37.98 118.52 37.96C118.39 38.53 117.90 39.21 117.33 39.67C117.18 39.80 117.11 39.98 117.11 40.16C117.11 40.60 117.57 40.86 117.95 40.86C118.17 40.86 118.36 40.79 118.52 40.64C119.62 39.65 120.30 38.33 120.30 36.92ZM133.15 34.00C133.32 31.36 131.54 30.43 131.54 30.43C131.54 30.43 133.17 29.60 132.99 27.09C132.82 24.65 130.88 23.11 127.45 23.11C125.43 23.11 123.84 23.70 122.63 24.67C122.32 24.91 122.17 25.26 122.17 25.61C122.17 26.38 122.85 26.93 123.53 26.93C123.80 26.93 124.06 26.87 124.28 26.71C125.14 26.16 126.11 25.88 127.12 25.88C128.66 25.88 129.85 26.23 129.85 27.40C129.85 28.61 129.12 29.18 127.65 29.18C126.59 29.18 126.13 29.77 126.13 30.54C126.13 31.31 126.59 31.93 127.74 31.93C129.23 31.93 130.09 32.46 130.09 33.62C130.09 34.72 129.10 35.49 127.32 35.49C126.31 35.49 125.14 35.14 124.17 34.57C123.93 34.41 123.67 34.35 123.40 34.35C122.68 34.35 121.97 34.94 121.97 35.73C121.97 35.95 122.04 36.15 122.15 36.33C122.83 37.47 125.32 38.26 127.43 38.26C130.95 38.26 132.97 36.75 133.15 34.00ZM146.68 33.97C146.68 31.97 145.49 30.83 144.61 30.43C145.36 30.08 146.44 29.24 146.44 26.98C146.44 24.45 143.71 23.11 140.78 23.11C137.83 23.11 135.13 24.45 135.13 26.98C135.13 29.24 136.18 30.08 136.93 30.43C136.05 30.83 134.89 31.97 134.89 33.97C134.89 36.72 137.70 38.26 140.78 38.26C143.86 38.26 146.68 36.70 146.68 33.97ZM143.25 27.46C143.25 28.56 142.12 29.20 140.78 29.20C139.44 29.20 138.30 28.56 138.30 27.46C138.30 26.41 139.33 25.79 140.78 25.79C142.21 25.79 143.25 26.41 143.25 27.46ZM143.51 33.80C143.51 34.88 142.28 35.58 140.78 35.58C139.24 35.58 138.05 34.88 138.05 33.80C138.05 32.57 139.42 31.84 140.78 31.84C142.12 31.84 143.51 32.57 143.51 33.80ZM159.13 24.91C159.13 23.99 158.38 23.33 157.61 23.33L149.21 23.33C148.46 23.33 147.84 23.94 147.84 24.67C147.84 25.46 148.46 26.08 149.21 26.08L155.37 26.08L150.99 36.00C150.90 36.20 150.86 36.39 150.86 36.59C150.86 37.38 151.50 38.13 152.42 38.13C153.06 38.13 153.65 37.76 153.89 37.19L159.00 25.53C159.09 25.35 159.13 25.13 159.13 24.91ZM180.10 30.67C180.10 26.25 176.91 23.33 172.31 23.33L168.28 23.33C167.31 23.33 166.52 24.12 166.52 25.09L166.52 36.24C166.52 37.21 167.31 38 168.28 38L172.31 38C176.91 38 180.10 35.10 180.10 30.67ZM176.91 30.67C176.91 33.16 175.21 35.25 172.31 35.25L169.65 35.25L169.65 26.08L172.31 26.08C175.32 26.08 176.91 28.08 176.91 30.67ZM192.81 32.68C192.81 29.66 190.70 27.11 187.18 27.11C183.68 27.11 181.57 29.66 181.57 32.68C181.57 35.71 183.68 38.26 187.18 38.26C190.70 38.26 192.81 35.71 192.81 32.68ZM189.91 32.68C189.91 34.35 188.92 35.78 187.18 35.78C185.44 35.78 184.47 34.35 184.47 32.68C184.47 31.03 185.44 29.60 187.18 29.60C188.92 29.60 189.91 31.03 189.91 32.68ZM209.99 28.58C209.99 27.88 209.42 27.24 208.61 27.24C207.99 27.24 207.42 27.64 207.27 28.23L205.53 34.52L203.53 28.36C203.31 27.70 202.67 27.24 201.99 27.24C201.24 27.24 200.60 27.70 200.38 28.36L198.38 34.52L196.64 28.23C196.49 27.64 195.91 27.24 195.32 27.24C194.48 27.24 193.91 27.90 193.91 28.58C193.91 28.72 193.93 28.85 193.98 28.98L196.35 36.77C196.60 37.56 197.37 38.13 198.20 38.13L198.25 38.13C199.08 38.13 199.85 37.56 200.09 36.77L201.96 30.76L203.83 36.77C204.08 37.58 204.82 38.13 205.68 38.13L205.73 38.13C206.54 38.13 207.31 37.56 207.55 36.77L209.93 28.98C209.97 28.85 209.99 28.72 209.99 28.58ZM221.76 31.16C221.76 29.09 219.98 27.11 217.65 27.11C216.02 27.11 215.01 27.97 214.59 28.63L214.59 28.61C214.59 27.86 213.98 27.24 213.23 27.24C212.41 27.24 211.80 27.86 211.80 28.61L211.80 36.75C211.80 37.52 212.41 38.13 213.18 38.13C213.98 38.13 214.59 37.52 214.59 36.75L214.59 32.06C214.59 30.54 215.69 29.60 216.79 29.60C217.98 29.60 218.97 30.54 218.97 32.02L218.97 36.75C218.97 37.52 219.59 38.13 220.36 38.13C221.15 38.13 221.76 37.52 221.76 36.75ZM227.33 24.56C227.33 23.81 226.71 23.19 225.97 23.19C225.15 23.19 224.54 23.81 224.54 24.56L224.54 36.75C224.54 37.52 225.15 38.13 225.92 38.13C226.71 38.13 227.33 37.52 227.33 36.75ZM240.66 32.68C240.66 29.66 238.55 27.11 235.03 27.11C231.53 27.11 229.42 29.66 229.42 32.68C229.42 35.71 231.53 38.26 235.03 38.26C238.55 38.26 240.66 35.71 240.66 32.68ZM237.76 32.68C237.76 34.35 236.77 35.78 235.03 35.78C233.29 35.78 232.32 34.35 232.32 32.68C232.32 31.03 233.29 29.60 235.03 29.60C236.77 29.60 237.76 31.03 237.76 32.68ZM251.90 31.14C251.90 28.08 249.68 27.11 247.26 27.11C246.03 27.11 243.65 27.55 242.99 28.61C242.91 28.76 242.84 28.96 242.84 29.16C242.84 29.82 243.39 30.23 243.90 30.23C244.07 30.23 244.25 30.17 244.40 30.08C245.13 29.60 245.94 29.40 246.78 29.40C248.19 29.40 249.11 30.10 249.11 31.18L249.11 31.53L245.74 31.53C244.05 31.53 242.05 32.26 242.05 34.74C242.05 37.12 244.05 38.26 245.74 38.26C247.35 38.26 248.38 37.87 249.11 37.01C249.11 37.49 249.57 38.13 250.32 38.13L250.54 38.13C251.29 38.13 251.90 37.52 251.90 36.75ZM249.11 33.42L249.11 33.91C249.11 35.62 247.77 36.37 246.87 36.37C245.77 36.37 244.86 35.80 244.86 34.81C244.86 33.78 245.77 33.42 246.87 33.42ZM254.02 32.70C254.02 36.24 256.26 38.26 258.94 38.26C260.22 38.26 261.39 37.69 262.00 36.64L262.00 36.75C262.00 37.52 262.62 38.13 263.41 38.13C264.18 38.13 264.80 37.52 264.80 36.75L264.80 24.56C264.80 23.81 264.18 23.19 263.37 23.19C262.62 23.19 262.00 23.81 262.00 24.56L262.00 28.74C261.39 27.66 260.20 27.11 258.94 27.11C256.24 27.11 254.02 29.22 254.02 32.70ZM256.90 32.70C256.90 30.85 257.98 29.60 259.60 29.60C260.73 29.60 262.00 30.78 262.00 32.59L262.00 32.83C262.00 34.61 260.73 35.78 259.60 35.78C257.98 35.78 256.90 34.55 256.90 32.70ZM275.99 34.85C275.99 30.56 269.70 31.88 269.70 30.30C269.70 29.71 270.36 29.24 271.37 29.24C272.23 29.24 273.09 29.49 273.77 29.88C273.93 29.97 274.12 30.01 274.30 30.01C274.87 30.01 275.40 29.55 275.40 28.96C275.40 28.76 275.33 28.56 275.22 28.41C274.63 27.55 272.74 27.11 271.35 27.11C268.56 27.11 267.00 28.67 267.00 30.45C267.00 34.63 273.31 33.20 273.31 34.96C273.31 35.62 272.74 36.11 271.53 36.11C270.60 36.11 269.50 35.73 268.67 35.25C268.49 35.14 268.29 35.10 268.10 35.10C267.50 35.10 266.93 35.60 266.93 36.26C266.93 36.48 267.00 36.68 267.13 36.86C267.79 37.80 270.01 38.26 271.40 38.26C274.34 38.26 275.99 36.79 275.99 34.85Z" fill="#22272e" /><path d="M20.26 49.88C20.26 49.54 19.98 49.25 19.64 49.25C19.26 49.25 18.98 49.54 18.98 49.88L18.98 57.44C18.98 57.79 19.26 58.08 19.61 58.08C19.98 58.08 20.26 57.79 20.26 57.44ZM27.55 53.97C27.55 52.64 26.59 51.56 25.27 51.56C24.18 51.56 23.62 52.10 23.32 52.60L23.32 52.20C23.32 51.90 23.06 51.64 22.76 51.64C22.42 51.64 22.16 51.90 22.16 52.20L22.16 57.51C22.16 57.82 22.42 58.08 22.73 58.08C23.06 58.08 23.32 57.82 23.32 57.51L23.32 54.49C23.32 53.42 23.89 52.59 24.89 52.59C25.83 52.59 26.40 53.32 26.40 54.36L26.40 57.51C26.40 57.82 26.66 58.08 26.97 58.08C27.30 58.08 27.55 57.82 27.55 57.51ZM38.97 49.91C38.97 49.58 38.72 49.33 38.41 49.33L32.70 49.33C32.39 49.33 32.14 49.58 32.14 49.89C32.14 50.21 32.39 50.47 32.70 50.47L34.91 50.47L34.91 57.44C34.91 57.79 35.20 58.08 35.55 58.08C35.91 58.08 36.20 57.79 36.20 57.44L36.20 50.47L38.41 50.47C38.72 50.47 38.97 50.21 38.97 49.91ZM44.74 54.85C44.74 53.05 43.53 51.56 41.57 51.56C39.62 51.56 38.41 53.05 38.41 54.85C38.41 56.66 39.62 58.16 41.57 58.16C43.53 58.16 44.74 56.66 44.74 54.85ZM43.53 54.85C43.53 56.06 42.83 57.13 41.57 57.13C40.32 57.13 39.61 56.06 39.61 54.85C39.61 53.66 40.32 52.59 41.57 52.59C42.83 52.59 43.53 53.66 43.53 54.85ZM49.16 57.55C49.16 57.27 48.95 57.06 48.67 57.06C48.54 57.06 48.38 57.13 48.24 57.13C47.86 57.13 47.63 56.83 47.63 56.35L47.63 52.73L48.48 52.73C48.76 52.73 48.98 52.51 48.98 52.24C48.98 51.94 48.76 51.72 48.48 51.72L47.63 51.72L47.63 50.49C47.63 50.19 47.37 49.93 47.05 49.93C46.72 49.93 46.46 50.19 46.46 50.49L46.46 51.72L45.85 51.72C45.56 51.72 45.34 51.94 45.34 52.22C45.34 52.51 45.56 52.73 45.85 52.73L46.46 52.73L46.46 56.62C46.46 57.61 46.98 58.16 47.96 58.16C48.65 58.16 49.16 57.96 49.16 57.55ZM55.26 53.75C55.26 52.15 54.09 51.56 52.74 51.56C51.89 51.56 50.94 51.84 50.34 52.44C50.27 52.53 50.23 52.63 50.23 52.73C50.23 53.01 50.47 53.19 50.71 53.19C50.80 53.19 50.90 53.15 50.99 53.09C51.46 52.72 51.98 52.54 52.57 52.54C53.45 52.54 54.10 53.01 54.10 53.80L54.10 54.15L52.29 54.15C50.99 54.15 49.85 54.66 49.85 56.08C49.85 57.45 50.99 58.16 52.03 58.16C53.01 58.16 53.59 57.86 54.10 57.30L54.10 57.51C54.10 57.88 54.40 58.08 54.63 58.08L54.67 58.08C55.00 58.08 55.26 57.82 55.26 57.51ZM54.10 54.96L54.10 55.84C54.10 56.58 53.26 57.34 52.35 57.34C51.50 57.34 51.02 56.83 51.02 56.10C51.02 55.35 51.62 54.96 52.61 54.96ZM58.27 49.81C58.27 49.51 58.01 49.25 57.71 49.25C57.38 49.25 57.12 49.51 57.12 49.81L57.12 57.51C57.12 57.82 57.38 58.08 57.69 58.08C58.01 58.08 58.27 57.82 58.27 57.51Z" fill="#627386" /><line x1="18" y1="76" x2="48" y2="76" stroke="#627386" stroke-opacity="0.4" /><g aria-label="Packages: 108"><circle cx="22" cy="96" r="4" fill="#673bd6" /><path d="M41.38 93.99C41.38 92.55 40.40 91.33 38.62 91.33L35.82 91.33C35.35 91.33 34.98 91.71 34.98 92.17L34.98 99.44C34.98 99.79 35.26 100.08 35.61 100.08C35.98 100.08 36.26 99.79 36.26 99.44L36.26 96.66L38.62 96.66C40.37 96.66 41.38 95.44 41.38 93.99ZM40.06 93.99C40.06 94.89 39.40 95.52 38.45 95.52L36.26 95.52L36.26 92.47L38.45 92.47C39.40 92.47 40.06 93.08 40.06 93.99ZM47.48 95.75C47.48 94.15 46.31 93.56 44.96 93.56C44.11 93.56 43.17 93.84 42.57 94.44C42.49 94.53 42.45 94.63 42.45 94.73C42.45 95.01 42.70 95.19 42.93 95.19C43.02 95.19 43.13 95.15 43.22 95.09C43.69 94.72 44.21 94.54 44.79 94.54C45.67 94.54 46.32 95.01 46.32 95.80L46.32 96.15L44.52 96.15C43.22 96.15 42.07 96.66 42.07 98.08C42.07 99.45 43.22 100.16 44.26 100.16C45.23 100.16 45.82 99.86 46.32 99.30L46.32 99.51C46.32 99.88 46.62 100.08 46.86 100.08L46.90 100.08C47.22 100.08 47.48 99.82 47.48 99.51ZM46.32 96.96L46.32 97.84C46.32 98.58 45.48 99.34 44.57 99.34C43.72 99.34 43.24 98.83 43.24 98.10C43.24 97.35 43.84 96.96 44.83 96.96ZM54.35 99.05C54.35 98.75 54.07 98.54 53.80 98.54C53.67 98.54 53.54 98.58 53.44 98.66C53.08 98.97 52.68 99.13 52.21 99.13C50.97 99.13 50.16 98.17 50.16 96.85C50.16 95.54 50.97 94.59 52.21 94.59C52.67 94.59 53.08 94.73 53.44 95.05C53.54 95.14 53.67 95.19 53.80 95.19C54.09 95.19 54.33 94.96 54.33 94.67C54.33 94.57 54.31 94.47 54.24 94.40C53.81 93.90 53.11 93.56 52.15 93.56C50.26 93.56 48.96 94.98 48.96 96.85C48.96 98.74 50.26 100.16 52.15 100.16C53.08 100.16 53.72 99.84 54.19 99.39C54.29 99.30 54.35 99.17 54.35 99.05ZM60.92 99.51C60.92 99.39 60.88 99.26 60.81 99.17L58.74 96.57L60.69 94.53C60.78 94.42 60.83 94.31 60.83 94.18C60.83 93.89 60.57 93.63 60.29 93.63C60.16 93.63 60.01 93.69 59.91 93.80L56.95 96.92L56.95 91.81C56.95 91.51 56.69 91.25 56.39 91.25C56.05 91.25 55.79 91.51 55.79 91.81L55.79 99.51C55.79 99.82 56.05 100.08 56.36 100.08C56.69 100.08 56.95 99.82 56.95 99.51L56.95 98.26L57.91 97.28L59.90 99.86C60.00 100.01 60.18 100.09 60.35 100.09C60.70 100.09 60.92 99.78 60.92 99.51ZM67.59 95.75C67.59 94.15 66.42 93.56 65.07 93.56C64.23 93.56 63.28 93.84 62.68 94.44C62.60 94.53 62.56 94.63 62.56 94.73C62.56 95.01 62.81 95.19 63.04 95.19C63.13 95.19 63.24 95.15 63.33 95.09C63.80 94.72 64.32 94.54 64.90 94.54C65.78 94.54 66.44 95.01 66.44 95.80L66.44 96.15L64.63 96.15C63.33 96.15 62.18 96.66 62.18 98.08C62.18 99.45 63.33 100.16 64.37 100.16C65.34 100.16 65.93 99.86 66.44 99.30L66.44 99.51C66.44 99.88 66.73 100.08 66.97 100.08L67.01 100.08C67.33 100.08 67.59 99.82 67.59 99.51ZM66.44 96.96L66.44 97.84C66.44 98.58 65.59 99.34 64.68 99.34C63.84 99.34 63.35 98.83 63.35 98.10C63.35 97.35 63.95 96.96 64.94 96.96ZM75.08 94.20C75.08 93.90 74.82 93.64 74.52 93.64C74.18 93.64 73.92 93.90 73.92 94.20L73.92 94.63C73.42 93.95 72.69 93.56 71.86 93.56C70.23 93.56 69.07 94.79 69.07 96.81C69.07 98.86 70.24 100.05 71.86 100.05C72.71 100.05 73.45 99.60 73.92 98.96L73.92 99.79C73.92 101.13 72.96 101.60 71.99 101.60C71.30 101.60 70.75 101.46 70.27 101.05C70.18 100.99 70.09 100.96 69.97 100.96C69.71 100.96 69.48 101.18 69.48 101.46C69.48 101.59 69.53 101.70 69.61 101.78C70.22 102.37 71.10 102.55 71.99 102.55C73.52 102.55 75.08 101.91 75.08 99.75ZM73.92 96.83C73.92 98.11 73.08 99.03 72.04 99.03C70.87 99.03 70.27 98.10 70.27 96.81C70.27 95.50 70.87 94.59 72.04 94.59C73.08 94.59 73.92 95.49 73.92 96.78ZM82.75 96.65C82.75 96.40 82.69 96.13 82.63 95.92C82.27 94.51 81.23 93.56 79.71 93.56C77.89 93.56 76.58 95.03 76.58 96.85C76.58 98.83 77.94 100.16 79.81 100.16C80.73 100.16 82.35 99.67 82.35 98.97C82.35 98.53 81.91 98.43 81.62 98.57C81.16 98.91 80.46 99.22 79.93 99.22C78.66 99.22 77.88 98.35 77.78 97.27L82.15 97.27C82.48 97.27 82.75 96.96 82.75 96.65ZM77.78 96.41C77.84 95.54 78.45 94.50 79.70 94.50C81.03 94.50 81.61 95.57 81.63 96.41ZM88.83 98.10C88.72 95.89 85.12 96.50 84.99 95.37C84.93 94.86 85.48 94.49 86.27 94.49C86.87 94.49 87.43 94.68 87.83 94.97C87.91 95.03 88.00 95.06 88.11 95.06C88.34 95.06 88.56 94.86 88.56 94.61C88.56 94.50 88.52 94.40 88.44 94.32C87.95 93.84 87.16 93.56 86.26 93.56C84.73 93.56 83.80 94.29 83.87 95.41C83.99 97.52 87.57 96.87 87.70 98.26C87.76 98.83 87.24 99.23 86.34 99.23C85.69 99.23 85.04 98.97 84.57 98.64C84.48 98.57 84.39 98.54 84.27 98.54C84.00 98.54 83.76 98.75 83.76 99.03C83.76 99.16 83.82 99.26 83.91 99.34C84.48 99.91 85.43 100.16 86.29 100.16C87.95 100.16 88.90 99.30 88.83 98.10Z" fill="#22272e" /><path d="M201.20 92.32C201.20 91.73 200.71 91.26 200.13 91.26C199.83 91.26 199.54 91.38 199.34 91.58L197.34 93.60C197.19 93.76 197.11 93.95 197.11 94.15C197.11 94.58 197.47 94.92 197.88 94.92C198.06 94.92 198.24 94.85 198.38 94.71L199.36 93.71L199.36 99.17C199.36 99.66 199.77 100.08 200.27 100.08C200.79 100.08 201.20 99.66 201.20 99.17ZM209.68 95.67C209.68 93.44 208.56 91.20 206.09 91.20C203.61 91.20 202.50 93.44 202.50 95.67C202.50 97.91 203.61 100.16 206.09 100.16C208.56 100.16 209.68 97.91 209.68 95.67ZM207.79 95.67C207.79 97.27 207.33 98.52 206.09 98.52C204.84 98.52 204.38 97.27 204.38 95.67C204.38 94.07 204.84 92.84 206.09 92.84C207.33 92.84 207.79 94.07 207.79 95.67ZM217.54 97.62C217.54 96.44 216.84 95.76 216.32 95.53C216.76 95.32 217.40 94.83 217.40 93.49C217.40 91.99 215.79 91.20 214.06 91.20C212.32 91.20 210.72 91.99 210.72 93.49C210.72 94.83 211.34 95.32 211.79 95.53C211.27 95.76 210.58 96.44 210.58 97.62C210.58 99.25 212.24 100.16 214.06 100.16C215.88 100.16 217.54 99.23 217.54 97.62ZM215.52 93.77C215.52 94.42 214.85 94.80 214.06 94.80C213.27 94.80 212.59 94.42 212.59 93.77C212.59 93.15 213.20 92.78 214.06 92.78C214.91 92.78 215.52 93.15 215.52 93.77ZM215.67 97.52C215.67 98.15 214.94 98.57 214.06 98.57C213.15 98.57 212.45 98.15 212.45 97.52C212.45 96.79 213.25 96.36 214.06 96.36C214.85 96.36 215.67 96.79 215.67 97.52Z" fill="#627386" /></g><g aria-label="Organizations: 8"><circle cx="22" cy="118" r="4" fill="#2c96f2" /><path d="M43.33 117.67C43.33 115.10 41.54 113.19 38.97 113.19C36.38 113.19 34.60 115.10 34.60 117.67C34.60 120.25 36.38 122.16 38.97 122.16C41.54 122.16 43.33 120.25 43.33 117.67ZM42.01 117.67C42.01 119.58 40.81 121.01 38.97 121.01C37.11 121.01 35.94 119.58 35.94 117.67C35.94 115.75 37.11 114.33 38.97 114.33C40.81 114.33 42.01 115.75 42.01 117.67ZM48.18 116.15C48.18 115.85 47.96 115.63 47.66 115.63C46.96 115.63 46.39 116.22 46.04 116.70L46.04 116.20C46.04 115.90 45.78 115.64 45.48 115.64C45.14 115.64 44.88 115.90 44.88 116.20L44.88 121.51C44.88 121.82 45.13 122.06 45.44 122.08L45.45 122.08C45.78 122.08 46.04 121.82 46.04 121.51L46.04 118.28C46.04 117.46 46.61 116.81 47.60 116.76C47.92 116.75 48.18 116.49 48.18 116.15ZM54.90 116.20C54.90 115.90 54.64 115.64 54.34 115.64C54.01 115.64 53.75 115.90 53.75 116.20L53.75 116.63C53.24 115.95 52.51 115.56 51.68 115.56C50.05 115.56 48.90 116.79 48.90 118.81C48.90 120.86 50.07 122.05 51.68 122.05C52.54 122.05 53.28 121.60 53.75 120.96L53.75 121.79C53.75 123.13 52.78 123.60 51.81 123.60C51.12 123.60 50.57 123.46 50.09 123.05C50.00 122.99 49.91 122.96 49.80 122.96C49.53 122.96 49.30 123.18 49.30 123.46C49.30 123.59 49.35 123.70 49.43 123.78C50.04 124.37 50.93 124.55 51.81 124.55C53.34 124.55 54.90 123.91 54.90 121.75ZM53.75 118.83C53.75 120.11 52.90 121.03 51.86 121.03C50.69 121.03 50.09 120.10 50.09 118.81C50.09 117.50 50.69 116.59 51.86 116.59C52.90 116.59 53.75 117.49 53.75 118.78ZM61.82 117.75C61.82 116.15 60.65 115.56 59.30 115.56C58.45 115.56 57.50 115.84 56.91 116.44C56.83 116.53 56.79 116.63 56.79 116.73C56.79 117.01 57.04 117.19 57.27 117.19C57.36 117.19 57.46 117.15 57.56 117.09C58.02 116.72 58.54 116.54 59.13 116.54C60.01 116.54 60.66 117.01 60.66 117.80L60.66 118.15L58.86 118.15C57.56 118.15 56.41 118.66 56.41 120.08C56.41 121.45 57.56 122.16 58.60 122.16C59.57 122.16 60.16 121.86 60.66 121.30L60.66 121.51C60.66 121.88 60.96 122.08 61.20 122.08L61.23 122.08C61.56 122.08 61.82 121.82 61.82 121.51ZM60.66 118.96L60.66 119.84C60.66 120.58 59.82 121.34 58.91 121.34C58.06 121.34 57.58 120.83 57.58 120.10C57.58 119.35 58.18 118.96 59.17 118.96ZM69.07 117.97C69.07 116.64 68.11 115.56 66.79 115.56C65.69 115.56 65.13 116.10 64.84 116.61L64.84 116.20C64.84 115.90 64.58 115.64 64.28 115.64C63.94 115.64 63.68 115.90 63.68 116.20L63.68 121.51C63.68 121.82 63.94 122.08 64.25 122.08C64.58 122.08 64.84 121.82 64.84 121.51L64.84 118.49C64.84 117.42 65.41 116.59 66.41 116.59C67.34 116.59 67.92 117.32 67.92 118.36L67.92 121.51C67.92 121.82 68.18 122.08 68.49 122.08C68.81 122.08 69.07 121.82 69.07 121.51ZM71.52 113.39C71.11 113.39 70.78 113.73 70.78 114.15C70.78 114.55 71.11 114.89 71.52 114.89C71.93 114.89 72.26 114.55 72.26 114.15C72.26 113.73 71.93 113.39 71.52 113.39ZM72.10 116.20C72.10 115.90 71.84 115.64 71.54 115.64C71.21 115.64 70.95 115.90 70.95 116.20L70.95 121.51C70.95 121.82 71.21 122.08 71.52 122.08C71.84 122.08 72.10 121.82 72.10 121.51ZM78.63 121.48C78.63 121.22 78.41 121.00 78.15 121.00L75.18 121.00L78.45 116.66C78.52 116.55 78.56 116.42 78.56 116.29C78.56 115.95 78.30 115.72 78.04 115.72L74.09 115.72C73.82 115.72 73.60 115.94 73.60 116.22C73.60 116.51 73.82 116.73 74.09 116.73L76.96 116.73L73.74 121.04C73.66 121.14 73.61 121.27 73.61 121.42C73.61 121.75 73.86 122 74.16 122L78.15 122C78.41 122 78.63 121.78 78.63 121.48ZM85.18 117.75C85.18 116.15 84.01 115.56 82.66 115.56C81.81 115.56 80.86 115.84 80.27 116.44C80.19 116.53 80.15 116.63 80.15 116.73C80.15 117.01 80.40 117.19 80.63 117.19C80.72 117.19 80.83 117.15 80.92 117.09C81.38 116.72 81.90 116.54 82.49 116.54C83.37 116.54 84.02 117.01 84.02 117.80L84.02 118.15L82.22 118.15C80.92 118.15 79.77 118.66 79.77 120.08C79.77 121.45 80.92 122.16 81.96 122.16C82.93 122.16 83.52 121.86 84.02 121.30L84.02 121.51C84.02 121.88 84.32 122.08 84.56 122.08L84.60 122.08C84.92 122.08 85.18 121.82 85.18 121.51ZM84.02 118.96L84.02 119.84C84.02 120.58 83.18 121.34 82.27 121.34C81.42 121.34 80.94 120.83 80.94 120.10C80.94 119.35 81.54 118.96 82.53 118.96ZM89.97 121.55C89.97 121.27 89.76 121.06 89.47 121.06C89.34 121.06 89.19 121.13 89.04 121.13C88.67 121.13 88.43 120.83 88.43 120.35L88.43 116.73L89.29 116.73C89.56 116.73 89.78 116.51 89.78 116.24C89.78 115.94 89.56 115.72 89.29 115.72L88.43 115.72L88.43 114.49C88.43 114.19 88.17 113.93 87.86 113.93C87.52 113.93 87.26 114.19 87.26 114.49L87.26 115.72L86.65 115.72C86.36 115.72 86.14 115.94 86.14 116.22C86.14 116.51 86.36 116.73 86.65 116.73L87.26 116.73L87.26 120.62C87.26 121.61 87.78 122.16 88.77 122.16C89.46 122.16 89.97 121.96 89.97 121.55ZM91.59 113.39C91.19 113.39 90.85 113.73 90.85 114.15C90.85 114.55 91.19 114.89 91.59 114.89C92.01 114.89 92.33 114.55 92.33 114.15C92.33 113.73 92.01 113.39 91.59 113.39ZM92.17 116.20C92.17 115.90 91.91 115.64 91.62 115.64C91.28 115.64 91.02 115.90 91.02 116.20L91.02 121.51C91.02 121.82 91.28 122.08 91.59 122.08C91.91 122.08 92.17 121.82 92.17 121.51ZM100.00 118.85C100.00 117.05 98.79 115.56 96.83 115.56C94.88 115.56 93.67 117.05 93.67 118.85C93.67 120.66 94.88 122.16 96.83 122.16C98.79 122.16 100.00 120.66 100.00 118.85ZM98.79 118.85C98.79 120.06 98.09 121.13 96.83 121.13C95.58 121.13 94.87 120.06 94.87 118.85C94.87 117.66 95.58 116.59 96.83 116.59C98.09 116.59 98.79 117.66 98.79 118.85ZM106.89 117.97C106.89 116.64 105.93 115.56 104.60 115.56C103.51 115.56 102.95 116.10 102.65 116.61L102.65 116.20C102.65 115.90 102.39 115.64 102.09 115.64C101.76 115.64 101.50 115.90 101.50 116.20L101.50 121.51C101.50 121.82 101.76 122.08 102.07 122.08C102.39 122.08 102.65 121.82 102.65 121.51L102.65 118.49C102.65 117.42 103.22 116.59 104.23 116.59C105.16 116.59 105.73 117.32 105.73 118.36L105.73 121.51C105.73 121.82 105.99 122.08 106.31 122.08C106.63 122.08 106.89 121.82 106.89 121.51ZM113.36 120.10C113.25 117.89 109.65 118.50 109.52 117.37C109.46 116.86 110.01 116.49 110.80 116.49C111.40 116.49 111.96 116.68 112.36 116.97C112.44 117.03 112.53 117.06 112.64 117.06C112.87 117.06 113.09 116.86 113.09 116.61C113.09 116.50 113.05 116.40 112.97 116.32C112.48 115.84 111.69 115.56 110.79 115.56C109.26 115.56 108.33 116.29 108.40 117.41C108.52 119.52 112.10 118.87 112.23 120.26C112.29 120.83 111.77 121.23 110.87 121.23C110.22 121.23 109.57 120.97 109.10 120.64C109.01 120.57 108.92 120.54 108.80 120.54C108.53 120.54 108.29 120.75 108.29 121.03C108.29 121.16 108.35 121.26 108.44 121.34C109.01 121.91 109.96 122.16 110.82 122.16C112.48 122.16 113.43 121.30 113.36 120.10Z" fill="#22272e" /><path d="M217.54 119.62C217.54 118.44 216.84 117.76 216.32 117.53C216.76 117.32 217.40 116.83 217.40 115.49C217.40 113.99 215.79 113.20 214.06 113.20C212.32 113.20 210.72 113.99 210.72 115.49C210.72 116.83 211.34 117.32 211.79 117.53C211.27 117.76 210.58 118.44 210.58 119.62C210.58 121.25 212.24 122.16 214.06 122.16C215.88 122.16 217.54 121.23 217.54 119.62ZM215.52 115.77C215.52 116.42 214.85 116.80 214.06 116.80C213.27 116.80 212.59 116.42 212.59 115.77C212.59 115.15 213.20 114.78 214.06 114.78C214.91 114.78 215.52 115.15 215.52 115.77ZM215.67 119.52C215.67 120.15 214.94 120.57 214.06 120.57C213.15 120.57 212.45 120.15 212.45 119.52C212.45 118.79 213.25 118.36 214.06 118.36C214.85 118.36 215.67 118.79 215.67 119.52Z" fill="#627386" /></g><g aria-label="Versions Published: 14,655"><circle cx="22" cy="140" r="4" fill="#00a5fe" /><path d="M42.28 135.93C42.28 135.58 42.00 135.25 41.59 135.25C41.31 135.25 41.06 135.42 40.97 135.68L38.32 142.60L35.68 135.68C35.57 135.41 35.31 135.25 35.05 135.25C34.64 135.25 34.35 135.62 34.35 135.93C34.35 136.02 34.36 136.10 34.40 136.17L37.28 143.39C37.43 143.81 37.85 144.08 38.29 144.08L38.36 144.08C38.78 144.08 39.20 143.81 39.37 143.39L42.24 136.17C42.27 136.10 42.28 136.00 42.28 135.93ZM48.60 140.65C48.60 140.40 48.53 140.13 48.48 139.92C48.12 138.51 47.08 137.56 45.56 137.56C43.74 137.56 42.42 139.03 42.42 140.85C42.42 142.83 43.79 144.16 45.66 144.16C46.58 144.16 48.20 143.68 48.20 142.97C48.20 142.53 47.75 142.43 47.47 142.57C47.01 142.91 46.31 143.22 45.78 143.22C44.50 143.22 43.72 142.35 43.63 141.27L48.00 141.27C48.33 141.27 48.60 140.96 48.60 140.65ZM43.63 140.41C43.69 139.54 44.30 138.50 45.54 138.50C46.88 138.50 47.46 139.57 47.48 140.41ZM53.38 138.15C53.38 137.85 53.16 137.63 52.86 137.63C52.16 137.63 51.59 138.22 51.24 138.70L51.24 138.20C51.24 137.90 50.98 137.64 50.68 137.64C50.34 137.64 50.08 137.90 50.08 138.20L50.08 143.51C50.08 143.82 50.33 144.06 50.64 144.08L50.65 144.08C50.98 144.08 51.24 143.82 51.24 143.51L51.24 140.28C51.24 139.46 51.81 138.81 52.80 138.76C53.12 138.75 53.38 138.49 53.38 138.15ZM59.08 142.10C58.96 139.89 55.36 140.50 55.23 139.37C55.18 138.87 55.72 138.49 56.52 138.49C57.11 138.49 57.67 138.68 58.08 138.97C58.15 139.03 58.25 139.06 58.35 139.06C58.58 139.06 58.80 138.87 58.80 138.60C58.80 138.50 58.77 138.40 58.69 138.32C58.19 137.84 57.40 137.56 56.50 137.56C54.97 137.56 54.05 138.29 54.11 139.41C54.23 141.52 57.82 140.87 57.95 142.26C58.00 142.83 57.48 143.23 56.58 143.23C55.93 143.23 55.28 142.97 54.81 142.63C54.72 142.57 54.63 142.54 54.51 142.54C54.24 142.54 54.01 142.75 54.01 143.03C54.01 143.16 54.06 143.26 54.15 143.34C54.72 143.91 55.67 144.16 56.53 144.16C58.19 144.16 59.14 143.30 59.08 142.10ZM61.13 135.39C60.73 135.39 60.39 135.73 60.39 136.15C60.39 136.55 60.73 136.89 61.13 136.89C61.55 136.89 61.87 136.55 61.87 136.15C61.87 135.73 61.55 135.39 61.13 135.39ZM61.72 138.20C61.72 137.90 61.46 137.64 61.16 137.64C60.82 137.64 60.56 137.90 60.56 138.20L60.56 143.51C60.56 143.82 60.82 144.08 61.13 144.08C61.46 144.08 61.72 143.82 61.72 143.51ZM69.54 140.85C69.54 139.05 68.33 137.56 66.37 137.56C64.42 137.56 63.21 139.05 63.21 140.85C63.21 142.66 64.42 144.16 66.37 144.16C68.33 144.16 69.54 142.66 69.54 140.85ZM68.33 140.85C68.33 142.06 67.63 143.13 66.37 143.13C65.12 143.13 64.41 142.06 64.41 140.85C64.41 139.66 65.12 138.59 66.37 138.59C67.63 138.59 68.33 139.66 68.33 140.85ZM76.43 139.97C76.43 138.64 75.47 137.56 74.14 137.56C73.05 137.56 72.49 138.10 72.19 138.60L72.19 138.20C72.19 137.90 71.93 137.64 71.64 137.64C71.30 137.64 71.04 137.90 71.04 138.20L71.04 143.51C71.04 143.82 71.30 144.08 71.61 144.08C71.93 144.08 72.19 143.82 72.19 143.51L72.19 140.49C72.19 139.42 72.77 138.59 73.77 138.59C74.70 138.59 75.28 139.32 75.28 140.36L75.28 143.51C75.28 143.82 75.54 144.08 75.85 144.08C76.17 144.08 76.43 143.82 76.43 143.51ZM82.91 142.10C82.79 139.89 79.19 140.50 79.06 139.37C79.01 138.87 79.55 138.49 80.35 138.49C80.94 138.49 81.50 138.68 81.91 138.97C81.98 139.03 82.07 139.06 82.18 139.06C82.41 139.06 82.63 138.87 82.63 138.60C82.63 138.50 82.59 138.40 82.52 138.32C82.02 137.84 81.23 137.56 80.33 137.56C78.80 137.56 77.88 138.29 77.94 139.41C78.06 141.52 81.65 140.87 81.78 142.26C81.83 142.83 81.31 143.23 80.41 143.23C79.76 143.23 79.11 142.97 78.64 142.63C78.55 142.57 78.46 142.54 78.34 142.54C78.07 142.54 77.84 142.75 77.84 143.03C77.84 143.16 77.89 143.26 77.98 143.34C78.55 143.91 79.50 144.16 80.36 144.16C82.02 144.16 82.97 143.30 82.91 142.10ZM94.18 137.99C94.18 136.55 93.19 135.33 91.41 135.33L88.61 135.33C88.15 135.33 87.77 135.71 87.77 136.17L87.77 143.44C87.77 143.79 88.05 144.08 88.41 144.08C88.77 144.08 89.06 143.79 89.06 143.44L89.06 140.66L91.41 140.66C93.16 140.66 94.18 139.44 94.18 137.99ZM92.85 137.99C92.85 138.89 92.19 139.51 91.24 139.51L89.06 139.51L89.06 136.47L91.24 136.47C92.19 136.47 92.85 137.08 92.85 137.99ZM100.90 138.20C100.90 137.90 100.64 137.64 100.34 137.64C100.00 137.64 99.74 137.90 99.74 138.20L99.74 141.19C99.74 142.26 99.06 143.13 98.13 143.13C97.19 143.13 96.66 142.41 96.66 141.37L96.66 138.20C96.66 137.90 96.40 137.64 96.10 137.64C95.76 137.64 95.50 137.90 95.50 138.20L95.50 141.78C95.50 143.10 96.44 144.16 97.77 144.16C98.86 144.16 99.40 143.68 99.74 143.14L99.74 143.51C99.74 143.82 100.00 144.08 100.31 144.08C100.64 144.08 100.90 143.82 100.90 143.51ZM108.78 140.87C108.78 138.85 107.74 137.56 106.11 137.56C105.15 137.56 104.42 137.96 103.91 138.63L103.91 135.81C103.91 135.51 103.65 135.25 103.36 135.25C103.02 135.25 102.76 135.51 102.76 135.81L102.76 143.51C102.76 143.82 103.02 144.08 103.33 144.08C103.65 144.08 103.91 143.82 103.91 143.51L103.91 143.10C104.38 143.73 105.14 144.16 105.98 144.16C107.61 144.16 108.78 142.92 108.78 140.87ZM107.57 140.87C107.57 142.18 106.98 143.13 105.79 143.13C104.95 143.13 103.91 142.22 103.91 140.92L103.91 140.83C103.91 139.54 104.69 138.59 105.79 138.59C106.98 138.59 107.57 139.55 107.57 140.87ZM111.43 135.81C111.43 135.51 111.17 135.25 110.87 135.25C110.53 135.25 110.27 135.51 110.27 135.81L110.27 143.51C110.27 143.82 110.53 144.08 110.84 144.08C111.17 144.08 111.43 143.82 111.43 143.51ZM113.87 135.39C113.47 135.39 113.13 135.73 113.13 136.15C113.13 136.55 113.47 136.89 113.87 136.89C114.29 136.89 114.61 136.55 114.61 136.15C114.61 135.73 114.29 135.39 113.87 135.39ZM114.46 138.20C114.46 137.90 114.20 137.64 113.90 137.64C113.56 137.64 113.30 137.90 113.30 138.20L113.30 143.51C113.30 143.82 113.56 144.08 113.87 144.08C114.20 144.08 114.46 143.82 114.46 143.51ZM120.93 142.10C120.81 139.89 117.21 140.50 117.08 139.37C117.03 138.87 117.58 138.49 118.37 138.49C118.97 138.49 119.53 138.68 119.93 138.97C120.01 139.03 120.10 139.06 120.20 139.06C120.44 139.06 120.66 138.87 120.66 138.60C120.66 138.50 120.62 138.40 120.54 138.32C120.05 137.84 119.25 137.56 118.36 137.56C116.82 137.56 115.90 138.29 115.96 139.41C116.08 141.52 119.67 140.87 119.80 142.26C119.85 142.83 119.33 143.23 118.43 143.23C117.78 143.23 117.13 142.97 116.67 142.63C116.58 142.57 116.48 142.54 116.37 142.54C116.09 142.54 115.86 142.75 115.86 143.03C115.86 143.16 115.91 143.26 116.00 143.34C116.58 143.91 117.52 144.16 118.38 144.16C120.05 144.16 121.00 143.30 120.93 142.10ZM127.82 139.94C127.82 138.62 126.87 137.56 125.55 137.56C124.44 137.56 123.87 138.10 123.57 138.60L123.57 135.81C123.57 135.51 123.31 135.25 123.01 135.25C122.67 135.25 122.41 135.51 122.41 135.81L122.41 143.51C122.41 143.82 122.67 144.08 122.98 144.08C123.31 144.08 123.57 143.82 123.57 143.51L123.57 140.56C123.57 139.38 124.19 138.59 125.18 138.59C126.12 138.59 126.66 139.29 126.66 140.33L126.66 143.51C126.66 143.82 126.92 144.08 127.24 144.08C127.56 144.08 127.82 143.82 127.82 143.51ZM135.49 140.65C135.49 140.40 135.43 140.13 135.37 139.92C135.01 138.51 133.97 137.56 132.45 137.56C130.63 137.56 129.32 139.03 129.32 140.85C129.32 142.83 130.68 144.16 132.55 144.16C133.48 144.16 135.09 143.68 135.09 142.97C135.09 142.53 134.65 142.43 134.36 142.57C133.90 142.91 133.20 143.22 132.67 143.22C131.40 143.22 130.62 142.35 130.52 141.27L134.89 141.27C135.22 141.27 135.49 140.96 135.49 140.65ZM130.52 140.41C130.58 139.54 131.19 138.50 132.44 138.50C133.77 138.50 134.35 139.57 134.37 140.41ZM142.61 135.81C142.61 135.51 142.35 135.25 142.06 135.25C141.72 135.25 141.46 135.51 141.46 135.81L141.46 138.63C140.95 137.96 140.34 137.56 139.39 137.56C137.75 137.56 136.60 138.85 136.60 140.87C136.60 142.92 137.77 144.16 139.39 144.16C140.37 144.16 140.98 143.73 141.46 143.10L141.46 143.51C141.46 143.82 141.72 144.08 142.03 144.08C142.35 144.08 142.61 143.82 142.61 143.51ZM141.46 140.91C141.46 142.21 140.81 143.13 139.69 143.13C138.52 143.13 137.79 142.18 137.79 140.87C137.79 139.55 138.52 138.59 139.69 138.59C140.81 138.59 141.46 139.54 141.46 140.83Z" fill="#22272e" /><path d="M182.61 136.32C182.61 135.73 182.12 135.26 181.53 135.26C181.24 135.26 180.95 135.38 180.75 135.58L178.75 137.60C178.60 137.76 178.52 137.96 178.52 138.15C178.52 138.58 178.88 138.92 179.29 138.92C179.47 138.92 179.65 138.85 179.79 138.71L180.77 137.71L180.77 143.17C180.77 143.66 181.18 144.08 181.68 144.08C182.20 144.08 182.61 143.66 182.61 143.17ZM190.99 141.40C190.99 140.94 190.62 140.58 190.19 140.58L189.79 140.58L189.79 136.29C189.79 135.49 189.01 135.12 188.22 135.25C187.66 135.25 187.10 135.55 186.80 136.02L183.90 140.59C183.78 140.78 183.73 140.98 183.73 141.19C183.73 141.78 184.16 142.21 184.68 142.21L187.94 142.21L187.94 143.17C187.94 143.66 188.36 144.08 188.85 144.08C189.37 144.08 189.79 143.66 189.79 143.17L189.79 142.21L190.19 142.21C190.62 142.21 190.99 141.84 190.99 141.40ZM185.60 140.58L187.94 136.97L187.94 140.58ZM194.03 143.36C194.03 142.52 193.47 142.04 192.86 142.04C192.31 142.04 191.84 142.50 191.84 143.08C191.84 143.64 192.23 144.01 192.73 144.01C192.82 144.01 192.94 143.99 192.97 143.97C192.90 144.31 192.61 144.72 192.27 144.99C192.18 145.07 192.14 145.17 192.14 145.27C192.14 145.53 192.42 145.69 192.64 145.69C192.77 145.69 192.88 145.65 192.97 145.56C193.62 144.97 194.03 144.19 194.03 143.36ZM201.79 141.18C201.79 139.33 200.40 138.36 198.84 138.36C197.76 138.36 196.95 138.89 196.61 139.48C196.60 139.41 196.60 139.36 196.60 139.29C196.60 137.92 197.50 136.84 198.77 136.84C199.21 136.84 199.58 136.91 199.90 137.08C200.02 137.15 200.15 137.18 200.28 137.18C200.68 137.18 201.13 136.86 201.13 136.37C201.13 136.24 201.09 136.12 201.03 136.02C200.71 135.45 199.62 135.20 198.77 135.20C196.21 135.20 194.73 137.06 194.73 139.68C194.73 142.13 195.83 144.16 198.47 144.16C200.45 144.16 201.79 142.87 201.79 141.18ZM199.92 141.24C199.92 141.89 199.44 142.52 198.43 142.52C197.62 142.52 197.00 141.96 197.00 141.15C197.00 140.37 197.63 139.81 198.43 139.81C199.27 139.81 199.92 140.37 199.92 141.24ZM209.64 141.15C209.64 139.40 208.33 138.34 206.86 138.34C206.07 138.34 205.36 138.66 204.95 139.07L204.95 136.95L208.34 136.95C208.77 136.95 209.13 136.59 209.13 136.15C209.13 135.69 208.77 135.33 208.34 135.33L204.14 135.33C203.57 135.33 203.10 135.80 203.10 136.37L203.10 139.70C203.10 140.20 203.47 140.58 204.04 140.58C204.30 140.58 204.54 140.50 204.75 140.36C205.22 140.05 205.68 139.94 206.21 139.94C207.20 139.94 207.77 140.46 207.77 141.23C207.77 141.93 207.18 142.52 206.16 142.52C205.53 142.52 204.93 142.35 204.43 142.04C204.27 141.95 204.10 141.89 203.95 141.89C203.49 141.89 203.06 142.25 203.06 142.73C203.06 142.86 203.10 142.99 203.17 143.10C203.57 143.78 205.04 144.16 206.17 144.16C208.26 144.16 209.64 143.00 209.64 141.15ZM217.54 141.15C217.54 139.40 216.23 138.34 214.76 138.34C213.97 138.34 213.27 138.66 212.85 139.07L212.85 136.95L216.24 136.95C216.67 136.95 217.04 136.59 217.04 136.15C217.04 135.69 216.67 135.33 216.24 135.33L212.05 135.33C211.47 135.33 211.01 135.80 211.01 136.37L211.01 139.70C211.01 140.20 211.37 140.58 211.94 140.58C212.20 140.58 212.45 140.50 212.66 140.36C213.12 140.05 213.58 139.94 214.11 139.94C215.10 139.94 215.67 140.46 215.67 141.23C215.67 141.93 215.09 142.52 214.06 142.52C213.44 142.52 212.84 142.35 212.33 142.04C212.18 141.95 212.01 141.89 211.85 141.89C211.40 141.89 210.97 142.25 210.97 142.73C210.97 142.86 211.01 142.99 211.07 143.10C211.47 143.78 212.94 144.16 214.07 144.16C216.17 144.16 217.54 143.00 217.54 141.15Z" fill="#627386" /></g><g aria-label="This Week: 23,345,901"><circle cx="22" cy="162" r="4" fill="#00d559" /><path d="M41.14 157.91C41.14 157.58 40.89 157.33 40.58 157.33L34.87 157.33C34.56 157.33 34.31 157.58 34.31 157.89C34.31 158.21 34.56 158.47 34.87 158.47L37.08 158.47L37.08 165.44C37.08 165.79 37.37 166.08 37.72 166.08C38.08 166.08 38.37 165.79 38.37 165.44L38.37 158.47L40.58 158.47C40.89 158.47 41.14 158.21 41.14 157.91ZM47.79 161.94C47.79 160.62 46.84 159.56 45.52 159.56C44.41 159.56 43.84 160.10 43.54 160.60L43.54 157.81C43.54 157.51 43.28 157.25 42.98 157.25C42.64 157.25 42.38 157.51 42.38 157.81L42.38 165.51C42.38 165.82 42.64 166.08 42.96 166.08C43.28 166.08 43.54 165.82 43.54 165.51L43.54 162.56C43.54 161.38 44.17 160.59 45.15 160.59C46.09 160.59 46.64 161.29 46.64 162.33L46.64 165.51C46.64 165.82 46.90 166.08 47.21 166.08C47.53 166.08 47.79 165.82 47.79 165.51ZM50.24 157.39C49.83 157.39 49.50 157.73 49.50 158.15C49.50 158.55 49.83 158.89 50.24 158.89C50.65 158.89 50.98 158.55 50.98 158.15C50.98 157.73 50.65 157.39 50.24 157.39ZM50.82 160.20C50.82 159.90 50.56 159.64 50.26 159.64C49.92 159.64 49.66 159.90 49.66 160.20L49.66 165.51C49.66 165.82 49.92 166.08 50.24 166.08C50.56 166.08 50.82 165.82 50.82 165.51ZM57.30 164.10C57.18 161.89 53.58 162.50 53.45 161.37C53.40 160.87 53.94 160.49 54.73 160.49C55.33 160.49 55.89 160.68 56.30 160.97C56.37 161.03 56.46 161.06 56.57 161.06C56.80 161.06 57.02 160.87 57.02 160.60C57.02 160.50 56.98 160.40 56.91 160.32C56.41 159.84 55.62 159.56 54.72 159.56C53.19 159.56 52.27 160.29 52.33 161.41C52.45 163.52 56.04 162.87 56.17 164.26C56.22 164.83 55.70 165.23 54.80 165.23C54.15 165.23 53.50 164.97 53.03 164.63C52.94 164.57 52.85 164.54 52.73 164.54C52.46 164.54 52.23 164.75 52.23 165.03C52.23 165.16 52.28 165.26 52.37 165.34C52.94 165.91 53.89 166.16 54.75 166.16C56.41 166.16 57.36 165.30 57.30 164.10ZM72.45 157.89C72.45 157.54 72.17 157.24 71.77 157.24C71.45 157.24 71.17 157.45 71.10 157.75L69.40 164.30L67.62 157.73C67.54 157.45 67.28 157.25 66.99 157.25C66.68 157.25 66.42 157.45 66.36 157.73L64.56 164.30L62.86 157.75C62.78 157.43 62.48 157.22 62.18 157.22C61.77 157.22 61.51 157.55 61.51 157.89C61.51 157.95 61.52 158.00 61.53 158.07L63.64 165.45C63.73 165.82 64.06 166.08 64.46 166.08L64.49 166.08C64.88 166.08 65.21 165.82 65.32 165.44L66.98 159.29L68.63 165.44C68.72 165.81 69.06 166.08 69.45 166.08L69.48 166.08C69.87 166.08 70.22 165.82 70.32 165.44L72.43 158.07C72.44 158.02 72.45 157.95 72.45 157.89ZM78.99 162.65C78.99 162.40 78.93 162.13 78.88 161.92C78.51 160.51 77.47 159.56 75.95 159.56C74.13 159.56 72.82 161.03 72.82 162.85C72.82 164.83 74.18 166.16 76.06 166.16C76.98 166.16 78.59 165.68 78.59 164.97C78.59 164.53 78.15 164.43 77.86 164.57C77.41 164.91 76.71 165.22 76.17 165.22C74.90 165.22 74.12 164.35 74.03 163.27L78.40 163.27C78.72 163.27 78.99 162.96 78.99 162.65ZM74.03 162.41C74.08 161.54 74.69 160.50 75.94 160.50C77.28 160.50 77.85 161.57 77.88 162.41ZM86.27 162.65C86.27 162.40 86.21 162.13 86.16 161.92C85.79 160.51 84.75 159.56 83.23 159.56C81.41 159.56 80.10 161.03 80.10 162.85C80.10 164.83 81.46 166.16 83.34 166.16C84.26 166.16 85.87 165.68 85.87 164.97C85.87 164.53 85.43 164.43 85.14 164.57C84.69 164.91 83.99 165.22 83.45 165.22C82.18 165.22 81.40 164.35 81.31 163.27L85.68 163.27C86.00 163.27 86.27 162.96 86.27 162.65ZM81.31 162.41C81.36 161.54 81.97 160.50 83.22 160.50C84.56 160.50 85.13 161.57 85.16 162.41ZM92.89 165.51C92.89 165.39 92.85 165.26 92.77 165.17L90.71 162.57L92.66 160.53C92.75 160.42 92.80 160.31 92.80 160.18C92.80 159.89 92.54 159.63 92.25 159.63C92.12 159.63 91.98 159.69 91.88 159.80L88.91 162.92L88.91 157.81C88.91 157.51 88.65 157.25 88.35 157.25C88.02 157.25 87.76 157.51 87.76 157.81L87.76 165.51C87.76 165.82 88.02 166.08 88.33 166.08C88.65 166.08 88.91 165.82 88.91 165.51L88.91 164.26L89.87 163.28L91.86 165.86C91.97 166.01 92.15 166.09 92.32 166.09C92.67 166.09 92.89 165.78 92.89 165.51Z" fill="#22272e" /><path d="M158.53 165.17C158.53 164.74 158.16 164.38 157.73 164.38L154.91 164.38C157.16 162.74 158.38 161.45 158.38 159.97C158.38 158.24 156.91 157.20 155.07 157.20C153.97 157.20 152.52 157.67 152.10 158.33C152.03 158.45 151.99 158.58 151.99 158.71C151.99 159.18 152.36 159.54 152.79 159.54C152.99 159.54 153.16 159.49 153.32 159.37C153.82 159.03 154.42 158.84 155.11 158.84C155.82 158.84 156.51 159.21 156.51 159.97C156.51 160.98 155.47 161.93 152.23 164.32C151.99 164.50 151.84 164.80 151.84 165.10C151.84 165.62 152.26 166 152.71 166L157.73 166C158.16 166 158.53 165.64 158.53 165.17ZM166.17 163.63C166.27 162.07 165.22 161.53 165.22 161.53C165.22 161.53 166.18 161.03 166.08 159.55C165.97 158.11 164.83 157.20 162.80 157.20C161.61 157.20 160.67 157.55 159.96 158.12C159.77 158.26 159.68 158.47 159.68 158.68C159.68 159.14 160.09 159.46 160.49 159.46C160.64 159.46 160.80 159.42 160.93 159.33C161.44 159.01 162.01 158.84 162.61 158.84C163.52 158.84 164.22 159.04 164.22 159.73C164.22 160.45 163.79 160.79 162.92 160.79C162.30 160.79 162.02 161.14 162.02 161.59C162.02 162.05 162.30 162.41 162.97 162.41C163.86 162.41 164.36 162.72 164.36 163.41C164.36 164.06 163.78 164.52 162.72 164.52C162.13 164.52 161.44 164.31 160.87 163.97C160.72 163.88 160.57 163.84 160.41 163.84C159.98 163.84 159.57 164.19 159.57 164.66C159.57 164.79 159.60 164.91 159.67 165.01C160.07 165.69 161.54 166.16 162.79 166.16C164.87 166.16 166.07 165.26 166.17 163.63ZM169.54 165.36C169.54 164.52 168.98 164.04 168.37 164.04C167.82 164.04 167.35 164.50 167.35 165.08C167.35 165.64 167.74 166.01 168.24 166.01C168.33 166.01 168.44 165.99 168.48 165.97C168.41 166.31 168.12 166.72 167.78 166.99C167.69 167.07 167.65 167.17 167.65 167.27C167.65 167.53 167.92 167.69 168.15 167.69C168.28 167.69 168.39 167.65 168.48 167.56C169.13 166.97 169.54 166.19 169.54 165.36ZM177.13 163.63C177.23 162.07 176.18 161.53 176.18 161.53C176.18 161.53 177.14 161.03 177.04 159.55C176.93 158.11 175.79 157.20 173.76 157.20C172.57 157.20 171.63 157.55 170.91 158.12C170.73 158.26 170.64 158.47 170.64 158.68C170.64 159.14 171.04 159.46 171.45 159.46C171.60 159.46 171.76 159.42 171.89 159.33C172.40 159.01 172.97 158.84 173.57 158.84C174.48 158.84 175.18 159.04 175.18 159.73C175.18 160.45 174.75 160.79 173.88 160.79C173.25 160.79 172.98 161.14 172.98 161.59C172.98 162.05 173.25 162.41 173.93 162.41C174.81 162.41 175.32 162.72 175.32 163.41C175.32 164.06 174.74 164.52 173.68 164.52C173.09 164.52 172.40 164.31 171.82 163.97C171.68 163.88 171.53 163.84 171.37 163.84C170.94 163.84 170.52 164.19 170.52 164.66C170.52 164.79 170.56 164.91 170.63 165.01C171.03 165.69 172.50 166.16 173.75 166.16C175.83 166.16 177.02 165.26 177.13 163.63ZM185.21 163.40C185.21 162.94 184.85 162.58 184.42 162.58L184.02 162.58L184.02 158.29C184.02 157.49 183.24 157.12 182.45 157.25C181.89 157.25 181.33 157.55 181.03 158.02L178.13 162.59C178.01 162.78 177.96 162.98 177.96 163.19C177.96 163.78 178.39 164.21 178.91 164.21L182.17 164.21L182.17 165.17C182.17 165.66 182.59 166.08 183.08 166.08C183.60 166.08 184.02 165.66 184.02 165.17L184.02 164.21L184.42 164.21C184.85 164.21 185.21 163.84 185.21 163.40ZM179.83 162.58L182.17 158.97L182.17 162.58ZM192.91 163.15C192.91 161.40 191.60 160.34 190.13 160.34C189.34 160.34 188.63 160.66 188.22 161.07L188.22 158.95L191.61 158.95C192.04 158.95 192.40 158.59 192.40 158.15C192.40 157.69 192.04 157.33 191.61 157.33L187.41 157.33C186.84 157.33 186.37 157.80 186.37 158.37L186.37 161.70C186.37 162.20 186.74 162.58 187.31 162.58C187.57 162.58 187.81 162.50 188.02 162.36C188.49 162.05 188.95 161.94 189.48 161.94C190.47 161.94 191.04 162.46 191.04 163.23C191.04 163.93 190.45 164.52 189.43 164.52C188.80 164.52 188.20 164.35 187.70 164.04C187.54 163.95 187.37 163.89 187.22 163.89C186.76 163.89 186.33 164.25 186.33 164.73C186.33 164.86 186.37 164.99 186.44 165.10C186.84 165.78 188.31 166.16 189.44 166.16C191.53 166.16 192.91 165.00 192.91 163.15ZM196.16 165.36C196.16 164.52 195.60 164.04 194.99 164.04C194.44 164.04 193.98 164.50 193.98 165.08C193.98 165.64 194.37 166.01 194.86 166.01C194.95 166.01 195.07 165.99 195.11 165.97C195.03 166.31 194.74 166.72 194.41 166.99C194.31 167.07 194.28 167.17 194.28 167.27C194.28 167.53 194.55 167.69 194.77 167.69C194.90 167.69 195.02 167.65 195.11 167.56C195.76 166.97 196.16 166.19 196.16 165.36ZM197.08 160.16C197.08 162.01 198.47 162.98 200.03 162.98C201.11 162.98 201.92 162.45 202.26 161.87C202.27 161.93 202.27 161.98 202.27 162.05C202.27 163.43 201.37 164.50 200.10 164.50C199.66 164.50 199.29 164.43 198.97 164.26C198.85 164.19 198.72 164.17 198.59 164.17C198.19 164.17 197.75 164.48 197.75 164.97C197.75 165.10 197.79 165.22 197.84 165.32C198.16 165.90 199.25 166.14 200.10 166.14C202.66 166.14 204.14 164.28 204.14 161.66C204.14 159.21 203.04 157.19 200.40 157.19C198.42 157.19 197.08 158.47 197.08 160.16ZM198.96 160.10C198.96 159.45 199.44 158.82 200.44 158.82C201.26 158.82 201.87 159.38 201.87 160.19C201.87 160.97 201.24 161.53 200.44 161.53C199.61 161.53 198.96 160.97 198.96 160.10ZM212.22 161.67C212.22 159.44 211.10 157.20 208.63 157.20C206.14 157.20 205.04 159.44 205.04 161.67C205.04 163.91 206.14 166.16 208.63 166.16C211.10 166.16 212.22 163.91 212.22 161.67ZM210.33 161.67C210.33 163.27 209.86 164.52 208.63 164.52C207.38 164.52 206.91 163.27 206.91 161.67C206.91 160.07 207.38 158.84 208.63 158.84C209.86 158.84 210.33 160.07 210.33 161.67ZM217.14 158.32C217.14 157.73 216.65 157.26 216.06 157.26C215.76 157.26 215.48 157.38 215.28 157.58L213.28 159.60C213.13 159.76 213.05 159.96 213.05 160.15C213.05 160.58 213.41 160.92 213.81 160.92C214.00 160.92 214.18 160.85 214.32 160.71L215.30 159.71L215.30 165.17C215.30 165.66 215.71 166.08 216.21 166.08C216.73 166.08 217.14 165.66 217.14 165.17Z" fill="#627386" /></g></svg>