<svg xmlns="http://www.w3.org/2000/svg" width="420" height="184" viewBox="0 0 420 184" role="img"><rect x="0.5" y="0.5" width="419" height="183" rx="10" fill="#ffffff" stroke="#f2f4f6" /><path d="M30.21 36.59C30.21 35.87 29.59 35.25 28.87 35.25L24.09 35.25C27.90 32.48 29.97 30.30 29.97 27.79C29.97 24.87 27.48 23.11 24.36 23.11C22.51 23.11 20.05 23.90 19.34 25.02C19.21 25.22 19.14 25.44 19.14 25.66C19.14 26.45 19.78 27.07 20.51 27.07C20.84 27.07 21.12 26.98 21.41 26.78C22.25 26.21 23.26 25.88 24.42 25.88C25.63 25.88 26.80 26.52 26.80 27.79C26.80 29.51 25.04 31.11 19.56 35.16C19.14 35.47 18.90 35.98 18.90 36.48C18.90 37.36 19.61 38 20.38 38L28.87 38C29.59 38 30.21 37.38 30.21 36.59ZM35.93 36.92C35.93 35.49 34.98 34.68 33.95 34.68C33.03 34.68 32.23 35.47 32.23 36.44C32.23 37.38 32.89 38.02 33.73 38.02C33.88 38.02 34.08 37.98 34.15 37.96C34.02 38.53 33.53 39.21 32.96 39.67C32.81 39.80 32.74 39.98 32.74 40.16C32.74 40.60 33.20 40.86 33.58 40.86C33.80 40.86 33.99 40.79 34.15 40.64C35.25 39.65 35.93 38.33 35.93 36.92ZM49.26 30.67C49.26 26.89 47.37 23.11 43.19 23.11C38.99 23.11 37.12 26.89 37.12 30.67C37.12 34.46 38.99 38.26 43.19 38.26C47.37 38.26 49.26 34.46 49.26 30.67ZM46.07 30.67C46.07 33.38 45.28 35.49 43.19 35.49C41.08 35.49 40.29 33.38 40.29 30.67C40.29 27.97 41.08 25.88 43.19 25.88C45.28 25.88 46.07 27.97 46.07 30.67ZM62.57 33.97C62.57 31.97 61.38 30.83 60.50 30.43C61.25 30.08 62.33 29.24 62.33 26.98C62.33 24.45 59.60 23.11 56.68 23.11C53.73 23.11 51.02 24.45 51.02 26.98C51.02 29.24 52.08 30.08 52.83 30.43C51.95 30.83 50.78 31.97 50.78 33.97C50.78 36.72 53.60 38.26 56.68 38.26C59.76 38.26 62.57 36.70 62.57 33.97ZM59.14 27.46C59.14 28.56 58.02 29.20 56.68 29.20C55.33 29.20 54.19 28.56 54.19 27.46C54.19 26.41 55.22 25.79 56.68 25.79C58.11 25.79 59.14 26.41 59.14 27.46ZM59.40 33.80C59.40 34.88 58.17 35.58 56.68 35.58C55.14 35.58 53.95 34.88 53.95 33.80C53.95 32.57 55.31 31.84 56.68 31.84C58.02 31.84 59.40 32.57 59.40 33.80ZM75.02 24.91C75.02 23.99 74.28 23.33 73.51 23.33L65.10 23.33C64.35 23.33 63.74 23.94 63.74 24.67C63.74 25.46 64.35 26.08 65.10 26.08L71.26 26.08L66.88 36.00C66.80 36.20 66.75 36.39 66.75 36.59C66.75 37.38 67.39 38.13 68.31 38.13C68.95 38.13 69.55 37.76 69.79 37.19L74.89 25.53C74.98 25.35 75.02 25.13 75.02 24.91ZM77.99 36.92C77.99 35.49 77.05 34.68 76.01 34.68C75.09 34.68 74.30 35.47 74.30 36.44C74.30 37.38 74.96 38.02 75.79 38.02C75.95 38.02 76.15 37.98 76.21 37.96C76.08 38.53 75.60 39.21 75.02 39.67C74.87 39.80 74.80 39.98 74.80 40.16C74.80 40.60 75.27 40.86 75.64 40.86C75.86 40.86 76.06 40.79 76.21 40.64C77.31 39.65 77.99 38.33 77.99 36.92ZM91.11 36.59C91.11 35.87 90.49 35.25 89.76 35.25L84.99 35.25C88.80 32.48 90.86 30.30 90.86 27.79C90.86 24.87 88.38 23.11 85.25 23.11C83.41 23.11 80.94 23.90 80.24 25.02C80.11 25.22 80.04 25.44 80.04 25.66C80.04 26.45 80.68 27.07 81.40 27.07C81.73 27.07 82.02 26.98 82.31 26.78C83.14 26.21 84.15 25.88 85.32 25.88C86.53 25.88 87.70 26.52 87.70 27.79C87.70 29.51 85.94 31.11 80.46 35.16C80.04 35.47 79.80 35.98 79.80 36.48C79.80 37.36 80.50 38 81.27 38L89.76 38C90.49 38 91.11 37.38 91.11 36.59ZM104.79 33.23C104.79 30.10 102.44 28.45 99.80 28.45C97.97 28.45 96.61 29.35 96.03 30.34C96.01 30.23 96.01 30.15 96.01 30.04C96.01 27.70 97.53 25.88 99.69 25.88C100.43 25.88 101.05 26.01 101.60 26.30C101.80 26.41 102.02 26.45 102.24 26.45C102.92 26.45 103.67 25.92 103.67 25.09C103.67 24.87 103.60 24.67 103.51 24.49C102.96 23.52 101.12 23.11 99.69 23.11C95.35 23.11 92.84 26.25 92.84 30.70C92.84 34.83 94.71 38.26 99.18 38.26C102.52 38.26 104.79 36.09 104.79 33.23ZM101.62 33.34C101.62 34.44 100.81 35.49 99.11 35.49C97.73 35.49 96.69 34.55 96.69 33.18C96.69 31.86 97.75 30.92 99.11 30.92C100.52 30.92 101.62 31.86 101.62 33.34ZM118.36 30.67C118.36 26.89 116.47 23.11 112.29 23.11C108.09 23.11 106.22 26.89 106.22 30.67C106.22 34.46 108.09 38.26 112.29 38.26C116.47 38.26 118.36 34.46 118.36 30.67ZM115.17 30.67C115.17 33.38 114.38 35.49 112.29 35.49C110.18 35.49 109.39 33.38 109.39 30.67C109.39 27.97 110.18 25.88 112.29 25.88C114.38 25.88 115.17 27.97 115.17 30.67ZM123.38 36.92C123.38 35.49 122.43 34.68 121.40 34.68C120.48 34.68 119.68 35.47 119.68 36.44C119.68 37.38 120.34 38.02 121.18 38.02C121.33 38.02 121.53 37.98 121.60 37.96C121.47 38.53 120.98 39.21 120.41 39.67C120.26 39.80 120.19 39.98 120.19 40.16C120.19 40.60 120.65 40.86 121.03 40.86C121.25 40.86 121.44 40.79 121.60 40.64C122.70 39.65 123.38 38.33 123.38 36.92ZM137.00 33.60C137.00 32.83 136.38 32.21 135.66 32.21L134.97 32.21L134.97 24.95C134.97 23.59 133.65 22.97 132.31 23.19C131.37 23.19 130.42 23.70 129.91 24.49L125.01 32.24C124.81 32.54 124.72 32.90 124.72 33.25C124.72 34.24 125.45 34.96 126.33 34.96L131.85 34.96L131.85 36.59C131.85 37.43 132.55 38.13 133.39 38.13C134.27 38.13 134.97 37.43 134.97 36.59L134.97 34.96L135.66 34.96C136.38 34.96 137.00 34.35 137.00 33.60ZM127.89 32.21L131.85 26.10L131.85 32.21ZM150.11 33.23C150.11 30.10 147.76 28.45 145.12 28.45C143.29 28.45 141.93 29.35 141.35 30.34C141.33 30.23 141.33 30.15 141.33 30.04C141.33 27.70 142.85 25.88 145.01 25.88C145.75 25.88 146.37 26.01 146.92 26.30C147.12 26.41 147.34 26.45 147.56 26.45C148.24 26.45 148.99 25.92 148.99 25.09C148.99 24.87 148.92 24.67 148.83 24.49C148.28 23.52 146.44 23.11 145.01 23.11C140.67 23.11 138.16 26.25 138.16 30.70C138.16 34.83 140.03 38.26 144.50 38.26C147.84 38.26 150.11 36.09 150.11 33.23ZM146.94 33.34C146.94 34.44 146.13 35.49 144.43 35.49C143.05 35.49 142.01 34.55 142.01 33.18C142.01 31.86 143.07 30.92 144.43 30.92C145.84 30.92 146.94 31.86 146.94 33.34ZM151.45 28.12C151.45 31.25 153.81 32.90 156.45 32.90C158.27 32.90 159.64 31.99 160.21 31.00C160.23 31.11 160.23 31.20 160.23 31.31C160.23 33.64 158.71 35.47 156.56 35.47C155.81 35.47 155.19 35.34 154.64 35.05C154.44 34.94 154.22 34.90 154.00 34.90C153.32 34.90 152.57 35.43 152.57 36.26C152.57 36.48 152.64 36.68 152.73 36.86C153.28 37.82 155.13 38.24 156.56 38.24C160.89 38.24 163.40 35.10 163.40 30.65C163.40 26.52 161.53 23.08 157.06 23.08C153.72 23.08 151.45 25.26 151.45 28.12ZM154.62 28.01C154.62 26.91 155.43 25.86 157.13 25.86C158.51 25.86 159.55 26.80 159.55 28.17C159.55 29.49 158.49 30.43 157.13 30.43C155.72 30.43 154.62 29.49 154.62 28.01ZM184.83 30.67C184.83 26.25 181.64 23.33 177.04 23.33L173.01 23.33C172.04 23.33 171.25 24.12 171.25 25.09L171.25 36.24C171.25 37.21 172.04 38 173.01 38L177.04 38C181.64 38 184.83 35.10 184.83 30.67ZM181.64 30.67C181.64 33.16 179.94 35.25 177.04 35.25L174.38 35.25L174.38 26.08L177.04 26.08C180.05 26.08 181.64 28.08 181.64 30.67ZM197.54 32.68C197.54 29.66 195.43 27.11 191.91 27.11C188.41 27.11 186.30 29.66 186.30 32.68C186.30 35.71 188.41 38.26 191.91 38.26C195.43 38.26 197.54 35.71 197.54 32.68ZM194.64 32.68C194.64 34.35 193.65 35.78 191.91 35.78C190.17 35.78 189.20 34.35 189.20 32.68C189.20 31.03 190.17 29.60 191.91 29.60C193.65 29.60 194.64 31.03 194.64 32.68ZM214.72 28.58C214.72 27.88 214.15 27.24 213.34 27.24C212.72 27.24 212.15 27.64 212.00 28.23L210.26 34.52L208.26 28.36C208.04 27.70 207.40 27.24 206.72 27.24C205.97 27.24 205.33 27.70 205.11 28.36L203.11 34.52L201.37 28.23C201.22 27.64 200.64 27.24 200.05 27.24C199.21 27.24 198.64 27.90 198.64 28.58C198.64 28.72 198.66 28.85 198.71 28.98L201.08 36.77C201.33 37.56 202.10 38.13 202.93 38.13L202.98 38.13C203.81 38.13 204.58 37.56 204.82 36.77L206.69 30.76L208.56 36.77C208.81 37.58 209.55 38.13 210.41 38.13L210.46 38.13C211.27 38.13 212.04 37.56 212.28 36.77L214.66 28.98C214.70 28.85 214.72 28.72 214.72 28.58ZM226.49 31.16C226.49 29.09 224.71 27.11 222.38 27.11C220.75 27.11 219.74 27.97 219.32 28.63L219.32 28.61C219.32 27.86 218.71 27.24 217.96 27.24C217.14 27.24 216.53 27.86 216.53 28.61L216.53 36.75C216.53 37.52 217.14 38.13 217.91 38.13C218.71 38.13 219.32 37.52 219.32 36.75L219.32 32.06C219.32 30.54 220.42 29.60 221.52 29.60C222.71 29.60 223.70 30.54 223.70 32.02L223.70 36.75C223.70 37.52 224.32 38.13 225.09 38.13C225.88 38.13 226.49 37.52 226.49 36.75ZM232.06 24.56C232.06 23.81 231.44 23.19 230.70 23.19C229.88 23.19 229.27 23.81 229.27 24.56L229.27 36.75C229.27 37.52 229.88 38.13 230.65 38.13C231.44 38.13 232.06 37.52 232.06 36.75ZM245.39 32.68C245.39 29.66 243.28 27.11 239.76 27.11C236.26 27.11 234.15 29.66 234.15 32.68C234.15 35.71 236.26 38.26 239.76 38.26C243.28 38.26 245.39 35.71 245.39 32.68ZM242.49 32.68C242.49 34.35 241.50 35.78 239.76 35.78C238.02 35.78 237.05 34.35 237.05 32.68C237.05 31.03 238.02 29.60 239.76 29.60C241.50 29.60 242.49 31.03 242.49 32.68ZM256.63 31.14C256.63 28.08 254.41 27.11 251.99 27.11C250.76 27.11 248.38 27.55 247.72 28.61C247.64 28.76 247.57 28.96 247.57 29.16C247.57 29.82 248.12 30.23 248.63 30.23C248.80 30.23 248.98 30.17 249.13 30.08C249.86 29.60 250.67 29.40 251.51 29.40C252.92 29.40 253.84 30.10 253.84 31.18L253.84 31.53L250.47 31.53C248.78 31.53 246.78 32.26 246.78 34.74C246.78 37.12 248.78 38.26 250.47 38.26C252.08 38.26 253.11 37.87 253.84 37.01C253.84 37.49 254.30 38.13 255.05 38.13L255.27 38.13C256.02 38.13 256.63 37.52 256.63 36.75ZM253.84 33.42L253.84 33.91C253.84 35.62 252.50 36.37 251.60 36.37C250.50 36.37 249.59 35.80 249.59 34.81C249.59 33.78 250.50 33.42 251.60 33.42ZM258.75 32.70C258.75 36.24 260.99 38.26 263.67 38.26C264.95 38.26 266.12 37.69 266.73 36.64L266.73 36.75C266.73 37.52 267.35 38.13 268.14 38.13C268.91 38.13 269.53 37.52 269.53 36.75L269.53 24.56C269.53 23.81 268.91 23.19 268.10 23.19C267.35 23.19 266.73 23.81 266.73 24.56L266.73 28.74C266.12 27.66 264.93 27.11 263.67 27.11C260.97 27.11 258.75 29.22 258.75 32.70ZM261.63 32.70C261.63 30.85 262.71 29.60 264.33 29.60C265.46 29.60 266.73 30.78 266.73 32.59L266.73 32.83C266.73 34.61 265.46 35.78 264.33 35.78C262.71 35.78 261.63 34.55 261.63 32.70ZM280.72 34.85C280.72 30.56 274.43 31.88 274.43 30.30C274.43 29.71 275.09 29.24 276.10 29.24C276.96 29.24 277.82 29.49 278.50 29.88C278.66 29.97 278.85 30.01 279.03 30.01C279.60 30.01 280.13 29.55 280.13 28.96C280.13 28.76 280.06 28.56 279.95 28.41C279.36 27.55 277.47 27.11 276.08 27.11C273.29 27.11 271.73 28.67 271.73 30.45C271.73 34.63 278.04 33.20 278.04 34.96C278.04 35.62 277.47 36.11 276.26 36.11C275.33 36.11 274.23 35.73 273.40 35.25C273.22 35.14 273.02 35.10 272.83 35.10C272.23 35.10 271.66 35.60 271.66 36.26C271.66 36.48 271.73 36.68 271.86 36.86C272.52 37.80 274.74 38.26 276.13 38.26C279.07 38.26 280.72 36.79 280.72 34.85Z" fill="#22272e" /><path d="M20.26 49.88C20.26 49.54 19.98 49.25 19.64 49.25C19.26 49.25 18.98 49.54 18.98 49.88L18.98 57.44C18.98 57.79 19.26 58.08 19.61 58.08C19.98 58.08 20.26 57.79 20.26 57.44ZM27.55 53.97C27.55 52.64 26.59 51.56 25.27 51.56C24.18 51.56 23.62 52.10 23.32 52.60L23.32 52.20C23.32 51.90 23.06 51.64 22.76 51.64C22.42 51.64 22.16 51.90 22.16 52.20L22.16 57.51C22.16 57.82 22.42 58.08 22.73 58.08C23.06 58.08 23.32 57.82 23.32 57.51L23.32 54.49C23.32 53.42 23.89 52.59 24.89 52.59C25.83 52.59 26.40 53.32 26.40 54.36L26.40 57.51C26.40 57.82 26.66 58.08 26.97 58.08C27.30 58.08 27.55 57.82 27.55 57.51ZM38.97 49.91C38.97 49.58 38.72 49.33 38.41 49.33L32.70 49.33C32.39 49.33 32.14 49.58 32.14 49.89C32.14 50.21 32.39 50.47 32.70 50.47L34.91 50.47L34.91 57.44C34.91 57.79 35.20 58.08 35.55 58.08C35.91 58.08 36.20 57.79 36.20 57.44L36.20 50.47L38.41 50.47C38.72 50.47 38.97 50.21 38.97 49.91ZM44.74 54.85C44.74 53.05 43.53 51.56 41.57 51.56C39.62 51.56 38.41 53.05 38.41 54.85C38.41 56.66 39.62 58.16 41.57 58.16C43.53 58.16 44.74 56.66 44.74 54.85ZM43.53 54.85C43.53 56.06 42.83 57.13 41.57 57.13C40.32 57.13 39.61 56.06 39.61 54.85C39.61 53.66 40.32 52.59 41.57 52.59C42.83 52.59 43.53 53.66 43.53 54.85ZM49.16 57.55C49.16 57.27 48.95 57.06 48.67 57.06C48.54 57.06 48.38 57.13 48.24 57.13C47.86 57.13 47.63 56.83 47.63 56.35L47.63 52.73L48.48 52.73C48.76 52.73 48.98 52.51 48.98 52.24C48.98 51.94 48.76 51.72 48.48 51.72L47.63 51.72L47.63 50.49C47.63 50.19 47.37 49.93 47.05 49.93C46.72 49.93 46.46 50.19 46.46 50.49L46.46 51.72L45.85 51.72C45.56 51.72 45.34 51.94 45.34 52.22C45.34 52.51 45.56 52.73 45.85 52.73L46.46 52.73L46.46 56.62C46.46 57.61 46.98 58.16 47.96 58.16C48.65 58.16 49.16 57.96 49.16 57.55ZM55.26 53.75C55.26 52.15 54.09 51.56 52.74 51.56C51.89 51.56 50.94 51.84 50.34 52.44C50.27 52.53 50.23 52.63 50.23 52.73C50.23 53.01 50.47 53.19 50.71 53.19C50.80 53.19 50.90 53.15 50.99 53.09C51.46 52.72 51.98 52.54 52.57 52.54C53.45 52.54 54.10 53.01 54.10 53.80L54.10 54.15L52.29 54.15C50.99 54.15 49.85 54.66 49.85 56.08C49.85 57.45 50.99 58.16 52.03 58.16C53.01 58.16 53.59 57.86 54.10 57.30L54.10 57.51C54.10 57.88 54.40 58.08 54.63 58.08L54.67 58.08C55.00 58.08 55.26 57.82 55.26 57.51ZM54.10 54.96L54.10 55.84C54.10 56.58 53.26 57.34 52.35 57.34C51.50 57.34 51.02 56.83 51.02 56.10C51.02 55.35 51.62 54.96 52.61 54.96ZM58.27 49.81C58.27 49.51 58.01 49.25 57.71 49.25C57.38 49.25 57.12 49.51 57.12 49.81L57.12 57.51C57.12 57.82 57.38 58.08 57.69 58.08C58.01 58.08 58.27 57.82 58.27 57.51Z" fill="#627386" /><line x1="18" y1="76" x2="48" y2="76" stroke="#627386" stroke-opacity="0.4" /><g aria-label="Packages: 104"><circle cx="22" cy="96" r="4" fill="#673bd6" /><path d="M41.38 93.99C41.38 92.55 40.40 91.33 38.62 91.33L35.82 91.33C35.35 91.33 34.98 91.71 34.98 92.17L34.98 99.44C34.98 99.79 35.26 100.08 35.61 100.08C35.98 100.08 36.26 99.79 36.26 99.44L36.26 96.66L38.62 96.66C40.37 96.66 41.38 95.44 41.38 93.99ZM40.06 93.99C40.06 94.89 39.40 95.52 38.45 95.52L36.26 95.52L36.26 92.47L38.45 92.47C39.40 92.47 40.06 93.08 40.06 93.99ZM47.48 95.75C47.48 94.15 46.31 93.56 44.96 93.56C44.11 93.56 43.17 93.84 42.57 94.44C42.49 94.53 42.45 94.63 42.45 94.73C42.45 95.01 42.70 95.19 42.93 95.19C43.02 95.19 43.13 95.15 43.22 95.09C43.69 94.72 44.21 94.54 44.79 94.54C45.67 94.54 46.32 95.01 46.32 95.80L46.32 96.15L44.52 96.15C43.22 96.15 42.07 96.66 42.07 98.08C42.07 99.45 43.22 100.16 44.26 100.16C45.23 100.16 45.82 99.86 46.32 99.30L46.32 99.51C46.32 99.88 46.62 100.08 46.86 100.08L46.90 100.08C47.22 100.08 47.48 99.82 47.48 99.51ZM46.32 96.96L46.32 97.84C46.32 98.58 45.48 99.34 44.57 99.34C43.72 99.34 43.24 98.83 43.24 98.10C43.24 97.35 43.84 96.96 44.83 96.96ZM54.35 99.05C54.35 98.75 54.07 98.54 53.80 98.54C53.67 98.54 53.54 98.58 53.44 98.66C53.08 98.97 52.68 99.13 52.21 99.13C50.97 99.13 50.16 98.17 50.16 96.85C50.16 95.54 50.97 94.59 52.21 94.59C52.67 94.59 53.08 94.73 53.44 95.05C53.54 95.14 53.67 95.19 53.80 95.19C54.09 95.19 54.33 94.96 54.33 94.67C54.33 94.57 54.31 94.47 54.24 94.40C53.81 93.90 53.11 93.56 52.15 93.56C50.26 93.56 48.96 94.98 48.96 96.85C48.96 98.74 50.26 100.16 52.15 100.16C53.08 100.16 53.72 99.84 54.19 99.39C54.29 99.30 54.35 99.17 54.35 99.05ZM60.92 99.51C60.92 99.39 60.88 99.26 60.81 99.17L58.74 96.57L60.69 94.53C60.78 94.42 60.83 94.31 60.83 94.18C60.83 93.89 60.57 93.63 60.29 93.63C60.16 93.63 60.01 93.69 59.91 93.80L56.95 96.92L56.95 91.81C56.95 91.51 56.69 91.25 56.39 91.25C56.05 91.25 55.79 91.51 55.79 91.81L55.79 99.51C55.79 99.82 56.05 100.08 56.36 100.08C56.69 100.08 56.95 99.82 56.95 99.51L56.95 98.26L57.91 97.28L59.90 99.86C60.00 100.01 60.18 100.09 60.35 100.09C60.70 100.09 60.92 99.78 60.92 99.51ZM67.59 95.75C67.59 94.15 66.42 93.56 65.07 93.56C64.23 93.56 63.28 93.84 62.68 94.44C62.60 94.53 62.56 94.63 62.56 94.73C62.56 95.01 62.81 95.19 63.04 95.19C63.13 95.19 63.24 95.15 63.33 95.09C63.80 94.72 64.32 94.54 64.90 94.54C65.78 94.54 66.44 95.01 66.44 95.80L66.44 96.15L64.63 96.15C63.33 96.15 62.18 96.66 62.18 98.08C62.18 99.45 63.33 100.16 64.37 100.16C65.34 100.16 65.93 99.86 66.44 99.30L66.44 99.51C66.44 99.88 66.73 100.08 66.97 100.08L67.01 100.08C67.33 100.08 67.59 99.82 67.59 99.51ZM66.44 96.96L66.44 97.84C66.44 98.58 65.59 99.34 64.68 99.34C63.84 99.34 63.35 98.83 63.35 98.10C63.35 97.35 63.95 96.96 64.94 96.96ZM75.08 94.20C75.08 93.90 74.82 93.64 74.52 93.64C74.18 93.64 73.92 93.90 73.92 94.20L73.92 94.63C73.42 93.95 72.69 93.56 71.86 93.56C70.23 93.56 69.07 94.79 69.07 96.81C69.07 98.86 70.24 100.05 71.86 100.05C72.71 100.05 73.45 99.60 73.92 98.96L73.92 99.79C73.92 101.13 72.96 101.60 71.99 101.60C71.30 101.60 70.75 101.46 70.27 101.05C70.18 100.99 70.09 100.96 69.97 100.96C69.71 100.96 69.48 101.18 69.48 101.46C69.48 101.59 69.53 101.70 69.61 101.78C70.22 102.37 71.10 102.55 71.99 102.55C73.52 102.55 75.08 101.91 75.08 99.75ZM73.92 96.83C73.92 98.11 73.08 99.03 72.04 99.03C70.87 99.03 70.27 98.10 70.27 96.81C70.27 95.50 70.87 94.59 72.04 94.59C73.08 94.59 73.92 95.49 73.92 96.78ZM82.75 96.65C82.75 96.40 82.69 96.13 82.63 95.92C82.27 94.51 81.23 93.56 79.71 93.56C77.89 93.56 76.58 95.03 76.58 96.85C76.58 98.83 77.94 100.16 79.81 100.16C80.73 100.16 82.35 99.67 82.35 98.97C82.35 98.53 81.91 98.43 81.62 98.57C81.16 98.91 80.46 99.22 79.93 99.22C78.66 99.22 77.88 98.35 77.78 97.27L82.15 97.27C82.48 97.27 82.75 96.96 82.75 96.65ZM77.78 96.41C77.84 95.54 78.45 94.50 79.70 94.50C81.03 94.50 81.61 95.57 81.63 96.41ZM88.83 98.10C88.72 95.89 85.12 96.50 84.99 95.37C84.93 94.86 85.48 94.49 86.27 94.49C86.87 94.49 87.43 94.68 87.83 94.97C87.91 95.03 88.00 95.06 88.11 95.06C88.34 95.06 88.56 94.86 88.56 94.61C88.56 94.50 88.52 94.40 88.44 94.32C87.95 93.84 87.16 93.56 86.26 93.56C84.73 93.56 83.80 94.29 83.87 95.41C83.99 97.52 87.57 96.87 87.70 98.26C87.76 98.83 87.24 99.23 86.34 99.23C85.69 99.23 85.04 98.97 84.57 98.64C84.48 98.57 84.39 98.54 84.27 98.54C84.00 98.54 83.76 98.75 83.76 99.03C83.76 99.16 83.82 99.26 83.91 99.34C84.48 99.91 85.43 100.16 86.29 100.16C87.95 100.16 88.90 99.30 88.83 98.10Z" fill="#22272e" /><path d="M201.32 92.32C201.32 91.73 200.83 91.26 200.24 91.26C199.94 91.26 199.66 91.38 199.46 91.58L197.46 93.60C197.30 93.76 197.23 93.95 197.23 94.15C197.23 94.58 197.59 94.92 197.99 94.92C198.18 94.92 198.36 94.85 198.50 94.71L199.48 93.71L199.48 99.17C199.48 99.66 199.89 100.08 200.39 100.08C200.91 100.08 201.32 99.66 201.32 99.17ZM209.80 95.67C209.80 93.44 208.68 91.20 206.21 91.20C203.73 91.20 202.62 93.44 202.62 95.67C202.62 97.91 203.73 100.16 206.21 100.16C208.68 100.16 209.80 97.91 209.80 95.67ZM207.91 95.67C207.91 97.27 207.44 98.52 206.21 98.52C204.96 98.52 204.49 97.27 204.49 95.67C204.49 94.07 204.96 92.84 206.21 92.84C207.44 92.84 207.91 94.07 207.91 95.67ZM217.75 97.40C217.75 96.94 217.39 96.58 216.96 96.58L216.56 96.58L216.56 92.29C216.56 91.48 215.78 91.12 214.98 91.25C214.43 91.25 213.87 91.55 213.57 92.02L210.67 96.59C210.55 96.78 210.50 96.98 210.50 97.19C210.50 97.78 210.93 98.21 211.45 98.21L214.71 98.21L214.71 99.17C214.71 99.66 215.13 100.08 215.62 100.08C216.14 100.08 216.56 99.66 216.56 99.17L216.56 98.21L216.96 98.21C217.39 98.21 217.75 97.84 217.75 97.40ZM212.37 96.58L214.71 92.97L214.71 96.58Z" fill="#627386" /></g><g aria-label="Organizations: 8"><circle cx="22" cy="118" r="4" fill="#2c96f2" /><path d="M43.33 117.67C43.33 115.10 41.54 113.19 38.97 113.19C36.38 113.19 34.60 115.10 34.60 117.67C34.60 120.25 36.38 122.16 38.97 122.16C41.54 122.16 43.33 120.25 43.33 117.67ZM42.01 117.67C42.01 119.58 40.81 121.01 38.97 121.01C37.11 121.01 35.94 119.58 35.94 117.67C35.94 115.75 37.11 114.33 38.97 114.33C40.81 114.33 42.01 115.75 42.01 117.67ZM48.18 116.15C48.18 115.85 47.96 115.63 47.66 115.63C46.96 115.63 46.39 116.22 46.04 116.70L46.04 116.20C46.04 115.90 45.78 115.64 45.48 115.64C45.14 115.64 44.88 115.90 44.88 116.20L44.88 121.51C44.88 121.82 45.13 122.06 45.44 122.08L45.45 122.08C45.78 122.08 46.04 121.82 46.04 121.51L46.04 118.28C46.04 117.46 46.61 116.81 47.60 116.76C47.92 116.75 48.18 116.49 48.18 116.15ZM54.90 116.20C54.90 115.90 54.64 115.64 54.34 115.64C54.01 115.64 53.75 115.90 53.75 116.20L53.75 116.63C53.24 115.95 52.51 115.56 51.68 115.56C50.05 115.56 48.90 116.79 48.90 118.81C48.90 120.86 50.07 122.05 51.68 122.05C52.54 122.05 53.28 121.60 53.75 120.96L53.75 121.79C53.75 123.13 52.78 123.60 51.81 123.60C51.12 123.60 50.57 123.46 50.09 123.05C50.00 122.99 49.91 122.96 49.80 122.96C49.53 122.96 49.30 123.18 49.30 123.46C49.30 123.59 49.35 123.70 49.43 123.78C50.04 124.37 50.93 124.55 51.81 124.55C53.34 124.55 54.90 123.91 54.90 121.75ZM53.75 118.83C53.75 120.11 52.90 121.03 51.86 121.03C50.69 121.03 50.09 120.10 50.09 118.81C50.09 117.50 50.69 116.59 51.86 116.59C52.90 116.59 53.75 117.49 53.75 118.78ZM61.82 117.75C61.82 116.15 60.65 115.56 59.30 115.56C58.45 115.56 57.50 115.84 56.91 116.44C56.83 116.53 56.79 116.63 56.79 116.73C56.79 117.01 57.04 117.19 57.27 117.19C57.36 117.19 57.46 117.15 57.56 117.09C58.02 116.72 58.54 116.54 59.13 116.54C60.01 116.54 60.66 117.01 60.66 117.80L60.66 118.15L58.86 118.15C57.56 118.15 56.41 118.66 56.41 120.08C56.41 121.45 57.56 122.16 58.60 122.16C59.57 122.16 60.16 121.86 60.66 121.30L60.66 121.51C60.66 121.88 60.96 122.08 61.20 122.08L61.23 122.08C61.56 122.08 61.82 121.82 61.82 121.51ZM60.66 118.96L60.66 119.84C60.66 120.58 59.82 121.34 58.91 121.34C58.06 121.34 57.58 120.83 57.58 120.10C57.58 119.35 58.18 118.96 59.17 118.96ZM69.07 117.97C69.07 116.64 68.11 115.56 66.79 115.56C65.69 115.56 65.13 116.10 64.84 116.61L64.84 116.20C64.84 115.90 64.58 115.64 64.28 115.64C63.94 115.64 63.68 115.90 63.68 116.20L63.68 121.51C63.68 121.82 63.94 122.08 64.25 122.08C64.58 122.08 64.84 121.82 64.84 121.51L64.84 118.49C64.84 117.42 65.41 116.59 66.41 116.59C67.34 116.59 67.92 117.32 67.92 118.36L67.92 121.51C67.92 121.82 68.18 122.08 68.49 122.08C68.81 122.08 69.07 121.82 69.07 121.51ZM71.52 113.39C71.11 113.39 70.78 113.73 70.78 114.15C70.78 114.55 71.11 114.89 71.52 114.89C71.93 114.89 72.26 114.55 72.26 114.15C72.26 113.73 71.93 113.39 71.52 113.39ZM72.10 116.20C72.10 115.90 71.84 115.64 71.54 115.64C71.21 115.64 70.95 115.90 70.95 116.20L70.95 121.51C70.95 121.82 71.21 122.08 71.52 122.08C71.84 122.08 72.10 121.82 72.10 121.51ZM78.63 121.48C78.63 121.22 78.41 121.00 78.15 121.00L75.18 121.00L78.45 116.66C78.52 116.55 78.56 116.42 78.56 116.29C78.56 115.95 78.30 115.72 78.04 115.72L74.09 115.72C73.82 115.72 73.60 115.94 73.60 116.22C73.60 116.51 73.82 116.73 74.09 116.73L76.96 116.73L73.74 121.04C73.66 121.14 73.61 121.27 73.61 121.42C73.61 121.75 73.86 122 74.16 122L78.15 122C78.41 122 78.63 121.78 78.63 121.48ZM85.18 117.75C85.18 116.15 84.01 115.56 82.66 115.56C81.81 115.56 80.86 115.84 80.27 116.44C80.19 116.53 80.15 116.63 80.15 116.73C80.15 117.01 80.40 117.19 80.63 117.19C80.72 117.19 80.83 117.15 80.92 117.09C81.38 116.72 81.90 116.54 82.49 116.54C83.37 116.54 84.02 117.01 84.02 117.80L84.02 118.15L82.22 118.15C80.92 118.15 79.77 118.66 79.77 120.08C79.77 121.45 80.92 122.16 81.96 122.16C82.93 122.16 83.52 121.86 84.02 121.30L84.02 121.51C84.02 121.88 84.32 122.08 84.56 122.08L84.60 122.08C84.92 122.08 85.18 121.82 85.18 121.51ZM84.02 118.96L84.02 119.84C84.02 120.58 83.18 121.34 82.27 121.34C81.42 121.34 80.94 120.83 80.94 120.10C80.94 119.35 81.54 118.96 82.53 118.96ZM89.97 121.55C89.97 121.27 89.76 121.06 89.47 121.06C89.34 121.06 89.19 121.13 89.04 121.13C88.67 121.13 88.43 120.83 88.43 120.35L88.43 116.73L89.29 116.73C89.56 116.73 89.78 116.51 89.78 116.24C89.78 115.94 89.56 115.72 89.29 115.72L88.43 115.72L88.43 114.49C88.43 114.19 88.17 113.93 87.86 113.93C87.52 113.93 87.26 114.19 87.26 114.49L87.26 115.72L86.65 115.72C86.36 115.72 86.14 115.94 86.14 116.22C86.14 116.51 86.36 116.73 86.65 116.73L87.26 116.73L87.26 120.62C87.26 121.61 87.78 122.16 88.77 122.16C89.46 122.16 89.97 121.96 89.97 121.55ZM91.59 113.39C91.19 113.39 90.85 113.73 90.85 114.15C90.85 114.55 91.19 114.89 91.59 114.89C92.01 114.89 92.33 114.55 92.33 114.15C92.33 113.73 92.01 113.39 91.59 113.39ZM92.17 116.20C92.17 115.90 91.91 115.64 91.62 115.64C91.28 115.64 91.02 115.90 91.02 116.20L91.02 121.51C91.02 121.82 91.28 122.08 91.59 122.08C91.91 122.08 92.17 121.82 92.17 121.51ZM100.00 118.85C100.00 117.05 98.79 115.56 96.83 115.56C94.88 115.56 93.67 117.05 93.67 118.85C93.67 120.66 94.88 122.16 96.83 122.16C98.79 122.16 100.00 120.66 100.00 118.85ZM98.79 118.85C98.79 120.06 98.09 121.13 96.83 121.13C95.58 121.13 94.87 120.06 94.87 118.85C94.87 117.66 95.58 116.59 96.83 116.59C98.09 116.59 98.79 117.66 98.79 118.85ZM106.89 117.97C106.89 116.64 105.93 115.56 104.60 115.56C103.51 115.56 102.95 116.10 102.65 116.61L102.65 116.20C102.65 115.90 102.39 115.64 102.09 115.64C101.76 115.64 101.50 115.90 101.50 116.20L101.50 121.51C101.50 121.82 101.76 122.08 102.07 122.08C102.39 122.08 102.65 121.82 102.65 121.51L102.65 118.49C102.65 117.42 103.22 116.59 104.23 116.59C105.16 116.59 105.73 117.32 105.73 118.36L105.73 121.51C105.73 121.82 105.99 122.08 106.31 122.08C106.63 122.08 106.89 121.82 106.89 121.51ZM113.36 120.10C113.25 117.89 109.65 118.50 109.52 117.37C109.46 116.86 110.01 116.49 110.80 116.49C111.40 116.49 111.96 116.68 112.36 116.97C112.44 117.03 112.53 117.06 112.64 117.06C112.87 117.06 113.09 116.86 113.09 116.61C113.09 116.50 113.05 116.40 112.97 116.32C112.48 115.84 111.69 115.56 110.79 115.56C109.26 115.56 108.33 116.29 108.40 117.41C108.52 119.52 112.10 118.87 112.23 120.26C112.29 120.83 111.77 121.23 110.87 121.23C110.22 121.23 109.57 120.97 109.10 120.64C109.01 120.57 108.92 120.54 108.80 120.54C108.53 120.54 108.29 120.75 108.29 121.03C108.29 121.16 108.35 121.26 108.44 121.34C109.01 121.91 109.96 122.16 110.82 122.16C112.48 122.16 113.43 121.30 113.36 120.10Z" fill="#22272e" /><path d="M217.54 119.62C217.54 118.44 216.84 117.76 216.32 117.53C216.76 117.32 217.40 116.83 217.40 115.49C217.40 113.99 215.79 113.20 214.06 113.20C212.32 113.20 210.72 113.99 210.72 115.49C210.72 116.83 211.34 117.32 211.79 117.53C211.27 117.76 210.58 118.44 210.58 119.62C210.58 121.25 212.24 122.16 214.06 122.16C215.88 122.16 217.54 121.23 217.54 119.62ZM215.52 115.77C215.52 116.42 214.85 116.80 214.06 116.80C213.27 116.80 212.59 116.42 212.59 115.77C212.59 115.15 213.20 114.78 214.06 114.78C214.91 114.78 215.52 115.15 215.52 115.77ZM215.67 119.52C215.67 120.15 214.94 120.57 214.06 120.57C213.15 120.57 212.45 120.15 212.45 119.52C212.45 118.79 213.25 118.36 214.06 118.36C214.85 118.36 215.67 118.79 215.67 119.52Z" fill="#627386" /></g><g aria-label="Versions Published: 14,651"><circle cx="22" cy="140" r="4" fill="#00a5fe" /><path d="M42.28 135.93C42.28 135.58 42.00 135.25 41.59 135.25C41.31 135.25 41.06 135.42 40.97 135.68L38.32 142.60L35.68 135.68C35.57 135.41 35.31 135.25 35.05 135.25C34.64 135.25 34.35 135.62 34.35 135.93C34.35 136.02 34.36 136.10 34.40 136.17L37.28 143.39C37.43 143.81 37.85 144.08 38.29 144.08L38.36 144.08C38.78 144.08 39.20 143.81 39.37 143.39L42.24 136.17C42.27 136.10 42.28 136.00 42.28 135.93ZM48.60 140.65C48.60 140.40 48.53 140.13 48.48 139.92C48.12 138.51 47.08 137.56 45.56 137.56C43.74 137.56 42.42 139.03 42.42 140.85C42.42 142.83 43.79 144.16 45.66 144.16C46.58 144.16 48.20 143.68 48.20 142.97C48.20 142.53 47.75 142.43 47.47 142.57C47.01 142.91 46.31 143.22 45.78 143.22C44.50 143.22 43.72 142.35 43.63 141.27L48.00 141.27C48.33 141.27 48.60 140.96 48.60 140.65ZM43.63 140.41C43.69 139.54 44.30 138.50 45.54 138.50C46.88 138.50 47.46 139.57 47.48 140.41ZM53.38 138.15C53.38 137.85 53.16 137.63 52.86 137.63C52.16 137.63 51.59 138.22 51.24 138.70L51.24 138.20C51.24 137.90 50.98 137.64 50.68 137.64C50.34 137.64 50.08 137.90 50.08 138.20L50.08 143.51C50.08 143.82 50.33 144.06 50.64 144.08L50.65 144.08C50.98 144.08 51.24 143.82 51.24 143.51L51.24 140.28C51.24 139.46 51.81 138.81 52.80 138.76C53.12 138.75 53.38 138.49 53.38 138.15ZM59.08 142.10C58.96 139.89 55.36 140.50 55.23 139.37C55.18 138.87 55.72 138.49 56.52 138.49C57.11 138.49 57.67 138.68 58.08 138.97C58.15 139.03 58.25 139.06 58.35 139.06C58.58 139.06 58.80 138.87 58.80 138.60C58.80 138.50 58.77 138.40 58.69 138.32C58.19 137.84 57.40 137.56 56.50 137.56C54.97 137.56 54.05 138.29 54.11 139.41C54.23 141.52 57.82 140.87 57.95 142.26C58.00 142.83 57.48 143.23 56.58 143.23C55.93 143.23 55.28 142.97 54.81 142.63C54.72 142.57 54.63 142.54 54.51 142.54C54.24 142.54 54.01 142.75 54.01 143.03C54.01 143.16 54.06 143.26 54.15 143.34C54.72 143.91 55.67 144.16 56.53 144.16C58.19 144.16 59.14 143.30 59.08 142.10ZM61.13 135.39C60.73 135.39 60.39 135.73 60.39 136.15C60.39 136.55 60.73 136.89 61.13 136.89C61.55 136.89 61.87 136.55 61.87 136.15C61.87 135.73 61.55 135.39 61.13 135.39ZM61.72 138.20C61.72 137.90 61.46 137.64 61.16 137.64C60.82 137.64 60.56 137.90 60.56 138.20L60.56 143.51C60.56 143.82 60.82 144.08 61.13 144.08C61.46 144.08 61.72 143.82 61.72 143.51ZM69.54 140.85C69.54 139.05 68.33 137.56 66.37 137.56C64.42 137.56 63.21 139.05 63.21 140.85C63.21 142.66 64.42 144.16 66.37 144.16C68.33 144.16 69.54 142.66 69.54 140.85ZM68.33 140.85C68.33 142.06 67.63 143.13 66.37 143.13C65.12 143.13 64.41 142.06 64.41 140.85C64.41 139.66 65.12 138.59 66.37 138.59C67.63 138.59 68.33 139.66 68.33 140.85ZM76.43 139.97C76.43 138.64 75.47 137.56 74.14 137.56C73.05 137.56 72.49 138.10 72.19 138.60L72.19 138.20C72.19 137.90 71.93 137.64 71.64 137.64C71.30 137.64 71.04 137.90 71.04 138.20L71.04 143.51C71.04 143.82 71.30 144.08 71.61 144.08C71.93 144.08 72.19 143.82 72.19 143.51L72.19 140.49C72.19 139.42 72.77 138.59 73.77 138.59C74.70 138.59 75.28 139.32 75.28 140.36L75.28 143.51C75.28 143.82 75.54 144.08 75.85 144.08C76.17 144.08 76.43 143.82 76.43 143.51ZM82.91 142.10C82.79 139.89 79.19 140.50 79.06 139.37C79.01 138.87 79.55 138.49 80.35 138.49C80.94 138.49 81.50 138.68 81.91 138.97C81.98 139.03 82.07 139.06 82.18 139.06C82.41 139.06 82.63 138.87 82.63 138.60C82.63 138.50 82.59 138.40 82.52 138.32C82.02 137.84 81.23 137.56 80.33 137.56C78.80 137.56 77.88 138.29 77.94 139.41C78.06 141.52 81.65 140.87 81.78 142.26C81.83 142.83 81.31 143.23 80.41 143.23C79.76 143.23 79.11 142.97 78.64 142.63C78.55 142.57 78.46 142.54 78.34 142.54C78.07 142.54 77.84 142.75 77.84 143.03C77.84 143.16 77.89 143.26 77.98 143.34C78.55 143.91 79.50 144.16 80.36 144.16C82.02 144.16 82.97 143.30 82.91 142.10ZM94.18 137.99C94.18 136.55 93.19 135.33 91.41 135.33L88.61 135.33C88.15 135.33 87.77 135.71 87.77 136.17L87.77 143.44C87.77 143.79 88.05 144.08 88.41 144.08C88.77 144.08 89.06 143.79 89.06 143.44L89.06 140.66L91.41 140.66C93.16 140.66 94.18 139.44 94.18 137.99ZM92.85 137.99C92.85 138.89 92.19 139.51 91.24 139.51L89.06 139.51L89.06 136.47L91.24 136.47C92.19 136.47 92.85 137.08 92.85 137.99ZM100.90 138.20C100.90 137.90 100.64 137.64 100.34 137.64C100.00 137.64 99.74 137.90 99.74 138.20L99.74 141.19C99.74 142.26 99.06 143.13 98.13 143.13C97.19 143.13 96.66 142.41 96.66 141.37L96.66 138.20C96.66 137.90 96.40 137.64 96.10 137.64C95.76 137.64 95.50 137.90 95.50 138.20L95.50 141.78C95.50 143.10 96.44 144.16 97.77 144.16C98.86 144.16 99.40 143.68 99.74 143.14L99.74 143.51C99.74 143.82 100.00 144.08 100.31 144.08C100.64 144.08 100.90 143.82 100.90 143.51ZM108.78 140.87C108.78 138.85 107.74 137.56 106.11 137.56C105.15 137.56 104.42 137.96 103.91 138.63L103.91 135.81C103.91 135.51 103.65 135.25 103.36 135.25C103.02 135.25 102.76 135.51 102.76 135.81L102.76 143.51C102.76 143.82 103.02 144.08 103.33 144.08C103.65 144.08 103.91 143.82 103.91 143.51L103.91 143.10C104.38 143.73 105.14 144.16 105.98 144.16C107.61 144.16 108.78 142.92 108.78 140.87ZM107.57 140.87C107.57 142.18 106.98 143.13 105.79 143.13C104.95 143.13 103.91 142.22 103.91 140.92L103.91 140.83C103.91 139.54 104.69 138.59 105.79 138.59C106.98 138.59 107.57 139.55 107.57 140.87ZM111.43 135.81C111.43 135.51 111.17 135.25 110.87 135.25C110.53 135.25 110.27 135.51 110.27 135.81L110.27 143.51C110.27 143.82 110.53 144.08 110.84 144.08C111.17 144.08 111.43 143.82 111.43 143.51ZM113.87 135.39C113.47 135.39 113.13 135.73 113.13 136.15C113.13 136.55 113.47 136.89 113.87 136.89C114.29 136.89 114.61 136.55 114.61 136.15C114.61 135.73 114.29 135.39 113.87 135.39ZM114.46 138.20C114.46 137.90 114.20 137.64 113.90 137.64C113.56 137.64 113.30 137.90 113.30 138.20L113.30 143.51C113.30 143.82 113.56 144.08 113.87 144.08C114.20 144.08 114.46 143.82 114.46 143.51ZM120.93 142.10C120.81 139.89 117.21 140.50 117.08 139.37C117.03 138.87 117.58 138.49 118.37 138.49C118.97 138.49 119.53 138.68 119.93 138.97C120.01 139.03 120.10 139.06 120.20 139.06C120.44 139.06 120.66 138.87 120.66 138.60C120.66 138.50 120.62 138.40 120.54 138.32C120.05 137.84 119.25 137.56 118.36 137.56C116.82 137.56 115.90 138.29 115.96 139.41C116.08 141.52 119.67 140.87 119.80 142.26C119.85 142.83 119.33 143.23 118.43 143.23C117.78 143.23 117.13 142.97 116.67 142.63C116.58 142.57 116.48 142.54 116.37 142.54C116.09 142.54 115.86 142.75 115.86 143.03C115.86 143.16 115.91 143.26 116.00 143.34C116.58 143.91 117.52 144.16 118.38 144.16C120.05 144.16 121.00 143.30 120.93 142.10ZM127.82 139.94C127.82 138.62 126.87 137.56 125.55 137.56C124.44 137.56 123.87 138.10 123.57 138.60L123.57 135.81C123.57 135.51 123.31 135.25 123.01 135.25C122.67 135.25 122.41 135.51 122.41 135.81L122.41 143.51C122.41 143.82 122.67 144.08 122.98 144.08C123.31 144.08 123.57 143.82 123.57 143.51L123.57 140.56C123.57 139.38 124.19 138.59 125.18 138.59C126.12 138.59 126.66 139.29 126.66 140.33L126.66 143.51C126.66 143.82 126.92 144.08 127.24 144.08C127.56 144.08 127.82 143.82 127.82 143.51ZM135.49 140.65C135.49 140.40 135.43 140.13 135.37 139.92C135.01 138.51 133.97 137.56 132.45 137.56C130.63 137.56 129.32 139.03 129.32 140.85C129.32 142.83 130.68 144.16 132.55 144.16C133.48 144.16 135.09 143.68 135.09 142.97C135.09 142.53 134.65 142.43 134.36 142.57C133.90 142.91 133.20 143.22 132.67 143.22C131.40 143.22 130.62 142.35 130.52 141.27L134.89 141.27C135.22 141.27 135.49 140.96 135.49 140.65ZM130.52 140.41C130.58 139.54 131.19 138.50 132.44 138.50C133.77 138.50 134.35 139.57 134.37 140.41ZM142.61 135.81C142.61 135.51 142.35 135.25 142.06 135.25C141.72 135.25 141.46 135.51 141.46 135.81L141.46 138.63C140.95 137.96 140.34 137.56 139.39 137.56C137.75 137.56 136.60 138.85 136.60 140.87C136.60 142.92 137.77 144.16 139.39 144.16C140.37 144.16 140.98 143.73 141.46 143.10L141.46 143.51C141.46 143.82 141.72 144.08 142.03 144.08C142.35 144.08 142.61 143.82 142.61 143.51ZM141.46 140.91C141.46 142.21 140.81 143.13 139.69 143.13C138.52 143.13 137.79 142.18 137.79 140.87C137.79 139.55 138.52 138.59 139.69 138.59C140.81 138.59 141.46 139.54 141.46 140.83Z" fill="#22272e" /><path d="M185.18 136.32C185.18 135.73 184.68 135.26 184.10 135.26C183.80 135.26 183.51 135.38 183.32 135.58L181.31 137.60C181.16 137.76 181.08 137.96 181.08 138.15C181.08 138.58 181.44 138.92 181.85 138.92C182.03 138.92 182.21 138.85 182.35 138.71L183.33 137.71L183.33 143.17C183.33 143.66 183.75 144.08 184.24 144.08C184.76 144.08 185.18 143.66 185.18 143.17ZM193.55 141.40C193.55 140.94 193.18 140.58 192.75 140.58L192.35 140.58L192.35 136.29C192.35 135.49 191.57 135.12 190.78 135.25C190.22 135.25 189.66 135.55 189.36 136.02L186.46 140.59C186.34 140.78 186.29 140.98 186.29 141.19C186.29 141.78 186.72 142.21 187.24 142.21L190.50 142.21L190.50 143.17C190.50 143.66 190.92 144.08 191.41 144.08C191.93 144.08 192.35 143.66 192.35 143.17L192.35 142.21L192.75 142.21C193.18 142.21 193.55 141.84 193.55 141.40ZM188.16 140.58L190.50 136.97L190.50 140.58ZM196.59 143.36C196.59 142.52 196.03 142.04 195.42 142.04C194.87 142.04 194.40 142.50 194.40 143.08C194.40 143.64 194.79 144.01 195.29 144.01C195.38 144.01 195.50 143.99 195.54 143.97C195.46 144.31 195.17 144.72 194.83 144.99C194.74 145.07 194.70 145.17 194.70 145.27C194.70 145.53 194.98 145.69 195.20 145.69C195.33 145.69 195.44 145.65 195.54 145.56C196.19 144.97 196.59 144.19 196.59 143.36ZM204.35 141.18C204.35 139.33 202.96 138.36 201.40 138.36C200.32 138.36 199.51 138.89 199.18 139.48C199.16 139.41 199.16 139.36 199.16 139.29C199.16 137.92 200.06 136.84 201.33 136.84C201.78 136.84 202.14 136.91 202.47 137.08C202.58 137.15 202.71 137.18 202.84 137.18C203.25 137.18 203.69 136.86 203.69 136.37C203.69 136.24 203.65 136.12 203.60 136.02C203.27 135.45 202.18 135.20 201.33 135.20C198.77 135.20 197.29 137.06 197.29 139.68C197.29 142.13 198.40 144.16 201.03 144.16C203.01 144.16 204.35 142.87 204.35 141.18ZM202.48 141.24C202.48 141.89 202.00 142.52 201.00 142.52C200.18 142.52 199.57 141.96 199.57 141.15C199.57 140.37 200.19 139.81 201.00 139.81C201.83 139.81 202.48 140.37 202.48 141.24ZM212.20 141.15C212.20 139.40 210.89 138.34 209.42 138.34C208.63 138.34 207.92 138.66 207.51 139.07L207.51 136.95L210.90 136.95C211.33 136.95 211.69 136.59 211.69 136.15C211.69 135.69 211.33 135.33 210.90 135.33L206.70 135.33C206.13 135.33 205.66 135.80 205.66 136.37L205.66 139.70C205.66 140.20 206.03 140.58 206.60 140.58C206.86 140.58 207.11 140.50 207.31 140.36C207.78 140.05 208.24 139.94 208.77 139.94C209.76 139.94 210.33 140.46 210.33 141.23C210.33 141.93 209.74 142.52 208.72 142.52C208.09 142.52 207.50 142.35 206.99 142.04C206.83 141.95 206.66 141.89 206.51 141.89C206.05 141.89 205.62 142.25 205.62 142.73C205.62 142.86 205.66 142.99 205.73 143.10C206.13 143.78 207.60 144.16 208.73 144.16C210.82 144.16 212.20 143.00 212.20 141.15ZM217.14 136.32C217.14 135.73 216.65 135.26 216.06 135.26C215.76 135.26 215.48 135.38 215.28 135.58L213.28 137.60C213.12 137.76 213.05 137.96 213.05 138.15C213.05 138.58 213.41 138.92 213.81 138.92C214.00 138.92 214.18 138.85 214.32 138.71L215.30 137.71L215.30 143.17C215.30 143.66 215.71 144.08 216.21 144.08C216.73 144.08 217.14 143.66 217.14 143.17Z" fill="#627386" /></g><g aria-label="This Week: 21,825,814"><circle cx="22" cy="162" r="4" fill="#00d559" /><path d="M41.14 157.91C41.14 157.58 40.89 157.33 40.58 157.33L34.87 157.33C34.56 157.33 34.31 157.58 34.31 157.89C34.31 158.21 34.56 158.47 34.87 158.47L37.08 158.47L37.08 165.44C37.08 165.79 37.37 166.08 37.72 166.08C38.08 166.08 38.37 165.79 38.37 165.44L38.37 158.47L40.58 158.47C40.89 158.47 41.14 158.21 41.14 157.91ZM47.79 161.94C47.79 160.62 46.84 159.56 45.52 159.56C44.41 159.56 43.84 160.10 43.54 160.60L43.54 157.81C43.54 157.51 43.28 157.25 42.98 157.25C42.64 157.25 42.38 157.51 42.38 157.81L42.38 165.51C42.38 165.82 42.64 166.08 42.96 166.08C43.28 166.08 43.54 165.82 43.54 165.51L43.54 162.56C43.54 161.38 44.17 160.59 45.15 160.59C46.09 160.59 46.64 161.29 46.64 162.33L46.64 165.51C46.64 165.82 46.90 166.08 47.21 166.08C47.53 166.08 47.79 165.82 47.79 165.51ZM50.24 157.39C49.83 157.39 49.50 157.73 49.50 158.15C49.50 158.55 49.83 158.89 50.24 158.89C50.65 158.89 50.98 158.55 50.98 158.15C50.98 157.73 50.65 157.39 50.24 157.39ZM50.82 160.20C50.82 159.90 50.56 159.64 50.26 159.64C49.92 159.64 49.66 159.90 49.66 160.20L49.66 165.51C49.66 165.82 49.92 166.08 50.24 166.08C50.56 166.08 50.82 165.82 50.82 165.51ZM57.30 164.10C57.18 161.89 53.58 162.50 53.45 161.37C53.40 160.87 53.94 160.49 54.73 160.49C55.33 160.49 55.89 160.68 56.30 160.97C56.37 161.03 56.46 161.06 56.57 161.06C56.80 161.06 57.02 160.87 57.02 160.60C57.02 160.50 56.98 160.40 56.91 160.32C56.41 159.84 55.62 159.56 54.72 159.56C53.19 159.56 52.27 160.29 52.33 161.41C52.45 163.52 56.04 162.87 56.17 164.26C56.22 164.83 55.70 165.23 54.80 165.23C54.15 165.23 53.50 164.97 53.03 164.63C52.94 164.57 52.85 164.54 52.73 164.54C52.46 164.54 52.23 164.75 52.23 165.03C52.23 165.16 52.28 165.26 52.37 165.34C52.94 165.91 53.89 166.16 54.75 166.16C56.41 166.16 57.36 165.30 57.30 164.10ZM72.45 157.89C72.45 157.54 72.17 157.24 71.77 157.24C71.45 157.24 71.17 157.45 71.10 157.75L69.40 164.30L67.62 157.73C67.54 157.45 67.28 157.25 66.99 157.25C66.68 157.25 66.42 157.45 66.36 157.73L64.56 164.30L62.86 157.75C62.78 157.43 62.48 157.22 62.18 157.22C61.77 157.22 61.51 157.55 61.51 157.89C61.51 157.95 61.52 158.00 61.53 158.07L63.64 165.45C63.73 165.82 64.06 166.08 64.46 166.08L64.49 166.08C64.88 166.08 65.21 165.82 65.32 165.44L66.98 159.29L68.63 165.44C68.72 165.81 69.06 166.08 69.45 166.08L69.48 166.08C69.87 166.08 70.22 165.82 70.32 165.44L72.43 158.07C72.44 158.02 72.45 157.95 72.45 157.89ZM78.99 162.65C78.99 162.40 78.93 162.13 78.88 161.92C78.51 160.51 77.47 159.56 75.95 159.56C74.13 159.56 72.82 161.03 72.82 162.85C72.82 164.83 74.18 166.16 76.06 166.16C76.98 166.16 78.59 165.68 78.59 164.97C78.59 164.53 78.15 164.43 77.86 164.57C77.41 164.91 76.71 165.22 76.17 165.22C74.90 165.22 74.12 164.35 74.03 163.27L78.40 163.27C78.72 163.27 78.99 162.96 78.99 162.65ZM74.03 162.41C74.08 161.54 74.69 160.50 75.94 160.50C77.28 160.50 77.85 161.57 77.88 162.41ZM86.27 162.65C86.27 162.40 86.21 162.13 86.16 161.92C85.79 160.51 84.75 159.56 83.23 159.56C81.41 159.56 80.10 161.03 80.10 162.85C80.10 164.83 81.46 166.16 83.34 166.16C84.26 166.16 85.87 165.68 85.87 164.97C85.87 164.53 85.43 164.43 85.14 164.57C84.69 164.91 83.99 165.22 83.45 165.22C82.18 165.22 81.40 164.35 81.31 163.27L85.68 163.27C86.00 163.27 86.27 162.96 86.27 162.65ZM81.31 162.41C81.36 161.54 81.97 160.50 83.22 160.50C84.56 160.50 85.13 161.57 85.16 162.41ZM92.89 165.51C92.89 165.39 92.85 165.26 92.77 165.17L90.71 162.57L92.66 160.53C92.75 160.42 92.80 160.31 92.80 160.18C92.80 159.89 92.54 159.63 92.25 159.63C92.12 159.63 91.98 159.69 91.88 159.80L88.91 162.92L88.91 157.81C88.91 157.51 88.65 157.25 88.35 157.25C88.02 157.25 87.76 157.51 87.76 157.81L87.76 165.51C87.76 165.82 88.02 166.08 88.33 166.08C88.65 166.08 88.91 165.82 88.91 165.51L88.91 164.26L89.87 163.28L91.86 165.86C91.97 166.01 92.15 166.09 92.32 166.09C92.67 166.09 92.89 165.78 92.89 165.51Z" fill="#22272e" /><path d="M160.85 165.17C160.85 164.74 160.49 164.38 160.06 164.38L157.24 164.38C159.49 162.74 160.71 161.45 160.71 159.97C160.71 158.24 159.24 157.20 157.39 157.20C156.30 157.20 154.85 157.67 154.43 158.33C154.35 158.45 154.31 158.58 154.31 158.71C154.31 159.18 154.69 159.54 155.12 159.54C155.31 159.54 155.48 159.49 155.65 159.37C156.15 159.03 156.74 158.84 157.43 158.84C158.15 158.84 158.84 159.21 158.84 159.97C158.84 160.98 157.80 161.93 154.56 164.32C154.31 164.50 154.17 164.80 154.17 165.10C154.17 165.62 154.59 166 155.04 166L160.06 166C160.49 166 160.85 165.64 160.85 165.17ZM165.92 158.32C165.92 157.73 165.43 157.26 164.84 157.26C164.54 157.26 164.26 157.38 164.06 157.58L162.06 159.60C161.91 159.76 161.83 159.96 161.83 160.15C161.83 160.58 162.19 160.92 162.59 160.92C162.78 160.92 162.96 160.85 163.10 160.71L164.08 159.71L164.08 165.17C164.08 165.66 164.49 166.08 164.99 166.08C165.51 166.08 165.92 165.66 165.92 165.17ZM169.57 165.36C169.57 164.52 169.02 164.04 168.41 164.04C167.86 164.04 167.39 164.50 167.39 165.08C167.39 165.64 167.78 166.01 168.28 166.01C168.37 166.01 168.48 165.99 168.52 165.97C168.44 166.31 168.16 166.72 167.82 166.99C167.73 167.07 167.69 167.17 167.69 167.27C167.69 167.53 167.96 167.69 168.18 167.69C168.31 167.69 168.43 167.65 168.52 167.56C169.17 166.97 169.57 166.19 169.57 165.36ZM177.53 163.62C177.53 162.44 176.83 161.76 176.31 161.53C176.75 161.32 177.39 160.83 177.39 159.49C177.39 157.99 175.78 157.20 174.05 157.20C172.31 157.20 170.71 157.99 170.71 159.49C170.71 160.83 171.33 161.32 171.77 161.53C171.25 161.76 170.56 162.44 170.56 163.62C170.56 165.25 172.23 166.16 174.05 166.16C175.87 166.16 177.53 165.23 177.53 163.62ZM175.50 159.77C175.50 160.42 174.84 160.80 174.05 160.80C173.25 160.80 172.58 160.42 172.58 159.77C172.58 159.15 173.19 158.78 174.05 158.78C174.89 158.78 175.50 159.15 175.50 159.77ZM175.66 163.52C175.66 164.15 174.93 164.57 174.05 164.57C173.14 164.57 172.44 164.15 172.44 163.52C172.44 162.79 173.24 162.36 174.05 162.36C174.84 162.36 175.66 162.79 175.66 163.52ZM185.20 165.17C185.20 164.74 184.84 164.38 184.41 164.38L181.59 164.38C183.84 162.74 185.06 161.45 185.06 159.97C185.06 158.24 183.59 157.20 181.74 157.20C180.65 157.20 179.20 157.67 178.78 158.33C178.70 158.45 178.66 158.58 178.66 158.71C178.66 159.18 179.04 159.54 179.47 159.54C179.66 159.54 179.83 159.49 180.00 159.37C180.50 159.03 181.09 158.84 181.78 158.84C182.50 158.84 183.19 159.21 183.19 159.97C183.19 160.98 182.15 161.93 178.91 164.32C178.66 164.50 178.52 164.80 178.52 165.10C178.52 165.62 178.94 166 179.39 166L184.41 166C184.84 166 185.20 165.64 185.20 165.17ZM193.24 163.15C193.24 161.40 191.92 160.34 190.45 160.34C189.66 160.34 188.96 160.66 188.54 161.07L188.54 158.95L191.94 158.95C192.36 158.95 192.73 158.59 192.73 158.15C192.73 157.69 192.36 157.33 191.94 157.33L187.74 157.33C187.16 157.33 186.70 157.80 186.70 158.37L186.70 161.70C186.70 162.20 187.06 162.58 187.63 162.58C187.89 162.58 188.14 162.50 188.35 162.36C188.82 162.05 189.27 161.94 189.80 161.94C190.79 161.94 191.36 162.46 191.36 163.23C191.36 163.93 190.78 164.52 189.75 164.52C189.13 164.52 188.53 164.35 188.02 164.04C187.87 163.95 187.70 163.89 187.54 163.89C187.09 163.89 186.66 164.25 186.66 164.73C186.66 164.86 186.70 164.99 186.76 165.10C187.16 165.78 188.63 166.16 189.76 166.16C191.86 166.16 193.24 165.00 193.24 163.15ZM196.49 165.36C196.49 164.52 195.93 164.04 195.32 164.04C194.77 164.04 194.30 164.50 194.30 165.08C194.30 165.64 194.69 166.01 195.19 166.01C195.28 166.01 195.39 165.99 195.43 165.97C195.35 166.31 195.07 166.72 194.73 166.99C194.64 167.07 194.60 167.17 194.60 167.27C194.60 167.53 194.87 167.69 195.09 167.69C195.22 167.69 195.34 167.65 195.43 167.56C196.08 166.97 196.49 166.19 196.49 165.36ZM204.44 163.62C204.44 162.44 203.74 161.76 203.22 161.53C203.66 161.32 204.30 160.83 204.30 159.49C204.30 157.99 202.69 157.20 200.96 157.20C199.22 157.20 197.62 157.99 197.62 159.49C197.62 160.83 198.24 161.32 198.68 161.53C198.16 161.76 197.47 162.44 197.47 163.62C197.47 165.25 199.14 166.16 200.96 166.16C202.78 166.16 204.44 165.23 204.44 163.62ZM202.41 159.77C202.41 160.42 201.75 160.80 200.96 160.80C200.16 160.80 199.49 160.42 199.49 159.77C199.49 159.15 200.10 158.78 200.96 158.78C201.80 158.78 202.41 159.15 202.41 159.77ZM202.57 163.52C202.57 164.15 201.84 164.57 200.96 164.57C200.05 164.57 199.35 164.15 199.35 163.52C199.35 162.79 200.15 162.36 200.96 162.36C201.75 162.36 202.57 162.79 202.57 163.52ZM209.38 158.32C209.38 157.73 208.89 157.26 208.30 157.26C208.00 157.26 207.72 157.38 207.52 157.58L205.52 159.60C205.36 159.76 205.29 159.96 205.29 160.15C205.29 160.58 205.65 160.92 206.05 160.92C206.24 160.92 206.42 160.85 206.56 160.71L207.54 159.71L207.54 165.17C207.54 165.66 207.95 166.08 208.45 166.08C208.97 166.08 209.38 165.66 209.38 165.17ZM217.75 163.40C217.75 162.94 217.39 162.58 216.96 162.58L216.56 162.58L216.56 158.29C216.56 157.49 215.78 157.12 214.98 157.25C214.43 157.25 213.87 157.55 213.57 158.02L210.67 162.59C210.55 162.78 210.50 162.98 210.50 163.19C210.50 163.78 210.93 164.21 211.45 164.21L214.71 164.21L214.71 165.17C214.71 165.66 215.13 166.08 215.62 166.08C216.14 166.08 216.56 165.66 216.56 165.17L216.56 164.21L216.96 164.21C217.39 164.21 217.75 163.84 217.75 163.40ZM212.37 162.58L214.71 158.97L214.71 162.58Z" fill="#627386" /></g></svg>